G04 EAGLE Gerber RS-274X export*
G75*
%MOMM*%
%FSLAX34Y34*%
%LPD*%
%INTop Copper*%
%IPPOS*%
%AMOC8*
5,1,8,0,0,1.08239X$1,22.5*%
G01*
%ADD10C,2.900000*%
%ADD11R,1.300000X1.300000*%
%ADD12R,1.500000X1.300000*%
%ADD13C,2.000000*%
%ADD14C,0.756400*%
%ADD15C,0.508000*%

G36*
X689348Y10162D02*
X689348Y10162D01*
X689357Y10161D01*
X689445Y10182D01*
X689535Y10200D01*
X689542Y10205D01*
X689550Y10207D01*
X689623Y10261D01*
X689699Y10313D01*
X689703Y10320D01*
X689710Y10325D01*
X689757Y10403D01*
X689806Y10480D01*
X689807Y10489D01*
X689812Y10496D01*
X689839Y10660D01*
X689839Y989340D01*
X689838Y989348D01*
X689839Y989357D01*
X689818Y989445D01*
X689800Y989535D01*
X689795Y989542D01*
X689793Y989550D01*
X689739Y989623D01*
X689687Y989699D01*
X689680Y989703D01*
X689675Y989710D01*
X689597Y989757D01*
X689520Y989806D01*
X689511Y989807D01*
X689504Y989812D01*
X689340Y989839D01*
X10660Y989839D01*
X10652Y989838D01*
X10643Y989839D01*
X10555Y989818D01*
X10465Y989800D01*
X10458Y989795D01*
X10450Y989793D01*
X10377Y989739D01*
X10301Y989687D01*
X10297Y989680D01*
X10290Y989675D01*
X10243Y989597D01*
X10194Y989520D01*
X10193Y989511D01*
X10188Y989504D01*
X10161Y989340D01*
X10161Y10660D01*
X10162Y10652D01*
X10161Y10643D01*
X10182Y10555D01*
X10200Y10465D01*
X10205Y10458D01*
X10207Y10450D01*
X10261Y10377D01*
X10313Y10301D01*
X10320Y10297D01*
X10325Y10290D01*
X10403Y10243D01*
X10480Y10194D01*
X10489Y10193D01*
X10496Y10188D01*
X10660Y10161D01*
X689340Y10161D01*
X689348Y10162D01*
G37*
%LPC*%
G36*
X237868Y449475D02*
X237868Y449475D01*
X236975Y450368D01*
X236975Y464632D01*
X237868Y465525D01*
X241436Y465525D01*
X241444Y465526D01*
X241453Y465525D01*
X241541Y465546D01*
X241631Y465564D01*
X241638Y465569D01*
X241646Y465571D01*
X241719Y465625D01*
X241795Y465677D01*
X241799Y465684D01*
X241806Y465689D01*
X241853Y465767D01*
X241902Y465844D01*
X241903Y465853D01*
X241908Y465860D01*
X241935Y466024D01*
X241935Y478110D01*
X241933Y478122D01*
X241935Y478134D01*
X241913Y478219D01*
X241896Y478304D01*
X241889Y478315D01*
X241885Y478327D01*
X241789Y478463D01*
X207463Y512789D01*
X207452Y512796D01*
X207445Y512806D01*
X207370Y512851D01*
X207297Y512899D01*
X207284Y512901D01*
X207274Y512908D01*
X207110Y512935D01*
X199099Y512935D01*
X199097Y512935D01*
X199095Y512935D01*
X199001Y512915D01*
X198904Y512896D01*
X198903Y512894D01*
X198900Y512894D01*
X198820Y512838D01*
X198740Y512783D01*
X198739Y512781D01*
X198737Y512780D01*
X198685Y512697D01*
X198633Y512616D01*
X198633Y512613D01*
X198632Y512612D01*
X198616Y512516D01*
X198600Y512419D01*
X198601Y512417D01*
X198600Y512415D01*
X198624Y512321D01*
X198646Y512226D01*
X198647Y512224D01*
X198648Y512222D01*
X198707Y512143D01*
X198764Y512066D01*
X198766Y512065D01*
X198767Y512063D01*
X198908Y511975D01*
X204677Y509585D01*
X209185Y505077D01*
X211625Y499188D01*
X211625Y492812D01*
X209185Y486923D01*
X204677Y482415D01*
X198788Y479975D01*
X192412Y479975D01*
X186523Y482415D01*
X182015Y486923D01*
X179575Y492812D01*
X179575Y499188D01*
X182015Y505077D01*
X186523Y509585D01*
X192292Y511975D01*
X192294Y511976D01*
X192296Y511976D01*
X192376Y512031D01*
X192457Y512086D01*
X192458Y512088D01*
X192460Y512089D01*
X192512Y512170D01*
X192565Y512253D01*
X192566Y512255D01*
X192567Y512256D01*
X192583Y512352D01*
X192600Y512448D01*
X192599Y512450D01*
X192600Y512453D01*
X192578Y512546D01*
X192556Y512642D01*
X192554Y512644D01*
X192554Y512646D01*
X192497Y512723D01*
X192439Y512803D01*
X192437Y512804D01*
X192436Y512806D01*
X192353Y512855D01*
X192269Y512906D01*
X192267Y512906D01*
X192265Y512908D01*
X192101Y512935D01*
X144099Y512935D01*
X144097Y512935D01*
X144095Y512935D01*
X144001Y512915D01*
X143904Y512896D01*
X143903Y512894D01*
X143900Y512894D01*
X143820Y512838D01*
X143740Y512783D01*
X143739Y512781D01*
X143737Y512780D01*
X143685Y512697D01*
X143633Y512616D01*
X143633Y512613D01*
X143632Y512612D01*
X143616Y512516D01*
X143600Y512419D01*
X143601Y512417D01*
X143600Y512415D01*
X143624Y512321D01*
X143646Y512226D01*
X143647Y512224D01*
X143648Y512222D01*
X143707Y512143D01*
X143764Y512066D01*
X143766Y512065D01*
X143767Y512063D01*
X143908Y511975D01*
X149677Y509585D01*
X154185Y505077D01*
X156625Y499188D01*
X156625Y492812D01*
X154185Y486923D01*
X149677Y482415D01*
X143788Y479975D01*
X137412Y479975D01*
X131523Y482415D01*
X127015Y486923D01*
X124575Y492812D01*
X124575Y499188D01*
X127015Y505077D01*
X131523Y509585D01*
X137292Y511975D01*
X137294Y511976D01*
X137296Y511976D01*
X137376Y512031D01*
X137457Y512086D01*
X137458Y512088D01*
X137460Y512089D01*
X137512Y512170D01*
X137565Y512253D01*
X137566Y512255D01*
X137567Y512256D01*
X137583Y512352D01*
X137600Y512448D01*
X137599Y512450D01*
X137600Y512453D01*
X137578Y512546D01*
X137556Y512642D01*
X137554Y512644D01*
X137554Y512646D01*
X137497Y512723D01*
X137439Y512803D01*
X137437Y512804D01*
X137436Y512806D01*
X137353Y512855D01*
X137269Y512906D01*
X137267Y512906D01*
X137265Y512908D01*
X137101Y512935D01*
X114316Y512935D01*
X94705Y532547D01*
X94694Y532554D01*
X94687Y532564D01*
X94612Y532609D01*
X94539Y532657D01*
X94526Y532659D01*
X94516Y532666D01*
X94352Y532693D01*
X92802Y532693D01*
X89693Y535802D01*
X89693Y540198D01*
X92802Y543307D01*
X97198Y543307D01*
X100307Y540198D01*
X100307Y538648D01*
X100309Y538636D01*
X100307Y538624D01*
X100329Y538539D01*
X100346Y538454D01*
X100353Y538443D01*
X100357Y538431D01*
X100453Y538295D01*
X117537Y521211D01*
X117548Y521204D01*
X117555Y521194D01*
X117630Y521149D01*
X117703Y521101D01*
X117716Y521099D01*
X117726Y521092D01*
X117890Y521065D01*
X137101Y521065D01*
X137103Y521065D01*
X137105Y521065D01*
X137199Y521085D01*
X137296Y521104D01*
X137297Y521106D01*
X137300Y521106D01*
X137380Y521162D01*
X137460Y521217D01*
X137461Y521219D01*
X137463Y521220D01*
X137515Y521303D01*
X137567Y521384D01*
X137567Y521387D01*
X137568Y521388D01*
X137584Y521484D01*
X137600Y521581D01*
X137599Y521583D01*
X137600Y521585D01*
X137576Y521679D01*
X137554Y521774D01*
X137553Y521776D01*
X137552Y521778D01*
X137493Y521857D01*
X137436Y521934D01*
X137434Y521935D01*
X137433Y521937D01*
X137292Y522025D01*
X131523Y524415D01*
X127015Y528923D01*
X124575Y534812D01*
X124575Y541188D01*
X127015Y547077D01*
X131523Y551585D01*
X137412Y554025D01*
X143788Y554025D01*
X149677Y551585D01*
X154185Y547077D01*
X156625Y541188D01*
X156625Y534812D01*
X154185Y528923D01*
X149677Y524415D01*
X143908Y522025D01*
X143906Y522024D01*
X143904Y522024D01*
X143824Y521969D01*
X143743Y521914D01*
X143742Y521912D01*
X143740Y521911D01*
X143688Y521830D01*
X143635Y521747D01*
X143634Y521745D01*
X143633Y521744D01*
X143617Y521648D01*
X143600Y521552D01*
X143601Y521550D01*
X143600Y521547D01*
X143622Y521454D01*
X143644Y521358D01*
X143646Y521356D01*
X143646Y521354D01*
X143703Y521277D01*
X143761Y521197D01*
X143763Y521196D01*
X143764Y521194D01*
X143847Y521145D01*
X143931Y521094D01*
X143933Y521094D01*
X143935Y521092D01*
X144099Y521065D01*
X192101Y521065D01*
X192103Y521065D01*
X192105Y521065D01*
X192199Y521085D01*
X192296Y521104D01*
X192297Y521106D01*
X192300Y521106D01*
X192380Y521162D01*
X192460Y521217D01*
X192461Y521219D01*
X192463Y521220D01*
X192515Y521303D01*
X192567Y521384D01*
X192567Y521387D01*
X192568Y521388D01*
X192584Y521484D01*
X192600Y521581D01*
X192599Y521583D01*
X192600Y521585D01*
X192576Y521679D01*
X192554Y521774D01*
X192553Y521776D01*
X192552Y521778D01*
X192493Y521857D01*
X192436Y521934D01*
X192434Y521935D01*
X192433Y521937D01*
X192292Y522025D01*
X186523Y524415D01*
X182015Y528923D01*
X179575Y534812D01*
X179575Y541188D01*
X182015Y547077D01*
X186523Y551585D01*
X192412Y554025D01*
X198788Y554025D01*
X204677Y551585D01*
X209185Y547077D01*
X211625Y541188D01*
X211625Y534812D01*
X209185Y528923D01*
X204677Y524415D01*
X198908Y522025D01*
X198906Y522024D01*
X198904Y522024D01*
X198824Y521969D01*
X198743Y521914D01*
X198742Y521912D01*
X198740Y521911D01*
X198688Y521830D01*
X198635Y521747D01*
X198634Y521745D01*
X198633Y521744D01*
X198617Y521648D01*
X198600Y521552D01*
X198601Y521550D01*
X198600Y521547D01*
X198622Y521454D01*
X198644Y521358D01*
X198646Y521356D01*
X198646Y521354D01*
X198703Y521277D01*
X198761Y521197D01*
X198763Y521196D01*
X198764Y521194D01*
X198847Y521145D01*
X198931Y521094D01*
X198933Y521094D01*
X198935Y521092D01*
X199099Y521065D01*
X210684Y521065D01*
X250065Y481684D01*
X250065Y466024D01*
X250066Y466016D01*
X250065Y466007D01*
X250086Y465919D01*
X250104Y465829D01*
X250109Y465822D01*
X250111Y465814D01*
X250165Y465741D01*
X250217Y465665D01*
X250224Y465661D01*
X250229Y465654D01*
X250307Y465607D01*
X250384Y465558D01*
X250393Y465557D01*
X250400Y465552D01*
X250564Y465525D01*
X254132Y465525D01*
X255025Y464632D01*
X255025Y450368D01*
X254132Y449475D01*
X237868Y449475D01*
G37*
%LPD*%
%LPC*%
G36*
X646688Y924839D02*
X646688Y924839D01*
X640288Y926554D01*
X634551Y929866D01*
X629866Y934551D01*
X626554Y940288D01*
X624839Y946688D01*
X624839Y953312D01*
X626554Y959712D01*
X629866Y965449D01*
X634551Y970134D01*
X640288Y973446D01*
X646688Y975161D01*
X653312Y975161D01*
X659712Y973446D01*
X665449Y970134D01*
X670134Y965449D01*
X673446Y959712D01*
X675161Y953312D01*
X675161Y946688D01*
X673446Y940288D01*
X670134Y934551D01*
X665449Y929866D01*
X659712Y926554D01*
X653312Y924839D01*
X646688Y924839D01*
G37*
%LPD*%
%LPC*%
G36*
X46688Y924839D02*
X46688Y924839D01*
X40288Y926554D01*
X34551Y929866D01*
X29866Y934551D01*
X26554Y940288D01*
X24839Y946688D01*
X24839Y953312D01*
X26554Y959712D01*
X29866Y965449D01*
X34551Y970134D01*
X40288Y973446D01*
X46688Y975161D01*
X53312Y975161D01*
X59712Y973446D01*
X65449Y970134D01*
X70134Y965449D01*
X73446Y959712D01*
X75161Y953312D01*
X75161Y946688D01*
X73446Y940288D01*
X70134Y934551D01*
X65449Y929866D01*
X59712Y926554D01*
X53312Y924839D01*
X46688Y924839D01*
G37*
%LPD*%
%LPC*%
G36*
X64288Y176839D02*
X64288Y176839D01*
X57888Y178554D01*
X52151Y181866D01*
X47466Y186551D01*
X44154Y192288D01*
X42439Y198688D01*
X42439Y205312D01*
X44154Y211712D01*
X47466Y217449D01*
X52151Y222134D01*
X57888Y225446D01*
X64288Y227161D01*
X70912Y227161D01*
X77312Y225446D01*
X83049Y222134D01*
X87734Y217449D01*
X91046Y211712D01*
X92761Y205312D01*
X92761Y198688D01*
X91046Y192288D01*
X87734Y186551D01*
X83049Y181866D01*
X77312Y178554D01*
X70912Y176839D01*
X64288Y176839D01*
G37*
%LPD*%
%LPC*%
G36*
X646688Y24839D02*
X646688Y24839D01*
X640288Y26554D01*
X634551Y29866D01*
X629866Y34551D01*
X626554Y40288D01*
X624839Y46688D01*
X624839Y53312D01*
X626554Y59712D01*
X629866Y65449D01*
X634551Y70134D01*
X640288Y73446D01*
X646688Y75161D01*
X653312Y75161D01*
X659712Y73446D01*
X665449Y70134D01*
X670134Y65449D01*
X673446Y59712D01*
X675161Y53312D01*
X675161Y46688D01*
X673446Y40288D01*
X670134Y34551D01*
X665449Y29866D01*
X659712Y26554D01*
X653312Y24839D01*
X646688Y24839D01*
G37*
%LPD*%
%LPC*%
G36*
X64288Y638839D02*
X64288Y638839D01*
X57888Y640554D01*
X52151Y643866D01*
X47466Y648551D01*
X44154Y654288D01*
X42439Y660688D01*
X42439Y667312D01*
X44154Y673712D01*
X47466Y679449D01*
X52151Y684134D01*
X57888Y687446D01*
X64288Y689161D01*
X70912Y689161D01*
X77312Y687446D01*
X83049Y684134D01*
X87734Y679449D01*
X91046Y673712D01*
X92761Y667312D01*
X92761Y660688D01*
X91046Y654288D01*
X87734Y648551D01*
X83049Y643866D01*
X77312Y640554D01*
X70912Y638839D01*
X64288Y638839D01*
G37*
%LPD*%
%LPC*%
G36*
X46688Y24839D02*
X46688Y24839D01*
X40288Y26554D01*
X34551Y29866D01*
X29866Y34551D01*
X26554Y40288D01*
X24839Y46688D01*
X24839Y53312D01*
X26554Y59712D01*
X29866Y65449D01*
X34551Y70134D01*
X40288Y73446D01*
X46688Y75161D01*
X53312Y75161D01*
X59712Y73446D01*
X65449Y70134D01*
X70134Y65449D01*
X73446Y59712D01*
X75161Y53312D01*
X75161Y46688D01*
X73446Y40288D01*
X70134Y34551D01*
X65449Y29866D01*
X59712Y26554D01*
X53312Y24839D01*
X46688Y24839D01*
G37*
%LPD*%
%LPC*%
G36*
X236868Y581475D02*
X236868Y581475D01*
X235975Y582368D01*
X235975Y596632D01*
X236868Y597525D01*
X240436Y597525D01*
X240444Y597526D01*
X240453Y597525D01*
X240541Y597546D01*
X240631Y597564D01*
X240638Y597569D01*
X240646Y597571D01*
X240719Y597625D01*
X240795Y597677D01*
X240799Y597684D01*
X240806Y597689D01*
X240853Y597767D01*
X240902Y597844D01*
X240903Y597853D01*
X240908Y597860D01*
X240935Y598024D01*
X240935Y678110D01*
X240933Y678122D01*
X240935Y678134D01*
X240913Y678219D01*
X240896Y678304D01*
X240889Y678315D01*
X240885Y678327D01*
X240789Y678463D01*
X216463Y702789D01*
X216452Y702796D01*
X216445Y702806D01*
X216370Y702851D01*
X216297Y702899D01*
X216284Y702901D01*
X216274Y702908D01*
X216110Y702935D01*
X180647Y702935D01*
X180635Y702933D01*
X180622Y702935D01*
X180538Y702913D01*
X180452Y702896D01*
X180442Y702889D01*
X180429Y702885D01*
X180294Y702789D01*
X179198Y701693D01*
X174802Y701693D01*
X171693Y704802D01*
X171693Y709198D01*
X174802Y712307D01*
X179198Y712307D01*
X180294Y711211D01*
X180304Y711204D01*
X180312Y711194D01*
X180387Y711149D01*
X180460Y711101D01*
X180472Y711099D01*
X180483Y711092D01*
X180647Y711065D01*
X219684Y711065D01*
X249065Y681684D01*
X249065Y598024D01*
X249066Y598016D01*
X249065Y598007D01*
X249086Y597919D01*
X249104Y597829D01*
X249109Y597822D01*
X249111Y597814D01*
X249165Y597741D01*
X249217Y597665D01*
X249224Y597661D01*
X249229Y597654D01*
X249307Y597607D01*
X249384Y597558D01*
X249393Y597557D01*
X249400Y597552D01*
X249564Y597525D01*
X253132Y597525D01*
X254025Y596632D01*
X254025Y582368D01*
X253132Y581475D01*
X236868Y581475D01*
G37*
%LPD*%
%LPC*%
G36*
X64708Y848475D02*
X64708Y848475D01*
X60472Y850230D01*
X57230Y853472D01*
X55475Y857708D01*
X55475Y862292D01*
X57230Y866528D01*
X60472Y869770D01*
X64708Y871525D01*
X89292Y871525D01*
X93528Y869770D01*
X96770Y866528D01*
X98525Y862292D01*
X98525Y857708D01*
X96770Y853472D01*
X93528Y850230D01*
X89292Y848475D01*
X64708Y848475D01*
G37*
%LPD*%
%LPC*%
G36*
X64708Y810375D02*
X64708Y810375D01*
X60472Y812130D01*
X57230Y815372D01*
X55475Y819608D01*
X55475Y824192D01*
X57230Y828428D01*
X60472Y831670D01*
X64708Y833425D01*
X89292Y833425D01*
X93528Y831670D01*
X96770Y828428D01*
X98525Y824192D01*
X98525Y819608D01*
X96770Y815372D01*
X93528Y812130D01*
X89292Y810375D01*
X64708Y810375D01*
G37*
%LPD*%
%LPC*%
G36*
X618708Y771775D02*
X618708Y771775D01*
X614472Y773530D01*
X611230Y776772D01*
X609475Y781008D01*
X609475Y785592D01*
X611230Y789828D01*
X614472Y793070D01*
X618708Y794825D01*
X643292Y794825D01*
X647528Y793070D01*
X650770Y789828D01*
X652525Y785592D01*
X652525Y781008D01*
X650770Y776772D01*
X647528Y773530D01*
X643292Y771775D01*
X618708Y771775D01*
G37*
%LPD*%
%LPC*%
G36*
X64708Y734175D02*
X64708Y734175D01*
X60472Y735930D01*
X57230Y739172D01*
X55475Y743408D01*
X55475Y747992D01*
X57230Y752228D01*
X60472Y755470D01*
X64708Y757225D01*
X89292Y757225D01*
X93528Y755470D01*
X96770Y752228D01*
X98525Y747992D01*
X98525Y743408D01*
X96770Y739172D01*
X93528Y735930D01*
X89292Y734175D01*
X64708Y734175D01*
G37*
%LPD*%
%LPC*%
G36*
X618708Y733675D02*
X618708Y733675D01*
X614472Y735430D01*
X611230Y738672D01*
X609475Y742908D01*
X609475Y747492D01*
X611230Y751728D01*
X614472Y754970D01*
X618708Y756725D01*
X643292Y756725D01*
X647528Y754970D01*
X650770Y751728D01*
X652525Y747492D01*
X652525Y742908D01*
X650770Y738672D01*
X647528Y735430D01*
X643292Y733675D01*
X618708Y733675D01*
G37*
%LPD*%
%LPC*%
G36*
X618708Y695575D02*
X618708Y695575D01*
X614472Y697330D01*
X611230Y700572D01*
X609475Y704808D01*
X609475Y709392D01*
X611230Y713628D01*
X614472Y716870D01*
X618708Y718625D01*
X643292Y718625D01*
X647528Y716870D01*
X650770Y713628D01*
X652525Y709392D01*
X652525Y704808D01*
X650770Y700572D01*
X647528Y697330D01*
X643292Y695575D01*
X618708Y695575D01*
G37*
%LPD*%
%LPC*%
G36*
X64708Y772275D02*
X64708Y772275D01*
X60472Y774030D01*
X57230Y777272D01*
X55475Y781508D01*
X55475Y786092D01*
X57230Y790328D01*
X60472Y793570D01*
X64708Y795325D01*
X89292Y795325D01*
X93528Y793570D01*
X96770Y790328D01*
X98525Y786092D01*
X98525Y781508D01*
X96770Y777272D01*
X93528Y774030D01*
X89292Y772275D01*
X64708Y772275D01*
G37*
%LPD*%
%LPC*%
G36*
X618708Y657475D02*
X618708Y657475D01*
X614472Y659230D01*
X611230Y662472D01*
X609475Y666708D01*
X609475Y671292D01*
X611230Y675528D01*
X614472Y678770D01*
X618708Y680525D01*
X643292Y680525D01*
X647528Y678770D01*
X650770Y675528D01*
X652525Y671292D01*
X652525Y666708D01*
X650770Y662472D01*
X647528Y659230D01*
X643292Y657475D01*
X618708Y657475D01*
G37*
%LPD*%
%LPC*%
G36*
X614708Y250775D02*
X614708Y250775D01*
X610472Y252530D01*
X607230Y255772D01*
X605475Y260008D01*
X605475Y264592D01*
X607230Y268828D01*
X610472Y272070D01*
X614708Y273825D01*
X639292Y273825D01*
X643528Y272070D01*
X646770Y268828D01*
X648525Y264592D01*
X648525Y260008D01*
X646770Y255772D01*
X643528Y252530D01*
X639292Y250775D01*
X614708Y250775D01*
G37*
%LPD*%
%LPC*%
G36*
X614708Y174575D02*
X614708Y174575D01*
X610472Y176330D01*
X607230Y179572D01*
X605475Y183808D01*
X605475Y188392D01*
X607230Y192628D01*
X610472Y195870D01*
X614708Y197625D01*
X639292Y197625D01*
X643528Y195870D01*
X646770Y192628D01*
X648525Y188392D01*
X648525Y183808D01*
X646770Y179572D01*
X643528Y176330D01*
X639292Y174575D01*
X614708Y174575D01*
G37*
%LPD*%
%LPC*%
G36*
X614708Y136475D02*
X614708Y136475D01*
X610472Y138230D01*
X607230Y141472D01*
X605475Y145708D01*
X605475Y150292D01*
X607230Y154528D01*
X610472Y157770D01*
X614708Y159525D01*
X639292Y159525D01*
X643528Y157770D01*
X646770Y154528D01*
X648525Y150292D01*
X648525Y145708D01*
X646770Y141472D01*
X643528Y138230D01*
X639292Y136475D01*
X614708Y136475D01*
G37*
%LPD*%
%LPC*%
G36*
X620708Y561675D02*
X620708Y561675D01*
X616472Y563430D01*
X613230Y566672D01*
X611475Y570908D01*
X611475Y575492D01*
X613230Y579728D01*
X616472Y582970D01*
X620708Y584725D01*
X645292Y584725D01*
X649528Y582970D01*
X652770Y579728D01*
X654525Y575492D01*
X654525Y570908D01*
X652770Y566672D01*
X649528Y563430D01*
X645292Y561675D01*
X620708Y561675D01*
G37*
%LPD*%
%LPC*%
G36*
X620708Y599775D02*
X620708Y599775D01*
X616472Y601530D01*
X613230Y604772D01*
X611475Y609008D01*
X611475Y613592D01*
X613230Y617828D01*
X616472Y621070D01*
X620708Y622825D01*
X645292Y622825D01*
X649528Y621070D01*
X652770Y617828D01*
X654525Y613592D01*
X654525Y609008D01*
X652770Y604772D01*
X649528Y601530D01*
X645292Y599775D01*
X620708Y599775D01*
G37*
%LPD*%
%LPC*%
G36*
X620708Y523575D02*
X620708Y523575D01*
X616472Y525330D01*
X613230Y528572D01*
X611475Y532808D01*
X611475Y537392D01*
X613230Y541628D01*
X616472Y544870D01*
X620708Y546625D01*
X645292Y546625D01*
X649528Y544870D01*
X652770Y541628D01*
X654525Y537392D01*
X654525Y532808D01*
X652770Y528572D01*
X649528Y525330D01*
X645292Y523575D01*
X620708Y523575D01*
G37*
%LPD*%
%LPC*%
G36*
X620708Y485475D02*
X620708Y485475D01*
X616472Y487230D01*
X613230Y490472D01*
X611475Y494708D01*
X611475Y499292D01*
X613230Y503528D01*
X616472Y506770D01*
X620708Y508525D01*
X645292Y508525D01*
X649528Y506770D01*
X652770Y503528D01*
X654525Y499292D01*
X654525Y494708D01*
X652770Y490472D01*
X649528Y487230D01*
X645292Y485475D01*
X620708Y485475D01*
G37*
%LPD*%
%LPC*%
G36*
X615708Y423775D02*
X615708Y423775D01*
X611472Y425530D01*
X608230Y428772D01*
X606475Y433008D01*
X606475Y437592D01*
X608230Y441828D01*
X611472Y445070D01*
X615708Y446825D01*
X640292Y446825D01*
X644528Y445070D01*
X647770Y441828D01*
X649525Y437592D01*
X649525Y433008D01*
X647770Y428772D01*
X644528Y425530D01*
X640292Y423775D01*
X615708Y423775D01*
G37*
%LPD*%
%LPC*%
G36*
X615708Y385675D02*
X615708Y385675D01*
X611472Y387430D01*
X608230Y390672D01*
X606475Y394908D01*
X606475Y399492D01*
X608230Y403728D01*
X611472Y406970D01*
X615708Y408725D01*
X640292Y408725D01*
X644528Y406970D01*
X647770Y403728D01*
X649525Y399492D01*
X649525Y394908D01*
X647770Y390672D01*
X644528Y387430D01*
X640292Y385675D01*
X615708Y385675D01*
G37*
%LPD*%
%LPC*%
G36*
X615708Y347575D02*
X615708Y347575D01*
X611472Y349330D01*
X608230Y352572D01*
X606475Y356808D01*
X606475Y361392D01*
X608230Y365628D01*
X611472Y368870D01*
X615708Y370625D01*
X640292Y370625D01*
X644528Y368870D01*
X647770Y365628D01*
X649525Y361392D01*
X649525Y356808D01*
X647770Y352572D01*
X644528Y349330D01*
X640292Y347575D01*
X615708Y347575D01*
G37*
%LPD*%
%LPC*%
G36*
X615708Y309475D02*
X615708Y309475D01*
X611472Y311230D01*
X608230Y314472D01*
X606475Y318708D01*
X606475Y323292D01*
X608230Y327528D01*
X611472Y330770D01*
X615708Y332525D01*
X640292Y332525D01*
X644528Y330770D01*
X647770Y327528D01*
X649525Y323292D01*
X649525Y318708D01*
X647770Y314472D01*
X644528Y311230D01*
X640292Y309475D01*
X615708Y309475D01*
G37*
%LPD*%
%LPC*%
G36*
X614708Y212675D02*
X614708Y212675D01*
X610472Y214430D01*
X607230Y217672D01*
X605475Y221908D01*
X605475Y226492D01*
X607230Y230728D01*
X610472Y233970D01*
X614708Y235725D01*
X639292Y235725D01*
X643528Y233970D01*
X646770Y230728D01*
X648525Y226492D01*
X648525Y221908D01*
X646770Y217672D01*
X643528Y214430D01*
X639292Y212675D01*
X614708Y212675D01*
G37*
%LPD*%
%LPC*%
G36*
X137412Y647975D02*
X137412Y647975D01*
X131523Y650415D01*
X127015Y654923D01*
X124575Y660812D01*
X124575Y667188D01*
X127015Y673077D01*
X131523Y677585D01*
X137412Y680025D01*
X143788Y680025D01*
X149677Y677585D01*
X154185Y673077D01*
X156625Y667188D01*
X156625Y660812D01*
X154185Y654923D01*
X149677Y650415D01*
X143788Y647975D01*
X137412Y647975D01*
G37*
%LPD*%
%LPC*%
G36*
X192412Y605975D02*
X192412Y605975D01*
X186523Y608415D01*
X182015Y612923D01*
X179575Y618812D01*
X179575Y625188D01*
X182015Y631077D01*
X186523Y635585D01*
X192412Y638025D01*
X198788Y638025D01*
X204677Y635585D01*
X209185Y631077D01*
X211625Y625188D01*
X211625Y618812D01*
X209185Y612923D01*
X204677Y608415D01*
X198788Y605975D01*
X192412Y605975D01*
G37*
%LPD*%
%LPC*%
G36*
X137412Y605975D02*
X137412Y605975D01*
X131523Y608415D01*
X127015Y612923D01*
X124575Y618812D01*
X124575Y625188D01*
X127015Y631077D01*
X131523Y635585D01*
X137412Y638025D01*
X143788Y638025D01*
X149677Y635585D01*
X154185Y631077D01*
X156625Y625188D01*
X156625Y618812D01*
X154185Y612923D01*
X149677Y608415D01*
X143788Y605975D01*
X137412Y605975D01*
G37*
%LPD*%
%LPC*%
G36*
X192412Y227975D02*
X192412Y227975D01*
X186523Y230415D01*
X182015Y234923D01*
X179575Y240812D01*
X179575Y247188D01*
X182015Y253077D01*
X186523Y257585D01*
X192412Y260025D01*
X198788Y260025D01*
X204677Y257585D01*
X209185Y253077D01*
X211625Y247188D01*
X211625Y240812D01*
X209185Y234923D01*
X204677Y230415D01*
X198788Y227975D01*
X192412Y227975D01*
G37*
%LPD*%
%LPC*%
G36*
X137412Y227975D02*
X137412Y227975D01*
X131523Y230415D01*
X127015Y234923D01*
X124575Y240812D01*
X124575Y247188D01*
X127015Y253077D01*
X131523Y257585D01*
X137412Y260025D01*
X143788Y260025D01*
X149677Y257585D01*
X154185Y253077D01*
X156625Y247188D01*
X156625Y240812D01*
X154185Y234923D01*
X149677Y230415D01*
X143788Y227975D01*
X137412Y227975D01*
G37*
%LPD*%
%LPC*%
G36*
X137412Y395975D02*
X137412Y395975D01*
X131523Y398415D01*
X127015Y402923D01*
X124575Y408812D01*
X124575Y415188D01*
X127015Y421077D01*
X131523Y425585D01*
X137412Y428025D01*
X143788Y428025D01*
X149677Y425585D01*
X154185Y421077D01*
X156625Y415188D01*
X156625Y408812D01*
X154185Y402923D01*
X149677Y398415D01*
X143788Y395975D01*
X137412Y395975D01*
G37*
%LPD*%
%LPC*%
G36*
X137412Y563975D02*
X137412Y563975D01*
X131523Y566415D01*
X127015Y570923D01*
X124575Y576812D01*
X124575Y583188D01*
X127015Y589077D01*
X131523Y593585D01*
X137412Y596025D01*
X143788Y596025D01*
X149677Y593585D01*
X154185Y589077D01*
X156625Y583188D01*
X156625Y576812D01*
X154185Y570923D01*
X149677Y566415D01*
X143788Y563975D01*
X137412Y563975D01*
G37*
%LPD*%
%LPC*%
G36*
X137412Y311975D02*
X137412Y311975D01*
X131523Y314415D01*
X127015Y318923D01*
X124575Y324812D01*
X124575Y331188D01*
X127015Y337077D01*
X131523Y341585D01*
X137412Y344025D01*
X143788Y344025D01*
X149677Y341585D01*
X154185Y337077D01*
X156625Y331188D01*
X156625Y324812D01*
X154185Y318923D01*
X149677Y314415D01*
X143788Y311975D01*
X137412Y311975D01*
G37*
%LPD*%
%LPC*%
G36*
X137412Y185975D02*
X137412Y185975D01*
X131523Y188415D01*
X127015Y192923D01*
X124575Y198812D01*
X124575Y205188D01*
X127015Y211077D01*
X131523Y215585D01*
X137412Y218025D01*
X143788Y218025D01*
X149677Y215585D01*
X154185Y211077D01*
X156625Y205188D01*
X156625Y198812D01*
X154185Y192923D01*
X149677Y188415D01*
X143788Y185975D01*
X137412Y185975D01*
G37*
%LPD*%
%LPC*%
G36*
X192412Y563975D02*
X192412Y563975D01*
X186523Y566415D01*
X182015Y570923D01*
X179575Y576812D01*
X179575Y583188D01*
X182015Y589077D01*
X186523Y593585D01*
X192412Y596025D01*
X198788Y596025D01*
X204677Y593585D01*
X209185Y589077D01*
X211625Y583188D01*
X211625Y576812D01*
X209185Y570923D01*
X204677Y566415D01*
X198788Y563975D01*
X192412Y563975D01*
G37*
%LPD*%
%LPC*%
G36*
X192412Y185975D02*
X192412Y185975D01*
X186523Y188415D01*
X182015Y192923D01*
X179575Y198812D01*
X179575Y205188D01*
X182015Y211077D01*
X186523Y215585D01*
X192412Y218025D01*
X198788Y218025D01*
X204677Y215585D01*
X209185Y211077D01*
X211625Y205188D01*
X211625Y198812D01*
X209185Y192923D01*
X204677Y188415D01*
X198788Y185975D01*
X192412Y185975D01*
G37*
%LPD*%
%LPC*%
G36*
X260868Y561475D02*
X260868Y561475D01*
X259975Y562368D01*
X259975Y565936D01*
X259974Y565944D01*
X259975Y565953D01*
X259954Y566041D01*
X259936Y566131D01*
X259931Y566138D01*
X259929Y566146D01*
X259875Y566219D01*
X259823Y566295D01*
X259816Y566299D01*
X259811Y566306D01*
X259733Y566353D01*
X259656Y566402D01*
X259647Y566403D01*
X259640Y566408D01*
X259476Y566435D01*
X254524Y566435D01*
X254516Y566434D01*
X254507Y566435D01*
X254419Y566414D01*
X254329Y566396D01*
X254322Y566391D01*
X254314Y566389D01*
X254241Y566335D01*
X254165Y566283D01*
X254161Y566276D01*
X254154Y566271D01*
X254107Y566193D01*
X254058Y566116D01*
X254057Y566107D01*
X254052Y566100D01*
X254025Y565936D01*
X254025Y563368D01*
X253132Y562475D01*
X236868Y562475D01*
X235975Y563368D01*
X235975Y577632D01*
X236868Y578525D01*
X253132Y578525D01*
X254025Y577632D01*
X254025Y575064D01*
X254026Y575056D01*
X254025Y575047D01*
X254046Y574959D01*
X254064Y574869D01*
X254069Y574862D01*
X254071Y574854D01*
X254125Y574781D01*
X254177Y574705D01*
X254184Y574701D01*
X254189Y574694D01*
X254267Y574647D01*
X254344Y574598D01*
X254353Y574597D01*
X254360Y574592D01*
X254524Y574565D01*
X259476Y574565D01*
X259484Y574566D01*
X259493Y574565D01*
X259581Y574586D01*
X259671Y574604D01*
X259678Y574609D01*
X259686Y574611D01*
X259759Y574665D01*
X259835Y574717D01*
X259839Y574724D01*
X259846Y574729D01*
X259893Y574807D01*
X259942Y574884D01*
X259943Y574893D01*
X259948Y574900D01*
X259975Y575064D01*
X259975Y576632D01*
X260868Y577525D01*
X275132Y577525D01*
X276025Y576632D01*
X276025Y562368D01*
X275132Y561475D01*
X260868Y561475D01*
G37*
%LPD*%
%LPC*%
G36*
X260868Y427475D02*
X260868Y427475D01*
X259975Y428368D01*
X259975Y430936D01*
X259974Y430944D01*
X259975Y430953D01*
X259954Y431041D01*
X259936Y431131D01*
X259931Y431138D01*
X259929Y431146D01*
X259875Y431219D01*
X259823Y431295D01*
X259816Y431299D01*
X259811Y431306D01*
X259733Y431353D01*
X259656Y431402D01*
X259647Y431403D01*
X259640Y431408D01*
X259476Y431435D01*
X255298Y431435D01*
X255286Y431433D01*
X255274Y431435D01*
X255189Y431413D01*
X255103Y431396D01*
X255093Y431389D01*
X255081Y431385D01*
X254945Y431289D01*
X254132Y430475D01*
X237868Y430475D01*
X236975Y431368D01*
X236975Y445632D01*
X237868Y446525D01*
X254132Y446525D01*
X255025Y445632D01*
X255025Y440064D01*
X255026Y440056D01*
X255025Y440047D01*
X255046Y439959D01*
X255064Y439869D01*
X255069Y439862D01*
X255071Y439854D01*
X255125Y439781D01*
X255177Y439705D01*
X255184Y439701D01*
X255189Y439694D01*
X255267Y439647D01*
X255344Y439598D01*
X255353Y439597D01*
X255360Y439592D01*
X255524Y439565D01*
X259476Y439565D01*
X259484Y439566D01*
X259493Y439565D01*
X259581Y439586D01*
X259671Y439604D01*
X259678Y439609D01*
X259686Y439611D01*
X259759Y439665D01*
X259835Y439717D01*
X259839Y439724D01*
X259846Y439729D01*
X259893Y439807D01*
X259942Y439884D01*
X259943Y439893D01*
X259948Y439900D01*
X259975Y440064D01*
X259975Y442632D01*
X260868Y443525D01*
X275132Y443525D01*
X276025Y442632D01*
X276025Y428368D01*
X275132Y427475D01*
X260868Y427475D01*
G37*
%LPD*%
D10*
X140600Y202000D03*
X140600Y244000D03*
X140600Y286000D03*
X140600Y328000D03*
X140600Y370000D03*
X140600Y412000D03*
X140600Y454000D03*
X140600Y496000D03*
X140600Y538000D03*
X140600Y580000D03*
X140600Y622000D03*
X140600Y664000D03*
X195600Y202000D03*
X195600Y244000D03*
X195600Y286000D03*
X195600Y328000D03*
X195600Y370000D03*
X195600Y412000D03*
X195600Y454000D03*
X195600Y496000D03*
X195600Y538000D03*
X195600Y580000D03*
X195600Y622000D03*
X195600Y664000D03*
D11*
X268000Y456500D03*
X268000Y435500D03*
X268000Y590500D03*
X268000Y569500D03*
D12*
X245000Y570500D03*
X245000Y589500D03*
X246000Y438500D03*
X246000Y457500D03*
D13*
X111000Y84000D02*
X111000Y64000D01*
X149100Y64000D02*
X149100Y84000D01*
X187200Y84000D02*
X187200Y64000D01*
X225300Y64000D02*
X225300Y84000D01*
X617000Y148000D02*
X637000Y148000D01*
X637000Y186100D02*
X617000Y186100D01*
X617000Y224200D02*
X637000Y224200D01*
X637000Y262300D02*
X617000Y262300D01*
X623000Y497000D02*
X643000Y497000D01*
X643000Y535100D02*
X623000Y535100D01*
X623000Y573200D02*
X643000Y573200D01*
X643000Y611300D02*
X623000Y611300D01*
X618000Y321000D02*
X638000Y321000D01*
X638000Y359100D02*
X618000Y359100D01*
X618000Y397200D02*
X638000Y397200D01*
X638000Y435300D02*
X618000Y435300D01*
X621000Y669000D02*
X641000Y669000D01*
X641000Y707100D02*
X621000Y707100D01*
X621000Y745200D02*
X641000Y745200D01*
X641000Y783300D02*
X621000Y783300D01*
X289000Y84000D02*
X289000Y64000D01*
X327100Y64000D02*
X327100Y84000D01*
X365200Y84000D02*
X365200Y64000D01*
X403300Y64000D02*
X403300Y84000D01*
X462000Y85000D02*
X462000Y65000D01*
X500100Y65000D02*
X500100Y85000D01*
X538200Y85000D02*
X538200Y65000D01*
X576300Y65000D02*
X576300Y85000D01*
X87000Y860000D02*
X67000Y860000D01*
X67000Y821900D02*
X87000Y821900D01*
X87000Y783800D02*
X67000Y783800D01*
X67000Y745700D02*
X87000Y745700D01*
D14*
X488000Y111000D03*
X134000Y105000D03*
X263000Y297000D03*
X65000Y304000D03*
X267000Y388000D03*
X85000Y395000D03*
X200000Y829000D03*
X277000Y831000D03*
X177000Y707000D03*
D15*
X218000Y707000D01*
X245000Y680000D02*
X245000Y589500D01*
X245000Y680000D02*
X218000Y707000D01*
D14*
X95000Y538000D03*
D15*
X116000Y517000D01*
X209000Y517000D01*
X246000Y480000D01*
X246000Y457500D01*
X246000Y438500D02*
X247975Y435500D01*
X268000Y435500D01*
X268231Y569995D02*
X267155Y570500D01*
X245000Y570500D01*
X268104Y569604D02*
X268231Y569995D01*
X268104Y569604D02*
X268000Y569500D01*
M02*
