G04 EAGLE Gerber RS-274X export*
G75*
%MOMM*%
%FSLAX34Y34*%
%LPD*%
%INBottom Copper*%
%IPPOS*%
%AMOC8*
5,1,8,0,0,1.08239X$1,22.5*%
G01*
%ADD10C,2.900000*%
%ADD11C,2.000000*%
%ADD12C,0.756400*%
%ADD13C,0.508000*%

G36*
X610008Y10162D02*
X610008Y10162D01*
X610017Y10161D01*
X610105Y10182D01*
X610195Y10200D01*
X610202Y10205D01*
X610210Y10207D01*
X610283Y10261D01*
X610359Y10313D01*
X610363Y10320D01*
X610370Y10325D01*
X610417Y10403D01*
X610466Y10480D01*
X610467Y10489D01*
X610472Y10496D01*
X610499Y10660D01*
X610499Y123000D01*
X610498Y123004D01*
X610499Y123008D01*
X610498Y123011D01*
X610499Y123017D01*
X610478Y123105D01*
X610460Y123195D01*
X610455Y123202D01*
X610453Y123210D01*
X610399Y123283D01*
X610347Y123359D01*
X610340Y123363D01*
X610335Y123370D01*
X610257Y123417D01*
X610180Y123466D01*
X610171Y123467D01*
X610164Y123472D01*
X610000Y123499D01*
X101499Y123499D01*
X101499Y267501D01*
X455000Y267501D01*
X455008Y267502D01*
X455017Y267501D01*
X455105Y267522D01*
X455195Y267540D01*
X455202Y267545D01*
X455210Y267547D01*
X455283Y267601D01*
X455359Y267653D01*
X455363Y267660D01*
X455370Y267665D01*
X455417Y267743D01*
X455466Y267820D01*
X455467Y267829D01*
X455472Y267836D01*
X455499Y268000D01*
X455499Y471000D01*
X455498Y471008D01*
X455499Y471017D01*
X455478Y471105D01*
X455460Y471195D01*
X455455Y471202D01*
X455453Y471210D01*
X455399Y471283D01*
X455347Y471359D01*
X455340Y471363D01*
X455335Y471370D01*
X455257Y471417D01*
X455180Y471466D01*
X455171Y471467D01*
X455164Y471472D01*
X455000Y471499D01*
X10660Y471499D01*
X10652Y471498D01*
X10643Y471499D01*
X10555Y471478D01*
X10465Y471460D01*
X10458Y471455D01*
X10450Y471453D01*
X10377Y471399D01*
X10301Y471347D01*
X10297Y471340D01*
X10290Y471335D01*
X10243Y471257D01*
X10194Y471180D01*
X10193Y471171D01*
X10188Y471164D01*
X10161Y471000D01*
X10161Y10660D01*
X10162Y10652D01*
X10161Y10643D01*
X10182Y10555D01*
X10200Y10465D01*
X10205Y10458D01*
X10207Y10450D01*
X10261Y10377D01*
X10313Y10301D01*
X10320Y10297D01*
X10325Y10290D01*
X10403Y10243D01*
X10480Y10194D01*
X10489Y10193D01*
X10496Y10188D01*
X10660Y10161D01*
X610000Y10161D01*
X610008Y10162D01*
G37*
G36*
X679008Y473502D02*
X679008Y473502D01*
X679017Y473501D01*
X679105Y473522D01*
X679195Y473540D01*
X679202Y473545D01*
X679210Y473547D01*
X679283Y473601D01*
X679359Y473653D01*
X679363Y473660D01*
X679370Y473665D01*
X679417Y473743D01*
X679466Y473820D01*
X679467Y473829D01*
X679472Y473836D01*
X679499Y474000D01*
X679499Y831000D01*
X679498Y831008D01*
X679499Y831017D01*
X679478Y831105D01*
X679460Y831195D01*
X679455Y831202D01*
X679453Y831210D01*
X679399Y831283D01*
X679347Y831359D01*
X679340Y831363D01*
X679335Y831370D01*
X679257Y831417D01*
X679180Y831466D01*
X679171Y831467D01*
X679164Y831472D01*
X679000Y831499D01*
X415000Y831499D01*
X414988Y831497D01*
X414975Y831499D01*
X414891Y831477D01*
X414805Y831460D01*
X414795Y831453D01*
X414783Y831449D01*
X414647Y831353D01*
X225793Y642499D01*
X178000Y642499D01*
X177988Y642497D01*
X177975Y642499D01*
X177891Y642477D01*
X177805Y642460D01*
X177795Y642453D01*
X177783Y642449D01*
X177647Y642353D01*
X170647Y635353D01*
X170640Y635342D01*
X170630Y635335D01*
X170586Y635260D01*
X170537Y635187D01*
X170535Y635175D01*
X170528Y635164D01*
X170501Y635000D01*
X170501Y525000D01*
X170503Y524988D01*
X170501Y524975D01*
X170523Y524891D01*
X170540Y524805D01*
X170548Y524795D01*
X170551Y524783D01*
X170647Y524647D01*
X178647Y516647D01*
X178658Y516640D01*
X178665Y516630D01*
X178740Y516586D01*
X178813Y516537D01*
X178825Y516535D01*
X178836Y516528D01*
X179000Y516501D01*
X205793Y516501D01*
X248647Y473647D01*
X248658Y473640D01*
X248665Y473630D01*
X248740Y473586D01*
X248813Y473537D01*
X248825Y473535D01*
X248836Y473528D01*
X249000Y473501D01*
X679000Y473501D01*
X679008Y473502D01*
G37*
G36*
X681008Y129502D02*
X681008Y129502D01*
X681017Y129501D01*
X681105Y129522D01*
X681195Y129540D01*
X681202Y129545D01*
X681210Y129547D01*
X681283Y129601D01*
X681359Y129653D01*
X681363Y129660D01*
X681370Y129665D01*
X681417Y129743D01*
X681466Y129820D01*
X681467Y129829D01*
X681472Y129836D01*
X681499Y130000D01*
X681499Y463000D01*
X681498Y463008D01*
X681499Y463016D01*
X681499Y463017D01*
X681478Y463105D01*
X681460Y463195D01*
X681455Y463202D01*
X681453Y463210D01*
X681399Y463283D01*
X681347Y463359D01*
X681340Y463363D01*
X681335Y463370D01*
X681257Y463417D01*
X681180Y463466D01*
X681171Y463467D01*
X681164Y463472D01*
X681000Y463499D01*
X465000Y463499D01*
X464992Y463498D01*
X464983Y463499D01*
X464895Y463478D01*
X464805Y463460D01*
X464798Y463455D01*
X464790Y463453D01*
X464717Y463399D01*
X464641Y463347D01*
X464637Y463340D01*
X464630Y463335D01*
X464583Y463257D01*
X464534Y463180D01*
X464533Y463171D01*
X464528Y463164D01*
X464501Y463000D01*
X464501Y265499D01*
X104000Y265499D01*
X103992Y265498D01*
X103983Y265499D01*
X103895Y265478D01*
X103805Y265460D01*
X103798Y265455D01*
X103790Y265453D01*
X103717Y265399D01*
X103641Y265347D01*
X103637Y265340D01*
X103630Y265335D01*
X103583Y265257D01*
X103534Y265180D01*
X103533Y265171D01*
X103528Y265164D01*
X103501Y265000D01*
X103501Y130000D01*
X103502Y129992D01*
X103501Y129983D01*
X103522Y129895D01*
X103540Y129805D01*
X103545Y129798D01*
X103547Y129790D01*
X103601Y129717D01*
X103653Y129641D01*
X103660Y129637D01*
X103665Y129630D01*
X103743Y129583D01*
X103820Y129534D01*
X103829Y129533D01*
X103836Y129528D01*
X104000Y129501D01*
X681000Y129501D01*
X681008Y129502D01*
G37*
G36*
X224012Y647503D02*
X224012Y647503D01*
X224025Y647501D01*
X224109Y647523D01*
X224195Y647540D01*
X224205Y647548D01*
X224217Y647551D01*
X224353Y647647D01*
X418207Y841501D01*
X672000Y841501D01*
X672012Y841503D01*
X672025Y841501D01*
X672109Y841523D01*
X672195Y841540D01*
X672205Y841548D01*
X672217Y841551D01*
X672353Y841647D01*
X680353Y849647D01*
X680360Y849658D01*
X680370Y849665D01*
X680415Y849740D01*
X680463Y849813D01*
X680465Y849825D01*
X680472Y849836D01*
X680499Y850000D01*
X680499Y985000D01*
X680498Y985005D01*
X680499Y985010D01*
X680498Y985013D01*
X680499Y985017D01*
X680478Y985105D01*
X680460Y985195D01*
X680455Y985202D01*
X680453Y985210D01*
X680399Y985283D01*
X680347Y985359D01*
X680340Y985363D01*
X680335Y985370D01*
X680257Y985417D01*
X680180Y985466D01*
X680171Y985467D01*
X680164Y985472D01*
X680000Y985499D01*
X152000Y985499D01*
X151988Y985497D01*
X151975Y985499D01*
X151891Y985477D01*
X151805Y985460D01*
X151795Y985453D01*
X151783Y985449D01*
X151647Y985353D01*
X134647Y968353D01*
X134640Y968342D01*
X134630Y968335D01*
X134586Y968260D01*
X134537Y968187D01*
X134535Y968175D01*
X134528Y968164D01*
X134501Y968000D01*
X134501Y692000D01*
X134502Y691992D01*
X134501Y691983D01*
X134522Y691894D01*
X134540Y691805D01*
X134545Y691798D01*
X134547Y691790D01*
X134601Y691717D01*
X134653Y691641D01*
X134660Y691637D01*
X134665Y691630D01*
X134743Y691583D01*
X134820Y691534D01*
X134829Y691533D01*
X134836Y691528D01*
X135000Y691501D01*
X151793Y691501D01*
X153420Y689874D01*
X153427Y689870D01*
X153432Y689863D01*
X153509Y689815D01*
X153586Y689764D01*
X153594Y689763D01*
X153601Y689758D01*
X153691Y689745D01*
X153781Y689728D01*
X153789Y689730D01*
X153798Y689729D01*
X153886Y689751D01*
X153975Y689771D01*
X153982Y689776D01*
X153990Y689778D01*
X154126Y689874D01*
X171547Y707295D01*
X171554Y707306D01*
X171564Y707313D01*
X171609Y707388D01*
X171657Y707461D01*
X171659Y707474D01*
X171666Y707484D01*
X171693Y707648D01*
X171693Y709198D01*
X174802Y712307D01*
X179198Y712307D01*
X182307Y709198D01*
X182307Y704802D01*
X179198Y701693D01*
X177648Y701693D01*
X177636Y701691D01*
X177624Y701693D01*
X177539Y701671D01*
X177454Y701654D01*
X177443Y701647D01*
X177431Y701643D01*
X177295Y701547D01*
X159874Y684126D01*
X159870Y684119D01*
X159863Y684114D01*
X159815Y684036D01*
X159764Y683960D01*
X159763Y683952D01*
X159758Y683945D01*
X159745Y683855D01*
X159728Y683765D01*
X159730Y683756D01*
X159729Y683748D01*
X159751Y683660D01*
X159771Y683570D01*
X159776Y683563D01*
X159778Y683555D01*
X159874Y683420D01*
X168501Y674793D01*
X168501Y654000D01*
X168503Y653988D01*
X168501Y653975D01*
X168523Y653891D01*
X168540Y653805D01*
X168548Y653795D01*
X168551Y653783D01*
X168647Y653647D01*
X174647Y647647D01*
X174658Y647640D01*
X174665Y647630D01*
X174740Y647586D01*
X174813Y647537D01*
X174825Y647535D01*
X174836Y647528D01*
X175000Y647501D01*
X224000Y647501D01*
X224012Y647503D01*
G37*
G36*
X164008Y559502D02*
X164008Y559502D01*
X164017Y559501D01*
X164105Y559522D01*
X164195Y559540D01*
X164202Y559545D01*
X164210Y559547D01*
X164283Y559601D01*
X164359Y559653D01*
X164363Y559660D01*
X164370Y559665D01*
X164417Y559743D01*
X164466Y559820D01*
X164467Y559829D01*
X164472Y559836D01*
X164499Y560000D01*
X164499Y644000D01*
X164498Y644008D01*
X164499Y644017D01*
X164478Y644105D01*
X164460Y644195D01*
X164455Y644202D01*
X164453Y644210D01*
X164399Y644283D01*
X164347Y644359D01*
X164340Y644363D01*
X164335Y644370D01*
X164257Y644417D01*
X164180Y644466D01*
X164171Y644467D01*
X164164Y644472D01*
X164000Y644499D01*
X123499Y644499D01*
X123499Y878000D01*
X123498Y878008D01*
X123499Y878017D01*
X123478Y878105D01*
X123460Y878195D01*
X123455Y878202D01*
X123453Y878210D01*
X123399Y878283D01*
X123347Y878359D01*
X123340Y878363D01*
X123335Y878370D01*
X123257Y878417D01*
X123180Y878466D01*
X123171Y878467D01*
X123164Y878472D01*
X123000Y878499D01*
X46000Y878499D01*
X45992Y878498D01*
X45983Y878499D01*
X45895Y878478D01*
X45805Y878460D01*
X45798Y878455D01*
X45790Y878453D01*
X45717Y878399D01*
X45641Y878347D01*
X45637Y878340D01*
X45630Y878335D01*
X45583Y878257D01*
X45534Y878180D01*
X45533Y878171D01*
X45528Y878164D01*
X45501Y878000D01*
X45501Y677908D01*
X45515Y677840D01*
X45520Y677770D01*
X45534Y677743D01*
X45540Y677713D01*
X45580Y677656D01*
X45612Y677594D01*
X45635Y677574D01*
X45653Y677549D01*
X45711Y677511D01*
X45765Y677467D01*
X45794Y677458D01*
X45820Y677442D01*
X45889Y677430D01*
X45955Y677410D01*
X45986Y677414D01*
X46017Y677409D01*
X46084Y677425D01*
X46153Y677432D01*
X46180Y677448D01*
X46210Y677455D01*
X46266Y677496D01*
X46326Y677530D01*
X46349Y677557D01*
X46370Y677573D01*
X46391Y677608D01*
X46432Y677658D01*
X47466Y679449D01*
X52151Y684134D01*
X57888Y687446D01*
X64288Y689161D01*
X70912Y689161D01*
X77312Y687446D01*
X83049Y684134D01*
X87734Y679449D01*
X91046Y673712D01*
X92761Y667312D01*
X92761Y660688D01*
X91046Y654288D01*
X87734Y648551D01*
X83049Y643866D01*
X77312Y640554D01*
X70912Y638839D01*
X64288Y638839D01*
X57888Y640554D01*
X52151Y643866D01*
X47466Y648551D01*
X46432Y650342D01*
X46386Y650394D01*
X46347Y650451D01*
X46321Y650468D01*
X46301Y650491D01*
X46238Y650521D01*
X46180Y650558D01*
X46149Y650563D01*
X46121Y650577D01*
X46052Y650580D01*
X45983Y650591D01*
X45954Y650584D01*
X45923Y650586D01*
X45857Y650561D01*
X45790Y650545D01*
X45765Y650527D01*
X45736Y650516D01*
X45686Y650468D01*
X45630Y650427D01*
X45614Y650401D01*
X45592Y650380D01*
X45564Y650316D01*
X45528Y650256D01*
X45523Y650222D01*
X45512Y650197D01*
X45511Y650156D01*
X45501Y650092D01*
X45501Y560000D01*
X45502Y559992D01*
X45501Y559983D01*
X45522Y559895D01*
X45540Y559805D01*
X45545Y559798D01*
X45547Y559790D01*
X45601Y559717D01*
X45653Y559641D01*
X45660Y559637D01*
X45665Y559630D01*
X45743Y559583D01*
X45820Y559534D01*
X45829Y559533D01*
X45836Y559528D01*
X46000Y559501D01*
X164000Y559501D01*
X164008Y559502D01*
G37*
%LPC*%
G36*
X646688Y924839D02*
X646688Y924839D01*
X640288Y926554D01*
X634551Y929866D01*
X629866Y934551D01*
X626554Y940288D01*
X624839Y946688D01*
X624839Y953312D01*
X626554Y959712D01*
X629866Y965449D01*
X634551Y970134D01*
X640288Y973446D01*
X646688Y975161D01*
X653312Y975161D01*
X659712Y973446D01*
X665449Y970134D01*
X670134Y965449D01*
X673446Y959712D01*
X675161Y953312D01*
X675161Y946688D01*
X673446Y940288D01*
X670134Y934551D01*
X665449Y929866D01*
X659712Y926554D01*
X653312Y924839D01*
X646688Y924839D01*
G37*
%LPD*%
%LPC*%
G36*
X64288Y176839D02*
X64288Y176839D01*
X57888Y178554D01*
X52151Y181866D01*
X47466Y186551D01*
X44154Y192288D01*
X42439Y198688D01*
X42439Y205312D01*
X44154Y211712D01*
X47466Y217449D01*
X52151Y222134D01*
X57888Y225446D01*
X64288Y227161D01*
X70912Y227161D01*
X77312Y225446D01*
X83049Y222134D01*
X87734Y217449D01*
X91046Y211712D01*
X92761Y205312D01*
X92761Y198688D01*
X91046Y192288D01*
X87734Y186551D01*
X83049Y181866D01*
X77312Y178554D01*
X70912Y176839D01*
X64288Y176839D01*
G37*
%LPD*%
%LPC*%
G36*
X46688Y24839D02*
X46688Y24839D01*
X40288Y26554D01*
X34551Y29866D01*
X29866Y34551D01*
X26554Y40288D01*
X24839Y46688D01*
X24839Y53312D01*
X26554Y59712D01*
X29866Y65449D01*
X34551Y70134D01*
X40288Y73446D01*
X46688Y75161D01*
X53312Y75161D01*
X59712Y73446D01*
X65449Y70134D01*
X70134Y65449D01*
X73446Y59712D01*
X75161Y53312D01*
X75161Y46688D01*
X73446Y40288D01*
X70134Y34551D01*
X65449Y29866D01*
X59712Y26554D01*
X53312Y24839D01*
X46688Y24839D01*
G37*
%LPD*%
%LPC*%
G36*
X137412Y395975D02*
X137412Y395975D01*
X131523Y398415D01*
X127015Y402923D01*
X124575Y408812D01*
X124575Y415188D01*
X127015Y421077D01*
X131523Y425585D01*
X137412Y428025D01*
X143788Y428025D01*
X149677Y425585D01*
X154185Y421077D01*
X156625Y415188D01*
X156625Y408812D01*
X154185Y402923D01*
X149677Y398415D01*
X143788Y395975D01*
X137412Y395975D01*
G37*
%LPD*%
%LPC*%
G36*
X137412Y311975D02*
X137412Y311975D01*
X131523Y314415D01*
X127015Y318923D01*
X124575Y324812D01*
X124575Y331188D01*
X127015Y337077D01*
X131523Y341585D01*
X137412Y344025D01*
X143788Y344025D01*
X149677Y341585D01*
X154185Y337077D01*
X156625Y331188D01*
X156625Y324812D01*
X154185Y318923D01*
X149677Y314415D01*
X143788Y311975D01*
X137412Y311975D01*
G37*
%LPD*%
%LPC*%
G36*
X192412Y227975D02*
X192412Y227975D01*
X186523Y230415D01*
X182015Y234923D01*
X179575Y240812D01*
X179575Y247188D01*
X182015Y253077D01*
X186523Y257585D01*
X192412Y260025D01*
X198788Y260025D01*
X204677Y257585D01*
X209185Y253077D01*
X211625Y247188D01*
X211625Y240812D01*
X209185Y234923D01*
X204677Y230415D01*
X198788Y227975D01*
X192412Y227975D01*
G37*
%LPD*%
D10*
X140600Y202000D03*
X140600Y244000D03*
X140600Y286000D03*
X140600Y328000D03*
X140600Y370000D03*
X140600Y412000D03*
X140600Y454000D03*
X140600Y496000D03*
X140600Y538000D03*
X140600Y580000D03*
X140600Y622000D03*
X140600Y664000D03*
X195600Y202000D03*
X195600Y244000D03*
X195600Y286000D03*
X195600Y328000D03*
X195600Y370000D03*
X195600Y412000D03*
X195600Y454000D03*
X195600Y496000D03*
X195600Y538000D03*
X195600Y580000D03*
X195600Y622000D03*
X195600Y664000D03*
D11*
X111000Y84000D02*
X111000Y64000D01*
X149100Y64000D02*
X149100Y84000D01*
X187200Y84000D02*
X187200Y64000D01*
X225300Y64000D02*
X225300Y84000D01*
X617000Y148000D02*
X637000Y148000D01*
X637000Y186100D02*
X617000Y186100D01*
X617000Y224200D02*
X637000Y224200D01*
X637000Y262300D02*
X617000Y262300D01*
X623000Y497000D02*
X643000Y497000D01*
X643000Y535100D02*
X623000Y535100D01*
X623000Y573200D02*
X643000Y573200D01*
X643000Y611300D02*
X623000Y611300D01*
X618000Y321000D02*
X638000Y321000D01*
X638000Y359100D02*
X618000Y359100D01*
X618000Y397200D02*
X638000Y397200D01*
X638000Y435300D02*
X618000Y435300D01*
X621000Y669000D02*
X641000Y669000D01*
X641000Y707100D02*
X621000Y707100D01*
X621000Y745200D02*
X641000Y745200D01*
X641000Y783300D02*
X621000Y783300D01*
X289000Y84000D02*
X289000Y64000D01*
X327100Y64000D02*
X327100Y84000D01*
X365200Y84000D02*
X365200Y64000D01*
X403300Y64000D02*
X403300Y84000D01*
X462000Y85000D02*
X462000Y65000D01*
X500100Y65000D02*
X500100Y85000D01*
X538200Y85000D02*
X538200Y65000D01*
X576300Y65000D02*
X576300Y85000D01*
X87000Y860000D02*
X67000Y860000D01*
X67000Y821900D02*
X87000Y821900D01*
X87000Y783800D02*
X67000Y783800D01*
X67000Y745700D02*
X87000Y745700D01*
D12*
X488000Y111000D03*
X134000Y105000D03*
X263000Y297000D03*
X65000Y304000D03*
X267000Y388000D03*
X85000Y395000D03*
X200000Y829000D03*
X277000Y831000D03*
D13*
X140600Y670600D02*
X140600Y664000D01*
X140600Y670600D02*
X177000Y707000D01*
D12*
X177000Y707000D03*
D13*
X140600Y538000D02*
X95000Y538000D01*
D12*
X95000Y538000D03*
M02*
