G04 EAGLE Gerber RS-274X export*
G75*
%MOMM*%
%FSLAX34Y34*%
%LPD*%
%IN*%
%IPPOS*%
%AMOC8*
5,1,8,0,0,1.08239X$1,22.5*%
G01*
%ADD10C,0.000000*%
%ADD11C,0.254000*%


D10*
X0Y0D02*
X700000Y0D01*
X700000Y1000000D01*
X0Y1000000D01*
X0Y0D01*
X35000Y950000D02*
X35005Y950368D01*
X35018Y950736D01*
X35041Y951103D01*
X35072Y951470D01*
X35113Y951836D01*
X35162Y952201D01*
X35221Y952564D01*
X35288Y952926D01*
X35364Y953287D01*
X35450Y953645D01*
X35543Y954001D01*
X35646Y954354D01*
X35757Y954705D01*
X35877Y955053D01*
X36005Y955398D01*
X36142Y955740D01*
X36287Y956079D01*
X36440Y956413D01*
X36602Y956744D01*
X36771Y957071D01*
X36949Y957393D01*
X37134Y957712D01*
X37327Y958025D01*
X37528Y958334D01*
X37736Y958637D01*
X37952Y958935D01*
X38175Y959228D01*
X38405Y959516D01*
X38642Y959798D01*
X38886Y960073D01*
X39136Y960343D01*
X39393Y960607D01*
X39657Y960864D01*
X39927Y961114D01*
X40202Y961358D01*
X40484Y961595D01*
X40772Y961825D01*
X41065Y962048D01*
X41363Y962264D01*
X41666Y962472D01*
X41975Y962673D01*
X42288Y962866D01*
X42607Y963051D01*
X42929Y963229D01*
X43256Y963398D01*
X43587Y963560D01*
X43921Y963713D01*
X44260Y963858D01*
X44602Y963995D01*
X44947Y964123D01*
X45295Y964243D01*
X45646Y964354D01*
X45999Y964457D01*
X46355Y964550D01*
X46713Y964636D01*
X47074Y964712D01*
X47436Y964779D01*
X47799Y964838D01*
X48164Y964887D01*
X48530Y964928D01*
X48897Y964959D01*
X49264Y964982D01*
X49632Y964995D01*
X50000Y965000D01*
X50368Y964995D01*
X50736Y964982D01*
X51103Y964959D01*
X51470Y964928D01*
X51836Y964887D01*
X52201Y964838D01*
X52564Y964779D01*
X52926Y964712D01*
X53287Y964636D01*
X53645Y964550D01*
X54001Y964457D01*
X54354Y964354D01*
X54705Y964243D01*
X55053Y964123D01*
X55398Y963995D01*
X55740Y963858D01*
X56079Y963713D01*
X56413Y963560D01*
X56744Y963398D01*
X57071Y963229D01*
X57393Y963051D01*
X57712Y962866D01*
X58025Y962673D01*
X58334Y962472D01*
X58637Y962264D01*
X58935Y962048D01*
X59228Y961825D01*
X59516Y961595D01*
X59798Y961358D01*
X60073Y961114D01*
X60343Y960864D01*
X60607Y960607D01*
X60864Y960343D01*
X61114Y960073D01*
X61358Y959798D01*
X61595Y959516D01*
X61825Y959228D01*
X62048Y958935D01*
X62264Y958637D01*
X62472Y958334D01*
X62673Y958025D01*
X62866Y957712D01*
X63051Y957393D01*
X63229Y957071D01*
X63398Y956744D01*
X63560Y956413D01*
X63713Y956079D01*
X63858Y955740D01*
X63995Y955398D01*
X64123Y955053D01*
X64243Y954705D01*
X64354Y954354D01*
X64457Y954001D01*
X64550Y953645D01*
X64636Y953287D01*
X64712Y952926D01*
X64779Y952564D01*
X64838Y952201D01*
X64887Y951836D01*
X64928Y951470D01*
X64959Y951103D01*
X64982Y950736D01*
X64995Y950368D01*
X65000Y950000D01*
X64995Y949632D01*
X64982Y949264D01*
X64959Y948897D01*
X64928Y948530D01*
X64887Y948164D01*
X64838Y947799D01*
X64779Y947436D01*
X64712Y947074D01*
X64636Y946713D01*
X64550Y946355D01*
X64457Y945999D01*
X64354Y945646D01*
X64243Y945295D01*
X64123Y944947D01*
X63995Y944602D01*
X63858Y944260D01*
X63713Y943921D01*
X63560Y943587D01*
X63398Y943256D01*
X63229Y942929D01*
X63051Y942607D01*
X62866Y942288D01*
X62673Y941975D01*
X62472Y941666D01*
X62264Y941363D01*
X62048Y941065D01*
X61825Y940772D01*
X61595Y940484D01*
X61358Y940202D01*
X61114Y939927D01*
X60864Y939657D01*
X60607Y939393D01*
X60343Y939136D01*
X60073Y938886D01*
X59798Y938642D01*
X59516Y938405D01*
X59228Y938175D01*
X58935Y937952D01*
X58637Y937736D01*
X58334Y937528D01*
X58025Y937327D01*
X57712Y937134D01*
X57393Y936949D01*
X57071Y936771D01*
X56744Y936602D01*
X56413Y936440D01*
X56079Y936287D01*
X55740Y936142D01*
X55398Y936005D01*
X55053Y935877D01*
X54705Y935757D01*
X54354Y935646D01*
X54001Y935543D01*
X53645Y935450D01*
X53287Y935364D01*
X52926Y935288D01*
X52564Y935221D01*
X52201Y935162D01*
X51836Y935113D01*
X51470Y935072D01*
X51103Y935041D01*
X50736Y935018D01*
X50368Y935005D01*
X50000Y935000D01*
X49632Y935005D01*
X49264Y935018D01*
X48897Y935041D01*
X48530Y935072D01*
X48164Y935113D01*
X47799Y935162D01*
X47436Y935221D01*
X47074Y935288D01*
X46713Y935364D01*
X46355Y935450D01*
X45999Y935543D01*
X45646Y935646D01*
X45295Y935757D01*
X44947Y935877D01*
X44602Y936005D01*
X44260Y936142D01*
X43921Y936287D01*
X43587Y936440D01*
X43256Y936602D01*
X42929Y936771D01*
X42607Y936949D01*
X42288Y937134D01*
X41975Y937327D01*
X41666Y937528D01*
X41363Y937736D01*
X41065Y937952D01*
X40772Y938175D01*
X40484Y938405D01*
X40202Y938642D01*
X39927Y938886D01*
X39657Y939136D01*
X39393Y939393D01*
X39136Y939657D01*
X38886Y939927D01*
X38642Y940202D01*
X38405Y940484D01*
X38175Y940772D01*
X37952Y941065D01*
X37736Y941363D01*
X37528Y941666D01*
X37327Y941975D01*
X37134Y942288D01*
X36949Y942607D01*
X36771Y942929D01*
X36602Y943256D01*
X36440Y943587D01*
X36287Y943921D01*
X36142Y944260D01*
X36005Y944602D01*
X35877Y944947D01*
X35757Y945295D01*
X35646Y945646D01*
X35543Y945999D01*
X35450Y946355D01*
X35364Y946713D01*
X35288Y947074D01*
X35221Y947436D01*
X35162Y947799D01*
X35113Y948164D01*
X35072Y948530D01*
X35041Y948897D01*
X35018Y949264D01*
X35005Y949632D01*
X35000Y950000D01*
X35000Y50000D02*
X35005Y50368D01*
X35018Y50736D01*
X35041Y51103D01*
X35072Y51470D01*
X35113Y51836D01*
X35162Y52201D01*
X35221Y52564D01*
X35288Y52926D01*
X35364Y53287D01*
X35450Y53645D01*
X35543Y54001D01*
X35646Y54354D01*
X35757Y54705D01*
X35877Y55053D01*
X36005Y55398D01*
X36142Y55740D01*
X36287Y56079D01*
X36440Y56413D01*
X36602Y56744D01*
X36771Y57071D01*
X36949Y57393D01*
X37134Y57712D01*
X37327Y58025D01*
X37528Y58334D01*
X37736Y58637D01*
X37952Y58935D01*
X38175Y59228D01*
X38405Y59516D01*
X38642Y59798D01*
X38886Y60073D01*
X39136Y60343D01*
X39393Y60607D01*
X39657Y60864D01*
X39927Y61114D01*
X40202Y61358D01*
X40484Y61595D01*
X40772Y61825D01*
X41065Y62048D01*
X41363Y62264D01*
X41666Y62472D01*
X41975Y62673D01*
X42288Y62866D01*
X42607Y63051D01*
X42929Y63229D01*
X43256Y63398D01*
X43587Y63560D01*
X43921Y63713D01*
X44260Y63858D01*
X44602Y63995D01*
X44947Y64123D01*
X45295Y64243D01*
X45646Y64354D01*
X45999Y64457D01*
X46355Y64550D01*
X46713Y64636D01*
X47074Y64712D01*
X47436Y64779D01*
X47799Y64838D01*
X48164Y64887D01*
X48530Y64928D01*
X48897Y64959D01*
X49264Y64982D01*
X49632Y64995D01*
X50000Y65000D01*
X50368Y64995D01*
X50736Y64982D01*
X51103Y64959D01*
X51470Y64928D01*
X51836Y64887D01*
X52201Y64838D01*
X52564Y64779D01*
X52926Y64712D01*
X53287Y64636D01*
X53645Y64550D01*
X54001Y64457D01*
X54354Y64354D01*
X54705Y64243D01*
X55053Y64123D01*
X55398Y63995D01*
X55740Y63858D01*
X56079Y63713D01*
X56413Y63560D01*
X56744Y63398D01*
X57071Y63229D01*
X57393Y63051D01*
X57712Y62866D01*
X58025Y62673D01*
X58334Y62472D01*
X58637Y62264D01*
X58935Y62048D01*
X59228Y61825D01*
X59516Y61595D01*
X59798Y61358D01*
X60073Y61114D01*
X60343Y60864D01*
X60607Y60607D01*
X60864Y60343D01*
X61114Y60073D01*
X61358Y59798D01*
X61595Y59516D01*
X61825Y59228D01*
X62048Y58935D01*
X62264Y58637D01*
X62472Y58334D01*
X62673Y58025D01*
X62866Y57712D01*
X63051Y57393D01*
X63229Y57071D01*
X63398Y56744D01*
X63560Y56413D01*
X63713Y56079D01*
X63858Y55740D01*
X63995Y55398D01*
X64123Y55053D01*
X64243Y54705D01*
X64354Y54354D01*
X64457Y54001D01*
X64550Y53645D01*
X64636Y53287D01*
X64712Y52926D01*
X64779Y52564D01*
X64838Y52201D01*
X64887Y51836D01*
X64928Y51470D01*
X64959Y51103D01*
X64982Y50736D01*
X64995Y50368D01*
X65000Y50000D01*
X64995Y49632D01*
X64982Y49264D01*
X64959Y48897D01*
X64928Y48530D01*
X64887Y48164D01*
X64838Y47799D01*
X64779Y47436D01*
X64712Y47074D01*
X64636Y46713D01*
X64550Y46355D01*
X64457Y45999D01*
X64354Y45646D01*
X64243Y45295D01*
X64123Y44947D01*
X63995Y44602D01*
X63858Y44260D01*
X63713Y43921D01*
X63560Y43587D01*
X63398Y43256D01*
X63229Y42929D01*
X63051Y42607D01*
X62866Y42288D01*
X62673Y41975D01*
X62472Y41666D01*
X62264Y41363D01*
X62048Y41065D01*
X61825Y40772D01*
X61595Y40484D01*
X61358Y40202D01*
X61114Y39927D01*
X60864Y39657D01*
X60607Y39393D01*
X60343Y39136D01*
X60073Y38886D01*
X59798Y38642D01*
X59516Y38405D01*
X59228Y38175D01*
X58935Y37952D01*
X58637Y37736D01*
X58334Y37528D01*
X58025Y37327D01*
X57712Y37134D01*
X57393Y36949D01*
X57071Y36771D01*
X56744Y36602D01*
X56413Y36440D01*
X56079Y36287D01*
X55740Y36142D01*
X55398Y36005D01*
X55053Y35877D01*
X54705Y35757D01*
X54354Y35646D01*
X54001Y35543D01*
X53645Y35450D01*
X53287Y35364D01*
X52926Y35288D01*
X52564Y35221D01*
X52201Y35162D01*
X51836Y35113D01*
X51470Y35072D01*
X51103Y35041D01*
X50736Y35018D01*
X50368Y35005D01*
X50000Y35000D01*
X49632Y35005D01*
X49264Y35018D01*
X48897Y35041D01*
X48530Y35072D01*
X48164Y35113D01*
X47799Y35162D01*
X47436Y35221D01*
X47074Y35288D01*
X46713Y35364D01*
X46355Y35450D01*
X45999Y35543D01*
X45646Y35646D01*
X45295Y35757D01*
X44947Y35877D01*
X44602Y36005D01*
X44260Y36142D01*
X43921Y36287D01*
X43587Y36440D01*
X43256Y36602D01*
X42929Y36771D01*
X42607Y36949D01*
X42288Y37134D01*
X41975Y37327D01*
X41666Y37528D01*
X41363Y37736D01*
X41065Y37952D01*
X40772Y38175D01*
X40484Y38405D01*
X40202Y38642D01*
X39927Y38886D01*
X39657Y39136D01*
X39393Y39393D01*
X39136Y39657D01*
X38886Y39927D01*
X38642Y40202D01*
X38405Y40484D01*
X38175Y40772D01*
X37952Y41065D01*
X37736Y41363D01*
X37528Y41666D01*
X37327Y41975D01*
X37134Y42288D01*
X36949Y42607D01*
X36771Y42929D01*
X36602Y43256D01*
X36440Y43587D01*
X36287Y43921D01*
X36142Y44260D01*
X36005Y44602D01*
X35877Y44947D01*
X35757Y45295D01*
X35646Y45646D01*
X35543Y45999D01*
X35450Y46355D01*
X35364Y46713D01*
X35288Y47074D01*
X35221Y47436D01*
X35162Y47799D01*
X35113Y48164D01*
X35072Y48530D01*
X35041Y48897D01*
X35018Y49264D01*
X35005Y49632D01*
X35000Y50000D01*
X635000Y50000D02*
X635005Y50368D01*
X635018Y50736D01*
X635041Y51103D01*
X635072Y51470D01*
X635113Y51836D01*
X635162Y52201D01*
X635221Y52564D01*
X635288Y52926D01*
X635364Y53287D01*
X635450Y53645D01*
X635543Y54001D01*
X635646Y54354D01*
X635757Y54705D01*
X635877Y55053D01*
X636005Y55398D01*
X636142Y55740D01*
X636287Y56079D01*
X636440Y56413D01*
X636602Y56744D01*
X636771Y57071D01*
X636949Y57393D01*
X637134Y57712D01*
X637327Y58025D01*
X637528Y58334D01*
X637736Y58637D01*
X637952Y58935D01*
X638175Y59228D01*
X638405Y59516D01*
X638642Y59798D01*
X638886Y60073D01*
X639136Y60343D01*
X639393Y60607D01*
X639657Y60864D01*
X639927Y61114D01*
X640202Y61358D01*
X640484Y61595D01*
X640772Y61825D01*
X641065Y62048D01*
X641363Y62264D01*
X641666Y62472D01*
X641975Y62673D01*
X642288Y62866D01*
X642607Y63051D01*
X642929Y63229D01*
X643256Y63398D01*
X643587Y63560D01*
X643921Y63713D01*
X644260Y63858D01*
X644602Y63995D01*
X644947Y64123D01*
X645295Y64243D01*
X645646Y64354D01*
X645999Y64457D01*
X646355Y64550D01*
X646713Y64636D01*
X647074Y64712D01*
X647436Y64779D01*
X647799Y64838D01*
X648164Y64887D01*
X648530Y64928D01*
X648897Y64959D01*
X649264Y64982D01*
X649632Y64995D01*
X650000Y65000D01*
X650368Y64995D01*
X650736Y64982D01*
X651103Y64959D01*
X651470Y64928D01*
X651836Y64887D01*
X652201Y64838D01*
X652564Y64779D01*
X652926Y64712D01*
X653287Y64636D01*
X653645Y64550D01*
X654001Y64457D01*
X654354Y64354D01*
X654705Y64243D01*
X655053Y64123D01*
X655398Y63995D01*
X655740Y63858D01*
X656079Y63713D01*
X656413Y63560D01*
X656744Y63398D01*
X657071Y63229D01*
X657393Y63051D01*
X657712Y62866D01*
X658025Y62673D01*
X658334Y62472D01*
X658637Y62264D01*
X658935Y62048D01*
X659228Y61825D01*
X659516Y61595D01*
X659798Y61358D01*
X660073Y61114D01*
X660343Y60864D01*
X660607Y60607D01*
X660864Y60343D01*
X661114Y60073D01*
X661358Y59798D01*
X661595Y59516D01*
X661825Y59228D01*
X662048Y58935D01*
X662264Y58637D01*
X662472Y58334D01*
X662673Y58025D01*
X662866Y57712D01*
X663051Y57393D01*
X663229Y57071D01*
X663398Y56744D01*
X663560Y56413D01*
X663713Y56079D01*
X663858Y55740D01*
X663995Y55398D01*
X664123Y55053D01*
X664243Y54705D01*
X664354Y54354D01*
X664457Y54001D01*
X664550Y53645D01*
X664636Y53287D01*
X664712Y52926D01*
X664779Y52564D01*
X664838Y52201D01*
X664887Y51836D01*
X664928Y51470D01*
X664959Y51103D01*
X664982Y50736D01*
X664995Y50368D01*
X665000Y50000D01*
X664995Y49632D01*
X664982Y49264D01*
X664959Y48897D01*
X664928Y48530D01*
X664887Y48164D01*
X664838Y47799D01*
X664779Y47436D01*
X664712Y47074D01*
X664636Y46713D01*
X664550Y46355D01*
X664457Y45999D01*
X664354Y45646D01*
X664243Y45295D01*
X664123Y44947D01*
X663995Y44602D01*
X663858Y44260D01*
X663713Y43921D01*
X663560Y43587D01*
X663398Y43256D01*
X663229Y42929D01*
X663051Y42607D01*
X662866Y42288D01*
X662673Y41975D01*
X662472Y41666D01*
X662264Y41363D01*
X662048Y41065D01*
X661825Y40772D01*
X661595Y40484D01*
X661358Y40202D01*
X661114Y39927D01*
X660864Y39657D01*
X660607Y39393D01*
X660343Y39136D01*
X660073Y38886D01*
X659798Y38642D01*
X659516Y38405D01*
X659228Y38175D01*
X658935Y37952D01*
X658637Y37736D01*
X658334Y37528D01*
X658025Y37327D01*
X657712Y37134D01*
X657393Y36949D01*
X657071Y36771D01*
X656744Y36602D01*
X656413Y36440D01*
X656079Y36287D01*
X655740Y36142D01*
X655398Y36005D01*
X655053Y35877D01*
X654705Y35757D01*
X654354Y35646D01*
X654001Y35543D01*
X653645Y35450D01*
X653287Y35364D01*
X652926Y35288D01*
X652564Y35221D01*
X652201Y35162D01*
X651836Y35113D01*
X651470Y35072D01*
X651103Y35041D01*
X650736Y35018D01*
X650368Y35005D01*
X650000Y35000D01*
X649632Y35005D01*
X649264Y35018D01*
X648897Y35041D01*
X648530Y35072D01*
X648164Y35113D01*
X647799Y35162D01*
X647436Y35221D01*
X647074Y35288D01*
X646713Y35364D01*
X646355Y35450D01*
X645999Y35543D01*
X645646Y35646D01*
X645295Y35757D01*
X644947Y35877D01*
X644602Y36005D01*
X644260Y36142D01*
X643921Y36287D01*
X643587Y36440D01*
X643256Y36602D01*
X642929Y36771D01*
X642607Y36949D01*
X642288Y37134D01*
X641975Y37327D01*
X641666Y37528D01*
X641363Y37736D01*
X641065Y37952D01*
X640772Y38175D01*
X640484Y38405D01*
X640202Y38642D01*
X639927Y38886D01*
X639657Y39136D01*
X639393Y39393D01*
X639136Y39657D01*
X638886Y39927D01*
X638642Y40202D01*
X638405Y40484D01*
X638175Y40772D01*
X637952Y41065D01*
X637736Y41363D01*
X637528Y41666D01*
X637327Y41975D01*
X637134Y42288D01*
X636949Y42607D01*
X636771Y42929D01*
X636602Y43256D01*
X636440Y43587D01*
X636287Y43921D01*
X636142Y44260D01*
X636005Y44602D01*
X635877Y44947D01*
X635757Y45295D01*
X635646Y45646D01*
X635543Y45999D01*
X635450Y46355D01*
X635364Y46713D01*
X635288Y47074D01*
X635221Y47436D01*
X635162Y47799D01*
X635113Y48164D01*
X635072Y48530D01*
X635041Y48897D01*
X635018Y49264D01*
X635005Y49632D01*
X635000Y50000D01*
X635000Y950000D02*
X635005Y950368D01*
X635018Y950736D01*
X635041Y951103D01*
X635072Y951470D01*
X635113Y951836D01*
X635162Y952201D01*
X635221Y952564D01*
X635288Y952926D01*
X635364Y953287D01*
X635450Y953645D01*
X635543Y954001D01*
X635646Y954354D01*
X635757Y954705D01*
X635877Y955053D01*
X636005Y955398D01*
X636142Y955740D01*
X636287Y956079D01*
X636440Y956413D01*
X636602Y956744D01*
X636771Y957071D01*
X636949Y957393D01*
X637134Y957712D01*
X637327Y958025D01*
X637528Y958334D01*
X637736Y958637D01*
X637952Y958935D01*
X638175Y959228D01*
X638405Y959516D01*
X638642Y959798D01*
X638886Y960073D01*
X639136Y960343D01*
X639393Y960607D01*
X639657Y960864D01*
X639927Y961114D01*
X640202Y961358D01*
X640484Y961595D01*
X640772Y961825D01*
X641065Y962048D01*
X641363Y962264D01*
X641666Y962472D01*
X641975Y962673D01*
X642288Y962866D01*
X642607Y963051D01*
X642929Y963229D01*
X643256Y963398D01*
X643587Y963560D01*
X643921Y963713D01*
X644260Y963858D01*
X644602Y963995D01*
X644947Y964123D01*
X645295Y964243D01*
X645646Y964354D01*
X645999Y964457D01*
X646355Y964550D01*
X646713Y964636D01*
X647074Y964712D01*
X647436Y964779D01*
X647799Y964838D01*
X648164Y964887D01*
X648530Y964928D01*
X648897Y964959D01*
X649264Y964982D01*
X649632Y964995D01*
X650000Y965000D01*
X650368Y964995D01*
X650736Y964982D01*
X651103Y964959D01*
X651470Y964928D01*
X651836Y964887D01*
X652201Y964838D01*
X652564Y964779D01*
X652926Y964712D01*
X653287Y964636D01*
X653645Y964550D01*
X654001Y964457D01*
X654354Y964354D01*
X654705Y964243D01*
X655053Y964123D01*
X655398Y963995D01*
X655740Y963858D01*
X656079Y963713D01*
X656413Y963560D01*
X656744Y963398D01*
X657071Y963229D01*
X657393Y963051D01*
X657712Y962866D01*
X658025Y962673D01*
X658334Y962472D01*
X658637Y962264D01*
X658935Y962048D01*
X659228Y961825D01*
X659516Y961595D01*
X659798Y961358D01*
X660073Y961114D01*
X660343Y960864D01*
X660607Y960607D01*
X660864Y960343D01*
X661114Y960073D01*
X661358Y959798D01*
X661595Y959516D01*
X661825Y959228D01*
X662048Y958935D01*
X662264Y958637D01*
X662472Y958334D01*
X662673Y958025D01*
X662866Y957712D01*
X663051Y957393D01*
X663229Y957071D01*
X663398Y956744D01*
X663560Y956413D01*
X663713Y956079D01*
X663858Y955740D01*
X663995Y955398D01*
X664123Y955053D01*
X664243Y954705D01*
X664354Y954354D01*
X664457Y954001D01*
X664550Y953645D01*
X664636Y953287D01*
X664712Y952926D01*
X664779Y952564D01*
X664838Y952201D01*
X664887Y951836D01*
X664928Y951470D01*
X664959Y951103D01*
X664982Y950736D01*
X664995Y950368D01*
X665000Y950000D01*
X664995Y949632D01*
X664982Y949264D01*
X664959Y948897D01*
X664928Y948530D01*
X664887Y948164D01*
X664838Y947799D01*
X664779Y947436D01*
X664712Y947074D01*
X664636Y946713D01*
X664550Y946355D01*
X664457Y945999D01*
X664354Y945646D01*
X664243Y945295D01*
X664123Y944947D01*
X663995Y944602D01*
X663858Y944260D01*
X663713Y943921D01*
X663560Y943587D01*
X663398Y943256D01*
X663229Y942929D01*
X663051Y942607D01*
X662866Y942288D01*
X662673Y941975D01*
X662472Y941666D01*
X662264Y941363D01*
X662048Y941065D01*
X661825Y940772D01*
X661595Y940484D01*
X661358Y940202D01*
X661114Y939927D01*
X660864Y939657D01*
X660607Y939393D01*
X660343Y939136D01*
X660073Y938886D01*
X659798Y938642D01*
X659516Y938405D01*
X659228Y938175D01*
X658935Y937952D01*
X658637Y937736D01*
X658334Y937528D01*
X658025Y937327D01*
X657712Y937134D01*
X657393Y936949D01*
X657071Y936771D01*
X656744Y936602D01*
X656413Y936440D01*
X656079Y936287D01*
X655740Y936142D01*
X655398Y936005D01*
X655053Y935877D01*
X654705Y935757D01*
X654354Y935646D01*
X654001Y935543D01*
X653645Y935450D01*
X653287Y935364D01*
X652926Y935288D01*
X652564Y935221D01*
X652201Y935162D01*
X651836Y935113D01*
X651470Y935072D01*
X651103Y935041D01*
X650736Y935018D01*
X650368Y935005D01*
X650000Y935000D01*
X649632Y935005D01*
X649264Y935018D01*
X648897Y935041D01*
X648530Y935072D01*
X648164Y935113D01*
X647799Y935162D01*
X647436Y935221D01*
X647074Y935288D01*
X646713Y935364D01*
X646355Y935450D01*
X645999Y935543D01*
X645646Y935646D01*
X645295Y935757D01*
X644947Y935877D01*
X644602Y936005D01*
X644260Y936142D01*
X643921Y936287D01*
X643587Y936440D01*
X643256Y936602D01*
X642929Y936771D01*
X642607Y936949D01*
X642288Y937134D01*
X641975Y937327D01*
X641666Y937528D01*
X641363Y937736D01*
X641065Y937952D01*
X640772Y938175D01*
X640484Y938405D01*
X640202Y938642D01*
X639927Y938886D01*
X639657Y939136D01*
X639393Y939393D01*
X639136Y939657D01*
X638886Y939927D01*
X638642Y940202D01*
X638405Y940484D01*
X638175Y940772D01*
X637952Y941065D01*
X637736Y941363D01*
X637528Y941666D01*
X637327Y941975D01*
X637134Y942288D01*
X636949Y942607D01*
X636771Y942929D01*
X636602Y943256D01*
X636440Y943587D01*
X636287Y943921D01*
X636142Y944260D01*
X636005Y944602D01*
X635877Y944947D01*
X635757Y945295D01*
X635646Y945646D01*
X635543Y945999D01*
X635450Y946355D01*
X635364Y946713D01*
X635288Y947074D01*
X635221Y947436D01*
X635162Y947799D01*
X635113Y948164D01*
X635072Y948530D01*
X635041Y948897D01*
X635018Y949264D01*
X635005Y949632D01*
X635000Y950000D01*
X52600Y664000D02*
X52605Y664368D01*
X52618Y664736D01*
X52641Y665103D01*
X52672Y665470D01*
X52713Y665836D01*
X52762Y666201D01*
X52821Y666564D01*
X52888Y666926D01*
X52964Y667287D01*
X53050Y667645D01*
X53143Y668001D01*
X53246Y668354D01*
X53357Y668705D01*
X53477Y669053D01*
X53605Y669398D01*
X53742Y669740D01*
X53887Y670079D01*
X54040Y670413D01*
X54202Y670744D01*
X54371Y671071D01*
X54549Y671393D01*
X54734Y671712D01*
X54927Y672025D01*
X55128Y672334D01*
X55336Y672637D01*
X55552Y672935D01*
X55775Y673228D01*
X56005Y673516D01*
X56242Y673798D01*
X56486Y674073D01*
X56736Y674343D01*
X56993Y674607D01*
X57257Y674864D01*
X57527Y675114D01*
X57802Y675358D01*
X58084Y675595D01*
X58372Y675825D01*
X58665Y676048D01*
X58963Y676264D01*
X59266Y676472D01*
X59575Y676673D01*
X59888Y676866D01*
X60207Y677051D01*
X60529Y677229D01*
X60856Y677398D01*
X61187Y677560D01*
X61521Y677713D01*
X61860Y677858D01*
X62202Y677995D01*
X62547Y678123D01*
X62895Y678243D01*
X63246Y678354D01*
X63599Y678457D01*
X63955Y678550D01*
X64313Y678636D01*
X64674Y678712D01*
X65036Y678779D01*
X65399Y678838D01*
X65764Y678887D01*
X66130Y678928D01*
X66497Y678959D01*
X66864Y678982D01*
X67232Y678995D01*
X67600Y679000D01*
X67968Y678995D01*
X68336Y678982D01*
X68703Y678959D01*
X69070Y678928D01*
X69436Y678887D01*
X69801Y678838D01*
X70164Y678779D01*
X70526Y678712D01*
X70887Y678636D01*
X71245Y678550D01*
X71601Y678457D01*
X71954Y678354D01*
X72305Y678243D01*
X72653Y678123D01*
X72998Y677995D01*
X73340Y677858D01*
X73679Y677713D01*
X74013Y677560D01*
X74344Y677398D01*
X74671Y677229D01*
X74993Y677051D01*
X75312Y676866D01*
X75625Y676673D01*
X75934Y676472D01*
X76237Y676264D01*
X76535Y676048D01*
X76828Y675825D01*
X77116Y675595D01*
X77398Y675358D01*
X77673Y675114D01*
X77943Y674864D01*
X78207Y674607D01*
X78464Y674343D01*
X78714Y674073D01*
X78958Y673798D01*
X79195Y673516D01*
X79425Y673228D01*
X79648Y672935D01*
X79864Y672637D01*
X80072Y672334D01*
X80273Y672025D01*
X80466Y671712D01*
X80651Y671393D01*
X80829Y671071D01*
X80998Y670744D01*
X81160Y670413D01*
X81313Y670079D01*
X81458Y669740D01*
X81595Y669398D01*
X81723Y669053D01*
X81843Y668705D01*
X81954Y668354D01*
X82057Y668001D01*
X82150Y667645D01*
X82236Y667287D01*
X82312Y666926D01*
X82379Y666564D01*
X82438Y666201D01*
X82487Y665836D01*
X82528Y665470D01*
X82559Y665103D01*
X82582Y664736D01*
X82595Y664368D01*
X82600Y664000D01*
X82595Y663632D01*
X82582Y663264D01*
X82559Y662897D01*
X82528Y662530D01*
X82487Y662164D01*
X82438Y661799D01*
X82379Y661436D01*
X82312Y661074D01*
X82236Y660713D01*
X82150Y660355D01*
X82057Y659999D01*
X81954Y659646D01*
X81843Y659295D01*
X81723Y658947D01*
X81595Y658602D01*
X81458Y658260D01*
X81313Y657921D01*
X81160Y657587D01*
X80998Y657256D01*
X80829Y656929D01*
X80651Y656607D01*
X80466Y656288D01*
X80273Y655975D01*
X80072Y655666D01*
X79864Y655363D01*
X79648Y655065D01*
X79425Y654772D01*
X79195Y654484D01*
X78958Y654202D01*
X78714Y653927D01*
X78464Y653657D01*
X78207Y653393D01*
X77943Y653136D01*
X77673Y652886D01*
X77398Y652642D01*
X77116Y652405D01*
X76828Y652175D01*
X76535Y651952D01*
X76237Y651736D01*
X75934Y651528D01*
X75625Y651327D01*
X75312Y651134D01*
X74993Y650949D01*
X74671Y650771D01*
X74344Y650602D01*
X74013Y650440D01*
X73679Y650287D01*
X73340Y650142D01*
X72998Y650005D01*
X72653Y649877D01*
X72305Y649757D01*
X71954Y649646D01*
X71601Y649543D01*
X71245Y649450D01*
X70887Y649364D01*
X70526Y649288D01*
X70164Y649221D01*
X69801Y649162D01*
X69436Y649113D01*
X69070Y649072D01*
X68703Y649041D01*
X68336Y649018D01*
X67968Y649005D01*
X67600Y649000D01*
X67232Y649005D01*
X66864Y649018D01*
X66497Y649041D01*
X66130Y649072D01*
X65764Y649113D01*
X65399Y649162D01*
X65036Y649221D01*
X64674Y649288D01*
X64313Y649364D01*
X63955Y649450D01*
X63599Y649543D01*
X63246Y649646D01*
X62895Y649757D01*
X62547Y649877D01*
X62202Y650005D01*
X61860Y650142D01*
X61521Y650287D01*
X61187Y650440D01*
X60856Y650602D01*
X60529Y650771D01*
X60207Y650949D01*
X59888Y651134D01*
X59575Y651327D01*
X59266Y651528D01*
X58963Y651736D01*
X58665Y651952D01*
X58372Y652175D01*
X58084Y652405D01*
X57802Y652642D01*
X57527Y652886D01*
X57257Y653136D01*
X56993Y653393D01*
X56736Y653657D01*
X56486Y653927D01*
X56242Y654202D01*
X56005Y654484D01*
X55775Y654772D01*
X55552Y655065D01*
X55336Y655363D01*
X55128Y655666D01*
X54927Y655975D01*
X54734Y656288D01*
X54549Y656607D01*
X54371Y656929D01*
X54202Y657256D01*
X54040Y657587D01*
X53887Y657921D01*
X53742Y658260D01*
X53605Y658602D01*
X53477Y658947D01*
X53357Y659295D01*
X53246Y659646D01*
X53143Y659999D01*
X53050Y660355D01*
X52964Y660713D01*
X52888Y661074D01*
X52821Y661436D01*
X52762Y661799D01*
X52713Y662164D01*
X52672Y662530D01*
X52641Y662897D01*
X52618Y663264D01*
X52605Y663632D01*
X52600Y664000D01*
X52600Y202000D02*
X52605Y202368D01*
X52618Y202736D01*
X52641Y203103D01*
X52672Y203470D01*
X52713Y203836D01*
X52762Y204201D01*
X52821Y204564D01*
X52888Y204926D01*
X52964Y205287D01*
X53050Y205645D01*
X53143Y206001D01*
X53246Y206354D01*
X53357Y206705D01*
X53477Y207053D01*
X53605Y207398D01*
X53742Y207740D01*
X53887Y208079D01*
X54040Y208413D01*
X54202Y208744D01*
X54371Y209071D01*
X54549Y209393D01*
X54734Y209712D01*
X54927Y210025D01*
X55128Y210334D01*
X55336Y210637D01*
X55552Y210935D01*
X55775Y211228D01*
X56005Y211516D01*
X56242Y211798D01*
X56486Y212073D01*
X56736Y212343D01*
X56993Y212607D01*
X57257Y212864D01*
X57527Y213114D01*
X57802Y213358D01*
X58084Y213595D01*
X58372Y213825D01*
X58665Y214048D01*
X58963Y214264D01*
X59266Y214472D01*
X59575Y214673D01*
X59888Y214866D01*
X60207Y215051D01*
X60529Y215229D01*
X60856Y215398D01*
X61187Y215560D01*
X61521Y215713D01*
X61860Y215858D01*
X62202Y215995D01*
X62547Y216123D01*
X62895Y216243D01*
X63246Y216354D01*
X63599Y216457D01*
X63955Y216550D01*
X64313Y216636D01*
X64674Y216712D01*
X65036Y216779D01*
X65399Y216838D01*
X65764Y216887D01*
X66130Y216928D01*
X66497Y216959D01*
X66864Y216982D01*
X67232Y216995D01*
X67600Y217000D01*
X67968Y216995D01*
X68336Y216982D01*
X68703Y216959D01*
X69070Y216928D01*
X69436Y216887D01*
X69801Y216838D01*
X70164Y216779D01*
X70526Y216712D01*
X70887Y216636D01*
X71245Y216550D01*
X71601Y216457D01*
X71954Y216354D01*
X72305Y216243D01*
X72653Y216123D01*
X72998Y215995D01*
X73340Y215858D01*
X73679Y215713D01*
X74013Y215560D01*
X74344Y215398D01*
X74671Y215229D01*
X74993Y215051D01*
X75312Y214866D01*
X75625Y214673D01*
X75934Y214472D01*
X76237Y214264D01*
X76535Y214048D01*
X76828Y213825D01*
X77116Y213595D01*
X77398Y213358D01*
X77673Y213114D01*
X77943Y212864D01*
X78207Y212607D01*
X78464Y212343D01*
X78714Y212073D01*
X78958Y211798D01*
X79195Y211516D01*
X79425Y211228D01*
X79648Y210935D01*
X79864Y210637D01*
X80072Y210334D01*
X80273Y210025D01*
X80466Y209712D01*
X80651Y209393D01*
X80829Y209071D01*
X80998Y208744D01*
X81160Y208413D01*
X81313Y208079D01*
X81458Y207740D01*
X81595Y207398D01*
X81723Y207053D01*
X81843Y206705D01*
X81954Y206354D01*
X82057Y206001D01*
X82150Y205645D01*
X82236Y205287D01*
X82312Y204926D01*
X82379Y204564D01*
X82438Y204201D01*
X82487Y203836D01*
X82528Y203470D01*
X82559Y203103D01*
X82582Y202736D01*
X82595Y202368D01*
X82600Y202000D01*
X82595Y201632D01*
X82582Y201264D01*
X82559Y200897D01*
X82528Y200530D01*
X82487Y200164D01*
X82438Y199799D01*
X82379Y199436D01*
X82312Y199074D01*
X82236Y198713D01*
X82150Y198355D01*
X82057Y197999D01*
X81954Y197646D01*
X81843Y197295D01*
X81723Y196947D01*
X81595Y196602D01*
X81458Y196260D01*
X81313Y195921D01*
X81160Y195587D01*
X80998Y195256D01*
X80829Y194929D01*
X80651Y194607D01*
X80466Y194288D01*
X80273Y193975D01*
X80072Y193666D01*
X79864Y193363D01*
X79648Y193065D01*
X79425Y192772D01*
X79195Y192484D01*
X78958Y192202D01*
X78714Y191927D01*
X78464Y191657D01*
X78207Y191393D01*
X77943Y191136D01*
X77673Y190886D01*
X77398Y190642D01*
X77116Y190405D01*
X76828Y190175D01*
X76535Y189952D01*
X76237Y189736D01*
X75934Y189528D01*
X75625Y189327D01*
X75312Y189134D01*
X74993Y188949D01*
X74671Y188771D01*
X74344Y188602D01*
X74013Y188440D01*
X73679Y188287D01*
X73340Y188142D01*
X72998Y188005D01*
X72653Y187877D01*
X72305Y187757D01*
X71954Y187646D01*
X71601Y187543D01*
X71245Y187450D01*
X70887Y187364D01*
X70526Y187288D01*
X70164Y187221D01*
X69801Y187162D01*
X69436Y187113D01*
X69070Y187072D01*
X68703Y187041D01*
X68336Y187018D01*
X67968Y187005D01*
X67600Y187000D01*
X67232Y187005D01*
X66864Y187018D01*
X66497Y187041D01*
X66130Y187072D01*
X65764Y187113D01*
X65399Y187162D01*
X65036Y187221D01*
X64674Y187288D01*
X64313Y187364D01*
X63955Y187450D01*
X63599Y187543D01*
X63246Y187646D01*
X62895Y187757D01*
X62547Y187877D01*
X62202Y188005D01*
X61860Y188142D01*
X61521Y188287D01*
X61187Y188440D01*
X60856Y188602D01*
X60529Y188771D01*
X60207Y188949D01*
X59888Y189134D01*
X59575Y189327D01*
X59266Y189528D01*
X58963Y189736D01*
X58665Y189952D01*
X58372Y190175D01*
X58084Y190405D01*
X57802Y190642D01*
X57527Y190886D01*
X57257Y191136D01*
X56993Y191393D01*
X56736Y191657D01*
X56486Y191927D01*
X56242Y192202D01*
X56005Y192484D01*
X55775Y192772D01*
X55552Y193065D01*
X55336Y193363D01*
X55128Y193666D01*
X54927Y193975D01*
X54734Y194288D01*
X54549Y194607D01*
X54371Y194929D01*
X54202Y195256D01*
X54040Y195587D01*
X53887Y195921D01*
X53742Y196260D01*
X53605Y196602D01*
X53477Y196947D01*
X53357Y197295D01*
X53246Y197646D01*
X53143Y197999D01*
X53050Y198355D01*
X52964Y198713D01*
X52888Y199074D01*
X52821Y199436D01*
X52762Y199799D01*
X52713Y200164D01*
X52672Y200530D01*
X52641Y200897D01*
X52618Y201264D01*
X52605Y201632D01*
X52600Y202000D01*
D11*
X0Y0D02*
X700000Y0D01*
X700000Y1000000D01*
X0Y1000000D01*
X0Y0D01*
X65000Y949464D02*
X64924Y948396D01*
X64771Y947335D01*
X64543Y946288D01*
X64241Y945260D01*
X63867Y944256D01*
X63422Y943281D01*
X62908Y942341D01*
X62329Y941440D01*
X61687Y940582D01*
X60985Y939772D01*
X60228Y939015D01*
X59418Y938313D01*
X58560Y937671D01*
X57659Y937092D01*
X56719Y936578D01*
X55744Y936133D01*
X54740Y935759D01*
X53712Y935457D01*
X52665Y935229D01*
X51604Y935076D01*
X50536Y935000D01*
X49464Y935000D01*
X48396Y935076D01*
X47335Y935229D01*
X46288Y935457D01*
X45260Y935759D01*
X44256Y936133D01*
X43281Y936578D01*
X42341Y937092D01*
X41440Y937671D01*
X40582Y938313D01*
X39772Y939015D01*
X39015Y939772D01*
X38313Y940582D01*
X37671Y941440D01*
X37092Y942341D01*
X36578Y943281D01*
X36133Y944256D01*
X35759Y945260D01*
X35457Y946288D01*
X35229Y947335D01*
X35076Y948396D01*
X35000Y949464D01*
X35000Y950536D01*
X35076Y951604D01*
X35229Y952665D01*
X35457Y953712D01*
X35759Y954740D01*
X36133Y955744D01*
X36578Y956719D01*
X37092Y957659D01*
X37671Y958560D01*
X38313Y959418D01*
X39015Y960228D01*
X39772Y960985D01*
X40582Y961687D01*
X41440Y962329D01*
X42341Y962908D01*
X43281Y963422D01*
X44256Y963867D01*
X45260Y964241D01*
X46288Y964543D01*
X47335Y964771D01*
X48396Y964924D01*
X49464Y965000D01*
X50536Y965000D01*
X51604Y964924D01*
X52665Y964771D01*
X53712Y964543D01*
X54740Y964241D01*
X55744Y963867D01*
X56719Y963422D01*
X57659Y962908D01*
X58560Y962329D01*
X59418Y961687D01*
X60228Y960985D01*
X60985Y960228D01*
X61687Y959418D01*
X62329Y958560D01*
X62908Y957659D01*
X63422Y956719D01*
X63867Y955744D01*
X64241Y954740D01*
X64543Y953712D01*
X64771Y952665D01*
X64924Y951604D01*
X65000Y950536D01*
X65000Y949464D01*
X65000Y49464D02*
X64924Y48396D01*
X64771Y47335D01*
X64543Y46288D01*
X64241Y45260D01*
X63867Y44256D01*
X63422Y43281D01*
X62908Y42341D01*
X62329Y41440D01*
X61687Y40582D01*
X60985Y39772D01*
X60228Y39015D01*
X59418Y38313D01*
X58560Y37671D01*
X57659Y37092D01*
X56719Y36578D01*
X55744Y36133D01*
X54740Y35759D01*
X53712Y35457D01*
X52665Y35229D01*
X51604Y35076D01*
X50536Y35000D01*
X49464Y35000D01*
X48396Y35076D01*
X47335Y35229D01*
X46288Y35457D01*
X45260Y35759D01*
X44256Y36133D01*
X43281Y36578D01*
X42341Y37092D01*
X41440Y37671D01*
X40582Y38313D01*
X39772Y39015D01*
X39015Y39772D01*
X38313Y40582D01*
X37671Y41440D01*
X37092Y42341D01*
X36578Y43281D01*
X36133Y44256D01*
X35759Y45260D01*
X35457Y46288D01*
X35229Y47335D01*
X35076Y48396D01*
X35000Y49464D01*
X35000Y50536D01*
X35076Y51604D01*
X35229Y52665D01*
X35457Y53712D01*
X35759Y54740D01*
X36133Y55744D01*
X36578Y56719D01*
X37092Y57659D01*
X37671Y58560D01*
X38313Y59418D01*
X39015Y60228D01*
X39772Y60985D01*
X40582Y61687D01*
X41440Y62329D01*
X42341Y62908D01*
X43281Y63422D01*
X44256Y63867D01*
X45260Y64241D01*
X46288Y64543D01*
X47335Y64771D01*
X48396Y64924D01*
X49464Y65000D01*
X50536Y65000D01*
X51604Y64924D01*
X52665Y64771D01*
X53712Y64543D01*
X54740Y64241D01*
X55744Y63867D01*
X56719Y63422D01*
X57659Y62908D01*
X58560Y62329D01*
X59418Y61687D01*
X60228Y60985D01*
X60985Y60228D01*
X61687Y59418D01*
X62329Y58560D01*
X62908Y57659D01*
X63422Y56719D01*
X63867Y55744D01*
X64241Y54740D01*
X64543Y53712D01*
X64771Y52665D01*
X64924Y51604D01*
X65000Y50536D01*
X65000Y49464D01*
X665000Y49464D02*
X664924Y48396D01*
X664771Y47335D01*
X664543Y46288D01*
X664241Y45260D01*
X663867Y44256D01*
X663422Y43281D01*
X662908Y42341D01*
X662329Y41440D01*
X661687Y40582D01*
X660985Y39772D01*
X660228Y39015D01*
X659418Y38313D01*
X658560Y37671D01*
X657659Y37092D01*
X656719Y36578D01*
X655744Y36133D01*
X654740Y35759D01*
X653712Y35457D01*
X652665Y35229D01*
X651604Y35076D01*
X650536Y35000D01*
X649464Y35000D01*
X648396Y35076D01*
X647335Y35229D01*
X646288Y35457D01*
X645260Y35759D01*
X644256Y36133D01*
X643281Y36578D01*
X642341Y37092D01*
X641440Y37671D01*
X640582Y38313D01*
X639772Y39015D01*
X639015Y39772D01*
X638313Y40582D01*
X637671Y41440D01*
X637092Y42341D01*
X636578Y43281D01*
X636133Y44256D01*
X635759Y45260D01*
X635457Y46288D01*
X635229Y47335D01*
X635076Y48396D01*
X635000Y49464D01*
X635000Y50536D01*
X635076Y51604D01*
X635229Y52665D01*
X635457Y53712D01*
X635759Y54740D01*
X636133Y55744D01*
X636578Y56719D01*
X637092Y57659D01*
X637671Y58560D01*
X638313Y59418D01*
X639015Y60228D01*
X639772Y60985D01*
X640582Y61687D01*
X641440Y62329D01*
X642341Y62908D01*
X643281Y63422D01*
X644256Y63867D01*
X645260Y64241D01*
X646288Y64543D01*
X647335Y64771D01*
X648396Y64924D01*
X649464Y65000D01*
X650536Y65000D01*
X651604Y64924D01*
X652665Y64771D01*
X653712Y64543D01*
X654740Y64241D01*
X655744Y63867D01*
X656719Y63422D01*
X657659Y62908D01*
X658560Y62329D01*
X659418Y61687D01*
X660228Y60985D01*
X660985Y60228D01*
X661687Y59418D01*
X662329Y58560D01*
X662908Y57659D01*
X663422Y56719D01*
X663867Y55744D01*
X664241Y54740D01*
X664543Y53712D01*
X664771Y52665D01*
X664924Y51604D01*
X665000Y50536D01*
X665000Y49464D01*
X665000Y949464D02*
X664924Y948396D01*
X664771Y947335D01*
X664543Y946288D01*
X664241Y945260D01*
X663867Y944256D01*
X663422Y943281D01*
X662908Y942341D01*
X662329Y941440D01*
X661687Y940582D01*
X660985Y939772D01*
X660228Y939015D01*
X659418Y938313D01*
X658560Y937671D01*
X657659Y937092D01*
X656719Y936578D01*
X655744Y936133D01*
X654740Y935759D01*
X653712Y935457D01*
X652665Y935229D01*
X651604Y935076D01*
X650536Y935000D01*
X649464Y935000D01*
X648396Y935076D01*
X647335Y935229D01*
X646288Y935457D01*
X645260Y935759D01*
X644256Y936133D01*
X643281Y936578D01*
X642341Y937092D01*
X641440Y937671D01*
X640582Y938313D01*
X639772Y939015D01*
X639015Y939772D01*
X638313Y940582D01*
X637671Y941440D01*
X637092Y942341D01*
X636578Y943281D01*
X636133Y944256D01*
X635759Y945260D01*
X635457Y946288D01*
X635229Y947335D01*
X635076Y948396D01*
X635000Y949464D01*
X635000Y950536D01*
X635076Y951604D01*
X635229Y952665D01*
X635457Y953712D01*
X635759Y954740D01*
X636133Y955744D01*
X636578Y956719D01*
X637092Y957659D01*
X637671Y958560D01*
X638313Y959418D01*
X639015Y960228D01*
X639772Y960985D01*
X640582Y961687D01*
X641440Y962329D01*
X642341Y962908D01*
X643281Y963422D01*
X644256Y963867D01*
X645260Y964241D01*
X646288Y964543D01*
X647335Y964771D01*
X648396Y964924D01*
X649464Y965000D01*
X650536Y965000D01*
X651604Y964924D01*
X652665Y964771D01*
X653712Y964543D01*
X654740Y964241D01*
X655744Y963867D01*
X656719Y963422D01*
X657659Y962908D01*
X658560Y962329D01*
X659418Y961687D01*
X660228Y960985D01*
X660985Y960228D01*
X661687Y959418D01*
X662329Y958560D01*
X662908Y957659D01*
X663422Y956719D01*
X663867Y955744D01*
X664241Y954740D01*
X664543Y953712D01*
X664771Y952665D01*
X664924Y951604D01*
X665000Y950536D01*
X665000Y949464D01*
X67064Y649000D02*
X65996Y649076D01*
X64935Y649229D01*
X63888Y649457D01*
X62860Y649759D01*
X61856Y650133D01*
X60881Y650578D01*
X59941Y651092D01*
X59040Y651671D01*
X58182Y652313D01*
X57372Y653015D01*
X56615Y653772D01*
X55913Y654582D01*
X55271Y655440D01*
X54692Y656341D01*
X54178Y657281D01*
X53733Y658256D01*
X53359Y659260D01*
X53057Y660288D01*
X52829Y661335D01*
X52676Y662396D01*
X52600Y663464D01*
X52600Y664536D01*
X52676Y665604D01*
X52829Y666665D01*
X53057Y667712D01*
X53359Y668740D01*
X53733Y669744D01*
X54178Y670719D01*
X54692Y671659D01*
X55271Y672560D01*
X55913Y673418D01*
X56615Y674228D01*
X57372Y674985D01*
X58182Y675687D01*
X59040Y676329D01*
X59941Y676908D01*
X60881Y677422D01*
X61856Y677867D01*
X62860Y678241D01*
X63888Y678543D01*
X64935Y678771D01*
X65996Y678924D01*
X67064Y679000D01*
X68136Y679000D01*
X69204Y678924D01*
X70265Y678771D01*
X71312Y678543D01*
X72340Y678241D01*
X73344Y677867D01*
X74319Y677422D01*
X75259Y676908D01*
X76160Y676329D01*
X77018Y675687D01*
X77828Y674985D01*
X78585Y674228D01*
X79287Y673418D01*
X79929Y672560D01*
X80508Y671659D01*
X81022Y670719D01*
X81467Y669744D01*
X81841Y668740D01*
X82143Y667712D01*
X82371Y666665D01*
X82524Y665604D01*
X82600Y664536D01*
X82600Y663464D01*
X82524Y662396D01*
X82371Y661335D01*
X82143Y660288D01*
X81841Y659260D01*
X81467Y658256D01*
X81022Y657281D01*
X80508Y656341D01*
X79929Y655440D01*
X79287Y654582D01*
X78585Y653772D01*
X77828Y653015D01*
X77018Y652313D01*
X76160Y651671D01*
X75259Y651092D01*
X74319Y650578D01*
X73344Y650133D01*
X72340Y649759D01*
X71312Y649457D01*
X70265Y649229D01*
X69204Y649076D01*
X68136Y649000D01*
X67064Y649000D01*
X67064Y187000D02*
X65996Y187076D01*
X64935Y187229D01*
X63888Y187457D01*
X62860Y187759D01*
X61856Y188133D01*
X60881Y188578D01*
X59941Y189092D01*
X59040Y189671D01*
X58182Y190313D01*
X57372Y191015D01*
X56615Y191772D01*
X55913Y192582D01*
X55271Y193440D01*
X54692Y194341D01*
X54178Y195281D01*
X53733Y196256D01*
X53359Y197260D01*
X53057Y198288D01*
X52829Y199335D01*
X52676Y200396D01*
X52600Y201464D01*
X52600Y202536D01*
X52676Y203604D01*
X52829Y204665D01*
X53057Y205712D01*
X53359Y206740D01*
X53733Y207744D01*
X54178Y208719D01*
X54692Y209659D01*
X55271Y210560D01*
X55913Y211418D01*
X56615Y212228D01*
X57372Y212985D01*
X58182Y213687D01*
X59040Y214329D01*
X59941Y214908D01*
X60881Y215422D01*
X61856Y215867D01*
X62860Y216241D01*
X63888Y216543D01*
X64935Y216771D01*
X65996Y216924D01*
X67064Y217000D01*
X68136Y217000D01*
X69204Y216924D01*
X70265Y216771D01*
X71312Y216543D01*
X72340Y216241D01*
X73344Y215867D01*
X74319Y215422D01*
X75259Y214908D01*
X76160Y214329D01*
X77018Y213687D01*
X77828Y212985D01*
X78585Y212228D01*
X79287Y211418D01*
X79929Y210560D01*
X80508Y209659D01*
X81022Y208719D01*
X81467Y207744D01*
X81841Y206740D01*
X82143Y205712D01*
X82371Y204665D01*
X82524Y203604D01*
X82600Y202536D01*
X82600Y201464D01*
X82524Y200396D01*
X82371Y199335D01*
X82143Y198288D01*
X81841Y197260D01*
X81467Y196256D01*
X81022Y195281D01*
X80508Y194341D01*
X79929Y193440D01*
X79287Y192582D01*
X78585Y191772D01*
X77828Y191015D01*
X77018Y190313D01*
X76160Y189671D01*
X75259Y189092D01*
X74319Y188578D01*
X73344Y188133D01*
X72340Y187759D01*
X71312Y187457D01*
X70265Y187229D01*
X69204Y187076D01*
X68136Y187000D01*
X67064Y187000D01*
M02*
