G04 EAGLE Gerber RS-274X export*
G75*
%MOMM*%
%FSLAX34Y34*%
%LPD*%
%INSoldermask Top*%
%IPPOS*%
%AMOC8*
5,1,8,0,0,1.08239X$1,22.5*%
G01*
%ADD10C,3.203200*%
%ADD11C,3.103200*%
%ADD12R,1.503200X1.503200*%
%ADD13R,1.703200X1.503200*%
%ADD14C,2.203200*%
%ADD15C,0.959600*%


D10*
X50000Y950000D03*
X50000Y50000D03*
X650000Y50000D03*
X650000Y950000D03*
D11*
X140600Y202000D03*
X140600Y244000D03*
X140600Y286000D03*
X140600Y328000D03*
X140600Y370000D03*
X140600Y412000D03*
X140600Y454000D03*
X140600Y496000D03*
X140600Y538000D03*
X140600Y580000D03*
X140600Y622000D03*
X140600Y664000D03*
X195600Y202000D03*
X195600Y244000D03*
X195600Y286000D03*
X195600Y328000D03*
X195600Y370000D03*
X195600Y412000D03*
X195600Y454000D03*
X195600Y496000D03*
X195600Y538000D03*
X195600Y580000D03*
X195600Y622000D03*
X195600Y664000D03*
D10*
X67600Y664000D03*
X67600Y202000D03*
D12*
X268000Y456500D03*
X268000Y435500D03*
X268000Y590500D03*
X268000Y569500D03*
D13*
X245000Y570500D03*
X245000Y589500D03*
X246000Y438500D03*
X246000Y457500D03*
D14*
X111000Y84000D02*
X111000Y64000D01*
X149100Y64000D02*
X149100Y84000D01*
X187200Y84000D02*
X187200Y64000D01*
X225300Y64000D02*
X225300Y84000D01*
X617000Y148000D02*
X637000Y148000D01*
X637000Y186100D02*
X617000Y186100D01*
X617000Y224200D02*
X637000Y224200D01*
X637000Y262300D02*
X617000Y262300D01*
X623000Y497000D02*
X643000Y497000D01*
X643000Y535100D02*
X623000Y535100D01*
X623000Y573200D02*
X643000Y573200D01*
X643000Y611300D02*
X623000Y611300D01*
X618000Y321000D02*
X638000Y321000D01*
X638000Y359100D02*
X618000Y359100D01*
X618000Y397200D02*
X638000Y397200D01*
X638000Y435300D02*
X618000Y435300D01*
X621000Y669000D02*
X641000Y669000D01*
X641000Y707100D02*
X621000Y707100D01*
X621000Y745200D02*
X641000Y745200D01*
X641000Y783300D02*
X621000Y783300D01*
X289000Y84000D02*
X289000Y64000D01*
X327100Y64000D02*
X327100Y84000D01*
X365200Y84000D02*
X365200Y64000D01*
X403300Y64000D02*
X403300Y84000D01*
X462000Y85000D02*
X462000Y65000D01*
X500100Y65000D02*
X500100Y85000D01*
X538200Y85000D02*
X538200Y65000D01*
X576300Y65000D02*
X576300Y85000D01*
X87000Y860000D02*
X67000Y860000D01*
X67000Y821900D02*
X87000Y821900D01*
X87000Y783800D02*
X67000Y783800D01*
X67000Y745700D02*
X87000Y745700D01*
D15*
X488000Y111000D03*
X134000Y105000D03*
X263000Y297000D03*
X65000Y304000D03*
X267000Y388000D03*
X85000Y395000D03*
X200000Y829000D03*
X277000Y831000D03*
X177000Y707000D03*
X95000Y538000D03*
M02*
