G04 EAGLE Gerber RS-274X export*
G75*
%MOMM*%
%FSLAX46Y46*%
%LPD*%
%INBottom*%
%IPPOS*%
%AMOC8*
5,1,8,0,0,1.08239X$1,22.5*%
G01*
%ADD10C,2.000000*%
%ADD11C,0.756400*%
%ADD12C,0.254000*%
%ADD13C,0.508000*%

G36*
X28984475Y1015953D02*
X28984475Y1015953D01*
X28984447Y1015984D01*
X28984481Y1016016D01*
X28984481Y28983981D01*
X28984044Y28984475D01*
X28984013Y28984447D01*
X28983981Y28984481D01*
X1016016Y28984481D01*
X1015522Y28984044D01*
X1015550Y28984009D01*
X1015519Y28983981D01*
X1015519Y1016016D01*
X1015953Y1015522D01*
X1015988Y1015550D01*
X1016016Y1015519D01*
X28983981Y1015519D01*
X28984475Y1015953D01*
G37*
%LPC*%
G36*
X15360859Y1758081D02*
X15360859Y1758081D01*
X14937494Y1933444D01*
X14613444Y2257494D01*
X14438081Y2680859D01*
X14438081Y3503581D01*
X14437644Y3504075D01*
X14437613Y3504047D01*
X14437581Y3504081D01*
X11241859Y3504081D01*
X4488006Y10257934D01*
X4487769Y10257950D01*
X4487653Y10258081D01*
X2680859Y10258081D01*
X2257494Y10433444D01*
X1933444Y10757494D01*
X1758081Y11180859D01*
X1758081Y11639138D01*
X1933444Y12062503D01*
X2257494Y12386553D01*
X2680866Y12561919D01*
X5139131Y12561919D01*
X5562503Y12386553D01*
X5886553Y12062503D01*
X6061919Y11639131D01*
X6061919Y11180866D01*
X5886553Y10757494D01*
X5562503Y10433444D01*
X5491141Y10403888D01*
X5491106Y10403816D01*
X5491025Y10403822D01*
X5491013Y10403628D01*
X5490988Y10403575D01*
X5490941Y10403534D01*
X5490956Y10403516D01*
X5490850Y10403297D01*
X5490988Y10403228D01*
X5490978Y10403075D01*
X11577991Y4316063D01*
X11578231Y4316047D01*
X11578344Y4315919D01*
X14437581Y4315919D01*
X14438075Y4316353D01*
X14438047Y4316384D01*
X14438081Y4316416D01*
X14438081Y5139138D01*
X14613444Y5562503D01*
X14937494Y5886553D01*
X15360866Y6061919D01*
X15819131Y6061919D01*
X16242503Y5886553D01*
X16566553Y5562503D01*
X16741919Y5139131D01*
X16741919Y2680866D01*
X16566553Y2257494D01*
X16242503Y1933444D01*
X15819138Y1758081D01*
X15360859Y1758081D01*
G37*
%LPD*%
%LPC*%
G36*
X23010416Y16399881D02*
X23010416Y16399881D01*
X22699881Y16710416D01*
X22699881Y17149581D01*
X22950934Y17400634D01*
X22950944Y17400806D01*
X22951050Y17400900D01*
X22951019Y17400934D01*
X22951081Y17400988D01*
X22951081Y19814259D01*
X22950922Y19814438D01*
X22950934Y19814613D01*
X20204613Y22560934D01*
X20204384Y22560947D01*
X20204328Y22561013D01*
X20204319Y22561013D01*
X20204259Y22561081D01*
X6041628Y22561081D01*
X6041350Y22560834D01*
X6041169Y22560772D01*
X5886553Y22187494D01*
X5562503Y21863444D01*
X5139138Y21688081D01*
X2680859Y21688081D01*
X2257494Y21863444D01*
X1933444Y22187494D01*
X1758081Y22610859D01*
X1758081Y23069138D01*
X1933444Y23492503D01*
X2257494Y23816553D01*
X2680866Y23991919D01*
X5139131Y23991919D01*
X5562503Y23816553D01*
X5886553Y23492503D01*
X6041169Y23119225D01*
X6041503Y23119059D01*
X6041628Y23118919D01*
X20435528Y23118919D01*
X23508919Y20045528D01*
X23508919Y17400988D01*
X23509075Y17400813D01*
X23509063Y17400634D01*
X23760119Y17149578D01*
X23760119Y16710419D01*
X23449581Y16399881D01*
X23010416Y16399881D01*
G37*
%LPD*%
%LPC*%
G36*
X21110416Y16399881D02*
X21110416Y16399881D01*
X20799881Y16710416D01*
X20799881Y17149581D01*
X21050934Y17400634D01*
X21050944Y17400806D01*
X21051050Y17400900D01*
X21051019Y17400934D01*
X21051081Y17400988D01*
X21051081Y17814259D01*
X21050922Y17814438D01*
X21050934Y17814613D01*
X20114613Y18750934D01*
X20114391Y18750947D01*
X20114366Y18750975D01*
X20114353Y18750975D01*
X20114259Y18751081D01*
X6041628Y18751081D01*
X6041350Y18750834D01*
X6041169Y18750772D01*
X5886553Y18377494D01*
X5562503Y18053444D01*
X5139138Y17878081D01*
X2680859Y17878081D01*
X2257494Y18053444D01*
X1933444Y18377494D01*
X1758081Y18800859D01*
X1758081Y19259138D01*
X1933444Y19682503D01*
X2257494Y20006553D01*
X2680866Y20181919D01*
X5139131Y20181919D01*
X5562503Y20006553D01*
X5886553Y19682503D01*
X6041169Y19309225D01*
X6041503Y19309059D01*
X6041628Y19308919D01*
X20345528Y19308919D01*
X21608919Y18045528D01*
X21608919Y17400988D01*
X21609075Y17400813D01*
X21609063Y17400634D01*
X21860119Y17149578D01*
X21860119Y16710419D01*
X21549581Y16399881D01*
X21110416Y16399881D01*
G37*
%LPD*%
%LPC*%
G36*
X19170859Y1758081D02*
X19170859Y1758081D01*
X18747494Y1933444D01*
X18423444Y2257494D01*
X18248081Y2680859D01*
X18248081Y5139138D01*
X18423444Y5562503D01*
X18747494Y5886553D01*
X19050772Y6012172D01*
X19050925Y6012484D01*
X19050972Y6012525D01*
X19050966Y6012531D01*
X19051081Y6012631D01*
X19051081Y16459009D01*
X19050922Y16459188D01*
X19050934Y16459363D01*
X18799881Y16710416D01*
X18799881Y17149581D01*
X19110419Y17460119D01*
X19549578Y17460119D01*
X19860119Y17149578D01*
X19860119Y16710419D01*
X19609063Y16459363D01*
X19609047Y16459122D01*
X19608919Y16459009D01*
X19608919Y6062416D01*
X19609353Y6061922D01*
X19609388Y6061950D01*
X19609416Y6061919D01*
X19629131Y6061919D01*
X20052503Y5886553D01*
X20376553Y5562503D01*
X20551919Y5139131D01*
X20551919Y2680866D01*
X20376553Y2257494D01*
X20052503Y1933444D01*
X19629138Y1758081D01*
X19170859Y1758081D01*
G37*
%LPD*%
D10*
X15590000Y2910000D02*
X15590000Y4910000D01*
X19400000Y4910000D02*
X19400000Y2910000D01*
X4910000Y22840000D02*
X2910000Y22840000D01*
X2910000Y19030000D02*
X4910000Y19030000D01*
X4910000Y15220000D02*
X2910000Y15220000D01*
X2910000Y11410000D02*
X4910000Y11410000D01*
D11*
X12700000Y10600000D03*
X26800000Y9300000D03*
X19330000Y16930000D03*
D12*
X19330000Y3980000D01*
X19400000Y3910000D01*
D13*
X15590000Y3910000D02*
X11410000Y3910000D01*
X3910000Y11410000D01*
D11*
X23230000Y16930000D03*
D12*
X23230000Y19930000D02*
X20320000Y22840000D01*
X3910000Y22840000D01*
X23230000Y19930000D02*
X23230000Y16930000D01*
D11*
X21330000Y16930000D03*
D12*
X20230000Y19030000D02*
X3910000Y19030000D01*
X21330000Y17930000D02*
X21330000Y16930000D01*
X21330000Y17930000D02*
X20230000Y19030000D01*
M02*
