G04 EAGLE Gerber RS-274X export*
G75*
%MOMM*%
%FSLAX34Y34*%
%LPD*%
%INTop Copper*%
%IPPOS*%
%AMOC8*
5,1,8,0,0,1.08239X$1,22.5*%
G01*
%ADD10R,1.550000X1.550000*%
%ADD11C,1.550000*%
%ADD12R,1.400000X1.400000*%
%ADD13C,1.400000*%
%ADD14C,2.000000*%
%ADD15R,1.100000X1.000000*%
%ADD16R,1.000000X1.100000*%
%ADD17C,0.775000*%
%ADD18R,1.400000X1.640000*%
%ADD19C,1.000000*%
%ADD20R,2.700000X3.300000*%
%ADD21R,2.700000X1.000000*%
%ADD22C,0.300000*%
%ADD23C,1.762000*%
%ADD24C,6.000000*%
%ADD25R,1.803000X1.600000*%
%ADD26C,2.500000*%
%ADD27C,3.000000*%
%ADD28C,2.540000*%
%ADD29R,1.570000X1.570000*%
%ADD30C,1.570000*%
%ADD31R,1.300000X1.300000*%
%ADD32C,1.300000*%
%ADD33C,1.500000*%
%ADD34R,1.500000X1.500000*%
%ADD35C,1.600000*%
%ADD36C,2.500000*%
%ADD37C,1.270000*%
%ADD38C,1.016000*%
%ADD39C,0.508000*%
%ADD40C,0.254000*%
%ADD41C,0.812800*%

G36*
X1219287Y11697D02*
X1219287Y11697D01*
X1219374Y11700D01*
X1219427Y11717D01*
X1219482Y11725D01*
X1219561Y11760D01*
X1219645Y11787D01*
X1219684Y11815D01*
X1219741Y11841D01*
X1219854Y11937D01*
X1219918Y11982D01*
X1232618Y24682D01*
X1232670Y24752D01*
X1232730Y24816D01*
X1232756Y24865D01*
X1232789Y24909D01*
X1232820Y24991D01*
X1232860Y25069D01*
X1232868Y25117D01*
X1232890Y25175D01*
X1232902Y25323D01*
X1232915Y25400D01*
X1232915Y368300D01*
X1232903Y368387D01*
X1232900Y368474D01*
X1232883Y368527D01*
X1232875Y368582D01*
X1232840Y368661D01*
X1232813Y368745D01*
X1232785Y368784D01*
X1232759Y368841D01*
X1232663Y368954D01*
X1232618Y369018D01*
X1188168Y413468D01*
X1188098Y413520D01*
X1188034Y413580D01*
X1187985Y413606D01*
X1187941Y413639D01*
X1187859Y413670D01*
X1187781Y413710D01*
X1187734Y413718D01*
X1187675Y413740D01*
X1187527Y413752D01*
X1187450Y413765D01*
X692150Y413765D01*
X692063Y413753D01*
X691976Y413750D01*
X691923Y413733D01*
X691869Y413725D01*
X691789Y413690D01*
X691705Y413663D01*
X691666Y413635D01*
X691609Y413609D01*
X691496Y413513D01*
X691432Y413468D01*
X583780Y305815D01*
X561722Y305815D01*
X561692Y305811D01*
X561663Y305814D01*
X561552Y305791D01*
X561440Y305775D01*
X561413Y305763D01*
X561385Y305758D01*
X561284Y305706D01*
X561181Y305659D01*
X561158Y305640D01*
X561132Y305627D01*
X561050Y305549D01*
X560964Y305476D01*
X560947Y305451D01*
X560926Y305431D01*
X560869Y305333D01*
X560806Y305239D01*
X560797Y305211D01*
X560782Y305186D01*
X560755Y305076D01*
X560720Y304968D01*
X560720Y304938D01*
X560712Y304910D01*
X560716Y304797D01*
X560713Y304684D01*
X560720Y304655D01*
X560721Y304626D01*
X560756Y304518D01*
X560785Y304409D01*
X560800Y304383D01*
X560809Y304355D01*
X560854Y304292D01*
X560930Y304164D01*
X560976Y304121D01*
X561004Y304082D01*
X587147Y277939D01*
X587991Y275902D01*
X587991Y270116D01*
X587999Y270058D01*
X587997Y270000D01*
X588019Y269918D01*
X588031Y269834D01*
X588054Y269781D01*
X588069Y269725D01*
X588112Y269652D01*
X588147Y269575D01*
X588185Y269530D01*
X588214Y269480D01*
X588276Y269422D01*
X588330Y269358D01*
X588379Y269326D01*
X588422Y269286D01*
X588497Y269247D01*
X588567Y269200D01*
X588623Y269183D01*
X588675Y269156D01*
X588743Y269145D01*
X588838Y269115D01*
X588938Y269112D01*
X589006Y269101D01*
X592039Y269101D01*
X595898Y267502D01*
X598852Y264548D01*
X600451Y260689D01*
X600451Y196511D01*
X598852Y192652D01*
X595898Y189698D01*
X592427Y188260D01*
X592426Y188259D01*
X592425Y188259D01*
X592352Y188216D01*
X592277Y188182D01*
X592234Y188146D01*
X592183Y188116D01*
X592182Y188115D01*
X592180Y188114D01*
X592119Y188049D01*
X592060Y187999D01*
X592031Y187955D01*
X591987Y187909D01*
X591987Y187908D01*
X591986Y187907D01*
X591943Y187824D01*
X591902Y187762D01*
X591887Y187714D01*
X591857Y187656D01*
X591857Y187655D01*
X591856Y187653D01*
X591854Y187639D01*
X591838Y187560D01*
X591816Y187491D01*
X591815Y187443D01*
X591802Y187377D01*
X591805Y187347D01*
X591801Y187322D01*
X591801Y173684D01*
X591813Y173597D01*
X591816Y173510D01*
X591833Y173457D01*
X591841Y173402D01*
X591876Y173322D01*
X591903Y173239D01*
X591931Y173200D01*
X591957Y173143D01*
X592053Y173030D01*
X592098Y172966D01*
X604040Y161024D01*
X604086Y160989D01*
X604127Y160947D01*
X604200Y160904D01*
X604267Y160853D01*
X604321Y160833D01*
X604372Y160803D01*
X604454Y160782D01*
X604532Y160752D01*
X604591Y160747D01*
X604647Y160733D01*
X604732Y160736D01*
X604816Y160729D01*
X604873Y160740D01*
X604932Y160742D01*
X605012Y160768D01*
X605095Y160785D01*
X605146Y160811D01*
X605202Y160829D01*
X605258Y160870D01*
X605347Y160916D01*
X605419Y160984D01*
X605475Y161024D01*
X606048Y161597D01*
X608996Y164545D01*
X625904Y164545D01*
X625962Y164553D01*
X626020Y164551D01*
X626102Y164573D01*
X626186Y164585D01*
X626239Y164608D01*
X626295Y164623D01*
X626368Y164666D01*
X626445Y164701D01*
X626490Y164739D01*
X626540Y164768D01*
X626598Y164830D01*
X626662Y164884D01*
X626694Y164933D01*
X626734Y164976D01*
X626773Y165051D01*
X626820Y165121D01*
X626837Y165177D01*
X626864Y165229D01*
X626875Y165297D01*
X626905Y165392D01*
X626908Y165492D01*
X626919Y165560D01*
X626919Y331807D01*
X628150Y334777D01*
X700273Y406900D01*
X703243Y408131D01*
X1164057Y408131D01*
X1167027Y406900D01*
X1211750Y362177D01*
X1212981Y359207D01*
X1212981Y307693D01*
X1211750Y304723D01*
X1198627Y291600D01*
X1195657Y290369D01*
X1185385Y290369D01*
X1185298Y290357D01*
X1185211Y290354D01*
X1185158Y290337D01*
X1185104Y290329D01*
X1185024Y290294D01*
X1184941Y290267D01*
X1184901Y290239D01*
X1184844Y290213D01*
X1184731Y290117D01*
X1184667Y290072D01*
X1183847Y289251D01*
X1179858Y287599D01*
X1175542Y287599D01*
X1171553Y289251D01*
X1168501Y292303D01*
X1166849Y296292D01*
X1166849Y300608D01*
X1168501Y304597D01*
X1171553Y307649D01*
X1175542Y309301D01*
X1179858Y309301D01*
X1183847Y307649D01*
X1184667Y306828D01*
X1184737Y306776D01*
X1184801Y306716D01*
X1184850Y306690D01*
X1184894Y306657D01*
X1184976Y306626D01*
X1185054Y306586D01*
X1185102Y306578D01*
X1185160Y306556D01*
X1185308Y306544D01*
X1185385Y306531D01*
X1190282Y306531D01*
X1190369Y306543D01*
X1190456Y306546D01*
X1190509Y306563D01*
X1190564Y306571D01*
X1190644Y306606D01*
X1190727Y306633D01*
X1190766Y306661D01*
X1190823Y306687D01*
X1190937Y306783D01*
X1191000Y306828D01*
X1196522Y312350D01*
X1196574Y312420D01*
X1196634Y312483D01*
X1196660Y312533D01*
X1196693Y312577D01*
X1196724Y312659D01*
X1196764Y312737D01*
X1196772Y312784D01*
X1196794Y312843D01*
X1196806Y312990D01*
X1196819Y313068D01*
X1196819Y353832D01*
X1196811Y353889D01*
X1196813Y353940D01*
X1196805Y353968D01*
X1196804Y354006D01*
X1196787Y354059D01*
X1196779Y354114D01*
X1196750Y354179D01*
X1196741Y354215D01*
X1196732Y354231D01*
X1196717Y354277D01*
X1196689Y354316D01*
X1196663Y354373D01*
X1196609Y354437D01*
X1196596Y354460D01*
X1196568Y354486D01*
X1196567Y354487D01*
X1196522Y354550D01*
X1159400Y391672D01*
X1159330Y391724D01*
X1159267Y391784D01*
X1159217Y391810D01*
X1159173Y391843D01*
X1159091Y391874D01*
X1159013Y391914D01*
X1158966Y391922D01*
X1158907Y391944D01*
X1158760Y391956D01*
X1158682Y391969D01*
X708618Y391969D01*
X708531Y391957D01*
X708444Y391954D01*
X708391Y391937D01*
X708336Y391929D01*
X708256Y391894D01*
X708173Y391867D01*
X708134Y391839D01*
X708077Y391813D01*
X707963Y391717D01*
X707900Y391672D01*
X643378Y327150D01*
X643326Y327080D01*
X643266Y327017D01*
X643240Y326967D01*
X643207Y326923D01*
X643176Y326841D01*
X643136Y326763D01*
X643128Y326716D01*
X643106Y326657D01*
X643101Y326601D01*
X643095Y326580D01*
X643093Y326504D01*
X643081Y326432D01*
X643081Y182031D01*
X643085Y182002D01*
X643082Y181972D01*
X643105Y181861D01*
X643121Y181749D01*
X643133Y181722D01*
X643138Y181694D01*
X643190Y181593D01*
X643237Y181490D01*
X643256Y181467D01*
X643269Y181441D01*
X643347Y181359D01*
X643420Y181273D01*
X643445Y181256D01*
X643465Y181235D01*
X643563Y181178D01*
X643657Y181115D01*
X643685Y181106D01*
X643710Y181092D01*
X643820Y181064D01*
X643928Y181029D01*
X643958Y181029D01*
X643986Y181021D01*
X644099Y181025D01*
X644212Y181022D01*
X644241Y181030D01*
X644270Y181030D01*
X644378Y181065D01*
X644487Y181094D01*
X644513Y181109D01*
X644541Y181118D01*
X644604Y181163D01*
X644732Y181239D01*
X644775Y181285D01*
X644814Y181313D01*
X653446Y189945D01*
X717238Y189945D01*
X717325Y189957D01*
X717412Y189960D01*
X717465Y189977D01*
X717520Y189985D01*
X717600Y190020D01*
X717683Y190047D01*
X717722Y190075D01*
X717779Y190101D01*
X717893Y190197D01*
X717956Y190242D01*
X721452Y193738D01*
X721461Y193750D01*
X721466Y193754D01*
X721480Y193775D01*
X721504Y193807D01*
X721564Y193871D01*
X721590Y193921D01*
X721623Y193965D01*
X721654Y194047D01*
X721694Y194124D01*
X721702Y194172D01*
X721724Y194231D01*
X721736Y194378D01*
X721749Y194456D01*
X721749Y200943D01*
X723288Y202482D01*
X723324Y202529D01*
X723366Y202569D01*
X723409Y202642D01*
X723459Y202709D01*
X723480Y202764D01*
X723510Y202814D01*
X723530Y202896D01*
X723561Y202975D01*
X723565Y203033D01*
X723580Y203090D01*
X723577Y203174D01*
X723584Y203258D01*
X723573Y203316D01*
X723571Y203374D01*
X723545Y203454D01*
X723528Y203537D01*
X723501Y203589D01*
X723483Y203645D01*
X723443Y203701D01*
X723397Y203789D01*
X723329Y203862D01*
X723288Y203918D01*
X721671Y205536D01*
X721628Y205608D01*
X721593Y205685D01*
X721555Y205730D01*
X721526Y205780D01*
X721464Y205838D01*
X721410Y205902D01*
X721361Y205934D01*
X721318Y205974D01*
X721243Y206013D01*
X721173Y206060D01*
X721117Y206077D01*
X721065Y206104D01*
X720997Y206115D01*
X720902Y206145D01*
X720802Y206148D01*
X720734Y206159D01*
X714366Y206159D01*
X714308Y206151D01*
X714250Y206153D01*
X714168Y206131D01*
X714084Y206119D01*
X714031Y206096D01*
X713975Y206081D01*
X713902Y206038D01*
X713825Y206003D01*
X713780Y205965D01*
X713730Y205936D01*
X713672Y205874D01*
X713608Y205820D01*
X713576Y205771D01*
X713536Y205728D01*
X713497Y205653D01*
X713450Y205583D01*
X713438Y205545D01*
X711593Y203699D01*
X698107Y203699D01*
X696349Y205457D01*
X696349Y217943D01*
X698107Y219701D01*
X711593Y219701D01*
X713429Y217864D01*
X713472Y217792D01*
X713507Y217715D01*
X713545Y217670D01*
X713574Y217620D01*
X713636Y217562D01*
X713690Y217498D01*
X713739Y217466D01*
X713782Y217426D01*
X713857Y217387D01*
X713927Y217340D01*
X713983Y217323D01*
X714035Y217296D01*
X714103Y217285D01*
X714198Y217255D01*
X714298Y217252D01*
X714366Y217241D01*
X720734Y217241D01*
X720792Y217249D01*
X720850Y217247D01*
X720932Y217269D01*
X721016Y217281D01*
X721069Y217304D01*
X721125Y217319D01*
X721198Y217362D01*
X721275Y217397D01*
X721320Y217435D01*
X721370Y217464D01*
X721428Y217526D01*
X721492Y217580D01*
X721524Y217629D01*
X721564Y217672D01*
X721603Y217747D01*
X721650Y217817D01*
X721662Y217855D01*
X723507Y219701D01*
X736993Y219701D01*
X738829Y217864D01*
X738872Y217792D01*
X738907Y217715D01*
X738945Y217670D01*
X738974Y217620D01*
X739036Y217562D01*
X739090Y217498D01*
X739139Y217466D01*
X739182Y217426D01*
X739257Y217387D01*
X739327Y217340D01*
X739383Y217323D01*
X739435Y217296D01*
X739503Y217285D01*
X739598Y217255D01*
X739698Y217252D01*
X739766Y217241D01*
X777944Y217241D01*
X778031Y217253D01*
X778118Y217256D01*
X778171Y217273D01*
X778226Y217281D01*
X778305Y217316D01*
X778388Y217343D01*
X778428Y217371D01*
X778485Y217397D01*
X778598Y217492D01*
X778662Y217538D01*
X778690Y217566D01*
X778699Y217578D01*
X778702Y217580D01*
X778709Y217590D01*
X778730Y217609D01*
X778793Y217703D01*
X778861Y217793D01*
X778872Y217820D01*
X778888Y217845D01*
X778922Y217953D01*
X778962Y218058D01*
X778965Y218088D01*
X778974Y218116D01*
X778977Y218229D01*
X778986Y218342D01*
X778980Y218371D01*
X778981Y218400D01*
X778953Y218510D01*
X778930Y218620D01*
X778917Y218647D01*
X778909Y218675D01*
X778852Y218772D01*
X778800Y218873D01*
X778779Y218894D01*
X778764Y218920D01*
X778682Y218997D01*
X778604Y219079D01*
X778578Y219094D01*
X778557Y219114D01*
X778456Y219166D01*
X778359Y219223D01*
X778330Y219230D01*
X778304Y219244D01*
X778226Y219257D01*
X778083Y219293D01*
X778020Y219291D01*
X777972Y219299D01*
X774536Y219299D01*
X771873Y221962D01*
X771803Y222014D01*
X771739Y222074D01*
X771690Y222100D01*
X771646Y222133D01*
X771564Y222164D01*
X771486Y222204D01*
X771439Y222212D01*
X771380Y222234D01*
X771233Y222246D01*
X771155Y222259D01*
X735028Y222259D01*
X732991Y223103D01*
X719196Y236898D01*
X719137Y236998D01*
X719066Y237117D01*
X719065Y237118D01*
X719064Y237120D01*
X718960Y237218D01*
X718860Y237312D01*
X718858Y237313D01*
X718857Y237314D01*
X718733Y237377D01*
X718607Y237443D01*
X718605Y237443D01*
X718604Y237444D01*
X718589Y237446D01*
X718328Y237498D01*
X718297Y237495D01*
X718273Y237499D01*
X717157Y237499D01*
X715321Y239336D01*
X715278Y239408D01*
X715243Y239485D01*
X715205Y239530D01*
X715176Y239580D01*
X715114Y239638D01*
X715060Y239702D01*
X715011Y239734D01*
X714968Y239774D01*
X714893Y239813D01*
X714823Y239860D01*
X714767Y239877D01*
X714715Y239904D01*
X714647Y239915D01*
X714552Y239945D01*
X714452Y239948D01*
X714384Y239959D01*
X708016Y239959D01*
X707958Y239951D01*
X707900Y239953D01*
X707818Y239931D01*
X707734Y239919D01*
X707681Y239896D01*
X707625Y239881D01*
X707552Y239838D01*
X707475Y239803D01*
X707430Y239765D01*
X707380Y239736D01*
X707322Y239674D01*
X707258Y239620D01*
X707226Y239571D01*
X707186Y239528D01*
X707147Y239453D01*
X707100Y239383D01*
X707088Y239345D01*
X705243Y237499D01*
X691757Y237499D01*
X689999Y239257D01*
X689999Y251743D01*
X691757Y253501D01*
X705243Y253501D01*
X707079Y251664D01*
X707122Y251592D01*
X707157Y251515D01*
X707195Y251470D01*
X707224Y251420D01*
X707286Y251362D01*
X707340Y251298D01*
X707389Y251266D01*
X707432Y251226D01*
X707507Y251187D01*
X707577Y251140D01*
X707633Y251123D01*
X707685Y251096D01*
X707753Y251085D01*
X707848Y251055D01*
X707948Y251052D01*
X708016Y251041D01*
X714384Y251041D01*
X714442Y251049D01*
X714500Y251047D01*
X714582Y251069D01*
X714666Y251081D01*
X714719Y251104D01*
X714775Y251119D01*
X714848Y251162D01*
X714925Y251197D01*
X714970Y251235D01*
X715020Y251264D01*
X715078Y251326D01*
X715142Y251380D01*
X715174Y251429D01*
X715214Y251472D01*
X715253Y251547D01*
X715300Y251617D01*
X715312Y251655D01*
X716938Y253282D01*
X716974Y253329D01*
X717016Y253369D01*
X717059Y253442D01*
X717109Y253509D01*
X717130Y253564D01*
X717160Y253614D01*
X717180Y253696D01*
X717211Y253775D01*
X717215Y253833D01*
X717230Y253890D01*
X717227Y253974D01*
X717234Y254058D01*
X717223Y254116D01*
X717221Y254174D01*
X717195Y254254D01*
X717178Y254337D01*
X717151Y254389D01*
X717133Y254445D01*
X717093Y254501D01*
X717047Y254589D01*
X716979Y254662D01*
X716938Y254718D01*
X715399Y256257D01*
X715399Y268743D01*
X717157Y270501D01*
X717344Y270501D01*
X717402Y270509D01*
X717460Y270507D01*
X717542Y270529D01*
X717626Y270541D01*
X717679Y270564D01*
X717735Y270579D01*
X717808Y270622D01*
X717885Y270657D01*
X717930Y270695D01*
X717980Y270724D01*
X718038Y270786D01*
X718102Y270840D01*
X718134Y270889D01*
X718174Y270932D01*
X718213Y271007D01*
X718260Y271077D01*
X718277Y271133D01*
X718304Y271185D01*
X718315Y271253D01*
X718345Y271348D01*
X718348Y271448D01*
X718359Y271516D01*
X718359Y344002D01*
X719203Y346039D01*
X731711Y358547D01*
X733748Y359391D01*
X739534Y359391D01*
X739592Y359399D01*
X739650Y359397D01*
X739732Y359419D01*
X739816Y359431D01*
X739869Y359454D01*
X739925Y359469D01*
X739998Y359512D01*
X740075Y359547D01*
X740120Y359585D01*
X740170Y359614D01*
X740228Y359676D01*
X740292Y359730D01*
X740324Y359779D01*
X740364Y359822D01*
X740403Y359897D01*
X740450Y359967D01*
X740467Y360023D01*
X740494Y360075D01*
X740505Y360143D01*
X740535Y360238D01*
X740538Y360338D01*
X740549Y360406D01*
X740549Y363439D01*
X742148Y367298D01*
X745102Y370252D01*
X748961Y371851D01*
X813139Y371851D01*
X816998Y370252D01*
X819952Y367298D01*
X821357Y363907D01*
X821357Y363906D01*
X821358Y363905D01*
X821429Y363784D01*
X821501Y363663D01*
X821502Y363662D01*
X821503Y363660D01*
X821607Y363563D01*
X821708Y363467D01*
X821709Y363467D01*
X821710Y363466D01*
X821836Y363401D01*
X821960Y363337D01*
X821962Y363337D01*
X821963Y363336D01*
X821978Y363334D01*
X822239Y363282D01*
X822270Y363285D01*
X822295Y363281D01*
X878274Y363281D01*
X878361Y363293D01*
X878448Y363296D01*
X878501Y363313D01*
X878556Y363321D01*
X878636Y363356D01*
X878719Y363383D01*
X878758Y363411D01*
X878815Y363437D01*
X878929Y363533D01*
X878992Y363578D01*
X881636Y366221D01*
X886414Y368201D01*
X891586Y368201D01*
X896364Y366221D01*
X898608Y363978D01*
X898677Y363926D01*
X898741Y363866D01*
X898791Y363840D01*
X898835Y363807D01*
X898917Y363776D01*
X898995Y363736D01*
X899042Y363728D01*
X899101Y363706D01*
X899248Y363694D01*
X899326Y363681D01*
X1157307Y363681D01*
X1160277Y362450D01*
X1183130Y339598D01*
X1183200Y339546D01*
X1183263Y339486D01*
X1183313Y339460D01*
X1183357Y339427D01*
X1183439Y339396D01*
X1183517Y339356D01*
X1183564Y339348D01*
X1183623Y339326D01*
X1183770Y339314D01*
X1183848Y339301D01*
X1186793Y339301D01*
X1188551Y337543D01*
X1188551Y319357D01*
X1186793Y317599D01*
X1168607Y317599D01*
X1166849Y319357D01*
X1166849Y332602D01*
X1166837Y332689D01*
X1166834Y332776D01*
X1166817Y332829D01*
X1166809Y332884D01*
X1166774Y332964D01*
X1166747Y333047D01*
X1166719Y333086D01*
X1166693Y333143D01*
X1166597Y333257D01*
X1166552Y333320D01*
X1152650Y347222D01*
X1152580Y347274D01*
X1152517Y347334D01*
X1152467Y347360D01*
X1152423Y347393D01*
X1152341Y347424D01*
X1152263Y347464D01*
X1152216Y347472D01*
X1152157Y347494D01*
X1152010Y347506D01*
X1151932Y347519D01*
X955246Y347519D01*
X955188Y347511D01*
X955130Y347513D01*
X955048Y347491D01*
X954964Y347479D01*
X954911Y347456D01*
X954855Y347441D01*
X954782Y347398D01*
X954705Y347363D01*
X954660Y347325D01*
X954610Y347296D01*
X954552Y347234D01*
X954488Y347180D01*
X954456Y347131D01*
X954416Y347088D01*
X954377Y347013D01*
X954330Y346943D01*
X954313Y346887D01*
X954286Y346835D01*
X954275Y346767D01*
X954245Y346672D01*
X954242Y346572D01*
X954231Y346504D01*
X954231Y315893D01*
X953000Y312923D01*
X871978Y231900D01*
X871926Y231830D01*
X871866Y231767D01*
X871840Y231717D01*
X871807Y231673D01*
X871776Y231591D01*
X871736Y231513D01*
X871728Y231466D01*
X871706Y231407D01*
X871694Y231260D01*
X871681Y231182D01*
X871681Y217925D01*
X871685Y217896D01*
X871682Y217867D01*
X871705Y217756D01*
X871721Y217644D01*
X871733Y217617D01*
X871738Y217588D01*
X871791Y217488D01*
X871837Y217385D01*
X871856Y217362D01*
X871869Y217336D01*
X871947Y217254D01*
X872020Y217168D01*
X872045Y217151D01*
X872065Y217130D01*
X872163Y217073D01*
X872257Y217010D01*
X872285Y217001D01*
X872310Y216986D01*
X872420Y216958D01*
X872528Y216924D01*
X872558Y216923D01*
X872586Y216916D01*
X872699Y216920D01*
X872812Y216917D01*
X872841Y216924D01*
X872870Y216925D01*
X872978Y216960D01*
X873087Y216989D01*
X873113Y217004D01*
X873141Y217013D01*
X873205Y217058D01*
X873332Y217134D01*
X873375Y217180D01*
X873414Y217208D01*
X874257Y218051D01*
X886743Y218051D01*
X888282Y216512D01*
X888329Y216476D01*
X888369Y216434D01*
X888442Y216391D01*
X888509Y216341D01*
X888564Y216320D01*
X888614Y216290D01*
X888696Y216270D01*
X888775Y216239D01*
X888833Y216235D01*
X888890Y216220D01*
X888974Y216223D01*
X889058Y216216D01*
X889116Y216227D01*
X889174Y216229D01*
X889254Y216255D01*
X889337Y216272D01*
X889389Y216299D01*
X889445Y216317D01*
X889501Y216357D01*
X889589Y216403D01*
X889662Y216471D01*
X889718Y216512D01*
X891257Y218051D01*
X903743Y218051D01*
X905501Y216293D01*
X905501Y216106D01*
X905509Y216048D01*
X905507Y215990D01*
X905529Y215908D01*
X905541Y215824D01*
X905564Y215771D01*
X905579Y215715D01*
X905622Y215642D01*
X905657Y215565D01*
X905695Y215520D01*
X905724Y215470D01*
X905786Y215412D01*
X905840Y215348D01*
X905889Y215316D01*
X905932Y215276D01*
X906007Y215237D01*
X906077Y215190D01*
X906133Y215173D01*
X906185Y215146D01*
X906253Y215135D01*
X906348Y215105D01*
X906448Y215102D01*
X906516Y215091D01*
X909584Y215091D01*
X909642Y215099D01*
X909700Y215097D01*
X909782Y215119D01*
X909866Y215131D01*
X909919Y215154D01*
X909975Y215169D01*
X910048Y215212D01*
X910125Y215247D01*
X910170Y215285D01*
X910220Y215314D01*
X910278Y215376D01*
X910342Y215430D01*
X910374Y215479D01*
X910414Y215522D01*
X910453Y215597D01*
X910500Y215667D01*
X910517Y215723D01*
X910544Y215775D01*
X910555Y215843D01*
X910585Y215938D01*
X910588Y216038D01*
X910599Y216106D01*
X910599Y216293D01*
X912357Y218051D01*
X924843Y218051D01*
X926601Y216293D01*
X926601Y204851D01*
X926609Y204793D01*
X926607Y204735D01*
X926629Y204653D01*
X926641Y204569D01*
X926664Y204516D01*
X926679Y204460D01*
X926722Y204387D01*
X926757Y204310D01*
X926795Y204265D01*
X926824Y204215D01*
X926886Y204157D01*
X926940Y204093D01*
X926989Y204061D01*
X927032Y204021D01*
X927107Y203982D01*
X927177Y203935D01*
X927233Y203918D01*
X927285Y203891D01*
X927353Y203880D01*
X927448Y203850D01*
X927548Y203847D01*
X927616Y203836D01*
X933713Y203836D01*
X934086Y203463D01*
X934086Y174616D01*
X934094Y174558D01*
X934092Y174500D01*
X934114Y174418D01*
X934126Y174334D01*
X934149Y174281D01*
X934164Y174225D01*
X934207Y174152D01*
X934242Y174075D01*
X934280Y174030D01*
X934309Y173980D01*
X934371Y173922D01*
X934425Y173858D01*
X934474Y173826D01*
X934517Y173786D01*
X934592Y173747D01*
X934662Y173700D01*
X934718Y173683D01*
X934770Y173656D01*
X934838Y173645D01*
X934933Y173615D01*
X935033Y173612D01*
X935101Y173601D01*
X941843Y173601D01*
X943601Y171843D01*
X943601Y171656D01*
X943609Y171598D01*
X943607Y171540D01*
X943629Y171458D01*
X943641Y171374D01*
X943664Y171321D01*
X943679Y171265D01*
X943722Y171192D01*
X943757Y171115D01*
X943795Y171070D01*
X943824Y171020D01*
X943886Y170962D01*
X943940Y170898D01*
X943989Y170866D01*
X944032Y170826D01*
X944107Y170787D01*
X944177Y170740D01*
X944233Y170723D01*
X944285Y170696D01*
X944353Y170685D01*
X944448Y170655D01*
X944548Y170652D01*
X944616Y170641D01*
X973494Y170641D01*
X973552Y170649D01*
X973610Y170647D01*
X973692Y170669D01*
X973776Y170681D01*
X973829Y170704D01*
X973885Y170719D01*
X973958Y170762D01*
X974035Y170797D01*
X974080Y170835D01*
X974130Y170864D01*
X974188Y170926D01*
X974252Y170980D01*
X974284Y171029D01*
X974324Y171072D01*
X974363Y171147D01*
X974410Y171217D01*
X974427Y171273D01*
X974454Y171325D01*
X974465Y171393D01*
X974495Y171488D01*
X974498Y171588D01*
X974509Y171656D01*
X974509Y298397D01*
X975740Y301367D01*
X1009673Y335300D01*
X1012643Y336531D01*
X1140015Y336531D01*
X1140102Y336543D01*
X1140189Y336546D01*
X1140242Y336563D01*
X1140296Y336571D01*
X1140376Y336606D01*
X1140459Y336633D01*
X1140499Y336661D01*
X1140556Y336687D01*
X1140669Y336783D01*
X1140733Y336828D01*
X1141553Y337649D01*
X1145542Y339301D01*
X1149858Y339301D01*
X1153847Y337649D01*
X1156899Y334597D01*
X1158551Y330608D01*
X1158551Y326292D01*
X1156899Y322303D01*
X1153847Y319251D01*
X1149858Y317599D01*
X1145542Y317599D01*
X1141553Y319251D01*
X1140733Y320072D01*
X1140663Y320124D01*
X1140599Y320184D01*
X1140550Y320210D01*
X1140506Y320243D01*
X1140424Y320274D01*
X1140346Y320314D01*
X1140298Y320322D01*
X1140240Y320344D01*
X1140092Y320356D01*
X1140015Y320369D01*
X1018018Y320369D01*
X1017931Y320357D01*
X1017844Y320354D01*
X1017791Y320337D01*
X1017736Y320329D01*
X1017656Y320294D01*
X1017573Y320267D01*
X1017534Y320239D01*
X1017477Y320213D01*
X1017363Y320117D01*
X1017300Y320072D01*
X990968Y293740D01*
X990916Y293670D01*
X990856Y293607D01*
X990830Y293557D01*
X990797Y293513D01*
X990766Y293431D01*
X990726Y293353D01*
X990718Y293306D01*
X990696Y293247D01*
X990684Y293100D01*
X990671Y293022D01*
X990671Y133403D01*
X989440Y130433D01*
X988428Y129420D01*
X988376Y129350D01*
X988316Y129287D01*
X988290Y129237D01*
X988257Y129193D01*
X988226Y129111D01*
X988186Y129033D01*
X988178Y128986D01*
X988156Y128927D01*
X988144Y128780D01*
X988131Y128702D01*
X988131Y121383D01*
X988143Y121297D01*
X988146Y121209D01*
X988163Y121157D01*
X988171Y121102D01*
X988206Y121022D01*
X988233Y120939D01*
X988261Y120900D01*
X988287Y120843D01*
X988383Y120729D01*
X988405Y120698D01*
X988406Y120696D01*
X988407Y120695D01*
X988428Y120666D01*
X988551Y120543D01*
X988551Y108057D01*
X988428Y107934D01*
X988376Y107865D01*
X988316Y107801D01*
X988290Y107751D01*
X988257Y107707D01*
X988226Y107626D01*
X988186Y107548D01*
X988178Y107500D01*
X988156Y107442D01*
X988144Y107294D01*
X988131Y107217D01*
X988131Y89633D01*
X988143Y89547D01*
X988146Y89459D01*
X988163Y89407D01*
X988171Y89352D01*
X988206Y89272D01*
X988233Y89189D01*
X988261Y89150D01*
X988287Y89093D01*
X988383Y88979D01*
X988428Y88916D01*
X988629Y88714D01*
X988672Y88642D01*
X988707Y88565D01*
X988745Y88520D01*
X988774Y88470D01*
X988836Y88412D01*
X988890Y88348D01*
X988939Y88316D01*
X988982Y88276D01*
X989057Y88237D01*
X989127Y88190D01*
X989183Y88173D01*
X989235Y88146D01*
X989303Y88135D01*
X989398Y88105D01*
X989498Y88102D01*
X989566Y88091D01*
X991634Y88091D01*
X991692Y88099D01*
X991750Y88097D01*
X991832Y88119D01*
X991916Y88131D01*
X991969Y88154D01*
X992025Y88169D01*
X992098Y88212D01*
X992175Y88247D01*
X992220Y88285D01*
X992270Y88314D01*
X992328Y88376D01*
X992392Y88430D01*
X992424Y88479D01*
X992464Y88522D01*
X992503Y88597D01*
X992550Y88667D01*
X992562Y88705D01*
X994407Y90551D01*
X994594Y90551D01*
X994652Y90559D01*
X994710Y90557D01*
X994792Y90579D01*
X994876Y90591D01*
X994929Y90614D01*
X994985Y90629D01*
X995058Y90672D01*
X995135Y90707D01*
X995180Y90745D01*
X995230Y90774D01*
X995288Y90836D01*
X995352Y90890D01*
X995384Y90939D01*
X995424Y90982D01*
X995463Y91057D01*
X995510Y91127D01*
X995527Y91183D01*
X995554Y91235D01*
X995565Y91303D01*
X995595Y91398D01*
X995598Y91498D01*
X995609Y91566D01*
X995609Y100702D01*
X996285Y102335D01*
X996286Y102336D01*
X996287Y102337D01*
X996322Y102475D01*
X996356Y102610D01*
X996356Y102611D01*
X996357Y102613D01*
X996352Y102754D01*
X996348Y102894D01*
X996348Y102896D01*
X996348Y102897D01*
X996304Y103033D01*
X996262Y103165D01*
X996261Y103166D01*
X996260Y103168D01*
X996251Y103180D01*
X996103Y103401D01*
X996080Y103421D01*
X996065Y103441D01*
X995399Y104107D01*
X995399Y116593D01*
X997157Y118351D01*
X1026643Y118351D01*
X1028479Y116514D01*
X1028522Y116442D01*
X1028557Y116365D01*
X1028595Y116320D01*
X1028624Y116270D01*
X1028686Y116212D01*
X1028740Y116148D01*
X1028789Y116116D01*
X1028832Y116076D01*
X1028907Y116037D01*
X1028977Y115990D01*
X1029033Y115973D01*
X1029085Y115946D01*
X1029153Y115935D01*
X1029248Y115905D01*
X1029348Y115902D01*
X1029416Y115891D01*
X1035022Y115891D01*
X1037059Y115047D01*
X1044997Y107109D01*
X1045841Y105072D01*
X1045841Y82066D01*
X1045849Y82008D01*
X1045847Y81950D01*
X1045869Y81868D01*
X1045881Y81784D01*
X1045904Y81731D01*
X1045919Y81675D01*
X1045962Y81602D01*
X1045997Y81525D01*
X1046035Y81480D01*
X1046064Y81430D01*
X1046126Y81372D01*
X1046180Y81308D01*
X1046229Y81276D01*
X1046272Y81236D01*
X1046347Y81197D01*
X1046417Y81150D01*
X1046473Y81133D01*
X1046525Y81106D01*
X1046593Y81095D01*
X1046688Y81065D01*
X1046788Y81062D01*
X1046856Y81051D01*
X1048543Y81051D01*
X1050301Y79293D01*
X1050301Y60407D01*
X1048543Y58649D01*
X1032057Y58649D01*
X1030299Y60407D01*
X1030299Y79293D01*
X1032057Y81051D01*
X1033744Y81051D01*
X1033802Y81059D01*
X1033860Y81057D01*
X1033942Y81079D01*
X1034026Y81091D01*
X1034079Y81114D01*
X1034135Y81129D01*
X1034208Y81172D01*
X1034285Y81207D01*
X1034330Y81245D01*
X1034380Y81274D01*
X1034438Y81336D01*
X1034502Y81390D01*
X1034534Y81439D01*
X1034574Y81482D01*
X1034613Y81557D01*
X1034660Y81627D01*
X1034677Y81683D01*
X1034704Y81735D01*
X1034715Y81803D01*
X1034745Y81898D01*
X1034748Y81998D01*
X1034759Y82066D01*
X1034759Y101254D01*
X1034747Y101341D01*
X1034744Y101428D01*
X1034727Y101481D01*
X1034719Y101536D01*
X1034684Y101616D01*
X1034657Y101699D01*
X1034629Y101738D01*
X1034603Y101795D01*
X1034507Y101909D01*
X1034462Y101972D01*
X1031922Y104512D01*
X1031853Y104564D01*
X1031789Y104624D01*
X1031739Y104650D01*
X1031695Y104683D01*
X1031613Y104714D01*
X1031535Y104754D01*
X1031488Y104762D01*
X1031429Y104784D01*
X1031282Y104796D01*
X1031204Y104809D01*
X1029416Y104809D01*
X1029358Y104801D01*
X1029300Y104803D01*
X1029218Y104781D01*
X1029134Y104769D01*
X1029081Y104746D01*
X1029025Y104731D01*
X1028952Y104688D01*
X1028875Y104653D01*
X1028830Y104615D01*
X1028780Y104586D01*
X1028722Y104524D01*
X1028658Y104470D01*
X1028626Y104421D01*
X1028586Y104378D01*
X1028547Y104303D01*
X1028500Y104233D01*
X1028488Y104195D01*
X1026643Y102349D01*
X1012156Y102349D01*
X1012069Y102337D01*
X1011982Y102334D01*
X1011929Y102317D01*
X1011874Y102309D01*
X1011794Y102274D01*
X1011711Y102247D01*
X1011672Y102219D01*
X1011615Y102193D01*
X1011501Y102097D01*
X1011438Y102052D01*
X1006988Y97602D01*
X1006936Y97533D01*
X1006876Y97469D01*
X1006850Y97419D01*
X1006817Y97375D01*
X1006786Y97293D01*
X1006746Y97215D01*
X1006738Y97168D01*
X1006716Y97109D01*
X1006704Y96962D01*
X1006691Y96884D01*
X1006691Y91566D01*
X1006699Y91508D01*
X1006697Y91450D01*
X1006719Y91368D01*
X1006731Y91284D01*
X1006754Y91231D01*
X1006769Y91175D01*
X1006812Y91102D01*
X1006847Y91025D01*
X1006885Y90980D01*
X1006914Y90930D01*
X1006976Y90872D01*
X1007030Y90808D01*
X1007079Y90776D01*
X1007122Y90736D01*
X1007197Y90697D01*
X1007267Y90650D01*
X1007323Y90633D01*
X1007375Y90606D01*
X1007443Y90595D01*
X1007538Y90565D01*
X1007638Y90562D01*
X1007706Y90551D01*
X1007893Y90551D01*
X1009651Y88793D01*
X1009651Y76307D01*
X1007893Y74549D01*
X1007706Y74549D01*
X1007648Y74541D01*
X1007590Y74543D01*
X1007508Y74521D01*
X1007424Y74509D01*
X1007371Y74486D01*
X1007315Y74471D01*
X1007242Y74428D01*
X1007165Y74393D01*
X1007120Y74355D01*
X1007070Y74326D01*
X1007012Y74264D01*
X1006948Y74210D01*
X1006916Y74161D01*
X1006876Y74118D01*
X1006837Y74043D01*
X1006790Y73973D01*
X1006773Y73917D01*
X1006746Y73865D01*
X1006735Y73797D01*
X1006705Y73702D01*
X1006702Y73602D01*
X1006691Y73534D01*
X1006691Y66166D01*
X1006699Y66108D01*
X1006697Y66050D01*
X1006719Y65968D01*
X1006731Y65884D01*
X1006754Y65831D01*
X1006769Y65775D01*
X1006812Y65702D01*
X1006847Y65625D01*
X1006885Y65580D01*
X1006914Y65530D01*
X1006976Y65472D01*
X1007030Y65408D01*
X1007079Y65376D01*
X1007122Y65336D01*
X1007197Y65297D01*
X1007267Y65250D01*
X1007323Y65233D01*
X1007375Y65206D01*
X1007443Y65195D01*
X1007538Y65165D01*
X1007638Y65162D01*
X1007706Y65151D01*
X1007893Y65151D01*
X1009651Y63393D01*
X1009651Y50907D01*
X1007893Y49149D01*
X994407Y49149D01*
X992794Y50762D01*
X992770Y50780D01*
X992751Y50802D01*
X992657Y50865D01*
X992567Y50933D01*
X992539Y50944D01*
X992515Y50960D01*
X992407Y50994D01*
X992301Y51035D01*
X992272Y51037D01*
X992244Y51046D01*
X992130Y51049D01*
X992018Y51058D01*
X991989Y51052D01*
X991960Y51053D01*
X991850Y51025D01*
X991739Y51002D01*
X991713Y50989D01*
X991685Y50981D01*
X991587Y50923D01*
X991487Y50871D01*
X991465Y50851D01*
X991440Y50836D01*
X991363Y50754D01*
X991281Y50675D01*
X991266Y50650D01*
X991246Y50629D01*
X991194Y50528D01*
X991137Y50430D01*
X991130Y50402D01*
X991116Y50376D01*
X991103Y50298D01*
X991067Y50155D01*
X991069Y50092D01*
X991061Y50045D01*
X991061Y42843D01*
X989830Y39873D01*
X983747Y33790D01*
X980777Y32559D01*
X940733Y32559D01*
X937763Y33790D01*
X935347Y36205D01*
X934069Y37483D01*
X934022Y37518D01*
X933982Y37561D01*
X933909Y37603D01*
X933842Y37654D01*
X933787Y37675D01*
X933737Y37704D01*
X933655Y37725D01*
X933576Y37755D01*
X933518Y37760D01*
X933461Y37774D01*
X933377Y37772D01*
X933293Y37779D01*
X933236Y37767D01*
X933177Y37765D01*
X933097Y37739D01*
X933014Y37723D01*
X932962Y37696D01*
X932907Y37678D01*
X932851Y37638D01*
X932762Y37592D01*
X932689Y37523D01*
X932633Y37483D01*
X931298Y36148D01*
X927439Y34549D01*
X863261Y34549D01*
X859402Y36148D01*
X856448Y39102D01*
X854849Y42961D01*
X854849Y61849D01*
X854841Y61907D01*
X854843Y61965D01*
X854821Y62047D01*
X854809Y62131D01*
X854786Y62184D01*
X854771Y62240D01*
X854728Y62313D01*
X854693Y62390D01*
X854655Y62435D01*
X854626Y62485D01*
X854564Y62543D01*
X854510Y62607D01*
X854461Y62639D01*
X854418Y62679D01*
X854343Y62718D01*
X854273Y62765D01*
X854217Y62782D01*
X854165Y62809D01*
X854097Y62820D01*
X854002Y62850D01*
X853902Y62853D01*
X853834Y62864D01*
X850637Y62864D01*
X850264Y63237D01*
X850264Y101863D01*
X850637Y102236D01*
X853834Y102236D01*
X853892Y102244D01*
X853950Y102242D01*
X854032Y102264D01*
X854116Y102276D01*
X854169Y102299D01*
X854225Y102314D01*
X854298Y102357D01*
X854375Y102392D01*
X854420Y102430D01*
X854470Y102459D01*
X854528Y102521D01*
X854592Y102575D01*
X854624Y102624D01*
X854664Y102667D01*
X854703Y102742D01*
X854750Y102812D01*
X854767Y102868D01*
X854794Y102920D01*
X854805Y102988D01*
X854835Y103083D01*
X854838Y103183D01*
X854849Y103251D01*
X854849Y122139D01*
X856448Y125998D01*
X859402Y128952D01*
X863261Y130551D01*
X869399Y130551D01*
X869428Y130555D01*
X869457Y130552D01*
X869569Y130575D01*
X869681Y130591D01*
X869707Y130603D01*
X869736Y130608D01*
X869837Y130661D01*
X869940Y130707D01*
X869962Y130726D01*
X869989Y130739D01*
X870071Y130817D01*
X870157Y130890D01*
X870173Y130915D01*
X870195Y130935D01*
X870252Y131033D01*
X870315Y131127D01*
X870324Y131155D01*
X870338Y131180D01*
X870366Y131290D01*
X870400Y131398D01*
X870401Y131428D01*
X870408Y131456D01*
X870405Y131569D01*
X870408Y131682D01*
X870400Y131711D01*
X870399Y131740D01*
X870365Y131848D01*
X870336Y131957D01*
X870321Y131983D01*
X870312Y132011D01*
X870266Y132075D01*
X870191Y132202D01*
X870145Y132245D01*
X870117Y132284D01*
X869314Y133087D01*
X869314Y157734D01*
X869306Y157792D01*
X869308Y157850D01*
X869286Y157932D01*
X869274Y158016D01*
X869251Y158069D01*
X869236Y158125D01*
X869193Y158198D01*
X869158Y158275D01*
X869120Y158320D01*
X869091Y158370D01*
X869029Y158428D01*
X868975Y158492D01*
X868926Y158524D01*
X868883Y158564D01*
X868808Y158603D01*
X868738Y158650D01*
X868682Y158667D01*
X868630Y158694D01*
X868562Y158705D01*
X868467Y158735D01*
X868367Y158738D01*
X868299Y158749D01*
X857357Y158749D01*
X855599Y160507D01*
X855599Y165248D01*
X855595Y165278D01*
X855597Y165309D01*
X855580Y165385D01*
X855559Y165529D01*
X855533Y165588D01*
X855522Y165636D01*
X855519Y165643D01*
X855519Y236557D01*
X856750Y239527D01*
X937772Y320550D01*
X937824Y320620D01*
X937884Y320683D01*
X937910Y320733D01*
X937943Y320777D01*
X937974Y320859D01*
X938014Y320937D01*
X938022Y320984D01*
X938044Y321043D01*
X938054Y321165D01*
X938055Y321168D01*
X938056Y321183D01*
X938056Y321190D01*
X938069Y321268D01*
X938069Y346504D01*
X938061Y346562D01*
X938063Y346620D01*
X938041Y346702D01*
X938029Y346786D01*
X938006Y346839D01*
X937991Y346895D01*
X937948Y346968D01*
X937913Y347045D01*
X937875Y347090D01*
X937846Y347140D01*
X937784Y347198D01*
X937730Y347262D01*
X937681Y347294D01*
X937638Y347334D01*
X937563Y347373D01*
X937493Y347420D01*
X937437Y347437D01*
X937385Y347464D01*
X937317Y347475D01*
X937222Y347505D01*
X937122Y347508D01*
X937054Y347519D01*
X900126Y347519D01*
X900039Y347507D01*
X899952Y347504D01*
X899899Y347487D01*
X899844Y347479D01*
X899764Y347444D01*
X899681Y347417D01*
X899642Y347389D01*
X899585Y347363D01*
X899471Y347267D01*
X899408Y347222D01*
X896364Y344179D01*
X891586Y342199D01*
X886414Y342199D01*
X881636Y344179D01*
X878992Y346822D01*
X878923Y346874D01*
X878859Y346934D01*
X878809Y346960D01*
X878765Y346993D01*
X878683Y347024D01*
X878605Y347064D01*
X878558Y347072D01*
X878499Y347094D01*
X878352Y347106D01*
X878274Y347119D01*
X822566Y347119D01*
X822508Y347111D01*
X822450Y347113D01*
X822368Y347091D01*
X822284Y347079D01*
X822231Y347056D01*
X822175Y347041D01*
X822102Y346998D01*
X822025Y346963D01*
X821980Y346925D01*
X821930Y346896D01*
X821872Y346834D01*
X821808Y346780D01*
X821776Y346731D01*
X821736Y346688D01*
X821697Y346613D01*
X821650Y346543D01*
X821633Y346487D01*
X821606Y346435D01*
X821595Y346367D01*
X821565Y346272D01*
X821562Y346172D01*
X821551Y346104D01*
X821551Y344551D01*
X821559Y344493D01*
X821557Y344435D01*
X821579Y344353D01*
X821591Y344269D01*
X821614Y344216D01*
X821629Y344160D01*
X821672Y344087D01*
X821707Y344010D01*
X821745Y343965D01*
X821774Y343915D01*
X821836Y343857D01*
X821890Y343793D01*
X821939Y343761D01*
X821982Y343721D01*
X822057Y343682D01*
X822127Y343635D01*
X822183Y343618D01*
X822235Y343591D01*
X822303Y343580D01*
X822398Y343550D01*
X822498Y343547D01*
X822566Y343536D01*
X832113Y343536D01*
X832486Y343163D01*
X832486Y310887D01*
X832113Y310514D01*
X825237Y310514D01*
X824567Y311184D01*
X823249Y312502D01*
X823225Y312520D01*
X823206Y312542D01*
X823112Y312605D01*
X823022Y312673D01*
X822994Y312683D01*
X822970Y312700D01*
X822862Y312734D01*
X822756Y312774D01*
X822727Y312777D01*
X822699Y312785D01*
X822585Y312788D01*
X822473Y312798D01*
X822444Y312792D01*
X822415Y312793D01*
X822305Y312764D01*
X822194Y312742D01*
X822168Y312728D01*
X822140Y312721D01*
X822042Y312663D01*
X821942Y312611D01*
X821920Y312591D01*
X821895Y312576D01*
X821818Y312493D01*
X821736Y312415D01*
X821721Y312390D01*
X821701Y312368D01*
X821649Y312268D01*
X821592Y312170D01*
X821585Y312141D01*
X821571Y312115D01*
X821558Y312038D01*
X821522Y311894D01*
X821524Y311832D01*
X821516Y311784D01*
X821516Y303725D01*
X821520Y303694D01*
X821518Y303664D01*
X821535Y303587D01*
X821551Y303478D01*
X821551Y284261D01*
X819952Y280402D01*
X816998Y277448D01*
X813139Y275849D01*
X805922Y275849D01*
X805835Y275837D01*
X805747Y275834D01*
X805695Y275817D01*
X805640Y275809D01*
X805560Y275774D01*
X805477Y275747D01*
X805438Y275719D01*
X805381Y275693D01*
X805267Y275597D01*
X805204Y275552D01*
X793238Y263586D01*
X793186Y263517D01*
X793126Y263453D01*
X793100Y263403D01*
X793067Y263359D01*
X793036Y263277D01*
X792996Y263200D01*
X792988Y263152D01*
X792966Y263094D01*
X792954Y262946D01*
X792941Y262868D01*
X792941Y261545D01*
X792953Y261458D01*
X792956Y261371D01*
X792973Y261318D01*
X792981Y261263D01*
X793016Y261184D01*
X793043Y261100D01*
X793071Y261061D01*
X793097Y261004D01*
X793193Y260891D01*
X793238Y260827D01*
X793401Y260664D01*
X793401Y248936D01*
X790764Y246299D01*
X784036Y246299D01*
X783368Y246967D01*
X783321Y247002D01*
X783281Y247045D01*
X783208Y247087D01*
X783141Y247138D01*
X783086Y247159D01*
X783036Y247188D01*
X782954Y247209D01*
X782875Y247239D01*
X782817Y247244D01*
X782760Y247258D01*
X782676Y247256D01*
X782592Y247263D01*
X782534Y247251D01*
X782476Y247249D01*
X782396Y247223D01*
X782313Y247207D01*
X782261Y247180D01*
X782205Y247162D01*
X782149Y247122D01*
X782061Y247076D01*
X781988Y247007D01*
X781932Y246967D01*
X781264Y246299D01*
X777656Y246299D01*
X777569Y246287D01*
X777482Y246284D01*
X777429Y246267D01*
X777374Y246259D01*
X777294Y246224D01*
X777211Y246197D01*
X777172Y246169D01*
X777115Y246143D01*
X777001Y246047D01*
X776938Y246002D01*
X771739Y240803D01*
X769702Y239959D01*
X758316Y239959D01*
X758258Y239951D01*
X758200Y239953D01*
X758118Y239931D01*
X758034Y239919D01*
X757981Y239896D01*
X757925Y239881D01*
X757852Y239838D01*
X757775Y239803D01*
X757730Y239765D01*
X757680Y239736D01*
X757622Y239674D01*
X757558Y239620D01*
X757526Y239571D01*
X757486Y239528D01*
X757447Y239453D01*
X757400Y239383D01*
X757383Y239327D01*
X757356Y239275D01*
X757345Y239207D01*
X757315Y239112D01*
X757312Y239012D01*
X757301Y238944D01*
X757301Y238757D01*
X755543Y236999D01*
X743057Y236999D01*
X741299Y238757D01*
X741299Y252243D01*
X742338Y253282D01*
X742374Y253329D01*
X742416Y253369D01*
X742459Y253442D01*
X742509Y253509D01*
X742530Y253564D01*
X742560Y253614D01*
X742580Y253696D01*
X742611Y253775D01*
X742615Y253833D01*
X742630Y253890D01*
X742627Y253974D01*
X742634Y254058D01*
X742623Y254116D01*
X742621Y254174D01*
X742595Y254254D01*
X742578Y254337D01*
X742551Y254389D01*
X742533Y254445D01*
X742493Y254501D01*
X742447Y254589D01*
X742378Y254662D01*
X742338Y254718D01*
X741299Y255757D01*
X741299Y269243D01*
X743057Y271001D01*
X749544Y271001D01*
X749631Y271013D01*
X749718Y271016D01*
X749771Y271033D01*
X749826Y271041D01*
X749906Y271076D01*
X749989Y271103D01*
X750028Y271131D01*
X750085Y271157D01*
X750198Y271253D01*
X750262Y271298D01*
X750543Y271579D01*
X750578Y271626D01*
X750621Y271666D01*
X750664Y271739D01*
X750714Y271806D01*
X750735Y271861D01*
X750765Y271911D01*
X750785Y271993D01*
X750815Y272072D01*
X750820Y272130D01*
X750835Y272187D01*
X750832Y272271D01*
X750839Y272355D01*
X750828Y272413D01*
X750826Y272471D01*
X750800Y272551D01*
X750783Y272634D01*
X750756Y272686D01*
X750738Y272742D01*
X750698Y272798D01*
X750652Y272886D01*
X750583Y272959D01*
X750543Y273015D01*
X746966Y276592D01*
X746942Y276611D01*
X746922Y276634D01*
X746855Y276676D01*
X746739Y276763D01*
X746679Y276786D01*
X746637Y276812D01*
X745102Y277448D01*
X742148Y280402D01*
X741512Y281937D01*
X741496Y281964D01*
X741487Y281993D01*
X741441Y282057D01*
X741368Y282182D01*
X741321Y282226D01*
X741292Y282266D01*
X740584Y282974D01*
X740584Y283975D01*
X740580Y284006D01*
X740582Y284036D01*
X740565Y284113D01*
X740549Y284222D01*
X740549Y303501D01*
X740578Y303612D01*
X740576Y303676D01*
X740584Y303725D01*
X740584Y315211D01*
X740622Y315268D01*
X740690Y315358D01*
X740701Y315386D01*
X740717Y315410D01*
X740751Y315518D01*
X740792Y315624D01*
X740794Y315653D01*
X740803Y315681D01*
X740806Y315794D01*
X740815Y315907D01*
X740809Y315936D01*
X740810Y315965D01*
X740782Y316075D01*
X740759Y316186D01*
X740746Y316212D01*
X740738Y316240D01*
X740681Y316337D01*
X740628Y316438D01*
X740608Y316460D01*
X740593Y316485D01*
X740510Y316562D01*
X740432Y316644D01*
X740407Y316659D01*
X740386Y316679D01*
X740285Y316731D01*
X740187Y316788D01*
X740159Y316795D01*
X740133Y316809D01*
X740055Y316822D01*
X739912Y316858D01*
X739849Y316856D01*
X739802Y316864D01*
X736337Y316864D01*
X735964Y317237D01*
X735964Y344677D01*
X735960Y344707D01*
X735963Y344736D01*
X735940Y344847D01*
X735924Y344959D01*
X735912Y344986D01*
X735907Y345014D01*
X735855Y345115D01*
X735808Y345218D01*
X735789Y345241D01*
X735776Y345267D01*
X735698Y345349D01*
X735625Y345435D01*
X735600Y345452D01*
X735580Y345473D01*
X735482Y345530D01*
X735388Y345593D01*
X735360Y345602D01*
X735335Y345617D01*
X735225Y345645D01*
X735117Y345679D01*
X735087Y345680D01*
X735059Y345687D01*
X734946Y345683D01*
X734833Y345686D01*
X734804Y345679D01*
X734775Y345678D01*
X734667Y345643D01*
X734558Y345614D01*
X734532Y345599D01*
X734504Y345590D01*
X734441Y345545D01*
X734313Y345469D01*
X734270Y345423D01*
X734231Y345395D01*
X729738Y340902D01*
X729686Y340832D01*
X729626Y340769D01*
X729600Y340719D01*
X729567Y340675D01*
X729536Y340593D01*
X729496Y340515D01*
X729488Y340468D01*
X729466Y340409D01*
X729454Y340262D01*
X729441Y340184D01*
X729441Y271516D01*
X729449Y271458D01*
X729447Y271400D01*
X729469Y271318D01*
X729481Y271234D01*
X729504Y271181D01*
X729519Y271125D01*
X729562Y271052D01*
X729597Y270975D01*
X729635Y270930D01*
X729664Y270880D01*
X729726Y270822D01*
X729780Y270758D01*
X729829Y270726D01*
X729872Y270686D01*
X729947Y270647D01*
X730017Y270600D01*
X730073Y270583D01*
X730125Y270556D01*
X730193Y270545D01*
X730288Y270515D01*
X730388Y270512D01*
X730456Y270501D01*
X730643Y270501D01*
X732401Y268743D01*
X732401Y256257D01*
X730862Y254718D01*
X730826Y254671D01*
X730784Y254631D01*
X730741Y254558D01*
X730691Y254491D01*
X730670Y254436D01*
X730640Y254386D01*
X730620Y254304D01*
X730589Y254225D01*
X730585Y254167D01*
X730570Y254110D01*
X730573Y254026D01*
X730566Y253942D01*
X730577Y253884D01*
X730579Y253826D01*
X730605Y253746D01*
X730622Y253663D01*
X730649Y253611D01*
X730667Y253555D01*
X730707Y253499D01*
X730753Y253411D01*
X730822Y253338D01*
X730862Y253282D01*
X732401Y251743D01*
X732401Y239786D01*
X732413Y239699D01*
X732416Y239612D01*
X732433Y239559D01*
X732441Y239504D01*
X732476Y239424D01*
X732503Y239341D01*
X732531Y239302D01*
X732557Y239245D01*
X732653Y239131D01*
X732698Y239068D01*
X738128Y233638D01*
X738198Y233586D01*
X738261Y233526D01*
X738311Y233500D01*
X738355Y233467D01*
X738437Y233436D01*
X738515Y233396D01*
X738562Y233388D01*
X738621Y233366D01*
X738768Y233354D01*
X738846Y233341D01*
X771155Y233341D01*
X771242Y233353D01*
X771329Y233356D01*
X771382Y233373D01*
X771437Y233381D01*
X771517Y233416D01*
X771600Y233443D01*
X771639Y233471D01*
X771696Y233497D01*
X771809Y233593D01*
X771873Y233638D01*
X774536Y236301D01*
X781264Y236301D01*
X781932Y235633D01*
X781979Y235598D01*
X782019Y235555D01*
X782092Y235513D01*
X782159Y235462D01*
X782214Y235441D01*
X782264Y235412D01*
X782346Y235391D01*
X782425Y235361D01*
X782483Y235356D01*
X782540Y235342D01*
X782624Y235344D01*
X782708Y235337D01*
X782766Y235349D01*
X782824Y235351D01*
X782904Y235377D01*
X782987Y235393D01*
X783039Y235420D01*
X783095Y235438D01*
X783151Y235478D01*
X783239Y235524D01*
X783312Y235593D01*
X783368Y235633D01*
X784036Y236301D01*
X790764Y236301D01*
X791432Y235633D01*
X791479Y235598D01*
X791519Y235555D01*
X791592Y235513D01*
X791659Y235462D01*
X791714Y235441D01*
X791764Y235412D01*
X791846Y235391D01*
X791925Y235361D01*
X791983Y235356D01*
X792040Y235342D01*
X792124Y235344D01*
X792208Y235337D01*
X792266Y235349D01*
X792324Y235351D01*
X792404Y235377D01*
X792487Y235393D01*
X792539Y235420D01*
X792595Y235438D01*
X792651Y235478D01*
X792739Y235524D01*
X792812Y235593D01*
X792868Y235633D01*
X793536Y236301D01*
X800264Y236301D01*
X802901Y233664D01*
X802901Y221936D01*
X802738Y221773D01*
X802686Y221703D01*
X802626Y221639D01*
X802600Y221590D01*
X802567Y221546D01*
X802536Y221464D01*
X802496Y221386D01*
X802488Y221339D01*
X802466Y221280D01*
X802454Y221132D01*
X802441Y221055D01*
X802441Y201048D01*
X801597Y199011D01*
X800398Y197812D01*
X800346Y197742D01*
X800286Y197679D01*
X800260Y197629D01*
X800227Y197585D01*
X800196Y197503D01*
X800156Y197426D01*
X800148Y197378D01*
X800126Y197320D01*
X800114Y197172D01*
X800101Y197094D01*
X800101Y190607D01*
X798343Y188849D01*
X798156Y188849D01*
X798098Y188841D01*
X798040Y188843D01*
X797958Y188821D01*
X797874Y188809D01*
X797821Y188786D01*
X797765Y188771D01*
X797692Y188728D01*
X797615Y188693D01*
X797570Y188655D01*
X797520Y188626D01*
X797462Y188564D01*
X797398Y188510D01*
X797366Y188461D01*
X797326Y188418D01*
X797287Y188343D01*
X797240Y188273D01*
X797223Y188217D01*
X797196Y188165D01*
X797185Y188097D01*
X797155Y188002D01*
X797152Y187902D01*
X797141Y187834D01*
X797141Y186816D01*
X797149Y186758D01*
X797147Y186700D01*
X797169Y186618D01*
X797181Y186534D01*
X797204Y186481D01*
X797219Y186425D01*
X797262Y186352D01*
X797297Y186275D01*
X797335Y186230D01*
X797364Y186180D01*
X797426Y186122D01*
X797480Y186058D01*
X797529Y186026D01*
X797572Y185986D01*
X797647Y185947D01*
X797717Y185900D01*
X797773Y185883D01*
X797825Y185856D01*
X797893Y185845D01*
X797988Y185815D01*
X798088Y185812D01*
X798156Y185801D01*
X798343Y185801D01*
X800101Y184043D01*
X800101Y171557D01*
X798343Y169799D01*
X791856Y169799D01*
X791769Y169787D01*
X791682Y169784D01*
X791629Y169767D01*
X791574Y169759D01*
X791494Y169724D01*
X791411Y169697D01*
X791372Y169669D01*
X791315Y169643D01*
X791201Y169547D01*
X791138Y169502D01*
X782039Y160403D01*
X780002Y159559D01*
X724360Y159559D01*
X724302Y159551D01*
X724244Y159553D01*
X724162Y159531D01*
X724078Y159519D01*
X724025Y159496D01*
X723969Y159481D01*
X723896Y159438D01*
X723819Y159403D01*
X723774Y159365D01*
X723724Y159336D01*
X723666Y159274D01*
X723602Y159220D01*
X723570Y159171D01*
X723530Y159128D01*
X723491Y159053D01*
X723444Y158983D01*
X723427Y158927D01*
X723400Y158875D01*
X723389Y158807D01*
X723359Y158712D01*
X723356Y158612D01*
X723345Y158544D01*
X723345Y158146D01*
X682594Y117395D01*
X602646Y117395D01*
X593645Y126396D01*
X593645Y144550D01*
X593633Y144637D01*
X593630Y144724D01*
X593613Y144777D01*
X593605Y144832D01*
X593570Y144912D01*
X593543Y144995D01*
X593515Y145034D01*
X593489Y145091D01*
X593393Y145204D01*
X593348Y145268D01*
X574523Y164093D01*
X573099Y167530D01*
X573099Y187322D01*
X573099Y187324D01*
X573099Y187325D01*
X573090Y187392D01*
X573091Y187439D01*
X573073Y187508D01*
X573059Y187604D01*
X573059Y187605D01*
X573059Y187607D01*
X573032Y187667D01*
X573019Y187714D01*
X572982Y187777D01*
X572943Y187863D01*
X572942Y187864D01*
X572941Y187866D01*
X572900Y187914D01*
X572874Y187959D01*
X572818Y188012D01*
X572760Y188080D01*
X572758Y188081D01*
X572757Y188082D01*
X572744Y188090D01*
X572708Y188115D01*
X572667Y188153D01*
X572594Y188190D01*
X572523Y188238D01*
X572494Y188247D01*
X572473Y188260D01*
X571464Y188678D01*
X571462Y188679D01*
X571461Y188679D01*
X571325Y188714D01*
X571188Y188749D01*
X571187Y188749D01*
X571185Y188749D01*
X571045Y188745D01*
X570904Y188741D01*
X570903Y188741D01*
X570901Y188740D01*
X570770Y188698D01*
X570633Y188654D01*
X570632Y188653D01*
X570631Y188653D01*
X570619Y188644D01*
X570397Y188496D01*
X570377Y188473D01*
X570357Y188458D01*
X565413Y183514D01*
X539487Y183514D01*
X534543Y188458D01*
X534542Y188459D01*
X534541Y188460D01*
X534425Y188546D01*
X534316Y188629D01*
X534314Y188630D01*
X534313Y188631D01*
X534179Y188681D01*
X534050Y188730D01*
X534048Y188730D01*
X534047Y188731D01*
X533902Y188743D01*
X533767Y188754D01*
X533765Y188754D01*
X533764Y188754D01*
X533748Y188750D01*
X533488Y188698D01*
X533461Y188684D01*
X533436Y188678D01*
X532039Y188099D01*
X531066Y188099D01*
X531008Y188091D01*
X530950Y188093D01*
X530868Y188071D01*
X530784Y188059D01*
X530731Y188036D01*
X530675Y188021D01*
X530602Y187978D01*
X530525Y187943D01*
X530480Y187905D01*
X530430Y187876D01*
X530372Y187814D01*
X530308Y187760D01*
X530276Y187711D01*
X530236Y187668D01*
X530197Y187593D01*
X530150Y187523D01*
X530133Y187467D01*
X530106Y187415D01*
X530095Y187347D01*
X530065Y187252D01*
X530062Y187152D01*
X530051Y187084D01*
X530051Y148756D01*
X530063Y148669D01*
X530066Y148582D01*
X530083Y148529D01*
X530091Y148474D01*
X530126Y148394D01*
X530153Y148311D01*
X530181Y148272D01*
X530207Y148215D01*
X530261Y148151D01*
X530287Y148108D01*
X530322Y148075D01*
X530348Y148038D01*
X531721Y146664D01*
X533701Y141886D01*
X533701Y136714D01*
X531721Y131936D01*
X528064Y128279D01*
X523286Y126299D01*
X518114Y126299D01*
X513336Y128279D01*
X511962Y129652D01*
X511893Y129704D01*
X511829Y129764D01*
X511779Y129790D01*
X511735Y129823D01*
X511653Y129854D01*
X511575Y129894D01*
X511528Y129902D01*
X511469Y129924D01*
X511322Y129936D01*
X511244Y129949D01*
X415856Y129949D01*
X415769Y129937D01*
X415682Y129934D01*
X415629Y129917D01*
X415574Y129909D01*
X415494Y129874D01*
X415411Y129847D01*
X415372Y129819D01*
X415315Y129793D01*
X415201Y129697D01*
X415138Y129652D01*
X413764Y128279D01*
X408986Y126299D01*
X403814Y126299D01*
X399036Y128279D01*
X395379Y131936D01*
X393399Y136714D01*
X393399Y138656D01*
X393392Y138704D01*
X393393Y138707D01*
X393391Y138712D01*
X393387Y138743D01*
X393384Y138830D01*
X393367Y138883D01*
X393359Y138938D01*
X393324Y139018D01*
X393297Y139101D01*
X393269Y139140D01*
X393243Y139197D01*
X393147Y139310D01*
X393102Y139374D01*
X392473Y140003D01*
X391049Y143440D01*
X391049Y149488D01*
X391037Y149575D01*
X391034Y149663D01*
X391017Y149715D01*
X391009Y149770D01*
X390974Y149850D01*
X390947Y149933D01*
X390919Y149972D01*
X390893Y150029D01*
X390797Y150143D01*
X390752Y150206D01*
X390064Y150894D01*
X390064Y266700D01*
X390056Y266758D01*
X390058Y266816D01*
X390036Y266898D01*
X390024Y266982D01*
X390001Y267035D01*
X389986Y267091D01*
X389943Y267164D01*
X389908Y267241D01*
X389870Y267286D01*
X389841Y267336D01*
X389779Y267394D01*
X389725Y267458D01*
X389676Y267490D01*
X389633Y267530D01*
X389558Y267569D01*
X389488Y267616D01*
X389432Y267633D01*
X389380Y267660D01*
X389312Y267671D01*
X389217Y267701D01*
X389117Y267704D01*
X389049Y267715D01*
X25400Y267715D01*
X25313Y267703D01*
X25226Y267700D01*
X25173Y267683D01*
X25119Y267675D01*
X25039Y267640D01*
X24955Y267613D01*
X24916Y267585D01*
X24859Y267559D01*
X24746Y267463D01*
X24682Y267418D01*
X11982Y254718D01*
X11930Y254648D01*
X11870Y254584D01*
X11844Y254535D01*
X11811Y254491D01*
X11780Y254409D01*
X11740Y254331D01*
X11732Y254284D01*
X11710Y254225D01*
X11698Y254077D01*
X11685Y254000D01*
X11685Y19050D01*
X11697Y18963D01*
X11700Y18876D01*
X11717Y18823D01*
X11725Y18769D01*
X11760Y18689D01*
X11787Y18605D01*
X11815Y18566D01*
X11841Y18509D01*
X11937Y18396D01*
X11982Y18332D01*
X18332Y11982D01*
X18402Y11930D01*
X18466Y11870D01*
X18515Y11844D01*
X18559Y11811D01*
X18641Y11780D01*
X18719Y11740D01*
X18767Y11732D01*
X18825Y11710D01*
X18973Y11698D01*
X19050Y11685D01*
X1219200Y11685D01*
X1219287Y11697D01*
G37*
G36*
X508042Y139073D02*
X508042Y139073D01*
X508084Y139071D01*
X508151Y139093D01*
X508221Y139105D01*
X508257Y139127D01*
X508298Y139140D01*
X508371Y139194D01*
X508414Y139220D01*
X508427Y139236D01*
X508448Y139252D01*
X521148Y151952D01*
X521173Y151986D01*
X521204Y152015D01*
X521231Y152067D01*
X521240Y152079D01*
X521244Y152088D01*
X521277Y152136D01*
X521287Y152177D01*
X521307Y152215D01*
X521320Y152304D01*
X521333Y152353D01*
X521330Y152374D01*
X521334Y152400D01*
X521334Y247650D01*
X521327Y247692D01*
X521329Y247734D01*
X521307Y247801D01*
X521295Y247871D01*
X521273Y247907D01*
X521260Y247948D01*
X521206Y248021D01*
X521180Y248064D01*
X521164Y248077D01*
X521148Y248098D01*
X508448Y260798D01*
X508414Y260823D01*
X508385Y260854D01*
X508322Y260886D01*
X508264Y260927D01*
X508223Y260937D01*
X508185Y260957D01*
X508096Y260970D01*
X508047Y260983D01*
X508026Y260980D01*
X508000Y260984D01*
X457463Y260984D01*
X438598Y279848D01*
X438564Y279873D01*
X438535Y279904D01*
X438472Y279936D01*
X438414Y279977D01*
X438373Y279987D01*
X438335Y280007D01*
X438246Y280020D01*
X438197Y280033D01*
X438176Y280030D01*
X438150Y280034D01*
X393700Y280034D01*
X393635Y280023D01*
X393569Y280021D01*
X393526Y280003D01*
X393479Y279995D01*
X393422Y279961D01*
X393362Y279936D01*
X393327Y279905D01*
X393286Y279880D01*
X393245Y279829D01*
X393196Y279785D01*
X393174Y279743D01*
X393145Y279706D01*
X393124Y279644D01*
X393093Y279585D01*
X393085Y279531D01*
X393073Y279494D01*
X393074Y279454D01*
X393066Y279400D01*
X393066Y152400D01*
X393073Y152358D01*
X393071Y152316D01*
X393093Y152249D01*
X393105Y152179D01*
X393127Y152143D01*
X393140Y152102D01*
X393176Y152054D01*
X393179Y152047D01*
X393192Y152032D01*
X393194Y152029D01*
X393220Y151986D01*
X393236Y151973D01*
X393252Y151952D01*
X405952Y139252D01*
X405986Y139227D01*
X406015Y139196D01*
X406078Y139164D01*
X406136Y139123D01*
X406177Y139113D01*
X406215Y139093D01*
X406304Y139080D01*
X406353Y139068D01*
X406374Y139070D01*
X406400Y139066D01*
X508000Y139066D01*
X508042Y139073D01*
G37*
%LPC*%
G36*
X1072357Y58649D02*
X1072357Y58649D01*
X1070599Y60407D01*
X1070599Y71594D01*
X1070591Y71651D01*
X1070593Y71701D01*
X1070586Y71728D01*
X1070584Y71769D01*
X1070567Y71821D01*
X1070559Y71876D01*
X1070529Y71943D01*
X1070521Y71976D01*
X1070513Y71989D01*
X1070497Y72039D01*
X1070469Y72078D01*
X1070443Y72135D01*
X1070386Y72203D01*
X1070376Y72220D01*
X1070355Y72240D01*
X1070347Y72249D01*
X1070302Y72312D01*
X1067904Y74710D01*
X1066203Y76411D01*
X1065359Y78448D01*
X1065359Y112834D01*
X1065351Y112892D01*
X1065353Y112950D01*
X1065331Y113032D01*
X1065319Y113116D01*
X1065296Y113169D01*
X1065281Y113225D01*
X1065238Y113298D01*
X1065203Y113375D01*
X1065165Y113420D01*
X1065136Y113470D01*
X1065074Y113528D01*
X1065020Y113592D01*
X1064971Y113624D01*
X1064928Y113664D01*
X1064853Y113703D01*
X1064783Y113750D01*
X1064727Y113767D01*
X1064675Y113794D01*
X1064607Y113805D01*
X1064512Y113835D01*
X1064412Y113838D01*
X1064344Y113849D01*
X1056157Y113849D01*
X1054399Y115607D01*
X1054399Y124254D01*
X1054391Y124312D01*
X1054393Y124370D01*
X1054371Y124452D01*
X1054359Y124536D01*
X1054336Y124589D01*
X1054321Y124645D01*
X1054278Y124718D01*
X1054243Y124795D01*
X1054205Y124840D01*
X1054176Y124890D01*
X1054114Y124948D01*
X1054060Y125012D01*
X1054011Y125044D01*
X1053968Y125084D01*
X1053893Y125123D01*
X1053823Y125170D01*
X1053767Y125187D01*
X1053715Y125214D01*
X1053647Y125225D01*
X1053552Y125255D01*
X1053452Y125258D01*
X1053384Y125269D01*
X1010293Y125269D01*
X1010286Y125272D01*
X1010256Y125280D01*
X1010229Y125294D01*
X1010151Y125307D01*
X1010011Y125343D01*
X1009946Y125341D01*
X1009898Y125349D01*
X997157Y125349D01*
X995399Y127107D01*
X995399Y139593D01*
X997157Y141351D01*
X1009898Y141351D01*
X1009928Y141355D01*
X1009959Y141353D01*
X1010036Y141370D01*
X1010179Y141391D01*
X1010238Y141417D01*
X1010286Y141428D01*
X1010293Y141431D01*
X1053384Y141431D01*
X1053442Y141439D01*
X1053500Y141437D01*
X1053582Y141459D01*
X1053666Y141471D01*
X1053719Y141494D01*
X1053775Y141509D01*
X1053848Y141552D01*
X1053925Y141587D01*
X1053970Y141625D01*
X1054020Y141654D01*
X1054078Y141716D01*
X1054142Y141770D01*
X1054174Y141819D01*
X1054214Y141862D01*
X1054253Y141937D01*
X1054300Y142007D01*
X1054317Y142063D01*
X1054344Y142115D01*
X1054355Y142183D01*
X1054385Y142278D01*
X1054388Y142378D01*
X1054399Y142446D01*
X1054399Y151093D01*
X1056157Y152851D01*
X1057304Y152851D01*
X1057362Y152859D01*
X1057420Y152857D01*
X1057502Y152879D01*
X1057586Y152891D01*
X1057639Y152914D01*
X1057695Y152929D01*
X1057768Y152972D01*
X1057845Y153007D01*
X1057890Y153045D01*
X1057940Y153074D01*
X1057998Y153136D01*
X1058062Y153190D01*
X1058094Y153239D01*
X1058134Y153282D01*
X1058173Y153357D01*
X1058220Y153427D01*
X1058237Y153483D01*
X1058264Y153535D01*
X1058275Y153603D01*
X1058305Y153698D01*
X1058308Y153798D01*
X1058319Y153866D01*
X1058319Y230574D01*
X1058307Y230661D01*
X1058304Y230748D01*
X1058287Y230801D01*
X1058279Y230856D01*
X1058244Y230936D01*
X1058217Y231019D01*
X1058189Y231058D01*
X1058163Y231115D01*
X1058067Y231229D01*
X1058022Y231292D01*
X1055379Y233936D01*
X1053399Y238714D01*
X1053399Y243886D01*
X1055379Y248664D01*
X1058022Y251308D01*
X1058074Y251377D01*
X1058134Y251441D01*
X1058160Y251491D01*
X1058193Y251535D01*
X1058224Y251617D01*
X1058264Y251695D01*
X1058272Y251742D01*
X1058294Y251801D01*
X1058306Y251948D01*
X1058319Y252026D01*
X1058319Y267907D01*
X1059550Y270877D01*
X1093973Y305300D01*
X1096943Y306531D01*
X1140015Y306531D01*
X1140102Y306543D01*
X1140189Y306546D01*
X1140242Y306563D01*
X1140296Y306571D01*
X1140376Y306606D01*
X1140459Y306633D01*
X1140499Y306661D01*
X1140556Y306687D01*
X1140669Y306783D01*
X1140733Y306828D01*
X1141553Y307649D01*
X1145542Y309301D01*
X1149858Y309301D01*
X1153847Y307649D01*
X1156899Y304597D01*
X1158551Y300608D01*
X1158551Y296292D01*
X1156899Y292303D01*
X1153847Y289251D01*
X1149858Y287599D01*
X1145542Y287599D01*
X1141553Y289251D01*
X1140733Y290072D01*
X1140663Y290124D01*
X1140599Y290184D01*
X1140550Y290210D01*
X1140506Y290243D01*
X1140424Y290274D01*
X1140346Y290314D01*
X1140298Y290322D01*
X1140240Y290344D01*
X1140092Y290356D01*
X1140015Y290369D01*
X1102318Y290369D01*
X1102231Y290357D01*
X1102144Y290354D01*
X1102091Y290337D01*
X1102036Y290329D01*
X1101956Y290294D01*
X1101873Y290267D01*
X1101834Y290239D01*
X1101777Y290213D01*
X1101663Y290117D01*
X1101600Y290072D01*
X1074778Y263250D01*
X1074726Y263180D01*
X1074666Y263117D01*
X1074640Y263067D01*
X1074607Y263023D01*
X1074576Y262941D01*
X1074536Y262863D01*
X1074528Y262816D01*
X1074506Y262757D01*
X1074494Y262610D01*
X1074481Y262532D01*
X1074481Y252026D01*
X1074493Y251939D01*
X1074496Y251852D01*
X1074513Y251799D01*
X1074521Y251744D01*
X1074556Y251664D01*
X1074583Y251581D01*
X1074611Y251542D01*
X1074637Y251485D01*
X1074733Y251371D01*
X1074778Y251308D01*
X1077421Y248664D01*
X1079401Y243886D01*
X1079401Y238714D01*
X1077421Y233936D01*
X1074778Y231292D01*
X1074726Y231223D01*
X1074666Y231159D01*
X1074640Y231109D01*
X1074607Y231065D01*
X1074576Y230983D01*
X1074536Y230905D01*
X1074528Y230858D01*
X1074506Y230799D01*
X1074494Y230652D01*
X1074481Y230574D01*
X1074481Y153866D01*
X1074489Y153808D01*
X1074487Y153750D01*
X1074509Y153668D01*
X1074521Y153584D01*
X1074544Y153531D01*
X1074559Y153475D01*
X1074602Y153402D01*
X1074637Y153325D01*
X1074675Y153280D01*
X1074704Y153230D01*
X1074766Y153172D01*
X1074820Y153108D01*
X1074869Y153076D01*
X1074912Y153036D01*
X1074987Y152997D01*
X1075057Y152950D01*
X1075113Y152933D01*
X1075165Y152906D01*
X1075233Y152895D01*
X1075328Y152865D01*
X1075428Y152862D01*
X1075496Y152851D01*
X1085643Y152851D01*
X1087401Y151093D01*
X1087401Y115607D01*
X1085643Y113849D01*
X1077456Y113849D01*
X1077398Y113841D01*
X1077340Y113843D01*
X1077258Y113821D01*
X1077174Y113809D01*
X1077121Y113786D01*
X1077065Y113771D01*
X1076992Y113728D01*
X1076915Y113693D01*
X1076870Y113655D01*
X1076820Y113626D01*
X1076762Y113564D01*
X1076698Y113510D01*
X1076666Y113461D01*
X1076626Y113418D01*
X1076587Y113343D01*
X1076540Y113273D01*
X1076523Y113217D01*
X1076496Y113165D01*
X1076485Y113097D01*
X1076455Y113002D01*
X1076452Y112902D01*
X1076441Y112834D01*
X1076441Y82266D01*
X1076453Y82179D01*
X1076456Y82092D01*
X1076473Y82039D01*
X1076481Y81984D01*
X1076516Y81904D01*
X1076543Y81821D01*
X1076571Y81782D01*
X1076597Y81725D01*
X1076693Y81612D01*
X1076738Y81548D01*
X1076938Y81348D01*
X1077008Y81296D01*
X1077071Y81236D01*
X1077121Y81210D01*
X1077165Y81177D01*
X1077247Y81146D01*
X1077324Y81106D01*
X1077372Y81098D01*
X1077430Y81076D01*
X1077578Y81064D01*
X1077656Y81051D01*
X1088843Y81051D01*
X1090601Y79293D01*
X1090601Y60407D01*
X1088843Y58649D01*
X1072357Y58649D01*
G37*
%LPD*%
G36*
X680846Y120411D02*
X680846Y120411D01*
X680972Y120418D01*
X681018Y120431D01*
X681066Y120437D01*
X681185Y120479D01*
X681307Y120514D01*
X681349Y120538D01*
X681394Y120554D01*
X681501Y120623D01*
X681611Y120684D01*
X681657Y120724D01*
X681687Y120743D01*
X681721Y120778D01*
X681797Y120843D01*
X719897Y158943D01*
X719962Y159025D01*
X720011Y159075D01*
X720020Y159092D01*
X720060Y159136D01*
X720084Y159178D01*
X720114Y159216D01*
X720168Y159330D01*
X720229Y159441D01*
X720242Y159487D01*
X720263Y159531D01*
X720289Y159654D01*
X720324Y159776D01*
X720329Y159837D01*
X720336Y159872D01*
X720335Y159920D01*
X720343Y160020D01*
X720343Y185420D01*
X720340Y185446D01*
X720342Y185472D01*
X720320Y185619D01*
X720303Y185766D01*
X720295Y185791D01*
X720291Y185817D01*
X720236Y185955D01*
X720186Y186094D01*
X720172Y186116D01*
X720162Y186141D01*
X720077Y186262D01*
X719997Y186387D01*
X719978Y186405D01*
X719963Y186427D01*
X719853Y186526D01*
X719746Y186629D01*
X719724Y186643D01*
X719704Y186660D01*
X719574Y186732D01*
X719447Y186808D01*
X719422Y186816D01*
X719399Y186829D01*
X719256Y186869D01*
X719115Y186914D01*
X719089Y186916D01*
X719064Y186924D01*
X718820Y186943D01*
X712468Y186943D01*
X712342Y186929D01*
X712216Y186922D01*
X712170Y186909D01*
X712122Y186903D01*
X712003Y186861D01*
X711881Y186826D01*
X711839Y186802D01*
X711794Y186786D01*
X711687Y186717D01*
X711655Y186699D01*
X698055Y186699D01*
X698036Y186714D01*
X697922Y186768D01*
X697811Y186829D01*
X697765Y186842D01*
X697721Y186863D01*
X697598Y186889D01*
X697476Y186924D01*
X697415Y186929D01*
X697381Y186936D01*
X697332Y186935D01*
X697232Y186943D01*
X655320Y186943D01*
X655194Y186929D01*
X655068Y186922D01*
X655022Y186909D01*
X654974Y186903D01*
X654855Y186861D01*
X654733Y186826D01*
X654691Y186802D01*
X654646Y186786D01*
X654539Y186717D01*
X654429Y186656D01*
X654383Y186616D01*
X654353Y186597D01*
X654319Y186562D01*
X654243Y186497D01*
X629289Y161543D01*
X610870Y161543D01*
X610744Y161529D01*
X610618Y161522D01*
X610572Y161509D01*
X610524Y161503D01*
X610405Y161461D01*
X610283Y161426D01*
X610241Y161402D01*
X610196Y161386D01*
X610089Y161317D01*
X609979Y161256D01*
X609933Y161216D01*
X609903Y161197D01*
X609886Y161179D01*
X609884Y161178D01*
X609866Y161159D01*
X609793Y161097D01*
X597093Y148397D01*
X597014Y148298D01*
X596930Y148204D01*
X596906Y148162D01*
X596876Y148124D01*
X596822Y148010D01*
X596761Y147899D01*
X596748Y147853D01*
X596727Y147809D01*
X596701Y147686D01*
X596666Y147564D01*
X596662Y147503D01*
X596654Y147468D01*
X596655Y147420D01*
X596647Y147320D01*
X596647Y128270D01*
X596661Y128144D01*
X596668Y128018D01*
X596681Y127972D01*
X596687Y127924D01*
X596729Y127805D01*
X596764Y127683D01*
X596788Y127641D01*
X596804Y127596D01*
X596873Y127489D01*
X596934Y127379D01*
X596974Y127333D01*
X596993Y127303D01*
X597028Y127269D01*
X597093Y127193D01*
X603443Y120843D01*
X603542Y120764D01*
X603636Y120680D01*
X603678Y120656D01*
X603716Y120626D01*
X603830Y120572D01*
X603941Y120511D01*
X603987Y120498D01*
X604031Y120477D01*
X604154Y120451D01*
X604276Y120416D01*
X604337Y120412D01*
X604372Y120404D01*
X604420Y120405D01*
X604520Y120397D01*
X680720Y120397D01*
X680846Y120411D01*
G37*
G36*
X971314Y48725D02*
X971314Y48725D01*
X971343Y48722D01*
X971454Y48745D01*
X971566Y48761D01*
X971593Y48773D01*
X971622Y48778D01*
X971722Y48831D01*
X971825Y48877D01*
X971848Y48896D01*
X971874Y48909D01*
X971956Y48987D01*
X972042Y49060D01*
X972059Y49085D01*
X972080Y49105D01*
X972137Y49203D01*
X972200Y49297D01*
X972209Y49325D01*
X972224Y49350D01*
X972252Y49460D01*
X972286Y49568D01*
X972287Y49598D01*
X972294Y49626D01*
X972290Y49739D01*
X972293Y49852D01*
X972286Y49881D01*
X972285Y49910D01*
X972250Y50018D01*
X972221Y50127D01*
X972206Y50153D01*
X972197Y50181D01*
X972152Y50245D01*
X972076Y50372D01*
X972030Y50415D01*
X972002Y50454D01*
X971549Y50907D01*
X971549Y63393D01*
X971672Y63516D01*
X971724Y63585D01*
X971784Y63649D01*
X971810Y63699D01*
X971843Y63743D01*
X971874Y63824D01*
X971914Y63902D01*
X971922Y63950D01*
X971944Y64008D01*
X971956Y64156D01*
X971969Y64233D01*
X971969Y75467D01*
X971957Y75553D01*
X971954Y75641D01*
X971937Y75693D01*
X971929Y75748D01*
X971894Y75828D01*
X971867Y75911D01*
X971839Y75950D01*
X971813Y76007D01*
X971717Y76121D01*
X971672Y76184D01*
X971549Y76307D01*
X971549Y88793D01*
X971672Y88916D01*
X971724Y88985D01*
X971784Y89049D01*
X971810Y89099D01*
X971843Y89143D01*
X971874Y89224D01*
X971914Y89302D01*
X971922Y89350D01*
X971944Y89408D01*
X971956Y89556D01*
X971969Y89633D01*
X971969Y107217D01*
X971957Y107303D01*
X971954Y107391D01*
X971937Y107443D01*
X971929Y107498D01*
X971894Y107578D01*
X971867Y107661D01*
X971839Y107700D01*
X971813Y107757D01*
X971717Y107871D01*
X971672Y107934D01*
X971549Y108057D01*
X971549Y120543D01*
X971672Y120666D01*
X971724Y120735D01*
X971784Y120799D01*
X971810Y120849D01*
X971843Y120893D01*
X971874Y120974D01*
X971914Y121052D01*
X971922Y121100D01*
X971944Y121158D01*
X971956Y121306D01*
X971969Y121383D01*
X971969Y158544D01*
X971961Y158602D01*
X971963Y158660D01*
X971941Y158742D01*
X971929Y158826D01*
X971906Y158879D01*
X971891Y158935D01*
X971848Y159008D01*
X971813Y159085D01*
X971775Y159130D01*
X971746Y159180D01*
X971684Y159238D01*
X971630Y159302D01*
X971581Y159334D01*
X971538Y159374D01*
X971463Y159413D01*
X971393Y159460D01*
X971337Y159477D01*
X971285Y159504D01*
X971217Y159515D01*
X971122Y159545D01*
X971022Y159548D01*
X970954Y159559D01*
X944616Y159559D01*
X944558Y159551D01*
X944500Y159553D01*
X944418Y159531D01*
X944334Y159519D01*
X944281Y159496D01*
X944225Y159481D01*
X944152Y159438D01*
X944075Y159403D01*
X944030Y159365D01*
X943980Y159336D01*
X943922Y159274D01*
X943858Y159220D01*
X943826Y159171D01*
X943786Y159128D01*
X943747Y159053D01*
X943700Y158983D01*
X943683Y158927D01*
X943656Y158875D01*
X943645Y158807D01*
X943615Y158712D01*
X943612Y158612D01*
X943601Y158544D01*
X943601Y158357D01*
X941843Y156599D01*
X935101Y156599D01*
X935043Y156591D01*
X934985Y156593D01*
X934903Y156571D01*
X934819Y156559D01*
X934766Y156536D01*
X934710Y156521D01*
X934637Y156478D01*
X934560Y156443D01*
X934515Y156405D01*
X934465Y156376D01*
X934407Y156314D01*
X934343Y156260D01*
X934311Y156211D01*
X934271Y156168D01*
X934232Y156093D01*
X934185Y156023D01*
X934168Y155967D01*
X934141Y155915D01*
X934130Y155847D01*
X934100Y155752D01*
X934097Y155652D01*
X934086Y155584D01*
X934086Y148716D01*
X934093Y148662D01*
X934092Y148627D01*
X934093Y148625D01*
X934092Y148600D01*
X934114Y148518D01*
X934126Y148434D01*
X934149Y148381D01*
X934164Y148325D01*
X934207Y148252D01*
X934242Y148175D01*
X934280Y148130D01*
X934309Y148080D01*
X934371Y148022D01*
X934425Y147958D01*
X934474Y147926D01*
X934517Y147886D01*
X934592Y147847D01*
X934662Y147800D01*
X934718Y147783D01*
X934770Y147756D01*
X934838Y147745D01*
X934933Y147715D01*
X935033Y147712D01*
X935101Y147701D01*
X942343Y147701D01*
X944101Y145943D01*
X944101Y133457D01*
X942343Y131699D01*
X942156Y131699D01*
X942098Y131691D01*
X942040Y131693D01*
X941958Y131671D01*
X941874Y131659D01*
X941821Y131636D01*
X941765Y131621D01*
X941692Y131578D01*
X941615Y131543D01*
X941570Y131505D01*
X941520Y131476D01*
X941462Y131414D01*
X941398Y131360D01*
X941366Y131311D01*
X941326Y131268D01*
X941287Y131193D01*
X941240Y131123D01*
X941223Y131067D01*
X941196Y131015D01*
X941185Y130947D01*
X941155Y130852D01*
X941152Y130752D01*
X941141Y130684D01*
X941141Y128048D01*
X940297Y126011D01*
X936148Y121862D01*
X936096Y121792D01*
X936036Y121729D01*
X936010Y121679D01*
X935977Y121635D01*
X935946Y121553D01*
X935906Y121476D01*
X935898Y121428D01*
X935876Y121369D01*
X935864Y121222D01*
X935851Y121144D01*
X935851Y103251D01*
X935859Y103193D01*
X935857Y103135D01*
X935879Y103053D01*
X935891Y102969D01*
X935914Y102916D01*
X935929Y102860D01*
X935972Y102787D01*
X936007Y102710D01*
X936045Y102665D01*
X936074Y102615D01*
X936136Y102557D01*
X936190Y102493D01*
X936239Y102461D01*
X936282Y102421D01*
X936357Y102382D01*
X936427Y102335D01*
X936483Y102318D01*
X936535Y102291D01*
X936603Y102280D01*
X936698Y102250D01*
X936798Y102247D01*
X936866Y102236D01*
X940063Y102236D01*
X940436Y101863D01*
X940436Y69587D01*
X935492Y64643D01*
X935491Y64642D01*
X935490Y64641D01*
X935404Y64525D01*
X935321Y64416D01*
X935320Y64414D01*
X935319Y64413D01*
X935269Y64279D01*
X935220Y64150D01*
X935220Y64148D01*
X935219Y64147D01*
X935207Y64002D01*
X935196Y63867D01*
X935196Y63865D01*
X935196Y63864D01*
X935200Y63848D01*
X935252Y63588D01*
X935266Y63561D01*
X935272Y63536D01*
X935851Y62139D01*
X935851Y58978D01*
X935863Y58891D01*
X935866Y58804D01*
X935883Y58751D01*
X935891Y58696D01*
X935926Y58616D01*
X935953Y58533D01*
X935981Y58494D01*
X936007Y58437D01*
X936103Y58323D01*
X936148Y58260D01*
X945390Y49018D01*
X945460Y48966D01*
X945523Y48906D01*
X945573Y48880D01*
X945617Y48847D01*
X945699Y48816D01*
X945777Y48776D01*
X945824Y48768D01*
X945883Y48746D01*
X946030Y48734D01*
X946108Y48721D01*
X971285Y48721D01*
X971314Y48725D01*
G37*
G36*
X789982Y264803D02*
X789982Y264803D01*
X790024Y264801D01*
X790091Y264823D01*
X790161Y264835D01*
X790197Y264857D01*
X790238Y264870D01*
X790311Y264924D01*
X790354Y264950D01*
X790367Y264966D01*
X790388Y264982D01*
X818328Y292922D01*
X818353Y292956D01*
X818384Y292985D01*
X818416Y293048D01*
X818457Y293106D01*
X818467Y293147D01*
X818487Y293185D01*
X818500Y293274D01*
X818513Y293323D01*
X818510Y293344D01*
X818514Y293370D01*
X818514Y311150D01*
X818507Y311192D01*
X818509Y311234D01*
X818487Y311301D01*
X818475Y311371D01*
X818453Y311407D01*
X818440Y311448D01*
X818386Y311521D01*
X818360Y311564D01*
X818344Y311577D01*
X818328Y311598D01*
X815788Y314138D01*
X815754Y314163D01*
X815725Y314194D01*
X815662Y314226D01*
X815604Y314267D01*
X815563Y314277D01*
X815525Y314297D01*
X815436Y314310D01*
X815387Y314323D01*
X815366Y314320D01*
X815340Y314324D01*
X744220Y314324D01*
X744155Y314313D01*
X744089Y314311D01*
X744046Y314293D01*
X743999Y314285D01*
X743942Y314251D01*
X743882Y314226D01*
X743847Y314195D01*
X743806Y314170D01*
X743765Y314119D01*
X743716Y314075D01*
X743694Y314033D01*
X743665Y313996D01*
X743644Y313934D01*
X743613Y313875D01*
X743605Y313821D01*
X743593Y313784D01*
X743594Y313744D01*
X743586Y313690D01*
X743586Y284480D01*
X743593Y284438D01*
X743591Y284396D01*
X743613Y284329D01*
X743625Y284259D01*
X743647Y284223D01*
X743660Y284182D01*
X743705Y284121D01*
X743706Y284119D01*
X743709Y284115D01*
X743714Y284109D01*
X743740Y284066D01*
X743756Y284053D01*
X743772Y284032D01*
X752662Y275142D01*
X752696Y275117D01*
X752725Y275086D01*
X752788Y275054D01*
X752846Y275013D01*
X752887Y275003D01*
X752925Y274983D01*
X753014Y274970D01*
X753063Y274958D01*
X753084Y274960D01*
X753110Y274956D01*
X774437Y274956D01*
X784412Y264982D01*
X784446Y264957D01*
X784475Y264926D01*
X784538Y264894D01*
X784596Y264853D01*
X784637Y264843D01*
X784675Y264823D01*
X784764Y264810D01*
X784813Y264798D01*
X784834Y264800D01*
X784860Y264796D01*
X789940Y264796D01*
X789982Y264803D01*
G37*
%LPC*%
G36*
X1134864Y240389D02*
X1134864Y240389D01*
X1129255Y242713D01*
X1124963Y247005D01*
X1122639Y252614D01*
X1122639Y258686D01*
X1124963Y264295D01*
X1129255Y268587D01*
X1134864Y270911D01*
X1140936Y270911D01*
X1146545Y268587D01*
X1150837Y264295D01*
X1153161Y258686D01*
X1153161Y252614D01*
X1150837Y247005D01*
X1146545Y242713D01*
X1140936Y240389D01*
X1134864Y240389D01*
G37*
%LPD*%
%LPC*%
G36*
X1215659Y268849D02*
X1215659Y268849D01*
X1212718Y270067D01*
X1210467Y272318D01*
X1209249Y275259D01*
X1209249Y278441D01*
X1210467Y281382D01*
X1212718Y283633D01*
X1215659Y284851D01*
X1218841Y284851D01*
X1221782Y283633D01*
X1224033Y281382D01*
X1225251Y278441D01*
X1225251Y275259D01*
X1224033Y272318D01*
X1221782Y270067D01*
X1218841Y268849D01*
X1215659Y268849D01*
G37*
%LPD*%
%LPC*%
G36*
X106359Y36449D02*
X106359Y36449D01*
X103418Y37667D01*
X101167Y39918D01*
X99949Y42859D01*
X99949Y46041D01*
X101167Y48982D01*
X103418Y51233D01*
X106359Y52451D01*
X109541Y52451D01*
X112482Y51233D01*
X114733Y48982D01*
X115951Y46041D01*
X115951Y42859D01*
X114733Y39918D01*
X112482Y37667D01*
X109541Y36449D01*
X106359Y36449D01*
G37*
%LPD*%
D10*
X355600Y906250D03*
D11*
X355600Y681250D03*
D12*
X723500Y825500D03*
D13*
X673500Y825500D03*
D12*
X717150Y590550D03*
D13*
X667150Y590550D03*
D14*
X406400Y89300D03*
X406400Y139300D03*
X520700Y89300D03*
X520700Y139300D03*
X635000Y89300D03*
X635000Y139300D03*
D15*
X791600Y196850D03*
X808600Y196850D03*
X791600Y177800D03*
X808600Y177800D03*
D16*
X749300Y245500D03*
X749300Y262500D03*
D15*
X918600Y139700D03*
X935600Y139700D03*
X963050Y82550D03*
X980050Y82550D03*
X963050Y114300D03*
X980050Y114300D03*
X963050Y57150D03*
X980050Y57150D03*
X1018150Y57150D03*
X1001150Y57150D03*
X1001150Y82550D03*
X1018150Y82550D03*
D14*
X1016400Y241300D03*
X1066400Y241300D03*
X889000Y305200D03*
X889000Y355200D03*
D16*
X863600Y150250D03*
X863600Y167250D03*
D17*
X604275Y829375D02*
X591025Y829375D01*
X604275Y829375D02*
X604275Y821625D01*
X591025Y821625D01*
X591025Y829375D01*
X591025Y828987D02*
X604275Y828987D01*
X604275Y854775D02*
X591025Y854775D01*
X604275Y854775D02*
X604275Y847025D01*
X591025Y847025D01*
X591025Y854775D01*
X591025Y854387D02*
X604275Y854387D01*
X539275Y854775D02*
X526025Y854775D01*
X539275Y854775D02*
X539275Y847025D01*
X526025Y847025D01*
X526025Y854775D01*
X526025Y854387D02*
X539275Y854387D01*
X539275Y829375D02*
X526025Y829375D01*
X539275Y829375D02*
X539275Y821625D01*
X526025Y821625D01*
X526025Y829375D01*
X526025Y828987D02*
X539275Y828987D01*
D18*
X1040300Y69850D03*
X1080600Y69850D03*
D19*
X1217250Y276850D03*
D20*
X1070900Y133350D03*
D21*
X1011900Y110350D03*
X1011900Y133350D03*
X1011900Y156350D03*
D22*
X779400Y250800D02*
X776400Y250800D01*
X776400Y258800D01*
X779400Y258800D01*
X779400Y250800D01*
X779400Y253650D02*
X776400Y253650D01*
X776400Y256500D02*
X779400Y256500D01*
X795400Y250800D02*
X798400Y250800D01*
X795400Y250800D02*
X795400Y258800D01*
X798400Y258800D01*
X798400Y250800D01*
X798400Y253650D02*
X795400Y253650D01*
X795400Y256500D02*
X798400Y256500D01*
X798400Y223800D02*
X795400Y223800D01*
X795400Y231800D01*
X798400Y231800D01*
X798400Y223800D01*
X798400Y226650D02*
X795400Y226650D01*
X795400Y229500D02*
X798400Y229500D01*
X788900Y223800D02*
X785900Y223800D01*
X785900Y231800D01*
X788900Y231800D01*
X788900Y223800D01*
X788900Y226650D02*
X785900Y226650D01*
X785900Y229500D02*
X788900Y229500D01*
X779400Y223800D02*
X776400Y223800D01*
X776400Y231800D01*
X779400Y231800D01*
X779400Y223800D01*
X779400Y226650D02*
X776400Y226650D01*
X776400Y229500D02*
X779400Y229500D01*
X785900Y250800D02*
X788900Y250800D01*
X785900Y250800D02*
X785900Y258800D01*
X788900Y258800D01*
X788900Y250800D01*
X788900Y253650D02*
X785900Y253650D01*
X785900Y256500D02*
X788900Y256500D01*
X897000Y149250D02*
X900000Y149250D01*
X900000Y141250D01*
X897000Y141250D01*
X897000Y149250D01*
X897000Y144100D02*
X900000Y144100D01*
X900000Y146950D02*
X897000Y146950D01*
X881000Y149250D02*
X878000Y149250D01*
X881000Y149250D02*
X881000Y141250D01*
X878000Y141250D01*
X878000Y149250D01*
X878000Y144100D02*
X881000Y144100D01*
X881000Y146950D02*
X878000Y146950D01*
X878000Y176250D02*
X881000Y176250D01*
X881000Y168250D01*
X878000Y168250D01*
X878000Y176250D01*
X878000Y171100D02*
X881000Y171100D01*
X881000Y173950D02*
X878000Y173950D01*
X887500Y176250D02*
X890500Y176250D01*
X890500Y168250D01*
X887500Y168250D01*
X887500Y176250D01*
X887500Y171100D02*
X890500Y171100D01*
X890500Y173950D02*
X887500Y173950D01*
X897000Y176250D02*
X900000Y176250D01*
X900000Y168250D01*
X897000Y168250D01*
X897000Y176250D01*
X897000Y171100D02*
X900000Y171100D01*
X900000Y173950D02*
X897000Y173950D01*
X890500Y149250D02*
X887500Y149250D01*
X890500Y149250D02*
X890500Y141250D01*
X887500Y141250D01*
X887500Y149250D01*
X887500Y144100D02*
X890500Y144100D01*
X890500Y146950D02*
X887500Y146950D01*
D23*
X648450Y736200D03*
X648200Y686200D03*
X750050Y736200D03*
X749800Y686200D03*
D24*
X50800Y50800D03*
X50000Y950000D03*
X1149350Y952500D03*
X1149350Y50800D03*
D10*
X317200Y965200D03*
D11*
X508300Y965200D03*
D25*
X450850Y884170D03*
X450850Y855730D03*
X450850Y795270D03*
X450850Y766830D03*
D15*
X730250Y211700D03*
X730250Y194700D03*
X704850Y194700D03*
X704850Y211700D03*
D16*
X897500Y209550D03*
X880500Y209550D03*
X935600Y209550D03*
X918600Y209550D03*
X935600Y165100D03*
X918600Y165100D03*
X918600Y184150D03*
X935600Y184150D03*
D15*
X723900Y262500D03*
X723900Y245500D03*
X698500Y262500D03*
X698500Y245500D03*
D26*
X225400Y296600D02*
X225400Y321600D01*
X255400Y321600D02*
X255400Y296600D01*
X285400Y296600D02*
X285400Y321600D01*
X370400Y321600D02*
X370400Y296600D01*
X315400Y296600D02*
X315400Y321600D01*
X400400Y321600D02*
X400400Y296600D01*
X460400Y296600D02*
X460400Y321600D01*
X267400Y516600D02*
X267400Y541600D01*
X297400Y541600D02*
X297400Y516600D01*
X327400Y516600D02*
X327400Y541600D01*
X237400Y541600D02*
X237400Y516600D01*
D27*
X387400Y529100D03*
D26*
X430400Y321600D02*
X430400Y296600D01*
D27*
X447400Y529100D03*
D28*
X203200Y819150D03*
X152400Y819150D03*
X203200Y711200D03*
X152400Y711200D03*
D29*
X1177700Y328450D03*
D30*
X1177700Y298450D03*
X1177700Y268450D03*
X1147700Y328450D03*
X1147700Y298450D03*
X1147700Y268450D03*
D31*
X265050Y768750D03*
D32*
X281050Y818750D03*
D33*
X514950Y198600D02*
X529950Y198600D01*
X514950Y198600D02*
X514950Y258600D01*
X529950Y258600D01*
X529950Y198600D01*
X529950Y212850D02*
X514950Y212850D01*
X514950Y227100D02*
X529950Y227100D01*
X529950Y241350D02*
X514950Y241350D01*
X514950Y255600D02*
X529950Y255600D01*
X574950Y198600D02*
X589950Y198600D01*
X574950Y198600D02*
X574950Y258600D01*
X589950Y258600D01*
X589950Y198600D01*
X589950Y212850D02*
X574950Y212850D01*
X574950Y227100D02*
X589950Y227100D01*
X589950Y241350D02*
X574950Y241350D01*
X574950Y255600D02*
X589950Y255600D01*
X811050Y286350D02*
X811050Y301350D01*
X811050Y286350D02*
X751050Y286350D01*
X751050Y301350D01*
X811050Y301350D01*
X811050Y300600D02*
X751050Y300600D01*
X811050Y346350D02*
X811050Y361350D01*
X811050Y346350D02*
X751050Y346350D01*
X751050Y361350D01*
X811050Y361350D01*
X811050Y360600D02*
X751050Y360600D01*
X865350Y120050D02*
X865350Y105050D01*
X865350Y120050D02*
X925350Y120050D01*
X925350Y105050D01*
X865350Y105050D01*
X865350Y119300D02*
X925350Y119300D01*
X865350Y60050D02*
X865350Y45050D01*
X865350Y60050D02*
X925350Y60050D01*
X925350Y45050D01*
X865350Y45050D01*
X865350Y59300D02*
X925350Y59300D01*
D34*
X133350Y482600D03*
D35*
X133350Y357600D03*
D34*
X552450Y482600D03*
D35*
X552450Y357600D03*
D36*
X69850Y557800D03*
X69850Y432800D03*
X69850Y367300D03*
X69850Y242300D03*
D19*
X107950Y44450D03*
D37*
X152400Y711200D02*
X203200Y711200D01*
X207500Y711200D01*
X265050Y768750D01*
X335700Y768750D01*
X355600Y748850D02*
X355600Y681250D01*
X355600Y748850D02*
X335700Y768750D01*
X355600Y681250D02*
X450850Y681250D01*
X450850Y766830D01*
X532650Y825500D02*
X532650Y704550D01*
X508100Y680000D01*
X356850Y680000D01*
X355600Y681250D01*
D38*
X152400Y711200D02*
X69850Y628650D01*
X69850Y557800D01*
D37*
X152400Y819150D02*
X203200Y819150D01*
X280650Y819150D01*
X281050Y818750D01*
X331850Y818750D02*
X355600Y842500D01*
X331850Y818750D02*
X281050Y818750D01*
X355600Y842500D02*
X355600Y906250D01*
X355600Y926800D01*
X317200Y965200D01*
X355600Y906250D02*
X428770Y906250D01*
X450850Y884170D01*
X406400Y89300D02*
X520700Y89300D01*
X406400Y89300D02*
X370400Y125300D01*
X370400Y309100D01*
X315400Y309100D01*
X285400Y309100D01*
D39*
X255400Y309100D02*
X255400Y172590D01*
X375920Y52070D01*
X597770Y52070D01*
X635000Y89300D01*
X796900Y254800D02*
X838600Y254800D01*
X889000Y305200D01*
X874500Y150250D02*
X879500Y145250D01*
X874500Y150250D02*
X863600Y150250D01*
D38*
X963050Y114300D02*
X963050Y57150D01*
D39*
X935600Y184150D02*
X935600Y209550D01*
D37*
X267400Y357600D02*
X133350Y357600D01*
X285400Y339600D02*
X285400Y309100D01*
X285400Y339600D02*
X267400Y357600D01*
D38*
X552450Y357600D02*
X552450Y349250D01*
X603250Y298450D01*
D11*
X25400Y228600D03*
X25400Y177800D03*
X25400Y127000D03*
X25400Y76200D03*
X76200Y25400D03*
X127000Y25400D03*
X177800Y25400D03*
X228600Y25400D03*
X279400Y25400D03*
X330200Y25400D03*
X381000Y25400D03*
X431800Y25400D03*
X482600Y25400D03*
X533400Y25400D03*
X584200Y25400D03*
X635000Y25400D03*
X685800Y25400D03*
X736600Y25400D03*
X787400Y25400D03*
X838200Y25400D03*
X889000Y25400D03*
X990600Y25400D03*
X1041400Y25400D03*
X1092200Y25400D03*
X1193800Y25400D03*
X1219200Y50800D03*
X1219200Y101600D03*
X1219200Y152400D03*
X1219200Y203200D03*
X1219200Y254000D03*
X1219200Y298450D03*
X1143000Y381000D03*
X1092200Y381000D03*
X1041400Y381000D03*
X990600Y381000D03*
X939800Y381000D03*
X889000Y381000D03*
X838200Y381000D03*
X787400Y381000D03*
X736600Y381000D03*
X711200Y355600D03*
X685800Y330200D03*
X660400Y304800D03*
X685800Y279400D03*
X660400Y254000D03*
X685800Y228600D03*
X660400Y203200D03*
X838200Y279400D03*
X914400Y330200D03*
X863600Y330200D03*
X990600Y330200D03*
X965200Y304800D03*
X939800Y279400D03*
X965200Y254000D03*
X939800Y228600D03*
X914400Y254000D03*
X1041400Y304800D03*
X1016000Y279400D03*
X1041400Y254000D03*
X1016000Y203200D03*
X1041400Y177800D03*
X1117600Y177800D03*
X1117600Y228600D03*
X1117600Y127000D03*
X838200Y76200D03*
X838200Y127000D03*
X838200Y177800D03*
X838200Y228600D03*
X812800Y152400D03*
X762000Y127000D03*
X812800Y101600D03*
X711200Y127000D03*
X736600Y101600D03*
X685800Y101600D03*
X660400Y76200D03*
X711200Y76200D03*
X685800Y50800D03*
X558800Y152400D03*
X558800Y101600D03*
X558800Y50800D03*
X584200Y76200D03*
X584200Y127000D03*
X457200Y76200D03*
X381000Y76200D03*
X381000Y127000D03*
X381000Y177800D03*
X381000Y228600D03*
X355600Y254000D03*
X304800Y254000D03*
X254000Y254000D03*
X203200Y254000D03*
X152400Y254000D03*
X101600Y254000D03*
X25400Y254000D03*
X958850Y146050D03*
X952500Y127000D03*
X946150Y101600D03*
X946150Y63500D03*
X958850Y196850D03*
X1003300Y184150D03*
X615950Y304800D03*
X615950Y254000D03*
X615950Y203200D03*
D37*
X582450Y228600D02*
X582450Y169390D01*
X612540Y139300D02*
X635000Y139300D01*
X612540Y139300D02*
X582450Y169390D01*
D39*
X635000Y139300D02*
X675650Y179950D01*
D38*
X635000Y139300D02*
X635000Y330200D01*
X704850Y400050D01*
X1162450Y400050D01*
X1204900Y357600D01*
X1204900Y309300D01*
X1194050Y298450D02*
X1177700Y298450D01*
X1194050Y298450D02*
X1204900Y309300D01*
D39*
X582450Y274800D02*
X582450Y228600D01*
X548150Y309100D02*
X460400Y309100D01*
X548150Y309100D02*
X582450Y274800D01*
X796900Y227800D02*
X796900Y202150D01*
X791600Y196850D01*
X791600Y177800D01*
X778900Y165100D01*
X660800Y165100D02*
X635000Y139300D01*
X660800Y165100D02*
X778900Y165100D01*
X730250Y194700D02*
X713350Y177800D01*
X673500Y177800D02*
X635000Y139300D01*
X673500Y177800D02*
X713350Y177800D01*
X935600Y165100D02*
X980050Y165100D01*
D38*
X980050Y82550D02*
X980050Y57150D01*
X980050Y82550D02*
X980050Y114300D01*
X980050Y137550D01*
X980050Y165100D01*
X980050Y137550D02*
X982590Y135010D01*
X930430Y52550D02*
X895350Y52550D01*
X930430Y52550D02*
X942340Y40640D01*
X979170Y40640D01*
X982980Y44450D01*
X982980Y59300D01*
X982590Y135010D02*
X982590Y296790D01*
D39*
X980050Y57150D02*
X1001150Y57150D01*
X1001150Y82550D01*
X980050Y82550D01*
X1001150Y82550D02*
X1001150Y99600D01*
X1011900Y110350D01*
X1040300Y103970D02*
X1040300Y69850D01*
X1033920Y110350D02*
X1011900Y110350D01*
X1033920Y110350D02*
X1040300Y103970D01*
D38*
X982590Y296790D02*
X1014250Y328450D01*
X1147700Y328450D01*
D40*
X982200Y59300D02*
X980050Y57150D01*
X982200Y59300D02*
X982980Y59300D01*
D39*
X1070900Y79550D02*
X1080600Y69850D01*
X1070900Y79550D02*
X1070900Y133350D01*
D38*
X1066400Y241300D02*
X1066400Y266300D01*
X1098550Y298450D01*
X1147700Y298450D01*
X1066400Y137850D02*
X1070900Y133350D01*
X1066400Y137850D02*
X1066400Y241300D01*
X1070900Y133350D02*
X1011900Y133350D01*
D37*
X450850Y795270D02*
X450850Y855730D01*
X532650Y940850D02*
X508300Y965200D01*
X532650Y940850D02*
X532650Y850900D01*
X597650Y825500D02*
X673500Y825500D01*
X673500Y761250D02*
X648450Y736200D01*
X673500Y761250D02*
X673500Y825500D01*
X709100Y850900D02*
X597650Y850900D01*
X723500Y836500D02*
X723500Y825500D01*
X723500Y836500D02*
X709100Y850900D01*
X723500Y812800D02*
X750050Y786250D01*
X723500Y812800D02*
X723500Y825500D01*
X750050Y786250D02*
X750050Y736200D01*
X648200Y609500D02*
X667150Y590550D01*
X648200Y609500D02*
X648200Y686200D01*
X667150Y590550D02*
X667150Y554150D01*
X595600Y482600D02*
X552450Y482600D01*
X595600Y482600D02*
X667150Y554150D01*
X552450Y482600D02*
X493900Y482600D01*
X447400Y529100D01*
X749800Y606800D02*
X749800Y686200D01*
X749800Y606800D02*
X733000Y590000D01*
X717700Y590000D01*
X717150Y590550D01*
X430400Y309100D02*
X400400Y309100D01*
X400400Y145300D01*
X406400Y139300D01*
X520700Y139300D01*
X520700Y226850D02*
X522450Y228600D01*
X520700Y226850D02*
X520700Y139300D01*
D38*
X430400Y274450D02*
X430400Y309100D01*
X430400Y274450D02*
X438150Y266700D01*
D39*
X704850Y211700D02*
X730250Y211700D01*
X787400Y218440D02*
X787400Y227800D01*
X780660Y211700D02*
X730250Y211700D01*
X780660Y211700D02*
X787400Y218440D01*
X787400Y254800D02*
X787400Y269240D01*
X789940Y269240D02*
X789940Y284960D01*
X781050Y293850D01*
X756040Y269240D02*
X749300Y262500D01*
X756040Y269240D02*
X787400Y269240D01*
X789940Y269240D01*
X777900Y254800D02*
X768600Y245500D01*
X749300Y245500D01*
X889000Y145250D02*
X889000Y133350D01*
D41*
X889000Y118900D01*
X895350Y112550D01*
D39*
X935600Y129150D02*
X935600Y139700D01*
X919000Y112550D02*
X895350Y112550D01*
X919000Y112550D02*
X935600Y129150D01*
D40*
X899160Y116360D02*
X895350Y112550D01*
X899160Y116360D02*
X903760Y116360D01*
D39*
X898500Y172250D02*
X910400Y184150D01*
X918600Y184150D01*
X918600Y165100D01*
X889000Y172250D02*
X889000Y191770D01*
X897500Y200270D02*
X897500Y209550D01*
X897500Y200270D02*
X889000Y191770D01*
X897500Y209550D02*
X918600Y209550D01*
X777900Y227800D02*
X736130Y227800D01*
X723900Y240030D01*
X723900Y245500D01*
X698500Y245500D01*
X904050Y139700D02*
X918600Y139700D01*
X904050Y139700D02*
X898500Y145250D01*
X723900Y262500D02*
X723900Y342900D01*
X734850Y353850D02*
X781050Y353850D01*
X734850Y353850D02*
X723900Y342900D01*
D38*
X781050Y353850D02*
X782400Y355200D01*
X889000Y355200D01*
X889400Y355600D01*
X946150Y355600D01*
X1155700Y355600D01*
X1177700Y333600D01*
X1177700Y328450D01*
X863600Y234950D02*
X863600Y167250D01*
X946150Y317500D02*
X946150Y355600D01*
X946150Y317500D02*
X863600Y234950D01*
D39*
X868600Y172250D02*
X863600Y167250D01*
X868600Y172250D02*
X879500Y172250D01*
X879500Y208550D01*
X880500Y209550D01*
D38*
X69850Y367300D02*
X69850Y432800D01*
M02*
