G04 EAGLE Gerber RS-274X export*
G75*
%MOMM*%
%FSLAX34Y34*%
%LPD*%
%INBottom Copper*%
%IPPOS*%
%AMOC8*
5,1,8,0,0,1.08239X$1,22.5*%
G01*
%ADD10R,1.550000X1.550000*%
%ADD11C,1.550000*%
%ADD12R,1.400000X1.400000*%
%ADD13C,1.400000*%
%ADD14C,2.000000*%
%ADD15C,1.762000*%
%ADD16C,6.000000*%
%ADD17C,2.500000*%
%ADD18C,3.000000*%
%ADD19C,2.540000*%
%ADD20R,1.570000X1.570000*%
%ADD21C,1.570000*%
%ADD22R,1.300000X1.300000*%
%ADD23C,1.300000*%
%ADD24R,1.500000X1.500000*%
%ADD25C,1.600000*%
%ADD26C,2.500000*%
%ADD27C,1.270000*%

G36*
X1220042Y11373D02*
X1220042Y11373D01*
X1220084Y11371D01*
X1220151Y11393D01*
X1220221Y11405D01*
X1220257Y11427D01*
X1220298Y11440D01*
X1220371Y11494D01*
X1220414Y11520D01*
X1220427Y11536D01*
X1220448Y11552D01*
X1233448Y24552D01*
X1233473Y24586D01*
X1233504Y24615D01*
X1233536Y24678D01*
X1233577Y24736D01*
X1233587Y24777D01*
X1233607Y24815D01*
X1233620Y24904D01*
X1233633Y24953D01*
X1233630Y24974D01*
X1233634Y25000D01*
X1233634Y368000D01*
X1233627Y368042D01*
X1233629Y368084D01*
X1233607Y368151D01*
X1233595Y368221D01*
X1233573Y368257D01*
X1233560Y368298D01*
X1233506Y368371D01*
X1233480Y368414D01*
X1233464Y368427D01*
X1233448Y368448D01*
X1187448Y414448D01*
X1187414Y414473D01*
X1187385Y414504D01*
X1187322Y414536D01*
X1187264Y414577D01*
X1187223Y414587D01*
X1187185Y414607D01*
X1187096Y414620D01*
X1187047Y414633D01*
X1187026Y414630D01*
X1187000Y414634D01*
X692000Y414634D01*
X691958Y414627D01*
X691916Y414629D01*
X691849Y414607D01*
X691779Y414595D01*
X691743Y414573D01*
X691702Y414560D01*
X691629Y414506D01*
X691586Y414480D01*
X691573Y414464D01*
X691552Y414448D01*
X583737Y306634D01*
X506000Y306634D01*
X505958Y306627D01*
X505916Y306629D01*
X505849Y306607D01*
X505779Y306595D01*
X505743Y306573D01*
X505702Y306560D01*
X505629Y306506D01*
X505586Y306480D01*
X505573Y306464D01*
X505552Y306448D01*
X466737Y267634D01*
X24000Y267634D01*
X23958Y267627D01*
X23916Y267629D01*
X23849Y267607D01*
X23779Y267595D01*
X23743Y267573D01*
X23702Y267560D01*
X23629Y267506D01*
X23586Y267480D01*
X23573Y267464D01*
X23552Y267448D01*
X11552Y255448D01*
X11527Y255414D01*
X11496Y255385D01*
X11464Y255322D01*
X11423Y255264D01*
X11413Y255223D01*
X11393Y255185D01*
X11380Y255096D01*
X11368Y255047D01*
X11370Y255026D01*
X11366Y255000D01*
X11366Y19000D01*
X11373Y18958D01*
X11371Y18916D01*
X11393Y18849D01*
X11405Y18779D01*
X11427Y18743D01*
X11440Y18702D01*
X11486Y18640D01*
X11487Y18638D01*
X11489Y18636D01*
X11494Y18629D01*
X11520Y18586D01*
X11536Y18573D01*
X11552Y18552D01*
X18552Y11552D01*
X18586Y11527D01*
X18615Y11496D01*
X18678Y11464D01*
X18736Y11423D01*
X18777Y11413D01*
X18815Y11393D01*
X18904Y11380D01*
X18953Y11368D01*
X18974Y11370D01*
X19000Y11366D01*
X1220000Y11366D01*
X1220042Y11373D01*
G37*
%LPC*%
G36*
X755387Y272414D02*
X755387Y272414D01*
X742314Y285487D01*
X742314Y355863D01*
X749037Y362586D01*
X813063Y362586D01*
X813621Y362028D01*
X813622Y362028D01*
X819228Y356422D01*
X819228Y356421D01*
X819786Y355863D01*
X819786Y285487D01*
X806713Y272414D01*
X755387Y272414D01*
G37*
%LPD*%
%LPC*%
G36*
X514087Y189864D02*
X514087Y189864D01*
X507364Y196587D01*
X507364Y260613D01*
X514087Y267336D01*
X578113Y267336D01*
X584836Y260613D01*
X584836Y196587D01*
X578113Y189864D01*
X514087Y189864D01*
G37*
%LPD*%
%LPC*%
G36*
X863337Y43814D02*
X863337Y43814D01*
X856614Y50537D01*
X856614Y114563D01*
X863337Y121286D01*
X927363Y121286D01*
X934086Y114563D01*
X934086Y50537D01*
X927363Y43814D01*
X863337Y43814D01*
G37*
%LPD*%
%LPC*%
G36*
X1134864Y240389D02*
X1134864Y240389D01*
X1129255Y242713D01*
X1124963Y247005D01*
X1122639Y252614D01*
X1122639Y258686D01*
X1124963Y264295D01*
X1129255Y268587D01*
X1134864Y270911D01*
X1140936Y270911D01*
X1146545Y268587D01*
X1150837Y264295D01*
X1153161Y258686D01*
X1153161Y252614D01*
X1150837Y247005D01*
X1146545Y242713D01*
X1140936Y240389D01*
X1134864Y240389D01*
G37*
%LPD*%
%LPC*%
G36*
X886414Y342199D02*
X886414Y342199D01*
X881636Y344179D01*
X877979Y347836D01*
X875999Y352614D01*
X875999Y357786D01*
X877979Y362564D01*
X881636Y366221D01*
X886414Y368201D01*
X891586Y368201D01*
X896364Y366221D01*
X900021Y362564D01*
X902001Y357786D01*
X902001Y352614D01*
X900021Y347836D01*
X896364Y344179D01*
X891586Y342199D01*
X886414Y342199D01*
G37*
%LPD*%
%LPC*%
G36*
X1063814Y228299D02*
X1063814Y228299D01*
X1059036Y230279D01*
X1055379Y233936D01*
X1053399Y238714D01*
X1053399Y243886D01*
X1055379Y248664D01*
X1059036Y252321D01*
X1063814Y254301D01*
X1068986Y254301D01*
X1073764Y252321D01*
X1077421Y248664D01*
X1079401Y243886D01*
X1079401Y238714D01*
X1077421Y233936D01*
X1073764Y230279D01*
X1068986Y228299D01*
X1063814Y228299D01*
G37*
%LPD*%
%LPC*%
G36*
X632414Y126299D02*
X632414Y126299D01*
X627636Y128279D01*
X623979Y131936D01*
X621999Y136714D01*
X621999Y141886D01*
X623979Y146664D01*
X627636Y150321D01*
X632414Y152301D01*
X637586Y152301D01*
X642364Y150321D01*
X646021Y146664D01*
X648001Y141886D01*
X648001Y136714D01*
X646021Y131936D01*
X642364Y128279D01*
X637586Y126299D01*
X632414Y126299D01*
G37*
%LPD*%
%LPC*%
G36*
X518114Y126299D02*
X518114Y126299D01*
X513336Y128279D01*
X509679Y131936D01*
X507699Y136714D01*
X507699Y141886D01*
X509679Y146664D01*
X513336Y150321D01*
X518114Y152301D01*
X523286Y152301D01*
X528064Y150321D01*
X531721Y146664D01*
X533701Y141886D01*
X533701Y136714D01*
X531721Y131936D01*
X528064Y128279D01*
X523286Y126299D01*
X518114Y126299D01*
G37*
%LPD*%
%LPC*%
G36*
X403814Y126299D02*
X403814Y126299D01*
X399036Y128279D01*
X395379Y131936D01*
X393399Y136714D01*
X393399Y141886D01*
X395379Y146664D01*
X399036Y150321D01*
X403814Y152301D01*
X408986Y152301D01*
X413764Y150321D01*
X417421Y146664D01*
X419401Y141886D01*
X419401Y136714D01*
X417421Y131936D01*
X413764Y128279D01*
X408986Y126299D01*
X403814Y126299D01*
G37*
%LPD*%
%LPC*%
G36*
X1168607Y317599D02*
X1168607Y317599D01*
X1166849Y319357D01*
X1166849Y337543D01*
X1168607Y339301D01*
X1186793Y339301D01*
X1188551Y337543D01*
X1188551Y319357D01*
X1186793Y317599D01*
X1168607Y317599D01*
G37*
%LPD*%
%LPC*%
G36*
X1145542Y317599D02*
X1145542Y317599D01*
X1141553Y319251D01*
X1138501Y322303D01*
X1136849Y326292D01*
X1136849Y330608D01*
X1138501Y334597D01*
X1141553Y337649D01*
X1145542Y339301D01*
X1149858Y339301D01*
X1153847Y337649D01*
X1156899Y334597D01*
X1158551Y330608D01*
X1158551Y326292D01*
X1156899Y322303D01*
X1153847Y319251D01*
X1149858Y317599D01*
X1145542Y317599D01*
G37*
%LPD*%
%LPC*%
G36*
X1175542Y287599D02*
X1175542Y287599D01*
X1171553Y289251D01*
X1168501Y292303D01*
X1166849Y296292D01*
X1166849Y300608D01*
X1168501Y304597D01*
X1171553Y307649D01*
X1175542Y309301D01*
X1179858Y309301D01*
X1183847Y307649D01*
X1186899Y304597D01*
X1188551Y300608D01*
X1188551Y296292D01*
X1186899Y292303D01*
X1183847Y289251D01*
X1179858Y287599D01*
X1175542Y287599D01*
G37*
%LPD*%
%LPC*%
G36*
X1145542Y287599D02*
X1145542Y287599D01*
X1141553Y289251D01*
X1138501Y292303D01*
X1136849Y296292D01*
X1136849Y300608D01*
X1138501Y304597D01*
X1141553Y307649D01*
X1145542Y309301D01*
X1149858Y309301D01*
X1153847Y307649D01*
X1156899Y304597D01*
X1158551Y300608D01*
X1158551Y296292D01*
X1156899Y292303D01*
X1153847Y289251D01*
X1149858Y287599D01*
X1145542Y287599D01*
G37*
%LPD*%
D10*
X355600Y906250D03*
D11*
X355600Y681250D03*
D12*
X723500Y825500D03*
D13*
X673500Y825500D03*
D12*
X717150Y590550D03*
D13*
X667150Y590550D03*
D14*
X406400Y89300D03*
X406400Y139300D03*
X520700Y89300D03*
X520700Y139300D03*
X635000Y89300D03*
X635000Y139300D03*
X1016400Y241300D03*
X1066400Y241300D03*
X889000Y305200D03*
X889000Y355200D03*
D15*
X648450Y736200D03*
X648200Y686200D03*
X750050Y736200D03*
X749800Y686200D03*
D16*
X50800Y50800D03*
X50000Y950000D03*
X1149350Y952500D03*
X1149350Y50800D03*
D10*
X317200Y965200D03*
D11*
X508300Y965200D03*
D17*
X225400Y321600D02*
X225400Y296600D01*
X255400Y296600D02*
X255400Y321600D01*
X285400Y321600D02*
X285400Y296600D01*
X370400Y296600D02*
X370400Y321600D01*
X315400Y321600D02*
X315400Y296600D01*
X400400Y296600D02*
X400400Y321600D01*
X460400Y321600D02*
X460400Y296600D01*
X267400Y516600D02*
X267400Y541600D01*
X297400Y541600D02*
X297400Y516600D01*
X327400Y516600D02*
X327400Y541600D01*
X237400Y541600D02*
X237400Y516600D01*
D18*
X387400Y529100D03*
D17*
X430400Y321600D02*
X430400Y296600D01*
D18*
X447400Y529100D03*
D19*
X203200Y819150D03*
X152400Y819150D03*
X203200Y711200D03*
X152400Y711200D03*
D20*
X1177700Y328450D03*
D21*
X1177700Y298450D03*
X1177700Y268450D03*
X1147700Y328450D03*
X1147700Y298450D03*
X1147700Y268450D03*
D22*
X265050Y768750D03*
D23*
X281050Y818750D03*
D24*
X133350Y482600D03*
D25*
X133350Y357600D03*
D24*
X552450Y482600D03*
D25*
X552450Y357600D03*
D26*
X69850Y557800D03*
X69850Y432800D03*
X69850Y367300D03*
X69850Y242300D03*
D11*
X25400Y228600D03*
X25400Y177800D03*
X25400Y127000D03*
X25400Y76200D03*
X76200Y25400D03*
X127000Y25400D03*
X177800Y25400D03*
X228600Y25400D03*
X279400Y25400D03*
X330200Y25400D03*
X381000Y25400D03*
X431800Y25400D03*
X482600Y25400D03*
X533400Y25400D03*
X584200Y25400D03*
X635000Y25400D03*
X685800Y25400D03*
X736600Y25400D03*
X787400Y25400D03*
X838200Y25400D03*
X889000Y25400D03*
X990600Y25400D03*
X1041400Y25400D03*
X1092200Y25400D03*
X1193800Y25400D03*
X1219200Y50800D03*
X1219200Y101600D03*
X1219200Y152400D03*
X1219200Y203200D03*
X1219200Y254000D03*
X1219200Y298450D03*
X1143000Y381000D03*
X1092200Y381000D03*
X1041400Y381000D03*
X990600Y381000D03*
X939800Y381000D03*
X889000Y381000D03*
X838200Y381000D03*
X787400Y381000D03*
X736600Y381000D03*
X711200Y355600D03*
X685800Y330200D03*
X660400Y304800D03*
X685800Y279400D03*
X660400Y254000D03*
X685800Y228600D03*
X660400Y203200D03*
X838200Y279400D03*
X914400Y330200D03*
X863600Y330200D03*
X990600Y330200D03*
X965200Y304800D03*
X939800Y279400D03*
X965200Y254000D03*
X939800Y228600D03*
X914400Y254000D03*
X1041400Y304800D03*
X1016000Y279400D03*
X1041400Y254000D03*
X1016000Y203200D03*
X1041400Y177800D03*
X1117600Y177800D03*
X1117600Y228600D03*
X1117600Y127000D03*
X838200Y76200D03*
X838200Y127000D03*
X838200Y177800D03*
X838200Y228600D03*
X812800Y152400D03*
X762000Y127000D03*
X812800Y101600D03*
X711200Y127000D03*
X736600Y101600D03*
X685800Y101600D03*
X660400Y76200D03*
X711200Y76200D03*
X685800Y50800D03*
X558800Y152400D03*
X558800Y101600D03*
X558800Y50800D03*
X584200Y76200D03*
X584200Y127000D03*
X457200Y76200D03*
X381000Y76200D03*
X381000Y127000D03*
X381000Y177800D03*
X381000Y228600D03*
X355600Y254000D03*
X304800Y254000D03*
X254000Y254000D03*
X203200Y254000D03*
X152400Y254000D03*
X101600Y254000D03*
X25400Y254000D03*
X958850Y146050D03*
X952500Y127000D03*
X946150Y101600D03*
X946150Y63500D03*
X958850Y196850D03*
X1003300Y184150D03*
X615950Y304800D03*
X615950Y254000D03*
X615950Y203200D03*
D27*
X688600Y562000D02*
X717150Y590550D01*
X509000Y562000D02*
X492000Y579000D01*
X347000Y579000D01*
X327400Y559400D01*
X327400Y529100D01*
X509000Y562000D02*
X688600Y562000D01*
X318600Y482600D02*
X133350Y482600D01*
X318600Y482600D02*
X328000Y492000D01*
X328000Y528500D01*
X327400Y529100D01*
M02*
