G04 EAGLE Gerber RS-274X export*
G75*
%MOMM*%
%FSLAX34Y34*%
%LPD*%
%IN*%
%IPPOS*%
%AMOC8*
5,1,8,0,0,1.08239X$1,22.5*%
G01*
%ADD10C,0.000000*%
%ADD11C,0.254000*%


D10*
X0Y0D02*
X1250000Y0D01*
X1250000Y1000000D01*
X0Y1000000D01*
X0Y0D01*
X1132800Y255650D02*
X1132802Y255792D01*
X1132808Y255935D01*
X1132818Y256077D01*
X1132832Y256218D01*
X1132850Y256360D01*
X1132871Y256501D01*
X1132897Y256641D01*
X1132927Y256780D01*
X1132960Y256918D01*
X1132998Y257056D01*
X1133039Y257192D01*
X1133084Y257327D01*
X1133132Y257461D01*
X1133185Y257593D01*
X1133241Y257724D01*
X1133301Y257854D01*
X1133364Y257981D01*
X1133431Y258107D01*
X1133501Y258231D01*
X1133575Y258353D01*
X1133652Y258472D01*
X1133733Y258590D01*
X1133816Y258705D01*
X1133903Y258818D01*
X1133993Y258928D01*
X1134086Y259036D01*
X1134182Y259141D01*
X1134281Y259244D01*
X1134383Y259343D01*
X1134487Y259440D01*
X1134595Y259534D01*
X1134704Y259625D01*
X1134817Y259712D01*
X1134931Y259797D01*
X1135048Y259878D01*
X1135167Y259956D01*
X1135289Y260031D01*
X1135412Y260102D01*
X1135537Y260170D01*
X1135664Y260234D01*
X1135793Y260294D01*
X1135924Y260352D01*
X1136056Y260405D01*
X1136189Y260454D01*
X1136324Y260500D01*
X1136460Y260543D01*
X1136597Y260581D01*
X1136735Y260615D01*
X1136875Y260646D01*
X1137014Y260673D01*
X1137155Y260695D01*
X1137296Y260714D01*
X1137438Y260729D01*
X1137580Y260740D01*
X1137722Y260747D01*
X1137864Y260750D01*
X1138007Y260749D01*
X1138149Y260744D01*
X1138291Y260735D01*
X1138433Y260722D01*
X1138575Y260705D01*
X1138715Y260684D01*
X1138856Y260660D01*
X1138995Y260631D01*
X1139134Y260599D01*
X1139271Y260562D01*
X1139408Y260522D01*
X1139544Y260478D01*
X1139678Y260430D01*
X1139810Y260379D01*
X1139942Y260323D01*
X1140071Y260265D01*
X1140199Y260202D01*
X1140326Y260136D01*
X1140450Y260067D01*
X1140572Y259994D01*
X1140693Y259917D01*
X1140811Y259838D01*
X1140926Y259755D01*
X1141040Y259669D01*
X1141151Y259580D01*
X1141259Y259487D01*
X1141365Y259392D01*
X1141468Y259294D01*
X1141569Y259193D01*
X1141666Y259089D01*
X1141761Y258982D01*
X1141852Y258873D01*
X1141941Y258762D01*
X1142026Y258648D01*
X1142108Y258531D01*
X1142187Y258413D01*
X1142262Y258292D01*
X1142334Y258169D01*
X1142403Y258044D01*
X1142468Y257918D01*
X1142530Y257789D01*
X1142588Y257659D01*
X1142642Y257527D01*
X1142692Y257394D01*
X1142739Y257260D01*
X1142782Y257124D01*
X1142822Y256987D01*
X1142857Y256849D01*
X1142889Y256710D01*
X1142916Y256571D01*
X1142940Y256430D01*
X1142960Y256289D01*
X1142976Y256148D01*
X1142988Y256006D01*
X1142996Y255864D01*
X1143000Y255721D01*
X1143000Y255579D01*
X1142996Y255436D01*
X1142988Y255294D01*
X1142976Y255152D01*
X1142960Y255011D01*
X1142940Y254870D01*
X1142916Y254729D01*
X1142889Y254590D01*
X1142857Y254451D01*
X1142822Y254313D01*
X1142782Y254176D01*
X1142739Y254040D01*
X1142692Y253906D01*
X1142642Y253773D01*
X1142588Y253641D01*
X1142530Y253511D01*
X1142468Y253382D01*
X1142403Y253256D01*
X1142334Y253131D01*
X1142262Y253008D01*
X1142187Y252887D01*
X1142108Y252769D01*
X1142026Y252652D01*
X1141941Y252538D01*
X1141852Y252427D01*
X1141761Y252318D01*
X1141666Y252211D01*
X1141569Y252107D01*
X1141468Y252006D01*
X1141365Y251908D01*
X1141259Y251813D01*
X1141151Y251720D01*
X1141040Y251631D01*
X1140926Y251545D01*
X1140811Y251462D01*
X1140693Y251383D01*
X1140572Y251306D01*
X1140450Y251233D01*
X1140326Y251164D01*
X1140199Y251098D01*
X1140071Y251035D01*
X1139942Y250977D01*
X1139810Y250921D01*
X1139678Y250870D01*
X1139544Y250822D01*
X1139408Y250778D01*
X1139271Y250738D01*
X1139134Y250701D01*
X1138995Y250669D01*
X1138856Y250640D01*
X1138715Y250616D01*
X1138575Y250595D01*
X1138433Y250578D01*
X1138291Y250565D01*
X1138149Y250556D01*
X1138007Y250551D01*
X1137864Y250550D01*
X1137722Y250553D01*
X1137580Y250560D01*
X1137438Y250571D01*
X1137296Y250586D01*
X1137155Y250605D01*
X1137014Y250627D01*
X1136875Y250654D01*
X1136735Y250685D01*
X1136597Y250719D01*
X1136460Y250757D01*
X1136324Y250800D01*
X1136189Y250846D01*
X1136056Y250895D01*
X1135924Y250948D01*
X1135793Y251006D01*
X1135664Y251066D01*
X1135537Y251130D01*
X1135412Y251198D01*
X1135289Y251269D01*
X1135167Y251344D01*
X1135048Y251422D01*
X1134931Y251503D01*
X1134817Y251588D01*
X1134704Y251675D01*
X1134595Y251766D01*
X1134487Y251860D01*
X1134383Y251957D01*
X1134281Y252056D01*
X1134182Y252159D01*
X1134086Y252264D01*
X1133993Y252372D01*
X1133903Y252482D01*
X1133816Y252595D01*
X1133733Y252710D01*
X1133652Y252828D01*
X1133575Y252947D01*
X1133501Y253069D01*
X1133431Y253193D01*
X1133364Y253319D01*
X1133301Y253446D01*
X1133241Y253576D01*
X1133185Y253707D01*
X1133132Y253839D01*
X1133084Y253973D01*
X1133039Y254108D01*
X1132998Y254244D01*
X1132960Y254382D01*
X1132927Y254520D01*
X1132897Y254659D01*
X1132871Y254799D01*
X1132850Y254940D01*
X1132832Y255082D01*
X1132818Y255223D01*
X1132808Y255365D01*
X1132802Y255508D01*
X1132800Y255650D01*
D11*
X0Y0D02*
X1250000Y0D01*
X1250000Y1000000D01*
X0Y1000000D01*
X0Y0D01*
X1138186Y260750D02*
X1138756Y260686D01*
X1139314Y260558D01*
X1139855Y260369D01*
X1140371Y260121D01*
X1140856Y259816D01*
X1141304Y259459D01*
X1141709Y259054D01*
X1142066Y258606D01*
X1142371Y258121D01*
X1142619Y257605D01*
X1142808Y257064D01*
X1142936Y256506D01*
X1143000Y255936D01*
X1143000Y255364D01*
X1142936Y254794D01*
X1142808Y254236D01*
X1142619Y253695D01*
X1142371Y253179D01*
X1142066Y252694D01*
X1141709Y252246D01*
X1141304Y251841D01*
X1140856Y251484D01*
X1140371Y251179D01*
X1139855Y250931D01*
X1139314Y250742D01*
X1138756Y250614D01*
X1138186Y250550D01*
X1137614Y250550D01*
X1137044Y250614D01*
X1136486Y250742D01*
X1135945Y250931D01*
X1135429Y251179D01*
X1134944Y251484D01*
X1134496Y251841D01*
X1134091Y252246D01*
X1133734Y252694D01*
X1133429Y253179D01*
X1133181Y253695D01*
X1132992Y254236D01*
X1132864Y254794D01*
X1132800Y255364D01*
X1132800Y255936D01*
X1132864Y256506D01*
X1132992Y257064D01*
X1133181Y257605D01*
X1133429Y258121D01*
X1133734Y258606D01*
X1134091Y259054D01*
X1134496Y259459D01*
X1134944Y259816D01*
X1135429Y260121D01*
X1135945Y260369D01*
X1136486Y260558D01*
X1137044Y260686D01*
X1137614Y260750D01*
X1138186Y260750D01*
M02*
