G04 EAGLE Gerber RS-274X export*
G75*
%MOMM*%
%FSLAX34Y34*%
%LPD*%
%INSolderpaste Top*%
%IPPOS*%
%AMOC8*
5,1,8,0,0,1.08239X$1,22.5*%
G01*
%ADD10R,1.100000X1.000000*%
%ADD11R,1.000000X1.100000*%
%ADD12C,0.775000*%
%ADD13R,1.400000X1.640000*%
%ADD14C,1.000000*%
%ADD15R,2.700000X3.300000*%
%ADD16R,2.700000X1.000000*%
%ADD17C,0.300000*%
%ADD18R,1.803000X1.600000*%
%ADD19C,1.500000*%


D10*
X791600Y196850D03*
X808600Y196850D03*
X791600Y177800D03*
X808600Y177800D03*
D11*
X749300Y245500D03*
X749300Y262500D03*
D10*
X918600Y139700D03*
X935600Y139700D03*
X963050Y82550D03*
X980050Y82550D03*
X963050Y114300D03*
X980050Y114300D03*
X963050Y57150D03*
X980050Y57150D03*
X1018150Y57150D03*
X1001150Y57150D03*
X1001150Y82550D03*
X1018150Y82550D03*
D11*
X863600Y150250D03*
X863600Y167250D03*
D12*
X604275Y829375D02*
X591025Y829375D01*
X604275Y829375D02*
X604275Y821625D01*
X591025Y821625D01*
X591025Y829375D01*
X591025Y828987D02*
X604275Y828987D01*
X604275Y854775D02*
X591025Y854775D01*
X604275Y854775D02*
X604275Y847025D01*
X591025Y847025D01*
X591025Y854775D01*
X591025Y854387D02*
X604275Y854387D01*
X539275Y854775D02*
X526025Y854775D01*
X539275Y854775D02*
X539275Y847025D01*
X526025Y847025D01*
X526025Y854775D01*
X526025Y854387D02*
X539275Y854387D01*
X539275Y829375D02*
X526025Y829375D01*
X539275Y829375D02*
X539275Y821625D01*
X526025Y821625D01*
X526025Y829375D01*
X526025Y828987D02*
X539275Y828987D01*
D13*
X1040300Y69850D03*
X1080600Y69850D03*
D14*
X1217250Y276850D03*
D15*
X1070900Y133350D03*
D16*
X1011900Y110350D03*
X1011900Y133350D03*
X1011900Y156350D03*
D17*
X779400Y250800D02*
X776400Y250800D01*
X776400Y258800D01*
X779400Y258800D01*
X779400Y250800D01*
X779400Y253650D02*
X776400Y253650D01*
X776400Y256500D02*
X779400Y256500D01*
X795400Y250800D02*
X798400Y250800D01*
X795400Y250800D02*
X795400Y258800D01*
X798400Y258800D01*
X798400Y250800D01*
X798400Y253650D02*
X795400Y253650D01*
X795400Y256500D02*
X798400Y256500D01*
X798400Y223800D02*
X795400Y223800D01*
X795400Y231800D01*
X798400Y231800D01*
X798400Y223800D01*
X798400Y226650D02*
X795400Y226650D01*
X795400Y229500D02*
X798400Y229500D01*
X788900Y223800D02*
X785900Y223800D01*
X785900Y231800D01*
X788900Y231800D01*
X788900Y223800D01*
X788900Y226650D02*
X785900Y226650D01*
X785900Y229500D02*
X788900Y229500D01*
X779400Y223800D02*
X776400Y223800D01*
X776400Y231800D01*
X779400Y231800D01*
X779400Y223800D01*
X779400Y226650D02*
X776400Y226650D01*
X776400Y229500D02*
X779400Y229500D01*
X785900Y250800D02*
X788900Y250800D01*
X785900Y250800D02*
X785900Y258800D01*
X788900Y258800D01*
X788900Y250800D01*
X788900Y253650D02*
X785900Y253650D01*
X785900Y256500D02*
X788900Y256500D01*
X897000Y149250D02*
X900000Y149250D01*
X900000Y141250D01*
X897000Y141250D01*
X897000Y149250D01*
X897000Y144100D02*
X900000Y144100D01*
X900000Y146950D02*
X897000Y146950D01*
X881000Y149250D02*
X878000Y149250D01*
X881000Y149250D02*
X881000Y141250D01*
X878000Y141250D01*
X878000Y149250D01*
X878000Y144100D02*
X881000Y144100D01*
X881000Y146950D02*
X878000Y146950D01*
X878000Y176250D02*
X881000Y176250D01*
X881000Y168250D01*
X878000Y168250D01*
X878000Y176250D01*
X878000Y171100D02*
X881000Y171100D01*
X881000Y173950D02*
X878000Y173950D01*
X887500Y176250D02*
X890500Y176250D01*
X890500Y168250D01*
X887500Y168250D01*
X887500Y176250D01*
X887500Y171100D02*
X890500Y171100D01*
X890500Y173950D02*
X887500Y173950D01*
X897000Y176250D02*
X900000Y176250D01*
X900000Y168250D01*
X897000Y168250D01*
X897000Y176250D01*
X897000Y171100D02*
X900000Y171100D01*
X900000Y173950D02*
X897000Y173950D01*
X890500Y149250D02*
X887500Y149250D01*
X890500Y149250D02*
X890500Y141250D01*
X887500Y141250D01*
X887500Y149250D01*
X887500Y144100D02*
X890500Y144100D01*
X890500Y146950D02*
X887500Y146950D01*
D18*
X450850Y884170D03*
X450850Y855730D03*
X450850Y795270D03*
X450850Y766830D03*
D10*
X730250Y211700D03*
X730250Y194700D03*
X704850Y194700D03*
X704850Y211700D03*
D11*
X897500Y209550D03*
X880500Y209550D03*
X935600Y209550D03*
X918600Y209550D03*
X935600Y165100D03*
X918600Y165100D03*
X918600Y184150D03*
X935600Y184150D03*
D10*
X723900Y262500D03*
X723900Y245500D03*
X698500Y262500D03*
X698500Y245500D03*
D19*
X529950Y198600D02*
X514950Y198600D01*
X514950Y258600D01*
X529950Y258600D01*
X529950Y198600D01*
X529950Y212850D02*
X514950Y212850D01*
X514950Y227100D02*
X529950Y227100D01*
X529950Y241350D02*
X514950Y241350D01*
X514950Y255600D02*
X529950Y255600D01*
X574950Y198600D02*
X589950Y198600D01*
X574950Y198600D02*
X574950Y258600D01*
X589950Y258600D01*
X589950Y198600D01*
X589950Y212850D02*
X574950Y212850D01*
X574950Y227100D02*
X589950Y227100D01*
X589950Y241350D02*
X574950Y241350D01*
X574950Y255600D02*
X589950Y255600D01*
X811050Y286350D02*
X811050Y301350D01*
X811050Y286350D02*
X751050Y286350D01*
X751050Y301350D01*
X811050Y301350D01*
X811050Y300600D02*
X751050Y300600D01*
X811050Y346350D02*
X811050Y361350D01*
X811050Y346350D02*
X751050Y346350D01*
X751050Y361350D01*
X811050Y361350D01*
X811050Y360600D02*
X751050Y360600D01*
X865350Y120050D02*
X865350Y105050D01*
X865350Y120050D02*
X925350Y120050D01*
X925350Y105050D01*
X865350Y105050D01*
X865350Y119300D02*
X925350Y119300D01*
X865350Y60050D02*
X865350Y45050D01*
X865350Y60050D02*
X925350Y60050D01*
X925350Y45050D01*
X865350Y45050D01*
X865350Y59300D02*
X925350Y59300D01*
D14*
X107950Y44450D03*
M02*
