G04 EAGLE Gerber RS-274X export*
G75*
%MOMM*%
%FSLAX34Y34*%
%LPD*%
%INTop Copper*%
%IPPOS*%
%AMOC8*
5,1,8,0,0,1.08239X$1,22.5*%
G01*
%ADD10R,1.550000X1.550000*%
%ADD11C,1.550000*%
%ADD12R,1.400000X1.400000*%
%ADD13C,1.400000*%
%ADD14C,2.000000*%
%ADD15R,1.000000X1.100000*%
%ADD16R,1.100000X1.000000*%
%ADD17C,0.775000*%
%ADD18R,1.400000X1.640000*%
%ADD19C,1.000000*%
%ADD20R,2.700000X3.300000*%
%ADD21R,2.700000X1.000000*%
%ADD22C,1.762000*%
%ADD23C,6.000000*%
%ADD24R,1.803000X1.600000*%
%ADD25C,2.500000*%
%ADD26C,3.000000*%
%ADD27C,2.540000*%
%ADD28R,1.570000X1.570000*%
%ADD29C,1.570000*%
%ADD30R,1.300000X1.300000*%
%ADD31C,1.300000*%
%ADD32C,1.500000*%
%ADD33R,1.500000X1.500000*%
%ADD34C,1.600000*%
%ADD35C,2.500000*%
%ADD36C,0.300000*%
%ADD37C,1.270000*%
%ADD38C,1.016000*%
%ADD39C,0.508000*%
%ADD40C,0.254000*%

G36*
X1219287Y11697D02*
X1219287Y11697D01*
X1219374Y11700D01*
X1219427Y11717D01*
X1219482Y11725D01*
X1219561Y11760D01*
X1219645Y11787D01*
X1219684Y11815D01*
X1219741Y11841D01*
X1219854Y11937D01*
X1219918Y11982D01*
X1232618Y24682D01*
X1232670Y24752D01*
X1232730Y24816D01*
X1232756Y24865D01*
X1232789Y24909D01*
X1232820Y24991D01*
X1232860Y25069D01*
X1232868Y25117D01*
X1232890Y25175D01*
X1232902Y25323D01*
X1232915Y25400D01*
X1232915Y368300D01*
X1232903Y368387D01*
X1232900Y368474D01*
X1232883Y368527D01*
X1232875Y368582D01*
X1232840Y368661D01*
X1232813Y368745D01*
X1232785Y368784D01*
X1232759Y368841D01*
X1232663Y368954D01*
X1232618Y369018D01*
X1188168Y413468D01*
X1188098Y413520D01*
X1188034Y413580D01*
X1187985Y413606D01*
X1187941Y413639D01*
X1187859Y413670D01*
X1187781Y413710D01*
X1187734Y413718D01*
X1187675Y413740D01*
X1187527Y413752D01*
X1187450Y413765D01*
X692150Y413765D01*
X692063Y413753D01*
X691976Y413750D01*
X691923Y413733D01*
X691869Y413725D01*
X691789Y413690D01*
X691705Y413663D01*
X691666Y413635D01*
X691609Y413609D01*
X691496Y413513D01*
X691432Y413468D01*
X583780Y305815D01*
X561722Y305815D01*
X561692Y305811D01*
X561663Y305814D01*
X561552Y305791D01*
X561440Y305775D01*
X561413Y305763D01*
X561385Y305758D01*
X561284Y305706D01*
X561181Y305659D01*
X561158Y305640D01*
X561132Y305627D01*
X561050Y305549D01*
X560964Y305476D01*
X560947Y305451D01*
X560926Y305431D01*
X560869Y305333D01*
X560806Y305239D01*
X560797Y305211D01*
X560782Y305186D01*
X560755Y305076D01*
X560720Y304968D01*
X560720Y304938D01*
X560712Y304910D01*
X560716Y304797D01*
X560713Y304684D01*
X560720Y304655D01*
X560721Y304626D01*
X560756Y304518D01*
X560785Y304409D01*
X560800Y304383D01*
X560809Y304355D01*
X560854Y304292D01*
X560930Y304164D01*
X560976Y304121D01*
X561004Y304082D01*
X587147Y277939D01*
X587991Y275902D01*
X587991Y270116D01*
X587999Y270058D01*
X587997Y270000D01*
X588019Y269918D01*
X588031Y269834D01*
X588054Y269781D01*
X588069Y269725D01*
X588112Y269652D01*
X588147Y269575D01*
X588185Y269530D01*
X588214Y269480D01*
X588276Y269422D01*
X588330Y269358D01*
X588379Y269326D01*
X588422Y269286D01*
X588497Y269247D01*
X588567Y269200D01*
X588623Y269183D01*
X588675Y269156D01*
X588743Y269145D01*
X588838Y269115D01*
X588938Y269112D01*
X589006Y269101D01*
X592039Y269101D01*
X595898Y267502D01*
X598852Y264548D01*
X600451Y260689D01*
X600451Y196511D01*
X598852Y192652D01*
X595898Y189698D01*
X592427Y188260D01*
X592426Y188259D01*
X592425Y188259D01*
X592352Y188216D01*
X592277Y188182D01*
X592234Y188146D01*
X592183Y188116D01*
X592182Y188115D01*
X592180Y188114D01*
X592119Y188049D01*
X592060Y187999D01*
X592031Y187955D01*
X591987Y187909D01*
X591987Y187908D01*
X591986Y187907D01*
X591943Y187824D01*
X591902Y187762D01*
X591887Y187714D01*
X591857Y187656D01*
X591857Y187655D01*
X591856Y187653D01*
X591854Y187639D01*
X591838Y187560D01*
X591816Y187491D01*
X591815Y187443D01*
X591802Y187377D01*
X591805Y187347D01*
X591801Y187322D01*
X591801Y173684D01*
X591813Y173597D01*
X591816Y173510D01*
X591833Y173457D01*
X591841Y173402D01*
X591876Y173322D01*
X591903Y173239D01*
X591931Y173200D01*
X591957Y173143D01*
X592053Y173030D01*
X592098Y172966D01*
X604040Y161024D01*
X604086Y160989D01*
X604127Y160947D01*
X604200Y160904D01*
X604267Y160853D01*
X604321Y160833D01*
X604372Y160803D01*
X604454Y160782D01*
X604532Y160752D01*
X604591Y160747D01*
X604647Y160733D01*
X604732Y160736D01*
X604816Y160729D01*
X604873Y160740D01*
X604932Y160742D01*
X605012Y160768D01*
X605094Y160785D01*
X605146Y160811D01*
X605202Y160829D01*
X605258Y160870D01*
X605347Y160916D01*
X605419Y160984D01*
X605475Y161024D01*
X608996Y164545D01*
X625904Y164545D01*
X625962Y164553D01*
X626020Y164551D01*
X626102Y164573D01*
X626186Y164585D01*
X626239Y164608D01*
X626295Y164623D01*
X626368Y164666D01*
X626445Y164701D01*
X626490Y164739D01*
X626540Y164768D01*
X626598Y164830D01*
X626662Y164884D01*
X626694Y164933D01*
X626734Y164976D01*
X626773Y165051D01*
X626820Y165121D01*
X626837Y165177D01*
X626864Y165229D01*
X626875Y165297D01*
X626905Y165392D01*
X626908Y165492D01*
X626919Y165560D01*
X626919Y331807D01*
X628150Y334777D01*
X697857Y404485D01*
X700273Y406900D01*
X703243Y408131D01*
X1164057Y408131D01*
X1167027Y406900D01*
X1211750Y362177D01*
X1212981Y359207D01*
X1212981Y307693D01*
X1211750Y304723D01*
X1198627Y291600D01*
X1195657Y290369D01*
X1185385Y290369D01*
X1185298Y290357D01*
X1185211Y290354D01*
X1185158Y290337D01*
X1185104Y290329D01*
X1185024Y290294D01*
X1184941Y290267D01*
X1184901Y290239D01*
X1184844Y290213D01*
X1184731Y290117D01*
X1184667Y290072D01*
X1183847Y289251D01*
X1179858Y287599D01*
X1175542Y287599D01*
X1171553Y289251D01*
X1168501Y292303D01*
X1166849Y296292D01*
X1166849Y300608D01*
X1168501Y304597D01*
X1171553Y307649D01*
X1175542Y309301D01*
X1179858Y309301D01*
X1183847Y307649D01*
X1184667Y306828D01*
X1184737Y306776D01*
X1184801Y306716D01*
X1184850Y306690D01*
X1184894Y306657D01*
X1184976Y306626D01*
X1185054Y306586D01*
X1185102Y306578D01*
X1185160Y306556D01*
X1185308Y306544D01*
X1185385Y306531D01*
X1190282Y306531D01*
X1190369Y306543D01*
X1190456Y306546D01*
X1190509Y306563D01*
X1190564Y306571D01*
X1190644Y306606D01*
X1190727Y306633D01*
X1190766Y306661D01*
X1190823Y306687D01*
X1190937Y306783D01*
X1191000Y306828D01*
X1196522Y312350D01*
X1196574Y312420D01*
X1196634Y312483D01*
X1196660Y312533D01*
X1196693Y312577D01*
X1196724Y312659D01*
X1196764Y312737D01*
X1196772Y312784D01*
X1196794Y312843D01*
X1196806Y312990D01*
X1196819Y313068D01*
X1196819Y353832D01*
X1196811Y353889D01*
X1196813Y353940D01*
X1196805Y353968D01*
X1196804Y354006D01*
X1196787Y354059D01*
X1196779Y354114D01*
X1196750Y354179D01*
X1196741Y354215D01*
X1196732Y354231D01*
X1196717Y354277D01*
X1196689Y354316D01*
X1196663Y354373D01*
X1196609Y354437D01*
X1196596Y354460D01*
X1196568Y354486D01*
X1196567Y354487D01*
X1196522Y354550D01*
X1159400Y391672D01*
X1159330Y391724D01*
X1159267Y391784D01*
X1159217Y391810D01*
X1159173Y391843D01*
X1159091Y391874D01*
X1159013Y391914D01*
X1158966Y391922D01*
X1158907Y391944D01*
X1158760Y391956D01*
X1158682Y391969D01*
X708618Y391969D01*
X708531Y391957D01*
X708444Y391954D01*
X708391Y391937D01*
X708336Y391929D01*
X708256Y391894D01*
X708173Y391867D01*
X708134Y391839D01*
X708077Y391813D01*
X707963Y391717D01*
X707900Y391672D01*
X643378Y327150D01*
X643326Y327080D01*
X643266Y327017D01*
X643240Y326967D01*
X643207Y326923D01*
X643176Y326841D01*
X643136Y326763D01*
X643128Y326716D01*
X643106Y326657D01*
X643101Y326601D01*
X643095Y326580D01*
X643093Y326504D01*
X643081Y326432D01*
X643081Y182031D01*
X643085Y182002D01*
X643082Y181972D01*
X643105Y181861D01*
X643121Y181749D01*
X643133Y181722D01*
X643138Y181694D01*
X643190Y181593D01*
X643237Y181490D01*
X643256Y181467D01*
X643269Y181441D01*
X643347Y181359D01*
X643420Y181273D01*
X643445Y181256D01*
X643465Y181235D01*
X643563Y181178D01*
X643657Y181115D01*
X643685Y181106D01*
X643710Y181092D01*
X643820Y181064D01*
X643928Y181029D01*
X643958Y181029D01*
X643986Y181021D01*
X644099Y181025D01*
X644212Y181022D01*
X644241Y181030D01*
X644270Y181030D01*
X644378Y181065D01*
X644487Y181094D01*
X644513Y181109D01*
X644541Y181118D01*
X644604Y181163D01*
X644732Y181239D01*
X644775Y181285D01*
X644814Y181313D01*
X653446Y189945D01*
X717238Y189945D01*
X717325Y189957D01*
X717412Y189960D01*
X717465Y189977D01*
X717520Y189985D01*
X717600Y190020D01*
X717683Y190047D01*
X717722Y190075D01*
X717779Y190101D01*
X717893Y190197D01*
X717956Y190242D01*
X721452Y193738D01*
X721461Y193750D01*
X721466Y193754D01*
X721480Y193775D01*
X721504Y193808D01*
X721564Y193871D01*
X721590Y193921D01*
X721623Y193965D01*
X721654Y194047D01*
X721694Y194125D01*
X721702Y194172D01*
X721724Y194231D01*
X721736Y194378D01*
X721749Y194456D01*
X721749Y200943D01*
X723288Y202482D01*
X723324Y202529D01*
X723366Y202569D01*
X723409Y202642D01*
X723459Y202709D01*
X723480Y202764D01*
X723510Y202814D01*
X723530Y202896D01*
X723561Y202975D01*
X723565Y203033D01*
X723580Y203090D01*
X723577Y203174D01*
X723584Y203258D01*
X723573Y203316D01*
X723571Y203374D01*
X723545Y203454D01*
X723528Y203537D01*
X723501Y203589D01*
X723483Y203645D01*
X723443Y203701D01*
X723397Y203789D01*
X723329Y203862D01*
X723288Y203918D01*
X721671Y205536D01*
X721628Y205608D01*
X721593Y205685D01*
X721555Y205730D01*
X721526Y205780D01*
X721464Y205838D01*
X721410Y205902D01*
X721361Y205934D01*
X721318Y205974D01*
X721243Y206013D01*
X721173Y206060D01*
X721117Y206077D01*
X721065Y206104D01*
X720997Y206115D01*
X720902Y206145D01*
X720802Y206148D01*
X720734Y206159D01*
X714366Y206159D01*
X714308Y206151D01*
X714250Y206153D01*
X714168Y206131D01*
X714084Y206119D01*
X714031Y206096D01*
X713975Y206081D01*
X713902Y206038D01*
X713825Y206003D01*
X713780Y205965D01*
X713730Y205936D01*
X713672Y205874D01*
X713608Y205820D01*
X713576Y205771D01*
X713536Y205728D01*
X713497Y205653D01*
X713450Y205583D01*
X713438Y205545D01*
X711593Y203699D01*
X698107Y203699D01*
X696349Y205457D01*
X696349Y217943D01*
X698326Y219920D01*
X698361Y219967D01*
X698404Y220007D01*
X698446Y220080D01*
X698497Y220147D01*
X698518Y220202D01*
X698548Y220252D01*
X698568Y220334D01*
X698598Y220413D01*
X698603Y220471D01*
X698618Y220528D01*
X698615Y220612D01*
X698622Y220696D01*
X698610Y220753D01*
X698609Y220812D01*
X698583Y220892D01*
X698566Y220975D01*
X698539Y221027D01*
X698521Y221082D01*
X698481Y221139D01*
X698435Y221227D01*
X698366Y221300D01*
X698326Y221356D01*
X695338Y224344D01*
X693549Y228663D01*
X693549Y233337D01*
X694692Y236095D01*
X694720Y236207D01*
X694755Y236316D01*
X694756Y236344D01*
X694763Y236371D01*
X694759Y236485D01*
X694762Y236600D01*
X694755Y236627D01*
X694755Y236655D01*
X694719Y236764D01*
X694691Y236875D01*
X694676Y236899D01*
X694668Y236926D01*
X694604Y237021D01*
X694545Y237120D01*
X694525Y237139D01*
X694510Y237162D01*
X694422Y237236D01*
X694338Y237314D01*
X694313Y237327D01*
X694292Y237345D01*
X694187Y237391D01*
X694085Y237444D01*
X694060Y237448D01*
X694032Y237460D01*
X693768Y237497D01*
X693754Y237499D01*
X691757Y237499D01*
X689999Y239257D01*
X689999Y251743D01*
X691757Y253501D01*
X705243Y253501D01*
X707079Y251664D01*
X707122Y251592D01*
X707157Y251515D01*
X707195Y251470D01*
X707224Y251420D01*
X707286Y251362D01*
X707340Y251298D01*
X707389Y251266D01*
X707432Y251226D01*
X707507Y251187D01*
X707577Y251140D01*
X707633Y251123D01*
X707685Y251096D01*
X707753Y251085D01*
X707848Y251055D01*
X707948Y251052D01*
X708016Y251041D01*
X714384Y251041D01*
X714442Y251049D01*
X714500Y251047D01*
X714582Y251069D01*
X714666Y251081D01*
X714719Y251104D01*
X714775Y251119D01*
X714848Y251162D01*
X714925Y251197D01*
X714970Y251235D01*
X715020Y251264D01*
X715078Y251326D01*
X715142Y251380D01*
X715174Y251429D01*
X715214Y251472D01*
X715253Y251547D01*
X715300Y251617D01*
X715312Y251655D01*
X716938Y253282D01*
X716974Y253329D01*
X717016Y253369D01*
X717059Y253442D01*
X717109Y253509D01*
X717130Y253564D01*
X717160Y253614D01*
X717180Y253696D01*
X717211Y253775D01*
X717215Y253833D01*
X717230Y253890D01*
X717227Y253974D01*
X717234Y254058D01*
X717223Y254116D01*
X717221Y254174D01*
X717195Y254254D01*
X717178Y254337D01*
X717151Y254389D01*
X717133Y254445D01*
X717093Y254501D01*
X717047Y254589D01*
X716979Y254662D01*
X716938Y254718D01*
X715399Y256257D01*
X715399Y262744D01*
X715387Y262831D01*
X715384Y262918D01*
X715367Y262971D01*
X715359Y263026D01*
X715324Y263106D01*
X715297Y263189D01*
X715269Y263228D01*
X715243Y263285D01*
X715147Y263399D01*
X715102Y263462D01*
X708203Y270361D01*
X707359Y272398D01*
X707359Y333002D01*
X708203Y335039D01*
X731711Y358547D01*
X733748Y359391D01*
X739534Y359391D01*
X739592Y359399D01*
X739650Y359397D01*
X739732Y359419D01*
X739816Y359431D01*
X739869Y359454D01*
X739925Y359469D01*
X739998Y359512D01*
X740075Y359547D01*
X740120Y359585D01*
X740170Y359614D01*
X740228Y359676D01*
X740292Y359730D01*
X740324Y359779D01*
X740364Y359822D01*
X740403Y359897D01*
X740450Y359967D01*
X740467Y360023D01*
X740494Y360075D01*
X740505Y360143D01*
X740535Y360238D01*
X740538Y360338D01*
X740549Y360406D01*
X740549Y363439D01*
X742148Y367298D01*
X745102Y370252D01*
X748961Y371851D01*
X813139Y371851D01*
X816998Y370252D01*
X819952Y367298D01*
X821357Y363907D01*
X821357Y363906D01*
X821358Y363905D01*
X821429Y363784D01*
X821501Y363663D01*
X821502Y363662D01*
X821503Y363660D01*
X821607Y363563D01*
X821708Y363467D01*
X821709Y363467D01*
X821710Y363466D01*
X821836Y363401D01*
X821960Y363337D01*
X821962Y363337D01*
X821963Y363336D01*
X821978Y363334D01*
X822239Y363282D01*
X822270Y363285D01*
X822295Y363281D01*
X878274Y363281D01*
X878361Y363293D01*
X878448Y363296D01*
X878501Y363313D01*
X878556Y363321D01*
X878636Y363356D01*
X878719Y363383D01*
X878758Y363411D01*
X878815Y363437D01*
X878929Y363533D01*
X878992Y363578D01*
X881636Y366221D01*
X886414Y368201D01*
X891586Y368201D01*
X896364Y366221D01*
X898608Y363978D01*
X898677Y363926D01*
X898741Y363866D01*
X898791Y363840D01*
X898835Y363807D01*
X898917Y363776D01*
X898995Y363736D01*
X899042Y363728D01*
X899101Y363706D01*
X899248Y363694D01*
X899326Y363681D01*
X1157307Y363681D01*
X1160277Y362450D01*
X1183130Y339598D01*
X1183200Y339546D01*
X1183263Y339486D01*
X1183313Y339460D01*
X1183357Y339427D01*
X1183439Y339396D01*
X1183517Y339356D01*
X1183564Y339348D01*
X1183623Y339326D01*
X1183770Y339314D01*
X1183848Y339301D01*
X1186793Y339301D01*
X1188551Y337543D01*
X1188551Y319357D01*
X1186793Y317599D01*
X1168607Y317599D01*
X1166849Y319357D01*
X1166849Y332602D01*
X1166837Y332689D01*
X1166834Y332776D01*
X1166817Y332829D01*
X1166809Y332884D01*
X1166774Y332964D01*
X1166747Y333047D01*
X1166719Y333086D01*
X1166693Y333143D01*
X1166597Y333257D01*
X1166552Y333320D01*
X1152650Y347222D01*
X1152580Y347274D01*
X1152517Y347334D01*
X1152467Y347360D01*
X1152423Y347393D01*
X1152341Y347424D01*
X1152263Y347464D01*
X1152216Y347472D01*
X1152157Y347494D01*
X1152010Y347506D01*
X1151932Y347519D01*
X955246Y347519D01*
X955188Y347511D01*
X955130Y347513D01*
X955048Y347491D01*
X954964Y347479D01*
X954911Y347456D01*
X954855Y347441D01*
X954782Y347398D01*
X954705Y347363D01*
X954660Y347325D01*
X954610Y347296D01*
X954552Y347234D01*
X954488Y347180D01*
X954456Y347131D01*
X954416Y347088D01*
X954377Y347013D01*
X954330Y346943D01*
X954313Y346887D01*
X954286Y346835D01*
X954275Y346767D01*
X954245Y346672D01*
X954242Y346572D01*
X954231Y346504D01*
X954231Y315893D01*
X953000Y312923D01*
X866898Y226820D01*
X866846Y226750D01*
X866786Y226687D01*
X866760Y226637D01*
X866727Y226593D01*
X866696Y226511D01*
X866656Y226433D01*
X866648Y226386D01*
X866626Y226327D01*
X866614Y226180D01*
X866601Y226102D01*
X866601Y216106D01*
X866609Y216048D01*
X866607Y215990D01*
X866629Y215908D01*
X866641Y215824D01*
X866664Y215771D01*
X866679Y215715D01*
X866722Y215642D01*
X866757Y215565D01*
X866795Y215520D01*
X866824Y215470D01*
X866886Y215412D01*
X866940Y215348D01*
X866989Y215316D01*
X867032Y215276D01*
X867107Y215237D01*
X867177Y215190D01*
X867233Y215173D01*
X867285Y215146D01*
X867353Y215135D01*
X867448Y215105D01*
X867548Y215102D01*
X867616Y215091D01*
X871484Y215091D01*
X871542Y215099D01*
X871600Y215097D01*
X871682Y215119D01*
X871766Y215131D01*
X871819Y215154D01*
X871875Y215169D01*
X871948Y215212D01*
X872025Y215247D01*
X872070Y215285D01*
X872120Y215314D01*
X872178Y215376D01*
X872242Y215430D01*
X872274Y215479D01*
X872314Y215522D01*
X872353Y215597D01*
X872400Y215667D01*
X872417Y215723D01*
X872444Y215775D01*
X872455Y215843D01*
X872485Y215938D01*
X872488Y216038D01*
X872499Y216106D01*
X872499Y216293D01*
X874257Y218051D01*
X886743Y218051D01*
X888282Y216512D01*
X888329Y216476D01*
X888369Y216434D01*
X888442Y216391D01*
X888509Y216341D01*
X888564Y216320D01*
X888614Y216290D01*
X888696Y216270D01*
X888775Y216239D01*
X888833Y216235D01*
X888890Y216220D01*
X888974Y216223D01*
X889058Y216216D01*
X889116Y216227D01*
X889174Y216229D01*
X889254Y216255D01*
X889337Y216272D01*
X889389Y216299D01*
X889445Y216317D01*
X889501Y216357D01*
X889589Y216403D01*
X889662Y216471D01*
X889718Y216512D01*
X891257Y218051D01*
X903743Y218051D01*
X905501Y216293D01*
X905501Y216106D01*
X905509Y216048D01*
X905507Y215990D01*
X905529Y215908D01*
X905541Y215824D01*
X905564Y215771D01*
X905579Y215715D01*
X905622Y215642D01*
X905657Y215565D01*
X905695Y215520D01*
X905724Y215470D01*
X905786Y215412D01*
X905840Y215348D01*
X905889Y215316D01*
X905932Y215276D01*
X906007Y215237D01*
X906077Y215190D01*
X906133Y215173D01*
X906185Y215146D01*
X906253Y215135D01*
X906348Y215105D01*
X906448Y215102D01*
X906516Y215091D01*
X909584Y215091D01*
X909642Y215099D01*
X909700Y215097D01*
X909782Y215119D01*
X909866Y215131D01*
X909919Y215154D01*
X909975Y215169D01*
X910048Y215212D01*
X910125Y215247D01*
X910170Y215285D01*
X910220Y215314D01*
X910278Y215376D01*
X910342Y215430D01*
X910374Y215479D01*
X910414Y215522D01*
X910453Y215597D01*
X910500Y215667D01*
X910517Y215723D01*
X910544Y215775D01*
X910555Y215843D01*
X910585Y215938D01*
X910588Y216038D01*
X910599Y216106D01*
X910599Y216293D01*
X912357Y218051D01*
X924843Y218051D01*
X926601Y216293D01*
X926601Y204851D01*
X926609Y204793D01*
X926607Y204735D01*
X926629Y204653D01*
X926641Y204569D01*
X926664Y204516D01*
X926679Y204460D01*
X926722Y204387D01*
X926757Y204310D01*
X926795Y204265D01*
X926824Y204215D01*
X926886Y204157D01*
X926940Y204093D01*
X926989Y204061D01*
X927032Y204021D01*
X927107Y203982D01*
X927177Y203935D01*
X927233Y203918D01*
X927285Y203891D01*
X927353Y203880D01*
X927448Y203850D01*
X927548Y203847D01*
X927616Y203836D01*
X933713Y203836D01*
X934086Y203463D01*
X934086Y174616D01*
X934094Y174558D01*
X934092Y174500D01*
X934114Y174418D01*
X934126Y174334D01*
X934149Y174281D01*
X934164Y174225D01*
X934207Y174152D01*
X934242Y174075D01*
X934280Y174030D01*
X934309Y173980D01*
X934371Y173922D01*
X934425Y173858D01*
X934474Y173826D01*
X934517Y173786D01*
X934592Y173747D01*
X934662Y173700D01*
X934718Y173683D01*
X934770Y173656D01*
X934838Y173645D01*
X934933Y173615D01*
X935033Y173612D01*
X935101Y173601D01*
X941843Y173601D01*
X943601Y171843D01*
X943601Y171656D01*
X943609Y171598D01*
X943607Y171540D01*
X943629Y171458D01*
X943641Y171374D01*
X943664Y171321D01*
X943679Y171265D01*
X943722Y171192D01*
X943757Y171115D01*
X943795Y171070D01*
X943824Y171020D01*
X943886Y170962D01*
X943940Y170898D01*
X943989Y170866D01*
X944032Y170826D01*
X944107Y170787D01*
X944177Y170740D01*
X944233Y170723D01*
X944285Y170696D01*
X944353Y170685D01*
X944448Y170655D01*
X944548Y170652D01*
X944616Y170641D01*
X973494Y170641D01*
X973552Y170649D01*
X973610Y170647D01*
X973692Y170669D01*
X973776Y170681D01*
X973829Y170704D01*
X973885Y170719D01*
X973958Y170762D01*
X974035Y170797D01*
X974080Y170835D01*
X974130Y170864D01*
X974188Y170926D01*
X974252Y170980D01*
X974284Y171029D01*
X974324Y171072D01*
X974363Y171147D01*
X974410Y171217D01*
X974427Y171273D01*
X974454Y171325D01*
X974465Y171393D01*
X974495Y171488D01*
X974498Y171588D01*
X974509Y171656D01*
X974509Y298397D01*
X975740Y301367D01*
X978155Y303783D01*
X1007257Y332885D01*
X1009673Y335300D01*
X1012643Y336531D01*
X1140015Y336531D01*
X1140102Y336543D01*
X1140189Y336546D01*
X1140242Y336563D01*
X1140296Y336571D01*
X1140376Y336606D01*
X1140459Y336633D01*
X1140499Y336661D01*
X1140556Y336687D01*
X1140669Y336783D01*
X1140733Y336828D01*
X1141553Y337649D01*
X1145542Y339301D01*
X1149858Y339301D01*
X1153847Y337649D01*
X1156899Y334597D01*
X1158551Y330608D01*
X1158551Y326292D01*
X1156899Y322303D01*
X1153847Y319251D01*
X1149858Y317599D01*
X1145542Y317599D01*
X1141553Y319251D01*
X1140733Y320072D01*
X1140663Y320124D01*
X1140599Y320184D01*
X1140550Y320210D01*
X1140506Y320243D01*
X1140424Y320274D01*
X1140346Y320314D01*
X1140298Y320322D01*
X1140240Y320344D01*
X1140092Y320356D01*
X1140015Y320369D01*
X1018018Y320369D01*
X1017931Y320357D01*
X1017844Y320354D01*
X1017791Y320337D01*
X1017736Y320329D01*
X1017656Y320294D01*
X1017573Y320267D01*
X1017534Y320239D01*
X1017477Y320213D01*
X1017363Y320117D01*
X1017300Y320072D01*
X990968Y293740D01*
X990916Y293670D01*
X990856Y293607D01*
X990830Y293557D01*
X990797Y293513D01*
X990766Y293431D01*
X990726Y293353D01*
X990718Y293306D01*
X990696Y293247D01*
X990684Y293100D01*
X990671Y293022D01*
X990671Y133403D01*
X989440Y130433D01*
X988428Y129420D01*
X988376Y129350D01*
X988316Y129287D01*
X988290Y129237D01*
X988257Y129193D01*
X988226Y129111D01*
X988186Y129033D01*
X988178Y128986D01*
X988156Y128927D01*
X988144Y128780D01*
X988131Y128702D01*
X988131Y121383D01*
X988143Y121297D01*
X988146Y121209D01*
X988163Y121157D01*
X988171Y121102D01*
X988206Y121022D01*
X988233Y120939D01*
X988261Y120900D01*
X988287Y120843D01*
X988383Y120729D01*
X988405Y120698D01*
X988406Y120696D01*
X988407Y120695D01*
X988428Y120666D01*
X988551Y120543D01*
X988551Y108057D01*
X988428Y107934D01*
X988376Y107865D01*
X988316Y107801D01*
X988290Y107751D01*
X988257Y107707D01*
X988226Y107626D01*
X988186Y107548D01*
X988178Y107500D01*
X988156Y107442D01*
X988144Y107294D01*
X988131Y107217D01*
X988131Y89633D01*
X988143Y89547D01*
X988146Y89459D01*
X988163Y89407D01*
X988171Y89352D01*
X988206Y89272D01*
X988233Y89189D01*
X988261Y89150D01*
X988287Y89093D01*
X988383Y88979D01*
X988428Y88916D01*
X988629Y88714D01*
X988672Y88642D01*
X988707Y88565D01*
X988745Y88520D01*
X988774Y88470D01*
X988836Y88412D01*
X988890Y88348D01*
X988939Y88316D01*
X988982Y88276D01*
X989057Y88237D01*
X989127Y88190D01*
X989183Y88173D01*
X989235Y88146D01*
X989303Y88135D01*
X989398Y88105D01*
X989498Y88102D01*
X989566Y88091D01*
X991634Y88091D01*
X991692Y88099D01*
X991750Y88097D01*
X991832Y88119D01*
X991916Y88131D01*
X991969Y88154D01*
X992025Y88169D01*
X992098Y88212D01*
X992175Y88247D01*
X992220Y88285D01*
X992270Y88314D01*
X992328Y88376D01*
X992392Y88430D01*
X992424Y88479D01*
X992464Y88522D01*
X992503Y88597D01*
X992550Y88667D01*
X992562Y88705D01*
X994407Y90551D01*
X994594Y90551D01*
X994652Y90559D01*
X994710Y90557D01*
X994792Y90579D01*
X994876Y90591D01*
X994929Y90614D01*
X994985Y90629D01*
X995058Y90672D01*
X995135Y90707D01*
X995180Y90745D01*
X995230Y90774D01*
X995288Y90836D01*
X995352Y90890D01*
X995384Y90939D01*
X995424Y90982D01*
X995463Y91057D01*
X995510Y91127D01*
X995527Y91183D01*
X995554Y91235D01*
X995565Y91303D01*
X995595Y91398D01*
X995598Y91498D01*
X995609Y91566D01*
X995609Y100702D01*
X996285Y102335D01*
X996286Y102336D01*
X996287Y102337D01*
X996320Y102470D01*
X996356Y102610D01*
X996356Y102611D01*
X996357Y102613D01*
X996352Y102754D01*
X996348Y102894D01*
X996348Y102895D01*
X996348Y102897D01*
X996306Y103026D01*
X996262Y103165D01*
X996261Y103166D01*
X996260Y103168D01*
X996251Y103180D01*
X996103Y103401D01*
X996080Y103421D01*
X996065Y103441D01*
X995399Y104107D01*
X995399Y116593D01*
X997157Y118351D01*
X1026643Y118351D01*
X1028479Y116514D01*
X1028522Y116442D01*
X1028557Y116365D01*
X1028595Y116320D01*
X1028624Y116270D01*
X1028686Y116212D01*
X1028740Y116148D01*
X1028789Y116116D01*
X1028832Y116076D01*
X1028907Y116037D01*
X1028977Y115990D01*
X1029033Y115973D01*
X1029085Y115946D01*
X1029153Y115935D01*
X1029248Y115905D01*
X1029348Y115902D01*
X1029416Y115891D01*
X1035022Y115891D01*
X1037059Y115047D01*
X1044997Y107109D01*
X1045841Y105072D01*
X1045841Y82066D01*
X1045849Y82008D01*
X1045847Y81950D01*
X1045869Y81868D01*
X1045881Y81784D01*
X1045904Y81731D01*
X1045919Y81675D01*
X1045962Y81602D01*
X1045997Y81525D01*
X1046035Y81480D01*
X1046064Y81430D01*
X1046126Y81372D01*
X1046180Y81308D01*
X1046229Y81276D01*
X1046272Y81236D01*
X1046347Y81197D01*
X1046417Y81150D01*
X1046473Y81133D01*
X1046525Y81106D01*
X1046593Y81095D01*
X1046688Y81065D01*
X1046788Y81062D01*
X1046856Y81051D01*
X1048543Y81051D01*
X1050301Y79293D01*
X1050301Y60407D01*
X1048543Y58649D01*
X1032057Y58649D01*
X1030299Y60407D01*
X1030299Y79293D01*
X1032057Y81051D01*
X1033744Y81051D01*
X1033802Y81059D01*
X1033860Y81057D01*
X1033942Y81079D01*
X1034026Y81091D01*
X1034079Y81114D01*
X1034135Y81129D01*
X1034208Y81172D01*
X1034285Y81207D01*
X1034330Y81245D01*
X1034380Y81274D01*
X1034438Y81336D01*
X1034502Y81390D01*
X1034534Y81439D01*
X1034574Y81482D01*
X1034613Y81557D01*
X1034660Y81627D01*
X1034677Y81683D01*
X1034704Y81735D01*
X1034715Y81803D01*
X1034745Y81898D01*
X1034748Y81998D01*
X1034759Y82066D01*
X1034759Y101254D01*
X1034747Y101341D01*
X1034744Y101428D01*
X1034727Y101481D01*
X1034719Y101536D01*
X1034684Y101616D01*
X1034657Y101699D01*
X1034629Y101738D01*
X1034603Y101795D01*
X1034507Y101909D01*
X1034462Y101972D01*
X1031922Y104512D01*
X1031853Y104564D01*
X1031789Y104624D01*
X1031739Y104650D01*
X1031695Y104683D01*
X1031613Y104714D01*
X1031535Y104754D01*
X1031488Y104762D01*
X1031429Y104784D01*
X1031282Y104796D01*
X1031204Y104809D01*
X1029416Y104809D01*
X1029358Y104801D01*
X1029300Y104803D01*
X1029218Y104781D01*
X1029134Y104769D01*
X1029081Y104746D01*
X1029025Y104731D01*
X1028952Y104688D01*
X1028875Y104653D01*
X1028830Y104615D01*
X1028780Y104586D01*
X1028722Y104524D01*
X1028658Y104470D01*
X1028626Y104421D01*
X1028586Y104378D01*
X1028547Y104303D01*
X1028500Y104233D01*
X1028488Y104195D01*
X1026643Y102349D01*
X1012156Y102349D01*
X1012069Y102337D01*
X1011982Y102334D01*
X1011929Y102317D01*
X1011874Y102309D01*
X1011794Y102274D01*
X1011711Y102247D01*
X1011672Y102219D01*
X1011615Y102193D01*
X1011501Y102097D01*
X1011438Y102052D01*
X1006988Y97602D01*
X1006936Y97532D01*
X1006876Y97469D01*
X1006850Y97419D01*
X1006817Y97375D01*
X1006786Y97293D01*
X1006746Y97215D01*
X1006738Y97168D01*
X1006716Y97109D01*
X1006704Y96962D01*
X1006691Y96884D01*
X1006691Y91566D01*
X1006699Y91508D01*
X1006697Y91450D01*
X1006719Y91368D01*
X1006731Y91284D01*
X1006754Y91231D01*
X1006769Y91175D01*
X1006812Y91102D01*
X1006847Y91025D01*
X1006885Y90980D01*
X1006914Y90930D01*
X1006976Y90872D01*
X1007030Y90808D01*
X1007079Y90776D01*
X1007122Y90736D01*
X1007197Y90697D01*
X1007267Y90650D01*
X1007323Y90633D01*
X1007375Y90606D01*
X1007443Y90595D01*
X1007538Y90565D01*
X1007638Y90562D01*
X1007706Y90551D01*
X1007893Y90551D01*
X1009651Y88793D01*
X1009651Y76307D01*
X1007893Y74549D01*
X1007706Y74549D01*
X1007648Y74541D01*
X1007590Y74543D01*
X1007508Y74521D01*
X1007424Y74509D01*
X1007371Y74486D01*
X1007315Y74471D01*
X1007242Y74428D01*
X1007165Y74393D01*
X1007120Y74355D01*
X1007070Y74326D01*
X1007012Y74264D01*
X1006948Y74210D01*
X1006916Y74161D01*
X1006876Y74118D01*
X1006837Y74043D01*
X1006790Y73973D01*
X1006773Y73917D01*
X1006746Y73865D01*
X1006735Y73797D01*
X1006705Y73702D01*
X1006702Y73602D01*
X1006691Y73534D01*
X1006691Y66166D01*
X1006699Y66108D01*
X1006697Y66050D01*
X1006719Y65968D01*
X1006731Y65884D01*
X1006754Y65831D01*
X1006769Y65775D01*
X1006812Y65702D01*
X1006847Y65625D01*
X1006885Y65580D01*
X1006914Y65530D01*
X1006976Y65472D01*
X1007030Y65408D01*
X1007079Y65376D01*
X1007122Y65336D01*
X1007197Y65297D01*
X1007267Y65250D01*
X1007323Y65233D01*
X1007375Y65206D01*
X1007443Y65195D01*
X1007538Y65165D01*
X1007638Y65162D01*
X1007706Y65151D01*
X1007893Y65151D01*
X1009651Y63393D01*
X1009651Y50907D01*
X1007893Y49149D01*
X994407Y49149D01*
X992794Y50762D01*
X992770Y50780D01*
X992751Y50802D01*
X992657Y50865D01*
X992567Y50933D01*
X992539Y50944D01*
X992515Y50960D01*
X992407Y50994D01*
X992301Y51035D01*
X992272Y51037D01*
X992244Y51046D01*
X992130Y51049D01*
X992018Y51058D01*
X991989Y51052D01*
X991960Y51053D01*
X991850Y51025D01*
X991739Y51002D01*
X991713Y50989D01*
X991685Y50981D01*
X991587Y50923D01*
X991487Y50871D01*
X991465Y50851D01*
X991440Y50836D01*
X991363Y50754D01*
X991281Y50675D01*
X991266Y50650D01*
X991246Y50629D01*
X991194Y50528D01*
X991137Y50430D01*
X991130Y50402D01*
X991116Y50376D01*
X991103Y50298D01*
X991067Y50155D01*
X991069Y50092D01*
X991061Y50045D01*
X991061Y42843D01*
X989830Y39873D01*
X983747Y33790D01*
X980777Y32559D01*
X940733Y32559D01*
X937763Y33790D01*
X934069Y37483D01*
X934022Y37518D01*
X933982Y37561D01*
X933909Y37603D01*
X933842Y37654D01*
X933787Y37675D01*
X933737Y37704D01*
X933655Y37725D01*
X933576Y37755D01*
X933518Y37760D01*
X933461Y37774D01*
X933377Y37772D01*
X933293Y37779D01*
X933236Y37767D01*
X933177Y37765D01*
X933097Y37739D01*
X933014Y37723D01*
X932962Y37696D01*
X932907Y37678D01*
X932850Y37638D01*
X932762Y37592D01*
X932690Y37523D01*
X932633Y37483D01*
X931298Y36148D01*
X927439Y34549D01*
X863261Y34549D01*
X859402Y36148D01*
X856448Y39102D01*
X854849Y42961D01*
X854849Y47264D01*
X854842Y47315D01*
X854843Y47335D01*
X854842Y47339D01*
X854843Y47380D01*
X854821Y47462D01*
X854809Y47546D01*
X854786Y47599D01*
X854771Y47655D01*
X854728Y47728D01*
X854693Y47805D01*
X854655Y47850D01*
X854626Y47900D01*
X854564Y47958D01*
X854510Y48022D01*
X854461Y48054D01*
X854418Y48094D01*
X854343Y48133D01*
X854273Y48180D01*
X854217Y48197D01*
X854165Y48224D01*
X854097Y48235D01*
X854002Y48265D01*
X853902Y48268D01*
X853834Y48279D01*
X832516Y48279D01*
X832458Y48271D01*
X832400Y48273D01*
X832318Y48251D01*
X832234Y48239D01*
X832181Y48216D01*
X832125Y48201D01*
X832052Y48158D01*
X831975Y48123D01*
X831930Y48085D01*
X831880Y48056D01*
X831822Y47994D01*
X831758Y47940D01*
X831726Y47891D01*
X831686Y47848D01*
X831647Y47773D01*
X831600Y47703D01*
X831583Y47647D01*
X831556Y47595D01*
X831545Y47527D01*
X831515Y47432D01*
X831512Y47332D01*
X831501Y47264D01*
X831501Y45257D01*
X829743Y43499D01*
X817257Y43499D01*
X815718Y45038D01*
X815671Y45074D01*
X815631Y45116D01*
X815558Y45159D01*
X815491Y45209D01*
X815436Y45230D01*
X815386Y45260D01*
X815304Y45280D01*
X815225Y45311D01*
X815167Y45315D01*
X815110Y45330D01*
X815026Y45327D01*
X814942Y45334D01*
X814884Y45323D01*
X814826Y45321D01*
X814746Y45295D01*
X814663Y45278D01*
X814611Y45251D01*
X814555Y45233D01*
X814499Y45193D01*
X814411Y45147D01*
X814338Y45078D01*
X814282Y45038D01*
X812743Y43499D01*
X800257Y43499D01*
X799218Y44538D01*
X799171Y44574D01*
X799131Y44616D01*
X799058Y44659D01*
X798991Y44709D01*
X798936Y44730D01*
X798886Y44760D01*
X798804Y44780D01*
X798725Y44811D01*
X798667Y44815D01*
X798610Y44830D01*
X798526Y44827D01*
X798442Y44834D01*
X798384Y44823D01*
X798326Y44821D01*
X798246Y44795D01*
X798163Y44778D01*
X798111Y44751D01*
X798055Y44733D01*
X797999Y44693D01*
X797911Y44647D01*
X797838Y44579D01*
X797782Y44538D01*
X795743Y42499D01*
X780257Y42499D01*
X778499Y44257D01*
X778499Y59743D01*
X780257Y61501D01*
X795743Y61501D01*
X797782Y59462D01*
X797829Y59426D01*
X797869Y59384D01*
X797942Y59341D01*
X798009Y59291D01*
X798064Y59270D01*
X798114Y59240D01*
X798196Y59219D01*
X798275Y59189D01*
X798333Y59185D01*
X798390Y59170D01*
X798474Y59173D01*
X798558Y59166D01*
X798615Y59177D01*
X798674Y59179D01*
X798754Y59205D01*
X798837Y59222D01*
X798889Y59249D01*
X798944Y59267D01*
X799001Y59307D01*
X799089Y59353D01*
X799162Y59422D01*
X799218Y59462D01*
X800257Y60501D01*
X812743Y60501D01*
X814282Y58962D01*
X814329Y58926D01*
X814369Y58884D01*
X814442Y58841D01*
X814509Y58791D01*
X814564Y58770D01*
X814614Y58740D01*
X814696Y58720D01*
X814775Y58689D01*
X814833Y58685D01*
X814890Y58670D01*
X814974Y58673D01*
X815058Y58666D01*
X815116Y58677D01*
X815174Y58679D01*
X815254Y58705D01*
X815337Y58722D01*
X815389Y58749D01*
X815445Y58767D01*
X815501Y58807D01*
X815589Y58853D01*
X815662Y58921D01*
X815718Y58962D01*
X817257Y60501D01*
X829743Y60501D01*
X831501Y58743D01*
X831501Y57836D01*
X831509Y57778D01*
X831507Y57720D01*
X831529Y57638D01*
X831541Y57554D01*
X831564Y57501D01*
X831579Y57445D01*
X831622Y57372D01*
X831657Y57295D01*
X831695Y57250D01*
X831724Y57200D01*
X831786Y57142D01*
X831840Y57078D01*
X831889Y57046D01*
X831932Y57006D01*
X832007Y56967D01*
X832077Y56920D01*
X832133Y56903D01*
X832185Y56876D01*
X832253Y56865D01*
X832348Y56835D01*
X832448Y56832D01*
X832516Y56821D01*
X853834Y56821D01*
X853892Y56829D01*
X853950Y56827D01*
X854032Y56849D01*
X854116Y56861D01*
X854169Y56884D01*
X854225Y56899D01*
X854298Y56942D01*
X854375Y56977D01*
X854420Y57015D01*
X854470Y57044D01*
X854528Y57106D01*
X854592Y57160D01*
X854624Y57209D01*
X854664Y57252D01*
X854703Y57327D01*
X854750Y57397D01*
X854767Y57453D01*
X854794Y57505D01*
X854805Y57573D01*
X854835Y57668D01*
X854838Y57768D01*
X854849Y57836D01*
X854849Y61849D01*
X854841Y61907D01*
X854843Y61965D01*
X854821Y62047D01*
X854809Y62131D01*
X854786Y62184D01*
X854771Y62240D01*
X854728Y62313D01*
X854693Y62390D01*
X854655Y62435D01*
X854626Y62485D01*
X854564Y62543D01*
X854510Y62607D01*
X854461Y62639D01*
X854418Y62679D01*
X854343Y62718D01*
X854273Y62765D01*
X854217Y62782D01*
X854165Y62809D01*
X854097Y62820D01*
X854002Y62850D01*
X853902Y62853D01*
X853834Y62864D01*
X850637Y62864D01*
X850264Y63237D01*
X850264Y101863D01*
X850637Y102236D01*
X853834Y102236D01*
X853892Y102244D01*
X853950Y102242D01*
X854032Y102264D01*
X854116Y102276D01*
X854169Y102299D01*
X854225Y102314D01*
X854298Y102357D01*
X854375Y102392D01*
X854420Y102430D01*
X854470Y102459D01*
X854528Y102521D01*
X854592Y102575D01*
X854624Y102624D01*
X854664Y102667D01*
X854703Y102742D01*
X854750Y102812D01*
X854767Y102868D01*
X854794Y102920D01*
X854805Y102988D01*
X854835Y103083D01*
X854838Y103183D01*
X854849Y103251D01*
X854849Y106542D01*
X854849Y106543D01*
X854849Y106545D01*
X854829Y106685D01*
X854809Y106823D01*
X854809Y106825D01*
X854809Y106826D01*
X854752Y106952D01*
X854693Y107082D01*
X854692Y107084D01*
X854691Y107085D01*
X854600Y107192D01*
X854510Y107299D01*
X854508Y107300D01*
X854507Y107302D01*
X854494Y107310D01*
X854273Y107457D01*
X854244Y107466D01*
X854223Y107480D01*
X853321Y107853D01*
X838583Y122591D01*
X837739Y124628D01*
X837739Y140734D01*
X837731Y140792D01*
X837733Y140850D01*
X837711Y140932D01*
X837699Y141016D01*
X837676Y141069D01*
X837661Y141125D01*
X837618Y141198D01*
X837583Y141275D01*
X837545Y141320D01*
X837516Y141370D01*
X837454Y141428D01*
X837400Y141492D01*
X837351Y141524D01*
X837308Y141564D01*
X837233Y141603D01*
X837163Y141650D01*
X837125Y141662D01*
X835279Y143507D01*
X835279Y156993D01*
X836318Y158032D01*
X836354Y158079D01*
X836396Y158119D01*
X836439Y158192D01*
X836489Y158259D01*
X836510Y158314D01*
X836540Y158364D01*
X836560Y158446D01*
X836591Y158525D01*
X836595Y158583D01*
X836610Y158640D01*
X836607Y158724D01*
X836614Y158808D01*
X836603Y158866D01*
X836601Y158924D01*
X836575Y159004D01*
X836558Y159087D01*
X836531Y159139D01*
X836513Y159195D01*
X836473Y159251D01*
X836427Y159339D01*
X836359Y159412D01*
X836318Y159468D01*
X835279Y160507D01*
X835279Y166994D01*
X835267Y167081D01*
X835264Y167169D01*
X835247Y167221D01*
X835239Y167276D01*
X835204Y167356D01*
X835177Y167439D01*
X835149Y167478D01*
X835123Y167535D01*
X835053Y167618D01*
X835032Y167654D01*
X835007Y167677D01*
X834982Y167712D01*
X833503Y169191D01*
X832659Y171228D01*
X832659Y173922D01*
X832647Y174009D01*
X832644Y174096D01*
X832627Y174149D01*
X832619Y174204D01*
X832584Y174283D01*
X832557Y174367D01*
X832529Y174406D01*
X832503Y174463D01*
X832407Y174576D01*
X832362Y174640D01*
X829508Y177494D01*
X827719Y181813D01*
X827719Y186487D01*
X829508Y190806D01*
X832814Y194112D01*
X837133Y195901D01*
X841807Y195901D01*
X846126Y194112D01*
X848706Y191532D01*
X848730Y191514D01*
X848749Y191492D01*
X848843Y191429D01*
X848933Y191361D01*
X848961Y191351D01*
X848985Y191334D01*
X849093Y191300D01*
X849199Y191260D01*
X849228Y191257D01*
X849256Y191249D01*
X849370Y191246D01*
X849482Y191236D01*
X849511Y191242D01*
X849540Y191241D01*
X849650Y191270D01*
X849761Y191292D01*
X849787Y191306D01*
X849815Y191313D01*
X849913Y191371D01*
X850013Y191423D01*
X850035Y191443D01*
X850060Y191458D01*
X850137Y191541D01*
X850219Y191619D01*
X850234Y191644D01*
X850254Y191666D01*
X850306Y191766D01*
X850363Y191864D01*
X850370Y191893D01*
X850384Y191919D01*
X850397Y191996D01*
X850433Y192140D01*
X850431Y192202D01*
X850439Y192250D01*
X850439Y231477D01*
X851670Y234447D01*
X937772Y320550D01*
X937824Y320620D01*
X937884Y320683D01*
X937910Y320733D01*
X937943Y320777D01*
X937974Y320859D01*
X938014Y320937D01*
X938022Y320984D01*
X938044Y321043D01*
X938054Y321165D01*
X938055Y321168D01*
X938056Y321183D01*
X938056Y321190D01*
X938069Y321268D01*
X938069Y346504D01*
X938061Y346562D01*
X938063Y346620D01*
X938041Y346702D01*
X938029Y346786D01*
X938006Y346839D01*
X937991Y346895D01*
X937948Y346968D01*
X937913Y347045D01*
X937875Y347090D01*
X937846Y347140D01*
X937784Y347198D01*
X937730Y347262D01*
X937681Y347294D01*
X937638Y347334D01*
X937563Y347373D01*
X937493Y347420D01*
X937437Y347437D01*
X937385Y347464D01*
X937317Y347475D01*
X937222Y347505D01*
X937122Y347508D01*
X937054Y347519D01*
X900126Y347519D01*
X900039Y347507D01*
X899952Y347504D01*
X899899Y347487D01*
X899844Y347479D01*
X899764Y347444D01*
X899681Y347417D01*
X899642Y347389D01*
X899585Y347363D01*
X899471Y347267D01*
X899408Y347222D01*
X896364Y344179D01*
X891586Y342199D01*
X886414Y342199D01*
X881636Y344179D01*
X878992Y346822D01*
X878923Y346874D01*
X878859Y346934D01*
X878809Y346960D01*
X878765Y346993D01*
X878683Y347024D01*
X878605Y347064D01*
X878558Y347072D01*
X878499Y347094D01*
X878352Y347106D01*
X878274Y347119D01*
X822566Y347119D01*
X822508Y347111D01*
X822450Y347113D01*
X822368Y347091D01*
X822284Y347079D01*
X822231Y347056D01*
X822175Y347041D01*
X822102Y346998D01*
X822025Y346963D01*
X821980Y346925D01*
X821930Y346896D01*
X821872Y346834D01*
X821808Y346780D01*
X821776Y346731D01*
X821736Y346688D01*
X821697Y346613D01*
X821650Y346543D01*
X821633Y346487D01*
X821606Y346435D01*
X821595Y346367D01*
X821565Y346272D01*
X821562Y346172D01*
X821551Y346104D01*
X821551Y344551D01*
X821559Y344493D01*
X821557Y344435D01*
X821579Y344353D01*
X821591Y344269D01*
X821614Y344216D01*
X821629Y344160D01*
X821672Y344087D01*
X821707Y344010D01*
X821745Y343965D01*
X821774Y343915D01*
X821836Y343857D01*
X821890Y343793D01*
X821939Y343761D01*
X821982Y343721D01*
X822057Y343682D01*
X822127Y343635D01*
X822183Y343618D01*
X822235Y343591D01*
X822303Y343580D01*
X822398Y343550D01*
X822498Y343547D01*
X822566Y343536D01*
X832113Y343536D01*
X832486Y343163D01*
X832486Y310887D01*
X832113Y310514D01*
X825237Y310514D01*
X824567Y311184D01*
X823249Y312502D01*
X823225Y312520D01*
X823206Y312542D01*
X823112Y312605D01*
X823022Y312673D01*
X822994Y312683D01*
X822970Y312700D01*
X822862Y312734D01*
X822756Y312774D01*
X822727Y312777D01*
X822699Y312785D01*
X822585Y312788D01*
X822473Y312798D01*
X822444Y312792D01*
X822415Y312793D01*
X822305Y312764D01*
X822194Y312742D01*
X822168Y312728D01*
X822140Y312721D01*
X822042Y312663D01*
X821942Y312611D01*
X821920Y312591D01*
X821895Y312576D01*
X821818Y312493D01*
X821736Y312415D01*
X821721Y312390D01*
X821701Y312368D01*
X821649Y312268D01*
X821592Y312170D01*
X821585Y312141D01*
X821571Y312115D01*
X821558Y312038D01*
X821522Y311894D01*
X821524Y311832D01*
X821516Y311784D01*
X821516Y303725D01*
X821520Y303695D01*
X821518Y303664D01*
X821535Y303587D01*
X821551Y303478D01*
X821551Y287706D01*
X821563Y287619D01*
X821566Y287532D01*
X821583Y287479D01*
X821591Y287424D01*
X821626Y287344D01*
X821653Y287261D01*
X821681Y287222D01*
X821707Y287165D01*
X821803Y287051D01*
X821848Y286988D01*
X833997Y274839D01*
X834841Y272802D01*
X834841Y250398D01*
X833997Y248361D01*
X831598Y245962D01*
X831546Y245892D01*
X831486Y245829D01*
X831460Y245779D01*
X831427Y245735D01*
X831396Y245653D01*
X831356Y245576D01*
X831348Y245528D01*
X831326Y245469D01*
X831318Y245369D01*
X831315Y245360D01*
X831314Y245322D01*
X831301Y245244D01*
X831301Y238757D01*
X830262Y237718D01*
X830226Y237671D01*
X830184Y237631D01*
X830141Y237558D01*
X830091Y237491D01*
X830070Y237436D01*
X830040Y237386D01*
X830020Y237304D01*
X829989Y237225D01*
X829985Y237167D01*
X829970Y237110D01*
X829973Y237026D01*
X829966Y236942D01*
X829977Y236884D01*
X829979Y236826D01*
X830005Y236746D01*
X830022Y236663D01*
X830049Y236611D01*
X830067Y236555D01*
X830107Y236499D01*
X830153Y236411D01*
X830221Y236338D01*
X830262Y236282D01*
X831301Y235243D01*
X831301Y221757D01*
X829543Y219999D01*
X821701Y219999D01*
X821670Y219995D01*
X821639Y219997D01*
X821563Y219980D01*
X821419Y219959D01*
X813245Y219959D01*
X813158Y219947D01*
X813071Y219944D01*
X813018Y219927D01*
X812963Y219919D01*
X812883Y219884D01*
X812800Y219857D01*
X812761Y219829D01*
X812704Y219803D01*
X812591Y219707D01*
X812527Y219662D01*
X809864Y216999D01*
X803556Y216999D01*
X803498Y216991D01*
X803440Y216993D01*
X803358Y216971D01*
X803274Y216959D01*
X803221Y216936D01*
X803165Y216921D01*
X803092Y216878D01*
X803015Y216843D01*
X802970Y216805D01*
X802920Y216776D01*
X802862Y216714D01*
X802798Y216660D01*
X802766Y216611D01*
X802726Y216568D01*
X802687Y216493D01*
X802640Y216423D01*
X802623Y216367D01*
X802596Y216315D01*
X802585Y216247D01*
X802555Y216152D01*
X802552Y216052D01*
X802541Y215984D01*
X802541Y204898D01*
X801697Y202861D01*
X796139Y197303D01*
X794102Y196459D01*
X782102Y196459D01*
X782101Y196459D01*
X782099Y196459D01*
X781960Y196439D01*
X781821Y196419D01*
X781819Y196419D01*
X781818Y196419D01*
X781692Y196362D01*
X781561Y196303D01*
X781560Y196302D01*
X781559Y196301D01*
X781452Y196210D01*
X781344Y196120D01*
X781343Y196118D01*
X781342Y196117D01*
X781334Y196104D01*
X781187Y195883D01*
X781177Y195854D01*
X781164Y195833D01*
X780962Y195344D01*
X777656Y192038D01*
X773337Y190249D01*
X768663Y190249D01*
X764344Y192038D01*
X761038Y195344D01*
X759249Y199663D01*
X759249Y204337D01*
X761038Y208656D01*
X764049Y211667D01*
X764118Y211759D01*
X764192Y211847D01*
X764204Y211872D01*
X764220Y211895D01*
X764261Y212002D01*
X764308Y212107D01*
X764311Y212134D01*
X764321Y212160D01*
X764331Y212275D01*
X764347Y212388D01*
X764343Y212416D01*
X764345Y212443D01*
X764322Y212556D01*
X764306Y212670D01*
X764295Y212695D01*
X764289Y212722D01*
X764236Y212824D01*
X764189Y212929D01*
X764171Y212950D01*
X764158Y212975D01*
X764079Y213058D01*
X764005Y213145D01*
X763983Y213158D01*
X763962Y213181D01*
X763733Y213315D01*
X763720Y213323D01*
X762948Y213643D01*
X759643Y216948D01*
X757854Y221267D01*
X757854Y225942D01*
X759643Y230261D01*
X762948Y233566D01*
X766762Y235146D01*
X766836Y235190D01*
X766914Y235225D01*
X766958Y235262D01*
X767007Y235291D01*
X767066Y235353D01*
X767131Y235409D01*
X767163Y235456D01*
X767202Y235497D01*
X767241Y235574D01*
X767289Y235645D01*
X767306Y235699D01*
X767332Y235750D01*
X767349Y235834D01*
X767375Y235916D01*
X767376Y235973D01*
X767387Y236029D01*
X767380Y236114D01*
X767382Y236200D01*
X767368Y236255D01*
X767363Y236312D01*
X767332Y236392D01*
X767310Y236475D01*
X767281Y236524D01*
X767261Y236577D01*
X767209Y236646D01*
X767165Y236720D01*
X767124Y236759D01*
X767089Y236804D01*
X767020Y236856D01*
X766958Y236914D01*
X766907Y236940D01*
X766862Y236974D01*
X766781Y237005D01*
X766705Y237044D01*
X766656Y237052D01*
X766596Y237075D01*
X766451Y237086D01*
X766374Y237099D01*
X758957Y237099D01*
X757199Y238857D01*
X757199Y239044D01*
X757191Y239102D01*
X757193Y239160D01*
X757171Y239242D01*
X757159Y239326D01*
X757136Y239379D01*
X757121Y239435D01*
X757078Y239508D01*
X757043Y239585D01*
X757005Y239630D01*
X756976Y239680D01*
X756914Y239738D01*
X756860Y239802D01*
X756811Y239834D01*
X756768Y239874D01*
X756693Y239913D01*
X756623Y239960D01*
X756567Y239977D01*
X756515Y240004D01*
X756447Y240015D01*
X756352Y240045D01*
X756252Y240048D01*
X756184Y240059D01*
X755166Y240059D01*
X755108Y240051D01*
X755050Y240053D01*
X754968Y240031D01*
X754884Y240019D01*
X754831Y239996D01*
X754775Y239981D01*
X754702Y239938D01*
X754625Y239903D01*
X754580Y239865D01*
X754530Y239836D01*
X754472Y239774D01*
X754408Y239720D01*
X754376Y239671D01*
X754336Y239628D01*
X754297Y239553D01*
X754250Y239483D01*
X754233Y239427D01*
X754206Y239375D01*
X754195Y239307D01*
X754165Y239212D01*
X754162Y239112D01*
X754151Y239044D01*
X754151Y238857D01*
X752314Y237021D01*
X752242Y236978D01*
X752165Y236943D01*
X752120Y236905D01*
X752070Y236876D01*
X752012Y236814D01*
X751948Y236760D01*
X751916Y236711D01*
X751876Y236668D01*
X751837Y236593D01*
X751790Y236523D01*
X751773Y236467D01*
X751746Y236415D01*
X751735Y236347D01*
X751705Y236252D01*
X751702Y236152D01*
X751691Y236084D01*
X751691Y191148D01*
X750847Y189111D01*
X749146Y187410D01*
X723642Y161906D01*
X723590Y161837D01*
X723530Y161773D01*
X723504Y161723D01*
X723471Y161679D01*
X723440Y161597D01*
X723400Y161520D01*
X723392Y161472D01*
X723370Y161413D01*
X723358Y161266D01*
X723345Y161188D01*
X723345Y158146D01*
X682594Y117395D01*
X602646Y117395D01*
X593645Y126396D01*
X593645Y144550D01*
X593633Y144637D01*
X593630Y144724D01*
X593613Y144777D01*
X593605Y144832D01*
X593570Y144912D01*
X593543Y144995D01*
X593515Y145034D01*
X593489Y145091D01*
X593393Y145204D01*
X593348Y145268D01*
X577296Y161320D01*
X574523Y164093D01*
X573099Y167530D01*
X573099Y187322D01*
X573099Y187324D01*
X573099Y187325D01*
X573090Y187392D01*
X573091Y187439D01*
X573073Y187508D01*
X573059Y187604D01*
X573059Y187605D01*
X573059Y187607D01*
X573032Y187667D01*
X573019Y187714D01*
X572982Y187777D01*
X572943Y187863D01*
X572942Y187864D01*
X572941Y187866D01*
X572900Y187914D01*
X572874Y187959D01*
X572818Y188012D01*
X572760Y188080D01*
X572758Y188081D01*
X572757Y188082D01*
X572744Y188090D01*
X572708Y188115D01*
X572667Y188153D01*
X572594Y188190D01*
X572523Y188238D01*
X572494Y188247D01*
X572473Y188260D01*
X571464Y188678D01*
X571462Y188679D01*
X571461Y188679D01*
X571325Y188714D01*
X571188Y188749D01*
X571187Y188749D01*
X571185Y188749D01*
X571045Y188745D01*
X570904Y188741D01*
X570903Y188741D01*
X570901Y188740D01*
X570770Y188698D01*
X570633Y188654D01*
X570632Y188653D01*
X570631Y188653D01*
X570619Y188644D01*
X570397Y188496D01*
X570377Y188473D01*
X570357Y188458D01*
X565413Y183514D01*
X539487Y183514D01*
X534543Y188458D01*
X534542Y188459D01*
X534541Y188460D01*
X534425Y188546D01*
X534316Y188629D01*
X534314Y188630D01*
X534313Y188631D01*
X534179Y188681D01*
X534050Y188730D01*
X534048Y188730D01*
X534047Y188731D01*
X533902Y188743D01*
X533767Y188754D01*
X533765Y188754D01*
X533764Y188754D01*
X533748Y188750D01*
X533488Y188698D01*
X533461Y188684D01*
X533436Y188678D01*
X532039Y188099D01*
X531066Y188099D01*
X531008Y188091D01*
X530950Y188093D01*
X530868Y188071D01*
X530784Y188059D01*
X530731Y188036D01*
X530675Y188021D01*
X530602Y187978D01*
X530525Y187943D01*
X530480Y187905D01*
X530430Y187876D01*
X530372Y187814D01*
X530308Y187760D01*
X530276Y187711D01*
X530236Y187668D01*
X530197Y187593D01*
X530150Y187523D01*
X530133Y187467D01*
X530106Y187415D01*
X530095Y187347D01*
X530065Y187252D01*
X530062Y187152D01*
X530051Y187084D01*
X530051Y148756D01*
X530063Y148669D01*
X530066Y148582D01*
X530083Y148529D01*
X530091Y148474D01*
X530126Y148394D01*
X530153Y148311D01*
X530181Y148272D01*
X530207Y148215D01*
X530261Y148151D01*
X530287Y148108D01*
X530322Y148075D01*
X530348Y148038D01*
X531721Y146664D01*
X533701Y141886D01*
X533701Y136714D01*
X531721Y131936D01*
X528064Y128279D01*
X523286Y126299D01*
X518114Y126299D01*
X513336Y128279D01*
X511962Y129652D01*
X511893Y129704D01*
X511829Y129764D01*
X511779Y129790D01*
X511735Y129823D01*
X511653Y129854D01*
X511575Y129894D01*
X511528Y129902D01*
X511469Y129924D01*
X511322Y129936D01*
X511244Y129949D01*
X415856Y129949D01*
X415769Y129937D01*
X415682Y129934D01*
X415629Y129917D01*
X415574Y129909D01*
X415494Y129874D01*
X415411Y129847D01*
X415372Y129819D01*
X415315Y129793D01*
X415201Y129697D01*
X415138Y129652D01*
X413764Y128279D01*
X408986Y126299D01*
X403814Y126299D01*
X399036Y128279D01*
X395379Y131936D01*
X393399Y136714D01*
X393399Y138656D01*
X393392Y138704D01*
X393393Y138707D01*
X393391Y138712D01*
X393387Y138743D01*
X393384Y138830D01*
X393367Y138883D01*
X393359Y138938D01*
X393324Y139018D01*
X393297Y139101D01*
X393269Y139140D01*
X393243Y139197D01*
X393147Y139310D01*
X393102Y139374D01*
X392473Y140003D01*
X391049Y143440D01*
X391049Y149488D01*
X391037Y149575D01*
X391034Y149662D01*
X391017Y149715D01*
X391009Y149770D01*
X390974Y149850D01*
X390947Y149933D01*
X390919Y149972D01*
X390893Y150029D01*
X390797Y150143D01*
X390752Y150206D01*
X390064Y150894D01*
X390064Y266700D01*
X390056Y266758D01*
X390058Y266816D01*
X390036Y266898D01*
X390024Y266982D01*
X390001Y267035D01*
X389986Y267091D01*
X389943Y267164D01*
X389908Y267241D01*
X389870Y267286D01*
X389841Y267336D01*
X389779Y267394D01*
X389725Y267458D01*
X389676Y267490D01*
X389633Y267530D01*
X389558Y267569D01*
X389488Y267616D01*
X389432Y267633D01*
X389380Y267660D01*
X389312Y267671D01*
X389217Y267701D01*
X389117Y267704D01*
X389049Y267715D01*
X25400Y267715D01*
X25313Y267703D01*
X25226Y267700D01*
X25173Y267683D01*
X25119Y267675D01*
X25039Y267640D01*
X24955Y267613D01*
X24916Y267585D01*
X24859Y267559D01*
X24746Y267463D01*
X24682Y267418D01*
X11982Y254718D01*
X11930Y254648D01*
X11870Y254584D01*
X11844Y254535D01*
X11811Y254491D01*
X11780Y254409D01*
X11740Y254331D01*
X11732Y254284D01*
X11710Y254225D01*
X11698Y254077D01*
X11685Y254000D01*
X11685Y19050D01*
X11697Y18963D01*
X11700Y18876D01*
X11717Y18823D01*
X11725Y18769D01*
X11760Y18689D01*
X11787Y18605D01*
X11815Y18566D01*
X11841Y18509D01*
X11937Y18396D01*
X11982Y18332D01*
X18332Y11982D01*
X18402Y11930D01*
X18466Y11870D01*
X18515Y11844D01*
X18559Y11811D01*
X18641Y11780D01*
X18719Y11740D01*
X18767Y11732D01*
X18825Y11710D01*
X18973Y11698D01*
X19050Y11685D01*
X1219200Y11685D01*
X1219287Y11697D01*
G37*
G36*
X508042Y139073D02*
X508042Y139073D01*
X508084Y139071D01*
X508151Y139093D01*
X508221Y139105D01*
X508257Y139127D01*
X508298Y139140D01*
X508371Y139194D01*
X508414Y139220D01*
X508427Y139236D01*
X508448Y139252D01*
X521148Y151952D01*
X521173Y151986D01*
X521204Y152015D01*
X521231Y152067D01*
X521240Y152079D01*
X521244Y152088D01*
X521277Y152136D01*
X521287Y152177D01*
X521307Y152215D01*
X521320Y152304D01*
X521333Y152353D01*
X521330Y152374D01*
X521334Y152400D01*
X521334Y247650D01*
X521327Y247692D01*
X521329Y247734D01*
X521307Y247801D01*
X521295Y247871D01*
X521273Y247907D01*
X521260Y247948D01*
X521206Y248021D01*
X521180Y248064D01*
X521164Y248077D01*
X521148Y248098D01*
X508448Y260798D01*
X508414Y260823D01*
X508385Y260854D01*
X508322Y260886D01*
X508264Y260927D01*
X508223Y260937D01*
X508185Y260957D01*
X508096Y260970D01*
X508047Y260983D01*
X508026Y260980D01*
X508000Y260984D01*
X457463Y260984D01*
X438598Y279848D01*
X438564Y279873D01*
X438535Y279904D01*
X438472Y279936D01*
X438414Y279977D01*
X438373Y279987D01*
X438335Y280007D01*
X438246Y280020D01*
X438197Y280033D01*
X438176Y280030D01*
X438150Y280034D01*
X393700Y280034D01*
X393635Y280023D01*
X393569Y280021D01*
X393526Y280003D01*
X393479Y279995D01*
X393422Y279961D01*
X393362Y279936D01*
X393327Y279905D01*
X393286Y279880D01*
X393245Y279829D01*
X393196Y279785D01*
X393174Y279743D01*
X393145Y279706D01*
X393124Y279644D01*
X393093Y279585D01*
X393085Y279531D01*
X393073Y279494D01*
X393074Y279454D01*
X393066Y279400D01*
X393066Y152400D01*
X393073Y152358D01*
X393071Y152316D01*
X393093Y152249D01*
X393105Y152179D01*
X393127Y152143D01*
X393140Y152102D01*
X393176Y152054D01*
X393179Y152047D01*
X393192Y152032D01*
X393194Y152029D01*
X393220Y151986D01*
X393236Y151973D01*
X393252Y151952D01*
X405952Y139252D01*
X405986Y139227D01*
X406015Y139196D01*
X406078Y139164D01*
X406136Y139123D01*
X406177Y139113D01*
X406215Y139093D01*
X406304Y139080D01*
X406353Y139068D01*
X406374Y139070D01*
X406400Y139066D01*
X508000Y139066D01*
X508042Y139073D01*
G37*
%LPC*%
G36*
X1072357Y58649D02*
X1072357Y58649D01*
X1070599Y60407D01*
X1070599Y71594D01*
X1070591Y71651D01*
X1070593Y71701D01*
X1070586Y71728D01*
X1070584Y71769D01*
X1070567Y71821D01*
X1070559Y71876D01*
X1070529Y71943D01*
X1070521Y71976D01*
X1070513Y71989D01*
X1070497Y72039D01*
X1070469Y72078D01*
X1070443Y72135D01*
X1070386Y72203D01*
X1070376Y72220D01*
X1070355Y72240D01*
X1070347Y72249D01*
X1070302Y72312D01*
X1067904Y74710D01*
X1066203Y76411D01*
X1065359Y78448D01*
X1065359Y112834D01*
X1065351Y112892D01*
X1065353Y112950D01*
X1065331Y113032D01*
X1065319Y113116D01*
X1065296Y113169D01*
X1065281Y113225D01*
X1065238Y113298D01*
X1065203Y113375D01*
X1065165Y113420D01*
X1065136Y113470D01*
X1065074Y113528D01*
X1065020Y113592D01*
X1064971Y113624D01*
X1064928Y113664D01*
X1064853Y113703D01*
X1064783Y113750D01*
X1064727Y113767D01*
X1064675Y113794D01*
X1064607Y113805D01*
X1064512Y113835D01*
X1064412Y113838D01*
X1064344Y113849D01*
X1056157Y113849D01*
X1054399Y115607D01*
X1054399Y124254D01*
X1054391Y124312D01*
X1054393Y124370D01*
X1054371Y124452D01*
X1054359Y124536D01*
X1054336Y124589D01*
X1054321Y124645D01*
X1054278Y124718D01*
X1054243Y124795D01*
X1054205Y124840D01*
X1054176Y124890D01*
X1054114Y124948D01*
X1054060Y125012D01*
X1054011Y125044D01*
X1053968Y125084D01*
X1053893Y125123D01*
X1053823Y125170D01*
X1053767Y125187D01*
X1053715Y125214D01*
X1053647Y125225D01*
X1053552Y125255D01*
X1053452Y125258D01*
X1053384Y125269D01*
X1010293Y125269D01*
X1010286Y125272D01*
X1010256Y125280D01*
X1010229Y125294D01*
X1010151Y125307D01*
X1010011Y125343D01*
X1009946Y125341D01*
X1009898Y125349D01*
X997157Y125349D01*
X995399Y127107D01*
X995399Y139593D01*
X997157Y141351D01*
X1009898Y141351D01*
X1009928Y141355D01*
X1009959Y141353D01*
X1010035Y141370D01*
X1010179Y141391D01*
X1010238Y141417D01*
X1010286Y141428D01*
X1010293Y141431D01*
X1053384Y141431D01*
X1053442Y141439D01*
X1053500Y141437D01*
X1053582Y141459D01*
X1053666Y141471D01*
X1053719Y141494D01*
X1053775Y141509D01*
X1053848Y141552D01*
X1053925Y141587D01*
X1053970Y141625D01*
X1054020Y141654D01*
X1054078Y141716D01*
X1054142Y141770D01*
X1054174Y141819D01*
X1054214Y141862D01*
X1054253Y141937D01*
X1054300Y142007D01*
X1054317Y142063D01*
X1054344Y142115D01*
X1054355Y142183D01*
X1054385Y142278D01*
X1054388Y142378D01*
X1054399Y142446D01*
X1054399Y151093D01*
X1056157Y152851D01*
X1057304Y152851D01*
X1057362Y152859D01*
X1057420Y152857D01*
X1057502Y152879D01*
X1057586Y152891D01*
X1057639Y152914D01*
X1057695Y152929D01*
X1057768Y152972D01*
X1057845Y153007D01*
X1057890Y153045D01*
X1057940Y153074D01*
X1057998Y153136D01*
X1058062Y153190D01*
X1058094Y153239D01*
X1058134Y153282D01*
X1058173Y153357D01*
X1058220Y153427D01*
X1058237Y153483D01*
X1058264Y153535D01*
X1058275Y153603D01*
X1058305Y153698D01*
X1058308Y153798D01*
X1058319Y153866D01*
X1058319Y230574D01*
X1058307Y230661D01*
X1058304Y230748D01*
X1058287Y230801D01*
X1058279Y230856D01*
X1058244Y230936D01*
X1058217Y231019D01*
X1058189Y231058D01*
X1058163Y231115D01*
X1058067Y231229D01*
X1058022Y231292D01*
X1055379Y233936D01*
X1053399Y238714D01*
X1053399Y243886D01*
X1055379Y248664D01*
X1058022Y251308D01*
X1058074Y251377D01*
X1058134Y251441D01*
X1058160Y251491D01*
X1058193Y251535D01*
X1058224Y251617D01*
X1058264Y251695D01*
X1058272Y251742D01*
X1058294Y251801D01*
X1058306Y251948D01*
X1058319Y252026D01*
X1058319Y267907D01*
X1059550Y270877D01*
X1093973Y305300D01*
X1096943Y306531D01*
X1140015Y306531D01*
X1140102Y306543D01*
X1140189Y306546D01*
X1140242Y306563D01*
X1140296Y306571D01*
X1140376Y306606D01*
X1140460Y306633D01*
X1140499Y306661D01*
X1140556Y306687D01*
X1140669Y306783D01*
X1140733Y306828D01*
X1141554Y307649D01*
X1145542Y309301D01*
X1149858Y309301D01*
X1153847Y307649D01*
X1156899Y304597D01*
X1158551Y300608D01*
X1158551Y296292D01*
X1156899Y292303D01*
X1153847Y289251D01*
X1149858Y287599D01*
X1145542Y287599D01*
X1141554Y289251D01*
X1140733Y290072D01*
X1140663Y290124D01*
X1140599Y290184D01*
X1140550Y290210D01*
X1140506Y290243D01*
X1140424Y290274D01*
X1140346Y290314D01*
X1140299Y290322D01*
X1140240Y290344D01*
X1140092Y290356D01*
X1140015Y290369D01*
X1102318Y290369D01*
X1102231Y290357D01*
X1102144Y290354D01*
X1102091Y290337D01*
X1102036Y290329D01*
X1101956Y290294D01*
X1101873Y290267D01*
X1101834Y290239D01*
X1101777Y290213D01*
X1101663Y290117D01*
X1101600Y290072D01*
X1074778Y263250D01*
X1074726Y263180D01*
X1074666Y263117D01*
X1074640Y263067D01*
X1074607Y263023D01*
X1074576Y262941D01*
X1074536Y262863D01*
X1074528Y262816D01*
X1074506Y262757D01*
X1074494Y262610D01*
X1074481Y262532D01*
X1074481Y252026D01*
X1074493Y251939D01*
X1074496Y251852D01*
X1074513Y251799D01*
X1074521Y251744D01*
X1074556Y251664D01*
X1074583Y251581D01*
X1074611Y251542D01*
X1074637Y251485D01*
X1074733Y251371D01*
X1074778Y251308D01*
X1077421Y248664D01*
X1079401Y243886D01*
X1079401Y238714D01*
X1077421Y233936D01*
X1074778Y231292D01*
X1074726Y231223D01*
X1074666Y231159D01*
X1074640Y231109D01*
X1074607Y231065D01*
X1074576Y230983D01*
X1074536Y230905D01*
X1074528Y230858D01*
X1074506Y230799D01*
X1074494Y230652D01*
X1074481Y230574D01*
X1074481Y153866D01*
X1074489Y153808D01*
X1074487Y153750D01*
X1074509Y153668D01*
X1074521Y153584D01*
X1074544Y153531D01*
X1074559Y153475D01*
X1074602Y153402D01*
X1074637Y153325D01*
X1074675Y153280D01*
X1074704Y153230D01*
X1074766Y153172D01*
X1074820Y153108D01*
X1074869Y153076D01*
X1074912Y153036D01*
X1074987Y152997D01*
X1075057Y152950D01*
X1075113Y152933D01*
X1075165Y152906D01*
X1075233Y152895D01*
X1075328Y152865D01*
X1075428Y152862D01*
X1075496Y152851D01*
X1085643Y152851D01*
X1087401Y151093D01*
X1087401Y115607D01*
X1085643Y113849D01*
X1077456Y113849D01*
X1077398Y113841D01*
X1077340Y113843D01*
X1077258Y113821D01*
X1077174Y113809D01*
X1077121Y113786D01*
X1077065Y113771D01*
X1076992Y113728D01*
X1076915Y113693D01*
X1076870Y113655D01*
X1076820Y113626D01*
X1076762Y113564D01*
X1076698Y113510D01*
X1076666Y113461D01*
X1076626Y113418D01*
X1076587Y113343D01*
X1076540Y113273D01*
X1076523Y113217D01*
X1076496Y113165D01*
X1076485Y113097D01*
X1076455Y113002D01*
X1076452Y112902D01*
X1076441Y112834D01*
X1076441Y110286D01*
X1076449Y110228D01*
X1076447Y110170D01*
X1076469Y110088D01*
X1076481Y110004D01*
X1076504Y109951D01*
X1076519Y109895D01*
X1076562Y109822D01*
X1076597Y109745D01*
X1076635Y109700D01*
X1076664Y109650D01*
X1076726Y109592D01*
X1076780Y109528D01*
X1076829Y109496D01*
X1076872Y109456D01*
X1076947Y109417D01*
X1077017Y109370D01*
X1077073Y109353D01*
X1077125Y109326D01*
X1077193Y109315D01*
X1077288Y109285D01*
X1077388Y109282D01*
X1077456Y109271D01*
X1086484Y109271D01*
X1086542Y109279D01*
X1086600Y109277D01*
X1086682Y109299D01*
X1086766Y109311D01*
X1086819Y109334D01*
X1086875Y109349D01*
X1086948Y109392D01*
X1087025Y109427D01*
X1087070Y109465D01*
X1087120Y109494D01*
X1087178Y109556D01*
X1087242Y109610D01*
X1087274Y109659D01*
X1087314Y109702D01*
X1087353Y109777D01*
X1087400Y109847D01*
X1087417Y109903D01*
X1087444Y109955D01*
X1087455Y110023D01*
X1087485Y110118D01*
X1087488Y110218D01*
X1087499Y110286D01*
X1087499Y111743D01*
X1089257Y113501D01*
X1101743Y113501D01*
X1103282Y111962D01*
X1103329Y111926D01*
X1103369Y111884D01*
X1103442Y111841D01*
X1103509Y111791D01*
X1103564Y111770D01*
X1103614Y111740D01*
X1103696Y111720D01*
X1103775Y111689D01*
X1103833Y111685D01*
X1103890Y111670D01*
X1103974Y111673D01*
X1104058Y111666D01*
X1104116Y111677D01*
X1104174Y111679D01*
X1104254Y111705D01*
X1104337Y111722D01*
X1104389Y111749D01*
X1104445Y111767D01*
X1104501Y111807D01*
X1104589Y111853D01*
X1104662Y111922D01*
X1104718Y111962D01*
X1106257Y113501D01*
X1118743Y113501D01*
X1120501Y111743D01*
X1120501Y110286D01*
X1120509Y110228D01*
X1120507Y110170D01*
X1120529Y110088D01*
X1120541Y110004D01*
X1120564Y109951D01*
X1120579Y109895D01*
X1120622Y109822D01*
X1120657Y109745D01*
X1120695Y109700D01*
X1120724Y109650D01*
X1120786Y109592D01*
X1120840Y109528D01*
X1120889Y109496D01*
X1120932Y109456D01*
X1121007Y109417D01*
X1121077Y109370D01*
X1121133Y109353D01*
X1121185Y109326D01*
X1121253Y109315D01*
X1121348Y109285D01*
X1121448Y109282D01*
X1121516Y109271D01*
X1123484Y109271D01*
X1123542Y109279D01*
X1123600Y109277D01*
X1123682Y109299D01*
X1123766Y109311D01*
X1123819Y109334D01*
X1123875Y109349D01*
X1123948Y109392D01*
X1124025Y109427D01*
X1124070Y109465D01*
X1124120Y109494D01*
X1124178Y109556D01*
X1124242Y109610D01*
X1124274Y109659D01*
X1124314Y109702D01*
X1124353Y109777D01*
X1124400Y109847D01*
X1124417Y109903D01*
X1124444Y109955D01*
X1124455Y110023D01*
X1124485Y110118D01*
X1124488Y110218D01*
X1124499Y110286D01*
X1124499Y112743D01*
X1126257Y114501D01*
X1141743Y114501D01*
X1143501Y112743D01*
X1143501Y97257D01*
X1141743Y95499D01*
X1126257Y95499D01*
X1124499Y97257D01*
X1124499Y99714D01*
X1124491Y99772D01*
X1124493Y99830D01*
X1124471Y99912D01*
X1124459Y99996D01*
X1124436Y100049D01*
X1124421Y100105D01*
X1124378Y100178D01*
X1124343Y100255D01*
X1124305Y100300D01*
X1124276Y100350D01*
X1124214Y100408D01*
X1124160Y100472D01*
X1124111Y100504D01*
X1124068Y100544D01*
X1123993Y100583D01*
X1123923Y100630D01*
X1123867Y100647D01*
X1123815Y100674D01*
X1123747Y100685D01*
X1123652Y100715D01*
X1123552Y100718D01*
X1123484Y100729D01*
X1121516Y100729D01*
X1121458Y100721D01*
X1121400Y100723D01*
X1121318Y100701D01*
X1121234Y100689D01*
X1121181Y100666D01*
X1121125Y100651D01*
X1121052Y100608D01*
X1120975Y100573D01*
X1120930Y100535D01*
X1120880Y100506D01*
X1120822Y100444D01*
X1120758Y100390D01*
X1120726Y100341D01*
X1120686Y100298D01*
X1120647Y100223D01*
X1120600Y100153D01*
X1120583Y100097D01*
X1120556Y100045D01*
X1120545Y99977D01*
X1120515Y99882D01*
X1120512Y99782D01*
X1120501Y99714D01*
X1120501Y98257D01*
X1118743Y96499D01*
X1106257Y96499D01*
X1104718Y98038D01*
X1104671Y98074D01*
X1104631Y98116D01*
X1104558Y98159D01*
X1104491Y98209D01*
X1104436Y98230D01*
X1104386Y98260D01*
X1104304Y98280D01*
X1104225Y98311D01*
X1104167Y98315D01*
X1104110Y98330D01*
X1104026Y98327D01*
X1103942Y98334D01*
X1103884Y98323D01*
X1103826Y98321D01*
X1103746Y98295D01*
X1103663Y98278D01*
X1103611Y98251D01*
X1103555Y98233D01*
X1103499Y98193D01*
X1103411Y98147D01*
X1103338Y98079D01*
X1103282Y98038D01*
X1101743Y96499D01*
X1089257Y96499D01*
X1087499Y98257D01*
X1087499Y99714D01*
X1087491Y99772D01*
X1087493Y99830D01*
X1087471Y99912D01*
X1087459Y99996D01*
X1087436Y100049D01*
X1087421Y100105D01*
X1087378Y100178D01*
X1087343Y100255D01*
X1087305Y100300D01*
X1087276Y100350D01*
X1087214Y100408D01*
X1087160Y100472D01*
X1087111Y100504D01*
X1087068Y100544D01*
X1086993Y100583D01*
X1086923Y100630D01*
X1086867Y100647D01*
X1086815Y100674D01*
X1086747Y100685D01*
X1086652Y100715D01*
X1086552Y100718D01*
X1086484Y100729D01*
X1077456Y100729D01*
X1077398Y100721D01*
X1077340Y100723D01*
X1077258Y100701D01*
X1077174Y100689D01*
X1077121Y100666D01*
X1077065Y100651D01*
X1076992Y100608D01*
X1076915Y100573D01*
X1076870Y100535D01*
X1076820Y100506D01*
X1076762Y100444D01*
X1076698Y100390D01*
X1076666Y100341D01*
X1076626Y100298D01*
X1076587Y100223D01*
X1076540Y100153D01*
X1076523Y100097D01*
X1076496Y100045D01*
X1076485Y99977D01*
X1076455Y99882D01*
X1076452Y99782D01*
X1076441Y99714D01*
X1076441Y82266D01*
X1076453Y82179D01*
X1076456Y82092D01*
X1076473Y82039D01*
X1076481Y81984D01*
X1076516Y81904D01*
X1076543Y81821D01*
X1076571Y81782D01*
X1076597Y81725D01*
X1076693Y81612D01*
X1076738Y81548D01*
X1076938Y81348D01*
X1077008Y81296D01*
X1077071Y81236D01*
X1077121Y81210D01*
X1077165Y81177D01*
X1077247Y81146D01*
X1077324Y81106D01*
X1077372Y81098D01*
X1077430Y81076D01*
X1077578Y81064D01*
X1077656Y81051D01*
X1088843Y81051D01*
X1090601Y79293D01*
X1090601Y60407D01*
X1088843Y58649D01*
X1072357Y58649D01*
G37*
%LPD*%
G36*
X680846Y120411D02*
X680846Y120411D01*
X680972Y120418D01*
X681018Y120431D01*
X681066Y120437D01*
X681185Y120479D01*
X681307Y120514D01*
X681349Y120538D01*
X681394Y120554D01*
X681501Y120623D01*
X681611Y120684D01*
X681657Y120724D01*
X681687Y120743D01*
X681721Y120778D01*
X681797Y120843D01*
X719897Y158943D01*
X719962Y159025D01*
X720011Y159075D01*
X720020Y159092D01*
X720060Y159136D01*
X720084Y159178D01*
X720114Y159216D01*
X720168Y159330D01*
X720229Y159441D01*
X720242Y159487D01*
X720263Y159531D01*
X720289Y159654D01*
X720324Y159776D01*
X720329Y159837D01*
X720336Y159872D01*
X720335Y159920D01*
X720343Y160020D01*
X720343Y185420D01*
X720340Y185446D01*
X720342Y185472D01*
X720320Y185619D01*
X720303Y185766D01*
X720295Y185791D01*
X720291Y185817D01*
X720236Y185955D01*
X720186Y186094D01*
X720172Y186116D01*
X720162Y186141D01*
X720077Y186262D01*
X719997Y186387D01*
X719978Y186405D01*
X719963Y186427D01*
X719853Y186526D01*
X719746Y186629D01*
X719724Y186643D01*
X719704Y186660D01*
X719574Y186732D01*
X719447Y186808D01*
X719422Y186816D01*
X719399Y186829D01*
X719256Y186869D01*
X719115Y186914D01*
X719089Y186916D01*
X719064Y186924D01*
X718820Y186943D01*
X712468Y186943D01*
X712342Y186929D01*
X712216Y186922D01*
X712170Y186909D01*
X712122Y186903D01*
X712003Y186861D01*
X711881Y186826D01*
X711839Y186802D01*
X711794Y186786D01*
X711687Y186717D01*
X711655Y186699D01*
X698055Y186699D01*
X698036Y186714D01*
X697922Y186768D01*
X697811Y186829D01*
X697765Y186842D01*
X697721Y186863D01*
X697598Y186889D01*
X697476Y186924D01*
X697415Y186929D01*
X697381Y186936D01*
X697332Y186935D01*
X697232Y186943D01*
X655320Y186943D01*
X655194Y186929D01*
X655068Y186922D01*
X655022Y186909D01*
X654974Y186903D01*
X654855Y186861D01*
X654733Y186826D01*
X654691Y186802D01*
X654646Y186786D01*
X654539Y186717D01*
X654429Y186656D01*
X654383Y186616D01*
X654353Y186597D01*
X654319Y186562D01*
X654243Y186497D01*
X629289Y161543D01*
X610870Y161543D01*
X610744Y161529D01*
X610618Y161522D01*
X610572Y161509D01*
X610524Y161503D01*
X610405Y161461D01*
X610283Y161426D01*
X610241Y161402D01*
X610196Y161386D01*
X610089Y161317D01*
X609979Y161256D01*
X609933Y161216D01*
X609903Y161197D01*
X609886Y161179D01*
X609884Y161178D01*
X609866Y161159D01*
X609793Y161097D01*
X597093Y148397D01*
X597014Y148298D01*
X596930Y148204D01*
X596906Y148162D01*
X596876Y148124D01*
X596822Y148010D01*
X596761Y147899D01*
X596748Y147853D01*
X596727Y147809D01*
X596701Y147686D01*
X596666Y147564D01*
X596662Y147503D01*
X596654Y147468D01*
X596655Y147420D01*
X596647Y147320D01*
X596647Y128270D01*
X596661Y128144D01*
X596668Y128018D01*
X596681Y127972D01*
X596687Y127924D01*
X596729Y127805D01*
X596764Y127683D01*
X596788Y127641D01*
X596804Y127596D01*
X596873Y127489D01*
X596934Y127379D01*
X596974Y127333D01*
X596993Y127303D01*
X597028Y127269D01*
X597093Y127193D01*
X603443Y120843D01*
X603542Y120764D01*
X603636Y120680D01*
X603678Y120656D01*
X603716Y120626D01*
X603830Y120572D01*
X603941Y120511D01*
X603987Y120498D01*
X604031Y120477D01*
X604154Y120451D01*
X604276Y120416D01*
X604337Y120412D01*
X604372Y120404D01*
X604420Y120405D01*
X604520Y120397D01*
X680720Y120397D01*
X680846Y120411D01*
G37*
G36*
X971314Y48725D02*
X971314Y48725D01*
X971343Y48722D01*
X971454Y48745D01*
X971566Y48761D01*
X971593Y48773D01*
X971622Y48778D01*
X971722Y48831D01*
X971825Y48877D01*
X971848Y48896D01*
X971874Y48909D01*
X971956Y48987D01*
X972042Y49060D01*
X972059Y49085D01*
X972080Y49105D01*
X972137Y49203D01*
X972200Y49297D01*
X972209Y49325D01*
X972224Y49350D01*
X972252Y49460D01*
X972286Y49568D01*
X972287Y49598D01*
X972294Y49626D01*
X972290Y49739D01*
X972293Y49852D01*
X972286Y49881D01*
X972285Y49910D01*
X972250Y50018D01*
X972221Y50127D01*
X972206Y50153D01*
X972197Y50181D01*
X972152Y50245D01*
X972076Y50372D01*
X972030Y50415D01*
X972002Y50454D01*
X971549Y50907D01*
X971549Y63393D01*
X971672Y63516D01*
X971724Y63585D01*
X971784Y63649D01*
X971810Y63699D01*
X971843Y63743D01*
X971874Y63824D01*
X971914Y63902D01*
X971922Y63950D01*
X971944Y64008D01*
X971956Y64156D01*
X971969Y64233D01*
X971969Y75467D01*
X971957Y75553D01*
X971954Y75641D01*
X971937Y75693D01*
X971929Y75748D01*
X971894Y75828D01*
X971867Y75911D01*
X971839Y75950D01*
X971813Y76007D01*
X971717Y76121D01*
X971672Y76184D01*
X971549Y76307D01*
X971549Y88793D01*
X971672Y88916D01*
X971724Y88985D01*
X971784Y89049D01*
X971810Y89099D01*
X971843Y89143D01*
X971874Y89224D01*
X971914Y89302D01*
X971922Y89350D01*
X971944Y89408D01*
X971956Y89556D01*
X971969Y89633D01*
X971969Y107217D01*
X971957Y107303D01*
X971954Y107391D01*
X971937Y107443D01*
X971929Y107498D01*
X971894Y107578D01*
X971867Y107661D01*
X971839Y107700D01*
X971813Y107757D01*
X971717Y107871D01*
X971672Y107934D01*
X971549Y108057D01*
X971549Y120543D01*
X971672Y120666D01*
X971724Y120735D01*
X971784Y120799D01*
X971810Y120849D01*
X971843Y120893D01*
X971874Y120974D01*
X971914Y121052D01*
X971922Y121100D01*
X971944Y121158D01*
X971956Y121306D01*
X971969Y121383D01*
X971969Y158544D01*
X971961Y158602D01*
X971963Y158660D01*
X971941Y158742D01*
X971929Y158826D01*
X971906Y158879D01*
X971891Y158935D01*
X971848Y159008D01*
X971813Y159085D01*
X971775Y159130D01*
X971746Y159180D01*
X971684Y159238D01*
X971630Y159302D01*
X971581Y159334D01*
X971538Y159374D01*
X971463Y159413D01*
X971393Y159460D01*
X971337Y159477D01*
X971285Y159504D01*
X971217Y159515D01*
X971122Y159545D01*
X971022Y159548D01*
X970954Y159559D01*
X944616Y159559D01*
X944558Y159551D01*
X944500Y159553D01*
X944418Y159531D01*
X944334Y159519D01*
X944281Y159496D01*
X944225Y159481D01*
X944152Y159438D01*
X944075Y159403D01*
X944030Y159365D01*
X943980Y159336D01*
X943922Y159274D01*
X943858Y159220D01*
X943826Y159171D01*
X943786Y159128D01*
X943747Y159053D01*
X943700Y158983D01*
X943683Y158927D01*
X943656Y158875D01*
X943645Y158807D01*
X943615Y158712D01*
X943612Y158612D01*
X943601Y158544D01*
X943601Y158357D01*
X941843Y156599D01*
X935101Y156599D01*
X935043Y156591D01*
X934985Y156593D01*
X934903Y156571D01*
X934819Y156559D01*
X934766Y156536D01*
X934710Y156521D01*
X934637Y156478D01*
X934560Y156443D01*
X934515Y156405D01*
X934465Y156376D01*
X934407Y156314D01*
X934343Y156260D01*
X934311Y156211D01*
X934271Y156168D01*
X934232Y156093D01*
X934185Y156023D01*
X934168Y155967D01*
X934141Y155915D01*
X934130Y155847D01*
X934100Y155752D01*
X934097Y155652D01*
X934086Y155584D01*
X934086Y139437D01*
X927066Y132417D01*
X926930Y132281D01*
X926861Y132189D01*
X926787Y132101D01*
X926776Y132076D01*
X926759Y132054D01*
X926718Y131947D01*
X926672Y131841D01*
X926668Y131814D01*
X926658Y131788D01*
X926648Y131674D01*
X926633Y131560D01*
X926637Y131532D01*
X926634Y131505D01*
X926657Y131392D01*
X926673Y131279D01*
X926685Y131253D01*
X926690Y131226D01*
X926743Y131124D01*
X926790Y131019D01*
X926808Y130998D01*
X926821Y130974D01*
X926900Y130891D01*
X926975Y130803D01*
X926996Y130790D01*
X927017Y130768D01*
X927247Y130633D01*
X927259Y130625D01*
X931298Y128952D01*
X934252Y125998D01*
X935851Y122139D01*
X935851Y103251D01*
X935859Y103193D01*
X935857Y103135D01*
X935879Y103053D01*
X935891Y102969D01*
X935914Y102916D01*
X935929Y102860D01*
X935972Y102787D01*
X936007Y102710D01*
X936045Y102665D01*
X936074Y102615D01*
X936136Y102557D01*
X936190Y102493D01*
X936239Y102461D01*
X936282Y102421D01*
X936357Y102382D01*
X936427Y102335D01*
X936483Y102318D01*
X936535Y102291D01*
X936603Y102280D01*
X936698Y102250D01*
X936798Y102247D01*
X936866Y102236D01*
X940063Y102236D01*
X940436Y101863D01*
X940436Y69587D01*
X935492Y64643D01*
X935491Y64642D01*
X935490Y64641D01*
X935404Y64525D01*
X935321Y64416D01*
X935320Y64414D01*
X935319Y64413D01*
X935269Y64279D01*
X935220Y64150D01*
X935220Y64148D01*
X935219Y64147D01*
X935207Y64002D01*
X935196Y63867D01*
X935196Y63865D01*
X935196Y63864D01*
X935200Y63848D01*
X935252Y63588D01*
X935266Y63561D01*
X935272Y63536D01*
X935851Y62139D01*
X935851Y58978D01*
X935863Y58891D01*
X935866Y58804D01*
X935883Y58751D01*
X935891Y58696D01*
X935926Y58616D01*
X935953Y58533D01*
X935981Y58494D01*
X936007Y58437D01*
X936103Y58323D01*
X936148Y58260D01*
X945390Y49018D01*
X945460Y48966D01*
X945523Y48906D01*
X945573Y48880D01*
X945617Y48847D01*
X945699Y48816D01*
X945777Y48776D01*
X945824Y48768D01*
X945883Y48746D01*
X946030Y48734D01*
X946108Y48721D01*
X971285Y48721D01*
X971314Y48725D01*
G37*
G36*
X717786Y217257D02*
X717786Y217257D01*
X717900Y217267D01*
X717926Y217277D01*
X717954Y217281D01*
X718059Y217328D01*
X718166Y217369D01*
X718188Y217385D01*
X718213Y217397D01*
X718301Y217471D01*
X718392Y217540D01*
X718409Y217563D01*
X718430Y217580D01*
X718494Y217676D01*
X718563Y217768D01*
X718572Y217794D01*
X718588Y217817D01*
X718623Y217927D01*
X718663Y218034D01*
X718665Y218062D01*
X718674Y218088D01*
X718677Y218203D01*
X718686Y218317D01*
X718680Y218342D01*
X718681Y218372D01*
X718614Y218629D01*
X718610Y218645D01*
X718499Y218913D01*
X718499Y223587D01*
X720288Y227906D01*
X723594Y231212D01*
X727913Y233001D01*
X732587Y233001D01*
X736906Y231212D01*
X738876Y229242D01*
X738900Y229224D01*
X738919Y229202D01*
X738968Y229169D01*
X739006Y229133D01*
X739051Y229110D01*
X739103Y229071D01*
X739131Y229061D01*
X739155Y229044D01*
X739220Y229024D01*
X739259Y229004D01*
X739296Y228998D01*
X739369Y228970D01*
X739398Y228967D01*
X739426Y228959D01*
X739540Y228956D01*
X739553Y228954D01*
X739590Y228948D01*
X739594Y228948D01*
X739607Y228950D01*
X739652Y228946D01*
X739681Y228952D01*
X739710Y228951D01*
X739820Y228980D01*
X739826Y228981D01*
X739876Y228988D01*
X739887Y228993D01*
X739931Y229002D01*
X739957Y229016D01*
X739985Y229023D01*
X740083Y229081D01*
X740084Y229081D01*
X740135Y229104D01*
X740146Y229114D01*
X740183Y229133D01*
X740205Y229153D01*
X740230Y229168D01*
X740305Y229248D01*
X740352Y229288D01*
X740361Y229302D01*
X740389Y229329D01*
X740404Y229354D01*
X740424Y229376D01*
X740471Y229467D01*
X740510Y229525D01*
X740516Y229545D01*
X740533Y229574D01*
X740540Y229603D01*
X740554Y229629D01*
X740566Y229705D01*
X740595Y229796D01*
X740596Y229821D01*
X740603Y229850D01*
X740601Y229912D01*
X740609Y229960D01*
X740609Y236084D01*
X740602Y236137D01*
X740603Y236171D01*
X740602Y236174D01*
X740603Y236200D01*
X740581Y236282D01*
X740569Y236366D01*
X740546Y236419D01*
X740531Y236475D01*
X740488Y236548D01*
X740453Y236625D01*
X740415Y236670D01*
X740386Y236720D01*
X740324Y236778D01*
X740270Y236842D01*
X740221Y236874D01*
X740178Y236914D01*
X740103Y236953D01*
X740033Y237000D01*
X739995Y237012D01*
X738149Y238857D01*
X738149Y252343D01*
X739907Y254101D01*
X752393Y254101D01*
X754151Y252343D01*
X754151Y252156D01*
X754159Y252098D01*
X754157Y252040D01*
X754179Y251958D01*
X754191Y251874D01*
X754214Y251821D01*
X754229Y251765D01*
X754272Y251692D01*
X754307Y251615D01*
X754345Y251570D01*
X754374Y251520D01*
X754436Y251462D01*
X754490Y251398D01*
X754539Y251366D01*
X754582Y251326D01*
X754657Y251287D01*
X754727Y251240D01*
X754783Y251223D01*
X754835Y251196D01*
X754903Y251185D01*
X754998Y251155D01*
X755098Y251152D01*
X755166Y251141D01*
X756184Y251141D01*
X756242Y251149D01*
X756300Y251147D01*
X756382Y251169D01*
X756466Y251181D01*
X756519Y251204D01*
X756575Y251219D01*
X756648Y251262D01*
X756725Y251297D01*
X756770Y251335D01*
X756820Y251364D01*
X756878Y251426D01*
X756942Y251480D01*
X756974Y251529D01*
X757014Y251572D01*
X757053Y251647D01*
X757100Y251717D01*
X757117Y251773D01*
X757144Y251825D01*
X757155Y251893D01*
X757185Y251988D01*
X757188Y252088D01*
X757199Y252156D01*
X757199Y252343D01*
X758957Y254101D01*
X771443Y254101D01*
X773201Y252343D01*
X773201Y252156D01*
X773209Y252098D01*
X773207Y252040D01*
X773229Y251958D01*
X773241Y251874D01*
X773264Y251821D01*
X773279Y251765D01*
X773322Y251692D01*
X773357Y251615D01*
X773395Y251570D01*
X773424Y251520D01*
X773486Y251462D01*
X773540Y251398D01*
X773589Y251366D01*
X773632Y251326D01*
X773707Y251287D01*
X773777Y251240D01*
X773833Y251223D01*
X773885Y251196D01*
X773953Y251185D01*
X774048Y251155D01*
X774148Y251152D01*
X774216Y251141D01*
X777884Y251141D01*
X777971Y251153D01*
X778058Y251156D01*
X778111Y251173D01*
X778166Y251181D01*
X778246Y251216D01*
X778329Y251243D01*
X778368Y251271D01*
X778425Y251297D01*
X778539Y251393D01*
X778602Y251438D01*
X781202Y254038D01*
X781254Y254107D01*
X781314Y254171D01*
X781340Y254221D01*
X781373Y254265D01*
X781404Y254347D01*
X781444Y254425D01*
X781452Y254472D01*
X781474Y254531D01*
X781486Y254678D01*
X781499Y254756D01*
X781499Y258364D01*
X784136Y261001D01*
X790444Y261001D01*
X790502Y261009D01*
X790560Y261007D01*
X790642Y261029D01*
X790725Y261041D01*
X790779Y261064D01*
X790835Y261079D01*
X790908Y261122D01*
X790985Y261157D01*
X791030Y261195D01*
X791080Y261224D01*
X791138Y261286D01*
X791202Y261340D01*
X791234Y261389D01*
X791274Y261432D01*
X791313Y261507D01*
X791359Y261577D01*
X791377Y261633D01*
X791404Y261685D01*
X791415Y261753D01*
X791445Y261848D01*
X791448Y261948D01*
X791459Y262016D01*
X791459Y268224D01*
X791447Y268311D01*
X791444Y268398D01*
X791427Y268451D01*
X791419Y268506D01*
X791384Y268586D01*
X791357Y268669D01*
X791329Y268708D01*
X791303Y268765D01*
X791207Y268878D01*
X791162Y268942D01*
X788447Y271657D01*
X788377Y271709D01*
X788314Y271769D01*
X788264Y271795D01*
X788220Y271828D01*
X788138Y271859D01*
X788061Y271899D01*
X788013Y271907D01*
X787954Y271929D01*
X787807Y271941D01*
X787729Y271954D01*
X751604Y271954D01*
X749177Y274381D01*
X746966Y276592D01*
X746942Y276610D01*
X746922Y276634D01*
X746855Y276676D01*
X746739Y276763D01*
X746679Y276786D01*
X746637Y276812D01*
X745102Y277448D01*
X742148Y280402D01*
X741512Y281937D01*
X741496Y281964D01*
X741487Y281993D01*
X741441Y282057D01*
X741368Y282182D01*
X741321Y282226D01*
X741292Y282266D01*
X740584Y282974D01*
X740584Y283975D01*
X740580Y284005D01*
X740582Y284036D01*
X740565Y284113D01*
X740549Y284222D01*
X740549Y303501D01*
X740578Y303612D01*
X740576Y303676D01*
X740584Y303725D01*
X740584Y315211D01*
X740622Y315268D01*
X740690Y315358D01*
X740701Y315386D01*
X740717Y315410D01*
X740751Y315518D01*
X740792Y315624D01*
X740794Y315653D01*
X740803Y315681D01*
X740806Y315794D01*
X740815Y315907D01*
X740809Y315936D01*
X740810Y315965D01*
X740782Y316075D01*
X740759Y316186D01*
X740746Y316212D01*
X740738Y316240D01*
X740681Y316337D01*
X740628Y316438D01*
X740608Y316460D01*
X740593Y316485D01*
X740510Y316562D01*
X740432Y316644D01*
X740407Y316659D01*
X740386Y316679D01*
X740285Y316731D01*
X740187Y316788D01*
X740159Y316795D01*
X740133Y316809D01*
X740055Y316822D01*
X739912Y316858D01*
X739849Y316856D01*
X739802Y316864D01*
X736337Y316864D01*
X735964Y317237D01*
X735964Y344677D01*
X735960Y344707D01*
X735963Y344736D01*
X735940Y344847D01*
X735924Y344959D01*
X735912Y344986D01*
X735907Y345014D01*
X735855Y345115D01*
X735808Y345218D01*
X735789Y345241D01*
X735776Y345267D01*
X735698Y345349D01*
X735625Y345435D01*
X735600Y345452D01*
X735580Y345473D01*
X735482Y345530D01*
X735388Y345593D01*
X735360Y345602D01*
X735335Y345617D01*
X735225Y345645D01*
X735117Y345679D01*
X735087Y345680D01*
X735059Y345687D01*
X734946Y345683D01*
X734833Y345686D01*
X734804Y345679D01*
X734775Y345678D01*
X734667Y345643D01*
X734558Y345614D01*
X734532Y345599D01*
X734504Y345590D01*
X734441Y345545D01*
X734313Y345469D01*
X734270Y345423D01*
X734231Y345395D01*
X718738Y329902D01*
X718686Y329832D01*
X718626Y329769D01*
X718600Y329719D01*
X718567Y329675D01*
X718536Y329593D01*
X718496Y329515D01*
X718488Y329468D01*
X718466Y329409D01*
X718454Y329262D01*
X718441Y329184D01*
X718441Y276216D01*
X718453Y276129D01*
X718456Y276042D01*
X718473Y275989D01*
X718481Y275934D01*
X718516Y275854D01*
X718543Y275771D01*
X718571Y275732D01*
X718597Y275675D01*
X718693Y275562D01*
X718738Y275498D01*
X723438Y270798D01*
X723508Y270746D01*
X723571Y270686D01*
X723621Y270660D01*
X723665Y270627D01*
X723747Y270596D01*
X723824Y270556D01*
X723872Y270548D01*
X723931Y270526D01*
X724078Y270514D01*
X724156Y270501D01*
X730643Y270501D01*
X732401Y268743D01*
X732401Y256257D01*
X730862Y254718D01*
X730826Y254671D01*
X730784Y254631D01*
X730741Y254558D01*
X730691Y254491D01*
X730670Y254436D01*
X730640Y254386D01*
X730620Y254304D01*
X730589Y254225D01*
X730585Y254167D01*
X730570Y254110D01*
X730573Y254026D01*
X730566Y253942D01*
X730577Y253884D01*
X730579Y253826D01*
X730605Y253746D01*
X730622Y253663D01*
X730649Y253611D01*
X730667Y253555D01*
X730707Y253499D01*
X730753Y253411D01*
X730822Y253338D01*
X730862Y253282D01*
X732401Y251743D01*
X732401Y239257D01*
X730643Y237499D01*
X716846Y237499D01*
X716732Y237483D01*
X716618Y237473D01*
X716592Y237463D01*
X716565Y237459D01*
X716460Y237412D01*
X716353Y237371D01*
X716331Y237355D01*
X716305Y237343D01*
X716218Y237269D01*
X716126Y237200D01*
X716109Y237177D01*
X716088Y237160D01*
X716025Y237064D01*
X715956Y236972D01*
X715946Y236946D01*
X715931Y236923D01*
X715896Y236813D01*
X715856Y236706D01*
X715853Y236678D01*
X715845Y236652D01*
X715842Y236537D01*
X715833Y236423D01*
X715838Y236398D01*
X715838Y236368D01*
X715905Y236111D01*
X715908Y236095D01*
X717051Y233337D01*
X717051Y228663D01*
X715262Y224344D01*
X711824Y220906D01*
X711789Y220859D01*
X711746Y220819D01*
X711704Y220746D01*
X711653Y220678D01*
X711632Y220624D01*
X711602Y220573D01*
X711582Y220492D01*
X711552Y220413D01*
X711547Y220354D01*
X711532Y220298D01*
X711535Y220214D01*
X711528Y220130D01*
X711540Y220072D01*
X711541Y220014D01*
X711567Y219933D01*
X711584Y219851D01*
X711611Y219799D01*
X711629Y219743D01*
X711669Y219687D01*
X711715Y219598D01*
X711784Y219526D01*
X711824Y219470D01*
X713429Y217864D01*
X713472Y217792D01*
X713507Y217715D01*
X713545Y217670D01*
X713574Y217620D01*
X713636Y217562D01*
X713690Y217498D01*
X713739Y217466D01*
X713782Y217426D01*
X713857Y217387D01*
X713927Y217340D01*
X713983Y217323D01*
X714035Y217296D01*
X714103Y217285D01*
X714198Y217255D01*
X714298Y217252D01*
X714366Y217241D01*
X717672Y217241D01*
X717786Y217257D01*
G37*
G36*
X800142Y274963D02*
X800142Y274963D01*
X800184Y274961D01*
X800251Y274983D01*
X800321Y274995D01*
X800357Y275017D01*
X800398Y275030D01*
X800471Y275084D01*
X800514Y275110D01*
X800527Y275126D01*
X800548Y275142D01*
X818328Y292922D01*
X818353Y292956D01*
X818384Y292985D01*
X818413Y293040D01*
X818414Y293043D01*
X818416Y293047D01*
X818416Y293048D01*
X818457Y293106D01*
X818467Y293147D01*
X818487Y293185D01*
X818500Y293274D01*
X818513Y293323D01*
X818510Y293344D01*
X818514Y293370D01*
X818514Y311150D01*
X818507Y311192D01*
X818509Y311234D01*
X818487Y311301D01*
X818475Y311371D01*
X818453Y311407D01*
X818440Y311448D01*
X818386Y311521D01*
X818360Y311564D01*
X818344Y311577D01*
X818328Y311598D01*
X815788Y314138D01*
X815754Y314163D01*
X815725Y314194D01*
X815662Y314226D01*
X815604Y314267D01*
X815563Y314277D01*
X815525Y314297D01*
X815436Y314310D01*
X815387Y314323D01*
X815366Y314320D01*
X815340Y314324D01*
X744220Y314324D01*
X744155Y314313D01*
X744089Y314311D01*
X744046Y314293D01*
X743999Y314285D01*
X743942Y314251D01*
X743882Y314226D01*
X743847Y314195D01*
X743806Y314170D01*
X743765Y314119D01*
X743716Y314075D01*
X743694Y314033D01*
X743665Y313996D01*
X743644Y313934D01*
X743613Y313875D01*
X743605Y313821D01*
X743593Y313784D01*
X743594Y313744D01*
X743593Y313740D01*
X743593Y313739D01*
X743593Y313737D01*
X743586Y313690D01*
X743586Y284480D01*
X743593Y284438D01*
X743591Y284396D01*
X743613Y284329D01*
X743625Y284259D01*
X743647Y284223D01*
X743660Y284182D01*
X743690Y284142D01*
X743694Y284131D01*
X743714Y284110D01*
X743714Y284109D01*
X743740Y284066D01*
X743756Y284053D01*
X743772Y284032D01*
X752662Y275142D01*
X752696Y275117D01*
X752725Y275086D01*
X752788Y275054D01*
X752846Y275013D01*
X752887Y275003D01*
X752925Y274983D01*
X753014Y274970D01*
X753063Y274958D01*
X753084Y274960D01*
X753110Y274956D01*
X800100Y274956D01*
X800142Y274963D01*
G37*
G36*
X780542Y229779D02*
X780542Y229779D01*
X780600Y229777D01*
X780673Y229796D01*
X780676Y229797D01*
X780679Y229798D01*
X780682Y229799D01*
X780766Y229811D01*
X780819Y229834D01*
X780875Y229849D01*
X780948Y229892D01*
X781025Y229927D01*
X781070Y229965D01*
X781120Y229994D01*
X781178Y230056D01*
X781242Y230110D01*
X781274Y230159D01*
X781314Y230202D01*
X781353Y230277D01*
X781400Y230347D01*
X781417Y230403D01*
X781444Y230455D01*
X781455Y230523D01*
X781485Y230618D01*
X781488Y230718D01*
X781499Y230786D01*
X781499Y231364D01*
X784136Y234001D01*
X790864Y234001D01*
X791532Y233333D01*
X791579Y233298D01*
X791619Y233255D01*
X791692Y233213D01*
X791759Y233162D01*
X791814Y233141D01*
X791864Y233112D01*
X791946Y233091D01*
X792025Y233061D01*
X792083Y233056D01*
X792140Y233042D01*
X792224Y233044D01*
X792308Y233037D01*
X792366Y233049D01*
X792424Y233051D01*
X792504Y233076D01*
X792587Y233093D01*
X792639Y233120D01*
X792695Y233138D01*
X792751Y233178D01*
X792839Y233224D01*
X792912Y233293D01*
X792968Y233333D01*
X793636Y234001D01*
X800364Y234001D01*
X801032Y233333D01*
X801079Y233298D01*
X801119Y233255D01*
X801192Y233213D01*
X801259Y233162D01*
X801314Y233141D01*
X801364Y233112D01*
X801446Y233091D01*
X801525Y233061D01*
X801583Y233056D01*
X801640Y233042D01*
X801724Y233044D01*
X801808Y233037D01*
X801866Y233049D01*
X801924Y233051D01*
X802004Y233077D01*
X802087Y233093D01*
X802139Y233120D01*
X802195Y233138D01*
X802251Y233178D01*
X802339Y233224D01*
X802412Y233293D01*
X802468Y233333D01*
X803136Y234001D01*
X809864Y234001D01*
X812527Y231338D01*
X812597Y231286D01*
X812661Y231226D01*
X812710Y231200D01*
X812754Y231167D01*
X812836Y231136D01*
X812914Y231096D01*
X812961Y231088D01*
X813020Y231066D01*
X813167Y231054D01*
X813245Y231041D01*
X814284Y231041D01*
X814342Y231049D01*
X814400Y231047D01*
X814482Y231069D01*
X814566Y231081D01*
X814619Y231104D01*
X814675Y231119D01*
X814748Y231162D01*
X814825Y231197D01*
X814870Y231235D01*
X814920Y231264D01*
X814978Y231326D01*
X815042Y231380D01*
X815074Y231429D01*
X815114Y231472D01*
X815153Y231547D01*
X815200Y231617D01*
X815217Y231673D01*
X815244Y231725D01*
X815255Y231793D01*
X815285Y231888D01*
X815288Y231988D01*
X815299Y232056D01*
X815299Y235243D01*
X816338Y236282D01*
X816374Y236329D01*
X816416Y236369D01*
X816459Y236442D01*
X816509Y236509D01*
X816530Y236564D01*
X816560Y236614D01*
X816580Y236696D01*
X816611Y236775D01*
X816615Y236833D01*
X816630Y236890D01*
X816627Y236974D01*
X816634Y237058D01*
X816623Y237116D01*
X816621Y237174D01*
X816595Y237254D01*
X816578Y237337D01*
X816551Y237389D01*
X816533Y237445D01*
X816493Y237501D01*
X816447Y237589D01*
X816378Y237662D01*
X816338Y237718D01*
X815299Y238757D01*
X815299Y252243D01*
X817057Y254001D01*
X822744Y254001D01*
X822802Y254009D01*
X822860Y254007D01*
X822942Y254029D01*
X823026Y254041D01*
X823079Y254064D01*
X823135Y254079D01*
X823208Y254122D01*
X823285Y254157D01*
X823330Y254195D01*
X823380Y254224D01*
X823438Y254286D01*
X823502Y254340D01*
X823534Y254389D01*
X823574Y254432D01*
X823613Y254507D01*
X823660Y254577D01*
X823677Y254633D01*
X823704Y254685D01*
X823715Y254753D01*
X823745Y254848D01*
X823748Y254948D01*
X823759Y255016D01*
X823759Y268984D01*
X823747Y269071D01*
X823744Y269158D01*
X823727Y269211D01*
X823719Y269266D01*
X823684Y269346D01*
X823657Y269429D01*
X823629Y269468D01*
X823603Y269525D01*
X823507Y269638D01*
X823462Y269702D01*
X816571Y276593D01*
X816570Y276594D01*
X816569Y276595D01*
X816459Y276677D01*
X816344Y276764D01*
X816343Y276764D01*
X816342Y276765D01*
X816210Y276815D01*
X816079Y276865D01*
X816077Y276865D01*
X816076Y276866D01*
X815931Y276877D01*
X815795Y276888D01*
X815794Y276888D01*
X815792Y276888D01*
X815777Y276885D01*
X815517Y276833D01*
X815489Y276818D01*
X815465Y276813D01*
X813139Y275849D01*
X805921Y275849D01*
X805835Y275837D01*
X805747Y275834D01*
X805695Y275817D01*
X805640Y275809D01*
X805560Y275774D01*
X805477Y275747D01*
X805438Y275719D01*
X805381Y275693D01*
X805267Y275597D01*
X805204Y275552D01*
X804033Y274381D01*
X802772Y273121D01*
X802771Y273119D01*
X802770Y273118D01*
X802682Y273001D01*
X802601Y272893D01*
X802601Y272892D01*
X802600Y272891D01*
X802547Y272751D01*
X802500Y272628D01*
X802500Y272626D01*
X802500Y272625D01*
X802488Y272482D01*
X802477Y272344D01*
X802477Y272343D01*
X802477Y272341D01*
X802480Y272326D01*
X802533Y272066D01*
X802541Y272050D01*
X802541Y259245D01*
X802553Y259158D01*
X802556Y259071D01*
X802573Y259018D01*
X802581Y258963D01*
X802616Y258883D01*
X802643Y258800D01*
X802671Y258761D01*
X802697Y258704D01*
X802793Y258591D01*
X802838Y258527D01*
X803001Y258364D01*
X803001Y246636D01*
X800364Y243999D01*
X793636Y243999D01*
X792968Y244667D01*
X792921Y244702D01*
X792881Y244745D01*
X792808Y244787D01*
X792741Y244838D01*
X792686Y244859D01*
X792636Y244888D01*
X792554Y244909D01*
X792475Y244939D01*
X792417Y244944D01*
X792360Y244958D01*
X792276Y244956D01*
X792192Y244963D01*
X792134Y244951D01*
X792076Y244949D01*
X791996Y244923D01*
X791913Y244907D01*
X791861Y244880D01*
X791805Y244862D01*
X791749Y244822D01*
X791661Y244776D01*
X791588Y244707D01*
X791532Y244667D01*
X790864Y243999D01*
X787256Y243999D01*
X787169Y243987D01*
X787082Y243984D01*
X787029Y243967D01*
X786974Y243959D01*
X786894Y243924D01*
X786811Y243897D01*
X786772Y243869D01*
X786715Y243843D01*
X786601Y243747D01*
X786538Y243702D01*
X783739Y240903D01*
X781702Y240059D01*
X774216Y240059D01*
X774158Y240051D01*
X774100Y240053D01*
X774018Y240031D01*
X773934Y240019D01*
X773881Y239996D01*
X773825Y239981D01*
X773752Y239938D01*
X773675Y239903D01*
X773630Y239865D01*
X773580Y239836D01*
X773522Y239774D01*
X773458Y239720D01*
X773426Y239671D01*
X773386Y239628D01*
X773347Y239553D01*
X773300Y239483D01*
X773283Y239427D01*
X773256Y239375D01*
X773245Y239307D01*
X773215Y239212D01*
X773212Y239112D01*
X773201Y239044D01*
X773201Y238857D01*
X771430Y237087D01*
X771361Y236995D01*
X771287Y236907D01*
X771276Y236882D01*
X771259Y236859D01*
X771218Y236752D01*
X771172Y236647D01*
X771168Y236620D01*
X771158Y236594D01*
X771149Y236479D01*
X771133Y236366D01*
X771137Y236338D01*
X771135Y236311D01*
X771157Y236198D01*
X771174Y236084D01*
X771185Y236059D01*
X771191Y236032D01*
X771243Y235930D01*
X771291Y235825D01*
X771309Y235804D01*
X771322Y235779D01*
X771401Y235696D01*
X771475Y235609D01*
X771496Y235596D01*
X771517Y235573D01*
X771747Y235439D01*
X771760Y235431D01*
X776261Y233566D01*
X779625Y230202D01*
X779654Y230153D01*
X779655Y230152D01*
X779656Y230150D01*
X779763Y230050D01*
X779861Y229957D01*
X779862Y229957D01*
X779864Y229956D01*
X779989Y229891D01*
X780114Y229827D01*
X780115Y229827D01*
X780117Y229826D01*
X780131Y229824D01*
X780294Y229792D01*
X780316Y229785D01*
X780331Y229784D01*
X780393Y229772D01*
X780423Y229775D01*
X780448Y229771D01*
X780484Y229771D01*
X780542Y229779D01*
G37*
%LPC*%
G36*
X1134864Y240389D02*
X1134864Y240389D01*
X1129255Y242713D01*
X1124963Y247005D01*
X1122639Y252614D01*
X1122639Y258686D01*
X1124963Y264295D01*
X1129255Y268587D01*
X1134864Y270911D01*
X1140936Y270911D01*
X1146545Y268587D01*
X1150837Y264295D01*
X1153161Y258686D01*
X1153161Y252614D01*
X1150837Y247005D01*
X1146545Y242713D01*
X1140936Y240389D01*
X1134864Y240389D01*
G37*
%LPD*%
G36*
X854482Y122819D02*
X854482Y122819D01*
X854509Y122817D01*
X854622Y122839D01*
X854736Y122856D01*
X854761Y122867D01*
X854788Y122873D01*
X854890Y122926D01*
X854995Y122973D01*
X855016Y122991D01*
X855040Y123004D01*
X855124Y123083D01*
X855211Y123157D01*
X855224Y123178D01*
X855247Y123200D01*
X855381Y123429D01*
X855389Y123442D01*
X856448Y125998D01*
X859402Y128952D01*
X863261Y130551D01*
X869399Y130551D01*
X869428Y130555D01*
X869457Y130552D01*
X869569Y130575D01*
X869681Y130591D01*
X869707Y130603D01*
X869736Y130608D01*
X869837Y130661D01*
X869940Y130707D01*
X869962Y130726D01*
X869989Y130739D01*
X870071Y130817D01*
X870157Y130890D01*
X870173Y130915D01*
X870195Y130935D01*
X870252Y131033D01*
X870315Y131127D01*
X870324Y131155D01*
X870338Y131180D01*
X870366Y131290D01*
X870400Y131398D01*
X870401Y131428D01*
X870408Y131456D01*
X870405Y131569D01*
X870408Y131682D01*
X870400Y131711D01*
X870399Y131740D01*
X870365Y131848D01*
X870336Y131957D01*
X870321Y131983D01*
X870312Y132011D01*
X870266Y132075D01*
X870191Y132202D01*
X870145Y132245D01*
X870117Y132284D01*
X869314Y133087D01*
X869314Y157734D01*
X869306Y157792D01*
X869308Y157850D01*
X869286Y157932D01*
X869274Y158016D01*
X869251Y158069D01*
X869236Y158125D01*
X869193Y158198D01*
X869158Y158275D01*
X869120Y158320D01*
X869091Y158370D01*
X869029Y158428D01*
X868975Y158492D01*
X868926Y158524D01*
X868883Y158564D01*
X868808Y158603D01*
X868738Y158650D01*
X868682Y158667D01*
X868630Y158694D01*
X868562Y158705D01*
X868467Y158735D01*
X868367Y158738D01*
X868299Y158749D01*
X857357Y158749D01*
X855599Y160507D01*
X855599Y163402D01*
X855587Y163489D01*
X855584Y163576D01*
X855567Y163629D01*
X855559Y163684D01*
X855524Y163764D01*
X855497Y163847D01*
X855469Y163886D01*
X855443Y163943D01*
X855347Y164056D01*
X855302Y164120D01*
X853014Y166408D01*
X852990Y166426D01*
X852971Y166448D01*
X852877Y166511D01*
X852787Y166579D01*
X852759Y166590D01*
X852735Y166606D01*
X852627Y166640D01*
X852521Y166680D01*
X852492Y166683D01*
X852464Y166692D01*
X852350Y166695D01*
X852238Y166704D01*
X852209Y166698D01*
X852180Y166699D01*
X852070Y166670D01*
X851959Y166648D01*
X851933Y166635D01*
X851905Y166627D01*
X851807Y166569D01*
X851707Y166517D01*
X851685Y166497D01*
X851660Y166482D01*
X851583Y166399D01*
X851501Y166321D01*
X851486Y166296D01*
X851466Y166275D01*
X851414Y166174D01*
X851357Y166076D01*
X851350Y166048D01*
X851336Y166021D01*
X851323Y165944D01*
X851287Y165801D01*
X851289Y165738D01*
X851281Y165690D01*
X851281Y160507D01*
X850242Y159468D01*
X850206Y159421D01*
X850164Y159381D01*
X850121Y159308D01*
X850071Y159241D01*
X850050Y159186D01*
X850020Y159136D01*
X850000Y159054D01*
X849969Y158975D01*
X849965Y158917D01*
X849950Y158860D01*
X849953Y158776D01*
X849946Y158692D01*
X849957Y158634D01*
X849959Y158576D01*
X849985Y158496D01*
X850002Y158413D01*
X850029Y158361D01*
X850047Y158305D01*
X850087Y158249D01*
X850133Y158161D01*
X850202Y158088D01*
X850242Y158032D01*
X851281Y156993D01*
X851281Y143507D01*
X849444Y141671D01*
X849372Y141628D01*
X849295Y141593D01*
X849250Y141555D01*
X849200Y141526D01*
X849142Y141464D01*
X849078Y141410D01*
X849046Y141361D01*
X849006Y141318D01*
X848967Y141243D01*
X848920Y141173D01*
X848903Y141117D01*
X848876Y141065D01*
X848865Y140997D01*
X848835Y140902D01*
X848832Y140802D01*
X848821Y140734D01*
X848821Y128446D01*
X848833Y128359D01*
X848836Y128272D01*
X848853Y128219D01*
X848861Y128164D01*
X848896Y128084D01*
X848898Y128080D01*
X848906Y128047D01*
X848911Y128040D01*
X848923Y128001D01*
X848951Y127962D01*
X848977Y127905D01*
X849024Y127849D01*
X849052Y127803D01*
X849091Y127766D01*
X849118Y127728D01*
X853733Y123113D01*
X853825Y123043D01*
X853913Y122970D01*
X853938Y122958D01*
X853960Y122942D01*
X854068Y122901D01*
X854173Y122854D01*
X854200Y122850D01*
X854226Y122840D01*
X854340Y122831D01*
X854454Y122815D01*
X854482Y122819D01*
G37*
%LPC*%
G36*
X1215659Y268849D02*
X1215659Y268849D01*
X1212718Y270067D01*
X1210467Y272318D01*
X1209249Y275259D01*
X1209249Y278441D01*
X1210467Y281382D01*
X1212718Y283633D01*
X1215659Y284851D01*
X1218841Y284851D01*
X1221782Y283633D01*
X1224033Y281382D01*
X1225251Y278441D01*
X1225251Y275259D01*
X1224033Y272318D01*
X1221782Y270067D01*
X1218841Y268849D01*
X1215659Y268849D01*
G37*
%LPD*%
%LPC*%
G36*
X106359Y36449D02*
X106359Y36449D01*
X103418Y37667D01*
X101167Y39918D01*
X99949Y42859D01*
X99949Y46041D01*
X101167Y48982D01*
X103418Y51233D01*
X106359Y52451D01*
X109541Y52451D01*
X112482Y51233D01*
X114733Y48982D01*
X115951Y46041D01*
X115951Y42859D01*
X114733Y39918D01*
X112482Y37667D01*
X109541Y36449D01*
X106359Y36449D01*
G37*
%LPD*%
D10*
X355600Y906250D03*
D11*
X355600Y681250D03*
D12*
X723500Y825500D03*
D13*
X673500Y825500D03*
D12*
X717150Y590550D03*
D13*
X667150Y590550D03*
D14*
X406400Y89300D03*
X406400Y139300D03*
X520700Y89300D03*
X520700Y139300D03*
X635000Y89300D03*
X635000Y139300D03*
D15*
X746150Y245600D03*
X746150Y262600D03*
X765200Y245600D03*
X765200Y262600D03*
X823300Y228500D03*
X823300Y245500D03*
X843280Y167250D03*
X843280Y150250D03*
D16*
X963050Y82550D03*
X980050Y82550D03*
X963050Y114300D03*
X980050Y114300D03*
X963050Y57150D03*
X980050Y57150D03*
X1018150Y57150D03*
X1001150Y57150D03*
X1001150Y82550D03*
X1018150Y82550D03*
D14*
X1016400Y241300D03*
X1066400Y241300D03*
X889000Y305200D03*
X889000Y355200D03*
D15*
X863600Y150250D03*
X863600Y167250D03*
D17*
X604275Y829375D02*
X591025Y829375D01*
X604275Y829375D02*
X604275Y821625D01*
X591025Y821625D01*
X591025Y829375D01*
X591025Y828987D02*
X604275Y828987D01*
X604275Y854775D02*
X591025Y854775D01*
X604275Y854775D02*
X604275Y847025D01*
X591025Y847025D01*
X591025Y854775D01*
X591025Y854387D02*
X604275Y854387D01*
X539275Y854775D02*
X526025Y854775D01*
X539275Y854775D02*
X539275Y847025D01*
X526025Y847025D01*
X526025Y854775D01*
X526025Y854387D02*
X539275Y854387D01*
X539275Y829375D02*
X526025Y829375D01*
X539275Y829375D02*
X539275Y821625D01*
X526025Y821625D01*
X526025Y829375D01*
X526025Y828987D02*
X539275Y828987D01*
D18*
X1040300Y69850D03*
X1080600Y69850D03*
D19*
X1217250Y276850D03*
D20*
X1070900Y133350D03*
D21*
X1011900Y110350D03*
X1011900Y133350D03*
X1011900Y156350D03*
D22*
X648450Y736200D03*
X648200Y686200D03*
X750050Y736200D03*
X749800Y686200D03*
D23*
X50800Y50800D03*
X50000Y950000D03*
X1149350Y952500D03*
X1149350Y50800D03*
D10*
X317200Y965200D03*
D11*
X508300Y965200D03*
D24*
X450850Y884170D03*
X450850Y855730D03*
X450850Y795270D03*
X450850Y766830D03*
D16*
X730250Y211700D03*
X730250Y194700D03*
X704850Y194700D03*
X704850Y211700D03*
D15*
X897500Y209550D03*
X880500Y209550D03*
X935600Y209550D03*
X918600Y209550D03*
X935600Y165100D03*
X918600Y165100D03*
X918600Y184150D03*
X935600Y184150D03*
D16*
X723900Y262500D03*
X723900Y245500D03*
X698500Y262500D03*
X698500Y245500D03*
D25*
X225400Y296600D02*
X225400Y321600D01*
X255400Y321600D02*
X255400Y296600D01*
X285400Y296600D02*
X285400Y321600D01*
X370400Y321600D02*
X370400Y296600D01*
X315400Y296600D02*
X315400Y321600D01*
X400400Y321600D02*
X400400Y296600D01*
X460400Y296600D02*
X460400Y321600D01*
X267400Y516600D02*
X267400Y541600D01*
X297400Y541600D02*
X297400Y516600D01*
X327400Y516600D02*
X327400Y541600D01*
X237400Y541600D02*
X237400Y516600D01*
D26*
X387400Y529100D03*
D25*
X430400Y321600D02*
X430400Y296600D01*
D26*
X447400Y529100D03*
D27*
X203200Y819150D03*
X152400Y819150D03*
X203200Y711200D03*
X152400Y711200D03*
D28*
X1177700Y328450D03*
D29*
X1177700Y298450D03*
X1177700Y268450D03*
X1147700Y328450D03*
X1147700Y298450D03*
X1147700Y268450D03*
D30*
X265050Y768750D03*
D31*
X281050Y818750D03*
D32*
X514950Y198600D02*
X529950Y198600D01*
X514950Y198600D02*
X514950Y258600D01*
X529950Y258600D01*
X529950Y198600D01*
X529950Y212850D02*
X514950Y212850D01*
X514950Y227100D02*
X529950Y227100D01*
X529950Y241350D02*
X514950Y241350D01*
X514950Y255600D02*
X529950Y255600D01*
X574950Y198600D02*
X589950Y198600D01*
X574950Y198600D02*
X574950Y258600D01*
X589950Y258600D01*
X589950Y198600D01*
X589950Y212850D02*
X574950Y212850D01*
X574950Y227100D02*
X589950Y227100D01*
X589950Y241350D02*
X574950Y241350D01*
X574950Y255600D02*
X589950Y255600D01*
X811050Y286350D02*
X811050Y301350D01*
X811050Y286350D02*
X751050Y286350D01*
X751050Y301350D01*
X811050Y301350D01*
X811050Y300600D02*
X751050Y300600D01*
X811050Y346350D02*
X811050Y361350D01*
X811050Y346350D02*
X751050Y346350D01*
X751050Y361350D01*
X811050Y361350D01*
X811050Y360600D02*
X751050Y360600D01*
X865350Y120050D02*
X865350Y105050D01*
X865350Y120050D02*
X925350Y120050D01*
X925350Y105050D01*
X865350Y105050D01*
X865350Y119300D02*
X925350Y119300D01*
X865350Y60050D02*
X865350Y45050D01*
X865350Y60050D02*
X925350Y60050D01*
X925350Y45050D01*
X865350Y45050D01*
X865350Y59300D02*
X925350Y59300D01*
D33*
X133350Y482600D03*
D34*
X133350Y357600D03*
D33*
X552450Y482600D03*
D34*
X552450Y357600D03*
D35*
X69850Y557800D03*
X69850Y432800D03*
X69850Y367300D03*
X69850Y242300D03*
D19*
X107950Y44450D03*
D30*
X754000Y52000D03*
X788000Y52000D03*
X1168000Y105000D03*
X1134000Y105000D03*
D15*
X823500Y52000D03*
X806500Y52000D03*
X1095500Y105000D03*
X1112500Y105000D03*
D36*
X808000Y229500D02*
X805000Y229500D01*
X808000Y229500D02*
X808000Y221500D01*
X805000Y221500D01*
X805000Y229500D01*
X805000Y224350D02*
X808000Y224350D01*
X808000Y227200D02*
X805000Y227200D01*
X789000Y229500D02*
X786000Y229500D01*
X789000Y229500D02*
X789000Y221500D01*
X786000Y221500D01*
X786000Y229500D01*
X786000Y224350D02*
X789000Y224350D01*
X789000Y227200D02*
X786000Y227200D01*
X786000Y256500D02*
X789000Y256500D01*
X789000Y248500D01*
X786000Y248500D01*
X786000Y256500D01*
X786000Y251350D02*
X789000Y251350D01*
X789000Y254200D02*
X786000Y254200D01*
X795500Y256500D02*
X798500Y256500D01*
X798500Y248500D01*
X795500Y248500D01*
X795500Y256500D01*
X795500Y251350D02*
X798500Y251350D01*
X798500Y254200D02*
X795500Y254200D01*
X805000Y256500D02*
X808000Y256500D01*
X808000Y248500D01*
X805000Y248500D01*
X805000Y256500D01*
X805000Y251350D02*
X808000Y251350D01*
X808000Y254200D02*
X805000Y254200D01*
X798500Y229500D02*
X795500Y229500D01*
X798500Y229500D02*
X798500Y221500D01*
X795500Y221500D01*
X795500Y229500D01*
X795500Y224350D02*
X798500Y224350D01*
X798500Y227200D02*
X795500Y227200D01*
X880650Y171590D02*
X883650Y171590D01*
X880650Y171590D02*
X880650Y179590D01*
X883650Y179590D01*
X883650Y171590D01*
X883650Y174440D02*
X880650Y174440D01*
X880650Y177290D02*
X883650Y177290D01*
X899650Y171590D02*
X902650Y171590D01*
X899650Y171590D02*
X899650Y179590D01*
X902650Y179590D01*
X902650Y171590D01*
X902650Y174440D02*
X899650Y174440D01*
X899650Y177290D02*
X902650Y177290D01*
X902650Y144590D02*
X899650Y144590D01*
X899650Y152590D01*
X902650Y152590D01*
X902650Y144590D01*
X902650Y147440D02*
X899650Y147440D01*
X899650Y150290D02*
X902650Y150290D01*
X893150Y144590D02*
X890150Y144590D01*
X890150Y152590D01*
X893150Y152590D01*
X893150Y144590D01*
X893150Y147440D02*
X890150Y147440D01*
X890150Y150290D02*
X893150Y150290D01*
X883650Y144590D02*
X880650Y144590D01*
X880650Y152590D01*
X883650Y152590D01*
X883650Y144590D01*
X883650Y147440D02*
X880650Y147440D01*
X880650Y150290D02*
X883650Y150290D01*
X890150Y171590D02*
X893150Y171590D01*
X890150Y171590D02*
X890150Y179590D01*
X893150Y179590D01*
X893150Y171590D01*
X893150Y174440D02*
X890150Y174440D01*
X890150Y177290D02*
X893150Y177290D01*
D37*
X203200Y711200D02*
X152400Y711200D01*
X203200Y711200D02*
X207500Y711200D01*
X265050Y768750D01*
X335700Y768750D01*
X355600Y748850D02*
X355600Y681250D01*
X355600Y748850D02*
X335700Y768750D01*
X355600Y681250D02*
X450850Y681250D01*
X450850Y766830D01*
X532650Y825500D02*
X532650Y704550D01*
X508100Y680000D01*
X356850Y680000D01*
X355600Y681250D01*
D38*
X152400Y711200D02*
X69850Y628650D01*
X69850Y557800D01*
D37*
X152400Y819150D02*
X203200Y819150D01*
X280650Y819150D01*
X281050Y818750D01*
X331850Y818750D02*
X355600Y842500D01*
X331850Y818750D02*
X281050Y818750D01*
X355600Y842500D02*
X355600Y906250D01*
X355600Y926800D01*
X317200Y965200D01*
X355600Y906250D02*
X428770Y906250D01*
X450850Y884170D01*
X406400Y89300D02*
X520700Y89300D01*
X406400Y89300D02*
X370400Y125300D01*
X370400Y309100D01*
X315400Y309100D01*
X285400Y309100D01*
D39*
X255400Y309100D02*
X255400Y172590D01*
X375920Y52070D01*
X597770Y52070D01*
X635000Y89300D01*
D38*
X963050Y114300D02*
X963050Y57150D01*
D39*
X935600Y184150D02*
X935600Y209550D01*
D37*
X267400Y357600D02*
X133350Y357600D01*
X285400Y339600D02*
X285400Y309100D01*
X285400Y339600D02*
X267400Y357600D01*
D38*
X552450Y357600D02*
X552450Y349250D01*
X603250Y298450D01*
D11*
X25400Y228600D03*
X25400Y177800D03*
X25400Y127000D03*
X25400Y76200D03*
X76200Y25400D03*
X127000Y25400D03*
X177800Y25400D03*
X228600Y25400D03*
X279400Y25400D03*
X330200Y25400D03*
X381000Y25400D03*
X431800Y25400D03*
X482600Y25400D03*
X533400Y25400D03*
X584200Y25400D03*
X635000Y25400D03*
X685800Y25400D03*
X736600Y25400D03*
X787400Y25400D03*
X838200Y25400D03*
X889000Y25400D03*
X990600Y25400D03*
X1041400Y25400D03*
X1092200Y25400D03*
X1193800Y25400D03*
X1219200Y50800D03*
X1219200Y101600D03*
X1219200Y152400D03*
X1219200Y203200D03*
X1219200Y254000D03*
X1219200Y298450D03*
X1143000Y381000D03*
X1092200Y381000D03*
X1041400Y381000D03*
X990600Y381000D03*
X939800Y381000D03*
X889000Y381000D03*
X838200Y381000D03*
X787400Y381000D03*
X736600Y381000D03*
X711200Y355600D03*
X685800Y330200D03*
X660400Y304800D03*
X685800Y279400D03*
X660400Y254000D03*
X685800Y228600D03*
X660400Y203200D03*
X813200Y266400D03*
X914400Y330200D03*
X863600Y330200D03*
X990600Y330200D03*
X965200Y304800D03*
X939800Y279400D03*
X965200Y254000D03*
X939800Y228600D03*
X914400Y254000D03*
X1041400Y304800D03*
X1016000Y279400D03*
X1041400Y254000D03*
X1016000Y203200D03*
X1041400Y177800D03*
X1117600Y177800D03*
X1117600Y228600D03*
X1117600Y127000D03*
X798830Y76200D03*
X797560Y127000D03*
X728200Y305800D03*
X868200Y263600D03*
X812800Y190500D03*
X805180Y167640D03*
X775970Y101600D03*
X711200Y127000D03*
X736600Y101600D03*
X685800Y101600D03*
X660400Y76200D03*
X711200Y76200D03*
X817880Y101600D03*
X558800Y152400D03*
X558800Y101600D03*
X558800Y50800D03*
X584200Y76200D03*
X584200Y127000D03*
X457200Y76200D03*
X381000Y76200D03*
X381000Y127000D03*
X381000Y177800D03*
X381000Y228600D03*
X355600Y254000D03*
X304800Y254000D03*
X254000Y254000D03*
X203200Y254000D03*
X152400Y254000D03*
X101600Y254000D03*
X25400Y254000D03*
X958850Y146050D03*
X952500Y127000D03*
X946150Y101600D03*
X946150Y63500D03*
X958850Y196850D03*
X1003300Y184150D03*
X615950Y304800D03*
X615950Y254000D03*
X615950Y203200D03*
D39*
X746150Y262600D02*
X765200Y262600D01*
X806500Y259700D02*
X806500Y252500D01*
X806500Y259700D02*
X813200Y266400D01*
X868200Y263600D02*
X868200Y284400D01*
X889000Y305200D01*
X880490Y150250D02*
X863600Y150250D01*
X880490Y150250D02*
X882150Y148590D01*
X863600Y148590D02*
X863600Y150250D01*
X863600Y148590D02*
X859447Y144437D01*
X859447Y139300D01*
D11*
X859447Y139300D03*
X727710Y280670D03*
X844550Y273050D03*
X844550Y241300D03*
X840740Y210820D03*
X754380Y127000D03*
X758190Y74930D03*
X774700Y167640D03*
X748030Y167640D03*
D37*
X582450Y169390D02*
X582450Y228600D01*
X612540Y139300D02*
X635000Y139300D01*
X612540Y139300D02*
X582450Y169390D01*
D38*
X635000Y139300D02*
X635000Y330200D01*
X704850Y400050D01*
X1162450Y400050D01*
X1204900Y357600D01*
X1204900Y309300D01*
X1194050Y298450D02*
X1177700Y298450D01*
X1194050Y298450D02*
X1204900Y309300D01*
D39*
X582450Y274800D02*
X582450Y228600D01*
X548150Y309100D02*
X460400Y309100D01*
X548150Y309100D02*
X582450Y274800D01*
X660800Y165100D02*
X635000Y139300D01*
X660800Y165100D02*
X719000Y165100D01*
X713350Y177800D02*
X730250Y194700D01*
X673500Y177800D02*
X635000Y139300D01*
X673500Y177800D02*
X713350Y177800D01*
X719000Y165100D02*
X746150Y192250D01*
X746150Y245600D01*
X765200Y245600D01*
X780600Y245600D01*
X787500Y252500D01*
X935600Y165100D02*
X980050Y165100D01*
D38*
X980050Y82550D02*
X980050Y57150D01*
X980050Y82550D02*
X980050Y114300D01*
X980050Y137550D01*
X980050Y165100D01*
X980050Y137550D02*
X982590Y135010D01*
X930430Y52550D02*
X895350Y52550D01*
X930430Y52550D02*
X942340Y40640D01*
X979170Y40640D01*
X982980Y44450D01*
X982980Y59300D01*
X982590Y135010D02*
X982590Y296790D01*
D39*
X980050Y57150D02*
X1001150Y57150D01*
X1001150Y82550D01*
X980050Y82550D01*
X1001150Y82550D02*
X1001150Y99600D01*
X1011900Y110350D01*
X1040300Y103970D02*
X1040300Y69850D01*
X1033920Y110350D02*
X1011900Y110350D01*
X1033920Y110350D02*
X1040300Y103970D01*
D38*
X982590Y296790D02*
X1014250Y328450D01*
X1147700Y328450D01*
D40*
X982200Y59300D02*
X980050Y57150D01*
X982200Y59300D02*
X982980Y59300D01*
X895350Y52550D02*
X824050Y52550D01*
X823500Y52000D01*
D39*
X1070900Y79550D02*
X1080600Y69850D01*
X1070900Y79550D02*
X1070900Y104000D01*
X1070900Y133350D01*
D38*
X1066400Y241300D02*
X1066400Y266300D01*
X1098550Y298450D01*
X1147700Y298450D01*
X1066400Y137850D02*
X1070900Y133350D01*
X1066400Y137850D02*
X1066400Y241300D01*
X1070900Y133350D02*
X1011900Y133350D01*
D40*
X1071900Y105000D02*
X1095500Y105000D01*
X1071900Y105000D02*
X1070900Y104000D01*
D37*
X450850Y795270D02*
X450850Y855730D01*
X532650Y940850D02*
X508300Y965200D01*
X532650Y940850D02*
X532650Y850900D01*
X597650Y825500D02*
X673500Y825500D01*
X673500Y761250D02*
X648450Y736200D01*
X673500Y761250D02*
X673500Y825500D01*
X709100Y850900D02*
X597650Y850900D01*
X723500Y836500D02*
X723500Y825500D01*
X723500Y836500D02*
X709100Y850900D01*
X723500Y812800D02*
X750050Y786250D01*
X723500Y812800D02*
X723500Y825500D01*
X750050Y786250D02*
X750050Y736200D01*
X648200Y609500D02*
X667150Y590550D01*
X648200Y609500D02*
X648200Y686200D01*
X667150Y590550D02*
X667150Y554150D01*
X595600Y482600D02*
X552450Y482600D01*
X595600Y482600D02*
X667150Y554150D01*
X552450Y482600D02*
X493900Y482600D01*
X447400Y529100D01*
X749800Y606800D02*
X749800Y686200D01*
X749800Y606800D02*
X733000Y590000D01*
X717700Y590000D01*
X717150Y590550D01*
X430400Y309100D02*
X400400Y309100D01*
X400400Y145300D01*
X406400Y139300D01*
X520700Y139300D01*
X520700Y226850D02*
X522450Y228600D01*
X520700Y226850D02*
X520700Y139300D01*
D38*
X430400Y274450D02*
X430400Y309100D01*
X430400Y274450D02*
X438150Y266700D01*
D39*
X704850Y211700D02*
X730250Y211700D01*
X730250Y221250D01*
D11*
X730250Y221250D03*
X771000Y202000D03*
D39*
X793000Y202000D01*
X797000Y206000D02*
X797000Y225500D01*
X797000Y206000D02*
X793000Y202000D01*
X789940Y278000D02*
X789940Y284960D01*
X781050Y293850D01*
X829300Y271700D02*
X829300Y251500D01*
X823300Y245500D01*
X807150Y293850D02*
X781050Y293850D01*
X807150Y293850D02*
X829300Y271700D01*
X797000Y270940D02*
X797000Y252500D01*
X797000Y270940D02*
X789940Y278000D01*
X806500Y225500D02*
X820300Y225500D01*
X823300Y228500D01*
D40*
X899160Y116360D02*
X895350Y112550D01*
D39*
X891650Y129540D02*
X891650Y148590D01*
X891650Y129540D02*
X891650Y116250D01*
X895350Y112550D02*
X856460Y112550D01*
X843280Y125730D02*
X843280Y150250D01*
X843280Y125730D02*
X856460Y112550D01*
X891650Y129540D02*
X895350Y125840D01*
X895350Y112550D01*
X918600Y175260D02*
X918600Y184150D01*
X918600Y175260D02*
X918600Y165100D01*
X918270Y175590D02*
X901150Y175590D01*
X918270Y175590D02*
X918600Y175260D01*
X918600Y209550D02*
X897500Y209550D01*
X891650Y190610D02*
X891650Y175590D01*
X897500Y196460D02*
X897500Y209550D01*
X897500Y196460D02*
X891650Y190610D01*
X723900Y245500D02*
X698500Y245500D01*
D40*
X705000Y239000D01*
X705000Y231300D02*
X705300Y231000D01*
D11*
X705300Y231000D03*
X769605Y223605D03*
D40*
X771500Y225500D01*
X787500Y225500D01*
X705000Y231300D02*
X705000Y239000D01*
D39*
X838200Y182880D02*
X838200Y172330D01*
X843280Y167250D01*
X838200Y182880D02*
X839470Y184150D01*
D11*
X839470Y184150D03*
X875350Y191770D03*
D39*
X882150Y184970D01*
X882150Y175590D01*
X712900Y273500D02*
X712900Y331900D01*
X712900Y273500D02*
X723900Y262500D01*
X734850Y353850D02*
X781050Y353850D01*
X734850Y353850D02*
X712900Y331900D01*
D38*
X781050Y353850D02*
X782400Y355200D01*
X889000Y355200D01*
X889400Y355600D01*
X946150Y355600D01*
X1155700Y355600D01*
X1177700Y333600D01*
X1177700Y328450D01*
X858520Y209550D02*
X858520Y172330D01*
X863600Y167250D01*
X858520Y209550D02*
X858520Y229870D01*
X946150Y317500D02*
X946150Y355600D01*
X946150Y317500D02*
X858520Y229870D01*
D39*
X863600Y167250D02*
X874150Y167250D01*
X880110Y161290D02*
X895350Y161290D01*
X901150Y155490D01*
X901150Y148590D01*
X880110Y161290D02*
X874150Y167250D01*
X880500Y209550D02*
X858520Y209550D01*
D38*
X69850Y367300D02*
X69850Y432800D01*
D40*
X806500Y52000D02*
X806500Y52000D01*
X788000Y52000D01*
X1112500Y105000D02*
X1134000Y105000D01*
X1134000Y105000D01*
M02*
