G75*
%MOIN*%
%OFA0B0*%
%FSLAX25Y25*%
%IPPOS*%
%LPD*%
%AMOC8*
5,1,8,0,0,1.08239X$1,22.5*
%
%ADD10C,0.05937*%
%ADD11C,0.07874*%
%ADD12C,0.04000*%
%ADD13C,0.00039*%
%ADD14C,0.02978*%
D10*
X0010606Y0138520D03*
X0010606Y0148520D03*
X0010606Y0158520D03*
X0010606Y0168520D03*
X0010606Y0178520D03*
X0010606Y0188520D03*
X0010606Y0198520D03*
X0010606Y0208520D03*
X0010606Y0218520D03*
X0010606Y0228520D03*
X0020606Y0228520D03*
X0020606Y0218520D03*
X0020606Y0208520D03*
X0020606Y0198520D03*
X0020606Y0188520D03*
X0020606Y0178520D03*
X0020606Y0168520D03*
X0020606Y0158520D03*
X0020606Y0148520D03*
X0020606Y0138520D03*
D11*
X0069307Y0020449D02*
X0069307Y0012575D01*
X0084307Y0012575D02*
X0084307Y0020449D01*
D12*
X0084307Y0016512D02*
X0084307Y0066748D01*
X0084307Y0074819D01*
X0020606Y0138520D01*
D13*
X0025803Y0138509D02*
X0005331Y0138509D01*
X0005331Y0138472D02*
X0025803Y0138472D01*
X0025803Y0138434D02*
X0005331Y0138434D01*
X0005331Y0138396D02*
X0025803Y0138396D01*
X0025803Y0138358D02*
X0005331Y0138358D01*
X0005331Y0138320D02*
X0025803Y0138320D01*
X0025803Y0138282D02*
X0005331Y0138282D01*
X0005331Y0138244D02*
X0025803Y0138244D01*
X0025803Y0138206D02*
X0005331Y0138206D01*
X0005331Y0138169D02*
X0025803Y0138169D01*
X0025803Y0138131D02*
X0005331Y0138131D01*
X0005331Y0138093D02*
X0025803Y0138093D01*
X0025803Y0138055D02*
X0005331Y0138055D01*
X0005331Y0138017D02*
X0025803Y0138017D01*
X0025803Y0137979D02*
X0005331Y0137979D01*
X0005331Y0137941D02*
X0025803Y0137941D01*
X0025803Y0137903D02*
X0005331Y0137903D01*
X0005331Y0137865D02*
X0025803Y0137865D01*
X0025803Y0137828D02*
X0005331Y0137828D01*
X0005331Y0137790D02*
X0025803Y0137790D01*
X0025803Y0137752D02*
X0005331Y0137752D01*
X0005331Y0137714D02*
X0025803Y0137714D01*
X0025803Y0137676D02*
X0005331Y0137676D01*
X0005331Y0137638D02*
X0025803Y0137638D01*
X0025803Y0137600D02*
X0005331Y0137600D01*
X0005331Y0137562D02*
X0025803Y0137562D01*
X0025803Y0137525D02*
X0005331Y0137525D01*
X0005331Y0137487D02*
X0025803Y0137487D01*
X0025803Y0137449D02*
X0005331Y0137449D01*
X0005331Y0137411D02*
X0025803Y0137411D01*
X0025803Y0137373D02*
X0005331Y0137373D01*
X0005331Y0137335D02*
X0025803Y0137335D01*
X0025803Y0137297D02*
X0005331Y0137297D01*
X0005331Y0137259D02*
X0025803Y0137259D01*
X0025803Y0137222D02*
X0005331Y0137222D01*
X0005331Y0137184D02*
X0025803Y0137184D01*
X0025803Y0137146D02*
X0005331Y0137146D01*
X0005331Y0137108D02*
X0025803Y0137108D01*
X0025803Y0137070D02*
X0005331Y0137070D01*
X0005331Y0137032D02*
X0025803Y0137032D01*
X0025803Y0136994D02*
X0005331Y0136994D01*
X0005331Y0136956D02*
X0025803Y0136956D01*
X0025803Y0136918D02*
X0005331Y0136918D01*
X0005331Y0136881D02*
X0025803Y0136881D01*
X0025803Y0136843D02*
X0005331Y0136843D01*
X0005331Y0136805D02*
X0025803Y0136805D01*
X0025803Y0136767D02*
X0005331Y0136767D01*
X0005331Y0136729D02*
X0025803Y0136729D01*
X0025803Y0136691D02*
X0005331Y0136691D01*
X0005331Y0136653D02*
X0025803Y0136653D01*
X0025803Y0136615D02*
X0005331Y0136615D01*
X0005331Y0136578D02*
X0025803Y0136578D01*
X0025803Y0136540D02*
X0005331Y0136540D01*
X0005331Y0136502D02*
X0025803Y0136502D01*
X0025803Y0136464D02*
X0005331Y0136464D01*
X0005331Y0136426D02*
X0025803Y0136426D01*
X0025803Y0136388D02*
X0005331Y0136388D01*
X0005331Y0136350D02*
X0025803Y0136350D01*
X0025803Y0136312D02*
X0005331Y0136312D01*
X0005331Y0136274D02*
X0025803Y0136274D01*
X0025803Y0136237D02*
X0005331Y0136237D01*
X0005331Y0136199D02*
X0025803Y0136199D01*
X0025803Y0136161D02*
X0005331Y0136161D01*
X0005331Y0136123D02*
X0025803Y0136123D01*
X0025803Y0136085D02*
X0005331Y0136085D01*
X0005331Y0136047D02*
X0025803Y0136047D01*
X0025803Y0136009D02*
X0005331Y0136009D01*
X0005331Y0135971D02*
X0025803Y0135971D01*
X0025803Y0135934D02*
X0005331Y0135934D01*
X0005331Y0135896D02*
X0025803Y0135896D01*
X0025803Y0135858D02*
X0005331Y0135858D01*
X0005331Y0135820D02*
X0025803Y0135820D01*
X0025803Y0135782D02*
X0005331Y0135782D01*
X0005331Y0135744D02*
X0025803Y0135744D01*
X0025803Y0135706D02*
X0005331Y0135706D01*
X0005331Y0135668D02*
X0025803Y0135668D01*
X0025803Y0135630D02*
X0005331Y0135630D01*
X0005331Y0135593D02*
X0025803Y0135593D01*
X0025803Y0135555D02*
X0005331Y0135555D01*
X0005331Y0135517D02*
X0025803Y0135517D01*
X0025803Y0135479D02*
X0005331Y0135479D01*
X0005331Y0135441D02*
X0025803Y0135441D01*
X0025803Y0135403D02*
X0005331Y0135403D01*
X0005331Y0135365D02*
X0025803Y0135365D01*
X0025803Y0135327D02*
X0005331Y0135327D01*
X0005331Y0135290D02*
X0025803Y0135290D01*
X0025803Y0135252D02*
X0005331Y0135252D01*
X0005331Y0135214D02*
X0025803Y0135214D01*
X0025803Y0135176D02*
X0005331Y0135176D01*
X0005331Y0135138D02*
X0025803Y0135138D01*
X0025803Y0135100D02*
X0005331Y0135100D01*
X0005331Y0135062D02*
X0025803Y0135062D01*
X0025803Y0135024D02*
X0005331Y0135024D01*
X0005331Y0134987D02*
X0025803Y0134987D01*
X0025803Y0134949D02*
X0005331Y0134949D01*
X0005331Y0134911D02*
X0025803Y0134911D01*
X0025803Y0134873D02*
X0005331Y0134873D01*
X0005331Y0134835D02*
X0025803Y0134835D01*
X0025803Y0134797D02*
X0005331Y0134797D01*
X0005331Y0134759D02*
X0025803Y0134759D01*
X0025803Y0134721D02*
X0005331Y0134721D01*
X0005331Y0134683D02*
X0025803Y0134683D01*
X0025803Y0134646D02*
X0005331Y0134646D01*
X0005331Y0134608D02*
X0025803Y0134608D01*
X0025803Y0134570D02*
X0005331Y0134570D01*
X0005331Y0134532D02*
X0025803Y0134532D01*
X0025803Y0134494D02*
X0005331Y0134494D01*
X0005331Y0134456D02*
X0025803Y0134456D01*
X0025803Y0134418D02*
X0005331Y0134418D01*
X0005331Y0134380D02*
X0025803Y0134380D01*
X0025803Y0134343D02*
X0005331Y0134343D01*
X0005331Y0134305D02*
X0025803Y0134305D01*
X0025803Y0134267D02*
X0005331Y0134267D01*
X0005331Y0134229D02*
X0025803Y0134229D01*
X0025803Y0134191D02*
X0005331Y0134191D01*
X0005331Y0134153D02*
X0025803Y0134153D01*
X0025803Y0134115D02*
X0005331Y0134115D01*
X0005331Y0134077D02*
X0025803Y0134077D01*
X0025803Y0134039D02*
X0005331Y0134039D01*
X0005331Y0134002D02*
X0025803Y0134002D01*
X0025803Y0133964D02*
X0005331Y0133964D01*
X0005331Y0133926D02*
X0025803Y0133926D01*
X0025803Y0133888D02*
X0005331Y0133888D01*
X0005331Y0133850D02*
X0025803Y0133850D01*
X0025803Y0133812D02*
X0005331Y0133812D01*
X0005331Y0133774D02*
X0025803Y0133774D01*
X0025803Y0133736D02*
X0005331Y0133736D01*
X0005331Y0133699D02*
X0025803Y0133699D01*
X0025803Y0133661D02*
X0005331Y0133661D01*
X0005331Y0133623D02*
X0025803Y0133623D01*
X0025803Y0133585D02*
X0005331Y0133585D01*
X0005331Y0133547D02*
X0025803Y0133547D01*
X0025803Y0133509D02*
X0005331Y0133509D01*
X0005331Y0133471D02*
X0025803Y0133471D01*
X0025803Y0133433D02*
X0005331Y0133433D01*
X0005331Y0133395D02*
X0025803Y0133395D01*
X0025803Y0133358D02*
X0005331Y0133358D01*
X0005331Y0133320D02*
X0025803Y0133320D01*
X0025803Y0133283D02*
X0025803Y0223441D01*
X0005331Y0223441D01*
X0005331Y0133283D01*
X0025803Y0133283D01*
X0025803Y0138547D02*
X0005331Y0138547D01*
X0005331Y0138585D02*
X0025803Y0138585D01*
X0025803Y0138623D02*
X0005331Y0138623D01*
X0005331Y0138661D02*
X0025803Y0138661D01*
X0025803Y0138699D02*
X0005331Y0138699D01*
X0005331Y0138737D02*
X0025803Y0138737D01*
X0025803Y0138775D02*
X0005331Y0138775D01*
X0005331Y0138813D02*
X0025803Y0138813D01*
X0025803Y0138850D02*
X0005331Y0138850D01*
X0005331Y0138888D02*
X0025803Y0138888D01*
X0025803Y0138926D02*
X0005331Y0138926D01*
X0005331Y0138964D02*
X0025803Y0138964D01*
X0025803Y0139002D02*
X0005331Y0139002D01*
X0005331Y0139040D02*
X0025803Y0139040D01*
X0025803Y0139078D02*
X0005331Y0139078D01*
X0005331Y0139116D02*
X0025803Y0139116D01*
X0025803Y0139153D02*
X0005331Y0139153D01*
X0005331Y0139191D02*
X0025803Y0139191D01*
X0025803Y0139229D02*
X0005331Y0139229D01*
X0005331Y0139267D02*
X0025803Y0139267D01*
X0025803Y0139305D02*
X0005331Y0139305D01*
X0005331Y0139343D02*
X0025803Y0139343D01*
X0025803Y0139381D02*
X0005331Y0139381D01*
X0005331Y0139419D02*
X0025803Y0139419D01*
X0025803Y0139457D02*
X0005331Y0139457D01*
X0005331Y0139494D02*
X0025803Y0139494D01*
X0025803Y0139532D02*
X0005331Y0139532D01*
X0005331Y0139570D02*
X0025803Y0139570D01*
X0025803Y0139608D02*
X0005331Y0139608D01*
X0005331Y0139646D02*
X0025803Y0139646D01*
X0025803Y0139684D02*
X0005331Y0139684D01*
X0005331Y0139722D02*
X0025803Y0139722D01*
X0025803Y0139760D02*
X0005331Y0139760D01*
X0005331Y0139797D02*
X0025803Y0139797D01*
X0025803Y0139835D02*
X0005331Y0139835D01*
X0005331Y0139873D02*
X0025803Y0139873D01*
X0025803Y0139911D02*
X0005331Y0139911D01*
X0005331Y0139949D02*
X0025803Y0139949D01*
X0025803Y0139987D02*
X0005331Y0139987D01*
X0005331Y0140025D02*
X0025803Y0140025D01*
X0025803Y0140063D02*
X0005331Y0140063D01*
X0005331Y0140100D02*
X0025803Y0140100D01*
X0025803Y0140138D02*
X0005331Y0140138D01*
X0005331Y0140176D02*
X0025803Y0140176D01*
X0025803Y0140214D02*
X0005331Y0140214D01*
X0005331Y0140252D02*
X0025803Y0140252D01*
X0025803Y0140290D02*
X0005331Y0140290D01*
X0005331Y0140328D02*
X0025803Y0140328D01*
X0025803Y0140366D02*
X0005331Y0140366D01*
X0005331Y0140404D02*
X0025803Y0140404D01*
X0025803Y0140441D02*
X0005331Y0140441D01*
X0005331Y0140479D02*
X0025803Y0140479D01*
X0025803Y0140517D02*
X0005331Y0140517D01*
X0005331Y0140555D02*
X0025803Y0140555D01*
X0025803Y0140593D02*
X0005331Y0140593D01*
X0005331Y0140631D02*
X0025803Y0140631D01*
X0025803Y0140669D02*
X0005331Y0140669D01*
X0005331Y0140707D02*
X0025803Y0140707D01*
X0025803Y0140744D02*
X0005331Y0140744D01*
X0005331Y0140782D02*
X0025803Y0140782D01*
X0025803Y0140820D02*
X0005331Y0140820D01*
X0005331Y0140858D02*
X0025803Y0140858D01*
X0025803Y0140896D02*
X0005331Y0140896D01*
X0005331Y0140934D02*
X0025803Y0140934D01*
X0025803Y0140972D02*
X0005331Y0140972D01*
X0005331Y0141010D02*
X0025803Y0141010D01*
X0025803Y0141048D02*
X0005331Y0141048D01*
X0005331Y0141085D02*
X0025803Y0141085D01*
X0025803Y0141123D02*
X0005331Y0141123D01*
X0005331Y0141161D02*
X0025803Y0141161D01*
X0025803Y0141199D02*
X0005331Y0141199D01*
X0005331Y0141237D02*
X0025803Y0141237D01*
X0025803Y0141275D02*
X0005331Y0141275D01*
X0005331Y0141313D02*
X0025803Y0141313D01*
X0025803Y0141351D02*
X0005331Y0141351D01*
X0005331Y0141388D02*
X0025803Y0141388D01*
X0025803Y0141426D02*
X0005331Y0141426D01*
X0005331Y0141464D02*
X0025803Y0141464D01*
X0025803Y0141502D02*
X0005331Y0141502D01*
X0005331Y0141540D02*
X0025803Y0141540D01*
X0025803Y0141578D02*
X0005331Y0141578D01*
X0005331Y0141616D02*
X0025803Y0141616D01*
X0025803Y0141654D02*
X0005331Y0141654D01*
X0005331Y0141692D02*
X0025803Y0141692D01*
X0025803Y0141729D02*
X0005331Y0141729D01*
X0005331Y0141767D02*
X0025803Y0141767D01*
X0025803Y0141805D02*
X0005331Y0141805D01*
X0005331Y0141843D02*
X0025803Y0141843D01*
X0025803Y0141881D02*
X0005331Y0141881D01*
X0005331Y0141919D02*
X0025803Y0141919D01*
X0025803Y0141957D02*
X0005331Y0141957D01*
X0005331Y0141995D02*
X0025803Y0141995D01*
X0025803Y0142032D02*
X0005331Y0142032D01*
X0005331Y0142070D02*
X0025803Y0142070D01*
X0025803Y0142108D02*
X0005331Y0142108D01*
X0005331Y0142146D02*
X0025803Y0142146D01*
X0025803Y0142184D02*
X0005331Y0142184D01*
X0005331Y0142222D02*
X0025803Y0142222D01*
X0025803Y0142260D02*
X0005331Y0142260D01*
X0005331Y0142298D02*
X0025803Y0142298D01*
X0025803Y0142335D02*
X0005331Y0142335D01*
X0005331Y0142373D02*
X0025803Y0142373D01*
X0025803Y0142411D02*
X0005331Y0142411D01*
X0005331Y0142449D02*
X0025803Y0142449D01*
X0025803Y0142487D02*
X0005331Y0142487D01*
X0005331Y0142525D02*
X0025803Y0142525D01*
X0025803Y0142563D02*
X0005331Y0142563D01*
X0005331Y0142601D02*
X0025803Y0142601D01*
X0025803Y0142639D02*
X0005331Y0142639D01*
X0005331Y0142676D02*
X0025803Y0142676D01*
X0025803Y0142714D02*
X0005331Y0142714D01*
X0005331Y0142752D02*
X0025803Y0142752D01*
X0025803Y0142790D02*
X0005331Y0142790D01*
X0005331Y0142828D02*
X0025803Y0142828D01*
X0025803Y0142866D02*
X0005331Y0142866D01*
X0005331Y0142904D02*
X0025803Y0142904D01*
X0025803Y0142942D02*
X0005331Y0142942D01*
X0005331Y0142979D02*
X0025803Y0142979D01*
X0025803Y0143017D02*
X0005331Y0143017D01*
X0005331Y0143055D02*
X0025803Y0143055D01*
X0025803Y0143093D02*
X0005331Y0143093D01*
X0005331Y0143131D02*
X0025803Y0143131D01*
X0025803Y0143169D02*
X0005331Y0143169D01*
X0005331Y0143207D02*
X0025803Y0143207D01*
X0025803Y0143245D02*
X0005331Y0143245D01*
X0005331Y0143283D02*
X0025803Y0143283D01*
X0025803Y0143320D02*
X0005331Y0143320D01*
X0005331Y0143358D02*
X0025803Y0143358D01*
X0025803Y0143396D02*
X0005331Y0143396D01*
X0005331Y0143434D02*
X0025803Y0143434D01*
X0025803Y0143472D02*
X0005331Y0143472D01*
X0005331Y0143510D02*
X0025803Y0143510D01*
X0025803Y0143548D02*
X0005331Y0143548D01*
X0005331Y0143586D02*
X0025803Y0143586D01*
X0025803Y0143623D02*
X0005331Y0143623D01*
X0005331Y0143661D02*
X0025803Y0143661D01*
X0025803Y0143699D02*
X0005331Y0143699D01*
X0005331Y0143737D02*
X0025803Y0143737D01*
X0025803Y0143775D02*
X0005331Y0143775D01*
X0005331Y0143813D02*
X0025803Y0143813D01*
X0025803Y0143851D02*
X0005331Y0143851D01*
X0005331Y0143889D02*
X0025803Y0143889D01*
X0025803Y0143927D02*
X0005331Y0143927D01*
X0005331Y0143964D02*
X0025803Y0143964D01*
X0025803Y0144002D02*
X0005331Y0144002D01*
X0005331Y0144040D02*
X0025803Y0144040D01*
X0025803Y0144078D02*
X0005331Y0144078D01*
X0005331Y0144116D02*
X0025803Y0144116D01*
X0025803Y0144154D02*
X0005331Y0144154D01*
X0005331Y0144192D02*
X0025803Y0144192D01*
X0025803Y0144230D02*
X0005331Y0144230D01*
X0005331Y0144267D02*
X0025803Y0144267D01*
X0025803Y0144305D02*
X0005331Y0144305D01*
X0005331Y0144343D02*
X0025803Y0144343D01*
X0025803Y0144381D02*
X0005331Y0144381D01*
X0005331Y0144419D02*
X0025803Y0144419D01*
X0025803Y0144457D02*
X0005331Y0144457D01*
X0005331Y0144495D02*
X0025803Y0144495D01*
X0025803Y0144533D02*
X0005331Y0144533D01*
X0005331Y0144570D02*
X0025803Y0144570D01*
X0025803Y0144608D02*
X0005331Y0144608D01*
X0005331Y0144646D02*
X0025803Y0144646D01*
X0025803Y0144684D02*
X0005331Y0144684D01*
X0005331Y0144722D02*
X0025803Y0144722D01*
X0025803Y0144760D02*
X0005331Y0144760D01*
X0005331Y0144798D02*
X0025803Y0144798D01*
X0025803Y0144836D02*
X0005331Y0144836D01*
X0005331Y0144874D02*
X0025803Y0144874D01*
X0025803Y0144911D02*
X0005331Y0144911D01*
X0005331Y0144949D02*
X0025803Y0144949D01*
X0025803Y0144987D02*
X0005331Y0144987D01*
X0005331Y0145025D02*
X0025803Y0145025D01*
X0025803Y0145063D02*
X0005331Y0145063D01*
X0005331Y0145101D02*
X0025803Y0145101D01*
X0025803Y0145139D02*
X0005331Y0145139D01*
X0005331Y0145177D02*
X0025803Y0145177D01*
X0025803Y0145214D02*
X0005331Y0145214D01*
X0005331Y0145252D02*
X0025803Y0145252D01*
X0025803Y0145290D02*
X0005331Y0145290D01*
X0005331Y0145328D02*
X0025803Y0145328D01*
X0025803Y0145366D02*
X0005331Y0145366D01*
X0005331Y0145404D02*
X0025803Y0145404D01*
X0025803Y0145442D02*
X0005331Y0145442D01*
X0005331Y0145480D02*
X0025803Y0145480D01*
X0025803Y0145518D02*
X0005331Y0145518D01*
X0005331Y0145555D02*
X0025803Y0145555D01*
X0025803Y0145593D02*
X0005331Y0145593D01*
X0005331Y0145631D02*
X0025803Y0145631D01*
X0025803Y0145669D02*
X0005331Y0145669D01*
X0005331Y0145707D02*
X0025803Y0145707D01*
X0025803Y0145745D02*
X0005331Y0145745D01*
X0005331Y0145783D02*
X0025803Y0145783D01*
X0025803Y0145821D02*
X0005331Y0145821D01*
X0005331Y0145858D02*
X0025803Y0145858D01*
X0025803Y0145896D02*
X0005331Y0145896D01*
X0005331Y0145934D02*
X0025803Y0145934D01*
X0025803Y0145972D02*
X0005331Y0145972D01*
X0005331Y0146010D02*
X0025803Y0146010D01*
X0025803Y0146048D02*
X0005331Y0146048D01*
X0005331Y0146086D02*
X0025803Y0146086D01*
X0025803Y0146124D02*
X0005331Y0146124D01*
X0005331Y0146162D02*
X0025803Y0146162D01*
X0025803Y0146199D02*
X0005331Y0146199D01*
X0005331Y0146237D02*
X0025803Y0146237D01*
X0025803Y0146275D02*
X0005331Y0146275D01*
X0005331Y0146313D02*
X0025803Y0146313D01*
X0025803Y0146351D02*
X0005331Y0146351D01*
X0005331Y0146389D02*
X0025803Y0146389D01*
X0025803Y0146427D02*
X0005331Y0146427D01*
X0005331Y0146465D02*
X0025803Y0146465D01*
X0025803Y0146502D02*
X0005331Y0146502D01*
X0005331Y0146540D02*
X0025803Y0146540D01*
X0025803Y0146578D02*
X0005331Y0146578D01*
X0005331Y0146616D02*
X0025803Y0146616D01*
X0025803Y0146654D02*
X0005331Y0146654D01*
X0005331Y0146692D02*
X0025803Y0146692D01*
X0025803Y0146730D02*
X0005331Y0146730D01*
X0005331Y0146768D02*
X0025803Y0146768D01*
X0025803Y0146805D02*
X0005331Y0146805D01*
X0005331Y0146843D02*
X0025803Y0146843D01*
X0025803Y0146881D02*
X0005331Y0146881D01*
X0005331Y0146919D02*
X0025803Y0146919D01*
X0025803Y0146957D02*
X0005331Y0146957D01*
X0005331Y0146995D02*
X0025803Y0146995D01*
X0025803Y0147033D02*
X0005331Y0147033D01*
X0005331Y0147071D02*
X0025803Y0147071D01*
X0025803Y0147109D02*
X0005331Y0147109D01*
X0005331Y0147146D02*
X0025803Y0147146D01*
X0025803Y0147184D02*
X0005331Y0147184D01*
X0005331Y0147222D02*
X0025803Y0147222D01*
X0025803Y0147260D02*
X0005331Y0147260D01*
X0005331Y0147298D02*
X0025803Y0147298D01*
X0025803Y0147336D02*
X0005331Y0147336D01*
X0005331Y0147374D02*
X0025803Y0147374D01*
X0025803Y0147412D02*
X0005331Y0147412D01*
X0005331Y0147449D02*
X0025803Y0147449D01*
X0025803Y0147487D02*
X0005331Y0147487D01*
X0005331Y0147525D02*
X0025803Y0147525D01*
X0025803Y0147563D02*
X0005331Y0147563D01*
X0005331Y0147601D02*
X0025803Y0147601D01*
X0025803Y0147639D02*
X0005331Y0147639D01*
X0005331Y0147677D02*
X0025803Y0147677D01*
X0025803Y0147715D02*
X0005331Y0147715D01*
X0005331Y0147753D02*
X0025803Y0147753D01*
X0025803Y0147790D02*
X0005331Y0147790D01*
X0005331Y0147828D02*
X0025803Y0147828D01*
X0025803Y0147866D02*
X0005331Y0147866D01*
X0005331Y0147904D02*
X0025803Y0147904D01*
X0025803Y0147942D02*
X0005331Y0147942D01*
X0005331Y0147980D02*
X0025803Y0147980D01*
X0025803Y0148018D02*
X0005331Y0148018D01*
X0005331Y0148056D02*
X0025803Y0148056D01*
X0025803Y0148093D02*
X0005331Y0148093D01*
X0005331Y0148131D02*
X0025803Y0148131D01*
X0025803Y0148169D02*
X0005331Y0148169D01*
X0005331Y0148207D02*
X0025803Y0148207D01*
X0025803Y0148245D02*
X0005331Y0148245D01*
X0005331Y0148283D02*
X0025803Y0148283D01*
X0025803Y0148321D02*
X0005331Y0148321D01*
X0005331Y0148359D02*
X0025803Y0148359D01*
X0025803Y0148397D02*
X0005331Y0148397D01*
X0005331Y0148434D02*
X0025803Y0148434D01*
X0025803Y0148472D02*
X0005331Y0148472D01*
X0005331Y0148510D02*
X0025803Y0148510D01*
X0025803Y0148548D02*
X0005331Y0148548D01*
X0005331Y0148586D02*
X0025803Y0148586D01*
X0025803Y0148624D02*
X0005331Y0148624D01*
X0005331Y0148662D02*
X0025803Y0148662D01*
X0025803Y0148700D02*
X0005331Y0148700D01*
X0005331Y0148737D02*
X0025803Y0148737D01*
X0025803Y0148775D02*
X0005331Y0148775D01*
X0005331Y0148813D02*
X0025803Y0148813D01*
X0025803Y0148851D02*
X0005331Y0148851D01*
X0005331Y0148889D02*
X0025803Y0148889D01*
X0025803Y0148927D02*
X0005331Y0148927D01*
X0005331Y0148965D02*
X0025803Y0148965D01*
X0025803Y0149003D02*
X0005331Y0149003D01*
X0005331Y0149041D02*
X0025803Y0149041D01*
X0025803Y0149078D02*
X0005331Y0149078D01*
X0005331Y0149116D02*
X0025803Y0149116D01*
X0025803Y0149154D02*
X0005331Y0149154D01*
X0005331Y0149192D02*
X0025803Y0149192D01*
X0025803Y0149230D02*
X0005331Y0149230D01*
X0005331Y0149268D02*
X0025803Y0149268D01*
X0025803Y0149306D02*
X0005331Y0149306D01*
X0005331Y0149344D02*
X0025803Y0149344D01*
X0025803Y0149381D02*
X0005331Y0149381D01*
X0005331Y0149419D02*
X0025803Y0149419D01*
X0025803Y0149457D02*
X0005331Y0149457D01*
X0005331Y0149495D02*
X0025803Y0149495D01*
X0025803Y0149533D02*
X0005331Y0149533D01*
X0005331Y0149571D02*
X0025803Y0149571D01*
X0025803Y0149609D02*
X0005331Y0149609D01*
X0005331Y0149647D02*
X0025803Y0149647D01*
X0025803Y0149684D02*
X0005331Y0149684D01*
X0005331Y0149722D02*
X0025803Y0149722D01*
X0025803Y0149760D02*
X0005331Y0149760D01*
X0005331Y0149798D02*
X0025803Y0149798D01*
X0025803Y0149836D02*
X0005331Y0149836D01*
X0005331Y0149874D02*
X0025803Y0149874D01*
X0025803Y0149912D02*
X0005331Y0149912D01*
X0005331Y0149950D02*
X0025803Y0149950D01*
X0025803Y0149988D02*
X0005331Y0149988D01*
X0005331Y0150025D02*
X0025803Y0150025D01*
X0025803Y0150063D02*
X0005331Y0150063D01*
X0005331Y0150101D02*
X0025803Y0150101D01*
X0025803Y0150139D02*
X0005331Y0150139D01*
X0005331Y0150177D02*
X0025803Y0150177D01*
X0025803Y0150215D02*
X0005331Y0150215D01*
X0005331Y0150253D02*
X0025803Y0150253D01*
X0025803Y0150291D02*
X0005331Y0150291D01*
X0005331Y0150328D02*
X0025803Y0150328D01*
X0025803Y0150366D02*
X0005331Y0150366D01*
X0005331Y0150404D02*
X0025803Y0150404D01*
X0025803Y0150442D02*
X0005331Y0150442D01*
X0005331Y0150480D02*
X0025803Y0150480D01*
X0025803Y0150518D02*
X0005331Y0150518D01*
X0005331Y0150556D02*
X0025803Y0150556D01*
X0025803Y0150594D02*
X0005331Y0150594D01*
X0005331Y0150632D02*
X0025803Y0150632D01*
X0025803Y0150669D02*
X0005331Y0150669D01*
X0005331Y0150707D02*
X0025803Y0150707D01*
X0025803Y0150745D02*
X0005331Y0150745D01*
X0005331Y0150783D02*
X0025803Y0150783D01*
X0025803Y0150821D02*
X0005331Y0150821D01*
X0005331Y0150859D02*
X0025803Y0150859D01*
X0025803Y0150897D02*
X0005331Y0150897D01*
X0005331Y0150935D02*
X0025803Y0150935D01*
X0025803Y0150972D02*
X0005331Y0150972D01*
X0005331Y0151010D02*
X0025803Y0151010D01*
X0025803Y0151048D02*
X0005331Y0151048D01*
X0005331Y0151086D02*
X0025803Y0151086D01*
X0025803Y0151124D02*
X0005331Y0151124D01*
X0005331Y0151162D02*
X0025803Y0151162D01*
X0025803Y0151200D02*
X0005331Y0151200D01*
X0005331Y0151238D02*
X0025803Y0151238D01*
X0025803Y0151276D02*
X0005331Y0151276D01*
X0005331Y0151313D02*
X0025803Y0151313D01*
X0025803Y0151351D02*
X0005331Y0151351D01*
X0005331Y0151389D02*
X0025803Y0151389D01*
X0025803Y0151427D02*
X0005331Y0151427D01*
X0005331Y0151465D02*
X0025803Y0151465D01*
X0025803Y0151503D02*
X0005331Y0151503D01*
X0005331Y0151541D02*
X0025803Y0151541D01*
X0025803Y0151579D02*
X0005331Y0151579D01*
X0005331Y0151616D02*
X0025803Y0151616D01*
X0025803Y0151654D02*
X0005331Y0151654D01*
X0005331Y0151692D02*
X0025803Y0151692D01*
X0025803Y0151730D02*
X0005331Y0151730D01*
X0005331Y0151768D02*
X0025803Y0151768D01*
X0025803Y0151806D02*
X0005331Y0151806D01*
X0005331Y0151844D02*
X0025803Y0151844D01*
X0025803Y0151882D02*
X0005331Y0151882D01*
X0005331Y0151919D02*
X0025803Y0151919D01*
X0025803Y0151957D02*
X0005331Y0151957D01*
X0005331Y0151995D02*
X0025803Y0151995D01*
X0025803Y0152033D02*
X0005331Y0152033D01*
X0005331Y0152071D02*
X0025803Y0152071D01*
X0025803Y0152109D02*
X0005331Y0152109D01*
X0005331Y0152147D02*
X0025803Y0152147D01*
X0025803Y0152185D02*
X0005331Y0152185D01*
X0005331Y0152223D02*
X0025803Y0152223D01*
X0025803Y0152260D02*
X0005331Y0152260D01*
X0005331Y0152298D02*
X0025803Y0152298D01*
X0025803Y0152336D02*
X0005331Y0152336D01*
X0005331Y0152374D02*
X0025803Y0152374D01*
X0025803Y0152412D02*
X0005331Y0152412D01*
X0005331Y0152450D02*
X0025803Y0152450D01*
X0025803Y0152488D02*
X0005331Y0152488D01*
X0005331Y0152526D02*
X0025803Y0152526D01*
X0025803Y0152563D02*
X0005331Y0152563D01*
X0005331Y0152601D02*
X0025803Y0152601D01*
X0025803Y0152639D02*
X0005331Y0152639D01*
X0005331Y0152677D02*
X0025803Y0152677D01*
X0025803Y0152715D02*
X0005331Y0152715D01*
X0005331Y0152753D02*
X0025803Y0152753D01*
X0025803Y0152791D02*
X0005331Y0152791D01*
X0005331Y0152829D02*
X0025803Y0152829D01*
X0025803Y0152867D02*
X0005331Y0152867D01*
X0005331Y0152904D02*
X0025803Y0152904D01*
X0025803Y0152942D02*
X0005331Y0152942D01*
X0005331Y0152980D02*
X0025803Y0152980D01*
X0025803Y0153018D02*
X0005331Y0153018D01*
X0005331Y0153056D02*
X0025803Y0153056D01*
X0025803Y0153094D02*
X0005331Y0153094D01*
X0005331Y0153132D02*
X0025803Y0153132D01*
X0025803Y0153170D02*
X0005331Y0153170D01*
X0005331Y0153207D02*
X0025803Y0153207D01*
X0025803Y0153245D02*
X0005331Y0153245D01*
X0005331Y0153283D02*
X0025803Y0153283D01*
X0025803Y0153321D02*
X0005331Y0153321D01*
X0005331Y0153359D02*
X0025803Y0153359D01*
X0025803Y0153397D02*
X0005331Y0153397D01*
X0005331Y0153435D02*
X0025803Y0153435D01*
X0025803Y0153473D02*
X0005331Y0153473D01*
X0005331Y0153511D02*
X0025803Y0153511D01*
X0025803Y0153548D02*
X0005331Y0153548D01*
X0005331Y0153586D02*
X0025803Y0153586D01*
X0025803Y0153624D02*
X0005331Y0153624D01*
X0005331Y0153662D02*
X0025803Y0153662D01*
X0025803Y0153700D02*
X0005331Y0153700D01*
X0005331Y0153738D02*
X0025803Y0153738D01*
X0025803Y0153776D02*
X0005331Y0153776D01*
X0005331Y0153814D02*
X0025803Y0153814D01*
X0025803Y0153851D02*
X0005331Y0153851D01*
X0005331Y0153889D02*
X0025803Y0153889D01*
X0025803Y0153927D02*
X0005331Y0153927D01*
X0005331Y0153965D02*
X0025803Y0153965D01*
X0025803Y0154003D02*
X0005331Y0154003D01*
X0005331Y0154041D02*
X0025803Y0154041D01*
X0025803Y0154079D02*
X0005331Y0154079D01*
X0005331Y0154117D02*
X0025803Y0154117D01*
X0025803Y0154154D02*
X0005331Y0154154D01*
X0005331Y0154192D02*
X0025803Y0154192D01*
X0025803Y0154230D02*
X0005331Y0154230D01*
X0005331Y0154268D02*
X0025803Y0154268D01*
X0025803Y0154306D02*
X0005331Y0154306D01*
X0005331Y0154344D02*
X0025803Y0154344D01*
X0025803Y0154382D02*
X0005331Y0154382D01*
X0005331Y0154420D02*
X0025803Y0154420D01*
X0025803Y0154458D02*
X0005331Y0154458D01*
X0005331Y0154495D02*
X0025803Y0154495D01*
X0025803Y0154533D02*
X0005331Y0154533D01*
X0005331Y0154571D02*
X0025803Y0154571D01*
X0025803Y0154609D02*
X0005331Y0154609D01*
X0005331Y0154647D02*
X0025803Y0154647D01*
X0025803Y0154685D02*
X0005331Y0154685D01*
X0005331Y0154723D02*
X0025803Y0154723D01*
X0025803Y0154761D02*
X0005331Y0154761D01*
X0005331Y0154798D02*
X0025803Y0154798D01*
X0025803Y0154836D02*
X0005331Y0154836D01*
X0005331Y0154874D02*
X0025803Y0154874D01*
X0025803Y0154912D02*
X0005331Y0154912D01*
X0005331Y0154950D02*
X0025803Y0154950D01*
X0025803Y0154988D02*
X0005331Y0154988D01*
X0005331Y0155026D02*
X0025803Y0155026D01*
X0025803Y0155064D02*
X0005331Y0155064D01*
X0005331Y0155102D02*
X0025803Y0155102D01*
X0025803Y0155139D02*
X0005331Y0155139D01*
X0005331Y0155177D02*
X0025803Y0155177D01*
X0025803Y0155215D02*
X0005331Y0155215D01*
X0005331Y0155253D02*
X0025803Y0155253D01*
X0025803Y0155291D02*
X0005331Y0155291D01*
X0005331Y0155329D02*
X0025803Y0155329D01*
X0025803Y0155367D02*
X0005331Y0155367D01*
X0005331Y0155405D02*
X0025803Y0155405D01*
X0025803Y0155442D02*
X0005331Y0155442D01*
X0005331Y0155480D02*
X0025803Y0155480D01*
X0025803Y0155518D02*
X0005331Y0155518D01*
X0005331Y0155556D02*
X0025803Y0155556D01*
X0025803Y0155594D02*
X0005331Y0155594D01*
X0005331Y0155632D02*
X0025803Y0155632D01*
X0025803Y0155670D02*
X0005331Y0155670D01*
X0005331Y0155708D02*
X0025803Y0155708D01*
X0025803Y0155746D02*
X0005331Y0155746D01*
X0005331Y0155783D02*
X0025803Y0155783D01*
X0025803Y0155821D02*
X0005331Y0155821D01*
X0005331Y0155859D02*
X0025803Y0155859D01*
X0025803Y0155897D02*
X0005331Y0155897D01*
X0005331Y0155935D02*
X0025803Y0155935D01*
X0025803Y0155973D02*
X0005331Y0155973D01*
X0005331Y0156011D02*
X0025803Y0156011D01*
X0025803Y0156049D02*
X0005331Y0156049D01*
X0005331Y0156086D02*
X0025803Y0156086D01*
X0025803Y0156124D02*
X0005331Y0156124D01*
X0005331Y0156162D02*
X0025803Y0156162D01*
X0025803Y0156200D02*
X0005331Y0156200D01*
X0005331Y0156238D02*
X0025803Y0156238D01*
X0025803Y0156276D02*
X0005331Y0156276D01*
X0005331Y0156314D02*
X0025803Y0156314D01*
X0025803Y0156352D02*
X0005331Y0156352D01*
X0005331Y0156389D02*
X0025803Y0156389D01*
X0025803Y0156427D02*
X0005331Y0156427D01*
X0005331Y0156465D02*
X0025803Y0156465D01*
X0025803Y0156503D02*
X0005331Y0156503D01*
X0005331Y0156541D02*
X0025803Y0156541D01*
X0025803Y0156579D02*
X0005331Y0156579D01*
X0005331Y0156617D02*
X0025803Y0156617D01*
X0025803Y0156655D02*
X0005331Y0156655D01*
X0005331Y0156693D02*
X0025803Y0156693D01*
X0025803Y0156730D02*
X0005331Y0156730D01*
X0005331Y0156768D02*
X0025803Y0156768D01*
X0025803Y0156806D02*
X0005331Y0156806D01*
X0005331Y0156844D02*
X0025803Y0156844D01*
X0025803Y0156882D02*
X0005331Y0156882D01*
X0005331Y0156920D02*
X0025803Y0156920D01*
X0025803Y0156958D02*
X0005331Y0156958D01*
X0005331Y0156996D02*
X0025803Y0156996D01*
X0025803Y0157033D02*
X0005331Y0157033D01*
X0005331Y0157071D02*
X0025803Y0157071D01*
X0025803Y0157109D02*
X0005331Y0157109D01*
X0005331Y0157147D02*
X0025803Y0157147D01*
X0025803Y0157185D02*
X0005331Y0157185D01*
X0005331Y0157223D02*
X0025803Y0157223D01*
X0025803Y0157261D02*
X0005331Y0157261D01*
X0005331Y0157299D02*
X0025803Y0157299D01*
X0025803Y0157337D02*
X0005331Y0157337D01*
X0005331Y0157374D02*
X0025803Y0157374D01*
X0025803Y0157412D02*
X0005331Y0157412D01*
X0005331Y0157450D02*
X0025803Y0157450D01*
X0025803Y0157488D02*
X0005331Y0157488D01*
X0005331Y0157526D02*
X0025803Y0157526D01*
X0025803Y0157564D02*
X0005331Y0157564D01*
X0005331Y0157602D02*
X0025803Y0157602D01*
X0025803Y0157640D02*
X0005331Y0157640D01*
X0005331Y0157677D02*
X0025803Y0157677D01*
X0025803Y0157715D02*
X0005331Y0157715D01*
X0005331Y0157753D02*
X0025803Y0157753D01*
X0025803Y0157791D02*
X0005331Y0157791D01*
X0005331Y0157829D02*
X0025803Y0157829D01*
X0025803Y0157867D02*
X0005331Y0157867D01*
X0005331Y0157905D02*
X0025803Y0157905D01*
X0025803Y0157943D02*
X0005331Y0157943D01*
X0005331Y0157981D02*
X0025803Y0157981D01*
X0025803Y0158018D02*
X0005331Y0158018D01*
X0005331Y0158056D02*
X0025803Y0158056D01*
X0025803Y0158094D02*
X0005331Y0158094D01*
X0005331Y0158132D02*
X0025803Y0158132D01*
X0025803Y0158170D02*
X0005331Y0158170D01*
X0005331Y0158208D02*
X0025803Y0158208D01*
X0025803Y0158246D02*
X0005331Y0158246D01*
X0005331Y0158284D02*
X0025803Y0158284D01*
X0025803Y0158321D02*
X0005331Y0158321D01*
X0005331Y0158359D02*
X0025803Y0158359D01*
X0025803Y0158397D02*
X0005331Y0158397D01*
X0005331Y0158435D02*
X0025803Y0158435D01*
X0025803Y0158473D02*
X0005331Y0158473D01*
X0005331Y0158511D02*
X0025803Y0158511D01*
X0025803Y0158549D02*
X0005331Y0158549D01*
X0005331Y0158587D02*
X0025803Y0158587D01*
X0025803Y0158624D02*
X0005331Y0158624D01*
X0005331Y0158662D02*
X0025803Y0158662D01*
X0025803Y0158700D02*
X0005331Y0158700D01*
X0005331Y0158738D02*
X0025803Y0158738D01*
X0025803Y0158776D02*
X0005331Y0158776D01*
X0005331Y0158814D02*
X0025803Y0158814D01*
X0025803Y0158852D02*
X0005331Y0158852D01*
X0005331Y0158890D02*
X0025803Y0158890D01*
X0025803Y0158928D02*
X0005331Y0158928D01*
X0005331Y0158965D02*
X0025803Y0158965D01*
X0025803Y0159003D02*
X0005331Y0159003D01*
X0005331Y0159041D02*
X0025803Y0159041D01*
X0025803Y0159079D02*
X0005331Y0159079D01*
X0005331Y0159117D02*
X0025803Y0159117D01*
X0025803Y0159155D02*
X0005331Y0159155D01*
X0005331Y0159193D02*
X0025803Y0159193D01*
X0025803Y0159231D02*
X0005331Y0159231D01*
X0005331Y0159268D02*
X0025803Y0159268D01*
X0025803Y0159306D02*
X0005331Y0159306D01*
X0005331Y0159344D02*
X0025803Y0159344D01*
X0025803Y0159382D02*
X0005331Y0159382D01*
X0005331Y0159420D02*
X0025803Y0159420D01*
X0025803Y0159458D02*
X0005331Y0159458D01*
X0005331Y0159496D02*
X0025803Y0159496D01*
X0025803Y0159534D02*
X0005331Y0159534D01*
X0005331Y0159572D02*
X0025803Y0159572D01*
X0025803Y0159609D02*
X0005331Y0159609D01*
X0005331Y0159647D02*
X0025803Y0159647D01*
X0025803Y0159685D02*
X0005331Y0159685D01*
X0005331Y0159723D02*
X0025803Y0159723D01*
X0025803Y0159761D02*
X0005331Y0159761D01*
X0005331Y0159799D02*
X0025803Y0159799D01*
X0025803Y0159837D02*
X0005331Y0159837D01*
X0005331Y0159875D02*
X0025803Y0159875D01*
X0025803Y0159912D02*
X0005331Y0159912D01*
X0005331Y0159950D02*
X0025803Y0159950D01*
X0025803Y0159988D02*
X0005331Y0159988D01*
X0005331Y0160026D02*
X0025803Y0160026D01*
X0025803Y0160064D02*
X0005331Y0160064D01*
X0005331Y0160102D02*
X0025803Y0160102D01*
X0025803Y0160140D02*
X0005331Y0160140D01*
X0005331Y0160178D02*
X0025803Y0160178D01*
X0025803Y0160216D02*
X0005331Y0160216D01*
X0005331Y0160253D02*
X0025803Y0160253D01*
X0025803Y0160291D02*
X0005331Y0160291D01*
X0005331Y0160329D02*
X0025803Y0160329D01*
X0025803Y0160367D02*
X0005331Y0160367D01*
X0005331Y0160405D02*
X0025803Y0160405D01*
X0025803Y0160443D02*
X0005331Y0160443D01*
X0005331Y0160481D02*
X0025803Y0160481D01*
X0025803Y0160519D02*
X0005331Y0160519D01*
X0005331Y0160556D02*
X0025803Y0160556D01*
X0025803Y0160594D02*
X0005331Y0160594D01*
X0005331Y0160632D02*
X0025803Y0160632D01*
X0025803Y0160670D02*
X0005331Y0160670D01*
X0005331Y0160708D02*
X0025803Y0160708D01*
X0025803Y0160746D02*
X0005331Y0160746D01*
X0005331Y0160784D02*
X0025803Y0160784D01*
X0025803Y0160822D02*
X0005331Y0160822D01*
X0005331Y0160859D02*
X0025803Y0160859D01*
X0025803Y0160897D02*
X0005331Y0160897D01*
X0005331Y0160935D02*
X0025803Y0160935D01*
X0025803Y0160973D02*
X0005331Y0160973D01*
X0005331Y0161011D02*
X0025803Y0161011D01*
X0025803Y0161049D02*
X0005331Y0161049D01*
X0005331Y0161087D02*
X0025803Y0161087D01*
X0025803Y0161125D02*
X0005331Y0161125D01*
X0005331Y0161163D02*
X0025803Y0161163D01*
X0025803Y0161200D02*
X0005331Y0161200D01*
X0005331Y0161238D02*
X0025803Y0161238D01*
X0025803Y0161276D02*
X0005331Y0161276D01*
X0005331Y0161314D02*
X0025803Y0161314D01*
X0025803Y0161352D02*
X0005331Y0161352D01*
X0005331Y0161390D02*
X0025803Y0161390D01*
X0025803Y0161428D02*
X0005331Y0161428D01*
X0005331Y0161466D02*
X0025803Y0161466D01*
X0025803Y0161503D02*
X0005331Y0161503D01*
X0005331Y0161541D02*
X0025803Y0161541D01*
X0025803Y0161579D02*
X0005331Y0161579D01*
X0005331Y0161617D02*
X0025803Y0161617D01*
X0025803Y0161655D02*
X0005331Y0161655D01*
X0005331Y0161693D02*
X0025803Y0161693D01*
X0025803Y0161731D02*
X0005331Y0161731D01*
X0005331Y0161769D02*
X0025803Y0161769D01*
X0025803Y0161807D02*
X0005331Y0161807D01*
X0005331Y0161844D02*
X0025803Y0161844D01*
X0025803Y0161882D02*
X0005331Y0161882D01*
X0005331Y0161920D02*
X0025803Y0161920D01*
X0025803Y0161958D02*
X0005331Y0161958D01*
X0005331Y0161996D02*
X0025803Y0161996D01*
X0025803Y0162034D02*
X0005331Y0162034D01*
X0005331Y0162072D02*
X0025803Y0162072D01*
X0025803Y0162110D02*
X0005331Y0162110D01*
X0005331Y0162147D02*
X0025803Y0162147D01*
X0025803Y0162185D02*
X0005331Y0162185D01*
X0005331Y0162223D02*
X0025803Y0162223D01*
X0025803Y0162261D02*
X0005331Y0162261D01*
X0005331Y0162299D02*
X0025803Y0162299D01*
X0025803Y0162337D02*
X0005331Y0162337D01*
X0005331Y0162375D02*
X0025803Y0162375D01*
X0025803Y0162413D02*
X0005331Y0162413D01*
X0005331Y0162451D02*
X0025803Y0162451D01*
X0025803Y0162488D02*
X0005331Y0162488D01*
X0005331Y0162526D02*
X0025803Y0162526D01*
X0025803Y0162564D02*
X0005331Y0162564D01*
X0005331Y0162602D02*
X0025803Y0162602D01*
X0025803Y0162640D02*
X0005331Y0162640D01*
X0005331Y0162678D02*
X0025803Y0162678D01*
X0025803Y0162716D02*
X0005331Y0162716D01*
X0005331Y0162754D02*
X0025803Y0162754D01*
X0025803Y0162791D02*
X0005331Y0162791D01*
X0005331Y0162829D02*
X0025803Y0162829D01*
X0025803Y0162867D02*
X0005331Y0162867D01*
X0005331Y0162905D02*
X0025803Y0162905D01*
X0025803Y0162943D02*
X0005331Y0162943D01*
X0005331Y0162981D02*
X0025803Y0162981D01*
X0025803Y0163019D02*
X0005331Y0163019D01*
X0005331Y0163057D02*
X0025803Y0163057D01*
X0025803Y0163095D02*
X0005331Y0163095D01*
X0005331Y0163132D02*
X0025803Y0163132D01*
X0025803Y0163170D02*
X0005331Y0163170D01*
X0005331Y0163208D02*
X0025803Y0163208D01*
X0025803Y0163246D02*
X0005331Y0163246D01*
X0005331Y0163284D02*
X0025803Y0163284D01*
X0025803Y0163322D02*
X0005331Y0163322D01*
X0005331Y0163360D02*
X0025803Y0163360D01*
X0025803Y0163398D02*
X0005331Y0163398D01*
X0005331Y0163435D02*
X0025803Y0163435D01*
X0025803Y0163473D02*
X0005331Y0163473D01*
X0005331Y0163511D02*
X0025803Y0163511D01*
X0025803Y0163549D02*
X0005331Y0163549D01*
X0005331Y0163587D02*
X0025803Y0163587D01*
X0025803Y0163625D02*
X0005331Y0163625D01*
X0005331Y0163663D02*
X0025803Y0163663D01*
X0025803Y0163701D02*
X0005331Y0163701D01*
X0005331Y0163738D02*
X0025803Y0163738D01*
X0025803Y0163776D02*
X0005331Y0163776D01*
X0005331Y0163814D02*
X0025803Y0163814D01*
X0025803Y0163852D02*
X0005331Y0163852D01*
X0005331Y0163890D02*
X0025803Y0163890D01*
X0025803Y0163928D02*
X0005331Y0163928D01*
X0005331Y0163966D02*
X0025803Y0163966D01*
X0025803Y0164004D02*
X0005331Y0164004D01*
X0005331Y0164042D02*
X0025803Y0164042D01*
X0025803Y0164079D02*
X0005331Y0164079D01*
X0005331Y0164117D02*
X0025803Y0164117D01*
X0025803Y0164155D02*
X0005331Y0164155D01*
X0005331Y0164193D02*
X0025803Y0164193D01*
X0025803Y0164231D02*
X0005331Y0164231D01*
X0005331Y0164269D02*
X0025803Y0164269D01*
X0025803Y0164307D02*
X0005331Y0164307D01*
X0005331Y0164345D02*
X0025803Y0164345D01*
X0025803Y0164382D02*
X0005331Y0164382D01*
X0005331Y0164420D02*
X0025803Y0164420D01*
X0025803Y0164458D02*
X0005331Y0164458D01*
X0005331Y0164496D02*
X0025803Y0164496D01*
X0025803Y0164534D02*
X0005331Y0164534D01*
X0005331Y0164572D02*
X0025803Y0164572D01*
X0025803Y0164610D02*
X0005331Y0164610D01*
X0005331Y0164648D02*
X0025803Y0164648D01*
X0025803Y0164686D02*
X0005331Y0164686D01*
X0005331Y0164723D02*
X0025803Y0164723D01*
X0025803Y0164761D02*
X0005331Y0164761D01*
X0005331Y0164799D02*
X0025803Y0164799D01*
X0025803Y0164837D02*
X0005331Y0164837D01*
X0005331Y0164875D02*
X0025803Y0164875D01*
X0025803Y0164913D02*
X0005331Y0164913D01*
X0005331Y0164951D02*
X0025803Y0164951D01*
X0025803Y0164989D02*
X0005331Y0164989D01*
X0005331Y0165026D02*
X0025803Y0165026D01*
X0025803Y0165064D02*
X0005331Y0165064D01*
X0005331Y0165102D02*
X0025803Y0165102D01*
X0025803Y0165140D02*
X0005331Y0165140D01*
X0005331Y0165178D02*
X0025803Y0165178D01*
X0025803Y0165216D02*
X0005331Y0165216D01*
X0005331Y0165254D02*
X0025803Y0165254D01*
X0025803Y0165292D02*
X0005331Y0165292D01*
X0005331Y0165330D02*
X0025803Y0165330D01*
X0025803Y0165367D02*
X0005331Y0165367D01*
X0005331Y0165405D02*
X0025803Y0165405D01*
X0025803Y0165443D02*
X0005331Y0165443D01*
X0005331Y0165481D02*
X0025803Y0165481D01*
X0025803Y0165519D02*
X0005331Y0165519D01*
X0005331Y0165557D02*
X0025803Y0165557D01*
X0025803Y0165595D02*
X0005331Y0165595D01*
X0005331Y0165633D02*
X0025803Y0165633D01*
X0025803Y0165670D02*
X0005331Y0165670D01*
X0005331Y0165708D02*
X0025803Y0165708D01*
X0025803Y0165746D02*
X0005331Y0165746D01*
X0005331Y0165784D02*
X0025803Y0165784D01*
X0025803Y0165822D02*
X0005331Y0165822D01*
X0005331Y0165860D02*
X0025803Y0165860D01*
X0025803Y0165898D02*
X0005331Y0165898D01*
X0005331Y0165936D02*
X0025803Y0165936D01*
X0025803Y0165973D02*
X0005331Y0165973D01*
X0005331Y0166011D02*
X0025803Y0166011D01*
X0025803Y0166049D02*
X0005331Y0166049D01*
X0005331Y0166087D02*
X0025803Y0166087D01*
X0025803Y0166125D02*
X0005331Y0166125D01*
X0005331Y0166163D02*
X0025803Y0166163D01*
X0025803Y0166201D02*
X0005331Y0166201D01*
X0005331Y0166239D02*
X0025803Y0166239D01*
X0025803Y0166277D02*
X0005331Y0166277D01*
X0005331Y0166314D02*
X0025803Y0166314D01*
X0025803Y0166352D02*
X0005331Y0166352D01*
X0005331Y0166390D02*
X0025803Y0166390D01*
X0025803Y0166428D02*
X0005331Y0166428D01*
X0005331Y0166466D02*
X0025803Y0166466D01*
X0025803Y0166504D02*
X0005331Y0166504D01*
X0005331Y0166542D02*
X0025803Y0166542D01*
X0025803Y0166580D02*
X0005331Y0166580D01*
X0005331Y0166617D02*
X0025803Y0166617D01*
X0025803Y0166655D02*
X0005331Y0166655D01*
X0005331Y0166693D02*
X0025803Y0166693D01*
X0025803Y0166731D02*
X0005331Y0166731D01*
X0005331Y0166769D02*
X0025803Y0166769D01*
X0025803Y0166807D02*
X0005331Y0166807D01*
X0005331Y0166845D02*
X0025803Y0166845D01*
X0025803Y0166883D02*
X0005331Y0166883D01*
X0005331Y0166921D02*
X0025803Y0166921D01*
X0025803Y0166958D02*
X0005331Y0166958D01*
X0005331Y0166996D02*
X0025803Y0166996D01*
X0025803Y0167034D02*
X0005331Y0167034D01*
X0005331Y0167072D02*
X0025803Y0167072D01*
X0025803Y0167110D02*
X0005331Y0167110D01*
X0005331Y0167148D02*
X0025803Y0167148D01*
X0025803Y0167186D02*
X0005331Y0167186D01*
X0005331Y0167224D02*
X0025803Y0167224D01*
X0025803Y0167261D02*
X0005331Y0167261D01*
X0005331Y0167299D02*
X0025803Y0167299D01*
X0025803Y0167337D02*
X0005331Y0167337D01*
X0005331Y0167375D02*
X0025803Y0167375D01*
X0025803Y0167413D02*
X0005331Y0167413D01*
X0005331Y0167451D02*
X0025803Y0167451D01*
X0025803Y0167489D02*
X0005331Y0167489D01*
X0005331Y0167527D02*
X0025803Y0167527D01*
X0025803Y0167565D02*
X0005331Y0167565D01*
X0005331Y0167602D02*
X0025803Y0167602D01*
X0025803Y0167640D02*
X0005331Y0167640D01*
X0005331Y0167678D02*
X0025803Y0167678D01*
X0025803Y0167716D02*
X0005331Y0167716D01*
X0005331Y0167754D02*
X0025803Y0167754D01*
X0025803Y0167792D02*
X0005331Y0167792D01*
X0005331Y0167830D02*
X0025803Y0167830D01*
X0025803Y0167868D02*
X0005331Y0167868D01*
X0005331Y0167905D02*
X0025803Y0167905D01*
X0025803Y0167943D02*
X0005331Y0167943D01*
X0005331Y0167981D02*
X0025803Y0167981D01*
X0025803Y0168019D02*
X0005331Y0168019D01*
X0005331Y0168057D02*
X0025803Y0168057D01*
X0025803Y0168095D02*
X0005331Y0168095D01*
X0005331Y0168133D02*
X0025803Y0168133D01*
X0025803Y0168171D02*
X0005331Y0168171D01*
X0005331Y0168208D02*
X0025803Y0168208D01*
X0025803Y0168246D02*
X0005331Y0168246D01*
X0005331Y0168284D02*
X0025803Y0168284D01*
X0025803Y0168322D02*
X0005331Y0168322D01*
X0005331Y0168360D02*
X0025803Y0168360D01*
X0025803Y0168398D02*
X0005331Y0168398D01*
X0005331Y0168436D02*
X0025803Y0168436D01*
X0025803Y0168474D02*
X0005331Y0168474D01*
X0005331Y0168512D02*
X0025803Y0168512D01*
X0025803Y0168549D02*
X0005331Y0168549D01*
X0005331Y0168587D02*
X0025803Y0168587D01*
X0025803Y0168625D02*
X0005331Y0168625D01*
X0005331Y0168663D02*
X0025803Y0168663D01*
X0025803Y0168701D02*
X0005331Y0168701D01*
X0005331Y0168739D02*
X0025803Y0168739D01*
X0025803Y0168777D02*
X0005331Y0168777D01*
X0005331Y0168815D02*
X0025803Y0168815D01*
X0025803Y0168852D02*
X0005331Y0168852D01*
X0005331Y0168890D02*
X0025803Y0168890D01*
X0025803Y0168928D02*
X0005331Y0168928D01*
X0005331Y0168966D02*
X0025803Y0168966D01*
X0025803Y0169004D02*
X0005331Y0169004D01*
X0005331Y0169042D02*
X0025803Y0169042D01*
X0025803Y0169080D02*
X0005331Y0169080D01*
X0005331Y0169118D02*
X0025803Y0169118D01*
X0025803Y0169156D02*
X0005331Y0169156D01*
X0005331Y0169193D02*
X0025803Y0169193D01*
X0025803Y0169231D02*
X0005331Y0169231D01*
X0005331Y0169269D02*
X0025803Y0169269D01*
X0025803Y0169307D02*
X0005331Y0169307D01*
X0005331Y0169345D02*
X0025803Y0169345D01*
X0025803Y0169383D02*
X0005331Y0169383D01*
X0005331Y0169421D02*
X0025803Y0169421D01*
X0025803Y0169459D02*
X0005331Y0169459D01*
X0005331Y0169496D02*
X0025803Y0169496D01*
X0025803Y0169534D02*
X0005331Y0169534D01*
X0005331Y0169572D02*
X0025803Y0169572D01*
X0025803Y0169610D02*
X0005331Y0169610D01*
X0005331Y0169648D02*
X0025803Y0169648D01*
X0025803Y0169686D02*
X0005331Y0169686D01*
X0005331Y0169724D02*
X0025803Y0169724D01*
X0025803Y0169762D02*
X0005331Y0169762D01*
X0005331Y0169800D02*
X0025803Y0169800D01*
X0025803Y0169837D02*
X0005331Y0169837D01*
X0005331Y0169875D02*
X0025803Y0169875D01*
X0025803Y0169913D02*
X0005331Y0169913D01*
X0005331Y0169951D02*
X0025803Y0169951D01*
X0025803Y0169989D02*
X0005331Y0169989D01*
X0005331Y0170027D02*
X0025803Y0170027D01*
X0025803Y0170065D02*
X0005331Y0170065D01*
X0005331Y0170103D02*
X0025803Y0170103D01*
X0025803Y0170140D02*
X0005331Y0170140D01*
X0005331Y0170178D02*
X0025803Y0170178D01*
X0025803Y0170216D02*
X0005331Y0170216D01*
X0005331Y0170254D02*
X0025803Y0170254D01*
X0025803Y0170292D02*
X0005331Y0170292D01*
X0005331Y0170330D02*
X0025803Y0170330D01*
X0025803Y0170368D02*
X0005331Y0170368D01*
X0005331Y0170406D02*
X0025803Y0170406D01*
X0025803Y0170443D02*
X0005331Y0170443D01*
X0005331Y0170481D02*
X0025803Y0170481D01*
X0025803Y0170519D02*
X0005331Y0170519D01*
X0005331Y0170557D02*
X0025803Y0170557D01*
X0025803Y0170595D02*
X0005331Y0170595D01*
X0005331Y0170633D02*
X0025803Y0170633D01*
X0025803Y0170671D02*
X0005331Y0170671D01*
X0005331Y0170709D02*
X0025803Y0170709D01*
X0025803Y0170747D02*
X0005331Y0170747D01*
X0005331Y0170784D02*
X0025803Y0170784D01*
X0025803Y0170822D02*
X0005331Y0170822D01*
X0005331Y0170860D02*
X0025803Y0170860D01*
X0025803Y0170898D02*
X0005331Y0170898D01*
X0005331Y0170936D02*
X0025803Y0170936D01*
X0025803Y0170974D02*
X0005331Y0170974D01*
X0005331Y0171012D02*
X0025803Y0171012D01*
X0025803Y0171050D02*
X0005331Y0171050D01*
X0005331Y0171087D02*
X0025803Y0171087D01*
X0025803Y0171125D02*
X0005331Y0171125D01*
X0005331Y0171163D02*
X0025803Y0171163D01*
X0025803Y0171201D02*
X0005331Y0171201D01*
X0005331Y0171239D02*
X0025803Y0171239D01*
X0025803Y0171277D02*
X0005331Y0171277D01*
X0005331Y0171315D02*
X0025803Y0171315D01*
X0025803Y0171353D02*
X0005331Y0171353D01*
X0005331Y0171391D02*
X0025803Y0171391D01*
X0025803Y0171428D02*
X0005331Y0171428D01*
X0005331Y0171466D02*
X0025803Y0171466D01*
X0025803Y0171504D02*
X0005331Y0171504D01*
X0005331Y0171542D02*
X0025803Y0171542D01*
X0025803Y0171580D02*
X0005331Y0171580D01*
X0005331Y0171618D02*
X0025803Y0171618D01*
X0025803Y0171656D02*
X0005331Y0171656D01*
X0005331Y0171694D02*
X0025803Y0171694D01*
X0025803Y0171731D02*
X0005331Y0171731D01*
X0005331Y0171769D02*
X0025803Y0171769D01*
X0025803Y0171807D02*
X0005331Y0171807D01*
X0005331Y0171845D02*
X0025803Y0171845D01*
X0025803Y0171883D02*
X0005331Y0171883D01*
X0005331Y0171921D02*
X0025803Y0171921D01*
X0025803Y0171959D02*
X0005331Y0171959D01*
X0005331Y0171997D02*
X0025803Y0171997D01*
X0025803Y0172035D02*
X0005331Y0172035D01*
X0005331Y0172072D02*
X0025803Y0172072D01*
X0025803Y0172110D02*
X0005331Y0172110D01*
X0005331Y0172148D02*
X0025803Y0172148D01*
X0025803Y0172186D02*
X0005331Y0172186D01*
X0005331Y0172224D02*
X0025803Y0172224D01*
X0025803Y0172262D02*
X0005331Y0172262D01*
X0005331Y0172300D02*
X0025803Y0172300D01*
X0025803Y0172338D02*
X0005331Y0172338D01*
X0005331Y0172375D02*
X0025803Y0172375D01*
X0025803Y0172413D02*
X0005331Y0172413D01*
X0005331Y0172451D02*
X0025803Y0172451D01*
X0025803Y0172489D02*
X0005331Y0172489D01*
X0005331Y0172527D02*
X0025803Y0172527D01*
X0025803Y0172565D02*
X0005331Y0172565D01*
X0005331Y0172603D02*
X0025803Y0172603D01*
X0025803Y0172641D02*
X0005331Y0172641D01*
X0005331Y0172678D02*
X0025803Y0172678D01*
X0025803Y0172716D02*
X0005331Y0172716D01*
X0005331Y0172754D02*
X0025803Y0172754D01*
X0025803Y0172792D02*
X0005331Y0172792D01*
X0005331Y0172830D02*
X0025803Y0172830D01*
X0025803Y0172868D02*
X0005331Y0172868D01*
X0005331Y0172906D02*
X0025803Y0172906D01*
X0025803Y0172944D02*
X0005331Y0172944D01*
X0005331Y0172982D02*
X0025803Y0172982D01*
X0025803Y0173019D02*
X0005331Y0173019D01*
X0005331Y0173057D02*
X0025803Y0173057D01*
X0025803Y0173095D02*
X0005331Y0173095D01*
X0005331Y0173133D02*
X0025803Y0173133D01*
X0025803Y0173171D02*
X0005331Y0173171D01*
X0005331Y0173209D02*
X0025803Y0173209D01*
X0025803Y0173247D02*
X0005331Y0173247D01*
X0005331Y0173285D02*
X0025803Y0173285D01*
X0025803Y0173322D02*
X0005331Y0173322D01*
X0005331Y0173360D02*
X0025803Y0173360D01*
X0025803Y0173398D02*
X0005331Y0173398D01*
X0005331Y0173436D02*
X0025803Y0173436D01*
X0025803Y0173474D02*
X0005331Y0173474D01*
X0005331Y0173512D02*
X0025803Y0173512D01*
X0025803Y0173550D02*
X0005331Y0173550D01*
X0005331Y0173588D02*
X0025803Y0173588D01*
X0025803Y0173626D02*
X0005331Y0173626D01*
X0005331Y0173663D02*
X0025803Y0173663D01*
X0025803Y0173701D02*
X0005331Y0173701D01*
X0005331Y0173739D02*
X0025803Y0173739D01*
X0025803Y0173777D02*
X0005331Y0173777D01*
X0005331Y0173815D02*
X0025803Y0173815D01*
X0025803Y0173853D02*
X0005331Y0173853D01*
X0005331Y0173891D02*
X0025803Y0173891D01*
X0025803Y0173929D02*
X0005331Y0173929D01*
X0005331Y0173966D02*
X0025803Y0173966D01*
X0025803Y0174004D02*
X0005331Y0174004D01*
X0005331Y0174042D02*
X0025803Y0174042D01*
X0025803Y0174080D02*
X0005331Y0174080D01*
X0005331Y0174118D02*
X0025803Y0174118D01*
X0025803Y0174156D02*
X0005331Y0174156D01*
X0005331Y0174194D02*
X0025803Y0174194D01*
X0025803Y0174232D02*
X0005331Y0174232D01*
X0005331Y0174270D02*
X0025803Y0174270D01*
X0025803Y0174307D02*
X0005331Y0174307D01*
X0005331Y0174345D02*
X0025803Y0174345D01*
X0025803Y0174383D02*
X0005331Y0174383D01*
X0005331Y0174421D02*
X0025803Y0174421D01*
X0025803Y0174459D02*
X0005331Y0174459D01*
X0005331Y0174497D02*
X0025803Y0174497D01*
X0025803Y0174535D02*
X0005331Y0174535D01*
X0005331Y0174573D02*
X0025803Y0174573D01*
X0025803Y0174610D02*
X0005331Y0174610D01*
X0005331Y0174648D02*
X0025803Y0174648D01*
X0025803Y0174686D02*
X0005331Y0174686D01*
X0005331Y0174724D02*
X0025803Y0174724D01*
X0025803Y0174762D02*
X0005331Y0174762D01*
X0005331Y0174800D02*
X0025803Y0174800D01*
X0025803Y0174838D02*
X0005331Y0174838D01*
X0005331Y0174876D02*
X0025803Y0174876D01*
X0025803Y0174913D02*
X0005331Y0174913D01*
X0005331Y0174951D02*
X0025803Y0174951D01*
X0025803Y0174989D02*
X0005331Y0174989D01*
X0005331Y0175027D02*
X0025803Y0175027D01*
X0025803Y0175065D02*
X0005331Y0175065D01*
X0005331Y0175103D02*
X0025803Y0175103D01*
X0025803Y0175141D02*
X0005331Y0175141D01*
X0005331Y0175179D02*
X0025803Y0175179D01*
X0025803Y0175217D02*
X0005331Y0175217D01*
X0005331Y0175254D02*
X0025803Y0175254D01*
X0025803Y0175292D02*
X0005331Y0175292D01*
X0005331Y0175330D02*
X0025803Y0175330D01*
X0025803Y0175368D02*
X0005331Y0175368D01*
X0005331Y0175406D02*
X0025803Y0175406D01*
X0025803Y0175444D02*
X0005331Y0175444D01*
X0005331Y0175482D02*
X0025803Y0175482D01*
X0025803Y0175520D02*
X0005331Y0175520D01*
X0005331Y0175557D02*
X0025803Y0175557D01*
X0025803Y0175595D02*
X0005331Y0175595D01*
X0005331Y0175633D02*
X0025803Y0175633D01*
X0025803Y0175671D02*
X0005331Y0175671D01*
X0005331Y0175709D02*
X0025803Y0175709D01*
X0025803Y0175747D02*
X0005331Y0175747D01*
X0005331Y0175785D02*
X0025803Y0175785D01*
X0025803Y0175823D02*
X0005331Y0175823D01*
X0005331Y0175861D02*
X0025803Y0175861D01*
X0025803Y0175898D02*
X0005331Y0175898D01*
X0005331Y0175936D02*
X0025803Y0175936D01*
X0025803Y0175974D02*
X0005331Y0175974D01*
X0005331Y0176012D02*
X0025803Y0176012D01*
X0025803Y0176050D02*
X0005331Y0176050D01*
X0005331Y0176088D02*
X0025803Y0176088D01*
X0025803Y0176126D02*
X0005331Y0176126D01*
X0005331Y0176164D02*
X0025803Y0176164D01*
X0025803Y0176201D02*
X0005331Y0176201D01*
X0005331Y0176239D02*
X0025803Y0176239D01*
X0025803Y0176277D02*
X0005331Y0176277D01*
X0005331Y0176315D02*
X0025803Y0176315D01*
X0025803Y0176353D02*
X0005331Y0176353D01*
X0005331Y0176391D02*
X0025803Y0176391D01*
X0025803Y0176429D02*
X0005331Y0176429D01*
X0005331Y0176467D02*
X0025803Y0176467D01*
X0025803Y0176505D02*
X0005331Y0176505D01*
X0005331Y0176542D02*
X0025803Y0176542D01*
X0025803Y0176580D02*
X0005331Y0176580D01*
X0005331Y0176618D02*
X0025803Y0176618D01*
X0025803Y0176656D02*
X0005331Y0176656D01*
X0005331Y0176694D02*
X0025803Y0176694D01*
X0025803Y0176732D02*
X0005331Y0176732D01*
X0005331Y0176770D02*
X0025803Y0176770D01*
X0025803Y0176808D02*
X0005331Y0176808D01*
X0005331Y0176845D02*
X0025803Y0176845D01*
X0025803Y0176883D02*
X0005331Y0176883D01*
X0005331Y0176921D02*
X0025803Y0176921D01*
X0025803Y0176959D02*
X0005331Y0176959D01*
X0005331Y0176997D02*
X0025803Y0176997D01*
X0025803Y0177035D02*
X0005331Y0177035D01*
X0005331Y0177073D02*
X0025803Y0177073D01*
X0025803Y0177111D02*
X0005331Y0177111D01*
X0005331Y0177148D02*
X0025803Y0177148D01*
X0025803Y0177186D02*
X0005331Y0177186D01*
X0005331Y0177224D02*
X0025803Y0177224D01*
X0025803Y0177262D02*
X0005331Y0177262D01*
X0005331Y0177300D02*
X0025803Y0177300D01*
X0025803Y0177338D02*
X0005331Y0177338D01*
X0005331Y0177376D02*
X0025803Y0177376D01*
X0025803Y0177414D02*
X0005331Y0177414D01*
X0005331Y0177452D02*
X0025803Y0177452D01*
X0025803Y0177489D02*
X0005331Y0177489D01*
X0005331Y0177527D02*
X0025803Y0177527D01*
X0025803Y0177565D02*
X0005331Y0177565D01*
X0005331Y0177603D02*
X0025803Y0177603D01*
X0025803Y0177641D02*
X0005331Y0177641D01*
X0005331Y0177679D02*
X0025803Y0177679D01*
X0025803Y0177717D02*
X0005331Y0177717D01*
X0005331Y0177755D02*
X0025803Y0177755D01*
X0025803Y0177792D02*
X0005331Y0177792D01*
X0005331Y0177830D02*
X0025803Y0177830D01*
X0025803Y0177868D02*
X0005331Y0177868D01*
X0005331Y0177906D02*
X0025803Y0177906D01*
X0025803Y0177944D02*
X0005331Y0177944D01*
X0005331Y0177982D02*
X0025803Y0177982D01*
X0025803Y0178020D02*
X0005331Y0178020D01*
X0005331Y0178058D02*
X0025803Y0178058D01*
X0025803Y0178096D02*
X0005331Y0178096D01*
X0005331Y0178133D02*
X0025803Y0178133D01*
X0025803Y0178171D02*
X0005331Y0178171D01*
X0005331Y0178209D02*
X0025803Y0178209D01*
X0025803Y0178247D02*
X0005331Y0178247D01*
X0005331Y0178285D02*
X0025803Y0178285D01*
X0025803Y0178323D02*
X0005331Y0178323D01*
X0005331Y0178361D02*
X0025803Y0178361D01*
X0025803Y0178399D02*
X0005331Y0178399D01*
X0005331Y0178436D02*
X0025803Y0178436D01*
X0025803Y0178474D02*
X0005331Y0178474D01*
X0005331Y0178512D02*
X0025803Y0178512D01*
X0025803Y0178550D02*
X0005331Y0178550D01*
X0005331Y0178588D02*
X0025803Y0178588D01*
X0025803Y0178626D02*
X0005331Y0178626D01*
X0005331Y0178664D02*
X0025803Y0178664D01*
X0025803Y0178702D02*
X0005331Y0178702D01*
X0005331Y0178740D02*
X0025803Y0178740D01*
X0025803Y0178777D02*
X0005331Y0178777D01*
X0005331Y0178815D02*
X0025803Y0178815D01*
X0025803Y0178853D02*
X0005331Y0178853D01*
X0005331Y0178891D02*
X0025803Y0178891D01*
X0025803Y0178929D02*
X0005331Y0178929D01*
X0005331Y0178967D02*
X0025803Y0178967D01*
X0025803Y0179005D02*
X0005331Y0179005D01*
X0005331Y0179043D02*
X0025803Y0179043D01*
X0025803Y0179080D02*
X0005331Y0179080D01*
X0005331Y0179118D02*
X0025803Y0179118D01*
X0025803Y0179156D02*
X0005331Y0179156D01*
X0005331Y0179194D02*
X0025803Y0179194D01*
X0025803Y0179232D02*
X0005331Y0179232D01*
X0005331Y0179270D02*
X0025803Y0179270D01*
X0025803Y0179308D02*
X0005331Y0179308D01*
X0005331Y0179346D02*
X0025803Y0179346D01*
X0025803Y0179384D02*
X0005331Y0179384D01*
X0005331Y0179421D02*
X0025803Y0179421D01*
X0025803Y0179459D02*
X0005331Y0179459D01*
X0005331Y0179497D02*
X0025803Y0179497D01*
X0025803Y0179535D02*
X0005331Y0179535D01*
X0005331Y0179573D02*
X0025803Y0179573D01*
X0025803Y0179611D02*
X0005331Y0179611D01*
X0005331Y0179649D02*
X0025803Y0179649D01*
X0025803Y0179687D02*
X0005331Y0179687D01*
X0005331Y0179724D02*
X0025803Y0179724D01*
X0025803Y0179762D02*
X0005331Y0179762D01*
X0005331Y0179800D02*
X0025803Y0179800D01*
X0025803Y0179838D02*
X0005331Y0179838D01*
X0005331Y0179876D02*
X0025803Y0179876D01*
X0025803Y0179914D02*
X0005331Y0179914D01*
X0005331Y0179952D02*
X0025803Y0179952D01*
X0025803Y0179990D02*
X0005331Y0179990D01*
X0005331Y0180027D02*
X0025803Y0180027D01*
X0025803Y0180065D02*
X0005331Y0180065D01*
X0005331Y0180103D02*
X0025803Y0180103D01*
X0025803Y0180141D02*
X0005331Y0180141D01*
X0005331Y0180179D02*
X0025803Y0180179D01*
X0025803Y0180217D02*
X0005331Y0180217D01*
X0005331Y0180255D02*
X0025803Y0180255D01*
X0025803Y0180293D02*
X0005331Y0180293D01*
X0005331Y0180331D02*
X0025803Y0180331D01*
X0025803Y0180368D02*
X0005331Y0180368D01*
X0005331Y0180406D02*
X0025803Y0180406D01*
X0025803Y0180444D02*
X0005331Y0180444D01*
X0005331Y0180482D02*
X0025803Y0180482D01*
X0025803Y0180520D02*
X0005331Y0180520D01*
X0005331Y0180558D02*
X0025803Y0180558D01*
X0025803Y0180596D02*
X0005331Y0180596D01*
X0005331Y0180634D02*
X0025803Y0180634D01*
X0025803Y0180671D02*
X0005331Y0180671D01*
X0005331Y0180709D02*
X0025803Y0180709D01*
X0025803Y0180747D02*
X0005331Y0180747D01*
X0005331Y0180785D02*
X0025803Y0180785D01*
X0025803Y0180823D02*
X0005331Y0180823D01*
X0005331Y0180861D02*
X0025803Y0180861D01*
X0025803Y0180899D02*
X0005331Y0180899D01*
X0005331Y0180937D02*
X0025803Y0180937D01*
X0025803Y0180975D02*
X0005331Y0180975D01*
X0005331Y0181012D02*
X0025803Y0181012D01*
X0025803Y0181050D02*
X0005331Y0181050D01*
X0005331Y0181088D02*
X0025803Y0181088D01*
X0025803Y0181126D02*
X0005331Y0181126D01*
X0005331Y0181164D02*
X0025803Y0181164D01*
X0025803Y0181202D02*
X0005331Y0181202D01*
X0005331Y0181240D02*
X0025803Y0181240D01*
X0025803Y0181278D02*
X0005331Y0181278D01*
X0005331Y0181315D02*
X0025803Y0181315D01*
X0025803Y0181353D02*
X0005331Y0181353D01*
X0005331Y0181391D02*
X0025803Y0181391D01*
X0025803Y0181429D02*
X0005331Y0181429D01*
X0005331Y0181467D02*
X0025803Y0181467D01*
X0025803Y0181505D02*
X0005331Y0181505D01*
X0005331Y0181543D02*
X0025803Y0181543D01*
X0025803Y0181581D02*
X0005331Y0181581D01*
X0005331Y0181619D02*
X0025803Y0181619D01*
X0025803Y0181656D02*
X0005331Y0181656D01*
X0005331Y0181694D02*
X0025803Y0181694D01*
X0025803Y0181732D02*
X0005331Y0181732D01*
X0005331Y0181770D02*
X0025803Y0181770D01*
X0025803Y0181808D02*
X0005331Y0181808D01*
X0005331Y0181846D02*
X0025803Y0181846D01*
X0025803Y0181884D02*
X0005331Y0181884D01*
X0005331Y0181922D02*
X0025803Y0181922D01*
X0025803Y0181959D02*
X0005331Y0181959D01*
X0005331Y0181997D02*
X0025803Y0181997D01*
X0025803Y0182035D02*
X0005331Y0182035D01*
X0005331Y0182073D02*
X0025803Y0182073D01*
X0025803Y0182111D02*
X0005331Y0182111D01*
X0005331Y0182149D02*
X0025803Y0182149D01*
X0025803Y0182187D02*
X0005331Y0182187D01*
X0005331Y0182225D02*
X0025803Y0182225D01*
X0025803Y0182262D02*
X0005331Y0182262D01*
X0005331Y0182300D02*
X0025803Y0182300D01*
X0025803Y0182338D02*
X0005331Y0182338D01*
X0005331Y0182376D02*
X0025803Y0182376D01*
X0025803Y0182414D02*
X0005331Y0182414D01*
X0005331Y0182452D02*
X0025803Y0182452D01*
X0025803Y0182490D02*
X0005331Y0182490D01*
X0005331Y0182528D02*
X0025803Y0182528D01*
X0025803Y0182566D02*
X0005331Y0182566D01*
X0005331Y0182603D02*
X0025803Y0182603D01*
X0025803Y0182641D02*
X0005331Y0182641D01*
X0005331Y0182679D02*
X0025803Y0182679D01*
X0025803Y0182717D02*
X0005331Y0182717D01*
X0005331Y0182755D02*
X0025803Y0182755D01*
X0025803Y0182793D02*
X0005331Y0182793D01*
X0005331Y0182831D02*
X0025803Y0182831D01*
X0025803Y0182869D02*
X0005331Y0182869D01*
X0005331Y0182906D02*
X0025803Y0182906D01*
X0025803Y0182944D02*
X0005331Y0182944D01*
X0005331Y0182982D02*
X0025803Y0182982D01*
X0025803Y0183020D02*
X0005331Y0183020D01*
X0005331Y0183058D02*
X0025803Y0183058D01*
X0025803Y0183096D02*
X0005331Y0183096D01*
X0005331Y0183134D02*
X0025803Y0183134D01*
X0025803Y0183172D02*
X0005331Y0183172D01*
X0005331Y0183210D02*
X0025803Y0183210D01*
X0025803Y0183247D02*
X0005331Y0183247D01*
X0005331Y0183285D02*
X0025803Y0183285D01*
X0025803Y0183323D02*
X0005331Y0183323D01*
X0005331Y0183361D02*
X0025803Y0183361D01*
X0025803Y0183399D02*
X0005331Y0183399D01*
X0005331Y0183437D02*
X0025803Y0183437D01*
X0025803Y0183475D02*
X0005331Y0183475D01*
X0005331Y0183513D02*
X0025803Y0183513D01*
X0025803Y0183550D02*
X0005331Y0183550D01*
X0005331Y0183588D02*
X0025803Y0183588D01*
X0025803Y0183626D02*
X0005331Y0183626D01*
X0005331Y0183664D02*
X0025803Y0183664D01*
X0025803Y0183702D02*
X0005331Y0183702D01*
X0005331Y0183740D02*
X0025803Y0183740D01*
X0025803Y0183778D02*
X0005331Y0183778D01*
X0005331Y0183816D02*
X0025803Y0183816D01*
X0025803Y0183854D02*
X0005331Y0183854D01*
X0005331Y0183891D02*
X0025803Y0183891D01*
X0025803Y0183929D02*
X0005331Y0183929D01*
X0005331Y0183967D02*
X0025803Y0183967D01*
X0025803Y0184005D02*
X0005331Y0184005D01*
X0005331Y0184043D02*
X0025803Y0184043D01*
X0025803Y0184081D02*
X0005331Y0184081D01*
X0005331Y0184119D02*
X0025803Y0184119D01*
X0025803Y0184157D02*
X0005331Y0184157D01*
X0005331Y0184194D02*
X0025803Y0184194D01*
X0025803Y0184232D02*
X0005331Y0184232D01*
X0005331Y0184270D02*
X0025803Y0184270D01*
X0025803Y0184308D02*
X0005331Y0184308D01*
X0005331Y0184346D02*
X0025803Y0184346D01*
X0025803Y0184384D02*
X0005331Y0184384D01*
X0005331Y0184422D02*
X0025803Y0184422D01*
X0025803Y0184460D02*
X0005331Y0184460D01*
X0005331Y0184497D02*
X0025803Y0184497D01*
X0025803Y0184535D02*
X0005331Y0184535D01*
X0005331Y0184573D02*
X0025803Y0184573D01*
X0025803Y0184611D02*
X0005331Y0184611D01*
X0005331Y0184649D02*
X0025803Y0184649D01*
X0025803Y0184687D02*
X0005331Y0184687D01*
X0005331Y0184725D02*
X0025803Y0184725D01*
X0025803Y0184763D02*
X0005331Y0184763D01*
X0005331Y0184801D02*
X0025803Y0184801D01*
X0025803Y0184838D02*
X0005331Y0184838D01*
X0005331Y0184876D02*
X0025803Y0184876D01*
X0025803Y0184914D02*
X0005331Y0184914D01*
X0005331Y0184952D02*
X0025803Y0184952D01*
X0025803Y0184990D02*
X0005331Y0184990D01*
X0005331Y0185028D02*
X0025803Y0185028D01*
X0025803Y0185066D02*
X0005331Y0185066D01*
X0005331Y0185104D02*
X0025803Y0185104D01*
X0025803Y0185141D02*
X0005331Y0185141D01*
X0005331Y0185179D02*
X0025803Y0185179D01*
X0025803Y0185217D02*
X0005331Y0185217D01*
X0005331Y0185255D02*
X0025803Y0185255D01*
X0025803Y0185293D02*
X0005331Y0185293D01*
X0005331Y0185331D02*
X0025803Y0185331D01*
X0025803Y0185369D02*
X0005331Y0185369D01*
X0005331Y0185407D02*
X0025803Y0185407D01*
X0025803Y0185445D02*
X0005331Y0185445D01*
X0005331Y0185482D02*
X0025803Y0185482D01*
X0025803Y0185520D02*
X0005331Y0185520D01*
X0005331Y0185558D02*
X0025803Y0185558D01*
X0025803Y0185596D02*
X0005331Y0185596D01*
X0005331Y0185634D02*
X0025803Y0185634D01*
X0025803Y0185672D02*
X0005331Y0185672D01*
X0005331Y0185710D02*
X0025803Y0185710D01*
X0025803Y0185748D02*
X0005331Y0185748D01*
X0005331Y0185785D02*
X0025803Y0185785D01*
X0025803Y0185823D02*
X0005331Y0185823D01*
X0005331Y0185861D02*
X0025803Y0185861D01*
X0025803Y0185899D02*
X0005331Y0185899D01*
X0005331Y0185937D02*
X0025803Y0185937D01*
X0025803Y0185975D02*
X0005331Y0185975D01*
X0005331Y0186013D02*
X0025803Y0186013D01*
X0025803Y0186051D02*
X0005331Y0186051D01*
X0005331Y0186089D02*
X0025803Y0186089D01*
X0025803Y0186126D02*
X0005331Y0186126D01*
X0005331Y0186164D02*
X0025803Y0186164D01*
X0025803Y0186202D02*
X0005331Y0186202D01*
X0005331Y0186240D02*
X0025803Y0186240D01*
X0025803Y0186278D02*
X0005331Y0186278D01*
X0005331Y0186316D02*
X0025803Y0186316D01*
X0025803Y0186354D02*
X0005331Y0186354D01*
X0005331Y0186392D02*
X0025803Y0186392D01*
X0025803Y0186429D02*
X0005331Y0186429D01*
X0005331Y0186467D02*
X0025803Y0186467D01*
X0025803Y0186505D02*
X0005331Y0186505D01*
X0005331Y0186543D02*
X0025803Y0186543D01*
X0025803Y0186581D02*
X0005331Y0186581D01*
X0005331Y0186619D02*
X0025803Y0186619D01*
X0025803Y0186657D02*
X0005331Y0186657D01*
X0005331Y0186695D02*
X0025803Y0186695D01*
X0025803Y0186732D02*
X0005331Y0186732D01*
X0005331Y0186770D02*
X0025803Y0186770D01*
X0025803Y0186808D02*
X0005331Y0186808D01*
X0005331Y0186846D02*
X0025803Y0186846D01*
X0025803Y0186884D02*
X0005331Y0186884D01*
X0005331Y0186922D02*
X0025803Y0186922D01*
X0025803Y0186960D02*
X0005331Y0186960D01*
X0005331Y0186998D02*
X0025803Y0186998D01*
X0025803Y0187036D02*
X0005331Y0187036D01*
X0005331Y0187073D02*
X0025803Y0187073D01*
X0025803Y0187111D02*
X0005331Y0187111D01*
X0005331Y0187149D02*
X0025803Y0187149D01*
X0025803Y0187187D02*
X0005331Y0187187D01*
X0005331Y0187225D02*
X0025803Y0187225D01*
X0025803Y0187263D02*
X0005331Y0187263D01*
X0005331Y0187301D02*
X0025803Y0187301D01*
X0025803Y0187339D02*
X0005331Y0187339D01*
X0005331Y0187376D02*
X0025803Y0187376D01*
X0025803Y0187414D02*
X0005331Y0187414D01*
X0005331Y0187452D02*
X0025803Y0187452D01*
X0025803Y0187490D02*
X0005331Y0187490D01*
X0005331Y0187528D02*
X0025803Y0187528D01*
X0025803Y0187566D02*
X0005331Y0187566D01*
X0005331Y0187604D02*
X0025803Y0187604D01*
X0025803Y0187642D02*
X0005331Y0187642D01*
X0005331Y0187680D02*
X0025803Y0187680D01*
X0025803Y0187717D02*
X0005331Y0187717D01*
X0005331Y0187755D02*
X0025803Y0187755D01*
X0025803Y0187793D02*
X0005331Y0187793D01*
X0005331Y0187831D02*
X0025803Y0187831D01*
X0025803Y0187869D02*
X0005331Y0187869D01*
X0005331Y0187907D02*
X0025803Y0187907D01*
X0025803Y0187945D02*
X0005331Y0187945D01*
X0005331Y0187983D02*
X0025803Y0187983D01*
X0025803Y0188020D02*
X0005331Y0188020D01*
X0005331Y0188058D02*
X0025803Y0188058D01*
X0025803Y0188096D02*
X0005331Y0188096D01*
X0005331Y0188134D02*
X0025803Y0188134D01*
X0025803Y0188172D02*
X0005331Y0188172D01*
X0005331Y0188210D02*
X0025803Y0188210D01*
X0025803Y0188248D02*
X0005331Y0188248D01*
X0005331Y0188286D02*
X0025803Y0188286D01*
X0025803Y0188324D02*
X0005331Y0188324D01*
X0005331Y0188361D02*
X0025803Y0188361D01*
X0025803Y0188399D02*
X0005331Y0188399D01*
X0005331Y0188437D02*
X0025803Y0188437D01*
X0025803Y0188475D02*
X0005331Y0188475D01*
X0005331Y0188513D02*
X0025803Y0188513D01*
X0025803Y0188551D02*
X0005331Y0188551D01*
X0005331Y0188589D02*
X0025803Y0188589D01*
X0025803Y0188627D02*
X0005331Y0188627D01*
X0005331Y0188664D02*
X0025803Y0188664D01*
X0025803Y0188702D02*
X0005331Y0188702D01*
X0005331Y0188740D02*
X0025803Y0188740D01*
X0025803Y0188778D02*
X0005331Y0188778D01*
X0005331Y0188816D02*
X0025803Y0188816D01*
X0025803Y0188854D02*
X0005331Y0188854D01*
X0005331Y0188892D02*
X0025803Y0188892D01*
X0025803Y0188930D02*
X0005331Y0188930D01*
X0005331Y0188967D02*
X0025803Y0188967D01*
X0025803Y0189005D02*
X0005331Y0189005D01*
X0005331Y0189043D02*
X0025803Y0189043D01*
X0025803Y0189081D02*
X0005331Y0189081D01*
X0005331Y0189119D02*
X0025803Y0189119D01*
X0025803Y0189157D02*
X0005331Y0189157D01*
X0005331Y0189195D02*
X0025803Y0189195D01*
X0025803Y0189233D02*
X0005331Y0189233D01*
X0005331Y0189271D02*
X0025803Y0189271D01*
X0025803Y0189308D02*
X0005331Y0189308D01*
X0005331Y0189346D02*
X0025803Y0189346D01*
X0025803Y0189384D02*
X0005331Y0189384D01*
X0005331Y0189422D02*
X0025803Y0189422D01*
X0025803Y0189460D02*
X0005331Y0189460D01*
X0005331Y0189498D02*
X0025803Y0189498D01*
X0025803Y0189536D02*
X0005331Y0189536D01*
X0005331Y0189574D02*
X0025803Y0189574D01*
X0025803Y0189611D02*
X0005331Y0189611D01*
X0005331Y0189649D02*
X0025803Y0189649D01*
X0025803Y0189687D02*
X0005331Y0189687D01*
X0005331Y0189725D02*
X0025803Y0189725D01*
X0025803Y0189763D02*
X0005331Y0189763D01*
X0005331Y0189801D02*
X0025803Y0189801D01*
X0025803Y0189839D02*
X0005331Y0189839D01*
X0005331Y0189877D02*
X0025803Y0189877D01*
X0025803Y0189915D02*
X0005331Y0189915D01*
X0005331Y0189952D02*
X0025803Y0189952D01*
X0025803Y0189990D02*
X0005331Y0189990D01*
X0005331Y0190028D02*
X0025803Y0190028D01*
X0025803Y0190066D02*
X0005331Y0190066D01*
X0005331Y0190104D02*
X0025803Y0190104D01*
X0025803Y0190142D02*
X0005331Y0190142D01*
X0005331Y0190180D02*
X0025803Y0190180D01*
X0025803Y0190218D02*
X0005331Y0190218D01*
X0005331Y0190255D02*
X0025803Y0190255D01*
X0025803Y0190293D02*
X0005331Y0190293D01*
X0005331Y0190331D02*
X0025803Y0190331D01*
X0025803Y0190369D02*
X0005331Y0190369D01*
X0005331Y0190407D02*
X0025803Y0190407D01*
X0025803Y0190445D02*
X0005331Y0190445D01*
X0005331Y0190483D02*
X0025803Y0190483D01*
X0025803Y0190521D02*
X0005331Y0190521D01*
X0005331Y0190559D02*
X0025803Y0190559D01*
X0025803Y0190596D02*
X0005331Y0190596D01*
X0005331Y0190634D02*
X0025803Y0190634D01*
X0025803Y0190672D02*
X0005331Y0190672D01*
X0005331Y0190710D02*
X0025803Y0190710D01*
X0025803Y0190748D02*
X0005331Y0190748D01*
X0005331Y0190786D02*
X0025803Y0190786D01*
X0025803Y0190824D02*
X0005331Y0190824D01*
X0005331Y0190862D02*
X0025803Y0190862D01*
X0025803Y0190899D02*
X0005331Y0190899D01*
X0005331Y0190937D02*
X0025803Y0190937D01*
X0025803Y0190975D02*
X0005331Y0190975D01*
X0005331Y0191013D02*
X0025803Y0191013D01*
X0025803Y0191051D02*
X0005331Y0191051D01*
X0005331Y0191089D02*
X0025803Y0191089D01*
X0025803Y0191127D02*
X0005331Y0191127D01*
X0005331Y0191165D02*
X0025803Y0191165D01*
X0025803Y0191202D02*
X0005331Y0191202D01*
X0005331Y0191240D02*
X0025803Y0191240D01*
X0025803Y0191278D02*
X0005331Y0191278D01*
X0005331Y0191316D02*
X0025803Y0191316D01*
X0025803Y0191354D02*
X0005331Y0191354D01*
X0005331Y0191392D02*
X0025803Y0191392D01*
X0025803Y0191430D02*
X0005331Y0191430D01*
X0005331Y0191468D02*
X0025803Y0191468D01*
X0025803Y0191506D02*
X0005331Y0191506D01*
X0005331Y0191543D02*
X0025803Y0191543D01*
X0025803Y0191581D02*
X0005331Y0191581D01*
X0005331Y0191619D02*
X0025803Y0191619D01*
X0025803Y0191657D02*
X0005331Y0191657D01*
X0005331Y0191695D02*
X0025803Y0191695D01*
X0025803Y0191733D02*
X0005331Y0191733D01*
X0005331Y0191771D02*
X0025803Y0191771D01*
X0025803Y0191809D02*
X0005331Y0191809D01*
X0005331Y0191846D02*
X0025803Y0191846D01*
X0025803Y0191884D02*
X0005331Y0191884D01*
X0005331Y0191922D02*
X0025803Y0191922D01*
X0025803Y0191960D02*
X0005331Y0191960D01*
X0005331Y0191998D02*
X0025803Y0191998D01*
X0025803Y0192036D02*
X0005331Y0192036D01*
X0005331Y0192074D02*
X0025803Y0192074D01*
X0025803Y0192112D02*
X0005331Y0192112D01*
X0005331Y0192150D02*
X0025803Y0192150D01*
X0025803Y0192187D02*
X0005331Y0192187D01*
X0005331Y0192225D02*
X0025803Y0192225D01*
X0025803Y0192263D02*
X0005331Y0192263D01*
X0005331Y0192301D02*
X0025803Y0192301D01*
X0025803Y0192339D02*
X0005331Y0192339D01*
X0005331Y0192377D02*
X0025803Y0192377D01*
X0025803Y0192415D02*
X0005331Y0192415D01*
X0005331Y0192453D02*
X0025803Y0192453D01*
X0025803Y0192490D02*
X0005331Y0192490D01*
X0005331Y0192528D02*
X0025803Y0192528D01*
X0025803Y0192566D02*
X0005331Y0192566D01*
X0005331Y0192604D02*
X0025803Y0192604D01*
X0025803Y0192642D02*
X0005331Y0192642D01*
X0005331Y0192680D02*
X0025803Y0192680D01*
X0025803Y0192718D02*
X0005331Y0192718D01*
X0005331Y0192756D02*
X0025803Y0192756D01*
X0025803Y0192794D02*
X0005331Y0192794D01*
X0005331Y0192831D02*
X0025803Y0192831D01*
X0025803Y0192869D02*
X0005331Y0192869D01*
X0005331Y0192907D02*
X0025803Y0192907D01*
X0025803Y0192945D02*
X0005331Y0192945D01*
X0005331Y0192983D02*
X0025803Y0192983D01*
X0025803Y0193021D02*
X0005331Y0193021D01*
X0005331Y0193059D02*
X0025803Y0193059D01*
X0025803Y0193097D02*
X0005331Y0193097D01*
X0005331Y0193134D02*
X0025803Y0193134D01*
X0025803Y0193172D02*
X0005331Y0193172D01*
X0005331Y0193210D02*
X0025803Y0193210D01*
X0025803Y0193248D02*
X0005331Y0193248D01*
X0005331Y0193286D02*
X0025803Y0193286D01*
X0025803Y0193324D02*
X0005331Y0193324D01*
X0005331Y0193362D02*
X0025803Y0193362D01*
X0025803Y0193400D02*
X0005331Y0193400D01*
X0005331Y0193437D02*
X0025803Y0193437D01*
X0025803Y0193475D02*
X0005331Y0193475D01*
X0005331Y0193513D02*
X0025803Y0193513D01*
X0025803Y0193551D02*
X0005331Y0193551D01*
X0005331Y0193589D02*
X0025803Y0193589D01*
X0025803Y0193627D02*
X0005331Y0193627D01*
X0005331Y0193665D02*
X0025803Y0193665D01*
X0025803Y0193703D02*
X0005331Y0193703D01*
X0005331Y0193741D02*
X0025803Y0193741D01*
X0025803Y0193778D02*
X0005331Y0193778D01*
X0005331Y0193816D02*
X0025803Y0193816D01*
X0025803Y0193854D02*
X0005331Y0193854D01*
X0005331Y0193892D02*
X0025803Y0193892D01*
X0025803Y0193930D02*
X0005331Y0193930D01*
X0005331Y0193968D02*
X0025803Y0193968D01*
X0025803Y0194006D02*
X0005331Y0194006D01*
X0005331Y0194044D02*
X0025803Y0194044D01*
X0025803Y0194081D02*
X0005331Y0194081D01*
X0005331Y0194119D02*
X0025803Y0194119D01*
X0025803Y0194157D02*
X0005331Y0194157D01*
X0005331Y0194195D02*
X0025803Y0194195D01*
X0025803Y0194233D02*
X0005331Y0194233D01*
X0005331Y0194271D02*
X0025803Y0194271D01*
X0025803Y0194309D02*
X0005331Y0194309D01*
X0005331Y0194347D02*
X0025803Y0194347D01*
X0025803Y0194385D02*
X0005331Y0194385D01*
X0005331Y0194422D02*
X0025803Y0194422D01*
X0025803Y0194460D02*
X0005331Y0194460D01*
X0005331Y0194498D02*
X0025803Y0194498D01*
X0025803Y0194536D02*
X0005331Y0194536D01*
X0005331Y0194574D02*
X0025803Y0194574D01*
X0025803Y0194612D02*
X0005331Y0194612D01*
X0005331Y0194650D02*
X0025803Y0194650D01*
X0025803Y0194688D02*
X0005331Y0194688D01*
X0005331Y0194725D02*
X0025803Y0194725D01*
X0025803Y0194763D02*
X0005331Y0194763D01*
X0005331Y0194801D02*
X0025803Y0194801D01*
X0025803Y0194839D02*
X0005331Y0194839D01*
X0005331Y0194877D02*
X0025803Y0194877D01*
X0025803Y0194915D02*
X0005331Y0194915D01*
X0005331Y0194953D02*
X0025803Y0194953D01*
X0025803Y0194991D02*
X0005331Y0194991D01*
X0005331Y0195029D02*
X0025803Y0195029D01*
X0025803Y0195066D02*
X0005331Y0195066D01*
X0005331Y0195104D02*
X0025803Y0195104D01*
X0025803Y0195142D02*
X0005331Y0195142D01*
X0005331Y0195180D02*
X0025803Y0195180D01*
X0025803Y0195218D02*
X0005331Y0195218D01*
X0005331Y0195256D02*
X0025803Y0195256D01*
X0025803Y0195294D02*
X0005331Y0195294D01*
X0005331Y0195332D02*
X0025803Y0195332D01*
X0025803Y0195369D02*
X0005331Y0195369D01*
X0005331Y0195407D02*
X0025803Y0195407D01*
X0025803Y0195445D02*
X0005331Y0195445D01*
X0005331Y0195483D02*
X0025803Y0195483D01*
X0025803Y0195521D02*
X0005331Y0195521D01*
X0005331Y0195559D02*
X0025803Y0195559D01*
X0025803Y0195597D02*
X0005331Y0195597D01*
X0005331Y0195635D02*
X0025803Y0195635D01*
X0025803Y0195673D02*
X0005331Y0195673D01*
X0005331Y0195710D02*
X0025803Y0195710D01*
X0025803Y0195748D02*
X0005331Y0195748D01*
X0005331Y0195786D02*
X0025803Y0195786D01*
X0025803Y0195824D02*
X0005331Y0195824D01*
X0005331Y0195862D02*
X0025803Y0195862D01*
X0025803Y0195900D02*
X0005331Y0195900D01*
X0005331Y0195938D02*
X0025803Y0195938D01*
X0025803Y0195976D02*
X0005331Y0195976D01*
X0005331Y0196013D02*
X0025803Y0196013D01*
X0025803Y0196051D02*
X0005331Y0196051D01*
X0005331Y0196089D02*
X0025803Y0196089D01*
X0025803Y0196127D02*
X0005331Y0196127D01*
X0005331Y0196165D02*
X0025803Y0196165D01*
X0025803Y0196203D02*
X0005331Y0196203D01*
X0005331Y0196241D02*
X0025803Y0196241D01*
X0025803Y0196279D02*
X0005331Y0196279D01*
X0005331Y0196316D02*
X0025803Y0196316D01*
X0025803Y0196354D02*
X0005331Y0196354D01*
X0005331Y0196392D02*
X0025803Y0196392D01*
X0025803Y0196430D02*
X0005331Y0196430D01*
X0005331Y0196468D02*
X0025803Y0196468D01*
X0025803Y0196506D02*
X0005331Y0196506D01*
X0005331Y0196544D02*
X0025803Y0196544D01*
X0025803Y0196582D02*
X0005331Y0196582D01*
X0005331Y0196620D02*
X0025803Y0196620D01*
X0025803Y0196657D02*
X0005331Y0196657D01*
X0005331Y0196695D02*
X0025803Y0196695D01*
X0025803Y0196733D02*
X0005331Y0196733D01*
X0005331Y0196771D02*
X0025803Y0196771D01*
X0025803Y0196809D02*
X0005331Y0196809D01*
X0005331Y0196847D02*
X0025803Y0196847D01*
X0025803Y0196885D02*
X0005331Y0196885D01*
X0005331Y0196923D02*
X0025803Y0196923D01*
X0025803Y0196960D02*
X0005331Y0196960D01*
X0005331Y0196998D02*
X0025803Y0196998D01*
X0025803Y0197036D02*
X0005331Y0197036D01*
X0005331Y0197074D02*
X0025803Y0197074D01*
X0025803Y0197112D02*
X0005331Y0197112D01*
X0005331Y0197150D02*
X0025803Y0197150D01*
X0025803Y0197188D02*
X0005331Y0197188D01*
X0005331Y0197226D02*
X0025803Y0197226D01*
X0025803Y0197264D02*
X0005331Y0197264D01*
X0005331Y0197301D02*
X0025803Y0197301D01*
X0025803Y0197339D02*
X0005331Y0197339D01*
X0005331Y0197377D02*
X0025803Y0197377D01*
X0025803Y0197415D02*
X0005331Y0197415D01*
X0005331Y0197453D02*
X0025803Y0197453D01*
X0025803Y0197491D02*
X0005331Y0197491D01*
X0005331Y0197529D02*
X0025803Y0197529D01*
X0025803Y0197567D02*
X0005331Y0197567D01*
X0005331Y0197604D02*
X0025803Y0197604D01*
X0025803Y0197642D02*
X0005331Y0197642D01*
X0005331Y0197680D02*
X0025803Y0197680D01*
X0025803Y0197718D02*
X0005331Y0197718D01*
X0005331Y0197756D02*
X0025803Y0197756D01*
X0025803Y0197794D02*
X0005331Y0197794D01*
X0005331Y0197832D02*
X0025803Y0197832D01*
X0025803Y0197870D02*
X0005331Y0197870D01*
X0005331Y0197908D02*
X0025803Y0197908D01*
X0025803Y0197945D02*
X0005331Y0197945D01*
X0005331Y0197983D02*
X0025803Y0197983D01*
X0025803Y0198021D02*
X0005331Y0198021D01*
X0005331Y0198059D02*
X0025803Y0198059D01*
X0025803Y0198097D02*
X0005331Y0198097D01*
X0005331Y0198135D02*
X0025803Y0198135D01*
X0025803Y0198173D02*
X0005331Y0198173D01*
X0005331Y0198211D02*
X0025803Y0198211D01*
X0025803Y0198248D02*
X0005331Y0198248D01*
X0005331Y0198286D02*
X0025803Y0198286D01*
X0025803Y0198324D02*
X0005331Y0198324D01*
X0005331Y0198362D02*
X0025803Y0198362D01*
X0025803Y0198400D02*
X0005331Y0198400D01*
X0005331Y0198438D02*
X0025803Y0198438D01*
X0025803Y0198476D02*
X0005331Y0198476D01*
X0005331Y0198514D02*
X0025803Y0198514D01*
X0025803Y0198551D02*
X0005331Y0198551D01*
X0005331Y0198589D02*
X0025803Y0198589D01*
X0025803Y0198627D02*
X0005331Y0198627D01*
X0005331Y0198665D02*
X0025803Y0198665D01*
X0025803Y0198703D02*
X0005331Y0198703D01*
X0005331Y0198741D02*
X0025803Y0198741D01*
X0025803Y0198779D02*
X0005331Y0198779D01*
X0005331Y0198817D02*
X0025803Y0198817D01*
X0025803Y0198855D02*
X0005331Y0198855D01*
X0005331Y0198892D02*
X0025803Y0198892D01*
X0025803Y0198930D02*
X0005331Y0198930D01*
X0005331Y0198968D02*
X0025803Y0198968D01*
X0025803Y0199006D02*
X0005331Y0199006D01*
X0005331Y0199044D02*
X0025803Y0199044D01*
X0025803Y0199082D02*
X0005331Y0199082D01*
X0005331Y0199120D02*
X0025803Y0199120D01*
X0025803Y0199158D02*
X0005331Y0199158D01*
X0005331Y0199195D02*
X0025803Y0199195D01*
X0025803Y0199233D02*
X0005331Y0199233D01*
X0005331Y0199271D02*
X0025803Y0199271D01*
X0025803Y0199309D02*
X0005331Y0199309D01*
X0005331Y0199347D02*
X0025803Y0199347D01*
X0025803Y0199385D02*
X0005331Y0199385D01*
X0005331Y0199423D02*
X0025803Y0199423D01*
X0025803Y0199461D02*
X0005331Y0199461D01*
X0005331Y0199499D02*
X0025803Y0199499D01*
X0025803Y0199536D02*
X0005331Y0199536D01*
X0005331Y0199574D02*
X0025803Y0199574D01*
X0025803Y0199612D02*
X0005331Y0199612D01*
X0005331Y0199650D02*
X0025803Y0199650D01*
X0025803Y0199688D02*
X0005331Y0199688D01*
X0005331Y0199726D02*
X0025803Y0199726D01*
X0025803Y0199764D02*
X0005331Y0199764D01*
X0005331Y0199802D02*
X0025803Y0199802D01*
X0025803Y0199839D02*
X0005331Y0199839D01*
X0005331Y0199877D02*
X0025803Y0199877D01*
X0025803Y0199915D02*
X0005331Y0199915D01*
X0005331Y0199953D02*
X0025803Y0199953D01*
X0025803Y0199991D02*
X0005331Y0199991D01*
X0005331Y0200029D02*
X0025803Y0200029D01*
X0025803Y0200067D02*
X0005331Y0200067D01*
X0005331Y0200105D02*
X0025803Y0200105D01*
X0025803Y0200143D02*
X0005331Y0200143D01*
X0005331Y0200180D02*
X0025803Y0200180D01*
X0025803Y0200218D02*
X0005331Y0200218D01*
X0005331Y0200256D02*
X0025803Y0200256D01*
X0025803Y0200294D02*
X0005331Y0200294D01*
X0005331Y0200332D02*
X0025803Y0200332D01*
X0025803Y0200370D02*
X0005331Y0200370D01*
X0005331Y0200408D02*
X0025803Y0200408D01*
X0025803Y0200446D02*
X0005331Y0200446D01*
X0005331Y0200483D02*
X0025803Y0200483D01*
X0025803Y0200521D02*
X0005331Y0200521D01*
X0005331Y0200559D02*
X0025803Y0200559D01*
X0025803Y0200597D02*
X0005331Y0200597D01*
X0005331Y0200635D02*
X0025803Y0200635D01*
X0025803Y0200673D02*
X0005331Y0200673D01*
X0005331Y0200711D02*
X0025803Y0200711D01*
X0025803Y0200749D02*
X0005331Y0200749D01*
X0005331Y0200786D02*
X0025803Y0200786D01*
X0025803Y0200824D02*
X0005331Y0200824D01*
X0005331Y0200862D02*
X0025803Y0200862D01*
X0025803Y0200900D02*
X0005331Y0200900D01*
X0005331Y0200938D02*
X0025803Y0200938D01*
X0025803Y0200976D02*
X0005331Y0200976D01*
X0005331Y0201014D02*
X0025803Y0201014D01*
X0025803Y0201052D02*
X0005331Y0201052D01*
X0005331Y0201090D02*
X0025803Y0201090D01*
X0025803Y0201127D02*
X0005331Y0201127D01*
X0005331Y0201165D02*
X0025803Y0201165D01*
X0025803Y0201203D02*
X0005331Y0201203D01*
X0005331Y0201241D02*
X0025803Y0201241D01*
X0025803Y0201279D02*
X0005331Y0201279D01*
X0005331Y0201317D02*
X0025803Y0201317D01*
X0025803Y0201355D02*
X0005331Y0201355D01*
X0005331Y0201393D02*
X0025803Y0201393D01*
X0025803Y0201430D02*
X0005331Y0201430D01*
X0005331Y0201468D02*
X0025803Y0201468D01*
X0025803Y0201506D02*
X0005331Y0201506D01*
X0005331Y0201544D02*
X0025803Y0201544D01*
X0025803Y0201582D02*
X0005331Y0201582D01*
X0005331Y0201620D02*
X0025803Y0201620D01*
X0025803Y0201658D02*
X0005331Y0201658D01*
X0005331Y0201696D02*
X0025803Y0201696D01*
X0025803Y0201734D02*
X0005331Y0201734D01*
X0005331Y0201771D02*
X0025803Y0201771D01*
X0025803Y0201809D02*
X0005331Y0201809D01*
X0005331Y0201847D02*
X0025803Y0201847D01*
X0025803Y0201885D02*
X0005331Y0201885D01*
X0005331Y0201923D02*
X0025803Y0201923D01*
X0025803Y0201961D02*
X0005331Y0201961D01*
X0005331Y0201999D02*
X0025803Y0201999D01*
X0025803Y0202037D02*
X0005331Y0202037D01*
X0005331Y0202074D02*
X0025803Y0202074D01*
X0025803Y0202112D02*
X0005331Y0202112D01*
X0005331Y0202150D02*
X0025803Y0202150D01*
X0025803Y0202188D02*
X0005331Y0202188D01*
X0005331Y0202226D02*
X0025803Y0202226D01*
X0025803Y0202264D02*
X0005331Y0202264D01*
X0005331Y0202302D02*
X0025803Y0202302D01*
X0025803Y0202340D02*
X0005331Y0202340D01*
X0005331Y0202378D02*
X0025803Y0202378D01*
X0025803Y0202415D02*
X0005331Y0202415D01*
X0005331Y0202453D02*
X0025803Y0202453D01*
X0025803Y0202491D02*
X0005331Y0202491D01*
X0005331Y0202529D02*
X0025803Y0202529D01*
X0025803Y0202567D02*
X0005331Y0202567D01*
X0005331Y0202605D02*
X0025803Y0202605D01*
X0025803Y0202643D02*
X0005331Y0202643D01*
X0005331Y0202681D02*
X0025803Y0202681D01*
X0025803Y0202718D02*
X0005331Y0202718D01*
X0005331Y0202756D02*
X0025803Y0202756D01*
X0025803Y0202794D02*
X0005331Y0202794D01*
X0005331Y0202832D02*
X0025803Y0202832D01*
X0025803Y0202870D02*
X0005331Y0202870D01*
X0005331Y0202908D02*
X0025803Y0202908D01*
X0025803Y0202946D02*
X0005331Y0202946D01*
X0005331Y0202984D02*
X0025803Y0202984D01*
X0025803Y0203021D02*
X0005331Y0203021D01*
X0005331Y0203059D02*
X0025803Y0203059D01*
X0025803Y0203097D02*
X0005331Y0203097D01*
X0005331Y0203135D02*
X0025803Y0203135D01*
X0025803Y0203173D02*
X0005331Y0203173D01*
X0005331Y0203211D02*
X0025803Y0203211D01*
X0025803Y0203249D02*
X0005331Y0203249D01*
X0005331Y0203287D02*
X0025803Y0203287D01*
X0025803Y0203325D02*
X0005331Y0203325D01*
X0005331Y0203362D02*
X0025803Y0203362D01*
X0025803Y0203400D02*
X0005331Y0203400D01*
X0005331Y0203438D02*
X0025803Y0203438D01*
X0025803Y0203476D02*
X0005331Y0203476D01*
X0005331Y0203514D02*
X0025803Y0203514D01*
X0025803Y0203552D02*
X0005331Y0203552D01*
X0005331Y0203590D02*
X0025803Y0203590D01*
X0025803Y0203628D02*
X0005331Y0203628D01*
X0005331Y0203665D02*
X0025803Y0203665D01*
X0025803Y0203703D02*
X0005331Y0203703D01*
X0005331Y0203741D02*
X0025803Y0203741D01*
X0025803Y0203779D02*
X0005331Y0203779D01*
X0005331Y0203817D02*
X0025803Y0203817D01*
X0025803Y0203855D02*
X0005331Y0203855D01*
X0005331Y0203893D02*
X0025803Y0203893D01*
X0025803Y0203931D02*
X0005331Y0203931D01*
X0005331Y0203969D02*
X0025803Y0203969D01*
X0025803Y0204006D02*
X0005331Y0204006D01*
X0005331Y0204044D02*
X0025803Y0204044D01*
X0025803Y0204082D02*
X0005331Y0204082D01*
X0005331Y0204120D02*
X0025803Y0204120D01*
X0025803Y0204158D02*
X0005331Y0204158D01*
X0005331Y0204196D02*
X0025803Y0204196D01*
X0025803Y0204234D02*
X0005331Y0204234D01*
X0005331Y0204272D02*
X0025803Y0204272D01*
X0025803Y0204309D02*
X0005331Y0204309D01*
X0005331Y0204347D02*
X0025803Y0204347D01*
X0025803Y0204385D02*
X0005331Y0204385D01*
X0005331Y0204423D02*
X0025803Y0204423D01*
X0025803Y0204461D02*
X0005331Y0204461D01*
X0005331Y0204499D02*
X0025803Y0204499D01*
X0025803Y0204537D02*
X0005331Y0204537D01*
X0005331Y0204575D02*
X0025803Y0204575D01*
X0025803Y0204613D02*
X0005331Y0204613D01*
X0005331Y0204650D02*
X0025803Y0204650D01*
X0025803Y0204688D02*
X0005331Y0204688D01*
X0005331Y0204726D02*
X0025803Y0204726D01*
X0025803Y0204764D02*
X0005331Y0204764D01*
X0005331Y0204802D02*
X0025803Y0204802D01*
X0025803Y0204840D02*
X0005331Y0204840D01*
X0005331Y0204878D02*
X0025803Y0204878D01*
X0025803Y0204916D02*
X0005331Y0204916D01*
X0005331Y0204953D02*
X0025803Y0204953D01*
X0025803Y0204991D02*
X0005331Y0204991D01*
X0005331Y0205029D02*
X0025803Y0205029D01*
X0025803Y0205067D02*
X0005331Y0205067D01*
X0005331Y0205105D02*
X0025803Y0205105D01*
X0025803Y0205143D02*
X0005331Y0205143D01*
X0005331Y0205181D02*
X0025803Y0205181D01*
X0025803Y0205219D02*
X0005331Y0205219D01*
X0005331Y0205256D02*
X0025803Y0205256D01*
X0025803Y0205294D02*
X0005331Y0205294D01*
X0005331Y0205332D02*
X0025803Y0205332D01*
X0025803Y0205370D02*
X0005331Y0205370D01*
X0005331Y0205408D02*
X0025803Y0205408D01*
X0025803Y0205446D02*
X0005331Y0205446D01*
X0005331Y0205484D02*
X0025803Y0205484D01*
X0025803Y0205522D02*
X0005331Y0205522D01*
X0005331Y0205560D02*
X0025803Y0205560D01*
X0025803Y0205597D02*
X0005331Y0205597D01*
X0005331Y0205635D02*
X0025803Y0205635D01*
X0025803Y0205673D02*
X0005331Y0205673D01*
X0005331Y0205711D02*
X0025803Y0205711D01*
X0025803Y0205749D02*
X0005331Y0205749D01*
X0005331Y0205787D02*
X0025803Y0205787D01*
X0025803Y0205825D02*
X0005331Y0205825D01*
X0005331Y0205863D02*
X0025803Y0205863D01*
X0025803Y0205900D02*
X0005331Y0205900D01*
X0005331Y0205938D02*
X0025803Y0205938D01*
X0025803Y0205976D02*
X0005331Y0205976D01*
X0005331Y0206014D02*
X0025803Y0206014D01*
X0025803Y0206052D02*
X0005331Y0206052D01*
X0005331Y0206090D02*
X0025803Y0206090D01*
X0025803Y0206128D02*
X0005331Y0206128D01*
X0005331Y0206166D02*
X0025803Y0206166D01*
X0025803Y0206204D02*
X0005331Y0206204D01*
X0005331Y0206241D02*
X0025803Y0206241D01*
X0025803Y0206279D02*
X0005331Y0206279D01*
X0005331Y0206317D02*
X0025803Y0206317D01*
X0025803Y0206355D02*
X0005331Y0206355D01*
X0005331Y0206393D02*
X0025803Y0206393D01*
X0025803Y0206431D02*
X0005331Y0206431D01*
X0005331Y0206469D02*
X0025803Y0206469D01*
X0025803Y0206507D02*
X0005331Y0206507D01*
X0005331Y0206544D02*
X0025803Y0206544D01*
X0025803Y0206582D02*
X0005331Y0206582D01*
X0005331Y0206620D02*
X0025803Y0206620D01*
X0025803Y0206658D02*
X0005331Y0206658D01*
X0005331Y0206696D02*
X0025803Y0206696D01*
X0025803Y0206734D02*
X0005331Y0206734D01*
X0005331Y0206772D02*
X0025803Y0206772D01*
X0025803Y0206810D02*
X0005331Y0206810D01*
X0005331Y0206848D02*
X0025803Y0206848D01*
X0025803Y0206885D02*
X0005331Y0206885D01*
X0005331Y0206923D02*
X0025803Y0206923D01*
X0025803Y0206961D02*
X0005331Y0206961D01*
X0005331Y0206999D02*
X0025803Y0206999D01*
X0025803Y0207037D02*
X0005331Y0207037D01*
X0005331Y0207075D02*
X0025803Y0207075D01*
X0025803Y0207113D02*
X0005331Y0207113D01*
X0005331Y0207151D02*
X0025803Y0207151D01*
X0025803Y0207188D02*
X0005331Y0207188D01*
X0005331Y0207226D02*
X0025803Y0207226D01*
X0025803Y0207264D02*
X0005331Y0207264D01*
X0005331Y0207302D02*
X0025803Y0207302D01*
X0025803Y0207340D02*
X0005331Y0207340D01*
X0005331Y0207378D02*
X0025803Y0207378D01*
X0025803Y0207416D02*
X0005331Y0207416D01*
X0005331Y0207454D02*
X0025803Y0207454D01*
X0025803Y0207491D02*
X0005331Y0207491D01*
X0005331Y0207529D02*
X0025803Y0207529D01*
X0025803Y0207567D02*
X0005331Y0207567D01*
X0005331Y0207605D02*
X0025803Y0207605D01*
X0025803Y0207643D02*
X0005331Y0207643D01*
X0005331Y0207681D02*
X0025803Y0207681D01*
X0025803Y0207719D02*
X0005331Y0207719D01*
X0005331Y0207757D02*
X0025803Y0207757D01*
X0025803Y0207795D02*
X0005331Y0207795D01*
X0005331Y0207832D02*
X0025803Y0207832D01*
X0025803Y0207870D02*
X0005331Y0207870D01*
X0005331Y0207908D02*
X0025803Y0207908D01*
X0025803Y0207946D02*
X0005331Y0207946D01*
X0005331Y0207984D02*
X0025803Y0207984D01*
X0025803Y0208022D02*
X0005331Y0208022D01*
X0005331Y0208060D02*
X0025803Y0208060D01*
X0025803Y0208098D02*
X0005331Y0208098D01*
X0005331Y0208135D02*
X0025803Y0208135D01*
X0025803Y0208173D02*
X0005331Y0208173D01*
X0005331Y0208211D02*
X0025803Y0208211D01*
X0025803Y0208249D02*
X0005331Y0208249D01*
X0005331Y0208287D02*
X0025803Y0208287D01*
X0025803Y0208325D02*
X0005331Y0208325D01*
X0005331Y0208363D02*
X0025803Y0208363D01*
X0025803Y0208401D02*
X0005331Y0208401D01*
X0005331Y0208439D02*
X0025803Y0208439D01*
X0025803Y0208476D02*
X0005331Y0208476D01*
X0005331Y0208514D02*
X0025803Y0208514D01*
X0025803Y0208552D02*
X0005331Y0208552D01*
X0005331Y0208590D02*
X0025803Y0208590D01*
X0025803Y0208628D02*
X0005331Y0208628D01*
X0005331Y0208666D02*
X0025803Y0208666D01*
X0025803Y0208704D02*
X0005331Y0208704D01*
X0005331Y0208742D02*
X0025803Y0208742D01*
X0025803Y0208779D02*
X0005331Y0208779D01*
X0005331Y0208817D02*
X0025803Y0208817D01*
X0025803Y0208855D02*
X0005331Y0208855D01*
X0005331Y0208893D02*
X0025803Y0208893D01*
X0025803Y0208931D02*
X0005331Y0208931D01*
X0005331Y0208969D02*
X0025803Y0208969D01*
X0025803Y0209007D02*
X0005331Y0209007D01*
X0005331Y0209045D02*
X0025803Y0209045D01*
X0025803Y0209083D02*
X0005331Y0209083D01*
X0005331Y0209120D02*
X0025803Y0209120D01*
X0025803Y0209158D02*
X0005331Y0209158D01*
X0005331Y0209196D02*
X0025803Y0209196D01*
X0025803Y0209234D02*
X0005331Y0209234D01*
X0005331Y0209272D02*
X0025803Y0209272D01*
X0025803Y0209310D02*
X0005331Y0209310D01*
X0005331Y0209348D02*
X0025803Y0209348D01*
X0025803Y0209386D02*
X0005331Y0209386D01*
X0005331Y0209423D02*
X0025803Y0209423D01*
X0025803Y0209461D02*
X0005331Y0209461D01*
X0005331Y0209499D02*
X0025803Y0209499D01*
X0025803Y0209537D02*
X0005331Y0209537D01*
X0005331Y0209575D02*
X0025803Y0209575D01*
X0025803Y0209613D02*
X0005331Y0209613D01*
X0005331Y0209651D02*
X0025803Y0209651D01*
X0025803Y0209689D02*
X0005331Y0209689D01*
X0005331Y0209727D02*
X0025803Y0209727D01*
X0025803Y0209764D02*
X0005331Y0209764D01*
X0005331Y0209802D02*
X0025803Y0209802D01*
X0025803Y0209840D02*
X0005331Y0209840D01*
X0005331Y0209878D02*
X0025803Y0209878D01*
X0025803Y0209916D02*
X0005331Y0209916D01*
X0005331Y0209954D02*
X0025803Y0209954D01*
X0025803Y0209992D02*
X0005331Y0209992D01*
X0005331Y0210030D02*
X0025803Y0210030D01*
X0025803Y0210067D02*
X0005331Y0210067D01*
X0005331Y0210105D02*
X0025803Y0210105D01*
X0025803Y0210143D02*
X0005331Y0210143D01*
X0005331Y0210181D02*
X0025803Y0210181D01*
X0025803Y0210219D02*
X0005331Y0210219D01*
X0005331Y0210257D02*
X0025803Y0210257D01*
X0025803Y0210295D02*
X0005331Y0210295D01*
X0005331Y0210333D02*
X0025803Y0210333D01*
X0025803Y0210370D02*
X0005331Y0210370D01*
X0005331Y0210408D02*
X0025803Y0210408D01*
X0025803Y0210446D02*
X0005331Y0210446D01*
X0005331Y0210484D02*
X0025803Y0210484D01*
X0025803Y0210522D02*
X0005331Y0210522D01*
X0005331Y0210560D02*
X0025803Y0210560D01*
X0025803Y0210598D02*
X0005331Y0210598D01*
X0005331Y0210636D02*
X0025803Y0210636D01*
X0025803Y0210674D02*
X0005331Y0210674D01*
X0005331Y0210711D02*
X0025803Y0210711D01*
X0025803Y0210749D02*
X0005331Y0210749D01*
X0005331Y0210787D02*
X0025803Y0210787D01*
X0025803Y0210825D02*
X0005331Y0210825D01*
X0005331Y0210863D02*
X0025803Y0210863D01*
X0025803Y0210901D02*
X0005331Y0210901D01*
X0005331Y0210939D02*
X0025803Y0210939D01*
X0025803Y0210977D02*
X0005331Y0210977D01*
X0005331Y0211014D02*
X0025803Y0211014D01*
X0025803Y0211052D02*
X0005331Y0211052D01*
X0005331Y0211090D02*
X0025803Y0211090D01*
X0025803Y0211128D02*
X0005331Y0211128D01*
X0005331Y0211166D02*
X0025803Y0211166D01*
X0025803Y0211204D02*
X0005331Y0211204D01*
X0005331Y0211242D02*
X0025803Y0211242D01*
X0025803Y0211280D02*
X0005331Y0211280D01*
X0005331Y0211318D02*
X0025803Y0211318D01*
X0025803Y0211355D02*
X0005331Y0211355D01*
X0005331Y0211393D02*
X0025803Y0211393D01*
X0025803Y0211431D02*
X0005331Y0211431D01*
X0005331Y0211469D02*
X0025803Y0211469D01*
X0025803Y0211507D02*
X0005331Y0211507D01*
X0005331Y0211545D02*
X0025803Y0211545D01*
X0025803Y0211583D02*
X0005331Y0211583D01*
X0005331Y0211621D02*
X0025803Y0211621D01*
X0025803Y0211658D02*
X0005331Y0211658D01*
X0005331Y0211696D02*
X0025803Y0211696D01*
X0025803Y0211734D02*
X0005331Y0211734D01*
X0005331Y0211772D02*
X0025803Y0211772D01*
X0025803Y0211810D02*
X0005331Y0211810D01*
X0005331Y0211848D02*
X0025803Y0211848D01*
X0025803Y0211886D02*
X0005331Y0211886D01*
X0005331Y0211924D02*
X0025803Y0211924D01*
X0025803Y0211962D02*
X0005331Y0211962D01*
X0005331Y0211999D02*
X0025803Y0211999D01*
X0025803Y0212037D02*
X0005331Y0212037D01*
X0005331Y0212075D02*
X0025803Y0212075D01*
X0025803Y0212113D02*
X0005331Y0212113D01*
X0005331Y0212151D02*
X0025803Y0212151D01*
X0025803Y0212189D02*
X0005331Y0212189D01*
X0005331Y0212227D02*
X0025803Y0212227D01*
X0025803Y0212265D02*
X0005331Y0212265D01*
X0005331Y0212302D02*
X0025803Y0212302D01*
X0025803Y0212340D02*
X0005331Y0212340D01*
X0005331Y0212378D02*
X0025803Y0212378D01*
X0025803Y0212416D02*
X0005331Y0212416D01*
X0005331Y0212454D02*
X0025803Y0212454D01*
X0025803Y0212492D02*
X0005331Y0212492D01*
X0005331Y0212530D02*
X0025803Y0212530D01*
X0025803Y0212568D02*
X0005331Y0212568D01*
X0005331Y0212605D02*
X0025803Y0212605D01*
X0025803Y0212643D02*
X0005331Y0212643D01*
X0005331Y0212681D02*
X0025803Y0212681D01*
X0025803Y0212719D02*
X0005331Y0212719D01*
X0005331Y0212757D02*
X0025803Y0212757D01*
X0025803Y0212795D02*
X0005331Y0212795D01*
X0005331Y0212833D02*
X0025803Y0212833D01*
X0025803Y0212871D02*
X0005331Y0212871D01*
X0005331Y0212909D02*
X0025803Y0212909D01*
X0025803Y0212946D02*
X0005331Y0212946D01*
X0005331Y0212984D02*
X0025803Y0212984D01*
X0025803Y0213022D02*
X0005331Y0213022D01*
X0005331Y0213060D02*
X0025803Y0213060D01*
X0025803Y0213098D02*
X0005331Y0213098D01*
X0005331Y0213136D02*
X0025803Y0213136D01*
X0025803Y0213174D02*
X0005331Y0213174D01*
X0005331Y0213212D02*
X0025803Y0213212D01*
X0025803Y0213249D02*
X0005331Y0213249D01*
X0005331Y0213287D02*
X0025803Y0213287D01*
X0025803Y0213325D02*
X0005331Y0213325D01*
X0005331Y0213363D02*
X0025803Y0213363D01*
X0025803Y0213401D02*
X0005331Y0213401D01*
X0005331Y0213439D02*
X0025803Y0213439D01*
X0025803Y0213477D02*
X0005331Y0213477D01*
X0005331Y0213515D02*
X0025803Y0213515D01*
X0025803Y0213553D02*
X0005331Y0213553D01*
X0005331Y0213590D02*
X0025803Y0213590D01*
X0025803Y0213628D02*
X0005331Y0213628D01*
X0005331Y0213666D02*
X0025803Y0213666D01*
X0025803Y0213704D02*
X0005331Y0213704D01*
X0005331Y0213742D02*
X0025803Y0213742D01*
X0025803Y0213780D02*
X0005331Y0213780D01*
X0005331Y0213818D02*
X0025803Y0213818D01*
X0025803Y0213856D02*
X0005331Y0213856D01*
X0005331Y0213893D02*
X0025803Y0213893D01*
X0025803Y0213931D02*
X0005331Y0213931D01*
X0005331Y0213969D02*
X0025803Y0213969D01*
X0025803Y0214007D02*
X0005331Y0214007D01*
X0005331Y0214045D02*
X0025803Y0214045D01*
X0025803Y0214083D02*
X0005331Y0214083D01*
X0005331Y0214121D02*
X0025803Y0214121D01*
X0025803Y0214159D02*
X0005331Y0214159D01*
X0005331Y0214197D02*
X0025803Y0214197D01*
X0025803Y0214234D02*
X0005331Y0214234D01*
X0005331Y0214272D02*
X0025803Y0214272D01*
X0025803Y0214310D02*
X0005331Y0214310D01*
X0005331Y0214348D02*
X0025803Y0214348D01*
X0025803Y0214386D02*
X0005331Y0214386D01*
X0005331Y0214424D02*
X0025803Y0214424D01*
X0025803Y0214462D02*
X0005331Y0214462D01*
X0005331Y0214500D02*
X0025803Y0214500D01*
X0025803Y0214537D02*
X0005331Y0214537D01*
X0005331Y0214575D02*
X0025803Y0214575D01*
X0025803Y0214613D02*
X0005331Y0214613D01*
X0005331Y0214651D02*
X0025803Y0214651D01*
X0025803Y0214689D02*
X0005331Y0214689D01*
X0005331Y0214727D02*
X0025803Y0214727D01*
X0025803Y0214765D02*
X0005331Y0214765D01*
X0005331Y0214803D02*
X0025803Y0214803D01*
X0025803Y0214840D02*
X0005331Y0214840D01*
X0005331Y0214878D02*
X0025803Y0214878D01*
X0025803Y0214916D02*
X0005331Y0214916D01*
X0005331Y0214954D02*
X0025803Y0214954D01*
X0025803Y0214992D02*
X0005331Y0214992D01*
X0005331Y0215030D02*
X0025803Y0215030D01*
X0025803Y0215068D02*
X0005331Y0215068D01*
X0005331Y0215106D02*
X0025803Y0215106D01*
X0025803Y0215144D02*
X0005331Y0215144D01*
X0005331Y0215181D02*
X0025803Y0215181D01*
X0025803Y0215219D02*
X0005331Y0215219D01*
X0005331Y0215257D02*
X0025803Y0215257D01*
X0025803Y0215295D02*
X0005331Y0215295D01*
X0005331Y0215333D02*
X0025803Y0215333D01*
X0025803Y0215371D02*
X0005331Y0215371D01*
X0005331Y0215409D02*
X0025803Y0215409D01*
X0025803Y0215447D02*
X0005331Y0215447D01*
X0005331Y0215484D02*
X0025803Y0215484D01*
X0025803Y0215522D02*
X0005331Y0215522D01*
X0005331Y0215560D02*
X0025803Y0215560D01*
X0025803Y0215598D02*
X0005331Y0215598D01*
X0005331Y0215636D02*
X0025803Y0215636D01*
X0025803Y0215674D02*
X0005331Y0215674D01*
X0005331Y0215712D02*
X0025803Y0215712D01*
X0025803Y0215750D02*
X0005331Y0215750D01*
X0005331Y0215788D02*
X0025803Y0215788D01*
X0025803Y0215825D02*
X0005331Y0215825D01*
X0005331Y0215863D02*
X0025803Y0215863D01*
X0025803Y0215901D02*
X0005331Y0215901D01*
X0005331Y0215939D02*
X0025803Y0215939D01*
X0025803Y0215977D02*
X0005331Y0215977D01*
X0005331Y0216015D02*
X0025803Y0216015D01*
X0025803Y0216053D02*
X0005331Y0216053D01*
X0005331Y0216091D02*
X0025803Y0216091D01*
X0025803Y0216128D02*
X0005331Y0216128D01*
X0005331Y0216166D02*
X0025803Y0216166D01*
X0025803Y0216204D02*
X0005331Y0216204D01*
X0005331Y0216242D02*
X0025803Y0216242D01*
X0025803Y0216280D02*
X0005331Y0216280D01*
X0005331Y0216318D02*
X0025803Y0216318D01*
X0025803Y0216356D02*
X0005331Y0216356D01*
X0005331Y0216394D02*
X0025803Y0216394D01*
X0025803Y0216432D02*
X0005331Y0216432D01*
X0005331Y0216469D02*
X0025803Y0216469D01*
X0025803Y0216507D02*
X0005331Y0216507D01*
X0005331Y0216545D02*
X0025803Y0216545D01*
X0025803Y0216583D02*
X0005331Y0216583D01*
X0005331Y0216621D02*
X0025803Y0216621D01*
X0025803Y0216659D02*
X0005331Y0216659D01*
X0005331Y0216697D02*
X0025803Y0216697D01*
X0025803Y0216735D02*
X0005331Y0216735D01*
X0005331Y0216772D02*
X0025803Y0216772D01*
X0025803Y0216810D02*
X0005331Y0216810D01*
X0005331Y0216848D02*
X0025803Y0216848D01*
X0025803Y0216886D02*
X0005331Y0216886D01*
X0005331Y0216924D02*
X0025803Y0216924D01*
X0025803Y0216962D02*
X0005331Y0216962D01*
X0005331Y0217000D02*
X0025803Y0217000D01*
X0025803Y0217038D02*
X0005331Y0217038D01*
X0005331Y0217075D02*
X0025803Y0217075D01*
X0025803Y0217113D02*
X0005331Y0217113D01*
X0005331Y0217151D02*
X0025803Y0217151D01*
X0025803Y0217189D02*
X0005331Y0217189D01*
X0005331Y0217227D02*
X0025803Y0217227D01*
X0025803Y0217265D02*
X0005331Y0217265D01*
X0005331Y0217303D02*
X0025803Y0217303D01*
X0025803Y0217341D02*
X0005331Y0217341D01*
X0005331Y0217379D02*
X0025803Y0217379D01*
X0025803Y0217416D02*
X0005331Y0217416D01*
X0005331Y0217454D02*
X0025803Y0217454D01*
X0025803Y0217492D02*
X0005331Y0217492D01*
X0005331Y0217530D02*
X0025803Y0217530D01*
X0025803Y0217568D02*
X0005331Y0217568D01*
X0005331Y0217606D02*
X0025803Y0217606D01*
X0025803Y0217644D02*
X0005331Y0217644D01*
X0005331Y0217682D02*
X0025803Y0217682D01*
X0025803Y0217719D02*
X0005331Y0217719D01*
X0005331Y0217757D02*
X0025803Y0217757D01*
X0025803Y0217795D02*
X0005331Y0217795D01*
X0005331Y0217833D02*
X0025803Y0217833D01*
X0025803Y0217871D02*
X0005331Y0217871D01*
X0005331Y0217909D02*
X0025803Y0217909D01*
X0025803Y0217947D02*
X0005331Y0217947D01*
X0005331Y0217985D02*
X0025803Y0217985D01*
X0025803Y0218023D02*
X0005331Y0218023D01*
X0005331Y0218060D02*
X0025803Y0218060D01*
X0025803Y0218098D02*
X0005331Y0218098D01*
X0005331Y0218136D02*
X0025803Y0218136D01*
X0025803Y0218174D02*
X0005331Y0218174D01*
X0005331Y0218212D02*
X0025803Y0218212D01*
X0025803Y0218250D02*
X0005331Y0218250D01*
X0005331Y0218288D02*
X0025803Y0218288D01*
X0025803Y0218326D02*
X0005331Y0218326D01*
X0005331Y0218363D02*
X0025803Y0218363D01*
X0025803Y0218401D02*
X0005331Y0218401D01*
X0005331Y0218439D02*
X0025803Y0218439D01*
X0025803Y0218477D02*
X0005331Y0218477D01*
X0005331Y0218515D02*
X0025803Y0218515D01*
X0025803Y0218553D02*
X0005331Y0218553D01*
X0005331Y0218591D02*
X0025803Y0218591D01*
X0025803Y0218629D02*
X0005331Y0218629D01*
X0005331Y0218667D02*
X0025803Y0218667D01*
X0025803Y0218704D02*
X0005331Y0218704D01*
X0005331Y0218742D02*
X0025803Y0218742D01*
X0025803Y0218780D02*
X0005331Y0218780D01*
X0005331Y0218818D02*
X0025803Y0218818D01*
X0025803Y0218856D02*
X0005331Y0218856D01*
X0005331Y0218894D02*
X0025803Y0218894D01*
X0025803Y0218932D02*
X0005331Y0218932D01*
X0005331Y0218970D02*
X0025803Y0218970D01*
X0025803Y0219007D02*
X0005331Y0219007D01*
X0005331Y0219045D02*
X0025803Y0219045D01*
X0025803Y0219083D02*
X0005331Y0219083D01*
X0005331Y0219121D02*
X0025803Y0219121D01*
X0025803Y0219159D02*
X0005331Y0219159D01*
X0005331Y0219197D02*
X0025803Y0219197D01*
X0025803Y0219235D02*
X0005331Y0219235D01*
X0005331Y0219273D02*
X0025803Y0219273D01*
X0025803Y0219310D02*
X0005331Y0219310D01*
X0005331Y0219348D02*
X0025803Y0219348D01*
X0025803Y0219386D02*
X0005331Y0219386D01*
X0005331Y0219424D02*
X0025803Y0219424D01*
X0025803Y0219462D02*
X0005331Y0219462D01*
X0005331Y0219500D02*
X0025803Y0219500D01*
X0025803Y0219538D02*
X0005331Y0219538D01*
X0005331Y0219576D02*
X0025803Y0219576D01*
X0025803Y0219614D02*
X0005331Y0219614D01*
X0005331Y0219651D02*
X0025803Y0219651D01*
X0025803Y0219689D02*
X0005331Y0219689D01*
X0005331Y0219727D02*
X0025803Y0219727D01*
X0025803Y0219765D02*
X0005331Y0219765D01*
X0005331Y0219803D02*
X0025803Y0219803D01*
X0025803Y0219841D02*
X0005331Y0219841D01*
X0005331Y0219879D02*
X0025803Y0219879D01*
X0025803Y0219917D02*
X0005331Y0219917D01*
X0005331Y0219954D02*
X0025803Y0219954D01*
X0025803Y0219992D02*
X0005331Y0219992D01*
X0005331Y0220030D02*
X0025803Y0220030D01*
X0025803Y0220068D02*
X0005331Y0220068D01*
X0005331Y0220106D02*
X0025803Y0220106D01*
X0025803Y0220144D02*
X0005331Y0220144D01*
X0005331Y0220182D02*
X0025803Y0220182D01*
X0025803Y0220220D02*
X0005331Y0220220D01*
X0005331Y0220258D02*
X0025803Y0220258D01*
X0025803Y0220295D02*
X0005331Y0220295D01*
X0005331Y0220333D02*
X0025803Y0220333D01*
X0025803Y0220371D02*
X0005331Y0220371D01*
X0005331Y0220409D02*
X0025803Y0220409D01*
X0025803Y0220447D02*
X0005331Y0220447D01*
X0005331Y0220485D02*
X0025803Y0220485D01*
X0025803Y0220523D02*
X0005331Y0220523D01*
X0005331Y0220561D02*
X0025803Y0220561D01*
X0025803Y0220598D02*
X0005331Y0220598D01*
X0005331Y0220636D02*
X0025803Y0220636D01*
X0025803Y0220674D02*
X0005331Y0220674D01*
X0005331Y0220712D02*
X0025803Y0220712D01*
X0025803Y0220750D02*
X0005331Y0220750D01*
X0005331Y0220788D02*
X0025803Y0220788D01*
X0025803Y0220826D02*
X0005331Y0220826D01*
X0005331Y0220864D02*
X0025803Y0220864D01*
X0025803Y0220902D02*
X0005331Y0220902D01*
X0005331Y0220939D02*
X0025803Y0220939D01*
X0025803Y0220977D02*
X0005331Y0220977D01*
X0005331Y0221015D02*
X0025803Y0221015D01*
X0025803Y0221053D02*
X0005331Y0221053D01*
X0005331Y0221091D02*
X0025803Y0221091D01*
X0025803Y0221129D02*
X0005331Y0221129D01*
X0005331Y0221167D02*
X0025803Y0221167D01*
X0025803Y0221205D02*
X0005331Y0221205D01*
X0005331Y0221242D02*
X0025803Y0221242D01*
X0025803Y0221280D02*
X0005331Y0221280D01*
X0005331Y0221318D02*
X0025803Y0221318D01*
X0025803Y0221356D02*
X0005331Y0221356D01*
X0005331Y0221394D02*
X0025803Y0221394D01*
X0025803Y0221432D02*
X0005331Y0221432D01*
X0005331Y0221470D02*
X0025803Y0221470D01*
X0025803Y0221508D02*
X0005331Y0221508D01*
X0005331Y0221545D02*
X0025803Y0221545D01*
X0025803Y0221583D02*
X0005331Y0221583D01*
X0005331Y0221621D02*
X0025803Y0221621D01*
X0025803Y0221659D02*
X0005331Y0221659D01*
X0005331Y0221697D02*
X0025803Y0221697D01*
X0025803Y0221735D02*
X0005331Y0221735D01*
X0005331Y0221773D02*
X0025803Y0221773D01*
X0025803Y0221811D02*
X0005331Y0221811D01*
X0005331Y0221849D02*
X0025803Y0221849D01*
X0025803Y0221886D02*
X0005331Y0221886D01*
X0005331Y0221924D02*
X0025803Y0221924D01*
X0025803Y0221962D02*
X0005331Y0221962D01*
X0005331Y0222000D02*
X0025803Y0222000D01*
X0025803Y0222038D02*
X0005331Y0222038D01*
X0005331Y0222076D02*
X0025803Y0222076D01*
X0025803Y0222114D02*
X0005331Y0222114D01*
X0005331Y0222152D02*
X0025803Y0222152D01*
X0025803Y0222189D02*
X0005331Y0222189D01*
X0005331Y0222227D02*
X0025803Y0222227D01*
X0025803Y0222265D02*
X0005331Y0222265D01*
X0005331Y0222303D02*
X0025803Y0222303D01*
X0025803Y0222341D02*
X0005331Y0222341D01*
X0005331Y0222379D02*
X0025803Y0222379D01*
X0025803Y0222417D02*
X0005331Y0222417D01*
X0005331Y0222455D02*
X0025803Y0222455D01*
X0025803Y0222493D02*
X0005331Y0222493D01*
X0005331Y0222530D02*
X0025803Y0222530D01*
X0025803Y0222568D02*
X0005331Y0222568D01*
X0005331Y0222606D02*
X0025803Y0222606D01*
X0025803Y0222644D02*
X0005331Y0222644D01*
X0005331Y0222682D02*
X0025803Y0222682D01*
X0025803Y0222720D02*
X0005331Y0222720D01*
X0005331Y0222758D02*
X0025803Y0222758D01*
X0025803Y0222796D02*
X0005331Y0222796D01*
X0005331Y0222833D02*
X0025803Y0222833D01*
X0025803Y0222871D02*
X0005331Y0222871D01*
X0005331Y0222909D02*
X0025803Y0222909D01*
X0025803Y0222947D02*
X0005331Y0222947D01*
X0005331Y0222985D02*
X0025803Y0222985D01*
X0025803Y0223023D02*
X0005331Y0223023D01*
X0005331Y0223061D02*
X0025803Y0223061D01*
X0025803Y0223099D02*
X0005331Y0223099D01*
X0005331Y0223137D02*
X0025803Y0223137D01*
X0025803Y0223174D02*
X0005331Y0223174D01*
X0005331Y0223212D02*
X0025803Y0223212D01*
X0025803Y0223250D02*
X0005331Y0223250D01*
X0005331Y0223288D02*
X0025803Y0223288D01*
X0025803Y0223326D02*
X0005331Y0223326D01*
X0005331Y0223364D02*
X0025803Y0223364D01*
X0025803Y0223402D02*
X0005331Y0223402D01*
X0005331Y0223440D02*
X0025803Y0223440D01*
D14*
X0084307Y0066748D03*
M02*
