G04 EAGLE Gerber RS-274X export*
G75*
%MOIN*%
%FSLAX34Y34*%
%LPD*%
%INBottom Copper*%
%IPPOS*%
%AMOC8*
5,1,8,0,0,1.08239X$1,22.5*%
G01*
%ADD10C,0.059055*%
%ADD11C,0.052000*%
%ADD12P,0.056284X8X292.500000*%
%ADD13C,0.230000*%
%ADD14C,0.052000*%
%ADD15C,0.029780*%
%ADD16C,0.016000*%
%ADD17C,0.024000*%

G36*
X52691Y401D02*
X52691Y401D01*
X52692Y401D01*
X52698Y402D01*
X52703Y402D01*
X52704Y403D01*
X52706Y403D01*
X52711Y405D01*
X52716Y407D01*
X52717Y408D01*
X52718Y408D01*
X52723Y411D01*
X52727Y414D01*
X52728Y415D01*
X52729Y416D01*
X52733Y420D01*
X52737Y424D01*
X52738Y425D01*
X52738Y426D01*
X52741Y431D01*
X52744Y436D01*
X52744Y437D01*
X52745Y438D01*
X52746Y444D01*
X52748Y449D01*
X52748Y450D01*
X52748Y452D01*
X52749Y460D01*
X52749Y31823D01*
X52749Y31825D01*
X52749Y31826D01*
X52748Y31832D01*
X52747Y31837D01*
X52747Y31838D01*
X52747Y31840D01*
X52745Y31845D01*
X52743Y31850D01*
X52742Y31851D01*
X52741Y31852D01*
X52738Y31857D01*
X52735Y31861D01*
X52734Y31862D01*
X52734Y31863D01*
X52729Y31867D01*
X52725Y31871D01*
X52724Y31871D01*
X52723Y31872D01*
X52718Y31875D01*
X52714Y31878D01*
X52712Y31878D01*
X52711Y31879D01*
X52706Y31880D01*
X52701Y31882D01*
X52699Y31882D01*
X52698Y31882D01*
X52690Y31883D01*
X460Y31883D01*
X459Y31883D01*
X457Y31883D01*
X452Y31882D01*
X446Y31881D01*
X445Y31881D01*
X444Y31880D01*
X439Y31878D01*
X434Y31877D01*
X433Y31876D01*
X431Y31875D01*
X427Y31872D01*
X422Y31869D01*
X421Y31868D01*
X420Y31867D01*
X417Y31863D01*
X413Y31859D01*
X412Y31858D01*
X411Y31857D01*
X409Y31852D01*
X406Y31847D01*
X405Y31846D01*
X405Y31845D01*
X403Y31840D01*
X402Y31834D01*
X402Y31833D01*
X401Y31832D01*
X401Y31823D01*
X401Y460D01*
X401Y459D01*
X401Y457D01*
X402Y452D01*
X402Y446D01*
X403Y445D01*
X403Y444D01*
X405Y439D01*
X407Y434D01*
X408Y433D01*
X408Y431D01*
X411Y427D01*
X414Y422D01*
X415Y421D01*
X416Y420D01*
X420Y417D01*
X424Y413D01*
X425Y412D01*
X426Y411D01*
X431Y409D01*
X436Y406D01*
X437Y405D01*
X438Y405D01*
X444Y403D01*
X449Y402D01*
X450Y402D01*
X452Y401D01*
X460Y401D01*
X52690Y401D01*
X52691Y401D01*
G37*
%LPC*%
G36*
X36208Y25290D02*
X36208Y25290D01*
X36131Y25322D01*
X36112Y25342D01*
X36107Y25345D01*
X36103Y25349D01*
X36102Y25349D01*
X36101Y25350D01*
X36096Y25353D01*
X36091Y25355D01*
X36090Y25356D01*
X36089Y25356D01*
X36083Y25357D01*
X36078Y25359D01*
X36076Y25359D01*
X36075Y25359D01*
X36074Y25359D01*
X36070Y25359D01*
X31192Y25359D01*
X29660Y26891D01*
X29657Y26893D01*
X29655Y26896D01*
X29652Y26898D01*
X29649Y26900D01*
X29646Y26901D01*
X29643Y26903D01*
X29640Y26904D01*
X29637Y26905D01*
X29633Y26906D01*
X29630Y26907D01*
X29627Y26908D01*
X29623Y26908D01*
X29620Y26908D01*
X29617Y26909D01*
X29613Y26908D01*
X29610Y26908D01*
X29606Y26907D01*
X29603Y26907D01*
X29598Y26905D01*
X29597Y26905D01*
X29596Y26904D01*
X29595Y26904D01*
X29571Y26894D01*
X29429Y26894D01*
X29405Y26904D01*
X29402Y26905D01*
X29399Y26906D01*
X29395Y26907D01*
X29392Y26908D01*
X29388Y26908D01*
X29385Y26908D01*
X29382Y26908D01*
X29378Y26908D01*
X29375Y26908D01*
X29371Y26908D01*
X29368Y26907D01*
X29365Y26906D01*
X29362Y26905D01*
X29358Y26904D01*
X29355Y26902D01*
X29352Y26900D01*
X29350Y26898D01*
X29347Y26897D01*
X29342Y26893D01*
X29341Y26892D01*
X29340Y26891D01*
X29158Y26709D01*
X29058Y26609D01*
X28362Y26609D01*
X28358Y26609D01*
X28354Y26609D01*
X28351Y26608D01*
X28349Y26608D01*
X28345Y26606D01*
X28341Y26605D01*
X28338Y26604D01*
X28336Y26603D01*
X28332Y26601D01*
X28329Y26599D01*
X28327Y26597D01*
X28324Y26596D01*
X28321Y26593D01*
X28318Y26590D01*
X28317Y26588D01*
X28315Y26586D01*
X28313Y26582D01*
X28310Y26579D01*
X28309Y26576D01*
X28308Y26574D01*
X28307Y26570D01*
X28305Y26566D01*
X28305Y26564D01*
X28304Y26561D01*
X28304Y26557D01*
X28303Y26553D01*
X28303Y26550D01*
X28303Y26547D01*
X28304Y26543D01*
X28304Y26539D01*
X28305Y26537D01*
X28305Y26534D01*
X28307Y26530D01*
X28308Y26526D01*
X28309Y26524D01*
X28310Y26521D01*
X28313Y26518D01*
X28315Y26514D01*
X28317Y26511D01*
X28318Y26510D01*
X28319Y26510D01*
X28320Y26508D01*
X28377Y26452D01*
X28431Y26321D01*
X28431Y26179D01*
X28377Y26048D01*
X28276Y25948D01*
X28146Y25894D01*
X28004Y25894D01*
X27873Y25948D01*
X27773Y26048D01*
X27719Y26179D01*
X27719Y26321D01*
X27773Y26452D01*
X27829Y26508D01*
X27832Y26511D01*
X27835Y26514D01*
X27836Y26517D01*
X27838Y26519D01*
X27840Y26522D01*
X27842Y26526D01*
X27843Y26529D01*
X27844Y26531D01*
X27845Y26535D01*
X27846Y26539D01*
X27846Y26542D01*
X27847Y26544D01*
X27846Y26549D01*
X27847Y26553D01*
X27846Y26555D01*
X27846Y26558D01*
X27845Y26562D01*
X27845Y26566D01*
X27843Y26569D01*
X27843Y26571D01*
X27841Y26575D01*
X27839Y26579D01*
X27838Y26581D01*
X27836Y26583D01*
X27834Y26586D01*
X27831Y26590D01*
X27829Y26592D01*
X27828Y26594D01*
X27824Y26596D01*
X27821Y26599D01*
X27819Y26600D01*
X27816Y26602D01*
X27813Y26603D01*
X27809Y26605D01*
X27806Y26606D01*
X27804Y26607D01*
X27800Y26608D01*
X27796Y26609D01*
X27792Y26609D01*
X27790Y26609D01*
X27789Y26609D01*
X27788Y26609D01*
X25517Y26609D01*
X25417Y26709D01*
X25235Y26891D01*
X25232Y26893D01*
X25230Y26896D01*
X25227Y26898D01*
X25224Y26900D01*
X25221Y26901D01*
X25218Y26903D01*
X25215Y26904D01*
X25212Y26905D01*
X25208Y26906D01*
X25205Y26907D01*
X25202Y26908D01*
X25198Y26908D01*
X25195Y26908D01*
X25191Y26909D01*
X25188Y26908D01*
X25185Y26908D01*
X25181Y26907D01*
X25178Y26907D01*
X25173Y26905D01*
X25171Y26905D01*
X25171Y26904D01*
X25170Y26904D01*
X25146Y26894D01*
X25004Y26894D01*
X24980Y26904D01*
X24976Y26905D01*
X24973Y26906D01*
X24970Y26907D01*
X24967Y26908D01*
X24963Y26908D01*
X24960Y26908D01*
X24956Y26908D01*
X24953Y26908D01*
X24950Y26908D01*
X24946Y26908D01*
X24943Y26907D01*
X24939Y26906D01*
X24936Y26905D01*
X24933Y26904D01*
X24930Y26902D01*
X24927Y26900D01*
X24924Y26898D01*
X24921Y26897D01*
X24917Y26893D01*
X24916Y26892D01*
X24915Y26891D01*
X24733Y26709D01*
X24633Y26609D01*
X24037Y26609D01*
X24033Y26609D01*
X24029Y26609D01*
X24026Y26608D01*
X24024Y26608D01*
X24020Y26606D01*
X24016Y26605D01*
X24014Y26604D01*
X24011Y26603D01*
X24007Y26601D01*
X24004Y26599D01*
X24002Y26597D01*
X23999Y26596D01*
X23997Y26593D01*
X23994Y26590D01*
X23992Y26588D01*
X23990Y26586D01*
X23988Y26582D01*
X23986Y26579D01*
X23985Y26576D01*
X23983Y26574D01*
X23982Y26570D01*
X23980Y26566D01*
X23980Y26564D01*
X23979Y26561D01*
X23979Y26557D01*
X23978Y26553D01*
X23978Y26550D01*
X23978Y26547D01*
X23979Y26543D01*
X23979Y26539D01*
X23980Y26537D01*
X23980Y26534D01*
X23982Y26530D01*
X23983Y26526D01*
X23984Y26524D01*
X23985Y26521D01*
X23988Y26518D01*
X23990Y26514D01*
X23993Y26511D01*
X23993Y26510D01*
X23994Y26510D01*
X23995Y26508D01*
X24052Y26452D01*
X24106Y26321D01*
X24106Y26179D01*
X24052Y26048D01*
X23952Y25948D01*
X23821Y25894D01*
X23679Y25894D01*
X23548Y25948D01*
X23448Y26048D01*
X23394Y26179D01*
X23394Y26321D01*
X23448Y26452D01*
X23505Y26508D01*
X23507Y26511D01*
X23510Y26514D01*
X23511Y26517D01*
X23513Y26519D01*
X23515Y26522D01*
X23517Y26526D01*
X23518Y26529D01*
X23519Y26531D01*
X23520Y26535D01*
X23521Y26539D01*
X23521Y26542D01*
X23522Y26544D01*
X23522Y26549D01*
X23522Y26553D01*
X23521Y26555D01*
X23521Y26558D01*
X23520Y26562D01*
X23520Y26566D01*
X23519Y26569D01*
X23518Y26571D01*
X23516Y26575D01*
X23515Y26579D01*
X23513Y26581D01*
X23512Y26583D01*
X23509Y26586D01*
X23507Y26590D01*
X23505Y26592D01*
X23503Y26594D01*
X23499Y26596D01*
X23496Y26599D01*
X23494Y26600D01*
X23492Y26602D01*
X23488Y26603D01*
X23484Y26605D01*
X23482Y26606D01*
X23479Y26607D01*
X23475Y26608D01*
X23471Y26609D01*
X23467Y26609D01*
X23466Y26609D01*
X23465Y26609D01*
X23463Y26609D01*
X21192Y26609D01*
X21092Y26709D01*
X20910Y26891D01*
X20907Y26893D01*
X20905Y26896D01*
X20902Y26898D01*
X20899Y26900D01*
X20896Y26901D01*
X20893Y26903D01*
X20890Y26904D01*
X20887Y26905D01*
X20883Y26906D01*
X20880Y26907D01*
X20877Y26908D01*
X20873Y26908D01*
X20870Y26908D01*
X20867Y26909D01*
X20863Y26908D01*
X20860Y26908D01*
X20856Y26907D01*
X20853Y26907D01*
X20848Y26905D01*
X20847Y26905D01*
X20846Y26904D01*
X20845Y26904D01*
X20821Y26894D01*
X20679Y26894D01*
X20548Y26948D01*
X20448Y27048D01*
X20394Y27179D01*
X20394Y27321D01*
X20448Y27452D01*
X20548Y27552D01*
X20679Y27606D01*
X20821Y27606D01*
X20952Y27552D01*
X21052Y27452D01*
X21106Y27321D01*
X21106Y27179D01*
X21096Y27155D01*
X21095Y27152D01*
X21094Y27149D01*
X21093Y27145D01*
X21092Y27142D01*
X21092Y27138D01*
X21092Y27135D01*
X21092Y27132D01*
X21092Y27128D01*
X21092Y27125D01*
X21092Y27121D01*
X21093Y27118D01*
X21094Y27115D01*
X21095Y27112D01*
X21096Y27108D01*
X21098Y27105D01*
X21100Y27102D01*
X21102Y27100D01*
X21103Y27097D01*
X21107Y27092D01*
X21108Y27091D01*
X21109Y27090D01*
X21291Y26908D01*
X21295Y26905D01*
X21299Y26901D01*
X21300Y26901D01*
X21302Y26900D01*
X21306Y26897D01*
X21311Y26895D01*
X21313Y26894D01*
X21314Y26894D01*
X21319Y26893D01*
X21324Y26891D01*
X21326Y26891D01*
X21327Y26891D01*
X21329Y26891D01*
X21333Y26891D01*
X23463Y26891D01*
X23467Y26891D01*
X23471Y26891D01*
X23474Y26892D01*
X23476Y26892D01*
X23480Y26894D01*
X23484Y26895D01*
X23486Y26896D01*
X23489Y26897D01*
X23493Y26899D01*
X23496Y26901D01*
X23498Y26903D01*
X23501Y26904D01*
X23503Y26907D01*
X23506Y26910D01*
X23508Y26912D01*
X23510Y26914D01*
X23512Y26918D01*
X23514Y26921D01*
X23515Y26924D01*
X23517Y26926D01*
X23518Y26930D01*
X23520Y26934D01*
X23520Y26936D01*
X23521Y26939D01*
X23521Y26943D01*
X23522Y26947D01*
X23522Y26950D01*
X23522Y26953D01*
X23521Y26957D01*
X23521Y26961D01*
X23520Y26963D01*
X23520Y26966D01*
X23518Y26970D01*
X23517Y26974D01*
X23516Y26976D01*
X23515Y26979D01*
X23512Y26982D01*
X23510Y26986D01*
X23507Y26989D01*
X23507Y26990D01*
X23506Y26990D01*
X23505Y26992D01*
X23448Y27048D01*
X23394Y27179D01*
X23394Y27321D01*
X23448Y27452D01*
X23548Y27552D01*
X23679Y27606D01*
X23821Y27606D01*
X23845Y27596D01*
X23848Y27595D01*
X23851Y27594D01*
X23855Y27593D01*
X23858Y27592D01*
X23862Y27592D01*
X23865Y27592D01*
X23868Y27592D01*
X23872Y27592D01*
X23875Y27592D01*
X23879Y27592D01*
X23882Y27593D01*
X23885Y27594D01*
X23888Y27595D01*
X23892Y27596D01*
X23895Y27598D01*
X23898Y27600D01*
X23900Y27602D01*
X23903Y27603D01*
X23908Y27607D01*
X23909Y27608D01*
X23910Y27609D01*
X24192Y27891D01*
X24788Y27891D01*
X24792Y27891D01*
X24796Y27891D01*
X24798Y27892D01*
X24801Y27892D01*
X24805Y27894D01*
X24809Y27895D01*
X24811Y27896D01*
X24814Y27897D01*
X24817Y27899D01*
X24821Y27901D01*
X24823Y27903D01*
X24825Y27904D01*
X24828Y27907D01*
X24831Y27910D01*
X24833Y27912D01*
X24835Y27914D01*
X24837Y27918D01*
X24839Y27921D01*
X24840Y27924D01*
X24842Y27926D01*
X24843Y27930D01*
X24844Y27934D01*
X24845Y27936D01*
X24846Y27939D01*
X24846Y27943D01*
X24847Y27947D01*
X24847Y27950D01*
X24847Y27953D01*
X24846Y27957D01*
X24846Y27961D01*
X24845Y27963D01*
X24845Y27966D01*
X24843Y27970D01*
X24842Y27974D01*
X24840Y27976D01*
X24839Y27979D01*
X24837Y27982D01*
X24835Y27986D01*
X24832Y27989D01*
X24831Y27990D01*
X24829Y27992D01*
X24773Y28048D01*
X24719Y28179D01*
X24719Y28321D01*
X24773Y28452D01*
X24829Y28508D01*
X24832Y28511D01*
X24835Y28514D01*
X24836Y28517D01*
X24838Y28519D01*
X24840Y28522D01*
X24842Y28526D01*
X24843Y28529D01*
X24844Y28531D01*
X24845Y28535D01*
X24846Y28539D01*
X24846Y28542D01*
X24847Y28544D01*
X24846Y28549D01*
X24847Y28553D01*
X24846Y28555D01*
X24846Y28558D01*
X24845Y28562D01*
X24845Y28566D01*
X24843Y28569D01*
X24843Y28571D01*
X24841Y28575D01*
X24839Y28579D01*
X24838Y28581D01*
X24836Y28583D01*
X24834Y28586D01*
X24831Y28590D01*
X24829Y28592D01*
X24828Y28594D01*
X24824Y28596D01*
X24821Y28599D01*
X24819Y28600D01*
X24816Y28602D01*
X24813Y28603D01*
X24809Y28605D01*
X24806Y28606D01*
X24804Y28607D01*
X24800Y28608D01*
X24796Y28609D01*
X24792Y28609D01*
X24790Y28609D01*
X24789Y28609D01*
X24788Y28609D01*
X24192Y28609D01*
X23910Y28891D01*
X23907Y28893D01*
X23905Y28896D01*
X23902Y28898D01*
X23899Y28900D01*
X23896Y28901D01*
X23893Y28903D01*
X23890Y28904D01*
X23887Y28905D01*
X23883Y28906D01*
X23880Y28907D01*
X23877Y28908D01*
X23873Y28908D01*
X23870Y28908D01*
X23867Y28909D01*
X23863Y28908D01*
X23860Y28908D01*
X23856Y28907D01*
X23853Y28907D01*
X23848Y28905D01*
X23847Y28905D01*
X23846Y28904D01*
X23845Y28904D01*
X23821Y28894D01*
X23679Y28894D01*
X23548Y28948D01*
X23448Y29048D01*
X23394Y29179D01*
X23394Y29321D01*
X23448Y29452D01*
X23505Y29508D01*
X23507Y29511D01*
X23510Y29514D01*
X23511Y29517D01*
X23513Y29519D01*
X23515Y29522D01*
X23517Y29526D01*
X23518Y29529D01*
X23519Y29531D01*
X23520Y29535D01*
X23521Y29539D01*
X23521Y29542D01*
X23522Y29544D01*
X23522Y29549D01*
X23522Y29553D01*
X23521Y29555D01*
X23521Y29558D01*
X23520Y29562D01*
X23520Y29566D01*
X23519Y29569D01*
X23518Y29571D01*
X23516Y29575D01*
X23515Y29579D01*
X23513Y29581D01*
X23512Y29583D01*
X23509Y29586D01*
X23507Y29590D01*
X23505Y29592D01*
X23503Y29594D01*
X23499Y29596D01*
X23496Y29599D01*
X23494Y29600D01*
X23492Y29602D01*
X23488Y29603D01*
X23484Y29605D01*
X23482Y29606D01*
X23479Y29607D01*
X23475Y29608D01*
X23471Y29609D01*
X23467Y29609D01*
X23466Y29609D01*
X23465Y29609D01*
X23463Y29609D01*
X21333Y29609D01*
X21328Y29609D01*
X21322Y29608D01*
X21321Y29608D01*
X21319Y29608D01*
X21314Y29606D01*
X21309Y29604D01*
X21308Y29604D01*
X21306Y29603D01*
X21302Y29600D01*
X21297Y29597D01*
X21296Y29596D01*
X21295Y29596D01*
X21294Y29595D01*
X21291Y29592D01*
X21109Y29410D01*
X21107Y29407D01*
X21104Y29405D01*
X21102Y29402D01*
X21100Y29399D01*
X21099Y29396D01*
X21097Y29393D01*
X21096Y29390D01*
X21095Y29387D01*
X21094Y29383D01*
X21093Y29380D01*
X21092Y29377D01*
X21092Y29373D01*
X21092Y29370D01*
X21091Y29367D01*
X21092Y29363D01*
X21092Y29360D01*
X21093Y29356D01*
X21093Y29353D01*
X21095Y29348D01*
X21095Y29347D01*
X21096Y29346D01*
X21096Y29345D01*
X21106Y29321D01*
X21106Y29179D01*
X21052Y29048D01*
X20952Y28948D01*
X20821Y28894D01*
X20679Y28894D01*
X20548Y28948D01*
X20448Y29048D01*
X20394Y29179D01*
X20394Y29321D01*
X20448Y29452D01*
X20548Y29552D01*
X20679Y29606D01*
X20821Y29606D01*
X20845Y29596D01*
X20848Y29595D01*
X20851Y29594D01*
X20855Y29593D01*
X20858Y29592D01*
X20862Y29592D01*
X20865Y29592D01*
X20868Y29592D01*
X20872Y29592D01*
X20875Y29592D01*
X20879Y29592D01*
X20882Y29593D01*
X20885Y29594D01*
X20888Y29595D01*
X20892Y29596D01*
X20895Y29598D01*
X20898Y29600D01*
X20900Y29602D01*
X20903Y29603D01*
X20908Y29607D01*
X20909Y29608D01*
X20910Y29609D01*
X21092Y29791D01*
X21192Y29891D01*
X23463Y29891D01*
X23467Y29891D01*
X23471Y29891D01*
X23474Y29892D01*
X23476Y29892D01*
X23480Y29894D01*
X23484Y29895D01*
X23486Y29896D01*
X23489Y29897D01*
X23493Y29899D01*
X23496Y29901D01*
X23498Y29903D01*
X23501Y29904D01*
X23503Y29907D01*
X23506Y29910D01*
X23508Y29912D01*
X23510Y29914D01*
X23512Y29918D01*
X23514Y29921D01*
X23515Y29924D01*
X23517Y29926D01*
X23518Y29930D01*
X23520Y29934D01*
X23520Y29936D01*
X23521Y29939D01*
X23521Y29943D01*
X23522Y29947D01*
X23522Y29950D01*
X23522Y29953D01*
X23521Y29957D01*
X23521Y29961D01*
X23520Y29963D01*
X23520Y29966D01*
X23518Y29970D01*
X23517Y29974D01*
X23516Y29976D01*
X23515Y29979D01*
X23512Y29982D01*
X23510Y29986D01*
X23507Y29989D01*
X23507Y29990D01*
X23506Y29990D01*
X23505Y29992D01*
X23448Y30048D01*
X23394Y30179D01*
X23394Y30321D01*
X23448Y30452D01*
X23548Y30552D01*
X23679Y30606D01*
X23821Y30606D01*
X23845Y30596D01*
X23848Y30595D01*
X23851Y30594D01*
X23855Y30593D01*
X23858Y30592D01*
X23862Y30592D01*
X23865Y30592D01*
X23868Y30592D01*
X23872Y30592D01*
X23875Y30592D01*
X23879Y30592D01*
X23882Y30593D01*
X23885Y30594D01*
X23888Y30595D01*
X23892Y30596D01*
X23895Y30598D01*
X23898Y30600D01*
X23900Y30602D01*
X23903Y30603D01*
X23908Y30607D01*
X23909Y30608D01*
X23910Y30609D01*
X24342Y31041D01*
X24442Y31141D01*
X31808Y31141D01*
X32340Y30609D01*
X32343Y30607D01*
X32345Y30604D01*
X32348Y30602D01*
X32351Y30600D01*
X32354Y30599D01*
X32357Y30597D01*
X32360Y30596D01*
X32363Y30595D01*
X32367Y30594D01*
X32370Y30593D01*
X32373Y30592D01*
X32377Y30592D01*
X32380Y30592D01*
X32383Y30591D01*
X32387Y30592D01*
X32390Y30592D01*
X32394Y30593D01*
X32397Y30593D01*
X32402Y30595D01*
X32403Y30595D01*
X32404Y30596D01*
X32405Y30596D01*
X32429Y30606D01*
X32571Y30606D01*
X32702Y30552D01*
X32802Y30452D01*
X32856Y30321D01*
X32856Y30179D01*
X32802Y30048D01*
X32702Y29948D01*
X32571Y29894D01*
X32429Y29894D01*
X32298Y29948D01*
X32198Y30048D01*
X32144Y30179D01*
X32144Y30321D01*
X32154Y30345D01*
X32155Y30348D01*
X32156Y30351D01*
X32157Y30355D01*
X32158Y30358D01*
X32158Y30362D01*
X32158Y30365D01*
X32158Y30368D01*
X32158Y30372D01*
X32158Y30375D01*
X32158Y30379D01*
X32157Y30382D01*
X32156Y30385D01*
X32155Y30388D01*
X32154Y30392D01*
X32152Y30395D01*
X32150Y30398D01*
X32148Y30400D01*
X32147Y30403D01*
X32143Y30408D01*
X32142Y30409D01*
X32141Y30410D01*
X31709Y30842D01*
X31705Y30845D01*
X31701Y30849D01*
X31700Y30849D01*
X31698Y30850D01*
X31694Y30853D01*
X31689Y30855D01*
X31687Y30856D01*
X31686Y30856D01*
X31681Y30857D01*
X31676Y30859D01*
X31674Y30859D01*
X31673Y30859D01*
X31671Y30859D01*
X31667Y30859D01*
X28908Y30859D01*
X28902Y30859D01*
X28897Y30858D01*
X28896Y30858D01*
X28894Y30858D01*
X28889Y30856D01*
X28884Y30854D01*
X28883Y30854D01*
X28881Y30853D01*
X28877Y30850D01*
X28872Y30847D01*
X28871Y30846D01*
X28870Y30846D01*
X28869Y30845D01*
X28866Y30842D01*
X28434Y30410D01*
X28432Y30407D01*
X28429Y30405D01*
X28427Y30402D01*
X28425Y30399D01*
X28424Y30396D01*
X28422Y30393D01*
X28421Y30390D01*
X28419Y30387D01*
X28419Y30383D01*
X28418Y30380D01*
X28417Y30377D01*
X28416Y30373D01*
X28417Y30370D01*
X28416Y30367D01*
X28417Y30363D01*
X28417Y30360D01*
X28418Y30356D01*
X28418Y30353D01*
X28420Y30348D01*
X28420Y30347D01*
X28420Y30346D01*
X28421Y30345D01*
X28431Y30321D01*
X28431Y30179D01*
X28377Y30048D01*
X28320Y29992D01*
X28318Y29989D01*
X28315Y29986D01*
X28313Y29983D01*
X28312Y29981D01*
X28310Y29978D01*
X28308Y29974D01*
X28307Y29971D01*
X28306Y29969D01*
X28305Y29965D01*
X28304Y29961D01*
X28304Y29958D01*
X28303Y29956D01*
X28303Y29951D01*
X28303Y29947D01*
X28303Y29945D01*
X28303Y29942D01*
X28304Y29938D01*
X28305Y29934D01*
X28306Y29931D01*
X28307Y29929D01*
X28309Y29925D01*
X28310Y29921D01*
X28312Y29919D01*
X28313Y29917D01*
X28316Y29914D01*
X28318Y29910D01*
X28320Y29908D01*
X28322Y29906D01*
X28325Y29904D01*
X28328Y29901D01*
X28331Y29900D01*
X28333Y29898D01*
X28337Y29897D01*
X28340Y29895D01*
X28343Y29894D01*
X28346Y29893D01*
X28350Y29892D01*
X28354Y29891D01*
X28358Y29891D01*
X28359Y29891D01*
X28360Y29891D01*
X28362Y29891D01*
X29058Y29891D01*
X29158Y29791D01*
X29340Y29609D01*
X29343Y29607D01*
X29345Y29604D01*
X29348Y29602D01*
X29351Y29600D01*
X29354Y29599D01*
X29357Y29597D01*
X29360Y29596D01*
X29363Y29595D01*
X29367Y29594D01*
X29370Y29593D01*
X29373Y29592D01*
X29377Y29592D01*
X29380Y29592D01*
X29383Y29591D01*
X29387Y29592D01*
X29390Y29592D01*
X29394Y29593D01*
X29397Y29593D01*
X29402Y29595D01*
X29403Y29595D01*
X29404Y29596D01*
X29405Y29596D01*
X29429Y29606D01*
X29571Y29606D01*
X29702Y29552D01*
X29802Y29452D01*
X29856Y29321D01*
X29856Y29179D01*
X29802Y29048D01*
X29745Y28992D01*
X29743Y28989D01*
X29740Y28986D01*
X29739Y28983D01*
X29737Y28981D01*
X29735Y28978D01*
X29733Y28974D01*
X29732Y28971D01*
X29731Y28969D01*
X29730Y28965D01*
X29729Y28961D01*
X29729Y28958D01*
X29728Y28956D01*
X29728Y28951D01*
X29728Y28947D01*
X29729Y28945D01*
X29729Y28942D01*
X29730Y28938D01*
X29730Y28934D01*
X29731Y28931D01*
X29732Y28929D01*
X29734Y28925D01*
X29735Y28921D01*
X29737Y28919D01*
X29738Y28917D01*
X29741Y28914D01*
X29743Y28910D01*
X29745Y28908D01*
X29747Y28906D01*
X29751Y28904D01*
X29754Y28901D01*
X29756Y28900D01*
X29758Y28898D01*
X29762Y28897D01*
X29766Y28895D01*
X29768Y28894D01*
X29771Y28893D01*
X29775Y28892D01*
X29779Y28891D01*
X29783Y28891D01*
X29784Y28891D01*
X29785Y28891D01*
X29787Y28891D01*
X31917Y28891D01*
X31922Y28891D01*
X31928Y28892D01*
X31929Y28892D01*
X31931Y28892D01*
X31936Y28894D01*
X31941Y28896D01*
X31942Y28896D01*
X31944Y28897D01*
X31948Y28900D01*
X31953Y28903D01*
X31954Y28904D01*
X31955Y28904D01*
X31956Y28905D01*
X31959Y28908D01*
X32141Y29090D01*
X32143Y29093D01*
X32146Y29095D01*
X32148Y29098D01*
X32150Y29101D01*
X32151Y29104D01*
X32153Y29107D01*
X32154Y29110D01*
X32155Y29113D01*
X32156Y29117D01*
X32157Y29120D01*
X32158Y29123D01*
X32158Y29127D01*
X32158Y29130D01*
X32159Y29133D01*
X32158Y29137D01*
X32158Y29140D01*
X32157Y29144D01*
X32157Y29147D01*
X32155Y29152D01*
X32155Y29153D01*
X32154Y29154D01*
X32154Y29155D01*
X32144Y29179D01*
X32144Y29321D01*
X32198Y29452D01*
X32298Y29552D01*
X32429Y29606D01*
X32571Y29606D01*
X32702Y29552D01*
X32802Y29452D01*
X32856Y29321D01*
X32856Y29179D01*
X32802Y29048D01*
X32702Y28948D01*
X32571Y28894D01*
X32429Y28894D01*
X32405Y28904D01*
X32402Y28905D01*
X32399Y28906D01*
X32395Y28907D01*
X32392Y28908D01*
X32388Y28908D01*
X32385Y28908D01*
X32382Y28908D01*
X32378Y28908D01*
X32375Y28908D01*
X32371Y28908D01*
X32368Y28907D01*
X32365Y28906D01*
X32362Y28905D01*
X32358Y28904D01*
X32355Y28902D01*
X32352Y28900D01*
X32350Y28898D01*
X32347Y28897D01*
X32342Y28893D01*
X32341Y28892D01*
X32340Y28891D01*
X32158Y28709D01*
X32058Y28609D01*
X29787Y28609D01*
X29783Y28609D01*
X29779Y28609D01*
X29776Y28608D01*
X29774Y28608D01*
X29770Y28606D01*
X29766Y28605D01*
X29764Y28604D01*
X29761Y28603D01*
X29757Y28601D01*
X29754Y28599D01*
X29752Y28597D01*
X29749Y28596D01*
X29747Y28593D01*
X29744Y28590D01*
X29742Y28588D01*
X29740Y28586D01*
X29738Y28582D01*
X29736Y28579D01*
X29735Y28576D01*
X29733Y28574D01*
X29732Y28570D01*
X29730Y28566D01*
X29730Y28564D01*
X29729Y28561D01*
X29729Y28557D01*
X29728Y28553D01*
X29728Y28550D01*
X29728Y28547D01*
X29729Y28543D01*
X29729Y28539D01*
X29730Y28537D01*
X29730Y28534D01*
X29732Y28530D01*
X29733Y28526D01*
X29734Y28524D01*
X29735Y28521D01*
X29738Y28518D01*
X29740Y28514D01*
X29743Y28511D01*
X29743Y28510D01*
X29744Y28510D01*
X29745Y28508D01*
X29802Y28452D01*
X29812Y28427D01*
X29814Y28424D01*
X29815Y28421D01*
X29817Y28418D01*
X29819Y28415D01*
X29821Y28413D01*
X29823Y28410D01*
X29825Y28408D01*
X29828Y28405D01*
X29830Y28403D01*
X29833Y28401D01*
X29836Y28400D01*
X29839Y28398D01*
X29842Y28396D01*
X29845Y28395D01*
X29848Y28394D01*
X29852Y28393D01*
X29855Y28392D01*
X29858Y28391D01*
X29864Y28391D01*
X29865Y28391D01*
X29866Y28391D01*
X29867Y28391D01*
X32133Y28391D01*
X32137Y28391D01*
X32140Y28391D01*
X32143Y28392D01*
X32147Y28392D01*
X32150Y28393D01*
X32153Y28394D01*
X32156Y28396D01*
X32160Y28397D01*
X32163Y28399D01*
X32166Y28400D01*
X32168Y28402D01*
X32171Y28404D01*
X32173Y28407D01*
X32176Y28409D01*
X32178Y28412D01*
X32181Y28414D01*
X32182Y28417D01*
X32184Y28420D01*
X32187Y28425D01*
X32188Y28426D01*
X32188Y28427D01*
X32198Y28452D01*
X32298Y28552D01*
X32429Y28606D01*
X32571Y28606D01*
X32702Y28552D01*
X32802Y28452D01*
X32856Y28321D01*
X32856Y28179D01*
X32802Y28048D01*
X32702Y27948D01*
X32571Y27894D01*
X32429Y27894D01*
X32298Y27948D01*
X32198Y28048D01*
X32188Y28073D01*
X32186Y28076D01*
X32185Y28079D01*
X32183Y28082D01*
X32181Y28085D01*
X32179Y28087D01*
X32177Y28090D01*
X32175Y28092D01*
X32172Y28095D01*
X32170Y28097D01*
X32167Y28099D01*
X32164Y28100D01*
X32161Y28102D01*
X32158Y28104D01*
X32155Y28105D01*
X32152Y28106D01*
X32148Y28107D01*
X32145Y28108D01*
X32142Y28109D01*
X32136Y28109D01*
X32135Y28109D01*
X32134Y28109D01*
X32133Y28109D01*
X29867Y28109D01*
X29863Y28109D01*
X29860Y28109D01*
X29857Y28108D01*
X29853Y28108D01*
X29850Y28107D01*
X29847Y28106D01*
X29844Y28104D01*
X29840Y28103D01*
X29837Y28101D01*
X29834Y28100D01*
X29832Y28098D01*
X29829Y28096D01*
X29827Y28093D01*
X29824Y28091D01*
X29822Y28088D01*
X29819Y28086D01*
X29818Y28083D01*
X29816Y28080D01*
X29813Y28075D01*
X29812Y28074D01*
X29812Y28073D01*
X29802Y28048D01*
X29745Y27992D01*
X29743Y27989D01*
X29740Y27986D01*
X29739Y27983D01*
X29737Y27981D01*
X29735Y27978D01*
X29733Y27974D01*
X29732Y27971D01*
X29731Y27969D01*
X29730Y27965D01*
X29729Y27961D01*
X29729Y27958D01*
X29728Y27956D01*
X29728Y27951D01*
X29728Y27947D01*
X29729Y27945D01*
X29729Y27942D01*
X29730Y27938D01*
X29730Y27934D01*
X29731Y27931D01*
X29732Y27929D01*
X29734Y27925D01*
X29735Y27921D01*
X29737Y27919D01*
X29738Y27917D01*
X29741Y27914D01*
X29743Y27910D01*
X29745Y27908D01*
X29747Y27906D01*
X29751Y27904D01*
X29754Y27901D01*
X29756Y27900D01*
X29758Y27898D01*
X29762Y27897D01*
X29766Y27895D01*
X29768Y27894D01*
X29771Y27893D01*
X29775Y27892D01*
X29779Y27891D01*
X29783Y27891D01*
X29784Y27891D01*
X29785Y27891D01*
X29787Y27891D01*
X32058Y27891D01*
X32158Y27791D01*
X32340Y27609D01*
X32343Y27607D01*
X32345Y27604D01*
X32348Y27602D01*
X32351Y27600D01*
X32354Y27599D01*
X32357Y27597D01*
X32360Y27596D01*
X32363Y27595D01*
X32367Y27594D01*
X32370Y27593D01*
X32373Y27592D01*
X32377Y27592D01*
X32380Y27592D01*
X32383Y27591D01*
X32387Y27592D01*
X32390Y27592D01*
X32394Y27593D01*
X32397Y27593D01*
X32402Y27595D01*
X32403Y27595D01*
X32404Y27596D01*
X32405Y27596D01*
X32429Y27606D01*
X32571Y27606D01*
X32702Y27552D01*
X32802Y27452D01*
X32856Y27321D01*
X32856Y27179D01*
X32802Y27048D01*
X32702Y26948D01*
X32571Y26894D01*
X32429Y26894D01*
X32298Y26948D01*
X32198Y27048D01*
X32144Y27179D01*
X32144Y27321D01*
X32154Y27345D01*
X32155Y27348D01*
X32156Y27351D01*
X32157Y27355D01*
X32158Y27358D01*
X32158Y27362D01*
X32158Y27365D01*
X32158Y27368D01*
X32158Y27372D01*
X32158Y27375D01*
X32158Y27379D01*
X32157Y27382D01*
X32156Y27385D01*
X32155Y27388D01*
X32154Y27392D01*
X32152Y27395D01*
X32150Y27398D01*
X32148Y27400D01*
X32147Y27403D01*
X32143Y27408D01*
X32142Y27409D01*
X32141Y27410D01*
X31959Y27592D01*
X31955Y27595D01*
X31951Y27599D01*
X31950Y27599D01*
X31948Y27600D01*
X31944Y27603D01*
X31939Y27605D01*
X31937Y27606D01*
X31936Y27606D01*
X31931Y27607D01*
X31926Y27609D01*
X31924Y27609D01*
X31923Y27609D01*
X31921Y27609D01*
X31917Y27609D01*
X29787Y27609D01*
X29783Y27609D01*
X29779Y27609D01*
X29776Y27608D01*
X29774Y27608D01*
X29770Y27606D01*
X29766Y27605D01*
X29764Y27604D01*
X29761Y27603D01*
X29757Y27601D01*
X29754Y27599D01*
X29752Y27597D01*
X29749Y27596D01*
X29747Y27593D01*
X29744Y27590D01*
X29742Y27588D01*
X29740Y27586D01*
X29738Y27582D01*
X29736Y27579D01*
X29735Y27576D01*
X29733Y27574D01*
X29732Y27570D01*
X29730Y27566D01*
X29730Y27564D01*
X29729Y27561D01*
X29729Y27557D01*
X29728Y27553D01*
X29728Y27550D01*
X29728Y27547D01*
X29729Y27543D01*
X29729Y27539D01*
X29730Y27537D01*
X29730Y27534D01*
X29732Y27530D01*
X29733Y27526D01*
X29734Y27524D01*
X29735Y27521D01*
X29738Y27518D01*
X29740Y27514D01*
X29743Y27511D01*
X29743Y27510D01*
X29744Y27510D01*
X29745Y27508D01*
X29802Y27452D01*
X29856Y27321D01*
X29856Y27179D01*
X29846Y27155D01*
X29845Y27152D01*
X29844Y27149D01*
X29843Y27145D01*
X29842Y27142D01*
X29842Y27138D01*
X29842Y27135D01*
X29842Y27132D01*
X29842Y27128D01*
X29842Y27125D01*
X29842Y27121D01*
X29843Y27118D01*
X29844Y27115D01*
X29845Y27112D01*
X29846Y27108D01*
X29848Y27105D01*
X29850Y27102D01*
X29852Y27100D01*
X29853Y27097D01*
X29857Y27092D01*
X29858Y27091D01*
X29859Y27090D01*
X31291Y25658D01*
X31295Y25655D01*
X31299Y25651D01*
X31300Y25651D01*
X31302Y25650D01*
X31306Y25647D01*
X31311Y25645D01*
X31313Y25644D01*
X31314Y25644D01*
X31319Y25643D01*
X31324Y25641D01*
X31326Y25641D01*
X31327Y25641D01*
X31329Y25641D01*
X31333Y25641D01*
X36070Y25641D01*
X36075Y25641D01*
X36080Y25642D01*
X36082Y25642D01*
X36083Y25642D01*
X36088Y25644D01*
X36093Y25646D01*
X36095Y25646D01*
X36096Y25647D01*
X36101Y25650D01*
X36105Y25653D01*
X36107Y25654D01*
X36108Y25654D01*
X36108Y25655D01*
X36109Y25656D01*
X36112Y25658D01*
X36131Y25678D01*
X36208Y25710D01*
X36292Y25710D01*
X36369Y25678D01*
X36428Y25619D01*
X36460Y25542D01*
X36460Y25458D01*
X36428Y25381D01*
X36369Y25322D01*
X36292Y25290D01*
X36208Y25290D01*
G37*
%LPD*%
%LPC*%
G36*
X31363Y9038D02*
X31363Y9038D01*
X31175Y9225D01*
X31175Y9491D01*
X31363Y9679D01*
X31593Y9679D01*
X31599Y9680D01*
X31604Y9680D01*
X31605Y9680D01*
X31607Y9681D01*
X31612Y9682D01*
X31617Y9684D01*
X31618Y9685D01*
X31620Y9685D01*
X31624Y9688D01*
X31629Y9691D01*
X31630Y9692D01*
X31631Y9693D01*
X31632Y9694D01*
X31635Y9696D01*
X32342Y10403D01*
X32345Y10407D01*
X32349Y10411D01*
X32349Y10413D01*
X32350Y10414D01*
X32353Y10419D01*
X32355Y10423D01*
X32356Y10425D01*
X32356Y10426D01*
X32357Y10431D01*
X32359Y10437D01*
X32359Y10439D01*
X32359Y10440D01*
X32359Y10441D01*
X32359Y10445D01*
X32359Y10800D01*
X32359Y10801D01*
X32359Y10803D01*
X32358Y10808D01*
X32358Y10814D01*
X32357Y10815D01*
X32357Y10816D01*
X32355Y10821D01*
X32353Y10826D01*
X32352Y10827D01*
X32352Y10829D01*
X32349Y10833D01*
X32346Y10838D01*
X32345Y10839D01*
X32344Y10840D01*
X32340Y10843D01*
X32336Y10847D01*
X32335Y10848D01*
X32334Y10849D01*
X32329Y10851D01*
X32324Y10854D01*
X32323Y10855D01*
X32322Y10855D01*
X32316Y10857D01*
X32311Y10858D01*
X32310Y10858D01*
X32308Y10859D01*
X32300Y10859D01*
X31442Y10859D01*
X31359Y10942D01*
X31359Y11861D01*
X31359Y11866D01*
X31358Y11871D01*
X31358Y11873D01*
X31358Y11874D01*
X31356Y11879D01*
X31354Y11884D01*
X31354Y11886D01*
X31353Y11887D01*
X31350Y11891D01*
X31347Y11896D01*
X31346Y11898D01*
X31345Y11899D01*
X31342Y11902D01*
X25906Y17338D01*
X25902Y17342D01*
X25898Y17345D01*
X25894Y17349D01*
X25893Y17349D01*
X25892Y17350D01*
X25887Y17353D01*
X25882Y17355D01*
X25881Y17356D01*
X25879Y17356D01*
X25874Y17357D01*
X25869Y17359D01*
X25867Y17359D01*
X25866Y17359D01*
X25865Y17359D01*
X25861Y17359D01*
X23680Y17359D01*
X23675Y17359D01*
X23670Y17358D01*
X23668Y17358D01*
X23667Y17358D01*
X23662Y17356D01*
X23657Y17354D01*
X23655Y17354D01*
X23654Y17353D01*
X23649Y17350D01*
X23645Y17347D01*
X23643Y17346D01*
X23642Y17346D01*
X23641Y17345D01*
X23638Y17342D01*
X23619Y17322D01*
X23542Y17290D01*
X23458Y17290D01*
X23381Y17322D01*
X23362Y17342D01*
X23357Y17345D01*
X23353Y17349D01*
X23352Y17349D01*
X23351Y17350D01*
X23346Y17353D01*
X23341Y17355D01*
X23340Y17356D01*
X23339Y17356D01*
X23333Y17357D01*
X23328Y17359D01*
X23326Y17359D01*
X23325Y17359D01*
X23324Y17359D01*
X23320Y17359D01*
X22180Y17359D01*
X22175Y17359D01*
X22170Y17358D01*
X22168Y17358D01*
X22167Y17358D01*
X22162Y17356D01*
X22157Y17354D01*
X22155Y17354D01*
X22154Y17353D01*
X22149Y17350D01*
X22145Y17347D01*
X22143Y17346D01*
X22142Y17346D01*
X22141Y17345D01*
X22138Y17342D01*
X22119Y17322D01*
X22042Y17290D01*
X21958Y17290D01*
X21881Y17322D01*
X21862Y17342D01*
X21857Y17345D01*
X21853Y17349D01*
X21852Y17349D01*
X21851Y17350D01*
X21846Y17353D01*
X21841Y17355D01*
X21840Y17356D01*
X21839Y17356D01*
X21833Y17357D01*
X21828Y17359D01*
X21826Y17359D01*
X21825Y17359D01*
X21824Y17359D01*
X21820Y17359D01*
X20680Y17359D01*
X20675Y17359D01*
X20670Y17358D01*
X20668Y17358D01*
X20667Y17358D01*
X20662Y17356D01*
X20657Y17354D01*
X20655Y17354D01*
X20654Y17353D01*
X20649Y17350D01*
X20645Y17347D01*
X20643Y17346D01*
X20642Y17346D01*
X20641Y17345D01*
X20638Y17342D01*
X20619Y17322D01*
X20542Y17290D01*
X20458Y17290D01*
X20381Y17322D01*
X20322Y17381D01*
X20290Y17458D01*
X20290Y17542D01*
X20322Y17619D01*
X20381Y17678D01*
X20458Y17710D01*
X20542Y17710D01*
X20619Y17678D01*
X20638Y17658D01*
X20643Y17655D01*
X20647Y17651D01*
X20648Y17651D01*
X20649Y17650D01*
X20654Y17647D01*
X20659Y17645D01*
X20660Y17644D01*
X20661Y17644D01*
X20667Y17643D01*
X20672Y17641D01*
X20674Y17641D01*
X20675Y17641D01*
X20676Y17641D01*
X20680Y17641D01*
X21820Y17641D01*
X21825Y17641D01*
X21830Y17642D01*
X21832Y17642D01*
X21833Y17642D01*
X21838Y17644D01*
X21843Y17646D01*
X21845Y17646D01*
X21846Y17647D01*
X21851Y17650D01*
X21855Y17653D01*
X21857Y17654D01*
X21858Y17654D01*
X21859Y17655D01*
X21862Y17658D01*
X21881Y17678D01*
X21958Y17710D01*
X22042Y17710D01*
X22119Y17678D01*
X22138Y17658D01*
X22143Y17655D01*
X22147Y17651D01*
X22148Y17651D01*
X22149Y17650D01*
X22154Y17647D01*
X22159Y17645D01*
X22160Y17644D01*
X22161Y17644D01*
X22167Y17643D01*
X22172Y17641D01*
X22174Y17641D01*
X22175Y17641D01*
X22176Y17641D01*
X22180Y17641D01*
X23320Y17641D01*
X23325Y17641D01*
X23330Y17642D01*
X23332Y17642D01*
X23333Y17642D01*
X23338Y17644D01*
X23343Y17646D01*
X23345Y17646D01*
X23346Y17647D01*
X23351Y17650D01*
X23355Y17653D01*
X23357Y17654D01*
X23358Y17654D01*
X23359Y17655D01*
X23362Y17658D01*
X23381Y17678D01*
X23458Y17710D01*
X23542Y17710D01*
X23619Y17678D01*
X23638Y17658D01*
X23643Y17655D01*
X23647Y17651D01*
X23648Y17651D01*
X23649Y17650D01*
X23654Y17647D01*
X23659Y17645D01*
X23660Y17644D01*
X23661Y17644D01*
X23667Y17643D01*
X23672Y17641D01*
X23674Y17641D01*
X23675Y17641D01*
X23676Y17641D01*
X23680Y17641D01*
X24981Y17641D01*
X24982Y17641D01*
X24984Y17641D01*
X24989Y17642D01*
X24995Y17642D01*
X24996Y17643D01*
X24997Y17643D01*
X25002Y17645D01*
X25007Y17647D01*
X25009Y17648D01*
X25010Y17648D01*
X25014Y17651D01*
X25019Y17654D01*
X25020Y17655D01*
X25021Y17656D01*
X25025Y17660D01*
X25028Y17664D01*
X25029Y17665D01*
X25030Y17666D01*
X25032Y17671D01*
X25035Y17676D01*
X25036Y17677D01*
X25036Y17678D01*
X25038Y17684D01*
X25039Y17689D01*
X25039Y17690D01*
X25040Y17692D01*
X25040Y17700D01*
X25040Y17792D01*
X25072Y17869D01*
X25131Y17928D01*
X25208Y17960D01*
X25292Y17960D01*
X25369Y17928D01*
X25428Y17869D01*
X25460Y17792D01*
X25460Y17764D01*
X25460Y17759D01*
X25461Y17753D01*
X25461Y17752D01*
X25461Y17750D01*
X25463Y17745D01*
X25465Y17740D01*
X25465Y17739D01*
X25466Y17738D01*
X25469Y17733D01*
X25471Y17728D01*
X25473Y17727D01*
X25473Y17726D01*
X25474Y17725D01*
X25477Y17722D01*
X25541Y17658D01*
X25545Y17655D01*
X25549Y17651D01*
X25550Y17651D01*
X25552Y17650D01*
X25556Y17647D01*
X25561Y17645D01*
X25563Y17644D01*
X25564Y17644D01*
X25569Y17643D01*
X25574Y17641D01*
X25576Y17641D01*
X25577Y17641D01*
X25579Y17641D01*
X25583Y17641D01*
X25760Y17641D01*
X25761Y17641D01*
X25763Y17641D01*
X25768Y17642D01*
X25774Y17642D01*
X25775Y17643D01*
X25776Y17643D01*
X25781Y17645D01*
X25786Y17647D01*
X25787Y17648D01*
X25789Y17648D01*
X25793Y17651D01*
X25798Y17654D01*
X25799Y17655D01*
X25800Y17656D01*
X25803Y17660D01*
X25807Y17664D01*
X25808Y17665D01*
X25809Y17666D01*
X25811Y17671D01*
X25814Y17676D01*
X25815Y17677D01*
X25815Y17678D01*
X25817Y17684D01*
X25818Y17689D01*
X25818Y17690D01*
X25819Y17692D01*
X25819Y17700D01*
X25819Y21127D01*
X25819Y21128D01*
X25818Y21134D01*
X25818Y21140D01*
X25817Y21141D01*
X25815Y21149D01*
X25790Y21208D01*
X25790Y21292D01*
X25822Y21369D01*
X25881Y21428D01*
X25958Y21460D01*
X26042Y21460D01*
X26119Y21428D01*
X26178Y21369D01*
X26210Y21292D01*
X26210Y21208D01*
X26185Y21149D01*
X26185Y21148D01*
X26183Y21142D01*
X26182Y21136D01*
X26181Y21136D01*
X26181Y21135D01*
X26181Y21127D01*
X26181Y17599D01*
X26181Y17594D01*
X26182Y17589D01*
X26182Y17587D01*
X26182Y17586D01*
X26184Y17581D01*
X26186Y17576D01*
X26186Y17574D01*
X26187Y17573D01*
X26190Y17569D01*
X26193Y17564D01*
X26194Y17562D01*
X26195Y17561D01*
X26198Y17558D01*
X31598Y12158D01*
X31602Y12155D01*
X31606Y12151D01*
X31607Y12151D01*
X31608Y12150D01*
X31613Y12147D01*
X31618Y12145D01*
X31619Y12144D01*
X31621Y12144D01*
X31626Y12143D01*
X31631Y12141D01*
X31633Y12141D01*
X31634Y12141D01*
X31635Y12141D01*
X31639Y12141D01*
X32300Y12141D01*
X32301Y12141D01*
X32303Y12141D01*
X32308Y12142D01*
X32314Y12142D01*
X32315Y12143D01*
X32316Y12143D01*
X32321Y12145D01*
X32326Y12147D01*
X32327Y12148D01*
X32329Y12148D01*
X32333Y12151D01*
X32338Y12154D01*
X32339Y12155D01*
X32340Y12156D01*
X32343Y12160D01*
X32347Y12164D01*
X32348Y12165D01*
X32349Y12166D01*
X32351Y12171D01*
X32354Y12176D01*
X32355Y12177D01*
X32355Y12178D01*
X32357Y12184D01*
X32358Y12189D01*
X32358Y12190D01*
X32359Y12192D01*
X32359Y12200D01*
X32359Y14177D01*
X32359Y14182D01*
X32358Y14188D01*
X32358Y14189D01*
X32358Y14191D01*
X32356Y14196D01*
X32354Y14201D01*
X32354Y14202D01*
X32353Y14203D01*
X32350Y14208D01*
X32347Y14213D01*
X32346Y14214D01*
X32346Y14215D01*
X32345Y14216D01*
X32342Y14219D01*
X31635Y14926D01*
X31631Y14929D01*
X31627Y14933D01*
X31626Y14933D01*
X31624Y14934D01*
X31620Y14936D01*
X31615Y14939D01*
X31613Y14939D01*
X31612Y14940D01*
X31607Y14941D01*
X31602Y14942D01*
X31600Y14943D01*
X31599Y14943D01*
X31597Y14943D01*
X31593Y14943D01*
X31363Y14943D01*
X31175Y15131D01*
X31175Y15397D01*
X31363Y15585D01*
X31629Y15585D01*
X31817Y15397D01*
X31817Y15167D01*
X31817Y15161D01*
X31818Y15156D01*
X31818Y15155D01*
X31818Y15153D01*
X31820Y15148D01*
X31822Y15143D01*
X31823Y15142D01*
X31823Y15140D01*
X31826Y15136D01*
X31829Y15131D01*
X31830Y15130D01*
X31830Y15129D01*
X31831Y15128D01*
X31834Y15125D01*
X32641Y14318D01*
X32641Y12200D01*
X32641Y12199D01*
X32641Y12197D01*
X32642Y12192D01*
X32642Y12186D01*
X32643Y12185D01*
X32643Y12184D01*
X32645Y12179D01*
X32647Y12174D01*
X32648Y12173D01*
X32648Y12171D01*
X32651Y12167D01*
X32654Y12162D01*
X32655Y12161D01*
X32656Y12160D01*
X32660Y12157D01*
X32664Y12153D01*
X32665Y12152D01*
X32666Y12151D01*
X32671Y12149D01*
X32676Y12146D01*
X32677Y12145D01*
X32678Y12145D01*
X32684Y12143D01*
X32689Y12142D01*
X32690Y12142D01*
X32692Y12141D01*
X32700Y12141D01*
X33058Y12141D01*
X33141Y12058D01*
X33141Y10942D01*
X33058Y10859D01*
X32700Y10859D01*
X32699Y10859D01*
X32697Y10859D01*
X32692Y10858D01*
X32686Y10858D01*
X32685Y10857D01*
X32684Y10857D01*
X32679Y10855D01*
X32674Y10853D01*
X32673Y10852D01*
X32671Y10852D01*
X32667Y10849D01*
X32662Y10846D01*
X32661Y10845D01*
X32660Y10844D01*
X32657Y10840D01*
X32653Y10836D01*
X32652Y10835D01*
X32651Y10834D01*
X32649Y10829D01*
X32646Y10824D01*
X32645Y10823D01*
X32645Y10822D01*
X32643Y10816D01*
X32642Y10811D01*
X32642Y10810D01*
X32641Y10808D01*
X32641Y10800D01*
X32641Y10304D01*
X31834Y9497D01*
X31831Y9493D01*
X31827Y9489D01*
X31827Y9488D01*
X31826Y9487D01*
X31823Y9482D01*
X31821Y9477D01*
X31821Y9476D01*
X31820Y9474D01*
X31819Y9469D01*
X31817Y9464D01*
X31817Y9462D01*
X31817Y9461D01*
X31817Y9459D01*
X31817Y9455D01*
X31817Y9225D01*
X31629Y9038D01*
X31363Y9038D01*
G37*
%LPD*%
%LPC*%
G36*
X3273Y22355D02*
X3273Y22355D01*
X3196Y22387D01*
X3137Y22446D01*
X3105Y22523D01*
X3105Y22607D01*
X3137Y22684D01*
X3196Y22743D01*
X3273Y22775D01*
X3357Y22775D01*
X3434Y22743D01*
X3453Y22723D01*
X3458Y22720D01*
X3462Y22716D01*
X3463Y22716D01*
X3464Y22715D01*
X3469Y22712D01*
X3474Y22710D01*
X3475Y22709D01*
X3476Y22709D01*
X3482Y22708D01*
X3487Y22706D01*
X3489Y22706D01*
X3490Y22706D01*
X3491Y22706D01*
X3495Y22706D01*
X14365Y22706D01*
X14367Y22706D01*
X14369Y22706D01*
X14374Y22707D01*
X14378Y22707D01*
X14380Y22708D01*
X14382Y22708D01*
X14387Y22710D01*
X14391Y22712D01*
X14393Y22713D01*
X14395Y22714D01*
X14399Y22717D01*
X14403Y22719D01*
X14404Y22721D01*
X14406Y22722D01*
X14409Y22726D01*
X14412Y22729D01*
X14413Y22731D01*
X14414Y22733D01*
X14417Y22737D01*
X14419Y22741D01*
X14420Y22743D01*
X14420Y22745D01*
X14422Y22749D01*
X14423Y22754D01*
X14423Y22756D01*
X14424Y22758D01*
X14424Y22763D01*
X14424Y22768D01*
X14424Y22770D01*
X14424Y22772D01*
X14423Y22776D01*
X14422Y22781D01*
X14421Y22783D01*
X14421Y22785D01*
X14418Y22789D01*
X14417Y22794D01*
X14415Y22795D01*
X14415Y22797D01*
X14411Y22801D01*
X14409Y22805D01*
X14407Y22806D01*
X14406Y22808D01*
X14402Y22811D01*
X14398Y22814D01*
X14397Y22815D01*
X14395Y22816D01*
X14387Y22820D01*
X14381Y22822D01*
X14322Y22881D01*
X14290Y22958D01*
X14290Y22986D01*
X14290Y22991D01*
X14289Y22997D01*
X14289Y22998D01*
X14289Y23000D01*
X14287Y23005D01*
X14285Y23010D01*
X14285Y23011D01*
X14284Y23012D01*
X14281Y23017D01*
X14279Y23022D01*
X14277Y23023D01*
X14277Y23024D01*
X14276Y23025D01*
X14273Y23028D01*
X13709Y23592D01*
X13705Y23595D01*
X13701Y23599D01*
X13700Y23599D01*
X13698Y23600D01*
X13694Y23603D01*
X13689Y23605D01*
X13687Y23606D01*
X13686Y23606D01*
X13681Y23607D01*
X13676Y23609D01*
X13674Y23609D01*
X13673Y23609D01*
X13671Y23609D01*
X13667Y23609D01*
X3430Y23609D01*
X3425Y23609D01*
X3420Y23608D01*
X3418Y23608D01*
X3417Y23608D01*
X3412Y23606D01*
X3407Y23604D01*
X3405Y23604D01*
X3404Y23603D01*
X3399Y23600D01*
X3395Y23597D01*
X3393Y23596D01*
X3392Y23596D01*
X3391Y23595D01*
X3388Y23592D01*
X3369Y23572D01*
X3292Y23540D01*
X3208Y23540D01*
X3131Y23572D01*
X3072Y23631D01*
X3040Y23708D01*
X3040Y23792D01*
X3072Y23869D01*
X3131Y23928D01*
X3208Y23960D01*
X3292Y23960D01*
X3369Y23928D01*
X3388Y23908D01*
X3393Y23905D01*
X3397Y23901D01*
X3398Y23901D01*
X3399Y23900D01*
X3404Y23897D01*
X3409Y23895D01*
X3410Y23894D01*
X3411Y23894D01*
X3417Y23893D01*
X3422Y23891D01*
X3424Y23891D01*
X3425Y23891D01*
X3426Y23891D01*
X3430Y23891D01*
X13808Y23891D01*
X14472Y23227D01*
X14476Y23224D01*
X14480Y23220D01*
X14482Y23219D01*
X14483Y23219D01*
X14488Y23216D01*
X14492Y23214D01*
X14494Y23213D01*
X14495Y23213D01*
X14500Y23212D01*
X14506Y23210D01*
X14507Y23210D01*
X14508Y23210D01*
X14510Y23210D01*
X14514Y23210D01*
X14542Y23210D01*
X14619Y23178D01*
X14678Y23119D01*
X14710Y23042D01*
X14710Y22958D01*
X14678Y22881D01*
X14619Y22822D01*
X14613Y22820D01*
X14611Y22819D01*
X14609Y22818D01*
X14605Y22815D01*
X14601Y22813D01*
X14599Y22812D01*
X14597Y22811D01*
X14594Y22807D01*
X14591Y22804D01*
X14589Y22802D01*
X14588Y22801D01*
X14586Y22797D01*
X14583Y22793D01*
X14582Y22791D01*
X14581Y22789D01*
X14580Y22784D01*
X14578Y22780D01*
X14578Y22778D01*
X14577Y22776D01*
X14577Y22771D01*
X14576Y22766D01*
X14576Y22764D01*
X14576Y22762D01*
X14577Y22758D01*
X14577Y22753D01*
X14578Y22751D01*
X14578Y22749D01*
X14580Y22744D01*
X14582Y22740D01*
X14583Y22738D01*
X14583Y22736D01*
X14586Y22732D01*
X14589Y22728D01*
X14590Y22727D01*
X14591Y22725D01*
X14595Y22722D01*
X14598Y22719D01*
X14600Y22718D01*
X14602Y22716D01*
X14606Y22714D01*
X14610Y22711D01*
X14612Y22711D01*
X14614Y22710D01*
X14618Y22709D01*
X14623Y22707D01*
X14625Y22707D01*
X14627Y22706D01*
X14635Y22706D01*
X18731Y22706D01*
X18732Y22706D01*
X18734Y22706D01*
X18739Y22707D01*
X18745Y22707D01*
X18746Y22708D01*
X18747Y22708D01*
X18752Y22710D01*
X18757Y22712D01*
X18759Y22713D01*
X18760Y22713D01*
X18764Y22716D01*
X18769Y22719D01*
X18770Y22720D01*
X18771Y22721D01*
X18775Y22725D01*
X18778Y22729D01*
X18779Y22730D01*
X18780Y22731D01*
X18782Y22736D01*
X18785Y22741D01*
X18786Y22742D01*
X18786Y22743D01*
X18788Y22749D01*
X18789Y22754D01*
X18789Y22755D01*
X18790Y22757D01*
X18790Y22765D01*
X18790Y22792D01*
X18822Y22869D01*
X18881Y22928D01*
X18958Y22960D01*
X19042Y22960D01*
X19119Y22928D01*
X19178Y22869D01*
X19210Y22792D01*
X19210Y22708D01*
X19178Y22631D01*
X19119Y22572D01*
X19042Y22540D01*
X19014Y22540D01*
X19009Y22540D01*
X19003Y22539D01*
X19002Y22539D01*
X19000Y22539D01*
X18995Y22537D01*
X18990Y22535D01*
X18989Y22535D01*
X18988Y22534D01*
X18983Y22531D01*
X18978Y22529D01*
X18977Y22527D01*
X18976Y22527D01*
X18975Y22526D01*
X18972Y22523D01*
X18873Y22424D01*
X3495Y22424D01*
X3490Y22424D01*
X3485Y22423D01*
X3483Y22423D01*
X3482Y22423D01*
X3477Y22421D01*
X3472Y22419D01*
X3470Y22419D01*
X3469Y22418D01*
X3464Y22415D01*
X3460Y22412D01*
X3458Y22411D01*
X3457Y22411D01*
X3456Y22410D01*
X3453Y22407D01*
X3434Y22387D01*
X3357Y22355D01*
X3273Y22355D01*
G37*
%LPD*%
%LPC*%
G36*
X35208Y24790D02*
X35208Y24790D01*
X35131Y24822D01*
X35112Y24842D01*
X35107Y24845D01*
X35103Y24849D01*
X35102Y24849D01*
X35101Y24850D01*
X35096Y24853D01*
X35091Y24855D01*
X35090Y24856D01*
X35089Y24856D01*
X35083Y24857D01*
X35078Y24859D01*
X35076Y24859D01*
X35075Y24859D01*
X35074Y24859D01*
X35070Y24859D01*
X21942Y24859D01*
X20910Y25891D01*
X20907Y25893D01*
X20905Y25896D01*
X20902Y25898D01*
X20899Y25900D01*
X20896Y25901D01*
X20893Y25903D01*
X20890Y25904D01*
X20887Y25905D01*
X20883Y25906D01*
X20880Y25907D01*
X20877Y25908D01*
X20873Y25908D01*
X20870Y25908D01*
X20867Y25909D01*
X20863Y25908D01*
X20860Y25908D01*
X20856Y25907D01*
X20853Y25907D01*
X20848Y25905D01*
X20847Y25905D01*
X20846Y25904D01*
X20845Y25904D01*
X20821Y25894D01*
X20679Y25894D01*
X20548Y25948D01*
X20448Y26048D01*
X20394Y26179D01*
X20394Y26321D01*
X20448Y26452D01*
X20548Y26552D01*
X20679Y26606D01*
X20821Y26606D01*
X20952Y26552D01*
X21052Y26452D01*
X21106Y26321D01*
X21106Y26179D01*
X21096Y26155D01*
X21095Y26152D01*
X21094Y26149D01*
X21093Y26145D01*
X21092Y26142D01*
X21092Y26138D01*
X21092Y26135D01*
X21092Y26132D01*
X21092Y26128D01*
X21092Y26125D01*
X21092Y26121D01*
X21093Y26118D01*
X21094Y26115D01*
X21095Y26112D01*
X21096Y26108D01*
X21098Y26105D01*
X21100Y26102D01*
X21102Y26100D01*
X21103Y26097D01*
X21107Y26092D01*
X21108Y26091D01*
X21109Y26090D01*
X22041Y25158D01*
X22045Y25155D01*
X22049Y25151D01*
X22050Y25151D01*
X22052Y25150D01*
X22056Y25147D01*
X22061Y25145D01*
X22063Y25144D01*
X22064Y25144D01*
X22069Y25143D01*
X22074Y25141D01*
X22076Y25141D01*
X22077Y25141D01*
X22079Y25141D01*
X22083Y25141D01*
X25842Y25141D01*
X25846Y25141D01*
X25850Y25141D01*
X25853Y25142D01*
X25856Y25142D01*
X25859Y25144D01*
X25863Y25145D01*
X25866Y25146D01*
X25868Y25147D01*
X25872Y25149D01*
X25875Y25151D01*
X25877Y25153D01*
X25880Y25154D01*
X25883Y25157D01*
X25886Y25160D01*
X25887Y25162D01*
X25889Y25164D01*
X25891Y25168D01*
X25894Y25171D01*
X25895Y25174D01*
X25896Y25176D01*
X25897Y25180D01*
X25899Y25184D01*
X25899Y25186D01*
X25900Y25189D01*
X25900Y25193D01*
X25901Y25197D01*
X25901Y25200D01*
X25901Y25203D01*
X25901Y25207D01*
X25900Y25211D01*
X25899Y25213D01*
X25899Y25216D01*
X25897Y25220D01*
X25896Y25224D01*
X25895Y25226D01*
X25894Y25229D01*
X25891Y25232D01*
X25889Y25236D01*
X25887Y25239D01*
X25886Y25240D01*
X25885Y25240D01*
X25884Y25242D01*
X25235Y25891D01*
X25232Y25893D01*
X25230Y25896D01*
X25227Y25898D01*
X25224Y25900D01*
X25221Y25901D01*
X25218Y25903D01*
X25215Y25904D01*
X25212Y25905D01*
X25208Y25906D01*
X25205Y25907D01*
X25202Y25908D01*
X25198Y25908D01*
X25195Y25908D01*
X25191Y25909D01*
X25188Y25908D01*
X25185Y25908D01*
X25181Y25907D01*
X25178Y25907D01*
X25173Y25905D01*
X25171Y25905D01*
X25171Y25904D01*
X25170Y25904D01*
X25146Y25894D01*
X25004Y25894D01*
X24873Y25948D01*
X24773Y26048D01*
X24719Y26179D01*
X24719Y26321D01*
X24773Y26452D01*
X24873Y26552D01*
X25004Y26606D01*
X25146Y26606D01*
X25276Y26552D01*
X25377Y26452D01*
X25431Y26321D01*
X25431Y26179D01*
X25421Y26155D01*
X25420Y26152D01*
X25419Y26149D01*
X25418Y26145D01*
X25417Y26142D01*
X25417Y26138D01*
X25416Y26135D01*
X25417Y26132D01*
X25416Y26128D01*
X25417Y26125D01*
X25417Y26121D01*
X25418Y26118D01*
X25419Y26115D01*
X25420Y26112D01*
X25421Y26108D01*
X25423Y26105D01*
X25424Y26102D01*
X25426Y26100D01*
X25428Y26097D01*
X25432Y26092D01*
X25433Y26091D01*
X25434Y26090D01*
X26366Y25158D01*
X26370Y25155D01*
X26374Y25151D01*
X26375Y25151D01*
X26376Y25150D01*
X26381Y25147D01*
X26386Y25145D01*
X26387Y25144D01*
X26389Y25144D01*
X26394Y25143D01*
X26399Y25141D01*
X26401Y25141D01*
X26402Y25141D01*
X26404Y25141D01*
X26408Y25141D01*
X30267Y25141D01*
X30271Y25141D01*
X30275Y25141D01*
X30278Y25142D01*
X30281Y25142D01*
X30285Y25144D01*
X30288Y25145D01*
X30291Y25146D01*
X30294Y25147D01*
X30297Y25149D01*
X30301Y25151D01*
X30303Y25153D01*
X30305Y25154D01*
X30308Y25157D01*
X30311Y25160D01*
X30312Y25162D01*
X30314Y25164D01*
X30316Y25168D01*
X30319Y25171D01*
X30320Y25174D01*
X30321Y25176D01*
X30323Y25180D01*
X30324Y25184D01*
X30325Y25186D01*
X30325Y25189D01*
X30326Y25193D01*
X30326Y25197D01*
X30326Y25200D01*
X30326Y25203D01*
X30326Y25207D01*
X30325Y25211D01*
X30325Y25213D01*
X30324Y25216D01*
X30323Y25220D01*
X30321Y25224D01*
X30320Y25226D01*
X30319Y25229D01*
X30317Y25232D01*
X30315Y25236D01*
X30312Y25239D01*
X30311Y25240D01*
X30310Y25240D01*
X30309Y25242D01*
X29660Y25891D01*
X29657Y25893D01*
X29655Y25896D01*
X29652Y25898D01*
X29649Y25900D01*
X29646Y25901D01*
X29643Y25903D01*
X29640Y25904D01*
X29637Y25905D01*
X29633Y25906D01*
X29630Y25907D01*
X29627Y25908D01*
X29623Y25908D01*
X29620Y25908D01*
X29617Y25909D01*
X29613Y25908D01*
X29610Y25908D01*
X29606Y25907D01*
X29603Y25907D01*
X29598Y25905D01*
X29597Y25905D01*
X29596Y25904D01*
X29595Y25904D01*
X29571Y25894D01*
X29429Y25894D01*
X29298Y25948D01*
X29198Y26048D01*
X29144Y26179D01*
X29144Y26321D01*
X29198Y26452D01*
X29298Y26552D01*
X29429Y26606D01*
X29571Y26606D01*
X29702Y26552D01*
X29802Y26452D01*
X29856Y26321D01*
X29856Y26179D01*
X29846Y26155D01*
X29845Y26152D01*
X29844Y26149D01*
X29843Y26145D01*
X29842Y26142D01*
X29842Y26138D01*
X29842Y26135D01*
X29842Y26132D01*
X29842Y26128D01*
X29842Y26125D01*
X29842Y26121D01*
X29843Y26118D01*
X29844Y26115D01*
X29845Y26112D01*
X29846Y26108D01*
X29848Y26105D01*
X29850Y26102D01*
X29852Y26100D01*
X29853Y26097D01*
X29857Y26092D01*
X29858Y26091D01*
X29859Y26090D01*
X30791Y25158D01*
X30795Y25155D01*
X30799Y25151D01*
X30800Y25151D01*
X30802Y25150D01*
X30806Y25147D01*
X30811Y25145D01*
X30813Y25144D01*
X30814Y25144D01*
X30819Y25143D01*
X30824Y25141D01*
X30826Y25141D01*
X30827Y25141D01*
X30829Y25141D01*
X30833Y25141D01*
X35070Y25141D01*
X35075Y25141D01*
X35080Y25142D01*
X35082Y25142D01*
X35083Y25142D01*
X35088Y25144D01*
X35093Y25146D01*
X35095Y25146D01*
X35096Y25147D01*
X35101Y25150D01*
X35105Y25153D01*
X35107Y25154D01*
X35108Y25154D01*
X35109Y25155D01*
X35112Y25158D01*
X35131Y25178D01*
X35208Y25210D01*
X35292Y25210D01*
X35369Y25178D01*
X35428Y25119D01*
X35460Y25042D01*
X35460Y24958D01*
X35428Y24881D01*
X35369Y24822D01*
X35292Y24790D01*
X35208Y24790D01*
G37*
%LPD*%
%LPC*%
G36*
X50841Y28789D02*
X50841Y28789D01*
X50533Y28872D01*
X50257Y29031D01*
X50031Y29257D01*
X49872Y29533D01*
X49789Y29841D01*
X49789Y30159D01*
X49872Y30467D01*
X50031Y30743D01*
X50257Y30969D01*
X50533Y31128D01*
X50841Y31211D01*
X51159Y31211D01*
X51467Y31128D01*
X51743Y30969D01*
X51969Y30743D01*
X52128Y30467D01*
X52211Y30159D01*
X52211Y29841D01*
X52128Y29533D01*
X51969Y29257D01*
X51743Y29031D01*
X51467Y28872D01*
X51159Y28789D01*
X50841Y28789D01*
G37*
%LPD*%
%LPC*%
G36*
X1841Y28789D02*
X1841Y28789D01*
X1533Y28872D01*
X1257Y29031D01*
X1031Y29257D01*
X872Y29533D01*
X789Y29841D01*
X789Y30159D01*
X872Y30467D01*
X1031Y30743D01*
X1257Y30969D01*
X1533Y31128D01*
X1841Y31211D01*
X2159Y31211D01*
X2467Y31128D01*
X2743Y30969D01*
X2969Y30743D01*
X3128Y30467D01*
X3211Y30159D01*
X3211Y29841D01*
X3128Y29533D01*
X2969Y29257D01*
X2743Y29031D01*
X2467Y28872D01*
X2159Y28789D01*
X1841Y28789D01*
G37*
%LPD*%
%LPC*%
G36*
X1841Y789D02*
X1841Y789D01*
X1533Y872D01*
X1257Y1031D01*
X1031Y1257D01*
X872Y1533D01*
X789Y1841D01*
X789Y2159D01*
X872Y2467D01*
X1031Y2743D01*
X1257Y2969D01*
X1533Y3128D01*
X1841Y3211D01*
X2159Y3211D01*
X2467Y3128D01*
X2743Y2969D01*
X2969Y2743D01*
X3128Y2467D01*
X3211Y2159D01*
X3211Y1841D01*
X3128Y1533D01*
X2969Y1257D01*
X2743Y1031D01*
X2467Y872D01*
X2159Y789D01*
X1841Y789D01*
G37*
%LPD*%
%LPC*%
G36*
X50841Y789D02*
X50841Y789D01*
X50533Y872D01*
X50257Y1031D01*
X50031Y1257D01*
X49872Y1533D01*
X49789Y1841D01*
X49789Y2159D01*
X49872Y2467D01*
X50031Y2743D01*
X50257Y2969D01*
X50533Y3128D01*
X50841Y3211D01*
X51159Y3211D01*
X51467Y3128D01*
X51743Y2969D01*
X51969Y2743D01*
X52128Y2467D01*
X52211Y2159D01*
X52211Y1841D01*
X52128Y1533D01*
X51969Y1257D01*
X51743Y1031D01*
X51467Y872D01*
X51159Y789D01*
X50841Y789D01*
G37*
%LPD*%
%LPC*%
G36*
X15615Y9038D02*
X15615Y9038D01*
X15427Y9225D01*
X15427Y9491D01*
X15615Y9679D01*
X15845Y9679D01*
X15851Y9680D01*
X15856Y9680D01*
X15857Y9680D01*
X15859Y9681D01*
X15864Y9682D01*
X15869Y9684D01*
X15870Y9685D01*
X15872Y9685D01*
X15876Y9688D01*
X15881Y9691D01*
X15882Y9692D01*
X15883Y9693D01*
X15884Y9694D01*
X15887Y9696D01*
X16342Y10151D01*
X16345Y10155D01*
X16349Y10159D01*
X16349Y10161D01*
X16350Y10162D01*
X16353Y10167D01*
X16355Y10171D01*
X16356Y10173D01*
X16356Y10174D01*
X16357Y10179D01*
X16359Y10185D01*
X16359Y10187D01*
X16359Y10188D01*
X16359Y10189D01*
X16359Y10193D01*
X16359Y10800D01*
X16359Y10801D01*
X16359Y10803D01*
X16358Y10808D01*
X16358Y10814D01*
X16357Y10815D01*
X16357Y10816D01*
X16355Y10821D01*
X16353Y10826D01*
X16352Y10827D01*
X16352Y10829D01*
X16349Y10833D01*
X16346Y10838D01*
X16345Y10839D01*
X16344Y10840D01*
X16340Y10843D01*
X16336Y10847D01*
X16335Y10848D01*
X16334Y10849D01*
X16329Y10851D01*
X16324Y10854D01*
X16323Y10855D01*
X16322Y10855D01*
X16316Y10857D01*
X16311Y10858D01*
X16310Y10858D01*
X16308Y10859D01*
X16300Y10859D01*
X15692Y10859D01*
X15609Y10942D01*
X15609Y12058D01*
X15692Y12141D01*
X16300Y12141D01*
X16301Y12141D01*
X16303Y12141D01*
X16308Y12142D01*
X16314Y12142D01*
X16315Y12143D01*
X16316Y12143D01*
X16321Y12145D01*
X16326Y12147D01*
X16327Y12148D01*
X16329Y12148D01*
X16333Y12151D01*
X16338Y12154D01*
X16339Y12155D01*
X16340Y12156D01*
X16343Y12160D01*
X16347Y12164D01*
X16348Y12165D01*
X16349Y12166D01*
X16351Y12171D01*
X16354Y12176D01*
X16355Y12177D01*
X16355Y12178D01*
X16357Y12184D01*
X16358Y12189D01*
X16358Y12190D01*
X16359Y12192D01*
X16359Y12200D01*
X16359Y14429D01*
X16359Y14434D01*
X16358Y14440D01*
X16358Y14441D01*
X16358Y14443D01*
X16356Y14448D01*
X16354Y14453D01*
X16354Y14454D01*
X16353Y14455D01*
X16350Y14460D01*
X16347Y14464D01*
X16346Y14466D01*
X16346Y14467D01*
X16345Y14468D01*
X16342Y14471D01*
X15887Y14926D01*
X15883Y14929D01*
X15879Y14933D01*
X15878Y14933D01*
X15876Y14934D01*
X15872Y14936D01*
X15867Y14939D01*
X15865Y14939D01*
X15864Y14940D01*
X15859Y14941D01*
X15854Y14942D01*
X15852Y14943D01*
X15851Y14943D01*
X15849Y14943D01*
X15845Y14943D01*
X15615Y14943D01*
X15427Y15131D01*
X15427Y15397D01*
X15615Y15585D01*
X15881Y15585D01*
X16069Y15397D01*
X16069Y15167D01*
X16069Y15161D01*
X16070Y15156D01*
X16070Y15155D01*
X16070Y15153D01*
X16072Y15148D01*
X16074Y15143D01*
X16074Y15142D01*
X16075Y15140D01*
X16078Y15136D01*
X16081Y15131D01*
X16082Y15130D01*
X16082Y15129D01*
X16083Y15128D01*
X16086Y15125D01*
X16641Y14570D01*
X16641Y12200D01*
X16641Y12199D01*
X16641Y12197D01*
X16642Y12192D01*
X16642Y12186D01*
X16643Y12185D01*
X16643Y12184D01*
X16645Y12179D01*
X16647Y12174D01*
X16648Y12173D01*
X16648Y12171D01*
X16651Y12167D01*
X16654Y12162D01*
X16655Y12161D01*
X16656Y12160D01*
X16660Y12157D01*
X16664Y12153D01*
X16665Y12152D01*
X16666Y12151D01*
X16671Y12149D01*
X16676Y12146D01*
X16677Y12145D01*
X16678Y12145D01*
X16684Y12143D01*
X16689Y12142D01*
X16690Y12142D01*
X16692Y12141D01*
X16700Y12141D01*
X17308Y12141D01*
X17391Y12058D01*
X17391Y10942D01*
X17308Y10859D01*
X16700Y10859D01*
X16699Y10859D01*
X16697Y10859D01*
X16692Y10858D01*
X16686Y10858D01*
X16685Y10857D01*
X16684Y10857D01*
X16679Y10855D01*
X16674Y10853D01*
X16673Y10852D01*
X16671Y10852D01*
X16667Y10849D01*
X16662Y10846D01*
X16661Y10845D01*
X16660Y10844D01*
X16657Y10840D01*
X16653Y10836D01*
X16652Y10835D01*
X16651Y10834D01*
X16649Y10829D01*
X16646Y10824D01*
X16645Y10823D01*
X16645Y10822D01*
X16643Y10816D01*
X16642Y10811D01*
X16642Y10810D01*
X16641Y10808D01*
X16641Y10800D01*
X16641Y10052D01*
X16086Y9497D01*
X16083Y9493D01*
X16079Y9489D01*
X16079Y9488D01*
X16078Y9487D01*
X16075Y9482D01*
X16073Y9477D01*
X16072Y9476D01*
X16072Y9474D01*
X16071Y9469D01*
X16069Y9464D01*
X16069Y9462D01*
X16069Y9461D01*
X16069Y9459D01*
X16069Y9455D01*
X16069Y9225D01*
X15881Y9038D01*
X15615Y9038D01*
G37*
%LPD*%
%LPC*%
G36*
X7458Y5040D02*
X7458Y5040D01*
X7381Y5072D01*
X7322Y5131D01*
X7290Y5208D01*
X7290Y5292D01*
X7322Y5369D01*
X7381Y5428D01*
X7458Y5460D01*
X7486Y5460D01*
X7491Y5460D01*
X7497Y5461D01*
X7498Y5461D01*
X7500Y5461D01*
X7505Y5463D01*
X7510Y5465D01*
X7511Y5465D01*
X7512Y5466D01*
X7517Y5469D01*
X7522Y5471D01*
X7523Y5473D01*
X7524Y5473D01*
X7525Y5474D01*
X7528Y5477D01*
X8592Y6541D01*
X8595Y6545D01*
X8599Y6549D01*
X8599Y6550D01*
X8600Y6552D01*
X8603Y6556D01*
X8605Y6561D01*
X8606Y6563D01*
X8606Y6564D01*
X8607Y6569D01*
X8609Y6574D01*
X8609Y6576D01*
X8609Y6577D01*
X8609Y6579D01*
X8609Y6583D01*
X8609Y17320D01*
X8609Y17325D01*
X8608Y17330D01*
X8608Y17332D01*
X8608Y17333D01*
X8606Y17338D01*
X8604Y17343D01*
X8604Y17345D01*
X8603Y17346D01*
X8600Y17351D01*
X8597Y17355D01*
X8596Y17357D01*
X8596Y17358D01*
X8595Y17359D01*
X8592Y17362D01*
X8572Y17381D01*
X8540Y17458D01*
X8540Y17542D01*
X8572Y17619D01*
X8631Y17678D01*
X8708Y17710D01*
X8792Y17710D01*
X8869Y17678D01*
X8928Y17619D01*
X8960Y17542D01*
X8960Y17458D01*
X8928Y17381D01*
X8908Y17362D01*
X8905Y17357D01*
X8901Y17353D01*
X8901Y17352D01*
X8900Y17351D01*
X8897Y17346D01*
X8895Y17341D01*
X8894Y17340D01*
X8894Y17339D01*
X8893Y17333D01*
X8891Y17328D01*
X8891Y17326D01*
X8891Y17325D01*
X8891Y17324D01*
X8891Y17320D01*
X8891Y6442D01*
X7727Y5278D01*
X7724Y5274D01*
X7720Y5270D01*
X7719Y5268D01*
X7719Y5267D01*
X7716Y5262D01*
X7714Y5258D01*
X7713Y5256D01*
X7713Y5255D01*
X7712Y5250D01*
X7710Y5244D01*
X7710Y5243D01*
X7710Y5242D01*
X7710Y5240D01*
X7710Y5236D01*
X7710Y5208D01*
X7678Y5131D01*
X7619Y5072D01*
X7542Y5040D01*
X7458Y5040D01*
G37*
%LPD*%
%LPC*%
G36*
X7458Y6040D02*
X7458Y6040D01*
X7381Y6072D01*
X7322Y6131D01*
X7290Y6208D01*
X7290Y6292D01*
X7322Y6369D01*
X7381Y6428D01*
X7458Y6460D01*
X7486Y6460D01*
X7491Y6460D01*
X7497Y6461D01*
X7498Y6461D01*
X7500Y6461D01*
X7505Y6463D01*
X7510Y6465D01*
X7511Y6465D01*
X7512Y6466D01*
X7517Y6469D01*
X7522Y6471D01*
X7523Y6473D01*
X7524Y6473D01*
X7525Y6474D01*
X7528Y6477D01*
X8092Y7041D01*
X8095Y7045D01*
X8099Y7049D01*
X8099Y7050D01*
X8100Y7052D01*
X8103Y7056D01*
X8105Y7061D01*
X8106Y7063D01*
X8106Y7064D01*
X8107Y7069D01*
X8109Y7074D01*
X8109Y7076D01*
X8109Y7077D01*
X8109Y7079D01*
X8109Y7083D01*
X8109Y18320D01*
X8109Y18325D01*
X8108Y18330D01*
X8108Y18332D01*
X8108Y18333D01*
X8106Y18338D01*
X8104Y18343D01*
X8104Y18345D01*
X8103Y18346D01*
X8100Y18351D01*
X8097Y18355D01*
X8096Y18357D01*
X8096Y18358D01*
X8095Y18359D01*
X8092Y18362D01*
X8072Y18381D01*
X8040Y18458D01*
X8040Y18542D01*
X8072Y18619D01*
X8131Y18678D01*
X8208Y18710D01*
X8292Y18710D01*
X8369Y18678D01*
X8428Y18619D01*
X8460Y18542D01*
X8460Y18458D01*
X8428Y18381D01*
X8408Y18362D01*
X8405Y18357D01*
X8401Y18353D01*
X8401Y18352D01*
X8400Y18351D01*
X8397Y18346D01*
X8395Y18341D01*
X8394Y18340D01*
X8394Y18339D01*
X8393Y18333D01*
X8391Y18328D01*
X8391Y18326D01*
X8391Y18325D01*
X8391Y18324D01*
X8391Y18320D01*
X8391Y6942D01*
X7727Y6278D01*
X7724Y6274D01*
X7720Y6270D01*
X7719Y6268D01*
X7719Y6267D01*
X7716Y6262D01*
X7714Y6258D01*
X7713Y6256D01*
X7713Y6255D01*
X7712Y6250D01*
X7710Y6244D01*
X7710Y6243D01*
X7710Y6242D01*
X7710Y6240D01*
X7710Y6236D01*
X7710Y6208D01*
X7678Y6131D01*
X7619Y6072D01*
X7542Y6040D01*
X7458Y6040D01*
G37*
%LPD*%
%LPC*%
G36*
X7458Y7040D02*
X7458Y7040D01*
X7381Y7072D01*
X7322Y7131D01*
X7290Y7208D01*
X7290Y7292D01*
X7322Y7369D01*
X7381Y7428D01*
X7458Y7460D01*
X7486Y7460D01*
X7491Y7460D01*
X7497Y7461D01*
X7498Y7461D01*
X7500Y7461D01*
X7505Y7463D01*
X7510Y7465D01*
X7511Y7465D01*
X7512Y7466D01*
X7517Y7469D01*
X7522Y7471D01*
X7523Y7473D01*
X7524Y7473D01*
X7525Y7474D01*
X7528Y7477D01*
X7592Y7541D01*
X7595Y7545D01*
X7599Y7549D01*
X7599Y7550D01*
X7600Y7552D01*
X7603Y7556D01*
X7605Y7561D01*
X7606Y7563D01*
X7606Y7564D01*
X7607Y7569D01*
X7609Y7574D01*
X7609Y7576D01*
X7609Y7577D01*
X7609Y7579D01*
X7609Y7583D01*
X7609Y19320D01*
X7609Y19325D01*
X7608Y19330D01*
X7608Y19332D01*
X7608Y19333D01*
X7606Y19338D01*
X7604Y19343D01*
X7604Y19345D01*
X7603Y19346D01*
X7600Y19351D01*
X7597Y19355D01*
X7596Y19357D01*
X7596Y19358D01*
X7595Y19359D01*
X7592Y19362D01*
X7572Y19381D01*
X7540Y19458D01*
X7540Y19542D01*
X7572Y19619D01*
X7631Y19678D01*
X7708Y19710D01*
X7792Y19710D01*
X7869Y19678D01*
X7928Y19619D01*
X7960Y19542D01*
X7960Y19458D01*
X7928Y19381D01*
X7908Y19362D01*
X7905Y19357D01*
X7901Y19353D01*
X7901Y19352D01*
X7900Y19351D01*
X7897Y19346D01*
X7895Y19341D01*
X7894Y19340D01*
X7894Y19339D01*
X7893Y19333D01*
X7891Y19328D01*
X7891Y19326D01*
X7891Y19325D01*
X7891Y19324D01*
X7891Y19320D01*
X7891Y7442D01*
X7727Y7278D01*
X7724Y7274D01*
X7720Y7270D01*
X7719Y7268D01*
X7719Y7267D01*
X7716Y7262D01*
X7714Y7258D01*
X7713Y7256D01*
X7713Y7255D01*
X7712Y7250D01*
X7710Y7244D01*
X7710Y7243D01*
X7710Y7242D01*
X7710Y7240D01*
X7710Y7236D01*
X7710Y7208D01*
X7678Y7131D01*
X7619Y7072D01*
X7542Y7040D01*
X7458Y7040D01*
G37*
%LPD*%
G36*
X24792Y29891D02*
X24792Y29891D01*
X24796Y29891D01*
X24798Y29892D01*
X24801Y29892D01*
X24805Y29894D01*
X24809Y29895D01*
X24811Y29896D01*
X24814Y29897D01*
X24817Y29899D01*
X24821Y29901D01*
X24823Y29903D01*
X24825Y29904D01*
X24828Y29907D01*
X24831Y29910D01*
X24833Y29912D01*
X24835Y29914D01*
X24837Y29918D01*
X24839Y29921D01*
X24840Y29924D01*
X24842Y29926D01*
X24843Y29930D01*
X24844Y29934D01*
X24845Y29936D01*
X24846Y29939D01*
X24846Y29943D01*
X24847Y29947D01*
X24847Y29950D01*
X24847Y29953D01*
X24846Y29957D01*
X24846Y29961D01*
X24845Y29963D01*
X24845Y29966D01*
X24843Y29970D01*
X24842Y29974D01*
X24840Y29976D01*
X24839Y29979D01*
X24837Y29982D01*
X24835Y29986D01*
X24832Y29989D01*
X24831Y29990D01*
X24829Y29992D01*
X24773Y30048D01*
X24719Y30179D01*
X24719Y30321D01*
X24773Y30452D01*
X24873Y30552D01*
X25004Y30606D01*
X25146Y30606D01*
X25276Y30552D01*
X25377Y30452D01*
X25431Y30321D01*
X25431Y30179D01*
X25377Y30048D01*
X25320Y29992D01*
X25318Y29989D01*
X25315Y29986D01*
X25313Y29983D01*
X25312Y29981D01*
X25310Y29978D01*
X25308Y29974D01*
X25307Y29971D01*
X25306Y29969D01*
X25305Y29965D01*
X25304Y29961D01*
X25304Y29958D01*
X25303Y29956D01*
X25303Y29951D01*
X25303Y29947D01*
X25303Y29945D01*
X25303Y29942D01*
X25304Y29938D01*
X25305Y29934D01*
X25306Y29931D01*
X25307Y29929D01*
X25309Y29925D01*
X25310Y29921D01*
X25312Y29919D01*
X25313Y29917D01*
X25316Y29914D01*
X25318Y29910D01*
X25320Y29908D01*
X25322Y29906D01*
X25325Y29904D01*
X25328Y29901D01*
X25331Y29900D01*
X25333Y29898D01*
X25337Y29897D01*
X25340Y29895D01*
X25343Y29894D01*
X25346Y29893D01*
X25350Y29892D01*
X25354Y29891D01*
X25358Y29891D01*
X25359Y29891D01*
X25360Y29891D01*
X25362Y29891D01*
X27788Y29891D01*
X27792Y29891D01*
X27796Y29891D01*
X27798Y29892D01*
X27801Y29892D01*
X27805Y29894D01*
X27809Y29895D01*
X27811Y29896D01*
X27814Y29897D01*
X27817Y29899D01*
X27821Y29901D01*
X27823Y29903D01*
X27825Y29904D01*
X27828Y29907D01*
X27831Y29910D01*
X27833Y29912D01*
X27835Y29914D01*
X27837Y29918D01*
X27839Y29921D01*
X27840Y29924D01*
X27842Y29926D01*
X27843Y29930D01*
X27844Y29934D01*
X27845Y29936D01*
X27846Y29939D01*
X27846Y29943D01*
X27847Y29947D01*
X27847Y29950D01*
X27847Y29953D01*
X27846Y29957D01*
X27846Y29961D01*
X27845Y29963D01*
X27845Y29966D01*
X27843Y29970D01*
X27842Y29974D01*
X27840Y29976D01*
X27839Y29979D01*
X27837Y29982D01*
X27835Y29986D01*
X27832Y29989D01*
X27831Y29990D01*
X27829Y29992D01*
X27773Y30048D01*
X27719Y30179D01*
X27719Y30321D01*
X27773Y30452D01*
X27873Y30552D01*
X28004Y30606D01*
X28146Y30606D01*
X28170Y30596D01*
X28173Y30595D01*
X28176Y30594D01*
X28180Y30593D01*
X28183Y30592D01*
X28186Y30592D01*
X28190Y30592D01*
X28193Y30592D01*
X28197Y30592D01*
X28200Y30592D01*
X28203Y30592D01*
X28207Y30593D01*
X28210Y30594D01*
X28213Y30595D01*
X28216Y30596D01*
X28219Y30598D01*
X28223Y30600D01*
X28225Y30602D01*
X28228Y30603D01*
X28232Y30607D01*
X28233Y30608D01*
X28234Y30608D01*
X28235Y30609D01*
X28384Y30758D01*
X28386Y30761D01*
X28389Y30764D01*
X28391Y30767D01*
X28392Y30769D01*
X28394Y30772D01*
X28396Y30776D01*
X28397Y30779D01*
X28398Y30781D01*
X28399Y30785D01*
X28400Y30789D01*
X28400Y30792D01*
X28401Y30794D01*
X28401Y30799D01*
X28401Y30803D01*
X28401Y30805D01*
X28401Y30808D01*
X28400Y30812D01*
X28399Y30816D01*
X28398Y30819D01*
X28397Y30821D01*
X28395Y30825D01*
X28394Y30829D01*
X28392Y30831D01*
X28391Y30833D01*
X28388Y30836D01*
X28386Y30840D01*
X28384Y30842D01*
X28382Y30844D01*
X28379Y30846D01*
X28376Y30849D01*
X28373Y30850D01*
X28371Y30852D01*
X28367Y30853D01*
X28364Y30855D01*
X28361Y30856D01*
X28358Y30857D01*
X28354Y30858D01*
X28350Y30859D01*
X28346Y30859D01*
X28345Y30859D01*
X28344Y30859D01*
X28342Y30859D01*
X24583Y30859D01*
X24578Y30859D01*
X24572Y30858D01*
X24571Y30858D01*
X24569Y30858D01*
X24564Y30856D01*
X24559Y30854D01*
X24558Y30854D01*
X24556Y30853D01*
X24552Y30850D01*
X24547Y30847D01*
X24546Y30846D01*
X24545Y30846D01*
X24544Y30845D01*
X24541Y30842D01*
X24109Y30410D01*
X24107Y30407D01*
X24104Y30405D01*
X24102Y30402D01*
X24100Y30399D01*
X24099Y30396D01*
X24097Y30393D01*
X24096Y30390D01*
X24095Y30387D01*
X24094Y30383D01*
X24093Y30380D01*
X24092Y30377D01*
X24092Y30373D01*
X24092Y30370D01*
X24091Y30367D01*
X24092Y30363D01*
X24092Y30360D01*
X24093Y30356D01*
X24093Y30353D01*
X24095Y30348D01*
X24095Y30347D01*
X24096Y30346D01*
X24096Y30345D01*
X24106Y30321D01*
X24106Y30179D01*
X24052Y30048D01*
X23995Y29992D01*
X23993Y29989D01*
X23990Y29986D01*
X23989Y29983D01*
X23987Y29981D01*
X23985Y29978D01*
X23983Y29974D01*
X23982Y29971D01*
X23981Y29969D01*
X23980Y29965D01*
X23979Y29961D01*
X23979Y29958D01*
X23978Y29956D01*
X23978Y29951D01*
X23978Y29947D01*
X23979Y29945D01*
X23979Y29942D01*
X23980Y29938D01*
X23980Y29934D01*
X23981Y29931D01*
X23982Y29929D01*
X23984Y29925D01*
X23985Y29921D01*
X23987Y29919D01*
X23988Y29917D01*
X23991Y29914D01*
X23993Y29910D01*
X23995Y29908D01*
X23997Y29906D01*
X24001Y29904D01*
X24004Y29901D01*
X24006Y29900D01*
X24008Y29898D01*
X24012Y29897D01*
X24016Y29895D01*
X24018Y29894D01*
X24021Y29893D01*
X24025Y29892D01*
X24029Y29891D01*
X24033Y29891D01*
X24034Y29891D01*
X24035Y29891D01*
X24037Y29891D01*
X24788Y29891D01*
X24792Y29891D01*
G37*
%LPC*%
G36*
X32186Y18169D02*
X32186Y18169D01*
X32068Y18218D01*
X31978Y18308D01*
X31929Y18426D01*
X31929Y19074D01*
X31978Y19192D01*
X32068Y19282D01*
X32082Y19288D01*
X32083Y19288D01*
X32089Y19291D01*
X32094Y19294D01*
X32095Y19295D01*
X32101Y19301D01*
X32692Y19891D01*
X40070Y19891D01*
X40075Y19891D01*
X40080Y19892D01*
X40082Y19892D01*
X40083Y19892D01*
X40088Y19894D01*
X40093Y19896D01*
X40095Y19896D01*
X40096Y19897D01*
X40101Y19900D01*
X40105Y19903D01*
X40107Y19904D01*
X40108Y19904D01*
X40109Y19905D01*
X40112Y19908D01*
X40131Y19928D01*
X40208Y19960D01*
X40292Y19960D01*
X40369Y19928D01*
X40428Y19869D01*
X40460Y19792D01*
X40460Y19708D01*
X40428Y19631D01*
X40369Y19572D01*
X40292Y19540D01*
X40208Y19540D01*
X40131Y19572D01*
X40112Y19592D01*
X40107Y19595D01*
X40103Y19599D01*
X40102Y19599D01*
X40101Y19600D01*
X40096Y19603D01*
X40091Y19605D01*
X40090Y19606D01*
X40089Y19606D01*
X40083Y19607D01*
X40078Y19609D01*
X40076Y19609D01*
X40075Y19609D01*
X40074Y19609D01*
X40070Y19609D01*
X32833Y19609D01*
X32828Y19609D01*
X32822Y19608D01*
X32821Y19608D01*
X32819Y19608D01*
X32814Y19606D01*
X32809Y19604D01*
X32808Y19604D01*
X32806Y19603D01*
X32802Y19600D01*
X32797Y19597D01*
X32796Y19596D01*
X32795Y19596D01*
X32794Y19595D01*
X32791Y19592D01*
X32498Y19299D01*
X32497Y19298D01*
X32496Y19297D01*
X32493Y19293D01*
X32490Y19288D01*
X32489Y19287D01*
X32488Y19286D01*
X32486Y19281D01*
X32484Y19276D01*
X32484Y19275D01*
X32483Y19274D01*
X32482Y19268D01*
X32481Y19263D01*
X32481Y19261D01*
X32481Y19260D01*
X32481Y19255D01*
X32481Y19249D01*
X32482Y19248D01*
X32482Y19247D01*
X32483Y19241D01*
X32485Y19236D01*
X32485Y19235D01*
X32486Y19234D01*
X32489Y19229D01*
X32491Y19224D01*
X32492Y19223D01*
X32493Y19222D01*
X32498Y19215D01*
X32522Y19192D01*
X32571Y19074D01*
X32571Y18426D01*
X32522Y18308D01*
X32432Y18218D01*
X32314Y18169D01*
X32186Y18169D01*
G37*
%LPD*%
G36*
X27792Y27891D02*
X27792Y27891D01*
X27796Y27891D01*
X27798Y27892D01*
X27801Y27892D01*
X27805Y27894D01*
X27809Y27895D01*
X27811Y27896D01*
X27814Y27897D01*
X27817Y27899D01*
X27821Y27901D01*
X27823Y27903D01*
X27825Y27904D01*
X27828Y27907D01*
X27831Y27910D01*
X27833Y27912D01*
X27835Y27914D01*
X27837Y27918D01*
X27839Y27921D01*
X27840Y27924D01*
X27842Y27926D01*
X27843Y27930D01*
X27844Y27934D01*
X27845Y27936D01*
X27846Y27939D01*
X27846Y27943D01*
X27847Y27947D01*
X27847Y27950D01*
X27847Y27953D01*
X27846Y27957D01*
X27846Y27961D01*
X27845Y27963D01*
X27845Y27966D01*
X27843Y27970D01*
X27842Y27974D01*
X27840Y27976D01*
X27839Y27979D01*
X27837Y27982D01*
X27835Y27986D01*
X27832Y27989D01*
X27831Y27990D01*
X27829Y27992D01*
X27773Y28048D01*
X27719Y28179D01*
X27719Y28321D01*
X27773Y28452D01*
X27873Y28552D01*
X28004Y28606D01*
X28146Y28606D01*
X28276Y28552D01*
X28377Y28452D01*
X28431Y28321D01*
X28431Y28179D01*
X28377Y28048D01*
X28320Y27992D01*
X28318Y27989D01*
X28315Y27986D01*
X28313Y27983D01*
X28312Y27981D01*
X28310Y27978D01*
X28308Y27974D01*
X28307Y27971D01*
X28306Y27969D01*
X28305Y27965D01*
X28304Y27961D01*
X28304Y27958D01*
X28303Y27956D01*
X28303Y27951D01*
X28303Y27947D01*
X28303Y27945D01*
X28303Y27942D01*
X28304Y27938D01*
X28305Y27934D01*
X28306Y27931D01*
X28307Y27929D01*
X28309Y27925D01*
X28310Y27921D01*
X28312Y27919D01*
X28313Y27917D01*
X28316Y27914D01*
X28318Y27910D01*
X28320Y27908D01*
X28322Y27906D01*
X28325Y27904D01*
X28328Y27901D01*
X28331Y27900D01*
X28333Y27898D01*
X28337Y27897D01*
X28340Y27895D01*
X28343Y27894D01*
X28346Y27893D01*
X28350Y27892D01*
X28354Y27891D01*
X28358Y27891D01*
X28359Y27891D01*
X28360Y27891D01*
X28362Y27891D01*
X29213Y27891D01*
X29217Y27891D01*
X29221Y27891D01*
X29224Y27892D01*
X29226Y27892D01*
X29230Y27894D01*
X29234Y27895D01*
X29236Y27896D01*
X29239Y27897D01*
X29243Y27899D01*
X29246Y27901D01*
X29248Y27903D01*
X29251Y27904D01*
X29253Y27907D01*
X29256Y27910D01*
X29258Y27912D01*
X29260Y27914D01*
X29262Y27918D01*
X29264Y27921D01*
X29265Y27924D01*
X29267Y27926D01*
X29268Y27930D01*
X29270Y27934D01*
X29270Y27936D01*
X29271Y27939D01*
X29271Y27943D01*
X29272Y27947D01*
X29272Y27950D01*
X29272Y27953D01*
X29271Y27957D01*
X29271Y27961D01*
X29270Y27963D01*
X29270Y27966D01*
X29268Y27970D01*
X29267Y27974D01*
X29266Y27976D01*
X29265Y27979D01*
X29262Y27982D01*
X29260Y27986D01*
X29257Y27989D01*
X29257Y27990D01*
X29256Y27990D01*
X29255Y27992D01*
X29198Y28048D01*
X29144Y28179D01*
X29144Y28321D01*
X29198Y28452D01*
X29255Y28508D01*
X29257Y28511D01*
X29260Y28514D01*
X29261Y28517D01*
X29263Y28519D01*
X29265Y28522D01*
X29267Y28526D01*
X29268Y28529D01*
X29269Y28531D01*
X29270Y28535D01*
X29271Y28539D01*
X29271Y28542D01*
X29272Y28544D01*
X29272Y28549D01*
X29272Y28553D01*
X29271Y28555D01*
X29271Y28558D01*
X29270Y28562D01*
X29270Y28566D01*
X29269Y28569D01*
X29268Y28571D01*
X29266Y28575D01*
X29265Y28579D01*
X29263Y28581D01*
X29262Y28583D01*
X29259Y28586D01*
X29257Y28590D01*
X29255Y28592D01*
X29253Y28594D01*
X29249Y28596D01*
X29246Y28599D01*
X29244Y28600D01*
X29242Y28602D01*
X29238Y28603D01*
X29234Y28605D01*
X29232Y28606D01*
X29229Y28607D01*
X29225Y28608D01*
X29221Y28609D01*
X29217Y28609D01*
X29216Y28609D01*
X29215Y28609D01*
X29213Y28609D01*
X28517Y28609D01*
X28417Y28709D01*
X28235Y28891D01*
X28232Y28893D01*
X28230Y28896D01*
X28227Y28898D01*
X28224Y28900D01*
X28221Y28901D01*
X28218Y28903D01*
X28215Y28904D01*
X28212Y28905D01*
X28208Y28906D01*
X28205Y28907D01*
X28202Y28908D01*
X28198Y28908D01*
X28195Y28908D01*
X28191Y28909D01*
X28188Y28908D01*
X28185Y28908D01*
X28181Y28907D01*
X28178Y28907D01*
X28173Y28905D01*
X28171Y28905D01*
X28171Y28904D01*
X28170Y28904D01*
X28146Y28894D01*
X28004Y28894D01*
X27980Y28904D01*
X27976Y28905D01*
X27973Y28906D01*
X27970Y28907D01*
X27967Y28908D01*
X27963Y28908D01*
X27960Y28908D01*
X27956Y28908D01*
X27953Y28908D01*
X27950Y28908D01*
X27946Y28908D01*
X27943Y28907D01*
X27939Y28906D01*
X27936Y28905D01*
X27933Y28904D01*
X27930Y28902D01*
X27927Y28900D01*
X27924Y28898D01*
X27921Y28897D01*
X27917Y28893D01*
X27916Y28892D01*
X27915Y28891D01*
X27733Y28709D01*
X27633Y28609D01*
X25362Y28609D01*
X25358Y28609D01*
X25354Y28609D01*
X25351Y28608D01*
X25349Y28608D01*
X25345Y28606D01*
X25341Y28605D01*
X25338Y28604D01*
X25336Y28603D01*
X25332Y28601D01*
X25329Y28599D01*
X25327Y28597D01*
X25324Y28596D01*
X25321Y28593D01*
X25318Y28590D01*
X25317Y28588D01*
X25315Y28586D01*
X25313Y28582D01*
X25310Y28579D01*
X25309Y28576D01*
X25308Y28574D01*
X25307Y28570D01*
X25305Y28566D01*
X25305Y28564D01*
X25304Y28561D01*
X25304Y28557D01*
X25303Y28553D01*
X25303Y28550D01*
X25303Y28547D01*
X25304Y28543D01*
X25304Y28539D01*
X25305Y28537D01*
X25305Y28534D01*
X25307Y28530D01*
X25308Y28526D01*
X25309Y28524D01*
X25310Y28521D01*
X25313Y28518D01*
X25315Y28514D01*
X25317Y28511D01*
X25318Y28510D01*
X25319Y28510D01*
X25320Y28508D01*
X25377Y28452D01*
X25431Y28321D01*
X25431Y28179D01*
X25377Y28048D01*
X25320Y27992D01*
X25318Y27989D01*
X25315Y27986D01*
X25313Y27983D01*
X25312Y27981D01*
X25310Y27978D01*
X25308Y27974D01*
X25307Y27971D01*
X25306Y27969D01*
X25305Y27965D01*
X25304Y27961D01*
X25304Y27958D01*
X25303Y27956D01*
X25303Y27951D01*
X25303Y27947D01*
X25303Y27945D01*
X25303Y27942D01*
X25304Y27938D01*
X25305Y27934D01*
X25306Y27931D01*
X25307Y27929D01*
X25309Y27925D01*
X25310Y27921D01*
X25312Y27919D01*
X25313Y27917D01*
X25316Y27914D01*
X25318Y27910D01*
X25320Y27908D01*
X25322Y27906D01*
X25325Y27904D01*
X25328Y27901D01*
X25331Y27900D01*
X25333Y27898D01*
X25337Y27897D01*
X25340Y27895D01*
X25343Y27894D01*
X25346Y27893D01*
X25350Y27892D01*
X25354Y27891D01*
X25358Y27891D01*
X25359Y27891D01*
X25360Y27891D01*
X25362Y27891D01*
X27788Y27891D01*
X27792Y27891D01*
G37*
%LPC*%
G36*
X7208Y9290D02*
X7208Y9290D01*
X7131Y9322D01*
X7072Y9381D01*
X7040Y9458D01*
X7040Y9542D01*
X7072Y9619D01*
X7092Y9638D01*
X7095Y9643D01*
X7099Y9647D01*
X7099Y9648D01*
X7100Y9649D01*
X7103Y9654D01*
X7105Y9659D01*
X7106Y9660D01*
X7106Y9661D01*
X7107Y9667D01*
X7109Y9672D01*
X7109Y9674D01*
X7109Y9675D01*
X7109Y9676D01*
X7109Y9680D01*
X7109Y17570D01*
X7109Y17575D01*
X7108Y17580D01*
X7108Y17582D01*
X7108Y17583D01*
X7106Y17588D01*
X7104Y17593D01*
X7104Y17595D01*
X7103Y17596D01*
X7100Y17601D01*
X7097Y17605D01*
X7096Y17607D01*
X7096Y17608D01*
X7095Y17609D01*
X7092Y17612D01*
X7072Y17631D01*
X7040Y17708D01*
X7040Y17792D01*
X7072Y17869D01*
X7131Y17928D01*
X7208Y17960D01*
X7292Y17960D01*
X7369Y17928D01*
X7428Y17869D01*
X7460Y17792D01*
X7460Y17708D01*
X7428Y17631D01*
X7408Y17612D01*
X7405Y17607D01*
X7401Y17603D01*
X7401Y17602D01*
X7400Y17601D01*
X7397Y17596D01*
X7395Y17591D01*
X7394Y17590D01*
X7394Y17589D01*
X7393Y17583D01*
X7391Y17578D01*
X7391Y17576D01*
X7391Y17575D01*
X7391Y17574D01*
X7391Y17570D01*
X7391Y9680D01*
X7391Y9675D01*
X7392Y9670D01*
X7392Y9668D01*
X7392Y9667D01*
X7394Y9662D01*
X7396Y9657D01*
X7396Y9655D01*
X7397Y9654D01*
X7400Y9649D01*
X7403Y9645D01*
X7404Y9643D01*
X7404Y9642D01*
X7405Y9641D01*
X7408Y9638D01*
X7428Y9619D01*
X7460Y9542D01*
X7460Y9458D01*
X7428Y9381D01*
X7369Y9322D01*
X7292Y9290D01*
X7208Y9290D01*
G37*
%LPD*%
%LPC*%
G36*
X9208Y8040D02*
X9208Y8040D01*
X9131Y8072D01*
X9072Y8131D01*
X9040Y8208D01*
X9040Y8292D01*
X9072Y8369D01*
X9092Y8388D01*
X9095Y8393D01*
X9099Y8397D01*
X9099Y8398D01*
X9100Y8399D01*
X9103Y8404D01*
X9105Y8409D01*
X9106Y8410D01*
X9106Y8411D01*
X9107Y8417D01*
X9109Y8422D01*
X9109Y8424D01*
X9109Y8425D01*
X9109Y8426D01*
X9109Y8430D01*
X9109Y16320D01*
X9109Y16325D01*
X9108Y16330D01*
X9108Y16332D01*
X9108Y16333D01*
X9106Y16338D01*
X9104Y16343D01*
X9104Y16345D01*
X9103Y16346D01*
X9100Y16351D01*
X9097Y16355D01*
X9096Y16357D01*
X9096Y16358D01*
X9095Y16359D01*
X9092Y16362D01*
X9072Y16381D01*
X9040Y16458D01*
X9040Y16542D01*
X9072Y16619D01*
X9131Y16678D01*
X9208Y16710D01*
X9292Y16710D01*
X9369Y16678D01*
X9428Y16619D01*
X9460Y16542D01*
X9460Y16458D01*
X9428Y16381D01*
X9408Y16362D01*
X9405Y16357D01*
X9401Y16353D01*
X9401Y16352D01*
X9400Y16351D01*
X9397Y16346D01*
X9395Y16341D01*
X9394Y16340D01*
X9394Y16339D01*
X9393Y16333D01*
X9391Y16328D01*
X9391Y16326D01*
X9391Y16325D01*
X9391Y16324D01*
X9391Y16320D01*
X9391Y8430D01*
X9391Y8425D01*
X9392Y8420D01*
X9392Y8418D01*
X9392Y8417D01*
X9394Y8412D01*
X9396Y8407D01*
X9396Y8405D01*
X9397Y8404D01*
X9400Y8399D01*
X9403Y8395D01*
X9404Y8393D01*
X9404Y8392D01*
X9405Y8391D01*
X9408Y8388D01*
X9428Y8369D01*
X9460Y8292D01*
X9460Y8208D01*
X9428Y8131D01*
X9369Y8072D01*
X9292Y8040D01*
X9208Y8040D01*
G37*
%LPD*%
%LPC*%
G36*
X6458Y4290D02*
X6458Y4290D01*
X6381Y4322D01*
X6362Y4342D01*
X6357Y4345D01*
X6353Y4349D01*
X6352Y4349D01*
X6351Y4350D01*
X6346Y4353D01*
X6341Y4355D01*
X6340Y4356D01*
X6339Y4356D01*
X6333Y4357D01*
X6328Y4359D01*
X6326Y4359D01*
X6325Y4359D01*
X6324Y4359D01*
X6320Y4359D01*
X4692Y4359D01*
X3359Y5692D01*
X3359Y10070D01*
X3359Y10075D01*
X3358Y10080D01*
X3358Y10082D01*
X3358Y10083D01*
X3356Y10088D01*
X3354Y10093D01*
X3354Y10095D01*
X3353Y10096D01*
X3350Y10101D01*
X3347Y10105D01*
X3346Y10107D01*
X3346Y10108D01*
X3345Y10109D01*
X3342Y10112D01*
X3322Y10131D01*
X3290Y10208D01*
X3290Y10292D01*
X3322Y10369D01*
X3381Y10428D01*
X3458Y10460D01*
X3542Y10460D01*
X3619Y10428D01*
X3678Y10369D01*
X3710Y10292D01*
X3710Y10208D01*
X3678Y10131D01*
X3658Y10112D01*
X3655Y10107D01*
X3651Y10103D01*
X3651Y10102D01*
X3650Y10101D01*
X3647Y10096D01*
X3645Y10091D01*
X3644Y10090D01*
X3644Y10089D01*
X3643Y10083D01*
X3641Y10078D01*
X3641Y10076D01*
X3641Y10075D01*
X3641Y10074D01*
X3641Y10070D01*
X3641Y5833D01*
X3641Y5828D01*
X3642Y5822D01*
X3642Y5821D01*
X3642Y5819D01*
X3644Y5814D01*
X3646Y5809D01*
X3646Y5808D01*
X3647Y5806D01*
X3650Y5802D01*
X3653Y5797D01*
X3654Y5796D01*
X3654Y5795D01*
X3655Y5794D01*
X3658Y5791D01*
X4791Y4658D01*
X4795Y4655D01*
X4799Y4651D01*
X4800Y4651D01*
X4802Y4650D01*
X4806Y4647D01*
X4811Y4645D01*
X4813Y4644D01*
X4814Y4644D01*
X4819Y4643D01*
X4824Y4641D01*
X4826Y4641D01*
X4827Y4641D01*
X4829Y4641D01*
X4833Y4641D01*
X6320Y4641D01*
X6325Y4641D01*
X6330Y4642D01*
X6332Y4642D01*
X6333Y4642D01*
X6338Y4644D01*
X6343Y4646D01*
X6345Y4646D01*
X6346Y4647D01*
X6351Y4650D01*
X6355Y4653D01*
X6357Y4654D01*
X6358Y4654D01*
X6359Y4655D01*
X6362Y4658D01*
X6381Y4678D01*
X6458Y4710D01*
X6542Y4710D01*
X6619Y4678D01*
X6678Y4619D01*
X6710Y4542D01*
X6710Y4458D01*
X6678Y4381D01*
X6619Y4322D01*
X6542Y4290D01*
X6458Y4290D01*
G37*
%LPD*%
%LPC*%
G36*
X2436Y13679D02*
X2436Y13679D01*
X2318Y13728D01*
X2228Y13818D01*
X2179Y13936D01*
X2179Y14064D01*
X2228Y14182D01*
X2318Y14272D01*
X2321Y14275D01*
X2323Y14278D01*
X2325Y14280D01*
X2327Y14282D01*
X2328Y14286D01*
X2330Y14290D01*
X2331Y14292D01*
X2332Y14295D01*
X2333Y14299D01*
X2334Y14303D01*
X2335Y14305D01*
X2335Y14308D01*
X2335Y14312D01*
X2335Y14316D01*
X2335Y14319D01*
X2335Y14322D01*
X2334Y14326D01*
X2333Y14330D01*
X2332Y14332D01*
X2332Y14335D01*
X2330Y14339D01*
X2328Y14342D01*
X2326Y14345D01*
X2325Y14347D01*
X2323Y14350D01*
X2320Y14353D01*
X2318Y14355D01*
X2316Y14357D01*
X2313Y14360D01*
X2310Y14362D01*
X2307Y14364D01*
X2305Y14365D01*
X2301Y14367D01*
X2298Y14369D01*
X2295Y14369D01*
X2293Y14371D01*
X2289Y14371D01*
X2285Y14372D01*
X2281Y14373D01*
X2279Y14373D01*
X2278Y14373D01*
X2276Y14373D01*
X2078Y14373D01*
X1891Y14450D01*
X1890Y14451D01*
X1888Y14451D01*
X1883Y14453D01*
X1878Y14454D01*
X1876Y14454D01*
X1875Y14455D01*
X1870Y14455D01*
X1864Y14455D01*
X1863Y14455D01*
X1861Y14455D01*
X1856Y14453D01*
X1851Y14452D01*
X1849Y14452D01*
X1848Y14452D01*
X1843Y14449D01*
X1838Y14447D01*
X1837Y14446D01*
X1836Y14445D01*
X1832Y14442D01*
X1827Y14439D01*
X1826Y14438D01*
X1825Y14437D01*
X1822Y14432D01*
X1819Y14428D01*
X1818Y14427D01*
X1817Y14426D01*
X1813Y14418D01*
X1772Y14318D01*
X1682Y14228D01*
X1564Y14179D01*
X1436Y14179D01*
X1318Y14228D01*
X1228Y14318D01*
X1179Y14436D01*
X1179Y14564D01*
X1228Y14682D01*
X1318Y14772D01*
X1436Y14821D01*
X1477Y14821D01*
X1483Y14821D01*
X1489Y14822D01*
X1490Y14822D01*
X1491Y14822D01*
X1497Y14824D01*
X1502Y14826D01*
X1503Y14827D01*
X1504Y14827D01*
X1509Y14830D01*
X1514Y14833D01*
X1514Y14834D01*
X1515Y14834D01*
X1519Y14839D01*
X1524Y14843D01*
X1524Y14844D01*
X1525Y14844D01*
X1528Y14849D01*
X1531Y14855D01*
X1531Y14856D01*
X1533Y14862D01*
X1535Y14868D01*
X1535Y14869D01*
X1536Y14875D01*
X1537Y14881D01*
X1536Y14882D01*
X1536Y14883D01*
X1536Y14889D01*
X1535Y14895D01*
X1534Y14896D01*
X1534Y14897D01*
X1532Y14903D01*
X1521Y14930D01*
X1521Y15207D01*
X1626Y15463D01*
X1822Y15659D01*
X2078Y15765D01*
X2355Y15765D01*
X2611Y15659D01*
X2807Y15463D01*
X2913Y15207D01*
X2913Y14930D01*
X2807Y14675D01*
X2611Y14479D01*
X2504Y14435D01*
X2503Y14434D01*
X2501Y14433D01*
X2497Y14430D01*
X2492Y14428D01*
X2491Y14427D01*
X2489Y14426D01*
X2486Y14422D01*
X2482Y14419D01*
X2481Y14417D01*
X2480Y14416D01*
X2477Y14412D01*
X2475Y14408D01*
X2474Y14406D01*
X2473Y14404D01*
X2471Y14399D01*
X2470Y14395D01*
X2469Y14393D01*
X2469Y14391D01*
X2468Y14386D01*
X2468Y14381D01*
X2468Y14379D01*
X2468Y14377D01*
X2469Y14373D01*
X2469Y14368D01*
X2470Y14366D01*
X2470Y14364D01*
X2472Y14359D01*
X2473Y14355D01*
X2474Y14353D01*
X2475Y14351D01*
X2478Y14347D01*
X2480Y14343D01*
X2482Y14342D01*
X2483Y14340D01*
X2487Y14337D01*
X2490Y14334D01*
X2492Y14333D01*
X2493Y14331D01*
X2498Y14329D01*
X2502Y14326D01*
X2504Y14326D01*
X2505Y14325D01*
X2510Y14324D01*
X2515Y14322D01*
X2517Y14322D01*
X2519Y14321D01*
X2527Y14321D01*
X2564Y14321D01*
X2682Y14272D01*
X2772Y14182D01*
X2821Y14064D01*
X2821Y13936D01*
X2772Y13818D01*
X2682Y13728D01*
X2564Y13679D01*
X2436Y13679D01*
G37*
%LPD*%
%LPC*%
G36*
X6208Y8790D02*
X6208Y8790D01*
X6131Y8822D01*
X6072Y8881D01*
X6040Y8958D01*
X6040Y9042D01*
X6072Y9119D01*
X6092Y9138D01*
X6095Y9143D01*
X6099Y9147D01*
X6099Y9148D01*
X6100Y9149D01*
X6103Y9154D01*
X6105Y9159D01*
X6106Y9160D01*
X6106Y9161D01*
X6107Y9167D01*
X6109Y9172D01*
X6109Y9174D01*
X6109Y9175D01*
X6109Y9176D01*
X6109Y9180D01*
X6109Y15320D01*
X6109Y15325D01*
X6108Y15330D01*
X6108Y15332D01*
X6108Y15333D01*
X6106Y15338D01*
X6104Y15343D01*
X6104Y15345D01*
X6103Y15346D01*
X6100Y15351D01*
X6097Y15355D01*
X6096Y15357D01*
X6096Y15358D01*
X6095Y15359D01*
X6092Y15362D01*
X6072Y15381D01*
X6040Y15458D01*
X6040Y15542D01*
X6072Y15619D01*
X6131Y15678D01*
X6208Y15710D01*
X6292Y15710D01*
X6369Y15678D01*
X6428Y15619D01*
X6460Y15542D01*
X6460Y15458D01*
X6428Y15381D01*
X6408Y15362D01*
X6405Y15357D01*
X6401Y15353D01*
X6401Y15352D01*
X6400Y15351D01*
X6397Y15346D01*
X6395Y15341D01*
X6394Y15340D01*
X6394Y15339D01*
X6393Y15333D01*
X6391Y15328D01*
X6391Y15326D01*
X6391Y15325D01*
X6391Y15324D01*
X6391Y15320D01*
X6391Y9180D01*
X6391Y9175D01*
X6392Y9170D01*
X6392Y9168D01*
X6392Y9167D01*
X6394Y9162D01*
X6396Y9157D01*
X6396Y9155D01*
X6397Y9154D01*
X6400Y9149D01*
X6403Y9145D01*
X6404Y9143D01*
X6404Y9142D01*
X6405Y9141D01*
X6408Y9138D01*
X6428Y9119D01*
X6460Y9042D01*
X6460Y8958D01*
X6428Y8881D01*
X6369Y8822D01*
X6292Y8790D01*
X6208Y8790D01*
G37*
%LPD*%
G36*
X33001Y10921D02*
X33001Y10921D01*
X33002Y10921D01*
X33009Y10922D01*
X33016Y10922D01*
X33017Y10923D01*
X33018Y10923D01*
X33024Y10925D01*
X33031Y10927D01*
X33032Y10927D01*
X33033Y10928D01*
X33039Y10931D01*
X33045Y10935D01*
X33046Y10936D01*
X33051Y10940D01*
X33057Y10945D01*
X33058Y10946D01*
X33062Y10952D01*
X33067Y10957D01*
X33067Y10958D01*
X33068Y10959D01*
X33071Y10965D01*
X33074Y10971D01*
X33074Y10972D01*
X33074Y10973D01*
X33076Y10980D01*
X33078Y10986D01*
X33078Y10987D01*
X33078Y10988D01*
X33079Y11000D01*
X33079Y12000D01*
X33079Y12001D01*
X33079Y12002D01*
X33078Y12009D01*
X33078Y12016D01*
X33077Y12017D01*
X33077Y12018D01*
X33075Y12024D01*
X33073Y12031D01*
X33073Y12032D01*
X33072Y12033D01*
X33069Y12039D01*
X33065Y12045D01*
X33064Y12046D01*
X33060Y12051D01*
X33055Y12057D01*
X33054Y12058D01*
X33048Y12062D01*
X33043Y12067D01*
X33042Y12067D01*
X33041Y12068D01*
X33035Y12071D01*
X33029Y12074D01*
X33028Y12074D01*
X33027Y12074D01*
X33020Y12076D01*
X33014Y12078D01*
X33013Y12078D01*
X33012Y12078D01*
X33000Y12079D01*
X31500Y12079D01*
X31499Y12079D01*
X31498Y12079D01*
X31491Y12078D01*
X31484Y12078D01*
X31483Y12077D01*
X31482Y12077D01*
X31476Y12075D01*
X31469Y12073D01*
X31468Y12073D01*
X31467Y12072D01*
X31461Y12069D01*
X31455Y12065D01*
X31454Y12064D01*
X31449Y12060D01*
X31443Y12055D01*
X31442Y12054D01*
X31438Y12048D01*
X31433Y12043D01*
X31433Y12042D01*
X31432Y12041D01*
X31429Y12035D01*
X31426Y12029D01*
X31426Y12028D01*
X31426Y12027D01*
X31424Y12020D01*
X31422Y12014D01*
X31422Y12013D01*
X31422Y12012D01*
X31421Y12000D01*
X31421Y11000D01*
X31421Y10999D01*
X31421Y10998D01*
X31422Y10991D01*
X31422Y10984D01*
X31423Y10983D01*
X31423Y10982D01*
X31425Y10976D01*
X31427Y10969D01*
X31427Y10968D01*
X31428Y10967D01*
X31431Y10961D01*
X31435Y10955D01*
X31436Y10954D01*
X31440Y10949D01*
X31445Y10943D01*
X31446Y10942D01*
X31452Y10938D01*
X31457Y10933D01*
X31458Y10933D01*
X31459Y10932D01*
X31465Y10929D01*
X31471Y10926D01*
X31472Y10926D01*
X31473Y10926D01*
X31480Y10924D01*
X31486Y10922D01*
X31487Y10922D01*
X31488Y10922D01*
X31500Y10921D01*
X33000Y10921D01*
X33001Y10921D01*
G37*
G36*
X17251Y10921D02*
X17251Y10921D01*
X17252Y10921D01*
X17259Y10922D01*
X17266Y10922D01*
X17267Y10923D01*
X17268Y10923D01*
X17274Y10925D01*
X17281Y10927D01*
X17282Y10927D01*
X17283Y10928D01*
X17289Y10931D01*
X17295Y10935D01*
X17296Y10936D01*
X17301Y10940D01*
X17307Y10945D01*
X17308Y10946D01*
X17312Y10952D01*
X17317Y10957D01*
X17317Y10958D01*
X17318Y10959D01*
X17321Y10965D01*
X17324Y10971D01*
X17324Y10972D01*
X17324Y10973D01*
X17326Y10980D01*
X17328Y10986D01*
X17328Y10987D01*
X17328Y10988D01*
X17329Y11000D01*
X17329Y12000D01*
X17329Y12001D01*
X17329Y12002D01*
X17328Y12009D01*
X17328Y12016D01*
X17327Y12017D01*
X17327Y12018D01*
X17325Y12024D01*
X17323Y12031D01*
X17323Y12032D01*
X17322Y12033D01*
X17319Y12039D01*
X17315Y12045D01*
X17314Y12046D01*
X17310Y12051D01*
X17305Y12057D01*
X17304Y12058D01*
X17298Y12062D01*
X17293Y12067D01*
X17292Y12067D01*
X17291Y12068D01*
X17285Y12071D01*
X17279Y12074D01*
X17278Y12074D01*
X17277Y12074D01*
X17270Y12076D01*
X17264Y12078D01*
X17263Y12078D01*
X17262Y12078D01*
X17250Y12079D01*
X15750Y12079D01*
X15749Y12079D01*
X15748Y12079D01*
X15741Y12078D01*
X15734Y12078D01*
X15733Y12077D01*
X15732Y12077D01*
X15726Y12075D01*
X15719Y12073D01*
X15718Y12073D01*
X15717Y12072D01*
X15711Y12069D01*
X15705Y12065D01*
X15704Y12064D01*
X15699Y12060D01*
X15693Y12055D01*
X15692Y12054D01*
X15688Y12048D01*
X15683Y12043D01*
X15683Y12042D01*
X15682Y12041D01*
X15679Y12035D01*
X15676Y12029D01*
X15676Y12028D01*
X15676Y12027D01*
X15674Y12020D01*
X15672Y12014D01*
X15672Y12013D01*
X15672Y12012D01*
X15671Y12000D01*
X15671Y11000D01*
X15671Y10999D01*
X15671Y10998D01*
X15672Y10991D01*
X15672Y10984D01*
X15673Y10983D01*
X15673Y10982D01*
X15675Y10976D01*
X15677Y10969D01*
X15677Y10968D01*
X15678Y10967D01*
X15681Y10961D01*
X15685Y10955D01*
X15686Y10954D01*
X15690Y10949D01*
X15695Y10943D01*
X15696Y10942D01*
X15702Y10938D01*
X15707Y10933D01*
X15708Y10933D01*
X15709Y10932D01*
X15715Y10929D01*
X15721Y10926D01*
X15722Y10926D01*
X15723Y10926D01*
X15730Y10924D01*
X15736Y10922D01*
X15737Y10922D01*
X15738Y10922D01*
X15750Y10921D01*
X17250Y10921D01*
X17251Y10921D01*
G37*
G36*
X27497Y28891D02*
X27497Y28891D01*
X27503Y28892D01*
X27504Y28892D01*
X27506Y28892D01*
X27511Y28894D01*
X27516Y28896D01*
X27517Y28896D01*
X27518Y28897D01*
X27523Y28900D01*
X27527Y28903D01*
X27529Y28904D01*
X27530Y28904D01*
X27531Y28905D01*
X27534Y28908D01*
X27716Y29090D01*
X27718Y29093D01*
X27720Y29095D01*
X27722Y29098D01*
X27724Y29101D01*
X27726Y29104D01*
X27728Y29107D01*
X27729Y29110D01*
X27730Y29113D01*
X27731Y29117D01*
X27732Y29120D01*
X27732Y29123D01*
X27733Y29127D01*
X27733Y29130D01*
X27733Y29133D01*
X27733Y29137D01*
X27733Y29140D01*
X27732Y29144D01*
X27732Y29147D01*
X27730Y29152D01*
X27729Y29153D01*
X27729Y29154D01*
X27729Y29155D01*
X27719Y29179D01*
X27719Y29321D01*
X27773Y29452D01*
X27829Y29508D01*
X27832Y29511D01*
X27835Y29514D01*
X27836Y29517D01*
X27838Y29519D01*
X27840Y29522D01*
X27842Y29526D01*
X27843Y29529D01*
X27844Y29531D01*
X27845Y29535D01*
X27846Y29539D01*
X27846Y29542D01*
X27847Y29544D01*
X27846Y29549D01*
X27847Y29553D01*
X27846Y29555D01*
X27846Y29558D01*
X27845Y29562D01*
X27845Y29566D01*
X27843Y29569D01*
X27843Y29571D01*
X27841Y29575D01*
X27839Y29579D01*
X27838Y29581D01*
X27836Y29583D01*
X27834Y29586D01*
X27831Y29590D01*
X27829Y29592D01*
X27828Y29594D01*
X27824Y29596D01*
X27821Y29599D01*
X27819Y29600D01*
X27816Y29602D01*
X27813Y29603D01*
X27809Y29605D01*
X27806Y29606D01*
X27804Y29607D01*
X27800Y29608D01*
X27796Y29609D01*
X27792Y29609D01*
X27790Y29609D01*
X27789Y29609D01*
X27788Y29609D01*
X25658Y29609D01*
X25652Y29609D01*
X25647Y29608D01*
X25646Y29608D01*
X25644Y29608D01*
X25639Y29606D01*
X25634Y29604D01*
X25633Y29604D01*
X25631Y29603D01*
X25627Y29600D01*
X25622Y29597D01*
X25621Y29596D01*
X25620Y29596D01*
X25619Y29595D01*
X25616Y29592D01*
X25434Y29410D01*
X25432Y29407D01*
X25429Y29405D01*
X25427Y29402D01*
X25425Y29399D01*
X25424Y29396D01*
X25422Y29393D01*
X25421Y29390D01*
X25419Y29387D01*
X25419Y29383D01*
X25418Y29380D01*
X25417Y29377D01*
X25416Y29373D01*
X25417Y29370D01*
X25416Y29367D01*
X25417Y29363D01*
X25417Y29360D01*
X25418Y29356D01*
X25418Y29353D01*
X25420Y29348D01*
X25420Y29347D01*
X25420Y29346D01*
X25421Y29345D01*
X25431Y29321D01*
X25431Y29179D01*
X25377Y29048D01*
X25320Y28992D01*
X25318Y28989D01*
X25315Y28986D01*
X25313Y28983D01*
X25312Y28981D01*
X25310Y28978D01*
X25308Y28974D01*
X25307Y28971D01*
X25306Y28969D01*
X25305Y28965D01*
X25304Y28961D01*
X25304Y28958D01*
X25303Y28956D01*
X25303Y28951D01*
X25303Y28947D01*
X25303Y28945D01*
X25303Y28942D01*
X25304Y28938D01*
X25305Y28934D01*
X25306Y28931D01*
X25307Y28929D01*
X25309Y28925D01*
X25310Y28921D01*
X25312Y28919D01*
X25313Y28917D01*
X25316Y28914D01*
X25318Y28910D01*
X25320Y28908D01*
X25322Y28906D01*
X25325Y28904D01*
X25328Y28901D01*
X25331Y28900D01*
X25333Y28898D01*
X25337Y28897D01*
X25340Y28895D01*
X25343Y28894D01*
X25346Y28893D01*
X25350Y28892D01*
X25354Y28891D01*
X25358Y28891D01*
X25359Y28891D01*
X25360Y28891D01*
X25362Y28891D01*
X27492Y28891D01*
X27497Y28891D01*
G37*
G36*
X27792Y26891D02*
X27792Y26891D01*
X27796Y26891D01*
X27798Y26892D01*
X27801Y26892D01*
X27805Y26894D01*
X27809Y26895D01*
X27811Y26896D01*
X27814Y26897D01*
X27817Y26899D01*
X27821Y26901D01*
X27823Y26903D01*
X27825Y26904D01*
X27828Y26907D01*
X27831Y26910D01*
X27833Y26912D01*
X27835Y26914D01*
X27837Y26918D01*
X27839Y26921D01*
X27840Y26924D01*
X27842Y26926D01*
X27843Y26930D01*
X27844Y26934D01*
X27845Y26936D01*
X27846Y26939D01*
X27846Y26943D01*
X27847Y26947D01*
X27847Y26950D01*
X27847Y26953D01*
X27846Y26957D01*
X27846Y26961D01*
X27845Y26963D01*
X27845Y26966D01*
X27843Y26970D01*
X27842Y26974D01*
X27840Y26976D01*
X27839Y26979D01*
X27837Y26982D01*
X27835Y26986D01*
X27832Y26989D01*
X27831Y26990D01*
X27829Y26992D01*
X27773Y27048D01*
X27719Y27179D01*
X27719Y27321D01*
X27729Y27345D01*
X27730Y27348D01*
X27731Y27351D01*
X27732Y27355D01*
X27733Y27358D01*
X27733Y27362D01*
X27733Y27365D01*
X27733Y27368D01*
X27733Y27372D01*
X27733Y27375D01*
X27732Y27379D01*
X27731Y27382D01*
X27731Y27385D01*
X27729Y27388D01*
X27728Y27392D01*
X27727Y27395D01*
X27725Y27398D01*
X27723Y27400D01*
X27722Y27403D01*
X27718Y27408D01*
X27717Y27409D01*
X27716Y27410D01*
X27534Y27592D01*
X27530Y27595D01*
X27526Y27599D01*
X27524Y27599D01*
X27523Y27600D01*
X27518Y27603D01*
X27514Y27605D01*
X27512Y27606D01*
X27511Y27606D01*
X27506Y27607D01*
X27500Y27609D01*
X27498Y27609D01*
X27497Y27609D01*
X27496Y27609D01*
X27492Y27609D01*
X25362Y27609D01*
X25358Y27609D01*
X25354Y27609D01*
X25351Y27608D01*
X25349Y27608D01*
X25345Y27606D01*
X25341Y27605D01*
X25338Y27604D01*
X25336Y27603D01*
X25332Y27601D01*
X25329Y27599D01*
X25327Y27597D01*
X25324Y27596D01*
X25321Y27593D01*
X25318Y27590D01*
X25317Y27588D01*
X25315Y27586D01*
X25313Y27582D01*
X25310Y27579D01*
X25309Y27576D01*
X25308Y27574D01*
X25307Y27570D01*
X25305Y27566D01*
X25305Y27564D01*
X25304Y27561D01*
X25304Y27557D01*
X25303Y27553D01*
X25303Y27550D01*
X25303Y27547D01*
X25304Y27543D01*
X25304Y27539D01*
X25305Y27537D01*
X25305Y27534D01*
X25307Y27530D01*
X25308Y27526D01*
X25309Y27524D01*
X25310Y27521D01*
X25313Y27518D01*
X25315Y27514D01*
X25317Y27511D01*
X25318Y27510D01*
X25319Y27510D01*
X25320Y27508D01*
X25377Y27452D01*
X25431Y27321D01*
X25431Y27179D01*
X25421Y27155D01*
X25420Y27152D01*
X25419Y27149D01*
X25418Y27145D01*
X25417Y27142D01*
X25417Y27138D01*
X25416Y27135D01*
X25417Y27132D01*
X25416Y27128D01*
X25417Y27125D01*
X25417Y27121D01*
X25418Y27118D01*
X25419Y27115D01*
X25420Y27112D01*
X25421Y27108D01*
X25423Y27105D01*
X25424Y27102D01*
X25426Y27100D01*
X25428Y27097D01*
X25432Y27092D01*
X25433Y27091D01*
X25434Y27090D01*
X25616Y26908D01*
X25620Y26905D01*
X25624Y26901D01*
X25625Y26901D01*
X25626Y26900D01*
X25631Y26897D01*
X25636Y26895D01*
X25637Y26894D01*
X25639Y26894D01*
X25644Y26893D01*
X25649Y26891D01*
X25651Y26891D01*
X25652Y26891D01*
X25654Y26891D01*
X25658Y26891D01*
X27788Y26891D01*
X27792Y26891D01*
G37*
%LPC*%
G36*
X33186Y21169D02*
X33186Y21169D01*
X33068Y21218D01*
X32978Y21308D01*
X32929Y21426D01*
X32929Y22074D01*
X32978Y22192D01*
X33068Y22282D01*
X33186Y22331D01*
X33314Y22331D01*
X33432Y22282D01*
X33522Y22192D01*
X33571Y22074D01*
X33571Y21426D01*
X33522Y21308D01*
X33432Y21218D01*
X33314Y21169D01*
X33186Y21169D01*
G37*
%LPD*%
%LPC*%
G36*
X36186Y21169D02*
X36186Y21169D01*
X36068Y21218D01*
X35978Y21308D01*
X35929Y21426D01*
X35929Y22074D01*
X35978Y22192D01*
X36068Y22282D01*
X36186Y22331D01*
X36314Y22331D01*
X36432Y22282D01*
X36522Y22192D01*
X36571Y22074D01*
X36571Y21426D01*
X36522Y21308D01*
X36432Y21218D01*
X36314Y21169D01*
X36186Y21169D01*
G37*
%LPD*%
%LPC*%
G36*
X35186Y21169D02*
X35186Y21169D01*
X35068Y21218D01*
X34978Y21308D01*
X34929Y21426D01*
X34929Y22074D01*
X34978Y22192D01*
X35068Y22282D01*
X35186Y22331D01*
X35314Y22331D01*
X35432Y22282D01*
X35522Y22192D01*
X35571Y22074D01*
X35571Y21426D01*
X35522Y21308D01*
X35432Y21218D01*
X35314Y21169D01*
X35186Y21169D01*
G37*
%LPD*%
%LPC*%
G36*
X34186Y21169D02*
X34186Y21169D01*
X34068Y21218D01*
X33978Y21308D01*
X33929Y21426D01*
X33929Y22074D01*
X33978Y22192D01*
X34068Y22282D01*
X34186Y22331D01*
X34314Y22331D01*
X34432Y22282D01*
X34522Y22192D01*
X34571Y22074D01*
X34571Y21426D01*
X34522Y21308D01*
X34432Y21218D01*
X34314Y21169D01*
X34186Y21169D01*
G37*
%LPD*%
%LPC*%
G36*
X32186Y21169D02*
X32186Y21169D01*
X32068Y21218D01*
X31978Y21308D01*
X31929Y21426D01*
X31929Y22074D01*
X31978Y22192D01*
X32068Y22282D01*
X32186Y22331D01*
X32314Y22331D01*
X32432Y22282D01*
X32522Y22192D01*
X32571Y22074D01*
X32571Y21426D01*
X32522Y21308D01*
X32432Y21218D01*
X32314Y21169D01*
X32186Y21169D01*
G37*
%LPD*%
%LPC*%
G36*
X31186Y21169D02*
X31186Y21169D01*
X31068Y21218D01*
X30978Y21308D01*
X30929Y21426D01*
X30929Y22074D01*
X30978Y22192D01*
X31068Y22282D01*
X31186Y22331D01*
X31314Y22331D01*
X31432Y22282D01*
X31522Y22192D01*
X31571Y22074D01*
X31571Y21426D01*
X31522Y21308D01*
X31432Y21218D01*
X31314Y21169D01*
X31186Y21169D01*
G37*
%LPD*%
%LPC*%
G36*
X30186Y21169D02*
X30186Y21169D01*
X30068Y21218D01*
X29978Y21308D01*
X29929Y21426D01*
X29929Y22074D01*
X29978Y22192D01*
X30068Y22282D01*
X30186Y22331D01*
X30314Y22331D01*
X30432Y22282D01*
X30522Y22192D01*
X30571Y22074D01*
X30571Y21426D01*
X30522Y21308D01*
X30432Y21218D01*
X30314Y21169D01*
X30186Y21169D01*
G37*
%LPD*%
%LPC*%
G36*
X29186Y21169D02*
X29186Y21169D01*
X29068Y21218D01*
X28978Y21308D01*
X28929Y21426D01*
X28929Y22074D01*
X28978Y22192D01*
X29068Y22282D01*
X29186Y22331D01*
X29314Y22331D01*
X29432Y22282D01*
X29522Y22192D01*
X29571Y22074D01*
X29571Y21426D01*
X29522Y21308D01*
X29432Y21218D01*
X29314Y21169D01*
X29186Y21169D01*
G37*
%LPD*%
%LPC*%
G36*
X29186Y18169D02*
X29186Y18169D01*
X29068Y18218D01*
X28978Y18308D01*
X28929Y18426D01*
X28929Y19074D01*
X28978Y19192D01*
X29068Y19282D01*
X29186Y19331D01*
X29314Y19331D01*
X29432Y19282D01*
X29522Y19192D01*
X29571Y19074D01*
X29571Y18426D01*
X29522Y18308D01*
X29432Y18218D01*
X29314Y18169D01*
X29186Y18169D01*
G37*
%LPD*%
%LPC*%
G36*
X31186Y18169D02*
X31186Y18169D01*
X31068Y18218D01*
X30978Y18308D01*
X30929Y18426D01*
X30929Y19074D01*
X30978Y19192D01*
X31068Y19282D01*
X31186Y19331D01*
X31314Y19331D01*
X31432Y19282D01*
X31522Y19192D01*
X31571Y19074D01*
X31571Y18426D01*
X31522Y18308D01*
X31432Y18218D01*
X31314Y18169D01*
X31186Y18169D01*
G37*
%LPD*%
%LPC*%
G36*
X33186Y18169D02*
X33186Y18169D01*
X33068Y18218D01*
X32978Y18308D01*
X32929Y18426D01*
X32929Y19074D01*
X32978Y19192D01*
X33068Y19282D01*
X33186Y19331D01*
X33314Y19331D01*
X33432Y19282D01*
X33522Y19192D01*
X33571Y19074D01*
X33571Y18426D01*
X33522Y18308D01*
X33432Y18218D01*
X33314Y18169D01*
X33186Y18169D01*
G37*
%LPD*%
%LPC*%
G36*
X34186Y18169D02*
X34186Y18169D01*
X34068Y18218D01*
X33978Y18308D01*
X33929Y18426D01*
X33929Y19074D01*
X33978Y19192D01*
X34068Y19282D01*
X34186Y19331D01*
X34314Y19331D01*
X34432Y19282D01*
X34522Y19192D01*
X34571Y19074D01*
X34571Y18426D01*
X34522Y18308D01*
X34432Y18218D01*
X34314Y18169D01*
X34186Y18169D01*
G37*
%LPD*%
%LPC*%
G36*
X35186Y18169D02*
X35186Y18169D01*
X35068Y18218D01*
X34978Y18308D01*
X34929Y18426D01*
X34929Y19074D01*
X34978Y19192D01*
X35068Y19282D01*
X35186Y19331D01*
X35314Y19331D01*
X35432Y19282D01*
X35522Y19192D01*
X35571Y19074D01*
X35571Y18426D01*
X35522Y18308D01*
X35432Y18218D01*
X35314Y18169D01*
X35186Y18169D01*
G37*
%LPD*%
%LPC*%
G36*
X30186Y18169D02*
X30186Y18169D01*
X30068Y18218D01*
X29978Y18308D01*
X29929Y18426D01*
X29929Y19074D01*
X29978Y19192D01*
X30068Y19282D01*
X30186Y19331D01*
X30314Y19331D01*
X30432Y19282D01*
X30522Y19192D01*
X30571Y19074D01*
X30571Y18426D01*
X30522Y18308D01*
X30432Y18218D01*
X30314Y18169D01*
X30186Y18169D01*
G37*
%LPD*%
%LPC*%
G36*
X6708Y9790D02*
X6708Y9790D01*
X6631Y9822D01*
X6572Y9881D01*
X6540Y9958D01*
X6540Y10042D01*
X6572Y10119D01*
X6592Y10138D01*
X6595Y10143D01*
X6599Y10147D01*
X6599Y10148D01*
X6600Y10149D01*
X6603Y10154D01*
X6605Y10159D01*
X6606Y10160D01*
X6606Y10161D01*
X6607Y10167D01*
X6609Y10172D01*
X6609Y10174D01*
X6609Y10175D01*
X6609Y10176D01*
X6609Y10180D01*
X6609Y11320D01*
X6609Y11325D01*
X6608Y11330D01*
X6608Y11332D01*
X6608Y11333D01*
X6606Y11338D01*
X6604Y11343D01*
X6604Y11345D01*
X6603Y11346D01*
X6600Y11351D01*
X6597Y11355D01*
X6596Y11357D01*
X6596Y11358D01*
X6595Y11359D01*
X6592Y11362D01*
X6572Y11381D01*
X6540Y11458D01*
X6540Y11542D01*
X6572Y11619D01*
X6631Y11678D01*
X6708Y11710D01*
X6792Y11710D01*
X6869Y11678D01*
X6928Y11619D01*
X6960Y11542D01*
X6960Y11458D01*
X6928Y11381D01*
X6908Y11362D01*
X6905Y11357D01*
X6901Y11353D01*
X6901Y11352D01*
X6900Y11351D01*
X6897Y11346D01*
X6895Y11341D01*
X6894Y11340D01*
X6894Y11339D01*
X6893Y11333D01*
X6891Y11328D01*
X6891Y11326D01*
X6891Y11325D01*
X6891Y11324D01*
X6891Y11320D01*
X6891Y10180D01*
X6891Y10175D01*
X6892Y10170D01*
X6892Y10168D01*
X6892Y10167D01*
X6894Y10162D01*
X6896Y10157D01*
X6896Y10155D01*
X6897Y10154D01*
X6900Y10149D01*
X6903Y10145D01*
X6904Y10143D01*
X6904Y10142D01*
X6905Y10141D01*
X6908Y10138D01*
X6928Y10119D01*
X6960Y10042D01*
X6960Y9958D01*
X6928Y9881D01*
X6869Y9822D01*
X6792Y9790D01*
X6708Y9790D01*
G37*
%LPD*%
%LPC*%
G36*
X23679Y27894D02*
X23679Y27894D01*
X23548Y27948D01*
X23448Y28048D01*
X23394Y28179D01*
X23394Y28321D01*
X23448Y28452D01*
X23548Y28552D01*
X23679Y28606D01*
X23821Y28606D01*
X23952Y28552D01*
X24052Y28452D01*
X24106Y28321D01*
X24106Y28179D01*
X24052Y28048D01*
X23952Y27948D01*
X23821Y27894D01*
X23679Y27894D01*
G37*
%LPD*%
%LPC*%
G36*
X20679Y27894D02*
X20679Y27894D01*
X20548Y27948D01*
X20448Y28048D01*
X20394Y28179D01*
X20394Y28321D01*
X20448Y28452D01*
X20548Y28552D01*
X20679Y28606D01*
X20821Y28606D01*
X20952Y28552D01*
X21052Y28452D01*
X21106Y28321D01*
X21106Y28179D01*
X21052Y28048D01*
X20952Y27948D01*
X20821Y27894D01*
X20679Y27894D01*
G37*
%LPD*%
%LPC*%
G36*
X32429Y25894D02*
X32429Y25894D01*
X32298Y25948D01*
X32198Y26048D01*
X32144Y26179D01*
X32144Y26321D01*
X32198Y26452D01*
X32298Y26552D01*
X32429Y26606D01*
X32571Y26606D01*
X32702Y26552D01*
X32802Y26452D01*
X32856Y26321D01*
X32856Y26179D01*
X32802Y26048D01*
X32702Y25948D01*
X32571Y25894D01*
X32429Y25894D01*
G37*
%LPD*%
%LPC*%
G36*
X29429Y29894D02*
X29429Y29894D01*
X29298Y29948D01*
X29198Y30048D01*
X29144Y30179D01*
X29144Y30321D01*
X29198Y30452D01*
X29298Y30552D01*
X29429Y30606D01*
X29571Y30606D01*
X29702Y30552D01*
X29802Y30452D01*
X29856Y30321D01*
X29856Y30179D01*
X29802Y30048D01*
X29702Y29948D01*
X29571Y29894D01*
X29429Y29894D01*
G37*
%LPD*%
%LPC*%
G36*
X20679Y29894D02*
X20679Y29894D01*
X20548Y29948D01*
X20448Y30048D01*
X20394Y30179D01*
X20394Y30321D01*
X20448Y30452D01*
X20548Y30552D01*
X20679Y30606D01*
X20821Y30606D01*
X20952Y30552D01*
X21052Y30452D01*
X21106Y30321D01*
X21106Y30179D01*
X21052Y30048D01*
X20952Y29948D01*
X20821Y29894D01*
X20679Y29894D01*
G37*
%LPD*%
%LPC*%
G36*
X31363Y8038D02*
X31363Y8038D01*
X31175Y8225D01*
X31175Y8491D01*
X31363Y8679D01*
X31629Y8679D01*
X31817Y8491D01*
X31817Y8225D01*
X31629Y8038D01*
X31363Y8038D01*
G37*
%LPD*%
%LPC*%
G36*
X47111Y8038D02*
X47111Y8038D01*
X46923Y8225D01*
X46923Y8491D01*
X47111Y8679D01*
X47377Y8679D01*
X47565Y8491D01*
X47565Y8225D01*
X47377Y8038D01*
X47111Y8038D01*
G37*
%LPD*%
%LPC*%
G36*
X47111Y14943D02*
X47111Y14943D01*
X46923Y15131D01*
X46923Y15397D01*
X47111Y15585D01*
X47377Y15585D01*
X47565Y15397D01*
X47565Y15131D01*
X47377Y14943D01*
X47111Y14943D01*
G37*
%LPD*%
%LPC*%
G36*
X47111Y9038D02*
X47111Y9038D01*
X46923Y9225D01*
X46923Y9491D01*
X47111Y9679D01*
X47377Y9679D01*
X47565Y9491D01*
X47565Y9225D01*
X47377Y9038D01*
X47111Y9038D01*
G37*
%LPD*%
%LPC*%
G36*
X31363Y13943D02*
X31363Y13943D01*
X31175Y14131D01*
X31175Y14397D01*
X31363Y14585D01*
X31629Y14585D01*
X31817Y14397D01*
X31817Y14131D01*
X31629Y13943D01*
X31363Y13943D01*
G37*
%LPD*%
%LPC*%
G36*
X47111Y13943D02*
X47111Y13943D01*
X46923Y14131D01*
X46923Y14397D01*
X47111Y14585D01*
X47377Y14585D01*
X47565Y14397D01*
X47565Y14131D01*
X47377Y13943D01*
X47111Y13943D01*
G37*
%LPD*%
%LPC*%
G36*
X15615Y13943D02*
X15615Y13943D01*
X15427Y14131D01*
X15427Y14397D01*
X15615Y14585D01*
X15881Y14585D01*
X16069Y14397D01*
X16069Y14131D01*
X15881Y13943D01*
X15615Y13943D01*
G37*
%LPD*%
%LPC*%
G36*
X15615Y8038D02*
X15615Y8038D01*
X15427Y8225D01*
X15427Y8491D01*
X15615Y8679D01*
X15881Y8679D01*
X16069Y8491D01*
X16069Y8225D01*
X15881Y8038D01*
X15615Y8038D01*
G37*
%LPD*%
%LPC*%
G36*
X47111Y2132D02*
X47111Y2132D01*
X46923Y2320D01*
X46923Y2586D01*
X47111Y2774D01*
X47377Y2774D01*
X47565Y2586D01*
X47565Y2320D01*
X47377Y2132D01*
X47111Y2132D01*
G37*
%LPD*%
%LPC*%
G36*
X47111Y3132D02*
X47111Y3132D01*
X46923Y3320D01*
X46923Y3586D01*
X47111Y3774D01*
X47377Y3774D01*
X47565Y3586D01*
X47565Y3320D01*
X47377Y3132D01*
X47111Y3132D01*
G37*
%LPD*%
%LPC*%
G36*
X2436Y10679D02*
X2436Y10679D01*
X2318Y10728D01*
X2228Y10818D01*
X2179Y10936D01*
X2179Y11064D01*
X2228Y11182D01*
X2318Y11272D01*
X2436Y11321D01*
X2564Y11321D01*
X2682Y11272D01*
X2772Y11182D01*
X2821Y11064D01*
X2821Y10936D01*
X2772Y10818D01*
X2682Y10728D01*
X2564Y10679D01*
X2436Y10679D01*
G37*
%LPD*%
%LPC*%
G36*
X1436Y10179D02*
X1436Y10179D01*
X1318Y10228D01*
X1228Y10318D01*
X1179Y10436D01*
X1179Y10564D01*
X1228Y10682D01*
X1318Y10772D01*
X1436Y10821D01*
X1564Y10821D01*
X1682Y10772D01*
X1772Y10682D01*
X1821Y10564D01*
X1821Y10436D01*
X1772Y10318D01*
X1682Y10228D01*
X1564Y10179D01*
X1436Y10179D01*
G37*
%LPD*%
%LPC*%
G36*
X2436Y7679D02*
X2436Y7679D01*
X2318Y7728D01*
X2228Y7818D01*
X2179Y7936D01*
X2179Y8064D01*
X2228Y8182D01*
X2318Y8272D01*
X2436Y8321D01*
X2564Y8321D01*
X2682Y8272D01*
X2772Y8182D01*
X2821Y8064D01*
X2821Y7936D01*
X2772Y7818D01*
X2682Y7728D01*
X2564Y7679D01*
X2436Y7679D01*
G37*
%LPD*%
%LPC*%
G36*
X2436Y9679D02*
X2436Y9679D01*
X2318Y9728D01*
X2228Y9818D01*
X2179Y9936D01*
X2179Y10064D01*
X2228Y10182D01*
X2318Y10272D01*
X2436Y10321D01*
X2564Y10321D01*
X2682Y10272D01*
X2772Y10182D01*
X2821Y10064D01*
X2821Y9936D01*
X2772Y9818D01*
X2682Y9728D01*
X2564Y9679D01*
X2436Y9679D01*
G37*
%LPD*%
%LPC*%
G36*
X1436Y9179D02*
X1436Y9179D01*
X1318Y9228D01*
X1228Y9318D01*
X1179Y9436D01*
X1179Y9564D01*
X1228Y9682D01*
X1318Y9772D01*
X1436Y9821D01*
X1564Y9821D01*
X1682Y9772D01*
X1772Y9682D01*
X1821Y9564D01*
X1821Y9436D01*
X1772Y9318D01*
X1682Y9228D01*
X1564Y9179D01*
X1436Y9179D01*
G37*
%LPD*%
%LPC*%
G36*
X2436Y8679D02*
X2436Y8679D01*
X2318Y8728D01*
X2228Y8818D01*
X2179Y8936D01*
X2179Y9064D01*
X2228Y9182D01*
X2318Y9272D01*
X2436Y9321D01*
X2564Y9321D01*
X2682Y9272D01*
X2772Y9182D01*
X2821Y9064D01*
X2821Y8936D01*
X2772Y8818D01*
X2682Y8728D01*
X2564Y8679D01*
X2436Y8679D01*
G37*
%LPD*%
%LPC*%
G36*
X1436Y8179D02*
X1436Y8179D01*
X1318Y8228D01*
X1228Y8318D01*
X1179Y8436D01*
X1179Y8564D01*
X1228Y8682D01*
X1318Y8772D01*
X1436Y8821D01*
X1564Y8821D01*
X1682Y8772D01*
X1772Y8682D01*
X1821Y8564D01*
X1821Y8436D01*
X1772Y8318D01*
X1682Y8228D01*
X1564Y8179D01*
X1436Y8179D01*
G37*
%LPD*%
%LPC*%
G36*
X1436Y13179D02*
X1436Y13179D01*
X1318Y13228D01*
X1228Y13318D01*
X1179Y13436D01*
X1179Y13564D01*
X1228Y13682D01*
X1318Y13772D01*
X1436Y13821D01*
X1564Y13821D01*
X1682Y13772D01*
X1772Y13682D01*
X1821Y13564D01*
X1821Y13436D01*
X1772Y13318D01*
X1682Y13228D01*
X1564Y13179D01*
X1436Y13179D01*
G37*
%LPD*%
%LPC*%
G36*
X2436Y12679D02*
X2436Y12679D01*
X2318Y12728D01*
X2228Y12818D01*
X2179Y12936D01*
X2179Y13064D01*
X2228Y13182D01*
X2318Y13272D01*
X2436Y13321D01*
X2564Y13321D01*
X2682Y13272D01*
X2772Y13182D01*
X2821Y13064D01*
X2821Y12936D01*
X2772Y12818D01*
X2682Y12728D01*
X2564Y12679D01*
X2436Y12679D01*
G37*
%LPD*%
%LPC*%
G36*
X1436Y7179D02*
X1436Y7179D01*
X1318Y7228D01*
X1228Y7318D01*
X1179Y7436D01*
X1179Y7564D01*
X1228Y7682D01*
X1318Y7772D01*
X1436Y7821D01*
X1564Y7821D01*
X1682Y7772D01*
X1772Y7682D01*
X1821Y7564D01*
X1821Y7436D01*
X1772Y7318D01*
X1682Y7228D01*
X1564Y7179D01*
X1436Y7179D01*
G37*
%LPD*%
%LPC*%
G36*
X1436Y12179D02*
X1436Y12179D01*
X1318Y12228D01*
X1228Y12318D01*
X1179Y12436D01*
X1179Y12564D01*
X1228Y12682D01*
X1318Y12772D01*
X1436Y12821D01*
X1564Y12821D01*
X1682Y12772D01*
X1772Y12682D01*
X1821Y12564D01*
X1821Y12436D01*
X1772Y12318D01*
X1682Y12228D01*
X1564Y12179D01*
X1436Y12179D01*
G37*
%LPD*%
%LPC*%
G36*
X2436Y11679D02*
X2436Y11679D01*
X2318Y11728D01*
X2228Y11818D01*
X2179Y11936D01*
X2179Y12064D01*
X2228Y12182D01*
X2318Y12272D01*
X2436Y12321D01*
X2564Y12321D01*
X2682Y12272D01*
X2772Y12182D01*
X2821Y12064D01*
X2821Y11936D01*
X2772Y11818D01*
X2682Y11728D01*
X2564Y11679D01*
X2436Y11679D01*
G37*
%LPD*%
%LPC*%
G36*
X1436Y11179D02*
X1436Y11179D01*
X1318Y11228D01*
X1228Y11318D01*
X1179Y11436D01*
X1179Y11564D01*
X1228Y11682D01*
X1318Y11772D01*
X1436Y11821D01*
X1564Y11821D01*
X1682Y11772D01*
X1772Y11682D01*
X1821Y11564D01*
X1821Y11436D01*
X1772Y11318D01*
X1682Y11228D01*
X1564Y11179D01*
X1436Y11179D01*
G37*
%LPD*%
%LPC*%
G36*
X36329Y18829D02*
X36329Y18829D01*
X36329Y19363D01*
X36334Y19362D01*
X36388Y19344D01*
X36439Y19319D01*
X36485Y19285D01*
X36525Y19245D01*
X36559Y19199D01*
X36584Y19148D01*
X36602Y19094D01*
X36611Y19038D01*
X36611Y18829D01*
X36329Y18829D01*
G37*
%LPD*%
%LPC*%
G36*
X36329Y18671D02*
X36329Y18671D01*
X36611Y18671D01*
X36611Y18462D01*
X36602Y18406D01*
X36584Y18352D01*
X36559Y18301D01*
X36525Y18255D01*
X36485Y18215D01*
X36439Y18181D01*
X36388Y18156D01*
X36334Y18138D01*
X36329Y18137D01*
X36329Y18671D01*
G37*
%LPD*%
%LPC*%
G36*
X35889Y18829D02*
X35889Y18829D01*
X35889Y19038D01*
X35898Y19094D01*
X35916Y19148D01*
X35941Y19199D01*
X35975Y19245D01*
X36015Y19285D01*
X36061Y19319D01*
X36112Y19344D01*
X36166Y19362D01*
X36171Y19363D01*
X36171Y18829D01*
X35889Y18829D01*
G37*
%LPD*%
%LPC*%
G36*
X36166Y18138D02*
X36166Y18138D01*
X36112Y18156D01*
X36061Y18181D01*
X36015Y18215D01*
X35975Y18255D01*
X35941Y18301D01*
X35916Y18352D01*
X35898Y18406D01*
X35889Y18462D01*
X35889Y18671D01*
X36171Y18671D01*
X36171Y18137D01*
X36166Y18138D01*
G37*
%LPD*%
%LPC*%
G36*
X2147Y7079D02*
X2147Y7079D01*
X2148Y7084D01*
X2166Y7138D01*
X2191Y7189D01*
X2225Y7235D01*
X2265Y7275D01*
X2311Y7309D01*
X2362Y7334D01*
X2416Y7352D01*
X2421Y7353D01*
X2421Y7079D01*
X2147Y7079D01*
G37*
%LPD*%
%LPC*%
G36*
X2579Y7079D02*
X2579Y7079D01*
X2579Y7353D01*
X2584Y7352D01*
X2638Y7334D01*
X2689Y7309D01*
X2735Y7275D01*
X2775Y7235D01*
X2809Y7189D01*
X2834Y7138D01*
X2852Y7084D01*
X2853Y7079D01*
X2579Y7079D01*
G37*
%LPD*%
%LPC*%
G36*
X2579Y6921D02*
X2579Y6921D01*
X2853Y6921D01*
X2852Y6916D01*
X2834Y6862D01*
X2809Y6811D01*
X2775Y6765D01*
X2735Y6725D01*
X2689Y6691D01*
X2638Y6666D01*
X2584Y6648D01*
X2579Y6647D01*
X2579Y6921D01*
G37*
%LPD*%
%LPC*%
G36*
X2416Y6648D02*
X2416Y6648D01*
X2362Y6666D01*
X2311Y6691D01*
X2265Y6725D01*
X2225Y6765D01*
X2191Y6811D01*
X2166Y6862D01*
X2148Y6916D01*
X2147Y6921D01*
X2421Y6921D01*
X2421Y6647D01*
X2416Y6648D01*
G37*
%LPD*%
D10*
X20750Y30250D03*
X20750Y29250D03*
X20750Y28250D03*
X20750Y27250D03*
X20750Y26250D03*
X23750Y26250D03*
X23750Y27250D03*
X23750Y28250D03*
X23750Y29250D03*
X23750Y30250D03*
X25075Y30250D03*
X25075Y29250D03*
X25075Y28250D03*
X25075Y27250D03*
X25075Y26250D03*
X28075Y26250D03*
X28075Y27250D03*
X28075Y28250D03*
X28075Y29250D03*
X28075Y30250D03*
X29500Y30250D03*
X29500Y29250D03*
X29500Y28250D03*
X29500Y27250D03*
X29500Y26250D03*
X32500Y26250D03*
X32500Y27250D03*
X32500Y28250D03*
X32500Y29250D03*
X32500Y30250D03*
D11*
X29250Y19010D02*
X29250Y18490D01*
X30250Y18490D02*
X30250Y19010D01*
X35250Y19010D02*
X35250Y18490D01*
X36250Y18490D02*
X36250Y19010D01*
X31250Y19010D02*
X31250Y18490D01*
X32250Y18490D02*
X32250Y19010D01*
X34250Y19010D02*
X34250Y18490D01*
X33250Y18490D02*
X33250Y19010D01*
X36250Y21490D02*
X36250Y22010D01*
X35250Y22010D02*
X35250Y21490D01*
X34250Y21490D02*
X34250Y22010D01*
X33250Y22010D02*
X33250Y21490D01*
X32250Y21490D02*
X32250Y22010D01*
X31250Y22010D02*
X31250Y21490D01*
X30250Y21490D02*
X30250Y22010D01*
X29250Y22010D02*
X29250Y21490D01*
D12*
X31496Y9358D03*
X31496Y8358D03*
X31496Y15264D03*
X31496Y14264D03*
X15748Y9358D03*
X15748Y8358D03*
X15748Y15264D03*
X15748Y14264D03*
X47244Y15264D03*
X47244Y14264D03*
X47244Y9358D03*
X47244Y8358D03*
X47244Y3453D03*
X47244Y2453D03*
D13*
X51000Y2000D03*
X51000Y30000D03*
X2000Y30000D03*
X2000Y2000D03*
D14*
X1500Y14500D03*
X2500Y14000D03*
X1500Y13500D03*
X2500Y13000D03*
X1500Y12500D03*
X2500Y12000D03*
X1500Y11500D03*
X2500Y11000D03*
X1500Y10500D03*
X2500Y10000D03*
X1500Y9500D03*
X2500Y9000D03*
X1500Y8500D03*
X2500Y8000D03*
X1500Y7500D03*
X2500Y7000D03*
D15*
X13500Y22000D03*
X13500Y20500D03*
X13500Y19000D03*
X13250Y17750D03*
X5500Y17250D03*
X5500Y16250D03*
X5500Y15250D03*
X5500Y14250D03*
X5500Y13000D03*
X5500Y12000D03*
X5500Y11000D03*
X5500Y9750D03*
X5500Y8750D03*
X5500Y7750D03*
X5500Y6750D03*
X5500Y5750D03*
X20000Y22250D03*
X21500Y20250D03*
X23000Y20250D03*
X24500Y20250D03*
X20000Y20000D03*
X27500Y20250D03*
X26750Y20250D03*
X28250Y20250D03*
X39500Y18250D03*
X38750Y18250D03*
X46250Y16750D03*
X27750Y22250D03*
X2500Y16250D03*
X2500Y17750D03*
X2500Y19750D03*
X5500Y19750D03*
X5500Y18250D03*
X9750Y15500D03*
X11500Y14250D03*
X9750Y13000D03*
X9750Y12000D03*
X9800Y11100D03*
X9800Y10400D03*
X14600Y10400D03*
X17600Y10400D03*
X9800Y9500D03*
X9800Y8200D03*
X6300Y5800D03*
X6300Y6800D03*
X6300Y7700D03*
X1100Y6000D03*
X3300Y5200D03*
X5300Y4900D03*
X9800Y7200D03*
X9800Y6000D03*
X9800Y5100D03*
X12000Y5100D03*
X15300Y5000D03*
X19600Y4900D03*
X24500Y5000D03*
X31100Y4900D03*
X37600Y5000D03*
X42300Y4900D03*
X44000Y3500D03*
X41700Y900D03*
X33000Y1000D03*
X36000Y1000D03*
X39000Y1000D03*
X31000Y1000D03*
X29000Y1000D03*
X27000Y1000D03*
X25000Y1000D03*
X23000Y1000D03*
X21000Y1000D03*
X19000Y1000D03*
X17000Y1000D03*
X15000Y1000D03*
X13000Y1000D03*
X11000Y1000D03*
X9000Y1000D03*
X7000Y1000D03*
X5000Y1000D03*
X1000Y4000D03*
X3000Y4000D03*
X4000Y3000D03*
X4000Y2000D03*
X44300Y9900D03*
X44300Y12900D03*
X47300Y12900D03*
X49300Y7900D03*
X50300Y13900D03*
X31050Y17650D03*
X30300Y19900D03*
X46000Y29000D03*
X47000Y27000D03*
X49000Y25000D03*
X51000Y23000D03*
X51000Y20000D03*
X43000Y29000D03*
X39000Y29000D03*
X35750Y29000D03*
X19000Y30000D03*
X19000Y28000D03*
X19000Y26000D03*
X17000Y30000D03*
X15000Y30000D03*
X13000Y30000D03*
X11000Y30000D03*
X9000Y30000D03*
X7000Y30000D03*
X5000Y30000D03*
X3000Y28000D03*
X1000Y26000D03*
X1000Y24000D03*
X1000Y22000D03*
X8000Y23000D03*
X10000Y23000D03*
X12000Y23000D03*
X6000Y23000D03*
X4000Y23000D03*
X7000Y22000D03*
X9000Y22000D03*
X11000Y22000D03*
X5000Y22000D03*
X9000Y20000D03*
X11000Y19000D03*
X10000Y19000D03*
X10000Y17500D03*
X14500Y16750D03*
X16250Y16750D03*
X18750Y16750D03*
X21000Y16500D03*
X18000Y19000D03*
X16750Y20000D03*
X18000Y20000D03*
X19250Y20000D03*
X16000Y19250D03*
X15500Y18500D03*
X14500Y17750D03*
X13750Y17000D03*
X37300Y23650D03*
X29300Y23650D03*
X27050Y17650D03*
X24300Y14400D03*
X32300Y19900D03*
X37050Y19400D03*
X37050Y21400D03*
X26750Y29250D03*
X26750Y30250D03*
X26750Y27250D03*
X28750Y28250D03*
D16*
X15748Y15264D02*
X16500Y14512D01*
X16500Y10110D02*
X15748Y9358D01*
X16500Y11500D02*
X16500Y14512D01*
X16500Y11500D02*
X16500Y10110D01*
X31496Y15264D02*
X32500Y14260D01*
X32500Y10362D02*
X31496Y9358D01*
X32500Y11500D02*
X32500Y14260D01*
D15*
X16500Y11500D03*
D16*
X32500Y11500D02*
X32500Y10362D01*
D15*
X32500Y11500D03*
X32000Y11500D03*
X16000Y11500D03*
X26000Y21250D03*
D17*
X26000Y17500D02*
X32000Y11500D01*
X26000Y17500D02*
X26000Y21250D01*
D16*
X26000Y17500D02*
X25500Y17500D01*
X25250Y17750D01*
D15*
X25250Y17750D03*
X23500Y17500D03*
D16*
X25500Y17500D01*
X23500Y17500D02*
X22000Y17500D01*
D15*
X22000Y17500D03*
D16*
X20500Y17500D01*
D15*
X20500Y17500D03*
D16*
X23750Y30250D02*
X24500Y31000D01*
X28825Y31000D01*
X31750Y31000D01*
X32500Y30250D01*
X28825Y31000D02*
X28075Y30250D01*
X32000Y28750D02*
X32500Y29250D01*
X28575Y28750D02*
X28075Y29250D01*
X28575Y28750D02*
X32000Y28750D01*
X28075Y29250D02*
X27575Y28750D01*
X24250Y28750D02*
X23750Y29250D01*
X24250Y28750D02*
X27575Y28750D01*
X32000Y27750D02*
X32500Y27250D01*
X32000Y27750D02*
X27575Y27750D01*
X24250Y27750D01*
X23750Y27250D01*
X27575Y27750D02*
X28075Y27250D01*
D15*
X35250Y25000D03*
D16*
X30750Y25000D01*
X29500Y26250D01*
X30750Y25000D02*
X26325Y25000D01*
X25075Y26250D01*
X26325Y25000D02*
X22000Y25000D01*
X20750Y26250D01*
D15*
X36250Y25500D03*
D16*
X31250Y25500D01*
X29500Y27250D01*
X29000Y26750D01*
X25575Y26750D02*
X25075Y27250D01*
X25575Y26750D02*
X29000Y26750D01*
X25075Y27250D02*
X24575Y26750D01*
X21250Y26750D02*
X20750Y27250D01*
X21250Y26750D02*
X24575Y26750D01*
X29000Y29750D02*
X29500Y29250D01*
X25575Y29750D02*
X25075Y29250D01*
X25575Y29750D02*
X29000Y29750D01*
X21250Y29750D02*
X20750Y29250D01*
X21250Y29750D02*
X25575Y29750D01*
D15*
X9250Y8250D03*
D16*
X9250Y16500D01*
D15*
X9250Y16500D03*
X7500Y6250D03*
D16*
X8250Y7000D02*
X8250Y18500D01*
X8250Y7000D02*
X7500Y6250D01*
D15*
X8250Y18500D03*
X7500Y7250D03*
D16*
X7750Y7500D01*
X7750Y19500D01*
D15*
X7750Y19500D03*
X40250Y19750D03*
D16*
X32750Y19750D01*
X32250Y19250D01*
X32250Y18750D01*
D15*
X7500Y5250D03*
D16*
X8750Y6500D02*
X8750Y17500D01*
X8750Y6500D02*
X7500Y5250D01*
D15*
X8750Y17500D03*
D16*
X29500Y28250D02*
X32500Y28250D01*
D15*
X14500Y23000D03*
D16*
X13750Y23750D01*
X3250Y23750D01*
D15*
X3250Y23750D03*
X3315Y22565D03*
D16*
X18815Y22565D02*
X19000Y22750D01*
X18815Y22565D02*
X3315Y22565D01*
D15*
X19000Y22750D03*
X7250Y9500D03*
D16*
X7250Y17750D01*
D15*
X7250Y17750D03*
X6250Y9000D03*
D16*
X6250Y15500D01*
D15*
X6250Y15500D03*
X6500Y4500D03*
D16*
X4750Y4500D01*
X3500Y5750D01*
X3500Y10250D01*
D15*
X3500Y10250D03*
X6750Y11500D03*
D16*
X6750Y10000D01*
D15*
X6750Y10000D03*
M02*
