G75*
%MOIN*%
%OFA0B0*%
%FSLAX25Y25*%
%IPPOS*%
%LPD*%
%AMOC8*
5,1,8,0,0,1.08239X$1,22.5*
%
%ADD10R,0.08250X0.08250*%
%ADD11C,0.08250*%
%ADD12C,0.01000*%
%ADD13C,0.02978*%
D10*
X0097850Y0039583D03*
D11*
X0048244Y0039583D03*
X0064780Y0039583D03*
X0081315Y0039583D03*
X0081315Y0061236D03*
X0064780Y0061236D03*
X0048244Y0061236D03*
X0097850Y0061236D03*
D12*
X0097850Y0080528D01*
X0081315Y0080528D02*
X0081315Y0061236D01*
X0088795Y0047063D02*
X0088795Y0115567D01*
X0081315Y0123047D01*
X0071472Y0116354D02*
X0071472Y0045094D01*
X0065961Y0039583D01*
X0064780Y0039583D01*
X0056118Y0047457D02*
X0056118Y0115567D01*
X0048244Y0123441D01*
X0064780Y0123047D02*
X0071472Y0116354D01*
X0097850Y0123047D02*
X0104543Y0116354D01*
X0104543Y0046276D01*
X0097850Y0039583D01*
X0088795Y0047063D02*
X0081315Y0039583D01*
X0064780Y0061236D02*
X0064780Y0080528D01*
X0048244Y0079740D02*
X0048244Y0061236D01*
X0056118Y0047457D02*
X0048244Y0039583D01*
D13*
X0048244Y0079740D03*
X0064780Y0080528D03*
X0081315Y0080528D03*
X0097850Y0080528D03*
X0097850Y0123047D03*
X0081315Y0123047D03*
X0064780Y0123047D03*
X0048244Y0123441D03*
M02*
