G75*
%MOIN*%
%OFA0B0*%
%FSLAX25Y25*%
%IPPOS*%
%LPD*%
%AMOC8*
5,1,8,0,0,1.08239X$1,22.5*
%
%ADD10R,0.05906X0.05118*%
%ADD11R,0.08250X0.08250*%
%ADD12C,0.08250*%
%ADD13C,0.01000*%
%ADD14C,0.02978*%
D10*
X0048244Y0088992D03*
X0048244Y0096472D03*
X0048244Y0107102D03*
X0048244Y0114583D03*
X0064780Y0114583D03*
X0064780Y0107102D03*
X0064780Y0096472D03*
X0064780Y0088992D03*
X0081354Y0088992D03*
X0081354Y0096472D03*
X0081354Y0107102D03*
X0081354Y0114583D03*
X0097850Y0114583D03*
X0097850Y0107102D03*
X0097850Y0096472D03*
X0097850Y0088992D03*
D11*
X0097850Y0039583D03*
D12*
X0048244Y0039583D03*
X0064780Y0039583D03*
X0081315Y0039583D03*
X0081315Y0061236D03*
X0064780Y0061236D03*
X0048244Y0061236D03*
X0097850Y0061236D03*
D13*
X0097850Y0080528D02*
X0097850Y0088992D01*
X0081354Y0088992D02*
X0081354Y0080567D01*
X0081315Y0080528D01*
X0081354Y0096472D02*
X0081354Y0107102D01*
X0081354Y0114583D02*
X0081354Y0123008D01*
X0081315Y0123047D01*
X0064780Y0123047D02*
X0064780Y0114583D01*
X0064780Y0107102D02*
X0064780Y0096472D01*
X0064780Y0088992D02*
X0064780Y0080528D01*
X0048244Y0079740D02*
X0048244Y0088992D01*
X0048244Y0096472D02*
X0048244Y0107102D01*
X0048244Y0114583D02*
X0048244Y0123441D01*
X0097850Y0123047D02*
X0097850Y0114583D01*
D14*
X0097850Y0123047D03*
X0081315Y0123047D03*
X0064780Y0123047D03*
X0048244Y0123441D03*
X0048244Y0079740D03*
X0064780Y0080528D03*
X0081315Y0080528D03*
X0097850Y0080528D03*
M02*
