G04 EAGLE Gerber RS-274X export*
G75*
%MOMM*%
%FSLAX34Y34*%
%LPD*%
%INSilkscreen Top*%
%IPPOS*%
%AMOC8*
5,1,8,0,0,1.08239X$1,22.5*%
G01*
%ADD10C,0.203200*%
%ADD11C,0.076200*%
%ADD12C,0.152400*%
%ADD13C,0.127000*%
%ADD14C,0.101600*%


D10*
X274100Y27750D02*
X267750Y21400D01*
X248700Y27750D02*
X242350Y21400D01*
X229650Y21400D01*
X223300Y27750D01*
X248700Y27750D02*
X255050Y21400D01*
X267750Y21400D01*
X197900Y27750D02*
X191550Y21400D01*
X216950Y21400D02*
X223300Y27750D01*
X216950Y21400D02*
X204250Y21400D01*
X197900Y27750D01*
X172500Y27750D02*
X166150Y21400D01*
X153450Y21400D01*
X147100Y27750D01*
X172500Y27750D02*
X178850Y21400D01*
X191550Y21400D01*
X121700Y27750D02*
X115350Y21400D01*
X140750Y21400D02*
X147100Y27750D01*
X140750Y21400D02*
X128050Y21400D01*
X121700Y27750D01*
X96300Y27750D02*
X96300Y40450D01*
X102650Y46800D01*
X102650Y21400D02*
X115350Y21400D01*
X420150Y21400D02*
X426500Y27750D01*
X420150Y21400D02*
X407450Y21400D01*
X401100Y27750D01*
X375700Y27750D02*
X369350Y21400D01*
X394750Y21400D02*
X401100Y27750D01*
X394750Y21400D02*
X382050Y21400D01*
X375700Y27750D01*
X350300Y27750D02*
X343950Y21400D01*
X331250Y21400D01*
X324900Y27750D01*
X350300Y27750D02*
X356650Y21400D01*
X369350Y21400D01*
X299500Y27750D02*
X293150Y21400D01*
X318550Y21400D02*
X324900Y27750D01*
X318550Y21400D02*
X305850Y21400D01*
X299500Y27750D01*
X280450Y21400D02*
X274100Y27750D01*
X280450Y21400D02*
X293150Y21400D01*
X267750Y72200D02*
X255050Y72200D01*
X267750Y72200D02*
X274100Y65850D01*
X229650Y72200D02*
X223300Y65850D01*
X229650Y72200D02*
X242350Y72200D01*
X248700Y65850D01*
X255050Y72200D01*
X191550Y72200D02*
X178850Y72200D01*
X191550Y72200D02*
X197900Y65850D01*
X204250Y72200D01*
X216950Y72200D01*
X223300Y65850D01*
X153450Y72200D02*
X147100Y65850D01*
X153450Y72200D02*
X166150Y72200D01*
X172500Y65850D01*
X178850Y72200D01*
X115350Y72200D02*
X102650Y72200D01*
X115350Y72200D02*
X121700Y65850D01*
X128050Y72200D01*
X140750Y72200D01*
X147100Y65850D01*
X96300Y65850D02*
X96300Y53150D01*
X102650Y46800D01*
X401100Y65850D02*
X407450Y72200D01*
X420150Y72200D01*
X426500Y65850D01*
X369350Y72200D02*
X356650Y72200D01*
X369350Y72200D02*
X375700Y65850D01*
X382050Y72200D01*
X394750Y72200D01*
X401100Y65850D01*
X331250Y72200D02*
X324900Y65850D01*
X331250Y72200D02*
X343950Y72200D01*
X350300Y65850D01*
X356650Y72200D01*
X293150Y72200D02*
X280450Y72200D01*
X293150Y72200D02*
X299500Y65850D01*
X305850Y72200D01*
X318550Y72200D01*
X324900Y65850D01*
X280450Y72200D02*
X274100Y65850D01*
X121700Y65850D02*
X121700Y27750D01*
X147100Y27750D02*
X147100Y65850D01*
X172500Y65850D02*
X172500Y27750D01*
X197900Y27750D02*
X197900Y65850D01*
X223300Y65850D02*
X223300Y27750D01*
X248700Y27750D02*
X248700Y65850D01*
X274100Y65850D02*
X274100Y27750D01*
X299500Y27750D02*
X299500Y65850D01*
X324900Y65850D02*
X324900Y27750D01*
X350300Y27750D02*
X350300Y65850D01*
X375700Y65850D02*
X375700Y27750D01*
X401100Y27750D02*
X401100Y65850D01*
X604300Y65850D02*
X604300Y53150D01*
X604300Y40450D02*
X604300Y27750D01*
X604300Y40450D02*
X597950Y46800D01*
X604300Y53150D01*
X445550Y72200D02*
X432850Y72200D01*
X445550Y72200D02*
X451900Y65850D01*
X432850Y72200D02*
X426500Y65850D01*
X578900Y65850D02*
X585250Y72200D01*
X597950Y72200D01*
X604300Y65850D01*
X547150Y72200D02*
X534450Y72200D01*
X547150Y72200D02*
X553500Y65850D01*
X559850Y72200D01*
X572550Y72200D01*
X578900Y65850D01*
X509050Y72200D02*
X502700Y65850D01*
X509050Y72200D02*
X521750Y72200D01*
X528100Y65850D01*
X534450Y72200D01*
X470950Y72200D02*
X458250Y72200D01*
X470950Y72200D02*
X477300Y65850D01*
X483650Y72200D01*
X496350Y72200D01*
X502700Y65850D01*
X458250Y72200D02*
X451900Y65850D01*
X426500Y65850D02*
X426500Y27750D01*
X451900Y27750D02*
X451900Y65850D01*
X477300Y65850D02*
X477300Y27750D01*
X502700Y27750D02*
X502700Y65850D01*
X528100Y65850D02*
X528100Y27750D01*
X553500Y27750D02*
X553500Y65850D01*
X578900Y65850D02*
X578900Y27750D01*
X585250Y21400D02*
X597950Y21400D01*
X585250Y21400D02*
X578900Y27750D01*
X597950Y21400D02*
X604300Y27750D01*
X451900Y27750D02*
X445550Y21400D01*
X432850Y21400D01*
X426500Y27750D01*
X483650Y21400D02*
X496350Y21400D01*
X483650Y21400D02*
X477300Y27750D01*
X470950Y21400D01*
X458250Y21400D01*
X451900Y27750D01*
X521750Y21400D02*
X528100Y27750D01*
X521750Y21400D02*
X509050Y21400D01*
X502700Y27750D01*
X496350Y21400D01*
X559850Y21400D02*
X572550Y21400D01*
X559850Y21400D02*
X553500Y27750D01*
X547150Y21400D01*
X534450Y21400D01*
X528100Y27750D01*
X572550Y21400D02*
X578900Y27750D01*
X102650Y21400D02*
X96300Y27750D01*
X96300Y65850D02*
X102650Y72200D01*
X100110Y17590D02*
X116620Y17590D01*
D11*
X98120Y76081D02*
X98120Y79439D01*
X98121Y76081D02*
X98119Y76021D01*
X98113Y75961D01*
X98104Y75901D01*
X98091Y75842D01*
X98074Y75784D01*
X98054Y75728D01*
X98030Y75672D01*
X98002Y75619D01*
X97972Y75567D01*
X97938Y75517D01*
X97901Y75469D01*
X97861Y75424D01*
X97818Y75381D01*
X97773Y75341D01*
X97725Y75304D01*
X97675Y75270D01*
X97623Y75240D01*
X97570Y75212D01*
X97514Y75188D01*
X97458Y75168D01*
X97400Y75151D01*
X97341Y75138D01*
X97281Y75129D01*
X97221Y75123D01*
X97161Y75121D01*
X96681Y75121D01*
X100419Y78479D02*
X101619Y79439D01*
X101619Y75121D01*
X102818Y75121D02*
X100419Y75121D01*
D12*
X151030Y312059D02*
X143410Y318409D01*
X143410Y305709D01*
X151030Y312059D01*
X153570Y259481D02*
X185574Y259481D01*
X185574Y327045D01*
X153570Y327045D01*
X153570Y259481D01*
X143410Y224350D02*
X151030Y218000D01*
X143410Y224350D02*
X143410Y211650D01*
X151030Y218000D01*
X153570Y165422D02*
X185574Y165422D01*
X185574Y232986D01*
X153570Y232986D01*
X153570Y165422D01*
X266030Y312059D02*
X258410Y318409D01*
X258410Y305709D01*
X266030Y312059D01*
X268570Y259481D02*
X300574Y259481D01*
X300574Y327045D01*
X268570Y327045D01*
X268570Y259481D01*
X258410Y224350D02*
X266030Y218000D01*
X258410Y224350D02*
X258410Y211650D01*
X266030Y218000D01*
X268570Y165422D02*
X300574Y165422D01*
X300574Y232986D01*
X268570Y232986D01*
X268570Y165422D01*
X394030Y312059D02*
X386410Y318409D01*
X386410Y305709D01*
X394030Y312059D01*
X396570Y259481D02*
X428574Y259481D01*
X428574Y327045D01*
X396570Y327045D01*
X396570Y259481D01*
X386410Y224350D02*
X394030Y218000D01*
X386410Y224350D02*
X386410Y211650D01*
X394030Y218000D01*
X396570Y165422D02*
X428574Y165422D01*
X428574Y232986D01*
X396570Y232986D01*
X396570Y165422D01*
X539410Y318409D02*
X547030Y312059D01*
X539410Y318409D02*
X539410Y305709D01*
X547030Y312059D01*
X549570Y259481D02*
X581574Y259481D01*
X581574Y327045D01*
X549570Y327045D01*
X549570Y259481D01*
X539410Y224350D02*
X547030Y218000D01*
X539410Y224350D02*
X539410Y211650D01*
X547030Y218000D01*
X549570Y165422D02*
X581574Y165422D01*
X581574Y232986D01*
X549570Y232986D01*
X549570Y165422D01*
D13*
X358000Y349000D02*
X358000Y399000D01*
X269900Y399000D01*
X269900Y349000D01*
X358000Y349000D01*
D14*
X346128Y335092D02*
X346128Y326004D01*
X346127Y326004D02*
X346125Y325905D01*
X346119Y325805D01*
X346110Y325706D01*
X346097Y325608D01*
X346080Y325510D01*
X346059Y325412D01*
X346034Y325316D01*
X346006Y325221D01*
X345974Y325127D01*
X345939Y325034D01*
X345900Y324942D01*
X345857Y324852D01*
X345812Y324764D01*
X345762Y324677D01*
X345710Y324593D01*
X345654Y324510D01*
X345596Y324430D01*
X345534Y324352D01*
X345469Y324277D01*
X345401Y324204D01*
X345331Y324134D01*
X345258Y324066D01*
X345183Y324001D01*
X345105Y323939D01*
X345025Y323881D01*
X344942Y323825D01*
X344858Y323773D01*
X344771Y323723D01*
X344683Y323678D01*
X344593Y323635D01*
X344501Y323596D01*
X344408Y323561D01*
X344314Y323529D01*
X344219Y323501D01*
X344123Y323476D01*
X344025Y323455D01*
X343927Y323438D01*
X343829Y323425D01*
X343730Y323416D01*
X343630Y323410D01*
X343531Y323408D01*
X342233Y323408D01*
X351401Y323408D02*
X354646Y323408D01*
X354759Y323410D01*
X354872Y323416D01*
X354985Y323426D01*
X355098Y323440D01*
X355210Y323457D01*
X355321Y323479D01*
X355431Y323504D01*
X355541Y323534D01*
X355649Y323567D01*
X355756Y323604D01*
X355862Y323644D01*
X355966Y323689D01*
X356069Y323737D01*
X356170Y323788D01*
X356269Y323843D01*
X356366Y323901D01*
X356461Y323963D01*
X356554Y324028D01*
X356644Y324096D01*
X356732Y324167D01*
X356818Y324242D01*
X356901Y324319D01*
X356981Y324399D01*
X357058Y324482D01*
X357133Y324568D01*
X357204Y324656D01*
X357272Y324746D01*
X357337Y324839D01*
X357399Y324934D01*
X357457Y325031D01*
X357512Y325130D01*
X357563Y325231D01*
X357611Y325334D01*
X357656Y325438D01*
X357696Y325544D01*
X357733Y325651D01*
X357766Y325759D01*
X357796Y325869D01*
X357821Y325979D01*
X357843Y326090D01*
X357860Y326202D01*
X357874Y326315D01*
X357884Y326428D01*
X357890Y326541D01*
X357892Y326654D01*
X357890Y326767D01*
X357884Y326880D01*
X357874Y326993D01*
X357860Y327106D01*
X357843Y327218D01*
X357821Y327329D01*
X357796Y327439D01*
X357766Y327549D01*
X357733Y327657D01*
X357696Y327764D01*
X357656Y327870D01*
X357611Y327974D01*
X357563Y328077D01*
X357512Y328178D01*
X357457Y328277D01*
X357399Y328374D01*
X357337Y328469D01*
X357272Y328562D01*
X357204Y328652D01*
X357133Y328740D01*
X357058Y328826D01*
X356981Y328909D01*
X356901Y328989D01*
X356818Y329066D01*
X356732Y329141D01*
X356644Y329212D01*
X356554Y329280D01*
X356461Y329345D01*
X356366Y329407D01*
X356269Y329465D01*
X356170Y329520D01*
X356069Y329571D01*
X355966Y329619D01*
X355862Y329664D01*
X355756Y329704D01*
X355649Y329741D01*
X355541Y329774D01*
X355431Y329804D01*
X355321Y329829D01*
X355210Y329851D01*
X355098Y329868D01*
X354985Y329882D01*
X354872Y329892D01*
X354759Y329898D01*
X354646Y329900D01*
X355296Y335092D02*
X351401Y335092D01*
X355296Y335092D02*
X355397Y335090D01*
X355497Y335084D01*
X355597Y335074D01*
X355697Y335061D01*
X355796Y335043D01*
X355895Y335022D01*
X355992Y334997D01*
X356089Y334968D01*
X356184Y334935D01*
X356278Y334899D01*
X356370Y334859D01*
X356461Y334816D01*
X356550Y334769D01*
X356637Y334719D01*
X356723Y334665D01*
X356806Y334608D01*
X356886Y334548D01*
X356965Y334485D01*
X357041Y334418D01*
X357114Y334349D01*
X357184Y334277D01*
X357252Y334203D01*
X357317Y334126D01*
X357378Y334046D01*
X357437Y333964D01*
X357492Y333880D01*
X357544Y333794D01*
X357593Y333706D01*
X357638Y333616D01*
X357680Y333524D01*
X357718Y333431D01*
X357752Y333336D01*
X357783Y333241D01*
X357810Y333144D01*
X357833Y333046D01*
X357853Y332947D01*
X357868Y332847D01*
X357880Y332747D01*
X357888Y332647D01*
X357892Y332546D01*
X357892Y332446D01*
X357888Y332345D01*
X357880Y332245D01*
X357868Y332145D01*
X357853Y332045D01*
X357833Y331946D01*
X357810Y331848D01*
X357783Y331751D01*
X357752Y331656D01*
X357718Y331561D01*
X357680Y331468D01*
X357638Y331376D01*
X357593Y331286D01*
X357544Y331198D01*
X357492Y331112D01*
X357437Y331028D01*
X357378Y330946D01*
X357317Y330866D01*
X357252Y330789D01*
X357184Y330715D01*
X357114Y330643D01*
X357041Y330574D01*
X356965Y330507D01*
X356886Y330444D01*
X356806Y330384D01*
X356723Y330327D01*
X356637Y330273D01*
X356550Y330223D01*
X356461Y330176D01*
X356370Y330133D01*
X356278Y330093D01*
X356184Y330057D01*
X356089Y330024D01*
X355992Y329995D01*
X355895Y329970D01*
X355796Y329949D01*
X355697Y329931D01*
X355597Y329918D01*
X355497Y329908D01*
X355397Y329902D01*
X355296Y329900D01*
X355296Y329899D02*
X352699Y329899D01*
D13*
X478800Y388850D02*
X503800Y388850D01*
X503800Y350750D01*
X478800Y350750D01*
X478800Y388850D01*
D12*
X442030Y374000D02*
X434410Y380350D01*
X434410Y367650D01*
X442030Y374000D01*
X444570Y346568D02*
X476574Y346568D01*
X476574Y388986D01*
X444570Y388986D01*
X444570Y346568D01*
D11*
X445784Y404262D02*
X455069Y404262D01*
X445784Y404262D02*
X445682Y404264D01*
X445581Y404270D01*
X445480Y404280D01*
X445379Y404293D01*
X445279Y404311D01*
X445180Y404332D01*
X445081Y404357D01*
X444984Y404386D01*
X444887Y404418D01*
X444792Y404454D01*
X444699Y404494D01*
X444607Y404537D01*
X444517Y404584D01*
X444428Y404635D01*
X444342Y404688D01*
X444258Y404745D01*
X444176Y404805D01*
X444096Y404868D01*
X444019Y404934D01*
X443944Y405003D01*
X443872Y405075D01*
X443803Y405150D01*
X443737Y405227D01*
X443674Y405307D01*
X443614Y405389D01*
X443557Y405473D01*
X443504Y405559D01*
X443453Y405648D01*
X443406Y405738D01*
X443363Y405830D01*
X443323Y405923D01*
X443287Y406018D01*
X443255Y406115D01*
X443226Y406212D01*
X443201Y406311D01*
X443180Y406410D01*
X443162Y406510D01*
X443149Y406611D01*
X443139Y406712D01*
X443133Y406813D01*
X443131Y406915D01*
X443131Y408241D01*
X452416Y399124D02*
X455069Y395808D01*
X443131Y395808D01*
X443131Y399124D02*
X443131Y392491D01*
X443131Y387694D02*
X443131Y384378D01*
X443133Y384264D01*
X443139Y384149D01*
X443149Y384035D01*
X443163Y383922D01*
X443180Y383808D01*
X443202Y383696D01*
X443227Y383584D01*
X443257Y383474D01*
X443290Y383364D01*
X443327Y383256D01*
X443367Y383149D01*
X443412Y383043D01*
X443459Y382939D01*
X443511Y382837D01*
X443566Y382737D01*
X443624Y382638D01*
X443686Y382542D01*
X443751Y382447D01*
X443819Y382356D01*
X443891Y382266D01*
X443965Y382179D01*
X444042Y382095D01*
X444123Y382013D01*
X444206Y381934D01*
X444291Y381858D01*
X444380Y381785D01*
X444470Y381716D01*
X444563Y381649D01*
X444659Y381586D01*
X444756Y381526D01*
X444856Y381469D01*
X444957Y381416D01*
X445060Y381366D01*
X445165Y381320D01*
X445271Y381277D01*
X445379Y381239D01*
X445488Y381204D01*
X445598Y381173D01*
X445709Y381145D01*
X445821Y381122D01*
X445934Y381102D01*
X446047Y381086D01*
X446161Y381074D01*
X446275Y381066D01*
X446390Y381062D01*
X446504Y381062D01*
X446619Y381066D01*
X446733Y381074D01*
X446847Y381086D01*
X446960Y381102D01*
X447073Y381122D01*
X447185Y381145D01*
X447296Y381173D01*
X447406Y381204D01*
X447515Y381239D01*
X447623Y381277D01*
X447729Y381320D01*
X447834Y381366D01*
X447937Y381416D01*
X448038Y381469D01*
X448138Y381526D01*
X448235Y381586D01*
X448331Y381649D01*
X448424Y381716D01*
X448514Y381785D01*
X448603Y381858D01*
X448688Y381934D01*
X448771Y382013D01*
X448852Y382095D01*
X448929Y382179D01*
X449003Y382266D01*
X449075Y382356D01*
X449143Y382447D01*
X449208Y382542D01*
X449270Y382638D01*
X449328Y382737D01*
X449383Y382837D01*
X449435Y382939D01*
X449482Y383043D01*
X449527Y383149D01*
X449567Y383256D01*
X449604Y383364D01*
X449637Y383474D01*
X449667Y383584D01*
X449692Y383696D01*
X449714Y383808D01*
X449731Y383922D01*
X449745Y384035D01*
X449755Y384149D01*
X449761Y384264D01*
X449763Y384378D01*
X455069Y383714D02*
X455069Y387694D01*
X455069Y383714D02*
X455067Y383612D01*
X455061Y383511D01*
X455051Y383410D01*
X455038Y383309D01*
X455020Y383209D01*
X454999Y383110D01*
X454974Y383011D01*
X454945Y382914D01*
X454913Y382817D01*
X454877Y382722D01*
X454837Y382629D01*
X454794Y382537D01*
X454747Y382447D01*
X454696Y382358D01*
X454643Y382272D01*
X454586Y382188D01*
X454526Y382106D01*
X454463Y382026D01*
X454397Y381949D01*
X454328Y381874D01*
X454256Y381802D01*
X454181Y381733D01*
X454104Y381667D01*
X454024Y381604D01*
X453942Y381544D01*
X453858Y381487D01*
X453772Y381434D01*
X453683Y381383D01*
X453593Y381336D01*
X453501Y381293D01*
X453408Y381253D01*
X453313Y381217D01*
X453216Y381185D01*
X453119Y381156D01*
X453020Y381131D01*
X452921Y381110D01*
X452821Y381092D01*
X452720Y381079D01*
X452619Y381069D01*
X452518Y381063D01*
X452416Y381061D01*
X452314Y381063D01*
X452213Y381069D01*
X452112Y381079D01*
X452011Y381092D01*
X451911Y381110D01*
X451812Y381131D01*
X451713Y381156D01*
X451616Y381185D01*
X451519Y381217D01*
X451424Y381253D01*
X451331Y381293D01*
X451239Y381336D01*
X451149Y381383D01*
X451060Y381434D01*
X450974Y381487D01*
X450890Y381544D01*
X450808Y381604D01*
X450728Y381667D01*
X450651Y381733D01*
X450576Y381802D01*
X450504Y381874D01*
X450435Y381949D01*
X450369Y382026D01*
X450306Y382106D01*
X450246Y382188D01*
X450189Y382272D01*
X450136Y382358D01*
X450085Y382447D01*
X450038Y382537D01*
X449995Y382629D01*
X449955Y382722D01*
X449919Y382817D01*
X449887Y382914D01*
X449858Y383011D01*
X449833Y383110D01*
X449812Y383209D01*
X449794Y383309D01*
X449781Y383410D01*
X449771Y383511D01*
X449765Y383612D01*
X449763Y383714D01*
X449763Y386367D01*
D13*
X572800Y388850D02*
X597800Y388850D01*
X597800Y350750D01*
X572800Y350750D01*
X572800Y388850D01*
D12*
X536030Y374000D02*
X528410Y380350D01*
X528410Y367650D01*
X536030Y374000D01*
X538570Y346568D02*
X570574Y346568D01*
X570574Y388986D01*
X538570Y388986D01*
X538570Y346568D01*
D11*
X539784Y404262D02*
X549069Y404262D01*
X539784Y404262D02*
X539682Y404264D01*
X539581Y404270D01*
X539480Y404280D01*
X539379Y404293D01*
X539279Y404311D01*
X539180Y404332D01*
X539081Y404357D01*
X538984Y404386D01*
X538887Y404418D01*
X538792Y404454D01*
X538699Y404494D01*
X538607Y404537D01*
X538517Y404584D01*
X538428Y404635D01*
X538342Y404688D01*
X538258Y404745D01*
X538176Y404805D01*
X538096Y404868D01*
X538019Y404934D01*
X537944Y405003D01*
X537872Y405075D01*
X537803Y405150D01*
X537737Y405227D01*
X537674Y405307D01*
X537614Y405389D01*
X537557Y405473D01*
X537504Y405559D01*
X537453Y405648D01*
X537406Y405738D01*
X537363Y405830D01*
X537323Y405923D01*
X537287Y406018D01*
X537255Y406115D01*
X537226Y406212D01*
X537201Y406311D01*
X537180Y406410D01*
X537162Y406510D01*
X537149Y406611D01*
X537139Y406712D01*
X537133Y406813D01*
X537131Y406915D01*
X537131Y408241D01*
X546416Y399124D02*
X549069Y395808D01*
X537131Y395808D01*
X537131Y399124D02*
X537131Y392491D01*
X539784Y387694D02*
X549069Y385041D01*
X539784Y387694D02*
X539784Y381061D01*
X542437Y383051D02*
X537131Y383051D01*
D13*
X676850Y244200D02*
X676850Y219200D01*
X638750Y219200D01*
X638750Y244200D01*
X676850Y244200D01*
D12*
X662000Y280970D02*
X668350Y288590D01*
X655650Y288590D01*
X662000Y280970D01*
X634568Y278430D02*
X634568Y246426D01*
X676986Y246426D01*
X676986Y278430D01*
X634568Y278430D01*
D11*
X692262Y277216D02*
X692262Y267931D01*
X692262Y277216D02*
X692264Y277318D01*
X692270Y277419D01*
X692280Y277520D01*
X692293Y277621D01*
X692311Y277721D01*
X692332Y277820D01*
X692357Y277919D01*
X692386Y278016D01*
X692418Y278113D01*
X692454Y278208D01*
X692494Y278301D01*
X692537Y278393D01*
X692584Y278483D01*
X692635Y278572D01*
X692688Y278658D01*
X692745Y278742D01*
X692805Y278824D01*
X692868Y278904D01*
X692934Y278981D01*
X693003Y279056D01*
X693075Y279128D01*
X693150Y279197D01*
X693227Y279263D01*
X693307Y279326D01*
X693389Y279386D01*
X693473Y279443D01*
X693559Y279496D01*
X693648Y279547D01*
X693738Y279594D01*
X693830Y279637D01*
X693923Y279677D01*
X694018Y279713D01*
X694115Y279745D01*
X694212Y279774D01*
X694311Y279799D01*
X694410Y279820D01*
X694510Y279838D01*
X694611Y279851D01*
X694712Y279861D01*
X694813Y279867D01*
X694915Y279869D01*
X696241Y279869D01*
X687124Y270584D02*
X683808Y267931D01*
X683808Y279869D01*
X687124Y279869D02*
X680491Y279869D01*
X675694Y279869D02*
X671714Y279869D01*
X671612Y279867D01*
X671511Y279861D01*
X671410Y279851D01*
X671309Y279838D01*
X671209Y279820D01*
X671110Y279799D01*
X671011Y279774D01*
X670914Y279745D01*
X670817Y279713D01*
X670722Y279677D01*
X670629Y279637D01*
X670537Y279594D01*
X670447Y279547D01*
X670358Y279496D01*
X670272Y279443D01*
X670188Y279386D01*
X670106Y279326D01*
X670026Y279263D01*
X669949Y279197D01*
X669874Y279128D01*
X669802Y279056D01*
X669733Y278981D01*
X669667Y278904D01*
X669604Y278824D01*
X669544Y278742D01*
X669487Y278658D01*
X669434Y278572D01*
X669383Y278483D01*
X669336Y278393D01*
X669293Y278301D01*
X669253Y278208D01*
X669217Y278113D01*
X669185Y278017D01*
X669156Y277919D01*
X669131Y277821D01*
X669110Y277721D01*
X669092Y277621D01*
X669079Y277520D01*
X669069Y277419D01*
X669063Y277318D01*
X669061Y277216D01*
X669061Y275890D01*
X669063Y275788D01*
X669069Y275687D01*
X669079Y275586D01*
X669092Y275485D01*
X669110Y275385D01*
X669131Y275286D01*
X669156Y275187D01*
X669185Y275090D01*
X669217Y274993D01*
X669253Y274898D01*
X669293Y274805D01*
X669336Y274713D01*
X669383Y274623D01*
X669434Y274534D01*
X669487Y274448D01*
X669544Y274364D01*
X669604Y274282D01*
X669667Y274202D01*
X669733Y274125D01*
X669802Y274050D01*
X669874Y273978D01*
X669949Y273909D01*
X670026Y273843D01*
X670106Y273780D01*
X670188Y273720D01*
X670272Y273663D01*
X670358Y273610D01*
X670447Y273559D01*
X670537Y273512D01*
X670629Y273469D01*
X670722Y273429D01*
X670817Y273393D01*
X670914Y273361D01*
X671011Y273332D01*
X671110Y273307D01*
X671209Y273286D01*
X671309Y273268D01*
X671410Y273255D01*
X671511Y273245D01*
X671612Y273239D01*
X671714Y273237D01*
X675694Y273237D01*
X675694Y267931D01*
X669061Y267931D01*
D13*
X676850Y150200D02*
X676850Y125200D01*
X638750Y125200D01*
X638750Y150200D01*
X676850Y150200D01*
D12*
X662000Y186970D02*
X668350Y194590D01*
X655650Y194590D01*
X662000Y186970D01*
X634568Y184430D02*
X634568Y152426D01*
X676986Y152426D01*
X676986Y184430D01*
X634568Y184430D01*
D11*
X692262Y183216D02*
X692262Y173931D01*
X692262Y183216D02*
X692264Y183318D01*
X692270Y183419D01*
X692280Y183520D01*
X692293Y183621D01*
X692311Y183721D01*
X692332Y183820D01*
X692357Y183919D01*
X692386Y184016D01*
X692418Y184113D01*
X692454Y184208D01*
X692494Y184301D01*
X692537Y184393D01*
X692584Y184483D01*
X692635Y184572D01*
X692688Y184658D01*
X692745Y184742D01*
X692805Y184824D01*
X692868Y184904D01*
X692934Y184981D01*
X693003Y185056D01*
X693075Y185128D01*
X693150Y185197D01*
X693227Y185263D01*
X693307Y185326D01*
X693389Y185386D01*
X693473Y185443D01*
X693559Y185496D01*
X693648Y185547D01*
X693738Y185594D01*
X693830Y185637D01*
X693923Y185677D01*
X694018Y185713D01*
X694115Y185745D01*
X694212Y185774D01*
X694311Y185799D01*
X694410Y185820D01*
X694510Y185838D01*
X694611Y185851D01*
X694712Y185861D01*
X694813Y185867D01*
X694915Y185869D01*
X696241Y185869D01*
X687124Y176584D02*
X683808Y173931D01*
X683808Y185869D01*
X687124Y185869D02*
X680491Y185869D01*
X675694Y179237D02*
X671714Y179237D01*
X671612Y179239D01*
X671511Y179245D01*
X671410Y179255D01*
X671309Y179268D01*
X671209Y179286D01*
X671110Y179307D01*
X671011Y179332D01*
X670914Y179361D01*
X670817Y179393D01*
X670722Y179429D01*
X670629Y179469D01*
X670537Y179512D01*
X670447Y179559D01*
X670358Y179610D01*
X670272Y179663D01*
X670188Y179720D01*
X670106Y179780D01*
X670026Y179843D01*
X669949Y179909D01*
X669874Y179978D01*
X669802Y180050D01*
X669733Y180125D01*
X669667Y180202D01*
X669604Y180282D01*
X669544Y180364D01*
X669487Y180448D01*
X669434Y180534D01*
X669383Y180623D01*
X669336Y180713D01*
X669293Y180805D01*
X669253Y180898D01*
X669217Y180993D01*
X669185Y181090D01*
X669156Y181187D01*
X669131Y181286D01*
X669110Y181385D01*
X669092Y181485D01*
X669079Y181586D01*
X669069Y181687D01*
X669063Y181788D01*
X669061Y181890D01*
X669061Y182553D01*
X669062Y182553D02*
X669064Y182667D01*
X669070Y182782D01*
X669080Y182896D01*
X669094Y183009D01*
X669111Y183123D01*
X669133Y183235D01*
X669158Y183347D01*
X669188Y183457D01*
X669221Y183567D01*
X669258Y183675D01*
X669298Y183782D01*
X669343Y183888D01*
X669390Y183992D01*
X669442Y184094D01*
X669497Y184194D01*
X669555Y184293D01*
X669617Y184389D01*
X669682Y184484D01*
X669750Y184575D01*
X669822Y184665D01*
X669896Y184752D01*
X669973Y184836D01*
X670054Y184918D01*
X670137Y184997D01*
X670222Y185073D01*
X670311Y185146D01*
X670401Y185215D01*
X670494Y185282D01*
X670590Y185345D01*
X670687Y185405D01*
X670787Y185462D01*
X670888Y185515D01*
X670991Y185565D01*
X671096Y185611D01*
X671202Y185654D01*
X671310Y185692D01*
X671419Y185727D01*
X671529Y185758D01*
X671640Y185786D01*
X671752Y185809D01*
X671865Y185829D01*
X671978Y185845D01*
X672092Y185857D01*
X672206Y185865D01*
X672321Y185869D01*
X672435Y185869D01*
X672550Y185865D01*
X672664Y185857D01*
X672778Y185845D01*
X672891Y185829D01*
X673004Y185809D01*
X673116Y185786D01*
X673227Y185758D01*
X673337Y185727D01*
X673446Y185692D01*
X673554Y185654D01*
X673660Y185611D01*
X673765Y185565D01*
X673868Y185515D01*
X673969Y185462D01*
X674069Y185405D01*
X674166Y185345D01*
X674262Y185282D01*
X674355Y185215D01*
X674445Y185146D01*
X674534Y185073D01*
X674619Y184997D01*
X674702Y184918D01*
X674783Y184836D01*
X674860Y184752D01*
X674934Y184665D01*
X675006Y184575D01*
X675074Y184484D01*
X675139Y184389D01*
X675201Y184293D01*
X675259Y184194D01*
X675314Y184094D01*
X675366Y183992D01*
X675413Y183888D01*
X675458Y183782D01*
X675498Y183675D01*
X675535Y183567D01*
X675568Y183457D01*
X675598Y183347D01*
X675623Y183235D01*
X675645Y183123D01*
X675662Y183009D01*
X675676Y182896D01*
X675686Y182782D01*
X675692Y182667D01*
X675694Y182553D01*
X675694Y179237D01*
X675692Y179093D01*
X675686Y178950D01*
X675676Y178806D01*
X675663Y178663D01*
X675645Y178521D01*
X675624Y178379D01*
X675599Y178237D01*
X675570Y178096D01*
X675537Y177956D01*
X675501Y177818D01*
X675460Y177680D01*
X675416Y177543D01*
X675369Y177407D01*
X675317Y177273D01*
X675262Y177140D01*
X675204Y177009D01*
X675142Y176879D01*
X675076Y176752D01*
X675007Y176626D01*
X674934Y176501D01*
X674859Y176379D01*
X674780Y176259D01*
X674697Y176142D01*
X674612Y176026D01*
X674524Y175913D01*
X674432Y175802D01*
X674338Y175694D01*
X674240Y175588D01*
X674140Y175485D01*
X674037Y175385D01*
X673931Y175287D01*
X673823Y175193D01*
X673712Y175101D01*
X673599Y175013D01*
X673484Y174928D01*
X673366Y174845D01*
X673246Y174766D01*
X673124Y174691D01*
X672999Y174618D01*
X672873Y174549D01*
X672746Y174484D01*
X672616Y174421D01*
X672485Y174363D01*
X672352Y174308D01*
X672218Y174256D01*
X672082Y174209D01*
X671945Y174165D01*
X671808Y174124D01*
X671669Y174088D01*
X671529Y174055D01*
X671388Y174026D01*
X671246Y174001D01*
X671104Y173980D01*
X670962Y173962D01*
X670819Y173949D01*
X670675Y173939D01*
X670532Y173933D01*
X670388Y173931D01*
M02*
