G04 EAGLE Gerber RS-274X export*
G75*
%MOMM*%
%FSLAX34Y34*%
%LPD*%
%INSilkscreen Bottom*%
%IPPOS*%
%AMOC8*
5,1,8,0,0,1.08239X$1,22.5*%
G01*
%ADD10C,0.203200*%
%ADD11C,0.127000*%


D10*
X100110Y17590D02*
X116620Y17590D01*
D11*
X153050Y302142D02*
X153050Y327142D01*
X114950Y327142D01*
X114950Y302142D01*
X153050Y302142D01*
X153050Y296143D02*
X153050Y271143D01*
X153050Y296143D02*
X114950Y296143D01*
X114950Y271143D01*
X153050Y271143D01*
X153050Y265144D02*
X153050Y240144D01*
X153050Y265144D02*
X114950Y265144D01*
X114950Y240144D01*
X153050Y240144D01*
X153050Y232591D02*
X153050Y207591D01*
X153050Y232591D02*
X114950Y232591D01*
X114950Y207591D01*
X153050Y207591D01*
X153050Y201591D02*
X153050Y176591D01*
X153050Y201591D02*
X114950Y201591D01*
X114950Y176591D01*
X153050Y176591D01*
X153050Y170591D02*
X153050Y145591D01*
X153050Y170591D02*
X114950Y170591D01*
X114950Y145591D01*
X153050Y145591D01*
X268050Y302142D02*
X268050Y327142D01*
X229950Y327142D01*
X229950Y302142D01*
X268050Y302142D01*
X268050Y296143D02*
X268050Y271143D01*
X268050Y296143D02*
X229950Y296143D01*
X229950Y271143D01*
X268050Y271143D01*
X268050Y265144D02*
X268050Y240144D01*
X268050Y265144D02*
X229950Y265144D01*
X229950Y240144D01*
X268050Y240144D01*
X268050Y232591D02*
X268050Y207591D01*
X268050Y232591D02*
X229950Y232591D01*
X229950Y207591D01*
X268050Y207591D01*
X268050Y201591D02*
X268050Y176591D01*
X268050Y201591D02*
X229950Y201591D01*
X229950Y176591D01*
X268050Y176591D01*
X268050Y170591D02*
X268050Y145591D01*
X268050Y170591D02*
X229950Y170591D01*
X229950Y145591D01*
X268050Y145591D01*
X396050Y302142D02*
X396050Y327142D01*
X357950Y327142D01*
X357950Y302142D01*
X396050Y302142D01*
X396050Y296143D02*
X396050Y271143D01*
X396050Y296143D02*
X357950Y296143D01*
X357950Y271143D01*
X396050Y271143D01*
X396050Y265144D02*
X396050Y240144D01*
X396050Y265144D02*
X357950Y265144D01*
X357950Y240144D01*
X396050Y240144D01*
X396050Y232591D02*
X396050Y207591D01*
X396050Y232591D02*
X357950Y232591D01*
X357950Y207591D01*
X396050Y207591D01*
X396050Y201591D02*
X396050Y176591D01*
X396050Y201591D02*
X357950Y201591D01*
X357950Y176591D01*
X396050Y176591D01*
X396050Y170591D02*
X396050Y145591D01*
X396050Y170591D02*
X357950Y170591D01*
X357950Y145591D01*
X396050Y145591D01*
X549050Y302142D02*
X549050Y327142D01*
X510950Y327142D01*
X510950Y302142D01*
X549050Y302142D01*
X549050Y296143D02*
X549050Y271143D01*
X549050Y296143D02*
X510950Y296143D01*
X510950Y271143D01*
X549050Y271143D01*
X549050Y265144D02*
X549050Y240144D01*
X549050Y265144D02*
X510950Y265144D01*
X510950Y240144D01*
X549050Y240144D01*
X549050Y232591D02*
X549050Y207591D01*
X549050Y232591D02*
X510950Y232591D01*
X510950Y207591D01*
X549050Y207591D01*
X549050Y201591D02*
X549050Y176591D01*
X549050Y201591D02*
X510950Y201591D01*
X510950Y176591D01*
X549050Y176591D01*
X549050Y170591D02*
X549050Y145591D01*
X549050Y170591D02*
X510950Y170591D01*
X510950Y145591D01*
X549050Y145591D01*
M02*
