G04 EAGLE Gerber RS-274X export*
G75*
%MOMM*%
%FSLAX34Y34*%
%LPD*%
%INSoldermask Top*%
%IPPOS*%
%AMOC8*
5,1,8,0,0,1.08239X$1,22.5*%
G01*
%ADD10C,3.203200*%
%ADD11C,2.082800*%
%ADD12R,1.219200X1.219200*%
%ADD13C,1.219200*%
%ADD14C,2.203200*%
%ADD15R,0.660400X1.371600*%
%ADD16R,0.903200X1.003200*%
%ADD17R,1.703200X1.503200*%
%ADD18R,1.371600X0.660400*%
%ADD19R,1.003200X0.903200*%
%ADD20R,1.503200X1.703200*%
%ADD21C,0.959600*%


D10*
X30000Y370000D03*
X670000Y370000D03*
X670000Y30000D03*
X30000Y30000D03*
D11*
X109000Y34100D03*
X134400Y34100D03*
X159800Y34100D03*
X185200Y34100D03*
X210600Y34100D03*
X236000Y34100D03*
X261400Y34100D03*
X286800Y34100D03*
X312200Y34100D03*
X337600Y34100D03*
X363000Y34100D03*
X388400Y34100D03*
X413800Y34100D03*
X413800Y59500D03*
X388400Y59500D03*
X363000Y59500D03*
X337600Y59500D03*
X312200Y59500D03*
X286800Y59500D03*
X261400Y59500D03*
X236000Y59500D03*
X210600Y59500D03*
X185200Y59500D03*
X159800Y59500D03*
X134400Y59500D03*
X109000Y59500D03*
X439200Y34100D03*
X439200Y59500D03*
X464600Y34100D03*
X464600Y59500D03*
X490000Y34100D03*
X490000Y59500D03*
X515400Y34100D03*
X515400Y59500D03*
X540800Y34100D03*
X540800Y59500D03*
X566200Y34100D03*
X566200Y59500D03*
X591600Y34100D03*
X591600Y59500D03*
D12*
X165000Y312059D03*
D13*
X165000Y299613D03*
X165000Y287167D03*
X165000Y274467D03*
D12*
X165000Y218000D03*
D13*
X165000Y205554D03*
X165000Y193108D03*
X165000Y180408D03*
D12*
X280000Y312059D03*
D13*
X280000Y299613D03*
X280000Y287167D03*
X280000Y274467D03*
D12*
X280000Y218000D03*
D13*
X280000Y205554D03*
X280000Y193108D03*
X280000Y180408D03*
D12*
X408000Y312059D03*
D13*
X408000Y299613D03*
X408000Y287167D03*
X408000Y274467D03*
D12*
X408000Y218000D03*
D13*
X408000Y205554D03*
X408000Y193108D03*
X408000Y180408D03*
D12*
X561000Y312059D03*
D13*
X561000Y299613D03*
X561000Y287167D03*
X561000Y274467D03*
D12*
X561000Y218000D03*
D13*
X561000Y205554D03*
X561000Y193108D03*
X561000Y180408D03*
D14*
X333000Y351000D02*
X333000Y371000D01*
X294900Y371000D02*
X294900Y351000D01*
D15*
X484800Y361037D03*
X497800Y361037D03*
X491300Y378563D03*
D16*
X456000Y341000D03*
X468000Y341000D03*
D17*
X515200Y356100D03*
X515200Y375100D03*
D16*
X515400Y341000D03*
X503400Y341000D03*
X482000Y341000D03*
X494000Y341000D03*
D12*
X456000Y374000D03*
D13*
X456000Y361554D03*
D15*
X578800Y361037D03*
X591800Y361037D03*
X585300Y378563D03*
D16*
X550000Y341000D03*
X562000Y341000D03*
D17*
X609200Y356100D03*
X609200Y375100D03*
D16*
X609400Y341000D03*
X597400Y341000D03*
X576000Y341000D03*
X588000Y341000D03*
D12*
X550000Y374000D03*
D13*
X550000Y361554D03*
D18*
X649037Y238200D03*
X649037Y225200D03*
X666563Y231700D03*
D19*
X629000Y267000D03*
X629000Y255000D03*
D20*
X644100Y207800D03*
X663100Y207800D03*
D19*
X629000Y207600D03*
X629000Y219600D03*
X629000Y241000D03*
X629000Y229000D03*
D12*
X662000Y267000D03*
D13*
X649554Y267000D03*
D18*
X649037Y144200D03*
X649037Y131200D03*
X666563Y137700D03*
D19*
X629000Y173000D03*
X629000Y161000D03*
D20*
X644100Y113800D03*
X663100Y113800D03*
D19*
X629000Y113600D03*
X629000Y125600D03*
X629000Y147000D03*
X629000Y135000D03*
D12*
X662000Y173000D03*
D13*
X649554Y173000D03*
D21*
X110000Y323681D03*
X96000Y82000D03*
X110000Y292682D03*
X110000Y261683D03*
X110100Y229123D03*
X142000Y86000D03*
X110000Y198124D03*
X110000Y167124D03*
X225000Y323681D03*
X186000Y85000D03*
X225000Y292682D03*
X225000Y261683D03*
X225100Y229123D03*
X223000Y76000D03*
X225000Y198124D03*
X225000Y167124D03*
X353000Y323681D03*
X262000Y82000D03*
X353000Y292682D03*
X353000Y261683D03*
X353100Y229123D03*
X300000Y79000D03*
X353000Y198124D03*
X353000Y167124D03*
X506000Y323681D03*
X338000Y83000D03*
X506000Y292682D03*
X506000Y261683D03*
X506100Y229123D03*
X376000Y76000D03*
X506000Y198124D03*
X506000Y167124D03*
X167000Y245000D03*
X284000Y244000D03*
X415000Y244000D03*
X570000Y242000D03*
X686000Y137600D03*
X686000Y231700D03*
X591000Y386058D03*
X478000Y380000D03*
X494000Y331000D03*
X588000Y330000D03*
X619000Y229000D03*
X617000Y135000D03*
M02*
