G04 EAGLE Gerber RS-274X export*
G75*
%MOMM*%
%FSLAX34Y34*%
%LPD*%
%INSolderpaste Bottom*%
%IPPOS*%
%AMOC8*
5,1,8,0,0,1.08239X$1,22.5*%
G01*
%ADD10R,1.168400X0.457200*%
%ADD11R,0.800000X0.700000*%


D10*
X125237Y308142D03*
X125237Y321142D03*
X142763Y314642D03*
X125237Y277143D03*
X125237Y290143D03*
X142763Y283643D03*
X125237Y246144D03*
X125237Y259144D03*
X142763Y252644D03*
D11*
X110000Y314682D03*
X110000Y302682D03*
X110000Y283682D03*
X110000Y271682D03*
X110000Y252683D03*
X110000Y240683D03*
D10*
X125237Y213591D03*
X125237Y226591D03*
X142763Y220091D03*
X125237Y182591D03*
X125237Y195591D03*
X142763Y189091D03*
X125237Y151591D03*
X125237Y164591D03*
X142763Y158091D03*
D11*
X110000Y220125D03*
X110000Y208125D03*
X110000Y189125D03*
X110000Y177125D03*
X110000Y158125D03*
X110000Y146125D03*
D10*
X240237Y308142D03*
X240237Y321142D03*
X257763Y314642D03*
X240237Y277143D03*
X240237Y290143D03*
X257763Y283643D03*
X240237Y246144D03*
X240237Y259144D03*
X257763Y252644D03*
D11*
X225000Y314682D03*
X225000Y302682D03*
X225000Y283682D03*
X225000Y271682D03*
X225000Y252683D03*
X225000Y240683D03*
D10*
X240237Y213591D03*
X240237Y226591D03*
X257763Y220091D03*
X240237Y182591D03*
X240237Y195591D03*
X257763Y189091D03*
X240237Y151591D03*
X240237Y164591D03*
X257763Y158091D03*
D11*
X225000Y220125D03*
X225000Y208125D03*
X225000Y189125D03*
X225000Y177125D03*
X225000Y158125D03*
X225000Y146125D03*
D10*
X368237Y308142D03*
X368237Y321142D03*
X385763Y314642D03*
X368237Y277143D03*
X368237Y290143D03*
X385763Y283643D03*
X368237Y246144D03*
X368237Y259144D03*
X385763Y252644D03*
D11*
X353000Y314682D03*
X353000Y302682D03*
X353000Y283682D03*
X353000Y271682D03*
X353000Y252683D03*
X353000Y240683D03*
D10*
X368237Y213591D03*
X368237Y226591D03*
X385763Y220091D03*
X368237Y182591D03*
X368237Y195591D03*
X385763Y189091D03*
X368237Y151591D03*
X368237Y164591D03*
X385763Y158091D03*
D11*
X353000Y220125D03*
X353000Y208125D03*
X353000Y189125D03*
X353000Y177125D03*
X353000Y158125D03*
X353000Y146125D03*
D10*
X521237Y308142D03*
X521237Y321142D03*
X538763Y314642D03*
X521237Y277143D03*
X521237Y290143D03*
X538763Y283643D03*
X521237Y246144D03*
X521237Y259144D03*
X538763Y252644D03*
D11*
X506000Y314682D03*
X506000Y302682D03*
X506000Y283682D03*
X506000Y271682D03*
X506000Y252683D03*
X506000Y240683D03*
D10*
X521237Y213591D03*
X521237Y226591D03*
X538763Y220091D03*
X521237Y182591D03*
X521237Y195591D03*
X538763Y189091D03*
X521237Y151591D03*
X521237Y164591D03*
X538763Y158091D03*
D11*
X506000Y220125D03*
X506000Y208125D03*
X506000Y189125D03*
X506000Y177125D03*
X506000Y158125D03*
X506000Y146125D03*
M02*
