G75*
%MOIN*%
%OFA0B0*%
%FSLAX25Y25*%
%IPPOS*%
%LPD*%
%AMOC8*
5,1,8,0,0,1.08239X$1,22.5*
%
%ADD10C,0.07874*%
%ADD11C,0.08858*%
%ADD12C,0.05937*%
%ADD13R,0.05937X0.05937*%
%ADD14C,0.02978*%
%ADD15C,0.04000*%
%ADD16C,0.01000*%
%ADD17C,0.00400*%
D10*
X0028809Y0053956D02*
X0036683Y0053956D01*
X0036683Y0068956D02*
X0028809Y0068956D01*
D11*
X0085246Y0081318D03*
X0147254Y0081318D03*
D12*
X0123750Y0044310D03*
X0113750Y0044310D03*
X0103750Y0044310D03*
X0098750Y0034310D03*
X0108750Y0034310D03*
X0118750Y0034310D03*
X0128750Y0034310D03*
D13*
X0133750Y0044310D03*
D14*
X0078848Y0053562D03*
X0076486Y0073641D03*
X0043809Y0068917D03*
X0043809Y0053956D03*
X0034754Y0031121D03*
X0043809Y0085452D03*
D15*
X0076486Y0073641D02*
X0076486Y0064380D01*
X0084466Y0056401D01*
X0115203Y0056401D01*
X0123750Y0047854D01*
X0123750Y0044310D01*
X0123750Y0039310D01*
X0118750Y0034310D01*
X0113750Y0039310D02*
X0113750Y0044310D01*
X0107648Y0050413D01*
X0081998Y0050413D01*
X0078848Y0053562D01*
X0108750Y0034310D02*
X0113750Y0039310D01*
D16*
X0043809Y0053956D02*
X0032746Y0053956D01*
X0032785Y0068917D02*
X0032746Y0068956D01*
X0032785Y0068917D02*
X0043809Y0068917D01*
D17*
X0020568Y0005400D02*
X0141066Y0005400D01*
X0139660Y0006806D01*
X0138329Y0009110D01*
X0137641Y0011681D01*
X0137641Y0014341D01*
X0138329Y0016912D01*
X0139660Y0019216D01*
X0141541Y0021097D01*
X0143845Y0022428D01*
X0146416Y0023117D01*
X0149076Y0023117D01*
X0151647Y0022428D01*
X0153951Y0021097D01*
X0155357Y0019691D01*
X0155357Y0104756D01*
X0153951Y0103350D01*
X0151647Y0102019D01*
X0149076Y0101331D01*
X0146416Y0101331D01*
X0143845Y0102019D01*
X0141541Y0103350D01*
X0139660Y0105231D01*
X0138329Y0107536D01*
X0137641Y0110106D01*
X0137641Y0112767D01*
X0138329Y0115337D01*
X0139660Y0117641D01*
X0141066Y0119047D01*
X0020568Y0119047D01*
X0021974Y0117641D01*
X0023305Y0115337D01*
X0023993Y0112767D01*
X0023993Y0110106D01*
X0023305Y0107536D01*
X0021974Y0105231D01*
X0020093Y0103350D01*
X0017788Y0102019D01*
X0015218Y0101331D01*
X0012557Y0101331D01*
X0009987Y0102019D01*
X0007683Y0103350D01*
X0006277Y0104756D01*
X0006277Y0019691D01*
X0007683Y0021097D01*
X0009987Y0022428D01*
X0012557Y0023117D01*
X0015218Y0023117D01*
X0017788Y0022428D01*
X0020093Y0021097D01*
X0021974Y0019216D01*
X0023305Y0016912D01*
X0023993Y0014341D01*
X0023993Y0011681D01*
X0023305Y0009110D01*
X0021974Y0006806D01*
X0020568Y0005400D01*
X0020752Y0005584D02*
X0140882Y0005584D01*
X0140484Y0005982D02*
X0021150Y0005982D01*
X0021549Y0006381D02*
X0140085Y0006381D01*
X0139687Y0006779D02*
X0021947Y0006779D01*
X0022189Y0007178D02*
X0139445Y0007178D01*
X0139215Y0007576D02*
X0022419Y0007576D01*
X0022649Y0007975D02*
X0138985Y0007975D01*
X0138755Y0008373D02*
X0022879Y0008373D01*
X0023109Y0008772D02*
X0138525Y0008772D01*
X0138313Y0009170D02*
X0023321Y0009170D01*
X0023427Y0009569D02*
X0138206Y0009569D01*
X0138100Y0009967D02*
X0023534Y0009967D01*
X0023641Y0010366D02*
X0137993Y0010366D01*
X0137886Y0010764D02*
X0023748Y0010764D01*
X0023855Y0011163D02*
X0137779Y0011163D01*
X0137673Y0011561D02*
X0023961Y0011561D01*
X0023993Y0011960D02*
X0137641Y0011960D01*
X0137641Y0012358D02*
X0023993Y0012358D01*
X0023993Y0012757D02*
X0137641Y0012757D01*
X0137641Y0013155D02*
X0023993Y0013155D01*
X0023993Y0013554D02*
X0137641Y0013554D01*
X0137641Y0013952D02*
X0023993Y0013952D01*
X0023991Y0014351D02*
X0137643Y0014351D01*
X0137750Y0014749D02*
X0023884Y0014749D01*
X0023777Y0015148D02*
X0137857Y0015148D01*
X0137963Y0015546D02*
X0023670Y0015546D01*
X0023564Y0015945D02*
X0138070Y0015945D01*
X0138177Y0016343D02*
X0023457Y0016343D01*
X0023350Y0016742D02*
X0138284Y0016742D01*
X0138461Y0017140D02*
X0023173Y0017140D01*
X0022942Y0017539D02*
X0138691Y0017539D01*
X0138922Y0017937D02*
X0022712Y0017937D01*
X0022482Y0018336D02*
X0139152Y0018336D01*
X0139382Y0018734D02*
X0022252Y0018734D01*
X0022022Y0019133D02*
X0139612Y0019133D01*
X0139975Y0019532D02*
X0021659Y0019532D01*
X0021260Y0019930D02*
X0140374Y0019930D01*
X0140772Y0020329D02*
X0020862Y0020329D01*
X0020463Y0020727D02*
X0141171Y0020727D01*
X0141590Y0021126D02*
X0020044Y0021126D01*
X0019354Y0021524D02*
X0142280Y0021524D01*
X0142970Y0021923D02*
X0018664Y0021923D01*
X0017973Y0022321D02*
X0143661Y0022321D01*
X0144934Y0022720D02*
X0016700Y0022720D01*
X0011076Y0022720D02*
X0006277Y0022720D01*
X0006277Y0023118D02*
X0155357Y0023118D01*
X0155357Y0022720D02*
X0150558Y0022720D01*
X0151832Y0022321D02*
X0155357Y0022321D01*
X0155357Y0021923D02*
X0152522Y0021923D01*
X0153212Y0021524D02*
X0155357Y0021524D01*
X0155357Y0021126D02*
X0153902Y0021126D01*
X0154321Y0020727D02*
X0155357Y0020727D01*
X0155357Y0020329D02*
X0154720Y0020329D01*
X0155118Y0019930D02*
X0155357Y0019930D01*
X0155357Y0023517D02*
X0006277Y0023517D01*
X0006277Y0023915D02*
X0155357Y0023915D01*
X0155357Y0024314D02*
X0006277Y0024314D01*
X0006277Y0024712D02*
X0155357Y0024712D01*
X0155357Y0025111D02*
X0006277Y0025111D01*
X0006277Y0025509D02*
X0155357Y0025509D01*
X0155357Y0025908D02*
X0006277Y0025908D01*
X0006277Y0026306D02*
X0155357Y0026306D01*
X0155357Y0026705D02*
X0006277Y0026705D01*
X0006277Y0027103D02*
X0155357Y0027103D01*
X0155357Y0027502D02*
X0006277Y0027502D01*
X0006277Y0027900D02*
X0155357Y0027900D01*
X0155357Y0028299D02*
X0006277Y0028299D01*
X0006277Y0028697D02*
X0155357Y0028697D01*
X0155357Y0029096D02*
X0006277Y0029096D01*
X0006277Y0029494D02*
X0155357Y0029494D01*
X0155357Y0029893D02*
X0006277Y0029893D01*
X0006277Y0030291D02*
X0155357Y0030291D01*
X0155357Y0030690D02*
X0119857Y0030690D01*
X0119500Y0030542D02*
X0120885Y0031115D01*
X0121945Y0032176D01*
X0122518Y0033561D01*
X0122518Y0034119D01*
X0125336Y0036937D01*
X0126124Y0037724D01*
X0126550Y0038753D01*
X0126550Y0041781D01*
X0126945Y0042176D01*
X0127518Y0043561D01*
X0127518Y0045060D01*
X0126945Y0046445D01*
X0126550Y0046840D01*
X0126550Y0048410D01*
X0126124Y0049440D01*
X0117576Y0057987D01*
X0116789Y0058775D01*
X0115760Y0059201D01*
X0098459Y0059201D01*
X0100571Y0060420D01*
X0102640Y0062489D01*
X0104102Y0065022D01*
X0104859Y0067848D01*
X0104859Y0070773D01*
X0104102Y0073598D01*
X0102640Y0076132D01*
X0100571Y0078200D01*
X0098038Y0079663D01*
X0095213Y0080420D01*
X0092287Y0080420D01*
X0090315Y0079891D01*
X0090475Y0080278D01*
X0090475Y0082358D01*
X0089679Y0084280D01*
X0088208Y0085751D01*
X0086286Y0086547D01*
X0084206Y0086547D01*
X0082284Y0085751D01*
X0080813Y0084280D01*
X0080017Y0082358D01*
X0080017Y0080278D01*
X0080813Y0078356D01*
X0082284Y0076885D01*
X0084206Y0076089D01*
X0084836Y0076089D01*
X0083398Y0073598D01*
X0082641Y0070773D01*
X0082641Y0067848D01*
X0083398Y0065022D01*
X0084860Y0062489D01*
X0086929Y0060420D01*
X0089041Y0059201D01*
X0085625Y0059201D01*
X0079286Y0065540D01*
X0079286Y0074198D01*
X0078860Y0075227D01*
X0078072Y0076015D01*
X0077043Y0076441D01*
X0075929Y0076441D01*
X0074900Y0076015D01*
X0074112Y0075227D01*
X0073686Y0074198D01*
X0073686Y0063823D01*
X0074112Y0062794D01*
X0074900Y0062007D01*
X0082092Y0054815D01*
X0082880Y0054027D01*
X0083909Y0053601D01*
X0114043Y0053601D01*
X0120877Y0046767D01*
X0120555Y0046445D01*
X0119981Y0045060D01*
X0119981Y0043561D01*
X0120555Y0042176D01*
X0120950Y0041781D01*
X0120950Y0040470D01*
X0118559Y0038079D01*
X0118000Y0038079D01*
X0116615Y0037505D01*
X0115555Y0036445D01*
X0114981Y0035060D01*
X0114981Y0033561D01*
X0115555Y0032176D01*
X0116615Y0031115D01*
X0118000Y0030542D01*
X0119500Y0030542D01*
X0120819Y0031088D02*
X0155357Y0031088D01*
X0155357Y0031487D02*
X0121256Y0031487D01*
X0121655Y0031885D02*
X0155357Y0031885D01*
X0155357Y0032284D02*
X0121990Y0032284D01*
X0122155Y0032682D02*
X0155357Y0032682D01*
X0155357Y0033081D02*
X0122320Y0033081D01*
X0122485Y0033479D02*
X0155357Y0033479D01*
X0155357Y0033878D02*
X0122518Y0033878D01*
X0122676Y0034276D02*
X0155357Y0034276D01*
X0155357Y0034675D02*
X0123075Y0034675D01*
X0123473Y0035073D02*
X0155357Y0035073D01*
X0155357Y0035472D02*
X0123872Y0035472D01*
X0124270Y0035870D02*
X0155357Y0035870D01*
X0155357Y0036269D02*
X0124669Y0036269D01*
X0125067Y0036668D02*
X0155357Y0036668D01*
X0155357Y0037066D02*
X0125466Y0037066D01*
X0125864Y0037465D02*
X0155357Y0037465D01*
X0155357Y0037863D02*
X0126181Y0037863D01*
X0126346Y0038262D02*
X0155357Y0038262D01*
X0155357Y0038660D02*
X0126511Y0038660D01*
X0126550Y0039059D02*
X0155357Y0039059D01*
X0155357Y0039457D02*
X0126550Y0039457D01*
X0126550Y0039856D02*
X0155357Y0039856D01*
X0155357Y0040254D02*
X0126550Y0040254D01*
X0126550Y0040653D02*
X0155357Y0040653D01*
X0155357Y0041051D02*
X0126550Y0041051D01*
X0126550Y0041450D02*
X0155357Y0041450D01*
X0155357Y0041848D02*
X0126617Y0041848D01*
X0126974Y0042247D02*
X0155357Y0042247D01*
X0155357Y0042645D02*
X0127139Y0042645D01*
X0127304Y0043044D02*
X0155357Y0043044D01*
X0155357Y0043442D02*
X0127469Y0043442D01*
X0127518Y0043841D02*
X0155357Y0043841D01*
X0155357Y0044239D02*
X0127518Y0044239D01*
X0127518Y0044638D02*
X0155357Y0044638D01*
X0155357Y0045036D02*
X0127518Y0045036D01*
X0127363Y0045435D02*
X0155357Y0045435D01*
X0155357Y0045833D02*
X0127198Y0045833D01*
X0127033Y0046232D02*
X0155357Y0046232D01*
X0155357Y0046630D02*
X0126759Y0046630D01*
X0126550Y0047029D02*
X0155357Y0047029D01*
X0155357Y0047427D02*
X0126550Y0047427D01*
X0126550Y0047826D02*
X0155357Y0047826D01*
X0155357Y0048224D02*
X0126550Y0048224D01*
X0126462Y0048623D02*
X0155357Y0048623D01*
X0155357Y0049021D02*
X0126297Y0049021D01*
X0126132Y0049420D02*
X0155357Y0049420D01*
X0155357Y0049818D02*
X0125745Y0049818D01*
X0125346Y0050217D02*
X0155357Y0050217D01*
X0155357Y0050615D02*
X0124948Y0050615D01*
X0124549Y0051014D02*
X0155357Y0051014D01*
X0155357Y0051412D02*
X0124151Y0051412D01*
X0123752Y0051811D02*
X0155357Y0051811D01*
X0155357Y0052209D02*
X0123354Y0052209D01*
X0122955Y0052608D02*
X0155357Y0052608D01*
X0155357Y0053006D02*
X0122557Y0053006D01*
X0122158Y0053405D02*
X0155357Y0053405D01*
X0155357Y0053803D02*
X0121760Y0053803D01*
X0121361Y0054202D02*
X0155357Y0054202D01*
X0155357Y0054601D02*
X0120963Y0054601D01*
X0120564Y0054999D02*
X0155357Y0054999D01*
X0155357Y0055398D02*
X0120166Y0055398D01*
X0119767Y0055796D02*
X0155357Y0055796D01*
X0155357Y0056195D02*
X0119369Y0056195D01*
X0118970Y0056593D02*
X0155357Y0056593D01*
X0155357Y0056992D02*
X0118572Y0056992D01*
X0118173Y0057390D02*
X0155357Y0057390D01*
X0155357Y0057789D02*
X0117775Y0057789D01*
X0117376Y0058187D02*
X0155357Y0058187D01*
X0155357Y0058586D02*
X0141649Y0058586D01*
X0143038Y0058958D02*
X0145571Y0060420D01*
X0147640Y0062489D01*
X0149102Y0065022D01*
X0149859Y0067848D01*
X0149859Y0070773D01*
X0149102Y0073598D01*
X0147664Y0076089D01*
X0148294Y0076089D01*
X0150216Y0076885D01*
X0151687Y0078356D01*
X0152483Y0080278D01*
X0152483Y0082358D01*
X0151687Y0084280D01*
X0150216Y0085751D01*
X0148294Y0086547D01*
X0146214Y0086547D01*
X0144292Y0085751D01*
X0142821Y0084280D01*
X0142025Y0082358D01*
X0142025Y0080278D01*
X0142185Y0079891D01*
X0140213Y0080420D01*
X0137287Y0080420D01*
X0134462Y0079663D01*
X0131929Y0078200D01*
X0129860Y0076132D01*
X0128398Y0073598D01*
X0127641Y0070773D01*
X0127641Y0067848D01*
X0128398Y0065022D01*
X0129860Y0062489D01*
X0131929Y0060420D01*
X0134462Y0058958D01*
X0137287Y0058201D01*
X0140213Y0058201D01*
X0143038Y0058958D01*
X0143084Y0058984D02*
X0155357Y0058984D01*
X0155357Y0059383D02*
X0143774Y0059383D01*
X0144464Y0059781D02*
X0155357Y0059781D01*
X0155357Y0060180D02*
X0145154Y0060180D01*
X0145729Y0060578D02*
X0155357Y0060578D01*
X0155357Y0060977D02*
X0146128Y0060977D01*
X0146526Y0061375D02*
X0155357Y0061375D01*
X0155357Y0061774D02*
X0146925Y0061774D01*
X0147323Y0062172D02*
X0155357Y0062172D01*
X0155357Y0062571D02*
X0147687Y0062571D01*
X0147917Y0062969D02*
X0155357Y0062969D01*
X0155357Y0063368D02*
X0148147Y0063368D01*
X0148377Y0063766D02*
X0155357Y0063766D01*
X0155357Y0064165D02*
X0148607Y0064165D01*
X0148837Y0064563D02*
X0155357Y0064563D01*
X0155357Y0064962D02*
X0149068Y0064962D01*
X0149193Y0065360D02*
X0155357Y0065360D01*
X0155357Y0065759D02*
X0149300Y0065759D01*
X0149407Y0066157D02*
X0155357Y0066157D01*
X0155357Y0066556D02*
X0149513Y0066556D01*
X0149620Y0066954D02*
X0155357Y0066954D01*
X0155357Y0067353D02*
X0149727Y0067353D01*
X0149834Y0067751D02*
X0155357Y0067751D01*
X0155357Y0068150D02*
X0149859Y0068150D01*
X0149859Y0068548D02*
X0155357Y0068548D01*
X0155357Y0068947D02*
X0149859Y0068947D01*
X0149859Y0069345D02*
X0155357Y0069345D01*
X0155357Y0069744D02*
X0149859Y0069744D01*
X0149859Y0070142D02*
X0155357Y0070142D01*
X0155357Y0070541D02*
X0149859Y0070541D01*
X0149815Y0070939D02*
X0155357Y0070939D01*
X0155357Y0071338D02*
X0149708Y0071338D01*
X0149601Y0071737D02*
X0155357Y0071737D01*
X0155357Y0072135D02*
X0149494Y0072135D01*
X0149388Y0072534D02*
X0155357Y0072534D01*
X0155357Y0072932D02*
X0149281Y0072932D01*
X0149174Y0073331D02*
X0155357Y0073331D01*
X0155357Y0073729D02*
X0149027Y0073729D01*
X0148797Y0074128D02*
X0155357Y0074128D01*
X0155357Y0074526D02*
X0148567Y0074526D01*
X0148337Y0074925D02*
X0155357Y0074925D01*
X0155357Y0075323D02*
X0148107Y0075323D01*
X0147876Y0075722D02*
X0155357Y0075722D01*
X0155357Y0076120D02*
X0148369Y0076120D01*
X0149331Y0076519D02*
X0155357Y0076519D01*
X0155357Y0076917D02*
X0150248Y0076917D01*
X0150647Y0077316D02*
X0155357Y0077316D01*
X0155357Y0077714D02*
X0151045Y0077714D01*
X0151444Y0078113D02*
X0155357Y0078113D01*
X0155357Y0078511D02*
X0151751Y0078511D01*
X0151916Y0078910D02*
X0155357Y0078910D01*
X0155357Y0079308D02*
X0152081Y0079308D01*
X0152246Y0079707D02*
X0155357Y0079707D01*
X0155357Y0080105D02*
X0152412Y0080105D01*
X0152483Y0080504D02*
X0155357Y0080504D01*
X0155357Y0080902D02*
X0152483Y0080902D01*
X0152483Y0081301D02*
X0155357Y0081301D01*
X0155357Y0081699D02*
X0152483Y0081699D01*
X0152483Y0082098D02*
X0155357Y0082098D01*
X0155357Y0082496D02*
X0152426Y0082496D01*
X0152261Y0082895D02*
X0155357Y0082895D01*
X0155357Y0083293D02*
X0152096Y0083293D01*
X0151931Y0083692D02*
X0155357Y0083692D01*
X0155357Y0084090D02*
X0151766Y0084090D01*
X0151478Y0084489D02*
X0155357Y0084489D01*
X0155357Y0084887D02*
X0151080Y0084887D01*
X0150681Y0085286D02*
X0155357Y0085286D01*
X0155357Y0085684D02*
X0150283Y0085684D01*
X0149415Y0086083D02*
X0155357Y0086083D01*
X0155357Y0086481D02*
X0148453Y0086481D01*
X0146055Y0086481D02*
X0086445Y0086481D01*
X0087407Y0086083D02*
X0145093Y0086083D01*
X0144225Y0085684D02*
X0088275Y0085684D01*
X0088673Y0085286D02*
X0143827Y0085286D01*
X0143428Y0084887D02*
X0089072Y0084887D01*
X0089470Y0084489D02*
X0143030Y0084489D01*
X0142742Y0084090D02*
X0089758Y0084090D01*
X0089923Y0083692D02*
X0142577Y0083692D01*
X0142412Y0083293D02*
X0090088Y0083293D01*
X0090253Y0082895D02*
X0142247Y0082895D01*
X0142082Y0082496D02*
X0090418Y0082496D01*
X0090475Y0082098D02*
X0142025Y0082098D01*
X0142025Y0081699D02*
X0090475Y0081699D01*
X0090475Y0081301D02*
X0142025Y0081301D01*
X0142025Y0080902D02*
X0090475Y0080902D01*
X0090475Y0080504D02*
X0142025Y0080504D01*
X0142096Y0080105D02*
X0141386Y0080105D01*
X0136114Y0080105D02*
X0096386Y0080105D01*
X0097873Y0079707D02*
X0134627Y0079707D01*
X0133848Y0079308D02*
X0098652Y0079308D01*
X0099342Y0078910D02*
X0133158Y0078910D01*
X0132468Y0078511D02*
X0100032Y0078511D01*
X0100659Y0078113D02*
X0131841Y0078113D01*
X0131443Y0077714D02*
X0101057Y0077714D01*
X0101456Y0077316D02*
X0131044Y0077316D01*
X0130646Y0076917D02*
X0101854Y0076917D01*
X0102253Y0076519D02*
X0130247Y0076519D01*
X0129854Y0076120D02*
X0102646Y0076120D01*
X0102876Y0075722D02*
X0129624Y0075722D01*
X0129393Y0075323D02*
X0103107Y0075323D01*
X0103337Y0074925D02*
X0129163Y0074925D01*
X0128933Y0074526D02*
X0103567Y0074526D01*
X0103797Y0074128D02*
X0128703Y0074128D01*
X0128473Y0073729D02*
X0104027Y0073729D01*
X0104174Y0073331D02*
X0128326Y0073331D01*
X0128219Y0072932D02*
X0104281Y0072932D01*
X0104388Y0072534D02*
X0128112Y0072534D01*
X0128006Y0072135D02*
X0104494Y0072135D01*
X0104601Y0071737D02*
X0127899Y0071737D01*
X0127792Y0071338D02*
X0104708Y0071338D01*
X0104815Y0070939D02*
X0127685Y0070939D01*
X0127641Y0070541D02*
X0104859Y0070541D01*
X0104859Y0070142D02*
X0127641Y0070142D01*
X0127641Y0069744D02*
X0104859Y0069744D01*
X0104859Y0069345D02*
X0127641Y0069345D01*
X0127641Y0068947D02*
X0104859Y0068947D01*
X0104859Y0068548D02*
X0127641Y0068548D01*
X0127641Y0068150D02*
X0104859Y0068150D01*
X0104834Y0067751D02*
X0127666Y0067751D01*
X0127773Y0067353D02*
X0104727Y0067353D01*
X0104620Y0066954D02*
X0127880Y0066954D01*
X0127987Y0066556D02*
X0104513Y0066556D01*
X0104407Y0066157D02*
X0128093Y0066157D01*
X0128200Y0065759D02*
X0104300Y0065759D01*
X0104193Y0065360D02*
X0128307Y0065360D01*
X0128432Y0064962D02*
X0104068Y0064962D01*
X0103837Y0064563D02*
X0128663Y0064563D01*
X0128893Y0064165D02*
X0103607Y0064165D01*
X0103377Y0063766D02*
X0129123Y0063766D01*
X0129353Y0063368D02*
X0103147Y0063368D01*
X0102917Y0062969D02*
X0129583Y0062969D01*
X0129813Y0062571D02*
X0102687Y0062571D01*
X0102323Y0062172D02*
X0130177Y0062172D01*
X0130575Y0061774D02*
X0101925Y0061774D01*
X0101526Y0061375D02*
X0130974Y0061375D01*
X0131372Y0060977D02*
X0101128Y0060977D01*
X0100729Y0060578D02*
X0131771Y0060578D01*
X0132346Y0060180D02*
X0100154Y0060180D01*
X0099464Y0059781D02*
X0133036Y0059781D01*
X0133726Y0059383D02*
X0098774Y0059383D01*
X0088726Y0059383D02*
X0085444Y0059383D01*
X0085045Y0059781D02*
X0088036Y0059781D01*
X0087346Y0060180D02*
X0084647Y0060180D01*
X0084248Y0060578D02*
X0086771Y0060578D01*
X0086372Y0060977D02*
X0083850Y0060977D01*
X0083451Y0061375D02*
X0085974Y0061375D01*
X0085575Y0061774D02*
X0083053Y0061774D01*
X0082654Y0062172D02*
X0085177Y0062172D01*
X0084813Y0062571D02*
X0082256Y0062571D01*
X0081857Y0062969D02*
X0084583Y0062969D01*
X0084353Y0063368D02*
X0081459Y0063368D01*
X0081060Y0063766D02*
X0084123Y0063766D01*
X0083893Y0064165D02*
X0080661Y0064165D01*
X0080263Y0064563D02*
X0083663Y0064563D01*
X0083432Y0064962D02*
X0079864Y0064962D01*
X0079466Y0065360D02*
X0083307Y0065360D01*
X0083200Y0065759D02*
X0079286Y0065759D01*
X0079286Y0066157D02*
X0083093Y0066157D01*
X0082987Y0066556D02*
X0079286Y0066556D01*
X0079286Y0066954D02*
X0082880Y0066954D01*
X0082773Y0067353D02*
X0079286Y0067353D01*
X0079286Y0067751D02*
X0082666Y0067751D01*
X0082641Y0068150D02*
X0079286Y0068150D01*
X0079286Y0068548D02*
X0082641Y0068548D01*
X0082641Y0068947D02*
X0079286Y0068947D01*
X0079286Y0069345D02*
X0082641Y0069345D01*
X0082641Y0069744D02*
X0079286Y0069744D01*
X0079286Y0070142D02*
X0082641Y0070142D01*
X0082641Y0070541D02*
X0079286Y0070541D01*
X0079286Y0070939D02*
X0082685Y0070939D01*
X0082792Y0071338D02*
X0079286Y0071338D01*
X0079286Y0071737D02*
X0082899Y0071737D01*
X0083006Y0072135D02*
X0079286Y0072135D01*
X0079286Y0072534D02*
X0083112Y0072534D01*
X0083219Y0072932D02*
X0079286Y0072932D01*
X0079286Y0073331D02*
X0083326Y0073331D01*
X0083473Y0073729D02*
X0079286Y0073729D01*
X0079286Y0074128D02*
X0083703Y0074128D01*
X0083933Y0074526D02*
X0079150Y0074526D01*
X0078985Y0074925D02*
X0084163Y0074925D01*
X0084393Y0075323D02*
X0078764Y0075323D01*
X0078365Y0075722D02*
X0084624Y0075722D01*
X0084131Y0076120D02*
X0077818Y0076120D01*
X0075155Y0076120D02*
X0006277Y0076120D01*
X0006277Y0075722D02*
X0074607Y0075722D01*
X0074209Y0075323D02*
X0006277Y0075323D01*
X0006277Y0074925D02*
X0073987Y0074925D01*
X0073822Y0074526D02*
X0006277Y0074526D01*
X0006277Y0074128D02*
X0073686Y0074128D01*
X0073686Y0073729D02*
X0006277Y0073729D01*
X0006277Y0073331D02*
X0026992Y0073331D01*
X0026126Y0072972D02*
X0024793Y0071639D01*
X0024072Y0069898D01*
X0024072Y0068014D01*
X0024793Y0066273D01*
X0026126Y0064940D01*
X0027867Y0064219D01*
X0037625Y0064219D01*
X0039366Y0064940D01*
X0040699Y0066273D01*
X0041256Y0067617D01*
X0041872Y0067617D01*
X0042861Y0066628D01*
X0044757Y0066628D01*
X0046098Y0067968D01*
X0046098Y0069865D01*
X0044757Y0071205D01*
X0042861Y0071205D01*
X0041872Y0070217D01*
X0041288Y0070217D01*
X0040699Y0071639D01*
X0039366Y0072972D01*
X0037625Y0073693D01*
X0027867Y0073693D01*
X0026126Y0072972D01*
X0026086Y0072932D02*
X0006277Y0072932D01*
X0006277Y0072534D02*
X0025688Y0072534D01*
X0025289Y0072135D02*
X0006277Y0072135D01*
X0006277Y0071737D02*
X0024891Y0071737D01*
X0024668Y0071338D02*
X0006277Y0071338D01*
X0006277Y0070939D02*
X0024503Y0070939D01*
X0024338Y0070541D02*
X0006277Y0070541D01*
X0006277Y0070142D02*
X0024173Y0070142D01*
X0024072Y0069744D02*
X0006277Y0069744D01*
X0006277Y0069345D02*
X0024072Y0069345D01*
X0024072Y0068947D02*
X0006277Y0068947D01*
X0006277Y0068548D02*
X0024072Y0068548D01*
X0024072Y0068150D02*
X0006277Y0068150D01*
X0006277Y0067751D02*
X0024181Y0067751D01*
X0024346Y0067353D02*
X0006277Y0067353D01*
X0006277Y0066954D02*
X0024511Y0066954D01*
X0024676Y0066556D02*
X0006277Y0066556D01*
X0006277Y0066157D02*
X0024908Y0066157D01*
X0025307Y0065759D02*
X0006277Y0065759D01*
X0006277Y0065360D02*
X0025705Y0065360D01*
X0026104Y0064962D02*
X0006277Y0064962D01*
X0006277Y0064563D02*
X0027035Y0064563D01*
X0027867Y0058693D02*
X0026126Y0057972D01*
X0024793Y0056639D01*
X0024072Y0054898D01*
X0024072Y0053014D01*
X0024793Y0051273D01*
X0026126Y0049940D01*
X0027867Y0049219D01*
X0037625Y0049219D01*
X0039366Y0049940D01*
X0040699Y0051273D01*
X0041272Y0052656D01*
X0041872Y0052656D01*
X0042861Y0051667D01*
X0044757Y0051667D01*
X0046098Y0053008D01*
X0046098Y0054904D01*
X0044757Y0056245D01*
X0042861Y0056245D01*
X0041872Y0055256D01*
X0041272Y0055256D01*
X0040699Y0056639D01*
X0039366Y0057972D01*
X0037625Y0058693D01*
X0027867Y0058693D01*
X0027608Y0058586D02*
X0006277Y0058586D01*
X0006277Y0058984D02*
X0077923Y0058984D01*
X0078321Y0058586D02*
X0037884Y0058586D01*
X0038846Y0058187D02*
X0078720Y0058187D01*
X0079118Y0057789D02*
X0039549Y0057789D01*
X0039948Y0057390D02*
X0079517Y0057390D01*
X0079915Y0056992D02*
X0040347Y0056992D01*
X0040718Y0056593D02*
X0080314Y0056593D01*
X0080712Y0056195D02*
X0079810Y0056195D01*
X0079405Y0056362D02*
X0078291Y0056362D01*
X0077262Y0055936D01*
X0076475Y0055148D01*
X0076048Y0054119D01*
X0076048Y0053005D01*
X0076475Y0051976D01*
X0079624Y0048827D01*
X0080412Y0048039D01*
X0081441Y0047613D01*
X0106488Y0047613D01*
X0109981Y0044119D01*
X0109981Y0043561D01*
X0110555Y0042176D01*
X0110950Y0041781D01*
X0110950Y0040470D01*
X0108559Y0038079D01*
X0108000Y0038079D01*
X0106615Y0037505D01*
X0105555Y0036445D01*
X0104981Y0035060D01*
X0104981Y0033561D01*
X0105555Y0032176D01*
X0106615Y0031115D01*
X0108000Y0030542D01*
X0109500Y0030542D01*
X0110885Y0031115D01*
X0111945Y0032176D01*
X0112518Y0033561D01*
X0112518Y0034119D01*
X0115336Y0036937D01*
X0116124Y0037724D01*
X0116550Y0038753D01*
X0116550Y0041781D01*
X0116945Y0042176D01*
X0117518Y0043561D01*
X0117518Y0045060D01*
X0116945Y0046445D01*
X0115885Y0047505D01*
X0114500Y0048079D01*
X0113941Y0048079D01*
X0110021Y0051999D01*
X0109234Y0052786D01*
X0108205Y0053213D01*
X0083158Y0053213D01*
X0080434Y0055936D01*
X0079405Y0056362D01*
X0080574Y0055796D02*
X0081111Y0055796D01*
X0080973Y0055398D02*
X0081509Y0055398D01*
X0081371Y0054999D02*
X0081908Y0054999D01*
X0081770Y0054601D02*
X0082306Y0054601D01*
X0082168Y0054202D02*
X0082705Y0054202D01*
X0082567Y0053803D02*
X0083419Y0053803D01*
X0082965Y0053405D02*
X0114239Y0053405D01*
X0114637Y0053006D02*
X0108702Y0053006D01*
X0109412Y0052608D02*
X0115036Y0052608D01*
X0115434Y0052209D02*
X0109811Y0052209D01*
X0110209Y0051811D02*
X0115833Y0051811D01*
X0116231Y0051412D02*
X0110608Y0051412D01*
X0111006Y0051014D02*
X0116630Y0051014D01*
X0117028Y0050615D02*
X0111405Y0050615D01*
X0111803Y0050217D02*
X0117427Y0050217D01*
X0117825Y0049818D02*
X0112202Y0049818D01*
X0112600Y0049420D02*
X0118224Y0049420D01*
X0118622Y0049021D02*
X0112999Y0049021D01*
X0113397Y0048623D02*
X0119021Y0048623D01*
X0119419Y0048224D02*
X0113796Y0048224D01*
X0115110Y0047826D02*
X0119818Y0047826D01*
X0120216Y0047427D02*
X0115962Y0047427D01*
X0116361Y0047029D02*
X0120615Y0047029D01*
X0120741Y0046630D02*
X0116759Y0046630D01*
X0117033Y0046232D02*
X0120467Y0046232D01*
X0120302Y0045833D02*
X0117198Y0045833D01*
X0117363Y0045435D02*
X0120137Y0045435D01*
X0119981Y0045036D02*
X0117518Y0045036D01*
X0117518Y0044638D02*
X0119981Y0044638D01*
X0119981Y0044239D02*
X0117518Y0044239D01*
X0117518Y0043841D02*
X0119981Y0043841D01*
X0120031Y0043442D02*
X0117469Y0043442D01*
X0117304Y0043044D02*
X0120196Y0043044D01*
X0120361Y0042645D02*
X0117139Y0042645D01*
X0116974Y0042247D02*
X0120526Y0042247D01*
X0120883Y0041848D02*
X0116617Y0041848D01*
X0116550Y0041450D02*
X0120950Y0041450D01*
X0120950Y0041051D02*
X0116550Y0041051D01*
X0116550Y0040653D02*
X0120950Y0040653D01*
X0120734Y0040254D02*
X0116550Y0040254D01*
X0116550Y0039856D02*
X0120336Y0039856D01*
X0119937Y0039457D02*
X0116550Y0039457D01*
X0116550Y0039059D02*
X0119539Y0039059D01*
X0119140Y0038660D02*
X0116511Y0038660D01*
X0116346Y0038262D02*
X0118742Y0038262D01*
X0117480Y0037863D02*
X0116181Y0037863D01*
X0115864Y0037465D02*
X0116575Y0037465D01*
X0116176Y0037066D02*
X0115466Y0037066D01*
X0115778Y0036668D02*
X0115067Y0036668D01*
X0114669Y0036269D02*
X0115482Y0036269D01*
X0115317Y0035870D02*
X0114270Y0035870D01*
X0113872Y0035472D02*
X0115152Y0035472D01*
X0114987Y0035073D02*
X0113473Y0035073D01*
X0113075Y0034675D02*
X0114981Y0034675D01*
X0114981Y0034276D02*
X0112676Y0034276D01*
X0112518Y0033878D02*
X0114981Y0033878D01*
X0115015Y0033479D02*
X0112485Y0033479D01*
X0112320Y0033081D02*
X0115180Y0033081D01*
X0115345Y0032682D02*
X0112155Y0032682D01*
X0111990Y0032284D02*
X0115510Y0032284D01*
X0115845Y0031885D02*
X0111655Y0031885D01*
X0111256Y0031487D02*
X0116244Y0031487D01*
X0116681Y0031088D02*
X0110819Y0031088D01*
X0109857Y0030690D02*
X0117643Y0030690D01*
X0108742Y0038262D02*
X0006277Y0038262D01*
X0006277Y0038660D02*
X0109140Y0038660D01*
X0109539Y0039059D02*
X0006277Y0039059D01*
X0006277Y0039457D02*
X0109937Y0039457D01*
X0110336Y0039856D02*
X0006277Y0039856D01*
X0006277Y0040254D02*
X0110734Y0040254D01*
X0110950Y0040653D02*
X0006277Y0040653D01*
X0006277Y0041051D02*
X0110950Y0041051D01*
X0110950Y0041450D02*
X0006277Y0041450D01*
X0006277Y0041848D02*
X0110883Y0041848D01*
X0110526Y0042247D02*
X0006277Y0042247D01*
X0006277Y0042645D02*
X0110361Y0042645D01*
X0110196Y0043044D02*
X0006277Y0043044D01*
X0006277Y0043442D02*
X0110031Y0043442D01*
X0109981Y0043841D02*
X0006277Y0043841D01*
X0006277Y0044239D02*
X0109861Y0044239D01*
X0109463Y0044638D02*
X0006277Y0044638D01*
X0006277Y0045036D02*
X0109064Y0045036D01*
X0108666Y0045435D02*
X0006277Y0045435D01*
X0006277Y0045833D02*
X0108267Y0045833D01*
X0107869Y0046232D02*
X0006277Y0046232D01*
X0006277Y0046630D02*
X0107470Y0046630D01*
X0107072Y0047029D02*
X0006277Y0047029D01*
X0006277Y0047427D02*
X0106673Y0047427D01*
X0107480Y0037863D02*
X0006277Y0037863D01*
X0006277Y0037465D02*
X0106575Y0037465D01*
X0106176Y0037066D02*
X0006277Y0037066D01*
X0006277Y0036668D02*
X0105778Y0036668D01*
X0105482Y0036269D02*
X0006277Y0036269D01*
X0006277Y0035870D02*
X0105317Y0035870D01*
X0105152Y0035472D02*
X0006277Y0035472D01*
X0006277Y0035073D02*
X0104987Y0035073D01*
X0104981Y0034675D02*
X0006277Y0034675D01*
X0006277Y0034276D02*
X0104981Y0034276D01*
X0104981Y0033878D02*
X0006277Y0033878D01*
X0006277Y0033479D02*
X0105015Y0033479D01*
X0105180Y0033081D02*
X0006277Y0033081D01*
X0006277Y0032682D02*
X0105345Y0032682D01*
X0105510Y0032284D02*
X0006277Y0032284D01*
X0006277Y0031885D02*
X0105845Y0031885D01*
X0106244Y0031487D02*
X0006277Y0031487D01*
X0006277Y0031088D02*
X0106681Y0031088D01*
X0107643Y0030690D02*
X0006277Y0030690D01*
X0006277Y0022321D02*
X0009802Y0022321D01*
X0009112Y0021923D02*
X0006277Y0021923D01*
X0006277Y0021524D02*
X0008422Y0021524D01*
X0007732Y0021126D02*
X0006277Y0021126D01*
X0006277Y0020727D02*
X0007312Y0020727D01*
X0006914Y0020329D02*
X0006277Y0020329D01*
X0006277Y0019930D02*
X0006515Y0019930D01*
X0006277Y0047826D02*
X0080926Y0047826D01*
X0080226Y0048224D02*
X0006277Y0048224D01*
X0006277Y0048623D02*
X0079828Y0048623D01*
X0079429Y0049021D02*
X0006277Y0049021D01*
X0006277Y0049420D02*
X0027382Y0049420D01*
X0026420Y0049818D02*
X0006277Y0049818D01*
X0006277Y0050217D02*
X0025849Y0050217D01*
X0025450Y0050615D02*
X0006277Y0050615D01*
X0006277Y0051014D02*
X0025052Y0051014D01*
X0024735Y0051412D02*
X0006277Y0051412D01*
X0006277Y0051811D02*
X0024570Y0051811D01*
X0024405Y0052209D02*
X0006277Y0052209D01*
X0006277Y0052608D02*
X0024240Y0052608D01*
X0024075Y0053006D02*
X0006277Y0053006D01*
X0006277Y0053405D02*
X0024072Y0053405D01*
X0024072Y0053803D02*
X0006277Y0053803D01*
X0006277Y0054202D02*
X0024072Y0054202D01*
X0024072Y0054601D02*
X0006277Y0054601D01*
X0006277Y0054999D02*
X0024114Y0054999D01*
X0024279Y0055398D02*
X0006277Y0055398D01*
X0006277Y0055796D02*
X0024444Y0055796D01*
X0024609Y0056195D02*
X0006277Y0056195D01*
X0006277Y0056593D02*
X0024774Y0056593D01*
X0025146Y0056992D02*
X0006277Y0056992D01*
X0006277Y0057390D02*
X0025544Y0057390D01*
X0025943Y0057789D02*
X0006277Y0057789D01*
X0006277Y0058187D02*
X0026646Y0058187D01*
X0038457Y0064563D02*
X0073686Y0064563D01*
X0073686Y0064165D02*
X0006277Y0064165D01*
X0006277Y0063766D02*
X0073710Y0063766D01*
X0073875Y0063368D02*
X0006277Y0063368D01*
X0006277Y0062969D02*
X0074040Y0062969D01*
X0074336Y0062571D02*
X0006277Y0062571D01*
X0006277Y0062172D02*
X0074734Y0062172D01*
X0075133Y0061774D02*
X0006277Y0061774D01*
X0006277Y0061375D02*
X0075531Y0061375D01*
X0075930Y0060977D02*
X0006277Y0060977D01*
X0006277Y0060578D02*
X0076328Y0060578D01*
X0076727Y0060180D02*
X0006277Y0060180D01*
X0006277Y0059781D02*
X0077126Y0059781D01*
X0077524Y0059383D02*
X0006277Y0059383D01*
X0006277Y0076519D02*
X0083169Y0076519D01*
X0082252Y0076917D02*
X0006277Y0076917D01*
X0006277Y0077316D02*
X0081853Y0077316D01*
X0081455Y0077714D02*
X0006277Y0077714D01*
X0006277Y0078113D02*
X0081056Y0078113D01*
X0080749Y0078511D02*
X0006277Y0078511D01*
X0006277Y0078910D02*
X0080584Y0078910D01*
X0080419Y0079308D02*
X0006277Y0079308D01*
X0006277Y0079707D02*
X0080254Y0079707D01*
X0080088Y0080105D02*
X0006277Y0080105D01*
X0006277Y0080504D02*
X0080017Y0080504D01*
X0080017Y0080902D02*
X0006277Y0080902D01*
X0006277Y0081301D02*
X0080017Y0081301D01*
X0080017Y0081699D02*
X0006277Y0081699D01*
X0006277Y0082098D02*
X0080017Y0082098D01*
X0080074Y0082496D02*
X0006277Y0082496D01*
X0006277Y0082895D02*
X0080239Y0082895D01*
X0080404Y0083293D02*
X0006277Y0083293D01*
X0006277Y0083692D02*
X0080569Y0083692D01*
X0080734Y0084090D02*
X0006277Y0084090D01*
X0006277Y0084489D02*
X0081022Y0084489D01*
X0081420Y0084887D02*
X0006277Y0084887D01*
X0006277Y0085286D02*
X0081819Y0085286D01*
X0082217Y0085684D02*
X0006277Y0085684D01*
X0006277Y0086083D02*
X0083085Y0086083D01*
X0084047Y0086481D02*
X0006277Y0086481D01*
X0006277Y0086880D02*
X0155357Y0086880D01*
X0155357Y0087278D02*
X0006277Y0087278D01*
X0006277Y0087677D02*
X0155357Y0087677D01*
X0155357Y0088075D02*
X0006277Y0088075D01*
X0006277Y0088474D02*
X0155357Y0088474D01*
X0155357Y0088872D02*
X0006277Y0088872D01*
X0006277Y0089271D02*
X0155357Y0089271D01*
X0155357Y0089670D02*
X0006277Y0089670D01*
X0006277Y0090068D02*
X0155357Y0090068D01*
X0155357Y0090467D02*
X0006277Y0090467D01*
X0006277Y0090865D02*
X0155357Y0090865D01*
X0155357Y0091264D02*
X0006277Y0091264D01*
X0006277Y0091662D02*
X0155357Y0091662D01*
X0155357Y0092061D02*
X0006277Y0092061D01*
X0006277Y0092459D02*
X0155357Y0092459D01*
X0155357Y0092858D02*
X0006277Y0092858D01*
X0006277Y0093256D02*
X0155357Y0093256D01*
X0155357Y0093655D02*
X0006277Y0093655D01*
X0006277Y0094053D02*
X0155357Y0094053D01*
X0155357Y0094452D02*
X0006277Y0094452D01*
X0006277Y0094850D02*
X0155357Y0094850D01*
X0155357Y0095249D02*
X0006277Y0095249D01*
X0006277Y0095647D02*
X0155357Y0095647D01*
X0155357Y0096046D02*
X0006277Y0096046D01*
X0006277Y0096444D02*
X0155357Y0096444D01*
X0155357Y0096843D02*
X0006277Y0096843D01*
X0006277Y0097241D02*
X0155357Y0097241D01*
X0155357Y0097640D02*
X0006277Y0097640D01*
X0006277Y0098038D02*
X0155357Y0098038D01*
X0155357Y0098437D02*
X0006277Y0098437D01*
X0006277Y0098835D02*
X0155357Y0098835D01*
X0155357Y0099234D02*
X0006277Y0099234D01*
X0006277Y0099632D02*
X0155357Y0099632D01*
X0155357Y0100031D02*
X0006277Y0100031D01*
X0006277Y0100429D02*
X0155357Y0100429D01*
X0155357Y0100828D02*
X0006277Y0100828D01*
X0006277Y0101226D02*
X0155357Y0101226D01*
X0155357Y0101625D02*
X0150174Y0101625D01*
X0151654Y0102023D02*
X0155357Y0102023D01*
X0155357Y0102422D02*
X0152344Y0102422D01*
X0153034Y0102820D02*
X0155357Y0102820D01*
X0155357Y0103219D02*
X0153724Y0103219D01*
X0154219Y0103617D02*
X0155357Y0103617D01*
X0155357Y0104016D02*
X0154617Y0104016D01*
X0155016Y0104414D02*
X0155357Y0104414D01*
X0145318Y0101625D02*
X0016316Y0101625D01*
X0017795Y0102023D02*
X0143839Y0102023D01*
X0143148Y0102422D02*
X0018486Y0102422D01*
X0019176Y0102820D02*
X0142458Y0102820D01*
X0141768Y0103219D02*
X0019866Y0103219D01*
X0020360Y0103617D02*
X0141274Y0103617D01*
X0140875Y0104016D02*
X0020759Y0104016D01*
X0021157Y0104414D02*
X0140476Y0104414D01*
X0140078Y0104813D02*
X0021556Y0104813D01*
X0021954Y0105211D02*
X0139679Y0105211D01*
X0139441Y0105610D02*
X0022193Y0105610D01*
X0022423Y0106008D02*
X0139211Y0106008D01*
X0138981Y0106407D02*
X0022653Y0106407D01*
X0022883Y0106805D02*
X0138751Y0106805D01*
X0138521Y0107204D02*
X0023113Y0107204D01*
X0023323Y0107603D02*
X0138311Y0107603D01*
X0138205Y0108001D02*
X0023429Y0108001D01*
X0023536Y0108400D02*
X0138098Y0108400D01*
X0137991Y0108798D02*
X0023643Y0108798D01*
X0023750Y0109197D02*
X0137884Y0109197D01*
X0137777Y0109595D02*
X0023856Y0109595D01*
X0023963Y0109994D02*
X0137671Y0109994D01*
X0137641Y0110392D02*
X0023993Y0110392D01*
X0023993Y0110791D02*
X0137641Y0110791D01*
X0137641Y0111189D02*
X0023993Y0111189D01*
X0023993Y0111588D02*
X0137641Y0111588D01*
X0137641Y0111986D02*
X0023993Y0111986D01*
X0023993Y0112385D02*
X0137641Y0112385D01*
X0137645Y0112783D02*
X0023989Y0112783D01*
X0023882Y0113182D02*
X0137752Y0113182D01*
X0137859Y0113580D02*
X0023775Y0113580D01*
X0023669Y0113979D02*
X0137965Y0113979D01*
X0138072Y0114377D02*
X0023562Y0114377D01*
X0023455Y0114776D02*
X0138179Y0114776D01*
X0138286Y0115174D02*
X0023348Y0115174D01*
X0023168Y0115573D02*
X0138465Y0115573D01*
X0138696Y0115971D02*
X0022938Y0115971D01*
X0022708Y0116370D02*
X0138926Y0116370D01*
X0139156Y0116768D02*
X0022478Y0116768D01*
X0022248Y0117167D02*
X0139386Y0117167D01*
X0139616Y0117565D02*
X0022018Y0117565D01*
X0021652Y0117964D02*
X0139982Y0117964D01*
X0140381Y0118362D02*
X0021253Y0118362D01*
X0020855Y0118761D02*
X0140779Y0118761D01*
X0091114Y0080105D02*
X0090404Y0080105D01*
X0073686Y0073331D02*
X0038500Y0073331D01*
X0039406Y0072932D02*
X0073686Y0072932D01*
X0073686Y0072534D02*
X0039805Y0072534D01*
X0040203Y0072135D02*
X0073686Y0072135D01*
X0073686Y0071737D02*
X0040602Y0071737D01*
X0040824Y0071338D02*
X0073686Y0071338D01*
X0073686Y0070939D02*
X0045023Y0070939D01*
X0045422Y0070541D02*
X0073686Y0070541D01*
X0073686Y0070142D02*
X0045820Y0070142D01*
X0046098Y0069744D02*
X0073686Y0069744D01*
X0073686Y0069345D02*
X0046098Y0069345D01*
X0046098Y0068947D02*
X0073686Y0068947D01*
X0073686Y0068548D02*
X0046098Y0068548D01*
X0046098Y0068150D02*
X0073686Y0068150D01*
X0073686Y0067751D02*
X0045881Y0067751D01*
X0045482Y0067353D02*
X0073686Y0067353D01*
X0073686Y0066954D02*
X0045084Y0066954D01*
X0042534Y0066954D02*
X0040981Y0066954D01*
X0040816Y0066556D02*
X0073686Y0066556D01*
X0073686Y0066157D02*
X0040584Y0066157D01*
X0040185Y0065759D02*
X0073686Y0065759D01*
X0073686Y0065360D02*
X0039787Y0065360D01*
X0039388Y0064962D02*
X0073686Y0064962D01*
X0077887Y0056195D02*
X0044807Y0056195D01*
X0045206Y0055796D02*
X0077122Y0055796D01*
X0076724Y0055398D02*
X0045605Y0055398D01*
X0046003Y0054999D02*
X0076413Y0054999D01*
X0076248Y0054601D02*
X0046098Y0054601D01*
X0046098Y0054202D02*
X0076083Y0054202D01*
X0076048Y0053803D02*
X0046098Y0053803D01*
X0046098Y0053405D02*
X0076048Y0053405D01*
X0076048Y0053006D02*
X0046097Y0053006D01*
X0045698Y0052608D02*
X0076213Y0052608D01*
X0076378Y0052209D02*
X0045300Y0052209D01*
X0044901Y0051811D02*
X0076640Y0051811D01*
X0077038Y0051412D02*
X0040757Y0051412D01*
X0040922Y0051811D02*
X0042717Y0051811D01*
X0042318Y0052209D02*
X0041087Y0052209D01*
X0041252Y0052608D02*
X0041920Y0052608D01*
X0040440Y0051014D02*
X0077437Y0051014D01*
X0077835Y0050615D02*
X0040042Y0050615D01*
X0039643Y0050217D02*
X0078234Y0050217D01*
X0078632Y0049818D02*
X0039073Y0049818D01*
X0038111Y0049420D02*
X0079031Y0049420D01*
X0042811Y0056195D02*
X0040883Y0056195D01*
X0041048Y0055796D02*
X0042412Y0055796D01*
X0042014Y0055398D02*
X0041213Y0055398D01*
X0041146Y0067353D02*
X0042136Y0067353D01*
X0042196Y0070541D02*
X0041154Y0070541D01*
X0040989Y0070939D02*
X0042595Y0070939D01*
X0011460Y0101625D02*
X0006277Y0101625D01*
X0006277Y0102023D02*
X0009980Y0102023D01*
X0009290Y0102422D02*
X0006277Y0102422D01*
X0006277Y0102820D02*
X0008600Y0102820D01*
X0007910Y0103219D02*
X0006277Y0103219D01*
X0006277Y0103617D02*
X0007415Y0103617D01*
X0007017Y0104016D02*
X0006277Y0104016D01*
X0006277Y0104414D02*
X0006618Y0104414D01*
X0116283Y0058984D02*
X0134416Y0058984D01*
X0135851Y0058586D02*
X0116978Y0058586D01*
M02*
