M48
;GenerationSoftware,Autodesk,EAGLE,9.6.2*%
;CreationDate,2020-09-08T05:55:42Z*%
FMAT,2
ICI,OFF
METRIC,TZ,000.0000
T8C0.3500
T7C0.7000
T6C1.0000
T5C1.1000
T4C1.5000
T3C2.0000
T2C3.0000
T1C3.2990
%
G90
M71
T1
X306150Y112100
X191850Y112100
T2
X50000Y950000
X950000Y950000
X950000Y50000
X50000Y50000
T3
X421341Y105000
X552659Y105000
T4
X326500Y142600
X171500Y142600
T5
X80300Y250500
X80300Y212400
X80400Y115500
X80400Y153600
T6
X934700Y450300
X204500Y175600
X217200Y201000
X229900Y175600
X242650Y201000
X255350Y175600
X268100Y201000
X280700Y175600
X293450Y201000
X182700Y62200
X208100Y62200
X289900Y62200
X315300Y62200
X934000Y737000
X959400Y737000
X934000Y711600
X959400Y711600
X934000Y686200
X959400Y686200
X934000Y660800
X959400Y660800
X934000Y635400
X959400Y635400
X449400Y969860
X449400Y919060
X859400Y969860
X631400Y732160
X656800Y732160
X682200Y732160
X707600Y732160
X733000Y732160
X758400Y732160
X783800Y732160
X809200Y732160
X834600Y732160
X860000Y732160
X860000Y757560
X834600Y757560
X809200Y757560
X783800Y757560
X758400Y757560
X733000Y757560
X707600Y757560
X682200Y757560
X656800Y757560
X631400Y757560
X79300Y536900
X104700Y562300
X79300Y562300
X239000Y955000
X390000Y955000
X195000Y955000
X120000Y975000
X934700Y94700
X909300Y94700
X934700Y120100
X909300Y120100
X934700Y145500
X909300Y145500
X934700Y170900
X909300Y170900
X934700Y196300
X909300Y196300
X934700Y221700
X909300Y221700
X934700Y247100
X909300Y247100
X934700Y272500
X909300Y272500
X934700Y297900
X909300Y297900
X934700Y323300
X909300Y323300
X934700Y348700
X909300Y348700
X934700Y374100
X909300Y374100
X934700Y399500
X909300Y399500
X934700Y424900
X909300Y424900
X909300Y450300
X934700Y475700
X909300Y475700
X934700Y501100
X909300Y501100
X934700Y526500
X909300Y526500
X934700Y551900
X909300Y551900
X934700Y577300
X909300Y577300
X104700Y333700
X79300Y333700
X104700Y359100
X79300Y359100
X104700Y384500
X79300Y384500
X104700Y409900
X79300Y409900
X104700Y435300
X79300Y435300
X104700Y460700
X79300Y460700
X104700Y486100
X79300Y486100
X104700Y511500
X79300Y511500
X104700Y536900
T7
X47500Y876000
X122500Y876000
X47500Y666000
X337500Y876000
X337500Y666000
X85000Y666000
X122500Y666000
T8
X801000Y388000
X890000Y234200
X890000Y222000
X785000Y384000
X787000Y374000
X781000Y393000
X822000Y372000
X778000Y366000
X847000Y646000
X884000Y615000
X868000Y608000
X838000Y637000
X897000Y462000
X105000Y592000
X884000Y475000
X865000Y506000
X896000Y577000
X595000Y376700
X744000Y289000
X608724Y372776
X754600Y289100
X156000Y115000
X142000Y109000
X134500Y151500
X154000Y224000
X136000Y224000
X115083Y283717
X294000Y240500
X323000Y195500
X273000Y301500
X383000Y78500
X162000Y88500
X202000Y280500
X351000Y205000
X464000Y179000
X450000Y355000
X436081Y518172
X547000Y269000
X720000Y377000
X454000Y409000
X782000Y266000
X801000Y634000
X524000Y211000
X630000Y303000
X567000Y357000
X552000Y694000
X653000Y500000
X501000Y971000
X883000Y486000
X240000Y226500
X350300Y185700
X690350Y392650
X770224Y479776
X755300Y574500
X516000Y409000
X549000Y379000
X730844Y352422
X514368Y646923
X661000Y667000
X709800Y620900
X501800Y625600
X437500Y568424
X194300Y227000
X163000Y688000
X984760Y712000
X561000Y690000
X617350Y377128
X572800Y717000
X407500Y291000
X401000Y259000
X382000Y340000
X404400Y356700
X389000Y356924
X384000Y330000
X393500Y267004
X355000Y229500
X351000Y218500
X362000Y238000
X358000Y394000
X377088Y365000
X349400Y326500
X347000Y383000
X360000Y368000
X359500Y326600
X338000Y390000
X370000Y372000
X374324Y250500
X297000Y360000
X488900Y617400
X321000Y239500
X435000Y150000
X445476Y417976
X424000Y257000
X463194Y223000
X772000Y453000
X408000Y222500
X20000Y593000
X583000Y241000
X666000Y715000
X796850Y703150
X797000Y773000
X304850Y158150
X915000Y736762
X915000Y711600
X744068Y381468
X700253Y625860
X915000Y660800
X915000Y686200
X511393Y656069
X408350Y540650
X424000Y498000
X734000Y248912
X887000Y134000
X449000Y608000
X444500Y589500
X443200Y598500
X418000Y541000
X399000Y539000
X390000Y534000
X890000Y209000
X894000Y374000
X846000Y774000
X898000Y361000
X413000Y491000
X714000Y239000
X884000Y107000
X834000Y356576
X817000Y356576
X863000Y316000
X951000Y338000
X643088Y714000
X828000Y710000
X809000Y704000
X654000Y714000
X632000Y714000
X853000Y712000
X599000Y759000
X595000Y714000
X610000Y744000
X670000Y794000
X457027Y603027
X682100Y788788
X466115Y601515
X474485Y618100
X482000Y626000
X679000Y715000
X798000Y501000
X900624Y747100
X732000Y777000
X783000Y495000
X893936Y695000
X770000Y773000
X746000Y700000
X773000Y703000
X838576Y712000
X785000Y702424
X255200Y684400
M30