G04 EAGLE Gerber RS-274X export*
G75*
%MOMM*%
%FSLAX34Y34*%
%LPD*%
%INSilkscreen Bottom*%
%IPPOS*%
%AMOC8*
5,1,8,0,0,1.08239X$1,22.5*%
G01*
%ADD10C,0.127000*%
%ADD11C,0.025400*%
%ADD12C,0.203200*%
%ADD13C,0.100000*%
%ADD14C,0.050800*%
%ADD15C,0.152400*%
%ADD16C,0.076200*%


D10*
X318884Y256180D02*
X318886Y256264D01*
X318892Y256348D01*
X318902Y256432D01*
X318915Y256515D01*
X318933Y256597D01*
X318955Y256679D01*
X318980Y256759D01*
X319009Y256838D01*
X319042Y256916D01*
X319078Y256992D01*
X319118Y257066D01*
X319161Y257138D01*
X319207Y257208D01*
X319257Y257276D01*
X319310Y257342D01*
X319366Y257405D01*
X319425Y257465D01*
X319487Y257522D01*
X319551Y257577D01*
X319618Y257628D01*
X319687Y257676D01*
X319758Y257721D01*
X319831Y257763D01*
X319906Y257801D01*
X319983Y257835D01*
X320061Y257866D01*
X320141Y257893D01*
X320222Y257917D01*
X320304Y257936D01*
X320387Y257952D01*
X320470Y257964D01*
X320554Y257972D01*
X320638Y257976D01*
X320722Y257976D01*
X320806Y257972D01*
X320890Y257964D01*
X320973Y257952D01*
X321056Y257936D01*
X321138Y257917D01*
X321219Y257893D01*
X321299Y257866D01*
X321377Y257835D01*
X321454Y257801D01*
X321529Y257763D01*
X321602Y257721D01*
X321673Y257676D01*
X321742Y257628D01*
X321809Y257577D01*
X321873Y257522D01*
X321935Y257465D01*
X321994Y257405D01*
X322050Y257342D01*
X322103Y257276D01*
X322153Y257208D01*
X322199Y257138D01*
X322242Y257066D01*
X322282Y256992D01*
X322318Y256916D01*
X322351Y256838D01*
X322380Y256759D01*
X322405Y256679D01*
X322427Y256597D01*
X322445Y256515D01*
X322458Y256432D01*
X322468Y256348D01*
X322474Y256264D01*
X322476Y256180D01*
X322474Y256096D01*
X322468Y256012D01*
X322458Y255928D01*
X322445Y255845D01*
X322427Y255763D01*
X322405Y255681D01*
X322380Y255601D01*
X322351Y255522D01*
X322318Y255444D01*
X322282Y255368D01*
X322242Y255294D01*
X322199Y255222D01*
X322153Y255152D01*
X322103Y255084D01*
X322050Y255018D01*
X321994Y254955D01*
X321935Y254895D01*
X321873Y254838D01*
X321809Y254783D01*
X321742Y254732D01*
X321673Y254684D01*
X321602Y254639D01*
X321529Y254597D01*
X321454Y254559D01*
X321377Y254525D01*
X321299Y254494D01*
X321219Y254467D01*
X321138Y254443D01*
X321056Y254424D01*
X320973Y254408D01*
X320890Y254396D01*
X320806Y254388D01*
X320722Y254384D01*
X320638Y254384D01*
X320554Y254388D01*
X320470Y254396D01*
X320387Y254408D01*
X320304Y254424D01*
X320222Y254443D01*
X320141Y254467D01*
X320061Y254494D01*
X319983Y254525D01*
X319906Y254559D01*
X319831Y254597D01*
X319758Y254639D01*
X319687Y254684D01*
X319618Y254732D01*
X319551Y254783D01*
X319487Y254838D01*
X319425Y254895D01*
X319366Y254955D01*
X319310Y255018D01*
X319257Y255084D01*
X319207Y255152D01*
X319161Y255222D01*
X319118Y255294D01*
X319078Y255368D01*
X319042Y255444D01*
X319009Y255522D01*
X318980Y255601D01*
X318955Y255681D01*
X318933Y255763D01*
X318915Y255845D01*
X318902Y255928D01*
X318892Y256012D01*
X318886Y256096D01*
X318884Y256180D01*
X315600Y259990D02*
X315600Y251100D01*
X323220Y251100D01*
X357510Y251100D02*
X366400Y251100D01*
X366400Y259990D01*
X366400Y293010D02*
X366400Y301900D01*
X357510Y301900D01*
X325760Y301900D02*
X315600Y301900D01*
X315600Y293010D01*
X230900Y344500D02*
X180100Y344500D01*
X230900Y344500D02*
X230900Y293700D01*
X180100Y293700D01*
X180100Y344500D01*
D11*
X528768Y617030D02*
X529357Y617619D01*
X529356Y617619D02*
X529395Y617660D01*
X529431Y617704D01*
X529464Y617751D01*
X529493Y617799D01*
X529519Y617850D01*
X529542Y617902D01*
X529561Y617955D01*
X529576Y618010D01*
X529588Y618066D01*
X529596Y618122D01*
X529600Y618179D01*
X529600Y618235D01*
X529596Y618292D01*
X529588Y618348D01*
X529576Y618404D01*
X529561Y618459D01*
X529542Y618512D01*
X529519Y618564D01*
X529493Y618615D01*
X529464Y618663D01*
X529431Y618710D01*
X529395Y618754D01*
X529356Y618795D01*
X529357Y618796D02*
X527885Y620267D01*
X527886Y620268D02*
X527844Y620307D01*
X527800Y620343D01*
X527754Y620376D01*
X527705Y620405D01*
X527655Y620431D01*
X527603Y620454D01*
X527549Y620473D01*
X527494Y620488D01*
X527439Y620500D01*
X527382Y620508D01*
X527325Y620512D01*
X527269Y620512D01*
X527212Y620508D01*
X527156Y620500D01*
X527100Y620488D01*
X527045Y620473D01*
X526991Y620454D01*
X526939Y620431D01*
X526889Y620405D01*
X526840Y620376D01*
X526794Y620343D01*
X526750Y620307D01*
X526708Y620268D01*
X526708Y620267D02*
X526119Y619679D01*
X527817Y616079D02*
X526935Y615196D01*
X526934Y615197D02*
X526893Y615158D01*
X526849Y615122D01*
X526802Y615089D01*
X526754Y615060D01*
X526703Y615034D01*
X526651Y615011D01*
X526598Y614992D01*
X526543Y614977D01*
X526487Y614965D01*
X526431Y614957D01*
X526374Y614953D01*
X526318Y614953D01*
X526261Y614957D01*
X526205Y614965D01*
X526149Y614977D01*
X526094Y614992D01*
X526041Y615011D01*
X525989Y615034D01*
X525938Y615060D01*
X525890Y615089D01*
X525843Y615122D01*
X525799Y615158D01*
X525758Y615197D01*
X525757Y615196D02*
X525463Y615491D01*
X525464Y615491D02*
X525425Y615532D01*
X525389Y615576D01*
X525356Y615623D01*
X525327Y615671D01*
X525301Y615722D01*
X525278Y615774D01*
X525259Y615827D01*
X525244Y615882D01*
X525232Y615938D01*
X525224Y615994D01*
X525220Y616051D01*
X525220Y616107D01*
X525224Y616164D01*
X525232Y616220D01*
X525244Y616276D01*
X525259Y616331D01*
X525278Y616384D01*
X525301Y616436D01*
X525327Y616487D01*
X525356Y616535D01*
X525389Y616582D01*
X525425Y616626D01*
X525464Y616667D01*
X525463Y616668D02*
X526346Y617551D01*
X525169Y618728D01*
X523697Y617257D01*
X525272Y613534D02*
X524389Y612651D01*
X524388Y612651D02*
X524347Y612612D01*
X524303Y612576D01*
X524256Y612543D01*
X524208Y612514D01*
X524157Y612488D01*
X524105Y612465D01*
X524052Y612446D01*
X523997Y612431D01*
X523941Y612419D01*
X523885Y612411D01*
X523828Y612407D01*
X523772Y612407D01*
X523715Y612411D01*
X523659Y612419D01*
X523603Y612431D01*
X523548Y612446D01*
X523495Y612465D01*
X523443Y612488D01*
X523392Y612514D01*
X523344Y612543D01*
X523297Y612576D01*
X523253Y612612D01*
X523212Y612651D01*
X522917Y612945D01*
X522918Y612946D02*
X522879Y612987D01*
X522843Y613031D01*
X522810Y613078D01*
X522781Y613126D01*
X522755Y613177D01*
X522732Y613229D01*
X522713Y613282D01*
X522698Y613337D01*
X522686Y613393D01*
X522678Y613449D01*
X522674Y613506D01*
X522674Y613562D01*
X522678Y613619D01*
X522686Y613675D01*
X522698Y613731D01*
X522713Y613786D01*
X522732Y613839D01*
X522755Y613891D01*
X522781Y613942D01*
X522810Y613990D01*
X522843Y614037D01*
X522879Y614081D01*
X522918Y614122D01*
X522917Y614122D02*
X523800Y615005D01*
X522623Y616183D01*
X521152Y614711D01*
D12*
X917490Y730650D02*
X917490Y743350D01*
D13*
X375000Y628500D02*
X375000Y913500D01*
X375000Y628500D02*
X10000Y628500D01*
X10000Y913500D01*
X375000Y913500D01*
X235000Y730000D02*
X235000Y680000D01*
X260000Y663500D01*
X334000Y663500D01*
X334000Y664000D02*
X334000Y746500D01*
X260000Y746500D01*
X235000Y730000D01*
D12*
X35234Y779490D02*
X35234Y812510D01*
X35234Y779490D02*
X100766Y779490D01*
X100766Y812510D01*
X35234Y812510D01*
D14*
X75493Y841339D02*
X75493Y845911D01*
X76001Y841339D02*
X74985Y841339D01*
X74985Y845911D02*
X76001Y845911D01*
X72104Y841339D02*
X71088Y841339D01*
X72104Y841339D02*
X72165Y841341D01*
X72226Y841346D01*
X72287Y841356D01*
X72347Y841369D01*
X72406Y841385D01*
X72464Y841405D01*
X72521Y841429D01*
X72576Y841455D01*
X72630Y841486D01*
X72681Y841519D01*
X72731Y841555D01*
X72778Y841595D01*
X72822Y841637D01*
X72864Y841681D01*
X72904Y841728D01*
X72940Y841778D01*
X72973Y841829D01*
X73004Y841883D01*
X73030Y841938D01*
X73054Y841995D01*
X73074Y842053D01*
X73090Y842112D01*
X73103Y842172D01*
X73113Y842233D01*
X73118Y842294D01*
X73120Y842355D01*
X73120Y844895D01*
X73118Y844956D01*
X73113Y845017D01*
X73103Y845078D01*
X73090Y845138D01*
X73074Y845197D01*
X73054Y845255D01*
X73030Y845312D01*
X73004Y845367D01*
X72973Y845421D01*
X72940Y845472D01*
X72904Y845522D01*
X72864Y845569D01*
X72822Y845613D01*
X72778Y845655D01*
X72731Y845695D01*
X72681Y845731D01*
X72630Y845764D01*
X72576Y845795D01*
X72521Y845821D01*
X72464Y845845D01*
X72406Y845865D01*
X72347Y845881D01*
X72287Y845894D01*
X72226Y845904D01*
X72165Y845909D01*
X72104Y845911D01*
X71088Y845911D01*
X69295Y841339D02*
X68025Y841339D01*
X67955Y841341D01*
X67885Y841347D01*
X67816Y841356D01*
X67747Y841370D01*
X67679Y841387D01*
X67613Y841408D01*
X67547Y841432D01*
X67483Y841460D01*
X67421Y841492D01*
X67360Y841527D01*
X67301Y841565D01*
X67245Y841607D01*
X67191Y841651D01*
X67139Y841699D01*
X67091Y841749D01*
X67045Y841802D01*
X67002Y841857D01*
X66962Y841914D01*
X66925Y841974D01*
X66892Y842036D01*
X66862Y842099D01*
X66836Y842164D01*
X66813Y842230D01*
X66794Y842297D01*
X66779Y842366D01*
X66767Y842435D01*
X66759Y842504D01*
X66755Y842574D01*
X66755Y842644D01*
X66759Y842714D01*
X66767Y842783D01*
X66779Y842852D01*
X66794Y842921D01*
X66813Y842988D01*
X66836Y843054D01*
X66862Y843119D01*
X66892Y843182D01*
X66925Y843244D01*
X66962Y843304D01*
X67002Y843361D01*
X67045Y843416D01*
X67091Y843469D01*
X67139Y843519D01*
X67191Y843567D01*
X67245Y843611D01*
X67301Y843653D01*
X67360Y843691D01*
X67421Y843726D01*
X67483Y843758D01*
X67547Y843786D01*
X67613Y843810D01*
X67679Y843831D01*
X67747Y843848D01*
X67816Y843862D01*
X67885Y843871D01*
X67955Y843877D01*
X68025Y843879D01*
X67771Y845911D02*
X69295Y845911D01*
X67771Y845911D02*
X67708Y845909D01*
X67646Y845903D01*
X67584Y845894D01*
X67523Y845880D01*
X67463Y845863D01*
X67404Y845842D01*
X67346Y845818D01*
X67290Y845790D01*
X67236Y845759D01*
X67184Y845724D01*
X67134Y845687D01*
X67087Y845646D01*
X67042Y845602D01*
X66999Y845556D01*
X66960Y845507D01*
X66924Y845456D01*
X66891Y845403D01*
X66862Y845348D01*
X66835Y845291D01*
X66813Y845233D01*
X66794Y845173D01*
X66779Y845112D01*
X66767Y845051D01*
X66759Y844989D01*
X66755Y844926D01*
X66755Y844864D01*
X66759Y844801D01*
X66767Y844739D01*
X66779Y844678D01*
X66794Y844617D01*
X66813Y844557D01*
X66835Y844499D01*
X66862Y844442D01*
X66891Y844387D01*
X66924Y844334D01*
X66960Y844283D01*
X66999Y844234D01*
X67042Y844188D01*
X67087Y844144D01*
X67134Y844103D01*
X67184Y844066D01*
X67236Y844031D01*
X67290Y844000D01*
X67346Y843972D01*
X67404Y843948D01*
X67463Y843927D01*
X67523Y843910D01*
X67584Y843896D01*
X67646Y843887D01*
X67708Y843881D01*
X67771Y843879D01*
X68787Y843879D01*
D12*
X157234Y812510D02*
X157234Y779490D01*
X222766Y779490D01*
X222766Y812510D01*
X157234Y812510D01*
D14*
X197493Y841339D02*
X197493Y845911D01*
X198001Y841339D02*
X196985Y841339D01*
X196985Y845911D02*
X198001Y845911D01*
X194104Y841339D02*
X193088Y841339D01*
X194104Y841339D02*
X194165Y841341D01*
X194226Y841346D01*
X194287Y841356D01*
X194347Y841369D01*
X194406Y841385D01*
X194464Y841405D01*
X194521Y841429D01*
X194576Y841455D01*
X194630Y841486D01*
X194681Y841519D01*
X194731Y841555D01*
X194778Y841595D01*
X194822Y841637D01*
X194864Y841681D01*
X194904Y841728D01*
X194940Y841778D01*
X194973Y841829D01*
X195004Y841883D01*
X195030Y841938D01*
X195054Y841995D01*
X195074Y842053D01*
X195090Y842112D01*
X195103Y842172D01*
X195113Y842233D01*
X195118Y842294D01*
X195120Y842355D01*
X195120Y844895D01*
X195118Y844956D01*
X195113Y845017D01*
X195103Y845078D01*
X195090Y845138D01*
X195074Y845197D01*
X195054Y845255D01*
X195030Y845312D01*
X195004Y845367D01*
X194973Y845421D01*
X194940Y845472D01*
X194904Y845522D01*
X194864Y845569D01*
X194822Y845613D01*
X194778Y845655D01*
X194731Y845695D01*
X194681Y845731D01*
X194630Y845764D01*
X194576Y845795D01*
X194521Y845821D01*
X194464Y845845D01*
X194406Y845865D01*
X194347Y845881D01*
X194287Y845894D01*
X194226Y845904D01*
X194165Y845909D01*
X194104Y845911D01*
X193088Y845911D01*
X190279Y845911D02*
X191295Y842355D01*
X188755Y842355D01*
X189517Y843371D02*
X189517Y841339D01*
D11*
X134777Y85697D02*
X134269Y85697D01*
X134777Y85697D02*
X134821Y85699D01*
X134865Y85705D01*
X134908Y85714D01*
X134951Y85728D01*
X134992Y85745D01*
X135031Y85765D01*
X135068Y85789D01*
X135104Y85816D01*
X135136Y85846D01*
X135166Y85878D01*
X135193Y85914D01*
X135217Y85951D01*
X135237Y85990D01*
X135254Y86031D01*
X135268Y86074D01*
X135277Y86117D01*
X135283Y86161D01*
X135285Y86205D01*
X135285Y87475D01*
X135283Y87519D01*
X135277Y87563D01*
X135268Y87606D01*
X135254Y87649D01*
X135237Y87690D01*
X135217Y87729D01*
X135193Y87766D01*
X135166Y87802D01*
X135136Y87834D01*
X135104Y87864D01*
X135068Y87891D01*
X135031Y87915D01*
X134992Y87935D01*
X134951Y87952D01*
X134908Y87966D01*
X134865Y87975D01*
X134821Y87981D01*
X134777Y87983D01*
X134269Y87983D01*
X133373Y87475D02*
X132738Y87983D01*
X132738Y85697D01*
X133373Y85697D02*
X132103Y85697D01*
X131087Y87729D02*
X131087Y87983D01*
X129817Y87983D01*
X130452Y85697D01*
D15*
X120928Y93828D02*
X120928Y128372D01*
X122960Y128372D01*
X155472Y128372D02*
X155472Y93828D01*
X153440Y93828D01*
X122960Y93828D02*
X120928Y93828D01*
X153440Y128372D02*
X155472Y128372D01*
D16*
X155924Y85157D02*
X159903Y85157D01*
X155924Y85157D02*
X152939Y87478D01*
X155924Y85157D02*
X152939Y82835D01*
X155924Y85157D02*
X157250Y88804D01*
X155924Y85157D02*
X157250Y81509D01*
X147285Y77769D02*
X147285Y69147D01*
X147283Y69033D01*
X147277Y68918D01*
X147267Y68804D01*
X147253Y68691D01*
X147236Y68577D01*
X147214Y68465D01*
X147189Y68353D01*
X147159Y68243D01*
X147126Y68133D01*
X147089Y68025D01*
X147049Y67918D01*
X147004Y67812D01*
X146957Y67708D01*
X146905Y67606D01*
X146850Y67506D01*
X146792Y67407D01*
X146730Y67311D01*
X146665Y67216D01*
X146597Y67125D01*
X146525Y67035D01*
X146451Y66948D01*
X146374Y66864D01*
X146293Y66782D01*
X146210Y66703D01*
X146125Y66627D01*
X146036Y66554D01*
X145946Y66485D01*
X145853Y66418D01*
X145757Y66355D01*
X145660Y66295D01*
X145560Y66238D01*
X145459Y66185D01*
X145356Y66135D01*
X145251Y66089D01*
X145145Y66046D01*
X145037Y66008D01*
X144928Y65973D01*
X144818Y65942D01*
X144707Y65914D01*
X144595Y65891D01*
X144482Y65871D01*
X144369Y65855D01*
X144255Y65843D01*
X144141Y65835D01*
X144026Y65831D01*
X143912Y65831D01*
X143797Y65835D01*
X143683Y65843D01*
X143569Y65855D01*
X143456Y65871D01*
X143343Y65891D01*
X143231Y65914D01*
X143120Y65942D01*
X143010Y65973D01*
X142901Y66008D01*
X142793Y66046D01*
X142687Y66089D01*
X142582Y66135D01*
X142479Y66185D01*
X142378Y66238D01*
X142278Y66295D01*
X142181Y66355D01*
X142085Y66418D01*
X141992Y66485D01*
X141902Y66554D01*
X141813Y66627D01*
X141728Y66703D01*
X141645Y66782D01*
X141564Y66864D01*
X141487Y66948D01*
X141413Y67035D01*
X141341Y67125D01*
X141273Y67216D01*
X141208Y67311D01*
X141146Y67407D01*
X141088Y67506D01*
X141033Y67606D01*
X140981Y67708D01*
X140934Y67812D01*
X140889Y67918D01*
X140849Y68025D01*
X140812Y68133D01*
X140779Y68243D01*
X140749Y68353D01*
X140724Y68465D01*
X140702Y68577D01*
X140685Y68691D01*
X140671Y68804D01*
X140661Y68918D01*
X140655Y69033D01*
X140653Y69147D01*
X140653Y77769D01*
X135474Y72463D02*
X131495Y72463D01*
X131393Y72461D01*
X131292Y72455D01*
X131191Y72445D01*
X131090Y72432D01*
X130990Y72414D01*
X130891Y72393D01*
X130792Y72368D01*
X130695Y72339D01*
X130598Y72307D01*
X130503Y72271D01*
X130410Y72231D01*
X130318Y72188D01*
X130228Y72141D01*
X130139Y72090D01*
X130053Y72037D01*
X129969Y71980D01*
X129887Y71920D01*
X129807Y71857D01*
X129730Y71791D01*
X129655Y71722D01*
X129583Y71650D01*
X129514Y71575D01*
X129448Y71498D01*
X129385Y71418D01*
X129325Y71336D01*
X129268Y71252D01*
X129215Y71166D01*
X129164Y71077D01*
X129117Y70987D01*
X129074Y70895D01*
X129034Y70802D01*
X128998Y70707D01*
X128966Y70610D01*
X128937Y70513D01*
X128912Y70415D01*
X128891Y70315D01*
X128873Y70215D01*
X128860Y70114D01*
X128850Y70013D01*
X128844Y69912D01*
X128842Y69810D01*
X128842Y69147D01*
X128844Y69033D01*
X128850Y68918D01*
X128860Y68804D01*
X128874Y68691D01*
X128891Y68577D01*
X128913Y68465D01*
X128938Y68353D01*
X128968Y68243D01*
X129001Y68133D01*
X129038Y68025D01*
X129078Y67918D01*
X129123Y67812D01*
X129170Y67708D01*
X129222Y67606D01*
X129277Y67506D01*
X129335Y67407D01*
X129397Y67311D01*
X129462Y67216D01*
X129530Y67125D01*
X129602Y67035D01*
X129676Y66948D01*
X129753Y66864D01*
X129834Y66782D01*
X129917Y66703D01*
X130002Y66627D01*
X130091Y66554D01*
X130181Y66485D01*
X130274Y66418D01*
X130370Y66355D01*
X130467Y66295D01*
X130567Y66238D01*
X130668Y66185D01*
X130771Y66135D01*
X130876Y66089D01*
X130982Y66046D01*
X131090Y66008D01*
X131199Y65973D01*
X131309Y65942D01*
X131420Y65914D01*
X131532Y65891D01*
X131645Y65871D01*
X131758Y65855D01*
X131872Y65843D01*
X131986Y65835D01*
X132101Y65831D01*
X132215Y65831D01*
X132330Y65835D01*
X132444Y65843D01*
X132558Y65855D01*
X132671Y65871D01*
X132784Y65891D01*
X132896Y65914D01*
X133007Y65942D01*
X133117Y65973D01*
X133226Y66008D01*
X133334Y66046D01*
X133440Y66089D01*
X133545Y66135D01*
X133648Y66185D01*
X133749Y66238D01*
X133849Y66295D01*
X133946Y66355D01*
X134042Y66418D01*
X134135Y66485D01*
X134225Y66554D01*
X134314Y66627D01*
X134399Y66703D01*
X134482Y66782D01*
X134563Y66864D01*
X134640Y66948D01*
X134714Y67035D01*
X134786Y67125D01*
X134854Y67216D01*
X134919Y67311D01*
X134981Y67407D01*
X135039Y67506D01*
X135094Y67606D01*
X135146Y67708D01*
X135193Y67812D01*
X135238Y67918D01*
X135278Y68025D01*
X135315Y68133D01*
X135348Y68243D01*
X135378Y68353D01*
X135403Y68465D01*
X135425Y68577D01*
X135442Y68691D01*
X135456Y68804D01*
X135466Y68918D01*
X135472Y69033D01*
X135474Y69147D01*
X135474Y72463D01*
X135472Y72607D01*
X135466Y72750D01*
X135456Y72894D01*
X135443Y73037D01*
X135425Y73179D01*
X135404Y73321D01*
X135379Y73463D01*
X135350Y73604D01*
X135317Y73744D01*
X135281Y73883D01*
X135240Y74020D01*
X135196Y74157D01*
X135149Y74293D01*
X135097Y74427D01*
X135042Y74560D01*
X134984Y74691D01*
X134921Y74821D01*
X134856Y74948D01*
X134787Y75074D01*
X134714Y75199D01*
X134639Y75321D01*
X134560Y75441D01*
X134477Y75558D01*
X134392Y75674D01*
X134304Y75787D01*
X134212Y75898D01*
X134118Y76006D01*
X134020Y76112D01*
X133920Y76215D01*
X133817Y76315D01*
X133711Y76413D01*
X133603Y76507D01*
X133492Y76599D01*
X133379Y76687D01*
X133263Y76772D01*
X133146Y76855D01*
X133026Y76934D01*
X132904Y77009D01*
X132779Y77082D01*
X132653Y77151D01*
X132526Y77216D01*
X132396Y77279D01*
X132265Y77337D01*
X132132Y77392D01*
X131998Y77444D01*
X131862Y77491D01*
X131725Y77535D01*
X131588Y77576D01*
X131449Y77612D01*
X131309Y77645D01*
X131168Y77674D01*
X131026Y77699D01*
X130884Y77720D01*
X130742Y77738D01*
X130599Y77751D01*
X130455Y77761D01*
X130312Y77767D01*
X130168Y77769D01*
D15*
X120928Y205728D02*
X120928Y240272D01*
X122960Y240272D01*
X155472Y240272D02*
X155472Y205728D01*
X153440Y205728D01*
X122960Y205728D02*
X120928Y205728D01*
X153440Y240272D02*
X155472Y240272D01*
D16*
X155924Y197057D02*
X159903Y197057D01*
X155924Y197057D02*
X152939Y199378D01*
X155924Y197057D02*
X152939Y194735D01*
X155924Y197057D02*
X157250Y200704D01*
X155924Y197057D02*
X157250Y193409D01*
X148285Y186669D02*
X148285Y178047D01*
X148283Y177933D01*
X148277Y177818D01*
X148267Y177704D01*
X148253Y177591D01*
X148236Y177477D01*
X148214Y177365D01*
X148189Y177253D01*
X148159Y177143D01*
X148126Y177033D01*
X148089Y176925D01*
X148049Y176818D01*
X148004Y176712D01*
X147957Y176608D01*
X147905Y176506D01*
X147850Y176406D01*
X147792Y176307D01*
X147730Y176211D01*
X147665Y176116D01*
X147597Y176025D01*
X147525Y175935D01*
X147451Y175848D01*
X147374Y175764D01*
X147293Y175682D01*
X147210Y175603D01*
X147125Y175527D01*
X147036Y175454D01*
X146946Y175385D01*
X146853Y175318D01*
X146757Y175255D01*
X146660Y175195D01*
X146560Y175138D01*
X146459Y175085D01*
X146356Y175035D01*
X146251Y174989D01*
X146145Y174946D01*
X146037Y174908D01*
X145928Y174873D01*
X145818Y174842D01*
X145707Y174814D01*
X145595Y174791D01*
X145482Y174771D01*
X145369Y174755D01*
X145255Y174743D01*
X145141Y174735D01*
X145026Y174731D01*
X144912Y174731D01*
X144797Y174735D01*
X144683Y174743D01*
X144569Y174755D01*
X144456Y174771D01*
X144343Y174791D01*
X144231Y174814D01*
X144120Y174842D01*
X144010Y174873D01*
X143901Y174908D01*
X143793Y174946D01*
X143687Y174989D01*
X143582Y175035D01*
X143479Y175085D01*
X143378Y175138D01*
X143278Y175195D01*
X143181Y175255D01*
X143085Y175318D01*
X142992Y175385D01*
X142902Y175454D01*
X142813Y175527D01*
X142728Y175603D01*
X142645Y175682D01*
X142564Y175764D01*
X142487Y175848D01*
X142413Y175935D01*
X142341Y176025D01*
X142273Y176116D01*
X142208Y176211D01*
X142146Y176307D01*
X142088Y176406D01*
X142033Y176506D01*
X141981Y176608D01*
X141934Y176712D01*
X141889Y176818D01*
X141849Y176925D01*
X141812Y177033D01*
X141779Y177143D01*
X141749Y177253D01*
X141724Y177365D01*
X141702Y177477D01*
X141685Y177591D01*
X141671Y177704D01*
X141661Y177818D01*
X141655Y177933D01*
X141653Y178047D01*
X141653Y186669D01*
X136474Y186669D02*
X136474Y185343D01*
X136474Y186669D02*
X129842Y186669D01*
X133158Y174731D01*
D11*
X485769Y74697D02*
X486277Y74697D01*
X486321Y74699D01*
X486365Y74705D01*
X486408Y74714D01*
X486451Y74728D01*
X486492Y74745D01*
X486531Y74765D01*
X486568Y74789D01*
X486604Y74816D01*
X486636Y74846D01*
X486666Y74878D01*
X486693Y74914D01*
X486717Y74951D01*
X486737Y74990D01*
X486754Y75031D01*
X486768Y75074D01*
X486777Y75117D01*
X486783Y75161D01*
X486785Y75205D01*
X486785Y76475D01*
X486783Y76519D01*
X486777Y76563D01*
X486768Y76606D01*
X486754Y76649D01*
X486737Y76690D01*
X486717Y76729D01*
X486693Y76766D01*
X486666Y76802D01*
X486636Y76834D01*
X486604Y76864D01*
X486568Y76891D01*
X486531Y76915D01*
X486492Y76935D01*
X486451Y76952D01*
X486408Y76966D01*
X486365Y76975D01*
X486321Y76981D01*
X486277Y76983D01*
X485769Y76983D01*
X484873Y76475D02*
X484238Y76983D01*
X484238Y74697D01*
X484873Y74697D02*
X483603Y74697D01*
X482587Y75967D02*
X481825Y75967D01*
X481781Y75965D01*
X481737Y75959D01*
X481694Y75950D01*
X481651Y75936D01*
X481610Y75919D01*
X481571Y75899D01*
X481534Y75875D01*
X481498Y75848D01*
X481466Y75818D01*
X481436Y75786D01*
X481409Y75750D01*
X481385Y75713D01*
X481365Y75674D01*
X481348Y75633D01*
X481334Y75590D01*
X481325Y75547D01*
X481319Y75503D01*
X481317Y75459D01*
X481317Y75332D01*
X481319Y75283D01*
X481324Y75235D01*
X481334Y75187D01*
X481347Y75140D01*
X481363Y75095D01*
X481383Y75050D01*
X481406Y75008D01*
X481433Y74967D01*
X481462Y74928D01*
X481494Y74892D01*
X481530Y74858D01*
X481567Y74827D01*
X481607Y74799D01*
X481649Y74774D01*
X481692Y74753D01*
X481737Y74734D01*
X481784Y74720D01*
X481831Y74709D01*
X481879Y74701D01*
X481928Y74697D01*
X481976Y74697D01*
X482025Y74701D01*
X482073Y74709D01*
X482120Y74720D01*
X482167Y74734D01*
X482212Y74753D01*
X482255Y74774D01*
X482297Y74799D01*
X482337Y74827D01*
X482374Y74858D01*
X482410Y74892D01*
X482442Y74928D01*
X482471Y74967D01*
X482498Y75008D01*
X482521Y75050D01*
X482541Y75095D01*
X482557Y75140D01*
X482570Y75187D01*
X482580Y75235D01*
X482585Y75283D01*
X482587Y75332D01*
X482587Y75967D01*
X482585Y76028D01*
X482580Y76089D01*
X482570Y76150D01*
X482557Y76210D01*
X482541Y76269D01*
X482521Y76327D01*
X482497Y76384D01*
X482471Y76439D01*
X482440Y76493D01*
X482407Y76544D01*
X482371Y76594D01*
X482331Y76641D01*
X482289Y76685D01*
X482245Y76727D01*
X482198Y76767D01*
X482148Y76803D01*
X482097Y76836D01*
X482043Y76867D01*
X481988Y76893D01*
X481931Y76917D01*
X481873Y76937D01*
X481814Y76953D01*
X481754Y76966D01*
X481693Y76976D01*
X481632Y76981D01*
X481571Y76983D01*
X474777Y74697D02*
X474269Y74697D01*
X474777Y74697D02*
X474821Y74699D01*
X474865Y74705D01*
X474908Y74714D01*
X474951Y74728D01*
X474992Y74745D01*
X475031Y74765D01*
X475068Y74789D01*
X475104Y74816D01*
X475136Y74846D01*
X475166Y74878D01*
X475193Y74914D01*
X475217Y74951D01*
X475237Y74990D01*
X475254Y75031D01*
X475268Y75074D01*
X475277Y75117D01*
X475283Y75161D01*
X475285Y75205D01*
X475285Y76475D01*
X475283Y76519D01*
X475277Y76563D01*
X475268Y76606D01*
X475254Y76649D01*
X475237Y76690D01*
X475217Y76729D01*
X475193Y76766D01*
X475166Y76802D01*
X475136Y76834D01*
X475104Y76864D01*
X475068Y76891D01*
X475031Y76915D01*
X474992Y76935D01*
X474951Y76952D01*
X474908Y76966D01*
X474865Y76975D01*
X474821Y76981D01*
X474777Y76983D01*
X474269Y76983D01*
X473373Y75967D02*
X472611Y75967D01*
X472567Y75965D01*
X472523Y75959D01*
X472480Y75950D01*
X472437Y75936D01*
X472396Y75919D01*
X472357Y75899D01*
X472320Y75875D01*
X472284Y75848D01*
X472252Y75818D01*
X472222Y75786D01*
X472195Y75750D01*
X472171Y75713D01*
X472151Y75674D01*
X472134Y75633D01*
X472120Y75590D01*
X472111Y75547D01*
X472105Y75503D01*
X472103Y75459D01*
X472103Y75332D01*
X472105Y75283D01*
X472110Y75235D01*
X472120Y75187D01*
X472133Y75140D01*
X472149Y75095D01*
X472169Y75050D01*
X472192Y75008D01*
X472219Y74967D01*
X472248Y74928D01*
X472280Y74892D01*
X472316Y74858D01*
X472353Y74827D01*
X472393Y74799D01*
X472435Y74774D01*
X472478Y74753D01*
X472523Y74734D01*
X472570Y74720D01*
X472617Y74709D01*
X472665Y74701D01*
X472714Y74697D01*
X472762Y74697D01*
X472811Y74701D01*
X472859Y74709D01*
X472906Y74720D01*
X472953Y74734D01*
X472998Y74753D01*
X473041Y74774D01*
X473083Y74799D01*
X473123Y74827D01*
X473160Y74858D01*
X473196Y74892D01*
X473228Y74928D01*
X473257Y74967D01*
X473284Y75008D01*
X473307Y75050D01*
X473327Y75095D01*
X473343Y75140D01*
X473356Y75187D01*
X473366Y75235D01*
X473371Y75283D01*
X473373Y75332D01*
X473373Y75967D01*
X473371Y76028D01*
X473366Y76089D01*
X473356Y76150D01*
X473343Y76210D01*
X473327Y76269D01*
X473307Y76327D01*
X473283Y76384D01*
X473257Y76439D01*
X473226Y76493D01*
X473193Y76544D01*
X473157Y76594D01*
X473117Y76641D01*
X473075Y76685D01*
X473031Y76727D01*
X472984Y76767D01*
X472934Y76803D01*
X472883Y76836D01*
X472829Y76867D01*
X472774Y76893D01*
X472717Y76917D01*
X472659Y76937D01*
X472600Y76953D01*
X472540Y76966D01*
X472479Y76976D01*
X472418Y76981D01*
X472357Y76983D01*
X470579Y76983D02*
X471087Y75205D01*
X469817Y75205D01*
X470198Y75713D02*
X470198Y74697D01*
X463683Y95017D02*
X463683Y97303D01*
X463048Y97303D01*
X462999Y97301D01*
X462951Y97296D01*
X462903Y97286D01*
X462856Y97273D01*
X462811Y97257D01*
X462766Y97237D01*
X462724Y97214D01*
X462683Y97187D01*
X462644Y97158D01*
X462608Y97126D01*
X462574Y97090D01*
X462543Y97053D01*
X462515Y97013D01*
X462490Y96971D01*
X462469Y96928D01*
X462450Y96883D01*
X462436Y96836D01*
X462425Y96789D01*
X462417Y96741D01*
X462413Y96692D01*
X462413Y96644D01*
X462417Y96595D01*
X462425Y96547D01*
X462436Y96500D01*
X462450Y96453D01*
X462469Y96408D01*
X462490Y96365D01*
X462515Y96323D01*
X462543Y96283D01*
X462574Y96246D01*
X462608Y96210D01*
X462644Y96178D01*
X462683Y96149D01*
X462724Y96122D01*
X462766Y96099D01*
X462811Y96079D01*
X462856Y96063D01*
X462903Y96050D01*
X462951Y96040D01*
X462999Y96035D01*
X463048Y96033D01*
X463683Y96033D01*
X462921Y96033D02*
X462413Y95017D01*
X461414Y95525D02*
X460906Y97303D01*
X461414Y95525D02*
X460144Y95525D01*
X460525Y96033D02*
X460525Y95017D01*
M02*
