G04 EAGLE Gerber RS-274X export*
G75*
%MOMM*%
%FSLAX34Y34*%
%LPD*%
%INSoldermask Bottom*%
%IPNEG*%
%AMOC8*
5,1,8,0,0,1.08239X$1,22.5*%
G01*
%ADD10C,3.203200*%
%ADD11R,1.711200X1.711200*%
%ADD12C,1.711200*%
%ADD13C,3.502200*%
%ADD14C,2.453200*%
%ADD15R,1.066800X0.508000*%
%ADD16R,0.508000X1.066800*%
%ADD17R,2.946400X2.946400*%
%ADD18R,1.003200X0.903200*%
%ADD19R,0.903200X1.003200*%
%ADD20R,1.603200X1.803200*%
%ADD21R,1.203200X1.303200*%
%ADD22R,1.703200X1.503200*%
%ADD23C,2.082800*%
%ADD24C,1.903200*%
%ADD25C,2.387600*%
%ADD26R,4.203200X1.703200*%
%ADD27R,1.803200X2.003200*%
%ADD28R,1.422400X2.438400*%
%ADD29R,3.803200X2.403200*%
%ADD30C,2.203200*%
%ADD31R,0.635000X1.727200*%
%ADD32C,0.959600*%


D10*
X50000Y950000D03*
X950000Y950000D03*
X950000Y50000D03*
X50000Y50000D03*
D11*
X204500Y175600D03*
D12*
X217200Y201000D03*
X229900Y175600D03*
X242650Y201000D03*
X255350Y175600D03*
X268100Y201000D03*
X280700Y175600D03*
X293450Y201000D03*
D13*
X306150Y112100D03*
X191850Y112100D03*
D12*
X182700Y62200D03*
X208100Y62200D03*
X289900Y62200D03*
X315300Y62200D03*
D14*
X171500Y142600D03*
X326500Y142600D03*
D15*
X321315Y264000D03*
X321315Y269000D03*
X321315Y274000D03*
X321315Y279000D03*
X321315Y284000D03*
X321315Y289000D03*
D16*
X328500Y296185D03*
X333500Y296185D03*
X338500Y296185D03*
X343500Y296185D03*
X348500Y296185D03*
X353500Y296185D03*
D15*
X360685Y289000D03*
X360685Y284000D03*
X360685Y279000D03*
X360685Y274000D03*
X360685Y269000D03*
X360685Y264000D03*
D16*
X353500Y256815D03*
X348500Y256815D03*
X343500Y256815D03*
X338500Y256815D03*
X333500Y256815D03*
X328500Y256815D03*
D17*
X341000Y276500D03*
D18*
X332100Y62200D03*
X332100Y74200D03*
D19*
X183700Y81400D03*
X195700Y81400D03*
D18*
X242600Y133700D03*
X242600Y121700D03*
X255400Y133700D03*
X255400Y121700D03*
D20*
X196500Y331100D03*
X214500Y331100D03*
X214500Y307100D03*
X196500Y307100D03*
D19*
X248700Y308900D03*
X236700Y308900D03*
X249200Y332100D03*
X237200Y332100D03*
D18*
X327600Y348700D03*
X327600Y336700D03*
D21*
X262620Y259110D03*
X262620Y242110D03*
D18*
X277900Y261800D03*
X277900Y249800D03*
X288200Y261800D03*
X288200Y249800D03*
X301000Y261800D03*
X301000Y249800D03*
D22*
X239200Y238800D03*
X239200Y257800D03*
D18*
X359600Y336200D03*
X359600Y348200D03*
X349400Y336200D03*
X349400Y348200D03*
X338610Y336400D03*
X338610Y348400D03*
D21*
X412000Y304000D03*
X412000Y321000D03*
D18*
X401000Y306000D03*
X401000Y318000D03*
X370000Y318000D03*
X370000Y306000D03*
X381000Y318000D03*
X381000Y306000D03*
D19*
X400500Y249000D03*
X388500Y249000D03*
X407000Y280000D03*
X395000Y280000D03*
D10*
X552659Y105000D03*
X421341Y105000D03*
D18*
G36*
X724707Y642164D02*
X731800Y635071D01*
X725413Y628684D01*
X718320Y635777D01*
X724707Y642164D01*
G37*
G36*
X716222Y633679D02*
X723315Y626586D01*
X716928Y620199D01*
X709835Y627292D01*
X716222Y633679D01*
G37*
G36*
X770908Y596697D02*
X778001Y589604D01*
X771614Y583217D01*
X764521Y590310D01*
X770908Y596697D01*
G37*
G36*
X762423Y588212D02*
X769516Y581119D01*
X763129Y574732D01*
X756036Y581825D01*
X762423Y588212D01*
G37*
G36*
X636773Y687156D02*
X643866Y694249D01*
X650253Y687862D01*
X643160Y680769D01*
X636773Y687156D01*
G37*
G36*
X645258Y678671D02*
X652351Y685764D01*
X658738Y679377D01*
X651645Y672284D01*
X645258Y678671D01*
G37*
G36*
X472496Y565521D02*
X465403Y558428D01*
X459016Y564815D01*
X466109Y571908D01*
X472496Y565521D01*
G37*
G36*
X464011Y574006D02*
X456918Y566913D01*
X450531Y573300D01*
X457624Y580393D01*
X464011Y574006D01*
G37*
G36*
X766703Y487875D02*
X759610Y494968D01*
X765997Y501355D01*
X773090Y494262D01*
X766703Y487875D01*
G37*
G36*
X775189Y496361D02*
X768096Y503454D01*
X774483Y509841D01*
X781576Y502748D01*
X775189Y496361D01*
G37*
G36*
X715592Y647879D02*
X722685Y640786D01*
X716298Y634399D01*
X709205Y641492D01*
X715592Y647879D01*
G37*
G36*
X707107Y639394D02*
X714200Y632301D01*
X707813Y625914D01*
X700720Y633007D01*
X707107Y639394D01*
G37*
G36*
X527339Y678727D02*
X534432Y671634D01*
X528045Y665247D01*
X520952Y672340D01*
X527339Y678727D01*
G37*
G36*
X518854Y670242D02*
X525947Y663149D01*
X519560Y656762D01*
X512467Y663855D01*
X518854Y670242D01*
G37*
G36*
X585683Y673048D02*
X578590Y665955D01*
X572203Y672342D01*
X579296Y679435D01*
X585683Y673048D01*
G37*
G36*
X577197Y681533D02*
X570104Y674440D01*
X563717Y680827D01*
X570810Y687920D01*
X577197Y681533D01*
G37*
G36*
X525362Y608802D02*
X518269Y601709D01*
X511882Y608096D01*
X518975Y615189D01*
X525362Y608802D01*
G37*
G36*
X516877Y617287D02*
X509784Y610194D01*
X503397Y616581D01*
X510490Y623674D01*
X516877Y617287D01*
G37*
G36*
X549848Y633249D02*
X542755Y626156D01*
X536368Y632543D01*
X543461Y639636D01*
X549848Y633249D01*
G37*
G36*
X541363Y641735D02*
X534270Y634642D01*
X527883Y641029D01*
X534976Y648122D01*
X541363Y641735D01*
G37*
D23*
X934000Y737000D03*
X959400Y737000D03*
X934000Y711600D03*
X959400Y711600D03*
X934000Y686200D03*
X959400Y686200D03*
X934000Y660800D03*
X959400Y660800D03*
X934000Y635400D03*
X959400Y635400D03*
D18*
G36*
X556587Y377881D02*
X563680Y384974D01*
X570067Y378587D01*
X562974Y371494D01*
X556587Y377881D01*
G37*
G36*
X565073Y369396D02*
X572166Y376489D01*
X578553Y370102D01*
X571460Y363009D01*
X565073Y369396D01*
G37*
G36*
X594381Y393004D02*
X601474Y400097D01*
X607861Y393710D01*
X600768Y386617D01*
X594381Y393004D01*
G37*
G36*
X602867Y384519D02*
X609960Y391612D01*
X616347Y385225D01*
X609254Y378132D01*
X602867Y384519D01*
G37*
G36*
X541583Y625310D02*
X534490Y618217D01*
X528103Y624604D01*
X535196Y631697D01*
X541583Y625310D01*
G37*
G36*
X533097Y633796D02*
X526004Y626703D01*
X519617Y633090D01*
X526710Y640183D01*
X533097Y633796D01*
G37*
G36*
X533668Y617010D02*
X526575Y609917D01*
X520188Y616304D01*
X527281Y623397D01*
X533668Y617010D01*
G37*
G36*
X525183Y625496D02*
X518090Y618403D01*
X511703Y624790D01*
X518796Y631883D01*
X525183Y625496D01*
G37*
D11*
X449400Y969860D03*
X449400Y919060D03*
X859400Y969860D03*
D12*
X631400Y732160D03*
X656800Y732160D03*
X682200Y732160D03*
X707600Y732160D03*
X733000Y732160D03*
X758400Y732160D03*
X783800Y732160D03*
X809200Y732160D03*
X834600Y732160D03*
X860000Y732160D03*
X860000Y757560D03*
X834600Y757560D03*
X809200Y757560D03*
X783800Y757560D03*
X758400Y757560D03*
X733000Y757560D03*
X707600Y757560D03*
X682200Y757560D03*
X656800Y757560D03*
X631400Y757560D03*
D24*
X47500Y876000D03*
X122500Y876000D03*
X47500Y666000D03*
X85000Y666000D03*
X122500Y666000D03*
X337500Y666000D03*
X337500Y876000D03*
D25*
X239000Y955000D03*
X390000Y955000D03*
X195000Y955000D03*
X120000Y975000D03*
D26*
X255000Y705000D03*
X314000Y705000D03*
D19*
X271000Y777000D03*
X283000Y777000D03*
X271000Y800000D03*
X283000Y800000D03*
D27*
X253000Y759000D03*
X281000Y759000D03*
D19*
X271000Y789000D03*
X283000Y789000D03*
X180000Y736000D03*
X192000Y736000D03*
D27*
X163000Y710000D03*
X191000Y710000D03*
D19*
X58000Y735000D03*
X70000Y735000D03*
D27*
X43000Y711000D03*
X71000Y711000D03*
D28*
X91114Y765012D03*
X68000Y765012D03*
X44886Y765012D03*
D29*
X68000Y826990D03*
D28*
X213114Y765012D03*
X190000Y765012D03*
X166886Y765012D03*
D29*
X190000Y826990D03*
D12*
X934700Y94700D03*
X909300Y94700D03*
X934700Y120100D03*
X909300Y120100D03*
X934700Y145500D03*
X909300Y145500D03*
X934700Y170900D03*
X909300Y170900D03*
X934700Y196300D03*
X909300Y196300D03*
X934700Y221700D03*
X909300Y221700D03*
X934700Y247100D03*
X909300Y247100D03*
X934700Y272500D03*
X909300Y272500D03*
X934700Y297900D03*
X909300Y297900D03*
X934700Y323300D03*
X909300Y323300D03*
X934700Y348700D03*
X909300Y348700D03*
X934700Y374100D03*
X909300Y374100D03*
X934700Y399500D03*
X909300Y399500D03*
X934700Y424900D03*
X909300Y424900D03*
X934700Y450300D03*
X909300Y450300D03*
X934700Y475700D03*
X909300Y475700D03*
X934700Y501100D03*
X909300Y501100D03*
X934700Y526500D03*
X909300Y526500D03*
X934700Y551900D03*
X909300Y551900D03*
X934700Y577300D03*
X909300Y577300D03*
X104700Y333700D03*
X79300Y333700D03*
X104700Y359100D03*
X79300Y359100D03*
X104700Y384500D03*
X79300Y384500D03*
X104700Y409900D03*
X79300Y409900D03*
X104700Y435300D03*
X79300Y435300D03*
X104700Y460700D03*
X79300Y460700D03*
X104700Y486100D03*
X79300Y486100D03*
X104700Y511500D03*
X79300Y511500D03*
X104700Y536900D03*
X79300Y536900D03*
X104700Y562300D03*
X79300Y562300D03*
D19*
X141600Y160900D03*
X129600Y160900D03*
X141500Y171300D03*
X129500Y171300D03*
D30*
X90400Y153600D02*
X70400Y153600D01*
X70400Y115500D02*
X90400Y115500D01*
D31*
X147950Y89383D03*
X141450Y89383D03*
X134950Y89383D03*
X128450Y89383D03*
X128450Y132817D03*
X134950Y132817D03*
X141450Y132817D03*
X147950Y132817D03*
D19*
X141700Y271900D03*
X129700Y271900D03*
X141500Y261400D03*
X129500Y261400D03*
D30*
X90300Y250500D02*
X70300Y250500D01*
X70300Y212400D02*
X90300Y212400D01*
D31*
X147950Y201283D03*
X141450Y201283D03*
X134950Y201283D03*
X128450Y201283D03*
X128450Y244717D03*
X134950Y244717D03*
X141450Y244717D03*
X147950Y244717D03*
D18*
X485000Y80000D03*
X485000Y92000D03*
X473500Y80000D03*
X473500Y92000D03*
X460000Y92000D03*
X460000Y80000D03*
D32*
X294000Y240500D03*
X323000Y195500D03*
X273000Y301500D03*
X383000Y78500D03*
X162000Y88500D03*
X202000Y280500D03*
X351000Y205000D03*
X464000Y179000D03*
X450000Y355000D03*
X436081Y518172D03*
X547000Y269000D03*
X720000Y377000D03*
X454000Y409000D03*
X782000Y266000D03*
X801000Y634000D03*
X524000Y211000D03*
X630000Y303000D03*
X567000Y357000D03*
X552000Y694000D03*
X653000Y500000D03*
X501000Y971000D03*
X240000Y226500D03*
X350300Y185700D03*
X690350Y392650D03*
X770224Y479776D03*
X755300Y574500D03*
X516000Y409000D03*
X549000Y379000D03*
X730844Y352422D03*
X514368Y646923D03*
X661000Y667000D03*
X709800Y620900D03*
X501800Y625600D03*
X437500Y568424D03*
X194300Y227000D03*
X105000Y592000D03*
X163000Y688000D03*
X984760Y712000D03*
X561000Y690000D03*
X617350Y377128D03*
X572800Y717000D03*
X407500Y291000D03*
X401000Y259000D03*
X382000Y340000D03*
X404400Y356700D03*
X389000Y356924D03*
X384000Y330000D03*
X393500Y267004D03*
X355000Y229500D03*
X351000Y218500D03*
X362000Y238000D03*
X358000Y394000D03*
X377088Y365000D03*
X349400Y326500D03*
X347000Y383000D03*
X360000Y368000D03*
X359500Y326600D03*
X338000Y390000D03*
X370000Y372000D03*
X374324Y250500D03*
X297000Y360000D03*
X488900Y617400D03*
X321000Y239500D03*
X435000Y150000D03*
X445476Y417976D03*
X424000Y257000D03*
X463194Y223000D03*
X772000Y453000D03*
X408000Y222500D03*
X20000Y593000D03*
X583000Y241000D03*
X666000Y715000D03*
X796850Y703150D03*
X797000Y773000D03*
X304850Y158150D03*
X915000Y736762D03*
X915000Y711600D03*
X744068Y381468D03*
X700253Y625860D03*
X915000Y660800D03*
X915000Y686200D03*
X511393Y656069D03*
X408350Y540650D03*
X424000Y498000D03*
X734000Y248912D03*
X887000Y134000D03*
X449000Y608000D03*
X444500Y589500D03*
X443200Y598500D03*
X418000Y541000D03*
X399000Y539000D03*
X390000Y534000D03*
X890000Y209000D03*
X894000Y374000D03*
X898000Y361000D03*
X413000Y491000D03*
X714000Y239000D03*
X884000Y107000D03*
X834000Y356576D03*
X817000Y356576D03*
X863000Y316000D03*
X951000Y338000D03*
X643088Y714000D03*
X828000Y710000D03*
X809000Y704000D03*
X654000Y714000D03*
X632000Y714000D03*
X853000Y712000D03*
X846000Y774000D03*
X599000Y759000D03*
X595000Y714000D03*
X610000Y744000D03*
X670000Y794000D03*
X457027Y603027D03*
X682100Y788788D03*
X466115Y601515D03*
X474485Y618100D03*
X482000Y626000D03*
X679000Y715000D03*
X798000Y501000D03*
X900624Y747100D03*
X732000Y777000D03*
X783000Y495000D03*
X893936Y695000D03*
X770000Y773000D03*
X746000Y700000D03*
X773000Y703000D03*
X838576Y712000D03*
X785000Y702424D03*
X255200Y684400D03*
X801000Y388000D03*
X890000Y234200D03*
X890000Y222000D03*
X785000Y384000D03*
X787000Y374000D03*
X781000Y393000D03*
X822000Y372000D03*
X778000Y366000D03*
X847000Y646000D03*
X884000Y615000D03*
X868000Y608000D03*
X838000Y637000D03*
X897000Y462000D03*
X883000Y486000D03*
X884000Y475000D03*
X865000Y506000D03*
X896000Y577000D03*
X595000Y376700D03*
X744000Y289000D03*
X608724Y372776D03*
X754600Y289100D03*
X156000Y115000D03*
X142000Y109000D03*
X134500Y151500D03*
X154000Y224000D03*
X136000Y224000D03*
X115083Y283717D03*
M02*
