G04 EAGLE Gerber RS-274X export*
G75*
%MOMM*%
%FSLAX34Y34*%
%LPD*%
%INSoldermask Top*%
%IPNEG*%
%AMOC8*
5,1,8,0,0,1.08239X$1,22.5*%
G01*
%ADD10C,3.203200*%
%ADD11R,1.003200X0.903200*%
%ADD12R,0.603200X2.203200*%
%ADD13R,2.303200X1.803200*%
%ADD14R,2.103200X2.003200*%
%ADD15R,1.711200X1.711200*%
%ADD16C,1.711200*%
%ADD17C,3.502200*%
%ADD18C,2.453200*%
%ADD19R,0.903200X1.003200*%
%ADD20R,0.812800X1.828800*%
%ADD21R,1.803200X2.903200*%
%ADD22R,1.103200X4.203200*%
%ADD23R,0.457200X1.574800*%
%ADD24R,2.103200X1.303200*%
%ADD25R,1.803200X1.603200*%
%ADD26C,2.082800*%
%ADD27C,1.903200*%
%ADD28C,2.387600*%
%ADD29R,1.503200X1.503200*%
%ADD30C,2.203200*%
%ADD31R,0.762000X2.489200*%
%ADD32C,0.959600*%


D10*
X50000Y950000D03*
X950000Y950000D03*
X950000Y50000D03*
X50000Y50000D03*
D11*
X665000Y278000D03*
X665000Y266000D03*
X677000Y277000D03*
X677000Y265000D03*
D12*
X631000Y43750D03*
X637500Y43750D03*
X644000Y43750D03*
X650500Y43750D03*
X657000Y43750D03*
D13*
X613000Y45750D03*
X675000Y45750D03*
D14*
X608750Y19000D03*
X679250Y19000D03*
D15*
X204500Y175600D03*
D16*
X217200Y201000D03*
X229900Y175600D03*
X242650Y201000D03*
X255350Y175600D03*
X268100Y201000D03*
X280700Y175600D03*
X293450Y201000D03*
D17*
X306150Y112100D03*
X191850Y112100D03*
D16*
X182700Y62200D03*
X208100Y62200D03*
X289900Y62200D03*
X315300Y62200D03*
D18*
X171500Y142600D03*
X326500Y142600D03*
D11*
X296100Y284800D03*
X296100Y272800D03*
X286400Y284800D03*
X286400Y272800D03*
X271100Y285000D03*
X271100Y273000D03*
D19*
X467000Y235000D03*
X455000Y235000D03*
D20*
X473500Y208446D03*
X464000Y208446D03*
X454500Y208446D03*
X454500Y183554D03*
X473500Y183554D03*
D11*
X431000Y222500D03*
X431000Y210500D03*
X420000Y222500D03*
X420000Y210500D03*
D19*
X454000Y223000D03*
X442000Y223000D03*
X436000Y162000D03*
X424000Y162000D03*
D21*
X435000Y188000D03*
X407000Y188000D03*
D10*
X552659Y105000D03*
X421341Y105000D03*
D22*
X477000Y142000D03*
X452000Y142000D03*
X497000Y142000D03*
X522000Y142000D03*
D23*
G36*
X435412Y499207D02*
X432179Y502440D01*
X443314Y513575D01*
X446547Y510342D01*
X435412Y499207D01*
G37*
G36*
X438948Y495671D02*
X435715Y498904D01*
X446850Y510039D01*
X450083Y506806D01*
X438948Y495671D01*
G37*
G36*
X442483Y492136D02*
X439250Y495369D01*
X450385Y506504D01*
X453618Y503271D01*
X442483Y492136D01*
G37*
G36*
X446019Y488600D02*
X442786Y491833D01*
X453921Y502968D01*
X457154Y499735D01*
X446019Y488600D01*
G37*
G36*
X449554Y485065D02*
X446321Y488298D01*
X457456Y499433D01*
X460689Y496200D01*
X449554Y485065D01*
G37*
G36*
X453090Y481529D02*
X449857Y484762D01*
X460992Y495897D01*
X464225Y492664D01*
X453090Y481529D01*
G37*
G36*
X456625Y477994D02*
X453392Y481227D01*
X464527Y492362D01*
X467760Y489129D01*
X456625Y477994D01*
G37*
G36*
X460161Y474458D02*
X456928Y477691D01*
X468063Y488826D01*
X471296Y485593D01*
X460161Y474458D01*
G37*
G36*
X463696Y470923D02*
X460463Y474156D01*
X471598Y485291D01*
X474831Y482058D01*
X463696Y470923D01*
G37*
G36*
X467232Y467387D02*
X463999Y470620D01*
X475134Y481755D01*
X478367Y478522D01*
X467232Y467387D01*
G37*
G36*
X470767Y463852D02*
X467534Y467085D01*
X478669Y478220D01*
X481902Y474987D01*
X470767Y463852D01*
G37*
G36*
X474303Y460316D02*
X471070Y463549D01*
X482205Y474684D01*
X485438Y471451D01*
X474303Y460316D01*
G37*
G36*
X477838Y456781D02*
X474605Y460014D01*
X485740Y471149D01*
X488973Y467916D01*
X477838Y456781D01*
G37*
G36*
X481374Y453245D02*
X478141Y456478D01*
X489276Y467613D01*
X492509Y464380D01*
X481374Y453245D01*
G37*
G36*
X484910Y449710D02*
X481677Y452943D01*
X492812Y464078D01*
X496045Y460845D01*
X484910Y449710D01*
G37*
G36*
X488445Y446174D02*
X485212Y449407D01*
X496347Y460542D01*
X499580Y457309D01*
X488445Y446174D01*
G37*
G36*
X491981Y442638D02*
X488748Y445871D01*
X499883Y457006D01*
X503116Y453773D01*
X491981Y442638D01*
G37*
G36*
X495516Y439103D02*
X492283Y442336D01*
X503418Y453471D01*
X506651Y450238D01*
X495516Y439103D01*
G37*
G36*
X499052Y435567D02*
X495819Y438800D01*
X506954Y449935D01*
X510187Y446702D01*
X499052Y435567D01*
G37*
G36*
X502587Y432032D02*
X499354Y435265D01*
X510489Y446400D01*
X513722Y443167D01*
X502587Y432032D01*
G37*
G36*
X506123Y428496D02*
X502890Y431729D01*
X514025Y442864D01*
X517258Y439631D01*
X506123Y428496D01*
G37*
G36*
X509658Y424961D02*
X506425Y428194D01*
X517560Y439329D01*
X520793Y436096D01*
X509658Y424961D01*
G37*
G36*
X513194Y421425D02*
X509961Y424658D01*
X521096Y435793D01*
X524329Y432560D01*
X513194Y421425D01*
G37*
G36*
X516729Y417890D02*
X513496Y421123D01*
X524631Y432258D01*
X527864Y429025D01*
X516729Y417890D01*
G37*
G36*
X520265Y414354D02*
X517032Y417587D01*
X528167Y428722D01*
X531400Y425489D01*
X520265Y414354D01*
G37*
G36*
X523800Y410819D02*
X520567Y414052D01*
X531702Y425187D01*
X534935Y421954D01*
X523800Y410819D01*
G37*
G36*
X527336Y407283D02*
X524103Y410516D01*
X535238Y421651D01*
X538471Y418418D01*
X527336Y407283D01*
G37*
G36*
X530871Y403748D02*
X527638Y406981D01*
X538773Y418116D01*
X542006Y414883D01*
X530871Y403748D01*
G37*
G36*
X534407Y400212D02*
X531174Y403445D01*
X542309Y414580D01*
X545542Y411347D01*
X534407Y400212D01*
G37*
G36*
X537943Y396677D02*
X534710Y399910D01*
X545845Y411045D01*
X549078Y407812D01*
X537943Y396677D01*
G37*
G36*
X541478Y393141D02*
X538245Y396374D01*
X549380Y407509D01*
X552613Y404276D01*
X541478Y393141D01*
G37*
G36*
X545014Y389605D02*
X541781Y392838D01*
X552916Y403973D01*
X556149Y400740D01*
X545014Y389605D01*
G37*
G36*
X548549Y386070D02*
X545316Y389303D01*
X556451Y400438D01*
X559684Y397205D01*
X548549Y386070D01*
G37*
G36*
X552085Y382534D02*
X548852Y385767D01*
X559987Y396902D01*
X563220Y393669D01*
X552085Y382534D01*
G37*
G36*
X555620Y378999D02*
X552387Y382232D01*
X563522Y393367D01*
X566755Y390134D01*
X555620Y378999D01*
G37*
G36*
X559156Y375463D02*
X555923Y378696D01*
X567058Y389831D01*
X570291Y386598D01*
X559156Y375463D01*
G37*
G36*
X562691Y371928D02*
X559458Y375161D01*
X570593Y386296D01*
X573826Y383063D01*
X562691Y371928D01*
G37*
G36*
X566227Y368392D02*
X562994Y371625D01*
X574129Y382760D01*
X577362Y379527D01*
X566227Y368392D01*
G37*
G36*
X569762Y364857D02*
X566529Y368090D01*
X577664Y379225D01*
X580897Y375992D01*
X569762Y364857D01*
G37*
G36*
X573298Y361321D02*
X570065Y364554D01*
X581200Y375689D01*
X584433Y372456D01*
X573298Y361321D01*
G37*
G36*
X576833Y357786D02*
X573600Y361019D01*
X584735Y372154D01*
X587968Y368921D01*
X576833Y357786D01*
G37*
G36*
X580369Y354250D02*
X577136Y357483D01*
X588271Y368618D01*
X591504Y365385D01*
X580369Y354250D01*
G37*
G36*
X583904Y350715D02*
X580671Y353948D01*
X591806Y365083D01*
X595039Y361850D01*
X583904Y350715D01*
G37*
G36*
X587440Y347179D02*
X584207Y350412D01*
X595342Y361547D01*
X598575Y358314D01*
X587440Y347179D01*
G37*
G36*
X611425Y358314D02*
X614658Y361547D01*
X625793Y350412D01*
X622560Y347179D01*
X611425Y358314D01*
G37*
G36*
X614961Y361850D02*
X618194Y365083D01*
X629329Y353948D01*
X626096Y350715D01*
X614961Y361850D01*
G37*
G36*
X618496Y365385D02*
X621729Y368618D01*
X632864Y357483D01*
X629631Y354250D01*
X618496Y365385D01*
G37*
G36*
X622032Y368921D02*
X625265Y372154D01*
X636400Y361019D01*
X633167Y357786D01*
X622032Y368921D01*
G37*
G36*
X625567Y372456D02*
X628800Y375689D01*
X639935Y364554D01*
X636702Y361321D01*
X625567Y372456D01*
G37*
G36*
X629103Y375992D02*
X632336Y379225D01*
X643471Y368090D01*
X640238Y364857D01*
X629103Y375992D01*
G37*
G36*
X632638Y379527D02*
X635871Y382760D01*
X647006Y371625D01*
X643773Y368392D01*
X632638Y379527D01*
G37*
G36*
X636174Y383063D02*
X639407Y386296D01*
X650542Y375161D01*
X647309Y371928D01*
X636174Y383063D01*
G37*
G36*
X639709Y386598D02*
X642942Y389831D01*
X654077Y378696D01*
X650844Y375463D01*
X639709Y386598D01*
G37*
G36*
X643245Y390134D02*
X646478Y393367D01*
X657613Y382232D01*
X654380Y378999D01*
X643245Y390134D01*
G37*
G36*
X646780Y393669D02*
X650013Y396902D01*
X661148Y385767D01*
X657915Y382534D01*
X646780Y393669D01*
G37*
G36*
X650316Y397205D02*
X653549Y400438D01*
X664684Y389303D01*
X661451Y386070D01*
X650316Y397205D01*
G37*
G36*
X653851Y400740D02*
X657084Y403973D01*
X668219Y392838D01*
X664986Y389605D01*
X653851Y400740D01*
G37*
G36*
X657387Y404276D02*
X660620Y407509D01*
X671755Y396374D01*
X668522Y393141D01*
X657387Y404276D01*
G37*
G36*
X660922Y407812D02*
X664155Y411045D01*
X675290Y399910D01*
X672057Y396677D01*
X660922Y407812D01*
G37*
G36*
X664458Y411347D02*
X667691Y414580D01*
X678826Y403445D01*
X675593Y400212D01*
X664458Y411347D01*
G37*
G36*
X667994Y414883D02*
X671227Y418116D01*
X682362Y406981D01*
X679129Y403748D01*
X667994Y414883D01*
G37*
G36*
X671529Y418418D02*
X674762Y421651D01*
X685897Y410516D01*
X682664Y407283D01*
X671529Y418418D01*
G37*
G36*
X675065Y421954D02*
X678298Y425187D01*
X689433Y414052D01*
X686200Y410819D01*
X675065Y421954D01*
G37*
G36*
X678600Y425489D02*
X681833Y428722D01*
X692968Y417587D01*
X689735Y414354D01*
X678600Y425489D01*
G37*
G36*
X682136Y429025D02*
X685369Y432258D01*
X696504Y421123D01*
X693271Y417890D01*
X682136Y429025D01*
G37*
G36*
X685671Y432560D02*
X688904Y435793D01*
X700039Y424658D01*
X696806Y421425D01*
X685671Y432560D01*
G37*
G36*
X689207Y436096D02*
X692440Y439329D01*
X703575Y428194D01*
X700342Y424961D01*
X689207Y436096D01*
G37*
G36*
X692742Y439631D02*
X695975Y442864D01*
X707110Y431729D01*
X703877Y428496D01*
X692742Y439631D01*
G37*
G36*
X696278Y443167D02*
X699511Y446400D01*
X710646Y435265D01*
X707413Y432032D01*
X696278Y443167D01*
G37*
G36*
X699813Y446702D02*
X703046Y449935D01*
X714181Y438800D01*
X710948Y435567D01*
X699813Y446702D01*
G37*
G36*
X703349Y450238D02*
X706582Y453471D01*
X717717Y442336D01*
X714484Y439103D01*
X703349Y450238D01*
G37*
G36*
X706884Y453773D02*
X710117Y457006D01*
X721252Y445871D01*
X718019Y442638D01*
X706884Y453773D01*
G37*
G36*
X710420Y457309D02*
X713653Y460542D01*
X724788Y449407D01*
X721555Y446174D01*
X710420Y457309D01*
G37*
G36*
X713955Y460845D02*
X717188Y464078D01*
X728323Y452943D01*
X725090Y449710D01*
X713955Y460845D01*
G37*
G36*
X717491Y464380D02*
X720724Y467613D01*
X731859Y456478D01*
X728626Y453245D01*
X717491Y464380D01*
G37*
G36*
X721027Y467916D02*
X724260Y471149D01*
X735395Y460014D01*
X732162Y456781D01*
X721027Y467916D01*
G37*
G36*
X724562Y471451D02*
X727795Y474684D01*
X738930Y463549D01*
X735697Y460316D01*
X724562Y471451D01*
G37*
G36*
X728098Y474987D02*
X731331Y478220D01*
X742466Y467085D01*
X739233Y463852D01*
X728098Y474987D01*
G37*
G36*
X731633Y478522D02*
X734866Y481755D01*
X746001Y470620D01*
X742768Y467387D01*
X731633Y478522D01*
G37*
G36*
X735169Y482058D02*
X738402Y485291D01*
X749537Y474156D01*
X746304Y470923D01*
X735169Y482058D01*
G37*
G36*
X738704Y485593D02*
X741937Y488826D01*
X753072Y477691D01*
X749839Y474458D01*
X738704Y485593D01*
G37*
G36*
X742240Y489129D02*
X745473Y492362D01*
X756608Y481227D01*
X753375Y477994D01*
X742240Y489129D01*
G37*
G36*
X745775Y492664D02*
X749008Y495897D01*
X760143Y484762D01*
X756910Y481529D01*
X745775Y492664D01*
G37*
G36*
X749311Y496200D02*
X752544Y499433D01*
X763679Y488298D01*
X760446Y485065D01*
X749311Y496200D01*
G37*
G36*
X752846Y499735D02*
X756079Y502968D01*
X767214Y491833D01*
X763981Y488600D01*
X752846Y499735D01*
G37*
G36*
X756382Y503271D02*
X759615Y506504D01*
X770750Y495369D01*
X767517Y492136D01*
X756382Y503271D01*
G37*
G36*
X759917Y506806D02*
X763150Y510039D01*
X774285Y498904D01*
X771052Y495671D01*
X759917Y506806D01*
G37*
G36*
X763453Y510342D02*
X766686Y513575D01*
X777821Y502440D01*
X774588Y499207D01*
X763453Y510342D01*
G37*
G36*
X766686Y526425D02*
X763453Y529658D01*
X774588Y540793D01*
X777821Y537560D01*
X766686Y526425D01*
G37*
G36*
X763150Y529961D02*
X759917Y533194D01*
X771052Y544329D01*
X774285Y541096D01*
X763150Y529961D01*
G37*
G36*
X759615Y533496D02*
X756382Y536729D01*
X767517Y547864D01*
X770750Y544631D01*
X759615Y533496D01*
G37*
G36*
X756079Y537032D02*
X752846Y540265D01*
X763981Y551400D01*
X767214Y548167D01*
X756079Y537032D01*
G37*
G36*
X752544Y540567D02*
X749311Y543800D01*
X760446Y554935D01*
X763679Y551702D01*
X752544Y540567D01*
G37*
G36*
X749008Y544103D02*
X745775Y547336D01*
X756910Y558471D01*
X760143Y555238D01*
X749008Y544103D01*
G37*
G36*
X745473Y547638D02*
X742240Y550871D01*
X753375Y562006D01*
X756608Y558773D01*
X745473Y547638D01*
G37*
G36*
X741937Y551174D02*
X738704Y554407D01*
X749839Y565542D01*
X753072Y562309D01*
X741937Y551174D01*
G37*
G36*
X738402Y554709D02*
X735169Y557942D01*
X746304Y569077D01*
X749537Y565844D01*
X738402Y554709D01*
G37*
G36*
X734866Y558245D02*
X731633Y561478D01*
X742768Y572613D01*
X746001Y569380D01*
X734866Y558245D01*
G37*
G36*
X731331Y561780D02*
X728098Y565013D01*
X739233Y576148D01*
X742466Y572915D01*
X731331Y561780D01*
G37*
G36*
X727795Y565316D02*
X724562Y568549D01*
X735697Y579684D01*
X738930Y576451D01*
X727795Y565316D01*
G37*
G36*
X724260Y568851D02*
X721027Y572084D01*
X732162Y583219D01*
X735395Y579986D01*
X724260Y568851D01*
G37*
G36*
X720724Y572387D02*
X717491Y575620D01*
X728626Y586755D01*
X731859Y583522D01*
X720724Y572387D01*
G37*
G36*
X717188Y575922D02*
X713955Y579155D01*
X725090Y590290D01*
X728323Y587057D01*
X717188Y575922D01*
G37*
G36*
X713653Y579458D02*
X710420Y582691D01*
X721555Y593826D01*
X724788Y590593D01*
X713653Y579458D01*
G37*
G36*
X710117Y582994D02*
X706884Y586227D01*
X718019Y597362D01*
X721252Y594129D01*
X710117Y582994D01*
G37*
G36*
X706582Y586529D02*
X703349Y589762D01*
X714484Y600897D01*
X717717Y597664D01*
X706582Y586529D01*
G37*
G36*
X703046Y590065D02*
X699813Y593298D01*
X710948Y604433D01*
X714181Y601200D01*
X703046Y590065D01*
G37*
G36*
X699511Y593600D02*
X696278Y596833D01*
X707413Y607968D01*
X710646Y604735D01*
X699511Y593600D01*
G37*
G36*
X695975Y597136D02*
X692742Y600369D01*
X703877Y611504D01*
X707110Y608271D01*
X695975Y597136D01*
G37*
G36*
X692440Y600671D02*
X689207Y603904D01*
X700342Y615039D01*
X703575Y611806D01*
X692440Y600671D01*
G37*
G36*
X688904Y604207D02*
X685671Y607440D01*
X696806Y618575D01*
X700039Y615342D01*
X688904Y604207D01*
G37*
G36*
X685369Y607742D02*
X682136Y610975D01*
X693271Y622110D01*
X696504Y618877D01*
X685369Y607742D01*
G37*
G36*
X681833Y611278D02*
X678600Y614511D01*
X689735Y625646D01*
X692968Y622413D01*
X681833Y611278D01*
G37*
G36*
X678298Y614813D02*
X675065Y618046D01*
X686200Y629181D01*
X689433Y625948D01*
X678298Y614813D01*
G37*
G36*
X674762Y618349D02*
X671529Y621582D01*
X682664Y632717D01*
X685897Y629484D01*
X674762Y618349D01*
G37*
G36*
X671227Y621884D02*
X667994Y625117D01*
X679129Y636252D01*
X682362Y633019D01*
X671227Y621884D01*
G37*
G36*
X667691Y625420D02*
X664458Y628653D01*
X675593Y639788D01*
X678826Y636555D01*
X667691Y625420D01*
G37*
G36*
X664155Y628955D02*
X660922Y632188D01*
X672057Y643323D01*
X675290Y640090D01*
X664155Y628955D01*
G37*
G36*
X660620Y632491D02*
X657387Y635724D01*
X668522Y646859D01*
X671755Y643626D01*
X660620Y632491D01*
G37*
G36*
X657084Y636027D02*
X653851Y639260D01*
X664986Y650395D01*
X668219Y647162D01*
X657084Y636027D01*
G37*
G36*
X653549Y639562D02*
X650316Y642795D01*
X661451Y653930D01*
X664684Y650697D01*
X653549Y639562D01*
G37*
G36*
X650013Y643098D02*
X646780Y646331D01*
X657915Y657466D01*
X661148Y654233D01*
X650013Y643098D01*
G37*
G36*
X646478Y646633D02*
X643245Y649866D01*
X654380Y661001D01*
X657613Y657768D01*
X646478Y646633D01*
G37*
G36*
X642942Y650169D02*
X639709Y653402D01*
X650844Y664537D01*
X654077Y661304D01*
X642942Y650169D01*
G37*
G36*
X639407Y653704D02*
X636174Y656937D01*
X647309Y668072D01*
X650542Y664839D01*
X639407Y653704D01*
G37*
G36*
X635871Y657240D02*
X632638Y660473D01*
X643773Y671608D01*
X647006Y668375D01*
X635871Y657240D01*
G37*
G36*
X632336Y660775D02*
X629103Y664008D01*
X640238Y675143D01*
X643471Y671910D01*
X632336Y660775D01*
G37*
G36*
X628800Y664311D02*
X625567Y667544D01*
X636702Y678679D01*
X639935Y675446D01*
X628800Y664311D01*
G37*
G36*
X625265Y667846D02*
X622032Y671079D01*
X633167Y682214D01*
X636400Y678981D01*
X625265Y667846D01*
G37*
G36*
X621729Y671382D02*
X618496Y674615D01*
X629631Y685750D01*
X632864Y682517D01*
X621729Y671382D01*
G37*
G36*
X618194Y674917D02*
X614961Y678150D01*
X626096Y689285D01*
X629329Y686052D01*
X618194Y674917D01*
G37*
G36*
X614658Y678453D02*
X611425Y681686D01*
X622560Y692821D01*
X625793Y689588D01*
X614658Y678453D01*
G37*
G36*
X584207Y689588D02*
X587440Y692821D01*
X598575Y681686D01*
X595342Y678453D01*
X584207Y689588D01*
G37*
G36*
X580671Y686052D02*
X583904Y689285D01*
X595039Y678150D01*
X591806Y674917D01*
X580671Y686052D01*
G37*
G36*
X577136Y682517D02*
X580369Y685750D01*
X591504Y674615D01*
X588271Y671382D01*
X577136Y682517D01*
G37*
G36*
X573600Y678981D02*
X576833Y682214D01*
X587968Y671079D01*
X584735Y667846D01*
X573600Y678981D01*
G37*
G36*
X570065Y675446D02*
X573298Y678679D01*
X584433Y667544D01*
X581200Y664311D01*
X570065Y675446D01*
G37*
G36*
X566529Y671910D02*
X569762Y675143D01*
X580897Y664008D01*
X577664Y660775D01*
X566529Y671910D01*
G37*
G36*
X562994Y668375D02*
X566227Y671608D01*
X577362Y660473D01*
X574129Y657240D01*
X562994Y668375D01*
G37*
G36*
X559458Y664839D02*
X562691Y668072D01*
X573826Y656937D01*
X570593Y653704D01*
X559458Y664839D01*
G37*
G36*
X555923Y661304D02*
X559156Y664537D01*
X570291Y653402D01*
X567058Y650169D01*
X555923Y661304D01*
G37*
G36*
X552387Y657768D02*
X555620Y661001D01*
X566755Y649866D01*
X563522Y646633D01*
X552387Y657768D01*
G37*
G36*
X548852Y654233D02*
X552085Y657466D01*
X563220Y646331D01*
X559987Y643098D01*
X548852Y654233D01*
G37*
G36*
X545316Y650697D02*
X548549Y653930D01*
X559684Y642795D01*
X556451Y639562D01*
X545316Y650697D01*
G37*
G36*
X541781Y647162D02*
X545014Y650395D01*
X556149Y639260D01*
X552916Y636027D01*
X541781Y647162D01*
G37*
G36*
X538245Y643626D02*
X541478Y646859D01*
X552613Y635724D01*
X549380Y632491D01*
X538245Y643626D01*
G37*
G36*
X534710Y640090D02*
X537943Y643323D01*
X549078Y632188D01*
X545845Y628955D01*
X534710Y640090D01*
G37*
G36*
X531174Y636555D02*
X534407Y639788D01*
X545542Y628653D01*
X542309Y625420D01*
X531174Y636555D01*
G37*
G36*
X527638Y633019D02*
X530871Y636252D01*
X542006Y625117D01*
X538773Y621884D01*
X527638Y633019D01*
G37*
G36*
X524103Y629484D02*
X527336Y632717D01*
X538471Y621582D01*
X535238Y618349D01*
X524103Y629484D01*
G37*
G36*
X520567Y625948D02*
X523800Y629181D01*
X534935Y618046D01*
X531702Y614813D01*
X520567Y625948D01*
G37*
G36*
X517032Y622413D02*
X520265Y625646D01*
X531400Y614511D01*
X528167Y611278D01*
X517032Y622413D01*
G37*
G36*
X513496Y618877D02*
X516729Y622110D01*
X527864Y610975D01*
X524631Y607742D01*
X513496Y618877D01*
G37*
G36*
X509961Y615342D02*
X513194Y618575D01*
X524329Y607440D01*
X521096Y604207D01*
X509961Y615342D01*
G37*
G36*
X506425Y611806D02*
X509658Y615039D01*
X520793Y603904D01*
X517560Y600671D01*
X506425Y611806D01*
G37*
G36*
X502890Y608271D02*
X506123Y611504D01*
X517258Y600369D01*
X514025Y597136D01*
X502890Y608271D01*
G37*
G36*
X499354Y604735D02*
X502587Y607968D01*
X513722Y596833D01*
X510489Y593600D01*
X499354Y604735D01*
G37*
G36*
X495819Y601200D02*
X499052Y604433D01*
X510187Y593298D01*
X506954Y590065D01*
X495819Y601200D01*
G37*
G36*
X492283Y597664D02*
X495516Y600897D01*
X506651Y589762D01*
X503418Y586529D01*
X492283Y597664D01*
G37*
G36*
X488748Y594129D02*
X491981Y597362D01*
X503116Y586227D01*
X499883Y582994D01*
X488748Y594129D01*
G37*
G36*
X485212Y590593D02*
X488445Y593826D01*
X499580Y582691D01*
X496347Y579458D01*
X485212Y590593D01*
G37*
G36*
X481677Y587057D02*
X484910Y590290D01*
X496045Y579155D01*
X492812Y575922D01*
X481677Y587057D01*
G37*
G36*
X478141Y583522D02*
X481374Y586755D01*
X492509Y575620D01*
X489276Y572387D01*
X478141Y583522D01*
G37*
G36*
X474605Y579986D02*
X477838Y583219D01*
X488973Y572084D01*
X485740Y568851D01*
X474605Y579986D01*
G37*
G36*
X471070Y576451D02*
X474303Y579684D01*
X485438Y568549D01*
X482205Y565316D01*
X471070Y576451D01*
G37*
G36*
X467534Y572915D02*
X470767Y576148D01*
X481902Y565013D01*
X478669Y561780D01*
X467534Y572915D01*
G37*
G36*
X463999Y569380D02*
X467232Y572613D01*
X478367Y561478D01*
X475134Y558245D01*
X463999Y569380D01*
G37*
G36*
X460463Y565844D02*
X463696Y569077D01*
X474831Y557942D01*
X471598Y554709D01*
X460463Y565844D01*
G37*
G36*
X456928Y562309D02*
X460161Y565542D01*
X471296Y554407D01*
X468063Y551174D01*
X456928Y562309D01*
G37*
G36*
X453392Y558773D02*
X456625Y562006D01*
X467760Y550871D01*
X464527Y547638D01*
X453392Y558773D01*
G37*
G36*
X449857Y555238D02*
X453090Y558471D01*
X464225Y547336D01*
X460992Y544103D01*
X449857Y555238D01*
G37*
G36*
X446321Y551702D02*
X449554Y554935D01*
X460689Y543800D01*
X457456Y540567D01*
X446321Y551702D01*
G37*
G36*
X442786Y548167D02*
X446019Y551400D01*
X457154Y540265D01*
X453921Y537032D01*
X442786Y548167D01*
G37*
G36*
X439250Y544631D02*
X442483Y547864D01*
X453618Y536729D01*
X450385Y533496D01*
X439250Y544631D01*
G37*
G36*
X435715Y541096D02*
X438948Y544329D01*
X450083Y533194D01*
X446850Y529961D01*
X435715Y541096D01*
G37*
G36*
X432179Y537560D02*
X435412Y540793D01*
X446547Y529658D01*
X443314Y526425D01*
X432179Y537560D01*
G37*
D11*
G36*
X706534Y388589D02*
X699441Y381496D01*
X693054Y387883D01*
X700147Y394976D01*
X706534Y388589D01*
G37*
G36*
X715019Y380104D02*
X707926Y373011D01*
X701539Y379398D01*
X708632Y386491D01*
X715019Y380104D01*
G37*
G36*
X484871Y421234D02*
X477778Y428327D01*
X484165Y434714D01*
X491258Y427621D01*
X484871Y421234D01*
G37*
G36*
X476386Y412749D02*
X469293Y419842D01*
X475680Y426229D01*
X482773Y419136D01*
X476386Y412749D01*
G37*
G36*
X466336Y407826D02*
X473429Y414919D01*
X479816Y408532D01*
X472723Y401439D01*
X466336Y407826D01*
G37*
G36*
X457851Y416311D02*
X464944Y423404D01*
X471331Y417017D01*
X464238Y409924D01*
X457851Y416311D01*
G37*
G36*
X475745Y392256D02*
X468652Y385163D01*
X462265Y391550D01*
X469358Y398643D01*
X475745Y392256D01*
G37*
G36*
X484231Y383770D02*
X477138Y376677D01*
X470751Y383064D01*
X477844Y390157D01*
X484231Y383770D01*
G37*
D24*
G36*
X447277Y403651D02*
X432406Y388780D01*
X423191Y397995D01*
X438062Y412866D01*
X447277Y403651D01*
G37*
G36*
X464954Y385973D02*
X450083Y371102D01*
X440868Y380317D01*
X455739Y395188D01*
X464954Y385973D01*
G37*
D25*
G36*
X483670Y346707D02*
X470920Y359457D01*
X482256Y370793D01*
X495006Y358043D01*
X483670Y346707D01*
G37*
G36*
X470942Y333979D02*
X458192Y346729D01*
X469528Y358065D01*
X482278Y345315D01*
X470942Y333979D01*
G37*
G36*
X487913Y317009D02*
X475163Y329759D01*
X486499Y341095D01*
X499249Y328345D01*
X487913Y317009D01*
G37*
G36*
X500641Y329737D02*
X487891Y342487D01*
X499227Y353823D01*
X511977Y341073D01*
X500641Y329737D01*
G37*
D11*
G36*
X493244Y372420D02*
X500337Y379513D01*
X506724Y373126D01*
X499631Y366033D01*
X493244Y372420D01*
G37*
G36*
X484759Y380905D02*
X491852Y387998D01*
X498239Y381611D01*
X491146Y374518D01*
X484759Y380905D01*
G37*
G36*
X518664Y360603D02*
X511571Y353510D01*
X505184Y359897D01*
X512277Y366990D01*
X518664Y360603D01*
G37*
G36*
X527149Y352117D02*
X520056Y345024D01*
X513669Y351411D01*
X520762Y358504D01*
X527149Y352117D01*
G37*
G36*
X716252Y394025D02*
X723345Y401118D01*
X729732Y394731D01*
X722639Y387638D01*
X716252Y394025D01*
G37*
G36*
X707767Y402510D02*
X714860Y409603D01*
X721247Y403216D01*
X714154Y396123D01*
X707767Y402510D01*
G37*
G36*
X709338Y387110D02*
X716431Y394203D01*
X722818Y387816D01*
X715725Y380723D01*
X709338Y387110D01*
G37*
G36*
X700852Y395596D02*
X707945Y402689D01*
X714332Y396302D01*
X707239Y389209D01*
X700852Y395596D01*
G37*
G36*
X744336Y363845D02*
X737243Y370938D01*
X743630Y377325D01*
X750723Y370232D01*
X744336Y363845D01*
G37*
G36*
X735850Y355360D02*
X728757Y362453D01*
X735144Y368840D01*
X742237Y361747D01*
X735850Y355360D01*
G37*
G36*
X735771Y370490D02*
X728678Y377583D01*
X735065Y383970D01*
X742158Y376877D01*
X735771Y370490D01*
G37*
G36*
X727285Y362005D02*
X720192Y369098D01*
X726579Y375485D01*
X733672Y368392D01*
X727285Y362005D01*
G37*
G36*
X515565Y401206D02*
X508472Y394113D01*
X502085Y400500D01*
X509178Y407593D01*
X515565Y401206D01*
G37*
G36*
X524050Y392721D02*
X516957Y385628D01*
X510570Y392015D01*
X517663Y399108D01*
X524050Y392721D01*
G37*
G36*
X743050Y360888D02*
X750143Y353795D01*
X743756Y347408D01*
X736663Y354501D01*
X743050Y360888D01*
G37*
G36*
X751535Y369373D02*
X758628Y362280D01*
X752241Y355893D01*
X745148Y362986D01*
X751535Y369373D01*
G37*
D26*
X934000Y737000D03*
X959400Y737000D03*
X934000Y711600D03*
X959400Y711600D03*
X934000Y686200D03*
X959400Y686200D03*
X934000Y660800D03*
X959400Y660800D03*
X934000Y635400D03*
X959400Y635400D03*
D11*
G36*
X515590Y384057D02*
X522683Y376964D01*
X516296Y370577D01*
X509203Y377670D01*
X515590Y384057D01*
G37*
G36*
X524075Y392543D02*
X531168Y385450D01*
X524781Y379063D01*
X517688Y386156D01*
X524075Y392543D01*
G37*
D15*
X449400Y969860D03*
X449400Y919060D03*
X859400Y969860D03*
D16*
X631400Y732160D03*
X656800Y732160D03*
X682200Y732160D03*
X707600Y732160D03*
X733000Y732160D03*
X758400Y732160D03*
X783800Y732160D03*
X809200Y732160D03*
X834600Y732160D03*
X860000Y732160D03*
X860000Y757560D03*
X834600Y757560D03*
X809200Y757560D03*
X783800Y757560D03*
X758400Y757560D03*
X733000Y757560D03*
X707600Y757560D03*
X682200Y757560D03*
X656800Y757560D03*
X631400Y757560D03*
D27*
X47500Y876000D03*
X122500Y876000D03*
X47500Y666000D03*
X85000Y666000D03*
X122500Y666000D03*
X337500Y666000D03*
X337500Y876000D03*
D28*
X239000Y955000D03*
X390000Y955000D03*
X195000Y955000D03*
X120000Y975000D03*
D19*
X117000Y592000D03*
X129000Y592000D03*
D29*
X166500Y592000D03*
X145500Y592000D03*
D19*
X42000Y592000D03*
X54000Y592000D03*
D29*
X89500Y592000D03*
X68500Y592000D03*
D16*
X934700Y94700D03*
X909300Y94700D03*
X934700Y120100D03*
X909300Y120100D03*
X934700Y145500D03*
X909300Y145500D03*
X934700Y170900D03*
X909300Y170900D03*
X934700Y196300D03*
X909300Y196300D03*
X934700Y221700D03*
X909300Y221700D03*
X934700Y247100D03*
X909300Y247100D03*
X934700Y272500D03*
X909300Y272500D03*
X934700Y297900D03*
X909300Y297900D03*
X934700Y323300D03*
X909300Y323300D03*
X934700Y348700D03*
X909300Y348700D03*
X934700Y374100D03*
X909300Y374100D03*
X934700Y399500D03*
X909300Y399500D03*
X934700Y424900D03*
X909300Y424900D03*
X934700Y450300D03*
X909300Y450300D03*
X934700Y475700D03*
X909300Y475700D03*
X934700Y501100D03*
X909300Y501100D03*
X934700Y526500D03*
X909300Y526500D03*
X934700Y551900D03*
X909300Y551900D03*
X934700Y577300D03*
X909300Y577300D03*
X104700Y333700D03*
X79300Y333700D03*
X104700Y359100D03*
X79300Y359100D03*
X104700Y384500D03*
X79300Y384500D03*
X104700Y409900D03*
X79300Y409900D03*
X104700Y435300D03*
X79300Y435300D03*
X104700Y460700D03*
X79300Y460700D03*
X104700Y486100D03*
X79300Y486100D03*
X104700Y511500D03*
X79300Y511500D03*
X104700Y536900D03*
X79300Y536900D03*
X104700Y562300D03*
X79300Y562300D03*
D11*
X124000Y115400D03*
X124000Y127400D03*
D19*
X112000Y87500D03*
X124000Y87500D03*
D11*
X124200Y141400D03*
X124200Y153400D03*
D30*
X90400Y153600D02*
X70400Y153600D01*
X70400Y115500D02*
X90400Y115500D01*
D11*
X111200Y153400D03*
X111200Y141400D03*
D19*
X112000Y101300D03*
X124000Y101300D03*
D11*
X111900Y127600D03*
X111900Y115600D03*
X121500Y212500D03*
X121500Y224500D03*
D19*
X109800Y192000D03*
X121800Y192000D03*
D11*
X121300Y239700D03*
X121300Y251700D03*
D30*
X90300Y250500D02*
X70300Y250500D01*
X70300Y212400D02*
X90300Y212400D01*
D11*
X109600Y251600D03*
X109600Y239600D03*
D19*
X109700Y201900D03*
X121700Y201900D03*
D11*
X109600Y224500D03*
X109600Y212500D03*
D31*
X600550Y142629D03*
X613250Y142629D03*
X625950Y142629D03*
X638650Y142629D03*
X651350Y142629D03*
X664050Y142629D03*
X676750Y142629D03*
X689450Y142629D03*
X689450Y237371D03*
X676750Y237371D03*
X664050Y237371D03*
X651350Y237371D03*
X638650Y237371D03*
X625950Y237371D03*
X613250Y237371D03*
X600550Y237371D03*
D11*
X676700Y119500D03*
X676700Y107500D03*
X664000Y119400D03*
X664000Y107400D03*
X626000Y111000D03*
X626000Y99000D03*
D19*
X594000Y80000D03*
X582000Y80000D03*
X612900Y274000D03*
X600900Y274000D03*
D11*
X652000Y278000D03*
X652000Y266000D03*
X600900Y309900D03*
X600900Y297900D03*
D19*
X612700Y262000D03*
X600700Y262000D03*
X600900Y284900D03*
X612900Y284900D03*
D29*
X585000Y126500D03*
X585000Y105500D03*
D19*
X582000Y91000D03*
X594000Y91000D03*
D32*
X294000Y240500D03*
X323000Y195500D03*
X273000Y301500D03*
X383000Y78500D03*
X162000Y88500D03*
X202000Y280500D03*
X351000Y205000D03*
X464000Y179000D03*
X450000Y355000D03*
X436081Y518172D03*
X547000Y269000D03*
X720000Y377000D03*
X454000Y409000D03*
X782000Y266000D03*
X801000Y634000D03*
X524000Y211000D03*
X630000Y303000D03*
X567000Y357000D03*
X552000Y694000D03*
X653000Y500000D03*
X501000Y971000D03*
X240000Y226500D03*
X350300Y185700D03*
X690350Y392650D03*
X770224Y479776D03*
X755300Y574500D03*
X516000Y409000D03*
X549000Y379000D03*
X730844Y352422D03*
X514368Y646923D03*
X661000Y667000D03*
X709800Y620900D03*
X501800Y625600D03*
X437500Y568424D03*
X194300Y227000D03*
X105000Y592000D03*
X163000Y688000D03*
X984760Y712000D03*
X561000Y690000D03*
X617350Y377128D03*
X572800Y717000D03*
X407500Y291000D03*
X401000Y259000D03*
X382000Y340000D03*
X404400Y356700D03*
X389000Y356924D03*
X384000Y330000D03*
X393500Y267004D03*
X355000Y229500D03*
X351000Y218500D03*
X362000Y238000D03*
X358000Y394000D03*
X377088Y365000D03*
X349400Y326500D03*
X347000Y383000D03*
X360000Y368000D03*
X359500Y326600D03*
X338000Y390000D03*
X370000Y372000D03*
X374324Y250500D03*
X297000Y360000D03*
X488900Y617400D03*
X321000Y239500D03*
X435000Y150000D03*
X445476Y417976D03*
X424000Y257000D03*
X463194Y223000D03*
X772000Y453000D03*
X408000Y222500D03*
X20000Y593000D03*
X583000Y241000D03*
X666000Y715000D03*
X796850Y703150D03*
X797000Y773000D03*
X304850Y158150D03*
X915000Y736762D03*
X915000Y711600D03*
X744068Y381468D03*
X700253Y625860D03*
X915000Y660800D03*
X915000Y686200D03*
X511393Y656069D03*
X408350Y540650D03*
X424000Y498000D03*
X734000Y248912D03*
X887000Y134000D03*
X449000Y608000D03*
X444500Y589500D03*
X443200Y598500D03*
X418000Y541000D03*
X399000Y539000D03*
X390000Y534000D03*
X890000Y209000D03*
X894000Y374000D03*
X898000Y361000D03*
X413000Y491000D03*
X714000Y239000D03*
X884000Y107000D03*
X834000Y356576D03*
X817000Y356576D03*
X863000Y316000D03*
X951000Y338000D03*
X643088Y714000D03*
X828000Y710000D03*
X809000Y704000D03*
X654000Y714000D03*
X632000Y714000D03*
X853000Y712000D03*
X846000Y774000D03*
X599000Y759000D03*
X595000Y714000D03*
X610000Y744000D03*
X670000Y794000D03*
X457027Y603027D03*
X682100Y788788D03*
X466115Y601515D03*
X474485Y618100D03*
X482000Y626000D03*
X679000Y715000D03*
X798000Y501000D03*
X900624Y747100D03*
X732000Y777000D03*
X783000Y495000D03*
X893936Y695000D03*
X770000Y773000D03*
X746000Y700000D03*
X773000Y703000D03*
X838576Y712000D03*
X785000Y702424D03*
X255200Y684400D03*
X801000Y388000D03*
X890000Y234200D03*
X890000Y222000D03*
X785000Y384000D03*
X787000Y374000D03*
X781000Y393000D03*
X822000Y372000D03*
X778000Y366000D03*
X847000Y646000D03*
X884000Y615000D03*
X868000Y608000D03*
X838000Y637000D03*
X897000Y462000D03*
X883000Y486000D03*
X884000Y475000D03*
X865000Y506000D03*
X896000Y577000D03*
X595000Y376700D03*
X744000Y289000D03*
X608724Y372776D03*
X754600Y289100D03*
X156000Y115000D03*
X142000Y109000D03*
X134500Y151500D03*
X154000Y224000D03*
X136000Y224000D03*
X115083Y283717D03*
M02*
