G04 EAGLE Gerber RS-274X export*
G75*
%MOMM*%
%FSLAX34Y34*%
%LPD*%
%INOutline*%
%IPPOS*%
%AMOC8*
5,1,8,0,0,1.08239X$1,22.5*%
G01*
%ADD10C,0.000000*%
%ADD11C,0.254000*%


D10*
X0Y0D02*
X1500000Y0D01*
X1500000Y1200000D01*
X0Y1200000D01*
X0Y0D01*
X1292080Y1150940D02*
X1292082Y1151088D01*
X1292088Y1151236D01*
X1292098Y1151384D01*
X1292112Y1151532D01*
X1292130Y1151679D01*
X1292152Y1151826D01*
X1292178Y1151972D01*
X1292207Y1152117D01*
X1292241Y1152262D01*
X1292279Y1152405D01*
X1292320Y1152548D01*
X1292365Y1152689D01*
X1292415Y1152829D01*
X1292467Y1152967D01*
X1292524Y1153105D01*
X1292584Y1153240D01*
X1292648Y1153374D01*
X1292715Y1153506D01*
X1292786Y1153636D01*
X1292861Y1153765D01*
X1292939Y1153891D01*
X1293020Y1154015D01*
X1293104Y1154137D01*
X1293192Y1154256D01*
X1293283Y1154373D01*
X1293377Y1154488D01*
X1293475Y1154600D01*
X1293575Y1154709D01*
X1293678Y1154816D01*
X1293784Y1154920D01*
X1293892Y1155021D01*
X1294004Y1155119D01*
X1294118Y1155214D01*
X1294234Y1155305D01*
X1294353Y1155394D01*
X1294474Y1155479D01*
X1294598Y1155561D01*
X1294724Y1155640D01*
X1294851Y1155715D01*
X1294981Y1155787D01*
X1295113Y1155856D01*
X1295246Y1155920D01*
X1295381Y1155981D01*
X1295518Y1156039D01*
X1295656Y1156093D01*
X1295796Y1156143D01*
X1295937Y1156189D01*
X1296079Y1156231D01*
X1296222Y1156270D01*
X1296366Y1156304D01*
X1296512Y1156335D01*
X1296657Y1156362D01*
X1296804Y1156385D01*
X1296951Y1156404D01*
X1297099Y1156419D01*
X1297246Y1156430D01*
X1297395Y1156437D01*
X1297543Y1156440D01*
X1297691Y1156439D01*
X1297839Y1156434D01*
X1297987Y1156425D01*
X1298135Y1156412D01*
X1298283Y1156395D01*
X1298429Y1156374D01*
X1298576Y1156349D01*
X1298721Y1156320D01*
X1298866Y1156288D01*
X1299009Y1156251D01*
X1299152Y1156211D01*
X1299294Y1156166D01*
X1299434Y1156118D01*
X1299573Y1156066D01*
X1299710Y1156011D01*
X1299846Y1155951D01*
X1299981Y1155888D01*
X1300113Y1155822D01*
X1300244Y1155752D01*
X1300373Y1155678D01*
X1300499Y1155601D01*
X1300624Y1155521D01*
X1300746Y1155437D01*
X1300867Y1155350D01*
X1300984Y1155260D01*
X1301100Y1155166D01*
X1301212Y1155070D01*
X1301322Y1154971D01*
X1301430Y1154868D01*
X1301534Y1154763D01*
X1301636Y1154655D01*
X1301734Y1154544D01*
X1301830Y1154431D01*
X1301923Y1154315D01*
X1302012Y1154197D01*
X1302098Y1154076D01*
X1302181Y1153953D01*
X1302261Y1153828D01*
X1302337Y1153701D01*
X1302410Y1153571D01*
X1302479Y1153440D01*
X1302544Y1153307D01*
X1302607Y1153173D01*
X1302665Y1153036D01*
X1302720Y1152898D01*
X1302770Y1152759D01*
X1302818Y1152618D01*
X1302861Y1152477D01*
X1302901Y1152334D01*
X1302936Y1152190D01*
X1302968Y1152045D01*
X1302996Y1151899D01*
X1303020Y1151753D01*
X1303040Y1151606D01*
X1303056Y1151458D01*
X1303068Y1151311D01*
X1303076Y1151162D01*
X1303080Y1151014D01*
X1303080Y1150866D01*
X1303076Y1150718D01*
X1303068Y1150569D01*
X1303056Y1150422D01*
X1303040Y1150274D01*
X1303020Y1150127D01*
X1302996Y1149981D01*
X1302968Y1149835D01*
X1302936Y1149690D01*
X1302901Y1149546D01*
X1302861Y1149403D01*
X1302818Y1149262D01*
X1302770Y1149121D01*
X1302720Y1148982D01*
X1302665Y1148844D01*
X1302607Y1148707D01*
X1302544Y1148573D01*
X1302479Y1148440D01*
X1302410Y1148309D01*
X1302337Y1148179D01*
X1302261Y1148052D01*
X1302181Y1147927D01*
X1302098Y1147804D01*
X1302012Y1147683D01*
X1301923Y1147565D01*
X1301830Y1147449D01*
X1301734Y1147336D01*
X1301636Y1147225D01*
X1301534Y1147117D01*
X1301430Y1147012D01*
X1301322Y1146909D01*
X1301212Y1146810D01*
X1301100Y1146714D01*
X1300984Y1146620D01*
X1300867Y1146530D01*
X1300746Y1146443D01*
X1300624Y1146359D01*
X1300499Y1146279D01*
X1300373Y1146202D01*
X1300244Y1146128D01*
X1300113Y1146058D01*
X1299981Y1145992D01*
X1299846Y1145929D01*
X1299710Y1145869D01*
X1299573Y1145814D01*
X1299434Y1145762D01*
X1299294Y1145714D01*
X1299152Y1145669D01*
X1299009Y1145629D01*
X1298866Y1145592D01*
X1298721Y1145560D01*
X1298576Y1145531D01*
X1298429Y1145506D01*
X1298283Y1145485D01*
X1298135Y1145468D01*
X1297987Y1145455D01*
X1297839Y1145446D01*
X1297691Y1145441D01*
X1297543Y1145440D01*
X1297395Y1145443D01*
X1297246Y1145450D01*
X1297099Y1145461D01*
X1296951Y1145476D01*
X1296804Y1145495D01*
X1296657Y1145518D01*
X1296512Y1145545D01*
X1296366Y1145576D01*
X1296222Y1145610D01*
X1296079Y1145649D01*
X1295937Y1145691D01*
X1295796Y1145737D01*
X1295656Y1145787D01*
X1295518Y1145841D01*
X1295381Y1145899D01*
X1295246Y1145960D01*
X1295113Y1146024D01*
X1294981Y1146093D01*
X1294851Y1146165D01*
X1294724Y1146240D01*
X1294598Y1146319D01*
X1294474Y1146401D01*
X1294353Y1146486D01*
X1294234Y1146575D01*
X1294118Y1146666D01*
X1294004Y1146761D01*
X1293892Y1146859D01*
X1293784Y1146960D01*
X1293678Y1147064D01*
X1293575Y1147171D01*
X1293475Y1147280D01*
X1293377Y1147392D01*
X1293283Y1147507D01*
X1293192Y1147624D01*
X1293104Y1147743D01*
X1293020Y1147865D01*
X1292939Y1147989D01*
X1292861Y1148115D01*
X1292786Y1148244D01*
X1292715Y1148374D01*
X1292648Y1148506D01*
X1292584Y1148640D01*
X1292524Y1148775D01*
X1292467Y1148913D01*
X1292415Y1149051D01*
X1292365Y1149191D01*
X1292320Y1149332D01*
X1292279Y1149475D01*
X1292241Y1149618D01*
X1292207Y1149763D01*
X1292178Y1149908D01*
X1292152Y1150054D01*
X1292130Y1150201D01*
X1292112Y1150348D01*
X1292098Y1150496D01*
X1292088Y1150644D01*
X1292082Y1150792D01*
X1292080Y1150940D01*
X1411040Y530790D02*
X1411044Y531080D01*
X1411054Y531369D01*
X1411072Y531658D01*
X1411097Y531947D01*
X1411129Y532234D01*
X1411168Y532521D01*
X1411214Y532807D01*
X1411267Y533092D01*
X1411327Y533375D01*
X1411394Y533657D01*
X1411467Y533937D01*
X1411548Y534215D01*
X1411636Y534491D01*
X1411730Y534765D01*
X1411831Y535037D01*
X1411938Y535306D01*
X1412052Y535572D01*
X1412173Y535835D01*
X1412300Y536095D01*
X1412433Y536352D01*
X1412573Y536606D01*
X1412719Y536856D01*
X1412871Y537103D01*
X1413029Y537346D01*
X1413192Y537585D01*
X1413362Y537819D01*
X1413538Y538050D01*
X1413718Y538276D01*
X1413905Y538497D01*
X1414097Y538714D01*
X1414294Y538927D01*
X1414496Y539134D01*
X1414703Y539336D01*
X1414916Y539533D01*
X1415133Y539725D01*
X1415354Y539912D01*
X1415580Y540092D01*
X1415811Y540268D01*
X1416045Y540438D01*
X1416284Y540601D01*
X1416527Y540759D01*
X1416774Y540911D01*
X1417024Y541057D01*
X1417278Y541197D01*
X1417535Y541330D01*
X1417795Y541457D01*
X1418058Y541578D01*
X1418324Y541692D01*
X1418593Y541799D01*
X1418865Y541900D01*
X1419139Y541994D01*
X1419415Y542082D01*
X1419693Y542163D01*
X1419973Y542236D01*
X1420255Y542303D01*
X1420538Y542363D01*
X1420823Y542416D01*
X1421109Y542462D01*
X1421396Y542501D01*
X1421683Y542533D01*
X1421972Y542558D01*
X1422261Y542576D01*
X1422550Y542586D01*
X1422840Y542590D01*
X1423130Y542586D01*
X1423419Y542576D01*
X1423708Y542558D01*
X1423997Y542533D01*
X1424284Y542501D01*
X1424571Y542462D01*
X1424857Y542416D01*
X1425142Y542363D01*
X1425425Y542303D01*
X1425707Y542236D01*
X1425987Y542163D01*
X1426265Y542082D01*
X1426541Y541994D01*
X1426815Y541900D01*
X1427087Y541799D01*
X1427356Y541692D01*
X1427622Y541578D01*
X1427885Y541457D01*
X1428145Y541330D01*
X1428402Y541197D01*
X1428656Y541057D01*
X1428906Y540911D01*
X1429153Y540759D01*
X1429396Y540601D01*
X1429635Y540438D01*
X1429869Y540268D01*
X1430100Y540092D01*
X1430326Y539912D01*
X1430547Y539725D01*
X1430764Y539533D01*
X1430977Y539336D01*
X1431184Y539134D01*
X1431386Y538927D01*
X1431583Y538714D01*
X1431775Y538497D01*
X1431962Y538276D01*
X1432142Y538050D01*
X1432318Y537819D01*
X1432488Y537585D01*
X1432651Y537346D01*
X1432809Y537103D01*
X1432961Y536856D01*
X1433107Y536606D01*
X1433247Y536352D01*
X1433380Y536095D01*
X1433507Y535835D01*
X1433628Y535572D01*
X1433742Y535306D01*
X1433849Y535037D01*
X1433950Y534765D01*
X1434044Y534491D01*
X1434132Y534215D01*
X1434213Y533937D01*
X1434286Y533657D01*
X1434353Y533375D01*
X1434413Y533092D01*
X1434466Y532807D01*
X1434512Y532521D01*
X1434551Y532234D01*
X1434583Y531947D01*
X1434608Y531658D01*
X1434626Y531369D01*
X1434636Y531080D01*
X1434640Y530790D01*
X1434636Y530500D01*
X1434626Y530211D01*
X1434608Y529922D01*
X1434583Y529633D01*
X1434551Y529346D01*
X1434512Y529059D01*
X1434466Y528773D01*
X1434413Y528488D01*
X1434353Y528205D01*
X1434286Y527923D01*
X1434213Y527643D01*
X1434132Y527365D01*
X1434044Y527089D01*
X1433950Y526815D01*
X1433849Y526543D01*
X1433742Y526274D01*
X1433628Y526008D01*
X1433507Y525745D01*
X1433380Y525485D01*
X1433247Y525228D01*
X1433107Y524974D01*
X1432961Y524724D01*
X1432809Y524477D01*
X1432651Y524234D01*
X1432488Y523995D01*
X1432318Y523761D01*
X1432142Y523530D01*
X1431962Y523304D01*
X1431775Y523083D01*
X1431583Y522866D01*
X1431386Y522653D01*
X1431184Y522446D01*
X1430977Y522244D01*
X1430764Y522047D01*
X1430547Y521855D01*
X1430326Y521668D01*
X1430100Y521488D01*
X1429869Y521312D01*
X1429635Y521142D01*
X1429396Y520979D01*
X1429153Y520821D01*
X1428906Y520669D01*
X1428656Y520523D01*
X1428402Y520383D01*
X1428145Y520250D01*
X1427885Y520123D01*
X1427622Y520002D01*
X1427356Y519888D01*
X1427087Y519781D01*
X1426815Y519680D01*
X1426541Y519586D01*
X1426265Y519498D01*
X1425987Y519417D01*
X1425707Y519344D01*
X1425425Y519277D01*
X1425142Y519217D01*
X1424857Y519164D01*
X1424571Y519118D01*
X1424284Y519079D01*
X1423997Y519047D01*
X1423708Y519022D01*
X1423419Y519004D01*
X1423130Y518994D01*
X1422840Y518990D01*
X1422550Y518994D01*
X1422261Y519004D01*
X1421972Y519022D01*
X1421683Y519047D01*
X1421396Y519079D01*
X1421109Y519118D01*
X1420823Y519164D01*
X1420538Y519217D01*
X1420255Y519277D01*
X1419973Y519344D01*
X1419693Y519417D01*
X1419415Y519498D01*
X1419139Y519586D01*
X1418865Y519680D01*
X1418593Y519781D01*
X1418324Y519888D01*
X1418058Y520002D01*
X1417795Y520123D01*
X1417535Y520250D01*
X1417278Y520383D01*
X1417024Y520523D01*
X1416774Y520669D01*
X1416527Y520821D01*
X1416284Y520979D01*
X1416045Y521142D01*
X1415811Y521312D01*
X1415580Y521488D01*
X1415354Y521668D01*
X1415133Y521855D01*
X1414916Y522047D01*
X1414703Y522244D01*
X1414496Y522446D01*
X1414294Y522653D01*
X1414097Y522866D01*
X1413905Y523083D01*
X1413718Y523304D01*
X1413538Y523530D01*
X1413362Y523761D01*
X1413192Y523995D01*
X1413029Y524234D01*
X1412871Y524477D01*
X1412719Y524724D01*
X1412573Y524974D01*
X1412433Y525228D01*
X1412300Y525485D01*
X1412173Y525745D01*
X1412052Y526008D01*
X1411938Y526274D01*
X1411831Y526543D01*
X1411730Y526815D01*
X1411636Y527089D01*
X1411548Y527365D01*
X1411467Y527643D01*
X1411394Y527923D01*
X1411327Y528205D01*
X1411267Y528488D01*
X1411214Y528773D01*
X1411168Y529059D01*
X1411129Y529346D01*
X1411097Y529633D01*
X1411072Y529922D01*
X1411054Y530211D01*
X1411044Y530500D01*
X1411040Y530790D01*
X1411040Y680790D02*
X1411044Y681080D01*
X1411054Y681369D01*
X1411072Y681658D01*
X1411097Y681947D01*
X1411129Y682234D01*
X1411168Y682521D01*
X1411214Y682807D01*
X1411267Y683092D01*
X1411327Y683375D01*
X1411394Y683657D01*
X1411467Y683937D01*
X1411548Y684215D01*
X1411636Y684491D01*
X1411730Y684765D01*
X1411831Y685037D01*
X1411938Y685306D01*
X1412052Y685572D01*
X1412173Y685835D01*
X1412300Y686095D01*
X1412433Y686352D01*
X1412573Y686606D01*
X1412719Y686856D01*
X1412871Y687103D01*
X1413029Y687346D01*
X1413192Y687585D01*
X1413362Y687819D01*
X1413538Y688050D01*
X1413718Y688276D01*
X1413905Y688497D01*
X1414097Y688714D01*
X1414294Y688927D01*
X1414496Y689134D01*
X1414703Y689336D01*
X1414916Y689533D01*
X1415133Y689725D01*
X1415354Y689912D01*
X1415580Y690092D01*
X1415811Y690268D01*
X1416045Y690438D01*
X1416284Y690601D01*
X1416527Y690759D01*
X1416774Y690911D01*
X1417024Y691057D01*
X1417278Y691197D01*
X1417535Y691330D01*
X1417795Y691457D01*
X1418058Y691578D01*
X1418324Y691692D01*
X1418593Y691799D01*
X1418865Y691900D01*
X1419139Y691994D01*
X1419415Y692082D01*
X1419693Y692163D01*
X1419973Y692236D01*
X1420255Y692303D01*
X1420538Y692363D01*
X1420823Y692416D01*
X1421109Y692462D01*
X1421396Y692501D01*
X1421683Y692533D01*
X1421972Y692558D01*
X1422261Y692576D01*
X1422550Y692586D01*
X1422840Y692590D01*
X1423130Y692586D01*
X1423419Y692576D01*
X1423708Y692558D01*
X1423997Y692533D01*
X1424284Y692501D01*
X1424571Y692462D01*
X1424857Y692416D01*
X1425142Y692363D01*
X1425425Y692303D01*
X1425707Y692236D01*
X1425987Y692163D01*
X1426265Y692082D01*
X1426541Y691994D01*
X1426815Y691900D01*
X1427087Y691799D01*
X1427356Y691692D01*
X1427622Y691578D01*
X1427885Y691457D01*
X1428145Y691330D01*
X1428402Y691197D01*
X1428656Y691057D01*
X1428906Y690911D01*
X1429153Y690759D01*
X1429396Y690601D01*
X1429635Y690438D01*
X1429869Y690268D01*
X1430100Y690092D01*
X1430326Y689912D01*
X1430547Y689725D01*
X1430764Y689533D01*
X1430977Y689336D01*
X1431184Y689134D01*
X1431386Y688927D01*
X1431583Y688714D01*
X1431775Y688497D01*
X1431962Y688276D01*
X1432142Y688050D01*
X1432318Y687819D01*
X1432488Y687585D01*
X1432651Y687346D01*
X1432809Y687103D01*
X1432961Y686856D01*
X1433107Y686606D01*
X1433247Y686352D01*
X1433380Y686095D01*
X1433507Y685835D01*
X1433628Y685572D01*
X1433742Y685306D01*
X1433849Y685037D01*
X1433950Y684765D01*
X1434044Y684491D01*
X1434132Y684215D01*
X1434213Y683937D01*
X1434286Y683657D01*
X1434353Y683375D01*
X1434413Y683092D01*
X1434466Y682807D01*
X1434512Y682521D01*
X1434551Y682234D01*
X1434583Y681947D01*
X1434608Y681658D01*
X1434626Y681369D01*
X1434636Y681080D01*
X1434640Y680790D01*
X1434636Y680500D01*
X1434626Y680211D01*
X1434608Y679922D01*
X1434583Y679633D01*
X1434551Y679346D01*
X1434512Y679059D01*
X1434466Y678773D01*
X1434413Y678488D01*
X1434353Y678205D01*
X1434286Y677923D01*
X1434213Y677643D01*
X1434132Y677365D01*
X1434044Y677089D01*
X1433950Y676815D01*
X1433849Y676543D01*
X1433742Y676274D01*
X1433628Y676008D01*
X1433507Y675745D01*
X1433380Y675485D01*
X1433247Y675228D01*
X1433107Y674974D01*
X1432961Y674724D01*
X1432809Y674477D01*
X1432651Y674234D01*
X1432488Y673995D01*
X1432318Y673761D01*
X1432142Y673530D01*
X1431962Y673304D01*
X1431775Y673083D01*
X1431583Y672866D01*
X1431386Y672653D01*
X1431184Y672446D01*
X1430977Y672244D01*
X1430764Y672047D01*
X1430547Y671855D01*
X1430326Y671668D01*
X1430100Y671488D01*
X1429869Y671312D01*
X1429635Y671142D01*
X1429396Y670979D01*
X1429153Y670821D01*
X1428906Y670669D01*
X1428656Y670523D01*
X1428402Y670383D01*
X1428145Y670250D01*
X1427885Y670123D01*
X1427622Y670002D01*
X1427356Y669888D01*
X1427087Y669781D01*
X1426815Y669680D01*
X1426541Y669586D01*
X1426265Y669498D01*
X1425987Y669417D01*
X1425707Y669344D01*
X1425425Y669277D01*
X1425142Y669217D01*
X1424857Y669164D01*
X1424571Y669118D01*
X1424284Y669079D01*
X1423997Y669047D01*
X1423708Y669022D01*
X1423419Y669004D01*
X1423130Y668994D01*
X1422840Y668990D01*
X1422550Y668994D01*
X1422261Y669004D01*
X1421972Y669022D01*
X1421683Y669047D01*
X1421396Y669079D01*
X1421109Y669118D01*
X1420823Y669164D01*
X1420538Y669217D01*
X1420255Y669277D01*
X1419973Y669344D01*
X1419693Y669417D01*
X1419415Y669498D01*
X1419139Y669586D01*
X1418865Y669680D01*
X1418593Y669781D01*
X1418324Y669888D01*
X1418058Y670002D01*
X1417795Y670123D01*
X1417535Y670250D01*
X1417278Y670383D01*
X1417024Y670523D01*
X1416774Y670669D01*
X1416527Y670821D01*
X1416284Y670979D01*
X1416045Y671142D01*
X1415811Y671312D01*
X1415580Y671488D01*
X1415354Y671668D01*
X1415133Y671855D01*
X1414916Y672047D01*
X1414703Y672244D01*
X1414496Y672446D01*
X1414294Y672653D01*
X1414097Y672866D01*
X1413905Y673083D01*
X1413718Y673304D01*
X1413538Y673530D01*
X1413362Y673761D01*
X1413192Y673995D01*
X1413029Y674234D01*
X1412871Y674477D01*
X1412719Y674724D01*
X1412573Y674974D01*
X1412433Y675228D01*
X1412300Y675485D01*
X1412173Y675745D01*
X1412052Y676008D01*
X1411938Y676274D01*
X1411831Y676543D01*
X1411730Y676815D01*
X1411636Y677089D01*
X1411548Y677365D01*
X1411467Y677643D01*
X1411394Y677923D01*
X1411327Y678205D01*
X1411267Y678488D01*
X1411214Y678773D01*
X1411168Y679059D01*
X1411129Y679346D01*
X1411097Y679633D01*
X1411072Y679922D01*
X1411054Y680211D01*
X1411044Y680500D01*
X1411040Y680790D01*
X1468660Y366240D02*
X1468662Y366424D01*
X1468669Y366608D01*
X1468680Y366792D01*
X1468696Y366975D01*
X1468716Y367158D01*
X1468741Y367340D01*
X1468770Y367522D01*
X1468804Y367703D01*
X1468842Y367883D01*
X1468885Y368062D01*
X1468932Y368240D01*
X1468983Y368417D01*
X1469039Y368593D01*
X1469098Y368767D01*
X1469163Y368939D01*
X1469231Y369110D01*
X1469303Y369279D01*
X1469380Y369447D01*
X1469461Y369612D01*
X1469546Y369775D01*
X1469634Y369937D01*
X1469727Y370096D01*
X1469824Y370252D01*
X1469924Y370407D01*
X1470028Y370559D01*
X1470136Y370708D01*
X1470247Y370854D01*
X1470362Y370998D01*
X1470481Y371139D01*
X1470603Y371277D01*
X1470728Y371412D01*
X1470857Y371543D01*
X1470988Y371672D01*
X1471123Y371797D01*
X1471261Y371919D01*
X1471402Y372038D01*
X1471546Y372153D01*
X1471692Y372264D01*
X1471841Y372372D01*
X1471993Y372476D01*
X1472148Y372576D01*
X1472304Y372673D01*
X1472463Y372766D01*
X1472625Y372854D01*
X1472788Y372939D01*
X1472953Y373020D01*
X1473121Y373097D01*
X1473290Y373169D01*
X1473461Y373237D01*
X1473633Y373302D01*
X1473807Y373361D01*
X1473983Y373417D01*
X1474160Y373468D01*
X1474338Y373515D01*
X1474517Y373558D01*
X1474697Y373596D01*
X1474878Y373630D01*
X1475060Y373659D01*
X1475242Y373684D01*
X1475425Y373704D01*
X1475608Y373720D01*
X1475792Y373731D01*
X1475976Y373738D01*
X1476160Y373740D01*
X1476344Y373738D01*
X1476528Y373731D01*
X1476712Y373720D01*
X1476895Y373704D01*
X1477078Y373684D01*
X1477260Y373659D01*
X1477442Y373630D01*
X1477623Y373596D01*
X1477803Y373558D01*
X1477982Y373515D01*
X1478160Y373468D01*
X1478337Y373417D01*
X1478513Y373361D01*
X1478687Y373302D01*
X1478859Y373237D01*
X1479030Y373169D01*
X1479199Y373097D01*
X1479367Y373020D01*
X1479532Y372939D01*
X1479695Y372854D01*
X1479857Y372766D01*
X1480016Y372673D01*
X1480172Y372576D01*
X1480327Y372476D01*
X1480479Y372372D01*
X1480628Y372264D01*
X1480774Y372153D01*
X1480918Y372038D01*
X1481059Y371919D01*
X1481197Y371797D01*
X1481332Y371672D01*
X1481463Y371543D01*
X1481592Y371412D01*
X1481717Y371277D01*
X1481839Y371139D01*
X1481958Y370998D01*
X1482073Y370854D01*
X1482184Y370708D01*
X1482292Y370559D01*
X1482396Y370407D01*
X1482496Y370252D01*
X1482593Y370096D01*
X1482686Y369937D01*
X1482774Y369775D01*
X1482859Y369612D01*
X1482940Y369447D01*
X1483017Y369279D01*
X1483089Y369110D01*
X1483157Y368939D01*
X1483222Y368767D01*
X1483281Y368593D01*
X1483337Y368417D01*
X1483388Y368240D01*
X1483435Y368062D01*
X1483478Y367883D01*
X1483516Y367703D01*
X1483550Y367522D01*
X1483579Y367340D01*
X1483604Y367158D01*
X1483624Y366975D01*
X1483640Y366792D01*
X1483651Y366608D01*
X1483658Y366424D01*
X1483660Y366240D01*
X1483658Y366056D01*
X1483651Y365872D01*
X1483640Y365688D01*
X1483624Y365505D01*
X1483604Y365322D01*
X1483579Y365140D01*
X1483550Y364958D01*
X1483516Y364777D01*
X1483478Y364597D01*
X1483435Y364418D01*
X1483388Y364240D01*
X1483337Y364063D01*
X1483281Y363887D01*
X1483222Y363713D01*
X1483157Y363541D01*
X1483089Y363370D01*
X1483017Y363201D01*
X1482940Y363033D01*
X1482859Y362868D01*
X1482774Y362705D01*
X1482686Y362543D01*
X1482593Y362384D01*
X1482496Y362228D01*
X1482396Y362073D01*
X1482292Y361921D01*
X1482184Y361772D01*
X1482073Y361626D01*
X1481958Y361482D01*
X1481839Y361341D01*
X1481717Y361203D01*
X1481592Y361068D01*
X1481463Y360937D01*
X1481332Y360808D01*
X1481197Y360683D01*
X1481059Y360561D01*
X1480918Y360442D01*
X1480774Y360327D01*
X1480628Y360216D01*
X1480479Y360108D01*
X1480327Y360004D01*
X1480172Y359904D01*
X1480016Y359807D01*
X1479857Y359714D01*
X1479695Y359626D01*
X1479532Y359541D01*
X1479367Y359460D01*
X1479199Y359383D01*
X1479030Y359311D01*
X1478859Y359243D01*
X1478687Y359178D01*
X1478513Y359119D01*
X1478337Y359063D01*
X1478160Y359012D01*
X1477982Y358965D01*
X1477803Y358922D01*
X1477623Y358884D01*
X1477442Y358850D01*
X1477260Y358821D01*
X1477078Y358796D01*
X1476895Y358776D01*
X1476712Y358760D01*
X1476528Y358749D01*
X1476344Y358742D01*
X1476160Y358740D01*
X1475976Y358742D01*
X1475792Y358749D01*
X1475608Y358760D01*
X1475425Y358776D01*
X1475242Y358796D01*
X1475060Y358821D01*
X1474878Y358850D01*
X1474697Y358884D01*
X1474517Y358922D01*
X1474338Y358965D01*
X1474160Y359012D01*
X1473983Y359063D01*
X1473807Y359119D01*
X1473633Y359178D01*
X1473461Y359243D01*
X1473290Y359311D01*
X1473121Y359383D01*
X1472953Y359460D01*
X1472788Y359541D01*
X1472625Y359626D01*
X1472463Y359714D01*
X1472304Y359807D01*
X1472148Y359904D01*
X1471993Y360004D01*
X1471841Y360108D01*
X1471692Y360216D01*
X1471546Y360327D01*
X1471402Y360442D01*
X1471261Y360561D01*
X1471123Y360683D01*
X1470988Y360808D01*
X1470857Y360937D01*
X1470728Y361068D01*
X1470603Y361203D01*
X1470481Y361341D01*
X1470362Y361482D01*
X1470247Y361626D01*
X1470136Y361772D01*
X1470028Y361921D01*
X1469924Y362073D01*
X1469824Y362228D01*
X1469727Y362384D01*
X1469634Y362543D01*
X1469546Y362705D01*
X1469461Y362868D01*
X1469380Y363033D01*
X1469303Y363201D01*
X1469231Y363370D01*
X1469163Y363541D01*
X1469098Y363713D01*
X1469039Y363887D01*
X1468983Y364063D01*
X1468932Y364240D01*
X1468885Y364418D01*
X1468842Y364597D01*
X1468804Y364777D01*
X1468770Y364958D01*
X1468741Y365140D01*
X1468716Y365322D01*
X1468696Y365505D01*
X1468680Y365688D01*
X1468669Y365872D01*
X1468662Y366056D01*
X1468660Y366240D01*
X1411040Y714940D02*
X1411044Y715230D01*
X1411054Y715519D01*
X1411072Y715808D01*
X1411097Y716097D01*
X1411129Y716384D01*
X1411168Y716671D01*
X1411214Y716957D01*
X1411267Y717242D01*
X1411327Y717525D01*
X1411394Y717807D01*
X1411467Y718087D01*
X1411548Y718365D01*
X1411636Y718641D01*
X1411730Y718915D01*
X1411831Y719187D01*
X1411938Y719456D01*
X1412052Y719722D01*
X1412173Y719985D01*
X1412300Y720245D01*
X1412433Y720502D01*
X1412573Y720756D01*
X1412719Y721006D01*
X1412871Y721253D01*
X1413029Y721496D01*
X1413192Y721735D01*
X1413362Y721969D01*
X1413538Y722200D01*
X1413718Y722426D01*
X1413905Y722647D01*
X1414097Y722864D01*
X1414294Y723077D01*
X1414496Y723284D01*
X1414703Y723486D01*
X1414916Y723683D01*
X1415133Y723875D01*
X1415354Y724062D01*
X1415580Y724242D01*
X1415811Y724418D01*
X1416045Y724588D01*
X1416284Y724751D01*
X1416527Y724909D01*
X1416774Y725061D01*
X1417024Y725207D01*
X1417278Y725347D01*
X1417535Y725480D01*
X1417795Y725607D01*
X1418058Y725728D01*
X1418324Y725842D01*
X1418593Y725949D01*
X1418865Y726050D01*
X1419139Y726144D01*
X1419415Y726232D01*
X1419693Y726313D01*
X1419973Y726386D01*
X1420255Y726453D01*
X1420538Y726513D01*
X1420823Y726566D01*
X1421109Y726612D01*
X1421396Y726651D01*
X1421683Y726683D01*
X1421972Y726708D01*
X1422261Y726726D01*
X1422550Y726736D01*
X1422840Y726740D01*
X1423130Y726736D01*
X1423419Y726726D01*
X1423708Y726708D01*
X1423997Y726683D01*
X1424284Y726651D01*
X1424571Y726612D01*
X1424857Y726566D01*
X1425142Y726513D01*
X1425425Y726453D01*
X1425707Y726386D01*
X1425987Y726313D01*
X1426265Y726232D01*
X1426541Y726144D01*
X1426815Y726050D01*
X1427087Y725949D01*
X1427356Y725842D01*
X1427622Y725728D01*
X1427885Y725607D01*
X1428145Y725480D01*
X1428402Y725347D01*
X1428656Y725207D01*
X1428906Y725061D01*
X1429153Y724909D01*
X1429396Y724751D01*
X1429635Y724588D01*
X1429869Y724418D01*
X1430100Y724242D01*
X1430326Y724062D01*
X1430547Y723875D01*
X1430764Y723683D01*
X1430977Y723486D01*
X1431184Y723284D01*
X1431386Y723077D01*
X1431583Y722864D01*
X1431775Y722647D01*
X1431962Y722426D01*
X1432142Y722200D01*
X1432318Y721969D01*
X1432488Y721735D01*
X1432651Y721496D01*
X1432809Y721253D01*
X1432961Y721006D01*
X1433107Y720756D01*
X1433247Y720502D01*
X1433380Y720245D01*
X1433507Y719985D01*
X1433628Y719722D01*
X1433742Y719456D01*
X1433849Y719187D01*
X1433950Y718915D01*
X1434044Y718641D01*
X1434132Y718365D01*
X1434213Y718087D01*
X1434286Y717807D01*
X1434353Y717525D01*
X1434413Y717242D01*
X1434466Y716957D01*
X1434512Y716671D01*
X1434551Y716384D01*
X1434583Y716097D01*
X1434608Y715808D01*
X1434626Y715519D01*
X1434636Y715230D01*
X1434640Y714940D01*
X1434636Y714650D01*
X1434626Y714361D01*
X1434608Y714072D01*
X1434583Y713783D01*
X1434551Y713496D01*
X1434512Y713209D01*
X1434466Y712923D01*
X1434413Y712638D01*
X1434353Y712355D01*
X1434286Y712073D01*
X1434213Y711793D01*
X1434132Y711515D01*
X1434044Y711239D01*
X1433950Y710965D01*
X1433849Y710693D01*
X1433742Y710424D01*
X1433628Y710158D01*
X1433507Y709895D01*
X1433380Y709635D01*
X1433247Y709378D01*
X1433107Y709124D01*
X1432961Y708874D01*
X1432809Y708627D01*
X1432651Y708384D01*
X1432488Y708145D01*
X1432318Y707911D01*
X1432142Y707680D01*
X1431962Y707454D01*
X1431775Y707233D01*
X1431583Y707016D01*
X1431386Y706803D01*
X1431184Y706596D01*
X1430977Y706394D01*
X1430764Y706197D01*
X1430547Y706005D01*
X1430326Y705818D01*
X1430100Y705638D01*
X1429869Y705462D01*
X1429635Y705292D01*
X1429396Y705129D01*
X1429153Y704971D01*
X1428906Y704819D01*
X1428656Y704673D01*
X1428402Y704533D01*
X1428145Y704400D01*
X1427885Y704273D01*
X1427622Y704152D01*
X1427356Y704038D01*
X1427087Y703931D01*
X1426815Y703830D01*
X1426541Y703736D01*
X1426265Y703648D01*
X1425987Y703567D01*
X1425707Y703494D01*
X1425425Y703427D01*
X1425142Y703367D01*
X1424857Y703314D01*
X1424571Y703268D01*
X1424284Y703229D01*
X1423997Y703197D01*
X1423708Y703172D01*
X1423419Y703154D01*
X1423130Y703144D01*
X1422840Y703140D01*
X1422550Y703144D01*
X1422261Y703154D01*
X1421972Y703172D01*
X1421683Y703197D01*
X1421396Y703229D01*
X1421109Y703268D01*
X1420823Y703314D01*
X1420538Y703367D01*
X1420255Y703427D01*
X1419973Y703494D01*
X1419693Y703567D01*
X1419415Y703648D01*
X1419139Y703736D01*
X1418865Y703830D01*
X1418593Y703931D01*
X1418324Y704038D01*
X1418058Y704152D01*
X1417795Y704273D01*
X1417535Y704400D01*
X1417278Y704533D01*
X1417024Y704673D01*
X1416774Y704819D01*
X1416527Y704971D01*
X1416284Y705129D01*
X1416045Y705292D01*
X1415811Y705462D01*
X1415580Y705638D01*
X1415354Y705818D01*
X1415133Y706005D01*
X1414916Y706197D01*
X1414703Y706394D01*
X1414496Y706596D01*
X1414294Y706803D01*
X1414097Y707016D01*
X1413905Y707233D01*
X1413718Y707454D01*
X1413538Y707680D01*
X1413362Y707911D01*
X1413192Y708145D01*
X1413029Y708384D01*
X1412871Y708627D01*
X1412719Y708874D01*
X1412573Y709124D01*
X1412433Y709378D01*
X1412300Y709635D01*
X1412173Y709895D01*
X1412052Y710158D01*
X1411938Y710424D01*
X1411831Y710693D01*
X1411730Y710965D01*
X1411636Y711239D01*
X1411548Y711515D01*
X1411467Y711793D01*
X1411394Y712073D01*
X1411327Y712355D01*
X1411267Y712638D01*
X1411214Y712923D01*
X1411168Y713209D01*
X1411129Y713496D01*
X1411097Y713783D01*
X1411072Y714072D01*
X1411054Y714361D01*
X1411044Y714650D01*
X1411040Y714940D01*
X1411040Y864940D02*
X1411044Y865230D01*
X1411054Y865519D01*
X1411072Y865808D01*
X1411097Y866097D01*
X1411129Y866384D01*
X1411168Y866671D01*
X1411214Y866957D01*
X1411267Y867242D01*
X1411327Y867525D01*
X1411394Y867807D01*
X1411467Y868087D01*
X1411548Y868365D01*
X1411636Y868641D01*
X1411730Y868915D01*
X1411831Y869187D01*
X1411938Y869456D01*
X1412052Y869722D01*
X1412173Y869985D01*
X1412300Y870245D01*
X1412433Y870502D01*
X1412573Y870756D01*
X1412719Y871006D01*
X1412871Y871253D01*
X1413029Y871496D01*
X1413192Y871735D01*
X1413362Y871969D01*
X1413538Y872200D01*
X1413718Y872426D01*
X1413905Y872647D01*
X1414097Y872864D01*
X1414294Y873077D01*
X1414496Y873284D01*
X1414703Y873486D01*
X1414916Y873683D01*
X1415133Y873875D01*
X1415354Y874062D01*
X1415580Y874242D01*
X1415811Y874418D01*
X1416045Y874588D01*
X1416284Y874751D01*
X1416527Y874909D01*
X1416774Y875061D01*
X1417024Y875207D01*
X1417278Y875347D01*
X1417535Y875480D01*
X1417795Y875607D01*
X1418058Y875728D01*
X1418324Y875842D01*
X1418593Y875949D01*
X1418865Y876050D01*
X1419139Y876144D01*
X1419415Y876232D01*
X1419693Y876313D01*
X1419973Y876386D01*
X1420255Y876453D01*
X1420538Y876513D01*
X1420823Y876566D01*
X1421109Y876612D01*
X1421396Y876651D01*
X1421683Y876683D01*
X1421972Y876708D01*
X1422261Y876726D01*
X1422550Y876736D01*
X1422840Y876740D01*
X1423130Y876736D01*
X1423419Y876726D01*
X1423708Y876708D01*
X1423997Y876683D01*
X1424284Y876651D01*
X1424571Y876612D01*
X1424857Y876566D01*
X1425142Y876513D01*
X1425425Y876453D01*
X1425707Y876386D01*
X1425987Y876313D01*
X1426265Y876232D01*
X1426541Y876144D01*
X1426815Y876050D01*
X1427087Y875949D01*
X1427356Y875842D01*
X1427622Y875728D01*
X1427885Y875607D01*
X1428145Y875480D01*
X1428402Y875347D01*
X1428656Y875207D01*
X1428906Y875061D01*
X1429153Y874909D01*
X1429396Y874751D01*
X1429635Y874588D01*
X1429869Y874418D01*
X1430100Y874242D01*
X1430326Y874062D01*
X1430547Y873875D01*
X1430764Y873683D01*
X1430977Y873486D01*
X1431184Y873284D01*
X1431386Y873077D01*
X1431583Y872864D01*
X1431775Y872647D01*
X1431962Y872426D01*
X1432142Y872200D01*
X1432318Y871969D01*
X1432488Y871735D01*
X1432651Y871496D01*
X1432809Y871253D01*
X1432961Y871006D01*
X1433107Y870756D01*
X1433247Y870502D01*
X1433380Y870245D01*
X1433507Y869985D01*
X1433628Y869722D01*
X1433742Y869456D01*
X1433849Y869187D01*
X1433950Y868915D01*
X1434044Y868641D01*
X1434132Y868365D01*
X1434213Y868087D01*
X1434286Y867807D01*
X1434353Y867525D01*
X1434413Y867242D01*
X1434466Y866957D01*
X1434512Y866671D01*
X1434551Y866384D01*
X1434583Y866097D01*
X1434608Y865808D01*
X1434626Y865519D01*
X1434636Y865230D01*
X1434640Y864940D01*
X1434636Y864650D01*
X1434626Y864361D01*
X1434608Y864072D01*
X1434583Y863783D01*
X1434551Y863496D01*
X1434512Y863209D01*
X1434466Y862923D01*
X1434413Y862638D01*
X1434353Y862355D01*
X1434286Y862073D01*
X1434213Y861793D01*
X1434132Y861515D01*
X1434044Y861239D01*
X1433950Y860965D01*
X1433849Y860693D01*
X1433742Y860424D01*
X1433628Y860158D01*
X1433507Y859895D01*
X1433380Y859635D01*
X1433247Y859378D01*
X1433107Y859124D01*
X1432961Y858874D01*
X1432809Y858627D01*
X1432651Y858384D01*
X1432488Y858145D01*
X1432318Y857911D01*
X1432142Y857680D01*
X1431962Y857454D01*
X1431775Y857233D01*
X1431583Y857016D01*
X1431386Y856803D01*
X1431184Y856596D01*
X1430977Y856394D01*
X1430764Y856197D01*
X1430547Y856005D01*
X1430326Y855818D01*
X1430100Y855638D01*
X1429869Y855462D01*
X1429635Y855292D01*
X1429396Y855129D01*
X1429153Y854971D01*
X1428906Y854819D01*
X1428656Y854673D01*
X1428402Y854533D01*
X1428145Y854400D01*
X1427885Y854273D01*
X1427622Y854152D01*
X1427356Y854038D01*
X1427087Y853931D01*
X1426815Y853830D01*
X1426541Y853736D01*
X1426265Y853648D01*
X1425987Y853567D01*
X1425707Y853494D01*
X1425425Y853427D01*
X1425142Y853367D01*
X1424857Y853314D01*
X1424571Y853268D01*
X1424284Y853229D01*
X1423997Y853197D01*
X1423708Y853172D01*
X1423419Y853154D01*
X1423130Y853144D01*
X1422840Y853140D01*
X1422550Y853144D01*
X1422261Y853154D01*
X1421972Y853172D01*
X1421683Y853197D01*
X1421396Y853229D01*
X1421109Y853268D01*
X1420823Y853314D01*
X1420538Y853367D01*
X1420255Y853427D01*
X1419973Y853494D01*
X1419693Y853567D01*
X1419415Y853648D01*
X1419139Y853736D01*
X1418865Y853830D01*
X1418593Y853931D01*
X1418324Y854038D01*
X1418058Y854152D01*
X1417795Y854273D01*
X1417535Y854400D01*
X1417278Y854533D01*
X1417024Y854673D01*
X1416774Y854819D01*
X1416527Y854971D01*
X1416284Y855129D01*
X1416045Y855292D01*
X1415811Y855462D01*
X1415580Y855638D01*
X1415354Y855818D01*
X1415133Y856005D01*
X1414916Y856197D01*
X1414703Y856394D01*
X1414496Y856596D01*
X1414294Y856803D01*
X1414097Y857016D01*
X1413905Y857233D01*
X1413718Y857454D01*
X1413538Y857680D01*
X1413362Y857911D01*
X1413192Y858145D01*
X1413029Y858384D01*
X1412871Y858627D01*
X1412719Y858874D01*
X1412573Y859124D01*
X1412433Y859378D01*
X1412300Y859635D01*
X1412173Y859895D01*
X1412052Y860158D01*
X1411938Y860424D01*
X1411831Y860693D01*
X1411730Y860965D01*
X1411636Y861239D01*
X1411548Y861515D01*
X1411467Y861793D01*
X1411394Y862073D01*
X1411327Y862355D01*
X1411267Y862638D01*
X1411214Y862923D01*
X1411168Y863209D01*
X1411129Y863496D01*
X1411097Y863783D01*
X1411072Y864072D01*
X1411054Y864361D01*
X1411044Y864650D01*
X1411040Y864940D01*
D11*
X0Y0D02*
X1500000Y0D01*
X1500000Y1200000D01*
X0Y1200000D01*
X0Y0D01*
X1292080Y1151249D02*
X1292149Y1151863D01*
X1292287Y1152465D01*
X1292491Y1153048D01*
X1292759Y1153605D01*
X1293087Y1154128D01*
X1293473Y1154611D01*
X1293909Y1155048D01*
X1294392Y1155433D01*
X1294915Y1155761D01*
X1295472Y1156029D01*
X1296055Y1156233D01*
X1296657Y1156371D01*
X1297271Y1156440D01*
X1297889Y1156440D01*
X1298503Y1156371D01*
X1299105Y1156233D01*
X1299688Y1156029D01*
X1300245Y1155761D01*
X1300768Y1155433D01*
X1301251Y1155048D01*
X1301688Y1154611D01*
X1302073Y1154128D01*
X1302401Y1153605D01*
X1302669Y1153048D01*
X1302873Y1152465D01*
X1303011Y1151863D01*
X1303080Y1151249D01*
X1303080Y1150631D01*
X1303011Y1150017D01*
X1302873Y1149415D01*
X1302669Y1148832D01*
X1302401Y1148275D01*
X1302073Y1147752D01*
X1301688Y1147269D01*
X1301251Y1146833D01*
X1300768Y1146447D01*
X1300245Y1146119D01*
X1299688Y1145851D01*
X1299105Y1145647D01*
X1298503Y1145509D01*
X1297889Y1145440D01*
X1297271Y1145440D01*
X1296657Y1145509D01*
X1296055Y1145647D01*
X1295472Y1145851D01*
X1294915Y1146119D01*
X1294392Y1146447D01*
X1293909Y1146833D01*
X1293473Y1147269D01*
X1293087Y1147752D01*
X1292759Y1148275D01*
X1292491Y1148832D01*
X1292287Y1149415D01*
X1292149Y1150017D01*
X1292080Y1150631D01*
X1292080Y1151249D01*
X1423304Y542590D02*
X1424228Y542517D01*
X1425144Y542372D01*
X1426045Y542156D01*
X1426927Y541869D01*
X1427784Y541514D01*
X1428610Y541093D01*
X1429401Y540609D01*
X1430151Y540064D01*
X1430856Y539462D01*
X1431512Y538806D01*
X1432114Y538101D01*
X1432659Y537351D01*
X1433143Y536560D01*
X1433564Y535734D01*
X1433919Y534877D01*
X1434206Y533995D01*
X1434422Y533094D01*
X1434567Y532178D01*
X1434640Y531254D01*
X1434640Y530326D01*
X1434567Y529402D01*
X1434422Y528486D01*
X1434206Y527585D01*
X1433919Y526703D01*
X1433564Y525846D01*
X1433143Y525020D01*
X1432659Y524229D01*
X1432114Y523479D01*
X1431512Y522774D01*
X1430856Y522118D01*
X1430151Y521516D01*
X1429401Y520971D01*
X1428610Y520487D01*
X1427784Y520066D01*
X1426927Y519711D01*
X1426045Y519424D01*
X1425144Y519208D01*
X1424228Y519063D01*
X1423304Y518990D01*
X1422376Y518990D01*
X1421452Y519063D01*
X1420536Y519208D01*
X1419635Y519424D01*
X1418753Y519711D01*
X1417896Y520066D01*
X1417070Y520487D01*
X1416279Y520971D01*
X1415529Y521516D01*
X1414824Y522118D01*
X1414168Y522774D01*
X1413566Y523479D01*
X1413021Y524229D01*
X1412537Y525020D01*
X1412116Y525846D01*
X1411761Y526703D01*
X1411474Y527585D01*
X1411258Y528486D01*
X1411113Y529402D01*
X1411040Y530326D01*
X1411040Y531254D01*
X1411113Y532178D01*
X1411258Y533094D01*
X1411474Y533995D01*
X1411761Y534877D01*
X1412116Y535734D01*
X1412537Y536560D01*
X1413021Y537351D01*
X1413566Y538101D01*
X1414168Y538806D01*
X1414824Y539462D01*
X1415529Y540064D01*
X1416279Y540609D01*
X1417070Y541093D01*
X1417896Y541514D01*
X1418753Y541869D01*
X1419635Y542156D01*
X1420536Y542372D01*
X1421452Y542517D01*
X1422376Y542590D01*
X1423304Y542590D01*
X1423304Y692590D02*
X1424228Y692517D01*
X1425144Y692372D01*
X1426045Y692156D01*
X1426927Y691869D01*
X1427784Y691514D01*
X1428610Y691093D01*
X1429401Y690609D01*
X1430151Y690064D01*
X1430856Y689462D01*
X1431512Y688806D01*
X1432114Y688101D01*
X1432659Y687351D01*
X1433143Y686560D01*
X1433564Y685734D01*
X1433919Y684877D01*
X1434206Y683995D01*
X1434422Y683094D01*
X1434567Y682178D01*
X1434640Y681254D01*
X1434640Y680326D01*
X1434567Y679402D01*
X1434422Y678486D01*
X1434206Y677585D01*
X1433919Y676703D01*
X1433564Y675846D01*
X1433143Y675020D01*
X1432659Y674229D01*
X1432114Y673479D01*
X1431512Y672774D01*
X1430856Y672118D01*
X1430151Y671516D01*
X1429401Y670971D01*
X1428610Y670487D01*
X1427784Y670066D01*
X1426927Y669711D01*
X1426045Y669424D01*
X1425144Y669208D01*
X1424228Y669063D01*
X1423304Y668990D01*
X1422376Y668990D01*
X1421452Y669063D01*
X1420536Y669208D01*
X1419635Y669424D01*
X1418753Y669711D01*
X1417896Y670066D01*
X1417070Y670487D01*
X1416279Y670971D01*
X1415529Y671516D01*
X1414824Y672118D01*
X1414168Y672774D01*
X1413566Y673479D01*
X1413021Y674229D01*
X1412537Y675020D01*
X1412116Y675846D01*
X1411761Y676703D01*
X1411474Y677585D01*
X1411258Y678486D01*
X1411113Y679402D01*
X1411040Y680326D01*
X1411040Y681254D01*
X1411113Y682178D01*
X1411258Y683094D01*
X1411474Y683995D01*
X1411761Y684877D01*
X1412116Y685734D01*
X1412537Y686560D01*
X1413021Y687351D01*
X1413566Y688101D01*
X1414168Y688806D01*
X1414824Y689462D01*
X1415529Y690064D01*
X1416279Y690609D01*
X1417070Y691093D01*
X1417896Y691514D01*
X1418753Y691869D01*
X1419635Y692156D01*
X1420536Y692372D01*
X1421452Y692517D01*
X1422376Y692590D01*
X1423304Y692590D01*
X1476528Y373740D02*
X1477262Y373668D01*
X1477985Y373524D01*
X1478690Y373310D01*
X1479371Y373028D01*
X1480020Y372681D01*
X1480633Y372271D01*
X1481203Y371804D01*
X1481724Y371283D01*
X1482191Y370713D01*
X1482601Y370100D01*
X1482948Y369451D01*
X1483230Y368770D01*
X1483444Y368065D01*
X1483588Y367342D01*
X1483660Y366608D01*
X1483660Y365872D01*
X1483588Y365138D01*
X1483444Y364415D01*
X1483230Y363710D01*
X1482948Y363029D01*
X1482601Y362380D01*
X1482191Y361767D01*
X1481724Y361197D01*
X1481203Y360676D01*
X1480633Y360209D01*
X1480020Y359799D01*
X1479371Y359452D01*
X1478690Y359170D01*
X1477985Y358956D01*
X1477262Y358812D01*
X1476528Y358740D01*
X1475792Y358740D01*
X1475058Y358812D01*
X1474335Y358956D01*
X1473630Y359170D01*
X1472949Y359452D01*
X1472300Y359799D01*
X1471687Y360209D01*
X1471117Y360676D01*
X1470596Y361197D01*
X1470129Y361767D01*
X1469719Y362380D01*
X1469372Y363029D01*
X1469090Y363710D01*
X1468876Y364415D01*
X1468732Y365138D01*
X1468660Y365872D01*
X1468660Y366608D01*
X1468732Y367342D01*
X1468876Y368065D01*
X1469090Y368770D01*
X1469372Y369451D01*
X1469719Y370100D01*
X1470129Y370713D01*
X1470596Y371283D01*
X1471117Y371804D01*
X1471687Y372271D01*
X1472300Y372681D01*
X1472949Y373028D01*
X1473630Y373310D01*
X1474335Y373524D01*
X1475058Y373668D01*
X1475792Y373740D01*
X1476528Y373740D01*
X1423304Y726740D02*
X1424228Y726667D01*
X1425144Y726522D01*
X1426045Y726306D01*
X1426927Y726019D01*
X1427784Y725664D01*
X1428610Y725243D01*
X1429401Y724759D01*
X1430151Y724214D01*
X1430856Y723612D01*
X1431512Y722956D01*
X1432114Y722251D01*
X1432659Y721501D01*
X1433143Y720710D01*
X1433564Y719884D01*
X1433919Y719027D01*
X1434206Y718145D01*
X1434422Y717244D01*
X1434567Y716328D01*
X1434640Y715404D01*
X1434640Y714476D01*
X1434567Y713552D01*
X1434422Y712636D01*
X1434206Y711735D01*
X1433919Y710853D01*
X1433564Y709996D01*
X1433143Y709170D01*
X1432659Y708379D01*
X1432114Y707629D01*
X1431512Y706924D01*
X1430856Y706268D01*
X1430151Y705666D01*
X1429401Y705121D01*
X1428610Y704637D01*
X1427784Y704216D01*
X1426927Y703861D01*
X1426045Y703574D01*
X1425144Y703358D01*
X1424228Y703213D01*
X1423304Y703140D01*
X1422376Y703140D01*
X1421452Y703213D01*
X1420536Y703358D01*
X1419635Y703574D01*
X1418753Y703861D01*
X1417896Y704216D01*
X1417070Y704637D01*
X1416279Y705121D01*
X1415529Y705666D01*
X1414824Y706268D01*
X1414168Y706924D01*
X1413566Y707629D01*
X1413021Y708379D01*
X1412537Y709170D01*
X1412116Y709996D01*
X1411761Y710853D01*
X1411474Y711735D01*
X1411258Y712636D01*
X1411113Y713552D01*
X1411040Y714476D01*
X1411040Y715404D01*
X1411113Y716328D01*
X1411258Y717244D01*
X1411474Y718145D01*
X1411761Y719027D01*
X1412116Y719884D01*
X1412537Y720710D01*
X1413021Y721501D01*
X1413566Y722251D01*
X1414168Y722956D01*
X1414824Y723612D01*
X1415529Y724214D01*
X1416279Y724759D01*
X1417070Y725243D01*
X1417896Y725664D01*
X1418753Y726019D01*
X1419635Y726306D01*
X1420536Y726522D01*
X1421452Y726667D01*
X1422376Y726740D01*
X1423304Y726740D01*
X1423304Y876740D02*
X1424228Y876667D01*
X1425144Y876522D01*
X1426045Y876306D01*
X1426927Y876019D01*
X1427784Y875664D01*
X1428610Y875243D01*
X1429401Y874759D01*
X1430151Y874214D01*
X1430856Y873612D01*
X1431512Y872956D01*
X1432114Y872251D01*
X1432659Y871501D01*
X1433143Y870710D01*
X1433564Y869884D01*
X1433919Y869027D01*
X1434206Y868145D01*
X1434422Y867244D01*
X1434567Y866328D01*
X1434640Y865404D01*
X1434640Y864476D01*
X1434567Y863552D01*
X1434422Y862636D01*
X1434206Y861735D01*
X1433919Y860853D01*
X1433564Y859996D01*
X1433143Y859170D01*
X1432659Y858379D01*
X1432114Y857629D01*
X1431512Y856924D01*
X1430856Y856268D01*
X1430151Y855666D01*
X1429401Y855121D01*
X1428610Y854637D01*
X1427784Y854216D01*
X1426927Y853861D01*
X1426045Y853574D01*
X1425144Y853358D01*
X1424228Y853213D01*
X1423304Y853140D01*
X1422376Y853140D01*
X1421452Y853213D01*
X1420536Y853358D01*
X1419635Y853574D01*
X1418753Y853861D01*
X1417896Y854216D01*
X1417070Y854637D01*
X1416279Y855121D01*
X1415529Y855666D01*
X1414824Y856268D01*
X1414168Y856924D01*
X1413566Y857629D01*
X1413021Y858379D01*
X1412537Y859170D01*
X1412116Y859996D01*
X1411761Y860853D01*
X1411474Y861735D01*
X1411258Y862636D01*
X1411113Y863552D01*
X1411040Y864476D01*
X1411040Y865404D01*
X1411113Y866328D01*
X1411258Y867244D01*
X1411474Y868145D01*
X1411761Y869027D01*
X1412116Y869884D01*
X1412537Y870710D01*
X1413021Y871501D01*
X1413566Y872251D01*
X1414168Y872956D01*
X1414824Y873612D01*
X1415529Y874214D01*
X1416279Y874759D01*
X1417070Y875243D01*
X1417896Y875664D01*
X1418753Y876019D01*
X1419635Y876306D01*
X1420536Y876522D01*
X1421452Y876667D01*
X1422376Y876740D01*
X1423304Y876740D01*
M02*
