G04 EAGLE Gerber RS-274X export*
G75*
%MOMM*%
%FSLAX34Y34*%
%LPD*%
%INSoldermask Bottom*%
%IPPOS*%
%AMOC8*
5,1,8,0,0,1.08239X$1,22.5*%
G01*
%ADD10R,1.753200X1.753200*%
%ADD11C,1.753200*%
%ADD12C,2.203200*%
%ADD13R,1.711200X1.711200*%
%ADD14C,1.803200*%
%ADD15C,2.453200*%
%ADD16C,2.703200*%
%ADD17R,1.511200X1.511200*%
%ADD18C,1.511200*%
%ADD19R,1.803200X1.803200*%
%ADD20C,1.303200*%
%ADD21C,1.703200*%
%ADD22C,1.903200*%
%ADD23R,1.903200X1.903200*%
%ADD24C,2.353200*%
%ADD25C,1.611200*%
%ADD26C,2.563200*%
%ADD27C,1.524000*%
%ADD28C,6.045200*%
%ADD29C,2.003200*%
%ADD30R,2.003200X2.003200*%
%ADD31R,2.703200X2.703200*%
%ADD32R,2.503200X2.503200*%
%ADD33C,2.743200*%
%ADD34C,0.959600*%
%ADD35C,0.909600*%


D10*
X77470Y508740D03*
D11*
X77470Y283740D03*
D12*
X1245870Y827170D03*
X1245870Y877170D03*
D13*
X436880Y96520D03*
D14*
X311880Y96520D03*
D15*
X501830Y698500D02*
X524330Y698500D01*
X473530Y698500D02*
X451030Y698500D01*
X346530Y698500D02*
X324030Y698500D01*
X244930Y698500D02*
X222430Y698500D01*
X501830Y337820D02*
X524330Y337820D01*
X473530Y337820D02*
X451030Y337820D01*
X346530Y337820D02*
X324030Y337820D01*
X244930Y337820D02*
X222430Y337820D01*
D16*
X517160Y30480D03*
X392160Y30480D03*
X354600Y30480D03*
X229600Y30480D03*
D17*
X137560Y584580D03*
D18*
X187560Y568580D03*
D17*
X234080Y795400D03*
D18*
X284080Y779400D03*
D19*
X277260Y282320D03*
D14*
X327260Y266320D03*
D20*
X1297580Y1150940D03*
D21*
X1313580Y1170940D03*
X1338580Y1170940D03*
D22*
X699770Y745490D03*
X674370Y745490D03*
X648970Y745490D03*
X623570Y745490D03*
X598170Y745490D03*
X598170Y720090D03*
X623570Y720090D03*
X648970Y720090D03*
X674370Y720090D03*
X699770Y720090D03*
D23*
X736600Y38100D03*
D22*
X762000Y38100D03*
X787400Y38100D03*
D23*
X561340Y35560D03*
D22*
X586740Y35560D03*
X612140Y35560D03*
D24*
X81280Y843280D03*
X30480Y843280D03*
X81280Y584200D03*
X30480Y584200D03*
X100330Y207010D03*
X49530Y207010D03*
X345060Y843280D03*
X294260Y843280D03*
X298070Y207010D03*
X348870Y207010D03*
X359030Y584200D03*
X308230Y584200D03*
D25*
X1399840Y641490D03*
X1374440Y631290D03*
X1399840Y621090D03*
X1374440Y610890D03*
X1399840Y600690D03*
X1374440Y590490D03*
X1399840Y580290D03*
X1374440Y570090D03*
D26*
X1422840Y530790D03*
X1422840Y680790D03*
D27*
X1457960Y351790D03*
X1483360Y339090D03*
X1457960Y326390D03*
X1483360Y313690D03*
X1457960Y300990D03*
X1483360Y288290D03*
X1457960Y275590D03*
X1483360Y262890D03*
X1457960Y250190D03*
X1483360Y237490D03*
X1457960Y224790D03*
X1483360Y212090D03*
X1457960Y199390D03*
X1483360Y186690D03*
X1457960Y173990D03*
X1483360Y161290D03*
D21*
X1476160Y366240D03*
D25*
X1399840Y825640D03*
X1374440Y815440D03*
X1399840Y805240D03*
X1374440Y795040D03*
X1399840Y784840D03*
X1374440Y774640D03*
X1399840Y764440D03*
X1374440Y754240D03*
D26*
X1422840Y714940D03*
X1422840Y864940D03*
D28*
X1449660Y50000D03*
X49660Y50000D03*
X1449660Y1150000D03*
X49660Y1150000D03*
D29*
X398780Y1125220D03*
X424180Y1125220D03*
X373380Y1125220D03*
X347980Y1125220D03*
X322580Y1125220D03*
X297180Y1125220D03*
X271780Y1125220D03*
X246380Y1125220D03*
X220980Y1125220D03*
X195580Y1125220D03*
D30*
X170180Y1125220D03*
D29*
X449580Y1125220D03*
X474980Y1125220D03*
X500380Y1125220D03*
X525780Y1125220D03*
X551180Y1125220D03*
X576580Y1125220D03*
X601980Y1125220D03*
X627380Y1125220D03*
X652780Y1125220D03*
X398780Y947420D03*
X424180Y947420D03*
X373380Y947420D03*
X347980Y947420D03*
X322580Y947420D03*
X297180Y947420D03*
X271780Y947420D03*
X246380Y947420D03*
X220980Y947420D03*
X195580Y947420D03*
D30*
X170180Y947420D03*
D29*
X449580Y947420D03*
X474980Y947420D03*
X500380Y947420D03*
X525780Y947420D03*
X551180Y947420D03*
X576580Y947420D03*
X601980Y947420D03*
X627380Y947420D03*
X652780Y947420D03*
D31*
X1415490Y934440D03*
D16*
X1415490Y980440D03*
D23*
X1461770Y485140D03*
D22*
X1461770Y459740D03*
D32*
X373350Y501650D03*
D33*
X147350Y501650D03*
D34*
X762000Y20320D03*
D35*
X838200Y25400D03*
X812800Y25400D03*
X711200Y25400D03*
X660400Y25400D03*
X457200Y127000D03*
M02*
