G04 EAGLE Gerber RS-274X export*
G75*
%MOMM*%
%FSLAX34Y34*%
%LPD*%
%INSoldermask Top*%
%IPPOS*%
%AMOC8*
5,1,8,0,0,1.08239X$1,22.5*%
G01*
%ADD10R,1.753200X1.753200*%
%ADD11C,1.753200*%
%ADD12R,1.303200X1.203200*%
%ADD13R,1.203200X1.303200*%
%ADD14C,2.203200*%
%ADD15R,1.711200X1.711200*%
%ADD16C,1.803200*%
%ADD17R,2.853200X1.953200*%
%ADD18R,1.003200X1.103200*%
%ADD19R,1.953200X2.853200*%
%ADD20R,1.103200X1.003200*%
%ADD21C,0.563150*%
%ADD22R,0.812800X1.828800*%
%ADD23C,0.506016*%
%ADD24R,3.503200X2.903200*%
%ADD25R,1.203200X2.903200*%
%ADD26C,2.453200*%
%ADD27C,1.697694*%
%ADD28R,2.438400X1.422400*%
%ADD29R,2.403200X3.803200*%
%ADD30R,1.203200X1.603200*%
%ADD31R,1.603200X1.203200*%
%ADD32R,2.006200X1.803200*%
%ADD33R,2.861200X1.459200*%
%ADD34C,2.703200*%
%ADD35R,1.511200X1.511200*%
%ADD36C,1.511200*%
%ADD37R,1.803200X1.803200*%
%ADD38C,1.303200*%
%ADD39C,1.703200*%
%ADD40C,1.903200*%
%ADD41R,1.903200X1.903200*%
%ADD42C,2.353200*%
%ADD43C,1.611200*%
%ADD44C,2.563200*%
%ADD45R,1.422400X2.438400*%
%ADD46R,3.803200X2.403200*%
%ADD47C,1.524000*%
%ADD48R,1.503200X1.503200*%
%ADD49R,1.803200X2.006200*%
%ADD50R,1.459200X2.861200*%
%ADD51C,1.203200*%
%ADD52C,6.045200*%
%ADD53C,0.409087*%
%ADD54C,0.405575*%
%ADD55C,2.003200*%
%ADD56R,2.003200X2.003200*%
%ADD57R,2.703200X2.703200*%
%ADD58R,0.603200X2.103200*%
%ADD59C,0.352238*%
%ADD60R,2.503200X2.503200*%
%ADD61C,2.743200*%
%ADD62C,0.959600*%
%ADD63C,0.909600*%


D10*
X77470Y508740D03*
D11*
X77470Y283740D03*
D12*
X575700Y81280D03*
X592700Y81280D03*
D13*
X612140Y225180D03*
X612140Y242180D03*
X1049020Y844160D03*
X1049020Y827160D03*
X1028700Y844160D03*
X1028700Y827160D03*
X899160Y821300D03*
X899160Y804300D03*
X878840Y821300D03*
X878840Y804300D03*
X858520Y821300D03*
X858520Y804300D03*
X998220Y889880D03*
X998220Y872880D03*
D14*
X1245870Y827170D03*
X1245870Y877170D03*
D13*
X810260Y323460D03*
X810260Y306460D03*
D15*
X436880Y96520D03*
D16*
X311880Y96520D03*
D13*
X878840Y877960D03*
X878840Y894960D03*
X858520Y877960D03*
X858520Y894960D03*
X878840Y927980D03*
X878840Y910980D03*
X858520Y927980D03*
X858520Y910980D03*
X1173480Y740020D03*
X1173480Y723020D03*
X1153160Y740020D03*
X1153160Y723020D03*
D12*
X1285630Y744220D03*
X1302630Y744220D03*
X1319140Y998220D03*
X1302140Y998220D03*
X606180Y81280D03*
X623180Y81280D03*
X781440Y83820D03*
X798440Y83820D03*
X750960Y83820D03*
X767960Y83820D03*
D13*
X833120Y323460D03*
X833120Y306460D03*
D17*
X462450Y772160D03*
X502750Y772160D03*
D18*
X706812Y306230D03*
X725812Y306230D03*
X716312Y327230D03*
D19*
X985520Y917110D03*
X985520Y957410D03*
D17*
X462450Y287020D03*
X502750Y287020D03*
D20*
X1211740Y944220D03*
X1211740Y925220D03*
X1232740Y934720D03*
D18*
X654660Y63340D03*
X635660Y63340D03*
X645160Y42340D03*
X682600Y247490D03*
X663600Y247490D03*
X673100Y226490D03*
X829920Y65880D03*
X810920Y65880D03*
X820420Y44880D03*
D20*
X853280Y226720D03*
X853280Y245720D03*
X832280Y236220D03*
X817720Y226720D03*
X817720Y245720D03*
X796720Y236220D03*
D18*
X648310Y247490D03*
X629310Y247490D03*
X638810Y226490D03*
D21*
X1122600Y685270D02*
X1138000Y685270D01*
X1122600Y685270D02*
X1122600Y688870D01*
X1138000Y688870D01*
X1138000Y685270D01*
X1138000Y672570D02*
X1122600Y672570D01*
X1122600Y676170D01*
X1138000Y676170D01*
X1138000Y672570D01*
X1138000Y659870D02*
X1122600Y659870D01*
X1122600Y663470D01*
X1138000Y663470D01*
X1138000Y659870D01*
X1138000Y647170D02*
X1122600Y647170D01*
X1122600Y650770D01*
X1138000Y650770D01*
X1138000Y647170D01*
X1173400Y647170D02*
X1188800Y647170D01*
X1173400Y647170D02*
X1173400Y650770D01*
X1188800Y650770D01*
X1188800Y647170D01*
X1188800Y659870D02*
X1173400Y659870D01*
X1173400Y663470D01*
X1188800Y663470D01*
X1188800Y659870D01*
X1188800Y672570D02*
X1173400Y672570D01*
X1173400Y676170D01*
X1188800Y676170D01*
X1188800Y672570D01*
X1188800Y685270D02*
X1173400Y685270D01*
X1173400Y688870D01*
X1188800Y688870D01*
X1188800Y685270D01*
D22*
X784200Y149606D03*
X774700Y149606D03*
X765200Y149606D03*
X765200Y124714D03*
X784200Y124714D03*
X608940Y149606D03*
X599440Y149606D03*
X589940Y149606D03*
X589940Y124714D03*
X608940Y124714D03*
D23*
X1015174Y890894D02*
X1018146Y890894D01*
X1015174Y890894D02*
X1015174Y898866D01*
X1018146Y898866D01*
X1018146Y890894D01*
X1018146Y895701D02*
X1015174Y895701D01*
X1034174Y890894D02*
X1037146Y890894D01*
X1034174Y890894D02*
X1034174Y898866D01*
X1037146Y898866D01*
X1037146Y890894D01*
X1037146Y895701D02*
X1034174Y895701D01*
X1034174Y863894D02*
X1037146Y863894D01*
X1034174Y863894D02*
X1034174Y871866D01*
X1037146Y871866D01*
X1037146Y863894D01*
X1037146Y868701D02*
X1034174Y868701D01*
X1027646Y863894D02*
X1024674Y863894D01*
X1024674Y871866D01*
X1027646Y871866D01*
X1027646Y863894D01*
X1027646Y868701D02*
X1024674Y868701D01*
X1018146Y863894D02*
X1015174Y863894D01*
X1015174Y871866D01*
X1018146Y871866D01*
X1018146Y863894D01*
X1018146Y868701D02*
X1015174Y868701D01*
X1024674Y890894D02*
X1027646Y890894D01*
X1024674Y890894D02*
X1024674Y898866D01*
X1027646Y898866D01*
X1027646Y890894D01*
X1027646Y895701D02*
X1024674Y895701D01*
D24*
X929640Y959140D03*
D25*
X952640Y900140D03*
X929640Y900140D03*
X906640Y900140D03*
D26*
X524330Y698500D02*
X501830Y698500D01*
X473530Y698500D02*
X451030Y698500D01*
X346530Y698500D02*
X324030Y698500D01*
X244930Y698500D02*
X222430Y698500D01*
X501830Y337820D02*
X524330Y337820D01*
X473530Y337820D02*
X451030Y337820D01*
X346530Y337820D02*
X324030Y337820D01*
X244930Y337820D02*
X222430Y337820D01*
D27*
X990212Y840288D02*
X1005268Y840288D01*
X1005268Y780232D01*
X990212Y780232D01*
X990212Y840288D01*
X990212Y796360D02*
X1005268Y796360D01*
X1005268Y812488D02*
X990212Y812488D01*
X990212Y828616D02*
X1005268Y828616D01*
X945268Y840288D02*
X930212Y840288D01*
X945268Y840288D02*
X945268Y780232D01*
X930212Y780232D01*
X930212Y840288D01*
X930212Y796360D02*
X945268Y796360D01*
X945268Y812488D02*
X930212Y812488D01*
X930212Y828616D02*
X945268Y828616D01*
D28*
X523748Y599186D03*
X523748Y622300D03*
X523748Y645414D03*
D29*
X461770Y622300D03*
D30*
X1097280Y704420D03*
X1106780Y682420D03*
X1087780Y682420D03*
X576580Y624000D03*
X567080Y646000D03*
X586080Y646000D03*
D28*
X523748Y403606D03*
X523748Y426720D03*
X523748Y449834D03*
D29*
X461770Y426720D03*
D30*
X567690Y443660D03*
X558190Y465660D03*
X577190Y465660D03*
D28*
X1251712Y962914D03*
X1251712Y939800D03*
X1251712Y916686D03*
D29*
X1313690Y939800D03*
D28*
X692912Y203454D03*
X692912Y180340D03*
X692912Y157226D03*
D29*
X754890Y180340D03*
D31*
X697660Y236220D03*
X719660Y245720D03*
X719660Y226720D03*
D28*
X512572Y203454D03*
X512572Y180340D03*
X512572Y157226D03*
D29*
X574550Y180340D03*
D31*
X530020Y233680D03*
X552020Y243180D03*
X552020Y224180D03*
D12*
X480940Y800100D03*
X463940Y800100D03*
D13*
X553720Y404250D03*
X553720Y421250D03*
D12*
X587620Y407670D03*
X570620Y407670D03*
D13*
X595630Y448700D03*
X595630Y465700D03*
X615950Y465700D03*
X615950Y448700D03*
D12*
X1112520Y723020D03*
X1112520Y740020D03*
X1132840Y723020D03*
X1132840Y740020D03*
D13*
X1082920Y619760D03*
X1065920Y619760D03*
X1288660Y998220D03*
X1271660Y998220D03*
D32*
X640080Y82300D03*
X640080Y110740D03*
D12*
X660400Y94860D03*
X660400Y77860D03*
D13*
X551180Y601100D03*
X551180Y618100D03*
D12*
X680720Y77860D03*
X680720Y94860D03*
D32*
X815340Y84840D03*
X815340Y113280D03*
D12*
X835660Y99940D03*
X835660Y82940D03*
X855980Y82940D03*
X855980Y99940D03*
D13*
X665480Y173600D03*
X665480Y156600D03*
X665480Y206620D03*
X665480Y189620D03*
X739140Y244720D03*
X739140Y227720D03*
X759460Y227720D03*
X759460Y244720D03*
D33*
X726440Y129690D03*
X726440Y83670D03*
D13*
X784860Y191380D03*
X784860Y174380D03*
D12*
X585080Y604520D03*
X568080Y604520D03*
D13*
X805180Y174380D03*
X805180Y191380D03*
D12*
X766200Y104140D03*
X783200Y104140D03*
D13*
X487680Y176140D03*
X487680Y159140D03*
X487680Y211700D03*
X487680Y194700D03*
X571500Y242180D03*
X571500Y225180D03*
X591820Y225180D03*
X591820Y242180D03*
D33*
X551180Y127150D03*
X551180Y81130D03*
D13*
X601980Y188840D03*
X601980Y171840D03*
X622300Y171840D03*
X622300Y188840D03*
D12*
X590940Y101600D03*
X607940Y101600D03*
D13*
X601980Y629040D03*
X601980Y646040D03*
X723510Y363220D03*
X706510Y363220D03*
X723510Y383540D03*
X706510Y383540D03*
X723510Y342900D03*
X706510Y342900D03*
D12*
X1054100Y889880D03*
X1054100Y872880D03*
D13*
X1040520Y919480D03*
X1057520Y919480D03*
X1027040Y919480D03*
X1010040Y919480D03*
D34*
X517160Y30480D03*
X392160Y30480D03*
D13*
X1082920Y640080D03*
X1065920Y640080D03*
X1082920Y660400D03*
X1065920Y660400D03*
X1272150Y744220D03*
X1255150Y744220D03*
X622300Y646040D03*
X622300Y629040D03*
X1285630Y723900D03*
X1302630Y723900D03*
D34*
X354600Y30480D03*
X229600Y30480D03*
D12*
X480940Y261620D03*
X463940Y261620D03*
D35*
X137560Y584580D03*
D36*
X187560Y568580D03*
D13*
X1299210Y529980D03*
X1299210Y546980D03*
X1299210Y602860D03*
X1299210Y585860D03*
D35*
X234080Y795400D03*
D36*
X284080Y779400D03*
D37*
X277260Y282320D03*
D16*
X327260Y266320D03*
D32*
X1384300Y484120D03*
X1384300Y455680D03*
D13*
X1404620Y471560D03*
X1404620Y488560D03*
X1350400Y485140D03*
X1367400Y485140D03*
D18*
X1169010Y605630D03*
X1150010Y605630D03*
X1159510Y584630D03*
D32*
X1125220Y609850D03*
X1125220Y581410D03*
D38*
X1297580Y1150940D03*
D39*
X1313580Y1170940D03*
X1338580Y1170940D03*
D40*
X699770Y745490D03*
X674370Y745490D03*
X648970Y745490D03*
X623570Y745490D03*
X598170Y745490D03*
X598170Y720090D03*
X623570Y720090D03*
X648970Y720090D03*
X674370Y720090D03*
X699770Y720090D03*
D41*
X736600Y38100D03*
D40*
X762000Y38100D03*
X787400Y38100D03*
D41*
X561340Y35560D03*
D40*
X586740Y35560D03*
X612140Y35560D03*
D42*
X81280Y843280D03*
X30480Y843280D03*
X81280Y584200D03*
X30480Y584200D03*
X100330Y207010D03*
X49530Y207010D03*
X345060Y843280D03*
X294260Y843280D03*
X298070Y207010D03*
X348870Y207010D03*
X359030Y584200D03*
X308230Y584200D03*
D43*
X1399840Y641490D03*
X1374440Y631290D03*
X1399840Y621090D03*
X1374440Y610890D03*
X1399840Y600690D03*
X1374440Y590490D03*
X1399840Y580290D03*
X1374440Y570090D03*
D44*
X1422840Y530790D03*
X1422840Y680790D03*
D13*
X1285630Y764540D03*
X1302630Y764540D03*
X1285630Y703580D03*
X1302630Y703580D03*
D12*
X998220Y247260D03*
X998220Y230260D03*
X977900Y247260D03*
X977900Y230260D03*
D31*
X1004140Y208280D03*
X982140Y198780D03*
X982140Y217780D03*
D45*
X1008634Y150368D03*
X985520Y150368D03*
X962406Y150368D03*
D46*
X985520Y88390D03*
D12*
X1008380Y186300D03*
X1008380Y169300D03*
X988060Y169300D03*
X988060Y186300D03*
X1150620Y247260D03*
X1150620Y230260D03*
X1130300Y247260D03*
X1130300Y230260D03*
D31*
X1148920Y208280D03*
X1126920Y198780D03*
X1126920Y217780D03*
D45*
X1150874Y150368D03*
X1127760Y150368D03*
X1104646Y150368D03*
D46*
X1127760Y88390D03*
D12*
X1150620Y186300D03*
X1150620Y169300D03*
X1130300Y169300D03*
X1130300Y186300D03*
X1071880Y247260D03*
X1071880Y230260D03*
X1051560Y247260D03*
X1051560Y230260D03*
D31*
X1072720Y208280D03*
X1050720Y198780D03*
X1050720Y217780D03*
D45*
X1079754Y150368D03*
X1056640Y150368D03*
X1033526Y150368D03*
D46*
X1056640Y88390D03*
D12*
X1074420Y186300D03*
X1074420Y169300D03*
X1054100Y169300D03*
X1054100Y186300D03*
X1413900Y266700D03*
X1430900Y266700D03*
X1413900Y236220D03*
X1430900Y236220D03*
X1413900Y203200D03*
X1430900Y203200D03*
D13*
X1109980Y186300D03*
X1109980Y169300D03*
X1033780Y186300D03*
X1033780Y169300D03*
X967740Y186300D03*
X967740Y169300D03*
D12*
X947420Y186300D03*
X947420Y169300D03*
D31*
X1288620Y93980D03*
X1266620Y84480D03*
X1266620Y103480D03*
D13*
X1305560Y85480D03*
X1305560Y102480D03*
D12*
X1244600Y102480D03*
X1244600Y85480D03*
X1221740Y85480D03*
X1221740Y102480D03*
D31*
X1288620Y134620D03*
X1266620Y125120D03*
X1266620Y144120D03*
D13*
X1305560Y143120D03*
X1305560Y126120D03*
D12*
X1244600Y143120D03*
X1244600Y126120D03*
X1221740Y126120D03*
X1221740Y143120D03*
D31*
X1286080Y177800D03*
X1264080Y168300D03*
X1264080Y187300D03*
D13*
X1305560Y186300D03*
X1305560Y169300D03*
D12*
X1244600Y185030D03*
X1244600Y168030D03*
X1221740Y168030D03*
X1221740Y185030D03*
D31*
X1283540Y302260D03*
X1261540Y292760D03*
X1261540Y311760D03*
D13*
X1305560Y310760D03*
X1305560Y293760D03*
D12*
X1242060Y310760D03*
X1242060Y293760D03*
X1221740Y293760D03*
X1221740Y310760D03*
D31*
X1286080Y210820D03*
X1264080Y201320D03*
X1264080Y220320D03*
D13*
X1305560Y202320D03*
X1305560Y219320D03*
D12*
X1244600Y219320D03*
X1244600Y202320D03*
X1221740Y202320D03*
X1221740Y219320D03*
D31*
X1283540Y340360D03*
X1261540Y330860D03*
X1261540Y349860D03*
D13*
X1305560Y348860D03*
X1305560Y331860D03*
D12*
X1242060Y348860D03*
X1242060Y331860D03*
X1221740Y331860D03*
X1221740Y348860D03*
D31*
X1286080Y254000D03*
X1264080Y244500D03*
X1264080Y263500D03*
D13*
X1305560Y262500D03*
X1305560Y245500D03*
D12*
X1244600Y262500D03*
X1244600Y245500D03*
X1221740Y245500D03*
X1221740Y262500D03*
D47*
X1457960Y351790D03*
X1483360Y339090D03*
X1457960Y326390D03*
X1483360Y313690D03*
X1457960Y300990D03*
X1483360Y288290D03*
X1457960Y275590D03*
X1483360Y262890D03*
X1457960Y250190D03*
X1483360Y237490D03*
X1457960Y224790D03*
X1483360Y212090D03*
X1457960Y199390D03*
X1483360Y186690D03*
X1457960Y173990D03*
X1483360Y161290D03*
D39*
X1476160Y366240D03*
D13*
X815340Y712860D03*
X815340Y729860D03*
D12*
X1321680Y894080D03*
X1304680Y894080D03*
D48*
X846600Y962660D03*
X880600Y962660D03*
D49*
X848110Y986790D03*
X876550Y986790D03*
D43*
X1399840Y825640D03*
X1374440Y815440D03*
X1399840Y805240D03*
X1374440Y795040D03*
X1399840Y784840D03*
X1374440Y774640D03*
X1399840Y764440D03*
X1374440Y754240D03*
D44*
X1422840Y714940D03*
X1422840Y864940D03*
D13*
X1430900Y162560D03*
X1413900Y162560D03*
X1430900Y182880D03*
X1413900Y182880D03*
X1430900Y121920D03*
X1413900Y121920D03*
X1430900Y142240D03*
X1413900Y142240D03*
D50*
X197970Y643890D03*
X243990Y643890D03*
X83670Y643890D03*
X129690Y643890D03*
D51*
X1384300Y30480D03*
X914019Y59944D03*
D52*
X1449660Y50000D03*
X49660Y50000D03*
X1449660Y1150000D03*
X49660Y1150000D03*
D53*
X1160449Y905531D02*
X1160449Y897589D01*
X1160449Y905531D02*
X1178891Y905531D01*
X1178891Y897589D01*
X1160449Y897589D01*
X1160449Y901475D02*
X1178891Y901475D01*
X1178891Y905361D02*
X1160449Y905361D01*
X1160449Y920589D02*
X1160449Y928531D01*
X1178891Y928531D01*
X1178891Y920589D01*
X1160449Y920589D01*
X1160449Y924475D02*
X1178891Y924475D01*
X1178891Y928361D02*
X1160449Y928361D01*
X1160449Y943589D02*
X1160449Y951531D01*
X1178891Y951531D01*
X1178891Y943589D01*
X1160449Y943589D01*
X1160449Y947475D02*
X1178891Y947475D01*
X1178891Y951361D02*
X1160449Y951361D01*
D54*
X1096932Y939798D02*
X1096932Y909322D01*
X1096932Y939798D02*
X1115408Y939798D01*
X1115408Y909322D01*
X1096932Y909322D01*
X1096932Y913175D02*
X1115408Y913175D01*
X1115408Y917028D02*
X1096932Y917028D01*
X1096932Y920881D02*
X1115408Y920881D01*
X1115408Y924734D02*
X1096932Y924734D01*
X1096932Y928587D02*
X1115408Y928587D01*
X1115408Y932440D02*
X1096932Y932440D01*
X1096932Y936293D02*
X1115408Y936293D01*
D12*
X1196340Y900820D03*
X1196340Y917820D03*
D13*
X1161170Y873760D03*
X1178170Y873760D03*
D55*
X398780Y1125220D03*
X424180Y1125220D03*
X373380Y1125220D03*
X347980Y1125220D03*
X322580Y1125220D03*
X297180Y1125220D03*
X271780Y1125220D03*
X246380Y1125220D03*
X220980Y1125220D03*
X195580Y1125220D03*
D56*
X170180Y1125220D03*
D55*
X449580Y1125220D03*
X474980Y1125220D03*
X500380Y1125220D03*
X525780Y1125220D03*
X551180Y1125220D03*
X576580Y1125220D03*
X601980Y1125220D03*
X627380Y1125220D03*
X652780Y1125220D03*
X398780Y947420D03*
X424180Y947420D03*
X373380Y947420D03*
X347980Y947420D03*
X322580Y947420D03*
X297180Y947420D03*
X271780Y947420D03*
X246380Y947420D03*
X220980Y947420D03*
X195580Y947420D03*
D56*
X170180Y947420D03*
D55*
X449580Y947420D03*
X474980Y947420D03*
X500380Y947420D03*
X525780Y947420D03*
X551180Y947420D03*
X576580Y947420D03*
X601980Y947420D03*
X627380Y947420D03*
X652780Y947420D03*
D12*
X1024890Y533790D03*
X1024890Y550790D03*
D13*
X1060060Y527050D03*
X1043060Y527050D03*
D12*
X1060060Y571500D03*
X1043060Y571500D03*
X1060060Y506730D03*
X1043060Y506730D03*
X769620Y712860D03*
X769620Y729860D03*
X789940Y712860D03*
X789940Y729860D03*
D13*
X895350Y729860D03*
X895350Y712860D03*
X835660Y729860D03*
X835660Y712860D03*
D12*
X705240Y558800D03*
X722240Y558800D03*
X706510Y519430D03*
X723510Y519430D03*
X705240Y579120D03*
X722240Y579120D03*
X706510Y483870D03*
X723510Y483870D03*
D13*
X958850Y367420D03*
X958850Y384420D03*
X918210Y367420D03*
X918210Y384420D03*
X938530Y367420D03*
X938530Y384420D03*
X897890Y367420D03*
X897890Y384420D03*
X877570Y367420D03*
X877570Y384420D03*
X857250Y367420D03*
X857250Y384420D03*
D12*
X706510Y403860D03*
X723510Y403860D03*
D13*
X979170Y367420D03*
X979170Y384420D03*
X836930Y367420D03*
X836930Y384420D03*
D57*
X1415490Y934440D03*
D34*
X1415490Y980440D03*
D41*
X1461770Y485140D03*
D40*
X1461770Y459740D03*
D58*
X1043370Y549910D03*
X1055370Y549910D03*
X1067370Y549910D03*
D12*
X601980Y1173090D03*
X601980Y1156090D03*
D13*
X685800Y944490D03*
X685800Y927490D03*
X689610Y1126100D03*
X689610Y1109100D03*
X601980Y917820D03*
X601980Y900820D03*
X706120Y944490D03*
X706120Y927490D03*
X749300Y712860D03*
X749300Y729860D03*
D12*
X855980Y712860D03*
X855980Y729860D03*
D13*
X875030Y712860D03*
X875030Y729860D03*
D59*
X952885Y426305D02*
X954395Y426305D01*
X954395Y413295D01*
X952885Y413295D01*
X952885Y426305D01*
X952885Y416641D02*
X954395Y416641D01*
X954395Y419987D02*
X952885Y419987D01*
X952885Y423333D02*
X954395Y423333D01*
X949395Y426305D02*
X947885Y426305D01*
X949395Y426305D02*
X949395Y413295D01*
X947885Y413295D01*
X947885Y426305D01*
X947885Y416641D02*
X949395Y416641D01*
X949395Y419987D02*
X947885Y419987D01*
X947885Y423333D02*
X949395Y423333D01*
X944395Y426305D02*
X942885Y426305D01*
X944395Y426305D02*
X944395Y413295D01*
X942885Y413295D01*
X942885Y426305D01*
X942885Y416641D02*
X944395Y416641D01*
X944395Y419987D02*
X942885Y419987D01*
X942885Y423333D02*
X944395Y423333D01*
X939395Y426305D02*
X937885Y426305D01*
X939395Y426305D02*
X939395Y413295D01*
X937885Y413295D01*
X937885Y426305D01*
X937885Y416641D02*
X939395Y416641D01*
X939395Y419987D02*
X937885Y419987D01*
X937885Y423333D02*
X939395Y423333D01*
X934395Y426305D02*
X932885Y426305D01*
X934395Y426305D02*
X934395Y413295D01*
X932885Y413295D01*
X932885Y426305D01*
X932885Y416641D02*
X934395Y416641D01*
X934395Y419987D02*
X932885Y419987D01*
X932885Y423333D02*
X934395Y423333D01*
X929395Y426305D02*
X927885Y426305D01*
X929395Y426305D02*
X929395Y413295D01*
X927885Y413295D01*
X927885Y426305D01*
X927885Y416641D02*
X929395Y416641D01*
X929395Y419987D02*
X927885Y419987D01*
X927885Y423333D02*
X929395Y423333D01*
X924395Y426305D02*
X922885Y426305D01*
X924395Y426305D02*
X924395Y413295D01*
X922885Y413295D01*
X922885Y426305D01*
X922885Y416641D02*
X924395Y416641D01*
X924395Y419987D02*
X922885Y419987D01*
X922885Y423333D02*
X924395Y423333D01*
X919395Y426305D02*
X917885Y426305D01*
X919395Y426305D02*
X919395Y413295D01*
X917885Y413295D01*
X917885Y426305D01*
X917885Y416641D02*
X919395Y416641D01*
X919395Y419987D02*
X917885Y419987D01*
X917885Y423333D02*
X919395Y423333D01*
X914395Y426305D02*
X912885Y426305D01*
X914395Y426305D02*
X914395Y413295D01*
X912885Y413295D01*
X912885Y426305D01*
X912885Y416641D02*
X914395Y416641D01*
X914395Y419987D02*
X912885Y419987D01*
X912885Y423333D02*
X914395Y423333D01*
X909395Y426305D02*
X907885Y426305D01*
X909395Y426305D02*
X909395Y413295D01*
X907885Y413295D01*
X907885Y426305D01*
X907885Y416641D02*
X909395Y416641D01*
X909395Y419987D02*
X907885Y419987D01*
X907885Y423333D02*
X909395Y423333D01*
X904395Y426305D02*
X902885Y426305D01*
X904395Y426305D02*
X904395Y413295D01*
X902885Y413295D01*
X902885Y426305D01*
X902885Y416641D02*
X904395Y416641D01*
X904395Y419987D02*
X902885Y419987D01*
X902885Y423333D02*
X904395Y423333D01*
X899395Y426305D02*
X897885Y426305D01*
X899395Y426305D02*
X899395Y413295D01*
X897885Y413295D01*
X897885Y426305D01*
X897885Y416641D02*
X899395Y416641D01*
X899395Y419987D02*
X897885Y419987D01*
X897885Y423333D02*
X899395Y423333D01*
X894395Y426305D02*
X892885Y426305D01*
X894395Y426305D02*
X894395Y413295D01*
X892885Y413295D01*
X892885Y426305D01*
X892885Y416641D02*
X894395Y416641D01*
X894395Y419987D02*
X892885Y419987D01*
X892885Y423333D02*
X894395Y423333D01*
X889395Y426305D02*
X887885Y426305D01*
X889395Y426305D02*
X889395Y413295D01*
X887885Y413295D01*
X887885Y426305D01*
X887885Y416641D02*
X889395Y416641D01*
X889395Y419987D02*
X887885Y419987D01*
X887885Y423333D02*
X889395Y423333D01*
X884395Y426305D02*
X882885Y426305D01*
X884395Y426305D02*
X884395Y413295D01*
X882885Y413295D01*
X882885Y426305D01*
X882885Y416641D02*
X884395Y416641D01*
X884395Y419987D02*
X882885Y419987D01*
X882885Y423333D02*
X884395Y423333D01*
X879395Y426305D02*
X877885Y426305D01*
X879395Y426305D02*
X879395Y413295D01*
X877885Y413295D01*
X877885Y426305D01*
X877885Y416641D02*
X879395Y416641D01*
X879395Y419987D02*
X877885Y419987D01*
X877885Y423333D02*
X879395Y423333D01*
X874395Y426305D02*
X872885Y426305D01*
X874395Y426305D02*
X874395Y413295D01*
X872885Y413295D01*
X872885Y426305D01*
X872885Y416641D02*
X874395Y416641D01*
X874395Y419987D02*
X872885Y419987D01*
X872885Y423333D02*
X874395Y423333D01*
X869395Y426305D02*
X867885Y426305D01*
X869395Y426305D02*
X869395Y413295D01*
X867885Y413295D01*
X867885Y426305D01*
X867885Y416641D02*
X869395Y416641D01*
X869395Y419987D02*
X867885Y419987D01*
X867885Y423333D02*
X869395Y423333D01*
X864395Y426305D02*
X862885Y426305D01*
X864395Y426305D02*
X864395Y413295D01*
X862885Y413295D01*
X862885Y426305D01*
X862885Y416641D02*
X864395Y416641D01*
X864395Y419987D02*
X862885Y419987D01*
X862885Y423333D02*
X864395Y423333D01*
X859395Y426305D02*
X857885Y426305D01*
X859395Y426305D02*
X859395Y413295D01*
X857885Y413295D01*
X857885Y426305D01*
X857885Y416641D02*
X859395Y416641D01*
X859395Y419987D02*
X857885Y419987D01*
X857885Y423333D02*
X859395Y423333D01*
X854395Y426305D02*
X852885Y426305D01*
X854395Y426305D02*
X854395Y413295D01*
X852885Y413295D01*
X852885Y426305D01*
X852885Y416641D02*
X854395Y416641D01*
X854395Y419987D02*
X852885Y419987D01*
X852885Y423333D02*
X854395Y423333D01*
X849395Y426305D02*
X847885Y426305D01*
X849395Y426305D02*
X849395Y413295D01*
X847885Y413295D01*
X847885Y426305D01*
X847885Y416641D02*
X849395Y416641D01*
X849395Y419987D02*
X847885Y419987D01*
X847885Y423333D02*
X849395Y423333D01*
X844395Y426305D02*
X842885Y426305D01*
X844395Y426305D02*
X844395Y413295D01*
X842885Y413295D01*
X842885Y426305D01*
X842885Y416641D02*
X844395Y416641D01*
X844395Y419987D02*
X842885Y419987D01*
X842885Y423333D02*
X844395Y423333D01*
X839395Y426305D02*
X837885Y426305D01*
X839395Y426305D02*
X839395Y413295D01*
X837885Y413295D01*
X837885Y426305D01*
X837885Y416641D02*
X839395Y416641D01*
X839395Y419987D02*
X837885Y419987D01*
X837885Y423333D02*
X839395Y423333D01*
X834395Y426305D02*
X832885Y426305D01*
X834395Y426305D02*
X834395Y413295D01*
X832885Y413295D01*
X832885Y426305D01*
X832885Y416641D02*
X834395Y416641D01*
X834395Y419987D02*
X832885Y419987D01*
X832885Y423333D02*
X834395Y423333D01*
X829395Y426305D02*
X827885Y426305D01*
X829395Y426305D02*
X829395Y413295D01*
X827885Y413295D01*
X827885Y426305D01*
X827885Y416641D02*
X829395Y416641D01*
X829395Y419987D02*
X827885Y419987D01*
X827885Y423333D02*
X829395Y423333D01*
X824395Y426305D02*
X822885Y426305D01*
X824395Y426305D02*
X824395Y413295D01*
X822885Y413295D01*
X822885Y426305D01*
X822885Y416641D02*
X824395Y416641D01*
X824395Y419987D02*
X822885Y419987D01*
X822885Y423333D02*
X824395Y423333D01*
X819395Y426305D02*
X817885Y426305D01*
X819395Y426305D02*
X819395Y413295D01*
X817885Y413295D01*
X817885Y426305D01*
X817885Y416641D02*
X819395Y416641D01*
X819395Y419987D02*
X817885Y419987D01*
X817885Y423333D02*
X819395Y423333D01*
X814395Y426305D02*
X812885Y426305D01*
X814395Y426305D02*
X814395Y413295D01*
X812885Y413295D01*
X812885Y426305D01*
X812885Y416641D02*
X814395Y416641D01*
X814395Y419987D02*
X812885Y419987D01*
X812885Y423333D02*
X814395Y423333D01*
X809395Y426305D02*
X807885Y426305D01*
X809395Y426305D02*
X809395Y413295D01*
X807885Y413295D01*
X807885Y426305D01*
X807885Y416641D02*
X809395Y416641D01*
X809395Y419987D02*
X807885Y419987D01*
X807885Y423333D02*
X809395Y423333D01*
X804395Y426305D02*
X802885Y426305D01*
X804395Y426305D02*
X804395Y413295D01*
X802885Y413295D01*
X802885Y426305D01*
X802885Y416641D02*
X804395Y416641D01*
X804395Y419987D02*
X802885Y419987D01*
X802885Y423333D02*
X804395Y423333D01*
X799395Y426305D02*
X797885Y426305D01*
X799395Y426305D02*
X799395Y413295D01*
X797885Y413295D01*
X797885Y426305D01*
X797885Y416641D02*
X799395Y416641D01*
X799395Y419987D02*
X797885Y419987D01*
X797885Y423333D02*
X799395Y423333D01*
X794395Y426305D02*
X792885Y426305D01*
X794395Y426305D02*
X794395Y413295D01*
X792885Y413295D01*
X792885Y426305D01*
X792885Y416641D02*
X794395Y416641D01*
X794395Y419987D02*
X792885Y419987D01*
X792885Y423333D02*
X794395Y423333D01*
X789395Y426305D02*
X787885Y426305D01*
X789395Y426305D02*
X789395Y413295D01*
X787885Y413295D01*
X787885Y426305D01*
X787885Y416641D02*
X789395Y416641D01*
X789395Y419987D02*
X787885Y419987D01*
X787885Y423333D02*
X789395Y423333D01*
X784395Y426305D02*
X782885Y426305D01*
X784395Y426305D02*
X784395Y413295D01*
X782885Y413295D01*
X782885Y426305D01*
X782885Y416641D02*
X784395Y416641D01*
X784395Y419987D02*
X782885Y419987D01*
X782885Y423333D02*
X784395Y423333D01*
X779395Y426305D02*
X777885Y426305D01*
X779395Y426305D02*
X779395Y413295D01*
X777885Y413295D01*
X777885Y426305D01*
X777885Y416641D02*
X779395Y416641D01*
X779395Y419987D02*
X777885Y419987D01*
X777885Y423333D02*
X779395Y423333D01*
X752385Y438795D02*
X752385Y440305D01*
X765395Y440305D01*
X765395Y438795D01*
X752385Y438795D01*
X752385Y443795D02*
X752385Y445305D01*
X765395Y445305D01*
X765395Y443795D01*
X752385Y443795D01*
X752385Y448795D02*
X752385Y450305D01*
X765395Y450305D01*
X765395Y448795D01*
X752385Y448795D01*
X752385Y453795D02*
X752385Y455305D01*
X765395Y455305D01*
X765395Y453795D01*
X752385Y453795D01*
X752385Y458795D02*
X752385Y460305D01*
X765395Y460305D01*
X765395Y458795D01*
X752385Y458795D01*
X752385Y463795D02*
X752385Y465305D01*
X765395Y465305D01*
X765395Y463795D01*
X752385Y463795D01*
X752385Y468795D02*
X752385Y470305D01*
X765395Y470305D01*
X765395Y468795D01*
X752385Y468795D01*
X752385Y473795D02*
X752385Y475305D01*
X765395Y475305D01*
X765395Y473795D01*
X752385Y473795D01*
X752385Y478795D02*
X752385Y480305D01*
X765395Y480305D01*
X765395Y478795D01*
X752385Y478795D01*
X752385Y483795D02*
X752385Y485305D01*
X765395Y485305D01*
X765395Y483795D01*
X752385Y483795D01*
X752385Y488795D02*
X752385Y490305D01*
X765395Y490305D01*
X765395Y488795D01*
X752385Y488795D01*
X752385Y493795D02*
X752385Y495305D01*
X765395Y495305D01*
X765395Y493795D01*
X752385Y493795D01*
X752385Y498795D02*
X752385Y500305D01*
X765395Y500305D01*
X765395Y498795D01*
X752385Y498795D01*
X752385Y503795D02*
X752385Y505305D01*
X765395Y505305D01*
X765395Y503795D01*
X752385Y503795D01*
X752385Y508795D02*
X752385Y510305D01*
X765395Y510305D01*
X765395Y508795D01*
X752385Y508795D01*
X752385Y513795D02*
X752385Y515305D01*
X765395Y515305D01*
X765395Y513795D01*
X752385Y513795D01*
X752385Y518795D02*
X752385Y520305D01*
X765395Y520305D01*
X765395Y518795D01*
X752385Y518795D01*
X752385Y523795D02*
X752385Y525305D01*
X765395Y525305D01*
X765395Y523795D01*
X752385Y523795D01*
X752385Y528795D02*
X752385Y530305D01*
X765395Y530305D01*
X765395Y528795D01*
X752385Y528795D01*
X752385Y533795D02*
X752385Y535305D01*
X765395Y535305D01*
X765395Y533795D01*
X752385Y533795D01*
X752385Y538795D02*
X752385Y540305D01*
X765395Y540305D01*
X765395Y538795D01*
X752385Y538795D01*
X752385Y543795D02*
X752385Y545305D01*
X765395Y545305D01*
X765395Y543795D01*
X752385Y543795D01*
X752385Y548795D02*
X752385Y550305D01*
X765395Y550305D01*
X765395Y548795D01*
X752385Y548795D01*
X752385Y553795D02*
X752385Y555305D01*
X765395Y555305D01*
X765395Y553795D01*
X752385Y553795D01*
X752385Y558795D02*
X752385Y560305D01*
X765395Y560305D01*
X765395Y558795D01*
X752385Y558795D01*
X752385Y563795D02*
X752385Y565305D01*
X765395Y565305D01*
X765395Y563795D01*
X752385Y563795D01*
X752385Y568795D02*
X752385Y570305D01*
X765395Y570305D01*
X765395Y568795D01*
X752385Y568795D01*
X752385Y573795D02*
X752385Y575305D01*
X765395Y575305D01*
X765395Y573795D01*
X752385Y573795D01*
X752385Y578795D02*
X752385Y580305D01*
X765395Y580305D01*
X765395Y578795D01*
X752385Y578795D01*
X752385Y583795D02*
X752385Y585305D01*
X765395Y585305D01*
X765395Y583795D01*
X752385Y583795D01*
X752385Y588795D02*
X752385Y590305D01*
X765395Y590305D01*
X765395Y588795D01*
X752385Y588795D01*
X752385Y593795D02*
X752385Y595305D01*
X765395Y595305D01*
X765395Y593795D01*
X752385Y593795D01*
X752385Y598795D02*
X752385Y600305D01*
X765395Y600305D01*
X765395Y598795D01*
X752385Y598795D01*
X752385Y603795D02*
X752385Y605305D01*
X765395Y605305D01*
X765395Y603795D01*
X752385Y603795D01*
X752385Y608795D02*
X752385Y610305D01*
X765395Y610305D01*
X765395Y608795D01*
X752385Y608795D01*
X752385Y613795D02*
X752385Y615305D01*
X765395Y615305D01*
X765395Y613795D01*
X752385Y613795D01*
X777885Y640805D02*
X779395Y640805D01*
X779395Y627795D01*
X777885Y627795D01*
X777885Y640805D01*
X777885Y631141D02*
X779395Y631141D01*
X779395Y634487D02*
X777885Y634487D01*
X777885Y637833D02*
X779395Y637833D01*
X782885Y640805D02*
X784395Y640805D01*
X784395Y627795D01*
X782885Y627795D01*
X782885Y640805D01*
X782885Y631141D02*
X784395Y631141D01*
X784395Y634487D02*
X782885Y634487D01*
X782885Y637833D02*
X784395Y637833D01*
X787885Y640805D02*
X789395Y640805D01*
X789395Y627795D01*
X787885Y627795D01*
X787885Y640805D01*
X787885Y631141D02*
X789395Y631141D01*
X789395Y634487D02*
X787885Y634487D01*
X787885Y637833D02*
X789395Y637833D01*
X792885Y640805D02*
X794395Y640805D01*
X794395Y627795D01*
X792885Y627795D01*
X792885Y640805D01*
X792885Y631141D02*
X794395Y631141D01*
X794395Y634487D02*
X792885Y634487D01*
X792885Y637833D02*
X794395Y637833D01*
X797885Y640805D02*
X799395Y640805D01*
X799395Y627795D01*
X797885Y627795D01*
X797885Y640805D01*
X797885Y631141D02*
X799395Y631141D01*
X799395Y634487D02*
X797885Y634487D01*
X797885Y637833D02*
X799395Y637833D01*
X802885Y640805D02*
X804395Y640805D01*
X804395Y627795D01*
X802885Y627795D01*
X802885Y640805D01*
X802885Y631141D02*
X804395Y631141D01*
X804395Y634487D02*
X802885Y634487D01*
X802885Y637833D02*
X804395Y637833D01*
X807885Y640805D02*
X809395Y640805D01*
X809395Y627795D01*
X807885Y627795D01*
X807885Y640805D01*
X807885Y631141D02*
X809395Y631141D01*
X809395Y634487D02*
X807885Y634487D01*
X807885Y637833D02*
X809395Y637833D01*
X812885Y640805D02*
X814395Y640805D01*
X814395Y627795D01*
X812885Y627795D01*
X812885Y640805D01*
X812885Y631141D02*
X814395Y631141D01*
X814395Y634487D02*
X812885Y634487D01*
X812885Y637833D02*
X814395Y637833D01*
X817885Y640805D02*
X819395Y640805D01*
X819395Y627795D01*
X817885Y627795D01*
X817885Y640805D01*
X817885Y631141D02*
X819395Y631141D01*
X819395Y634487D02*
X817885Y634487D01*
X817885Y637833D02*
X819395Y637833D01*
X822885Y640805D02*
X824395Y640805D01*
X824395Y627795D01*
X822885Y627795D01*
X822885Y640805D01*
X822885Y631141D02*
X824395Y631141D01*
X824395Y634487D02*
X822885Y634487D01*
X822885Y637833D02*
X824395Y637833D01*
X827885Y640805D02*
X829395Y640805D01*
X829395Y627795D01*
X827885Y627795D01*
X827885Y640805D01*
X827885Y631141D02*
X829395Y631141D01*
X829395Y634487D02*
X827885Y634487D01*
X827885Y637833D02*
X829395Y637833D01*
X832885Y640805D02*
X834395Y640805D01*
X834395Y627795D01*
X832885Y627795D01*
X832885Y640805D01*
X832885Y631141D02*
X834395Y631141D01*
X834395Y634487D02*
X832885Y634487D01*
X832885Y637833D02*
X834395Y637833D01*
X837885Y640805D02*
X839395Y640805D01*
X839395Y627795D01*
X837885Y627795D01*
X837885Y640805D01*
X837885Y631141D02*
X839395Y631141D01*
X839395Y634487D02*
X837885Y634487D01*
X837885Y637833D02*
X839395Y637833D01*
X842885Y640805D02*
X844395Y640805D01*
X844395Y627795D01*
X842885Y627795D01*
X842885Y640805D01*
X842885Y631141D02*
X844395Y631141D01*
X844395Y634487D02*
X842885Y634487D01*
X842885Y637833D02*
X844395Y637833D01*
X847885Y640805D02*
X849395Y640805D01*
X849395Y627795D01*
X847885Y627795D01*
X847885Y640805D01*
X847885Y631141D02*
X849395Y631141D01*
X849395Y634487D02*
X847885Y634487D01*
X847885Y637833D02*
X849395Y637833D01*
X852885Y640805D02*
X854395Y640805D01*
X854395Y627795D01*
X852885Y627795D01*
X852885Y640805D01*
X852885Y631141D02*
X854395Y631141D01*
X854395Y634487D02*
X852885Y634487D01*
X852885Y637833D02*
X854395Y637833D01*
X857885Y640805D02*
X859395Y640805D01*
X859395Y627795D01*
X857885Y627795D01*
X857885Y640805D01*
X857885Y631141D02*
X859395Y631141D01*
X859395Y634487D02*
X857885Y634487D01*
X857885Y637833D02*
X859395Y637833D01*
X862885Y640805D02*
X864395Y640805D01*
X864395Y627795D01*
X862885Y627795D01*
X862885Y640805D01*
X862885Y631141D02*
X864395Y631141D01*
X864395Y634487D02*
X862885Y634487D01*
X862885Y637833D02*
X864395Y637833D01*
X867885Y640805D02*
X869395Y640805D01*
X869395Y627795D01*
X867885Y627795D01*
X867885Y640805D01*
X867885Y631141D02*
X869395Y631141D01*
X869395Y634487D02*
X867885Y634487D01*
X867885Y637833D02*
X869395Y637833D01*
X872885Y640805D02*
X874395Y640805D01*
X874395Y627795D01*
X872885Y627795D01*
X872885Y640805D01*
X872885Y631141D02*
X874395Y631141D01*
X874395Y634487D02*
X872885Y634487D01*
X872885Y637833D02*
X874395Y637833D01*
X877885Y640805D02*
X879395Y640805D01*
X879395Y627795D01*
X877885Y627795D01*
X877885Y640805D01*
X877885Y631141D02*
X879395Y631141D01*
X879395Y634487D02*
X877885Y634487D01*
X877885Y637833D02*
X879395Y637833D01*
X882885Y640805D02*
X884395Y640805D01*
X884395Y627795D01*
X882885Y627795D01*
X882885Y640805D01*
X882885Y631141D02*
X884395Y631141D01*
X884395Y634487D02*
X882885Y634487D01*
X882885Y637833D02*
X884395Y637833D01*
X887885Y640805D02*
X889395Y640805D01*
X889395Y627795D01*
X887885Y627795D01*
X887885Y640805D01*
X887885Y631141D02*
X889395Y631141D01*
X889395Y634487D02*
X887885Y634487D01*
X887885Y637833D02*
X889395Y637833D01*
X892885Y640805D02*
X894395Y640805D01*
X894395Y627795D01*
X892885Y627795D01*
X892885Y640805D01*
X892885Y631141D02*
X894395Y631141D01*
X894395Y634487D02*
X892885Y634487D01*
X892885Y637833D02*
X894395Y637833D01*
X897885Y640805D02*
X899395Y640805D01*
X899395Y627795D01*
X897885Y627795D01*
X897885Y640805D01*
X897885Y631141D02*
X899395Y631141D01*
X899395Y634487D02*
X897885Y634487D01*
X897885Y637833D02*
X899395Y637833D01*
X902885Y640805D02*
X904395Y640805D01*
X904395Y627795D01*
X902885Y627795D01*
X902885Y640805D01*
X902885Y631141D02*
X904395Y631141D01*
X904395Y634487D02*
X902885Y634487D01*
X902885Y637833D02*
X904395Y637833D01*
X907885Y640805D02*
X909395Y640805D01*
X909395Y627795D01*
X907885Y627795D01*
X907885Y640805D01*
X907885Y631141D02*
X909395Y631141D01*
X909395Y634487D02*
X907885Y634487D01*
X907885Y637833D02*
X909395Y637833D01*
X912885Y640805D02*
X914395Y640805D01*
X914395Y627795D01*
X912885Y627795D01*
X912885Y640805D01*
X912885Y631141D02*
X914395Y631141D01*
X914395Y634487D02*
X912885Y634487D01*
X912885Y637833D02*
X914395Y637833D01*
X917885Y640805D02*
X919395Y640805D01*
X919395Y627795D01*
X917885Y627795D01*
X917885Y640805D01*
X917885Y631141D02*
X919395Y631141D01*
X919395Y634487D02*
X917885Y634487D01*
X917885Y637833D02*
X919395Y637833D01*
X922885Y640805D02*
X924395Y640805D01*
X924395Y627795D01*
X922885Y627795D01*
X922885Y640805D01*
X922885Y631141D02*
X924395Y631141D01*
X924395Y634487D02*
X922885Y634487D01*
X922885Y637833D02*
X924395Y637833D01*
X927885Y640805D02*
X929395Y640805D01*
X929395Y627795D01*
X927885Y627795D01*
X927885Y640805D01*
X927885Y631141D02*
X929395Y631141D01*
X929395Y634487D02*
X927885Y634487D01*
X927885Y637833D02*
X929395Y637833D01*
X932885Y640805D02*
X934395Y640805D01*
X934395Y627795D01*
X932885Y627795D01*
X932885Y640805D01*
X932885Y631141D02*
X934395Y631141D01*
X934395Y634487D02*
X932885Y634487D01*
X932885Y637833D02*
X934395Y637833D01*
X937885Y640805D02*
X939395Y640805D01*
X939395Y627795D01*
X937885Y627795D01*
X937885Y640805D01*
X937885Y631141D02*
X939395Y631141D01*
X939395Y634487D02*
X937885Y634487D01*
X937885Y637833D02*
X939395Y637833D01*
X942885Y640805D02*
X944395Y640805D01*
X944395Y627795D01*
X942885Y627795D01*
X942885Y640805D01*
X942885Y631141D02*
X944395Y631141D01*
X944395Y634487D02*
X942885Y634487D01*
X942885Y637833D02*
X944395Y637833D01*
X947885Y640805D02*
X949395Y640805D01*
X949395Y627795D01*
X947885Y627795D01*
X947885Y640805D01*
X947885Y631141D02*
X949395Y631141D01*
X949395Y634487D02*
X947885Y634487D01*
X947885Y637833D02*
X949395Y637833D01*
X952885Y640805D02*
X954395Y640805D01*
X954395Y627795D01*
X952885Y627795D01*
X952885Y640805D01*
X952885Y631141D02*
X954395Y631141D01*
X954395Y634487D02*
X952885Y634487D01*
X952885Y637833D02*
X954395Y637833D01*
X966885Y615305D02*
X966885Y613795D01*
X966885Y615305D02*
X979895Y615305D01*
X979895Y613795D01*
X966885Y613795D01*
X966885Y610305D02*
X966885Y608795D01*
X966885Y610305D02*
X979895Y610305D01*
X979895Y608795D01*
X966885Y608795D01*
X966885Y605305D02*
X966885Y603795D01*
X966885Y605305D02*
X979895Y605305D01*
X979895Y603795D01*
X966885Y603795D01*
X966885Y600305D02*
X966885Y598795D01*
X966885Y600305D02*
X979895Y600305D01*
X979895Y598795D01*
X966885Y598795D01*
X966885Y595305D02*
X966885Y593795D01*
X966885Y595305D02*
X979895Y595305D01*
X979895Y593795D01*
X966885Y593795D01*
X966885Y590305D02*
X966885Y588795D01*
X966885Y590305D02*
X979895Y590305D01*
X979895Y588795D01*
X966885Y588795D01*
X966885Y585305D02*
X966885Y583795D01*
X966885Y585305D02*
X979895Y585305D01*
X979895Y583795D01*
X966885Y583795D01*
X966885Y580305D02*
X966885Y578795D01*
X966885Y580305D02*
X979895Y580305D01*
X979895Y578795D01*
X966885Y578795D01*
X966885Y575305D02*
X966885Y573795D01*
X966885Y575305D02*
X979895Y575305D01*
X979895Y573795D01*
X966885Y573795D01*
X966885Y570305D02*
X966885Y568795D01*
X966885Y570305D02*
X979895Y570305D01*
X979895Y568795D01*
X966885Y568795D01*
X966885Y565305D02*
X966885Y563795D01*
X966885Y565305D02*
X979895Y565305D01*
X979895Y563795D01*
X966885Y563795D01*
X966885Y560305D02*
X966885Y558795D01*
X966885Y560305D02*
X979895Y560305D01*
X979895Y558795D01*
X966885Y558795D01*
X966885Y555305D02*
X966885Y553795D01*
X966885Y555305D02*
X979895Y555305D01*
X979895Y553795D01*
X966885Y553795D01*
X966885Y550305D02*
X966885Y548795D01*
X966885Y550305D02*
X979895Y550305D01*
X979895Y548795D01*
X966885Y548795D01*
X966885Y545305D02*
X966885Y543795D01*
X966885Y545305D02*
X979895Y545305D01*
X979895Y543795D01*
X966885Y543795D01*
X966885Y540305D02*
X966885Y538795D01*
X966885Y540305D02*
X979895Y540305D01*
X979895Y538795D01*
X966885Y538795D01*
X966885Y535305D02*
X966885Y533795D01*
X966885Y535305D02*
X979895Y535305D01*
X979895Y533795D01*
X966885Y533795D01*
X966885Y530305D02*
X966885Y528795D01*
X966885Y530305D02*
X979895Y530305D01*
X979895Y528795D01*
X966885Y528795D01*
X966885Y525305D02*
X966885Y523795D01*
X966885Y525305D02*
X979895Y525305D01*
X979895Y523795D01*
X966885Y523795D01*
X966885Y520305D02*
X966885Y518795D01*
X966885Y520305D02*
X979895Y520305D01*
X979895Y518795D01*
X966885Y518795D01*
X966885Y515305D02*
X966885Y513795D01*
X966885Y515305D02*
X979895Y515305D01*
X979895Y513795D01*
X966885Y513795D01*
X966885Y510305D02*
X966885Y508795D01*
X966885Y510305D02*
X979895Y510305D01*
X979895Y508795D01*
X966885Y508795D01*
X966885Y505305D02*
X966885Y503795D01*
X966885Y505305D02*
X979895Y505305D01*
X979895Y503795D01*
X966885Y503795D01*
X966885Y500305D02*
X966885Y498795D01*
X966885Y500305D02*
X979895Y500305D01*
X979895Y498795D01*
X966885Y498795D01*
X966885Y495305D02*
X966885Y493795D01*
X966885Y495305D02*
X979895Y495305D01*
X979895Y493795D01*
X966885Y493795D01*
X966885Y490305D02*
X966885Y488795D01*
X966885Y490305D02*
X979895Y490305D01*
X979895Y488795D01*
X966885Y488795D01*
X966885Y485305D02*
X966885Y483795D01*
X966885Y485305D02*
X979895Y485305D01*
X979895Y483795D01*
X966885Y483795D01*
X966885Y480305D02*
X966885Y478795D01*
X966885Y480305D02*
X979895Y480305D01*
X979895Y478795D01*
X966885Y478795D01*
X966885Y475305D02*
X966885Y473795D01*
X966885Y475305D02*
X979895Y475305D01*
X979895Y473795D01*
X966885Y473795D01*
X966885Y470305D02*
X966885Y468795D01*
X966885Y470305D02*
X979895Y470305D01*
X979895Y468795D01*
X966885Y468795D01*
X966885Y465305D02*
X966885Y463795D01*
X966885Y465305D02*
X979895Y465305D01*
X979895Y463795D01*
X966885Y463795D01*
X966885Y460305D02*
X966885Y458795D01*
X966885Y460305D02*
X979895Y460305D01*
X979895Y458795D01*
X966885Y458795D01*
X966885Y455305D02*
X966885Y453795D01*
X966885Y455305D02*
X979895Y455305D01*
X979895Y453795D01*
X966885Y453795D01*
X966885Y450305D02*
X966885Y448795D01*
X966885Y450305D02*
X979895Y450305D01*
X979895Y448795D01*
X966885Y448795D01*
X966885Y445305D02*
X966885Y443795D01*
X966885Y445305D02*
X979895Y445305D01*
X979895Y443795D01*
X966885Y443795D01*
X966885Y440305D02*
X966885Y438795D01*
X966885Y440305D02*
X979895Y440305D01*
X979895Y438795D01*
X966885Y438795D01*
D60*
X373350Y501650D03*
D61*
X147350Y501650D03*
D32*
X736600Y893830D03*
X736600Y922270D03*
D62*
X762000Y20320D03*
D63*
X838200Y25400D03*
X812800Y25400D03*
X711200Y25400D03*
X660400Y25400D03*
X457200Y127000D03*
M02*
