G04 EAGLE Gerber RS-274X export*
G75*
%MOMM*%
%FSLAX34Y34*%
%LPD*%
%INSolderpaste Top*%
%IPPOS*%
%AMOC8*
5,1,8,0,0,1.08239X$1,22.5*%
G01*
%ADD10R,1.100000X1.000000*%
%ADD11R,1.000000X1.100000*%
%ADD12R,2.650000X1.750000*%
%ADD13R,0.800000X0.900000*%
%ADD14R,1.750000X2.650000*%
%ADD15R,0.900000X0.800000*%
%ADD16C,0.360000*%
%ADD17R,0.609600X1.625600*%
%ADD18C,0.300000*%
%ADD19R,3.300000X2.700000*%
%ADD20R,1.000000X2.700000*%
%ADD21C,1.500000*%
%ADD22R,2.235200X1.219200*%
%ADD23R,2.200000X3.600000*%
%ADD24R,1.000000X1.400000*%
%ADD25R,1.400000X1.000000*%
%ADD26R,1.803000X1.600000*%
%ADD27R,2.658000X1.256000*%
%ADD28R,1.219200X2.235200*%
%ADD29R,3.600000X2.200000*%
%ADD30R,1.300000X1.300000*%
%ADD31R,1.600000X1.803000*%
%ADD32R,1.256000X2.658000*%
%ADD33C,1.000000*%
%ADD34C,0.200000*%
%ADD35C,0.205000*%
%ADD36R,0.400000X1.900000*%
%ADD37C,0.150000*%


D10*
X575700Y81280D03*
X592700Y81280D03*
D11*
X612140Y225180D03*
X612140Y242180D03*
X1049020Y844160D03*
X1049020Y827160D03*
X1028700Y844160D03*
X1028700Y827160D03*
X899160Y821300D03*
X899160Y804300D03*
X878840Y821300D03*
X878840Y804300D03*
X858520Y821300D03*
X858520Y804300D03*
X998220Y889880D03*
X998220Y872880D03*
X810260Y323460D03*
X810260Y306460D03*
X878840Y877960D03*
X878840Y894960D03*
X858520Y877960D03*
X858520Y894960D03*
X878840Y927980D03*
X878840Y910980D03*
X858520Y927980D03*
X858520Y910980D03*
X1173480Y740020D03*
X1173480Y723020D03*
X1153160Y740020D03*
X1153160Y723020D03*
D10*
X1285630Y744220D03*
X1302630Y744220D03*
X1319140Y998220D03*
X1302140Y998220D03*
X606180Y81280D03*
X623180Y81280D03*
X781440Y83820D03*
X798440Y83820D03*
X750960Y83820D03*
X767960Y83820D03*
D11*
X833120Y323460D03*
X833120Y306460D03*
D12*
X462450Y772160D03*
X502750Y772160D03*
D13*
X706812Y306230D03*
X725812Y306230D03*
X716312Y327230D03*
D14*
X985520Y917110D03*
X985520Y957410D03*
D12*
X462450Y287020D03*
X502750Y287020D03*
D15*
X1211740Y944220D03*
X1211740Y925220D03*
X1232740Y934720D03*
D13*
X654660Y63340D03*
X635660Y63340D03*
X645160Y42340D03*
X682600Y247490D03*
X663600Y247490D03*
X673100Y226490D03*
X829920Y65880D03*
X810920Y65880D03*
X820420Y44880D03*
D15*
X853280Y226720D03*
X853280Y245720D03*
X832280Y236220D03*
X817720Y226720D03*
X817720Y245720D03*
X796720Y236220D03*
D13*
X648310Y247490D03*
X629310Y247490D03*
X638810Y226490D03*
D16*
X1122600Y685270D02*
X1138000Y685270D01*
X1122600Y685270D02*
X1122600Y688870D01*
X1138000Y688870D01*
X1138000Y685270D01*
X1138000Y688690D02*
X1122600Y688690D01*
X1122600Y672570D02*
X1138000Y672570D01*
X1122600Y672570D02*
X1122600Y676170D01*
X1138000Y676170D01*
X1138000Y672570D01*
X1138000Y675990D02*
X1122600Y675990D01*
X1122600Y659870D02*
X1138000Y659870D01*
X1122600Y659870D02*
X1122600Y663470D01*
X1138000Y663470D01*
X1138000Y659870D01*
X1138000Y663290D02*
X1122600Y663290D01*
X1122600Y647170D02*
X1138000Y647170D01*
X1122600Y647170D02*
X1122600Y650770D01*
X1138000Y650770D01*
X1138000Y647170D01*
X1138000Y650590D02*
X1122600Y650590D01*
X1173400Y647170D02*
X1188800Y647170D01*
X1173400Y647170D02*
X1173400Y650770D01*
X1188800Y650770D01*
X1188800Y647170D01*
X1188800Y650590D02*
X1173400Y650590D01*
X1173400Y659870D02*
X1188800Y659870D01*
X1173400Y659870D02*
X1173400Y663470D01*
X1188800Y663470D01*
X1188800Y659870D01*
X1188800Y663290D02*
X1173400Y663290D01*
X1173400Y672570D02*
X1188800Y672570D01*
X1173400Y672570D02*
X1173400Y676170D01*
X1188800Y676170D01*
X1188800Y672570D01*
X1188800Y675990D02*
X1173400Y675990D01*
X1173400Y685270D02*
X1188800Y685270D01*
X1173400Y685270D02*
X1173400Y688870D01*
X1188800Y688870D01*
X1188800Y685270D01*
X1188800Y688690D02*
X1173400Y688690D01*
D17*
X784200Y149606D03*
X774700Y149606D03*
X765200Y149606D03*
X765200Y124714D03*
X784200Y124714D03*
X608940Y149606D03*
X599440Y149606D03*
X589940Y149606D03*
X589940Y124714D03*
X608940Y124714D03*
D18*
X1015160Y890880D02*
X1018160Y890880D01*
X1015160Y890880D02*
X1015160Y898880D01*
X1018160Y898880D01*
X1018160Y890880D01*
X1018160Y893730D02*
X1015160Y893730D01*
X1015160Y896580D02*
X1018160Y896580D01*
X1034160Y890880D02*
X1037160Y890880D01*
X1034160Y890880D02*
X1034160Y898880D01*
X1037160Y898880D01*
X1037160Y890880D01*
X1037160Y893730D02*
X1034160Y893730D01*
X1034160Y896580D02*
X1037160Y896580D01*
X1037160Y863880D02*
X1034160Y863880D01*
X1034160Y871880D01*
X1037160Y871880D01*
X1037160Y863880D01*
X1037160Y866730D02*
X1034160Y866730D01*
X1034160Y869580D02*
X1037160Y869580D01*
X1027660Y863880D02*
X1024660Y863880D01*
X1024660Y871880D01*
X1027660Y871880D01*
X1027660Y863880D01*
X1027660Y866730D02*
X1024660Y866730D01*
X1024660Y869580D02*
X1027660Y869580D01*
X1018160Y863880D02*
X1015160Y863880D01*
X1015160Y871880D01*
X1018160Y871880D01*
X1018160Y863880D01*
X1018160Y866730D02*
X1015160Y866730D01*
X1015160Y869580D02*
X1018160Y869580D01*
X1024660Y890880D02*
X1027660Y890880D01*
X1024660Y890880D02*
X1024660Y898880D01*
X1027660Y898880D01*
X1027660Y890880D01*
X1027660Y893730D02*
X1024660Y893730D01*
X1024660Y896580D02*
X1027660Y896580D01*
D19*
X929640Y959140D03*
D20*
X952640Y900140D03*
X929640Y900140D03*
X906640Y900140D03*
D21*
X990240Y840260D02*
X1005240Y840260D01*
X1005240Y780260D01*
X990240Y780260D01*
X990240Y840260D01*
X990240Y794510D02*
X1005240Y794510D01*
X1005240Y808760D02*
X990240Y808760D01*
X990240Y823010D02*
X1005240Y823010D01*
X1005240Y837260D02*
X990240Y837260D01*
X945240Y840260D02*
X930240Y840260D01*
X945240Y840260D02*
X945240Y780260D01*
X930240Y780260D01*
X930240Y840260D01*
X930240Y794510D02*
X945240Y794510D01*
X945240Y808760D02*
X930240Y808760D01*
X930240Y823010D02*
X945240Y823010D01*
X945240Y837260D02*
X930240Y837260D01*
D22*
X523748Y599186D03*
X523748Y622300D03*
X523748Y645414D03*
D23*
X461770Y622300D03*
D24*
X1097280Y704420D03*
X1106780Y682420D03*
X1087780Y682420D03*
X576580Y624000D03*
X567080Y646000D03*
X586080Y646000D03*
D22*
X523748Y403606D03*
X523748Y426720D03*
X523748Y449834D03*
D23*
X461770Y426720D03*
D24*
X567690Y443660D03*
X558190Y465660D03*
X577190Y465660D03*
D22*
X1251712Y962914D03*
X1251712Y939800D03*
X1251712Y916686D03*
D23*
X1313690Y939800D03*
D22*
X692912Y203454D03*
X692912Y180340D03*
X692912Y157226D03*
D23*
X754890Y180340D03*
D25*
X697660Y236220D03*
X719660Y245720D03*
X719660Y226720D03*
D22*
X512572Y203454D03*
X512572Y180340D03*
X512572Y157226D03*
D23*
X574550Y180340D03*
D25*
X530020Y233680D03*
X552020Y243180D03*
X552020Y224180D03*
D10*
X480940Y800100D03*
X463940Y800100D03*
D11*
X553720Y404250D03*
X553720Y421250D03*
D10*
X587620Y407670D03*
X570620Y407670D03*
D11*
X595630Y448700D03*
X595630Y465700D03*
X615950Y465700D03*
X615950Y448700D03*
D10*
X1112520Y723020D03*
X1112520Y740020D03*
X1132840Y723020D03*
X1132840Y740020D03*
D11*
X1082920Y619760D03*
X1065920Y619760D03*
X1288660Y998220D03*
X1271660Y998220D03*
D26*
X640080Y82300D03*
X640080Y110740D03*
D10*
X660400Y94860D03*
X660400Y77860D03*
D11*
X551180Y601100D03*
X551180Y618100D03*
D10*
X680720Y77860D03*
X680720Y94860D03*
D26*
X815340Y84840D03*
X815340Y113280D03*
D10*
X835660Y99940D03*
X835660Y82940D03*
X855980Y82940D03*
X855980Y99940D03*
D11*
X665480Y173600D03*
X665480Y156600D03*
X665480Y206620D03*
X665480Y189620D03*
X739140Y244720D03*
X739140Y227720D03*
X759460Y227720D03*
X759460Y244720D03*
D27*
X726440Y129690D03*
X726440Y83670D03*
D11*
X784860Y191380D03*
X784860Y174380D03*
D10*
X585080Y604520D03*
X568080Y604520D03*
D11*
X805180Y174380D03*
X805180Y191380D03*
D10*
X766200Y104140D03*
X783200Y104140D03*
D11*
X487680Y176140D03*
X487680Y159140D03*
X487680Y211700D03*
X487680Y194700D03*
X571500Y242180D03*
X571500Y225180D03*
X591820Y225180D03*
X591820Y242180D03*
D27*
X551180Y127150D03*
X551180Y81130D03*
D11*
X601980Y188840D03*
X601980Y171840D03*
X622300Y171840D03*
X622300Y188840D03*
D10*
X590940Y101600D03*
X607940Y101600D03*
D11*
X601980Y629040D03*
X601980Y646040D03*
X723510Y363220D03*
X706510Y363220D03*
X723510Y383540D03*
X706510Y383540D03*
X723510Y342900D03*
X706510Y342900D03*
D10*
X1054100Y889880D03*
X1054100Y872880D03*
D11*
X1040520Y919480D03*
X1057520Y919480D03*
X1027040Y919480D03*
X1010040Y919480D03*
X1082920Y640080D03*
X1065920Y640080D03*
X1082920Y660400D03*
X1065920Y660400D03*
X1272150Y744220D03*
X1255150Y744220D03*
X622300Y646040D03*
X622300Y629040D03*
X1285630Y723900D03*
X1302630Y723900D03*
D10*
X480940Y261620D03*
X463940Y261620D03*
D11*
X1299210Y529980D03*
X1299210Y546980D03*
X1299210Y602860D03*
X1299210Y585860D03*
D26*
X1384300Y484120D03*
X1384300Y455680D03*
D11*
X1404620Y471560D03*
X1404620Y488560D03*
X1350400Y485140D03*
X1367400Y485140D03*
D13*
X1169010Y605630D03*
X1150010Y605630D03*
X1159510Y584630D03*
D26*
X1125220Y609850D03*
X1125220Y581410D03*
D11*
X1285630Y764540D03*
X1302630Y764540D03*
X1285630Y703580D03*
X1302630Y703580D03*
D10*
X998220Y247260D03*
X998220Y230260D03*
X977900Y247260D03*
X977900Y230260D03*
D25*
X1004140Y208280D03*
X982140Y198780D03*
X982140Y217780D03*
D28*
X1008634Y150368D03*
X985520Y150368D03*
X962406Y150368D03*
D29*
X985520Y88390D03*
D10*
X1008380Y186300D03*
X1008380Y169300D03*
X988060Y169300D03*
X988060Y186300D03*
X1150620Y247260D03*
X1150620Y230260D03*
X1130300Y247260D03*
X1130300Y230260D03*
D25*
X1148920Y208280D03*
X1126920Y198780D03*
X1126920Y217780D03*
D28*
X1150874Y150368D03*
X1127760Y150368D03*
X1104646Y150368D03*
D29*
X1127760Y88390D03*
D10*
X1150620Y186300D03*
X1150620Y169300D03*
X1130300Y169300D03*
X1130300Y186300D03*
X1071880Y247260D03*
X1071880Y230260D03*
X1051560Y247260D03*
X1051560Y230260D03*
D25*
X1072720Y208280D03*
X1050720Y198780D03*
X1050720Y217780D03*
D28*
X1079754Y150368D03*
X1056640Y150368D03*
X1033526Y150368D03*
D29*
X1056640Y88390D03*
D10*
X1074420Y186300D03*
X1074420Y169300D03*
X1054100Y169300D03*
X1054100Y186300D03*
X1413900Y266700D03*
X1430900Y266700D03*
X1413900Y236220D03*
X1430900Y236220D03*
X1413900Y203200D03*
X1430900Y203200D03*
D11*
X1109980Y186300D03*
X1109980Y169300D03*
X1033780Y186300D03*
X1033780Y169300D03*
X967740Y186300D03*
X967740Y169300D03*
D10*
X947420Y186300D03*
X947420Y169300D03*
D25*
X1288620Y93980D03*
X1266620Y84480D03*
X1266620Y103480D03*
D11*
X1305560Y85480D03*
X1305560Y102480D03*
D10*
X1244600Y102480D03*
X1244600Y85480D03*
X1221740Y85480D03*
X1221740Y102480D03*
D25*
X1288620Y134620D03*
X1266620Y125120D03*
X1266620Y144120D03*
D11*
X1305560Y143120D03*
X1305560Y126120D03*
D10*
X1244600Y143120D03*
X1244600Y126120D03*
X1221740Y126120D03*
X1221740Y143120D03*
D25*
X1286080Y177800D03*
X1264080Y168300D03*
X1264080Y187300D03*
D11*
X1305560Y186300D03*
X1305560Y169300D03*
D10*
X1244600Y185030D03*
X1244600Y168030D03*
X1221740Y168030D03*
X1221740Y185030D03*
D25*
X1283540Y302260D03*
X1261540Y292760D03*
X1261540Y311760D03*
D11*
X1305560Y310760D03*
X1305560Y293760D03*
D10*
X1242060Y310760D03*
X1242060Y293760D03*
X1221740Y293760D03*
X1221740Y310760D03*
D25*
X1286080Y210820D03*
X1264080Y201320D03*
X1264080Y220320D03*
D11*
X1305560Y202320D03*
X1305560Y219320D03*
D10*
X1244600Y219320D03*
X1244600Y202320D03*
X1221740Y202320D03*
X1221740Y219320D03*
D25*
X1283540Y340360D03*
X1261540Y330860D03*
X1261540Y349860D03*
D11*
X1305560Y348860D03*
X1305560Y331860D03*
D10*
X1242060Y348860D03*
X1242060Y331860D03*
X1221740Y331860D03*
X1221740Y348860D03*
D25*
X1286080Y254000D03*
X1264080Y244500D03*
X1264080Y263500D03*
D11*
X1305560Y262500D03*
X1305560Y245500D03*
D10*
X1244600Y262500D03*
X1244600Y245500D03*
X1221740Y245500D03*
X1221740Y262500D03*
D11*
X815340Y712860D03*
X815340Y729860D03*
D10*
X1321680Y894080D03*
X1304680Y894080D03*
D30*
X846600Y962660D03*
X880600Y962660D03*
D31*
X848110Y986790D03*
X876550Y986790D03*
D11*
X1430900Y162560D03*
X1413900Y162560D03*
X1430900Y182880D03*
X1413900Y182880D03*
X1430900Y121920D03*
X1413900Y121920D03*
X1430900Y142240D03*
X1413900Y142240D03*
D32*
X197970Y643890D03*
X243990Y643890D03*
X83670Y643890D03*
X129690Y643890D03*
D33*
X1384300Y30480D03*
X914019Y59944D03*
D34*
X1160420Y897560D02*
X1160420Y905560D01*
X1178920Y905560D01*
X1178920Y897560D01*
X1160420Y897560D01*
X1160420Y899460D02*
X1178920Y899460D01*
X1178920Y901360D02*
X1160420Y901360D01*
X1160420Y903260D02*
X1178920Y903260D01*
X1178920Y905160D02*
X1160420Y905160D01*
X1160420Y920560D02*
X1160420Y928560D01*
X1178920Y928560D01*
X1178920Y920560D01*
X1160420Y920560D01*
X1160420Y922460D02*
X1178920Y922460D01*
X1178920Y924360D02*
X1160420Y924360D01*
X1160420Y926260D02*
X1178920Y926260D01*
X1178920Y928160D02*
X1160420Y928160D01*
X1160420Y943560D02*
X1160420Y951560D01*
X1178920Y951560D01*
X1178920Y943560D01*
X1160420Y943560D01*
X1160420Y945460D02*
X1178920Y945460D01*
X1178920Y947360D02*
X1160420Y947360D01*
X1160420Y949260D02*
X1178920Y949260D01*
X1178920Y951160D02*
X1160420Y951160D01*
D35*
X1096945Y939785D02*
X1096945Y909335D01*
X1096945Y939785D02*
X1115395Y939785D01*
X1115395Y909335D01*
X1096945Y909335D01*
X1096945Y911282D02*
X1115395Y911282D01*
X1115395Y913229D02*
X1096945Y913229D01*
X1096945Y915176D02*
X1115395Y915176D01*
X1115395Y917123D02*
X1096945Y917123D01*
X1096945Y919070D02*
X1115395Y919070D01*
X1115395Y921017D02*
X1096945Y921017D01*
X1096945Y922964D02*
X1115395Y922964D01*
X1115395Y924911D02*
X1096945Y924911D01*
X1096945Y926858D02*
X1115395Y926858D01*
X1115395Y928805D02*
X1096945Y928805D01*
X1096945Y930752D02*
X1115395Y930752D01*
X1115395Y932699D02*
X1096945Y932699D01*
X1096945Y934646D02*
X1115395Y934646D01*
X1115395Y936593D02*
X1096945Y936593D01*
X1096945Y938540D02*
X1115395Y938540D01*
D10*
X1196340Y900820D03*
X1196340Y917820D03*
D11*
X1161170Y873760D03*
X1178170Y873760D03*
D10*
X1024890Y533790D03*
X1024890Y550790D03*
D11*
X1060060Y527050D03*
X1043060Y527050D03*
D10*
X1060060Y571500D03*
X1043060Y571500D03*
X1060060Y506730D03*
X1043060Y506730D03*
X769620Y712860D03*
X769620Y729860D03*
X789940Y712860D03*
X789940Y729860D03*
D11*
X895350Y729860D03*
X895350Y712860D03*
X835660Y729860D03*
X835660Y712860D03*
D10*
X705240Y558800D03*
X722240Y558800D03*
X706510Y519430D03*
X723510Y519430D03*
X705240Y579120D03*
X722240Y579120D03*
X706510Y483870D03*
X723510Y483870D03*
D11*
X958850Y367420D03*
X958850Y384420D03*
X918210Y367420D03*
X918210Y384420D03*
X938530Y367420D03*
X938530Y384420D03*
X897890Y367420D03*
X897890Y384420D03*
X877570Y367420D03*
X877570Y384420D03*
X857250Y367420D03*
X857250Y384420D03*
D10*
X706510Y403860D03*
X723510Y403860D03*
D11*
X979170Y367420D03*
X979170Y384420D03*
X836930Y367420D03*
X836930Y384420D03*
D36*
X1043370Y549910D03*
X1055370Y549910D03*
X1067370Y549910D03*
D10*
X601980Y1173090D03*
X601980Y1156090D03*
D11*
X685800Y944490D03*
X685800Y927490D03*
X689610Y1126100D03*
X689610Y1109100D03*
X601980Y917820D03*
X601980Y900820D03*
X706120Y944490D03*
X706120Y927490D03*
X749300Y712860D03*
X749300Y729860D03*
D10*
X855980Y712860D03*
X855980Y729860D03*
D11*
X875030Y712860D03*
X875030Y729860D03*
D37*
X952890Y426300D02*
X954390Y426300D01*
X954390Y413300D01*
X952890Y413300D01*
X952890Y426300D01*
X952890Y414725D02*
X954390Y414725D01*
X954390Y416150D02*
X952890Y416150D01*
X952890Y417575D02*
X954390Y417575D01*
X954390Y419000D02*
X952890Y419000D01*
X952890Y420425D02*
X954390Y420425D01*
X954390Y421850D02*
X952890Y421850D01*
X952890Y423275D02*
X954390Y423275D01*
X954390Y424700D02*
X952890Y424700D01*
X952890Y426125D02*
X954390Y426125D01*
X949390Y426300D02*
X947890Y426300D01*
X949390Y426300D02*
X949390Y413300D01*
X947890Y413300D01*
X947890Y426300D01*
X947890Y414725D02*
X949390Y414725D01*
X949390Y416150D02*
X947890Y416150D01*
X947890Y417575D02*
X949390Y417575D01*
X949390Y419000D02*
X947890Y419000D01*
X947890Y420425D02*
X949390Y420425D01*
X949390Y421850D02*
X947890Y421850D01*
X947890Y423275D02*
X949390Y423275D01*
X949390Y424700D02*
X947890Y424700D01*
X947890Y426125D02*
X949390Y426125D01*
X944390Y426300D02*
X942890Y426300D01*
X944390Y426300D02*
X944390Y413300D01*
X942890Y413300D01*
X942890Y426300D01*
X942890Y414725D02*
X944390Y414725D01*
X944390Y416150D02*
X942890Y416150D01*
X942890Y417575D02*
X944390Y417575D01*
X944390Y419000D02*
X942890Y419000D01*
X942890Y420425D02*
X944390Y420425D01*
X944390Y421850D02*
X942890Y421850D01*
X942890Y423275D02*
X944390Y423275D01*
X944390Y424700D02*
X942890Y424700D01*
X942890Y426125D02*
X944390Y426125D01*
X939390Y426300D02*
X937890Y426300D01*
X939390Y426300D02*
X939390Y413300D01*
X937890Y413300D01*
X937890Y426300D01*
X937890Y414725D02*
X939390Y414725D01*
X939390Y416150D02*
X937890Y416150D01*
X937890Y417575D02*
X939390Y417575D01*
X939390Y419000D02*
X937890Y419000D01*
X937890Y420425D02*
X939390Y420425D01*
X939390Y421850D02*
X937890Y421850D01*
X937890Y423275D02*
X939390Y423275D01*
X939390Y424700D02*
X937890Y424700D01*
X937890Y426125D02*
X939390Y426125D01*
X934390Y426300D02*
X932890Y426300D01*
X934390Y426300D02*
X934390Y413300D01*
X932890Y413300D01*
X932890Y426300D01*
X932890Y414725D02*
X934390Y414725D01*
X934390Y416150D02*
X932890Y416150D01*
X932890Y417575D02*
X934390Y417575D01*
X934390Y419000D02*
X932890Y419000D01*
X932890Y420425D02*
X934390Y420425D01*
X934390Y421850D02*
X932890Y421850D01*
X932890Y423275D02*
X934390Y423275D01*
X934390Y424700D02*
X932890Y424700D01*
X932890Y426125D02*
X934390Y426125D01*
X929390Y426300D02*
X927890Y426300D01*
X929390Y426300D02*
X929390Y413300D01*
X927890Y413300D01*
X927890Y426300D01*
X927890Y414725D02*
X929390Y414725D01*
X929390Y416150D02*
X927890Y416150D01*
X927890Y417575D02*
X929390Y417575D01*
X929390Y419000D02*
X927890Y419000D01*
X927890Y420425D02*
X929390Y420425D01*
X929390Y421850D02*
X927890Y421850D01*
X927890Y423275D02*
X929390Y423275D01*
X929390Y424700D02*
X927890Y424700D01*
X927890Y426125D02*
X929390Y426125D01*
X924390Y426300D02*
X922890Y426300D01*
X924390Y426300D02*
X924390Y413300D01*
X922890Y413300D01*
X922890Y426300D01*
X922890Y414725D02*
X924390Y414725D01*
X924390Y416150D02*
X922890Y416150D01*
X922890Y417575D02*
X924390Y417575D01*
X924390Y419000D02*
X922890Y419000D01*
X922890Y420425D02*
X924390Y420425D01*
X924390Y421850D02*
X922890Y421850D01*
X922890Y423275D02*
X924390Y423275D01*
X924390Y424700D02*
X922890Y424700D01*
X922890Y426125D02*
X924390Y426125D01*
X919390Y426300D02*
X917890Y426300D01*
X919390Y426300D02*
X919390Y413300D01*
X917890Y413300D01*
X917890Y426300D01*
X917890Y414725D02*
X919390Y414725D01*
X919390Y416150D02*
X917890Y416150D01*
X917890Y417575D02*
X919390Y417575D01*
X919390Y419000D02*
X917890Y419000D01*
X917890Y420425D02*
X919390Y420425D01*
X919390Y421850D02*
X917890Y421850D01*
X917890Y423275D02*
X919390Y423275D01*
X919390Y424700D02*
X917890Y424700D01*
X917890Y426125D02*
X919390Y426125D01*
X914390Y426300D02*
X912890Y426300D01*
X914390Y426300D02*
X914390Y413300D01*
X912890Y413300D01*
X912890Y426300D01*
X912890Y414725D02*
X914390Y414725D01*
X914390Y416150D02*
X912890Y416150D01*
X912890Y417575D02*
X914390Y417575D01*
X914390Y419000D02*
X912890Y419000D01*
X912890Y420425D02*
X914390Y420425D01*
X914390Y421850D02*
X912890Y421850D01*
X912890Y423275D02*
X914390Y423275D01*
X914390Y424700D02*
X912890Y424700D01*
X912890Y426125D02*
X914390Y426125D01*
X909390Y426300D02*
X907890Y426300D01*
X909390Y426300D02*
X909390Y413300D01*
X907890Y413300D01*
X907890Y426300D01*
X907890Y414725D02*
X909390Y414725D01*
X909390Y416150D02*
X907890Y416150D01*
X907890Y417575D02*
X909390Y417575D01*
X909390Y419000D02*
X907890Y419000D01*
X907890Y420425D02*
X909390Y420425D01*
X909390Y421850D02*
X907890Y421850D01*
X907890Y423275D02*
X909390Y423275D01*
X909390Y424700D02*
X907890Y424700D01*
X907890Y426125D02*
X909390Y426125D01*
X904390Y426300D02*
X902890Y426300D01*
X904390Y426300D02*
X904390Y413300D01*
X902890Y413300D01*
X902890Y426300D01*
X902890Y414725D02*
X904390Y414725D01*
X904390Y416150D02*
X902890Y416150D01*
X902890Y417575D02*
X904390Y417575D01*
X904390Y419000D02*
X902890Y419000D01*
X902890Y420425D02*
X904390Y420425D01*
X904390Y421850D02*
X902890Y421850D01*
X902890Y423275D02*
X904390Y423275D01*
X904390Y424700D02*
X902890Y424700D01*
X902890Y426125D02*
X904390Y426125D01*
X899390Y426300D02*
X897890Y426300D01*
X899390Y426300D02*
X899390Y413300D01*
X897890Y413300D01*
X897890Y426300D01*
X897890Y414725D02*
X899390Y414725D01*
X899390Y416150D02*
X897890Y416150D01*
X897890Y417575D02*
X899390Y417575D01*
X899390Y419000D02*
X897890Y419000D01*
X897890Y420425D02*
X899390Y420425D01*
X899390Y421850D02*
X897890Y421850D01*
X897890Y423275D02*
X899390Y423275D01*
X899390Y424700D02*
X897890Y424700D01*
X897890Y426125D02*
X899390Y426125D01*
X894390Y426300D02*
X892890Y426300D01*
X894390Y426300D02*
X894390Y413300D01*
X892890Y413300D01*
X892890Y426300D01*
X892890Y414725D02*
X894390Y414725D01*
X894390Y416150D02*
X892890Y416150D01*
X892890Y417575D02*
X894390Y417575D01*
X894390Y419000D02*
X892890Y419000D01*
X892890Y420425D02*
X894390Y420425D01*
X894390Y421850D02*
X892890Y421850D01*
X892890Y423275D02*
X894390Y423275D01*
X894390Y424700D02*
X892890Y424700D01*
X892890Y426125D02*
X894390Y426125D01*
X889390Y426300D02*
X887890Y426300D01*
X889390Y426300D02*
X889390Y413300D01*
X887890Y413300D01*
X887890Y426300D01*
X887890Y414725D02*
X889390Y414725D01*
X889390Y416150D02*
X887890Y416150D01*
X887890Y417575D02*
X889390Y417575D01*
X889390Y419000D02*
X887890Y419000D01*
X887890Y420425D02*
X889390Y420425D01*
X889390Y421850D02*
X887890Y421850D01*
X887890Y423275D02*
X889390Y423275D01*
X889390Y424700D02*
X887890Y424700D01*
X887890Y426125D02*
X889390Y426125D01*
X884390Y426300D02*
X882890Y426300D01*
X884390Y426300D02*
X884390Y413300D01*
X882890Y413300D01*
X882890Y426300D01*
X882890Y414725D02*
X884390Y414725D01*
X884390Y416150D02*
X882890Y416150D01*
X882890Y417575D02*
X884390Y417575D01*
X884390Y419000D02*
X882890Y419000D01*
X882890Y420425D02*
X884390Y420425D01*
X884390Y421850D02*
X882890Y421850D01*
X882890Y423275D02*
X884390Y423275D01*
X884390Y424700D02*
X882890Y424700D01*
X882890Y426125D02*
X884390Y426125D01*
X879390Y426300D02*
X877890Y426300D01*
X879390Y426300D02*
X879390Y413300D01*
X877890Y413300D01*
X877890Y426300D01*
X877890Y414725D02*
X879390Y414725D01*
X879390Y416150D02*
X877890Y416150D01*
X877890Y417575D02*
X879390Y417575D01*
X879390Y419000D02*
X877890Y419000D01*
X877890Y420425D02*
X879390Y420425D01*
X879390Y421850D02*
X877890Y421850D01*
X877890Y423275D02*
X879390Y423275D01*
X879390Y424700D02*
X877890Y424700D01*
X877890Y426125D02*
X879390Y426125D01*
X874390Y426300D02*
X872890Y426300D01*
X874390Y426300D02*
X874390Y413300D01*
X872890Y413300D01*
X872890Y426300D01*
X872890Y414725D02*
X874390Y414725D01*
X874390Y416150D02*
X872890Y416150D01*
X872890Y417575D02*
X874390Y417575D01*
X874390Y419000D02*
X872890Y419000D01*
X872890Y420425D02*
X874390Y420425D01*
X874390Y421850D02*
X872890Y421850D01*
X872890Y423275D02*
X874390Y423275D01*
X874390Y424700D02*
X872890Y424700D01*
X872890Y426125D02*
X874390Y426125D01*
X869390Y426300D02*
X867890Y426300D01*
X869390Y426300D02*
X869390Y413300D01*
X867890Y413300D01*
X867890Y426300D01*
X867890Y414725D02*
X869390Y414725D01*
X869390Y416150D02*
X867890Y416150D01*
X867890Y417575D02*
X869390Y417575D01*
X869390Y419000D02*
X867890Y419000D01*
X867890Y420425D02*
X869390Y420425D01*
X869390Y421850D02*
X867890Y421850D01*
X867890Y423275D02*
X869390Y423275D01*
X869390Y424700D02*
X867890Y424700D01*
X867890Y426125D02*
X869390Y426125D01*
X864390Y426300D02*
X862890Y426300D01*
X864390Y426300D02*
X864390Y413300D01*
X862890Y413300D01*
X862890Y426300D01*
X862890Y414725D02*
X864390Y414725D01*
X864390Y416150D02*
X862890Y416150D01*
X862890Y417575D02*
X864390Y417575D01*
X864390Y419000D02*
X862890Y419000D01*
X862890Y420425D02*
X864390Y420425D01*
X864390Y421850D02*
X862890Y421850D01*
X862890Y423275D02*
X864390Y423275D01*
X864390Y424700D02*
X862890Y424700D01*
X862890Y426125D02*
X864390Y426125D01*
X859390Y426300D02*
X857890Y426300D01*
X859390Y426300D02*
X859390Y413300D01*
X857890Y413300D01*
X857890Y426300D01*
X857890Y414725D02*
X859390Y414725D01*
X859390Y416150D02*
X857890Y416150D01*
X857890Y417575D02*
X859390Y417575D01*
X859390Y419000D02*
X857890Y419000D01*
X857890Y420425D02*
X859390Y420425D01*
X859390Y421850D02*
X857890Y421850D01*
X857890Y423275D02*
X859390Y423275D01*
X859390Y424700D02*
X857890Y424700D01*
X857890Y426125D02*
X859390Y426125D01*
X854390Y426300D02*
X852890Y426300D01*
X854390Y426300D02*
X854390Y413300D01*
X852890Y413300D01*
X852890Y426300D01*
X852890Y414725D02*
X854390Y414725D01*
X854390Y416150D02*
X852890Y416150D01*
X852890Y417575D02*
X854390Y417575D01*
X854390Y419000D02*
X852890Y419000D01*
X852890Y420425D02*
X854390Y420425D01*
X854390Y421850D02*
X852890Y421850D01*
X852890Y423275D02*
X854390Y423275D01*
X854390Y424700D02*
X852890Y424700D01*
X852890Y426125D02*
X854390Y426125D01*
X849390Y426300D02*
X847890Y426300D01*
X849390Y426300D02*
X849390Y413300D01*
X847890Y413300D01*
X847890Y426300D01*
X847890Y414725D02*
X849390Y414725D01*
X849390Y416150D02*
X847890Y416150D01*
X847890Y417575D02*
X849390Y417575D01*
X849390Y419000D02*
X847890Y419000D01*
X847890Y420425D02*
X849390Y420425D01*
X849390Y421850D02*
X847890Y421850D01*
X847890Y423275D02*
X849390Y423275D01*
X849390Y424700D02*
X847890Y424700D01*
X847890Y426125D02*
X849390Y426125D01*
X844390Y426300D02*
X842890Y426300D01*
X844390Y426300D02*
X844390Y413300D01*
X842890Y413300D01*
X842890Y426300D01*
X842890Y414725D02*
X844390Y414725D01*
X844390Y416150D02*
X842890Y416150D01*
X842890Y417575D02*
X844390Y417575D01*
X844390Y419000D02*
X842890Y419000D01*
X842890Y420425D02*
X844390Y420425D01*
X844390Y421850D02*
X842890Y421850D01*
X842890Y423275D02*
X844390Y423275D01*
X844390Y424700D02*
X842890Y424700D01*
X842890Y426125D02*
X844390Y426125D01*
X839390Y426300D02*
X837890Y426300D01*
X839390Y426300D02*
X839390Y413300D01*
X837890Y413300D01*
X837890Y426300D01*
X837890Y414725D02*
X839390Y414725D01*
X839390Y416150D02*
X837890Y416150D01*
X837890Y417575D02*
X839390Y417575D01*
X839390Y419000D02*
X837890Y419000D01*
X837890Y420425D02*
X839390Y420425D01*
X839390Y421850D02*
X837890Y421850D01*
X837890Y423275D02*
X839390Y423275D01*
X839390Y424700D02*
X837890Y424700D01*
X837890Y426125D02*
X839390Y426125D01*
X834390Y426300D02*
X832890Y426300D01*
X834390Y426300D02*
X834390Y413300D01*
X832890Y413300D01*
X832890Y426300D01*
X832890Y414725D02*
X834390Y414725D01*
X834390Y416150D02*
X832890Y416150D01*
X832890Y417575D02*
X834390Y417575D01*
X834390Y419000D02*
X832890Y419000D01*
X832890Y420425D02*
X834390Y420425D01*
X834390Y421850D02*
X832890Y421850D01*
X832890Y423275D02*
X834390Y423275D01*
X834390Y424700D02*
X832890Y424700D01*
X832890Y426125D02*
X834390Y426125D01*
X829390Y426300D02*
X827890Y426300D01*
X829390Y426300D02*
X829390Y413300D01*
X827890Y413300D01*
X827890Y426300D01*
X827890Y414725D02*
X829390Y414725D01*
X829390Y416150D02*
X827890Y416150D01*
X827890Y417575D02*
X829390Y417575D01*
X829390Y419000D02*
X827890Y419000D01*
X827890Y420425D02*
X829390Y420425D01*
X829390Y421850D02*
X827890Y421850D01*
X827890Y423275D02*
X829390Y423275D01*
X829390Y424700D02*
X827890Y424700D01*
X827890Y426125D02*
X829390Y426125D01*
X824390Y426300D02*
X822890Y426300D01*
X824390Y426300D02*
X824390Y413300D01*
X822890Y413300D01*
X822890Y426300D01*
X822890Y414725D02*
X824390Y414725D01*
X824390Y416150D02*
X822890Y416150D01*
X822890Y417575D02*
X824390Y417575D01*
X824390Y419000D02*
X822890Y419000D01*
X822890Y420425D02*
X824390Y420425D01*
X824390Y421850D02*
X822890Y421850D01*
X822890Y423275D02*
X824390Y423275D01*
X824390Y424700D02*
X822890Y424700D01*
X822890Y426125D02*
X824390Y426125D01*
X819390Y426300D02*
X817890Y426300D01*
X819390Y426300D02*
X819390Y413300D01*
X817890Y413300D01*
X817890Y426300D01*
X817890Y414725D02*
X819390Y414725D01*
X819390Y416150D02*
X817890Y416150D01*
X817890Y417575D02*
X819390Y417575D01*
X819390Y419000D02*
X817890Y419000D01*
X817890Y420425D02*
X819390Y420425D01*
X819390Y421850D02*
X817890Y421850D01*
X817890Y423275D02*
X819390Y423275D01*
X819390Y424700D02*
X817890Y424700D01*
X817890Y426125D02*
X819390Y426125D01*
X814390Y426300D02*
X812890Y426300D01*
X814390Y426300D02*
X814390Y413300D01*
X812890Y413300D01*
X812890Y426300D01*
X812890Y414725D02*
X814390Y414725D01*
X814390Y416150D02*
X812890Y416150D01*
X812890Y417575D02*
X814390Y417575D01*
X814390Y419000D02*
X812890Y419000D01*
X812890Y420425D02*
X814390Y420425D01*
X814390Y421850D02*
X812890Y421850D01*
X812890Y423275D02*
X814390Y423275D01*
X814390Y424700D02*
X812890Y424700D01*
X812890Y426125D02*
X814390Y426125D01*
X809390Y426300D02*
X807890Y426300D01*
X809390Y426300D02*
X809390Y413300D01*
X807890Y413300D01*
X807890Y426300D01*
X807890Y414725D02*
X809390Y414725D01*
X809390Y416150D02*
X807890Y416150D01*
X807890Y417575D02*
X809390Y417575D01*
X809390Y419000D02*
X807890Y419000D01*
X807890Y420425D02*
X809390Y420425D01*
X809390Y421850D02*
X807890Y421850D01*
X807890Y423275D02*
X809390Y423275D01*
X809390Y424700D02*
X807890Y424700D01*
X807890Y426125D02*
X809390Y426125D01*
X804390Y426300D02*
X802890Y426300D01*
X804390Y426300D02*
X804390Y413300D01*
X802890Y413300D01*
X802890Y426300D01*
X802890Y414725D02*
X804390Y414725D01*
X804390Y416150D02*
X802890Y416150D01*
X802890Y417575D02*
X804390Y417575D01*
X804390Y419000D02*
X802890Y419000D01*
X802890Y420425D02*
X804390Y420425D01*
X804390Y421850D02*
X802890Y421850D01*
X802890Y423275D02*
X804390Y423275D01*
X804390Y424700D02*
X802890Y424700D01*
X802890Y426125D02*
X804390Y426125D01*
X799390Y426300D02*
X797890Y426300D01*
X799390Y426300D02*
X799390Y413300D01*
X797890Y413300D01*
X797890Y426300D01*
X797890Y414725D02*
X799390Y414725D01*
X799390Y416150D02*
X797890Y416150D01*
X797890Y417575D02*
X799390Y417575D01*
X799390Y419000D02*
X797890Y419000D01*
X797890Y420425D02*
X799390Y420425D01*
X799390Y421850D02*
X797890Y421850D01*
X797890Y423275D02*
X799390Y423275D01*
X799390Y424700D02*
X797890Y424700D01*
X797890Y426125D02*
X799390Y426125D01*
X794390Y426300D02*
X792890Y426300D01*
X794390Y426300D02*
X794390Y413300D01*
X792890Y413300D01*
X792890Y426300D01*
X792890Y414725D02*
X794390Y414725D01*
X794390Y416150D02*
X792890Y416150D01*
X792890Y417575D02*
X794390Y417575D01*
X794390Y419000D02*
X792890Y419000D01*
X792890Y420425D02*
X794390Y420425D01*
X794390Y421850D02*
X792890Y421850D01*
X792890Y423275D02*
X794390Y423275D01*
X794390Y424700D02*
X792890Y424700D01*
X792890Y426125D02*
X794390Y426125D01*
X789390Y426300D02*
X787890Y426300D01*
X789390Y426300D02*
X789390Y413300D01*
X787890Y413300D01*
X787890Y426300D01*
X787890Y414725D02*
X789390Y414725D01*
X789390Y416150D02*
X787890Y416150D01*
X787890Y417575D02*
X789390Y417575D01*
X789390Y419000D02*
X787890Y419000D01*
X787890Y420425D02*
X789390Y420425D01*
X789390Y421850D02*
X787890Y421850D01*
X787890Y423275D02*
X789390Y423275D01*
X789390Y424700D02*
X787890Y424700D01*
X787890Y426125D02*
X789390Y426125D01*
X784390Y426300D02*
X782890Y426300D01*
X784390Y426300D02*
X784390Y413300D01*
X782890Y413300D01*
X782890Y426300D01*
X782890Y414725D02*
X784390Y414725D01*
X784390Y416150D02*
X782890Y416150D01*
X782890Y417575D02*
X784390Y417575D01*
X784390Y419000D02*
X782890Y419000D01*
X782890Y420425D02*
X784390Y420425D01*
X784390Y421850D02*
X782890Y421850D01*
X782890Y423275D02*
X784390Y423275D01*
X784390Y424700D02*
X782890Y424700D01*
X782890Y426125D02*
X784390Y426125D01*
X779390Y426300D02*
X777890Y426300D01*
X779390Y426300D02*
X779390Y413300D01*
X777890Y413300D01*
X777890Y426300D01*
X777890Y414725D02*
X779390Y414725D01*
X779390Y416150D02*
X777890Y416150D01*
X777890Y417575D02*
X779390Y417575D01*
X779390Y419000D02*
X777890Y419000D01*
X777890Y420425D02*
X779390Y420425D01*
X779390Y421850D02*
X777890Y421850D01*
X777890Y423275D02*
X779390Y423275D01*
X779390Y424700D02*
X777890Y424700D01*
X777890Y426125D02*
X779390Y426125D01*
X752390Y438800D02*
X752390Y440300D01*
X765390Y440300D01*
X765390Y438800D01*
X752390Y438800D01*
X752390Y440225D02*
X765390Y440225D01*
X752390Y443800D02*
X752390Y445300D01*
X765390Y445300D01*
X765390Y443800D01*
X752390Y443800D01*
X752390Y445225D02*
X765390Y445225D01*
X752390Y448800D02*
X752390Y450300D01*
X765390Y450300D01*
X765390Y448800D01*
X752390Y448800D01*
X752390Y450225D02*
X765390Y450225D01*
X752390Y453800D02*
X752390Y455300D01*
X765390Y455300D01*
X765390Y453800D01*
X752390Y453800D01*
X752390Y455225D02*
X765390Y455225D01*
X752390Y458800D02*
X752390Y460300D01*
X765390Y460300D01*
X765390Y458800D01*
X752390Y458800D01*
X752390Y460225D02*
X765390Y460225D01*
X752390Y463800D02*
X752390Y465300D01*
X765390Y465300D01*
X765390Y463800D01*
X752390Y463800D01*
X752390Y465225D02*
X765390Y465225D01*
X752390Y468800D02*
X752390Y470300D01*
X765390Y470300D01*
X765390Y468800D01*
X752390Y468800D01*
X752390Y470225D02*
X765390Y470225D01*
X752390Y473800D02*
X752390Y475300D01*
X765390Y475300D01*
X765390Y473800D01*
X752390Y473800D01*
X752390Y475225D02*
X765390Y475225D01*
X752390Y478800D02*
X752390Y480300D01*
X765390Y480300D01*
X765390Y478800D01*
X752390Y478800D01*
X752390Y480225D02*
X765390Y480225D01*
X752390Y483800D02*
X752390Y485300D01*
X765390Y485300D01*
X765390Y483800D01*
X752390Y483800D01*
X752390Y485225D02*
X765390Y485225D01*
X752390Y488800D02*
X752390Y490300D01*
X765390Y490300D01*
X765390Y488800D01*
X752390Y488800D01*
X752390Y490225D02*
X765390Y490225D01*
X752390Y493800D02*
X752390Y495300D01*
X765390Y495300D01*
X765390Y493800D01*
X752390Y493800D01*
X752390Y495225D02*
X765390Y495225D01*
X752390Y498800D02*
X752390Y500300D01*
X765390Y500300D01*
X765390Y498800D01*
X752390Y498800D01*
X752390Y500225D02*
X765390Y500225D01*
X752390Y503800D02*
X752390Y505300D01*
X765390Y505300D01*
X765390Y503800D01*
X752390Y503800D01*
X752390Y505225D02*
X765390Y505225D01*
X752390Y508800D02*
X752390Y510300D01*
X765390Y510300D01*
X765390Y508800D01*
X752390Y508800D01*
X752390Y510225D02*
X765390Y510225D01*
X752390Y513800D02*
X752390Y515300D01*
X765390Y515300D01*
X765390Y513800D01*
X752390Y513800D01*
X752390Y515225D02*
X765390Y515225D01*
X752390Y518800D02*
X752390Y520300D01*
X765390Y520300D01*
X765390Y518800D01*
X752390Y518800D01*
X752390Y520225D02*
X765390Y520225D01*
X752390Y523800D02*
X752390Y525300D01*
X765390Y525300D01*
X765390Y523800D01*
X752390Y523800D01*
X752390Y525225D02*
X765390Y525225D01*
X752390Y528800D02*
X752390Y530300D01*
X765390Y530300D01*
X765390Y528800D01*
X752390Y528800D01*
X752390Y530225D02*
X765390Y530225D01*
X752390Y533800D02*
X752390Y535300D01*
X765390Y535300D01*
X765390Y533800D01*
X752390Y533800D01*
X752390Y535225D02*
X765390Y535225D01*
X752390Y538800D02*
X752390Y540300D01*
X765390Y540300D01*
X765390Y538800D01*
X752390Y538800D01*
X752390Y540225D02*
X765390Y540225D01*
X752390Y543800D02*
X752390Y545300D01*
X765390Y545300D01*
X765390Y543800D01*
X752390Y543800D01*
X752390Y545225D02*
X765390Y545225D01*
X752390Y548800D02*
X752390Y550300D01*
X765390Y550300D01*
X765390Y548800D01*
X752390Y548800D01*
X752390Y550225D02*
X765390Y550225D01*
X752390Y553800D02*
X752390Y555300D01*
X765390Y555300D01*
X765390Y553800D01*
X752390Y553800D01*
X752390Y555225D02*
X765390Y555225D01*
X752390Y558800D02*
X752390Y560300D01*
X765390Y560300D01*
X765390Y558800D01*
X752390Y558800D01*
X752390Y560225D02*
X765390Y560225D01*
X752390Y563800D02*
X752390Y565300D01*
X765390Y565300D01*
X765390Y563800D01*
X752390Y563800D01*
X752390Y565225D02*
X765390Y565225D01*
X752390Y568800D02*
X752390Y570300D01*
X765390Y570300D01*
X765390Y568800D01*
X752390Y568800D01*
X752390Y570225D02*
X765390Y570225D01*
X752390Y573800D02*
X752390Y575300D01*
X765390Y575300D01*
X765390Y573800D01*
X752390Y573800D01*
X752390Y575225D02*
X765390Y575225D01*
X752390Y578800D02*
X752390Y580300D01*
X765390Y580300D01*
X765390Y578800D01*
X752390Y578800D01*
X752390Y580225D02*
X765390Y580225D01*
X752390Y583800D02*
X752390Y585300D01*
X765390Y585300D01*
X765390Y583800D01*
X752390Y583800D01*
X752390Y585225D02*
X765390Y585225D01*
X752390Y588800D02*
X752390Y590300D01*
X765390Y590300D01*
X765390Y588800D01*
X752390Y588800D01*
X752390Y590225D02*
X765390Y590225D01*
X752390Y593800D02*
X752390Y595300D01*
X765390Y595300D01*
X765390Y593800D01*
X752390Y593800D01*
X752390Y595225D02*
X765390Y595225D01*
X752390Y598800D02*
X752390Y600300D01*
X765390Y600300D01*
X765390Y598800D01*
X752390Y598800D01*
X752390Y600225D02*
X765390Y600225D01*
X752390Y603800D02*
X752390Y605300D01*
X765390Y605300D01*
X765390Y603800D01*
X752390Y603800D01*
X752390Y605225D02*
X765390Y605225D01*
X752390Y608800D02*
X752390Y610300D01*
X765390Y610300D01*
X765390Y608800D01*
X752390Y608800D01*
X752390Y610225D02*
X765390Y610225D01*
X752390Y613800D02*
X752390Y615300D01*
X765390Y615300D01*
X765390Y613800D01*
X752390Y613800D01*
X752390Y615225D02*
X765390Y615225D01*
X777890Y640800D02*
X779390Y640800D01*
X779390Y627800D01*
X777890Y627800D01*
X777890Y640800D01*
X777890Y629225D02*
X779390Y629225D01*
X779390Y630650D02*
X777890Y630650D01*
X777890Y632075D02*
X779390Y632075D01*
X779390Y633500D02*
X777890Y633500D01*
X777890Y634925D02*
X779390Y634925D01*
X779390Y636350D02*
X777890Y636350D01*
X777890Y637775D02*
X779390Y637775D01*
X779390Y639200D02*
X777890Y639200D01*
X777890Y640625D02*
X779390Y640625D01*
X782890Y640800D02*
X784390Y640800D01*
X784390Y627800D01*
X782890Y627800D01*
X782890Y640800D01*
X782890Y629225D02*
X784390Y629225D01*
X784390Y630650D02*
X782890Y630650D01*
X782890Y632075D02*
X784390Y632075D01*
X784390Y633500D02*
X782890Y633500D01*
X782890Y634925D02*
X784390Y634925D01*
X784390Y636350D02*
X782890Y636350D01*
X782890Y637775D02*
X784390Y637775D01*
X784390Y639200D02*
X782890Y639200D01*
X782890Y640625D02*
X784390Y640625D01*
X787890Y640800D02*
X789390Y640800D01*
X789390Y627800D01*
X787890Y627800D01*
X787890Y640800D01*
X787890Y629225D02*
X789390Y629225D01*
X789390Y630650D02*
X787890Y630650D01*
X787890Y632075D02*
X789390Y632075D01*
X789390Y633500D02*
X787890Y633500D01*
X787890Y634925D02*
X789390Y634925D01*
X789390Y636350D02*
X787890Y636350D01*
X787890Y637775D02*
X789390Y637775D01*
X789390Y639200D02*
X787890Y639200D01*
X787890Y640625D02*
X789390Y640625D01*
X792890Y640800D02*
X794390Y640800D01*
X794390Y627800D01*
X792890Y627800D01*
X792890Y640800D01*
X792890Y629225D02*
X794390Y629225D01*
X794390Y630650D02*
X792890Y630650D01*
X792890Y632075D02*
X794390Y632075D01*
X794390Y633500D02*
X792890Y633500D01*
X792890Y634925D02*
X794390Y634925D01*
X794390Y636350D02*
X792890Y636350D01*
X792890Y637775D02*
X794390Y637775D01*
X794390Y639200D02*
X792890Y639200D01*
X792890Y640625D02*
X794390Y640625D01*
X797890Y640800D02*
X799390Y640800D01*
X799390Y627800D01*
X797890Y627800D01*
X797890Y640800D01*
X797890Y629225D02*
X799390Y629225D01*
X799390Y630650D02*
X797890Y630650D01*
X797890Y632075D02*
X799390Y632075D01*
X799390Y633500D02*
X797890Y633500D01*
X797890Y634925D02*
X799390Y634925D01*
X799390Y636350D02*
X797890Y636350D01*
X797890Y637775D02*
X799390Y637775D01*
X799390Y639200D02*
X797890Y639200D01*
X797890Y640625D02*
X799390Y640625D01*
X802890Y640800D02*
X804390Y640800D01*
X804390Y627800D01*
X802890Y627800D01*
X802890Y640800D01*
X802890Y629225D02*
X804390Y629225D01*
X804390Y630650D02*
X802890Y630650D01*
X802890Y632075D02*
X804390Y632075D01*
X804390Y633500D02*
X802890Y633500D01*
X802890Y634925D02*
X804390Y634925D01*
X804390Y636350D02*
X802890Y636350D01*
X802890Y637775D02*
X804390Y637775D01*
X804390Y639200D02*
X802890Y639200D01*
X802890Y640625D02*
X804390Y640625D01*
X807890Y640800D02*
X809390Y640800D01*
X809390Y627800D01*
X807890Y627800D01*
X807890Y640800D01*
X807890Y629225D02*
X809390Y629225D01*
X809390Y630650D02*
X807890Y630650D01*
X807890Y632075D02*
X809390Y632075D01*
X809390Y633500D02*
X807890Y633500D01*
X807890Y634925D02*
X809390Y634925D01*
X809390Y636350D02*
X807890Y636350D01*
X807890Y637775D02*
X809390Y637775D01*
X809390Y639200D02*
X807890Y639200D01*
X807890Y640625D02*
X809390Y640625D01*
X812890Y640800D02*
X814390Y640800D01*
X814390Y627800D01*
X812890Y627800D01*
X812890Y640800D01*
X812890Y629225D02*
X814390Y629225D01*
X814390Y630650D02*
X812890Y630650D01*
X812890Y632075D02*
X814390Y632075D01*
X814390Y633500D02*
X812890Y633500D01*
X812890Y634925D02*
X814390Y634925D01*
X814390Y636350D02*
X812890Y636350D01*
X812890Y637775D02*
X814390Y637775D01*
X814390Y639200D02*
X812890Y639200D01*
X812890Y640625D02*
X814390Y640625D01*
X817890Y640800D02*
X819390Y640800D01*
X819390Y627800D01*
X817890Y627800D01*
X817890Y640800D01*
X817890Y629225D02*
X819390Y629225D01*
X819390Y630650D02*
X817890Y630650D01*
X817890Y632075D02*
X819390Y632075D01*
X819390Y633500D02*
X817890Y633500D01*
X817890Y634925D02*
X819390Y634925D01*
X819390Y636350D02*
X817890Y636350D01*
X817890Y637775D02*
X819390Y637775D01*
X819390Y639200D02*
X817890Y639200D01*
X817890Y640625D02*
X819390Y640625D01*
X822890Y640800D02*
X824390Y640800D01*
X824390Y627800D01*
X822890Y627800D01*
X822890Y640800D01*
X822890Y629225D02*
X824390Y629225D01*
X824390Y630650D02*
X822890Y630650D01*
X822890Y632075D02*
X824390Y632075D01*
X824390Y633500D02*
X822890Y633500D01*
X822890Y634925D02*
X824390Y634925D01*
X824390Y636350D02*
X822890Y636350D01*
X822890Y637775D02*
X824390Y637775D01*
X824390Y639200D02*
X822890Y639200D01*
X822890Y640625D02*
X824390Y640625D01*
X827890Y640800D02*
X829390Y640800D01*
X829390Y627800D01*
X827890Y627800D01*
X827890Y640800D01*
X827890Y629225D02*
X829390Y629225D01*
X829390Y630650D02*
X827890Y630650D01*
X827890Y632075D02*
X829390Y632075D01*
X829390Y633500D02*
X827890Y633500D01*
X827890Y634925D02*
X829390Y634925D01*
X829390Y636350D02*
X827890Y636350D01*
X827890Y637775D02*
X829390Y637775D01*
X829390Y639200D02*
X827890Y639200D01*
X827890Y640625D02*
X829390Y640625D01*
X832890Y640800D02*
X834390Y640800D01*
X834390Y627800D01*
X832890Y627800D01*
X832890Y640800D01*
X832890Y629225D02*
X834390Y629225D01*
X834390Y630650D02*
X832890Y630650D01*
X832890Y632075D02*
X834390Y632075D01*
X834390Y633500D02*
X832890Y633500D01*
X832890Y634925D02*
X834390Y634925D01*
X834390Y636350D02*
X832890Y636350D01*
X832890Y637775D02*
X834390Y637775D01*
X834390Y639200D02*
X832890Y639200D01*
X832890Y640625D02*
X834390Y640625D01*
X837890Y640800D02*
X839390Y640800D01*
X839390Y627800D01*
X837890Y627800D01*
X837890Y640800D01*
X837890Y629225D02*
X839390Y629225D01*
X839390Y630650D02*
X837890Y630650D01*
X837890Y632075D02*
X839390Y632075D01*
X839390Y633500D02*
X837890Y633500D01*
X837890Y634925D02*
X839390Y634925D01*
X839390Y636350D02*
X837890Y636350D01*
X837890Y637775D02*
X839390Y637775D01*
X839390Y639200D02*
X837890Y639200D01*
X837890Y640625D02*
X839390Y640625D01*
X842890Y640800D02*
X844390Y640800D01*
X844390Y627800D01*
X842890Y627800D01*
X842890Y640800D01*
X842890Y629225D02*
X844390Y629225D01*
X844390Y630650D02*
X842890Y630650D01*
X842890Y632075D02*
X844390Y632075D01*
X844390Y633500D02*
X842890Y633500D01*
X842890Y634925D02*
X844390Y634925D01*
X844390Y636350D02*
X842890Y636350D01*
X842890Y637775D02*
X844390Y637775D01*
X844390Y639200D02*
X842890Y639200D01*
X842890Y640625D02*
X844390Y640625D01*
X847890Y640800D02*
X849390Y640800D01*
X849390Y627800D01*
X847890Y627800D01*
X847890Y640800D01*
X847890Y629225D02*
X849390Y629225D01*
X849390Y630650D02*
X847890Y630650D01*
X847890Y632075D02*
X849390Y632075D01*
X849390Y633500D02*
X847890Y633500D01*
X847890Y634925D02*
X849390Y634925D01*
X849390Y636350D02*
X847890Y636350D01*
X847890Y637775D02*
X849390Y637775D01*
X849390Y639200D02*
X847890Y639200D01*
X847890Y640625D02*
X849390Y640625D01*
X852890Y640800D02*
X854390Y640800D01*
X854390Y627800D01*
X852890Y627800D01*
X852890Y640800D01*
X852890Y629225D02*
X854390Y629225D01*
X854390Y630650D02*
X852890Y630650D01*
X852890Y632075D02*
X854390Y632075D01*
X854390Y633500D02*
X852890Y633500D01*
X852890Y634925D02*
X854390Y634925D01*
X854390Y636350D02*
X852890Y636350D01*
X852890Y637775D02*
X854390Y637775D01*
X854390Y639200D02*
X852890Y639200D01*
X852890Y640625D02*
X854390Y640625D01*
X857890Y640800D02*
X859390Y640800D01*
X859390Y627800D01*
X857890Y627800D01*
X857890Y640800D01*
X857890Y629225D02*
X859390Y629225D01*
X859390Y630650D02*
X857890Y630650D01*
X857890Y632075D02*
X859390Y632075D01*
X859390Y633500D02*
X857890Y633500D01*
X857890Y634925D02*
X859390Y634925D01*
X859390Y636350D02*
X857890Y636350D01*
X857890Y637775D02*
X859390Y637775D01*
X859390Y639200D02*
X857890Y639200D01*
X857890Y640625D02*
X859390Y640625D01*
X862890Y640800D02*
X864390Y640800D01*
X864390Y627800D01*
X862890Y627800D01*
X862890Y640800D01*
X862890Y629225D02*
X864390Y629225D01*
X864390Y630650D02*
X862890Y630650D01*
X862890Y632075D02*
X864390Y632075D01*
X864390Y633500D02*
X862890Y633500D01*
X862890Y634925D02*
X864390Y634925D01*
X864390Y636350D02*
X862890Y636350D01*
X862890Y637775D02*
X864390Y637775D01*
X864390Y639200D02*
X862890Y639200D01*
X862890Y640625D02*
X864390Y640625D01*
X867890Y640800D02*
X869390Y640800D01*
X869390Y627800D01*
X867890Y627800D01*
X867890Y640800D01*
X867890Y629225D02*
X869390Y629225D01*
X869390Y630650D02*
X867890Y630650D01*
X867890Y632075D02*
X869390Y632075D01*
X869390Y633500D02*
X867890Y633500D01*
X867890Y634925D02*
X869390Y634925D01*
X869390Y636350D02*
X867890Y636350D01*
X867890Y637775D02*
X869390Y637775D01*
X869390Y639200D02*
X867890Y639200D01*
X867890Y640625D02*
X869390Y640625D01*
X872890Y640800D02*
X874390Y640800D01*
X874390Y627800D01*
X872890Y627800D01*
X872890Y640800D01*
X872890Y629225D02*
X874390Y629225D01*
X874390Y630650D02*
X872890Y630650D01*
X872890Y632075D02*
X874390Y632075D01*
X874390Y633500D02*
X872890Y633500D01*
X872890Y634925D02*
X874390Y634925D01*
X874390Y636350D02*
X872890Y636350D01*
X872890Y637775D02*
X874390Y637775D01*
X874390Y639200D02*
X872890Y639200D01*
X872890Y640625D02*
X874390Y640625D01*
X877890Y640800D02*
X879390Y640800D01*
X879390Y627800D01*
X877890Y627800D01*
X877890Y640800D01*
X877890Y629225D02*
X879390Y629225D01*
X879390Y630650D02*
X877890Y630650D01*
X877890Y632075D02*
X879390Y632075D01*
X879390Y633500D02*
X877890Y633500D01*
X877890Y634925D02*
X879390Y634925D01*
X879390Y636350D02*
X877890Y636350D01*
X877890Y637775D02*
X879390Y637775D01*
X879390Y639200D02*
X877890Y639200D01*
X877890Y640625D02*
X879390Y640625D01*
X882890Y640800D02*
X884390Y640800D01*
X884390Y627800D01*
X882890Y627800D01*
X882890Y640800D01*
X882890Y629225D02*
X884390Y629225D01*
X884390Y630650D02*
X882890Y630650D01*
X882890Y632075D02*
X884390Y632075D01*
X884390Y633500D02*
X882890Y633500D01*
X882890Y634925D02*
X884390Y634925D01*
X884390Y636350D02*
X882890Y636350D01*
X882890Y637775D02*
X884390Y637775D01*
X884390Y639200D02*
X882890Y639200D01*
X882890Y640625D02*
X884390Y640625D01*
X887890Y640800D02*
X889390Y640800D01*
X889390Y627800D01*
X887890Y627800D01*
X887890Y640800D01*
X887890Y629225D02*
X889390Y629225D01*
X889390Y630650D02*
X887890Y630650D01*
X887890Y632075D02*
X889390Y632075D01*
X889390Y633500D02*
X887890Y633500D01*
X887890Y634925D02*
X889390Y634925D01*
X889390Y636350D02*
X887890Y636350D01*
X887890Y637775D02*
X889390Y637775D01*
X889390Y639200D02*
X887890Y639200D01*
X887890Y640625D02*
X889390Y640625D01*
X892890Y640800D02*
X894390Y640800D01*
X894390Y627800D01*
X892890Y627800D01*
X892890Y640800D01*
X892890Y629225D02*
X894390Y629225D01*
X894390Y630650D02*
X892890Y630650D01*
X892890Y632075D02*
X894390Y632075D01*
X894390Y633500D02*
X892890Y633500D01*
X892890Y634925D02*
X894390Y634925D01*
X894390Y636350D02*
X892890Y636350D01*
X892890Y637775D02*
X894390Y637775D01*
X894390Y639200D02*
X892890Y639200D01*
X892890Y640625D02*
X894390Y640625D01*
X897890Y640800D02*
X899390Y640800D01*
X899390Y627800D01*
X897890Y627800D01*
X897890Y640800D01*
X897890Y629225D02*
X899390Y629225D01*
X899390Y630650D02*
X897890Y630650D01*
X897890Y632075D02*
X899390Y632075D01*
X899390Y633500D02*
X897890Y633500D01*
X897890Y634925D02*
X899390Y634925D01*
X899390Y636350D02*
X897890Y636350D01*
X897890Y637775D02*
X899390Y637775D01*
X899390Y639200D02*
X897890Y639200D01*
X897890Y640625D02*
X899390Y640625D01*
X902890Y640800D02*
X904390Y640800D01*
X904390Y627800D01*
X902890Y627800D01*
X902890Y640800D01*
X902890Y629225D02*
X904390Y629225D01*
X904390Y630650D02*
X902890Y630650D01*
X902890Y632075D02*
X904390Y632075D01*
X904390Y633500D02*
X902890Y633500D01*
X902890Y634925D02*
X904390Y634925D01*
X904390Y636350D02*
X902890Y636350D01*
X902890Y637775D02*
X904390Y637775D01*
X904390Y639200D02*
X902890Y639200D01*
X902890Y640625D02*
X904390Y640625D01*
X907890Y640800D02*
X909390Y640800D01*
X909390Y627800D01*
X907890Y627800D01*
X907890Y640800D01*
X907890Y629225D02*
X909390Y629225D01*
X909390Y630650D02*
X907890Y630650D01*
X907890Y632075D02*
X909390Y632075D01*
X909390Y633500D02*
X907890Y633500D01*
X907890Y634925D02*
X909390Y634925D01*
X909390Y636350D02*
X907890Y636350D01*
X907890Y637775D02*
X909390Y637775D01*
X909390Y639200D02*
X907890Y639200D01*
X907890Y640625D02*
X909390Y640625D01*
X912890Y640800D02*
X914390Y640800D01*
X914390Y627800D01*
X912890Y627800D01*
X912890Y640800D01*
X912890Y629225D02*
X914390Y629225D01*
X914390Y630650D02*
X912890Y630650D01*
X912890Y632075D02*
X914390Y632075D01*
X914390Y633500D02*
X912890Y633500D01*
X912890Y634925D02*
X914390Y634925D01*
X914390Y636350D02*
X912890Y636350D01*
X912890Y637775D02*
X914390Y637775D01*
X914390Y639200D02*
X912890Y639200D01*
X912890Y640625D02*
X914390Y640625D01*
X917890Y640800D02*
X919390Y640800D01*
X919390Y627800D01*
X917890Y627800D01*
X917890Y640800D01*
X917890Y629225D02*
X919390Y629225D01*
X919390Y630650D02*
X917890Y630650D01*
X917890Y632075D02*
X919390Y632075D01*
X919390Y633500D02*
X917890Y633500D01*
X917890Y634925D02*
X919390Y634925D01*
X919390Y636350D02*
X917890Y636350D01*
X917890Y637775D02*
X919390Y637775D01*
X919390Y639200D02*
X917890Y639200D01*
X917890Y640625D02*
X919390Y640625D01*
X922890Y640800D02*
X924390Y640800D01*
X924390Y627800D01*
X922890Y627800D01*
X922890Y640800D01*
X922890Y629225D02*
X924390Y629225D01*
X924390Y630650D02*
X922890Y630650D01*
X922890Y632075D02*
X924390Y632075D01*
X924390Y633500D02*
X922890Y633500D01*
X922890Y634925D02*
X924390Y634925D01*
X924390Y636350D02*
X922890Y636350D01*
X922890Y637775D02*
X924390Y637775D01*
X924390Y639200D02*
X922890Y639200D01*
X922890Y640625D02*
X924390Y640625D01*
X927890Y640800D02*
X929390Y640800D01*
X929390Y627800D01*
X927890Y627800D01*
X927890Y640800D01*
X927890Y629225D02*
X929390Y629225D01*
X929390Y630650D02*
X927890Y630650D01*
X927890Y632075D02*
X929390Y632075D01*
X929390Y633500D02*
X927890Y633500D01*
X927890Y634925D02*
X929390Y634925D01*
X929390Y636350D02*
X927890Y636350D01*
X927890Y637775D02*
X929390Y637775D01*
X929390Y639200D02*
X927890Y639200D01*
X927890Y640625D02*
X929390Y640625D01*
X932890Y640800D02*
X934390Y640800D01*
X934390Y627800D01*
X932890Y627800D01*
X932890Y640800D01*
X932890Y629225D02*
X934390Y629225D01*
X934390Y630650D02*
X932890Y630650D01*
X932890Y632075D02*
X934390Y632075D01*
X934390Y633500D02*
X932890Y633500D01*
X932890Y634925D02*
X934390Y634925D01*
X934390Y636350D02*
X932890Y636350D01*
X932890Y637775D02*
X934390Y637775D01*
X934390Y639200D02*
X932890Y639200D01*
X932890Y640625D02*
X934390Y640625D01*
X937890Y640800D02*
X939390Y640800D01*
X939390Y627800D01*
X937890Y627800D01*
X937890Y640800D01*
X937890Y629225D02*
X939390Y629225D01*
X939390Y630650D02*
X937890Y630650D01*
X937890Y632075D02*
X939390Y632075D01*
X939390Y633500D02*
X937890Y633500D01*
X937890Y634925D02*
X939390Y634925D01*
X939390Y636350D02*
X937890Y636350D01*
X937890Y637775D02*
X939390Y637775D01*
X939390Y639200D02*
X937890Y639200D01*
X937890Y640625D02*
X939390Y640625D01*
X942890Y640800D02*
X944390Y640800D01*
X944390Y627800D01*
X942890Y627800D01*
X942890Y640800D01*
X942890Y629225D02*
X944390Y629225D01*
X944390Y630650D02*
X942890Y630650D01*
X942890Y632075D02*
X944390Y632075D01*
X944390Y633500D02*
X942890Y633500D01*
X942890Y634925D02*
X944390Y634925D01*
X944390Y636350D02*
X942890Y636350D01*
X942890Y637775D02*
X944390Y637775D01*
X944390Y639200D02*
X942890Y639200D01*
X942890Y640625D02*
X944390Y640625D01*
X947890Y640800D02*
X949390Y640800D01*
X949390Y627800D01*
X947890Y627800D01*
X947890Y640800D01*
X947890Y629225D02*
X949390Y629225D01*
X949390Y630650D02*
X947890Y630650D01*
X947890Y632075D02*
X949390Y632075D01*
X949390Y633500D02*
X947890Y633500D01*
X947890Y634925D02*
X949390Y634925D01*
X949390Y636350D02*
X947890Y636350D01*
X947890Y637775D02*
X949390Y637775D01*
X949390Y639200D02*
X947890Y639200D01*
X947890Y640625D02*
X949390Y640625D01*
X952890Y640800D02*
X954390Y640800D01*
X954390Y627800D01*
X952890Y627800D01*
X952890Y640800D01*
X952890Y629225D02*
X954390Y629225D01*
X954390Y630650D02*
X952890Y630650D01*
X952890Y632075D02*
X954390Y632075D01*
X954390Y633500D02*
X952890Y633500D01*
X952890Y634925D02*
X954390Y634925D01*
X954390Y636350D02*
X952890Y636350D01*
X952890Y637775D02*
X954390Y637775D01*
X954390Y639200D02*
X952890Y639200D01*
X952890Y640625D02*
X954390Y640625D01*
X966890Y615300D02*
X966890Y613800D01*
X966890Y615300D02*
X979890Y615300D01*
X979890Y613800D01*
X966890Y613800D01*
X966890Y615225D02*
X979890Y615225D01*
X966890Y610300D02*
X966890Y608800D01*
X966890Y610300D02*
X979890Y610300D01*
X979890Y608800D01*
X966890Y608800D01*
X966890Y610225D02*
X979890Y610225D01*
X966890Y605300D02*
X966890Y603800D01*
X966890Y605300D02*
X979890Y605300D01*
X979890Y603800D01*
X966890Y603800D01*
X966890Y605225D02*
X979890Y605225D01*
X966890Y600300D02*
X966890Y598800D01*
X966890Y600300D02*
X979890Y600300D01*
X979890Y598800D01*
X966890Y598800D01*
X966890Y600225D02*
X979890Y600225D01*
X966890Y595300D02*
X966890Y593800D01*
X966890Y595300D02*
X979890Y595300D01*
X979890Y593800D01*
X966890Y593800D01*
X966890Y595225D02*
X979890Y595225D01*
X966890Y590300D02*
X966890Y588800D01*
X966890Y590300D02*
X979890Y590300D01*
X979890Y588800D01*
X966890Y588800D01*
X966890Y590225D02*
X979890Y590225D01*
X966890Y585300D02*
X966890Y583800D01*
X966890Y585300D02*
X979890Y585300D01*
X979890Y583800D01*
X966890Y583800D01*
X966890Y585225D02*
X979890Y585225D01*
X966890Y580300D02*
X966890Y578800D01*
X966890Y580300D02*
X979890Y580300D01*
X979890Y578800D01*
X966890Y578800D01*
X966890Y580225D02*
X979890Y580225D01*
X966890Y575300D02*
X966890Y573800D01*
X966890Y575300D02*
X979890Y575300D01*
X979890Y573800D01*
X966890Y573800D01*
X966890Y575225D02*
X979890Y575225D01*
X966890Y570300D02*
X966890Y568800D01*
X966890Y570300D02*
X979890Y570300D01*
X979890Y568800D01*
X966890Y568800D01*
X966890Y570225D02*
X979890Y570225D01*
X966890Y565300D02*
X966890Y563800D01*
X966890Y565300D02*
X979890Y565300D01*
X979890Y563800D01*
X966890Y563800D01*
X966890Y565225D02*
X979890Y565225D01*
X966890Y560300D02*
X966890Y558800D01*
X966890Y560300D02*
X979890Y560300D01*
X979890Y558800D01*
X966890Y558800D01*
X966890Y560225D02*
X979890Y560225D01*
X966890Y555300D02*
X966890Y553800D01*
X966890Y555300D02*
X979890Y555300D01*
X979890Y553800D01*
X966890Y553800D01*
X966890Y555225D02*
X979890Y555225D01*
X966890Y550300D02*
X966890Y548800D01*
X966890Y550300D02*
X979890Y550300D01*
X979890Y548800D01*
X966890Y548800D01*
X966890Y550225D02*
X979890Y550225D01*
X966890Y545300D02*
X966890Y543800D01*
X966890Y545300D02*
X979890Y545300D01*
X979890Y543800D01*
X966890Y543800D01*
X966890Y545225D02*
X979890Y545225D01*
X966890Y540300D02*
X966890Y538800D01*
X966890Y540300D02*
X979890Y540300D01*
X979890Y538800D01*
X966890Y538800D01*
X966890Y540225D02*
X979890Y540225D01*
X966890Y535300D02*
X966890Y533800D01*
X966890Y535300D02*
X979890Y535300D01*
X979890Y533800D01*
X966890Y533800D01*
X966890Y535225D02*
X979890Y535225D01*
X966890Y530300D02*
X966890Y528800D01*
X966890Y530300D02*
X979890Y530300D01*
X979890Y528800D01*
X966890Y528800D01*
X966890Y530225D02*
X979890Y530225D01*
X966890Y525300D02*
X966890Y523800D01*
X966890Y525300D02*
X979890Y525300D01*
X979890Y523800D01*
X966890Y523800D01*
X966890Y525225D02*
X979890Y525225D01*
X966890Y520300D02*
X966890Y518800D01*
X966890Y520300D02*
X979890Y520300D01*
X979890Y518800D01*
X966890Y518800D01*
X966890Y520225D02*
X979890Y520225D01*
X966890Y515300D02*
X966890Y513800D01*
X966890Y515300D02*
X979890Y515300D01*
X979890Y513800D01*
X966890Y513800D01*
X966890Y515225D02*
X979890Y515225D01*
X966890Y510300D02*
X966890Y508800D01*
X966890Y510300D02*
X979890Y510300D01*
X979890Y508800D01*
X966890Y508800D01*
X966890Y510225D02*
X979890Y510225D01*
X966890Y505300D02*
X966890Y503800D01*
X966890Y505300D02*
X979890Y505300D01*
X979890Y503800D01*
X966890Y503800D01*
X966890Y505225D02*
X979890Y505225D01*
X966890Y500300D02*
X966890Y498800D01*
X966890Y500300D02*
X979890Y500300D01*
X979890Y498800D01*
X966890Y498800D01*
X966890Y500225D02*
X979890Y500225D01*
X966890Y495300D02*
X966890Y493800D01*
X966890Y495300D02*
X979890Y495300D01*
X979890Y493800D01*
X966890Y493800D01*
X966890Y495225D02*
X979890Y495225D01*
X966890Y490300D02*
X966890Y488800D01*
X966890Y490300D02*
X979890Y490300D01*
X979890Y488800D01*
X966890Y488800D01*
X966890Y490225D02*
X979890Y490225D01*
X966890Y485300D02*
X966890Y483800D01*
X966890Y485300D02*
X979890Y485300D01*
X979890Y483800D01*
X966890Y483800D01*
X966890Y485225D02*
X979890Y485225D01*
X966890Y480300D02*
X966890Y478800D01*
X966890Y480300D02*
X979890Y480300D01*
X979890Y478800D01*
X966890Y478800D01*
X966890Y480225D02*
X979890Y480225D01*
X966890Y475300D02*
X966890Y473800D01*
X966890Y475300D02*
X979890Y475300D01*
X979890Y473800D01*
X966890Y473800D01*
X966890Y475225D02*
X979890Y475225D01*
X966890Y470300D02*
X966890Y468800D01*
X966890Y470300D02*
X979890Y470300D01*
X979890Y468800D01*
X966890Y468800D01*
X966890Y470225D02*
X979890Y470225D01*
X966890Y465300D02*
X966890Y463800D01*
X966890Y465300D02*
X979890Y465300D01*
X979890Y463800D01*
X966890Y463800D01*
X966890Y465225D02*
X979890Y465225D01*
X966890Y460300D02*
X966890Y458800D01*
X966890Y460300D02*
X979890Y460300D01*
X979890Y458800D01*
X966890Y458800D01*
X966890Y460225D02*
X979890Y460225D01*
X966890Y455300D02*
X966890Y453800D01*
X966890Y455300D02*
X979890Y455300D01*
X979890Y453800D01*
X966890Y453800D01*
X966890Y455225D02*
X979890Y455225D01*
X966890Y450300D02*
X966890Y448800D01*
X966890Y450300D02*
X979890Y450300D01*
X979890Y448800D01*
X966890Y448800D01*
X966890Y450225D02*
X979890Y450225D01*
X966890Y445300D02*
X966890Y443800D01*
X966890Y445300D02*
X979890Y445300D01*
X979890Y443800D01*
X966890Y443800D01*
X966890Y445225D02*
X979890Y445225D01*
X966890Y440300D02*
X966890Y438800D01*
X966890Y440300D02*
X979890Y440300D01*
X979890Y438800D01*
X966890Y438800D01*
X966890Y440225D02*
X979890Y440225D01*
D26*
X736600Y893830D03*
X736600Y922270D03*
M02*
