G75*
%MOIN*%
%OFA0B0*%
%FSLAX25Y25*%
%IPPOS*%
%LPD*%
%AMOC8*
5,1,8,0,0,1.08239X$1,22.5*
%
%ADD10R,0.01800X0.04600*%
%ADD11R,0.02600X0.04100*%
%ADD12R,0.05118X0.05906*%
%ADD13C,0.07874*%
%ADD14R,0.05906X0.05118*%
%ADD15C,0.02000*%
%ADD16C,0.02978*%
D10*
X0080291Y0053283D03*
X0085409Y0053283D03*
X0082850Y0046383D03*
D11*
X0046177Y0046309D03*
X0037713Y0046309D03*
X0037713Y0062648D03*
X0046177Y0062648D03*
D12*
X0046669Y0088927D03*
X0054150Y0088927D03*
D13*
X0037732Y0020148D02*
X0037732Y0012274D01*
X0052732Y0012274D02*
X0052732Y0020148D01*
X0067732Y0020148D02*
X0067732Y0012274D01*
X0082732Y0012274D02*
X0082732Y0020148D01*
D14*
X0071866Y0045817D03*
X0071866Y0053297D03*
X0062024Y0053297D03*
X0062024Y0045817D03*
X0091551Y0081250D03*
X0091551Y0088730D03*
D15*
X0074228Y0088730D01*
X0074228Y0070817D01*
X0077772Y0067274D01*
X0080921Y0067274D01*
X0085409Y0062785D01*
X0085409Y0053283D01*
X0080291Y0053283D02*
X0071881Y0053283D01*
X0071866Y0053297D01*
X0071866Y0045817D02*
X0062024Y0045817D01*
X0062024Y0053297D02*
X0062024Y0066486D01*
X0056906Y0071604D01*
X0046669Y0071604D01*
X0046669Y0063140D01*
X0046177Y0062648D01*
X0046177Y0046309D01*
X0046177Y0040797D01*
X0045882Y0040502D01*
X0037713Y0046309D02*
X0037713Y0053888D01*
X0037732Y0053868D01*
X0037732Y0016211D01*
X0052732Y0016211D01*
X0067732Y0016211D02*
X0067732Y0027707D01*
X0071866Y0031841D01*
X0071866Y0045817D01*
X0082732Y0046265D02*
X0082850Y0046383D01*
X0082732Y0046265D02*
X0082732Y0016211D01*
X0091551Y0025030D01*
X0091551Y0081250D01*
X0074228Y0088730D02*
X0054346Y0088730D01*
X0054150Y0088927D01*
X0046669Y0088927D02*
X0046669Y0071604D01*
X0037713Y0062648D02*
X0037713Y0053888D01*
D16*
X0052969Y0029085D03*
M02*
