G04 EAGLE Gerber RS-274X export*
G75*
%MOIN*%
%FSLAX34Y34*%
%LPD*%
%INSilkscreen Top*%
%IPPOS*%
%AMOC8*
5,1,8,0,0,1.08239X$1,22.5*%
G01*
%ADD10C,0.006000*%
%ADD11C,0.012000*%
%ADD12C,0.018000*%
%ADD13C,0.010000*%
%ADD14C,0.024000*%
%ADD15C,0.005000*%
%ADD16C,0.003937*%
%ADD17C,0.004000*%
%ADD18C,0.008000*%
%ADD19C,0.007874*%


D10*
X17993Y14530D02*
X18015Y14532D01*
X18037Y14537D01*
X18057Y14545D01*
X18076Y14557D01*
X18093Y14572D01*
X18108Y14589D01*
X18120Y14608D01*
X18128Y14628D01*
X18133Y14650D01*
X18135Y14672D01*
X17993Y14530D02*
X17959Y14532D01*
X17926Y14538D01*
X17893Y14547D01*
X17862Y14560D01*
X17833Y14576D01*
X17805Y14596D01*
X17780Y14619D01*
X17798Y15028D02*
X17800Y15050D01*
X17805Y15072D01*
X17813Y15092D01*
X17825Y15111D01*
X17840Y15128D01*
X17857Y15143D01*
X17876Y15155D01*
X17896Y15163D01*
X17918Y15168D01*
X17940Y15170D01*
X17969Y15168D01*
X17997Y15164D01*
X18024Y15156D01*
X18051Y15146D01*
X18076Y15133D01*
X18100Y15117D01*
X17798Y15028D02*
X17800Y15007D01*
X17804Y14986D01*
X17812Y14966D01*
X17823Y14947D01*
X17836Y14931D01*
X17851Y14916D01*
X17869Y14904D01*
X18064Y14796D02*
X18082Y14784D01*
X18097Y14769D01*
X18110Y14753D01*
X18121Y14734D01*
X18129Y14714D01*
X18133Y14693D01*
X18135Y14672D01*
X18064Y14797D02*
X17869Y14903D01*
X18476Y14530D02*
X18654Y14530D01*
X18476Y14530D02*
X18457Y14532D01*
X18439Y14536D01*
X18423Y14544D01*
X18407Y14555D01*
X18394Y14568D01*
X18383Y14584D01*
X18375Y14600D01*
X18371Y14618D01*
X18369Y14637D01*
X18369Y14814D01*
X18370Y14814D02*
X18372Y14836D01*
X18377Y14858D01*
X18385Y14878D01*
X18397Y14897D01*
X18412Y14914D01*
X18429Y14929D01*
X18448Y14941D01*
X18468Y14949D01*
X18490Y14954D01*
X18512Y14956D01*
X18534Y14954D01*
X18556Y14949D01*
X18576Y14941D01*
X18595Y14929D01*
X18612Y14914D01*
X18627Y14897D01*
X18639Y14878D01*
X18647Y14858D01*
X18652Y14836D01*
X18654Y14814D01*
X18654Y14743D01*
X18369Y14743D01*
X18923Y14530D02*
X18923Y14957D01*
X19101Y14957D01*
X19120Y14955D01*
X19138Y14951D01*
X19154Y14943D01*
X19170Y14932D01*
X19183Y14919D01*
X19194Y14904D01*
X19202Y14887D01*
X19206Y14869D01*
X19208Y14850D01*
X19208Y14530D01*
X19530Y14779D02*
X19708Y14708D01*
X19531Y14779D02*
X19515Y14787D01*
X19500Y14798D01*
X19489Y14812D01*
X19480Y14828D01*
X19475Y14846D01*
X19473Y14864D01*
X19475Y14882D01*
X19480Y14899D01*
X19489Y14915D01*
X19500Y14929D01*
X19515Y14941D01*
X19531Y14949D01*
X19548Y14954D01*
X19566Y14956D01*
X19566Y14957D02*
X19599Y14955D01*
X19631Y14951D01*
X19664Y14943D01*
X19695Y14934D01*
X19726Y14921D01*
X19708Y14707D02*
X19724Y14699D01*
X19739Y14688D01*
X19750Y14674D01*
X19759Y14658D01*
X19764Y14640D01*
X19766Y14622D01*
X19764Y14604D01*
X19759Y14587D01*
X19750Y14571D01*
X19739Y14557D01*
X19724Y14545D01*
X19708Y14537D01*
X19691Y14532D01*
X19673Y14530D01*
X19672Y14530D02*
X19633Y14532D01*
X19593Y14536D01*
X19554Y14544D01*
X19515Y14553D01*
X19477Y14566D01*
X20010Y14672D02*
X20010Y14814D01*
X20011Y14814D02*
X20013Y14836D01*
X20018Y14858D01*
X20026Y14878D01*
X20038Y14897D01*
X20053Y14914D01*
X20070Y14929D01*
X20089Y14941D01*
X20109Y14949D01*
X20131Y14954D01*
X20153Y14956D01*
X20175Y14954D01*
X20197Y14949D01*
X20217Y14941D01*
X20236Y14929D01*
X20253Y14914D01*
X20268Y14897D01*
X20280Y14878D01*
X20288Y14858D01*
X20293Y14836D01*
X20295Y14814D01*
X20295Y14672D01*
X20293Y14650D01*
X20288Y14628D01*
X20280Y14608D01*
X20268Y14589D01*
X20253Y14572D01*
X20236Y14557D01*
X20217Y14545D01*
X20197Y14537D01*
X20175Y14532D01*
X20153Y14530D01*
X20131Y14532D01*
X20109Y14537D01*
X20089Y14545D01*
X20070Y14557D01*
X20053Y14572D01*
X20038Y14589D01*
X20026Y14608D01*
X20018Y14628D01*
X20013Y14650D01*
X20011Y14672D01*
X20568Y14530D02*
X20568Y14957D01*
X20781Y14957D01*
X20781Y14886D01*
D11*
X21250Y15500D02*
X17250Y15500D01*
X21250Y15500D02*
X21250Y14000D01*
X17250Y14000D01*
X17250Y15500D01*
D10*
X17780Y9170D02*
X17780Y8530D01*
X17780Y9170D02*
X17958Y9170D01*
X17983Y9168D01*
X18008Y9163D01*
X18032Y9154D01*
X18054Y9142D01*
X18075Y9127D01*
X18093Y9109D01*
X18108Y9088D01*
X18120Y9066D01*
X18129Y9042D01*
X18134Y9017D01*
X18136Y8992D01*
X18134Y8967D01*
X18129Y8942D01*
X18120Y8918D01*
X18108Y8896D01*
X18093Y8875D01*
X18075Y8857D01*
X18054Y8842D01*
X18032Y8830D01*
X18008Y8821D01*
X17983Y8816D01*
X17958Y8814D01*
X17780Y8814D01*
X18382Y8957D02*
X18382Y8637D01*
X18381Y8637D02*
X18383Y8618D01*
X18387Y8600D01*
X18395Y8584D01*
X18406Y8568D01*
X18419Y8555D01*
X18435Y8544D01*
X18451Y8536D01*
X18469Y8532D01*
X18488Y8530D01*
X18666Y8530D01*
X18666Y8957D01*
X18967Y8957D02*
X18967Y8530D01*
X18967Y8957D02*
X19287Y8957D01*
X19306Y8955D01*
X19324Y8951D01*
X19341Y8943D01*
X19356Y8932D01*
X19369Y8919D01*
X19380Y8904D01*
X19388Y8887D01*
X19392Y8869D01*
X19394Y8850D01*
X19394Y8530D01*
X19180Y8530D02*
X19180Y8957D01*
X19697Y8957D02*
X19697Y8317D01*
X19697Y8957D02*
X19875Y8957D01*
X19894Y8955D01*
X19912Y8951D01*
X19928Y8943D01*
X19944Y8932D01*
X19957Y8919D01*
X19968Y8904D01*
X19976Y8887D01*
X19980Y8869D01*
X19982Y8850D01*
X19982Y8637D01*
X19980Y8618D01*
X19976Y8600D01*
X19968Y8584D01*
X19957Y8568D01*
X19944Y8555D01*
X19929Y8544D01*
X19912Y8536D01*
X19894Y8532D01*
X19875Y8530D01*
X19697Y8530D01*
D11*
X21250Y9500D02*
X17250Y9500D01*
X21250Y9500D02*
X21250Y8000D01*
X17250Y8000D01*
X17250Y9500D01*
D10*
X33530Y9170D02*
X33530Y8530D01*
X33530Y9170D02*
X33708Y9170D01*
X33733Y9168D01*
X33758Y9163D01*
X33782Y9154D01*
X33804Y9142D01*
X33825Y9127D01*
X33843Y9109D01*
X33858Y9088D01*
X33870Y9066D01*
X33879Y9042D01*
X33884Y9017D01*
X33886Y8992D01*
X33884Y8967D01*
X33879Y8942D01*
X33870Y8918D01*
X33858Y8896D01*
X33843Y8875D01*
X33825Y8857D01*
X33804Y8842D01*
X33782Y8830D01*
X33758Y8821D01*
X33733Y8816D01*
X33708Y8814D01*
X33530Y8814D01*
X34132Y8957D02*
X34132Y8637D01*
X34131Y8637D02*
X34133Y8618D01*
X34137Y8600D01*
X34145Y8584D01*
X34156Y8568D01*
X34169Y8555D01*
X34185Y8544D01*
X34201Y8536D01*
X34219Y8532D01*
X34238Y8530D01*
X34416Y8530D01*
X34416Y8957D01*
X34717Y8957D02*
X34717Y8530D01*
X34717Y8957D02*
X35037Y8957D01*
X35056Y8955D01*
X35074Y8951D01*
X35091Y8943D01*
X35106Y8932D01*
X35119Y8919D01*
X35130Y8904D01*
X35138Y8887D01*
X35142Y8869D01*
X35144Y8850D01*
X35144Y8530D01*
X34930Y8530D02*
X34930Y8957D01*
X35447Y8957D02*
X35447Y8317D01*
X35447Y8957D02*
X35625Y8957D01*
X35644Y8955D01*
X35662Y8951D01*
X35678Y8943D01*
X35694Y8932D01*
X35707Y8919D01*
X35718Y8904D01*
X35726Y8887D01*
X35730Y8869D01*
X35732Y8850D01*
X35732Y8637D01*
X35730Y8618D01*
X35726Y8600D01*
X35718Y8584D01*
X35707Y8568D01*
X35694Y8555D01*
X35679Y8544D01*
X35662Y8536D01*
X35644Y8532D01*
X35625Y8530D01*
X35447Y8530D01*
D11*
X37000Y9500D02*
X33000Y9500D01*
X37000Y9500D02*
X37000Y8000D01*
X33000Y8000D01*
X33000Y9500D01*
D10*
X33743Y14530D02*
X33765Y14532D01*
X33787Y14537D01*
X33807Y14545D01*
X33826Y14557D01*
X33843Y14572D01*
X33858Y14589D01*
X33870Y14608D01*
X33878Y14628D01*
X33883Y14650D01*
X33885Y14672D01*
X33743Y14530D02*
X33709Y14532D01*
X33676Y14538D01*
X33643Y14547D01*
X33612Y14560D01*
X33583Y14576D01*
X33555Y14596D01*
X33530Y14619D01*
X33548Y15028D02*
X33550Y15050D01*
X33555Y15072D01*
X33563Y15092D01*
X33575Y15111D01*
X33590Y15128D01*
X33607Y15143D01*
X33626Y15155D01*
X33646Y15163D01*
X33668Y15168D01*
X33690Y15170D01*
X33719Y15168D01*
X33747Y15164D01*
X33774Y15156D01*
X33801Y15146D01*
X33826Y15133D01*
X33850Y15117D01*
X33548Y15028D02*
X33550Y15007D01*
X33554Y14986D01*
X33562Y14966D01*
X33573Y14947D01*
X33586Y14931D01*
X33601Y14916D01*
X33619Y14904D01*
X33814Y14796D02*
X33832Y14784D01*
X33847Y14769D01*
X33860Y14753D01*
X33871Y14734D01*
X33879Y14714D01*
X33883Y14693D01*
X33885Y14672D01*
X33814Y14797D02*
X33619Y14903D01*
X34226Y14530D02*
X34404Y14530D01*
X34226Y14530D02*
X34207Y14532D01*
X34189Y14536D01*
X34173Y14544D01*
X34157Y14555D01*
X34144Y14568D01*
X34133Y14584D01*
X34125Y14600D01*
X34121Y14618D01*
X34119Y14637D01*
X34119Y14814D01*
X34120Y14814D02*
X34122Y14836D01*
X34127Y14858D01*
X34135Y14878D01*
X34147Y14897D01*
X34162Y14914D01*
X34179Y14929D01*
X34198Y14941D01*
X34218Y14949D01*
X34240Y14954D01*
X34262Y14956D01*
X34284Y14954D01*
X34306Y14949D01*
X34326Y14941D01*
X34345Y14929D01*
X34362Y14914D01*
X34377Y14897D01*
X34389Y14878D01*
X34397Y14858D01*
X34402Y14836D01*
X34404Y14814D01*
X34404Y14743D01*
X34119Y14743D01*
X34673Y14530D02*
X34673Y14957D01*
X34851Y14957D01*
X34870Y14955D01*
X34888Y14951D01*
X34904Y14943D01*
X34920Y14932D01*
X34933Y14919D01*
X34944Y14904D01*
X34952Y14887D01*
X34956Y14869D01*
X34958Y14850D01*
X34958Y14530D01*
X35280Y14779D02*
X35458Y14708D01*
X35281Y14779D02*
X35265Y14787D01*
X35250Y14798D01*
X35239Y14812D01*
X35230Y14828D01*
X35225Y14846D01*
X35223Y14864D01*
X35225Y14882D01*
X35230Y14899D01*
X35239Y14915D01*
X35250Y14929D01*
X35265Y14941D01*
X35281Y14949D01*
X35298Y14954D01*
X35316Y14956D01*
X35316Y14957D02*
X35349Y14955D01*
X35381Y14951D01*
X35414Y14943D01*
X35445Y14934D01*
X35476Y14921D01*
X35458Y14707D02*
X35474Y14699D01*
X35489Y14688D01*
X35500Y14674D01*
X35509Y14658D01*
X35514Y14640D01*
X35516Y14622D01*
X35514Y14604D01*
X35509Y14587D01*
X35500Y14571D01*
X35489Y14557D01*
X35474Y14545D01*
X35458Y14537D01*
X35441Y14532D01*
X35423Y14530D01*
X35422Y14530D02*
X35383Y14532D01*
X35343Y14536D01*
X35304Y14544D01*
X35265Y14553D01*
X35227Y14566D01*
X35760Y14672D02*
X35760Y14814D01*
X35761Y14814D02*
X35763Y14836D01*
X35768Y14858D01*
X35776Y14878D01*
X35788Y14897D01*
X35803Y14914D01*
X35820Y14929D01*
X35839Y14941D01*
X35859Y14949D01*
X35881Y14954D01*
X35903Y14956D01*
X35925Y14954D01*
X35947Y14949D01*
X35967Y14941D01*
X35986Y14929D01*
X36003Y14914D01*
X36018Y14897D01*
X36030Y14878D01*
X36038Y14858D01*
X36043Y14836D01*
X36045Y14814D01*
X36045Y14672D01*
X36043Y14650D01*
X36038Y14628D01*
X36030Y14608D01*
X36018Y14589D01*
X36003Y14572D01*
X35986Y14557D01*
X35967Y14545D01*
X35947Y14537D01*
X35925Y14532D01*
X35903Y14530D01*
X35881Y14532D01*
X35859Y14537D01*
X35839Y14545D01*
X35820Y14557D01*
X35803Y14572D01*
X35788Y14589D01*
X35776Y14608D01*
X35768Y14628D01*
X35763Y14650D01*
X35761Y14672D01*
X36318Y14530D02*
X36318Y14957D01*
X36531Y14957D01*
X36531Y14886D01*
D11*
X37000Y15500D02*
X33000Y15500D01*
X37000Y15500D02*
X37000Y14000D01*
X33000Y14000D01*
X33000Y15500D01*
D12*
X16454Y11590D02*
X16272Y11590D01*
X16246Y11592D01*
X16221Y11597D01*
X16196Y11606D01*
X16174Y11619D01*
X16153Y11634D01*
X16134Y11653D01*
X16119Y11674D01*
X16106Y11696D01*
X16097Y11721D01*
X16092Y11746D01*
X16090Y11772D01*
X16090Y12228D01*
X16092Y12254D01*
X16097Y12279D01*
X16106Y12304D01*
X16119Y12326D01*
X16134Y12347D01*
X16153Y12366D01*
X16174Y12381D01*
X16196Y12394D01*
X16221Y12403D01*
X16246Y12408D01*
X16272Y12410D01*
X16454Y12410D01*
X16768Y11954D02*
X16768Y11772D01*
X16768Y11954D02*
X16770Y11980D01*
X16775Y12005D01*
X16784Y12030D01*
X16797Y12052D01*
X16812Y12073D01*
X16831Y12092D01*
X16852Y12107D01*
X16874Y12120D01*
X16899Y12129D01*
X16924Y12134D01*
X16950Y12136D01*
X16976Y12134D01*
X17001Y12129D01*
X17026Y12120D01*
X17048Y12107D01*
X17069Y12092D01*
X17088Y12073D01*
X17103Y12052D01*
X17116Y12030D01*
X17125Y12005D01*
X17130Y11980D01*
X17132Y11954D01*
X17133Y11954D02*
X17133Y11772D01*
X17132Y11772D02*
X17130Y11746D01*
X17125Y11721D01*
X17116Y11696D01*
X17103Y11674D01*
X17088Y11653D01*
X17069Y11634D01*
X17048Y11619D01*
X17026Y11606D01*
X17001Y11597D01*
X16976Y11592D01*
X16950Y11590D01*
X16924Y11592D01*
X16899Y11597D01*
X16874Y11606D01*
X16852Y11619D01*
X16831Y11634D01*
X16812Y11653D01*
X16797Y11674D01*
X16784Y11696D01*
X16775Y11721D01*
X16770Y11746D01*
X16768Y11772D01*
X17508Y11590D02*
X17508Y12137D01*
X17736Y12137D01*
X17757Y12135D01*
X17778Y12130D01*
X17798Y12122D01*
X17817Y12111D01*
X17833Y12097D01*
X17847Y12081D01*
X17858Y12062D01*
X17866Y12042D01*
X17871Y12021D01*
X17873Y12000D01*
X17872Y12000D02*
X17872Y11590D01*
X18607Y11590D02*
X18607Y12410D01*
X18607Y11590D02*
X18379Y11590D01*
X18358Y11592D01*
X18337Y11597D01*
X18317Y11605D01*
X18298Y11616D01*
X18282Y11630D01*
X18268Y11646D01*
X18257Y11665D01*
X18249Y11685D01*
X18244Y11706D01*
X18242Y11727D01*
X18243Y11727D02*
X18243Y12000D01*
X18242Y12000D02*
X18244Y12021D01*
X18249Y12042D01*
X18257Y12062D01*
X18268Y12081D01*
X18282Y12097D01*
X18298Y12111D01*
X18317Y12122D01*
X18337Y12130D01*
X18358Y12135D01*
X18379Y12137D01*
X18607Y12137D01*
X19015Y12137D02*
X19015Y11727D01*
X19017Y11706D01*
X19022Y11685D01*
X19030Y11665D01*
X19041Y11646D01*
X19055Y11630D01*
X19071Y11616D01*
X19090Y11605D01*
X19110Y11597D01*
X19131Y11592D01*
X19152Y11590D01*
X19379Y11590D01*
X19379Y12137D01*
X19893Y11590D02*
X20075Y11590D01*
X19893Y11590D02*
X19872Y11592D01*
X19851Y11597D01*
X19831Y11605D01*
X19812Y11616D01*
X19796Y11630D01*
X19782Y11646D01*
X19771Y11665D01*
X19763Y11685D01*
X19758Y11706D01*
X19756Y11727D01*
X19756Y12000D01*
X19758Y12021D01*
X19763Y12042D01*
X19771Y12062D01*
X19782Y12081D01*
X19796Y12097D01*
X19812Y12111D01*
X19831Y12122D01*
X19851Y12130D01*
X19872Y12135D01*
X19893Y12137D01*
X20075Y12137D01*
X20313Y12137D02*
X20586Y12137D01*
X20404Y12410D02*
X20404Y11727D01*
X20403Y11727D02*
X20405Y11706D01*
X20410Y11685D01*
X20418Y11665D01*
X20429Y11646D01*
X20443Y11630D01*
X20459Y11616D01*
X20478Y11605D01*
X20498Y11597D01*
X20519Y11592D01*
X20540Y11590D01*
X20586Y11590D01*
X20896Y11590D02*
X20896Y12137D01*
X20873Y12364D02*
X20873Y12410D01*
X20919Y12410D01*
X20919Y12364D01*
X20873Y12364D01*
X21207Y12137D02*
X21389Y11590D01*
X21571Y12137D01*
X21882Y12137D02*
X21882Y11590D01*
X21860Y12364D02*
X21860Y12410D01*
X21905Y12410D01*
X21905Y12364D01*
X21860Y12364D01*
X22148Y12137D02*
X22422Y12137D01*
X22239Y12410D02*
X22239Y11727D01*
X22241Y11706D01*
X22246Y11685D01*
X22254Y11665D01*
X22265Y11646D01*
X22279Y11630D01*
X22295Y11616D01*
X22314Y11605D01*
X22334Y11597D01*
X22355Y11592D01*
X22376Y11590D01*
X22422Y11590D01*
X22714Y11317D02*
X22805Y11317D01*
X23078Y12137D01*
X22714Y12137D02*
X22896Y11590D01*
X34090Y11590D02*
X34090Y12410D01*
X34318Y12410D01*
X34347Y12408D01*
X34375Y12403D01*
X34402Y12394D01*
X34428Y12382D01*
X34452Y12366D01*
X34474Y12348D01*
X34494Y12327D01*
X34511Y12304D01*
X34524Y12279D01*
X34535Y12252D01*
X34542Y12225D01*
X34546Y12196D01*
X34546Y12168D01*
X34542Y12139D01*
X34535Y12112D01*
X34524Y12085D01*
X34511Y12060D01*
X34494Y12037D01*
X34474Y12016D01*
X34452Y11998D01*
X34428Y11982D01*
X34402Y11970D01*
X34375Y11961D01*
X34347Y11956D01*
X34318Y11954D01*
X34090Y11954D01*
X34897Y11590D02*
X34897Y12410D01*
X34897Y12046D02*
X35353Y12046D01*
X35353Y12410D02*
X35353Y11590D01*
D10*
X48530Y16780D02*
X48530Y17420D01*
X48814Y17420D01*
X48814Y17136D02*
X48530Y17136D01*
X49158Y17029D02*
X49318Y17029D01*
X49158Y17028D02*
X49138Y17026D01*
X49118Y17021D01*
X49099Y17013D01*
X49082Y17002D01*
X49067Y16988D01*
X49054Y16972D01*
X49044Y16954D01*
X49038Y16934D01*
X49034Y16914D01*
X49034Y16894D01*
X49038Y16874D01*
X49044Y16854D01*
X49054Y16836D01*
X49067Y16820D01*
X49082Y16806D01*
X49099Y16795D01*
X49118Y16787D01*
X49138Y16782D01*
X49158Y16780D01*
X49318Y16780D01*
X49318Y17100D01*
X49316Y17119D01*
X49312Y17137D01*
X49304Y17154D01*
X49293Y17169D01*
X49280Y17182D01*
X49265Y17193D01*
X49248Y17201D01*
X49230Y17205D01*
X49211Y17207D01*
X49069Y17207D01*
X49611Y17207D02*
X49611Y16887D01*
X49610Y16887D02*
X49612Y16868D01*
X49616Y16850D01*
X49624Y16834D01*
X49635Y16818D01*
X49648Y16805D01*
X49664Y16794D01*
X49680Y16786D01*
X49698Y16782D01*
X49717Y16780D01*
X49895Y16780D01*
X49895Y17207D01*
X50174Y17420D02*
X50174Y16887D01*
X50173Y16887D02*
X50175Y16868D01*
X50179Y16850D01*
X50187Y16834D01*
X50198Y16818D01*
X50211Y16805D01*
X50227Y16794D01*
X50243Y16786D01*
X50261Y16782D01*
X50280Y16780D01*
X50442Y17207D02*
X50655Y17207D01*
X50513Y17420D02*
X50513Y16887D01*
X50512Y16887D02*
X50514Y16868D01*
X50518Y16850D01*
X50526Y16834D01*
X50537Y16818D01*
X50550Y16805D01*
X50566Y16794D01*
X50582Y16786D01*
X50600Y16782D01*
X50619Y16780D01*
X50655Y16780D01*
D11*
X52000Y17750D02*
X48000Y17750D01*
X52000Y17750D02*
X52000Y16250D01*
X48000Y16250D01*
X48000Y17750D01*
D10*
X48530Y11420D02*
X48530Y10780D01*
X48886Y10780D02*
X48530Y11420D01*
X48886Y11420D02*
X48886Y10780D01*
X49160Y10922D02*
X49160Y11064D01*
X49161Y11064D02*
X49163Y11086D01*
X49168Y11108D01*
X49176Y11128D01*
X49188Y11147D01*
X49203Y11164D01*
X49220Y11179D01*
X49239Y11191D01*
X49259Y11199D01*
X49281Y11204D01*
X49303Y11206D01*
X49325Y11204D01*
X49347Y11199D01*
X49367Y11191D01*
X49386Y11179D01*
X49403Y11164D01*
X49418Y11147D01*
X49430Y11128D01*
X49438Y11108D01*
X49443Y11086D01*
X49445Y11064D01*
X49445Y10922D01*
X49443Y10900D01*
X49438Y10878D01*
X49430Y10858D01*
X49418Y10839D01*
X49403Y10822D01*
X49386Y10807D01*
X49367Y10795D01*
X49347Y10787D01*
X49325Y10782D01*
X49303Y10780D01*
X49281Y10782D01*
X49259Y10787D01*
X49239Y10795D01*
X49220Y10807D01*
X49203Y10822D01*
X49188Y10839D01*
X49176Y10858D01*
X49168Y10878D01*
X49163Y10900D01*
X49161Y10922D01*
X49718Y10780D02*
X49718Y11207D01*
X49931Y11207D01*
X49931Y11136D01*
X50156Y11207D02*
X50156Y10780D01*
X50156Y11207D02*
X50476Y11207D01*
X50495Y11205D01*
X50513Y11201D01*
X50530Y11193D01*
X50545Y11182D01*
X50558Y11169D01*
X50569Y11154D01*
X50577Y11137D01*
X50581Y11119D01*
X50583Y11100D01*
X50583Y10780D01*
X50369Y10780D02*
X50369Y11207D01*
X50985Y11029D02*
X51145Y11029D01*
X50985Y11028D02*
X50965Y11026D01*
X50945Y11021D01*
X50926Y11013D01*
X50909Y11002D01*
X50894Y10988D01*
X50881Y10972D01*
X50871Y10954D01*
X50865Y10934D01*
X50861Y10914D01*
X50861Y10894D01*
X50865Y10874D01*
X50871Y10854D01*
X50881Y10836D01*
X50894Y10820D01*
X50909Y10806D01*
X50926Y10795D01*
X50945Y10787D01*
X50965Y10782D01*
X50985Y10780D01*
X51145Y10780D01*
X51145Y11100D01*
X51143Y11119D01*
X51139Y11137D01*
X51131Y11154D01*
X51120Y11169D01*
X51107Y11182D01*
X51092Y11193D01*
X51075Y11201D01*
X51057Y11205D01*
X51038Y11207D01*
X50896Y11207D01*
X51426Y11420D02*
X51426Y10887D01*
X51428Y10868D01*
X51432Y10850D01*
X51440Y10834D01*
X51451Y10818D01*
X51464Y10805D01*
X51480Y10794D01*
X51496Y10786D01*
X51514Y10782D01*
X51533Y10780D01*
D11*
X52000Y11750D02*
X48000Y11750D01*
X52000Y11750D02*
X52000Y10250D01*
X48000Y10250D01*
X48000Y11750D01*
D10*
X48601Y5670D02*
X48601Y5030D01*
X48530Y5030D02*
X48672Y5030D01*
X48672Y5670D02*
X48530Y5670D01*
X48931Y5457D02*
X48931Y5030D01*
X48931Y5457D02*
X49108Y5457D01*
X49127Y5455D01*
X49145Y5451D01*
X49161Y5443D01*
X49177Y5432D01*
X49190Y5419D01*
X49201Y5404D01*
X49209Y5387D01*
X49213Y5369D01*
X49215Y5350D01*
X49215Y5030D01*
X49606Y5279D02*
X49766Y5279D01*
X49606Y5278D02*
X49586Y5276D01*
X49566Y5271D01*
X49547Y5263D01*
X49530Y5252D01*
X49515Y5238D01*
X49502Y5222D01*
X49492Y5204D01*
X49486Y5184D01*
X49482Y5164D01*
X49482Y5144D01*
X49486Y5124D01*
X49492Y5104D01*
X49502Y5086D01*
X49515Y5070D01*
X49530Y5056D01*
X49547Y5045D01*
X49566Y5037D01*
X49586Y5032D01*
X49606Y5030D01*
X49766Y5030D01*
X49766Y5350D01*
X49764Y5369D01*
X49760Y5387D01*
X49752Y5404D01*
X49741Y5419D01*
X49728Y5432D01*
X49713Y5443D01*
X49696Y5451D01*
X49678Y5455D01*
X49659Y5457D01*
X49517Y5457D01*
X50146Y5030D02*
X50288Y5030D01*
X50146Y5030D02*
X50127Y5032D01*
X50109Y5036D01*
X50093Y5044D01*
X50077Y5055D01*
X50064Y5068D01*
X50053Y5084D01*
X50045Y5100D01*
X50041Y5118D01*
X50039Y5137D01*
X50039Y5350D01*
X50041Y5369D01*
X50045Y5387D01*
X50053Y5404D01*
X50064Y5419D01*
X50077Y5432D01*
X50093Y5443D01*
X50109Y5451D01*
X50127Y5455D01*
X50146Y5457D01*
X50288Y5457D01*
X50459Y5457D02*
X50672Y5457D01*
X50530Y5670D02*
X50530Y5137D01*
X50532Y5118D01*
X50536Y5100D01*
X50544Y5084D01*
X50555Y5068D01*
X50568Y5055D01*
X50584Y5044D01*
X50600Y5036D01*
X50618Y5032D01*
X50637Y5030D01*
X50672Y5030D01*
X50899Y5030D02*
X50899Y5457D01*
X50881Y5634D02*
X50881Y5670D01*
X50916Y5670D01*
X50916Y5634D01*
X50881Y5634D01*
X51126Y5457D02*
X51268Y5030D01*
X51410Y5457D01*
X51745Y5030D02*
X51923Y5030D01*
X51745Y5030D02*
X51726Y5032D01*
X51708Y5036D01*
X51692Y5044D01*
X51676Y5055D01*
X51663Y5068D01*
X51652Y5084D01*
X51644Y5100D01*
X51640Y5118D01*
X51638Y5137D01*
X51638Y5314D01*
X51639Y5314D02*
X51641Y5336D01*
X51646Y5358D01*
X51654Y5378D01*
X51666Y5397D01*
X51681Y5414D01*
X51698Y5429D01*
X51717Y5441D01*
X51737Y5449D01*
X51759Y5454D01*
X51781Y5456D01*
X51803Y5454D01*
X51825Y5449D01*
X51845Y5441D01*
X51864Y5429D01*
X51881Y5414D01*
X51896Y5397D01*
X51908Y5378D01*
X51916Y5358D01*
X51921Y5336D01*
X51923Y5314D01*
X51923Y5243D01*
X51638Y5243D01*
D11*
X52000Y6000D02*
X48000Y6000D01*
X52000Y6000D02*
X52000Y4500D01*
X48000Y4500D01*
X48000Y6000D01*
D10*
X38780Y30330D02*
X38993Y30970D01*
X39207Y30330D01*
X39153Y30490D02*
X38833Y30490D01*
X39707Y30757D02*
X39707Y30117D01*
X39707Y30757D02*
X39529Y30757D01*
X39510Y30755D01*
X39492Y30751D01*
X39476Y30743D01*
X39460Y30732D01*
X39447Y30719D01*
X39436Y30704D01*
X39428Y30687D01*
X39424Y30669D01*
X39422Y30650D01*
X39423Y30650D02*
X39423Y30437D01*
X39422Y30437D02*
X39424Y30418D01*
X39428Y30400D01*
X39436Y30384D01*
X39447Y30368D01*
X39460Y30355D01*
X39476Y30344D01*
X39492Y30336D01*
X39510Y30332D01*
X39529Y30330D01*
X39707Y30330D01*
X40000Y30437D02*
X40000Y30757D01*
X40000Y30437D02*
X40002Y30418D01*
X40006Y30400D01*
X40014Y30384D01*
X40025Y30368D01*
X40038Y30355D01*
X40054Y30344D01*
X40070Y30336D01*
X40088Y30332D01*
X40107Y30330D01*
X40284Y30330D01*
X40284Y30757D01*
X40675Y30579D02*
X40835Y30579D01*
X40675Y30578D02*
X40655Y30576D01*
X40635Y30571D01*
X40616Y30563D01*
X40599Y30552D01*
X40584Y30538D01*
X40571Y30522D01*
X40561Y30504D01*
X40555Y30484D01*
X40551Y30464D01*
X40551Y30444D01*
X40555Y30424D01*
X40561Y30404D01*
X40571Y30386D01*
X40584Y30370D01*
X40599Y30356D01*
X40616Y30345D01*
X40635Y30337D01*
X40655Y30332D01*
X40675Y30330D01*
X40835Y30330D01*
X40835Y30650D01*
X40836Y30650D02*
X40834Y30669D01*
X40830Y30687D01*
X40822Y30704D01*
X40811Y30719D01*
X40798Y30732D01*
X40783Y30743D01*
X40766Y30751D01*
X40748Y30755D01*
X40729Y30757D01*
X40586Y30757D01*
X41462Y30970D02*
X41462Y30330D01*
X41462Y30970D02*
X41640Y30970D01*
X41665Y30968D01*
X41690Y30963D01*
X41714Y30954D01*
X41736Y30942D01*
X41757Y30927D01*
X41775Y30909D01*
X41790Y30888D01*
X41802Y30866D01*
X41811Y30842D01*
X41816Y30817D01*
X41818Y30792D01*
X41817Y30792D02*
X41817Y30508D01*
X41818Y30508D02*
X41816Y30483D01*
X41811Y30458D01*
X41802Y30434D01*
X41790Y30412D01*
X41775Y30391D01*
X41757Y30373D01*
X41736Y30358D01*
X41714Y30346D01*
X41690Y30337D01*
X41665Y30332D01*
X41640Y30330D01*
X41462Y30330D01*
X42092Y30472D02*
X42092Y30614D01*
X42094Y30636D01*
X42099Y30658D01*
X42107Y30678D01*
X42119Y30697D01*
X42134Y30714D01*
X42151Y30729D01*
X42170Y30741D01*
X42190Y30749D01*
X42212Y30754D01*
X42234Y30756D01*
X42256Y30754D01*
X42278Y30749D01*
X42298Y30741D01*
X42317Y30729D01*
X42334Y30714D01*
X42349Y30697D01*
X42361Y30678D01*
X42369Y30658D01*
X42374Y30636D01*
X42376Y30614D01*
X42377Y30614D02*
X42377Y30472D01*
X42376Y30472D02*
X42374Y30450D01*
X42369Y30428D01*
X42361Y30408D01*
X42349Y30389D01*
X42334Y30372D01*
X42317Y30357D01*
X42298Y30345D01*
X42278Y30337D01*
X42256Y30332D01*
X42234Y30330D01*
X42212Y30332D01*
X42190Y30337D01*
X42170Y30345D01*
X42151Y30357D01*
X42134Y30372D01*
X42119Y30389D01*
X42107Y30408D01*
X42099Y30428D01*
X42094Y30450D01*
X42092Y30472D01*
X42679Y30579D02*
X42857Y30508D01*
X42679Y30579D02*
X42663Y30587D01*
X42648Y30598D01*
X42637Y30612D01*
X42628Y30628D01*
X42623Y30646D01*
X42621Y30664D01*
X42623Y30682D01*
X42628Y30699D01*
X42637Y30715D01*
X42648Y30729D01*
X42663Y30741D01*
X42679Y30749D01*
X42696Y30754D01*
X42714Y30756D01*
X42715Y30757D02*
X42748Y30755D01*
X42780Y30751D01*
X42813Y30743D01*
X42844Y30734D01*
X42875Y30721D01*
X42856Y30507D02*
X42872Y30499D01*
X42887Y30488D01*
X42898Y30474D01*
X42907Y30458D01*
X42912Y30440D01*
X42914Y30422D01*
X42912Y30404D01*
X42907Y30387D01*
X42898Y30371D01*
X42887Y30357D01*
X42872Y30345D01*
X42856Y30337D01*
X42839Y30332D01*
X42821Y30330D01*
X42782Y30332D01*
X42742Y30336D01*
X42703Y30344D01*
X42664Y30353D01*
X42626Y30366D01*
X43158Y30330D02*
X43158Y30757D01*
X43140Y30934D02*
X43140Y30970D01*
X43175Y30970D01*
X43175Y30934D01*
X43140Y30934D01*
X43426Y30757D02*
X43426Y30330D01*
X43426Y30757D02*
X43603Y30757D01*
X43622Y30755D01*
X43640Y30751D01*
X43656Y30743D01*
X43672Y30732D01*
X43685Y30719D01*
X43696Y30704D01*
X43704Y30687D01*
X43708Y30669D01*
X43710Y30650D01*
X43710Y30330D01*
X44083Y30330D02*
X44261Y30330D01*
X44083Y30330D02*
X44064Y30332D01*
X44046Y30336D01*
X44030Y30344D01*
X44014Y30355D01*
X44001Y30368D01*
X43990Y30384D01*
X43982Y30400D01*
X43978Y30418D01*
X43976Y30437D01*
X43977Y30437D02*
X43977Y30650D01*
X43976Y30650D02*
X43978Y30669D01*
X43982Y30687D01*
X43990Y30704D01*
X44001Y30719D01*
X44014Y30732D01*
X44030Y30743D01*
X44046Y30751D01*
X44064Y30755D01*
X44083Y30757D01*
X44261Y30757D01*
X44261Y30223D01*
X44259Y30204D01*
X44255Y30186D01*
X44247Y30170D01*
X44236Y30154D01*
X44223Y30141D01*
X44208Y30130D01*
X44191Y30122D01*
X44173Y30118D01*
X44154Y30116D01*
X44154Y30117D02*
X44012Y30117D01*
X44888Y30330D02*
X44888Y30970D01*
X44888Y30686D02*
X45243Y30686D01*
X45243Y30970D02*
X45243Y30330D01*
X45549Y30330D02*
X45549Y30970D01*
X45763Y30614D01*
X45976Y30970D01*
X45976Y30330D01*
X46317Y30330D02*
X46317Y30970D01*
X46246Y30330D02*
X46388Y30330D01*
X46388Y30970D02*
X46246Y30970D01*
X38780Y29920D02*
X38780Y29280D01*
X38780Y29636D02*
X39136Y29636D01*
X39136Y29920D02*
X39136Y29280D01*
X39534Y29280D02*
X39391Y29920D01*
X39676Y29707D02*
X39534Y29280D01*
X39818Y29280D02*
X39676Y29707D01*
X39960Y29920D02*
X39818Y29280D01*
X40196Y29600D02*
X40198Y29640D01*
X40202Y29679D01*
X40209Y29719D01*
X40220Y29757D01*
X40233Y29794D01*
X40249Y29831D01*
X40248Y29831D02*
X40256Y29850D01*
X40267Y29867D01*
X40281Y29882D01*
X40296Y29895D01*
X40314Y29906D01*
X40333Y29914D01*
X40353Y29918D01*
X40373Y29920D01*
X40393Y29918D01*
X40413Y29914D01*
X40432Y29906D01*
X40450Y29895D01*
X40465Y29882D01*
X40479Y29867D01*
X40490Y29850D01*
X40498Y29831D01*
X40514Y29794D01*
X40527Y29757D01*
X40538Y29719D01*
X40545Y29679D01*
X40549Y29640D01*
X40551Y29600D01*
X40196Y29600D02*
X40198Y29560D01*
X40202Y29521D01*
X40209Y29482D01*
X40220Y29443D01*
X40233Y29406D01*
X40249Y29369D01*
X40248Y29369D02*
X40256Y29350D01*
X40267Y29333D01*
X40281Y29318D01*
X40296Y29305D01*
X40314Y29294D01*
X40333Y29286D01*
X40353Y29282D01*
X40373Y29280D01*
X40498Y29369D02*
X40514Y29406D01*
X40527Y29443D01*
X40538Y29482D01*
X40545Y29521D01*
X40549Y29560D01*
X40551Y29600D01*
X40498Y29369D02*
X40490Y29350D01*
X40479Y29333D01*
X40465Y29318D01*
X40450Y29305D01*
X40432Y29294D01*
X40413Y29286D01*
X40393Y29282D01*
X40373Y29280D01*
X40231Y29422D02*
X40515Y29778D01*
X40811Y29778D02*
X40989Y29920D01*
X40989Y29280D01*
X41166Y29280D02*
X40811Y29280D01*
X41402Y29280D02*
X41402Y29316D01*
X41437Y29316D01*
X41437Y29280D01*
X41402Y29280D01*
X41646Y29067D02*
X41718Y29067D01*
X41931Y29707D01*
X41646Y29707D02*
X41789Y29280D01*
X42139Y29067D02*
X42210Y29067D01*
X42423Y29707D01*
X42139Y29707D02*
X42281Y29280D01*
X24190Y25720D02*
X20310Y25720D01*
X24190Y25720D02*
X24190Y30770D01*
X20310Y30770D02*
X20310Y25720D01*
X20310Y30770D02*
X24190Y30770D01*
D13*
X23340Y30002D02*
X23190Y29852D01*
X21840Y29852D01*
X21690Y30002D01*
X21840Y30152D01*
X23190Y30152D01*
X23340Y30002D01*
X21740Y29712D02*
X21570Y29882D01*
X21740Y29712D02*
X21500Y28540D01*
X21300Y28340D01*
X21200Y28440D01*
X21440Y29752D01*
X21570Y29882D01*
X21600Y28400D02*
X21420Y28220D01*
X21600Y28400D02*
X22930Y28400D01*
X23060Y28270D01*
X22890Y28100D01*
X21540Y28100D01*
X21420Y28220D01*
X21290Y26658D02*
X21140Y26508D01*
X21290Y26658D02*
X22640Y26658D01*
X22790Y26508D01*
X22640Y26358D01*
X21290Y26358D01*
X21140Y26508D01*
X22970Y27940D02*
X23170Y28140D01*
X22970Y27940D02*
X22740Y26798D01*
X22910Y26628D01*
X23040Y26758D01*
X23270Y28040D01*
X23170Y28140D01*
D14*
X22650Y26508D02*
X21300Y26508D01*
X22900Y26808D02*
X23150Y28000D01*
X22900Y28250D02*
X21550Y28250D01*
X21340Y28510D02*
X21589Y29711D01*
X21860Y30002D02*
X23210Y30002D01*
D15*
X20325Y31005D02*
X20325Y31455D01*
X20325Y31005D02*
X20525Y31005D01*
X20715Y31005D02*
X20915Y31005D01*
X20715Y31005D02*
X20715Y31455D01*
X20915Y31455D01*
X20865Y31255D02*
X20715Y31255D01*
X21104Y31455D02*
X21104Y31005D01*
X21104Y31455D02*
X21229Y31455D01*
X21249Y31453D01*
X21268Y31449D01*
X21286Y31441D01*
X21302Y31431D01*
X21317Y31418D01*
X21330Y31403D01*
X21340Y31387D01*
X21348Y31369D01*
X21352Y31350D01*
X21354Y31330D01*
X21354Y31130D01*
X21352Y31110D01*
X21348Y31091D01*
X21340Y31073D01*
X21330Y31057D01*
X21317Y31042D01*
X21302Y31029D01*
X21286Y31019D01*
X21268Y31011D01*
X21249Y31007D01*
X21229Y31005D01*
X21104Y31005D01*
X21569Y31355D02*
X21694Y31455D01*
X21694Y31005D01*
X21569Y31005D02*
X21819Y31005D01*
D10*
X24635Y25720D02*
X28515Y25720D01*
X28515Y30770D01*
X24635Y30770D02*
X24635Y25720D01*
X24635Y30770D02*
X28515Y30770D01*
D13*
X27665Y30002D02*
X27515Y29852D01*
X26165Y29852D01*
X26015Y30002D01*
X26165Y30152D01*
X27515Y30152D01*
X27665Y30002D01*
X26065Y29712D02*
X25895Y29882D01*
X26065Y29712D02*
X25825Y28540D01*
X25625Y28340D01*
X25525Y28440D01*
X25765Y29752D01*
X25895Y29882D01*
X25925Y28400D02*
X25745Y28220D01*
X25925Y28400D02*
X27255Y28400D01*
X27385Y28270D01*
X27215Y28100D01*
X25865Y28100D01*
X25745Y28220D01*
X25615Y26658D02*
X25465Y26508D01*
X25615Y26658D02*
X26965Y26658D01*
X27115Y26508D01*
X26965Y26358D01*
X25615Y26358D01*
X25465Y26508D01*
X27295Y27940D02*
X27495Y28140D01*
X27295Y27940D02*
X27065Y26798D01*
X27235Y26628D01*
X27365Y26758D01*
X27595Y28040D01*
X27495Y28140D01*
D14*
X26975Y26508D02*
X25625Y26508D01*
X27225Y26808D02*
X27475Y28000D01*
X27225Y28250D02*
X25875Y28250D01*
X25665Y28510D02*
X25914Y29711D01*
X26185Y30002D02*
X27535Y30002D01*
D15*
X24650Y31005D02*
X24650Y31455D01*
X24650Y31005D02*
X24850Y31005D01*
X25040Y31005D02*
X25240Y31005D01*
X25040Y31005D02*
X25040Y31455D01*
X25240Y31455D01*
X25190Y31255D02*
X25040Y31255D01*
X25429Y31455D02*
X25429Y31005D01*
X25429Y31455D02*
X25554Y31455D01*
X25574Y31453D01*
X25593Y31449D01*
X25611Y31441D01*
X25627Y31431D01*
X25642Y31418D01*
X25655Y31403D01*
X25665Y31387D01*
X25673Y31369D01*
X25677Y31350D01*
X25679Y31330D01*
X25679Y31130D01*
X25677Y31110D01*
X25673Y31091D01*
X25665Y31073D01*
X25655Y31057D01*
X25642Y31042D01*
X25627Y31029D01*
X25611Y31019D01*
X25593Y31011D01*
X25574Y31007D01*
X25554Y31005D01*
X25429Y31005D01*
X26031Y31456D02*
X26051Y31454D01*
X26070Y31449D01*
X26088Y31441D01*
X26104Y31430D01*
X26118Y31416D01*
X26129Y31400D01*
X26137Y31382D01*
X26142Y31363D01*
X26144Y31343D01*
X26031Y31455D02*
X26008Y31453D01*
X25986Y31448D01*
X25965Y31439D01*
X25946Y31427D01*
X25928Y31412D01*
X25914Y31395D01*
X25902Y31376D01*
X25893Y31355D01*
X26106Y31255D02*
X26119Y31270D01*
X26130Y31286D01*
X26138Y31304D01*
X26142Y31323D01*
X26144Y31343D01*
X26106Y31255D02*
X25894Y31005D01*
X26144Y31005D01*
D10*
X29060Y25720D02*
X32940Y25720D01*
X32940Y30770D01*
X29060Y30770D02*
X29060Y25720D01*
X29060Y30770D02*
X32940Y30770D01*
D13*
X32090Y30002D02*
X31940Y29852D01*
X30590Y29852D01*
X30440Y30002D01*
X30590Y30152D01*
X31940Y30152D01*
X32090Y30002D01*
X30490Y29712D02*
X30320Y29882D01*
X30490Y29712D02*
X30250Y28540D01*
X30050Y28340D01*
X29950Y28440D01*
X30190Y29752D01*
X30320Y29882D01*
X30350Y28400D02*
X30170Y28220D01*
X30350Y28400D02*
X31680Y28400D01*
X31810Y28270D01*
X31640Y28100D01*
X30290Y28100D01*
X30170Y28220D01*
X30040Y26658D02*
X29890Y26508D01*
X30040Y26658D02*
X31390Y26658D01*
X31540Y26508D01*
X31390Y26358D01*
X30040Y26358D01*
X29890Y26508D01*
X31720Y27940D02*
X31920Y28140D01*
X31720Y27940D02*
X31490Y26798D01*
X31660Y26628D01*
X31790Y26758D01*
X32020Y28040D01*
X31920Y28140D01*
D14*
X31400Y26508D02*
X30050Y26508D01*
X31650Y26808D02*
X31900Y28000D01*
X31650Y28250D02*
X30300Y28250D01*
X30090Y28510D02*
X30339Y29711D01*
X30610Y30002D02*
X31960Y30002D01*
D15*
X29075Y31005D02*
X29075Y31455D01*
X29075Y31005D02*
X29275Y31005D01*
X29465Y31005D02*
X29665Y31005D01*
X29465Y31005D02*
X29465Y31455D01*
X29665Y31455D01*
X29615Y31255D02*
X29465Y31255D01*
X29854Y31455D02*
X29854Y31005D01*
X29854Y31455D02*
X29979Y31455D01*
X29999Y31453D01*
X30018Y31449D01*
X30036Y31441D01*
X30052Y31431D01*
X30067Y31418D01*
X30080Y31403D01*
X30090Y31387D01*
X30098Y31369D01*
X30102Y31350D01*
X30104Y31330D01*
X30104Y31130D01*
X30102Y31110D01*
X30098Y31091D01*
X30090Y31073D01*
X30080Y31057D01*
X30067Y31042D01*
X30052Y31029D01*
X30036Y31019D01*
X30018Y31011D01*
X29999Y31007D01*
X29979Y31005D01*
X29854Y31005D01*
X30319Y31005D02*
X30444Y31005D01*
X30465Y31007D01*
X30485Y31012D01*
X30503Y31020D01*
X30521Y31031D01*
X30536Y31045D01*
X30549Y31062D01*
X30558Y31080D01*
X30565Y31099D01*
X30569Y31120D01*
X30569Y31140D01*
X30565Y31161D01*
X30558Y31180D01*
X30549Y31198D01*
X30536Y31215D01*
X30521Y31229D01*
X30503Y31240D01*
X30485Y31248D01*
X30465Y31253D01*
X30444Y31255D01*
X30469Y31455D02*
X30319Y31455D01*
X30469Y31455D02*
X30487Y31453D01*
X30505Y31448D01*
X30522Y31440D01*
X30536Y31429D01*
X30549Y31415D01*
X30559Y31400D01*
X30565Y31382D01*
X30569Y31364D01*
X30569Y31346D01*
X30565Y31328D01*
X30559Y31310D01*
X30549Y31295D01*
X30536Y31281D01*
X30522Y31270D01*
X30505Y31262D01*
X30487Y31257D01*
X30469Y31255D01*
X30369Y31255D01*
D10*
X28750Y21400D02*
X36750Y21400D01*
X36750Y19100D02*
X28750Y19100D01*
X36750Y19100D02*
X36750Y21400D01*
X28750Y21400D02*
X28750Y20650D01*
X28750Y19850D02*
X28750Y19100D01*
X28750Y19850D02*
X28789Y19852D01*
X28828Y19858D01*
X28866Y19867D01*
X28903Y19880D01*
X28939Y19897D01*
X28972Y19917D01*
X29004Y19941D01*
X29033Y19967D01*
X29059Y19996D01*
X29083Y20028D01*
X29103Y20061D01*
X29120Y20097D01*
X29133Y20134D01*
X29142Y20172D01*
X29148Y20211D01*
X29150Y20250D01*
X29148Y20289D01*
X29142Y20328D01*
X29133Y20366D01*
X29120Y20403D01*
X29103Y20439D01*
X29083Y20472D01*
X29059Y20504D01*
X29033Y20533D01*
X29004Y20559D01*
X28972Y20583D01*
X28939Y20603D01*
X28903Y20620D01*
X28866Y20633D01*
X28828Y20642D01*
X28789Y20648D01*
X28750Y20650D01*
D15*
X36875Y20175D02*
X37325Y20175D01*
X37325Y20125D02*
X37325Y20225D01*
X36875Y20225D02*
X36875Y20125D01*
X37325Y20509D02*
X37325Y20609D01*
X37325Y20509D02*
X37323Y20492D01*
X37319Y20475D01*
X37312Y20459D01*
X37302Y20445D01*
X37289Y20432D01*
X37275Y20422D01*
X37259Y20415D01*
X37242Y20411D01*
X37225Y20409D01*
X36975Y20409D01*
X36958Y20411D01*
X36941Y20415D01*
X36925Y20422D01*
X36911Y20432D01*
X36898Y20445D01*
X36888Y20459D01*
X36881Y20475D01*
X36877Y20492D01*
X36875Y20509D01*
X36875Y20609D01*
X36975Y20785D02*
X36875Y20910D01*
X37325Y20910D01*
X37325Y20785D02*
X37325Y21035D01*
D16*
X38295Y21360D02*
X38295Y20140D01*
X38295Y21360D02*
X37705Y21360D01*
X37705Y20140D01*
X38295Y20140D01*
D17*
X38230Y21520D02*
X37770Y21520D01*
X37770Y21648D01*
X37772Y21669D01*
X37777Y21690D01*
X37785Y21709D01*
X37797Y21727D01*
X37811Y21742D01*
X37828Y21755D01*
X37847Y21765D01*
X37867Y21772D01*
X37887Y21776D01*
X37909Y21776D01*
X37929Y21772D01*
X37949Y21765D01*
X37968Y21755D01*
X37985Y21742D01*
X37999Y21727D01*
X38011Y21709D01*
X38019Y21690D01*
X38024Y21669D01*
X38026Y21648D01*
X38026Y21520D01*
X38026Y21673D02*
X38230Y21776D01*
X37872Y21967D02*
X37770Y22095D01*
X38230Y22095D01*
X38230Y21967D02*
X38230Y22223D01*
D16*
X39795Y21360D02*
X39795Y20140D01*
X39795Y21360D02*
X39205Y21360D01*
X39205Y20140D01*
X39795Y20140D01*
D17*
X39730Y21520D02*
X39270Y21520D01*
X39270Y21648D01*
X39272Y21669D01*
X39277Y21690D01*
X39285Y21709D01*
X39297Y21727D01*
X39311Y21742D01*
X39328Y21755D01*
X39347Y21765D01*
X39367Y21772D01*
X39387Y21776D01*
X39409Y21776D01*
X39429Y21772D01*
X39449Y21765D01*
X39468Y21755D01*
X39485Y21742D01*
X39499Y21727D01*
X39511Y21709D01*
X39519Y21690D01*
X39524Y21669D01*
X39526Y21648D01*
X39526Y21520D01*
X39526Y21673D02*
X39730Y21776D01*
X39730Y21967D02*
X39730Y22095D01*
X39728Y22116D01*
X39723Y22137D01*
X39715Y22156D01*
X39703Y22174D01*
X39689Y22189D01*
X39672Y22202D01*
X39653Y22212D01*
X39633Y22219D01*
X39613Y22223D01*
X39591Y22223D01*
X39571Y22219D01*
X39551Y22212D01*
X39532Y22202D01*
X39515Y22189D01*
X39501Y22174D01*
X39489Y22156D01*
X39481Y22137D01*
X39476Y22116D01*
X39474Y22095D01*
X39270Y22120D02*
X39270Y21967D01*
X39270Y22120D02*
X39272Y22139D01*
X39277Y22157D01*
X39285Y22174D01*
X39297Y22189D01*
X39311Y22201D01*
X39327Y22211D01*
X39344Y22218D01*
X39363Y22222D01*
X39381Y22222D01*
X39400Y22218D01*
X39417Y22211D01*
X39433Y22201D01*
X39447Y22189D01*
X39459Y22174D01*
X39467Y22157D01*
X39472Y22139D01*
X39474Y22120D01*
X39474Y22018D01*
D16*
X39795Y19860D02*
X39795Y18640D01*
X39795Y19860D02*
X39205Y19860D01*
X39205Y18640D01*
X39795Y18640D01*
D17*
X39730Y17770D02*
X39270Y17770D01*
X39270Y17898D01*
X39272Y17919D01*
X39277Y17940D01*
X39285Y17959D01*
X39297Y17977D01*
X39311Y17992D01*
X39328Y18005D01*
X39347Y18015D01*
X39367Y18022D01*
X39387Y18026D01*
X39409Y18026D01*
X39429Y18022D01*
X39449Y18015D01*
X39468Y18005D01*
X39485Y17992D01*
X39499Y17977D01*
X39511Y17959D01*
X39519Y17940D01*
X39524Y17919D01*
X39526Y17898D01*
X39526Y17770D01*
X39526Y17923D02*
X39730Y18026D01*
X39628Y18217D02*
X39270Y18319D01*
X39628Y18217D02*
X39628Y18473D01*
X39526Y18396D02*
X39730Y18396D01*
D16*
X39045Y20140D02*
X39045Y21360D01*
X38455Y21360D01*
X38455Y20140D01*
X39045Y20140D01*
D17*
X38980Y21520D02*
X38520Y21520D01*
X38520Y21648D01*
X38522Y21669D01*
X38527Y21690D01*
X38535Y21709D01*
X38547Y21727D01*
X38561Y21742D01*
X38578Y21755D01*
X38597Y21765D01*
X38617Y21772D01*
X38637Y21776D01*
X38659Y21776D01*
X38679Y21772D01*
X38699Y21765D01*
X38718Y21755D01*
X38735Y21742D01*
X38749Y21727D01*
X38761Y21709D01*
X38769Y21690D01*
X38774Y21669D01*
X38776Y21648D01*
X38776Y21520D01*
X38776Y21673D02*
X38980Y21776D01*
X38980Y21967D02*
X38980Y22120D01*
X38978Y22138D01*
X38974Y22155D01*
X38966Y22171D01*
X38956Y22186D01*
X38944Y22198D01*
X38929Y22208D01*
X38913Y22216D01*
X38896Y22220D01*
X38878Y22222D01*
X38878Y22223D02*
X38827Y22223D01*
X38827Y22222D02*
X38809Y22220D01*
X38792Y22216D01*
X38776Y22208D01*
X38761Y22198D01*
X38749Y22186D01*
X38739Y22171D01*
X38731Y22155D01*
X38727Y22138D01*
X38725Y22120D01*
X38724Y22120D02*
X38724Y21967D01*
X38520Y21967D01*
X38520Y22223D01*
D16*
X39045Y19860D02*
X39045Y18640D01*
X39045Y19860D02*
X38455Y19860D01*
X38455Y18640D01*
X39045Y18640D01*
D17*
X38980Y17770D02*
X38520Y17770D01*
X38520Y17898D01*
X38522Y17919D01*
X38527Y17940D01*
X38535Y17959D01*
X38547Y17977D01*
X38561Y17992D01*
X38578Y18005D01*
X38597Y18015D01*
X38617Y18022D01*
X38637Y18026D01*
X38659Y18026D01*
X38679Y18022D01*
X38699Y18015D01*
X38718Y18005D01*
X38735Y17992D01*
X38749Y17977D01*
X38761Y17959D01*
X38769Y17940D01*
X38774Y17919D01*
X38776Y17898D01*
X38776Y17770D01*
X38776Y17923D02*
X38980Y18026D01*
X38724Y18217D02*
X38724Y18370D01*
X38725Y18370D02*
X38727Y18388D01*
X38731Y18405D01*
X38739Y18421D01*
X38749Y18436D01*
X38761Y18448D01*
X38776Y18458D01*
X38792Y18466D01*
X38809Y18470D01*
X38827Y18472D01*
X38827Y18473D02*
X38852Y18473D01*
X38873Y18471D01*
X38894Y18466D01*
X38913Y18458D01*
X38931Y18446D01*
X38946Y18432D01*
X38959Y18415D01*
X38969Y18396D01*
X38976Y18376D01*
X38980Y18356D01*
X38980Y18334D01*
X38976Y18314D01*
X38969Y18294D01*
X38959Y18275D01*
X38946Y18258D01*
X38931Y18244D01*
X38913Y18232D01*
X38894Y18224D01*
X38873Y18219D01*
X38852Y18217D01*
X38724Y18217D01*
X38724Y18218D02*
X38697Y18220D01*
X38671Y18225D01*
X38646Y18234D01*
X38622Y18245D01*
X38600Y18260D01*
X38580Y18278D01*
X38562Y18298D01*
X38547Y18320D01*
X38536Y18344D01*
X38527Y18369D01*
X38522Y18395D01*
X38520Y18422D01*
X21102Y20020D02*
X20898Y20020D01*
X20877Y20022D01*
X20856Y20027D01*
X20837Y20035D01*
X20819Y20047D01*
X20804Y20061D01*
X20791Y20078D01*
X20781Y20097D01*
X20774Y20117D01*
X20770Y20137D01*
X20770Y20159D01*
X20774Y20179D01*
X20781Y20199D01*
X20791Y20218D01*
X20804Y20235D01*
X20819Y20249D01*
X20837Y20261D01*
X20856Y20269D01*
X20877Y20274D01*
X20898Y20276D01*
X21102Y20276D01*
X21123Y20274D01*
X21144Y20269D01*
X21163Y20261D01*
X21181Y20249D01*
X21196Y20235D01*
X21209Y20218D01*
X21219Y20199D01*
X21226Y20179D01*
X21230Y20159D01*
X21230Y20137D01*
X21226Y20117D01*
X21219Y20097D01*
X21209Y20078D01*
X21196Y20061D01*
X21181Y20047D01*
X21163Y20035D01*
X21144Y20027D01*
X21123Y20022D01*
X21102Y20020D01*
X21128Y20224D02*
X21230Y20327D01*
X20872Y20459D02*
X20770Y20587D01*
X21230Y20587D01*
X21230Y20714D02*
X21230Y20459D01*
X25148Y20286D02*
X25352Y20286D01*
X25148Y20285D02*
X25127Y20287D01*
X25106Y20292D01*
X25087Y20300D01*
X25069Y20312D01*
X25054Y20326D01*
X25041Y20343D01*
X25031Y20362D01*
X25024Y20382D01*
X25020Y20402D01*
X25020Y20424D01*
X25024Y20444D01*
X25031Y20464D01*
X25041Y20483D01*
X25054Y20500D01*
X25069Y20514D01*
X25087Y20526D01*
X25106Y20534D01*
X25127Y20539D01*
X25148Y20541D01*
X25352Y20541D01*
X25373Y20539D01*
X25394Y20534D01*
X25413Y20526D01*
X25431Y20514D01*
X25446Y20500D01*
X25459Y20483D01*
X25469Y20464D01*
X25476Y20444D01*
X25480Y20424D01*
X25480Y20402D01*
X25476Y20382D01*
X25469Y20362D01*
X25459Y20343D01*
X25446Y20326D01*
X25431Y20312D01*
X25413Y20300D01*
X25394Y20292D01*
X25373Y20287D01*
X25352Y20285D01*
X25378Y20490D02*
X25480Y20592D01*
X25135Y20980D02*
X25115Y20978D01*
X25096Y20973D01*
X25078Y20965D01*
X25061Y20953D01*
X25047Y20939D01*
X25035Y20923D01*
X25027Y20904D01*
X25022Y20885D01*
X25020Y20865D01*
X25022Y20842D01*
X25027Y20819D01*
X25036Y20798D01*
X25048Y20778D01*
X25063Y20760D01*
X25081Y20745D01*
X25101Y20733D01*
X25122Y20724D01*
X25225Y20942D02*
X25210Y20955D01*
X25193Y20966D01*
X25174Y20974D01*
X25155Y20978D01*
X25135Y20980D01*
X25224Y20942D02*
X25480Y20724D01*
X25480Y20980D01*
X24102Y20020D02*
X23898Y20020D01*
X23877Y20022D01*
X23856Y20027D01*
X23837Y20035D01*
X23819Y20047D01*
X23804Y20061D01*
X23791Y20078D01*
X23781Y20097D01*
X23774Y20117D01*
X23770Y20137D01*
X23770Y20159D01*
X23774Y20179D01*
X23781Y20199D01*
X23791Y20218D01*
X23804Y20235D01*
X23819Y20249D01*
X23837Y20261D01*
X23856Y20269D01*
X23877Y20274D01*
X23898Y20276D01*
X24102Y20276D01*
X24123Y20274D01*
X24144Y20269D01*
X24163Y20261D01*
X24181Y20249D01*
X24196Y20235D01*
X24209Y20218D01*
X24219Y20199D01*
X24226Y20179D01*
X24230Y20159D01*
X24230Y20137D01*
X24226Y20117D01*
X24219Y20097D01*
X24209Y20078D01*
X24196Y20061D01*
X24181Y20047D01*
X24163Y20035D01*
X24144Y20027D01*
X24123Y20022D01*
X24102Y20020D01*
X24128Y20224D02*
X24230Y20327D01*
X24230Y20459D02*
X24230Y20587D01*
X24228Y20608D01*
X24223Y20629D01*
X24215Y20648D01*
X24203Y20666D01*
X24189Y20681D01*
X24172Y20694D01*
X24153Y20704D01*
X24133Y20711D01*
X24113Y20715D01*
X24091Y20715D01*
X24071Y20711D01*
X24051Y20704D01*
X24032Y20694D01*
X24015Y20681D01*
X24001Y20666D01*
X23989Y20648D01*
X23981Y20629D01*
X23976Y20608D01*
X23974Y20587D01*
X23770Y20612D02*
X23770Y20459D01*
X23770Y20612D02*
X23772Y20631D01*
X23777Y20649D01*
X23785Y20666D01*
X23797Y20681D01*
X23811Y20693D01*
X23827Y20703D01*
X23844Y20710D01*
X23863Y20714D01*
X23881Y20714D01*
X23900Y20710D01*
X23917Y20703D01*
X23933Y20693D01*
X23947Y20681D01*
X23959Y20666D01*
X23967Y20649D01*
X23972Y20631D01*
X23974Y20612D01*
X23974Y20510D01*
X22602Y20020D02*
X22398Y20020D01*
X22377Y20022D01*
X22356Y20027D01*
X22337Y20035D01*
X22319Y20047D01*
X22304Y20061D01*
X22291Y20078D01*
X22281Y20097D01*
X22274Y20117D01*
X22270Y20137D01*
X22270Y20159D01*
X22274Y20179D01*
X22281Y20199D01*
X22291Y20218D01*
X22304Y20235D01*
X22319Y20249D01*
X22337Y20261D01*
X22356Y20269D01*
X22377Y20274D01*
X22398Y20276D01*
X22602Y20276D01*
X22623Y20274D01*
X22644Y20269D01*
X22663Y20261D01*
X22681Y20249D01*
X22696Y20235D01*
X22709Y20218D01*
X22719Y20199D01*
X22726Y20179D01*
X22730Y20159D01*
X22730Y20137D01*
X22726Y20117D01*
X22719Y20097D01*
X22709Y20078D01*
X22696Y20061D01*
X22681Y20047D01*
X22663Y20035D01*
X22644Y20027D01*
X22623Y20022D01*
X22602Y20020D01*
X22628Y20224D02*
X22730Y20327D01*
X22628Y20459D02*
X22270Y20561D01*
X22628Y20459D02*
X22628Y20714D01*
X22526Y20638D02*
X22730Y20638D01*
D16*
X13110Y17795D02*
X11890Y17795D01*
X11890Y17205D01*
X13110Y17205D01*
X13110Y17795D01*
D17*
X13527Y17730D02*
X13527Y17270D01*
X13527Y17730D02*
X13655Y17730D01*
X13676Y17728D01*
X13697Y17723D01*
X13716Y17715D01*
X13734Y17703D01*
X13749Y17689D01*
X13762Y17672D01*
X13772Y17653D01*
X13779Y17633D01*
X13783Y17613D01*
X13783Y17591D01*
X13779Y17571D01*
X13772Y17551D01*
X13762Y17532D01*
X13749Y17515D01*
X13734Y17501D01*
X13716Y17489D01*
X13697Y17481D01*
X13676Y17476D01*
X13655Y17474D01*
X13527Y17474D01*
X13681Y17474D02*
X13783Y17270D01*
X13974Y17679D02*
X13974Y17730D01*
X14230Y17730D01*
X14102Y17270D01*
D16*
X13110Y17045D02*
X11890Y17045D01*
X11890Y16455D01*
X13110Y16455D01*
X13110Y17045D01*
D17*
X13527Y16980D02*
X13527Y16520D01*
X13527Y16980D02*
X13655Y16980D01*
X13676Y16978D01*
X13697Y16973D01*
X13716Y16965D01*
X13734Y16953D01*
X13749Y16939D01*
X13762Y16922D01*
X13772Y16903D01*
X13779Y16883D01*
X13783Y16863D01*
X13783Y16841D01*
X13779Y16821D01*
X13772Y16801D01*
X13762Y16782D01*
X13749Y16765D01*
X13734Y16751D01*
X13716Y16739D01*
X13697Y16731D01*
X13676Y16726D01*
X13655Y16724D01*
X13527Y16724D01*
X13681Y16724D02*
X13783Y16520D01*
X13974Y16648D02*
X13976Y16669D01*
X13981Y16690D01*
X13989Y16709D01*
X14001Y16727D01*
X14015Y16742D01*
X14032Y16755D01*
X14051Y16765D01*
X14071Y16772D01*
X14091Y16776D01*
X14113Y16776D01*
X14133Y16772D01*
X14153Y16765D01*
X14172Y16755D01*
X14189Y16742D01*
X14203Y16727D01*
X14215Y16709D01*
X14223Y16690D01*
X14228Y16669D01*
X14230Y16648D01*
X14228Y16627D01*
X14223Y16606D01*
X14215Y16587D01*
X14203Y16569D01*
X14189Y16554D01*
X14172Y16541D01*
X14153Y16531D01*
X14133Y16524D01*
X14113Y16520D01*
X14091Y16520D01*
X14071Y16524D01*
X14051Y16531D01*
X14032Y16541D01*
X14015Y16554D01*
X14001Y16569D01*
X13989Y16587D01*
X13981Y16606D01*
X13976Y16627D01*
X13974Y16648D01*
X14000Y16878D02*
X14002Y16897D01*
X14007Y16915D01*
X14015Y16932D01*
X14027Y16947D01*
X14041Y16959D01*
X14057Y16969D01*
X14074Y16976D01*
X14093Y16980D01*
X14111Y16980D01*
X14130Y16976D01*
X14147Y16969D01*
X14163Y16959D01*
X14177Y16947D01*
X14189Y16932D01*
X14197Y16915D01*
X14202Y16897D01*
X14204Y16878D01*
X14202Y16859D01*
X14197Y16841D01*
X14189Y16824D01*
X14177Y16809D01*
X14163Y16797D01*
X14147Y16787D01*
X14130Y16780D01*
X14111Y16776D01*
X14093Y16776D01*
X14074Y16780D01*
X14057Y16787D01*
X14041Y16797D01*
X14027Y16809D01*
X14015Y16824D01*
X14007Y16841D01*
X14002Y16859D01*
X14000Y16878D01*
D16*
X13110Y22295D02*
X11890Y22295D01*
X11890Y21705D01*
X13110Y21705D01*
X13110Y22295D01*
D17*
X13777Y22230D02*
X13777Y21770D01*
X13777Y22230D02*
X13905Y22230D01*
X13926Y22228D01*
X13947Y22223D01*
X13966Y22215D01*
X13984Y22203D01*
X13999Y22189D01*
X14012Y22172D01*
X14022Y22153D01*
X14029Y22133D01*
X14033Y22113D01*
X14033Y22091D01*
X14029Y22071D01*
X14022Y22051D01*
X14012Y22032D01*
X13999Y22015D01*
X13984Y22001D01*
X13966Y21989D01*
X13947Y21981D01*
X13926Y21976D01*
X13905Y21974D01*
X13777Y21974D01*
X13931Y21974D02*
X14033Y21770D01*
X14327Y21974D02*
X14480Y21974D01*
X14327Y21975D02*
X14309Y21977D01*
X14292Y21981D01*
X14276Y21989D01*
X14261Y21999D01*
X14249Y22011D01*
X14239Y22026D01*
X14231Y22042D01*
X14227Y22059D01*
X14225Y22077D01*
X14224Y22077D02*
X14224Y22102D01*
X14226Y22123D01*
X14231Y22144D01*
X14239Y22163D01*
X14251Y22181D01*
X14265Y22196D01*
X14282Y22209D01*
X14301Y22219D01*
X14321Y22226D01*
X14341Y22230D01*
X14363Y22230D01*
X14383Y22226D01*
X14403Y22219D01*
X14422Y22209D01*
X14439Y22196D01*
X14453Y22181D01*
X14465Y22163D01*
X14473Y22144D01*
X14478Y22123D01*
X14480Y22102D01*
X14480Y21974D01*
X14478Y21947D01*
X14473Y21921D01*
X14464Y21896D01*
X14453Y21872D01*
X14438Y21850D01*
X14420Y21830D01*
X14400Y21812D01*
X14378Y21797D01*
X14354Y21786D01*
X14329Y21777D01*
X14303Y21772D01*
X14276Y21770D01*
D16*
X13110Y21545D02*
X11890Y21545D01*
X11890Y20955D01*
X13110Y20955D01*
X13110Y21545D01*
D17*
X13327Y21480D02*
X13327Y21020D01*
X13327Y21480D02*
X13455Y21480D01*
X13476Y21478D01*
X13497Y21473D01*
X13516Y21465D01*
X13534Y21453D01*
X13549Y21439D01*
X13562Y21422D01*
X13572Y21403D01*
X13579Y21383D01*
X13583Y21363D01*
X13583Y21341D01*
X13579Y21321D01*
X13572Y21301D01*
X13562Y21282D01*
X13549Y21265D01*
X13534Y21251D01*
X13516Y21239D01*
X13497Y21231D01*
X13476Y21226D01*
X13455Y21224D01*
X13327Y21224D01*
X13481Y21224D02*
X13583Y21020D01*
X13774Y21378D02*
X13902Y21480D01*
X13902Y21020D01*
X13774Y21020D02*
X14030Y21020D01*
X14225Y21250D02*
X14227Y21284D01*
X14231Y21318D01*
X14239Y21352D01*
X14250Y21385D01*
X14263Y21416D01*
X14262Y21416D02*
X14269Y21431D01*
X14278Y21445D01*
X14290Y21457D01*
X14304Y21467D01*
X14319Y21474D01*
X14335Y21479D01*
X14352Y21480D01*
X14369Y21479D01*
X14385Y21474D01*
X14400Y21467D01*
X14414Y21457D01*
X14426Y21445D01*
X14435Y21431D01*
X14442Y21416D01*
X14455Y21385D01*
X14466Y21352D01*
X14474Y21318D01*
X14478Y21284D01*
X14480Y21250D01*
X14225Y21250D02*
X14227Y21216D01*
X14231Y21182D01*
X14239Y21148D01*
X14250Y21115D01*
X14263Y21084D01*
X14262Y21084D02*
X14269Y21069D01*
X14278Y21055D01*
X14290Y21043D01*
X14304Y21033D01*
X14319Y21026D01*
X14335Y21021D01*
X14352Y21020D01*
X14442Y21084D02*
X14455Y21115D01*
X14466Y21148D01*
X14474Y21182D01*
X14478Y21216D01*
X14480Y21250D01*
X14442Y21084D02*
X14435Y21069D01*
X14426Y21055D01*
X14414Y21043D01*
X14400Y21033D01*
X14385Y21026D01*
X14369Y21021D01*
X14352Y21020D01*
X14250Y21122D02*
X14454Y21378D01*
D16*
X13110Y20795D02*
X11890Y20795D01*
X11890Y20205D01*
X13110Y20205D01*
X13110Y20795D01*
D17*
X13327Y20730D02*
X13327Y20270D01*
X13327Y20730D02*
X13455Y20730D01*
X13476Y20728D01*
X13497Y20723D01*
X13516Y20715D01*
X13534Y20703D01*
X13549Y20689D01*
X13562Y20672D01*
X13572Y20653D01*
X13579Y20633D01*
X13583Y20613D01*
X13583Y20591D01*
X13579Y20571D01*
X13572Y20551D01*
X13562Y20532D01*
X13549Y20515D01*
X13534Y20501D01*
X13516Y20489D01*
X13497Y20481D01*
X13476Y20476D01*
X13455Y20474D01*
X13327Y20474D01*
X13481Y20474D02*
X13583Y20270D01*
X13774Y20628D02*
X13902Y20730D01*
X13902Y20270D01*
X13774Y20270D02*
X14030Y20270D01*
X14224Y20628D02*
X14352Y20730D01*
X14352Y20270D01*
X14224Y20270D02*
X14480Y20270D01*
D16*
X13110Y20045D02*
X11890Y20045D01*
X11890Y19455D01*
X13110Y19455D01*
X13110Y20045D01*
D17*
X13327Y19980D02*
X13327Y19520D01*
X13327Y19980D02*
X13455Y19980D01*
X13476Y19978D01*
X13497Y19973D01*
X13516Y19965D01*
X13534Y19953D01*
X13549Y19939D01*
X13562Y19922D01*
X13572Y19903D01*
X13579Y19883D01*
X13583Y19863D01*
X13583Y19841D01*
X13579Y19821D01*
X13572Y19801D01*
X13562Y19782D01*
X13549Y19765D01*
X13534Y19751D01*
X13516Y19739D01*
X13497Y19731D01*
X13476Y19726D01*
X13455Y19724D01*
X13327Y19724D01*
X13481Y19724D02*
X13583Y19520D01*
X13774Y19878D02*
X13902Y19980D01*
X13902Y19520D01*
X13774Y19520D02*
X14030Y19520D01*
X14480Y19865D02*
X14478Y19885D01*
X14473Y19904D01*
X14465Y19923D01*
X14453Y19939D01*
X14439Y19953D01*
X14423Y19965D01*
X14404Y19973D01*
X14385Y19978D01*
X14365Y19980D01*
X14342Y19978D01*
X14319Y19973D01*
X14298Y19964D01*
X14278Y19952D01*
X14260Y19937D01*
X14245Y19919D01*
X14233Y19899D01*
X14224Y19878D01*
X14442Y19775D02*
X14455Y19790D01*
X14466Y19807D01*
X14474Y19826D01*
X14478Y19845D01*
X14480Y19865D01*
X14442Y19776D02*
X14224Y19520D01*
X14480Y19520D01*
D16*
X13110Y19295D02*
X11890Y19295D01*
X11890Y18705D01*
X13110Y18705D01*
X13110Y19295D01*
D17*
X13327Y19230D02*
X13327Y18770D01*
X13327Y19230D02*
X13455Y19230D01*
X13476Y19228D01*
X13497Y19223D01*
X13516Y19215D01*
X13534Y19203D01*
X13549Y19189D01*
X13562Y19172D01*
X13572Y19153D01*
X13579Y19133D01*
X13583Y19113D01*
X13583Y19091D01*
X13579Y19071D01*
X13572Y19051D01*
X13562Y19032D01*
X13549Y19015D01*
X13534Y19001D01*
X13516Y18989D01*
X13497Y18981D01*
X13476Y18976D01*
X13455Y18974D01*
X13327Y18974D01*
X13481Y18974D02*
X13583Y18770D01*
X13774Y19128D02*
X13902Y19230D01*
X13902Y18770D01*
X13774Y18770D02*
X14030Y18770D01*
X14224Y18770D02*
X14352Y18770D01*
X14373Y18772D01*
X14394Y18777D01*
X14413Y18785D01*
X14431Y18797D01*
X14446Y18811D01*
X14459Y18828D01*
X14469Y18847D01*
X14476Y18867D01*
X14480Y18887D01*
X14480Y18909D01*
X14476Y18929D01*
X14469Y18949D01*
X14459Y18968D01*
X14446Y18985D01*
X14431Y18999D01*
X14413Y19011D01*
X14394Y19019D01*
X14373Y19024D01*
X14352Y19026D01*
X14378Y19230D02*
X14224Y19230D01*
X14378Y19230D02*
X14397Y19228D01*
X14415Y19223D01*
X14432Y19215D01*
X14447Y19203D01*
X14459Y19189D01*
X14469Y19173D01*
X14476Y19156D01*
X14480Y19137D01*
X14480Y19119D01*
X14476Y19100D01*
X14469Y19083D01*
X14459Y19067D01*
X14447Y19053D01*
X14432Y19041D01*
X14415Y19033D01*
X14397Y19028D01*
X14378Y19026D01*
X14276Y19026D01*
D16*
X13110Y18545D02*
X11890Y18545D01*
X11890Y17955D01*
X13110Y17955D01*
X13110Y18545D01*
D17*
X13327Y18480D02*
X13327Y18020D01*
X13327Y18480D02*
X13455Y18480D01*
X13476Y18478D01*
X13497Y18473D01*
X13516Y18465D01*
X13534Y18453D01*
X13549Y18439D01*
X13562Y18422D01*
X13572Y18403D01*
X13579Y18383D01*
X13583Y18363D01*
X13583Y18341D01*
X13579Y18321D01*
X13572Y18301D01*
X13562Y18282D01*
X13549Y18265D01*
X13534Y18251D01*
X13516Y18239D01*
X13497Y18231D01*
X13476Y18226D01*
X13455Y18224D01*
X13327Y18224D01*
X13481Y18224D02*
X13583Y18020D01*
X13774Y18378D02*
X13902Y18480D01*
X13902Y18020D01*
X13774Y18020D02*
X14030Y18020D01*
X14224Y18122D02*
X14327Y18480D01*
X14224Y18122D02*
X14480Y18122D01*
X14403Y18224D02*
X14403Y18020D01*
D16*
X5110Y6045D02*
X3890Y6045D01*
X3890Y5455D01*
X5110Y5455D01*
X5110Y6045D01*
D17*
X5270Y5980D02*
X5423Y5520D01*
X5577Y5980D01*
X5746Y5878D02*
X5873Y5980D01*
X5873Y5520D01*
X5746Y5520D02*
X6001Y5520D01*
D16*
X5110Y9045D02*
X3890Y9045D01*
X3890Y8455D01*
X5110Y8455D01*
X5110Y9045D01*
D17*
X5249Y8980D02*
X5402Y8520D01*
X5556Y8980D01*
X5865Y8980D02*
X5885Y8978D01*
X5904Y8973D01*
X5923Y8965D01*
X5939Y8953D01*
X5953Y8939D01*
X5965Y8923D01*
X5973Y8904D01*
X5978Y8885D01*
X5980Y8865D01*
X5865Y8980D02*
X5842Y8978D01*
X5819Y8973D01*
X5798Y8964D01*
X5778Y8952D01*
X5760Y8937D01*
X5745Y8919D01*
X5733Y8899D01*
X5724Y8878D01*
X5942Y8775D02*
X5955Y8790D01*
X5966Y8807D01*
X5974Y8826D01*
X5978Y8845D01*
X5980Y8865D01*
X5942Y8776D02*
X5724Y8520D01*
X5980Y8520D01*
D16*
X5110Y8045D02*
X3890Y8045D01*
X3890Y7455D01*
X5110Y7455D01*
X5110Y8045D01*
D17*
X5270Y7980D02*
X5423Y7520D01*
X5577Y7980D01*
X5746Y7520D02*
X5873Y7520D01*
X5894Y7522D01*
X5915Y7527D01*
X5934Y7535D01*
X5952Y7547D01*
X5967Y7561D01*
X5980Y7578D01*
X5990Y7597D01*
X5997Y7617D01*
X6001Y7637D01*
X6001Y7659D01*
X5997Y7679D01*
X5990Y7699D01*
X5980Y7718D01*
X5967Y7735D01*
X5952Y7749D01*
X5934Y7761D01*
X5915Y7769D01*
X5894Y7774D01*
X5873Y7776D01*
X5899Y7980D02*
X5746Y7980D01*
X5899Y7980D02*
X5918Y7978D01*
X5936Y7973D01*
X5953Y7965D01*
X5968Y7953D01*
X5980Y7939D01*
X5990Y7923D01*
X5997Y7906D01*
X6001Y7887D01*
X6001Y7869D01*
X5997Y7850D01*
X5990Y7833D01*
X5980Y7817D01*
X5968Y7803D01*
X5953Y7791D01*
X5936Y7783D01*
X5918Y7778D01*
X5899Y7776D01*
X5797Y7776D01*
D16*
X5110Y7045D02*
X3890Y7045D01*
X3890Y6455D01*
X5110Y6455D01*
X5110Y7045D01*
D17*
X5270Y6980D02*
X5423Y6520D01*
X5577Y6980D01*
X5848Y6980D02*
X5746Y6622D01*
X6001Y6622D01*
X5924Y6724D02*
X5924Y6520D01*
D16*
X19705Y24390D02*
X19705Y25610D01*
X19705Y24390D02*
X20295Y24390D01*
X20295Y25610D01*
X19705Y25610D01*
D17*
X19480Y24803D02*
X19480Y24700D01*
X19478Y24682D01*
X19474Y24665D01*
X19466Y24649D01*
X19456Y24634D01*
X19444Y24622D01*
X19429Y24612D01*
X19413Y24604D01*
X19396Y24600D01*
X19378Y24598D01*
X19122Y24598D01*
X19102Y24600D01*
X19083Y24606D01*
X19065Y24615D01*
X19050Y24628D01*
X19037Y24643D01*
X19028Y24661D01*
X19022Y24680D01*
X19020Y24700D01*
X19020Y24803D01*
X19122Y24974D02*
X19020Y25102D01*
X19480Y25102D01*
X19480Y24974D02*
X19480Y25230D01*
D16*
X27205Y21860D02*
X27205Y20640D01*
X27795Y20640D01*
X27795Y21860D01*
X27205Y21860D01*
D17*
X27730Y19724D02*
X27730Y19622D01*
X27728Y19604D01*
X27724Y19587D01*
X27716Y19571D01*
X27706Y19556D01*
X27694Y19544D01*
X27679Y19534D01*
X27663Y19526D01*
X27646Y19522D01*
X27628Y19520D01*
X27372Y19520D01*
X27352Y19522D01*
X27333Y19528D01*
X27315Y19537D01*
X27300Y19550D01*
X27287Y19565D01*
X27278Y19583D01*
X27272Y19602D01*
X27270Y19622D01*
X27270Y19724D01*
X27270Y20037D02*
X27272Y20057D01*
X27277Y20076D01*
X27285Y20095D01*
X27297Y20111D01*
X27311Y20125D01*
X27328Y20137D01*
X27346Y20145D01*
X27365Y20150D01*
X27385Y20152D01*
X27270Y20037D02*
X27272Y20014D01*
X27277Y19991D01*
X27286Y19970D01*
X27298Y19950D01*
X27313Y19932D01*
X27331Y19917D01*
X27351Y19905D01*
X27372Y19896D01*
X27475Y20114D02*
X27460Y20127D01*
X27443Y20138D01*
X27424Y20146D01*
X27405Y20150D01*
X27385Y20152D01*
X27474Y20114D02*
X27730Y19896D01*
X27730Y20152D01*
D16*
X24205Y24390D02*
X24205Y25610D01*
X24205Y24390D02*
X24795Y24390D01*
X24795Y25610D01*
X24205Y25610D01*
D17*
X24230Y24803D02*
X24230Y24700D01*
X24228Y24682D01*
X24224Y24665D01*
X24216Y24649D01*
X24206Y24634D01*
X24194Y24622D01*
X24179Y24612D01*
X24163Y24604D01*
X24146Y24600D01*
X24128Y24598D01*
X23872Y24598D01*
X23852Y24600D01*
X23833Y24606D01*
X23815Y24615D01*
X23800Y24628D01*
X23787Y24643D01*
X23778Y24661D01*
X23772Y24680D01*
X23770Y24700D01*
X23770Y24803D01*
X24230Y24974D02*
X24230Y25102D01*
X24228Y25123D01*
X24223Y25144D01*
X24215Y25163D01*
X24203Y25181D01*
X24189Y25196D01*
X24172Y25209D01*
X24153Y25219D01*
X24133Y25226D01*
X24113Y25230D01*
X24091Y25230D01*
X24071Y25226D01*
X24051Y25219D01*
X24032Y25209D01*
X24015Y25196D01*
X24001Y25181D01*
X23989Y25163D01*
X23981Y25144D01*
X23976Y25123D01*
X23974Y25102D01*
X23770Y25128D02*
X23770Y24974D01*
X23770Y25128D02*
X23772Y25147D01*
X23777Y25165D01*
X23785Y25182D01*
X23797Y25197D01*
X23811Y25209D01*
X23827Y25219D01*
X23844Y25226D01*
X23863Y25230D01*
X23881Y25230D01*
X23900Y25226D01*
X23917Y25219D01*
X23933Y25209D01*
X23947Y25197D01*
X23959Y25182D01*
X23967Y25165D01*
X23972Y25147D01*
X23974Y25128D01*
X23974Y25026D01*
D16*
X28455Y25610D02*
X28455Y24390D01*
X29045Y24390D01*
X29045Y25610D01*
X28455Y25610D01*
D17*
X28480Y24803D02*
X28480Y24700D01*
X28478Y24682D01*
X28474Y24665D01*
X28466Y24649D01*
X28456Y24634D01*
X28444Y24622D01*
X28429Y24612D01*
X28413Y24604D01*
X28396Y24600D01*
X28378Y24598D01*
X28122Y24598D01*
X28102Y24600D01*
X28083Y24606D01*
X28065Y24615D01*
X28050Y24628D01*
X28037Y24643D01*
X28028Y24661D01*
X28022Y24680D01*
X28020Y24700D01*
X28020Y24803D01*
X28020Y25077D02*
X28378Y24974D01*
X28378Y25230D01*
X28276Y25153D02*
X28480Y25153D01*
D18*
X30746Y7858D02*
X32246Y7858D01*
D13*
X32300Y7901D01*
X32352Y7947D01*
X32401Y7996D01*
X32448Y8048D01*
X32491Y8102D01*
X32532Y8158D01*
X32569Y8217D01*
X32603Y8277D01*
X32633Y8340D01*
X32660Y8403D01*
X32684Y8469D01*
X32704Y8535D01*
X32720Y8603D01*
X32732Y8671D01*
X32740Y8740D01*
X32745Y8809D01*
X32746Y8879D01*
X32743Y8948D01*
X32736Y9017D01*
X32725Y9085D01*
X32711Y9153D01*
X32692Y9220D01*
X32670Y9286D01*
X32645Y9351D01*
X32616Y9414D01*
X32583Y9475D01*
X32547Y9534D01*
X32508Y9591D01*
X32466Y9647D01*
X32421Y9699D01*
X32373Y9749D01*
X32322Y9796D01*
X32268Y9841D01*
X32213Y9882D01*
X32155Y9920D01*
X32095Y9955D01*
X32033Y9987D01*
X31970Y10015D01*
X31905Y10039D01*
X31839Y10060D01*
X31771Y10077D01*
X31703Y10091D01*
X31634Y10100D01*
X31565Y10106D01*
X31496Y10108D01*
X31427Y10106D01*
X31358Y10100D01*
X31289Y10091D01*
X31221Y10077D01*
X31153Y10060D01*
X31087Y10039D01*
X31022Y10015D01*
X30959Y9987D01*
X30897Y9955D01*
X30837Y9920D01*
X30779Y9882D01*
X30724Y9841D01*
X30670Y9796D01*
X30619Y9749D01*
X30571Y9699D01*
X30526Y9647D01*
X30484Y9591D01*
X30445Y9534D01*
X30409Y9475D01*
X30376Y9414D01*
X30347Y9351D01*
X30322Y9286D01*
X30300Y9220D01*
X30281Y9153D01*
X30267Y9085D01*
X30256Y9017D01*
X30249Y8948D01*
X30246Y8879D01*
X30247Y8809D01*
X30252Y8740D01*
X30260Y8671D01*
X30272Y8603D01*
X30288Y8535D01*
X30308Y8469D01*
X30332Y8403D01*
X30359Y8340D01*
X30389Y8277D01*
X30423Y8217D01*
X30460Y8158D01*
X30501Y8102D01*
X30544Y8048D01*
X30591Y7996D01*
X30640Y7947D01*
X30692Y7901D01*
X30746Y7858D01*
D10*
X30496Y8858D02*
X30498Y8921D01*
X30504Y8983D01*
X30514Y9045D01*
X30527Y9107D01*
X30545Y9167D01*
X30566Y9226D01*
X30591Y9284D01*
X30620Y9340D01*
X30652Y9394D01*
X30687Y9446D01*
X30725Y9495D01*
X30767Y9543D01*
X30811Y9587D01*
X30859Y9629D01*
X30908Y9667D01*
X30960Y9702D01*
X31014Y9734D01*
X31070Y9763D01*
X31128Y9788D01*
X31187Y9809D01*
X31247Y9827D01*
X31309Y9840D01*
X31371Y9850D01*
X31433Y9856D01*
X31496Y9858D01*
X31559Y9856D01*
X31621Y9850D01*
X31683Y9840D01*
X31745Y9827D01*
X31805Y9809D01*
X31864Y9788D01*
X31922Y9763D01*
X31978Y9734D01*
X32032Y9702D01*
X32084Y9667D01*
X32133Y9629D01*
X32181Y9587D01*
X32225Y9543D01*
X32267Y9495D01*
X32305Y9446D01*
X32340Y9394D01*
X32372Y9340D01*
X32401Y9284D01*
X32426Y9226D01*
X32447Y9167D01*
X32465Y9107D01*
X32478Y9045D01*
X32488Y8983D01*
X32494Y8921D01*
X32496Y8858D01*
X32494Y8795D01*
X32488Y8733D01*
X32478Y8671D01*
X32465Y8609D01*
X32447Y8549D01*
X32426Y8490D01*
X32401Y8432D01*
X32372Y8376D01*
X32340Y8322D01*
X32305Y8270D01*
X32267Y8221D01*
X32225Y8173D01*
X32181Y8129D01*
X32133Y8087D01*
X32084Y8049D01*
X32032Y8014D01*
X31978Y7982D01*
X31922Y7953D01*
X31864Y7928D01*
X31805Y7907D01*
X31745Y7889D01*
X31683Y7876D01*
X31621Y7866D01*
X31559Y7860D01*
X31496Y7858D01*
X31433Y7860D01*
X31371Y7866D01*
X31309Y7876D01*
X31247Y7889D01*
X31187Y7907D01*
X31128Y7928D01*
X31070Y7953D01*
X31014Y7982D01*
X30960Y8014D01*
X30908Y8049D01*
X30859Y8087D01*
X30811Y8129D01*
X30767Y8173D01*
X30725Y8221D01*
X30687Y8270D01*
X30652Y8322D01*
X30620Y8376D01*
X30591Y8432D01*
X30566Y8490D01*
X30545Y8549D01*
X30527Y8609D01*
X30514Y8671D01*
X30504Y8733D01*
X30498Y8795D01*
X30496Y8858D01*
D19*
X29157Y8565D02*
X28843Y8565D01*
X28843Y7935D02*
X29157Y7935D01*
D17*
X27270Y8020D02*
X27270Y8480D01*
X27398Y8480D01*
X27419Y8478D01*
X27440Y8473D01*
X27459Y8465D01*
X27477Y8453D01*
X27492Y8439D01*
X27505Y8422D01*
X27515Y8403D01*
X27522Y8383D01*
X27526Y8363D01*
X27526Y8341D01*
X27522Y8321D01*
X27515Y8301D01*
X27505Y8282D01*
X27492Y8265D01*
X27477Y8251D01*
X27459Y8239D01*
X27440Y8231D01*
X27419Y8226D01*
X27398Y8224D01*
X27270Y8224D01*
X27423Y8224D02*
X27526Y8020D01*
X27973Y8365D02*
X27971Y8385D01*
X27966Y8404D01*
X27958Y8423D01*
X27946Y8439D01*
X27932Y8453D01*
X27916Y8465D01*
X27897Y8473D01*
X27878Y8478D01*
X27858Y8480D01*
X27835Y8478D01*
X27812Y8473D01*
X27791Y8464D01*
X27771Y8452D01*
X27753Y8437D01*
X27738Y8419D01*
X27726Y8399D01*
X27717Y8378D01*
X27935Y8275D02*
X27948Y8290D01*
X27959Y8307D01*
X27967Y8326D01*
X27971Y8345D01*
X27973Y8365D01*
X27934Y8276D02*
X27717Y8020D01*
X27973Y8020D01*
D19*
X28843Y14565D02*
X29157Y14565D01*
X29157Y13935D02*
X28843Y13935D01*
D17*
X26770Y14020D02*
X26770Y14480D01*
X26898Y14480D01*
X26919Y14478D01*
X26940Y14473D01*
X26959Y14465D01*
X26977Y14453D01*
X26992Y14439D01*
X27005Y14422D01*
X27015Y14403D01*
X27022Y14383D01*
X27026Y14363D01*
X27026Y14341D01*
X27022Y14321D01*
X27015Y14301D01*
X27005Y14282D01*
X26992Y14265D01*
X26977Y14251D01*
X26959Y14239D01*
X26940Y14231D01*
X26919Y14226D01*
X26898Y14224D01*
X26770Y14224D01*
X26923Y14224D02*
X27026Y14020D01*
X27217Y14378D02*
X27345Y14480D01*
X27345Y14020D01*
X27217Y14020D02*
X27473Y14020D01*
X27667Y14020D02*
X27820Y14020D01*
X27838Y14022D01*
X27855Y14026D01*
X27871Y14034D01*
X27886Y14044D01*
X27898Y14056D01*
X27908Y14071D01*
X27916Y14087D01*
X27920Y14104D01*
X27922Y14122D01*
X27923Y14122D02*
X27923Y14173D01*
X27922Y14173D02*
X27920Y14191D01*
X27916Y14208D01*
X27908Y14224D01*
X27898Y14239D01*
X27886Y14251D01*
X27871Y14261D01*
X27855Y14269D01*
X27838Y14273D01*
X27820Y14275D01*
X27820Y14276D02*
X27667Y14276D01*
X27667Y14480D01*
X27923Y14480D01*
D19*
X13157Y8815D02*
X12843Y8815D01*
X12843Y8185D02*
X13157Y8185D01*
D17*
X10770Y8270D02*
X10770Y8730D01*
X10898Y8730D01*
X10919Y8728D01*
X10940Y8723D01*
X10959Y8715D01*
X10977Y8703D01*
X10992Y8689D01*
X11005Y8672D01*
X11015Y8653D01*
X11022Y8633D01*
X11026Y8613D01*
X11026Y8591D01*
X11022Y8571D01*
X11015Y8551D01*
X11005Y8532D01*
X10992Y8515D01*
X10977Y8501D01*
X10959Y8489D01*
X10940Y8481D01*
X10919Y8476D01*
X10898Y8474D01*
X10770Y8474D01*
X10923Y8474D02*
X11026Y8270D01*
X11217Y8628D02*
X11345Y8730D01*
X11345Y8270D01*
X11217Y8270D02*
X11473Y8270D01*
X11667Y8526D02*
X11820Y8526D01*
X11820Y8525D02*
X11838Y8523D01*
X11855Y8519D01*
X11871Y8511D01*
X11886Y8501D01*
X11898Y8489D01*
X11908Y8474D01*
X11916Y8458D01*
X11920Y8441D01*
X11922Y8423D01*
X11923Y8423D02*
X11923Y8398D01*
X11921Y8377D01*
X11916Y8356D01*
X11908Y8337D01*
X11896Y8319D01*
X11882Y8304D01*
X11865Y8291D01*
X11846Y8281D01*
X11826Y8274D01*
X11806Y8270D01*
X11784Y8270D01*
X11764Y8274D01*
X11744Y8281D01*
X11725Y8291D01*
X11708Y8304D01*
X11694Y8319D01*
X11682Y8337D01*
X11674Y8356D01*
X11669Y8377D01*
X11667Y8398D01*
X11667Y8526D01*
X11668Y8526D02*
X11670Y8553D01*
X11675Y8579D01*
X11684Y8604D01*
X11695Y8628D01*
X11710Y8650D01*
X11728Y8670D01*
X11748Y8688D01*
X11770Y8703D01*
X11794Y8714D01*
X11819Y8723D01*
X11845Y8728D01*
X11872Y8730D01*
D19*
X12843Y14565D02*
X13157Y14565D01*
X13157Y13935D02*
X12843Y13935D01*
D17*
X12520Y14770D02*
X12520Y15230D01*
X12648Y15230D01*
X12669Y15228D01*
X12690Y15223D01*
X12709Y15215D01*
X12727Y15203D01*
X12742Y15189D01*
X12755Y15172D01*
X12765Y15153D01*
X12772Y15133D01*
X12776Y15113D01*
X12776Y15091D01*
X12772Y15071D01*
X12765Y15051D01*
X12755Y15032D01*
X12742Y15015D01*
X12727Y15001D01*
X12709Y14989D01*
X12690Y14981D01*
X12669Y14976D01*
X12648Y14974D01*
X12520Y14974D01*
X12673Y14974D02*
X12776Y14770D01*
X12967Y15128D02*
X13095Y15230D01*
X13095Y14770D01*
X12967Y14770D02*
X13223Y14770D01*
X13417Y15179D02*
X13417Y15230D01*
X13673Y15230D01*
X13545Y14770D01*
D19*
X44593Y14565D02*
X44907Y14565D01*
X44907Y13935D02*
X44593Y13935D01*
D17*
X42520Y14020D02*
X42520Y14480D01*
X42648Y14480D01*
X42669Y14478D01*
X42690Y14473D01*
X42709Y14465D01*
X42727Y14453D01*
X42742Y14439D01*
X42755Y14422D01*
X42765Y14403D01*
X42772Y14383D01*
X42776Y14363D01*
X42776Y14341D01*
X42772Y14321D01*
X42765Y14301D01*
X42755Y14282D01*
X42742Y14265D01*
X42727Y14251D01*
X42709Y14239D01*
X42690Y14231D01*
X42669Y14226D01*
X42648Y14224D01*
X42520Y14224D01*
X42673Y14224D02*
X42776Y14020D01*
X42967Y14378D02*
X43095Y14480D01*
X43095Y14020D01*
X42967Y14020D02*
X43223Y14020D01*
X43417Y14148D02*
X43419Y14169D01*
X43424Y14190D01*
X43432Y14209D01*
X43444Y14227D01*
X43458Y14242D01*
X43475Y14255D01*
X43494Y14265D01*
X43514Y14272D01*
X43534Y14276D01*
X43556Y14276D01*
X43576Y14272D01*
X43596Y14265D01*
X43615Y14255D01*
X43632Y14242D01*
X43646Y14227D01*
X43658Y14209D01*
X43666Y14190D01*
X43671Y14169D01*
X43673Y14148D01*
X43671Y14127D01*
X43666Y14106D01*
X43658Y14087D01*
X43646Y14069D01*
X43632Y14054D01*
X43615Y14041D01*
X43596Y14031D01*
X43576Y14024D01*
X43556Y14020D01*
X43534Y14020D01*
X43514Y14024D01*
X43494Y14031D01*
X43475Y14041D01*
X43458Y14054D01*
X43444Y14069D01*
X43432Y14087D01*
X43424Y14106D01*
X43419Y14127D01*
X43417Y14148D01*
X43443Y14378D02*
X43445Y14397D01*
X43450Y14415D01*
X43458Y14432D01*
X43470Y14447D01*
X43484Y14459D01*
X43500Y14469D01*
X43517Y14476D01*
X43536Y14480D01*
X43554Y14480D01*
X43573Y14476D01*
X43590Y14469D01*
X43606Y14459D01*
X43620Y14447D01*
X43632Y14432D01*
X43640Y14415D01*
X43645Y14397D01*
X43647Y14378D01*
X43645Y14359D01*
X43640Y14341D01*
X43632Y14324D01*
X43620Y14309D01*
X43606Y14297D01*
X43590Y14287D01*
X43573Y14280D01*
X43554Y14276D01*
X43536Y14276D01*
X43517Y14280D01*
X43500Y14287D01*
X43484Y14297D01*
X43470Y14309D01*
X43458Y14324D01*
X43450Y14341D01*
X43445Y14359D01*
X43443Y14378D01*
D19*
X44593Y8565D02*
X44907Y8565D01*
X44907Y7935D02*
X44593Y7935D01*
D17*
X42520Y8020D02*
X42520Y8480D01*
X42648Y8480D01*
X42669Y8478D01*
X42690Y8473D01*
X42709Y8465D01*
X42727Y8453D01*
X42742Y8439D01*
X42755Y8422D01*
X42765Y8403D01*
X42772Y8383D01*
X42776Y8363D01*
X42776Y8341D01*
X42772Y8321D01*
X42765Y8301D01*
X42755Y8282D01*
X42742Y8265D01*
X42727Y8251D01*
X42709Y8239D01*
X42690Y8231D01*
X42669Y8226D01*
X42648Y8224D01*
X42520Y8224D01*
X42673Y8224D02*
X42776Y8020D01*
X42967Y8378D02*
X43095Y8480D01*
X43095Y8020D01*
X42967Y8020D02*
X43223Y8020D01*
X43519Y8224D02*
X43673Y8224D01*
X43519Y8225D02*
X43501Y8227D01*
X43484Y8231D01*
X43468Y8239D01*
X43453Y8249D01*
X43441Y8261D01*
X43431Y8276D01*
X43423Y8292D01*
X43419Y8309D01*
X43417Y8327D01*
X43417Y8352D01*
X43419Y8373D01*
X43424Y8394D01*
X43432Y8413D01*
X43444Y8431D01*
X43458Y8446D01*
X43475Y8459D01*
X43494Y8469D01*
X43514Y8476D01*
X43534Y8480D01*
X43556Y8480D01*
X43576Y8476D01*
X43596Y8469D01*
X43615Y8459D01*
X43632Y8446D01*
X43646Y8431D01*
X43658Y8413D01*
X43666Y8394D01*
X43671Y8373D01*
X43673Y8352D01*
X43673Y8224D01*
X43672Y8224D02*
X43670Y8197D01*
X43665Y8171D01*
X43656Y8146D01*
X43645Y8122D01*
X43630Y8100D01*
X43612Y8080D01*
X43592Y8062D01*
X43570Y8047D01*
X43546Y8036D01*
X43521Y8027D01*
X43495Y8022D01*
X43468Y8020D01*
D19*
X44593Y2815D02*
X44907Y2815D01*
X44907Y2185D02*
X44593Y2185D01*
D17*
X42270Y2270D02*
X42270Y2730D01*
X42398Y2730D01*
X42419Y2728D01*
X42440Y2723D01*
X42459Y2715D01*
X42477Y2703D01*
X42492Y2689D01*
X42505Y2672D01*
X42515Y2653D01*
X42522Y2633D01*
X42526Y2613D01*
X42526Y2591D01*
X42522Y2571D01*
X42515Y2551D01*
X42505Y2532D01*
X42492Y2515D01*
X42477Y2501D01*
X42459Y2489D01*
X42440Y2481D01*
X42419Y2476D01*
X42398Y2474D01*
X42270Y2474D01*
X42423Y2474D02*
X42526Y2270D01*
X42973Y2615D02*
X42971Y2635D01*
X42966Y2654D01*
X42958Y2673D01*
X42946Y2689D01*
X42932Y2703D01*
X42916Y2715D01*
X42897Y2723D01*
X42878Y2728D01*
X42858Y2730D01*
X42835Y2728D01*
X42812Y2723D01*
X42791Y2714D01*
X42771Y2702D01*
X42753Y2687D01*
X42738Y2669D01*
X42726Y2649D01*
X42717Y2628D01*
X42935Y2525D02*
X42948Y2540D01*
X42959Y2557D01*
X42967Y2576D01*
X42971Y2595D01*
X42973Y2615D01*
X42934Y2526D02*
X42717Y2270D01*
X42973Y2270D01*
X43167Y2500D02*
X43169Y2534D01*
X43173Y2568D01*
X43181Y2602D01*
X43192Y2635D01*
X43205Y2666D01*
X43212Y2681D01*
X43221Y2695D01*
X43233Y2707D01*
X43247Y2717D01*
X43262Y2724D01*
X43278Y2729D01*
X43295Y2730D01*
X43312Y2729D01*
X43328Y2724D01*
X43343Y2717D01*
X43357Y2707D01*
X43369Y2695D01*
X43378Y2681D01*
X43385Y2666D01*
X43398Y2635D01*
X43409Y2602D01*
X43417Y2568D01*
X43421Y2534D01*
X43423Y2500D01*
X43167Y2500D02*
X43169Y2466D01*
X43173Y2432D01*
X43181Y2398D01*
X43192Y2365D01*
X43205Y2334D01*
X43212Y2319D01*
X43221Y2305D01*
X43233Y2293D01*
X43247Y2283D01*
X43262Y2276D01*
X43278Y2271D01*
X43295Y2270D01*
X43385Y2334D02*
X43398Y2365D01*
X43409Y2398D01*
X43417Y2432D01*
X43421Y2466D01*
X43423Y2500D01*
X43385Y2334D02*
X43378Y2319D01*
X43369Y2305D01*
X43357Y2293D01*
X43343Y2283D01*
X43328Y2276D01*
X43312Y2271D01*
X43295Y2270D01*
X43193Y2372D02*
X43397Y2628D01*
D18*
X32246Y13764D02*
X30746Y13764D01*
D13*
X30692Y13807D01*
X30640Y13853D01*
X30591Y13902D01*
X30544Y13954D01*
X30501Y14008D01*
X30460Y14064D01*
X30423Y14123D01*
X30389Y14183D01*
X30359Y14246D01*
X30332Y14309D01*
X30308Y14375D01*
X30288Y14441D01*
X30272Y14509D01*
X30260Y14577D01*
X30252Y14646D01*
X30247Y14715D01*
X30246Y14785D01*
X30249Y14854D01*
X30256Y14923D01*
X30267Y14991D01*
X30281Y15059D01*
X30300Y15126D01*
X30322Y15192D01*
X30347Y15257D01*
X30376Y15320D01*
X30409Y15381D01*
X30445Y15440D01*
X30484Y15497D01*
X30526Y15553D01*
X30571Y15605D01*
X30619Y15655D01*
X30670Y15702D01*
X30724Y15747D01*
X30779Y15788D01*
X30837Y15826D01*
X30897Y15861D01*
X30959Y15893D01*
X31022Y15921D01*
X31087Y15945D01*
X31153Y15966D01*
X31221Y15983D01*
X31289Y15997D01*
X31358Y16006D01*
X31427Y16012D01*
X31496Y16014D01*
X31565Y16012D01*
X31634Y16006D01*
X31703Y15997D01*
X31771Y15983D01*
X31839Y15966D01*
X31905Y15945D01*
X31970Y15921D01*
X32033Y15893D01*
X32095Y15861D01*
X32155Y15826D01*
X32213Y15788D01*
X32268Y15747D01*
X32322Y15702D01*
X32373Y15655D01*
X32421Y15605D01*
X32466Y15553D01*
X32508Y15497D01*
X32547Y15440D01*
X32583Y15381D01*
X32616Y15320D01*
X32645Y15257D01*
X32670Y15192D01*
X32692Y15126D01*
X32711Y15059D01*
X32725Y14991D01*
X32736Y14923D01*
X32743Y14854D01*
X32746Y14785D01*
X32745Y14715D01*
X32740Y14646D01*
X32732Y14577D01*
X32720Y14509D01*
X32704Y14441D01*
X32684Y14375D01*
X32660Y14309D01*
X32633Y14246D01*
X32603Y14183D01*
X32569Y14123D01*
X32532Y14064D01*
X32491Y14008D01*
X32448Y13954D01*
X32401Y13902D01*
X32352Y13853D01*
X32300Y13807D01*
X32246Y13764D01*
D10*
X30496Y14764D02*
X30498Y14827D01*
X30504Y14889D01*
X30514Y14951D01*
X30527Y15013D01*
X30545Y15073D01*
X30566Y15132D01*
X30591Y15190D01*
X30620Y15246D01*
X30652Y15300D01*
X30687Y15352D01*
X30725Y15401D01*
X30767Y15449D01*
X30811Y15493D01*
X30859Y15535D01*
X30908Y15573D01*
X30960Y15608D01*
X31014Y15640D01*
X31070Y15669D01*
X31128Y15694D01*
X31187Y15715D01*
X31247Y15733D01*
X31309Y15746D01*
X31371Y15756D01*
X31433Y15762D01*
X31496Y15764D01*
X31559Y15762D01*
X31621Y15756D01*
X31683Y15746D01*
X31745Y15733D01*
X31805Y15715D01*
X31864Y15694D01*
X31922Y15669D01*
X31978Y15640D01*
X32032Y15608D01*
X32084Y15573D01*
X32133Y15535D01*
X32181Y15493D01*
X32225Y15449D01*
X32267Y15401D01*
X32305Y15352D01*
X32340Y15300D01*
X32372Y15246D01*
X32401Y15190D01*
X32426Y15132D01*
X32447Y15073D01*
X32465Y15013D01*
X32478Y14951D01*
X32488Y14889D01*
X32494Y14827D01*
X32496Y14764D01*
X32494Y14701D01*
X32488Y14639D01*
X32478Y14577D01*
X32465Y14515D01*
X32447Y14455D01*
X32426Y14396D01*
X32401Y14338D01*
X32372Y14282D01*
X32340Y14228D01*
X32305Y14176D01*
X32267Y14127D01*
X32225Y14079D01*
X32181Y14035D01*
X32133Y13993D01*
X32084Y13955D01*
X32032Y13920D01*
X31978Y13888D01*
X31922Y13859D01*
X31864Y13834D01*
X31805Y13813D01*
X31745Y13795D01*
X31683Y13782D01*
X31621Y13772D01*
X31559Y13766D01*
X31496Y13764D01*
X31433Y13766D01*
X31371Y13772D01*
X31309Y13782D01*
X31247Y13795D01*
X31187Y13813D01*
X31128Y13834D01*
X31070Y13859D01*
X31014Y13888D01*
X30960Y13920D01*
X30908Y13955D01*
X30859Y13993D01*
X30811Y14035D01*
X30767Y14079D01*
X30725Y14127D01*
X30687Y14176D01*
X30652Y14228D01*
X30620Y14282D01*
X30591Y14338D01*
X30566Y14396D01*
X30545Y14455D01*
X30527Y14515D01*
X30514Y14577D01*
X30504Y14639D01*
X30498Y14701D01*
X30496Y14764D01*
D18*
X16498Y7858D02*
X14998Y7858D01*
D13*
X14944Y7901D01*
X14892Y7947D01*
X14843Y7996D01*
X14796Y8048D01*
X14753Y8102D01*
X14712Y8158D01*
X14675Y8217D01*
X14641Y8277D01*
X14611Y8340D01*
X14584Y8403D01*
X14560Y8469D01*
X14540Y8535D01*
X14524Y8603D01*
X14512Y8671D01*
X14504Y8740D01*
X14499Y8809D01*
X14498Y8879D01*
X14501Y8948D01*
X14508Y9017D01*
X14519Y9085D01*
X14533Y9153D01*
X14552Y9220D01*
X14574Y9286D01*
X14599Y9351D01*
X14628Y9414D01*
X14661Y9475D01*
X14697Y9534D01*
X14736Y9591D01*
X14778Y9647D01*
X14823Y9699D01*
X14871Y9749D01*
X14922Y9796D01*
X14976Y9841D01*
X15031Y9882D01*
X15089Y9920D01*
X15149Y9955D01*
X15211Y9987D01*
X15274Y10015D01*
X15339Y10039D01*
X15405Y10060D01*
X15473Y10077D01*
X15541Y10091D01*
X15610Y10100D01*
X15679Y10106D01*
X15748Y10108D01*
X15817Y10106D01*
X15886Y10100D01*
X15955Y10091D01*
X16023Y10077D01*
X16091Y10060D01*
X16157Y10039D01*
X16222Y10015D01*
X16285Y9987D01*
X16347Y9955D01*
X16407Y9920D01*
X16465Y9882D01*
X16520Y9841D01*
X16574Y9796D01*
X16625Y9749D01*
X16673Y9699D01*
X16718Y9647D01*
X16760Y9591D01*
X16799Y9534D01*
X16835Y9475D01*
X16868Y9414D01*
X16897Y9351D01*
X16922Y9286D01*
X16944Y9220D01*
X16963Y9153D01*
X16977Y9085D01*
X16988Y9017D01*
X16995Y8948D01*
X16998Y8879D01*
X16997Y8809D01*
X16992Y8740D01*
X16984Y8671D01*
X16972Y8603D01*
X16956Y8535D01*
X16936Y8469D01*
X16912Y8403D01*
X16885Y8340D01*
X16855Y8277D01*
X16821Y8217D01*
X16784Y8158D01*
X16743Y8102D01*
X16700Y8048D01*
X16653Y7996D01*
X16604Y7947D01*
X16552Y7901D01*
X16498Y7858D01*
D10*
X14748Y8858D02*
X14750Y8921D01*
X14756Y8983D01*
X14766Y9045D01*
X14779Y9107D01*
X14797Y9167D01*
X14818Y9226D01*
X14843Y9284D01*
X14872Y9340D01*
X14904Y9394D01*
X14939Y9446D01*
X14977Y9495D01*
X15019Y9543D01*
X15063Y9587D01*
X15111Y9629D01*
X15160Y9667D01*
X15212Y9702D01*
X15266Y9734D01*
X15322Y9763D01*
X15380Y9788D01*
X15439Y9809D01*
X15499Y9827D01*
X15561Y9840D01*
X15623Y9850D01*
X15685Y9856D01*
X15748Y9858D01*
X15811Y9856D01*
X15873Y9850D01*
X15935Y9840D01*
X15997Y9827D01*
X16057Y9809D01*
X16116Y9788D01*
X16174Y9763D01*
X16230Y9734D01*
X16284Y9702D01*
X16336Y9667D01*
X16385Y9629D01*
X16433Y9587D01*
X16477Y9543D01*
X16519Y9495D01*
X16557Y9446D01*
X16592Y9394D01*
X16624Y9340D01*
X16653Y9284D01*
X16678Y9226D01*
X16699Y9167D01*
X16717Y9107D01*
X16730Y9045D01*
X16740Y8983D01*
X16746Y8921D01*
X16748Y8858D01*
X16746Y8795D01*
X16740Y8733D01*
X16730Y8671D01*
X16717Y8609D01*
X16699Y8549D01*
X16678Y8490D01*
X16653Y8432D01*
X16624Y8376D01*
X16592Y8322D01*
X16557Y8270D01*
X16519Y8221D01*
X16477Y8173D01*
X16433Y8129D01*
X16385Y8087D01*
X16336Y8049D01*
X16284Y8014D01*
X16230Y7982D01*
X16174Y7953D01*
X16116Y7928D01*
X16057Y7907D01*
X15997Y7889D01*
X15935Y7876D01*
X15873Y7866D01*
X15811Y7860D01*
X15748Y7858D01*
X15685Y7860D01*
X15623Y7866D01*
X15561Y7876D01*
X15499Y7889D01*
X15439Y7907D01*
X15380Y7928D01*
X15322Y7953D01*
X15266Y7982D01*
X15212Y8014D01*
X15160Y8049D01*
X15111Y8087D01*
X15063Y8129D01*
X15019Y8173D01*
X14977Y8221D01*
X14939Y8270D01*
X14904Y8322D01*
X14872Y8376D01*
X14843Y8432D01*
X14818Y8490D01*
X14797Y8549D01*
X14779Y8609D01*
X14766Y8671D01*
X14756Y8733D01*
X14750Y8795D01*
X14748Y8858D01*
D18*
X14998Y13764D02*
X16498Y13764D01*
D13*
X16552Y13807D01*
X16604Y13853D01*
X16653Y13902D01*
X16700Y13954D01*
X16743Y14008D01*
X16784Y14064D01*
X16821Y14123D01*
X16855Y14183D01*
X16885Y14246D01*
X16912Y14309D01*
X16936Y14375D01*
X16956Y14441D01*
X16972Y14509D01*
X16984Y14577D01*
X16992Y14646D01*
X16997Y14715D01*
X16998Y14785D01*
X16995Y14854D01*
X16988Y14923D01*
X16977Y14991D01*
X16963Y15059D01*
X16944Y15126D01*
X16922Y15192D01*
X16897Y15257D01*
X16868Y15320D01*
X16835Y15381D01*
X16799Y15440D01*
X16760Y15497D01*
X16718Y15553D01*
X16673Y15605D01*
X16625Y15655D01*
X16574Y15702D01*
X16520Y15747D01*
X16465Y15788D01*
X16407Y15826D01*
X16347Y15861D01*
X16285Y15893D01*
X16222Y15921D01*
X16157Y15945D01*
X16091Y15966D01*
X16023Y15983D01*
X15955Y15997D01*
X15886Y16006D01*
X15817Y16012D01*
X15748Y16014D01*
X15679Y16012D01*
X15610Y16006D01*
X15541Y15997D01*
X15473Y15983D01*
X15405Y15966D01*
X15339Y15945D01*
X15274Y15921D01*
X15211Y15893D01*
X15149Y15861D01*
X15089Y15826D01*
X15031Y15788D01*
X14976Y15747D01*
X14922Y15702D01*
X14871Y15655D01*
X14823Y15605D01*
X14778Y15553D01*
X14736Y15497D01*
X14697Y15440D01*
X14661Y15381D01*
X14628Y15320D01*
X14599Y15257D01*
X14574Y15192D01*
X14552Y15126D01*
X14533Y15059D01*
X14519Y14991D01*
X14508Y14923D01*
X14501Y14854D01*
X14498Y14785D01*
X14499Y14715D01*
X14504Y14646D01*
X14512Y14577D01*
X14524Y14509D01*
X14540Y14441D01*
X14560Y14375D01*
X14584Y14309D01*
X14611Y14246D01*
X14641Y14183D01*
X14675Y14123D01*
X14712Y14064D01*
X14753Y14008D01*
X14796Y13954D01*
X14843Y13902D01*
X14892Y13853D01*
X14944Y13807D01*
X14998Y13764D01*
D10*
X14748Y14764D02*
X14750Y14827D01*
X14756Y14889D01*
X14766Y14951D01*
X14779Y15013D01*
X14797Y15073D01*
X14818Y15132D01*
X14843Y15190D01*
X14872Y15246D01*
X14904Y15300D01*
X14939Y15352D01*
X14977Y15401D01*
X15019Y15449D01*
X15063Y15493D01*
X15111Y15535D01*
X15160Y15573D01*
X15212Y15608D01*
X15266Y15640D01*
X15322Y15669D01*
X15380Y15694D01*
X15439Y15715D01*
X15499Y15733D01*
X15561Y15746D01*
X15623Y15756D01*
X15685Y15762D01*
X15748Y15764D01*
X15811Y15762D01*
X15873Y15756D01*
X15935Y15746D01*
X15997Y15733D01*
X16057Y15715D01*
X16116Y15694D01*
X16174Y15669D01*
X16230Y15640D01*
X16284Y15608D01*
X16336Y15573D01*
X16385Y15535D01*
X16433Y15493D01*
X16477Y15449D01*
X16519Y15401D01*
X16557Y15352D01*
X16592Y15300D01*
X16624Y15246D01*
X16653Y15190D01*
X16678Y15132D01*
X16699Y15073D01*
X16717Y15013D01*
X16730Y14951D01*
X16740Y14889D01*
X16746Y14827D01*
X16748Y14764D01*
X16746Y14701D01*
X16740Y14639D01*
X16730Y14577D01*
X16717Y14515D01*
X16699Y14455D01*
X16678Y14396D01*
X16653Y14338D01*
X16624Y14282D01*
X16592Y14228D01*
X16557Y14176D01*
X16519Y14127D01*
X16477Y14079D01*
X16433Y14035D01*
X16385Y13993D01*
X16336Y13955D01*
X16284Y13920D01*
X16230Y13888D01*
X16174Y13859D01*
X16116Y13834D01*
X16057Y13813D01*
X15997Y13795D01*
X15935Y13782D01*
X15873Y13772D01*
X15811Y13766D01*
X15748Y13764D01*
X15685Y13766D01*
X15623Y13772D01*
X15561Y13782D01*
X15499Y13795D01*
X15439Y13813D01*
X15380Y13834D01*
X15322Y13859D01*
X15266Y13888D01*
X15212Y13920D01*
X15160Y13955D01*
X15111Y13993D01*
X15063Y14035D01*
X15019Y14079D01*
X14977Y14127D01*
X14939Y14176D01*
X14904Y14228D01*
X14872Y14282D01*
X14843Y14338D01*
X14818Y14396D01*
X14797Y14455D01*
X14779Y14515D01*
X14766Y14577D01*
X14756Y14639D01*
X14750Y14701D01*
X14748Y14764D01*
D18*
X46494Y13764D02*
X47994Y13764D01*
D13*
X48048Y13807D01*
X48100Y13853D01*
X48149Y13902D01*
X48196Y13954D01*
X48239Y14008D01*
X48280Y14064D01*
X48317Y14123D01*
X48351Y14183D01*
X48381Y14246D01*
X48408Y14309D01*
X48432Y14375D01*
X48452Y14441D01*
X48468Y14509D01*
X48480Y14577D01*
X48488Y14646D01*
X48493Y14715D01*
X48494Y14785D01*
X48491Y14854D01*
X48484Y14923D01*
X48473Y14991D01*
X48459Y15059D01*
X48440Y15126D01*
X48418Y15192D01*
X48393Y15257D01*
X48364Y15320D01*
X48331Y15381D01*
X48295Y15440D01*
X48256Y15497D01*
X48214Y15553D01*
X48169Y15605D01*
X48121Y15655D01*
X48070Y15702D01*
X48016Y15747D01*
X47961Y15788D01*
X47903Y15826D01*
X47843Y15861D01*
X47781Y15893D01*
X47718Y15921D01*
X47653Y15945D01*
X47587Y15966D01*
X47519Y15983D01*
X47451Y15997D01*
X47382Y16006D01*
X47313Y16012D01*
X47244Y16014D01*
X47175Y16012D01*
X47106Y16006D01*
X47037Y15997D01*
X46969Y15983D01*
X46901Y15966D01*
X46835Y15945D01*
X46770Y15921D01*
X46707Y15893D01*
X46645Y15861D01*
X46585Y15826D01*
X46527Y15788D01*
X46472Y15747D01*
X46418Y15702D01*
X46367Y15655D01*
X46319Y15605D01*
X46274Y15553D01*
X46232Y15497D01*
X46193Y15440D01*
X46157Y15381D01*
X46124Y15320D01*
X46095Y15257D01*
X46070Y15192D01*
X46048Y15126D01*
X46029Y15059D01*
X46015Y14991D01*
X46004Y14923D01*
X45997Y14854D01*
X45994Y14785D01*
X45995Y14715D01*
X46000Y14646D01*
X46008Y14577D01*
X46020Y14509D01*
X46036Y14441D01*
X46056Y14375D01*
X46080Y14309D01*
X46107Y14246D01*
X46137Y14183D01*
X46171Y14123D01*
X46208Y14064D01*
X46249Y14008D01*
X46292Y13954D01*
X46339Y13902D01*
X46388Y13853D01*
X46440Y13807D01*
X46494Y13764D01*
D10*
X46244Y14764D02*
X46246Y14827D01*
X46252Y14889D01*
X46262Y14951D01*
X46275Y15013D01*
X46293Y15073D01*
X46314Y15132D01*
X46339Y15190D01*
X46368Y15246D01*
X46400Y15300D01*
X46435Y15352D01*
X46473Y15401D01*
X46515Y15449D01*
X46559Y15493D01*
X46607Y15535D01*
X46656Y15573D01*
X46708Y15608D01*
X46762Y15640D01*
X46818Y15669D01*
X46876Y15694D01*
X46935Y15715D01*
X46995Y15733D01*
X47057Y15746D01*
X47119Y15756D01*
X47181Y15762D01*
X47244Y15764D01*
X47307Y15762D01*
X47369Y15756D01*
X47431Y15746D01*
X47493Y15733D01*
X47553Y15715D01*
X47612Y15694D01*
X47670Y15669D01*
X47726Y15640D01*
X47780Y15608D01*
X47832Y15573D01*
X47881Y15535D01*
X47929Y15493D01*
X47973Y15449D01*
X48015Y15401D01*
X48053Y15352D01*
X48088Y15300D01*
X48120Y15246D01*
X48149Y15190D01*
X48174Y15132D01*
X48195Y15073D01*
X48213Y15013D01*
X48226Y14951D01*
X48236Y14889D01*
X48242Y14827D01*
X48244Y14764D01*
X48242Y14701D01*
X48236Y14639D01*
X48226Y14577D01*
X48213Y14515D01*
X48195Y14455D01*
X48174Y14396D01*
X48149Y14338D01*
X48120Y14282D01*
X48088Y14228D01*
X48053Y14176D01*
X48015Y14127D01*
X47973Y14079D01*
X47929Y14035D01*
X47881Y13993D01*
X47832Y13955D01*
X47780Y13920D01*
X47726Y13888D01*
X47670Y13859D01*
X47612Y13834D01*
X47553Y13813D01*
X47493Y13795D01*
X47431Y13782D01*
X47369Y13772D01*
X47307Y13766D01*
X47244Y13764D01*
X47181Y13766D01*
X47119Y13772D01*
X47057Y13782D01*
X46995Y13795D01*
X46935Y13813D01*
X46876Y13834D01*
X46818Y13859D01*
X46762Y13888D01*
X46708Y13920D01*
X46656Y13955D01*
X46607Y13993D01*
X46559Y14035D01*
X46515Y14079D01*
X46473Y14127D01*
X46435Y14176D01*
X46400Y14228D01*
X46368Y14282D01*
X46339Y14338D01*
X46314Y14396D01*
X46293Y14455D01*
X46275Y14515D01*
X46262Y14577D01*
X46252Y14639D01*
X46246Y14701D01*
X46244Y14764D01*
D15*
X44225Y14779D02*
X44225Y14329D01*
X44425Y14329D01*
X44615Y14329D02*
X44815Y14329D01*
X44615Y14329D02*
X44615Y14779D01*
X44815Y14779D01*
X44765Y14579D02*
X44615Y14579D01*
X45004Y14779D02*
X45004Y14329D01*
X45004Y14779D02*
X45129Y14779D01*
X45149Y14777D01*
X45168Y14773D01*
X45186Y14765D01*
X45202Y14755D01*
X45217Y14742D01*
X45230Y14727D01*
X45240Y14711D01*
X45248Y14693D01*
X45252Y14674D01*
X45254Y14654D01*
X45254Y14454D01*
X45252Y14434D01*
X45248Y14415D01*
X45240Y14397D01*
X45230Y14381D01*
X45217Y14366D01*
X45202Y14353D01*
X45186Y14343D01*
X45168Y14335D01*
X45149Y14331D01*
X45129Y14329D01*
X45004Y14329D01*
X45469Y14454D02*
X45471Y14475D01*
X45476Y14495D01*
X45484Y14513D01*
X45495Y14531D01*
X45509Y14546D01*
X45526Y14559D01*
X45544Y14568D01*
X45563Y14575D01*
X45584Y14579D01*
X45604Y14579D01*
X45625Y14575D01*
X45644Y14568D01*
X45662Y14559D01*
X45679Y14546D01*
X45693Y14531D01*
X45704Y14513D01*
X45712Y14495D01*
X45717Y14475D01*
X45719Y14454D01*
X45717Y14433D01*
X45712Y14413D01*
X45704Y14395D01*
X45693Y14377D01*
X45679Y14362D01*
X45662Y14349D01*
X45644Y14340D01*
X45625Y14333D01*
X45604Y14329D01*
X45584Y14329D01*
X45563Y14333D01*
X45544Y14340D01*
X45526Y14349D01*
X45509Y14362D01*
X45495Y14377D01*
X45484Y14395D01*
X45476Y14413D01*
X45471Y14433D01*
X45469Y14454D01*
X45494Y14679D02*
X45496Y14697D01*
X45501Y14715D01*
X45509Y14732D01*
X45520Y14746D01*
X45534Y14759D01*
X45549Y14769D01*
X45567Y14775D01*
X45585Y14779D01*
X45603Y14779D01*
X45621Y14775D01*
X45639Y14769D01*
X45654Y14759D01*
X45668Y14746D01*
X45679Y14732D01*
X45687Y14715D01*
X45692Y14697D01*
X45694Y14679D01*
X45692Y14661D01*
X45687Y14643D01*
X45679Y14626D01*
X45668Y14612D01*
X45654Y14599D01*
X45639Y14589D01*
X45621Y14583D01*
X45603Y14579D01*
X45585Y14579D01*
X45567Y14583D01*
X45549Y14589D01*
X45534Y14599D01*
X45520Y14612D01*
X45509Y14626D01*
X45501Y14643D01*
X45496Y14661D01*
X45494Y14679D01*
D18*
X46494Y7858D02*
X47994Y7858D01*
D13*
X48048Y7901D01*
X48100Y7947D01*
X48149Y7996D01*
X48196Y8048D01*
X48239Y8102D01*
X48280Y8158D01*
X48317Y8217D01*
X48351Y8277D01*
X48381Y8340D01*
X48408Y8403D01*
X48432Y8469D01*
X48452Y8535D01*
X48468Y8603D01*
X48480Y8671D01*
X48488Y8740D01*
X48493Y8809D01*
X48494Y8879D01*
X48491Y8948D01*
X48484Y9017D01*
X48473Y9085D01*
X48459Y9153D01*
X48440Y9220D01*
X48418Y9286D01*
X48393Y9351D01*
X48364Y9414D01*
X48331Y9475D01*
X48295Y9534D01*
X48256Y9591D01*
X48214Y9647D01*
X48169Y9699D01*
X48121Y9749D01*
X48070Y9796D01*
X48016Y9841D01*
X47961Y9882D01*
X47903Y9920D01*
X47843Y9955D01*
X47781Y9987D01*
X47718Y10015D01*
X47653Y10039D01*
X47587Y10060D01*
X47519Y10077D01*
X47451Y10091D01*
X47382Y10100D01*
X47313Y10106D01*
X47244Y10108D01*
X47175Y10106D01*
X47106Y10100D01*
X47037Y10091D01*
X46969Y10077D01*
X46901Y10060D01*
X46835Y10039D01*
X46770Y10015D01*
X46707Y9987D01*
X46645Y9955D01*
X46585Y9920D01*
X46527Y9882D01*
X46472Y9841D01*
X46418Y9796D01*
X46367Y9749D01*
X46319Y9699D01*
X46274Y9647D01*
X46232Y9591D01*
X46193Y9534D01*
X46157Y9475D01*
X46124Y9414D01*
X46095Y9351D01*
X46070Y9286D01*
X46048Y9220D01*
X46029Y9153D01*
X46015Y9085D01*
X46004Y9017D01*
X45997Y8948D01*
X45994Y8879D01*
X45995Y8809D01*
X46000Y8740D01*
X46008Y8671D01*
X46020Y8603D01*
X46036Y8535D01*
X46056Y8469D01*
X46080Y8403D01*
X46107Y8340D01*
X46137Y8277D01*
X46171Y8217D01*
X46208Y8158D01*
X46249Y8102D01*
X46292Y8048D01*
X46339Y7996D01*
X46388Y7947D01*
X46440Y7901D01*
X46494Y7858D01*
D10*
X46244Y8858D02*
X46246Y8921D01*
X46252Y8983D01*
X46262Y9045D01*
X46275Y9107D01*
X46293Y9167D01*
X46314Y9226D01*
X46339Y9284D01*
X46368Y9340D01*
X46400Y9394D01*
X46435Y9446D01*
X46473Y9495D01*
X46515Y9543D01*
X46559Y9587D01*
X46607Y9629D01*
X46656Y9667D01*
X46708Y9702D01*
X46762Y9734D01*
X46818Y9763D01*
X46876Y9788D01*
X46935Y9809D01*
X46995Y9827D01*
X47057Y9840D01*
X47119Y9850D01*
X47181Y9856D01*
X47244Y9858D01*
X47307Y9856D01*
X47369Y9850D01*
X47431Y9840D01*
X47493Y9827D01*
X47553Y9809D01*
X47612Y9788D01*
X47670Y9763D01*
X47726Y9734D01*
X47780Y9702D01*
X47832Y9667D01*
X47881Y9629D01*
X47929Y9587D01*
X47973Y9543D01*
X48015Y9495D01*
X48053Y9446D01*
X48088Y9394D01*
X48120Y9340D01*
X48149Y9284D01*
X48174Y9226D01*
X48195Y9167D01*
X48213Y9107D01*
X48226Y9045D01*
X48236Y8983D01*
X48242Y8921D01*
X48244Y8858D01*
X48242Y8795D01*
X48236Y8733D01*
X48226Y8671D01*
X48213Y8609D01*
X48195Y8549D01*
X48174Y8490D01*
X48149Y8432D01*
X48120Y8376D01*
X48088Y8322D01*
X48053Y8270D01*
X48015Y8221D01*
X47973Y8173D01*
X47929Y8129D01*
X47881Y8087D01*
X47832Y8049D01*
X47780Y8014D01*
X47726Y7982D01*
X47670Y7953D01*
X47612Y7928D01*
X47553Y7907D01*
X47493Y7889D01*
X47431Y7876D01*
X47369Y7866D01*
X47307Y7860D01*
X47244Y7858D01*
X47181Y7860D01*
X47119Y7866D01*
X47057Y7876D01*
X46995Y7889D01*
X46935Y7907D01*
X46876Y7928D01*
X46818Y7953D01*
X46762Y7982D01*
X46708Y8014D01*
X46656Y8049D01*
X46607Y8087D01*
X46559Y8129D01*
X46515Y8173D01*
X46473Y8221D01*
X46435Y8270D01*
X46400Y8322D01*
X46368Y8376D01*
X46339Y8432D01*
X46314Y8490D01*
X46293Y8549D01*
X46275Y8609D01*
X46262Y8671D01*
X46252Y8733D01*
X46246Y8795D01*
X46244Y8858D01*
D15*
X44225Y8873D02*
X44225Y8423D01*
X44425Y8423D01*
X44615Y8423D02*
X44815Y8423D01*
X44615Y8423D02*
X44615Y8873D01*
X44815Y8873D01*
X44765Y8673D02*
X44615Y8673D01*
X45004Y8873D02*
X45004Y8423D01*
X45004Y8873D02*
X45129Y8873D01*
X45149Y8871D01*
X45168Y8867D01*
X45186Y8859D01*
X45202Y8849D01*
X45217Y8836D01*
X45230Y8821D01*
X45240Y8805D01*
X45248Y8787D01*
X45252Y8768D01*
X45254Y8748D01*
X45254Y8548D01*
X45252Y8528D01*
X45248Y8509D01*
X45240Y8491D01*
X45230Y8475D01*
X45217Y8460D01*
X45202Y8447D01*
X45186Y8437D01*
X45168Y8429D01*
X45149Y8425D01*
X45129Y8423D01*
X45004Y8423D01*
X45569Y8623D02*
X45719Y8623D01*
X45569Y8623D02*
X45552Y8625D01*
X45535Y8629D01*
X45519Y8636D01*
X45505Y8646D01*
X45492Y8659D01*
X45482Y8673D01*
X45475Y8689D01*
X45471Y8706D01*
X45469Y8723D01*
X45469Y8748D01*
X45471Y8769D01*
X45476Y8789D01*
X45484Y8807D01*
X45495Y8825D01*
X45509Y8840D01*
X45526Y8853D01*
X45544Y8862D01*
X45563Y8869D01*
X45584Y8873D01*
X45604Y8873D01*
X45625Y8869D01*
X45644Y8862D01*
X45662Y8853D01*
X45679Y8840D01*
X45693Y8825D01*
X45704Y8807D01*
X45712Y8789D01*
X45717Y8769D01*
X45719Y8748D01*
X45719Y8623D01*
X45717Y8597D01*
X45712Y8571D01*
X45704Y8546D01*
X45692Y8523D01*
X45678Y8501D01*
X45660Y8482D01*
X45641Y8464D01*
X45619Y8450D01*
X45596Y8438D01*
X45571Y8430D01*
X45545Y8425D01*
X45519Y8423D01*
D18*
X46494Y1953D02*
X47994Y1953D01*
D13*
X48048Y1996D01*
X48100Y2042D01*
X48149Y2091D01*
X48196Y2143D01*
X48239Y2197D01*
X48280Y2253D01*
X48317Y2312D01*
X48351Y2372D01*
X48381Y2435D01*
X48408Y2498D01*
X48432Y2564D01*
X48452Y2630D01*
X48468Y2698D01*
X48480Y2766D01*
X48488Y2835D01*
X48493Y2904D01*
X48494Y2974D01*
X48491Y3043D01*
X48484Y3112D01*
X48473Y3180D01*
X48459Y3248D01*
X48440Y3315D01*
X48418Y3381D01*
X48393Y3446D01*
X48364Y3509D01*
X48331Y3570D01*
X48295Y3629D01*
X48256Y3686D01*
X48214Y3742D01*
X48169Y3794D01*
X48121Y3844D01*
X48070Y3891D01*
X48016Y3936D01*
X47961Y3977D01*
X47903Y4015D01*
X47843Y4050D01*
X47781Y4082D01*
X47718Y4110D01*
X47653Y4134D01*
X47587Y4155D01*
X47519Y4172D01*
X47451Y4186D01*
X47382Y4195D01*
X47313Y4201D01*
X47244Y4203D01*
X47175Y4201D01*
X47106Y4195D01*
X47037Y4186D01*
X46969Y4172D01*
X46901Y4155D01*
X46835Y4134D01*
X46770Y4110D01*
X46707Y4082D01*
X46645Y4050D01*
X46585Y4015D01*
X46527Y3977D01*
X46472Y3936D01*
X46418Y3891D01*
X46367Y3844D01*
X46319Y3794D01*
X46274Y3742D01*
X46232Y3686D01*
X46193Y3629D01*
X46157Y3570D01*
X46124Y3509D01*
X46095Y3446D01*
X46070Y3381D01*
X46048Y3315D01*
X46029Y3248D01*
X46015Y3180D01*
X46004Y3112D01*
X45997Y3043D01*
X45994Y2974D01*
X45995Y2904D01*
X46000Y2835D01*
X46008Y2766D01*
X46020Y2698D01*
X46036Y2630D01*
X46056Y2564D01*
X46080Y2498D01*
X46107Y2435D01*
X46137Y2372D01*
X46171Y2312D01*
X46208Y2253D01*
X46249Y2197D01*
X46292Y2143D01*
X46339Y2091D01*
X46388Y2042D01*
X46440Y1996D01*
X46494Y1953D01*
D10*
X46244Y2953D02*
X46246Y3016D01*
X46252Y3078D01*
X46262Y3140D01*
X46275Y3202D01*
X46293Y3262D01*
X46314Y3321D01*
X46339Y3379D01*
X46368Y3435D01*
X46400Y3489D01*
X46435Y3541D01*
X46473Y3590D01*
X46515Y3638D01*
X46559Y3682D01*
X46607Y3724D01*
X46656Y3762D01*
X46708Y3797D01*
X46762Y3829D01*
X46818Y3858D01*
X46876Y3883D01*
X46935Y3904D01*
X46995Y3922D01*
X47057Y3935D01*
X47119Y3945D01*
X47181Y3951D01*
X47244Y3953D01*
X47307Y3951D01*
X47369Y3945D01*
X47431Y3935D01*
X47493Y3922D01*
X47553Y3904D01*
X47612Y3883D01*
X47670Y3858D01*
X47726Y3829D01*
X47780Y3797D01*
X47832Y3762D01*
X47881Y3724D01*
X47929Y3682D01*
X47973Y3638D01*
X48015Y3590D01*
X48053Y3541D01*
X48088Y3489D01*
X48120Y3435D01*
X48149Y3379D01*
X48174Y3321D01*
X48195Y3262D01*
X48213Y3202D01*
X48226Y3140D01*
X48236Y3078D01*
X48242Y3016D01*
X48244Y2953D01*
X48242Y2890D01*
X48236Y2828D01*
X48226Y2766D01*
X48213Y2704D01*
X48195Y2644D01*
X48174Y2585D01*
X48149Y2527D01*
X48120Y2471D01*
X48088Y2417D01*
X48053Y2365D01*
X48015Y2316D01*
X47973Y2268D01*
X47929Y2224D01*
X47881Y2182D01*
X47832Y2144D01*
X47780Y2109D01*
X47726Y2077D01*
X47670Y2048D01*
X47612Y2023D01*
X47553Y2002D01*
X47493Y1984D01*
X47431Y1971D01*
X47369Y1961D01*
X47307Y1955D01*
X47244Y1953D01*
X47181Y1955D01*
X47119Y1961D01*
X47057Y1971D01*
X46995Y1984D01*
X46935Y2002D01*
X46876Y2023D01*
X46818Y2048D01*
X46762Y2077D01*
X46708Y2109D01*
X46656Y2144D01*
X46607Y2182D01*
X46559Y2224D01*
X46515Y2268D01*
X46473Y2316D01*
X46435Y2365D01*
X46400Y2417D01*
X46368Y2471D01*
X46339Y2527D01*
X46314Y2585D01*
X46293Y2644D01*
X46275Y2704D01*
X46262Y2766D01*
X46252Y2828D01*
X46246Y2890D01*
X46244Y2953D01*
D15*
X43775Y2968D02*
X43775Y2518D01*
X43975Y2518D01*
X44165Y2518D02*
X44365Y2518D01*
X44165Y2518D02*
X44165Y2968D01*
X44365Y2968D01*
X44315Y2768D02*
X44165Y2768D01*
X44554Y2968D02*
X44554Y2518D01*
X44554Y2968D02*
X44679Y2968D01*
X44699Y2966D01*
X44718Y2962D01*
X44736Y2954D01*
X44752Y2944D01*
X44767Y2931D01*
X44780Y2916D01*
X44790Y2900D01*
X44798Y2882D01*
X44802Y2863D01*
X44804Y2843D01*
X44804Y2643D01*
X44802Y2623D01*
X44798Y2604D01*
X44790Y2586D01*
X44780Y2570D01*
X44767Y2555D01*
X44752Y2542D01*
X44736Y2532D01*
X44718Y2524D01*
X44699Y2520D01*
X44679Y2518D01*
X44554Y2518D01*
X45019Y2868D02*
X45144Y2968D01*
X45144Y2518D01*
X45019Y2518D02*
X45269Y2518D01*
X45469Y2743D02*
X45471Y2777D01*
X45475Y2810D01*
X45483Y2843D01*
X45493Y2875D01*
X45507Y2906D01*
X45506Y2905D02*
X45513Y2920D01*
X45522Y2934D01*
X45533Y2946D01*
X45547Y2955D01*
X45562Y2962D01*
X45578Y2967D01*
X45594Y2968D01*
X45610Y2967D01*
X45626Y2962D01*
X45641Y2955D01*
X45655Y2946D01*
X45666Y2934D01*
X45675Y2920D01*
X45682Y2905D01*
X45681Y2906D02*
X45695Y2875D01*
X45705Y2843D01*
X45713Y2810D01*
X45717Y2777D01*
X45719Y2743D01*
X45469Y2743D02*
X45471Y2709D01*
X45475Y2676D01*
X45483Y2643D01*
X45493Y2611D01*
X45507Y2580D01*
X45506Y2580D02*
X45513Y2565D01*
X45522Y2551D01*
X45533Y2539D01*
X45547Y2530D01*
X45562Y2523D01*
X45578Y2518D01*
X45594Y2517D01*
X45681Y2580D02*
X45695Y2611D01*
X45705Y2643D01*
X45713Y2676D01*
X45717Y2709D01*
X45719Y2743D01*
X45682Y2580D02*
X45675Y2565D01*
X45666Y2551D01*
X45655Y2539D01*
X45641Y2530D01*
X45626Y2523D01*
X45610Y2518D01*
X45594Y2517D01*
X45494Y2618D02*
X45694Y2868D01*
D16*
X45795Y15640D02*
X45795Y16860D01*
X45205Y16860D01*
X45205Y15640D01*
X45795Y15640D01*
D17*
X45730Y17122D02*
X45730Y17224D01*
X45730Y17122D02*
X45728Y17104D01*
X45724Y17087D01*
X45716Y17071D01*
X45706Y17056D01*
X45694Y17044D01*
X45679Y17034D01*
X45663Y17026D01*
X45646Y17022D01*
X45628Y17020D01*
X45372Y17020D01*
X45352Y17022D01*
X45333Y17028D01*
X45315Y17037D01*
X45300Y17050D01*
X45287Y17065D01*
X45278Y17083D01*
X45272Y17102D01*
X45270Y17122D01*
X45270Y17224D01*
X45730Y17396D02*
X45730Y17550D01*
X45728Y17568D01*
X45724Y17585D01*
X45716Y17601D01*
X45706Y17616D01*
X45694Y17628D01*
X45679Y17638D01*
X45663Y17646D01*
X45646Y17650D01*
X45628Y17652D01*
X45577Y17652D01*
X45559Y17650D01*
X45542Y17646D01*
X45526Y17638D01*
X45511Y17628D01*
X45499Y17616D01*
X45489Y17601D01*
X45481Y17585D01*
X45477Y17568D01*
X45475Y17550D01*
X45474Y17550D02*
X45474Y17396D01*
X45270Y17396D01*
X45270Y17652D01*
D16*
X26455Y20640D02*
X26455Y21860D01*
X26455Y20640D02*
X27045Y20640D01*
X27045Y21860D01*
X26455Y21860D01*
D17*
X26980Y20053D02*
X26980Y19950D01*
X26978Y19932D01*
X26974Y19915D01*
X26966Y19899D01*
X26956Y19884D01*
X26944Y19872D01*
X26929Y19862D01*
X26913Y19854D01*
X26896Y19850D01*
X26878Y19848D01*
X26622Y19848D01*
X26602Y19850D01*
X26583Y19856D01*
X26565Y19865D01*
X26550Y19878D01*
X26537Y19893D01*
X26528Y19911D01*
X26522Y19930D01*
X26520Y19950D01*
X26520Y20053D01*
X26724Y20224D02*
X26724Y20378D01*
X26725Y20378D02*
X26727Y20396D01*
X26731Y20413D01*
X26739Y20429D01*
X26749Y20444D01*
X26761Y20456D01*
X26776Y20466D01*
X26792Y20474D01*
X26809Y20478D01*
X26827Y20480D01*
X26852Y20480D01*
X26873Y20478D01*
X26894Y20473D01*
X26913Y20465D01*
X26931Y20453D01*
X26946Y20439D01*
X26959Y20422D01*
X26969Y20403D01*
X26976Y20383D01*
X26980Y20363D01*
X26980Y20341D01*
X26976Y20321D01*
X26969Y20301D01*
X26959Y20282D01*
X26946Y20265D01*
X26931Y20251D01*
X26913Y20239D01*
X26894Y20231D01*
X26873Y20226D01*
X26852Y20224D01*
X26724Y20224D01*
X26724Y20225D02*
X26697Y20227D01*
X26671Y20232D01*
X26646Y20241D01*
X26622Y20252D01*
X26600Y20267D01*
X26580Y20285D01*
X26562Y20305D01*
X26547Y20327D01*
X26536Y20351D01*
X26527Y20376D01*
X26522Y20402D01*
X26520Y20429D01*
D10*
X49650Y2000D02*
X49652Y2073D01*
X49658Y2146D01*
X49668Y2218D01*
X49682Y2290D01*
X49699Y2361D01*
X49721Y2431D01*
X49746Y2500D01*
X49775Y2567D01*
X49807Y2632D01*
X49843Y2696D01*
X49883Y2758D01*
X49925Y2817D01*
X49971Y2874D01*
X50020Y2928D01*
X50072Y2980D01*
X50126Y3029D01*
X50183Y3075D01*
X50242Y3117D01*
X50304Y3157D01*
X50368Y3193D01*
X50433Y3225D01*
X50500Y3254D01*
X50569Y3279D01*
X50639Y3301D01*
X50710Y3318D01*
X50782Y3332D01*
X50854Y3342D01*
X50927Y3348D01*
X51000Y3350D01*
X51073Y3348D01*
X51146Y3342D01*
X51218Y3332D01*
X51290Y3318D01*
X51361Y3301D01*
X51431Y3279D01*
X51500Y3254D01*
X51567Y3225D01*
X51632Y3193D01*
X51696Y3157D01*
X51758Y3117D01*
X51817Y3075D01*
X51874Y3029D01*
X51928Y2980D01*
X51980Y2928D01*
X52029Y2874D01*
X52075Y2817D01*
X52117Y2758D01*
X52157Y2696D01*
X52193Y2632D01*
X52225Y2567D01*
X52254Y2500D01*
X52279Y2431D01*
X52301Y2361D01*
X52318Y2290D01*
X52332Y2218D01*
X52342Y2146D01*
X52348Y2073D01*
X52350Y2000D01*
X52348Y1927D01*
X52342Y1854D01*
X52332Y1782D01*
X52318Y1710D01*
X52301Y1639D01*
X52279Y1569D01*
X52254Y1500D01*
X52225Y1433D01*
X52193Y1368D01*
X52157Y1304D01*
X52117Y1242D01*
X52075Y1183D01*
X52029Y1126D01*
X51980Y1072D01*
X51928Y1020D01*
X51874Y971D01*
X51817Y925D01*
X51758Y883D01*
X51696Y843D01*
X51632Y807D01*
X51567Y775D01*
X51500Y746D01*
X51431Y721D01*
X51361Y699D01*
X51290Y682D01*
X51218Y668D01*
X51146Y658D01*
X51073Y652D01*
X51000Y650D01*
X50927Y652D01*
X50854Y658D01*
X50782Y668D01*
X50710Y682D01*
X50639Y699D01*
X50569Y721D01*
X50500Y746D01*
X50433Y775D01*
X50368Y807D01*
X50304Y843D01*
X50242Y883D01*
X50183Y925D01*
X50126Y971D01*
X50072Y1020D01*
X50020Y1072D01*
X49971Y1126D01*
X49925Y1183D01*
X49883Y1242D01*
X49843Y1304D01*
X49807Y1368D01*
X49775Y1433D01*
X49746Y1500D01*
X49721Y1569D01*
X49699Y1639D01*
X49682Y1710D01*
X49668Y1782D01*
X49658Y1854D01*
X49652Y1927D01*
X49650Y2000D01*
D18*
X50370Y2000D02*
X50372Y2050D01*
X50378Y2100D01*
X50388Y2149D01*
X50402Y2197D01*
X50419Y2244D01*
X50440Y2289D01*
X50465Y2333D01*
X50493Y2374D01*
X50525Y2413D01*
X50559Y2450D01*
X50596Y2484D01*
X50636Y2514D01*
X50678Y2541D01*
X50722Y2565D01*
X50768Y2586D01*
X50815Y2602D01*
X50863Y2615D01*
X50913Y2624D01*
X50962Y2629D01*
X51013Y2630D01*
X51063Y2627D01*
X51112Y2620D01*
X51161Y2609D01*
X51209Y2594D01*
X51255Y2576D01*
X51300Y2554D01*
X51343Y2528D01*
X51384Y2499D01*
X51423Y2467D01*
X51459Y2432D01*
X51491Y2394D01*
X51521Y2354D01*
X51548Y2311D01*
X51571Y2267D01*
X51590Y2221D01*
X51606Y2173D01*
X51618Y2124D01*
X51626Y2075D01*
X51630Y2025D01*
X51630Y1975D01*
X51626Y1925D01*
X51618Y1876D01*
X51606Y1827D01*
X51590Y1779D01*
X51571Y1733D01*
X51548Y1689D01*
X51521Y1646D01*
X51491Y1606D01*
X51459Y1568D01*
X51423Y1533D01*
X51384Y1501D01*
X51343Y1472D01*
X51300Y1446D01*
X51255Y1424D01*
X51209Y1406D01*
X51161Y1391D01*
X51112Y1380D01*
X51063Y1373D01*
X51013Y1370D01*
X50962Y1371D01*
X50913Y1376D01*
X50863Y1385D01*
X50815Y1398D01*
X50768Y1414D01*
X50722Y1435D01*
X50678Y1459D01*
X50636Y1486D01*
X50596Y1516D01*
X50559Y1550D01*
X50525Y1587D01*
X50493Y1626D01*
X50465Y1667D01*
X50440Y1711D01*
X50419Y1756D01*
X50402Y1803D01*
X50388Y1851D01*
X50378Y1900D01*
X50372Y1950D01*
X50370Y2000D01*
D10*
X49650Y30000D02*
X49652Y30073D01*
X49658Y30146D01*
X49668Y30218D01*
X49682Y30290D01*
X49699Y30361D01*
X49721Y30431D01*
X49746Y30500D01*
X49775Y30567D01*
X49807Y30632D01*
X49843Y30696D01*
X49883Y30758D01*
X49925Y30817D01*
X49971Y30874D01*
X50020Y30928D01*
X50072Y30980D01*
X50126Y31029D01*
X50183Y31075D01*
X50242Y31117D01*
X50304Y31157D01*
X50368Y31193D01*
X50433Y31225D01*
X50500Y31254D01*
X50569Y31279D01*
X50639Y31301D01*
X50710Y31318D01*
X50782Y31332D01*
X50854Y31342D01*
X50927Y31348D01*
X51000Y31350D01*
X51073Y31348D01*
X51146Y31342D01*
X51218Y31332D01*
X51290Y31318D01*
X51361Y31301D01*
X51431Y31279D01*
X51500Y31254D01*
X51567Y31225D01*
X51632Y31193D01*
X51696Y31157D01*
X51758Y31117D01*
X51817Y31075D01*
X51874Y31029D01*
X51928Y30980D01*
X51980Y30928D01*
X52029Y30874D01*
X52075Y30817D01*
X52117Y30758D01*
X52157Y30696D01*
X52193Y30632D01*
X52225Y30567D01*
X52254Y30500D01*
X52279Y30431D01*
X52301Y30361D01*
X52318Y30290D01*
X52332Y30218D01*
X52342Y30146D01*
X52348Y30073D01*
X52350Y30000D01*
X52348Y29927D01*
X52342Y29854D01*
X52332Y29782D01*
X52318Y29710D01*
X52301Y29639D01*
X52279Y29569D01*
X52254Y29500D01*
X52225Y29433D01*
X52193Y29368D01*
X52157Y29304D01*
X52117Y29242D01*
X52075Y29183D01*
X52029Y29126D01*
X51980Y29072D01*
X51928Y29020D01*
X51874Y28971D01*
X51817Y28925D01*
X51758Y28883D01*
X51696Y28843D01*
X51632Y28807D01*
X51567Y28775D01*
X51500Y28746D01*
X51431Y28721D01*
X51361Y28699D01*
X51290Y28682D01*
X51218Y28668D01*
X51146Y28658D01*
X51073Y28652D01*
X51000Y28650D01*
X50927Y28652D01*
X50854Y28658D01*
X50782Y28668D01*
X50710Y28682D01*
X50639Y28699D01*
X50569Y28721D01*
X50500Y28746D01*
X50433Y28775D01*
X50368Y28807D01*
X50304Y28843D01*
X50242Y28883D01*
X50183Y28925D01*
X50126Y28971D01*
X50072Y29020D01*
X50020Y29072D01*
X49971Y29126D01*
X49925Y29183D01*
X49883Y29242D01*
X49843Y29304D01*
X49807Y29368D01*
X49775Y29433D01*
X49746Y29500D01*
X49721Y29569D01*
X49699Y29639D01*
X49682Y29710D01*
X49668Y29782D01*
X49658Y29854D01*
X49652Y29927D01*
X49650Y30000D01*
D18*
X50370Y30000D02*
X50372Y30050D01*
X50378Y30100D01*
X50388Y30149D01*
X50402Y30197D01*
X50419Y30244D01*
X50440Y30289D01*
X50465Y30333D01*
X50493Y30374D01*
X50525Y30413D01*
X50559Y30450D01*
X50596Y30484D01*
X50636Y30514D01*
X50678Y30541D01*
X50722Y30565D01*
X50768Y30586D01*
X50815Y30602D01*
X50863Y30615D01*
X50913Y30624D01*
X50962Y30629D01*
X51013Y30630D01*
X51063Y30627D01*
X51112Y30620D01*
X51161Y30609D01*
X51209Y30594D01*
X51255Y30576D01*
X51300Y30554D01*
X51343Y30528D01*
X51384Y30499D01*
X51423Y30467D01*
X51459Y30432D01*
X51491Y30394D01*
X51521Y30354D01*
X51548Y30311D01*
X51571Y30267D01*
X51590Y30221D01*
X51606Y30173D01*
X51618Y30124D01*
X51626Y30075D01*
X51630Y30025D01*
X51630Y29975D01*
X51626Y29925D01*
X51618Y29876D01*
X51606Y29827D01*
X51590Y29779D01*
X51571Y29733D01*
X51548Y29689D01*
X51521Y29646D01*
X51491Y29606D01*
X51459Y29568D01*
X51423Y29533D01*
X51384Y29501D01*
X51343Y29472D01*
X51300Y29446D01*
X51255Y29424D01*
X51209Y29406D01*
X51161Y29391D01*
X51112Y29380D01*
X51063Y29373D01*
X51013Y29370D01*
X50962Y29371D01*
X50913Y29376D01*
X50863Y29385D01*
X50815Y29398D01*
X50768Y29414D01*
X50722Y29435D01*
X50678Y29459D01*
X50636Y29486D01*
X50596Y29516D01*
X50559Y29550D01*
X50525Y29587D01*
X50493Y29626D01*
X50465Y29667D01*
X50440Y29711D01*
X50419Y29756D01*
X50402Y29803D01*
X50388Y29851D01*
X50378Y29900D01*
X50372Y29950D01*
X50370Y30000D01*
D10*
X650Y30000D02*
X652Y30073D01*
X658Y30146D01*
X668Y30218D01*
X682Y30290D01*
X699Y30361D01*
X721Y30431D01*
X746Y30500D01*
X775Y30567D01*
X807Y30632D01*
X843Y30696D01*
X883Y30758D01*
X925Y30817D01*
X971Y30874D01*
X1020Y30928D01*
X1072Y30980D01*
X1126Y31029D01*
X1183Y31075D01*
X1242Y31117D01*
X1304Y31157D01*
X1368Y31193D01*
X1433Y31225D01*
X1500Y31254D01*
X1569Y31279D01*
X1639Y31301D01*
X1710Y31318D01*
X1782Y31332D01*
X1854Y31342D01*
X1927Y31348D01*
X2000Y31350D01*
X2073Y31348D01*
X2146Y31342D01*
X2218Y31332D01*
X2290Y31318D01*
X2361Y31301D01*
X2431Y31279D01*
X2500Y31254D01*
X2567Y31225D01*
X2632Y31193D01*
X2696Y31157D01*
X2758Y31117D01*
X2817Y31075D01*
X2874Y31029D01*
X2928Y30980D01*
X2980Y30928D01*
X3029Y30874D01*
X3075Y30817D01*
X3117Y30758D01*
X3157Y30696D01*
X3193Y30632D01*
X3225Y30567D01*
X3254Y30500D01*
X3279Y30431D01*
X3301Y30361D01*
X3318Y30290D01*
X3332Y30218D01*
X3342Y30146D01*
X3348Y30073D01*
X3350Y30000D01*
X3348Y29927D01*
X3342Y29854D01*
X3332Y29782D01*
X3318Y29710D01*
X3301Y29639D01*
X3279Y29569D01*
X3254Y29500D01*
X3225Y29433D01*
X3193Y29368D01*
X3157Y29304D01*
X3117Y29242D01*
X3075Y29183D01*
X3029Y29126D01*
X2980Y29072D01*
X2928Y29020D01*
X2874Y28971D01*
X2817Y28925D01*
X2758Y28883D01*
X2696Y28843D01*
X2632Y28807D01*
X2567Y28775D01*
X2500Y28746D01*
X2431Y28721D01*
X2361Y28699D01*
X2290Y28682D01*
X2218Y28668D01*
X2146Y28658D01*
X2073Y28652D01*
X2000Y28650D01*
X1927Y28652D01*
X1854Y28658D01*
X1782Y28668D01*
X1710Y28682D01*
X1639Y28699D01*
X1569Y28721D01*
X1500Y28746D01*
X1433Y28775D01*
X1368Y28807D01*
X1304Y28843D01*
X1242Y28883D01*
X1183Y28925D01*
X1126Y28971D01*
X1072Y29020D01*
X1020Y29072D01*
X971Y29126D01*
X925Y29183D01*
X883Y29242D01*
X843Y29304D01*
X807Y29368D01*
X775Y29433D01*
X746Y29500D01*
X721Y29569D01*
X699Y29639D01*
X682Y29710D01*
X668Y29782D01*
X658Y29854D01*
X652Y29927D01*
X650Y30000D01*
D18*
X1370Y30000D02*
X1372Y30050D01*
X1378Y30100D01*
X1388Y30149D01*
X1402Y30197D01*
X1419Y30244D01*
X1440Y30289D01*
X1465Y30333D01*
X1493Y30374D01*
X1525Y30413D01*
X1559Y30450D01*
X1596Y30484D01*
X1636Y30514D01*
X1678Y30541D01*
X1722Y30565D01*
X1768Y30586D01*
X1815Y30602D01*
X1863Y30615D01*
X1913Y30624D01*
X1962Y30629D01*
X2013Y30630D01*
X2063Y30627D01*
X2112Y30620D01*
X2161Y30609D01*
X2209Y30594D01*
X2255Y30576D01*
X2300Y30554D01*
X2343Y30528D01*
X2384Y30499D01*
X2423Y30467D01*
X2459Y30432D01*
X2491Y30394D01*
X2521Y30354D01*
X2548Y30311D01*
X2571Y30267D01*
X2590Y30221D01*
X2606Y30173D01*
X2618Y30124D01*
X2626Y30075D01*
X2630Y30025D01*
X2630Y29975D01*
X2626Y29925D01*
X2618Y29876D01*
X2606Y29827D01*
X2590Y29779D01*
X2571Y29733D01*
X2548Y29689D01*
X2521Y29646D01*
X2491Y29606D01*
X2459Y29568D01*
X2423Y29533D01*
X2384Y29501D01*
X2343Y29472D01*
X2300Y29446D01*
X2255Y29424D01*
X2209Y29406D01*
X2161Y29391D01*
X2112Y29380D01*
X2063Y29373D01*
X2013Y29370D01*
X1962Y29371D01*
X1913Y29376D01*
X1863Y29385D01*
X1815Y29398D01*
X1768Y29414D01*
X1722Y29435D01*
X1678Y29459D01*
X1636Y29486D01*
X1596Y29516D01*
X1559Y29550D01*
X1525Y29587D01*
X1493Y29626D01*
X1465Y29667D01*
X1440Y29711D01*
X1419Y29756D01*
X1402Y29803D01*
X1388Y29851D01*
X1378Y29900D01*
X1372Y29950D01*
X1370Y30000D01*
D10*
X650Y2000D02*
X652Y2073D01*
X658Y2146D01*
X668Y2218D01*
X682Y2290D01*
X699Y2361D01*
X721Y2431D01*
X746Y2500D01*
X775Y2567D01*
X807Y2632D01*
X843Y2696D01*
X883Y2758D01*
X925Y2817D01*
X971Y2874D01*
X1020Y2928D01*
X1072Y2980D01*
X1126Y3029D01*
X1183Y3075D01*
X1242Y3117D01*
X1304Y3157D01*
X1368Y3193D01*
X1433Y3225D01*
X1500Y3254D01*
X1569Y3279D01*
X1639Y3301D01*
X1710Y3318D01*
X1782Y3332D01*
X1854Y3342D01*
X1927Y3348D01*
X2000Y3350D01*
X2073Y3348D01*
X2146Y3342D01*
X2218Y3332D01*
X2290Y3318D01*
X2361Y3301D01*
X2431Y3279D01*
X2500Y3254D01*
X2567Y3225D01*
X2632Y3193D01*
X2696Y3157D01*
X2758Y3117D01*
X2817Y3075D01*
X2874Y3029D01*
X2928Y2980D01*
X2980Y2928D01*
X3029Y2874D01*
X3075Y2817D01*
X3117Y2758D01*
X3157Y2696D01*
X3193Y2632D01*
X3225Y2567D01*
X3254Y2500D01*
X3279Y2431D01*
X3301Y2361D01*
X3318Y2290D01*
X3332Y2218D01*
X3342Y2146D01*
X3348Y2073D01*
X3350Y2000D01*
X3348Y1927D01*
X3342Y1854D01*
X3332Y1782D01*
X3318Y1710D01*
X3301Y1639D01*
X3279Y1569D01*
X3254Y1500D01*
X3225Y1433D01*
X3193Y1368D01*
X3157Y1304D01*
X3117Y1242D01*
X3075Y1183D01*
X3029Y1126D01*
X2980Y1072D01*
X2928Y1020D01*
X2874Y971D01*
X2817Y925D01*
X2758Y883D01*
X2696Y843D01*
X2632Y807D01*
X2567Y775D01*
X2500Y746D01*
X2431Y721D01*
X2361Y699D01*
X2290Y682D01*
X2218Y668D01*
X2146Y658D01*
X2073Y652D01*
X2000Y650D01*
X1927Y652D01*
X1854Y658D01*
X1782Y668D01*
X1710Y682D01*
X1639Y699D01*
X1569Y721D01*
X1500Y746D01*
X1433Y775D01*
X1368Y807D01*
X1304Y843D01*
X1242Y883D01*
X1183Y925D01*
X1126Y971D01*
X1072Y1020D01*
X1020Y1072D01*
X971Y1126D01*
X925Y1183D01*
X883Y1242D01*
X843Y1304D01*
X807Y1368D01*
X775Y1433D01*
X746Y1500D01*
X721Y1569D01*
X699Y1639D01*
X682Y1710D01*
X668Y1782D01*
X658Y1854D01*
X652Y1927D01*
X650Y2000D01*
D18*
X1370Y2000D02*
X1372Y2050D01*
X1378Y2100D01*
X1388Y2149D01*
X1402Y2197D01*
X1419Y2244D01*
X1440Y2289D01*
X1465Y2333D01*
X1493Y2374D01*
X1525Y2413D01*
X1559Y2450D01*
X1596Y2484D01*
X1636Y2514D01*
X1678Y2541D01*
X1722Y2565D01*
X1768Y2586D01*
X1815Y2602D01*
X1863Y2615D01*
X1913Y2624D01*
X1962Y2629D01*
X2013Y2630D01*
X2063Y2627D01*
X2112Y2620D01*
X2161Y2609D01*
X2209Y2594D01*
X2255Y2576D01*
X2300Y2554D01*
X2343Y2528D01*
X2384Y2499D01*
X2423Y2467D01*
X2459Y2432D01*
X2491Y2394D01*
X2521Y2354D01*
X2548Y2311D01*
X2571Y2267D01*
X2590Y2221D01*
X2606Y2173D01*
X2618Y2124D01*
X2626Y2075D01*
X2630Y2025D01*
X2630Y1975D01*
X2626Y1925D01*
X2618Y1876D01*
X2606Y1827D01*
X2590Y1779D01*
X2571Y1733D01*
X2548Y1689D01*
X2521Y1646D01*
X2491Y1606D01*
X2459Y1568D01*
X2423Y1533D01*
X2384Y1501D01*
X2343Y1472D01*
X2300Y1446D01*
X2255Y1424D01*
X2209Y1406D01*
X2161Y1391D01*
X2112Y1380D01*
X2063Y1373D01*
X2013Y1370D01*
X1962Y1371D01*
X1913Y1376D01*
X1863Y1385D01*
X1815Y1398D01*
X1768Y1414D01*
X1722Y1435D01*
X1678Y1459D01*
X1636Y1486D01*
X1596Y1516D01*
X1559Y1550D01*
X1525Y1587D01*
X1493Y1626D01*
X1465Y1667D01*
X1440Y1711D01*
X1419Y1756D01*
X1402Y1803D01*
X1388Y1851D01*
X1378Y1900D01*
X1372Y1950D01*
X1370Y2000D01*
D16*
X3890Y16955D02*
X5110Y16955D01*
X5110Y17545D01*
X3890Y17545D01*
X3890Y16955D01*
D17*
X5372Y17020D02*
X5474Y17020D01*
X5372Y17020D02*
X5354Y17022D01*
X5337Y17026D01*
X5321Y17034D01*
X5306Y17044D01*
X5294Y17056D01*
X5284Y17071D01*
X5276Y17087D01*
X5272Y17104D01*
X5270Y17122D01*
X5270Y17378D01*
X5272Y17398D01*
X5278Y17417D01*
X5287Y17435D01*
X5300Y17450D01*
X5315Y17463D01*
X5333Y17472D01*
X5352Y17478D01*
X5372Y17480D01*
X5474Y17480D01*
X5646Y17480D02*
X5646Y17429D01*
X5646Y17480D02*
X5902Y17480D01*
X5774Y17020D01*
D16*
X5110Y15955D02*
X3890Y15955D01*
X5110Y15955D02*
X5110Y16545D01*
X3890Y16545D01*
X3890Y15955D01*
D17*
X5372Y16020D02*
X5474Y16020D01*
X5372Y16020D02*
X5354Y16022D01*
X5337Y16026D01*
X5321Y16034D01*
X5306Y16044D01*
X5294Y16056D01*
X5284Y16071D01*
X5276Y16087D01*
X5272Y16104D01*
X5270Y16122D01*
X5270Y16378D01*
X5272Y16398D01*
X5278Y16417D01*
X5287Y16435D01*
X5300Y16450D01*
X5315Y16463D01*
X5333Y16472D01*
X5352Y16478D01*
X5372Y16480D01*
X5474Y16480D01*
X5646Y16148D02*
X5648Y16169D01*
X5653Y16190D01*
X5661Y16209D01*
X5673Y16227D01*
X5687Y16242D01*
X5704Y16255D01*
X5723Y16265D01*
X5743Y16272D01*
X5763Y16276D01*
X5785Y16276D01*
X5805Y16272D01*
X5825Y16265D01*
X5844Y16255D01*
X5861Y16242D01*
X5875Y16227D01*
X5887Y16209D01*
X5895Y16190D01*
X5900Y16169D01*
X5902Y16148D01*
X5900Y16127D01*
X5895Y16106D01*
X5887Y16087D01*
X5875Y16069D01*
X5861Y16054D01*
X5844Y16041D01*
X5825Y16031D01*
X5805Y16024D01*
X5785Y16020D01*
X5763Y16020D01*
X5743Y16024D01*
X5723Y16031D01*
X5704Y16041D01*
X5687Y16054D01*
X5673Y16069D01*
X5661Y16087D01*
X5653Y16106D01*
X5648Y16127D01*
X5646Y16148D01*
X5672Y16378D02*
X5674Y16397D01*
X5679Y16415D01*
X5687Y16432D01*
X5699Y16447D01*
X5713Y16459D01*
X5729Y16469D01*
X5746Y16476D01*
X5765Y16480D01*
X5783Y16480D01*
X5802Y16476D01*
X5819Y16469D01*
X5835Y16459D01*
X5849Y16447D01*
X5861Y16432D01*
X5869Y16415D01*
X5874Y16397D01*
X5876Y16378D01*
X5874Y16359D01*
X5869Y16341D01*
X5861Y16324D01*
X5849Y16309D01*
X5835Y16297D01*
X5819Y16287D01*
X5802Y16280D01*
X5783Y16276D01*
X5765Y16276D01*
X5746Y16280D01*
X5729Y16287D01*
X5713Y16297D01*
X5699Y16309D01*
X5687Y16324D01*
X5679Y16341D01*
X5674Y16359D01*
X5672Y16378D01*
D16*
X5110Y14955D02*
X3890Y14955D01*
X5110Y14955D02*
X5110Y15545D01*
X3890Y15545D01*
X3890Y14955D01*
D17*
X5372Y15020D02*
X5474Y15020D01*
X5372Y15020D02*
X5354Y15022D01*
X5337Y15026D01*
X5321Y15034D01*
X5306Y15044D01*
X5294Y15056D01*
X5284Y15071D01*
X5276Y15087D01*
X5272Y15104D01*
X5270Y15122D01*
X5270Y15378D01*
X5272Y15398D01*
X5278Y15417D01*
X5287Y15435D01*
X5300Y15450D01*
X5315Y15463D01*
X5333Y15472D01*
X5352Y15478D01*
X5372Y15480D01*
X5474Y15480D01*
X5749Y15224D02*
X5902Y15224D01*
X5749Y15225D02*
X5731Y15227D01*
X5714Y15231D01*
X5698Y15239D01*
X5683Y15249D01*
X5671Y15261D01*
X5661Y15276D01*
X5653Y15292D01*
X5649Y15309D01*
X5647Y15327D01*
X5646Y15327D02*
X5646Y15352D01*
X5648Y15373D01*
X5653Y15394D01*
X5661Y15413D01*
X5673Y15431D01*
X5687Y15446D01*
X5704Y15459D01*
X5723Y15469D01*
X5743Y15476D01*
X5763Y15480D01*
X5785Y15480D01*
X5805Y15476D01*
X5825Y15469D01*
X5844Y15459D01*
X5861Y15446D01*
X5875Y15431D01*
X5887Y15413D01*
X5895Y15394D01*
X5900Y15373D01*
X5902Y15352D01*
X5902Y15224D01*
X5901Y15224D02*
X5899Y15197D01*
X5894Y15171D01*
X5885Y15146D01*
X5874Y15122D01*
X5859Y15100D01*
X5841Y15080D01*
X5821Y15062D01*
X5799Y15047D01*
X5775Y15036D01*
X5750Y15027D01*
X5724Y15022D01*
X5697Y15020D01*
D16*
X5110Y13955D02*
X3890Y13955D01*
X5110Y13955D02*
X5110Y14545D01*
X3890Y14545D01*
X3890Y13955D01*
D17*
X5372Y14020D02*
X5474Y14020D01*
X5372Y14020D02*
X5354Y14022D01*
X5337Y14026D01*
X5321Y14034D01*
X5306Y14044D01*
X5294Y14056D01*
X5284Y14071D01*
X5276Y14087D01*
X5272Y14104D01*
X5270Y14122D01*
X5270Y14378D01*
X5272Y14398D01*
X5278Y14417D01*
X5287Y14435D01*
X5300Y14450D01*
X5315Y14463D01*
X5333Y14472D01*
X5352Y14478D01*
X5372Y14480D01*
X5474Y14480D01*
X5646Y14378D02*
X5774Y14480D01*
X5774Y14020D01*
X5646Y14020D02*
X5902Y14020D01*
X6096Y14250D02*
X6098Y14284D01*
X6102Y14318D01*
X6110Y14352D01*
X6121Y14385D01*
X6134Y14416D01*
X6141Y14431D01*
X6150Y14445D01*
X6162Y14457D01*
X6176Y14467D01*
X6191Y14474D01*
X6207Y14479D01*
X6224Y14480D01*
X6241Y14479D01*
X6257Y14474D01*
X6272Y14467D01*
X6286Y14457D01*
X6298Y14445D01*
X6307Y14431D01*
X6314Y14416D01*
X6327Y14385D01*
X6338Y14352D01*
X6346Y14318D01*
X6350Y14284D01*
X6352Y14250D01*
X6096Y14250D02*
X6098Y14216D01*
X6102Y14182D01*
X6110Y14148D01*
X6121Y14115D01*
X6134Y14084D01*
X6141Y14069D01*
X6150Y14055D01*
X6162Y14043D01*
X6176Y14033D01*
X6191Y14026D01*
X6207Y14021D01*
X6224Y14020D01*
X6314Y14084D02*
X6327Y14115D01*
X6338Y14148D01*
X6346Y14182D01*
X6350Y14216D01*
X6352Y14250D01*
X6314Y14084D02*
X6307Y14069D01*
X6298Y14055D01*
X6286Y14043D01*
X6272Y14033D01*
X6257Y14026D01*
X6241Y14021D01*
X6224Y14020D01*
X6122Y14122D02*
X6326Y14378D01*
D16*
X5110Y12705D02*
X3890Y12705D01*
X5110Y12705D02*
X5110Y13295D01*
X3890Y13295D01*
X3890Y12705D01*
D17*
X5372Y12770D02*
X5474Y12770D01*
X5372Y12770D02*
X5354Y12772D01*
X5337Y12776D01*
X5321Y12784D01*
X5306Y12794D01*
X5294Y12806D01*
X5284Y12821D01*
X5276Y12837D01*
X5272Y12854D01*
X5270Y12872D01*
X5270Y13128D01*
X5272Y13148D01*
X5278Y13167D01*
X5287Y13185D01*
X5300Y13200D01*
X5315Y13213D01*
X5333Y13222D01*
X5352Y13228D01*
X5372Y13230D01*
X5474Y13230D01*
X5646Y13128D02*
X5774Y13230D01*
X5774Y12770D01*
X5646Y12770D02*
X5902Y12770D01*
X6096Y13128D02*
X6224Y13230D01*
X6224Y12770D01*
X6096Y12770D02*
X6352Y12770D01*
D16*
X5110Y11705D02*
X3890Y11705D01*
X5110Y11705D02*
X5110Y12295D01*
X3890Y12295D01*
X3890Y11705D01*
D17*
X5372Y11770D02*
X5474Y11770D01*
X5372Y11770D02*
X5354Y11772D01*
X5337Y11776D01*
X5321Y11784D01*
X5306Y11794D01*
X5294Y11806D01*
X5284Y11821D01*
X5276Y11837D01*
X5272Y11854D01*
X5270Y11872D01*
X5270Y12128D01*
X5272Y12148D01*
X5278Y12167D01*
X5287Y12185D01*
X5300Y12200D01*
X5315Y12213D01*
X5333Y12222D01*
X5352Y12228D01*
X5372Y12230D01*
X5474Y12230D01*
X5646Y12128D02*
X5774Y12230D01*
X5774Y11770D01*
X5646Y11770D02*
X5902Y11770D01*
X6352Y12115D02*
X6350Y12135D01*
X6345Y12154D01*
X6337Y12173D01*
X6325Y12189D01*
X6311Y12203D01*
X6295Y12215D01*
X6276Y12223D01*
X6257Y12228D01*
X6237Y12230D01*
X6214Y12228D01*
X6191Y12223D01*
X6170Y12214D01*
X6150Y12202D01*
X6132Y12187D01*
X6117Y12169D01*
X6105Y12149D01*
X6096Y12128D01*
X6314Y12025D02*
X6327Y12040D01*
X6338Y12057D01*
X6346Y12076D01*
X6350Y12095D01*
X6352Y12115D01*
X6314Y12026D02*
X6096Y11770D01*
X6352Y11770D01*
D16*
X5110Y10705D02*
X3890Y10705D01*
X5110Y10705D02*
X5110Y11295D01*
X3890Y11295D01*
X3890Y10705D01*
D17*
X5372Y10770D02*
X5474Y10770D01*
X5372Y10770D02*
X5354Y10772D01*
X5337Y10776D01*
X5321Y10784D01*
X5306Y10794D01*
X5294Y10806D01*
X5284Y10821D01*
X5276Y10837D01*
X5272Y10854D01*
X5270Y10872D01*
X5270Y11128D01*
X5272Y11148D01*
X5278Y11167D01*
X5287Y11185D01*
X5300Y11200D01*
X5315Y11213D01*
X5333Y11222D01*
X5352Y11228D01*
X5372Y11230D01*
X5474Y11230D01*
X5646Y11128D02*
X5774Y11230D01*
X5774Y10770D01*
X5646Y10770D02*
X5902Y10770D01*
X6096Y10770D02*
X6224Y10770D01*
X6245Y10772D01*
X6266Y10777D01*
X6285Y10785D01*
X6303Y10797D01*
X6318Y10811D01*
X6331Y10828D01*
X6341Y10847D01*
X6348Y10867D01*
X6352Y10887D01*
X6352Y10909D01*
X6348Y10929D01*
X6341Y10949D01*
X6331Y10968D01*
X6318Y10985D01*
X6303Y10999D01*
X6285Y11011D01*
X6266Y11019D01*
X6245Y11024D01*
X6224Y11026D01*
X6250Y11230D02*
X6096Y11230D01*
X6250Y11230D02*
X6269Y11228D01*
X6287Y11223D01*
X6304Y11215D01*
X6319Y11203D01*
X6331Y11189D01*
X6341Y11173D01*
X6348Y11156D01*
X6352Y11137D01*
X6352Y11119D01*
X6348Y11100D01*
X6341Y11083D01*
X6331Y11067D01*
X6319Y11053D01*
X6304Y11041D01*
X6287Y11033D01*
X6269Y11028D01*
X6250Y11026D01*
X6147Y11026D01*
D16*
X5110Y9455D02*
X3890Y9455D01*
X5110Y9455D02*
X5110Y10045D01*
X3890Y10045D01*
X3890Y9455D01*
D17*
X5372Y9520D02*
X5474Y9520D01*
X5372Y9520D02*
X5354Y9522D01*
X5337Y9526D01*
X5321Y9534D01*
X5306Y9544D01*
X5294Y9556D01*
X5284Y9571D01*
X5276Y9587D01*
X5272Y9604D01*
X5270Y9622D01*
X5270Y9878D01*
X5272Y9898D01*
X5278Y9917D01*
X5287Y9935D01*
X5300Y9950D01*
X5315Y9963D01*
X5333Y9972D01*
X5352Y9978D01*
X5372Y9980D01*
X5474Y9980D01*
X5646Y9878D02*
X5774Y9980D01*
X5774Y9520D01*
X5646Y9520D02*
X5902Y9520D01*
X6096Y9622D02*
X6199Y9980D01*
X6096Y9622D02*
X6352Y9622D01*
X6275Y9724D02*
X6275Y9520D01*
D16*
X27955Y20640D02*
X27955Y21860D01*
X27955Y20640D02*
X28545Y20640D01*
X28545Y21860D01*
X27955Y21860D01*
D17*
X28480Y19724D02*
X28480Y19622D01*
X28478Y19604D01*
X28474Y19587D01*
X28466Y19571D01*
X28456Y19556D01*
X28444Y19544D01*
X28429Y19534D01*
X28413Y19526D01*
X28396Y19522D01*
X28378Y19520D01*
X28122Y19520D01*
X28102Y19522D01*
X28083Y19528D01*
X28065Y19537D01*
X28050Y19550D01*
X28037Y19565D01*
X28028Y19583D01*
X28022Y19602D01*
X28020Y19622D01*
X28020Y19724D01*
X28122Y19896D02*
X28020Y20024D01*
X28480Y20024D01*
X28480Y19896D02*
X28480Y20152D01*
X28480Y20346D02*
X28480Y20500D01*
X28478Y20518D01*
X28474Y20535D01*
X28466Y20551D01*
X28456Y20566D01*
X28444Y20578D01*
X28429Y20588D01*
X28413Y20596D01*
X28396Y20600D01*
X28378Y20602D01*
X28327Y20602D01*
X28309Y20600D01*
X28292Y20596D01*
X28276Y20588D01*
X28261Y20578D01*
X28249Y20566D01*
X28239Y20551D01*
X28231Y20535D01*
X28227Y20518D01*
X28225Y20500D01*
X28224Y20500D02*
X28224Y20346D01*
X28020Y20346D01*
X28020Y20602D01*
D18*
X1724Y6348D02*
X1724Y6191D01*
X2276Y6191D01*
X2276Y6348D01*
X2472Y6348D02*
X2472Y6191D01*
X2630Y6191D01*
X2630Y6348D01*
X1370Y6348D02*
X1370Y6191D01*
X1528Y6191D01*
X1528Y6348D01*
X1055Y6388D02*
X2945Y6388D01*
X2787Y6703D02*
X1213Y6703D01*
X1213Y14797D01*
X1055Y15112D02*
X1055Y6388D01*
X2945Y6388D02*
X2945Y15112D01*
X2787Y14797D02*
X2787Y6703D01*
D17*
X1370Y14959D02*
X1370Y15077D01*
X1370Y14959D02*
X1370Y14841D01*
X1370Y14959D02*
X1488Y14841D01*
X1449Y14919D02*
X1488Y14959D01*
X1488Y15077D01*
X1488Y14959D02*
X1882Y14959D01*
X1882Y15077D01*
X1882Y14959D02*
X1921Y14919D01*
D18*
X1984Y15313D02*
X1724Y15313D01*
X1724Y15156D01*
X1528Y15156D02*
X1528Y15313D01*
X1370Y15313D01*
X1370Y15156D01*
X2630Y15156D02*
X2630Y15313D01*
X2445Y15313D01*
X1213Y14801D02*
X1213Y12707D01*
X1055Y12392D02*
X1055Y15116D01*
X2945Y15116D02*
X2945Y12392D01*
X2787Y12707D02*
X2787Y14801D01*
X2008Y14805D02*
X1209Y14805D01*
X2772Y14801D02*
X2791Y14793D01*
X2772Y14801D02*
X2421Y14801D01*
X2551Y15116D02*
X2941Y15116D01*
X1882Y15116D02*
X1051Y15116D01*
D17*
X1806Y5980D02*
X1499Y5520D01*
X1806Y5520D02*
X1499Y5980D01*
X1974Y5878D02*
X2102Y5980D01*
X2102Y5520D01*
X1974Y5520D02*
X2230Y5520D01*
D16*
X22045Y17640D02*
X22045Y18860D01*
X21455Y18860D01*
X21455Y17640D01*
X22045Y17640D01*
D17*
X21980Y16520D02*
X21520Y16520D01*
X21520Y16648D01*
X21522Y16669D01*
X21527Y16690D01*
X21535Y16709D01*
X21547Y16727D01*
X21561Y16742D01*
X21578Y16755D01*
X21597Y16765D01*
X21617Y16772D01*
X21637Y16776D01*
X21659Y16776D01*
X21679Y16772D01*
X21699Y16765D01*
X21718Y16755D01*
X21735Y16742D01*
X21749Y16727D01*
X21761Y16709D01*
X21769Y16690D01*
X21774Y16669D01*
X21776Y16648D01*
X21776Y16520D01*
X21776Y16673D02*
X21980Y16776D01*
X21635Y17223D02*
X21615Y17221D01*
X21596Y17216D01*
X21578Y17208D01*
X21561Y17196D01*
X21547Y17182D01*
X21535Y17166D01*
X21527Y17147D01*
X21522Y17128D01*
X21520Y17108D01*
X21522Y17085D01*
X21527Y17062D01*
X21536Y17041D01*
X21548Y17021D01*
X21563Y17003D01*
X21581Y16988D01*
X21601Y16976D01*
X21622Y16967D01*
X21725Y17185D02*
X21710Y17198D01*
X21693Y17209D01*
X21674Y17217D01*
X21655Y17221D01*
X21635Y17223D01*
X21724Y17184D02*
X21980Y16967D01*
X21980Y17223D01*
X21622Y17417D02*
X21520Y17545D01*
X21980Y17545D01*
X21980Y17417D02*
X21980Y17673D01*
D16*
X23545Y17640D02*
X23545Y18860D01*
X22955Y18860D01*
X22955Y17640D01*
X23545Y17640D01*
D17*
X23480Y16270D02*
X23020Y16270D01*
X23020Y16398D01*
X23022Y16419D01*
X23027Y16440D01*
X23035Y16459D01*
X23047Y16477D01*
X23061Y16492D01*
X23078Y16505D01*
X23097Y16515D01*
X23117Y16522D01*
X23137Y16526D01*
X23159Y16526D01*
X23179Y16522D01*
X23199Y16515D01*
X23218Y16505D01*
X23235Y16492D01*
X23249Y16477D01*
X23261Y16459D01*
X23269Y16440D01*
X23274Y16419D01*
X23276Y16398D01*
X23276Y16270D01*
X23276Y16423D02*
X23480Y16526D01*
X23135Y16973D02*
X23115Y16971D01*
X23096Y16966D01*
X23078Y16958D01*
X23061Y16946D01*
X23047Y16932D01*
X23035Y16916D01*
X23027Y16897D01*
X23022Y16878D01*
X23020Y16858D01*
X23022Y16835D01*
X23027Y16812D01*
X23036Y16791D01*
X23048Y16771D01*
X23063Y16753D01*
X23081Y16738D01*
X23101Y16726D01*
X23122Y16717D01*
X23225Y16935D02*
X23210Y16948D01*
X23193Y16959D01*
X23174Y16967D01*
X23155Y16971D01*
X23135Y16973D01*
X23224Y16934D02*
X23480Y16717D01*
X23480Y16973D01*
X23135Y17423D02*
X23115Y17421D01*
X23096Y17416D01*
X23078Y17408D01*
X23061Y17396D01*
X23047Y17382D01*
X23035Y17366D01*
X23027Y17347D01*
X23022Y17328D01*
X23020Y17308D01*
X23022Y17285D01*
X23027Y17262D01*
X23036Y17241D01*
X23048Y17221D01*
X23063Y17203D01*
X23081Y17188D01*
X23101Y17176D01*
X23122Y17167D01*
X23225Y17385D02*
X23210Y17398D01*
X23193Y17409D01*
X23174Y17417D01*
X23155Y17421D01*
X23135Y17423D01*
X23224Y17384D02*
X23480Y17167D01*
X23480Y17423D01*
D16*
X25045Y17640D02*
X25045Y18860D01*
X24455Y18860D01*
X24455Y17640D01*
X25045Y17640D01*
D17*
X24980Y16270D02*
X24520Y16270D01*
X24520Y16398D01*
X24522Y16419D01*
X24527Y16440D01*
X24535Y16459D01*
X24547Y16477D01*
X24561Y16492D01*
X24578Y16505D01*
X24597Y16515D01*
X24617Y16522D01*
X24637Y16526D01*
X24659Y16526D01*
X24679Y16522D01*
X24699Y16515D01*
X24718Y16505D01*
X24735Y16492D01*
X24749Y16477D01*
X24761Y16459D01*
X24769Y16440D01*
X24774Y16419D01*
X24776Y16398D01*
X24776Y16270D01*
X24776Y16423D02*
X24980Y16526D01*
X24635Y16973D02*
X24615Y16971D01*
X24596Y16966D01*
X24578Y16958D01*
X24561Y16946D01*
X24547Y16932D01*
X24535Y16916D01*
X24527Y16897D01*
X24522Y16878D01*
X24520Y16858D01*
X24522Y16835D01*
X24527Y16812D01*
X24536Y16791D01*
X24548Y16771D01*
X24563Y16753D01*
X24581Y16738D01*
X24601Y16726D01*
X24622Y16717D01*
X24725Y16935D02*
X24710Y16948D01*
X24693Y16959D01*
X24674Y16967D01*
X24655Y16971D01*
X24635Y16973D01*
X24724Y16934D02*
X24980Y16717D01*
X24980Y16973D01*
X24980Y17167D02*
X24980Y17295D01*
X24978Y17316D01*
X24973Y17337D01*
X24965Y17356D01*
X24953Y17374D01*
X24939Y17389D01*
X24922Y17402D01*
X24903Y17412D01*
X24883Y17419D01*
X24863Y17423D01*
X24841Y17423D01*
X24821Y17419D01*
X24801Y17412D01*
X24782Y17402D01*
X24765Y17389D01*
X24751Y17374D01*
X24739Y17356D01*
X24731Y17337D01*
X24726Y17316D01*
X24724Y17295D01*
X24520Y17320D02*
X24520Y17167D01*
X24520Y17320D02*
X24522Y17339D01*
X24527Y17357D01*
X24535Y17374D01*
X24547Y17389D01*
X24561Y17401D01*
X24577Y17411D01*
X24594Y17418D01*
X24613Y17422D01*
X24631Y17422D01*
X24650Y17418D01*
X24667Y17411D01*
X24683Y17401D01*
X24697Y17389D01*
X24709Y17374D01*
X24717Y17357D01*
X24722Y17339D01*
X24724Y17320D01*
X24724Y17218D01*
D16*
X20545Y17640D02*
X20545Y18860D01*
X19955Y18860D01*
X19955Y17640D01*
X20545Y17640D01*
D17*
X20480Y16327D02*
X20020Y16327D01*
X20020Y16455D01*
X20022Y16476D01*
X20027Y16497D01*
X20035Y16516D01*
X20047Y16534D01*
X20061Y16549D01*
X20078Y16562D01*
X20097Y16572D01*
X20117Y16579D01*
X20137Y16583D01*
X20159Y16583D01*
X20179Y16579D01*
X20199Y16572D01*
X20218Y16562D01*
X20235Y16549D01*
X20249Y16534D01*
X20261Y16516D01*
X20269Y16497D01*
X20274Y16476D01*
X20276Y16455D01*
X20276Y16327D01*
X20276Y16481D02*
X20480Y16583D01*
X20135Y17030D02*
X20115Y17028D01*
X20096Y17023D01*
X20078Y17015D01*
X20061Y17003D01*
X20047Y16989D01*
X20035Y16973D01*
X20027Y16954D01*
X20022Y16935D01*
X20020Y16915D01*
X20022Y16892D01*
X20027Y16869D01*
X20036Y16848D01*
X20048Y16828D01*
X20063Y16810D01*
X20081Y16795D01*
X20101Y16783D01*
X20122Y16774D01*
X20225Y16992D02*
X20210Y17005D01*
X20193Y17016D01*
X20174Y17024D01*
X20155Y17028D01*
X20135Y17030D01*
X20224Y16992D02*
X20480Y16774D01*
X20480Y17030D01*
X20378Y17224D02*
X20020Y17327D01*
X20378Y17224D02*
X20378Y17480D01*
X20276Y17403D02*
X20480Y17403D01*
D19*
X32565Y23343D02*
X32565Y23657D01*
X31935Y23657D02*
X31935Y23343D01*
D17*
X32020Y24520D02*
X32480Y24520D01*
X32020Y24520D02*
X32020Y24648D01*
X32022Y24669D01*
X32027Y24690D01*
X32035Y24709D01*
X32047Y24727D01*
X32061Y24742D01*
X32078Y24755D01*
X32097Y24765D01*
X32117Y24772D01*
X32137Y24776D01*
X32159Y24776D01*
X32179Y24772D01*
X32199Y24765D01*
X32218Y24755D01*
X32235Y24742D01*
X32249Y24727D01*
X32261Y24709D01*
X32269Y24690D01*
X32274Y24669D01*
X32276Y24648D01*
X32276Y24520D01*
X32276Y24673D02*
X32480Y24776D01*
X32135Y25223D02*
X32115Y25221D01*
X32096Y25216D01*
X32078Y25208D01*
X32061Y25196D01*
X32047Y25182D01*
X32035Y25166D01*
X32027Y25147D01*
X32022Y25128D01*
X32020Y25108D01*
X32022Y25085D01*
X32027Y25062D01*
X32036Y25041D01*
X32048Y25021D01*
X32063Y25003D01*
X32081Y24988D01*
X32101Y24976D01*
X32122Y24967D01*
X32225Y25185D02*
X32210Y25198D01*
X32193Y25209D01*
X32174Y25217D01*
X32155Y25221D01*
X32135Y25223D01*
X32224Y25184D02*
X32480Y24967D01*
X32480Y25223D01*
X32480Y25417D02*
X32480Y25570D01*
X32478Y25588D01*
X32474Y25605D01*
X32466Y25621D01*
X32456Y25636D01*
X32444Y25648D01*
X32429Y25658D01*
X32413Y25666D01*
X32396Y25670D01*
X32378Y25672D01*
X32378Y25673D02*
X32327Y25673D01*
X32327Y25672D02*
X32309Y25670D01*
X32292Y25666D01*
X32276Y25658D01*
X32261Y25648D01*
X32249Y25636D01*
X32239Y25621D01*
X32231Y25605D01*
X32227Y25588D01*
X32225Y25570D01*
X32224Y25570D02*
X32224Y25417D01*
X32020Y25417D01*
X32020Y25673D01*
D19*
X33565Y23657D02*
X33565Y23343D01*
X32935Y23343D02*
X32935Y23657D01*
D17*
X33020Y24520D02*
X33480Y24520D01*
X33020Y24520D02*
X33020Y24648D01*
X33022Y24669D01*
X33027Y24690D01*
X33035Y24709D01*
X33047Y24727D01*
X33061Y24742D01*
X33078Y24755D01*
X33097Y24765D01*
X33117Y24772D01*
X33137Y24776D01*
X33159Y24776D01*
X33179Y24772D01*
X33199Y24765D01*
X33218Y24755D01*
X33235Y24742D01*
X33249Y24727D01*
X33261Y24709D01*
X33269Y24690D01*
X33274Y24669D01*
X33276Y24648D01*
X33276Y24520D01*
X33276Y24673D02*
X33480Y24776D01*
X33135Y25223D02*
X33115Y25221D01*
X33096Y25216D01*
X33078Y25208D01*
X33061Y25196D01*
X33047Y25182D01*
X33035Y25166D01*
X33027Y25147D01*
X33022Y25128D01*
X33020Y25108D01*
X33022Y25085D01*
X33027Y25062D01*
X33036Y25041D01*
X33048Y25021D01*
X33063Y25003D01*
X33081Y24988D01*
X33101Y24976D01*
X33122Y24967D01*
X33225Y25185D02*
X33210Y25198D01*
X33193Y25209D01*
X33174Y25217D01*
X33155Y25221D01*
X33135Y25223D01*
X33224Y25184D02*
X33480Y24967D01*
X33480Y25223D01*
X33224Y25417D02*
X33224Y25570D01*
X33225Y25570D02*
X33227Y25588D01*
X33231Y25605D01*
X33239Y25621D01*
X33249Y25636D01*
X33261Y25648D01*
X33276Y25658D01*
X33292Y25666D01*
X33309Y25670D01*
X33327Y25672D01*
X33327Y25673D02*
X33352Y25673D01*
X33373Y25671D01*
X33394Y25666D01*
X33413Y25658D01*
X33431Y25646D01*
X33446Y25632D01*
X33459Y25615D01*
X33469Y25596D01*
X33476Y25576D01*
X33480Y25556D01*
X33480Y25534D01*
X33476Y25514D01*
X33469Y25494D01*
X33459Y25475D01*
X33446Y25458D01*
X33431Y25444D01*
X33413Y25432D01*
X33394Y25424D01*
X33373Y25419D01*
X33352Y25417D01*
X33224Y25417D01*
X33224Y25418D02*
X33197Y25420D01*
X33171Y25425D01*
X33146Y25434D01*
X33122Y25445D01*
X33100Y25460D01*
X33080Y25478D01*
X33062Y25498D01*
X33047Y25520D01*
X33036Y25544D01*
X33027Y25569D01*
X33022Y25595D01*
X33020Y25622D01*
D19*
X34565Y23657D02*
X34565Y23343D01*
X33935Y23343D02*
X33935Y23657D01*
D17*
X34020Y24520D02*
X34480Y24520D01*
X34020Y24520D02*
X34020Y24648D01*
X34022Y24669D01*
X34027Y24690D01*
X34035Y24709D01*
X34047Y24727D01*
X34061Y24742D01*
X34078Y24755D01*
X34097Y24765D01*
X34117Y24772D01*
X34137Y24776D01*
X34159Y24776D01*
X34179Y24772D01*
X34199Y24765D01*
X34218Y24755D01*
X34235Y24742D01*
X34249Y24727D01*
X34261Y24709D01*
X34269Y24690D01*
X34274Y24669D01*
X34276Y24648D01*
X34276Y24520D01*
X34276Y24673D02*
X34480Y24776D01*
X34135Y25223D02*
X34115Y25221D01*
X34096Y25216D01*
X34078Y25208D01*
X34061Y25196D01*
X34047Y25182D01*
X34035Y25166D01*
X34027Y25147D01*
X34022Y25128D01*
X34020Y25108D01*
X34022Y25085D01*
X34027Y25062D01*
X34036Y25041D01*
X34048Y25021D01*
X34063Y25003D01*
X34081Y24988D01*
X34101Y24976D01*
X34122Y24967D01*
X34225Y25185D02*
X34210Y25198D01*
X34193Y25209D01*
X34174Y25217D01*
X34155Y25221D01*
X34135Y25223D01*
X34224Y25184D02*
X34480Y24967D01*
X34480Y25223D01*
X34071Y25417D02*
X34020Y25417D01*
X34020Y25673D01*
X34480Y25545D01*
D19*
X35565Y23657D02*
X35565Y23343D01*
X34935Y23343D02*
X34935Y23657D01*
D17*
X35020Y24577D02*
X35480Y24577D01*
X35020Y24577D02*
X35020Y24705D01*
X35022Y24726D01*
X35027Y24747D01*
X35035Y24766D01*
X35047Y24784D01*
X35061Y24799D01*
X35078Y24812D01*
X35097Y24822D01*
X35117Y24829D01*
X35137Y24833D01*
X35159Y24833D01*
X35179Y24829D01*
X35199Y24822D01*
X35218Y24812D01*
X35235Y24799D01*
X35249Y24784D01*
X35261Y24766D01*
X35269Y24747D01*
X35274Y24726D01*
X35276Y24705D01*
X35276Y24577D01*
X35276Y24731D02*
X35480Y24833D01*
X35135Y25280D02*
X35115Y25278D01*
X35096Y25273D01*
X35078Y25265D01*
X35061Y25253D01*
X35047Y25239D01*
X35035Y25223D01*
X35027Y25204D01*
X35022Y25185D01*
X35020Y25165D01*
X35022Y25142D01*
X35027Y25119D01*
X35036Y25098D01*
X35048Y25078D01*
X35063Y25060D01*
X35081Y25045D01*
X35101Y25033D01*
X35122Y25024D01*
X35225Y25242D02*
X35210Y25255D01*
X35193Y25266D01*
X35174Y25274D01*
X35155Y25278D01*
X35135Y25280D01*
X35224Y25242D02*
X35480Y25024D01*
X35480Y25280D01*
X35352Y25474D02*
X35331Y25476D01*
X35310Y25481D01*
X35291Y25489D01*
X35273Y25501D01*
X35258Y25515D01*
X35245Y25532D01*
X35235Y25551D01*
X35228Y25571D01*
X35224Y25591D01*
X35224Y25613D01*
X35228Y25633D01*
X35235Y25653D01*
X35245Y25672D01*
X35258Y25689D01*
X35273Y25703D01*
X35291Y25715D01*
X35310Y25723D01*
X35331Y25728D01*
X35352Y25730D01*
X35373Y25728D01*
X35394Y25723D01*
X35413Y25715D01*
X35431Y25703D01*
X35446Y25689D01*
X35459Y25672D01*
X35469Y25653D01*
X35476Y25633D01*
X35480Y25613D01*
X35480Y25591D01*
X35476Y25571D01*
X35469Y25551D01*
X35459Y25532D01*
X35446Y25515D01*
X35431Y25501D01*
X35413Y25489D01*
X35394Y25481D01*
X35373Y25476D01*
X35352Y25474D01*
X35122Y25500D02*
X35103Y25502D01*
X35085Y25507D01*
X35068Y25515D01*
X35053Y25527D01*
X35041Y25541D01*
X35031Y25557D01*
X35024Y25574D01*
X35020Y25593D01*
X35020Y25611D01*
X35024Y25630D01*
X35031Y25647D01*
X35041Y25663D01*
X35053Y25677D01*
X35068Y25689D01*
X35085Y25697D01*
X35103Y25702D01*
X35122Y25704D01*
X35141Y25702D01*
X35159Y25697D01*
X35176Y25689D01*
X35191Y25677D01*
X35203Y25663D01*
X35213Y25647D01*
X35220Y25630D01*
X35224Y25611D01*
X35224Y25593D01*
X35220Y25574D01*
X35213Y25557D01*
X35203Y25541D01*
X35191Y25527D01*
X35176Y25515D01*
X35159Y25507D01*
X35141Y25502D01*
X35122Y25500D01*
D19*
X36565Y23657D02*
X36565Y23343D01*
X35935Y23343D02*
X35935Y23657D01*
D17*
X36020Y24520D02*
X36480Y24520D01*
X36020Y24520D02*
X36020Y24648D01*
X36022Y24669D01*
X36027Y24690D01*
X36035Y24709D01*
X36047Y24727D01*
X36061Y24742D01*
X36078Y24755D01*
X36097Y24765D01*
X36117Y24772D01*
X36137Y24776D01*
X36159Y24776D01*
X36179Y24772D01*
X36199Y24765D01*
X36218Y24755D01*
X36235Y24742D01*
X36249Y24727D01*
X36261Y24709D01*
X36269Y24690D01*
X36274Y24669D01*
X36276Y24648D01*
X36276Y24520D01*
X36276Y24673D02*
X36480Y24776D01*
X36135Y25223D02*
X36115Y25221D01*
X36096Y25216D01*
X36078Y25208D01*
X36061Y25196D01*
X36047Y25182D01*
X36035Y25166D01*
X36027Y25147D01*
X36022Y25128D01*
X36020Y25108D01*
X36022Y25085D01*
X36027Y25062D01*
X36036Y25041D01*
X36048Y25021D01*
X36063Y25003D01*
X36081Y24988D01*
X36101Y24976D01*
X36122Y24967D01*
X36225Y25185D02*
X36210Y25198D01*
X36193Y25209D01*
X36174Y25217D01*
X36155Y25221D01*
X36135Y25223D01*
X36224Y25184D02*
X36480Y24967D01*
X36480Y25223D01*
X36276Y25519D02*
X36276Y25673D01*
X36275Y25519D02*
X36273Y25501D01*
X36269Y25484D01*
X36261Y25468D01*
X36251Y25453D01*
X36239Y25441D01*
X36224Y25431D01*
X36208Y25423D01*
X36191Y25419D01*
X36173Y25417D01*
X36148Y25417D01*
X36127Y25419D01*
X36106Y25424D01*
X36087Y25432D01*
X36069Y25444D01*
X36054Y25458D01*
X36041Y25475D01*
X36031Y25494D01*
X36024Y25514D01*
X36020Y25534D01*
X36020Y25556D01*
X36024Y25576D01*
X36031Y25596D01*
X36041Y25615D01*
X36054Y25632D01*
X36069Y25646D01*
X36087Y25658D01*
X36106Y25666D01*
X36127Y25671D01*
X36148Y25673D01*
X36276Y25673D01*
X36276Y25672D02*
X36303Y25670D01*
X36329Y25665D01*
X36354Y25656D01*
X36378Y25645D01*
X36400Y25630D01*
X36420Y25612D01*
X36438Y25592D01*
X36453Y25570D01*
X36464Y25546D01*
X36473Y25521D01*
X36478Y25495D01*
X36480Y25468D01*
D19*
X30565Y23657D02*
X30565Y23343D01*
X29935Y23343D02*
X29935Y23657D01*
D17*
X30020Y24577D02*
X30480Y24577D01*
X30020Y24577D02*
X30020Y24705D01*
X30022Y24726D01*
X30027Y24747D01*
X30035Y24766D01*
X30047Y24784D01*
X30061Y24799D01*
X30078Y24812D01*
X30097Y24822D01*
X30117Y24829D01*
X30137Y24833D01*
X30159Y24833D01*
X30179Y24829D01*
X30199Y24822D01*
X30218Y24812D01*
X30235Y24799D01*
X30249Y24784D01*
X30261Y24766D01*
X30269Y24747D01*
X30274Y24726D01*
X30276Y24705D01*
X30276Y24577D01*
X30276Y24731D02*
X30480Y24833D01*
X30480Y25024D02*
X30480Y25152D01*
X30478Y25173D01*
X30473Y25194D01*
X30465Y25213D01*
X30453Y25231D01*
X30439Y25246D01*
X30422Y25259D01*
X30403Y25269D01*
X30383Y25276D01*
X30363Y25280D01*
X30341Y25280D01*
X30321Y25276D01*
X30301Y25269D01*
X30282Y25259D01*
X30265Y25246D01*
X30251Y25231D01*
X30239Y25213D01*
X30231Y25194D01*
X30226Y25173D01*
X30224Y25152D01*
X30020Y25178D02*
X30020Y25024D01*
X30020Y25178D02*
X30022Y25197D01*
X30027Y25215D01*
X30035Y25232D01*
X30047Y25247D01*
X30061Y25259D01*
X30077Y25269D01*
X30094Y25276D01*
X30113Y25280D01*
X30131Y25280D01*
X30150Y25276D01*
X30167Y25269D01*
X30183Y25259D01*
X30197Y25247D01*
X30209Y25232D01*
X30217Y25215D01*
X30222Y25197D01*
X30224Y25178D01*
X30224Y25076D01*
X30250Y25475D02*
X30216Y25477D01*
X30182Y25481D01*
X30148Y25489D01*
X30115Y25500D01*
X30084Y25513D01*
X30084Y25512D02*
X30069Y25519D01*
X30055Y25528D01*
X30043Y25540D01*
X30033Y25554D01*
X30026Y25569D01*
X30021Y25585D01*
X30020Y25602D01*
X30021Y25619D01*
X30026Y25635D01*
X30033Y25650D01*
X30043Y25664D01*
X30055Y25676D01*
X30069Y25685D01*
X30084Y25692D01*
X30115Y25705D01*
X30148Y25716D01*
X30182Y25724D01*
X30216Y25728D01*
X30250Y25730D01*
X30250Y25475D02*
X30284Y25477D01*
X30318Y25481D01*
X30352Y25489D01*
X30385Y25500D01*
X30416Y25513D01*
X30416Y25512D02*
X30431Y25519D01*
X30445Y25528D01*
X30457Y25540D01*
X30467Y25554D01*
X30474Y25569D01*
X30479Y25585D01*
X30480Y25602D01*
X30416Y25692D02*
X30385Y25705D01*
X30352Y25716D01*
X30318Y25724D01*
X30284Y25728D01*
X30250Y25730D01*
X30416Y25692D02*
X30431Y25685D01*
X30445Y25676D01*
X30457Y25664D01*
X30467Y25650D01*
X30474Y25635D01*
X30479Y25619D01*
X30480Y25602D01*
X30378Y25500D02*
X30122Y25704D01*
D19*
X31565Y23657D02*
X31565Y23343D01*
X30935Y23343D02*
X30935Y23657D01*
D17*
X31020Y24577D02*
X31480Y24577D01*
X31020Y24577D02*
X31020Y24705D01*
X31022Y24726D01*
X31027Y24747D01*
X31035Y24766D01*
X31047Y24784D01*
X31061Y24799D01*
X31078Y24812D01*
X31097Y24822D01*
X31117Y24829D01*
X31137Y24833D01*
X31159Y24833D01*
X31179Y24829D01*
X31199Y24822D01*
X31218Y24812D01*
X31235Y24799D01*
X31249Y24784D01*
X31261Y24766D01*
X31269Y24747D01*
X31274Y24726D01*
X31276Y24705D01*
X31276Y24577D01*
X31276Y24731D02*
X31480Y24833D01*
X31480Y25024D02*
X31480Y25152D01*
X31478Y25173D01*
X31473Y25194D01*
X31465Y25213D01*
X31453Y25231D01*
X31439Y25246D01*
X31422Y25259D01*
X31403Y25269D01*
X31383Y25276D01*
X31363Y25280D01*
X31341Y25280D01*
X31321Y25276D01*
X31301Y25269D01*
X31282Y25259D01*
X31265Y25246D01*
X31251Y25231D01*
X31239Y25213D01*
X31231Y25194D01*
X31226Y25173D01*
X31224Y25152D01*
X31020Y25178D02*
X31020Y25024D01*
X31020Y25178D02*
X31022Y25197D01*
X31027Y25215D01*
X31035Y25232D01*
X31047Y25247D01*
X31061Y25259D01*
X31077Y25269D01*
X31094Y25276D01*
X31113Y25280D01*
X31131Y25280D01*
X31150Y25276D01*
X31167Y25269D01*
X31183Y25259D01*
X31197Y25247D01*
X31209Y25232D01*
X31217Y25215D01*
X31222Y25197D01*
X31224Y25178D01*
X31224Y25076D01*
X31122Y25474D02*
X31020Y25602D01*
X31480Y25602D01*
X31480Y25474D02*
X31480Y25730D01*
M02*
