G04 EAGLE Gerber RS-274X export*
G75*
%MOIN*%
%FSLAX34Y34*%
%LPD*%
%INSolderpaste Top*%
%IPPOS*%
%AMOC8*
5,1,8,0,0,1.08239X$1,22.5*%
G01*
%ADD10R,0.039370X0.039370*%
%ADD11R,0.039370X0.055118*%
%ADD12R,0.051181X0.070866*%
%ADD13C,0.039370*%
%ADD14R,0.070866X0.051181*%


D10*
X38000Y20435D03*
X38000Y21065D03*
X39500Y20435D03*
X39500Y21065D03*
X39500Y18935D03*
X39500Y19565D03*
X38750Y20435D03*
X38750Y21065D03*
X38750Y18935D03*
X38750Y19565D03*
D11*
X21000Y18817D03*
X20626Y19683D03*
X21374Y19683D03*
X25500Y18817D03*
X25126Y19683D03*
X25874Y19683D03*
X24000Y18817D03*
X23626Y19683D03*
X24374Y19683D03*
X22500Y18817D03*
X22126Y19683D03*
X22874Y19683D03*
D10*
X12815Y17500D03*
X12185Y17500D03*
X12815Y16750D03*
X12185Y16750D03*
X12815Y22000D03*
X12185Y22000D03*
X12815Y21250D03*
X12185Y21250D03*
X12815Y20500D03*
X12185Y20500D03*
X12815Y19750D03*
X12185Y19750D03*
X12815Y19000D03*
X12185Y19000D03*
X12815Y18250D03*
X12185Y18250D03*
X4815Y5750D03*
X4185Y5750D03*
X4815Y8750D03*
X4185Y8750D03*
X4815Y7750D03*
X4185Y7750D03*
X4815Y6750D03*
X4185Y6750D03*
X20000Y25315D03*
X20000Y24685D03*
X27500Y21565D03*
X27500Y20935D03*
X24500Y25315D03*
X24500Y24685D03*
X28750Y25315D03*
X28750Y24685D03*
D12*
X28429Y8250D03*
X29571Y8250D03*
X28429Y14250D03*
X29571Y14250D03*
X12429Y8500D03*
X13571Y8500D03*
X12429Y14250D03*
X13571Y14250D03*
X44179Y14250D03*
X45321Y14250D03*
X44179Y8250D03*
X45321Y8250D03*
X44179Y2500D03*
X45321Y2500D03*
D10*
X45500Y15935D03*
X45500Y16565D03*
X26750Y21565D03*
X26750Y20935D03*
D13*
X750Y750D03*
X48750Y31250D03*
X4750Y30750D03*
D10*
X4185Y17250D03*
X4815Y17250D03*
X4185Y16250D03*
X4815Y16250D03*
X4185Y15250D03*
X4815Y15250D03*
X4185Y14250D03*
X4815Y14250D03*
X4185Y13000D03*
X4815Y13000D03*
X4185Y12000D03*
X4815Y12000D03*
X4185Y11000D03*
X4815Y11000D03*
X4185Y9750D03*
X4815Y9750D03*
X28250Y21565D03*
X28250Y20935D03*
X21750Y17935D03*
X21750Y18565D03*
X23250Y17935D03*
X23250Y18565D03*
X24750Y17935D03*
X24750Y18565D03*
X20250Y17935D03*
X20250Y18565D03*
D14*
X32250Y24071D03*
X32250Y22929D03*
X33250Y24071D03*
X33250Y22929D03*
X34250Y24071D03*
X34250Y22929D03*
X35250Y24071D03*
X35250Y22929D03*
X36250Y24071D03*
X36250Y22929D03*
X30250Y24071D03*
X30250Y22929D03*
X31250Y24071D03*
X31250Y22929D03*
M02*
