G75*
%MOIN*%
%OFA0B0*%
%FSLAX25Y25*%
%IPPOS*%
%LPD*%
%AMOC8*
5,1,8,0,0,1.08239X$1,22.5*
%
%ADD10C,0.07874*%
%ADD11C,0.04000*%
%ADD12C,0.02978*%
%ADD13C,0.00039*%
D10*
X0021492Y0012274D02*
X0021492Y0020148D01*
X0036492Y0020148D02*
X0036492Y0012274D01*
D11*
X0036492Y0016211D02*
X0036453Y0016250D01*
X0036453Y0027234D01*
D12*
X0036453Y0027234D03*
X0050626Y0052431D03*
X0007713Y0018967D03*
D13*
X0001020Y0001250D02*
X0056138Y0001250D01*
X0001020Y0001250D01*
X0001020Y0072116D01*
X0056138Y0072116D01*
X0056138Y0001250D01*
X0056138Y0001288D02*
X0001020Y0001288D01*
X0001020Y0001326D02*
X0056138Y0001326D01*
X0056138Y0001364D02*
X0001020Y0001364D01*
X0001020Y0001402D02*
X0056138Y0001402D01*
X0056138Y0001439D02*
X0001020Y0001439D01*
X0001020Y0001477D02*
X0056138Y0001477D01*
X0056138Y0001515D02*
X0001020Y0001515D01*
X0001020Y0001553D02*
X0056138Y0001553D01*
X0056138Y0001591D02*
X0001020Y0001591D01*
X0001020Y0001629D02*
X0056138Y0001629D01*
X0056138Y0001667D02*
X0001020Y0001667D01*
X0001020Y0001705D02*
X0056138Y0001705D01*
X0056138Y0001742D02*
X0001020Y0001742D01*
X0001020Y0001780D02*
X0056138Y0001780D01*
X0056138Y0001818D02*
X0001020Y0001818D01*
X0001020Y0001856D02*
X0056138Y0001856D01*
X0056138Y0001894D02*
X0001020Y0001894D01*
X0001020Y0001932D02*
X0056138Y0001932D01*
X0056138Y0001970D02*
X0001020Y0001970D01*
X0001020Y0002008D02*
X0056138Y0002008D01*
X0056138Y0002046D02*
X0001020Y0002046D01*
X0001020Y0002083D02*
X0056138Y0002083D01*
X0056138Y0002121D02*
X0001020Y0002121D01*
X0001020Y0002159D02*
X0056138Y0002159D01*
X0056138Y0002197D02*
X0001020Y0002197D01*
X0001020Y0002235D02*
X0056138Y0002235D01*
X0056138Y0002273D02*
X0001020Y0002273D01*
X0001020Y0002311D02*
X0056138Y0002311D01*
X0056138Y0002349D02*
X0001020Y0002349D01*
X0001020Y0002386D02*
X0056138Y0002386D01*
X0056138Y0002424D02*
X0001020Y0002424D01*
X0001020Y0002462D02*
X0056138Y0002462D01*
X0056138Y0002500D02*
X0001020Y0002500D01*
X0001020Y0002538D02*
X0056138Y0002538D01*
X0056138Y0002576D02*
X0001020Y0002576D01*
X0001020Y0002614D02*
X0056138Y0002614D01*
X0056138Y0002652D02*
X0001020Y0002652D01*
X0001020Y0002689D02*
X0056138Y0002689D01*
X0056138Y0002727D02*
X0001020Y0002727D01*
X0001020Y0002765D02*
X0056138Y0002765D01*
X0056138Y0002803D02*
X0001020Y0002803D01*
X0001020Y0002841D02*
X0056138Y0002841D01*
X0056138Y0002879D02*
X0001020Y0002879D01*
X0001020Y0002917D02*
X0056138Y0002917D01*
X0056138Y0002955D02*
X0001020Y0002955D01*
X0001020Y0002993D02*
X0056138Y0002993D01*
X0056138Y0003030D02*
X0001020Y0003030D01*
X0001020Y0003068D02*
X0056138Y0003068D01*
X0056138Y0003106D02*
X0001020Y0003106D01*
X0001020Y0003144D02*
X0056138Y0003144D01*
X0056138Y0003182D02*
X0001020Y0003182D01*
X0001020Y0003220D02*
X0056138Y0003220D01*
X0056138Y0003258D02*
X0001020Y0003258D01*
X0001020Y0003296D02*
X0056138Y0003296D01*
X0056138Y0003333D02*
X0001020Y0003333D01*
X0001020Y0003371D02*
X0056138Y0003371D01*
X0056138Y0003409D02*
X0001020Y0003409D01*
X0001020Y0003447D02*
X0056138Y0003447D01*
X0056138Y0003485D02*
X0001020Y0003485D01*
X0001020Y0003523D02*
X0056138Y0003523D01*
X0056138Y0003561D02*
X0001020Y0003561D01*
X0001020Y0003599D02*
X0056138Y0003599D01*
X0056138Y0003637D02*
X0001020Y0003637D01*
X0001020Y0003674D02*
X0056138Y0003674D01*
X0056138Y0003712D02*
X0001020Y0003712D01*
X0001020Y0003750D02*
X0056138Y0003750D01*
X0056138Y0003788D02*
X0001020Y0003788D01*
X0001020Y0003826D02*
X0056138Y0003826D01*
X0056138Y0003864D02*
X0001020Y0003864D01*
X0001020Y0003902D02*
X0056138Y0003902D01*
X0056138Y0003940D02*
X0001020Y0003940D01*
X0001020Y0003977D02*
X0056138Y0003977D01*
X0056138Y0004015D02*
X0001020Y0004015D01*
X0001020Y0004053D02*
X0056138Y0004053D01*
X0056138Y0004091D02*
X0001020Y0004091D01*
X0001020Y0004129D02*
X0056138Y0004129D01*
X0056138Y0004167D02*
X0001020Y0004167D01*
X0001020Y0004205D02*
X0056138Y0004205D01*
X0056138Y0004243D02*
X0001020Y0004243D01*
X0001020Y0004281D02*
X0056138Y0004281D01*
X0056138Y0004318D02*
X0001020Y0004318D01*
X0001020Y0004356D02*
X0056138Y0004356D01*
X0056138Y0004394D02*
X0001020Y0004394D01*
X0001020Y0004432D02*
X0056138Y0004432D01*
X0056138Y0004470D02*
X0001020Y0004470D01*
X0001020Y0004508D02*
X0056138Y0004508D01*
X0056138Y0004546D02*
X0001020Y0004546D01*
X0001020Y0004584D02*
X0056138Y0004584D01*
X0056138Y0004621D02*
X0001020Y0004621D01*
X0001020Y0004659D02*
X0056138Y0004659D01*
X0056138Y0004697D02*
X0001020Y0004697D01*
X0001020Y0004735D02*
X0056138Y0004735D01*
X0056138Y0004773D02*
X0001020Y0004773D01*
X0001020Y0004811D02*
X0056138Y0004811D01*
X0056138Y0004849D02*
X0001020Y0004849D01*
X0001020Y0004887D02*
X0056138Y0004887D01*
X0056138Y0004924D02*
X0001020Y0004924D01*
X0001020Y0004962D02*
X0056138Y0004962D01*
X0056138Y0005000D02*
X0001020Y0005000D01*
X0001020Y0005038D02*
X0056138Y0005038D01*
X0056138Y0005076D02*
X0001020Y0005076D01*
X0001020Y0005114D02*
X0056138Y0005114D01*
X0056138Y0005152D02*
X0001020Y0005152D01*
X0001020Y0005190D02*
X0056138Y0005190D01*
X0056138Y0005228D02*
X0001020Y0005228D01*
X0001020Y0005265D02*
X0056138Y0005265D01*
X0056138Y0005303D02*
X0001020Y0005303D01*
X0001020Y0005341D02*
X0056138Y0005341D01*
X0056138Y0005379D02*
X0001020Y0005379D01*
X0001020Y0005417D02*
X0056138Y0005417D01*
X0056138Y0005455D02*
X0001020Y0005455D01*
X0001020Y0005493D02*
X0056138Y0005493D01*
X0056138Y0005531D02*
X0001020Y0005531D01*
X0001020Y0005568D02*
X0056138Y0005568D01*
X0056138Y0005606D02*
X0001020Y0005606D01*
X0001020Y0005644D02*
X0056138Y0005644D01*
X0056138Y0005682D02*
X0001020Y0005682D01*
X0001020Y0005720D02*
X0056138Y0005720D01*
X0056138Y0005758D02*
X0001020Y0005758D01*
X0001020Y0005796D02*
X0056138Y0005796D01*
X0056138Y0005834D02*
X0001020Y0005834D01*
X0001020Y0005872D02*
X0056138Y0005872D01*
X0056138Y0005909D02*
X0001020Y0005909D01*
X0001020Y0005947D02*
X0056138Y0005947D01*
X0056138Y0005985D02*
X0001020Y0005985D01*
X0001020Y0006023D02*
X0056138Y0006023D01*
X0056138Y0006061D02*
X0001020Y0006061D01*
X0001020Y0006099D02*
X0056138Y0006099D01*
X0056138Y0006137D02*
X0001020Y0006137D01*
X0001020Y0006175D02*
X0056138Y0006175D01*
X0056138Y0006212D02*
X0001020Y0006212D01*
X0001020Y0006250D02*
X0056138Y0006250D01*
X0056138Y0006288D02*
X0001020Y0006288D01*
X0001020Y0006326D02*
X0056138Y0006326D01*
X0056138Y0006364D02*
X0001020Y0006364D01*
X0001020Y0006402D02*
X0056138Y0006402D01*
X0056138Y0006440D02*
X0001020Y0006440D01*
X0001020Y0006478D02*
X0056138Y0006478D01*
X0056138Y0006516D02*
X0001020Y0006516D01*
X0001020Y0006553D02*
X0056138Y0006553D01*
X0056138Y0006591D02*
X0001020Y0006591D01*
X0001020Y0006629D02*
X0056138Y0006629D01*
X0056138Y0006667D02*
X0001020Y0006667D01*
X0001020Y0006705D02*
X0056138Y0006705D01*
X0056138Y0006743D02*
X0001020Y0006743D01*
X0001020Y0006781D02*
X0056138Y0006781D01*
X0056138Y0006819D02*
X0001020Y0006819D01*
X0001020Y0006856D02*
X0056138Y0006856D01*
X0056138Y0006894D02*
X0001020Y0006894D01*
X0001020Y0006932D02*
X0056138Y0006932D01*
X0056138Y0006970D02*
X0001020Y0006970D01*
X0001020Y0007008D02*
X0056138Y0007008D01*
X0056138Y0007046D02*
X0001020Y0007046D01*
X0001020Y0007084D02*
X0056138Y0007084D01*
X0056138Y0007122D02*
X0001020Y0007122D01*
X0001020Y0007159D02*
X0056138Y0007159D01*
X0056138Y0007197D02*
X0001020Y0007197D01*
X0001020Y0007235D02*
X0056138Y0007235D01*
X0056138Y0007273D02*
X0001020Y0007273D01*
X0001020Y0007311D02*
X0056138Y0007311D01*
X0056138Y0007349D02*
X0001020Y0007349D01*
X0001020Y0007387D02*
X0056138Y0007387D01*
X0056138Y0007425D02*
X0001020Y0007425D01*
X0001020Y0007463D02*
X0056138Y0007463D01*
X0056138Y0007500D02*
X0001020Y0007500D01*
X0001020Y0007538D02*
X0056138Y0007538D01*
X0056138Y0007576D02*
X0001020Y0007576D01*
X0001020Y0007614D02*
X0056138Y0007614D01*
X0056138Y0007652D02*
X0001020Y0007652D01*
X0001020Y0007690D02*
X0056138Y0007690D01*
X0056138Y0007728D02*
X0037425Y0007728D01*
X0037399Y0007717D02*
X0039073Y0008411D01*
X0040355Y0009692D01*
X0041049Y0011367D01*
X0041049Y0021054D01*
X0040355Y0022729D01*
X0039073Y0024011D01*
X0039072Y0024011D01*
X0039072Y0027755D01*
X0038674Y0028718D01*
X0037937Y0029455D01*
X0036974Y0029854D01*
X0035932Y0029854D01*
X0034969Y0029455D01*
X0034232Y0028718D01*
X0033833Y0027755D01*
X0033833Y0023933D01*
X0032629Y0022729D01*
X0031935Y0021054D01*
X0031935Y0011367D01*
X0032629Y0009692D01*
X0033911Y0008411D01*
X0035586Y0007717D01*
X0037399Y0007717D01*
X0037516Y0007766D02*
X0056138Y0007766D01*
X0056138Y0007803D02*
X0037607Y0007803D01*
X0037699Y0007841D02*
X0056138Y0007841D01*
X0056138Y0007879D02*
X0037790Y0007879D01*
X0037882Y0007917D02*
X0056138Y0007917D01*
X0056138Y0007955D02*
X0037973Y0007955D01*
X0038065Y0007993D02*
X0056138Y0007993D01*
X0056138Y0008031D02*
X0038156Y0008031D01*
X0038248Y0008069D02*
X0056138Y0008069D01*
X0056138Y0008107D02*
X0038339Y0008107D01*
X0038431Y0008144D02*
X0056138Y0008144D01*
X0056138Y0008182D02*
X0038522Y0008182D01*
X0038613Y0008220D02*
X0056138Y0008220D01*
X0056138Y0008258D02*
X0038705Y0008258D01*
X0038796Y0008296D02*
X0056138Y0008296D01*
X0056138Y0008334D02*
X0038888Y0008334D01*
X0038979Y0008372D02*
X0056138Y0008372D01*
X0056138Y0008410D02*
X0039071Y0008410D01*
X0039110Y0008447D02*
X0056138Y0008447D01*
X0056138Y0008485D02*
X0039148Y0008485D01*
X0039186Y0008523D02*
X0056138Y0008523D01*
X0056138Y0008561D02*
X0039224Y0008561D01*
X0039262Y0008599D02*
X0056138Y0008599D01*
X0056138Y0008637D02*
X0039300Y0008637D01*
X0039337Y0008675D02*
X0056138Y0008675D01*
X0056138Y0008713D02*
X0039375Y0008713D01*
X0039413Y0008751D02*
X0056138Y0008751D01*
X0056138Y0008788D02*
X0039451Y0008788D01*
X0039489Y0008826D02*
X0056138Y0008826D01*
X0056138Y0008864D02*
X0039527Y0008864D01*
X0039565Y0008902D02*
X0056138Y0008902D01*
X0056138Y0008940D02*
X0039603Y0008940D01*
X0039640Y0008978D02*
X0056138Y0008978D01*
X0056138Y0009016D02*
X0039678Y0009016D01*
X0039716Y0009054D02*
X0056138Y0009054D01*
X0056138Y0009091D02*
X0039754Y0009091D01*
X0039792Y0009129D02*
X0056138Y0009129D01*
X0056138Y0009167D02*
X0039830Y0009167D01*
X0039868Y0009205D02*
X0056138Y0009205D01*
X0056138Y0009243D02*
X0039906Y0009243D01*
X0039943Y0009281D02*
X0056138Y0009281D01*
X0056138Y0009319D02*
X0039981Y0009319D01*
X0040019Y0009357D02*
X0056138Y0009357D01*
X0056138Y0009395D02*
X0040057Y0009395D01*
X0040095Y0009432D02*
X0056138Y0009432D01*
X0056138Y0009470D02*
X0040133Y0009470D01*
X0040171Y0009508D02*
X0056138Y0009508D01*
X0056138Y0009546D02*
X0040209Y0009546D01*
X0040247Y0009584D02*
X0056138Y0009584D01*
X0056138Y0009622D02*
X0040284Y0009622D01*
X0040322Y0009660D02*
X0056138Y0009660D01*
X0056138Y0009698D02*
X0040357Y0009698D01*
X0040373Y0009735D02*
X0056138Y0009735D01*
X0056138Y0009773D02*
X0040389Y0009773D01*
X0040404Y0009811D02*
X0056138Y0009811D01*
X0056138Y0009849D02*
X0040420Y0009849D01*
X0040436Y0009887D02*
X0056138Y0009887D01*
X0056138Y0009925D02*
X0040451Y0009925D01*
X0040467Y0009963D02*
X0056138Y0009963D01*
X0056138Y0010001D02*
X0040483Y0010001D01*
X0040498Y0010038D02*
X0056138Y0010038D01*
X0056138Y0010076D02*
X0040514Y0010076D01*
X0040530Y0010114D02*
X0056138Y0010114D01*
X0056138Y0010152D02*
X0040545Y0010152D01*
X0040561Y0010190D02*
X0056138Y0010190D01*
X0056138Y0010228D02*
X0040577Y0010228D01*
X0040593Y0010266D02*
X0056138Y0010266D01*
X0056138Y0010304D02*
X0040608Y0010304D01*
X0040624Y0010342D02*
X0056138Y0010342D01*
X0056138Y0010379D02*
X0040640Y0010379D01*
X0040655Y0010417D02*
X0056138Y0010417D01*
X0056138Y0010455D02*
X0040671Y0010455D01*
X0040687Y0010493D02*
X0056138Y0010493D01*
X0056138Y0010531D02*
X0040702Y0010531D01*
X0040718Y0010569D02*
X0056138Y0010569D01*
X0056138Y0010607D02*
X0040734Y0010607D01*
X0040749Y0010645D02*
X0056138Y0010645D01*
X0056138Y0010682D02*
X0040765Y0010682D01*
X0040781Y0010720D02*
X0056138Y0010720D01*
X0056138Y0010758D02*
X0040797Y0010758D01*
X0040812Y0010796D02*
X0056138Y0010796D01*
X0056138Y0010834D02*
X0040828Y0010834D01*
X0040844Y0010872D02*
X0056138Y0010872D01*
X0056138Y0010910D02*
X0040859Y0010910D01*
X0040875Y0010948D02*
X0056138Y0010948D01*
X0056138Y0010986D02*
X0040891Y0010986D01*
X0040906Y0011023D02*
X0056138Y0011023D01*
X0056138Y0011061D02*
X0040922Y0011061D01*
X0040938Y0011099D02*
X0056138Y0011099D01*
X0056138Y0011137D02*
X0040953Y0011137D01*
X0040969Y0011175D02*
X0056138Y0011175D01*
X0056138Y0011213D02*
X0040985Y0011213D01*
X0041001Y0011251D02*
X0056138Y0011251D01*
X0056138Y0011289D02*
X0041016Y0011289D01*
X0041032Y0011326D02*
X0056138Y0011326D01*
X0056138Y0011364D02*
X0041048Y0011364D01*
X0041049Y0011402D02*
X0056138Y0011402D01*
X0056138Y0011440D02*
X0041049Y0011440D01*
X0041049Y0011478D02*
X0056138Y0011478D01*
X0056138Y0011516D02*
X0041049Y0011516D01*
X0041049Y0011554D02*
X0056138Y0011554D01*
X0056138Y0011592D02*
X0041049Y0011592D01*
X0041049Y0011630D02*
X0056138Y0011630D01*
X0056138Y0011667D02*
X0041049Y0011667D01*
X0041049Y0011705D02*
X0056138Y0011705D01*
X0056138Y0011743D02*
X0041049Y0011743D01*
X0041049Y0011781D02*
X0056138Y0011781D01*
X0056138Y0011819D02*
X0041049Y0011819D01*
X0041049Y0011857D02*
X0056138Y0011857D01*
X0056138Y0011895D02*
X0041049Y0011895D01*
X0041049Y0011933D02*
X0056138Y0011933D01*
X0056138Y0011970D02*
X0041049Y0011970D01*
X0041049Y0012008D02*
X0056138Y0012008D01*
X0056138Y0012046D02*
X0041049Y0012046D01*
X0041049Y0012084D02*
X0056138Y0012084D01*
X0056138Y0012122D02*
X0041049Y0012122D01*
X0041049Y0012160D02*
X0056138Y0012160D01*
X0056138Y0012198D02*
X0041049Y0012198D01*
X0041049Y0012236D02*
X0056138Y0012236D01*
X0056138Y0012273D02*
X0041049Y0012273D01*
X0041049Y0012311D02*
X0056138Y0012311D01*
X0056138Y0012349D02*
X0041049Y0012349D01*
X0041049Y0012387D02*
X0056138Y0012387D01*
X0056138Y0012425D02*
X0041049Y0012425D01*
X0041049Y0012463D02*
X0056138Y0012463D01*
X0056138Y0012501D02*
X0041049Y0012501D01*
X0041049Y0012539D02*
X0056138Y0012539D01*
X0056138Y0012577D02*
X0041049Y0012577D01*
X0041049Y0012614D02*
X0056138Y0012614D01*
X0056138Y0012652D02*
X0041049Y0012652D01*
X0041049Y0012690D02*
X0056138Y0012690D01*
X0056138Y0012728D02*
X0041049Y0012728D01*
X0041049Y0012766D02*
X0056138Y0012766D01*
X0056138Y0012804D02*
X0041049Y0012804D01*
X0041049Y0012842D02*
X0056138Y0012842D01*
X0056138Y0012880D02*
X0041049Y0012880D01*
X0041049Y0012917D02*
X0056138Y0012917D01*
X0056138Y0012955D02*
X0041049Y0012955D01*
X0041049Y0012993D02*
X0056138Y0012993D01*
X0056138Y0013031D02*
X0041049Y0013031D01*
X0041049Y0013069D02*
X0056138Y0013069D01*
X0056138Y0013107D02*
X0041049Y0013107D01*
X0041049Y0013145D02*
X0056138Y0013145D01*
X0056138Y0013183D02*
X0041049Y0013183D01*
X0041049Y0013221D02*
X0056138Y0013221D01*
X0056138Y0013258D02*
X0041049Y0013258D01*
X0041049Y0013296D02*
X0056138Y0013296D01*
X0056138Y0013334D02*
X0041049Y0013334D01*
X0041049Y0013372D02*
X0056138Y0013372D01*
X0056138Y0013410D02*
X0041049Y0013410D01*
X0041049Y0013448D02*
X0056138Y0013448D01*
X0056138Y0013486D02*
X0041049Y0013486D01*
X0041049Y0013524D02*
X0056138Y0013524D01*
X0056138Y0013561D02*
X0041049Y0013561D01*
X0041049Y0013599D02*
X0056138Y0013599D01*
X0056138Y0013637D02*
X0041049Y0013637D01*
X0041049Y0013675D02*
X0056138Y0013675D01*
X0056138Y0013713D02*
X0041049Y0013713D01*
X0041049Y0013751D02*
X0056138Y0013751D01*
X0056138Y0013789D02*
X0041049Y0013789D01*
X0041049Y0013827D02*
X0056138Y0013827D01*
X0056138Y0013865D02*
X0041049Y0013865D01*
X0041049Y0013902D02*
X0056138Y0013902D01*
X0056138Y0013940D02*
X0041049Y0013940D01*
X0041049Y0013978D02*
X0056138Y0013978D01*
X0056138Y0014016D02*
X0041049Y0014016D01*
X0041049Y0014054D02*
X0056138Y0014054D01*
X0056138Y0014092D02*
X0041049Y0014092D01*
X0041049Y0014130D02*
X0056138Y0014130D01*
X0056138Y0014168D02*
X0041049Y0014168D01*
X0041049Y0014205D02*
X0056138Y0014205D01*
X0056138Y0014243D02*
X0041049Y0014243D01*
X0041049Y0014281D02*
X0056138Y0014281D01*
X0056138Y0014319D02*
X0041049Y0014319D01*
X0041049Y0014357D02*
X0056138Y0014357D01*
X0056138Y0014395D02*
X0041049Y0014395D01*
X0041049Y0014433D02*
X0056138Y0014433D01*
X0056138Y0014471D02*
X0041049Y0014471D01*
X0041049Y0014508D02*
X0056138Y0014508D01*
X0056138Y0014546D02*
X0041049Y0014546D01*
X0041049Y0014584D02*
X0056138Y0014584D01*
X0056138Y0014622D02*
X0041049Y0014622D01*
X0041049Y0014660D02*
X0056138Y0014660D01*
X0056138Y0014698D02*
X0041049Y0014698D01*
X0041049Y0014736D02*
X0056138Y0014736D01*
X0056138Y0014774D02*
X0041049Y0014774D01*
X0041049Y0014812D02*
X0056138Y0014812D01*
X0056138Y0014849D02*
X0041049Y0014849D01*
X0041049Y0014887D02*
X0056138Y0014887D01*
X0056138Y0014925D02*
X0041049Y0014925D01*
X0041049Y0014963D02*
X0056138Y0014963D01*
X0056138Y0015001D02*
X0041049Y0015001D01*
X0041049Y0015039D02*
X0056138Y0015039D01*
X0056138Y0015077D02*
X0041049Y0015077D01*
X0041049Y0015115D02*
X0056138Y0015115D01*
X0056138Y0015152D02*
X0041049Y0015152D01*
X0041049Y0015190D02*
X0056138Y0015190D01*
X0056138Y0015228D02*
X0041049Y0015228D01*
X0041049Y0015266D02*
X0056138Y0015266D01*
X0056138Y0015304D02*
X0041049Y0015304D01*
X0041049Y0015342D02*
X0056138Y0015342D01*
X0056138Y0015380D02*
X0041049Y0015380D01*
X0041049Y0015418D02*
X0056138Y0015418D01*
X0056138Y0015456D02*
X0041049Y0015456D01*
X0041049Y0015493D02*
X0056138Y0015493D01*
X0056138Y0015531D02*
X0041049Y0015531D01*
X0041049Y0015569D02*
X0056138Y0015569D01*
X0056138Y0015607D02*
X0041049Y0015607D01*
X0041049Y0015645D02*
X0056138Y0015645D01*
X0056138Y0015683D02*
X0041049Y0015683D01*
X0041049Y0015721D02*
X0056138Y0015721D01*
X0056138Y0015759D02*
X0041049Y0015759D01*
X0041049Y0015796D02*
X0056138Y0015796D01*
X0056138Y0015834D02*
X0041049Y0015834D01*
X0041049Y0015872D02*
X0056138Y0015872D01*
X0056138Y0015910D02*
X0041049Y0015910D01*
X0041049Y0015948D02*
X0056138Y0015948D01*
X0056138Y0015986D02*
X0041049Y0015986D01*
X0041049Y0016024D02*
X0056138Y0016024D01*
X0056138Y0016062D02*
X0041049Y0016062D01*
X0041049Y0016100D02*
X0056138Y0016100D01*
X0056138Y0016137D02*
X0041049Y0016137D01*
X0041049Y0016175D02*
X0056138Y0016175D01*
X0056138Y0016213D02*
X0041049Y0016213D01*
X0041049Y0016251D02*
X0056138Y0016251D01*
X0056138Y0016289D02*
X0041049Y0016289D01*
X0041049Y0016327D02*
X0056138Y0016327D01*
X0056138Y0016365D02*
X0041049Y0016365D01*
X0041049Y0016403D02*
X0056138Y0016403D01*
X0056138Y0016440D02*
X0041049Y0016440D01*
X0041049Y0016478D02*
X0056138Y0016478D01*
X0056138Y0016516D02*
X0041049Y0016516D01*
X0041049Y0016554D02*
X0056138Y0016554D01*
X0056138Y0016592D02*
X0041049Y0016592D01*
X0041049Y0016630D02*
X0056138Y0016630D01*
X0056138Y0016668D02*
X0041049Y0016668D01*
X0041049Y0016706D02*
X0056138Y0016706D01*
X0056138Y0016743D02*
X0041049Y0016743D01*
X0041049Y0016781D02*
X0056138Y0016781D01*
X0056138Y0016819D02*
X0041049Y0016819D01*
X0041049Y0016857D02*
X0056138Y0016857D01*
X0056138Y0016895D02*
X0041049Y0016895D01*
X0041049Y0016933D02*
X0056138Y0016933D01*
X0056138Y0016971D02*
X0041049Y0016971D01*
X0041049Y0017009D02*
X0056138Y0017009D01*
X0056138Y0017047D02*
X0041049Y0017047D01*
X0041049Y0017084D02*
X0056138Y0017084D01*
X0056138Y0017122D02*
X0041049Y0017122D01*
X0041049Y0017160D02*
X0056138Y0017160D01*
X0056138Y0017198D02*
X0041049Y0017198D01*
X0041049Y0017236D02*
X0056138Y0017236D01*
X0056138Y0017274D02*
X0041049Y0017274D01*
X0041049Y0017312D02*
X0056138Y0017312D01*
X0056138Y0017350D02*
X0041049Y0017350D01*
X0041049Y0017387D02*
X0056138Y0017387D01*
X0056138Y0017425D02*
X0041049Y0017425D01*
X0041049Y0017463D02*
X0056138Y0017463D01*
X0056138Y0017501D02*
X0041049Y0017501D01*
X0041049Y0017539D02*
X0056138Y0017539D01*
X0056138Y0017577D02*
X0041049Y0017577D01*
X0041049Y0017615D02*
X0056138Y0017615D01*
X0056138Y0017653D02*
X0041049Y0017653D01*
X0041049Y0017691D02*
X0056138Y0017691D01*
X0056138Y0017728D02*
X0041049Y0017728D01*
X0041049Y0017766D02*
X0056138Y0017766D01*
X0056138Y0017804D02*
X0041049Y0017804D01*
X0041049Y0017842D02*
X0056138Y0017842D01*
X0056138Y0017880D02*
X0041049Y0017880D01*
X0041049Y0017918D02*
X0056138Y0017918D01*
X0056138Y0017956D02*
X0041049Y0017956D01*
X0041049Y0017994D02*
X0056138Y0017994D01*
X0056138Y0018031D02*
X0041049Y0018031D01*
X0041049Y0018069D02*
X0056138Y0018069D01*
X0056138Y0018107D02*
X0041049Y0018107D01*
X0041049Y0018145D02*
X0056138Y0018145D01*
X0056138Y0018183D02*
X0041049Y0018183D01*
X0041049Y0018221D02*
X0056138Y0018221D01*
X0056138Y0018259D02*
X0041049Y0018259D01*
X0041049Y0018297D02*
X0056138Y0018297D01*
X0056138Y0018335D02*
X0041049Y0018335D01*
X0041049Y0018372D02*
X0056138Y0018372D01*
X0056138Y0018410D02*
X0041049Y0018410D01*
X0041049Y0018448D02*
X0056138Y0018448D01*
X0056138Y0018486D02*
X0041049Y0018486D01*
X0041049Y0018524D02*
X0056138Y0018524D01*
X0056138Y0018562D02*
X0041049Y0018562D01*
X0041049Y0018600D02*
X0056138Y0018600D01*
X0056138Y0018638D02*
X0041049Y0018638D01*
X0041049Y0018675D02*
X0056138Y0018675D01*
X0056138Y0018713D02*
X0041049Y0018713D01*
X0041049Y0018751D02*
X0056138Y0018751D01*
X0056138Y0018789D02*
X0041049Y0018789D01*
X0041049Y0018827D02*
X0056138Y0018827D01*
X0056138Y0018865D02*
X0041049Y0018865D01*
X0041049Y0018903D02*
X0056138Y0018903D01*
X0056138Y0018941D02*
X0041049Y0018941D01*
X0041049Y0018978D02*
X0056138Y0018978D01*
X0056138Y0019016D02*
X0041049Y0019016D01*
X0041049Y0019054D02*
X0056138Y0019054D01*
X0056138Y0019092D02*
X0041049Y0019092D01*
X0041049Y0019130D02*
X0056138Y0019130D01*
X0056138Y0019168D02*
X0041049Y0019168D01*
X0041049Y0019206D02*
X0056138Y0019206D01*
X0056138Y0019244D02*
X0041049Y0019244D01*
X0041049Y0019282D02*
X0056138Y0019282D01*
X0056138Y0019319D02*
X0041049Y0019319D01*
X0041049Y0019357D02*
X0056138Y0019357D01*
X0056138Y0019395D02*
X0041049Y0019395D01*
X0041049Y0019433D02*
X0056138Y0019433D01*
X0056138Y0019471D02*
X0041049Y0019471D01*
X0041049Y0019509D02*
X0056138Y0019509D01*
X0056138Y0019547D02*
X0041049Y0019547D01*
X0041049Y0019585D02*
X0056138Y0019585D01*
X0056138Y0019622D02*
X0041049Y0019622D01*
X0041049Y0019660D02*
X0056138Y0019660D01*
X0056138Y0019698D02*
X0041049Y0019698D01*
X0041049Y0019736D02*
X0056138Y0019736D01*
X0056138Y0019774D02*
X0041049Y0019774D01*
X0041049Y0019812D02*
X0056138Y0019812D01*
X0056138Y0019850D02*
X0041049Y0019850D01*
X0041049Y0019888D02*
X0056138Y0019888D01*
X0056138Y0019926D02*
X0041049Y0019926D01*
X0041049Y0019963D02*
X0056138Y0019963D01*
X0056138Y0020001D02*
X0041049Y0020001D01*
X0041049Y0020039D02*
X0056138Y0020039D01*
X0056138Y0020077D02*
X0041049Y0020077D01*
X0041049Y0020115D02*
X0056138Y0020115D01*
X0056138Y0020153D02*
X0041049Y0020153D01*
X0041049Y0020191D02*
X0056138Y0020191D01*
X0056138Y0020229D02*
X0041049Y0020229D01*
X0041049Y0020266D02*
X0056138Y0020266D01*
X0056138Y0020304D02*
X0041049Y0020304D01*
X0041049Y0020342D02*
X0056138Y0020342D01*
X0056138Y0020380D02*
X0041049Y0020380D01*
X0041049Y0020418D02*
X0056138Y0020418D01*
X0056138Y0020456D02*
X0041049Y0020456D01*
X0041049Y0020494D02*
X0056138Y0020494D01*
X0056138Y0020532D02*
X0041049Y0020532D01*
X0041049Y0020570D02*
X0056138Y0020570D01*
X0056138Y0020607D02*
X0041049Y0020607D01*
X0041049Y0020645D02*
X0056138Y0020645D01*
X0056138Y0020683D02*
X0041049Y0020683D01*
X0041049Y0020721D02*
X0056138Y0020721D01*
X0056138Y0020759D02*
X0041049Y0020759D01*
X0041049Y0020797D02*
X0056138Y0020797D01*
X0056138Y0020835D02*
X0041049Y0020835D01*
X0041049Y0020873D02*
X0056138Y0020873D01*
X0056138Y0020910D02*
X0041049Y0020910D01*
X0041049Y0020948D02*
X0056138Y0020948D01*
X0056138Y0020986D02*
X0041049Y0020986D01*
X0041049Y0021024D02*
X0056138Y0021024D01*
X0056138Y0021062D02*
X0041046Y0021062D01*
X0041030Y0021100D02*
X0056138Y0021100D01*
X0056138Y0021138D02*
X0041014Y0021138D01*
X0040998Y0021176D02*
X0056138Y0021176D01*
X0056138Y0021213D02*
X0040983Y0021213D01*
X0040967Y0021251D02*
X0056138Y0021251D01*
X0056138Y0021289D02*
X0040951Y0021289D01*
X0040936Y0021327D02*
X0056138Y0021327D01*
X0056138Y0021365D02*
X0040920Y0021365D01*
X0040904Y0021403D02*
X0056138Y0021403D01*
X0056138Y0021441D02*
X0040889Y0021441D01*
X0040873Y0021479D02*
X0056138Y0021479D01*
X0056138Y0021517D02*
X0040857Y0021517D01*
X0040842Y0021554D02*
X0056138Y0021554D01*
X0056138Y0021592D02*
X0040826Y0021592D01*
X0040810Y0021630D02*
X0056138Y0021630D01*
X0056138Y0021668D02*
X0040794Y0021668D01*
X0040779Y0021706D02*
X0056138Y0021706D01*
X0056138Y0021744D02*
X0040763Y0021744D01*
X0040747Y0021782D02*
X0056138Y0021782D01*
X0056138Y0021820D02*
X0040732Y0021820D01*
X0040716Y0021857D02*
X0056138Y0021857D01*
X0056138Y0021895D02*
X0040700Y0021895D01*
X0040685Y0021933D02*
X0056138Y0021933D01*
X0056138Y0021971D02*
X0040669Y0021971D01*
X0040653Y0022009D02*
X0056138Y0022009D01*
X0056138Y0022047D02*
X0040638Y0022047D01*
X0040622Y0022085D02*
X0056138Y0022085D01*
X0056138Y0022123D02*
X0040606Y0022123D01*
X0040590Y0022161D02*
X0056138Y0022161D01*
X0056138Y0022198D02*
X0040575Y0022198D01*
X0040559Y0022236D02*
X0056138Y0022236D01*
X0056138Y0022274D02*
X0040543Y0022274D01*
X0040528Y0022312D02*
X0056138Y0022312D01*
X0056138Y0022350D02*
X0040512Y0022350D01*
X0040496Y0022388D02*
X0056138Y0022388D01*
X0056138Y0022426D02*
X0040481Y0022426D01*
X0040465Y0022464D02*
X0056138Y0022464D01*
X0056138Y0022501D02*
X0040449Y0022501D01*
X0040434Y0022539D02*
X0056138Y0022539D01*
X0056138Y0022577D02*
X0040418Y0022577D01*
X0040402Y0022615D02*
X0056138Y0022615D01*
X0056138Y0022653D02*
X0040386Y0022653D01*
X0040371Y0022691D02*
X0056138Y0022691D01*
X0056138Y0022729D02*
X0040355Y0022729D01*
X0040317Y0022767D02*
X0056138Y0022767D01*
X0056138Y0022805D02*
X0040279Y0022805D01*
X0040241Y0022842D02*
X0056138Y0022842D01*
X0056138Y0022880D02*
X0040204Y0022880D01*
X0040166Y0022918D02*
X0056138Y0022918D01*
X0056138Y0022956D02*
X0040128Y0022956D01*
X0040090Y0022994D02*
X0056138Y0022994D01*
X0056138Y0023032D02*
X0040052Y0023032D01*
X0040014Y0023070D02*
X0056138Y0023070D01*
X0056138Y0023108D02*
X0039976Y0023108D01*
X0039938Y0023145D02*
X0056138Y0023145D01*
X0056138Y0023183D02*
X0039901Y0023183D01*
X0039863Y0023221D02*
X0056138Y0023221D01*
X0056138Y0023259D02*
X0039825Y0023259D01*
X0039787Y0023297D02*
X0056138Y0023297D01*
X0056138Y0023335D02*
X0039749Y0023335D01*
X0039711Y0023373D02*
X0056138Y0023373D01*
X0056138Y0023411D02*
X0039673Y0023411D01*
X0039635Y0023448D02*
X0056138Y0023448D01*
X0056138Y0023486D02*
X0039598Y0023486D01*
X0039560Y0023524D02*
X0056138Y0023524D01*
X0056138Y0023562D02*
X0039522Y0023562D01*
X0039484Y0023600D02*
X0056138Y0023600D01*
X0056138Y0023638D02*
X0039446Y0023638D01*
X0039408Y0023676D02*
X0056138Y0023676D01*
X0056138Y0023714D02*
X0039370Y0023714D01*
X0039332Y0023752D02*
X0056138Y0023752D01*
X0056138Y0023789D02*
X0039294Y0023789D01*
X0039257Y0023827D02*
X0056138Y0023827D01*
X0056138Y0023865D02*
X0039219Y0023865D01*
X0039181Y0023903D02*
X0056138Y0023903D01*
X0056138Y0023941D02*
X0039143Y0023941D01*
X0039105Y0023979D02*
X0056138Y0023979D01*
X0056138Y0024017D02*
X0039072Y0024017D01*
X0039072Y0024055D02*
X0056138Y0024055D01*
X0056138Y0024092D02*
X0039072Y0024092D01*
X0039072Y0024130D02*
X0056138Y0024130D01*
X0056138Y0024168D02*
X0039072Y0024168D01*
X0039072Y0024206D02*
X0056138Y0024206D01*
X0056138Y0024244D02*
X0039072Y0024244D01*
X0039072Y0024282D02*
X0056138Y0024282D01*
X0056138Y0024320D02*
X0039072Y0024320D01*
X0039072Y0024358D02*
X0056138Y0024358D01*
X0056138Y0024396D02*
X0039072Y0024396D01*
X0039072Y0024433D02*
X0056138Y0024433D01*
X0056138Y0024471D02*
X0039072Y0024471D01*
X0039072Y0024509D02*
X0056138Y0024509D01*
X0056138Y0024547D02*
X0039072Y0024547D01*
X0039072Y0024585D02*
X0056138Y0024585D01*
X0056138Y0024623D02*
X0039072Y0024623D01*
X0039072Y0024661D02*
X0056138Y0024661D01*
X0056138Y0024699D02*
X0039072Y0024699D01*
X0039072Y0024736D02*
X0056138Y0024736D01*
X0056138Y0024774D02*
X0039072Y0024774D01*
X0039072Y0024812D02*
X0056138Y0024812D01*
X0056138Y0024850D02*
X0039072Y0024850D01*
X0039072Y0024888D02*
X0056138Y0024888D01*
X0056138Y0024926D02*
X0039072Y0024926D01*
X0039072Y0024964D02*
X0056138Y0024964D01*
X0056138Y0025002D02*
X0039072Y0025002D01*
X0039072Y0025040D02*
X0056138Y0025040D01*
X0056138Y0025077D02*
X0039072Y0025077D01*
X0039072Y0025115D02*
X0056138Y0025115D01*
X0056138Y0025153D02*
X0039072Y0025153D01*
X0039072Y0025191D02*
X0056138Y0025191D01*
X0056138Y0025229D02*
X0039072Y0025229D01*
X0039072Y0025267D02*
X0056138Y0025267D01*
X0056138Y0025305D02*
X0039072Y0025305D01*
X0039072Y0025343D02*
X0056138Y0025343D01*
X0056138Y0025380D02*
X0039072Y0025380D01*
X0039072Y0025418D02*
X0056138Y0025418D01*
X0056138Y0025456D02*
X0039072Y0025456D01*
X0039072Y0025494D02*
X0056138Y0025494D01*
X0056138Y0025532D02*
X0039072Y0025532D01*
X0039072Y0025570D02*
X0056138Y0025570D01*
X0056138Y0025608D02*
X0039072Y0025608D01*
X0039072Y0025646D02*
X0056138Y0025646D01*
X0056138Y0025684D02*
X0039072Y0025684D01*
X0039072Y0025721D02*
X0056138Y0025721D01*
X0056138Y0025759D02*
X0039072Y0025759D01*
X0039072Y0025797D02*
X0056138Y0025797D01*
X0056138Y0025835D02*
X0039072Y0025835D01*
X0039072Y0025873D02*
X0056138Y0025873D01*
X0056138Y0025911D02*
X0039072Y0025911D01*
X0039072Y0025949D02*
X0056138Y0025949D01*
X0056138Y0025987D02*
X0039072Y0025987D01*
X0039072Y0026024D02*
X0056138Y0026024D01*
X0056138Y0026062D02*
X0039072Y0026062D01*
X0039072Y0026100D02*
X0056138Y0026100D01*
X0056138Y0026138D02*
X0039072Y0026138D01*
X0039072Y0026176D02*
X0056138Y0026176D01*
X0056138Y0026214D02*
X0039072Y0026214D01*
X0039072Y0026252D02*
X0056138Y0026252D01*
X0056138Y0026290D02*
X0039072Y0026290D01*
X0039072Y0026327D02*
X0056138Y0026327D01*
X0056138Y0026365D02*
X0039072Y0026365D01*
X0039072Y0026403D02*
X0056138Y0026403D01*
X0056138Y0026441D02*
X0039072Y0026441D01*
X0039072Y0026479D02*
X0056138Y0026479D01*
X0056138Y0026517D02*
X0039072Y0026517D01*
X0039072Y0026555D02*
X0056138Y0026555D01*
X0056138Y0026593D02*
X0039072Y0026593D01*
X0039072Y0026631D02*
X0056138Y0026631D01*
X0056138Y0026668D02*
X0039072Y0026668D01*
X0039072Y0026706D02*
X0056138Y0026706D01*
X0056138Y0026744D02*
X0039072Y0026744D01*
X0039072Y0026782D02*
X0056138Y0026782D01*
X0056138Y0026820D02*
X0039072Y0026820D01*
X0039072Y0026858D02*
X0056138Y0026858D01*
X0056138Y0026896D02*
X0039072Y0026896D01*
X0039072Y0026934D02*
X0056138Y0026934D01*
X0056138Y0026971D02*
X0039072Y0026971D01*
X0039072Y0027009D02*
X0056138Y0027009D01*
X0056138Y0027047D02*
X0039072Y0027047D01*
X0039072Y0027085D02*
X0056138Y0027085D01*
X0056138Y0027123D02*
X0039072Y0027123D01*
X0039072Y0027161D02*
X0056138Y0027161D01*
X0056138Y0027199D02*
X0039072Y0027199D01*
X0039072Y0027237D02*
X0056138Y0027237D01*
X0056138Y0027275D02*
X0039072Y0027275D01*
X0039072Y0027312D02*
X0056138Y0027312D01*
X0056138Y0027350D02*
X0039072Y0027350D01*
X0039072Y0027388D02*
X0056138Y0027388D01*
X0056138Y0027426D02*
X0039072Y0027426D01*
X0039072Y0027464D02*
X0056138Y0027464D01*
X0056138Y0027502D02*
X0039072Y0027502D01*
X0039072Y0027540D02*
X0056138Y0027540D01*
X0056138Y0027578D02*
X0039072Y0027578D01*
X0039072Y0027615D02*
X0056138Y0027615D01*
X0056138Y0027653D02*
X0039072Y0027653D01*
X0039072Y0027691D02*
X0056138Y0027691D01*
X0056138Y0027729D02*
X0039072Y0027729D01*
X0039068Y0027767D02*
X0056138Y0027767D01*
X0056138Y0027805D02*
X0039052Y0027805D01*
X0039036Y0027843D02*
X0056138Y0027843D01*
X0056138Y0027881D02*
X0039021Y0027881D01*
X0039005Y0027919D02*
X0056138Y0027919D01*
X0056138Y0027956D02*
X0038989Y0027956D01*
X0038973Y0027994D02*
X0056138Y0027994D01*
X0056138Y0028032D02*
X0038958Y0028032D01*
X0038942Y0028070D02*
X0056138Y0028070D01*
X0056138Y0028108D02*
X0038926Y0028108D01*
X0038911Y0028146D02*
X0056138Y0028146D01*
X0056138Y0028184D02*
X0038895Y0028184D01*
X0038879Y0028222D02*
X0056138Y0028222D01*
X0056138Y0028259D02*
X0038864Y0028259D01*
X0038848Y0028297D02*
X0056138Y0028297D01*
X0056138Y0028335D02*
X0038832Y0028335D01*
X0038817Y0028373D02*
X0056138Y0028373D01*
X0056138Y0028411D02*
X0038801Y0028411D01*
X0038785Y0028449D02*
X0056138Y0028449D01*
X0056138Y0028487D02*
X0038769Y0028487D01*
X0038754Y0028525D02*
X0056138Y0028525D01*
X0056138Y0028562D02*
X0038738Y0028562D01*
X0038722Y0028600D02*
X0056138Y0028600D01*
X0056138Y0028638D02*
X0038707Y0028638D01*
X0038691Y0028676D02*
X0056138Y0028676D01*
X0056138Y0028714D02*
X0038675Y0028714D01*
X0038640Y0028752D02*
X0056138Y0028752D01*
X0056138Y0028790D02*
X0038602Y0028790D01*
X0038564Y0028828D02*
X0056138Y0028828D01*
X0056138Y0028866D02*
X0038526Y0028866D01*
X0038488Y0028903D02*
X0056138Y0028903D01*
X0056138Y0028941D02*
X0038450Y0028941D01*
X0038413Y0028979D02*
X0056138Y0028979D01*
X0056138Y0029017D02*
X0038375Y0029017D01*
X0038337Y0029055D02*
X0056138Y0029055D01*
X0056138Y0029093D02*
X0038299Y0029093D01*
X0038261Y0029131D02*
X0056138Y0029131D01*
X0056138Y0029169D02*
X0038223Y0029169D01*
X0038185Y0029206D02*
X0056138Y0029206D01*
X0056138Y0029244D02*
X0038147Y0029244D01*
X0038110Y0029282D02*
X0056138Y0029282D01*
X0056138Y0029320D02*
X0038072Y0029320D01*
X0038034Y0029358D02*
X0056138Y0029358D01*
X0056138Y0029396D02*
X0037996Y0029396D01*
X0037958Y0029434D02*
X0056138Y0029434D01*
X0056138Y0029472D02*
X0037897Y0029472D01*
X0037805Y0029510D02*
X0056138Y0029510D01*
X0056138Y0029547D02*
X0037714Y0029547D01*
X0037622Y0029585D02*
X0056138Y0029585D01*
X0056138Y0029623D02*
X0037531Y0029623D01*
X0037439Y0029661D02*
X0056138Y0029661D01*
X0056138Y0029699D02*
X0037348Y0029699D01*
X0037257Y0029737D02*
X0056138Y0029737D01*
X0056138Y0029775D02*
X0037165Y0029775D01*
X0037074Y0029813D02*
X0056138Y0029813D01*
X0056138Y0029850D02*
X0036982Y0029850D01*
X0035923Y0029850D02*
X0001020Y0029850D01*
X0001020Y0029813D02*
X0035832Y0029813D01*
X0035740Y0029775D02*
X0001020Y0029775D01*
X0001020Y0029737D02*
X0035649Y0029737D01*
X0035557Y0029699D02*
X0001020Y0029699D01*
X0001020Y0029661D02*
X0035466Y0029661D01*
X0035375Y0029623D02*
X0001020Y0029623D01*
X0001020Y0029585D02*
X0035283Y0029585D01*
X0035192Y0029547D02*
X0001020Y0029547D01*
X0001020Y0029510D02*
X0035100Y0029510D01*
X0035009Y0029472D02*
X0001020Y0029472D01*
X0001020Y0029434D02*
X0034947Y0029434D01*
X0034910Y0029396D02*
X0001020Y0029396D01*
X0001020Y0029358D02*
X0034872Y0029358D01*
X0034834Y0029320D02*
X0001020Y0029320D01*
X0001020Y0029282D02*
X0034796Y0029282D01*
X0034758Y0029244D02*
X0001020Y0029244D01*
X0001020Y0029206D02*
X0034720Y0029206D01*
X0034682Y0029169D02*
X0001020Y0029169D01*
X0001020Y0029131D02*
X0034644Y0029131D01*
X0034607Y0029093D02*
X0001020Y0029093D01*
X0001020Y0029055D02*
X0034569Y0029055D01*
X0034531Y0029017D02*
X0001020Y0029017D01*
X0001020Y0028979D02*
X0034493Y0028979D01*
X0034455Y0028941D02*
X0001020Y0028941D01*
X0001020Y0028903D02*
X0034417Y0028903D01*
X0034379Y0028866D02*
X0001020Y0028866D01*
X0001020Y0028828D02*
X0034341Y0028828D01*
X0034303Y0028790D02*
X0001020Y0028790D01*
X0001020Y0028752D02*
X0034266Y0028752D01*
X0034230Y0028714D02*
X0001020Y0028714D01*
X0001020Y0028676D02*
X0034214Y0028676D01*
X0034199Y0028638D02*
X0001020Y0028638D01*
X0001020Y0028600D02*
X0034183Y0028600D01*
X0034167Y0028562D02*
X0001020Y0028562D01*
X0001020Y0028525D02*
X0034152Y0028525D01*
X0034136Y0028487D02*
X0001020Y0028487D01*
X0001020Y0028449D02*
X0034120Y0028449D01*
X0034105Y0028411D02*
X0001020Y0028411D01*
X0001020Y0028373D02*
X0034089Y0028373D01*
X0034073Y0028335D02*
X0001020Y0028335D01*
X0001020Y0028297D02*
X0034058Y0028297D01*
X0034042Y0028259D02*
X0001020Y0028259D01*
X0001020Y0028222D02*
X0034026Y0028222D01*
X0034010Y0028184D02*
X0001020Y0028184D01*
X0001020Y0028146D02*
X0033995Y0028146D01*
X0033979Y0028108D02*
X0001020Y0028108D01*
X0001020Y0028070D02*
X0033963Y0028070D01*
X0033948Y0028032D02*
X0001020Y0028032D01*
X0001020Y0027994D02*
X0033932Y0027994D01*
X0033916Y0027956D02*
X0001020Y0027956D01*
X0001020Y0027919D02*
X0033901Y0027919D01*
X0033885Y0027881D02*
X0001020Y0027881D01*
X0001020Y0027843D02*
X0033869Y0027843D01*
X0033854Y0027805D02*
X0001020Y0027805D01*
X0001020Y0027767D02*
X0033838Y0027767D01*
X0033833Y0027729D02*
X0001020Y0027729D01*
X0001020Y0027691D02*
X0033833Y0027691D01*
X0033833Y0027653D02*
X0001020Y0027653D01*
X0001020Y0027615D02*
X0033833Y0027615D01*
X0033833Y0027578D02*
X0001020Y0027578D01*
X0001020Y0027540D02*
X0033833Y0027540D01*
X0033833Y0027502D02*
X0001020Y0027502D01*
X0001020Y0027464D02*
X0033833Y0027464D01*
X0033833Y0027426D02*
X0001020Y0027426D01*
X0001020Y0027388D02*
X0033833Y0027388D01*
X0033833Y0027350D02*
X0001020Y0027350D01*
X0001020Y0027312D02*
X0033833Y0027312D01*
X0033833Y0027275D02*
X0001020Y0027275D01*
X0001020Y0027237D02*
X0033833Y0027237D01*
X0033833Y0027199D02*
X0001020Y0027199D01*
X0001020Y0027161D02*
X0033833Y0027161D01*
X0033833Y0027123D02*
X0001020Y0027123D01*
X0001020Y0027085D02*
X0033833Y0027085D01*
X0033833Y0027047D02*
X0001020Y0027047D01*
X0001020Y0027009D02*
X0033833Y0027009D01*
X0033833Y0026971D02*
X0001020Y0026971D01*
X0001020Y0026934D02*
X0033833Y0026934D01*
X0033833Y0026896D02*
X0001020Y0026896D01*
X0001020Y0026858D02*
X0033833Y0026858D01*
X0033833Y0026820D02*
X0001020Y0026820D01*
X0001020Y0026782D02*
X0033833Y0026782D01*
X0033833Y0026744D02*
X0001020Y0026744D01*
X0001020Y0026706D02*
X0033833Y0026706D01*
X0033833Y0026668D02*
X0001020Y0026668D01*
X0001020Y0026631D02*
X0033833Y0026631D01*
X0033833Y0026593D02*
X0001020Y0026593D01*
X0001020Y0026555D02*
X0033833Y0026555D01*
X0033833Y0026517D02*
X0001020Y0026517D01*
X0001020Y0026479D02*
X0033833Y0026479D01*
X0033833Y0026441D02*
X0001020Y0026441D01*
X0001020Y0026403D02*
X0033833Y0026403D01*
X0033833Y0026365D02*
X0001020Y0026365D01*
X0001020Y0026327D02*
X0033833Y0026327D01*
X0033833Y0026290D02*
X0001020Y0026290D01*
X0001020Y0026252D02*
X0033833Y0026252D01*
X0033833Y0026214D02*
X0001020Y0026214D01*
X0001020Y0026176D02*
X0033833Y0026176D01*
X0033833Y0026138D02*
X0001020Y0026138D01*
X0001020Y0026100D02*
X0033833Y0026100D01*
X0033833Y0026062D02*
X0001020Y0026062D01*
X0001020Y0026024D02*
X0033833Y0026024D01*
X0033833Y0025987D02*
X0001020Y0025987D01*
X0001020Y0025949D02*
X0033833Y0025949D01*
X0033833Y0025911D02*
X0001020Y0025911D01*
X0001020Y0025873D02*
X0033833Y0025873D01*
X0033833Y0025835D02*
X0001020Y0025835D01*
X0001020Y0025797D02*
X0033833Y0025797D01*
X0033833Y0025759D02*
X0001020Y0025759D01*
X0001020Y0025721D02*
X0033833Y0025721D01*
X0033833Y0025684D02*
X0001020Y0025684D01*
X0001020Y0025646D02*
X0033833Y0025646D01*
X0033833Y0025608D02*
X0001020Y0025608D01*
X0001020Y0025570D02*
X0033833Y0025570D01*
X0033833Y0025532D02*
X0001020Y0025532D01*
X0001020Y0025494D02*
X0033833Y0025494D01*
X0033833Y0025456D02*
X0001020Y0025456D01*
X0001020Y0025418D02*
X0033833Y0025418D01*
X0033833Y0025380D02*
X0001020Y0025380D01*
X0001020Y0025343D02*
X0033833Y0025343D01*
X0033833Y0025305D02*
X0001020Y0025305D01*
X0001020Y0025267D02*
X0033833Y0025267D01*
X0033833Y0025229D02*
X0001020Y0025229D01*
X0001020Y0025191D02*
X0033833Y0025191D01*
X0033833Y0025153D02*
X0001020Y0025153D01*
X0001020Y0025115D02*
X0033833Y0025115D01*
X0033833Y0025077D02*
X0001020Y0025077D01*
X0001020Y0025040D02*
X0033833Y0025040D01*
X0033833Y0025002D02*
X0001020Y0025002D01*
X0001020Y0024964D02*
X0033833Y0024964D01*
X0033833Y0024926D02*
X0001020Y0024926D01*
X0001020Y0024888D02*
X0033833Y0024888D01*
X0033833Y0024850D02*
X0001020Y0024850D01*
X0001020Y0024812D02*
X0033833Y0024812D01*
X0033833Y0024774D02*
X0001020Y0024774D01*
X0001020Y0024736D02*
X0033833Y0024736D01*
X0033833Y0024699D02*
X0001020Y0024699D01*
X0001020Y0024661D02*
X0033833Y0024661D01*
X0033833Y0024623D02*
X0001020Y0024623D01*
X0001020Y0024585D02*
X0033833Y0024585D01*
X0033833Y0024547D02*
X0001020Y0024547D01*
X0001020Y0024509D02*
X0033833Y0024509D01*
X0033833Y0024471D02*
X0001020Y0024471D01*
X0001020Y0024433D02*
X0033833Y0024433D01*
X0033833Y0024396D02*
X0001020Y0024396D01*
X0001020Y0024358D02*
X0033833Y0024358D01*
X0033833Y0024320D02*
X0001020Y0024320D01*
X0001020Y0024282D02*
X0033833Y0024282D01*
X0033833Y0024244D02*
X0001020Y0024244D01*
X0001020Y0024206D02*
X0033833Y0024206D01*
X0033833Y0024168D02*
X0001020Y0024168D01*
X0001020Y0024130D02*
X0033833Y0024130D01*
X0033833Y0024092D02*
X0001020Y0024092D01*
X0001020Y0024055D02*
X0033833Y0024055D01*
X0033833Y0024017D02*
X0001020Y0024017D01*
X0001020Y0023979D02*
X0033833Y0023979D01*
X0033833Y0023941D02*
X0001020Y0023941D01*
X0001020Y0023903D02*
X0033803Y0023903D01*
X0033766Y0023865D02*
X0001020Y0023865D01*
X0001020Y0023827D02*
X0033728Y0023827D01*
X0033690Y0023789D02*
X0001020Y0023789D01*
X0001020Y0023752D02*
X0033652Y0023752D01*
X0033614Y0023714D02*
X0001020Y0023714D01*
X0001020Y0023676D02*
X0033576Y0023676D01*
X0033538Y0023638D02*
X0001020Y0023638D01*
X0001020Y0023600D02*
X0033500Y0023600D01*
X0033463Y0023562D02*
X0001020Y0023562D01*
X0001020Y0023524D02*
X0033425Y0023524D01*
X0033387Y0023486D02*
X0001020Y0023486D01*
X0001020Y0023448D02*
X0033349Y0023448D01*
X0033311Y0023411D02*
X0001020Y0023411D01*
X0001020Y0023373D02*
X0033273Y0023373D01*
X0033235Y0023335D02*
X0001020Y0023335D01*
X0001020Y0023297D02*
X0033197Y0023297D01*
X0033159Y0023259D02*
X0001020Y0023259D01*
X0001020Y0023221D02*
X0033122Y0023221D01*
X0033084Y0023183D02*
X0001020Y0023183D01*
X0001020Y0023145D02*
X0033046Y0023145D01*
X0033008Y0023108D02*
X0001020Y0023108D01*
X0001020Y0023070D02*
X0032970Y0023070D01*
X0032932Y0023032D02*
X0001020Y0023032D01*
X0001020Y0022994D02*
X0032894Y0022994D01*
X0032856Y0022956D02*
X0001020Y0022956D01*
X0001020Y0022918D02*
X0032819Y0022918D01*
X0032781Y0022880D02*
X0001020Y0022880D01*
X0001020Y0022842D02*
X0032743Y0022842D01*
X0032705Y0022805D02*
X0001020Y0022805D01*
X0001020Y0022767D02*
X0032667Y0022767D01*
X0032629Y0022729D02*
X0001020Y0022729D01*
X0001020Y0022691D02*
X0032613Y0022691D01*
X0032598Y0022653D02*
X0001020Y0022653D01*
X0001020Y0022615D02*
X0032582Y0022615D01*
X0032566Y0022577D02*
X0001020Y0022577D01*
X0001020Y0022539D02*
X0032551Y0022539D01*
X0032535Y0022501D02*
X0001020Y0022501D01*
X0001020Y0022464D02*
X0032519Y0022464D01*
X0032504Y0022426D02*
X0001020Y0022426D01*
X0001020Y0022388D02*
X0032488Y0022388D01*
X0032472Y0022350D02*
X0001020Y0022350D01*
X0001020Y0022312D02*
X0032457Y0022312D01*
X0032441Y0022274D02*
X0001020Y0022274D01*
X0001020Y0022236D02*
X0032425Y0022236D01*
X0032409Y0022198D02*
X0001020Y0022198D01*
X0001020Y0022161D02*
X0032394Y0022161D01*
X0032378Y0022123D02*
X0001020Y0022123D01*
X0001020Y0022085D02*
X0032362Y0022085D01*
X0032347Y0022047D02*
X0001020Y0022047D01*
X0001020Y0022009D02*
X0032331Y0022009D01*
X0032315Y0021971D02*
X0001020Y0021971D01*
X0001020Y0021933D02*
X0032300Y0021933D01*
X0032284Y0021895D02*
X0001020Y0021895D01*
X0001020Y0021857D02*
X0032268Y0021857D01*
X0032253Y0021820D02*
X0001020Y0021820D01*
X0001020Y0021782D02*
X0032237Y0021782D01*
X0032221Y0021744D02*
X0001020Y0021744D01*
X0001020Y0021706D02*
X0032205Y0021706D01*
X0032190Y0021668D02*
X0001020Y0021668D01*
X0001020Y0021630D02*
X0032174Y0021630D01*
X0032158Y0021592D02*
X0001020Y0021592D01*
X0001020Y0021554D02*
X0032143Y0021554D01*
X0032127Y0021517D02*
X0001020Y0021517D01*
X0001020Y0021479D02*
X0032111Y0021479D01*
X0032096Y0021441D02*
X0001020Y0021441D01*
X0001020Y0021403D02*
X0032080Y0021403D01*
X0032064Y0021365D02*
X0001020Y0021365D01*
X0001020Y0021327D02*
X0032049Y0021327D01*
X0032033Y0021289D02*
X0001020Y0021289D01*
X0001020Y0021251D02*
X0032017Y0021251D01*
X0032002Y0021213D02*
X0001020Y0021213D01*
X0001020Y0021176D02*
X0031986Y0021176D01*
X0031970Y0021138D02*
X0001020Y0021138D01*
X0001020Y0021100D02*
X0031954Y0021100D01*
X0031939Y0021062D02*
X0001020Y0021062D01*
X0001020Y0021024D02*
X0031935Y0021024D01*
X0031935Y0020986D02*
X0001020Y0020986D01*
X0001020Y0020948D02*
X0031935Y0020948D01*
X0031935Y0020910D02*
X0001020Y0020910D01*
X0001020Y0020873D02*
X0031935Y0020873D01*
X0031935Y0020835D02*
X0001020Y0020835D01*
X0001020Y0020797D02*
X0031935Y0020797D01*
X0031935Y0020759D02*
X0001020Y0020759D01*
X0001020Y0020721D02*
X0031935Y0020721D01*
X0031935Y0020683D02*
X0001020Y0020683D01*
X0001020Y0020645D02*
X0031935Y0020645D01*
X0031935Y0020607D02*
X0001020Y0020607D01*
X0001020Y0020570D02*
X0031935Y0020570D01*
X0031935Y0020532D02*
X0001020Y0020532D01*
X0001020Y0020494D02*
X0031935Y0020494D01*
X0031935Y0020456D02*
X0001020Y0020456D01*
X0001020Y0020418D02*
X0031935Y0020418D01*
X0031935Y0020380D02*
X0001020Y0020380D01*
X0001020Y0020342D02*
X0031935Y0020342D01*
X0031935Y0020304D02*
X0001020Y0020304D01*
X0001020Y0020266D02*
X0031935Y0020266D01*
X0031935Y0020229D02*
X0001020Y0020229D01*
X0001020Y0020191D02*
X0031935Y0020191D01*
X0031935Y0020153D02*
X0001020Y0020153D01*
X0001020Y0020115D02*
X0031935Y0020115D01*
X0031935Y0020077D02*
X0001020Y0020077D01*
X0001020Y0020039D02*
X0031935Y0020039D01*
X0031935Y0020001D02*
X0001020Y0020001D01*
X0001020Y0019963D02*
X0031935Y0019963D01*
X0031935Y0019926D02*
X0001020Y0019926D01*
X0001020Y0019888D02*
X0031935Y0019888D01*
X0031935Y0019850D02*
X0001020Y0019850D01*
X0001020Y0019812D02*
X0031935Y0019812D01*
X0031935Y0019774D02*
X0001020Y0019774D01*
X0001020Y0019736D02*
X0031935Y0019736D01*
X0031935Y0019698D02*
X0001020Y0019698D01*
X0001020Y0019660D02*
X0031935Y0019660D01*
X0031935Y0019622D02*
X0001020Y0019622D01*
X0001020Y0019585D02*
X0031935Y0019585D01*
X0031935Y0019547D02*
X0001020Y0019547D01*
X0001020Y0019509D02*
X0031935Y0019509D01*
X0031935Y0019471D02*
X0001020Y0019471D01*
X0001020Y0019433D02*
X0031935Y0019433D01*
X0031935Y0019395D02*
X0001020Y0019395D01*
X0001020Y0019357D02*
X0031935Y0019357D01*
X0031935Y0019319D02*
X0001020Y0019319D01*
X0001020Y0019282D02*
X0031935Y0019282D01*
X0031935Y0019244D02*
X0001020Y0019244D01*
X0001020Y0019206D02*
X0031935Y0019206D01*
X0031935Y0019168D02*
X0001020Y0019168D01*
X0001020Y0019130D02*
X0031935Y0019130D01*
X0031935Y0019092D02*
X0001020Y0019092D01*
X0001020Y0019054D02*
X0031935Y0019054D01*
X0031935Y0019016D02*
X0001020Y0019016D01*
X0001020Y0018978D02*
X0031935Y0018978D01*
X0031935Y0018941D02*
X0001020Y0018941D01*
X0001020Y0018903D02*
X0031935Y0018903D01*
X0031935Y0018865D02*
X0001020Y0018865D01*
X0001020Y0018827D02*
X0031935Y0018827D01*
X0031935Y0018789D02*
X0001020Y0018789D01*
X0001020Y0018751D02*
X0031935Y0018751D01*
X0031935Y0018713D02*
X0001020Y0018713D01*
X0001020Y0018675D02*
X0031935Y0018675D01*
X0031935Y0018638D02*
X0001020Y0018638D01*
X0001020Y0018600D02*
X0031935Y0018600D01*
X0031935Y0018562D02*
X0001020Y0018562D01*
X0001020Y0018524D02*
X0031935Y0018524D01*
X0031935Y0018486D02*
X0001020Y0018486D01*
X0001020Y0018448D02*
X0031935Y0018448D01*
X0031935Y0018410D02*
X0001020Y0018410D01*
X0001020Y0018372D02*
X0031935Y0018372D01*
X0031935Y0018335D02*
X0001020Y0018335D01*
X0001020Y0018297D02*
X0031935Y0018297D01*
X0031935Y0018259D02*
X0001020Y0018259D01*
X0001020Y0018221D02*
X0031935Y0018221D01*
X0031935Y0018183D02*
X0001020Y0018183D01*
X0001020Y0018145D02*
X0031935Y0018145D01*
X0031935Y0018107D02*
X0001020Y0018107D01*
X0001020Y0018069D02*
X0031935Y0018069D01*
X0031935Y0018031D02*
X0001020Y0018031D01*
X0001020Y0017994D02*
X0031935Y0017994D01*
X0031935Y0017956D02*
X0001020Y0017956D01*
X0001020Y0017918D02*
X0031935Y0017918D01*
X0031935Y0017880D02*
X0001020Y0017880D01*
X0001020Y0017842D02*
X0031935Y0017842D01*
X0031935Y0017804D02*
X0001020Y0017804D01*
X0001020Y0017766D02*
X0031935Y0017766D01*
X0031935Y0017728D02*
X0001020Y0017728D01*
X0001020Y0017691D02*
X0031935Y0017691D01*
X0031935Y0017653D02*
X0001020Y0017653D01*
X0001020Y0017615D02*
X0031935Y0017615D01*
X0031935Y0017577D02*
X0001020Y0017577D01*
X0001020Y0017539D02*
X0031935Y0017539D01*
X0031935Y0017501D02*
X0001020Y0017501D01*
X0001020Y0017463D02*
X0031935Y0017463D01*
X0031935Y0017425D02*
X0001020Y0017425D01*
X0001020Y0017387D02*
X0031935Y0017387D01*
X0031935Y0017350D02*
X0001020Y0017350D01*
X0001020Y0017312D02*
X0031935Y0017312D01*
X0031935Y0017274D02*
X0001020Y0017274D01*
X0001020Y0017236D02*
X0031935Y0017236D01*
X0031935Y0017198D02*
X0001020Y0017198D01*
X0001020Y0017160D02*
X0031935Y0017160D01*
X0031935Y0017122D02*
X0001020Y0017122D01*
X0001020Y0017084D02*
X0031935Y0017084D01*
X0031935Y0017047D02*
X0001020Y0017047D01*
X0001020Y0017009D02*
X0031935Y0017009D01*
X0031935Y0016971D02*
X0001020Y0016971D01*
X0001020Y0016933D02*
X0031935Y0016933D01*
X0031935Y0016895D02*
X0001020Y0016895D01*
X0001020Y0016857D02*
X0031935Y0016857D01*
X0031935Y0016819D02*
X0001020Y0016819D01*
X0001020Y0016781D02*
X0031935Y0016781D01*
X0031935Y0016743D02*
X0001020Y0016743D01*
X0001020Y0016706D02*
X0031935Y0016706D01*
X0031935Y0016668D02*
X0001020Y0016668D01*
X0001020Y0016630D02*
X0031935Y0016630D01*
X0031935Y0016592D02*
X0001020Y0016592D01*
X0001020Y0016554D02*
X0031935Y0016554D01*
X0031935Y0016516D02*
X0001020Y0016516D01*
X0001020Y0016478D02*
X0031935Y0016478D01*
X0031935Y0016440D02*
X0001020Y0016440D01*
X0001020Y0016403D02*
X0031935Y0016403D01*
X0031935Y0016365D02*
X0001020Y0016365D01*
X0001020Y0016327D02*
X0031935Y0016327D01*
X0031935Y0016289D02*
X0001020Y0016289D01*
X0001020Y0016251D02*
X0031935Y0016251D01*
X0031935Y0016213D02*
X0001020Y0016213D01*
X0001020Y0016175D02*
X0031935Y0016175D01*
X0031935Y0016137D02*
X0001020Y0016137D01*
X0001020Y0016100D02*
X0031935Y0016100D01*
X0031935Y0016062D02*
X0001020Y0016062D01*
X0001020Y0016024D02*
X0031935Y0016024D01*
X0031935Y0015986D02*
X0001020Y0015986D01*
X0001020Y0015948D02*
X0031935Y0015948D01*
X0031935Y0015910D02*
X0001020Y0015910D01*
X0001020Y0015872D02*
X0031935Y0015872D01*
X0031935Y0015834D02*
X0001020Y0015834D01*
X0001020Y0015796D02*
X0031935Y0015796D01*
X0031935Y0015759D02*
X0001020Y0015759D01*
X0001020Y0015721D02*
X0031935Y0015721D01*
X0031935Y0015683D02*
X0001020Y0015683D01*
X0001020Y0015645D02*
X0031935Y0015645D01*
X0031935Y0015607D02*
X0001020Y0015607D01*
X0001020Y0015569D02*
X0031935Y0015569D01*
X0031935Y0015531D02*
X0001020Y0015531D01*
X0001020Y0015493D02*
X0031935Y0015493D01*
X0031935Y0015456D02*
X0001020Y0015456D01*
X0001020Y0015418D02*
X0031935Y0015418D01*
X0031935Y0015380D02*
X0001020Y0015380D01*
X0001020Y0015342D02*
X0031935Y0015342D01*
X0031935Y0015304D02*
X0001020Y0015304D01*
X0001020Y0015266D02*
X0031935Y0015266D01*
X0031935Y0015228D02*
X0001020Y0015228D01*
X0001020Y0015190D02*
X0031935Y0015190D01*
X0031935Y0015152D02*
X0001020Y0015152D01*
X0001020Y0015115D02*
X0031935Y0015115D01*
X0031935Y0015077D02*
X0001020Y0015077D01*
X0001020Y0015039D02*
X0031935Y0015039D01*
X0031935Y0015001D02*
X0001020Y0015001D01*
X0001020Y0014963D02*
X0031935Y0014963D01*
X0031935Y0014925D02*
X0001020Y0014925D01*
X0001020Y0014887D02*
X0031935Y0014887D01*
X0031935Y0014849D02*
X0001020Y0014849D01*
X0001020Y0014812D02*
X0031935Y0014812D01*
X0031935Y0014774D02*
X0001020Y0014774D01*
X0001020Y0014736D02*
X0031935Y0014736D01*
X0031935Y0014698D02*
X0001020Y0014698D01*
X0001020Y0014660D02*
X0031935Y0014660D01*
X0031935Y0014622D02*
X0001020Y0014622D01*
X0001020Y0014584D02*
X0031935Y0014584D01*
X0031935Y0014546D02*
X0001020Y0014546D01*
X0001020Y0014508D02*
X0031935Y0014508D01*
X0031935Y0014471D02*
X0001020Y0014471D01*
X0001020Y0014433D02*
X0031935Y0014433D01*
X0031935Y0014395D02*
X0001020Y0014395D01*
X0001020Y0014357D02*
X0031935Y0014357D01*
X0031935Y0014319D02*
X0001020Y0014319D01*
X0001020Y0014281D02*
X0031935Y0014281D01*
X0031935Y0014243D02*
X0001020Y0014243D01*
X0001020Y0014205D02*
X0031935Y0014205D01*
X0031935Y0014168D02*
X0001020Y0014168D01*
X0001020Y0014130D02*
X0031935Y0014130D01*
X0031935Y0014092D02*
X0001020Y0014092D01*
X0001020Y0014054D02*
X0031935Y0014054D01*
X0031935Y0014016D02*
X0001020Y0014016D01*
X0001020Y0013978D02*
X0031935Y0013978D01*
X0031935Y0013940D02*
X0001020Y0013940D01*
X0001020Y0013902D02*
X0031935Y0013902D01*
X0031935Y0013865D02*
X0001020Y0013865D01*
X0001020Y0013827D02*
X0031935Y0013827D01*
X0031935Y0013789D02*
X0001020Y0013789D01*
X0001020Y0013751D02*
X0031935Y0013751D01*
X0031935Y0013713D02*
X0001020Y0013713D01*
X0001020Y0013675D02*
X0031935Y0013675D01*
X0031935Y0013637D02*
X0001020Y0013637D01*
X0001020Y0013599D02*
X0031935Y0013599D01*
X0031935Y0013561D02*
X0001020Y0013561D01*
X0001020Y0013524D02*
X0031935Y0013524D01*
X0031935Y0013486D02*
X0001020Y0013486D01*
X0001020Y0013448D02*
X0031935Y0013448D01*
X0031935Y0013410D02*
X0001020Y0013410D01*
X0001020Y0013372D02*
X0031935Y0013372D01*
X0031935Y0013334D02*
X0001020Y0013334D01*
X0001020Y0013296D02*
X0031935Y0013296D01*
X0031935Y0013258D02*
X0001020Y0013258D01*
X0001020Y0013221D02*
X0031935Y0013221D01*
X0031935Y0013183D02*
X0001020Y0013183D01*
X0001020Y0013145D02*
X0031935Y0013145D01*
X0031935Y0013107D02*
X0001020Y0013107D01*
X0001020Y0013069D02*
X0031935Y0013069D01*
X0031935Y0013031D02*
X0001020Y0013031D01*
X0001020Y0012993D02*
X0031935Y0012993D01*
X0031935Y0012955D02*
X0001020Y0012955D01*
X0001020Y0012917D02*
X0031935Y0012917D01*
X0031935Y0012880D02*
X0001020Y0012880D01*
X0001020Y0012842D02*
X0031935Y0012842D01*
X0031935Y0012804D02*
X0001020Y0012804D01*
X0001020Y0012766D02*
X0031935Y0012766D01*
X0031935Y0012728D02*
X0001020Y0012728D01*
X0001020Y0012690D02*
X0031935Y0012690D01*
X0031935Y0012652D02*
X0001020Y0012652D01*
X0001020Y0012614D02*
X0031935Y0012614D01*
X0031935Y0012577D02*
X0001020Y0012577D01*
X0001020Y0012539D02*
X0031935Y0012539D01*
X0031935Y0012501D02*
X0001020Y0012501D01*
X0001020Y0012463D02*
X0031935Y0012463D01*
X0031935Y0012425D02*
X0001020Y0012425D01*
X0001020Y0012387D02*
X0031935Y0012387D01*
X0031935Y0012349D02*
X0001020Y0012349D01*
X0001020Y0012311D02*
X0031935Y0012311D01*
X0031935Y0012273D02*
X0001020Y0012273D01*
X0001020Y0012236D02*
X0031935Y0012236D01*
X0031935Y0012198D02*
X0001020Y0012198D01*
X0001020Y0012160D02*
X0031935Y0012160D01*
X0031935Y0012122D02*
X0001020Y0012122D01*
X0001020Y0012084D02*
X0031935Y0012084D01*
X0031935Y0012046D02*
X0001020Y0012046D01*
X0001020Y0012008D02*
X0031935Y0012008D01*
X0031935Y0011970D02*
X0001020Y0011970D01*
X0001020Y0011933D02*
X0031935Y0011933D01*
X0031935Y0011895D02*
X0001020Y0011895D01*
X0001020Y0011857D02*
X0031935Y0011857D01*
X0031935Y0011819D02*
X0001020Y0011819D01*
X0001020Y0011781D02*
X0031935Y0011781D01*
X0031935Y0011743D02*
X0001020Y0011743D01*
X0001020Y0011705D02*
X0031935Y0011705D01*
X0031935Y0011667D02*
X0001020Y0011667D01*
X0001020Y0011630D02*
X0031935Y0011630D01*
X0031935Y0011592D02*
X0001020Y0011592D01*
X0001020Y0011554D02*
X0031935Y0011554D01*
X0031935Y0011516D02*
X0001020Y0011516D01*
X0001020Y0011478D02*
X0031935Y0011478D01*
X0031935Y0011440D02*
X0001020Y0011440D01*
X0001020Y0011402D02*
X0031935Y0011402D01*
X0031937Y0011364D02*
X0001020Y0011364D01*
X0001020Y0011326D02*
X0031952Y0011326D01*
X0031968Y0011289D02*
X0001020Y0011289D01*
X0001020Y0011251D02*
X0031984Y0011251D01*
X0031999Y0011213D02*
X0001020Y0011213D01*
X0001020Y0011175D02*
X0032015Y0011175D01*
X0032031Y0011137D02*
X0001020Y0011137D01*
X0001020Y0011099D02*
X0032046Y0011099D01*
X0032062Y0011061D02*
X0001020Y0011061D01*
X0001020Y0011023D02*
X0032078Y0011023D01*
X0032094Y0010986D02*
X0001020Y0010986D01*
X0001020Y0010948D02*
X0032109Y0010948D01*
X0032125Y0010910D02*
X0001020Y0010910D01*
X0001020Y0010872D02*
X0032141Y0010872D01*
X0032156Y0010834D02*
X0001020Y0010834D01*
X0001020Y0010796D02*
X0032172Y0010796D01*
X0032188Y0010758D02*
X0001020Y0010758D01*
X0001020Y0010720D02*
X0032203Y0010720D01*
X0032219Y0010682D02*
X0001020Y0010682D01*
X0001020Y0010645D02*
X0032235Y0010645D01*
X0032250Y0010607D02*
X0001020Y0010607D01*
X0001020Y0010569D02*
X0032266Y0010569D01*
X0032282Y0010531D02*
X0001020Y0010531D01*
X0001020Y0010493D02*
X0032298Y0010493D01*
X0032313Y0010455D02*
X0001020Y0010455D01*
X0001020Y0010417D02*
X0032329Y0010417D01*
X0032345Y0010379D02*
X0001020Y0010379D01*
X0001020Y0010342D02*
X0032360Y0010342D01*
X0032376Y0010304D02*
X0001020Y0010304D01*
X0001020Y0010266D02*
X0032392Y0010266D01*
X0032407Y0010228D02*
X0001020Y0010228D01*
X0001020Y0010190D02*
X0032423Y0010190D01*
X0032439Y0010152D02*
X0001020Y0010152D01*
X0001020Y0010114D02*
X0032454Y0010114D01*
X0032470Y0010076D02*
X0001020Y0010076D01*
X0001020Y0010038D02*
X0032486Y0010038D01*
X0032502Y0010001D02*
X0001020Y0010001D01*
X0001020Y0009963D02*
X0032517Y0009963D01*
X0032533Y0009925D02*
X0001020Y0009925D01*
X0001020Y0009887D02*
X0032549Y0009887D01*
X0032564Y0009849D02*
X0001020Y0009849D01*
X0001020Y0009811D02*
X0032580Y0009811D01*
X0032596Y0009773D02*
X0001020Y0009773D01*
X0001020Y0009735D02*
X0032611Y0009735D01*
X0032627Y0009698D02*
X0001020Y0009698D01*
X0001020Y0009660D02*
X0032662Y0009660D01*
X0032700Y0009622D02*
X0001020Y0009622D01*
X0001020Y0009584D02*
X0032738Y0009584D01*
X0032776Y0009546D02*
X0001020Y0009546D01*
X0001020Y0009508D02*
X0032813Y0009508D01*
X0032851Y0009470D02*
X0001020Y0009470D01*
X0001020Y0009432D02*
X0032889Y0009432D01*
X0032927Y0009395D02*
X0001020Y0009395D01*
X0001020Y0009357D02*
X0032965Y0009357D01*
X0033003Y0009319D02*
X0001020Y0009319D01*
X0001020Y0009281D02*
X0033041Y0009281D01*
X0033079Y0009243D02*
X0001020Y0009243D01*
X0001020Y0009205D02*
X0033117Y0009205D01*
X0033154Y0009167D02*
X0001020Y0009167D01*
X0001020Y0009129D02*
X0033192Y0009129D01*
X0033230Y0009091D02*
X0001020Y0009091D01*
X0001020Y0009054D02*
X0033268Y0009054D01*
X0033306Y0009016D02*
X0001020Y0009016D01*
X0001020Y0008978D02*
X0033344Y0008978D01*
X0033382Y0008940D02*
X0001020Y0008940D01*
X0001020Y0008902D02*
X0033420Y0008902D01*
X0033457Y0008864D02*
X0001020Y0008864D01*
X0001020Y0008826D02*
X0033495Y0008826D01*
X0033533Y0008788D02*
X0001020Y0008788D01*
X0001020Y0008751D02*
X0033571Y0008751D01*
X0033609Y0008713D02*
X0001020Y0008713D01*
X0001020Y0008675D02*
X0033647Y0008675D01*
X0033685Y0008637D02*
X0001020Y0008637D01*
X0001020Y0008599D02*
X0033723Y0008599D01*
X0033760Y0008561D02*
X0001020Y0008561D01*
X0001020Y0008523D02*
X0033798Y0008523D01*
X0033836Y0008485D02*
X0001020Y0008485D01*
X0001020Y0008447D02*
X0033874Y0008447D01*
X0033914Y0008410D02*
X0001020Y0008410D01*
X0001020Y0008372D02*
X0034005Y0008372D01*
X0034096Y0008334D02*
X0001020Y0008334D01*
X0001020Y0008296D02*
X0034188Y0008296D01*
X0034279Y0008258D02*
X0001020Y0008258D01*
X0001020Y0008220D02*
X0034371Y0008220D01*
X0034462Y0008182D02*
X0001020Y0008182D01*
X0001020Y0008144D02*
X0034554Y0008144D01*
X0034645Y0008107D02*
X0001020Y0008107D01*
X0001020Y0008069D02*
X0034737Y0008069D01*
X0034828Y0008031D02*
X0001020Y0008031D01*
X0001020Y0007993D02*
X0034920Y0007993D01*
X0035011Y0007955D02*
X0001020Y0007955D01*
X0001020Y0007917D02*
X0035102Y0007917D01*
X0035194Y0007879D02*
X0001020Y0007879D01*
X0001020Y0007841D02*
X0035285Y0007841D01*
X0035377Y0007803D02*
X0001020Y0007803D01*
X0001020Y0007766D02*
X0035468Y0007766D01*
X0035560Y0007728D02*
X0001020Y0007728D01*
X0001020Y0029888D02*
X0056138Y0029888D01*
X0056138Y0029926D02*
X0001020Y0029926D01*
X0001020Y0029964D02*
X0056138Y0029964D01*
X0056138Y0030002D02*
X0001020Y0030002D01*
X0001020Y0030040D02*
X0056138Y0030040D01*
X0056138Y0030078D02*
X0001020Y0030078D01*
X0001020Y0030116D02*
X0056138Y0030116D01*
X0056138Y0030154D02*
X0001020Y0030154D01*
X0001020Y0030191D02*
X0056138Y0030191D01*
X0056138Y0030229D02*
X0001020Y0030229D01*
X0001020Y0030267D02*
X0056138Y0030267D01*
X0056138Y0030305D02*
X0001020Y0030305D01*
X0001020Y0030343D02*
X0056138Y0030343D01*
X0056138Y0030381D02*
X0001020Y0030381D01*
X0001020Y0030419D02*
X0056138Y0030419D01*
X0056138Y0030457D02*
X0001020Y0030457D01*
X0001020Y0030494D02*
X0056138Y0030494D01*
X0056138Y0030532D02*
X0001020Y0030532D01*
X0001020Y0030570D02*
X0056138Y0030570D01*
X0056138Y0030608D02*
X0001020Y0030608D01*
X0001020Y0030646D02*
X0056138Y0030646D01*
X0056138Y0030684D02*
X0001020Y0030684D01*
X0001020Y0030722D02*
X0056138Y0030722D01*
X0056138Y0030760D02*
X0001020Y0030760D01*
X0001020Y0030797D02*
X0056138Y0030797D01*
X0056138Y0030835D02*
X0001020Y0030835D01*
X0001020Y0030873D02*
X0056138Y0030873D01*
X0056138Y0030911D02*
X0001020Y0030911D01*
X0001020Y0030949D02*
X0056138Y0030949D01*
X0056138Y0030987D02*
X0001020Y0030987D01*
X0001020Y0031025D02*
X0056138Y0031025D01*
X0056138Y0031063D02*
X0001020Y0031063D01*
X0001020Y0031101D02*
X0056138Y0031101D01*
X0056138Y0031138D02*
X0001020Y0031138D01*
X0001020Y0031176D02*
X0056138Y0031176D01*
X0056138Y0031214D02*
X0001020Y0031214D01*
X0001020Y0031252D02*
X0056138Y0031252D01*
X0056138Y0031290D02*
X0001020Y0031290D01*
X0001020Y0031328D02*
X0056138Y0031328D01*
X0056138Y0031366D02*
X0001020Y0031366D01*
X0001020Y0031404D02*
X0056138Y0031404D01*
X0056138Y0031441D02*
X0001020Y0031441D01*
X0001020Y0031479D02*
X0056138Y0031479D01*
X0056138Y0031517D02*
X0001020Y0031517D01*
X0001020Y0031555D02*
X0056138Y0031555D01*
X0056138Y0031593D02*
X0001020Y0031593D01*
X0001020Y0031631D02*
X0056138Y0031631D01*
X0056138Y0031669D02*
X0001020Y0031669D01*
X0001020Y0031707D02*
X0056138Y0031707D01*
X0056138Y0031745D02*
X0001020Y0031745D01*
X0001020Y0031782D02*
X0056138Y0031782D01*
X0056138Y0031820D02*
X0001020Y0031820D01*
X0001020Y0031858D02*
X0056138Y0031858D01*
X0056138Y0031896D02*
X0001020Y0031896D01*
X0001020Y0031934D02*
X0056138Y0031934D01*
X0056138Y0031972D02*
X0001020Y0031972D01*
X0001020Y0032010D02*
X0056138Y0032010D01*
X0056138Y0032048D02*
X0001020Y0032048D01*
X0001020Y0032085D02*
X0056138Y0032085D01*
X0056138Y0032123D02*
X0001020Y0032123D01*
X0001020Y0032161D02*
X0056138Y0032161D01*
X0056138Y0032199D02*
X0001020Y0032199D01*
X0001020Y0032237D02*
X0056138Y0032237D01*
X0056138Y0032275D02*
X0001020Y0032275D01*
X0001020Y0032313D02*
X0056138Y0032313D01*
X0056138Y0032351D02*
X0001020Y0032351D01*
X0001020Y0032389D02*
X0056138Y0032389D01*
X0056138Y0032426D02*
X0001020Y0032426D01*
X0001020Y0032464D02*
X0056138Y0032464D01*
X0056138Y0032502D02*
X0001020Y0032502D01*
X0001020Y0032540D02*
X0056138Y0032540D01*
X0056138Y0032578D02*
X0001020Y0032578D01*
X0001020Y0032616D02*
X0056138Y0032616D01*
X0056138Y0032654D02*
X0001020Y0032654D01*
X0001020Y0032692D02*
X0056138Y0032692D01*
X0056138Y0032729D02*
X0001020Y0032729D01*
X0001020Y0032767D02*
X0056138Y0032767D01*
X0056138Y0032805D02*
X0001020Y0032805D01*
X0001020Y0032843D02*
X0056138Y0032843D01*
X0056138Y0032881D02*
X0001020Y0032881D01*
X0001020Y0032919D02*
X0056138Y0032919D01*
X0056138Y0032957D02*
X0001020Y0032957D01*
X0001020Y0032995D02*
X0056138Y0032995D01*
X0056138Y0033032D02*
X0001020Y0033032D01*
X0001020Y0033070D02*
X0056138Y0033070D01*
X0056138Y0033108D02*
X0001020Y0033108D01*
X0001020Y0033146D02*
X0056138Y0033146D01*
X0056138Y0033184D02*
X0001020Y0033184D01*
X0001020Y0033222D02*
X0056138Y0033222D01*
X0056138Y0033260D02*
X0001020Y0033260D01*
X0001020Y0033298D02*
X0056138Y0033298D01*
X0056138Y0033336D02*
X0001020Y0033336D01*
X0001020Y0033373D02*
X0056138Y0033373D01*
X0056138Y0033411D02*
X0001020Y0033411D01*
X0001020Y0033449D02*
X0056138Y0033449D01*
X0056138Y0033487D02*
X0001020Y0033487D01*
X0001020Y0033525D02*
X0007294Y0033525D01*
X0007321Y0033514D02*
X0009679Y0033514D01*
X0011856Y0034416D01*
X0013523Y0036083D01*
X0014425Y0038260D01*
X0056138Y0038260D01*
X0056138Y0038222D02*
X0014409Y0038222D01*
X0014394Y0038184D02*
X0056138Y0038184D01*
X0056138Y0038146D02*
X0014378Y0038146D01*
X0014362Y0038109D02*
X0056138Y0038109D01*
X0056138Y0038071D02*
X0014347Y0038071D01*
X0014331Y0038033D02*
X0056138Y0038033D01*
X0056138Y0037995D02*
X0014315Y0037995D01*
X0014300Y0037957D02*
X0056138Y0037957D01*
X0056138Y0037919D02*
X0014284Y0037919D01*
X0014268Y0037881D02*
X0056138Y0037881D01*
X0056138Y0037843D02*
X0014252Y0037843D01*
X0014237Y0037806D02*
X0056138Y0037806D01*
X0056138Y0037768D02*
X0014221Y0037768D01*
X0014205Y0037730D02*
X0056138Y0037730D01*
X0056138Y0037692D02*
X0014190Y0037692D01*
X0014174Y0037654D02*
X0056138Y0037654D01*
X0056138Y0037616D02*
X0014158Y0037616D01*
X0014143Y0037578D02*
X0056138Y0037578D01*
X0056138Y0037540D02*
X0014127Y0037540D01*
X0014111Y0037502D02*
X0056138Y0037502D01*
X0056138Y0037465D02*
X0014096Y0037465D01*
X0014080Y0037427D02*
X0056138Y0037427D01*
X0056138Y0037389D02*
X0014064Y0037389D01*
X0014048Y0037351D02*
X0056138Y0037351D01*
X0056138Y0037313D02*
X0014033Y0037313D01*
X0014017Y0037275D02*
X0056138Y0037275D01*
X0056138Y0037237D02*
X0014001Y0037237D01*
X0013986Y0037199D02*
X0056138Y0037199D01*
X0056138Y0037162D02*
X0013970Y0037162D01*
X0013954Y0037124D02*
X0056138Y0037124D01*
X0056138Y0037086D02*
X0013939Y0037086D01*
X0013923Y0037048D02*
X0056138Y0037048D01*
X0056138Y0037010D02*
X0013907Y0037010D01*
X0013892Y0036972D02*
X0056138Y0036972D01*
X0056138Y0036934D02*
X0013876Y0036934D01*
X0013860Y0036896D02*
X0056138Y0036896D01*
X0056138Y0036859D02*
X0013845Y0036859D01*
X0013829Y0036821D02*
X0056138Y0036821D01*
X0056138Y0036783D02*
X0013813Y0036783D01*
X0013797Y0036745D02*
X0056138Y0036745D01*
X0056138Y0036707D02*
X0013782Y0036707D01*
X0013766Y0036669D02*
X0056138Y0036669D01*
X0056138Y0036631D02*
X0013750Y0036631D01*
X0013735Y0036593D02*
X0056138Y0036593D01*
X0056138Y0036555D02*
X0013719Y0036555D01*
X0013703Y0036518D02*
X0056138Y0036518D01*
X0056138Y0036480D02*
X0013688Y0036480D01*
X0013672Y0036442D02*
X0056138Y0036442D01*
X0056138Y0036404D02*
X0013656Y0036404D01*
X0013641Y0036366D02*
X0056138Y0036366D01*
X0056138Y0036328D02*
X0013625Y0036328D01*
X0013609Y0036290D02*
X0056138Y0036290D01*
X0056138Y0036252D02*
X0013593Y0036252D01*
X0013578Y0036215D02*
X0056138Y0036215D01*
X0056138Y0036177D02*
X0013562Y0036177D01*
X0013546Y0036139D02*
X0056138Y0036139D01*
X0056138Y0036101D02*
X0013531Y0036101D01*
X0013504Y0036063D02*
X0056138Y0036063D01*
X0056138Y0036025D02*
X0013466Y0036025D01*
X0013428Y0035987D02*
X0056138Y0035987D01*
X0056138Y0035949D02*
X0013390Y0035949D01*
X0013352Y0035911D02*
X0056138Y0035911D01*
X0056138Y0035874D02*
X0013314Y0035874D01*
X0013276Y0035836D02*
X0056138Y0035836D01*
X0056138Y0035798D02*
X0013238Y0035798D01*
X0013200Y0035760D02*
X0056138Y0035760D01*
X0056138Y0035722D02*
X0013163Y0035722D01*
X0013125Y0035684D02*
X0056138Y0035684D01*
X0056138Y0035646D02*
X0013087Y0035646D01*
X0013049Y0035608D02*
X0056138Y0035608D01*
X0056138Y0035571D02*
X0013011Y0035571D01*
X0012973Y0035533D02*
X0056138Y0035533D01*
X0056138Y0035495D02*
X0012935Y0035495D01*
X0012897Y0035457D02*
X0056138Y0035457D01*
X0056138Y0035419D02*
X0012860Y0035419D01*
X0012822Y0035381D02*
X0056138Y0035381D01*
X0056138Y0035343D02*
X0012784Y0035343D01*
X0012746Y0035305D02*
X0056138Y0035305D01*
X0056138Y0035267D02*
X0012708Y0035267D01*
X0012670Y0035230D02*
X0056138Y0035230D01*
X0056138Y0035192D02*
X0012632Y0035192D01*
X0012594Y0035154D02*
X0056138Y0035154D01*
X0056138Y0035116D02*
X0012556Y0035116D01*
X0012519Y0035078D02*
X0056138Y0035078D01*
X0056138Y0035040D02*
X0012481Y0035040D01*
X0012443Y0035002D02*
X0056138Y0035002D01*
X0056138Y0034964D02*
X0012405Y0034964D01*
X0012367Y0034927D02*
X0056138Y0034927D01*
X0056138Y0034889D02*
X0012329Y0034889D01*
X0012291Y0034851D02*
X0056138Y0034851D01*
X0056138Y0034813D02*
X0012253Y0034813D01*
X0012216Y0034775D02*
X0056138Y0034775D01*
X0056138Y0034737D02*
X0012178Y0034737D01*
X0012140Y0034699D02*
X0056138Y0034699D01*
X0056138Y0034661D02*
X0012102Y0034661D01*
X0012064Y0034624D02*
X0056138Y0034624D01*
X0056138Y0034586D02*
X0012026Y0034586D01*
X0011988Y0034548D02*
X0056138Y0034548D01*
X0056138Y0034510D02*
X0011950Y0034510D01*
X0011912Y0034472D02*
X0056138Y0034472D01*
X0056138Y0034434D02*
X0011875Y0034434D01*
X0011809Y0034396D02*
X0056138Y0034396D01*
X0056138Y0034358D02*
X0011718Y0034358D01*
X0011626Y0034320D02*
X0056138Y0034320D01*
X0056138Y0034283D02*
X0011535Y0034283D01*
X0011443Y0034245D02*
X0056138Y0034245D01*
X0056138Y0034207D02*
X0011352Y0034207D01*
X0011260Y0034169D02*
X0056138Y0034169D01*
X0056138Y0034131D02*
X0011169Y0034131D01*
X0011077Y0034093D02*
X0056138Y0034093D01*
X0056138Y0034055D02*
X0010986Y0034055D01*
X0010894Y0034017D02*
X0056138Y0034017D01*
X0056138Y0033980D02*
X0010803Y0033980D01*
X0010712Y0033942D02*
X0056138Y0033942D01*
X0056138Y0033904D02*
X0010620Y0033904D01*
X0010529Y0033866D02*
X0056138Y0033866D01*
X0056138Y0033828D02*
X0010437Y0033828D01*
X0010346Y0033790D02*
X0056138Y0033790D01*
X0056138Y0033752D02*
X0010254Y0033752D01*
X0010163Y0033714D02*
X0056138Y0033714D01*
X0056138Y0033676D02*
X0010071Y0033676D01*
X0009980Y0033639D02*
X0056138Y0033639D01*
X0056138Y0033601D02*
X0009888Y0033601D01*
X0009797Y0033563D02*
X0056138Y0033563D01*
X0056138Y0033525D02*
X0009706Y0033525D01*
X0007321Y0033514D02*
X0005144Y0034416D01*
X0003477Y0036083D01*
X0002575Y0038260D01*
X0001020Y0038260D01*
X0001020Y0038222D02*
X0002591Y0038222D01*
X0002606Y0038184D02*
X0001020Y0038184D01*
X0001020Y0038146D02*
X0002622Y0038146D01*
X0002638Y0038109D02*
X0001020Y0038109D01*
X0001020Y0038071D02*
X0002653Y0038071D01*
X0002669Y0038033D02*
X0001020Y0038033D01*
X0001020Y0037995D02*
X0002685Y0037995D01*
X0002700Y0037957D02*
X0001020Y0037957D01*
X0001020Y0037919D02*
X0002716Y0037919D01*
X0002732Y0037881D02*
X0001020Y0037881D01*
X0001020Y0037843D02*
X0002748Y0037843D01*
X0002763Y0037806D02*
X0001020Y0037806D01*
X0001020Y0037768D02*
X0002779Y0037768D01*
X0002795Y0037730D02*
X0001020Y0037730D01*
X0001020Y0037692D02*
X0002810Y0037692D01*
X0002826Y0037654D02*
X0001020Y0037654D01*
X0001020Y0037616D02*
X0002842Y0037616D01*
X0002857Y0037578D02*
X0001020Y0037578D01*
X0001020Y0037540D02*
X0002873Y0037540D01*
X0002889Y0037502D02*
X0001020Y0037502D01*
X0001020Y0037465D02*
X0002904Y0037465D01*
X0002920Y0037427D02*
X0001020Y0037427D01*
X0001020Y0037389D02*
X0002936Y0037389D01*
X0002951Y0037351D02*
X0001020Y0037351D01*
X0001020Y0037313D02*
X0002967Y0037313D01*
X0002983Y0037275D02*
X0001020Y0037275D01*
X0001020Y0037237D02*
X0002999Y0037237D01*
X0003014Y0037199D02*
X0001020Y0037199D01*
X0001020Y0037162D02*
X0003030Y0037162D01*
X0003046Y0037124D02*
X0001020Y0037124D01*
X0001020Y0037086D02*
X0003061Y0037086D01*
X0003077Y0037048D02*
X0001020Y0037048D01*
X0001020Y0037010D02*
X0003093Y0037010D01*
X0003108Y0036972D02*
X0001020Y0036972D01*
X0001020Y0036934D02*
X0003124Y0036934D01*
X0003140Y0036896D02*
X0001020Y0036896D01*
X0001020Y0036859D02*
X0003155Y0036859D01*
X0003171Y0036821D02*
X0001020Y0036821D01*
X0001020Y0036783D02*
X0003187Y0036783D01*
X0003203Y0036745D02*
X0001020Y0036745D01*
X0001020Y0036707D02*
X0003218Y0036707D01*
X0003234Y0036669D02*
X0001020Y0036669D01*
X0001020Y0036631D02*
X0003250Y0036631D01*
X0003265Y0036593D02*
X0001020Y0036593D01*
X0001020Y0036555D02*
X0003281Y0036555D01*
X0003297Y0036518D02*
X0001020Y0036518D01*
X0001020Y0036480D02*
X0003312Y0036480D01*
X0003328Y0036442D02*
X0001020Y0036442D01*
X0001020Y0036404D02*
X0003344Y0036404D01*
X0003359Y0036366D02*
X0001020Y0036366D01*
X0001020Y0036328D02*
X0003375Y0036328D01*
X0003391Y0036290D02*
X0001020Y0036290D01*
X0001020Y0036252D02*
X0003407Y0036252D01*
X0003422Y0036215D02*
X0001020Y0036215D01*
X0001020Y0036177D02*
X0003438Y0036177D01*
X0003454Y0036139D02*
X0001020Y0036139D01*
X0001020Y0036101D02*
X0003469Y0036101D01*
X0003496Y0036063D02*
X0001020Y0036063D01*
X0001020Y0036025D02*
X0003534Y0036025D01*
X0003572Y0035987D02*
X0001020Y0035987D01*
X0001020Y0035949D02*
X0003610Y0035949D01*
X0003648Y0035911D02*
X0001020Y0035911D01*
X0001020Y0035874D02*
X0003686Y0035874D01*
X0003724Y0035836D02*
X0001020Y0035836D01*
X0001020Y0035798D02*
X0003762Y0035798D01*
X0003800Y0035760D02*
X0001020Y0035760D01*
X0001020Y0035722D02*
X0003837Y0035722D01*
X0003875Y0035684D02*
X0001020Y0035684D01*
X0001020Y0035646D02*
X0003913Y0035646D01*
X0003951Y0035608D02*
X0001020Y0035608D01*
X0001020Y0035571D02*
X0003989Y0035571D01*
X0004027Y0035533D02*
X0001020Y0035533D01*
X0001020Y0035495D02*
X0004065Y0035495D01*
X0004103Y0035457D02*
X0001020Y0035457D01*
X0001020Y0035419D02*
X0004140Y0035419D01*
X0004178Y0035381D02*
X0001020Y0035381D01*
X0001020Y0035343D02*
X0004216Y0035343D01*
X0004254Y0035305D02*
X0001020Y0035305D01*
X0001020Y0035267D02*
X0004292Y0035267D01*
X0004330Y0035230D02*
X0001020Y0035230D01*
X0001020Y0035192D02*
X0004368Y0035192D01*
X0004406Y0035154D02*
X0001020Y0035154D01*
X0001020Y0035116D02*
X0004444Y0035116D01*
X0004481Y0035078D02*
X0001020Y0035078D01*
X0001020Y0035040D02*
X0004519Y0035040D01*
X0004557Y0035002D02*
X0001020Y0035002D01*
X0001020Y0034964D02*
X0004595Y0034964D01*
X0004633Y0034927D02*
X0001020Y0034927D01*
X0001020Y0034889D02*
X0004671Y0034889D01*
X0004709Y0034851D02*
X0001020Y0034851D01*
X0001020Y0034813D02*
X0004747Y0034813D01*
X0004784Y0034775D02*
X0001020Y0034775D01*
X0001020Y0034737D02*
X0004822Y0034737D01*
X0004860Y0034699D02*
X0001020Y0034699D01*
X0001020Y0034661D02*
X0004898Y0034661D01*
X0004936Y0034624D02*
X0001020Y0034624D01*
X0001020Y0034586D02*
X0004974Y0034586D01*
X0005012Y0034548D02*
X0001020Y0034548D01*
X0001020Y0034510D02*
X0005050Y0034510D01*
X0005087Y0034472D02*
X0001020Y0034472D01*
X0001020Y0034434D02*
X0005125Y0034434D01*
X0005191Y0034396D02*
X0001020Y0034396D01*
X0001020Y0034358D02*
X0005282Y0034358D01*
X0005374Y0034320D02*
X0001020Y0034320D01*
X0001020Y0034283D02*
X0005465Y0034283D01*
X0005557Y0034245D02*
X0001020Y0034245D01*
X0001020Y0034207D02*
X0005648Y0034207D01*
X0005740Y0034169D02*
X0001020Y0034169D01*
X0001020Y0034131D02*
X0005831Y0034131D01*
X0005923Y0034093D02*
X0001020Y0034093D01*
X0001020Y0034055D02*
X0006014Y0034055D01*
X0006106Y0034017D02*
X0001020Y0034017D01*
X0001020Y0033980D02*
X0006197Y0033980D01*
X0006288Y0033942D02*
X0001020Y0033942D01*
X0001020Y0033904D02*
X0006380Y0033904D01*
X0006471Y0033866D02*
X0001020Y0033866D01*
X0001020Y0033828D02*
X0006563Y0033828D01*
X0006654Y0033790D02*
X0001020Y0033790D01*
X0001020Y0033752D02*
X0006746Y0033752D01*
X0006837Y0033714D02*
X0001020Y0033714D01*
X0001020Y0033676D02*
X0006929Y0033676D01*
X0007020Y0033639D02*
X0001020Y0033639D01*
X0001020Y0033601D02*
X0007112Y0033601D01*
X0007203Y0033563D02*
X0001020Y0033563D01*
X0001020Y0038298D02*
X0002575Y0038298D01*
X0002575Y0038260D02*
X0002575Y0040618D01*
X0003477Y0042795D01*
X0005144Y0044462D01*
X0007321Y0045364D01*
X0009679Y0045364D01*
X0011856Y0044462D01*
X0013523Y0042795D01*
X0014425Y0040618D01*
X0014425Y0038260D01*
X0014425Y0038298D02*
X0056138Y0038298D01*
X0056138Y0038336D02*
X0014425Y0038336D01*
X0014425Y0038374D02*
X0056138Y0038374D01*
X0056138Y0038412D02*
X0014425Y0038412D01*
X0014425Y0038450D02*
X0056138Y0038450D01*
X0056138Y0038487D02*
X0014425Y0038487D01*
X0014425Y0038525D02*
X0056138Y0038525D01*
X0056138Y0038563D02*
X0014425Y0038563D01*
X0014425Y0038601D02*
X0056138Y0038601D01*
X0056138Y0038639D02*
X0014425Y0038639D01*
X0014425Y0038677D02*
X0056138Y0038677D01*
X0056138Y0038715D02*
X0014425Y0038715D01*
X0014425Y0038753D02*
X0056138Y0038753D01*
X0056138Y0038790D02*
X0014425Y0038790D01*
X0014425Y0038828D02*
X0056138Y0038828D01*
X0056138Y0038866D02*
X0014425Y0038866D01*
X0014425Y0038904D02*
X0056138Y0038904D01*
X0056138Y0038942D02*
X0014425Y0038942D01*
X0014425Y0038980D02*
X0056138Y0038980D01*
X0056138Y0039018D02*
X0014425Y0039018D01*
X0014425Y0039056D02*
X0056138Y0039056D01*
X0056138Y0039094D02*
X0014425Y0039094D01*
X0014425Y0039131D02*
X0056138Y0039131D01*
X0056138Y0039169D02*
X0014425Y0039169D01*
X0014425Y0039207D02*
X0056138Y0039207D01*
X0056138Y0039245D02*
X0014425Y0039245D01*
X0014425Y0039283D02*
X0056138Y0039283D01*
X0056138Y0039321D02*
X0014425Y0039321D01*
X0014425Y0039359D02*
X0056138Y0039359D01*
X0056138Y0039397D02*
X0014425Y0039397D01*
X0014425Y0039434D02*
X0056138Y0039434D01*
X0056138Y0039472D02*
X0014425Y0039472D01*
X0014425Y0039510D02*
X0056138Y0039510D01*
X0056138Y0039548D02*
X0014425Y0039548D01*
X0014425Y0039586D02*
X0056138Y0039586D01*
X0056138Y0039624D02*
X0014425Y0039624D01*
X0014425Y0039662D02*
X0056138Y0039662D01*
X0056138Y0039700D02*
X0014425Y0039700D01*
X0014425Y0039738D02*
X0056138Y0039738D01*
X0056138Y0039775D02*
X0014425Y0039775D01*
X0014425Y0039813D02*
X0056138Y0039813D01*
X0056138Y0039851D02*
X0014425Y0039851D01*
X0014425Y0039889D02*
X0056138Y0039889D01*
X0056138Y0039927D02*
X0014425Y0039927D01*
X0014425Y0039965D02*
X0056138Y0039965D01*
X0056138Y0040003D02*
X0014425Y0040003D01*
X0014425Y0040041D02*
X0056138Y0040041D01*
X0056138Y0040078D02*
X0014425Y0040078D01*
X0014425Y0040116D02*
X0056138Y0040116D01*
X0056138Y0040154D02*
X0014425Y0040154D01*
X0014425Y0040192D02*
X0056138Y0040192D01*
X0056138Y0040230D02*
X0014425Y0040230D01*
X0014425Y0040268D02*
X0056138Y0040268D01*
X0056138Y0040306D02*
X0014425Y0040306D01*
X0014425Y0040344D02*
X0056138Y0040344D01*
X0056138Y0040381D02*
X0014425Y0040381D01*
X0014425Y0040419D02*
X0056138Y0040419D01*
X0056138Y0040457D02*
X0014425Y0040457D01*
X0014425Y0040495D02*
X0056138Y0040495D01*
X0056138Y0040533D02*
X0014425Y0040533D01*
X0014425Y0040571D02*
X0056138Y0040571D01*
X0056138Y0040609D02*
X0014425Y0040609D01*
X0014413Y0040647D02*
X0056138Y0040647D01*
X0056138Y0040685D02*
X0014397Y0040685D01*
X0014382Y0040722D02*
X0056138Y0040722D01*
X0056138Y0040760D02*
X0014366Y0040760D01*
X0014350Y0040798D02*
X0056138Y0040798D01*
X0056138Y0040836D02*
X0014335Y0040836D01*
X0014319Y0040874D02*
X0056138Y0040874D01*
X0056138Y0040912D02*
X0014303Y0040912D01*
X0014288Y0040950D02*
X0056138Y0040950D01*
X0056138Y0040988D02*
X0014272Y0040988D01*
X0014256Y0041025D02*
X0056138Y0041025D01*
X0056138Y0041063D02*
X0014241Y0041063D01*
X0014225Y0041101D02*
X0056138Y0041101D01*
X0056138Y0041139D02*
X0014209Y0041139D01*
X0014193Y0041177D02*
X0056138Y0041177D01*
X0056138Y0041215D02*
X0014178Y0041215D01*
X0014162Y0041253D02*
X0056138Y0041253D01*
X0056138Y0041291D02*
X0014146Y0041291D01*
X0014131Y0041329D02*
X0056138Y0041329D01*
X0056138Y0041366D02*
X0014115Y0041366D01*
X0014099Y0041404D02*
X0056138Y0041404D01*
X0056138Y0041442D02*
X0014084Y0041442D01*
X0014068Y0041480D02*
X0056138Y0041480D01*
X0056138Y0041518D02*
X0014052Y0041518D01*
X0014037Y0041556D02*
X0056138Y0041556D01*
X0056138Y0041594D02*
X0014021Y0041594D01*
X0014005Y0041632D02*
X0056138Y0041632D01*
X0056138Y0041669D02*
X0013989Y0041669D01*
X0013974Y0041707D02*
X0056138Y0041707D01*
X0056138Y0041745D02*
X0013958Y0041745D01*
X0013942Y0041783D02*
X0056138Y0041783D01*
X0056138Y0041821D02*
X0013927Y0041821D01*
X0013911Y0041859D02*
X0056138Y0041859D01*
X0056138Y0041897D02*
X0013895Y0041897D01*
X0013880Y0041935D02*
X0056138Y0041935D01*
X0056138Y0041973D02*
X0013864Y0041973D01*
X0013848Y0042010D02*
X0056138Y0042010D01*
X0056138Y0042048D02*
X0013833Y0042048D01*
X0013817Y0042086D02*
X0056138Y0042086D01*
X0056138Y0042124D02*
X0013801Y0042124D01*
X0013786Y0042162D02*
X0056138Y0042162D01*
X0056138Y0042200D02*
X0013770Y0042200D01*
X0013754Y0042238D02*
X0056138Y0042238D01*
X0056138Y0042276D02*
X0013738Y0042276D01*
X0013723Y0042313D02*
X0056138Y0042313D01*
X0056138Y0042351D02*
X0013707Y0042351D01*
X0013691Y0042389D02*
X0056138Y0042389D01*
X0056138Y0042427D02*
X0013676Y0042427D01*
X0013660Y0042465D02*
X0056138Y0042465D01*
X0056138Y0042503D02*
X0013644Y0042503D01*
X0013629Y0042541D02*
X0056138Y0042541D01*
X0056138Y0042579D02*
X0013613Y0042579D01*
X0013597Y0042616D02*
X0056138Y0042616D01*
X0056138Y0042654D02*
X0013582Y0042654D01*
X0013566Y0042692D02*
X0056138Y0042692D01*
X0056138Y0042730D02*
X0013550Y0042730D01*
X0013534Y0042768D02*
X0056138Y0042768D01*
X0056138Y0042806D02*
X0013513Y0042806D01*
X0013475Y0042844D02*
X0056138Y0042844D01*
X0056138Y0042882D02*
X0013437Y0042882D01*
X0013399Y0042920D02*
X0056138Y0042920D01*
X0056138Y0042957D02*
X0013361Y0042957D01*
X0013323Y0042995D02*
X0056138Y0042995D01*
X0056138Y0043033D02*
X0013285Y0043033D01*
X0013247Y0043071D02*
X0056138Y0043071D01*
X0056138Y0043109D02*
X0013210Y0043109D01*
X0013172Y0043147D02*
X0056138Y0043147D01*
X0056138Y0043185D02*
X0013134Y0043185D01*
X0013096Y0043223D02*
X0056138Y0043223D01*
X0056138Y0043260D02*
X0013058Y0043260D01*
X0013020Y0043298D02*
X0056138Y0043298D01*
X0056138Y0043336D02*
X0012982Y0043336D01*
X0012944Y0043374D02*
X0056138Y0043374D01*
X0056138Y0043412D02*
X0012906Y0043412D01*
X0012869Y0043450D02*
X0056138Y0043450D01*
X0056138Y0043488D02*
X0012831Y0043488D01*
X0012793Y0043526D02*
X0056138Y0043526D01*
X0056138Y0043564D02*
X0012755Y0043564D01*
X0012717Y0043601D02*
X0056138Y0043601D01*
X0056138Y0043639D02*
X0012679Y0043639D01*
X0012641Y0043677D02*
X0056138Y0043677D01*
X0056138Y0043715D02*
X0012603Y0043715D01*
X0012566Y0043753D02*
X0056138Y0043753D01*
X0056138Y0043791D02*
X0012528Y0043791D01*
X0012490Y0043829D02*
X0056138Y0043829D01*
X0056138Y0043867D02*
X0012452Y0043867D01*
X0012414Y0043904D02*
X0056138Y0043904D01*
X0056138Y0043942D02*
X0012376Y0043942D01*
X0012338Y0043980D02*
X0056138Y0043980D01*
X0056138Y0044018D02*
X0012300Y0044018D01*
X0012262Y0044056D02*
X0056138Y0044056D01*
X0056138Y0044094D02*
X0012225Y0044094D01*
X0012187Y0044132D02*
X0056138Y0044132D01*
X0056138Y0044170D02*
X0012149Y0044170D01*
X0012111Y0044208D02*
X0056138Y0044208D01*
X0056138Y0044245D02*
X0012073Y0044245D01*
X0012035Y0044283D02*
X0056138Y0044283D01*
X0056138Y0044321D02*
X0011997Y0044321D01*
X0011959Y0044359D02*
X0056138Y0044359D01*
X0056138Y0044397D02*
X0011922Y0044397D01*
X0011884Y0044435D02*
X0056138Y0044435D01*
X0056138Y0044473D02*
X0011831Y0044473D01*
X0011739Y0044511D02*
X0056138Y0044511D01*
X0056138Y0044548D02*
X0011648Y0044548D01*
X0011556Y0044586D02*
X0056138Y0044586D01*
X0056138Y0044624D02*
X0011465Y0044624D01*
X0011374Y0044662D02*
X0056138Y0044662D01*
X0056138Y0044700D02*
X0011282Y0044700D01*
X0011191Y0044738D02*
X0056138Y0044738D01*
X0056138Y0044776D02*
X0011099Y0044776D01*
X0011008Y0044814D02*
X0056138Y0044814D01*
X0056138Y0044851D02*
X0010916Y0044851D01*
X0010825Y0044889D02*
X0056138Y0044889D01*
X0056138Y0044927D02*
X0010733Y0044927D01*
X0010642Y0044965D02*
X0056138Y0044965D01*
X0056138Y0045003D02*
X0010550Y0045003D01*
X0010459Y0045041D02*
X0056138Y0045041D01*
X0056138Y0045079D02*
X0010368Y0045079D01*
X0010276Y0045117D02*
X0056138Y0045117D01*
X0056138Y0045155D02*
X0010185Y0045155D01*
X0010093Y0045192D02*
X0056138Y0045192D01*
X0056138Y0045230D02*
X0010002Y0045230D01*
X0009910Y0045268D02*
X0056138Y0045268D01*
X0056138Y0045306D02*
X0009819Y0045306D01*
X0009727Y0045344D02*
X0056138Y0045344D01*
X0056138Y0045382D02*
X0001020Y0045382D01*
X0001020Y0045420D02*
X0056138Y0045420D01*
X0056138Y0045458D02*
X0001020Y0045458D01*
X0001020Y0045495D02*
X0056138Y0045495D01*
X0056138Y0045533D02*
X0001020Y0045533D01*
X0001020Y0045571D02*
X0056138Y0045571D01*
X0056138Y0045609D02*
X0001020Y0045609D01*
X0001020Y0045647D02*
X0056138Y0045647D01*
X0056138Y0045685D02*
X0001020Y0045685D01*
X0001020Y0045723D02*
X0056138Y0045723D01*
X0056138Y0045761D02*
X0001020Y0045761D01*
X0001020Y0045799D02*
X0056138Y0045799D01*
X0056138Y0045836D02*
X0001020Y0045836D01*
X0001020Y0045874D02*
X0056138Y0045874D01*
X0056138Y0045912D02*
X0001020Y0045912D01*
X0001020Y0045950D02*
X0056138Y0045950D01*
X0056138Y0045988D02*
X0001020Y0045988D01*
X0001020Y0046026D02*
X0056138Y0046026D01*
X0056138Y0046064D02*
X0001020Y0046064D01*
X0001020Y0046102D02*
X0056138Y0046102D01*
X0056138Y0046139D02*
X0001020Y0046139D01*
X0001020Y0046177D02*
X0056138Y0046177D01*
X0056138Y0046215D02*
X0001020Y0046215D01*
X0001020Y0046253D02*
X0056138Y0046253D01*
X0056138Y0046291D02*
X0001020Y0046291D01*
X0001020Y0046329D02*
X0056138Y0046329D01*
X0056138Y0046367D02*
X0001020Y0046367D01*
X0001020Y0046405D02*
X0056138Y0046405D01*
X0056138Y0046443D02*
X0001020Y0046443D01*
X0001020Y0046480D02*
X0056138Y0046480D01*
X0056138Y0046518D02*
X0001020Y0046518D01*
X0001020Y0046556D02*
X0056138Y0046556D01*
X0056138Y0046594D02*
X0001020Y0046594D01*
X0001020Y0046632D02*
X0056138Y0046632D01*
X0056138Y0046670D02*
X0001020Y0046670D01*
X0001020Y0046708D02*
X0056138Y0046708D01*
X0056138Y0046746D02*
X0001020Y0046746D01*
X0001020Y0046783D02*
X0056138Y0046783D01*
X0056138Y0046821D02*
X0001020Y0046821D01*
X0001020Y0046859D02*
X0056138Y0046859D01*
X0056138Y0046897D02*
X0001020Y0046897D01*
X0001020Y0046935D02*
X0056138Y0046935D01*
X0056138Y0046973D02*
X0001020Y0046973D01*
X0001020Y0047011D02*
X0056138Y0047011D01*
X0056138Y0047049D02*
X0001020Y0047049D01*
X0001020Y0047086D02*
X0056138Y0047086D01*
X0056138Y0047124D02*
X0001020Y0047124D01*
X0001020Y0047162D02*
X0056138Y0047162D01*
X0056138Y0047200D02*
X0001020Y0047200D01*
X0001020Y0047238D02*
X0056138Y0047238D01*
X0056138Y0047276D02*
X0001020Y0047276D01*
X0001020Y0047314D02*
X0056138Y0047314D01*
X0056138Y0047352D02*
X0001020Y0047352D01*
X0001020Y0047390D02*
X0056138Y0047390D01*
X0056138Y0047427D02*
X0001020Y0047427D01*
X0001020Y0047465D02*
X0056138Y0047465D01*
X0056138Y0047503D02*
X0001020Y0047503D01*
X0001020Y0047541D02*
X0056138Y0047541D01*
X0056138Y0047579D02*
X0001020Y0047579D01*
X0001020Y0047617D02*
X0056138Y0047617D01*
X0056138Y0047655D02*
X0001020Y0047655D01*
X0001020Y0047693D02*
X0056138Y0047693D01*
X0056138Y0047730D02*
X0001020Y0047730D01*
X0001020Y0047768D02*
X0056138Y0047768D01*
X0056138Y0047806D02*
X0001020Y0047806D01*
X0001020Y0047844D02*
X0056138Y0047844D01*
X0056138Y0047882D02*
X0001020Y0047882D01*
X0001020Y0047920D02*
X0056138Y0047920D01*
X0056138Y0047958D02*
X0001020Y0047958D01*
X0001020Y0047996D02*
X0056138Y0047996D01*
X0056138Y0048034D02*
X0001020Y0048034D01*
X0001020Y0048071D02*
X0056138Y0048071D01*
X0056138Y0048109D02*
X0001020Y0048109D01*
X0001020Y0048147D02*
X0056138Y0048147D01*
X0056138Y0048185D02*
X0001020Y0048185D01*
X0001020Y0048223D02*
X0056138Y0048223D01*
X0056138Y0048261D02*
X0001020Y0048261D01*
X0001020Y0048299D02*
X0056138Y0048299D01*
X0056138Y0048337D02*
X0001020Y0048337D01*
X0001020Y0048374D02*
X0056138Y0048374D01*
X0056138Y0048412D02*
X0001020Y0048412D01*
X0001020Y0048450D02*
X0056138Y0048450D01*
X0056138Y0048488D02*
X0001020Y0048488D01*
X0001020Y0048526D02*
X0056138Y0048526D01*
X0056138Y0048564D02*
X0001020Y0048564D01*
X0001020Y0048602D02*
X0056138Y0048602D01*
X0056138Y0048640D02*
X0001020Y0048640D01*
X0001020Y0048678D02*
X0056138Y0048678D01*
X0056138Y0048715D02*
X0001020Y0048715D01*
X0001020Y0048753D02*
X0056138Y0048753D01*
X0056138Y0048791D02*
X0001020Y0048791D01*
X0001020Y0048829D02*
X0056138Y0048829D01*
X0056138Y0048867D02*
X0001020Y0048867D01*
X0001020Y0048905D02*
X0056138Y0048905D01*
X0056138Y0048943D02*
X0001020Y0048943D01*
X0001020Y0048981D02*
X0056138Y0048981D01*
X0056138Y0049018D02*
X0001020Y0049018D01*
X0001020Y0049056D02*
X0056138Y0049056D01*
X0056138Y0049094D02*
X0001020Y0049094D01*
X0001020Y0049132D02*
X0056138Y0049132D01*
X0056138Y0049170D02*
X0001020Y0049170D01*
X0001020Y0049208D02*
X0056138Y0049208D01*
X0056138Y0049246D02*
X0001020Y0049246D01*
X0001020Y0049284D02*
X0056138Y0049284D01*
X0056138Y0049321D02*
X0001020Y0049321D01*
X0001020Y0049359D02*
X0056138Y0049359D01*
X0056138Y0049397D02*
X0001020Y0049397D01*
X0001020Y0049435D02*
X0056138Y0049435D01*
X0056138Y0049473D02*
X0001020Y0049473D01*
X0001020Y0049511D02*
X0056138Y0049511D01*
X0056138Y0049549D02*
X0001020Y0049549D01*
X0001020Y0049587D02*
X0056138Y0049587D01*
X0056138Y0049625D02*
X0001020Y0049625D01*
X0001020Y0049662D02*
X0056138Y0049662D01*
X0056138Y0049700D02*
X0001020Y0049700D01*
X0001020Y0049738D02*
X0056138Y0049738D01*
X0056138Y0049776D02*
X0001020Y0049776D01*
X0001020Y0049814D02*
X0056138Y0049814D01*
X0056138Y0049852D02*
X0001020Y0049852D01*
X0001020Y0049890D02*
X0056138Y0049890D01*
X0056138Y0049928D02*
X0001020Y0049928D01*
X0001020Y0049965D02*
X0056138Y0049965D01*
X0056138Y0050003D02*
X0001020Y0050003D01*
X0001020Y0050041D02*
X0056138Y0050041D01*
X0056138Y0050079D02*
X0001020Y0050079D01*
X0001020Y0050117D02*
X0056138Y0050117D01*
X0056138Y0050155D02*
X0001020Y0050155D01*
X0001020Y0050193D02*
X0056138Y0050193D01*
X0056138Y0050231D02*
X0001020Y0050231D01*
X0001020Y0050269D02*
X0056138Y0050269D01*
X0056138Y0050306D02*
X0001020Y0050306D01*
X0001020Y0050344D02*
X0056138Y0050344D01*
X0056138Y0050382D02*
X0001020Y0050382D01*
X0001020Y0050420D02*
X0056138Y0050420D01*
X0056138Y0050458D02*
X0001020Y0050458D01*
X0001020Y0050496D02*
X0056138Y0050496D01*
X0056138Y0050534D02*
X0001020Y0050534D01*
X0001020Y0050572D02*
X0056138Y0050572D01*
X0056138Y0050609D02*
X0001020Y0050609D01*
X0001020Y0050647D02*
X0056138Y0050647D01*
X0056138Y0050685D02*
X0001020Y0050685D01*
X0001020Y0050723D02*
X0056138Y0050723D01*
X0056138Y0050761D02*
X0001020Y0050761D01*
X0001020Y0050799D02*
X0056138Y0050799D01*
X0056138Y0050837D02*
X0001020Y0050837D01*
X0001020Y0050875D02*
X0056138Y0050875D01*
X0056138Y0050913D02*
X0001020Y0050913D01*
X0001020Y0050950D02*
X0056138Y0050950D01*
X0056138Y0050988D02*
X0001020Y0050988D01*
X0001020Y0051026D02*
X0056138Y0051026D01*
X0056138Y0051064D02*
X0001020Y0051064D01*
X0001020Y0051102D02*
X0056138Y0051102D01*
X0056138Y0051140D02*
X0001020Y0051140D01*
X0001020Y0051178D02*
X0056138Y0051178D01*
X0056138Y0051216D02*
X0001020Y0051216D01*
X0001020Y0051253D02*
X0056138Y0051253D01*
X0056138Y0051291D02*
X0001020Y0051291D01*
X0001020Y0051329D02*
X0056138Y0051329D01*
X0056138Y0051367D02*
X0001020Y0051367D01*
X0001020Y0051405D02*
X0056138Y0051405D01*
X0056138Y0051443D02*
X0001020Y0051443D01*
X0001020Y0051481D02*
X0056138Y0051481D01*
X0056138Y0051519D02*
X0001020Y0051519D01*
X0001020Y0051556D02*
X0056138Y0051556D01*
X0056138Y0051594D02*
X0001020Y0051594D01*
X0001020Y0051632D02*
X0056138Y0051632D01*
X0056138Y0051670D02*
X0001020Y0051670D01*
X0001020Y0051708D02*
X0056138Y0051708D01*
X0056138Y0051746D02*
X0001020Y0051746D01*
X0001020Y0051784D02*
X0056138Y0051784D01*
X0056138Y0051822D02*
X0001020Y0051822D01*
X0001020Y0051860D02*
X0056138Y0051860D01*
X0056138Y0051897D02*
X0001020Y0051897D01*
X0001020Y0051935D02*
X0056138Y0051935D01*
X0056138Y0051973D02*
X0001020Y0051973D01*
X0001020Y0052011D02*
X0056138Y0052011D01*
X0056138Y0052049D02*
X0001020Y0052049D01*
X0001020Y0052087D02*
X0056138Y0052087D01*
X0056138Y0052125D02*
X0001020Y0052125D01*
X0001020Y0052163D02*
X0056138Y0052163D01*
X0056138Y0052200D02*
X0001020Y0052200D01*
X0001020Y0052238D02*
X0056138Y0052238D01*
X0056138Y0052276D02*
X0001020Y0052276D01*
X0001020Y0052314D02*
X0056138Y0052314D01*
X0056138Y0052352D02*
X0001020Y0052352D01*
X0001020Y0052390D02*
X0056138Y0052390D01*
X0056138Y0052428D02*
X0001020Y0052428D01*
X0001020Y0052466D02*
X0056138Y0052466D01*
X0056138Y0052504D02*
X0001020Y0052504D01*
X0001020Y0052541D02*
X0056138Y0052541D01*
X0056138Y0052579D02*
X0001020Y0052579D01*
X0001020Y0052617D02*
X0056138Y0052617D01*
X0056138Y0052655D02*
X0001020Y0052655D01*
X0001020Y0052693D02*
X0056138Y0052693D01*
X0056138Y0052731D02*
X0001020Y0052731D01*
X0001020Y0052769D02*
X0056138Y0052769D01*
X0056138Y0052807D02*
X0001020Y0052807D01*
X0001020Y0052844D02*
X0056138Y0052844D01*
X0056138Y0052882D02*
X0001020Y0052882D01*
X0001020Y0052920D02*
X0056138Y0052920D01*
X0056138Y0052958D02*
X0001020Y0052958D01*
X0001020Y0052996D02*
X0056138Y0052996D01*
X0056138Y0053034D02*
X0001020Y0053034D01*
X0001020Y0053072D02*
X0056138Y0053072D01*
X0056138Y0053110D02*
X0001020Y0053110D01*
X0001020Y0053148D02*
X0056138Y0053148D01*
X0056138Y0053185D02*
X0001020Y0053185D01*
X0001020Y0053223D02*
X0056138Y0053223D01*
X0056138Y0053261D02*
X0001020Y0053261D01*
X0001020Y0053299D02*
X0056138Y0053299D01*
X0056138Y0053337D02*
X0001020Y0053337D01*
X0001020Y0053375D02*
X0056138Y0053375D01*
X0056138Y0053413D02*
X0001020Y0053413D01*
X0001020Y0053451D02*
X0056138Y0053451D01*
X0056138Y0053488D02*
X0001020Y0053488D01*
X0001020Y0053526D02*
X0056138Y0053526D01*
X0056138Y0053564D02*
X0001020Y0053564D01*
X0001020Y0053602D02*
X0056138Y0053602D01*
X0056138Y0053640D02*
X0001020Y0053640D01*
X0001020Y0053678D02*
X0056138Y0053678D01*
X0056138Y0053716D02*
X0001020Y0053716D01*
X0001020Y0053754D02*
X0056138Y0053754D01*
X0056138Y0053791D02*
X0001020Y0053791D01*
X0001020Y0053829D02*
X0056138Y0053829D01*
X0056138Y0053867D02*
X0001020Y0053867D01*
X0001020Y0053905D02*
X0056138Y0053905D01*
X0056138Y0053943D02*
X0001020Y0053943D01*
X0001020Y0053981D02*
X0056138Y0053981D01*
X0056138Y0054019D02*
X0001020Y0054019D01*
X0001020Y0054057D02*
X0056138Y0054057D01*
X0056138Y0054095D02*
X0001020Y0054095D01*
X0001020Y0054132D02*
X0056138Y0054132D01*
X0056138Y0054170D02*
X0001020Y0054170D01*
X0001020Y0054208D02*
X0056138Y0054208D01*
X0056138Y0054246D02*
X0001020Y0054246D01*
X0001020Y0054284D02*
X0056138Y0054284D01*
X0056138Y0054322D02*
X0001020Y0054322D01*
X0001020Y0054360D02*
X0056138Y0054360D01*
X0056138Y0054398D02*
X0001020Y0054398D01*
X0001020Y0054435D02*
X0056138Y0054435D01*
X0056138Y0054473D02*
X0001020Y0054473D01*
X0001020Y0054511D02*
X0056138Y0054511D01*
X0056138Y0054549D02*
X0001020Y0054549D01*
X0001020Y0054587D02*
X0056138Y0054587D01*
X0056138Y0054625D02*
X0001020Y0054625D01*
X0001020Y0054663D02*
X0056138Y0054663D01*
X0056138Y0054701D02*
X0001020Y0054701D01*
X0001020Y0054739D02*
X0056138Y0054739D01*
X0056138Y0054776D02*
X0001020Y0054776D01*
X0001020Y0054814D02*
X0056138Y0054814D01*
X0056138Y0054852D02*
X0001020Y0054852D01*
X0001020Y0054890D02*
X0056138Y0054890D01*
X0056138Y0054928D02*
X0001020Y0054928D01*
X0001020Y0054966D02*
X0056138Y0054966D01*
X0056138Y0055004D02*
X0001020Y0055004D01*
X0001020Y0055042D02*
X0056138Y0055042D01*
X0056138Y0055079D02*
X0001020Y0055079D01*
X0001020Y0055117D02*
X0056138Y0055117D01*
X0056138Y0055155D02*
X0001020Y0055155D01*
X0001020Y0055193D02*
X0056138Y0055193D01*
X0056138Y0055231D02*
X0001020Y0055231D01*
X0001020Y0055269D02*
X0056138Y0055269D01*
X0056138Y0055307D02*
X0001020Y0055307D01*
X0001020Y0055345D02*
X0056138Y0055345D01*
X0056138Y0055383D02*
X0001020Y0055383D01*
X0001020Y0055420D02*
X0056138Y0055420D01*
X0056138Y0055458D02*
X0001020Y0055458D01*
X0001020Y0055496D02*
X0056138Y0055496D01*
X0056138Y0055534D02*
X0001020Y0055534D01*
X0001020Y0055572D02*
X0056138Y0055572D01*
X0056138Y0055610D02*
X0001020Y0055610D01*
X0001020Y0055648D02*
X0056138Y0055648D01*
X0056138Y0055686D02*
X0001020Y0055686D01*
X0001020Y0055723D02*
X0056138Y0055723D01*
X0056138Y0055761D02*
X0001020Y0055761D01*
X0001020Y0055799D02*
X0056138Y0055799D01*
X0056138Y0055837D02*
X0001020Y0055837D01*
X0001020Y0055875D02*
X0056138Y0055875D01*
X0056138Y0055913D02*
X0001020Y0055913D01*
X0001020Y0055951D02*
X0056138Y0055951D01*
X0056138Y0055989D02*
X0001020Y0055989D01*
X0001020Y0056027D02*
X0056138Y0056027D01*
X0056138Y0056064D02*
X0001020Y0056064D01*
X0001020Y0056102D02*
X0056138Y0056102D01*
X0056138Y0056140D02*
X0001020Y0056140D01*
X0001020Y0056178D02*
X0056138Y0056178D01*
X0056138Y0056216D02*
X0001020Y0056216D01*
X0001020Y0056254D02*
X0056138Y0056254D01*
X0056138Y0056292D02*
X0001020Y0056292D01*
X0001020Y0056330D02*
X0056138Y0056330D01*
X0056138Y0056367D02*
X0001020Y0056367D01*
X0001020Y0056405D02*
X0056138Y0056405D01*
X0056138Y0056443D02*
X0001020Y0056443D01*
X0001020Y0056481D02*
X0056138Y0056481D01*
X0056138Y0056519D02*
X0001020Y0056519D01*
X0001020Y0056557D02*
X0056138Y0056557D01*
X0056138Y0056595D02*
X0001020Y0056595D01*
X0001020Y0056633D02*
X0056138Y0056633D01*
X0056138Y0056670D02*
X0001020Y0056670D01*
X0001020Y0056708D02*
X0056138Y0056708D01*
X0056138Y0056746D02*
X0001020Y0056746D01*
X0001020Y0056784D02*
X0056138Y0056784D01*
X0056138Y0056822D02*
X0001020Y0056822D01*
X0001020Y0056860D02*
X0056138Y0056860D01*
X0056138Y0056898D02*
X0001020Y0056898D01*
X0001020Y0056936D02*
X0056138Y0056936D01*
X0056138Y0056974D02*
X0001020Y0056974D01*
X0001020Y0057011D02*
X0056138Y0057011D01*
X0056138Y0057049D02*
X0001020Y0057049D01*
X0001020Y0057087D02*
X0056138Y0057087D01*
X0056138Y0057125D02*
X0001020Y0057125D01*
X0001020Y0057163D02*
X0056138Y0057163D01*
X0056138Y0057201D02*
X0001020Y0057201D01*
X0001020Y0057239D02*
X0056138Y0057239D01*
X0056138Y0057277D02*
X0001020Y0057277D01*
X0001020Y0057314D02*
X0056138Y0057314D01*
X0056138Y0057352D02*
X0001020Y0057352D01*
X0001020Y0057390D02*
X0056138Y0057390D01*
X0056138Y0057428D02*
X0001020Y0057428D01*
X0001020Y0057466D02*
X0056138Y0057466D01*
X0056138Y0057504D02*
X0001020Y0057504D01*
X0001020Y0057542D02*
X0056138Y0057542D01*
X0056138Y0057580D02*
X0001020Y0057580D01*
X0001020Y0057618D02*
X0056138Y0057618D01*
X0056138Y0057655D02*
X0001020Y0057655D01*
X0001020Y0057693D02*
X0056138Y0057693D01*
X0056138Y0057731D02*
X0001020Y0057731D01*
X0001020Y0057769D02*
X0056138Y0057769D01*
X0056138Y0057807D02*
X0001020Y0057807D01*
X0001020Y0057845D02*
X0056138Y0057845D01*
X0056138Y0057883D02*
X0001020Y0057883D01*
X0001020Y0057921D02*
X0056138Y0057921D01*
X0056138Y0057958D02*
X0001020Y0057958D01*
X0001020Y0057996D02*
X0056138Y0057996D01*
X0056138Y0058034D02*
X0001020Y0058034D01*
X0001020Y0058072D02*
X0056138Y0058072D01*
X0056138Y0058110D02*
X0001020Y0058110D01*
X0001020Y0058148D02*
X0056138Y0058148D01*
X0056138Y0058186D02*
X0001020Y0058186D01*
X0001020Y0058224D02*
X0056138Y0058224D01*
X0056138Y0058262D02*
X0001020Y0058262D01*
X0001020Y0058299D02*
X0056138Y0058299D01*
X0056138Y0058337D02*
X0001020Y0058337D01*
X0001020Y0058375D02*
X0056138Y0058375D01*
X0056138Y0058413D02*
X0001020Y0058413D01*
X0001020Y0058451D02*
X0056138Y0058451D01*
X0056138Y0058489D02*
X0001020Y0058489D01*
X0001020Y0058527D02*
X0056138Y0058527D01*
X0056138Y0058565D02*
X0001020Y0058565D01*
X0001020Y0058602D02*
X0056138Y0058602D01*
X0056138Y0058640D02*
X0001020Y0058640D01*
X0001020Y0058678D02*
X0056138Y0058678D01*
X0056138Y0058716D02*
X0001020Y0058716D01*
X0001020Y0058754D02*
X0056138Y0058754D01*
X0056138Y0058792D02*
X0001020Y0058792D01*
X0001020Y0058830D02*
X0056138Y0058830D01*
X0056138Y0058868D02*
X0001020Y0058868D01*
X0001020Y0058905D02*
X0056138Y0058905D01*
X0056138Y0058943D02*
X0001020Y0058943D01*
X0001020Y0058981D02*
X0056138Y0058981D01*
X0056138Y0059019D02*
X0001020Y0059019D01*
X0001020Y0059057D02*
X0056138Y0059057D01*
X0056138Y0059095D02*
X0001020Y0059095D01*
X0001020Y0059133D02*
X0056138Y0059133D01*
X0056138Y0059171D02*
X0001020Y0059171D01*
X0001020Y0059209D02*
X0056138Y0059209D01*
X0056138Y0059246D02*
X0001020Y0059246D01*
X0001020Y0059284D02*
X0056138Y0059284D01*
X0056138Y0059322D02*
X0001020Y0059322D01*
X0001020Y0059360D02*
X0056138Y0059360D01*
X0056138Y0059398D02*
X0001020Y0059398D01*
X0001020Y0059436D02*
X0056138Y0059436D01*
X0056138Y0059474D02*
X0001020Y0059474D01*
X0001020Y0059512D02*
X0056138Y0059512D01*
X0056138Y0059549D02*
X0001020Y0059549D01*
X0001020Y0059587D02*
X0056138Y0059587D01*
X0056138Y0059625D02*
X0001020Y0059625D01*
X0001020Y0059663D02*
X0056138Y0059663D01*
X0056138Y0059701D02*
X0001020Y0059701D01*
X0001020Y0059739D02*
X0056138Y0059739D01*
X0056138Y0059777D02*
X0001020Y0059777D01*
X0001020Y0059815D02*
X0056138Y0059815D01*
X0056138Y0059853D02*
X0001020Y0059853D01*
X0001020Y0059890D02*
X0056138Y0059890D01*
X0056138Y0059928D02*
X0001020Y0059928D01*
X0001020Y0059966D02*
X0056138Y0059966D01*
X0056138Y0060004D02*
X0001020Y0060004D01*
X0001020Y0060042D02*
X0056138Y0060042D01*
X0056138Y0060080D02*
X0001020Y0060080D01*
X0001020Y0060118D02*
X0056138Y0060118D01*
X0056138Y0060156D02*
X0001020Y0060156D01*
X0001020Y0060193D02*
X0056138Y0060193D01*
X0056138Y0060231D02*
X0001020Y0060231D01*
X0001020Y0060269D02*
X0056138Y0060269D01*
X0056138Y0060307D02*
X0001020Y0060307D01*
X0001020Y0060345D02*
X0056138Y0060345D01*
X0056138Y0060383D02*
X0001020Y0060383D01*
X0001020Y0060421D02*
X0056138Y0060421D01*
X0056138Y0060459D02*
X0001020Y0060459D01*
X0001020Y0060497D02*
X0056138Y0060497D01*
X0056138Y0060534D02*
X0001020Y0060534D01*
X0001020Y0060572D02*
X0056138Y0060572D01*
X0056138Y0060610D02*
X0001020Y0060610D01*
X0001020Y0060648D02*
X0056138Y0060648D01*
X0056138Y0060686D02*
X0001020Y0060686D01*
X0001020Y0060724D02*
X0056138Y0060724D01*
X0056138Y0060762D02*
X0001020Y0060762D01*
X0001020Y0060800D02*
X0056138Y0060800D01*
X0056138Y0060837D02*
X0001020Y0060837D01*
X0001020Y0060875D02*
X0056138Y0060875D01*
X0056138Y0060913D02*
X0001020Y0060913D01*
X0001020Y0060951D02*
X0056138Y0060951D01*
X0056138Y0060989D02*
X0001020Y0060989D01*
X0001020Y0061027D02*
X0056138Y0061027D01*
X0056138Y0061065D02*
X0001020Y0061065D01*
X0001020Y0061103D02*
X0056138Y0061103D01*
X0056138Y0061140D02*
X0001020Y0061140D01*
X0001020Y0061178D02*
X0056138Y0061178D01*
X0056138Y0061216D02*
X0001020Y0061216D01*
X0001020Y0061254D02*
X0056138Y0061254D01*
X0056138Y0061292D02*
X0001020Y0061292D01*
X0001020Y0061330D02*
X0056138Y0061330D01*
X0056138Y0061368D02*
X0001020Y0061368D01*
X0001020Y0061406D02*
X0056138Y0061406D01*
X0056138Y0061444D02*
X0001020Y0061444D01*
X0001020Y0061481D02*
X0056138Y0061481D01*
X0056138Y0061519D02*
X0001020Y0061519D01*
X0001020Y0061557D02*
X0056138Y0061557D01*
X0056138Y0061595D02*
X0001020Y0061595D01*
X0001020Y0061633D02*
X0056138Y0061633D01*
X0056138Y0061671D02*
X0001020Y0061671D01*
X0001020Y0061709D02*
X0056138Y0061709D01*
X0056138Y0061747D02*
X0001020Y0061747D01*
X0001020Y0061784D02*
X0056138Y0061784D01*
X0056138Y0061822D02*
X0001020Y0061822D01*
X0001020Y0061860D02*
X0056138Y0061860D01*
X0056138Y0061898D02*
X0001020Y0061898D01*
X0001020Y0061936D02*
X0056138Y0061936D01*
X0056138Y0061974D02*
X0001020Y0061974D01*
X0001020Y0062012D02*
X0056138Y0062012D01*
X0056138Y0062050D02*
X0001020Y0062050D01*
X0001020Y0062088D02*
X0056138Y0062088D01*
X0056138Y0062125D02*
X0001020Y0062125D01*
X0001020Y0062163D02*
X0056138Y0062163D01*
X0056138Y0062201D02*
X0001020Y0062201D01*
X0001020Y0062239D02*
X0056138Y0062239D01*
X0056138Y0062277D02*
X0001020Y0062277D01*
X0001020Y0062315D02*
X0056138Y0062315D01*
X0056138Y0062353D02*
X0001020Y0062353D01*
X0001020Y0062391D02*
X0056138Y0062391D01*
X0056138Y0062428D02*
X0001020Y0062428D01*
X0001020Y0062466D02*
X0056138Y0062466D01*
X0056138Y0062504D02*
X0001020Y0062504D01*
X0001020Y0062542D02*
X0056138Y0062542D01*
X0056138Y0062580D02*
X0001020Y0062580D01*
X0001020Y0062618D02*
X0056138Y0062618D01*
X0056138Y0062656D02*
X0001020Y0062656D01*
X0001020Y0062694D02*
X0056138Y0062694D01*
X0056138Y0062732D02*
X0001020Y0062732D01*
X0001020Y0062769D02*
X0056138Y0062769D01*
X0056138Y0062807D02*
X0001020Y0062807D01*
X0001020Y0062845D02*
X0056138Y0062845D01*
X0056138Y0062883D02*
X0001020Y0062883D01*
X0001020Y0062921D02*
X0056138Y0062921D01*
X0056138Y0062959D02*
X0001020Y0062959D01*
X0001020Y0062997D02*
X0056138Y0062997D01*
X0056138Y0063035D02*
X0001020Y0063035D01*
X0001020Y0063072D02*
X0056138Y0063072D01*
X0056138Y0063110D02*
X0001020Y0063110D01*
X0001020Y0063148D02*
X0056138Y0063148D01*
X0056138Y0063186D02*
X0001020Y0063186D01*
X0001020Y0063224D02*
X0056138Y0063224D01*
X0056138Y0063262D02*
X0001020Y0063262D01*
X0001020Y0063300D02*
X0056138Y0063300D01*
X0056138Y0063338D02*
X0001020Y0063338D01*
X0001020Y0063375D02*
X0056138Y0063375D01*
X0056138Y0063413D02*
X0001020Y0063413D01*
X0001020Y0063451D02*
X0056138Y0063451D01*
X0056138Y0063489D02*
X0001020Y0063489D01*
X0001020Y0063527D02*
X0056138Y0063527D01*
X0056138Y0063565D02*
X0001020Y0063565D01*
X0001020Y0063603D02*
X0056138Y0063603D01*
X0056138Y0063641D02*
X0001020Y0063641D01*
X0001020Y0063679D02*
X0056138Y0063679D01*
X0056138Y0063716D02*
X0001020Y0063716D01*
X0001020Y0063754D02*
X0056138Y0063754D01*
X0056138Y0063792D02*
X0001020Y0063792D01*
X0001020Y0063830D02*
X0056138Y0063830D01*
X0056138Y0063868D02*
X0001020Y0063868D01*
X0001020Y0063906D02*
X0056138Y0063906D01*
X0056138Y0063944D02*
X0001020Y0063944D01*
X0001020Y0063982D02*
X0056138Y0063982D01*
X0056138Y0064019D02*
X0001020Y0064019D01*
X0001020Y0064057D02*
X0056138Y0064057D01*
X0056138Y0064095D02*
X0001020Y0064095D01*
X0001020Y0064133D02*
X0056138Y0064133D01*
X0056138Y0064171D02*
X0001020Y0064171D01*
X0001020Y0064209D02*
X0056138Y0064209D01*
X0056138Y0064247D02*
X0001020Y0064247D01*
X0001020Y0064285D02*
X0056138Y0064285D01*
X0056138Y0064323D02*
X0001020Y0064323D01*
X0001020Y0064360D02*
X0056138Y0064360D01*
X0056138Y0064398D02*
X0001020Y0064398D01*
X0001020Y0064436D02*
X0056138Y0064436D01*
X0056138Y0064474D02*
X0001020Y0064474D01*
X0001020Y0064512D02*
X0056138Y0064512D01*
X0056138Y0064550D02*
X0001020Y0064550D01*
X0001020Y0064588D02*
X0056138Y0064588D01*
X0056138Y0064626D02*
X0001020Y0064626D01*
X0001020Y0064663D02*
X0056138Y0064663D01*
X0056138Y0064701D02*
X0001020Y0064701D01*
X0001020Y0064739D02*
X0056138Y0064739D01*
X0056138Y0064777D02*
X0001020Y0064777D01*
X0001020Y0064815D02*
X0056138Y0064815D01*
X0056138Y0064853D02*
X0001020Y0064853D01*
X0001020Y0064891D02*
X0056138Y0064891D01*
X0056138Y0064929D02*
X0001020Y0064929D01*
X0001020Y0064967D02*
X0056138Y0064967D01*
X0056138Y0065004D02*
X0001020Y0065004D01*
X0001020Y0065042D02*
X0056138Y0065042D01*
X0056138Y0065080D02*
X0001020Y0065080D01*
X0001020Y0065118D02*
X0056138Y0065118D01*
X0056138Y0065156D02*
X0001020Y0065156D01*
X0001020Y0065194D02*
X0056138Y0065194D01*
X0056138Y0065232D02*
X0001020Y0065232D01*
X0001020Y0065270D02*
X0056138Y0065270D01*
X0056138Y0065307D02*
X0001020Y0065307D01*
X0001020Y0065345D02*
X0056138Y0065345D01*
X0056138Y0065383D02*
X0001020Y0065383D01*
X0001020Y0065421D02*
X0056138Y0065421D01*
X0056138Y0065459D02*
X0001020Y0065459D01*
X0001020Y0065497D02*
X0056138Y0065497D01*
X0056138Y0065535D02*
X0001020Y0065535D01*
X0001020Y0065573D02*
X0056138Y0065573D01*
X0056138Y0065610D02*
X0001020Y0065610D01*
X0001020Y0065648D02*
X0056138Y0065648D01*
X0056138Y0065686D02*
X0001020Y0065686D01*
X0001020Y0065724D02*
X0056138Y0065724D01*
X0056138Y0065762D02*
X0001020Y0065762D01*
X0001020Y0065800D02*
X0056138Y0065800D01*
X0056138Y0065838D02*
X0001020Y0065838D01*
X0001020Y0065876D02*
X0056138Y0065876D01*
X0056138Y0065914D02*
X0001020Y0065914D01*
X0001020Y0065951D02*
X0056138Y0065951D01*
X0056138Y0065989D02*
X0001020Y0065989D01*
X0001020Y0066027D02*
X0056138Y0066027D01*
X0056138Y0066065D02*
X0001020Y0066065D01*
X0001020Y0066103D02*
X0056138Y0066103D01*
X0056138Y0066141D02*
X0001020Y0066141D01*
X0001020Y0066179D02*
X0056138Y0066179D01*
X0056138Y0066217D02*
X0001020Y0066217D01*
X0001020Y0066254D02*
X0056138Y0066254D01*
X0056138Y0066292D02*
X0001020Y0066292D01*
X0001020Y0066330D02*
X0056138Y0066330D01*
X0056138Y0066368D02*
X0001020Y0066368D01*
X0001020Y0066406D02*
X0056138Y0066406D01*
X0056138Y0066444D02*
X0001020Y0066444D01*
X0001020Y0066482D02*
X0056138Y0066482D01*
X0056138Y0066520D02*
X0001020Y0066520D01*
X0001020Y0066558D02*
X0056138Y0066558D01*
X0056138Y0066595D02*
X0001020Y0066595D01*
X0001020Y0066633D02*
X0056138Y0066633D01*
X0056138Y0066671D02*
X0001020Y0066671D01*
X0001020Y0066709D02*
X0056138Y0066709D01*
X0056138Y0066747D02*
X0001020Y0066747D01*
X0001020Y0066785D02*
X0056138Y0066785D01*
X0056138Y0066823D02*
X0001020Y0066823D01*
X0001020Y0066861D02*
X0056138Y0066861D01*
X0056138Y0066898D02*
X0001020Y0066898D01*
X0001020Y0066936D02*
X0056138Y0066936D01*
X0056138Y0066974D02*
X0001020Y0066974D01*
X0001020Y0067012D02*
X0056138Y0067012D01*
X0056138Y0067050D02*
X0001020Y0067050D01*
X0001020Y0067088D02*
X0056138Y0067088D01*
X0056138Y0067126D02*
X0001020Y0067126D01*
X0001020Y0067164D02*
X0056138Y0067164D01*
X0056138Y0067202D02*
X0001020Y0067202D01*
X0001020Y0067239D02*
X0056138Y0067239D01*
X0056138Y0067277D02*
X0001020Y0067277D01*
X0001020Y0067315D02*
X0056138Y0067315D01*
X0056138Y0067353D02*
X0001020Y0067353D01*
X0001020Y0067391D02*
X0056138Y0067391D01*
X0056138Y0067429D02*
X0001020Y0067429D01*
X0001020Y0067467D02*
X0056138Y0067467D01*
X0056138Y0067505D02*
X0001020Y0067505D01*
X0001020Y0067542D02*
X0056138Y0067542D01*
X0056138Y0067580D02*
X0001020Y0067580D01*
X0001020Y0067618D02*
X0056138Y0067618D01*
X0056138Y0067656D02*
X0001020Y0067656D01*
X0001020Y0067694D02*
X0056138Y0067694D01*
X0056138Y0067732D02*
X0001020Y0067732D01*
X0001020Y0067770D02*
X0056138Y0067770D01*
X0056138Y0067808D02*
X0001020Y0067808D01*
X0001020Y0067845D02*
X0056138Y0067845D01*
X0056138Y0067883D02*
X0001020Y0067883D01*
X0001020Y0067921D02*
X0056138Y0067921D01*
X0056138Y0067959D02*
X0001020Y0067959D01*
X0001020Y0067997D02*
X0056138Y0067997D01*
X0056138Y0068035D02*
X0001020Y0068035D01*
X0001020Y0068073D02*
X0056138Y0068073D01*
X0056138Y0068111D02*
X0001020Y0068111D01*
X0001020Y0068149D02*
X0056138Y0068149D01*
X0056138Y0068186D02*
X0001020Y0068186D01*
X0001020Y0068224D02*
X0056138Y0068224D01*
X0056138Y0068262D02*
X0001020Y0068262D01*
X0001020Y0068300D02*
X0056138Y0068300D01*
X0056138Y0068338D02*
X0001020Y0068338D01*
X0001020Y0068376D02*
X0056138Y0068376D01*
X0056138Y0068414D02*
X0001020Y0068414D01*
X0001020Y0068452D02*
X0056138Y0068452D01*
X0056138Y0068489D02*
X0001020Y0068489D01*
X0001020Y0068527D02*
X0056138Y0068527D01*
X0056138Y0068565D02*
X0001020Y0068565D01*
X0001020Y0068603D02*
X0056138Y0068603D01*
X0056138Y0068641D02*
X0001020Y0068641D01*
X0001020Y0068679D02*
X0056138Y0068679D01*
X0056138Y0068717D02*
X0001020Y0068717D01*
X0001020Y0068755D02*
X0056138Y0068755D01*
X0056138Y0068793D02*
X0001020Y0068793D01*
X0001020Y0068830D02*
X0056138Y0068830D01*
X0056138Y0068868D02*
X0001020Y0068868D01*
X0001020Y0068906D02*
X0056138Y0068906D01*
X0056138Y0068944D02*
X0001020Y0068944D01*
X0001020Y0068982D02*
X0056138Y0068982D01*
X0056138Y0069020D02*
X0001020Y0069020D01*
X0001020Y0069058D02*
X0056138Y0069058D01*
X0056138Y0069096D02*
X0001020Y0069096D01*
X0001020Y0069133D02*
X0056138Y0069133D01*
X0056138Y0069171D02*
X0001020Y0069171D01*
X0001020Y0069209D02*
X0056138Y0069209D01*
X0056138Y0069247D02*
X0001020Y0069247D01*
X0001020Y0069285D02*
X0056138Y0069285D01*
X0056138Y0069323D02*
X0001020Y0069323D01*
X0001020Y0069361D02*
X0056138Y0069361D01*
X0056138Y0069399D02*
X0001020Y0069399D01*
X0001020Y0069437D02*
X0056138Y0069437D01*
X0056138Y0069474D02*
X0001020Y0069474D01*
X0001020Y0069512D02*
X0056138Y0069512D01*
X0056138Y0069550D02*
X0001020Y0069550D01*
X0001020Y0069588D02*
X0056138Y0069588D01*
X0056138Y0069626D02*
X0001020Y0069626D01*
X0001020Y0069664D02*
X0056138Y0069664D01*
X0056138Y0069702D02*
X0001020Y0069702D01*
X0001020Y0069740D02*
X0056138Y0069740D01*
X0056138Y0069777D02*
X0001020Y0069777D01*
X0001020Y0069815D02*
X0056138Y0069815D01*
X0056138Y0069853D02*
X0001020Y0069853D01*
X0001020Y0069891D02*
X0056138Y0069891D01*
X0056138Y0069929D02*
X0001020Y0069929D01*
X0001020Y0069967D02*
X0056138Y0069967D01*
X0056138Y0070005D02*
X0001020Y0070005D01*
X0001020Y0070043D02*
X0056138Y0070043D01*
X0056138Y0070080D02*
X0001020Y0070080D01*
X0001020Y0070118D02*
X0056138Y0070118D01*
X0056138Y0070156D02*
X0001020Y0070156D01*
X0001020Y0070194D02*
X0056138Y0070194D01*
X0056138Y0070232D02*
X0001020Y0070232D01*
X0001020Y0070270D02*
X0056138Y0070270D01*
X0056138Y0070308D02*
X0001020Y0070308D01*
X0001020Y0070346D02*
X0056138Y0070346D01*
X0056138Y0070384D02*
X0001020Y0070384D01*
X0001020Y0070421D02*
X0056138Y0070421D01*
X0056138Y0070459D02*
X0001020Y0070459D01*
X0001020Y0070497D02*
X0056138Y0070497D01*
X0056138Y0070535D02*
X0001020Y0070535D01*
X0001020Y0070573D02*
X0056138Y0070573D01*
X0056138Y0070611D02*
X0001020Y0070611D01*
X0001020Y0070649D02*
X0056138Y0070649D01*
X0056138Y0070687D02*
X0001020Y0070687D01*
X0001020Y0070724D02*
X0056138Y0070724D01*
X0056138Y0070762D02*
X0001020Y0070762D01*
X0001020Y0070800D02*
X0056138Y0070800D01*
X0056138Y0070838D02*
X0001020Y0070838D01*
X0001020Y0070876D02*
X0056138Y0070876D01*
X0056138Y0070914D02*
X0001020Y0070914D01*
X0001020Y0070952D02*
X0056138Y0070952D01*
X0056138Y0070990D02*
X0001020Y0070990D01*
X0001020Y0071028D02*
X0056138Y0071028D01*
X0056138Y0071065D02*
X0001020Y0071065D01*
X0001020Y0071103D02*
X0056138Y0071103D01*
X0056138Y0071141D02*
X0001020Y0071141D01*
X0001020Y0071179D02*
X0056138Y0071179D01*
X0056138Y0071217D02*
X0001020Y0071217D01*
X0001020Y0071255D02*
X0056138Y0071255D01*
X0056138Y0071293D02*
X0001020Y0071293D01*
X0001020Y0071331D02*
X0056138Y0071331D01*
X0056138Y0071368D02*
X0001020Y0071368D01*
X0001020Y0071406D02*
X0056138Y0071406D01*
X0056138Y0071444D02*
X0001020Y0071444D01*
X0001020Y0071482D02*
X0056138Y0071482D01*
X0056138Y0071520D02*
X0001020Y0071520D01*
X0001020Y0071558D02*
X0056138Y0071558D01*
X0056138Y0071596D02*
X0001020Y0071596D01*
X0001020Y0071634D02*
X0056138Y0071634D01*
X0056138Y0071672D02*
X0001020Y0071672D01*
X0001020Y0071709D02*
X0056138Y0071709D01*
X0056138Y0071747D02*
X0001020Y0071747D01*
X0001020Y0071785D02*
X0056138Y0071785D01*
X0056138Y0071823D02*
X0001020Y0071823D01*
X0001020Y0071861D02*
X0056138Y0071861D01*
X0056138Y0071899D02*
X0001020Y0071899D01*
X0001020Y0071937D02*
X0056138Y0071937D01*
X0056138Y0071975D02*
X0001020Y0071975D01*
X0001020Y0072012D02*
X0056138Y0072012D01*
X0056138Y0072050D02*
X0001020Y0072050D01*
X0001020Y0072088D02*
X0056138Y0072088D01*
X0007273Y0045344D02*
X0001020Y0045344D01*
X0001020Y0045306D02*
X0007181Y0045306D01*
X0007090Y0045268D02*
X0001020Y0045268D01*
X0001020Y0045230D02*
X0006998Y0045230D01*
X0006907Y0045192D02*
X0001020Y0045192D01*
X0001020Y0045155D02*
X0006815Y0045155D01*
X0006724Y0045117D02*
X0001020Y0045117D01*
X0001020Y0045079D02*
X0006632Y0045079D01*
X0006541Y0045041D02*
X0001020Y0045041D01*
X0001020Y0045003D02*
X0006450Y0045003D01*
X0006358Y0044965D02*
X0001020Y0044965D01*
X0001020Y0044927D02*
X0006267Y0044927D01*
X0006175Y0044889D02*
X0001020Y0044889D01*
X0001020Y0044851D02*
X0006084Y0044851D01*
X0005992Y0044814D02*
X0001020Y0044814D01*
X0001020Y0044776D02*
X0005901Y0044776D01*
X0005809Y0044738D02*
X0001020Y0044738D01*
X0001020Y0044700D02*
X0005718Y0044700D01*
X0005626Y0044662D02*
X0001020Y0044662D01*
X0001020Y0044624D02*
X0005535Y0044624D01*
X0005444Y0044586D02*
X0001020Y0044586D01*
X0001020Y0044548D02*
X0005352Y0044548D01*
X0005261Y0044511D02*
X0001020Y0044511D01*
X0001020Y0044473D02*
X0005169Y0044473D01*
X0005116Y0044435D02*
X0001020Y0044435D01*
X0001020Y0044397D02*
X0005078Y0044397D01*
X0005041Y0044359D02*
X0001020Y0044359D01*
X0001020Y0044321D02*
X0005003Y0044321D01*
X0004965Y0044283D02*
X0001020Y0044283D01*
X0001020Y0044245D02*
X0004927Y0044245D01*
X0004889Y0044208D02*
X0001020Y0044208D01*
X0001020Y0044170D02*
X0004851Y0044170D01*
X0004813Y0044132D02*
X0001020Y0044132D01*
X0001020Y0044094D02*
X0004775Y0044094D01*
X0004738Y0044056D02*
X0001020Y0044056D01*
X0001020Y0044018D02*
X0004700Y0044018D01*
X0004662Y0043980D02*
X0001020Y0043980D01*
X0001020Y0043942D02*
X0004624Y0043942D01*
X0004586Y0043904D02*
X0001020Y0043904D01*
X0001020Y0043867D02*
X0004548Y0043867D01*
X0004510Y0043829D02*
X0001020Y0043829D01*
X0001020Y0043791D02*
X0004472Y0043791D01*
X0004434Y0043753D02*
X0001020Y0043753D01*
X0001020Y0043715D02*
X0004397Y0043715D01*
X0004359Y0043677D02*
X0001020Y0043677D01*
X0001020Y0043639D02*
X0004321Y0043639D01*
X0004283Y0043601D02*
X0001020Y0043601D01*
X0001020Y0043564D02*
X0004245Y0043564D01*
X0004207Y0043526D02*
X0001020Y0043526D01*
X0001020Y0043488D02*
X0004169Y0043488D01*
X0004131Y0043450D02*
X0001020Y0043450D01*
X0001020Y0043412D02*
X0004094Y0043412D01*
X0004056Y0043374D02*
X0001020Y0043374D01*
X0001020Y0043336D02*
X0004018Y0043336D01*
X0003980Y0043298D02*
X0001020Y0043298D01*
X0001020Y0043260D02*
X0003942Y0043260D01*
X0003904Y0043223D02*
X0001020Y0043223D01*
X0001020Y0043185D02*
X0003866Y0043185D01*
X0003828Y0043147D02*
X0001020Y0043147D01*
X0001020Y0043109D02*
X0003790Y0043109D01*
X0003753Y0043071D02*
X0001020Y0043071D01*
X0001020Y0043033D02*
X0003715Y0043033D01*
X0003677Y0042995D02*
X0001020Y0042995D01*
X0001020Y0042957D02*
X0003639Y0042957D01*
X0003601Y0042920D02*
X0001020Y0042920D01*
X0001020Y0042882D02*
X0003563Y0042882D01*
X0003525Y0042844D02*
X0001020Y0042844D01*
X0001020Y0042806D02*
X0003487Y0042806D01*
X0003466Y0042768D02*
X0001020Y0042768D01*
X0001020Y0042730D02*
X0003450Y0042730D01*
X0003434Y0042692D02*
X0001020Y0042692D01*
X0001020Y0042654D02*
X0003418Y0042654D01*
X0003403Y0042616D02*
X0001020Y0042616D01*
X0001020Y0042579D02*
X0003387Y0042579D01*
X0003371Y0042541D02*
X0001020Y0042541D01*
X0001020Y0042503D02*
X0003356Y0042503D01*
X0003340Y0042465D02*
X0001020Y0042465D01*
X0001020Y0042427D02*
X0003324Y0042427D01*
X0003309Y0042389D02*
X0001020Y0042389D01*
X0001020Y0042351D02*
X0003293Y0042351D01*
X0003277Y0042313D02*
X0001020Y0042313D01*
X0001020Y0042276D02*
X0003262Y0042276D01*
X0003246Y0042238D02*
X0001020Y0042238D01*
X0001020Y0042200D02*
X0003230Y0042200D01*
X0003214Y0042162D02*
X0001020Y0042162D01*
X0001020Y0042124D02*
X0003199Y0042124D01*
X0003183Y0042086D02*
X0001020Y0042086D01*
X0001020Y0042048D02*
X0003167Y0042048D01*
X0003152Y0042010D02*
X0001020Y0042010D01*
X0001020Y0041973D02*
X0003136Y0041973D01*
X0003120Y0041935D02*
X0001020Y0041935D01*
X0001020Y0041897D02*
X0003105Y0041897D01*
X0003089Y0041859D02*
X0001020Y0041859D01*
X0001020Y0041821D02*
X0003073Y0041821D01*
X0003058Y0041783D02*
X0001020Y0041783D01*
X0001020Y0041745D02*
X0003042Y0041745D01*
X0003026Y0041707D02*
X0001020Y0041707D01*
X0001020Y0041669D02*
X0003011Y0041669D01*
X0002995Y0041632D02*
X0001020Y0041632D01*
X0001020Y0041594D02*
X0002979Y0041594D01*
X0002963Y0041556D02*
X0001020Y0041556D01*
X0001020Y0041518D02*
X0002948Y0041518D01*
X0002932Y0041480D02*
X0001020Y0041480D01*
X0001020Y0041442D02*
X0002916Y0041442D01*
X0002901Y0041404D02*
X0001020Y0041404D01*
X0001020Y0041366D02*
X0002885Y0041366D01*
X0002869Y0041329D02*
X0001020Y0041329D01*
X0001020Y0041291D02*
X0002854Y0041291D01*
X0002838Y0041253D02*
X0001020Y0041253D01*
X0001020Y0041215D02*
X0002822Y0041215D01*
X0002807Y0041177D02*
X0001020Y0041177D01*
X0001020Y0041139D02*
X0002791Y0041139D01*
X0002775Y0041101D02*
X0001020Y0041101D01*
X0001020Y0041063D02*
X0002759Y0041063D01*
X0002744Y0041025D02*
X0001020Y0041025D01*
X0001020Y0040988D02*
X0002728Y0040988D01*
X0002712Y0040950D02*
X0001020Y0040950D01*
X0001020Y0040912D02*
X0002697Y0040912D01*
X0002681Y0040874D02*
X0001020Y0040874D01*
X0001020Y0040836D02*
X0002665Y0040836D01*
X0002650Y0040798D02*
X0001020Y0040798D01*
X0001020Y0040760D02*
X0002634Y0040760D01*
X0002618Y0040722D02*
X0001020Y0040722D01*
X0001020Y0040685D02*
X0002603Y0040685D01*
X0002587Y0040647D02*
X0001020Y0040647D01*
X0001020Y0040609D02*
X0002575Y0040609D01*
X0002575Y0040571D02*
X0001020Y0040571D01*
X0001020Y0040533D02*
X0002575Y0040533D01*
X0002575Y0040495D02*
X0001020Y0040495D01*
X0001020Y0040457D02*
X0002575Y0040457D01*
X0002575Y0040419D02*
X0001020Y0040419D01*
X0001020Y0040381D02*
X0002575Y0040381D01*
X0002575Y0040344D02*
X0001020Y0040344D01*
X0001020Y0040306D02*
X0002575Y0040306D01*
X0002575Y0040268D02*
X0001020Y0040268D01*
X0001020Y0040230D02*
X0002575Y0040230D01*
X0002575Y0040192D02*
X0001020Y0040192D01*
X0001020Y0040154D02*
X0002575Y0040154D01*
X0002575Y0040116D02*
X0001020Y0040116D01*
X0001020Y0040078D02*
X0002575Y0040078D01*
X0002575Y0040041D02*
X0001020Y0040041D01*
X0001020Y0040003D02*
X0002575Y0040003D01*
X0002575Y0039965D02*
X0001020Y0039965D01*
X0001020Y0039927D02*
X0002575Y0039927D01*
X0002575Y0039889D02*
X0001020Y0039889D01*
X0001020Y0039851D02*
X0002575Y0039851D01*
X0002575Y0039813D02*
X0001020Y0039813D01*
X0001020Y0039775D02*
X0002575Y0039775D01*
X0002575Y0039738D02*
X0001020Y0039738D01*
X0001020Y0039700D02*
X0002575Y0039700D01*
X0002575Y0039662D02*
X0001020Y0039662D01*
X0001020Y0039624D02*
X0002575Y0039624D01*
X0002575Y0039586D02*
X0001020Y0039586D01*
X0001020Y0039548D02*
X0002575Y0039548D01*
X0002575Y0039510D02*
X0001020Y0039510D01*
X0001020Y0039472D02*
X0002575Y0039472D01*
X0002575Y0039434D02*
X0001020Y0039434D01*
X0001020Y0039397D02*
X0002575Y0039397D01*
X0002575Y0039359D02*
X0001020Y0039359D01*
X0001020Y0039321D02*
X0002575Y0039321D01*
X0002575Y0039283D02*
X0001020Y0039283D01*
X0001020Y0039245D02*
X0002575Y0039245D01*
X0002575Y0039207D02*
X0001020Y0039207D01*
X0001020Y0039169D02*
X0002575Y0039169D01*
X0002575Y0039131D02*
X0001020Y0039131D01*
X0001020Y0039094D02*
X0002575Y0039094D01*
X0002575Y0039056D02*
X0001020Y0039056D01*
X0001020Y0039018D02*
X0002575Y0039018D01*
X0002575Y0038980D02*
X0001020Y0038980D01*
X0001020Y0038942D02*
X0002575Y0038942D01*
X0002575Y0038904D02*
X0001020Y0038904D01*
X0001020Y0038866D02*
X0002575Y0038866D01*
X0002575Y0038828D02*
X0001020Y0038828D01*
X0001020Y0038790D02*
X0002575Y0038790D01*
X0002575Y0038753D02*
X0001020Y0038753D01*
X0001020Y0038715D02*
X0002575Y0038715D01*
X0002575Y0038677D02*
X0001020Y0038677D01*
X0001020Y0038639D02*
X0002575Y0038639D01*
X0002575Y0038601D02*
X0001020Y0038601D01*
X0001020Y0038563D02*
X0002575Y0038563D01*
X0002575Y0038525D02*
X0001020Y0038525D01*
X0001020Y0038487D02*
X0002575Y0038487D01*
X0002575Y0038450D02*
X0001020Y0038450D01*
X0001020Y0038412D02*
X0002575Y0038412D01*
X0002575Y0038374D02*
X0001020Y0038374D01*
X0001020Y0038336D02*
X0002575Y0038336D01*
M02*
