G75*
%MOIN*%
%OFA0B0*%
%FSLAX25Y25*%
%IPPOS*%
%LPD*%
%AMOC8*
5,1,8,0,0,1.08239X$1,22.5*
%
%ADD10C,0.07874*%
%ADD11R,0.05118X0.05118*%
%ADD12R,0.01969X0.01575*%
%ADD13R,0.02992X0.25000*%
%ADD14R,0.04331X0.09449*%
%ADD15C,0.00400*%
%ADD16C,0.02000*%
%ADD17C,0.02978*%
%ADD18C,0.00600*%
D10*
X0191787Y0028809D02*
X0191787Y0036683D01*
X0206787Y0036683D02*
X0206787Y0028809D01*
X0221787Y0028809D02*
X0221787Y0036683D01*
X0236787Y0036683D02*
X0236787Y0028809D01*
D11*
X0272654Y0026722D03*
X0272654Y0034990D03*
X0292339Y0034990D03*
X0292339Y0026722D03*
D12*
X0292339Y0045325D03*
X0292339Y0047884D03*
X0300213Y0047884D03*
X0300213Y0045325D03*
X0272654Y0045325D03*
X0272654Y0047884D03*
D13*
X0347732Y0071722D03*
X0352732Y0071722D03*
X0357732Y0071722D03*
X0362732Y0071722D03*
X0367732Y0071722D03*
X0372732Y0071722D03*
X0377732Y0071722D03*
X0382732Y0071722D03*
D14*
X0398638Y0022352D03*
X0331709Y0022352D03*
D15*
X0100213Y0007891D02*
X0100213Y0158022D01*
X0418323Y0158022D01*
X0418323Y0049754D01*
X0312417Y0049754D01*
X0312417Y0007891D01*
X0100213Y0007891D01*
X0100213Y0008075D02*
X0312417Y0008075D01*
X0312417Y0008473D02*
X0100213Y0008473D01*
X0100213Y0008872D02*
X0312417Y0008872D01*
X0312417Y0009270D02*
X0100213Y0009270D01*
X0100213Y0009669D02*
X0312417Y0009669D01*
X0312417Y0010067D02*
X0100213Y0010067D01*
X0100213Y0010466D02*
X0312417Y0010466D01*
X0312417Y0010864D02*
X0100213Y0010864D01*
X0100213Y0011263D02*
X0312417Y0011263D01*
X0312417Y0011661D02*
X0100213Y0011661D01*
X0100213Y0012060D02*
X0312417Y0012060D01*
X0312417Y0012458D02*
X0100213Y0012458D01*
X0100213Y0012857D02*
X0312417Y0012857D01*
X0312417Y0013255D02*
X0100213Y0013255D01*
X0100213Y0013654D02*
X0312417Y0013654D01*
X0312417Y0014052D02*
X0100213Y0014052D01*
X0100213Y0014451D02*
X0312417Y0014451D01*
X0312417Y0014849D02*
X0100213Y0014849D01*
X0100213Y0015248D02*
X0312417Y0015248D01*
X0312417Y0015646D02*
X0100213Y0015646D01*
X0100213Y0016045D02*
X0312417Y0016045D01*
X0312417Y0016443D02*
X0100213Y0016443D01*
X0100213Y0016842D02*
X0312417Y0016842D01*
X0312417Y0017240D02*
X0100213Y0017240D01*
X0100213Y0017639D02*
X0312417Y0017639D01*
X0312417Y0018037D02*
X0100213Y0018037D01*
X0100213Y0018436D02*
X0312417Y0018436D01*
X0312417Y0018834D02*
X0293396Y0018834D01*
X0293287Y0018725D02*
X0293776Y0019214D01*
X0298202Y0019214D01*
X0302013Y0023024D01*
X0302013Y0046070D01*
X0301997Y0046086D01*
X0301997Y0046444D01*
X0301836Y0046604D01*
X0301997Y0046765D01*
X0301997Y0047123D01*
X0302013Y0047138D01*
X0302013Y0048629D01*
X0301997Y0048645D01*
X0301997Y0049003D01*
X0301528Y0049471D01*
X0301171Y0049471D01*
X0300958Y0049684D01*
X0293125Y0049684D01*
X0293084Y0049725D01*
X0274454Y0049725D01*
X0274454Y0088378D01*
X0279305Y0093230D01*
X0347498Y0093230D01*
X0350932Y0089796D01*
X0350932Y0085022D01*
X0350905Y0085022D01*
X0350436Y0084554D01*
X0350436Y0058891D01*
X0350905Y0058422D01*
X0354560Y0058422D01*
X0355028Y0058891D01*
X0355028Y0084554D01*
X0354560Y0085022D01*
X0354532Y0085022D01*
X0354532Y0091287D01*
X0350044Y0095775D01*
X0349440Y0096379D01*
X0355932Y0096379D01*
X0355932Y0085022D01*
X0355905Y0085022D01*
X0355436Y0084554D01*
X0355436Y0058891D01*
X0355905Y0058422D01*
X0359560Y0058422D01*
X0360028Y0058891D01*
X0360028Y0084554D01*
X0359560Y0085022D01*
X0359532Y0085022D01*
X0359532Y0096379D01*
X0360932Y0096379D01*
X0360932Y0085022D01*
X0360905Y0085022D01*
X0360436Y0084554D01*
X0360436Y0058891D01*
X0360905Y0058422D01*
X0364560Y0058422D01*
X0365028Y0058891D01*
X0365028Y0084554D01*
X0364560Y0085022D01*
X0364532Y0085022D01*
X0364532Y0096379D01*
X0365932Y0096379D01*
X0365932Y0085022D01*
X0365905Y0085022D01*
X0365436Y0084554D01*
X0365436Y0058891D01*
X0365905Y0058422D01*
X0369560Y0058422D01*
X0370028Y0058891D01*
X0370028Y0084554D01*
X0369560Y0085022D01*
X0369532Y0085022D01*
X0369532Y0095605D01*
X0370932Y0094205D01*
X0370932Y0085022D01*
X0370905Y0085022D01*
X0370436Y0084554D01*
X0370436Y0058891D01*
X0370905Y0058422D01*
X0374560Y0058422D01*
X0375028Y0058891D01*
X0375028Y0084554D01*
X0374560Y0085022D01*
X0374532Y0085022D01*
X0374532Y0095696D01*
X0370250Y0099979D01*
X0242774Y0099979D01*
X0234987Y0092192D01*
X0234987Y0041065D01*
X0234104Y0040699D01*
X0232772Y0039366D01*
X0232050Y0037625D01*
X0232050Y0027867D01*
X0232772Y0026126D01*
X0234104Y0024793D01*
X0235845Y0024072D01*
X0237730Y0024072D01*
X0239471Y0024793D01*
X0240803Y0026126D01*
X0241524Y0027867D01*
X0241524Y0037625D01*
X0240803Y0039366D01*
X0239471Y0040699D01*
X0238587Y0041065D01*
X0238587Y0090701D01*
X0244265Y0096379D01*
X0277363Y0096379D01*
X0271908Y0090924D01*
X0270854Y0089870D01*
X0270854Y0047179D01*
X0270869Y0047163D01*
X0270869Y0046765D01*
X0271030Y0046604D01*
X0270869Y0046444D01*
X0270869Y0046086D01*
X0270854Y0046070D01*
X0270854Y0038349D01*
X0269763Y0038349D01*
X0269294Y0037881D01*
X0269294Y0032100D01*
X0269763Y0031631D01*
X0275544Y0031631D01*
X0276013Y0032100D01*
X0276013Y0037881D01*
X0275544Y0038349D01*
X0274454Y0038349D01*
X0274454Y0046070D01*
X0274438Y0046086D01*
X0274438Y0046125D01*
X0290554Y0046125D01*
X0290554Y0046086D01*
X0290539Y0046070D01*
X0290539Y0038349D01*
X0289448Y0038349D01*
X0288980Y0037881D01*
X0288980Y0032100D01*
X0289448Y0031631D01*
X0295229Y0031631D01*
X0295698Y0032100D01*
X0295698Y0037881D01*
X0295229Y0038349D01*
X0294139Y0038349D01*
X0294139Y0046070D01*
X0294125Y0046084D01*
X0298426Y0046084D01*
X0298413Y0046070D01*
X0298413Y0024515D01*
X0296711Y0022814D01*
X0294139Y0022814D01*
X0294139Y0023363D01*
X0295229Y0023363D01*
X0295698Y0023832D01*
X0295698Y0029613D01*
X0295229Y0030081D01*
X0289448Y0030081D01*
X0288980Y0029613D01*
X0288980Y0023832D01*
X0289448Y0023363D01*
X0290539Y0023363D01*
X0290539Y0022451D01*
X0290050Y0021962D01*
X0290050Y0020066D01*
X0291390Y0018725D01*
X0293287Y0018725D01*
X0291281Y0018834D02*
X0100213Y0018834D01*
X0100213Y0019233D02*
X0290882Y0019233D01*
X0290484Y0019631D02*
X0100213Y0019631D01*
X0100213Y0020030D02*
X0290085Y0020030D01*
X0290050Y0020428D02*
X0100213Y0020428D01*
X0100213Y0020827D02*
X0290050Y0020827D01*
X0290050Y0021225D02*
X0100213Y0021225D01*
X0100213Y0021624D02*
X0290050Y0021624D01*
X0290110Y0022022D02*
X0100213Y0022022D01*
X0100213Y0022421D02*
X0290509Y0022421D01*
X0290539Y0022819D02*
X0100213Y0022819D01*
X0100213Y0023218D02*
X0290539Y0023218D01*
X0289195Y0023617D02*
X0100213Y0023617D01*
X0100213Y0024015D02*
X0288980Y0024015D01*
X0288980Y0024414D02*
X0238554Y0024414D01*
X0239490Y0024812D02*
X0288980Y0024812D01*
X0288980Y0025211D02*
X0239888Y0025211D01*
X0240287Y0025609D02*
X0288980Y0025609D01*
X0288980Y0026008D02*
X0240685Y0026008D01*
X0240919Y0026406D02*
X0288980Y0026406D01*
X0288980Y0026805D02*
X0241084Y0026805D01*
X0241249Y0027203D02*
X0288980Y0027203D01*
X0288980Y0027602D02*
X0241415Y0027602D01*
X0241524Y0028000D02*
X0288980Y0028000D01*
X0288980Y0028399D02*
X0241524Y0028399D01*
X0241524Y0028797D02*
X0288980Y0028797D01*
X0288980Y0029196D02*
X0241524Y0029196D01*
X0241524Y0029594D02*
X0288980Y0029594D01*
X0289359Y0029993D02*
X0241524Y0029993D01*
X0241524Y0030391D02*
X0298413Y0030391D01*
X0298413Y0029993D02*
X0295318Y0029993D01*
X0295698Y0029594D02*
X0298413Y0029594D01*
X0298413Y0029196D02*
X0295698Y0029196D01*
X0295698Y0028797D02*
X0298413Y0028797D01*
X0298413Y0028399D02*
X0295698Y0028399D01*
X0295698Y0028000D02*
X0298413Y0028000D01*
X0298413Y0027602D02*
X0295698Y0027602D01*
X0295698Y0027203D02*
X0298413Y0027203D01*
X0298413Y0026805D02*
X0295698Y0026805D01*
X0295698Y0026406D02*
X0298413Y0026406D01*
X0298413Y0026008D02*
X0295698Y0026008D01*
X0295698Y0025609D02*
X0298413Y0025609D01*
X0298413Y0025211D02*
X0295698Y0025211D01*
X0295698Y0024812D02*
X0298413Y0024812D01*
X0298311Y0024414D02*
X0295698Y0024414D01*
X0295698Y0024015D02*
X0297912Y0024015D01*
X0297514Y0023617D02*
X0295482Y0023617D01*
X0294139Y0023218D02*
X0297115Y0023218D01*
X0296717Y0022819D02*
X0294139Y0022819D01*
X0298221Y0019233D02*
X0312417Y0019233D01*
X0312417Y0019631D02*
X0298620Y0019631D01*
X0299018Y0020030D02*
X0312417Y0020030D01*
X0312417Y0020428D02*
X0299417Y0020428D01*
X0299815Y0020827D02*
X0312417Y0020827D01*
X0312417Y0021225D02*
X0300214Y0021225D01*
X0300612Y0021624D02*
X0312417Y0021624D01*
X0312417Y0022022D02*
X0301011Y0022022D01*
X0301409Y0022421D02*
X0312417Y0022421D01*
X0312417Y0022819D02*
X0301808Y0022819D01*
X0302013Y0023218D02*
X0312417Y0023218D01*
X0312417Y0023617D02*
X0302013Y0023617D01*
X0302013Y0024015D02*
X0312417Y0024015D01*
X0312417Y0024414D02*
X0302013Y0024414D01*
X0302013Y0024812D02*
X0312417Y0024812D01*
X0312417Y0025211D02*
X0302013Y0025211D01*
X0302013Y0025609D02*
X0312417Y0025609D01*
X0312417Y0026008D02*
X0302013Y0026008D01*
X0302013Y0026406D02*
X0312417Y0026406D01*
X0312417Y0026805D02*
X0302013Y0026805D01*
X0302013Y0027203D02*
X0312417Y0027203D01*
X0312417Y0027602D02*
X0302013Y0027602D01*
X0302013Y0028000D02*
X0312417Y0028000D01*
X0312417Y0028399D02*
X0302013Y0028399D01*
X0302013Y0028797D02*
X0312417Y0028797D01*
X0312417Y0029196D02*
X0302013Y0029196D01*
X0302013Y0029594D02*
X0312417Y0029594D01*
X0312417Y0029993D02*
X0302013Y0029993D01*
X0302013Y0030391D02*
X0312417Y0030391D01*
X0312417Y0030790D02*
X0302013Y0030790D01*
X0302013Y0031188D02*
X0312417Y0031188D01*
X0312417Y0031587D02*
X0302013Y0031587D01*
X0302013Y0031985D02*
X0312417Y0031985D01*
X0312417Y0032384D02*
X0302013Y0032384D01*
X0302013Y0032782D02*
X0312417Y0032782D01*
X0312417Y0033181D02*
X0302013Y0033181D01*
X0302013Y0033579D02*
X0312417Y0033579D01*
X0312417Y0033978D02*
X0302013Y0033978D01*
X0302013Y0034376D02*
X0312417Y0034376D01*
X0312417Y0034775D02*
X0302013Y0034775D01*
X0302013Y0035173D02*
X0312417Y0035173D01*
X0312417Y0035572D02*
X0302013Y0035572D01*
X0302013Y0035970D02*
X0312417Y0035970D01*
X0312417Y0036369D02*
X0302013Y0036369D01*
X0302013Y0036767D02*
X0312417Y0036767D01*
X0312417Y0037166D02*
X0302013Y0037166D01*
X0302013Y0037564D02*
X0312417Y0037564D01*
X0312417Y0037963D02*
X0302013Y0037963D01*
X0302013Y0038361D02*
X0312417Y0038361D01*
X0312417Y0038760D02*
X0302013Y0038760D01*
X0302013Y0039158D02*
X0312417Y0039158D01*
X0312417Y0039557D02*
X0302013Y0039557D01*
X0302013Y0039955D02*
X0312417Y0039955D01*
X0312417Y0040354D02*
X0302013Y0040354D01*
X0302013Y0040752D02*
X0312417Y0040752D01*
X0312417Y0041151D02*
X0302013Y0041151D01*
X0302013Y0041550D02*
X0312417Y0041550D01*
X0312417Y0041948D02*
X0302013Y0041948D01*
X0302013Y0042347D02*
X0312417Y0042347D01*
X0312417Y0042745D02*
X0302013Y0042745D01*
X0302013Y0043144D02*
X0312417Y0043144D01*
X0312417Y0043542D02*
X0302013Y0043542D01*
X0302013Y0043941D02*
X0312417Y0043941D01*
X0312417Y0044339D02*
X0302013Y0044339D01*
X0302013Y0044738D02*
X0312417Y0044738D01*
X0312417Y0045136D02*
X0302013Y0045136D01*
X0302013Y0045535D02*
X0312417Y0045535D01*
X0312417Y0045933D02*
X0302013Y0045933D01*
X0301997Y0046332D02*
X0312417Y0046332D01*
X0312417Y0046730D02*
X0301962Y0046730D01*
X0302003Y0047129D02*
X0312417Y0047129D01*
X0312417Y0047527D02*
X0302013Y0047527D01*
X0302013Y0047926D02*
X0312417Y0047926D01*
X0312417Y0048324D02*
X0302013Y0048324D01*
X0301997Y0048723D02*
X0312417Y0048723D01*
X0312417Y0049121D02*
X0301878Y0049121D01*
X0301122Y0049520D02*
X0312417Y0049520D01*
X0315567Y0047392D02*
X0315567Y0007891D01*
X0414780Y0007891D01*
X0414780Y0047392D01*
X0315567Y0047392D01*
X0315567Y0047129D02*
X0414780Y0047129D01*
X0414780Y0046730D02*
X0315567Y0046730D01*
X0315567Y0046332D02*
X0414780Y0046332D01*
X0414780Y0045933D02*
X0315567Y0045933D01*
X0315567Y0045535D02*
X0414780Y0045535D01*
X0414780Y0045136D02*
X0315567Y0045136D01*
X0315567Y0044738D02*
X0414780Y0044738D01*
X0414780Y0044339D02*
X0315567Y0044339D01*
X0315567Y0043941D02*
X0414780Y0043941D01*
X0414780Y0043542D02*
X0315567Y0043542D01*
X0315567Y0043144D02*
X0414780Y0043144D01*
X0414780Y0042745D02*
X0315567Y0042745D01*
X0315567Y0042347D02*
X0414780Y0042347D01*
X0414780Y0041948D02*
X0315567Y0041948D01*
X0315567Y0041550D02*
X0414780Y0041550D01*
X0414780Y0041151D02*
X0315567Y0041151D01*
X0315567Y0040752D02*
X0414780Y0040752D01*
X0414780Y0040354D02*
X0315567Y0040354D01*
X0315567Y0039955D02*
X0414780Y0039955D01*
X0414780Y0039557D02*
X0315567Y0039557D01*
X0315567Y0039158D02*
X0414780Y0039158D01*
X0414780Y0038760D02*
X0315567Y0038760D01*
X0315567Y0038361D02*
X0414780Y0038361D01*
X0414780Y0037963D02*
X0315567Y0037963D01*
X0315567Y0037564D02*
X0414780Y0037564D01*
X0414780Y0037166D02*
X0315567Y0037166D01*
X0315567Y0036767D02*
X0414780Y0036767D01*
X0414780Y0036369D02*
X0315567Y0036369D01*
X0315567Y0035970D02*
X0414780Y0035970D01*
X0414780Y0035572D02*
X0315567Y0035572D01*
X0315567Y0035173D02*
X0414780Y0035173D01*
X0414780Y0034775D02*
X0315567Y0034775D01*
X0315567Y0034376D02*
X0414780Y0034376D01*
X0414780Y0033978D02*
X0315567Y0033978D01*
X0315567Y0033579D02*
X0414780Y0033579D01*
X0414780Y0033181D02*
X0315567Y0033181D01*
X0315567Y0032782D02*
X0414780Y0032782D01*
X0414780Y0032384D02*
X0315567Y0032384D01*
X0315567Y0031985D02*
X0414780Y0031985D01*
X0414780Y0031587D02*
X0315567Y0031587D01*
X0315567Y0031188D02*
X0414780Y0031188D01*
X0414780Y0030790D02*
X0315567Y0030790D01*
X0315567Y0030391D02*
X0414780Y0030391D01*
X0414780Y0029993D02*
X0315567Y0029993D01*
X0315567Y0029594D02*
X0414780Y0029594D01*
X0414780Y0029196D02*
X0315567Y0029196D01*
X0315567Y0028797D02*
X0414780Y0028797D01*
X0414780Y0028399D02*
X0315567Y0028399D01*
X0315567Y0028000D02*
X0414780Y0028000D01*
X0414780Y0027602D02*
X0315567Y0027602D01*
X0315567Y0027203D02*
X0414780Y0027203D01*
X0414780Y0026805D02*
X0315567Y0026805D01*
X0315567Y0026406D02*
X0414780Y0026406D01*
X0414780Y0026008D02*
X0315567Y0026008D01*
X0315567Y0025609D02*
X0414780Y0025609D01*
X0414780Y0025211D02*
X0315567Y0025211D01*
X0315567Y0024812D02*
X0414780Y0024812D01*
X0414780Y0024414D02*
X0315567Y0024414D01*
X0315567Y0024015D02*
X0414780Y0024015D01*
X0414780Y0023617D02*
X0315567Y0023617D01*
X0315567Y0023218D02*
X0414780Y0023218D01*
X0414780Y0022819D02*
X0315567Y0022819D01*
X0315567Y0022421D02*
X0414780Y0022421D01*
X0414780Y0022022D02*
X0315567Y0022022D01*
X0315567Y0021624D02*
X0414780Y0021624D01*
X0414780Y0021225D02*
X0315567Y0021225D01*
X0315567Y0020827D02*
X0414780Y0020827D01*
X0414780Y0020428D02*
X0315567Y0020428D01*
X0315567Y0020030D02*
X0414780Y0020030D01*
X0414780Y0019631D02*
X0315567Y0019631D01*
X0315567Y0019233D02*
X0414780Y0019233D01*
X0414780Y0018834D02*
X0315567Y0018834D01*
X0315567Y0018436D02*
X0414780Y0018436D01*
X0414780Y0018037D02*
X0315567Y0018037D01*
X0315567Y0017639D02*
X0414780Y0017639D01*
X0414780Y0017240D02*
X0315567Y0017240D01*
X0315567Y0016842D02*
X0414780Y0016842D01*
X0414780Y0016443D02*
X0315567Y0016443D01*
X0315567Y0016045D02*
X0414780Y0016045D01*
X0414780Y0015646D02*
X0315567Y0015646D01*
X0315567Y0015248D02*
X0414780Y0015248D01*
X0414780Y0014849D02*
X0315567Y0014849D01*
X0315567Y0014451D02*
X0414780Y0014451D01*
X0414780Y0014052D02*
X0315567Y0014052D01*
X0315567Y0013654D02*
X0414780Y0013654D01*
X0414780Y0013255D02*
X0315567Y0013255D01*
X0315567Y0012857D02*
X0414780Y0012857D01*
X0414780Y0012458D02*
X0315567Y0012458D01*
X0315567Y0012060D02*
X0414780Y0012060D01*
X0414780Y0011661D02*
X0315567Y0011661D01*
X0315567Y0011263D02*
X0414780Y0011263D01*
X0414780Y0010864D02*
X0315567Y0010864D01*
X0315567Y0010466D02*
X0414780Y0010466D01*
X0414780Y0010067D02*
X0315567Y0010067D01*
X0315567Y0009669D02*
X0414780Y0009669D01*
X0414780Y0009270D02*
X0315567Y0009270D01*
X0315567Y0008872D02*
X0414780Y0008872D01*
X0414780Y0008473D02*
X0315567Y0008473D01*
X0315567Y0008075D02*
X0414780Y0008075D01*
X0418323Y0049918D02*
X0274454Y0049918D01*
X0274454Y0050317D02*
X0418323Y0050317D01*
X0418323Y0050715D02*
X0274454Y0050715D01*
X0274454Y0051114D02*
X0418323Y0051114D01*
X0418323Y0051512D02*
X0274454Y0051512D01*
X0274454Y0051911D02*
X0418323Y0051911D01*
X0418323Y0052309D02*
X0274454Y0052309D01*
X0274454Y0052708D02*
X0418323Y0052708D01*
X0418323Y0053106D02*
X0274454Y0053106D01*
X0274454Y0053505D02*
X0418323Y0053505D01*
X0418323Y0053903D02*
X0274454Y0053903D01*
X0274454Y0054302D02*
X0418323Y0054302D01*
X0418323Y0054700D02*
X0274454Y0054700D01*
X0274454Y0055099D02*
X0418323Y0055099D01*
X0418323Y0055497D02*
X0274454Y0055497D01*
X0274454Y0055896D02*
X0418323Y0055896D01*
X0418323Y0056294D02*
X0274454Y0056294D01*
X0274454Y0056693D02*
X0418323Y0056693D01*
X0418323Y0057091D02*
X0274454Y0057091D01*
X0274454Y0057490D02*
X0418323Y0057490D01*
X0418323Y0057888D02*
X0274454Y0057888D01*
X0274454Y0058287D02*
X0418323Y0058287D01*
X0418323Y0058686D02*
X0374823Y0058686D01*
X0375028Y0059084D02*
X0418323Y0059084D01*
X0418323Y0059483D02*
X0375028Y0059483D01*
X0375028Y0059881D02*
X0418323Y0059881D01*
X0418323Y0060280D02*
X0375028Y0060280D01*
X0375028Y0060678D02*
X0418323Y0060678D01*
X0418323Y0061077D02*
X0375028Y0061077D01*
X0375028Y0061475D02*
X0418323Y0061475D01*
X0418323Y0061874D02*
X0375028Y0061874D01*
X0375028Y0062272D02*
X0418323Y0062272D01*
X0418323Y0062671D02*
X0375028Y0062671D01*
X0375028Y0063069D02*
X0418323Y0063069D01*
X0418323Y0063468D02*
X0375028Y0063468D01*
X0375028Y0063866D02*
X0418323Y0063866D01*
X0418323Y0064265D02*
X0375028Y0064265D01*
X0375028Y0064663D02*
X0418323Y0064663D01*
X0418323Y0065062D02*
X0375028Y0065062D01*
X0375028Y0065460D02*
X0418323Y0065460D01*
X0418323Y0065859D02*
X0375028Y0065859D01*
X0375028Y0066257D02*
X0418323Y0066257D01*
X0418323Y0066656D02*
X0375028Y0066656D01*
X0375028Y0067054D02*
X0418323Y0067054D01*
X0418323Y0067453D02*
X0375028Y0067453D01*
X0375028Y0067851D02*
X0418323Y0067851D01*
X0418323Y0068250D02*
X0375028Y0068250D01*
X0375028Y0068648D02*
X0418323Y0068648D01*
X0418323Y0069047D02*
X0375028Y0069047D01*
X0375028Y0069445D02*
X0418323Y0069445D01*
X0418323Y0069844D02*
X0375028Y0069844D01*
X0375028Y0070242D02*
X0418323Y0070242D01*
X0418323Y0070641D02*
X0375028Y0070641D01*
X0375028Y0071039D02*
X0418323Y0071039D01*
X0418323Y0071438D02*
X0375028Y0071438D01*
X0375028Y0071836D02*
X0418323Y0071836D01*
X0418323Y0072235D02*
X0375028Y0072235D01*
X0375028Y0072633D02*
X0418323Y0072633D01*
X0418323Y0073032D02*
X0375028Y0073032D01*
X0375028Y0073430D02*
X0418323Y0073430D01*
X0418323Y0073829D02*
X0375028Y0073829D01*
X0375028Y0074227D02*
X0418323Y0074227D01*
X0418323Y0074626D02*
X0375028Y0074626D01*
X0375028Y0075024D02*
X0418323Y0075024D01*
X0418323Y0075423D02*
X0375028Y0075423D01*
X0375028Y0075821D02*
X0418323Y0075821D01*
X0418323Y0076220D02*
X0375028Y0076220D01*
X0375028Y0076619D02*
X0418323Y0076619D01*
X0418323Y0077017D02*
X0375028Y0077017D01*
X0375028Y0077416D02*
X0418323Y0077416D01*
X0418323Y0077814D02*
X0375028Y0077814D01*
X0375028Y0078213D02*
X0418323Y0078213D01*
X0418323Y0078611D02*
X0375028Y0078611D01*
X0375028Y0079010D02*
X0418323Y0079010D01*
X0418323Y0079408D02*
X0375028Y0079408D01*
X0375028Y0079807D02*
X0418323Y0079807D01*
X0418323Y0080205D02*
X0375028Y0080205D01*
X0375028Y0080604D02*
X0418323Y0080604D01*
X0418323Y0081002D02*
X0375028Y0081002D01*
X0375028Y0081401D02*
X0418323Y0081401D01*
X0418323Y0081799D02*
X0375028Y0081799D01*
X0375028Y0082198D02*
X0418323Y0082198D01*
X0418323Y0082596D02*
X0375028Y0082596D01*
X0375028Y0082995D02*
X0418323Y0082995D01*
X0418323Y0083393D02*
X0375028Y0083393D01*
X0375028Y0083792D02*
X0418323Y0083792D01*
X0418323Y0084190D02*
X0375028Y0084190D01*
X0374993Y0084589D02*
X0418323Y0084589D01*
X0418323Y0084987D02*
X0374595Y0084987D01*
X0374532Y0085386D02*
X0418323Y0085386D01*
X0418323Y0085784D02*
X0374532Y0085784D01*
X0374532Y0086183D02*
X0418323Y0086183D01*
X0418323Y0086581D02*
X0374532Y0086581D01*
X0374532Y0086980D02*
X0418323Y0086980D01*
X0418323Y0087378D02*
X0374532Y0087378D01*
X0374532Y0087777D02*
X0418323Y0087777D01*
X0418323Y0088175D02*
X0374532Y0088175D01*
X0374532Y0088574D02*
X0418323Y0088574D01*
X0418323Y0088972D02*
X0374532Y0088972D01*
X0374532Y0089371D02*
X0418323Y0089371D01*
X0418323Y0089769D02*
X0374532Y0089769D01*
X0374532Y0090168D02*
X0418323Y0090168D01*
X0418323Y0090566D02*
X0374532Y0090566D01*
X0374532Y0090965D02*
X0418323Y0090965D01*
X0418323Y0091363D02*
X0374532Y0091363D01*
X0374532Y0091762D02*
X0418323Y0091762D01*
X0418323Y0092160D02*
X0374532Y0092160D01*
X0374532Y0092559D02*
X0418323Y0092559D01*
X0418323Y0092957D02*
X0374532Y0092957D01*
X0374532Y0093356D02*
X0418323Y0093356D01*
X0418323Y0093755D02*
X0374532Y0093755D01*
X0374532Y0094153D02*
X0418323Y0094153D01*
X0418323Y0094552D02*
X0374532Y0094552D01*
X0374532Y0094950D02*
X0418323Y0094950D01*
X0418323Y0095349D02*
X0374532Y0095349D01*
X0374482Y0095747D02*
X0418323Y0095747D01*
X0418323Y0096146D02*
X0374083Y0096146D01*
X0373685Y0096544D02*
X0418323Y0096544D01*
X0418323Y0096943D02*
X0373286Y0096943D01*
X0372888Y0097341D02*
X0418323Y0097341D01*
X0418323Y0097740D02*
X0372489Y0097740D01*
X0372091Y0098138D02*
X0418323Y0098138D01*
X0418323Y0098537D02*
X0371692Y0098537D01*
X0371293Y0098935D02*
X0418323Y0098935D01*
X0418323Y0099334D02*
X0370895Y0099334D01*
X0370496Y0099732D02*
X0418323Y0099732D01*
X0418323Y0100131D02*
X0100213Y0100131D01*
X0100213Y0100529D02*
X0418323Y0100529D01*
X0418323Y0100928D02*
X0100213Y0100928D01*
X0100213Y0101326D02*
X0418323Y0101326D01*
X0418323Y0101725D02*
X0100213Y0101725D01*
X0100213Y0102123D02*
X0418323Y0102123D01*
X0418323Y0102522D02*
X0100213Y0102522D01*
X0100213Y0102920D02*
X0418323Y0102920D01*
X0418323Y0103319D02*
X0100213Y0103319D01*
X0100213Y0103717D02*
X0418323Y0103717D01*
X0418323Y0104116D02*
X0100213Y0104116D01*
X0100213Y0104514D02*
X0418323Y0104514D01*
X0418323Y0104913D02*
X0100213Y0104913D01*
X0100213Y0105311D02*
X0418323Y0105311D01*
X0418323Y0105710D02*
X0100213Y0105710D01*
X0100213Y0106108D02*
X0418323Y0106108D01*
X0418323Y0106507D02*
X0100213Y0106507D01*
X0100213Y0106905D02*
X0418323Y0106905D01*
X0418323Y0107304D02*
X0100213Y0107304D01*
X0100213Y0107702D02*
X0418323Y0107702D01*
X0418323Y0108101D02*
X0100213Y0108101D01*
X0100213Y0108499D02*
X0418323Y0108499D01*
X0418323Y0108898D02*
X0100213Y0108898D01*
X0100213Y0109296D02*
X0418323Y0109296D01*
X0418323Y0109695D02*
X0100213Y0109695D01*
X0100213Y0110093D02*
X0418323Y0110093D01*
X0418323Y0110492D02*
X0100213Y0110492D01*
X0100213Y0110890D02*
X0418323Y0110890D01*
X0418323Y0111289D02*
X0100213Y0111289D01*
X0100213Y0111688D02*
X0418323Y0111688D01*
X0418323Y0112086D02*
X0100213Y0112086D01*
X0100213Y0112485D02*
X0418323Y0112485D01*
X0418323Y0112883D02*
X0100213Y0112883D01*
X0100213Y0113282D02*
X0418323Y0113282D01*
X0418323Y0113680D02*
X0100213Y0113680D01*
X0100213Y0114079D02*
X0418323Y0114079D01*
X0418323Y0114477D02*
X0100213Y0114477D01*
X0100213Y0114876D02*
X0418323Y0114876D01*
X0418323Y0115274D02*
X0100213Y0115274D01*
X0100213Y0115673D02*
X0418323Y0115673D01*
X0418323Y0116071D02*
X0100213Y0116071D01*
X0100213Y0116470D02*
X0418323Y0116470D01*
X0418323Y0116868D02*
X0100213Y0116868D01*
X0100213Y0117267D02*
X0418323Y0117267D01*
X0418323Y0117665D02*
X0100213Y0117665D01*
X0100213Y0118064D02*
X0418323Y0118064D01*
X0418323Y0118462D02*
X0100213Y0118462D01*
X0100213Y0118861D02*
X0418323Y0118861D01*
X0418323Y0119259D02*
X0100213Y0119259D01*
X0100213Y0119658D02*
X0418323Y0119658D01*
X0418323Y0120056D02*
X0100213Y0120056D01*
X0100213Y0120455D02*
X0418323Y0120455D01*
X0418323Y0120853D02*
X0100213Y0120853D01*
X0100213Y0121252D02*
X0418323Y0121252D01*
X0418323Y0121650D02*
X0100213Y0121650D01*
X0100213Y0122049D02*
X0418323Y0122049D01*
X0418323Y0122447D02*
X0100213Y0122447D01*
X0100213Y0122846D02*
X0418323Y0122846D01*
X0418323Y0123244D02*
X0100213Y0123244D01*
X0100213Y0123643D02*
X0418323Y0123643D01*
X0418323Y0124041D02*
X0100213Y0124041D01*
X0100213Y0124440D02*
X0418323Y0124440D01*
X0418323Y0124838D02*
X0100213Y0124838D01*
X0100213Y0125237D02*
X0418323Y0125237D01*
X0418323Y0125635D02*
X0100213Y0125635D01*
X0100213Y0126034D02*
X0418323Y0126034D01*
X0418323Y0126432D02*
X0100213Y0126432D01*
X0100213Y0126831D02*
X0418323Y0126831D01*
X0418323Y0127229D02*
X0100213Y0127229D01*
X0100213Y0127628D02*
X0418323Y0127628D01*
X0418323Y0128026D02*
X0100213Y0128026D01*
X0100213Y0128425D02*
X0418323Y0128425D01*
X0418323Y0128823D02*
X0100213Y0128823D01*
X0100213Y0129222D02*
X0418323Y0129222D01*
X0418323Y0129621D02*
X0100213Y0129621D01*
X0100213Y0130019D02*
X0418323Y0130019D01*
X0418323Y0130418D02*
X0100213Y0130418D01*
X0100213Y0130816D02*
X0418323Y0130816D01*
X0418323Y0131215D02*
X0100213Y0131215D01*
X0100213Y0131613D02*
X0418323Y0131613D01*
X0418323Y0132012D02*
X0100213Y0132012D01*
X0100213Y0132410D02*
X0418323Y0132410D01*
X0418323Y0132809D02*
X0100213Y0132809D01*
X0100213Y0133207D02*
X0418323Y0133207D01*
X0418323Y0133606D02*
X0100213Y0133606D01*
X0100213Y0134004D02*
X0418323Y0134004D01*
X0418323Y0134403D02*
X0100213Y0134403D01*
X0100213Y0134801D02*
X0418323Y0134801D01*
X0418323Y0135200D02*
X0100213Y0135200D01*
X0100213Y0135598D02*
X0418323Y0135598D01*
X0418323Y0135997D02*
X0100213Y0135997D01*
X0100213Y0136395D02*
X0418323Y0136395D01*
X0418323Y0136794D02*
X0100213Y0136794D01*
X0100213Y0137192D02*
X0418323Y0137192D01*
X0418323Y0137591D02*
X0100213Y0137591D01*
X0100213Y0137989D02*
X0418323Y0137989D01*
X0418323Y0138388D02*
X0100213Y0138388D01*
X0100213Y0138786D02*
X0418323Y0138786D01*
X0418323Y0139185D02*
X0100213Y0139185D01*
X0100213Y0139583D02*
X0418323Y0139583D01*
X0418323Y0139982D02*
X0100213Y0139982D01*
X0100213Y0140380D02*
X0418323Y0140380D01*
X0418323Y0140779D02*
X0100213Y0140779D01*
X0100213Y0141177D02*
X0418323Y0141177D01*
X0418323Y0141576D02*
X0100213Y0141576D01*
X0100213Y0141974D02*
X0418323Y0141974D01*
X0418323Y0142373D02*
X0100213Y0142373D01*
X0100213Y0142771D02*
X0418323Y0142771D01*
X0418323Y0143170D02*
X0100213Y0143170D01*
X0100213Y0143568D02*
X0418323Y0143568D01*
X0418323Y0143967D02*
X0100213Y0143967D01*
X0100213Y0144365D02*
X0418323Y0144365D01*
X0418323Y0144764D02*
X0100213Y0144764D01*
X0100213Y0145162D02*
X0418323Y0145162D01*
X0418323Y0145561D02*
X0100213Y0145561D01*
X0100213Y0145959D02*
X0418323Y0145959D01*
X0418323Y0146358D02*
X0100213Y0146358D01*
X0100213Y0146757D02*
X0418323Y0146757D01*
X0418323Y0147155D02*
X0100213Y0147155D01*
X0100213Y0147554D02*
X0418323Y0147554D01*
X0418323Y0147952D02*
X0100213Y0147952D01*
X0100213Y0148351D02*
X0418323Y0148351D01*
X0418323Y0148749D02*
X0100213Y0148749D01*
X0100213Y0149148D02*
X0418323Y0149148D01*
X0418323Y0149546D02*
X0100213Y0149546D01*
X0100213Y0149945D02*
X0418323Y0149945D01*
X0418323Y0150343D02*
X0100213Y0150343D01*
X0100213Y0150742D02*
X0418323Y0150742D01*
X0418323Y0151140D02*
X0100213Y0151140D01*
X0100213Y0151539D02*
X0418323Y0151539D01*
X0418323Y0151937D02*
X0100213Y0151937D01*
X0100213Y0152336D02*
X0418323Y0152336D01*
X0418323Y0152734D02*
X0100213Y0152734D01*
X0100213Y0153133D02*
X0418323Y0153133D01*
X0418323Y0153531D02*
X0100213Y0153531D01*
X0100213Y0153930D02*
X0418323Y0153930D01*
X0418323Y0154328D02*
X0100213Y0154328D01*
X0100213Y0154727D02*
X0418323Y0154727D01*
X0418323Y0155125D02*
X0100213Y0155125D01*
X0100213Y0155524D02*
X0418323Y0155524D01*
X0418323Y0155922D02*
X0100213Y0155922D01*
X0100213Y0156321D02*
X0418323Y0156321D01*
X0418323Y0156719D02*
X0100213Y0156719D01*
X0100213Y0157118D02*
X0418323Y0157118D01*
X0418323Y0157516D02*
X0100213Y0157516D01*
X0100213Y0157915D02*
X0418323Y0157915D01*
X0369789Y0095349D02*
X0369532Y0095349D01*
X0369532Y0094950D02*
X0370187Y0094950D01*
X0370586Y0094552D02*
X0369532Y0094552D01*
X0369532Y0094153D02*
X0370932Y0094153D01*
X0370932Y0093755D02*
X0369532Y0093755D01*
X0369532Y0093356D02*
X0370932Y0093356D01*
X0370932Y0092957D02*
X0369532Y0092957D01*
X0369532Y0092559D02*
X0370932Y0092559D01*
X0370932Y0092160D02*
X0369532Y0092160D01*
X0369532Y0091762D02*
X0370932Y0091762D01*
X0370932Y0091363D02*
X0369532Y0091363D01*
X0369532Y0090965D02*
X0370932Y0090965D01*
X0370932Y0090566D02*
X0369532Y0090566D01*
X0369532Y0090168D02*
X0370932Y0090168D01*
X0370932Y0089769D02*
X0369532Y0089769D01*
X0369532Y0089371D02*
X0370932Y0089371D01*
X0370932Y0088972D02*
X0369532Y0088972D01*
X0369532Y0088574D02*
X0370932Y0088574D01*
X0370932Y0088175D02*
X0369532Y0088175D01*
X0369532Y0087777D02*
X0370932Y0087777D01*
X0370932Y0087378D02*
X0369532Y0087378D01*
X0369532Y0086980D02*
X0370932Y0086980D01*
X0370932Y0086581D02*
X0369532Y0086581D01*
X0369532Y0086183D02*
X0370932Y0086183D01*
X0370932Y0085784D02*
X0369532Y0085784D01*
X0369532Y0085386D02*
X0370932Y0085386D01*
X0370870Y0084987D02*
X0369595Y0084987D01*
X0369993Y0084589D02*
X0370471Y0084589D01*
X0370436Y0084190D02*
X0370028Y0084190D01*
X0370028Y0083792D02*
X0370436Y0083792D01*
X0370436Y0083393D02*
X0370028Y0083393D01*
X0370028Y0082995D02*
X0370436Y0082995D01*
X0370436Y0082596D02*
X0370028Y0082596D01*
X0370028Y0082198D02*
X0370436Y0082198D01*
X0370436Y0081799D02*
X0370028Y0081799D01*
X0370028Y0081401D02*
X0370436Y0081401D01*
X0370436Y0081002D02*
X0370028Y0081002D01*
X0370028Y0080604D02*
X0370436Y0080604D01*
X0370436Y0080205D02*
X0370028Y0080205D01*
X0370028Y0079807D02*
X0370436Y0079807D01*
X0370436Y0079408D02*
X0370028Y0079408D01*
X0370028Y0079010D02*
X0370436Y0079010D01*
X0370436Y0078611D02*
X0370028Y0078611D01*
X0370028Y0078213D02*
X0370436Y0078213D01*
X0370436Y0077814D02*
X0370028Y0077814D01*
X0370028Y0077416D02*
X0370436Y0077416D01*
X0370436Y0077017D02*
X0370028Y0077017D01*
X0370028Y0076619D02*
X0370436Y0076619D01*
X0370436Y0076220D02*
X0370028Y0076220D01*
X0370028Y0075821D02*
X0370436Y0075821D01*
X0370436Y0075423D02*
X0370028Y0075423D01*
X0370028Y0075024D02*
X0370436Y0075024D01*
X0370436Y0074626D02*
X0370028Y0074626D01*
X0370028Y0074227D02*
X0370436Y0074227D01*
X0370436Y0073829D02*
X0370028Y0073829D01*
X0370028Y0073430D02*
X0370436Y0073430D01*
X0370436Y0073032D02*
X0370028Y0073032D01*
X0370028Y0072633D02*
X0370436Y0072633D01*
X0370436Y0072235D02*
X0370028Y0072235D01*
X0370028Y0071836D02*
X0370436Y0071836D01*
X0370436Y0071438D02*
X0370028Y0071438D01*
X0370028Y0071039D02*
X0370436Y0071039D01*
X0370436Y0070641D02*
X0370028Y0070641D01*
X0370028Y0070242D02*
X0370436Y0070242D01*
X0370436Y0069844D02*
X0370028Y0069844D01*
X0370028Y0069445D02*
X0370436Y0069445D01*
X0370436Y0069047D02*
X0370028Y0069047D01*
X0370028Y0068648D02*
X0370436Y0068648D01*
X0370436Y0068250D02*
X0370028Y0068250D01*
X0370028Y0067851D02*
X0370436Y0067851D01*
X0370436Y0067453D02*
X0370028Y0067453D01*
X0370028Y0067054D02*
X0370436Y0067054D01*
X0370436Y0066656D02*
X0370028Y0066656D01*
X0370028Y0066257D02*
X0370436Y0066257D01*
X0370436Y0065859D02*
X0370028Y0065859D01*
X0370028Y0065460D02*
X0370436Y0065460D01*
X0370436Y0065062D02*
X0370028Y0065062D01*
X0370028Y0064663D02*
X0370436Y0064663D01*
X0370436Y0064265D02*
X0370028Y0064265D01*
X0370028Y0063866D02*
X0370436Y0063866D01*
X0370436Y0063468D02*
X0370028Y0063468D01*
X0370028Y0063069D02*
X0370436Y0063069D01*
X0370436Y0062671D02*
X0370028Y0062671D01*
X0370028Y0062272D02*
X0370436Y0062272D01*
X0370436Y0061874D02*
X0370028Y0061874D01*
X0370028Y0061475D02*
X0370436Y0061475D01*
X0370436Y0061077D02*
X0370028Y0061077D01*
X0370028Y0060678D02*
X0370436Y0060678D01*
X0370436Y0060280D02*
X0370028Y0060280D01*
X0370028Y0059881D02*
X0370436Y0059881D01*
X0370436Y0059483D02*
X0370028Y0059483D01*
X0370028Y0059084D02*
X0370436Y0059084D01*
X0370642Y0058686D02*
X0369823Y0058686D01*
X0365642Y0058686D02*
X0364823Y0058686D01*
X0365028Y0059084D02*
X0365436Y0059084D01*
X0365436Y0059483D02*
X0365028Y0059483D01*
X0365028Y0059881D02*
X0365436Y0059881D01*
X0365436Y0060280D02*
X0365028Y0060280D01*
X0365028Y0060678D02*
X0365436Y0060678D01*
X0365436Y0061077D02*
X0365028Y0061077D01*
X0365028Y0061475D02*
X0365436Y0061475D01*
X0365436Y0061874D02*
X0365028Y0061874D01*
X0365028Y0062272D02*
X0365436Y0062272D01*
X0365436Y0062671D02*
X0365028Y0062671D01*
X0365028Y0063069D02*
X0365436Y0063069D01*
X0365436Y0063468D02*
X0365028Y0063468D01*
X0365028Y0063866D02*
X0365436Y0063866D01*
X0365436Y0064265D02*
X0365028Y0064265D01*
X0365028Y0064663D02*
X0365436Y0064663D01*
X0365436Y0065062D02*
X0365028Y0065062D01*
X0365028Y0065460D02*
X0365436Y0065460D01*
X0365436Y0065859D02*
X0365028Y0065859D01*
X0365028Y0066257D02*
X0365436Y0066257D01*
X0365436Y0066656D02*
X0365028Y0066656D01*
X0365028Y0067054D02*
X0365436Y0067054D01*
X0365436Y0067453D02*
X0365028Y0067453D01*
X0365028Y0067851D02*
X0365436Y0067851D01*
X0365436Y0068250D02*
X0365028Y0068250D01*
X0365028Y0068648D02*
X0365436Y0068648D01*
X0365436Y0069047D02*
X0365028Y0069047D01*
X0365028Y0069445D02*
X0365436Y0069445D01*
X0365436Y0069844D02*
X0365028Y0069844D01*
X0365028Y0070242D02*
X0365436Y0070242D01*
X0365436Y0070641D02*
X0365028Y0070641D01*
X0365028Y0071039D02*
X0365436Y0071039D01*
X0365436Y0071438D02*
X0365028Y0071438D01*
X0365028Y0071836D02*
X0365436Y0071836D01*
X0365436Y0072235D02*
X0365028Y0072235D01*
X0365028Y0072633D02*
X0365436Y0072633D01*
X0365436Y0073032D02*
X0365028Y0073032D01*
X0365028Y0073430D02*
X0365436Y0073430D01*
X0365436Y0073829D02*
X0365028Y0073829D01*
X0365028Y0074227D02*
X0365436Y0074227D01*
X0365436Y0074626D02*
X0365028Y0074626D01*
X0365028Y0075024D02*
X0365436Y0075024D01*
X0365436Y0075423D02*
X0365028Y0075423D01*
X0365028Y0075821D02*
X0365436Y0075821D01*
X0365436Y0076220D02*
X0365028Y0076220D01*
X0365028Y0076619D02*
X0365436Y0076619D01*
X0365436Y0077017D02*
X0365028Y0077017D01*
X0365028Y0077416D02*
X0365436Y0077416D01*
X0365436Y0077814D02*
X0365028Y0077814D01*
X0365028Y0078213D02*
X0365436Y0078213D01*
X0365436Y0078611D02*
X0365028Y0078611D01*
X0365028Y0079010D02*
X0365436Y0079010D01*
X0365436Y0079408D02*
X0365028Y0079408D01*
X0365028Y0079807D02*
X0365436Y0079807D01*
X0365436Y0080205D02*
X0365028Y0080205D01*
X0365028Y0080604D02*
X0365436Y0080604D01*
X0365436Y0081002D02*
X0365028Y0081002D01*
X0365028Y0081401D02*
X0365436Y0081401D01*
X0365436Y0081799D02*
X0365028Y0081799D01*
X0365028Y0082198D02*
X0365436Y0082198D01*
X0365436Y0082596D02*
X0365028Y0082596D01*
X0365028Y0082995D02*
X0365436Y0082995D01*
X0365436Y0083393D02*
X0365028Y0083393D01*
X0365028Y0083792D02*
X0365436Y0083792D01*
X0365436Y0084190D02*
X0365028Y0084190D01*
X0364993Y0084589D02*
X0365471Y0084589D01*
X0365870Y0084987D02*
X0364595Y0084987D01*
X0364532Y0085386D02*
X0365932Y0085386D01*
X0365932Y0085784D02*
X0364532Y0085784D01*
X0364532Y0086183D02*
X0365932Y0086183D01*
X0365932Y0086581D02*
X0364532Y0086581D01*
X0364532Y0086980D02*
X0365932Y0086980D01*
X0365932Y0087378D02*
X0364532Y0087378D01*
X0364532Y0087777D02*
X0365932Y0087777D01*
X0365932Y0088175D02*
X0364532Y0088175D01*
X0364532Y0088574D02*
X0365932Y0088574D01*
X0365932Y0088972D02*
X0364532Y0088972D01*
X0364532Y0089371D02*
X0365932Y0089371D01*
X0365932Y0089769D02*
X0364532Y0089769D01*
X0364532Y0090168D02*
X0365932Y0090168D01*
X0365932Y0090566D02*
X0364532Y0090566D01*
X0364532Y0090965D02*
X0365932Y0090965D01*
X0365932Y0091363D02*
X0364532Y0091363D01*
X0364532Y0091762D02*
X0365932Y0091762D01*
X0365932Y0092160D02*
X0364532Y0092160D01*
X0364532Y0092559D02*
X0365932Y0092559D01*
X0365932Y0092957D02*
X0364532Y0092957D01*
X0364532Y0093356D02*
X0365932Y0093356D01*
X0365932Y0093755D02*
X0364532Y0093755D01*
X0364532Y0094153D02*
X0365932Y0094153D01*
X0365932Y0094552D02*
X0364532Y0094552D01*
X0364532Y0094950D02*
X0365932Y0094950D01*
X0365932Y0095349D02*
X0364532Y0095349D01*
X0364532Y0095747D02*
X0365932Y0095747D01*
X0365932Y0096146D02*
X0364532Y0096146D01*
X0360932Y0096146D02*
X0359532Y0096146D01*
X0359532Y0095747D02*
X0360932Y0095747D01*
X0360932Y0095349D02*
X0359532Y0095349D01*
X0359532Y0094950D02*
X0360932Y0094950D01*
X0360932Y0094552D02*
X0359532Y0094552D01*
X0359532Y0094153D02*
X0360932Y0094153D01*
X0360932Y0093755D02*
X0359532Y0093755D01*
X0359532Y0093356D02*
X0360932Y0093356D01*
X0360932Y0092957D02*
X0359532Y0092957D01*
X0359532Y0092559D02*
X0360932Y0092559D01*
X0360932Y0092160D02*
X0359532Y0092160D01*
X0359532Y0091762D02*
X0360932Y0091762D01*
X0360932Y0091363D02*
X0359532Y0091363D01*
X0359532Y0090965D02*
X0360932Y0090965D01*
X0360932Y0090566D02*
X0359532Y0090566D01*
X0359532Y0090168D02*
X0360932Y0090168D01*
X0360932Y0089769D02*
X0359532Y0089769D01*
X0359532Y0089371D02*
X0360932Y0089371D01*
X0360932Y0088972D02*
X0359532Y0088972D01*
X0359532Y0088574D02*
X0360932Y0088574D01*
X0360932Y0088175D02*
X0359532Y0088175D01*
X0359532Y0087777D02*
X0360932Y0087777D01*
X0360932Y0087378D02*
X0359532Y0087378D01*
X0359532Y0086980D02*
X0360932Y0086980D01*
X0360932Y0086581D02*
X0359532Y0086581D01*
X0359532Y0086183D02*
X0360932Y0086183D01*
X0360932Y0085784D02*
X0359532Y0085784D01*
X0359532Y0085386D02*
X0360932Y0085386D01*
X0360870Y0084987D02*
X0359595Y0084987D01*
X0359993Y0084589D02*
X0360471Y0084589D01*
X0360436Y0084190D02*
X0360028Y0084190D01*
X0360028Y0083792D02*
X0360436Y0083792D01*
X0360436Y0083393D02*
X0360028Y0083393D01*
X0360028Y0082995D02*
X0360436Y0082995D01*
X0360436Y0082596D02*
X0360028Y0082596D01*
X0360028Y0082198D02*
X0360436Y0082198D01*
X0360436Y0081799D02*
X0360028Y0081799D01*
X0360028Y0081401D02*
X0360436Y0081401D01*
X0360436Y0081002D02*
X0360028Y0081002D01*
X0360028Y0080604D02*
X0360436Y0080604D01*
X0360436Y0080205D02*
X0360028Y0080205D01*
X0360028Y0079807D02*
X0360436Y0079807D01*
X0360436Y0079408D02*
X0360028Y0079408D01*
X0360028Y0079010D02*
X0360436Y0079010D01*
X0360436Y0078611D02*
X0360028Y0078611D01*
X0360028Y0078213D02*
X0360436Y0078213D01*
X0360436Y0077814D02*
X0360028Y0077814D01*
X0360028Y0077416D02*
X0360436Y0077416D01*
X0360436Y0077017D02*
X0360028Y0077017D01*
X0360028Y0076619D02*
X0360436Y0076619D01*
X0360436Y0076220D02*
X0360028Y0076220D01*
X0360028Y0075821D02*
X0360436Y0075821D01*
X0360436Y0075423D02*
X0360028Y0075423D01*
X0360028Y0075024D02*
X0360436Y0075024D01*
X0360436Y0074626D02*
X0360028Y0074626D01*
X0360028Y0074227D02*
X0360436Y0074227D01*
X0360436Y0073829D02*
X0360028Y0073829D01*
X0360028Y0073430D02*
X0360436Y0073430D01*
X0360436Y0073032D02*
X0360028Y0073032D01*
X0360028Y0072633D02*
X0360436Y0072633D01*
X0360436Y0072235D02*
X0360028Y0072235D01*
X0360028Y0071836D02*
X0360436Y0071836D01*
X0360436Y0071438D02*
X0360028Y0071438D01*
X0360028Y0071039D02*
X0360436Y0071039D01*
X0360436Y0070641D02*
X0360028Y0070641D01*
X0360028Y0070242D02*
X0360436Y0070242D01*
X0360436Y0069844D02*
X0360028Y0069844D01*
X0360028Y0069445D02*
X0360436Y0069445D01*
X0360436Y0069047D02*
X0360028Y0069047D01*
X0360028Y0068648D02*
X0360436Y0068648D01*
X0360436Y0068250D02*
X0360028Y0068250D01*
X0360028Y0067851D02*
X0360436Y0067851D01*
X0360436Y0067453D02*
X0360028Y0067453D01*
X0360028Y0067054D02*
X0360436Y0067054D01*
X0360436Y0066656D02*
X0360028Y0066656D01*
X0360028Y0066257D02*
X0360436Y0066257D01*
X0360436Y0065859D02*
X0360028Y0065859D01*
X0360028Y0065460D02*
X0360436Y0065460D01*
X0360436Y0065062D02*
X0360028Y0065062D01*
X0360028Y0064663D02*
X0360436Y0064663D01*
X0360436Y0064265D02*
X0360028Y0064265D01*
X0360028Y0063866D02*
X0360436Y0063866D01*
X0360436Y0063468D02*
X0360028Y0063468D01*
X0360028Y0063069D02*
X0360436Y0063069D01*
X0360436Y0062671D02*
X0360028Y0062671D01*
X0360028Y0062272D02*
X0360436Y0062272D01*
X0360436Y0061874D02*
X0360028Y0061874D01*
X0360028Y0061475D02*
X0360436Y0061475D01*
X0360436Y0061077D02*
X0360028Y0061077D01*
X0360028Y0060678D02*
X0360436Y0060678D01*
X0360436Y0060280D02*
X0360028Y0060280D01*
X0360028Y0059881D02*
X0360436Y0059881D01*
X0360436Y0059483D02*
X0360028Y0059483D01*
X0360028Y0059084D02*
X0360436Y0059084D01*
X0360642Y0058686D02*
X0359823Y0058686D01*
X0355642Y0058686D02*
X0354823Y0058686D01*
X0355028Y0059084D02*
X0355436Y0059084D01*
X0355436Y0059483D02*
X0355028Y0059483D01*
X0355028Y0059881D02*
X0355436Y0059881D01*
X0355436Y0060280D02*
X0355028Y0060280D01*
X0355028Y0060678D02*
X0355436Y0060678D01*
X0355436Y0061077D02*
X0355028Y0061077D01*
X0355028Y0061475D02*
X0355436Y0061475D01*
X0355436Y0061874D02*
X0355028Y0061874D01*
X0355028Y0062272D02*
X0355436Y0062272D01*
X0355436Y0062671D02*
X0355028Y0062671D01*
X0355028Y0063069D02*
X0355436Y0063069D01*
X0355436Y0063468D02*
X0355028Y0063468D01*
X0355028Y0063866D02*
X0355436Y0063866D01*
X0355436Y0064265D02*
X0355028Y0064265D01*
X0355028Y0064663D02*
X0355436Y0064663D01*
X0355436Y0065062D02*
X0355028Y0065062D01*
X0355028Y0065460D02*
X0355436Y0065460D01*
X0355436Y0065859D02*
X0355028Y0065859D01*
X0355028Y0066257D02*
X0355436Y0066257D01*
X0355436Y0066656D02*
X0355028Y0066656D01*
X0355028Y0067054D02*
X0355436Y0067054D01*
X0355436Y0067453D02*
X0355028Y0067453D01*
X0355028Y0067851D02*
X0355436Y0067851D01*
X0355436Y0068250D02*
X0355028Y0068250D01*
X0355028Y0068648D02*
X0355436Y0068648D01*
X0355436Y0069047D02*
X0355028Y0069047D01*
X0355028Y0069445D02*
X0355436Y0069445D01*
X0355436Y0069844D02*
X0355028Y0069844D01*
X0355028Y0070242D02*
X0355436Y0070242D01*
X0355436Y0070641D02*
X0355028Y0070641D01*
X0355028Y0071039D02*
X0355436Y0071039D01*
X0355436Y0071438D02*
X0355028Y0071438D01*
X0355028Y0071836D02*
X0355436Y0071836D01*
X0355436Y0072235D02*
X0355028Y0072235D01*
X0355028Y0072633D02*
X0355436Y0072633D01*
X0355436Y0073032D02*
X0355028Y0073032D01*
X0355028Y0073430D02*
X0355436Y0073430D01*
X0355436Y0073829D02*
X0355028Y0073829D01*
X0355028Y0074227D02*
X0355436Y0074227D01*
X0355436Y0074626D02*
X0355028Y0074626D01*
X0355028Y0075024D02*
X0355436Y0075024D01*
X0355436Y0075423D02*
X0355028Y0075423D01*
X0355028Y0075821D02*
X0355436Y0075821D01*
X0355436Y0076220D02*
X0355028Y0076220D01*
X0355028Y0076619D02*
X0355436Y0076619D01*
X0355436Y0077017D02*
X0355028Y0077017D01*
X0355028Y0077416D02*
X0355436Y0077416D01*
X0355436Y0077814D02*
X0355028Y0077814D01*
X0355028Y0078213D02*
X0355436Y0078213D01*
X0355436Y0078611D02*
X0355028Y0078611D01*
X0355028Y0079010D02*
X0355436Y0079010D01*
X0355436Y0079408D02*
X0355028Y0079408D01*
X0355028Y0079807D02*
X0355436Y0079807D01*
X0355436Y0080205D02*
X0355028Y0080205D01*
X0355028Y0080604D02*
X0355436Y0080604D01*
X0355436Y0081002D02*
X0355028Y0081002D01*
X0355028Y0081401D02*
X0355436Y0081401D01*
X0355436Y0081799D02*
X0355028Y0081799D01*
X0355028Y0082198D02*
X0355436Y0082198D01*
X0355436Y0082596D02*
X0355028Y0082596D01*
X0355028Y0082995D02*
X0355436Y0082995D01*
X0355436Y0083393D02*
X0355028Y0083393D01*
X0355028Y0083792D02*
X0355436Y0083792D01*
X0355436Y0084190D02*
X0355028Y0084190D01*
X0354993Y0084589D02*
X0355471Y0084589D01*
X0355870Y0084987D02*
X0354595Y0084987D01*
X0354532Y0085386D02*
X0355932Y0085386D01*
X0355932Y0085784D02*
X0354532Y0085784D01*
X0354532Y0086183D02*
X0355932Y0086183D01*
X0355932Y0086581D02*
X0354532Y0086581D01*
X0354532Y0086980D02*
X0355932Y0086980D01*
X0355932Y0087378D02*
X0354532Y0087378D01*
X0354532Y0087777D02*
X0355932Y0087777D01*
X0355932Y0088175D02*
X0354532Y0088175D01*
X0354532Y0088574D02*
X0355932Y0088574D01*
X0355932Y0088972D02*
X0354532Y0088972D01*
X0354532Y0089371D02*
X0355932Y0089371D01*
X0355932Y0089769D02*
X0354532Y0089769D01*
X0354532Y0090168D02*
X0355932Y0090168D01*
X0355932Y0090566D02*
X0354532Y0090566D01*
X0354532Y0090965D02*
X0355932Y0090965D01*
X0355932Y0091363D02*
X0354456Y0091363D01*
X0354057Y0091762D02*
X0355932Y0091762D01*
X0355932Y0092160D02*
X0353659Y0092160D01*
X0353260Y0092559D02*
X0355932Y0092559D01*
X0355932Y0092957D02*
X0352862Y0092957D01*
X0352463Y0093356D02*
X0355932Y0093356D01*
X0355932Y0093755D02*
X0352065Y0093755D01*
X0351666Y0094153D02*
X0355932Y0094153D01*
X0355932Y0094552D02*
X0351268Y0094552D01*
X0350869Y0094950D02*
X0355932Y0094950D01*
X0355932Y0095349D02*
X0350471Y0095349D01*
X0350072Y0095747D02*
X0355932Y0095747D01*
X0355932Y0096146D02*
X0349674Y0096146D01*
X0347771Y0092957D02*
X0279033Y0092957D01*
X0278634Y0092559D02*
X0348169Y0092559D01*
X0348568Y0092160D02*
X0278236Y0092160D01*
X0277837Y0091762D02*
X0348966Y0091762D01*
X0349365Y0091363D02*
X0277439Y0091363D01*
X0277040Y0090965D02*
X0349763Y0090965D01*
X0350162Y0090566D02*
X0276642Y0090566D01*
X0276243Y0090168D02*
X0350560Y0090168D01*
X0350932Y0089769D02*
X0275845Y0089769D01*
X0275446Y0089371D02*
X0350932Y0089371D01*
X0350932Y0088972D02*
X0275047Y0088972D01*
X0274649Y0088574D02*
X0350932Y0088574D01*
X0350932Y0088175D02*
X0274454Y0088175D01*
X0274454Y0087777D02*
X0350932Y0087777D01*
X0350932Y0087378D02*
X0274454Y0087378D01*
X0274454Y0086980D02*
X0350932Y0086980D01*
X0350932Y0086581D02*
X0274454Y0086581D01*
X0274454Y0086183D02*
X0350932Y0086183D01*
X0350932Y0085784D02*
X0274454Y0085784D01*
X0274454Y0085386D02*
X0350932Y0085386D01*
X0350870Y0084987D02*
X0274454Y0084987D01*
X0274454Y0084589D02*
X0350471Y0084589D01*
X0350436Y0084190D02*
X0274454Y0084190D01*
X0274454Y0083792D02*
X0350436Y0083792D01*
X0350436Y0083393D02*
X0274454Y0083393D01*
X0274454Y0082995D02*
X0350436Y0082995D01*
X0350436Y0082596D02*
X0274454Y0082596D01*
X0274454Y0082198D02*
X0350436Y0082198D01*
X0350436Y0081799D02*
X0274454Y0081799D01*
X0274454Y0081401D02*
X0350436Y0081401D01*
X0350436Y0081002D02*
X0274454Y0081002D01*
X0274454Y0080604D02*
X0350436Y0080604D01*
X0350436Y0080205D02*
X0274454Y0080205D01*
X0274454Y0079807D02*
X0350436Y0079807D01*
X0350436Y0079408D02*
X0274454Y0079408D01*
X0274454Y0079010D02*
X0350436Y0079010D01*
X0350436Y0078611D02*
X0274454Y0078611D01*
X0274454Y0078213D02*
X0350436Y0078213D01*
X0350436Y0077814D02*
X0274454Y0077814D01*
X0274454Y0077416D02*
X0350436Y0077416D01*
X0350436Y0077017D02*
X0274454Y0077017D01*
X0274454Y0076619D02*
X0350436Y0076619D01*
X0350436Y0076220D02*
X0274454Y0076220D01*
X0274454Y0075821D02*
X0350436Y0075821D01*
X0350436Y0075423D02*
X0274454Y0075423D01*
X0274454Y0075024D02*
X0350436Y0075024D01*
X0350436Y0074626D02*
X0274454Y0074626D01*
X0274454Y0074227D02*
X0350436Y0074227D01*
X0350436Y0073829D02*
X0274454Y0073829D01*
X0274454Y0073430D02*
X0350436Y0073430D01*
X0350436Y0073032D02*
X0274454Y0073032D01*
X0274454Y0072633D02*
X0350436Y0072633D01*
X0350436Y0072235D02*
X0274454Y0072235D01*
X0274454Y0071836D02*
X0350436Y0071836D01*
X0350436Y0071438D02*
X0274454Y0071438D01*
X0274454Y0071039D02*
X0350436Y0071039D01*
X0350436Y0070641D02*
X0274454Y0070641D01*
X0274454Y0070242D02*
X0350436Y0070242D01*
X0350436Y0069844D02*
X0274454Y0069844D01*
X0274454Y0069445D02*
X0350436Y0069445D01*
X0350436Y0069047D02*
X0274454Y0069047D01*
X0274454Y0068648D02*
X0350436Y0068648D01*
X0350436Y0068250D02*
X0274454Y0068250D01*
X0274454Y0067851D02*
X0350436Y0067851D01*
X0350436Y0067453D02*
X0274454Y0067453D01*
X0274454Y0067054D02*
X0350436Y0067054D01*
X0350436Y0066656D02*
X0274454Y0066656D01*
X0274454Y0066257D02*
X0350436Y0066257D01*
X0350436Y0065859D02*
X0274454Y0065859D01*
X0274454Y0065460D02*
X0350436Y0065460D01*
X0350436Y0065062D02*
X0274454Y0065062D01*
X0274454Y0064663D02*
X0350436Y0064663D01*
X0350436Y0064265D02*
X0274454Y0064265D01*
X0274454Y0063866D02*
X0350436Y0063866D01*
X0350436Y0063468D02*
X0274454Y0063468D01*
X0274454Y0063069D02*
X0350436Y0063069D01*
X0350436Y0062671D02*
X0274454Y0062671D01*
X0274454Y0062272D02*
X0350436Y0062272D01*
X0350436Y0061874D02*
X0274454Y0061874D01*
X0274454Y0061475D02*
X0350436Y0061475D01*
X0350436Y0061077D02*
X0274454Y0061077D01*
X0274454Y0060678D02*
X0350436Y0060678D01*
X0350436Y0060280D02*
X0274454Y0060280D01*
X0274454Y0059881D02*
X0350436Y0059881D01*
X0350436Y0059483D02*
X0274454Y0059483D01*
X0274454Y0059084D02*
X0350436Y0059084D01*
X0350642Y0058686D02*
X0274454Y0058686D01*
X0270854Y0058686D02*
X0238587Y0058686D01*
X0238587Y0059084D02*
X0270854Y0059084D01*
X0270854Y0059483D02*
X0238587Y0059483D01*
X0238587Y0059881D02*
X0270854Y0059881D01*
X0270854Y0060280D02*
X0238587Y0060280D01*
X0238587Y0060678D02*
X0270854Y0060678D01*
X0270854Y0061077D02*
X0238587Y0061077D01*
X0238587Y0061475D02*
X0270854Y0061475D01*
X0270854Y0061874D02*
X0238587Y0061874D01*
X0238587Y0062272D02*
X0270854Y0062272D01*
X0270854Y0062671D02*
X0238587Y0062671D01*
X0238587Y0063069D02*
X0270854Y0063069D01*
X0270854Y0063468D02*
X0238587Y0063468D01*
X0238587Y0063866D02*
X0270854Y0063866D01*
X0270854Y0064265D02*
X0238587Y0064265D01*
X0238587Y0064663D02*
X0270854Y0064663D01*
X0270854Y0065062D02*
X0238587Y0065062D01*
X0238587Y0065460D02*
X0270854Y0065460D01*
X0270854Y0065859D02*
X0238587Y0065859D01*
X0238587Y0066257D02*
X0270854Y0066257D01*
X0270854Y0066656D02*
X0238587Y0066656D01*
X0238587Y0067054D02*
X0270854Y0067054D01*
X0270854Y0067453D02*
X0238587Y0067453D01*
X0238587Y0067851D02*
X0270854Y0067851D01*
X0270854Y0068250D02*
X0238587Y0068250D01*
X0238587Y0068648D02*
X0270854Y0068648D01*
X0270854Y0069047D02*
X0238587Y0069047D01*
X0238587Y0069445D02*
X0270854Y0069445D01*
X0270854Y0069844D02*
X0238587Y0069844D01*
X0238587Y0070242D02*
X0270854Y0070242D01*
X0270854Y0070641D02*
X0238587Y0070641D01*
X0238587Y0071039D02*
X0270854Y0071039D01*
X0270854Y0071438D02*
X0238587Y0071438D01*
X0238587Y0071836D02*
X0270854Y0071836D01*
X0270854Y0072235D02*
X0238587Y0072235D01*
X0238587Y0072633D02*
X0270854Y0072633D01*
X0270854Y0073032D02*
X0238587Y0073032D01*
X0238587Y0073430D02*
X0270854Y0073430D01*
X0270854Y0073829D02*
X0238587Y0073829D01*
X0238587Y0074227D02*
X0270854Y0074227D01*
X0270854Y0074626D02*
X0238587Y0074626D01*
X0238587Y0075024D02*
X0270854Y0075024D01*
X0270854Y0075423D02*
X0238587Y0075423D01*
X0238587Y0075821D02*
X0270854Y0075821D01*
X0270854Y0076220D02*
X0238587Y0076220D01*
X0238587Y0076619D02*
X0270854Y0076619D01*
X0270854Y0077017D02*
X0238587Y0077017D01*
X0238587Y0077416D02*
X0270854Y0077416D01*
X0270854Y0077814D02*
X0238587Y0077814D01*
X0238587Y0078213D02*
X0270854Y0078213D01*
X0270854Y0078611D02*
X0238587Y0078611D01*
X0238587Y0079010D02*
X0270854Y0079010D01*
X0270854Y0079408D02*
X0238587Y0079408D01*
X0238587Y0079807D02*
X0270854Y0079807D01*
X0270854Y0080205D02*
X0238587Y0080205D01*
X0238587Y0080604D02*
X0270854Y0080604D01*
X0270854Y0081002D02*
X0238587Y0081002D01*
X0238587Y0081401D02*
X0270854Y0081401D01*
X0270854Y0081799D02*
X0238587Y0081799D01*
X0238587Y0082198D02*
X0270854Y0082198D01*
X0270854Y0082596D02*
X0238587Y0082596D01*
X0238587Y0082995D02*
X0270854Y0082995D01*
X0270854Y0083393D02*
X0238587Y0083393D01*
X0238587Y0083792D02*
X0270854Y0083792D01*
X0270854Y0084190D02*
X0238587Y0084190D01*
X0238587Y0084589D02*
X0270854Y0084589D01*
X0270854Y0084987D02*
X0238587Y0084987D01*
X0238587Y0085386D02*
X0270854Y0085386D01*
X0270854Y0085784D02*
X0238587Y0085784D01*
X0238587Y0086183D02*
X0270854Y0086183D01*
X0270854Y0086581D02*
X0238587Y0086581D01*
X0238587Y0086980D02*
X0270854Y0086980D01*
X0270854Y0087378D02*
X0238587Y0087378D01*
X0238587Y0087777D02*
X0270854Y0087777D01*
X0270854Y0088175D02*
X0238587Y0088175D01*
X0238587Y0088574D02*
X0270854Y0088574D01*
X0270854Y0088972D02*
X0238587Y0088972D01*
X0238587Y0089371D02*
X0270854Y0089371D01*
X0270854Y0089769D02*
X0238587Y0089769D01*
X0238587Y0090168D02*
X0271152Y0090168D01*
X0271550Y0090566D02*
X0238587Y0090566D01*
X0238851Y0090965D02*
X0271949Y0090965D01*
X0272347Y0091363D02*
X0239250Y0091363D01*
X0239648Y0091762D02*
X0272746Y0091762D01*
X0273144Y0092160D02*
X0240047Y0092160D01*
X0240445Y0092559D02*
X0273543Y0092559D01*
X0273941Y0092957D02*
X0240844Y0092957D01*
X0241242Y0093356D02*
X0274340Y0093356D01*
X0274738Y0093755D02*
X0241641Y0093755D01*
X0242039Y0094153D02*
X0275137Y0094153D01*
X0275535Y0094552D02*
X0242438Y0094552D01*
X0242836Y0094950D02*
X0275934Y0094950D01*
X0276333Y0095349D02*
X0243235Y0095349D01*
X0243633Y0095747D02*
X0276731Y0095747D01*
X0277130Y0096146D02*
X0244032Y0096146D01*
X0241332Y0098537D02*
X0100213Y0098537D01*
X0100213Y0098935D02*
X0241730Y0098935D01*
X0242129Y0099334D02*
X0100213Y0099334D01*
X0100213Y0099732D02*
X0242527Y0099732D01*
X0240933Y0098138D02*
X0100213Y0098138D01*
X0100213Y0097740D02*
X0240535Y0097740D01*
X0240136Y0097341D02*
X0100213Y0097341D01*
X0100213Y0096943D02*
X0239738Y0096943D01*
X0239339Y0096544D02*
X0100213Y0096544D01*
X0100213Y0096146D02*
X0238941Y0096146D01*
X0238542Y0095747D02*
X0100213Y0095747D01*
X0100213Y0095349D02*
X0238144Y0095349D01*
X0237745Y0094950D02*
X0100213Y0094950D01*
X0100213Y0094552D02*
X0237346Y0094552D01*
X0236948Y0094153D02*
X0100213Y0094153D01*
X0100213Y0093755D02*
X0236549Y0093755D01*
X0236151Y0093356D02*
X0100213Y0093356D01*
X0100213Y0092957D02*
X0235752Y0092957D01*
X0235354Y0092559D02*
X0100213Y0092559D01*
X0100213Y0092160D02*
X0234987Y0092160D01*
X0234987Y0091762D02*
X0100213Y0091762D01*
X0100213Y0091363D02*
X0234987Y0091363D01*
X0234987Y0090965D02*
X0100213Y0090965D01*
X0100213Y0090566D02*
X0234987Y0090566D01*
X0234987Y0090168D02*
X0100213Y0090168D01*
X0100213Y0089769D02*
X0234987Y0089769D01*
X0234987Y0089371D02*
X0100213Y0089371D01*
X0100213Y0088972D02*
X0234987Y0088972D01*
X0234987Y0088574D02*
X0100213Y0088574D01*
X0100213Y0088175D02*
X0234987Y0088175D01*
X0234987Y0087777D02*
X0100213Y0087777D01*
X0100213Y0087378D02*
X0234987Y0087378D01*
X0234987Y0086980D02*
X0100213Y0086980D01*
X0100213Y0086581D02*
X0234987Y0086581D01*
X0234987Y0086183D02*
X0100213Y0086183D01*
X0100213Y0085784D02*
X0234987Y0085784D01*
X0234987Y0085386D02*
X0100213Y0085386D01*
X0100213Y0084987D02*
X0234987Y0084987D01*
X0234987Y0084589D02*
X0100213Y0084589D01*
X0100213Y0084190D02*
X0234987Y0084190D01*
X0234987Y0083792D02*
X0100213Y0083792D01*
X0100213Y0083393D02*
X0234987Y0083393D01*
X0234987Y0082995D02*
X0100213Y0082995D01*
X0100213Y0082596D02*
X0234987Y0082596D01*
X0234987Y0082198D02*
X0100213Y0082198D01*
X0100213Y0081799D02*
X0234987Y0081799D01*
X0234987Y0081401D02*
X0100213Y0081401D01*
X0100213Y0081002D02*
X0234987Y0081002D01*
X0234987Y0080604D02*
X0100213Y0080604D01*
X0100213Y0080205D02*
X0234987Y0080205D01*
X0234987Y0079807D02*
X0100213Y0079807D01*
X0100213Y0079408D02*
X0234987Y0079408D01*
X0234987Y0079010D02*
X0100213Y0079010D01*
X0100213Y0078611D02*
X0234987Y0078611D01*
X0234987Y0078213D02*
X0100213Y0078213D01*
X0100213Y0077814D02*
X0234987Y0077814D01*
X0234987Y0077416D02*
X0100213Y0077416D01*
X0100213Y0077017D02*
X0234987Y0077017D01*
X0234987Y0076619D02*
X0100213Y0076619D01*
X0100213Y0076220D02*
X0234987Y0076220D01*
X0234987Y0075821D02*
X0100213Y0075821D01*
X0100213Y0075423D02*
X0234987Y0075423D01*
X0234987Y0075024D02*
X0100213Y0075024D01*
X0100213Y0074626D02*
X0234987Y0074626D01*
X0234987Y0074227D02*
X0100213Y0074227D01*
X0100213Y0073829D02*
X0234987Y0073829D01*
X0234987Y0073430D02*
X0100213Y0073430D01*
X0100213Y0073032D02*
X0234987Y0073032D01*
X0234987Y0072633D02*
X0100213Y0072633D01*
X0100213Y0072235D02*
X0234987Y0072235D01*
X0234987Y0071836D02*
X0100213Y0071836D01*
X0100213Y0071438D02*
X0234987Y0071438D01*
X0234987Y0071039D02*
X0100213Y0071039D01*
X0100213Y0070641D02*
X0234987Y0070641D01*
X0234987Y0070242D02*
X0100213Y0070242D01*
X0100213Y0069844D02*
X0234987Y0069844D01*
X0234987Y0069445D02*
X0100213Y0069445D01*
X0100213Y0069047D02*
X0234987Y0069047D01*
X0234987Y0068648D02*
X0100213Y0068648D01*
X0100213Y0068250D02*
X0234987Y0068250D01*
X0234987Y0067851D02*
X0100213Y0067851D01*
X0100213Y0067453D02*
X0234987Y0067453D01*
X0234987Y0067054D02*
X0100213Y0067054D01*
X0100213Y0066656D02*
X0234987Y0066656D01*
X0234987Y0066257D02*
X0100213Y0066257D01*
X0100213Y0065859D02*
X0234987Y0065859D01*
X0234987Y0065460D02*
X0100213Y0065460D01*
X0100213Y0065062D02*
X0234987Y0065062D01*
X0234987Y0064663D02*
X0100213Y0064663D01*
X0100213Y0064265D02*
X0234987Y0064265D01*
X0234987Y0063866D02*
X0100213Y0063866D01*
X0100213Y0063468D02*
X0234987Y0063468D01*
X0234987Y0063069D02*
X0100213Y0063069D01*
X0100213Y0062671D02*
X0234987Y0062671D01*
X0234987Y0062272D02*
X0100213Y0062272D01*
X0100213Y0061874D02*
X0234987Y0061874D01*
X0234987Y0061475D02*
X0100213Y0061475D01*
X0100213Y0061077D02*
X0234987Y0061077D01*
X0234987Y0060678D02*
X0100213Y0060678D01*
X0100213Y0060280D02*
X0234987Y0060280D01*
X0234987Y0059881D02*
X0100213Y0059881D01*
X0100213Y0059483D02*
X0234987Y0059483D01*
X0234987Y0059084D02*
X0100213Y0059084D01*
X0100213Y0058686D02*
X0234987Y0058686D01*
X0234987Y0058287D02*
X0100213Y0058287D01*
X0100213Y0057888D02*
X0234987Y0057888D01*
X0234987Y0057490D02*
X0100213Y0057490D01*
X0100213Y0057091D02*
X0234987Y0057091D01*
X0234987Y0056693D02*
X0100213Y0056693D01*
X0100213Y0056294D02*
X0234987Y0056294D01*
X0234987Y0055896D02*
X0100213Y0055896D01*
X0100213Y0055497D02*
X0234987Y0055497D01*
X0234987Y0055099D02*
X0100213Y0055099D01*
X0100213Y0054700D02*
X0234987Y0054700D01*
X0234987Y0054302D02*
X0100213Y0054302D01*
X0100213Y0053903D02*
X0234987Y0053903D01*
X0234987Y0053505D02*
X0100213Y0053505D01*
X0100213Y0053106D02*
X0234987Y0053106D01*
X0234987Y0052708D02*
X0100213Y0052708D01*
X0100213Y0052309D02*
X0234987Y0052309D01*
X0234987Y0051911D02*
X0100213Y0051911D01*
X0100213Y0051512D02*
X0234987Y0051512D01*
X0234987Y0051114D02*
X0100213Y0051114D01*
X0100213Y0050715D02*
X0234987Y0050715D01*
X0234987Y0050317D02*
X0100213Y0050317D01*
X0100213Y0049918D02*
X0234987Y0049918D01*
X0234987Y0049520D02*
X0100213Y0049520D01*
X0100213Y0049121D02*
X0234987Y0049121D01*
X0234987Y0048723D02*
X0100213Y0048723D01*
X0100213Y0048324D02*
X0234987Y0048324D01*
X0234987Y0047926D02*
X0100213Y0047926D01*
X0100213Y0047527D02*
X0234987Y0047527D01*
X0234987Y0047129D02*
X0100213Y0047129D01*
X0100213Y0046730D02*
X0234987Y0046730D01*
X0234987Y0046332D02*
X0100213Y0046332D01*
X0100213Y0045933D02*
X0234987Y0045933D01*
X0234987Y0045535D02*
X0100213Y0045535D01*
X0100213Y0045136D02*
X0234987Y0045136D01*
X0234987Y0044738D02*
X0100213Y0044738D01*
X0100213Y0044339D02*
X0234987Y0044339D01*
X0234987Y0043941D02*
X0100213Y0043941D01*
X0100213Y0043542D02*
X0234987Y0043542D01*
X0234987Y0043144D02*
X0100213Y0043144D01*
X0100213Y0042745D02*
X0234987Y0042745D01*
X0234987Y0042347D02*
X0100213Y0042347D01*
X0100213Y0041948D02*
X0234987Y0041948D01*
X0234987Y0041550D02*
X0100213Y0041550D01*
X0100213Y0041151D02*
X0220196Y0041151D01*
X0220845Y0041420D02*
X0219104Y0040699D01*
X0217772Y0039366D01*
X0217050Y0037625D01*
X0217050Y0027867D01*
X0217772Y0026126D01*
X0219104Y0024793D01*
X0220845Y0024072D01*
X0222730Y0024072D01*
X0224471Y0024793D01*
X0225803Y0026126D01*
X0226524Y0027867D01*
X0226524Y0037625D01*
X0225803Y0039366D01*
X0224471Y0040699D01*
X0222730Y0041420D01*
X0220845Y0041420D01*
X0219233Y0040752D02*
X0100213Y0040752D01*
X0100213Y0040354D02*
X0218759Y0040354D01*
X0218361Y0039955D02*
X0100213Y0039955D01*
X0100213Y0039557D02*
X0217962Y0039557D01*
X0217685Y0039158D02*
X0100213Y0039158D01*
X0100213Y0038760D02*
X0217520Y0038760D01*
X0217355Y0038361D02*
X0100213Y0038361D01*
X0100213Y0037963D02*
X0217190Y0037963D01*
X0217050Y0037564D02*
X0100213Y0037564D01*
X0100213Y0037166D02*
X0217050Y0037166D01*
X0217050Y0036767D02*
X0100213Y0036767D01*
X0100213Y0036369D02*
X0217050Y0036369D01*
X0217050Y0035970D02*
X0100213Y0035970D01*
X0100213Y0035572D02*
X0217050Y0035572D01*
X0217050Y0035173D02*
X0100213Y0035173D01*
X0100213Y0034775D02*
X0217050Y0034775D01*
X0217050Y0034376D02*
X0100213Y0034376D01*
X0100213Y0033978D02*
X0217050Y0033978D01*
X0217050Y0033579D02*
X0100213Y0033579D01*
X0100213Y0033181D02*
X0217050Y0033181D01*
X0217050Y0032782D02*
X0100213Y0032782D01*
X0100213Y0032384D02*
X0217050Y0032384D01*
X0217050Y0031985D02*
X0100213Y0031985D01*
X0100213Y0031587D02*
X0217050Y0031587D01*
X0217050Y0031188D02*
X0100213Y0031188D01*
X0100213Y0030790D02*
X0217050Y0030790D01*
X0217050Y0030391D02*
X0100213Y0030391D01*
X0100213Y0029993D02*
X0217050Y0029993D01*
X0217050Y0029594D02*
X0100213Y0029594D01*
X0100213Y0029196D02*
X0217050Y0029196D01*
X0217050Y0028797D02*
X0100213Y0028797D01*
X0100213Y0028399D02*
X0217050Y0028399D01*
X0217050Y0028000D02*
X0100213Y0028000D01*
X0100213Y0027602D02*
X0217160Y0027602D01*
X0217325Y0027203D02*
X0100213Y0027203D01*
X0100213Y0026805D02*
X0217490Y0026805D01*
X0217655Y0026406D02*
X0100213Y0026406D01*
X0100213Y0026008D02*
X0217890Y0026008D01*
X0218288Y0025609D02*
X0100213Y0025609D01*
X0100213Y0025211D02*
X0218687Y0025211D01*
X0219085Y0024812D02*
X0100213Y0024812D01*
X0100213Y0024414D02*
X0220021Y0024414D01*
X0223554Y0024414D02*
X0235021Y0024414D01*
X0234085Y0024812D02*
X0224490Y0024812D01*
X0224888Y0025211D02*
X0233687Y0025211D01*
X0233288Y0025609D02*
X0225287Y0025609D01*
X0225685Y0026008D02*
X0232890Y0026008D01*
X0232655Y0026406D02*
X0225919Y0026406D01*
X0226084Y0026805D02*
X0232490Y0026805D01*
X0232325Y0027203D02*
X0226249Y0027203D01*
X0226415Y0027602D02*
X0232160Y0027602D01*
X0232050Y0028000D02*
X0226524Y0028000D01*
X0226524Y0028399D02*
X0232050Y0028399D01*
X0232050Y0028797D02*
X0226524Y0028797D01*
X0226524Y0029196D02*
X0232050Y0029196D01*
X0232050Y0029594D02*
X0226524Y0029594D01*
X0226524Y0029993D02*
X0232050Y0029993D01*
X0232050Y0030391D02*
X0226524Y0030391D01*
X0226524Y0030790D02*
X0232050Y0030790D01*
X0232050Y0031188D02*
X0226524Y0031188D01*
X0226524Y0031587D02*
X0232050Y0031587D01*
X0232050Y0031985D02*
X0226524Y0031985D01*
X0226524Y0032384D02*
X0232050Y0032384D01*
X0232050Y0032782D02*
X0226524Y0032782D01*
X0226524Y0033181D02*
X0232050Y0033181D01*
X0232050Y0033579D02*
X0226524Y0033579D01*
X0226524Y0033978D02*
X0232050Y0033978D01*
X0232050Y0034376D02*
X0226524Y0034376D01*
X0226524Y0034775D02*
X0232050Y0034775D01*
X0232050Y0035173D02*
X0226524Y0035173D01*
X0226524Y0035572D02*
X0232050Y0035572D01*
X0232050Y0035970D02*
X0226524Y0035970D01*
X0226524Y0036369D02*
X0232050Y0036369D01*
X0232050Y0036767D02*
X0226524Y0036767D01*
X0226524Y0037166D02*
X0232050Y0037166D01*
X0232050Y0037564D02*
X0226524Y0037564D01*
X0226385Y0037963D02*
X0232190Y0037963D01*
X0232355Y0038361D02*
X0226220Y0038361D01*
X0226054Y0038760D02*
X0232520Y0038760D01*
X0232685Y0039158D02*
X0225889Y0039158D01*
X0225613Y0039557D02*
X0232962Y0039557D01*
X0233361Y0039955D02*
X0225214Y0039955D01*
X0224816Y0040354D02*
X0233759Y0040354D01*
X0234233Y0040752D02*
X0224341Y0040752D01*
X0223379Y0041151D02*
X0234987Y0041151D01*
X0238587Y0041151D02*
X0270854Y0041151D01*
X0270854Y0040752D02*
X0239341Y0040752D01*
X0239816Y0040354D02*
X0270854Y0040354D01*
X0270854Y0039955D02*
X0240214Y0039955D01*
X0240613Y0039557D02*
X0270854Y0039557D01*
X0270854Y0039158D02*
X0240889Y0039158D01*
X0241054Y0038760D02*
X0270854Y0038760D01*
X0270854Y0038361D02*
X0241220Y0038361D01*
X0241385Y0037963D02*
X0269377Y0037963D01*
X0269294Y0037564D02*
X0241524Y0037564D01*
X0241524Y0037166D02*
X0269294Y0037166D01*
X0269294Y0036767D02*
X0241524Y0036767D01*
X0241524Y0036369D02*
X0269294Y0036369D01*
X0269294Y0035970D02*
X0241524Y0035970D01*
X0241524Y0035572D02*
X0269294Y0035572D01*
X0269294Y0035173D02*
X0241524Y0035173D01*
X0241524Y0034775D02*
X0269294Y0034775D01*
X0269294Y0034376D02*
X0241524Y0034376D01*
X0241524Y0033978D02*
X0269294Y0033978D01*
X0269294Y0033579D02*
X0241524Y0033579D01*
X0241524Y0033181D02*
X0269294Y0033181D01*
X0269294Y0032782D02*
X0241524Y0032782D01*
X0241524Y0032384D02*
X0269294Y0032384D01*
X0269409Y0031985D02*
X0241524Y0031985D01*
X0241524Y0031587D02*
X0298413Y0031587D01*
X0298413Y0031985D02*
X0295583Y0031985D01*
X0295698Y0032384D02*
X0298413Y0032384D01*
X0298413Y0032782D02*
X0295698Y0032782D01*
X0295698Y0033181D02*
X0298413Y0033181D01*
X0298413Y0033579D02*
X0295698Y0033579D01*
X0295698Y0033978D02*
X0298413Y0033978D01*
X0298413Y0034376D02*
X0295698Y0034376D01*
X0295698Y0034775D02*
X0298413Y0034775D01*
X0298413Y0035173D02*
X0295698Y0035173D01*
X0295698Y0035572D02*
X0298413Y0035572D01*
X0298413Y0035970D02*
X0295698Y0035970D01*
X0295698Y0036369D02*
X0298413Y0036369D01*
X0298413Y0036767D02*
X0295698Y0036767D01*
X0295698Y0037166D02*
X0298413Y0037166D01*
X0298413Y0037564D02*
X0295698Y0037564D01*
X0295615Y0037963D02*
X0298413Y0037963D01*
X0298413Y0038361D02*
X0294139Y0038361D01*
X0294139Y0038760D02*
X0298413Y0038760D01*
X0298413Y0039158D02*
X0294139Y0039158D01*
X0294139Y0039557D02*
X0298413Y0039557D01*
X0298413Y0039955D02*
X0294139Y0039955D01*
X0294139Y0040354D02*
X0298413Y0040354D01*
X0298413Y0040752D02*
X0294139Y0040752D01*
X0294139Y0041151D02*
X0298413Y0041151D01*
X0298413Y0041550D02*
X0294139Y0041550D01*
X0294139Y0041948D02*
X0298413Y0041948D01*
X0298413Y0042347D02*
X0294139Y0042347D01*
X0294139Y0042745D02*
X0298413Y0042745D01*
X0298413Y0043144D02*
X0294139Y0043144D01*
X0294139Y0043542D02*
X0298413Y0043542D01*
X0298413Y0043941D02*
X0294139Y0043941D01*
X0294139Y0044339D02*
X0298413Y0044339D01*
X0298413Y0044738D02*
X0294139Y0044738D01*
X0294139Y0045136D02*
X0298413Y0045136D01*
X0298413Y0045535D02*
X0294139Y0045535D01*
X0294139Y0045933D02*
X0298413Y0045933D01*
X0290539Y0045933D02*
X0274454Y0045933D01*
X0274454Y0045535D02*
X0290539Y0045535D01*
X0290539Y0045136D02*
X0274454Y0045136D01*
X0274454Y0044738D02*
X0290539Y0044738D01*
X0290539Y0044339D02*
X0274454Y0044339D01*
X0274454Y0043941D02*
X0290539Y0043941D01*
X0290539Y0043542D02*
X0274454Y0043542D01*
X0274454Y0043144D02*
X0290539Y0043144D01*
X0290539Y0042745D02*
X0274454Y0042745D01*
X0274454Y0042347D02*
X0290539Y0042347D01*
X0290539Y0041948D02*
X0274454Y0041948D01*
X0274454Y0041550D02*
X0290539Y0041550D01*
X0290539Y0041151D02*
X0274454Y0041151D01*
X0274454Y0040752D02*
X0290539Y0040752D01*
X0290539Y0040354D02*
X0274454Y0040354D01*
X0274454Y0039955D02*
X0290539Y0039955D01*
X0290539Y0039557D02*
X0274454Y0039557D01*
X0274454Y0039158D02*
X0290539Y0039158D01*
X0290539Y0038760D02*
X0274454Y0038760D01*
X0274454Y0038361D02*
X0290539Y0038361D01*
X0289062Y0037963D02*
X0275930Y0037963D01*
X0276013Y0037564D02*
X0288980Y0037564D01*
X0288980Y0037166D02*
X0276013Y0037166D01*
X0276013Y0036767D02*
X0288980Y0036767D01*
X0288980Y0036369D02*
X0276013Y0036369D01*
X0276013Y0035970D02*
X0288980Y0035970D01*
X0288980Y0035572D02*
X0276013Y0035572D01*
X0276013Y0035173D02*
X0288980Y0035173D01*
X0288980Y0034775D02*
X0276013Y0034775D01*
X0276013Y0034376D02*
X0288980Y0034376D01*
X0288980Y0033978D02*
X0276013Y0033978D01*
X0276013Y0033579D02*
X0288980Y0033579D01*
X0288980Y0033181D02*
X0276013Y0033181D01*
X0276013Y0032782D02*
X0288980Y0032782D01*
X0288980Y0032384D02*
X0276013Y0032384D01*
X0275898Y0031985D02*
X0289094Y0031985D01*
X0298413Y0031188D02*
X0241524Y0031188D01*
X0241524Y0030790D02*
X0298413Y0030790D01*
X0270854Y0041550D02*
X0238587Y0041550D01*
X0238587Y0041948D02*
X0270854Y0041948D01*
X0270854Y0042347D02*
X0238587Y0042347D01*
X0238587Y0042745D02*
X0270854Y0042745D01*
X0270854Y0043144D02*
X0238587Y0043144D01*
X0238587Y0043542D02*
X0270854Y0043542D01*
X0270854Y0043941D02*
X0238587Y0043941D01*
X0238587Y0044339D02*
X0270854Y0044339D01*
X0270854Y0044738D02*
X0238587Y0044738D01*
X0238587Y0045136D02*
X0270854Y0045136D01*
X0270854Y0045535D02*
X0238587Y0045535D01*
X0238587Y0045933D02*
X0270854Y0045933D01*
X0270869Y0046332D02*
X0238587Y0046332D01*
X0238587Y0046730D02*
X0270904Y0046730D01*
X0270869Y0047129D02*
X0238587Y0047129D01*
X0238587Y0047527D02*
X0270854Y0047527D01*
X0270854Y0047926D02*
X0238587Y0047926D01*
X0238587Y0048324D02*
X0270854Y0048324D01*
X0270854Y0048723D02*
X0238587Y0048723D01*
X0238587Y0049121D02*
X0270854Y0049121D01*
X0270854Y0049520D02*
X0238587Y0049520D01*
X0238587Y0049918D02*
X0270854Y0049918D01*
X0270854Y0050317D02*
X0238587Y0050317D01*
X0238587Y0050715D02*
X0270854Y0050715D01*
X0270854Y0051114D02*
X0238587Y0051114D01*
X0238587Y0051512D02*
X0270854Y0051512D01*
X0270854Y0051911D02*
X0238587Y0051911D01*
X0238587Y0052309D02*
X0270854Y0052309D01*
X0270854Y0052708D02*
X0238587Y0052708D01*
X0238587Y0053106D02*
X0270854Y0053106D01*
X0270854Y0053505D02*
X0238587Y0053505D01*
X0238587Y0053903D02*
X0270854Y0053903D01*
X0270854Y0054302D02*
X0238587Y0054302D01*
X0238587Y0054700D02*
X0270854Y0054700D01*
X0270854Y0055099D02*
X0238587Y0055099D01*
X0238587Y0055497D02*
X0270854Y0055497D01*
X0270854Y0055896D02*
X0238587Y0055896D01*
X0238587Y0056294D02*
X0270854Y0056294D01*
X0270854Y0056693D02*
X0238587Y0056693D01*
X0238587Y0057091D02*
X0270854Y0057091D01*
X0270854Y0057490D02*
X0238587Y0057490D01*
X0238587Y0057888D02*
X0270854Y0057888D01*
X0270854Y0058287D02*
X0238587Y0058287D01*
D16*
X0236787Y0032746D02*
X0236787Y0091447D01*
X0243520Y0098179D01*
X0357299Y0098179D01*
X0362811Y0098179D01*
X0362732Y0098100D01*
X0362732Y0071722D01*
X0357732Y0071722D02*
X0357732Y0097746D01*
X0357299Y0098179D01*
X0362811Y0098179D02*
X0367535Y0098179D01*
X0367732Y0097982D01*
X0367732Y0071722D01*
X0372732Y0071722D02*
X0372732Y0094951D01*
X0369504Y0098179D01*
X0367535Y0098179D01*
X0352732Y0090541D02*
X0348244Y0095030D01*
X0278559Y0095030D01*
X0272654Y0089124D01*
X0272654Y0047925D01*
X0292339Y0047925D01*
X0292339Y0047884D02*
X0300213Y0047884D01*
X0300213Y0045325D02*
X0300213Y0023770D01*
X0297457Y0021014D01*
X0292339Y0021014D01*
X0292339Y0026722D01*
X0292339Y0034990D02*
X0292339Y0045325D01*
X0272654Y0045325D02*
X0272654Y0034990D01*
X0352732Y0071722D02*
X0352732Y0090541D01*
D17*
X0330134Y0081644D03*
X0321079Y0082037D03*
X0292339Y0021014D03*
X0204937Y0096211D03*
X0190764Y0096211D03*
D18*
X0204937Y0096211D01*
X0321079Y0082037D02*
X0330134Y0082037D01*
X0330134Y0081644D01*
M02*
