G75*
%MOIN*%
%OFA0B0*%
%FSLAX25Y25*%
%IPPOS*%
%LPD*%
%AMOC8*
5,1,8,0,0,1.08239X$1,22.5*
%
%ADD10C,0.00300*%
%ADD11C,0.02978*%
D10*
X0005550Y0005550D02*
X0005550Y0508661D01*
X0207480Y0508661D01*
X0207480Y0472776D01*
X0208142Y0471177D01*
X0209366Y0469953D01*
X0210965Y0469291D01*
X0224506Y0469291D01*
X0226105Y0469953D01*
X0227329Y0471177D01*
X0227991Y0472776D01*
X0227991Y0508661D01*
X0429921Y0508661D01*
X0429921Y0005550D01*
X0227991Y0005550D01*
X0227991Y0041435D01*
X0227329Y0043034D01*
X0226105Y0044258D01*
X0224506Y0044920D01*
X0210965Y0044920D01*
X0209366Y0044258D01*
X0208142Y0043034D01*
X0207480Y0041435D01*
X0207480Y0005550D01*
X0005550Y0005550D01*
X0005550Y0005678D02*
X0207480Y0005678D01*
X0207480Y0005976D02*
X0005550Y0005976D01*
X0005550Y0006275D02*
X0207480Y0006275D01*
X0207480Y0006573D02*
X0005550Y0006573D01*
X0005550Y0006872D02*
X0207480Y0006872D01*
X0207480Y0007170D02*
X0005550Y0007170D01*
X0005550Y0007469D02*
X0207480Y0007469D01*
X0207480Y0007767D02*
X0005550Y0007767D01*
X0005550Y0008066D02*
X0207480Y0008066D01*
X0207480Y0008364D02*
X0005550Y0008364D01*
X0005550Y0008663D02*
X0207480Y0008663D01*
X0207480Y0008961D02*
X0005550Y0008961D01*
X0005550Y0009260D02*
X0207480Y0009260D01*
X0207480Y0009558D02*
X0005550Y0009558D01*
X0005550Y0009857D02*
X0207480Y0009857D01*
X0207480Y0010155D02*
X0005550Y0010155D01*
X0005550Y0010454D02*
X0207480Y0010454D01*
X0207480Y0010752D02*
X0005550Y0010752D01*
X0005550Y0011051D02*
X0207480Y0011051D01*
X0207480Y0011349D02*
X0005550Y0011349D01*
X0005550Y0011648D02*
X0207480Y0011648D01*
X0207480Y0011946D02*
X0005550Y0011946D01*
X0005550Y0012245D02*
X0207480Y0012245D01*
X0207480Y0012543D02*
X0005550Y0012543D01*
X0005550Y0012842D02*
X0207480Y0012842D01*
X0207480Y0013140D02*
X0005550Y0013140D01*
X0005550Y0013439D02*
X0207480Y0013439D01*
X0207480Y0013737D02*
X0005550Y0013737D01*
X0005550Y0014036D02*
X0207480Y0014036D01*
X0207480Y0014334D02*
X0005550Y0014334D01*
X0005550Y0014633D02*
X0207480Y0014633D01*
X0207480Y0014932D02*
X0005550Y0014932D01*
X0005550Y0015230D02*
X0207480Y0015230D01*
X0207480Y0015529D02*
X0005550Y0015529D01*
X0005550Y0015827D02*
X0207480Y0015827D01*
X0207480Y0016126D02*
X0005550Y0016126D01*
X0005550Y0016424D02*
X0207480Y0016424D01*
X0207480Y0016723D02*
X0005550Y0016723D01*
X0005550Y0017021D02*
X0207480Y0017021D01*
X0207480Y0017320D02*
X0005550Y0017320D01*
X0005550Y0017618D02*
X0207480Y0017618D01*
X0207480Y0017917D02*
X0005550Y0017917D01*
X0005550Y0018215D02*
X0207480Y0018215D01*
X0207480Y0018514D02*
X0005550Y0018514D01*
X0005550Y0018812D02*
X0207480Y0018812D01*
X0207480Y0019111D02*
X0005550Y0019111D01*
X0005550Y0019409D02*
X0207480Y0019409D01*
X0207480Y0019708D02*
X0005550Y0019708D01*
X0005550Y0020006D02*
X0207480Y0020006D01*
X0207480Y0020305D02*
X0005550Y0020305D01*
X0005550Y0020603D02*
X0207480Y0020603D01*
X0207480Y0020902D02*
X0005550Y0020902D01*
X0005550Y0021200D02*
X0207480Y0021200D01*
X0207480Y0021499D02*
X0005550Y0021499D01*
X0005550Y0021797D02*
X0207480Y0021797D01*
X0207480Y0022096D02*
X0005550Y0022096D01*
X0005550Y0022394D02*
X0207480Y0022394D01*
X0207480Y0022693D02*
X0005550Y0022693D01*
X0005550Y0022991D02*
X0207480Y0022991D01*
X0207480Y0023290D02*
X0005550Y0023290D01*
X0005550Y0023588D02*
X0207480Y0023588D01*
X0207480Y0023887D02*
X0005550Y0023887D01*
X0005550Y0024185D02*
X0207480Y0024185D01*
X0207480Y0024484D02*
X0005550Y0024484D01*
X0005550Y0024782D02*
X0207480Y0024782D01*
X0207480Y0025081D02*
X0005550Y0025081D01*
X0005550Y0025379D02*
X0207480Y0025379D01*
X0207480Y0025678D02*
X0005550Y0025678D01*
X0005550Y0025976D02*
X0207480Y0025976D01*
X0207480Y0026275D02*
X0005550Y0026275D01*
X0005550Y0026573D02*
X0207480Y0026573D01*
X0207480Y0026872D02*
X0005550Y0026872D01*
X0005550Y0027170D02*
X0207480Y0027170D01*
X0207480Y0027469D02*
X0005550Y0027469D01*
X0005550Y0027768D02*
X0207480Y0027768D01*
X0207480Y0028066D02*
X0005550Y0028066D01*
X0005550Y0028365D02*
X0207480Y0028365D01*
X0207480Y0028663D02*
X0005550Y0028663D01*
X0005550Y0028962D02*
X0207480Y0028962D01*
X0207480Y0029260D02*
X0005550Y0029260D01*
X0005550Y0029559D02*
X0207480Y0029559D01*
X0207480Y0029857D02*
X0005550Y0029857D01*
X0005550Y0030156D02*
X0207480Y0030156D01*
X0207480Y0030454D02*
X0005550Y0030454D01*
X0005550Y0030753D02*
X0207480Y0030753D01*
X0207480Y0031051D02*
X0005550Y0031051D01*
X0005550Y0031350D02*
X0207480Y0031350D01*
X0207480Y0031648D02*
X0005550Y0031648D01*
X0005550Y0031947D02*
X0207480Y0031947D01*
X0207480Y0032245D02*
X0005550Y0032245D01*
X0005550Y0032544D02*
X0207480Y0032544D01*
X0207480Y0032842D02*
X0005550Y0032842D01*
X0005550Y0033141D02*
X0207480Y0033141D01*
X0207480Y0033439D02*
X0005550Y0033439D01*
X0005550Y0033738D02*
X0207480Y0033738D01*
X0207480Y0034036D02*
X0005550Y0034036D01*
X0005550Y0034335D02*
X0207480Y0034335D01*
X0207480Y0034633D02*
X0005550Y0034633D01*
X0005550Y0034932D02*
X0207480Y0034932D01*
X0207480Y0035230D02*
X0005550Y0035230D01*
X0005550Y0035529D02*
X0207480Y0035529D01*
X0207480Y0035827D02*
X0005550Y0035827D01*
X0005550Y0036126D02*
X0207480Y0036126D01*
X0207480Y0036424D02*
X0005550Y0036424D01*
X0005550Y0036723D02*
X0207480Y0036723D01*
X0207480Y0037021D02*
X0005550Y0037021D01*
X0005550Y0037320D02*
X0207480Y0037320D01*
X0207480Y0037618D02*
X0005550Y0037618D01*
X0005550Y0037917D02*
X0207480Y0037917D01*
X0207480Y0038215D02*
X0005550Y0038215D01*
X0005550Y0038514D02*
X0207480Y0038514D01*
X0207480Y0038812D02*
X0005550Y0038812D01*
X0005550Y0039111D02*
X0207480Y0039111D01*
X0207480Y0039409D02*
X0005550Y0039409D01*
X0005550Y0039708D02*
X0207480Y0039708D01*
X0207480Y0040006D02*
X0005550Y0040006D01*
X0005550Y0040305D02*
X0207480Y0040305D01*
X0207480Y0040603D02*
X0005550Y0040603D01*
X0005550Y0040902D02*
X0207480Y0040902D01*
X0207480Y0041201D02*
X0005550Y0041201D01*
X0005550Y0041499D02*
X0207506Y0041499D01*
X0207630Y0041798D02*
X0005550Y0041798D01*
X0005550Y0042096D02*
X0207754Y0042096D01*
X0207877Y0042395D02*
X0005550Y0042395D01*
X0005550Y0042693D02*
X0208001Y0042693D01*
X0208125Y0042992D02*
X0005550Y0042992D01*
X0005550Y0043290D02*
X0208398Y0043290D01*
X0208697Y0043589D02*
X0005550Y0043589D01*
X0005550Y0043887D02*
X0208995Y0043887D01*
X0209294Y0044186D02*
X0005550Y0044186D01*
X0005550Y0044484D02*
X0209912Y0044484D01*
X0210633Y0044783D02*
X0005550Y0044783D01*
X0005550Y0045081D02*
X0429921Y0045081D01*
X0429921Y0044783D02*
X0224838Y0044783D01*
X0225559Y0044484D02*
X0429921Y0044484D01*
X0429921Y0044186D02*
X0226177Y0044186D01*
X0226476Y0043887D02*
X0429921Y0043887D01*
X0429921Y0043589D02*
X0226774Y0043589D01*
X0227073Y0043290D02*
X0429921Y0043290D01*
X0429921Y0042992D02*
X0227346Y0042992D01*
X0227470Y0042693D02*
X0429921Y0042693D01*
X0429921Y0042395D02*
X0227594Y0042395D01*
X0227717Y0042096D02*
X0429921Y0042096D01*
X0429921Y0041798D02*
X0227841Y0041798D01*
X0227965Y0041499D02*
X0429921Y0041499D01*
X0429921Y0041201D02*
X0227991Y0041201D01*
X0227991Y0040902D02*
X0429921Y0040902D01*
X0429921Y0040603D02*
X0227991Y0040603D01*
X0227991Y0040305D02*
X0429921Y0040305D01*
X0429921Y0040006D02*
X0227991Y0040006D01*
X0227991Y0039708D02*
X0429921Y0039708D01*
X0429921Y0039409D02*
X0227991Y0039409D01*
X0227991Y0039111D02*
X0429921Y0039111D01*
X0429921Y0038812D02*
X0227991Y0038812D01*
X0227991Y0038514D02*
X0429921Y0038514D01*
X0429921Y0038215D02*
X0227991Y0038215D01*
X0227991Y0037917D02*
X0429921Y0037917D01*
X0429921Y0037618D02*
X0227991Y0037618D01*
X0227991Y0037320D02*
X0429921Y0037320D01*
X0429921Y0037021D02*
X0227991Y0037021D01*
X0227991Y0036723D02*
X0429921Y0036723D01*
X0429921Y0036424D02*
X0227991Y0036424D01*
X0227991Y0036126D02*
X0429921Y0036126D01*
X0429921Y0035827D02*
X0227991Y0035827D01*
X0227991Y0035529D02*
X0429921Y0035529D01*
X0429921Y0035230D02*
X0227991Y0035230D01*
X0227991Y0034932D02*
X0429921Y0034932D01*
X0429921Y0034633D02*
X0227991Y0034633D01*
X0227991Y0034335D02*
X0429921Y0034335D01*
X0429921Y0034036D02*
X0227991Y0034036D01*
X0227991Y0033738D02*
X0429921Y0033738D01*
X0429921Y0033439D02*
X0227991Y0033439D01*
X0227991Y0033141D02*
X0429921Y0033141D01*
X0429921Y0032842D02*
X0227991Y0032842D01*
X0227991Y0032544D02*
X0429921Y0032544D01*
X0429921Y0032245D02*
X0227991Y0032245D01*
X0227991Y0031947D02*
X0429921Y0031947D01*
X0429921Y0031648D02*
X0227991Y0031648D01*
X0227991Y0031350D02*
X0429921Y0031350D01*
X0429921Y0031051D02*
X0227991Y0031051D01*
X0227991Y0030753D02*
X0429921Y0030753D01*
X0429921Y0030454D02*
X0227991Y0030454D01*
X0227991Y0030156D02*
X0429921Y0030156D01*
X0429921Y0029857D02*
X0227991Y0029857D01*
X0227991Y0029559D02*
X0429921Y0029559D01*
X0429921Y0029260D02*
X0227991Y0029260D01*
X0227991Y0028962D02*
X0429921Y0028962D01*
X0429921Y0028663D02*
X0227991Y0028663D01*
X0227991Y0028365D02*
X0429921Y0028365D01*
X0429921Y0028066D02*
X0227991Y0028066D01*
X0227991Y0027768D02*
X0429921Y0027768D01*
X0429921Y0027469D02*
X0227991Y0027469D01*
X0227991Y0027170D02*
X0429921Y0027170D01*
X0429921Y0026872D02*
X0227991Y0026872D01*
X0227991Y0026573D02*
X0429921Y0026573D01*
X0429921Y0026275D02*
X0227991Y0026275D01*
X0227991Y0025976D02*
X0429921Y0025976D01*
X0429921Y0025678D02*
X0227991Y0025678D01*
X0227991Y0025379D02*
X0429921Y0025379D01*
X0429921Y0025081D02*
X0227991Y0025081D01*
X0227991Y0024782D02*
X0429921Y0024782D01*
X0429921Y0024484D02*
X0227991Y0024484D01*
X0227991Y0024185D02*
X0429921Y0024185D01*
X0429921Y0023887D02*
X0227991Y0023887D01*
X0227991Y0023588D02*
X0429921Y0023588D01*
X0429921Y0023290D02*
X0227991Y0023290D01*
X0227991Y0022991D02*
X0429921Y0022991D01*
X0429921Y0022693D02*
X0227991Y0022693D01*
X0227991Y0022394D02*
X0429921Y0022394D01*
X0429921Y0022096D02*
X0227991Y0022096D01*
X0227991Y0021797D02*
X0429921Y0021797D01*
X0429921Y0021499D02*
X0227991Y0021499D01*
X0227991Y0021200D02*
X0429921Y0021200D01*
X0429921Y0020902D02*
X0227991Y0020902D01*
X0227991Y0020603D02*
X0429921Y0020603D01*
X0429921Y0020305D02*
X0227991Y0020305D01*
X0227991Y0020006D02*
X0429921Y0020006D01*
X0429921Y0019708D02*
X0227991Y0019708D01*
X0227991Y0019409D02*
X0429921Y0019409D01*
X0429921Y0019111D02*
X0227991Y0019111D01*
X0227991Y0018812D02*
X0429921Y0018812D01*
X0429921Y0018514D02*
X0227991Y0018514D01*
X0227991Y0018215D02*
X0429921Y0018215D01*
X0429921Y0017917D02*
X0227991Y0017917D01*
X0227991Y0017618D02*
X0429921Y0017618D01*
X0429921Y0017320D02*
X0227991Y0017320D01*
X0227991Y0017021D02*
X0429921Y0017021D01*
X0429921Y0016723D02*
X0227991Y0016723D01*
X0227991Y0016424D02*
X0429921Y0016424D01*
X0429921Y0016126D02*
X0227991Y0016126D01*
X0227991Y0015827D02*
X0429921Y0015827D01*
X0429921Y0015529D02*
X0227991Y0015529D01*
X0227991Y0015230D02*
X0429921Y0015230D01*
X0429921Y0014932D02*
X0227991Y0014932D01*
X0227991Y0014633D02*
X0429921Y0014633D01*
X0429921Y0014334D02*
X0227991Y0014334D01*
X0227991Y0014036D02*
X0429921Y0014036D01*
X0429921Y0013737D02*
X0227991Y0013737D01*
X0227991Y0013439D02*
X0429921Y0013439D01*
X0429921Y0013140D02*
X0227991Y0013140D01*
X0227991Y0012842D02*
X0429921Y0012842D01*
X0429921Y0012543D02*
X0227991Y0012543D01*
X0227991Y0012245D02*
X0429921Y0012245D01*
X0429921Y0011946D02*
X0227991Y0011946D01*
X0227991Y0011648D02*
X0429921Y0011648D01*
X0429921Y0011349D02*
X0227991Y0011349D01*
X0227991Y0011051D02*
X0429921Y0011051D01*
X0429921Y0010752D02*
X0227991Y0010752D01*
X0227991Y0010454D02*
X0429921Y0010454D01*
X0429921Y0010155D02*
X0227991Y0010155D01*
X0227991Y0009857D02*
X0429921Y0009857D01*
X0429921Y0009558D02*
X0227991Y0009558D01*
X0227991Y0009260D02*
X0429921Y0009260D01*
X0429921Y0008961D02*
X0227991Y0008961D01*
X0227991Y0008663D02*
X0429921Y0008663D01*
X0429921Y0008364D02*
X0227991Y0008364D01*
X0227991Y0008066D02*
X0429921Y0008066D01*
X0429921Y0007767D02*
X0227991Y0007767D01*
X0227991Y0007469D02*
X0429921Y0007469D01*
X0429921Y0007170D02*
X0227991Y0007170D01*
X0227991Y0006872D02*
X0429921Y0006872D01*
X0429921Y0006573D02*
X0227991Y0006573D01*
X0227991Y0006275D02*
X0429921Y0006275D01*
X0429921Y0005976D02*
X0227991Y0005976D01*
X0227991Y0005678D02*
X0429921Y0005678D01*
X0429921Y0045380D02*
X0005550Y0045380D01*
X0005550Y0045678D02*
X0429921Y0045678D01*
X0429921Y0045977D02*
X0005550Y0045977D01*
X0005550Y0046275D02*
X0429921Y0046275D01*
X0429921Y0046574D02*
X0005550Y0046574D01*
X0005550Y0046872D02*
X0429921Y0046872D01*
X0429921Y0047171D02*
X0005550Y0047171D01*
X0005550Y0047469D02*
X0429921Y0047469D01*
X0429921Y0047768D02*
X0005550Y0047768D01*
X0005550Y0048066D02*
X0429921Y0048066D01*
X0429921Y0048365D02*
X0005550Y0048365D01*
X0005550Y0048663D02*
X0429921Y0048663D01*
X0429921Y0048962D02*
X0005550Y0048962D01*
X0005550Y0049260D02*
X0429921Y0049260D01*
X0429921Y0049559D02*
X0005550Y0049559D01*
X0005550Y0049857D02*
X0429921Y0049857D01*
X0429921Y0050156D02*
X0005550Y0050156D01*
X0005550Y0050454D02*
X0429921Y0050454D01*
X0429921Y0050753D02*
X0005550Y0050753D01*
X0005550Y0051051D02*
X0429921Y0051051D01*
X0429921Y0051350D02*
X0005550Y0051350D01*
X0005550Y0051648D02*
X0429921Y0051648D01*
X0429921Y0051947D02*
X0005550Y0051947D01*
X0005550Y0052245D02*
X0429921Y0052245D01*
X0429921Y0052544D02*
X0005550Y0052544D01*
X0005550Y0052842D02*
X0429921Y0052842D01*
X0429921Y0053141D02*
X0005550Y0053141D01*
X0005550Y0053439D02*
X0429921Y0053439D01*
X0429921Y0053738D02*
X0005550Y0053738D01*
X0005550Y0054037D02*
X0429921Y0054037D01*
X0429921Y0054335D02*
X0005550Y0054335D01*
X0005550Y0054634D02*
X0429921Y0054634D01*
X0429921Y0054932D02*
X0005550Y0054932D01*
X0005550Y0055231D02*
X0429921Y0055231D01*
X0429921Y0055529D02*
X0005550Y0055529D01*
X0005550Y0055828D02*
X0429921Y0055828D01*
X0429921Y0056126D02*
X0005550Y0056126D01*
X0005550Y0056425D02*
X0429921Y0056425D01*
X0429921Y0056723D02*
X0005550Y0056723D01*
X0005550Y0057022D02*
X0429921Y0057022D01*
X0429921Y0057320D02*
X0005550Y0057320D01*
X0005550Y0057619D02*
X0429921Y0057619D01*
X0429921Y0057917D02*
X0005550Y0057917D01*
X0005550Y0058216D02*
X0429921Y0058216D01*
X0429921Y0058514D02*
X0005550Y0058514D01*
X0005550Y0058813D02*
X0429921Y0058813D01*
X0429921Y0059111D02*
X0005550Y0059111D01*
X0005550Y0059410D02*
X0429921Y0059410D01*
X0429921Y0059708D02*
X0005550Y0059708D01*
X0005550Y0060007D02*
X0429921Y0060007D01*
X0429921Y0060305D02*
X0005550Y0060305D01*
X0005550Y0060604D02*
X0429921Y0060604D01*
X0429921Y0060902D02*
X0005550Y0060902D01*
X0005550Y0061201D02*
X0429921Y0061201D01*
X0429921Y0061499D02*
X0005550Y0061499D01*
X0005550Y0061798D02*
X0429921Y0061798D01*
X0429921Y0062096D02*
X0005550Y0062096D01*
X0005550Y0062395D02*
X0429921Y0062395D01*
X0429921Y0062693D02*
X0005550Y0062693D01*
X0005550Y0062992D02*
X0429921Y0062992D01*
X0429921Y0063290D02*
X0005550Y0063290D01*
X0005550Y0063589D02*
X0429921Y0063589D01*
X0429921Y0063887D02*
X0005550Y0063887D01*
X0005550Y0064186D02*
X0429921Y0064186D01*
X0429921Y0064484D02*
X0005550Y0064484D01*
X0005550Y0064783D02*
X0429921Y0064783D01*
X0429921Y0065081D02*
X0005550Y0065081D01*
X0005550Y0065380D02*
X0429921Y0065380D01*
X0429921Y0065678D02*
X0005550Y0065678D01*
X0005550Y0065977D02*
X0429921Y0065977D01*
X0429921Y0066275D02*
X0005550Y0066275D01*
X0005550Y0066574D02*
X0429921Y0066574D01*
X0429921Y0066872D02*
X0005550Y0066872D01*
X0005550Y0067171D02*
X0429921Y0067171D01*
X0429921Y0067470D02*
X0005550Y0067470D01*
X0005550Y0067768D02*
X0429921Y0067768D01*
X0429921Y0068067D02*
X0005550Y0068067D01*
X0005550Y0068365D02*
X0429921Y0068365D01*
X0429921Y0068664D02*
X0005550Y0068664D01*
X0005550Y0068962D02*
X0429921Y0068962D01*
X0429921Y0069261D02*
X0005550Y0069261D01*
X0005550Y0069559D02*
X0429921Y0069559D01*
X0429921Y0069858D02*
X0005550Y0069858D01*
X0005550Y0070156D02*
X0429921Y0070156D01*
X0429921Y0070455D02*
X0005550Y0070455D01*
X0005550Y0070753D02*
X0429921Y0070753D01*
X0429921Y0071052D02*
X0005550Y0071052D01*
X0005550Y0071350D02*
X0429921Y0071350D01*
X0429921Y0071649D02*
X0005550Y0071649D01*
X0005550Y0071947D02*
X0429921Y0071947D01*
X0429921Y0072246D02*
X0005550Y0072246D01*
X0005550Y0072544D02*
X0429921Y0072544D01*
X0429921Y0072843D02*
X0005550Y0072843D01*
X0005550Y0073141D02*
X0429921Y0073141D01*
X0429921Y0073440D02*
X0005550Y0073440D01*
X0005550Y0073738D02*
X0429921Y0073738D01*
X0429921Y0074037D02*
X0005550Y0074037D01*
X0005550Y0074335D02*
X0429921Y0074335D01*
X0429921Y0074634D02*
X0005550Y0074634D01*
X0005550Y0074932D02*
X0429921Y0074932D01*
X0429921Y0075231D02*
X0005550Y0075231D01*
X0005550Y0075529D02*
X0429921Y0075529D01*
X0429921Y0075828D02*
X0005550Y0075828D01*
X0005550Y0076126D02*
X0429921Y0076126D01*
X0429921Y0076425D02*
X0005550Y0076425D01*
X0005550Y0076723D02*
X0429921Y0076723D01*
X0429921Y0077022D02*
X0005550Y0077022D01*
X0005550Y0077320D02*
X0429921Y0077320D01*
X0429921Y0077619D02*
X0005550Y0077619D01*
X0005550Y0077917D02*
X0429921Y0077917D01*
X0429921Y0078216D02*
X0005550Y0078216D01*
X0005550Y0078514D02*
X0429921Y0078514D01*
X0429921Y0078813D02*
X0005550Y0078813D01*
X0005550Y0079111D02*
X0429921Y0079111D01*
X0429921Y0079410D02*
X0005550Y0079410D01*
X0005550Y0079708D02*
X0429921Y0079708D01*
X0429921Y0080007D02*
X0005550Y0080007D01*
X0005550Y0080305D02*
X0429921Y0080305D01*
X0429921Y0080604D02*
X0005550Y0080604D01*
X0005550Y0080903D02*
X0429921Y0080903D01*
X0429921Y0081201D02*
X0005550Y0081201D01*
X0005550Y0081500D02*
X0429921Y0081500D01*
X0429921Y0081798D02*
X0005550Y0081798D01*
X0005550Y0082097D02*
X0429921Y0082097D01*
X0429921Y0082395D02*
X0005550Y0082395D01*
X0005550Y0082694D02*
X0429921Y0082694D01*
X0429921Y0082992D02*
X0005550Y0082992D01*
X0005550Y0083291D02*
X0429921Y0083291D01*
X0429921Y0083589D02*
X0005550Y0083589D01*
X0005550Y0083888D02*
X0429921Y0083888D01*
X0429921Y0084186D02*
X0005550Y0084186D01*
X0005550Y0084485D02*
X0429921Y0084485D01*
X0429921Y0084783D02*
X0005550Y0084783D01*
X0005550Y0085082D02*
X0429921Y0085082D01*
X0429921Y0085380D02*
X0005550Y0085380D01*
X0005550Y0085679D02*
X0429921Y0085679D01*
X0429921Y0085977D02*
X0005550Y0085977D01*
X0005550Y0086276D02*
X0429921Y0086276D01*
X0429921Y0086574D02*
X0005550Y0086574D01*
X0005550Y0086873D02*
X0429921Y0086873D01*
X0429921Y0087171D02*
X0005550Y0087171D01*
X0005550Y0087470D02*
X0429921Y0087470D01*
X0429921Y0087768D02*
X0005550Y0087768D01*
X0005550Y0088067D02*
X0429921Y0088067D01*
X0429921Y0088365D02*
X0005550Y0088365D01*
X0005550Y0088664D02*
X0429921Y0088664D01*
X0429921Y0088962D02*
X0005550Y0088962D01*
X0005550Y0089261D02*
X0429921Y0089261D01*
X0429921Y0089559D02*
X0005550Y0089559D01*
X0005550Y0089858D02*
X0429921Y0089858D01*
X0429921Y0090156D02*
X0005550Y0090156D01*
X0005550Y0090455D02*
X0429921Y0090455D01*
X0429921Y0090753D02*
X0005550Y0090753D01*
X0005550Y0091052D02*
X0429921Y0091052D01*
X0429921Y0091350D02*
X0005550Y0091350D01*
X0005550Y0091649D02*
X0429921Y0091649D01*
X0429921Y0091947D02*
X0005550Y0091947D01*
X0005550Y0092246D02*
X0429921Y0092246D01*
X0429921Y0092544D02*
X0005550Y0092544D01*
X0005550Y0092843D02*
X0429921Y0092843D01*
X0429921Y0093141D02*
X0005550Y0093141D01*
X0005550Y0093440D02*
X0429921Y0093440D01*
X0429921Y0093739D02*
X0005550Y0093739D01*
X0005550Y0094037D02*
X0429921Y0094037D01*
X0429921Y0094336D02*
X0005550Y0094336D01*
X0005550Y0094634D02*
X0429921Y0094634D01*
X0429921Y0094933D02*
X0005550Y0094933D01*
X0005550Y0095231D02*
X0429921Y0095231D01*
X0429921Y0095530D02*
X0005550Y0095530D01*
X0005550Y0095828D02*
X0429921Y0095828D01*
X0429921Y0096127D02*
X0005550Y0096127D01*
X0005550Y0096425D02*
X0429921Y0096425D01*
X0429921Y0096724D02*
X0005550Y0096724D01*
X0005550Y0097022D02*
X0429921Y0097022D01*
X0429921Y0097321D02*
X0005550Y0097321D01*
X0005550Y0097619D02*
X0429921Y0097619D01*
X0429921Y0097918D02*
X0005550Y0097918D01*
X0005550Y0098216D02*
X0429921Y0098216D01*
X0429921Y0098515D02*
X0005550Y0098515D01*
X0005550Y0098813D02*
X0429921Y0098813D01*
X0429921Y0099112D02*
X0005550Y0099112D01*
X0005550Y0099410D02*
X0429921Y0099410D01*
X0429921Y0099709D02*
X0005550Y0099709D01*
X0005550Y0100007D02*
X0429921Y0100007D01*
X0429921Y0100306D02*
X0005550Y0100306D01*
X0005550Y0100604D02*
X0429921Y0100604D01*
X0429921Y0100903D02*
X0005550Y0100903D01*
X0005550Y0101201D02*
X0429921Y0101201D01*
X0429921Y0101500D02*
X0005550Y0101500D01*
X0005550Y0101798D02*
X0429921Y0101798D01*
X0429921Y0102097D02*
X0005550Y0102097D01*
X0005550Y0102395D02*
X0429921Y0102395D01*
X0429921Y0102694D02*
X0005550Y0102694D01*
X0005550Y0102992D02*
X0429921Y0102992D01*
X0429921Y0103291D02*
X0005550Y0103291D01*
X0005550Y0103589D02*
X0429921Y0103589D01*
X0429921Y0103888D02*
X0005550Y0103888D01*
X0005550Y0104186D02*
X0429921Y0104186D01*
X0429921Y0104485D02*
X0005550Y0104485D01*
X0005550Y0104783D02*
X0429921Y0104783D01*
X0429921Y0105082D02*
X0005550Y0105082D01*
X0005550Y0105380D02*
X0429921Y0105380D01*
X0429921Y0105679D02*
X0005550Y0105679D01*
X0005550Y0105977D02*
X0429921Y0105977D01*
X0429921Y0106276D02*
X0005550Y0106276D01*
X0005550Y0106574D02*
X0429921Y0106574D01*
X0429921Y0106873D02*
X0005550Y0106873D01*
X0005550Y0107172D02*
X0429921Y0107172D01*
X0429921Y0107470D02*
X0005550Y0107470D01*
X0005550Y0107769D02*
X0429921Y0107769D01*
X0429921Y0108067D02*
X0005550Y0108067D01*
X0005550Y0108366D02*
X0429921Y0108366D01*
X0429921Y0108664D02*
X0005550Y0108664D01*
X0005550Y0108963D02*
X0429921Y0108963D01*
X0429921Y0109261D02*
X0005550Y0109261D01*
X0005550Y0109560D02*
X0429921Y0109560D01*
X0429921Y0109858D02*
X0005550Y0109858D01*
X0005550Y0110157D02*
X0429921Y0110157D01*
X0429921Y0110455D02*
X0005550Y0110455D01*
X0005550Y0110754D02*
X0429921Y0110754D01*
X0429921Y0111052D02*
X0005550Y0111052D01*
X0005550Y0111351D02*
X0429921Y0111351D01*
X0429921Y0111649D02*
X0005550Y0111649D01*
X0005550Y0111948D02*
X0429921Y0111948D01*
X0429921Y0112246D02*
X0005550Y0112246D01*
X0005550Y0112545D02*
X0429921Y0112545D01*
X0429921Y0112843D02*
X0005550Y0112843D01*
X0005550Y0113142D02*
X0429921Y0113142D01*
X0429921Y0113440D02*
X0005550Y0113440D01*
X0005550Y0113739D02*
X0429921Y0113739D01*
X0429921Y0114037D02*
X0005550Y0114037D01*
X0005550Y0114336D02*
X0429921Y0114336D01*
X0429921Y0114634D02*
X0005550Y0114634D01*
X0005550Y0114933D02*
X0429921Y0114933D01*
X0429921Y0115231D02*
X0005550Y0115231D01*
X0005550Y0115530D02*
X0429921Y0115530D01*
X0429921Y0115828D02*
X0005550Y0115828D01*
X0005550Y0116127D02*
X0429921Y0116127D01*
X0429921Y0116425D02*
X0005550Y0116425D01*
X0005550Y0116724D02*
X0429921Y0116724D01*
X0429921Y0117022D02*
X0005550Y0117022D01*
X0005550Y0117321D02*
X0429921Y0117321D01*
X0429921Y0117619D02*
X0005550Y0117619D01*
X0005550Y0117918D02*
X0429921Y0117918D01*
X0429921Y0118216D02*
X0005550Y0118216D01*
X0005550Y0118515D02*
X0429921Y0118515D01*
X0429921Y0118813D02*
X0005550Y0118813D01*
X0005550Y0119112D02*
X0429921Y0119112D01*
X0429921Y0119410D02*
X0005550Y0119410D01*
X0005550Y0119709D02*
X0429921Y0119709D01*
X0429921Y0120008D02*
X0005550Y0120008D01*
X0005550Y0120306D02*
X0429921Y0120306D01*
X0429921Y0120605D02*
X0005550Y0120605D01*
X0005550Y0120903D02*
X0429921Y0120903D01*
X0429921Y0121202D02*
X0005550Y0121202D01*
X0005550Y0121500D02*
X0429921Y0121500D01*
X0429921Y0121799D02*
X0005550Y0121799D01*
X0005550Y0122097D02*
X0429921Y0122097D01*
X0429921Y0122396D02*
X0005550Y0122396D01*
X0005550Y0122694D02*
X0429921Y0122694D01*
X0429921Y0122993D02*
X0005550Y0122993D01*
X0005550Y0123291D02*
X0429921Y0123291D01*
X0429921Y0123590D02*
X0005550Y0123590D01*
X0005550Y0123888D02*
X0429921Y0123888D01*
X0429921Y0124187D02*
X0005550Y0124187D01*
X0005550Y0124485D02*
X0429921Y0124485D01*
X0429921Y0124784D02*
X0005550Y0124784D01*
X0005550Y0125082D02*
X0429921Y0125082D01*
X0429921Y0125381D02*
X0005550Y0125381D01*
X0005550Y0125679D02*
X0429921Y0125679D01*
X0429921Y0125978D02*
X0005550Y0125978D01*
X0005550Y0126276D02*
X0429921Y0126276D01*
X0429921Y0126575D02*
X0005550Y0126575D01*
X0005550Y0126873D02*
X0429921Y0126873D01*
X0429921Y0127172D02*
X0005550Y0127172D01*
X0005550Y0127470D02*
X0429921Y0127470D01*
X0429921Y0127769D02*
X0005550Y0127769D01*
X0005550Y0128067D02*
X0429921Y0128067D01*
X0429921Y0128366D02*
X0005550Y0128366D01*
X0005550Y0128664D02*
X0429921Y0128664D01*
X0429921Y0128963D02*
X0005550Y0128963D01*
X0005550Y0129261D02*
X0429921Y0129261D01*
X0429921Y0129560D02*
X0005550Y0129560D01*
X0005550Y0129858D02*
X0429921Y0129858D01*
X0429921Y0130157D02*
X0005550Y0130157D01*
X0005550Y0130455D02*
X0429921Y0130455D01*
X0429921Y0130754D02*
X0005550Y0130754D01*
X0005550Y0131052D02*
X0429921Y0131052D01*
X0429921Y0131351D02*
X0005550Y0131351D01*
X0005550Y0131649D02*
X0429921Y0131649D01*
X0429921Y0131948D02*
X0005550Y0131948D01*
X0005550Y0132246D02*
X0429921Y0132246D01*
X0429921Y0132545D02*
X0005550Y0132545D01*
X0005550Y0132843D02*
X0429921Y0132843D01*
X0429921Y0133142D02*
X0005550Y0133142D01*
X0005550Y0133441D02*
X0429921Y0133441D01*
X0429921Y0133739D02*
X0005550Y0133739D01*
X0005550Y0134038D02*
X0429921Y0134038D01*
X0429921Y0134336D02*
X0005550Y0134336D01*
X0005550Y0134635D02*
X0429921Y0134635D01*
X0429921Y0134933D02*
X0005550Y0134933D01*
X0005550Y0135232D02*
X0429921Y0135232D01*
X0429921Y0135530D02*
X0005550Y0135530D01*
X0005550Y0135829D02*
X0429921Y0135829D01*
X0429921Y0136127D02*
X0005550Y0136127D01*
X0005550Y0136426D02*
X0429921Y0136426D01*
X0429921Y0136724D02*
X0005550Y0136724D01*
X0005550Y0137023D02*
X0429921Y0137023D01*
X0429921Y0137321D02*
X0005550Y0137321D01*
X0005550Y0137620D02*
X0429921Y0137620D01*
X0429921Y0137918D02*
X0005550Y0137918D01*
X0005550Y0138217D02*
X0429921Y0138217D01*
X0429921Y0138515D02*
X0005550Y0138515D01*
X0005550Y0138814D02*
X0429921Y0138814D01*
X0429921Y0139112D02*
X0005550Y0139112D01*
X0005550Y0139411D02*
X0429921Y0139411D01*
X0429921Y0139709D02*
X0005550Y0139709D01*
X0005550Y0140008D02*
X0429921Y0140008D01*
X0429921Y0140306D02*
X0005550Y0140306D01*
X0005550Y0140605D02*
X0429921Y0140605D01*
X0429921Y0140903D02*
X0005550Y0140903D01*
X0005550Y0141202D02*
X0429921Y0141202D01*
X0429921Y0141500D02*
X0005550Y0141500D01*
X0005550Y0141799D02*
X0429921Y0141799D01*
X0429921Y0142097D02*
X0005550Y0142097D01*
X0005550Y0142396D02*
X0429921Y0142396D01*
X0429921Y0142694D02*
X0005550Y0142694D01*
X0005550Y0142993D02*
X0429921Y0142993D01*
X0429921Y0143291D02*
X0005550Y0143291D01*
X0005550Y0143590D02*
X0429921Y0143590D01*
X0429921Y0143888D02*
X0005550Y0143888D01*
X0005550Y0144187D02*
X0429921Y0144187D01*
X0429921Y0144485D02*
X0005550Y0144485D01*
X0005550Y0144784D02*
X0429921Y0144784D01*
X0429921Y0145082D02*
X0005550Y0145082D01*
X0005550Y0145381D02*
X0429921Y0145381D01*
X0429921Y0145679D02*
X0005550Y0145679D01*
X0005550Y0145978D02*
X0429921Y0145978D01*
X0429921Y0146277D02*
X0005550Y0146277D01*
X0005550Y0146575D02*
X0429921Y0146575D01*
X0429921Y0146874D02*
X0005550Y0146874D01*
X0005550Y0147172D02*
X0429921Y0147172D01*
X0429921Y0147471D02*
X0005550Y0147471D01*
X0005550Y0147769D02*
X0429921Y0147769D01*
X0429921Y0148068D02*
X0005550Y0148068D01*
X0005550Y0148366D02*
X0429921Y0148366D01*
X0429921Y0148665D02*
X0005550Y0148665D01*
X0005550Y0148963D02*
X0429921Y0148963D01*
X0429921Y0149262D02*
X0005550Y0149262D01*
X0005550Y0149560D02*
X0429921Y0149560D01*
X0429921Y0149859D02*
X0005550Y0149859D01*
X0005550Y0150157D02*
X0429921Y0150157D01*
X0429921Y0150456D02*
X0005550Y0150456D01*
X0005550Y0150754D02*
X0429921Y0150754D01*
X0429921Y0151053D02*
X0005550Y0151053D01*
X0005550Y0151351D02*
X0429921Y0151351D01*
X0429921Y0151650D02*
X0005550Y0151650D01*
X0005550Y0151948D02*
X0429921Y0151948D01*
X0429921Y0152247D02*
X0005550Y0152247D01*
X0005550Y0152545D02*
X0429921Y0152545D01*
X0429921Y0152844D02*
X0005550Y0152844D01*
X0005550Y0153142D02*
X0429921Y0153142D01*
X0429921Y0153441D02*
X0005550Y0153441D01*
X0005550Y0153739D02*
X0429921Y0153739D01*
X0429921Y0154038D02*
X0005550Y0154038D01*
X0005550Y0154336D02*
X0429921Y0154336D01*
X0429921Y0154635D02*
X0005550Y0154635D01*
X0005550Y0154933D02*
X0429921Y0154933D01*
X0429921Y0155232D02*
X0005550Y0155232D01*
X0005550Y0155530D02*
X0429921Y0155530D01*
X0429921Y0155829D02*
X0005550Y0155829D01*
X0005550Y0156127D02*
X0429921Y0156127D01*
X0429921Y0156426D02*
X0005550Y0156426D01*
X0005550Y0156724D02*
X0429921Y0156724D01*
X0429921Y0157023D02*
X0005550Y0157023D01*
X0005550Y0157321D02*
X0429921Y0157321D01*
X0429921Y0157620D02*
X0005550Y0157620D01*
X0005550Y0157918D02*
X0429921Y0157918D01*
X0429921Y0158217D02*
X0005550Y0158217D01*
X0005550Y0158515D02*
X0429921Y0158515D01*
X0429921Y0158814D02*
X0005550Y0158814D01*
X0005550Y0159112D02*
X0429921Y0159112D01*
X0429921Y0159411D02*
X0005550Y0159411D01*
X0005550Y0159710D02*
X0429921Y0159710D01*
X0429921Y0160008D02*
X0005550Y0160008D01*
X0005550Y0160307D02*
X0429921Y0160307D01*
X0429921Y0160605D02*
X0005550Y0160605D01*
X0005550Y0160904D02*
X0429921Y0160904D01*
X0429921Y0161202D02*
X0005550Y0161202D01*
X0005550Y0161501D02*
X0429921Y0161501D01*
X0429921Y0161799D02*
X0005550Y0161799D01*
X0005550Y0162098D02*
X0429921Y0162098D01*
X0429921Y0162396D02*
X0005550Y0162396D01*
X0005550Y0162695D02*
X0429921Y0162695D01*
X0429921Y0162993D02*
X0005550Y0162993D01*
X0005550Y0163292D02*
X0429921Y0163292D01*
X0429921Y0163590D02*
X0005550Y0163590D01*
X0005550Y0163889D02*
X0429921Y0163889D01*
X0429921Y0164187D02*
X0005550Y0164187D01*
X0005550Y0164486D02*
X0429921Y0164486D01*
X0429921Y0164784D02*
X0005550Y0164784D01*
X0005550Y0165083D02*
X0429921Y0165083D01*
X0429921Y0165381D02*
X0005550Y0165381D01*
X0005550Y0165680D02*
X0429921Y0165680D01*
X0429921Y0165978D02*
X0005550Y0165978D01*
X0005550Y0166277D02*
X0429921Y0166277D01*
X0429921Y0166575D02*
X0005550Y0166575D01*
X0005550Y0166874D02*
X0429921Y0166874D01*
X0429921Y0167172D02*
X0005550Y0167172D01*
X0005550Y0167471D02*
X0429921Y0167471D01*
X0429921Y0167769D02*
X0005550Y0167769D01*
X0005550Y0168068D02*
X0429921Y0168068D01*
X0429921Y0168366D02*
X0005550Y0168366D01*
X0005550Y0168665D02*
X0429921Y0168665D01*
X0429921Y0168963D02*
X0005550Y0168963D01*
X0005550Y0169262D02*
X0429921Y0169262D01*
X0429921Y0169560D02*
X0005550Y0169560D01*
X0005550Y0169859D02*
X0429921Y0169859D01*
X0429921Y0170157D02*
X0005550Y0170157D01*
X0005550Y0170456D02*
X0429921Y0170456D01*
X0429921Y0170754D02*
X0005550Y0170754D01*
X0005550Y0171053D02*
X0429921Y0171053D01*
X0429921Y0171351D02*
X0005550Y0171351D01*
X0005550Y0171650D02*
X0429921Y0171650D01*
X0429921Y0171948D02*
X0005550Y0171948D01*
X0005550Y0172247D02*
X0429921Y0172247D01*
X0429921Y0172545D02*
X0005550Y0172545D01*
X0005550Y0172844D02*
X0429921Y0172844D01*
X0429921Y0173143D02*
X0005550Y0173143D01*
X0005550Y0173441D02*
X0429921Y0173441D01*
X0429921Y0173740D02*
X0005550Y0173740D01*
X0005550Y0174038D02*
X0429921Y0174038D01*
X0429921Y0174337D02*
X0005550Y0174337D01*
X0005550Y0174635D02*
X0429921Y0174635D01*
X0429921Y0174934D02*
X0005550Y0174934D01*
X0005550Y0175232D02*
X0429921Y0175232D01*
X0429921Y0175531D02*
X0005550Y0175531D01*
X0005550Y0175829D02*
X0429921Y0175829D01*
X0429921Y0176128D02*
X0005550Y0176128D01*
X0005550Y0176426D02*
X0429921Y0176426D01*
X0429921Y0176725D02*
X0005550Y0176725D01*
X0005550Y0177023D02*
X0429921Y0177023D01*
X0429921Y0177322D02*
X0005550Y0177322D01*
X0005550Y0177620D02*
X0429921Y0177620D01*
X0429921Y0177919D02*
X0005550Y0177919D01*
X0005550Y0178217D02*
X0429921Y0178217D01*
X0429921Y0178516D02*
X0005550Y0178516D01*
X0005550Y0178814D02*
X0429921Y0178814D01*
X0429921Y0179113D02*
X0005550Y0179113D01*
X0005550Y0179411D02*
X0429921Y0179411D01*
X0429921Y0179710D02*
X0005550Y0179710D01*
X0005550Y0180008D02*
X0429921Y0180008D01*
X0429921Y0180307D02*
X0005550Y0180307D01*
X0005550Y0180605D02*
X0429921Y0180605D01*
X0429921Y0180904D02*
X0005550Y0180904D01*
X0005550Y0181202D02*
X0429921Y0181202D01*
X0429921Y0181501D02*
X0005550Y0181501D01*
X0005550Y0181799D02*
X0429921Y0181799D01*
X0429921Y0182098D02*
X0005550Y0182098D01*
X0005550Y0182396D02*
X0429921Y0182396D01*
X0429921Y0182695D02*
X0005550Y0182695D01*
X0005550Y0182993D02*
X0429921Y0182993D01*
X0429921Y0183292D02*
X0005550Y0183292D01*
X0005550Y0183590D02*
X0429921Y0183590D01*
X0429921Y0183889D02*
X0005550Y0183889D01*
X0005550Y0184187D02*
X0429921Y0184187D01*
X0429921Y0184486D02*
X0005550Y0184486D01*
X0005550Y0184784D02*
X0429921Y0184784D01*
X0429921Y0185083D02*
X0005550Y0185083D01*
X0005550Y0185381D02*
X0429921Y0185381D01*
X0429921Y0185680D02*
X0005550Y0185680D01*
X0005550Y0185979D02*
X0429921Y0185979D01*
X0429921Y0186277D02*
X0005550Y0186277D01*
X0005550Y0186576D02*
X0429921Y0186576D01*
X0429921Y0186874D02*
X0005550Y0186874D01*
X0005550Y0187173D02*
X0429921Y0187173D01*
X0429921Y0187471D02*
X0005550Y0187471D01*
X0005550Y0187770D02*
X0429921Y0187770D01*
X0429921Y0188068D02*
X0005550Y0188068D01*
X0005550Y0188367D02*
X0429921Y0188367D01*
X0429921Y0188665D02*
X0005550Y0188665D01*
X0005550Y0188964D02*
X0429921Y0188964D01*
X0429921Y0189262D02*
X0005550Y0189262D01*
X0005550Y0189561D02*
X0429921Y0189561D01*
X0429921Y0189859D02*
X0005550Y0189859D01*
X0005550Y0190158D02*
X0429921Y0190158D01*
X0429921Y0190456D02*
X0005550Y0190456D01*
X0005550Y0190755D02*
X0429921Y0190755D01*
X0429921Y0191053D02*
X0005550Y0191053D01*
X0005550Y0191352D02*
X0429921Y0191352D01*
X0429921Y0191650D02*
X0005550Y0191650D01*
X0005550Y0191949D02*
X0429921Y0191949D01*
X0429921Y0192247D02*
X0005550Y0192247D01*
X0005550Y0192546D02*
X0429921Y0192546D01*
X0429921Y0192844D02*
X0005550Y0192844D01*
X0005550Y0193143D02*
X0429921Y0193143D01*
X0429921Y0193441D02*
X0005550Y0193441D01*
X0005550Y0193740D02*
X0429921Y0193740D01*
X0429921Y0194038D02*
X0005550Y0194038D01*
X0005550Y0194337D02*
X0429921Y0194337D01*
X0429921Y0194635D02*
X0005550Y0194635D01*
X0005550Y0194934D02*
X0429921Y0194934D01*
X0429921Y0195232D02*
X0005550Y0195232D01*
X0005550Y0195531D02*
X0429921Y0195531D01*
X0429921Y0195829D02*
X0005550Y0195829D01*
X0005550Y0196128D02*
X0429921Y0196128D01*
X0429921Y0196426D02*
X0005550Y0196426D01*
X0005550Y0196725D02*
X0429921Y0196725D01*
X0429921Y0197023D02*
X0005550Y0197023D01*
X0005550Y0197322D02*
X0429921Y0197322D01*
X0429921Y0197620D02*
X0005550Y0197620D01*
X0005550Y0197919D02*
X0429921Y0197919D01*
X0429921Y0198217D02*
X0005550Y0198217D01*
X0005550Y0198516D02*
X0429921Y0198516D01*
X0429921Y0198814D02*
X0005550Y0198814D01*
X0005550Y0199113D02*
X0429921Y0199113D01*
X0429921Y0199412D02*
X0005550Y0199412D01*
X0005550Y0199710D02*
X0429921Y0199710D01*
X0429921Y0200009D02*
X0005550Y0200009D01*
X0005550Y0200307D02*
X0429921Y0200307D01*
X0429921Y0200606D02*
X0005550Y0200606D01*
X0005550Y0200904D02*
X0429921Y0200904D01*
X0429921Y0201203D02*
X0005550Y0201203D01*
X0005550Y0201501D02*
X0429921Y0201501D01*
X0429921Y0201800D02*
X0005550Y0201800D01*
X0005550Y0202098D02*
X0429921Y0202098D01*
X0429921Y0202397D02*
X0005550Y0202397D01*
X0005550Y0202695D02*
X0429921Y0202695D01*
X0429921Y0202994D02*
X0005550Y0202994D01*
X0005550Y0203292D02*
X0429921Y0203292D01*
X0429921Y0203591D02*
X0005550Y0203591D01*
X0005550Y0203889D02*
X0429921Y0203889D01*
X0429921Y0204188D02*
X0005550Y0204188D01*
X0005550Y0204486D02*
X0429921Y0204486D01*
X0429921Y0204785D02*
X0005550Y0204785D01*
X0005550Y0205083D02*
X0429921Y0205083D01*
X0429921Y0205382D02*
X0005550Y0205382D01*
X0005550Y0205680D02*
X0429921Y0205680D01*
X0429921Y0205979D02*
X0005550Y0205979D01*
X0005550Y0206277D02*
X0429921Y0206277D01*
X0429921Y0206576D02*
X0005550Y0206576D01*
X0005550Y0206874D02*
X0429921Y0206874D01*
X0429921Y0207173D02*
X0005550Y0207173D01*
X0005550Y0207471D02*
X0429921Y0207471D01*
X0429921Y0207770D02*
X0005550Y0207770D01*
X0005550Y0208068D02*
X0429921Y0208068D01*
X0429921Y0208367D02*
X0005550Y0208367D01*
X0005550Y0208665D02*
X0429921Y0208665D01*
X0429921Y0208964D02*
X0005550Y0208964D01*
X0005550Y0209262D02*
X0429921Y0209262D01*
X0429921Y0209561D02*
X0005550Y0209561D01*
X0005550Y0209859D02*
X0429921Y0209859D01*
X0429921Y0210158D02*
X0005550Y0210158D01*
X0005550Y0210456D02*
X0429921Y0210456D01*
X0429921Y0210755D02*
X0005550Y0210755D01*
X0005550Y0211053D02*
X0429921Y0211053D01*
X0429921Y0211352D02*
X0005550Y0211352D01*
X0005550Y0211650D02*
X0429921Y0211650D01*
X0429921Y0211949D02*
X0005550Y0211949D01*
X0005550Y0212248D02*
X0429921Y0212248D01*
X0429921Y0212546D02*
X0005550Y0212546D01*
X0005550Y0212845D02*
X0429921Y0212845D01*
X0429921Y0213143D02*
X0005550Y0213143D01*
X0005550Y0213442D02*
X0429921Y0213442D01*
X0429921Y0213740D02*
X0005550Y0213740D01*
X0005550Y0214039D02*
X0429921Y0214039D01*
X0429921Y0214337D02*
X0005550Y0214337D01*
X0005550Y0214636D02*
X0429921Y0214636D01*
X0429921Y0214934D02*
X0005550Y0214934D01*
X0005550Y0215233D02*
X0429921Y0215233D01*
X0429921Y0215531D02*
X0005550Y0215531D01*
X0005550Y0215830D02*
X0429921Y0215830D01*
X0429921Y0216128D02*
X0005550Y0216128D01*
X0005550Y0216427D02*
X0429921Y0216427D01*
X0429921Y0216725D02*
X0005550Y0216725D01*
X0005550Y0217024D02*
X0429921Y0217024D01*
X0429921Y0217322D02*
X0005550Y0217322D01*
X0005550Y0217621D02*
X0429921Y0217621D01*
X0429921Y0217919D02*
X0005550Y0217919D01*
X0005550Y0218218D02*
X0429921Y0218218D01*
X0429921Y0218516D02*
X0005550Y0218516D01*
X0005550Y0218815D02*
X0429921Y0218815D01*
X0429921Y0219113D02*
X0005550Y0219113D01*
X0005550Y0219412D02*
X0429921Y0219412D01*
X0429921Y0219710D02*
X0005550Y0219710D01*
X0005550Y0220009D02*
X0429921Y0220009D01*
X0429921Y0220307D02*
X0005550Y0220307D01*
X0005550Y0220606D02*
X0429921Y0220606D01*
X0429921Y0220904D02*
X0005550Y0220904D01*
X0005550Y0221203D02*
X0429921Y0221203D01*
X0429921Y0221501D02*
X0005550Y0221501D01*
X0005550Y0221800D02*
X0429921Y0221800D01*
X0429921Y0222098D02*
X0005550Y0222098D01*
X0005550Y0222397D02*
X0429921Y0222397D01*
X0429921Y0222695D02*
X0005550Y0222695D01*
X0005550Y0222994D02*
X0429921Y0222994D01*
X0429921Y0223292D02*
X0005550Y0223292D01*
X0005550Y0223591D02*
X0429921Y0223591D01*
X0429921Y0223889D02*
X0005550Y0223889D01*
X0005550Y0224188D02*
X0429921Y0224188D01*
X0429921Y0224486D02*
X0005550Y0224486D01*
X0005550Y0224785D02*
X0429921Y0224785D01*
X0429921Y0225083D02*
X0005550Y0225083D01*
X0005550Y0225382D02*
X0429921Y0225382D01*
X0429921Y0225681D02*
X0005550Y0225681D01*
X0005550Y0225979D02*
X0429921Y0225979D01*
X0429921Y0226278D02*
X0005550Y0226278D01*
X0005550Y0226576D02*
X0429921Y0226576D01*
X0429921Y0226875D02*
X0005550Y0226875D01*
X0005550Y0227173D02*
X0429921Y0227173D01*
X0429921Y0227472D02*
X0005550Y0227472D01*
X0005550Y0227770D02*
X0429921Y0227770D01*
X0429921Y0228069D02*
X0005550Y0228069D01*
X0005550Y0228367D02*
X0429921Y0228367D01*
X0429921Y0228666D02*
X0005550Y0228666D01*
X0005550Y0228964D02*
X0429921Y0228964D01*
X0429921Y0229263D02*
X0005550Y0229263D01*
X0005550Y0229561D02*
X0429921Y0229561D01*
X0429921Y0229860D02*
X0005550Y0229860D01*
X0005550Y0230158D02*
X0429921Y0230158D01*
X0429921Y0230457D02*
X0005550Y0230457D01*
X0005550Y0230755D02*
X0429921Y0230755D01*
X0429921Y0231054D02*
X0005550Y0231054D01*
X0005550Y0231352D02*
X0429921Y0231352D01*
X0429921Y0231651D02*
X0005550Y0231651D01*
X0005550Y0231949D02*
X0429921Y0231949D01*
X0429921Y0232248D02*
X0005550Y0232248D01*
X0005550Y0232546D02*
X0429921Y0232546D01*
X0429921Y0232845D02*
X0005550Y0232845D01*
X0005550Y0233143D02*
X0429921Y0233143D01*
X0429921Y0233442D02*
X0005550Y0233442D01*
X0005550Y0233740D02*
X0429921Y0233740D01*
X0429921Y0234039D02*
X0005550Y0234039D01*
X0005550Y0234337D02*
X0429921Y0234337D01*
X0429921Y0234636D02*
X0005550Y0234636D01*
X0005550Y0234934D02*
X0429921Y0234934D01*
X0429921Y0235233D02*
X0005550Y0235233D01*
X0005550Y0235531D02*
X0429921Y0235531D01*
X0429921Y0235830D02*
X0005550Y0235830D01*
X0005550Y0236128D02*
X0429921Y0236128D01*
X0429921Y0236427D02*
X0005550Y0236427D01*
X0005550Y0236725D02*
X0429921Y0236725D01*
X0429921Y0237024D02*
X0005550Y0237024D01*
X0005550Y0237322D02*
X0429921Y0237322D01*
X0429921Y0237621D02*
X0005550Y0237621D01*
X0005550Y0237919D02*
X0429921Y0237919D01*
X0429921Y0238218D02*
X0005550Y0238218D01*
X0005550Y0238516D02*
X0429921Y0238516D01*
X0429921Y0238815D02*
X0005550Y0238815D01*
X0005550Y0239114D02*
X0429921Y0239114D01*
X0429921Y0239412D02*
X0005550Y0239412D01*
X0005550Y0239711D02*
X0429921Y0239711D01*
X0429921Y0240009D02*
X0005550Y0240009D01*
X0005550Y0240308D02*
X0429921Y0240308D01*
X0429921Y0240606D02*
X0005550Y0240606D01*
X0005550Y0240905D02*
X0429921Y0240905D01*
X0429921Y0241203D02*
X0005550Y0241203D01*
X0005550Y0241502D02*
X0429921Y0241502D01*
X0429921Y0241800D02*
X0005550Y0241800D01*
X0005550Y0242099D02*
X0429921Y0242099D01*
X0429921Y0242397D02*
X0005550Y0242397D01*
X0005550Y0242696D02*
X0429921Y0242696D01*
X0429921Y0242994D02*
X0005550Y0242994D01*
X0005550Y0243293D02*
X0429921Y0243293D01*
X0429921Y0243591D02*
X0005550Y0243591D01*
X0005550Y0243890D02*
X0429921Y0243890D01*
X0429921Y0244188D02*
X0005550Y0244188D01*
X0005550Y0244487D02*
X0429921Y0244487D01*
X0429921Y0244785D02*
X0005550Y0244785D01*
X0005550Y0245084D02*
X0429921Y0245084D01*
X0429921Y0245382D02*
X0005550Y0245382D01*
X0005550Y0245681D02*
X0429921Y0245681D01*
X0429921Y0245979D02*
X0005550Y0245979D01*
X0005550Y0246278D02*
X0429921Y0246278D01*
X0429921Y0246576D02*
X0005550Y0246576D01*
X0005550Y0246875D02*
X0429921Y0246875D01*
X0429921Y0247173D02*
X0005550Y0247173D01*
X0005550Y0247472D02*
X0429921Y0247472D01*
X0429921Y0247770D02*
X0005550Y0247770D01*
X0005550Y0248069D02*
X0429921Y0248069D01*
X0429921Y0248367D02*
X0005550Y0248367D01*
X0005550Y0248666D02*
X0429921Y0248666D01*
X0429921Y0248964D02*
X0005550Y0248964D01*
X0005550Y0249263D02*
X0429921Y0249263D01*
X0429921Y0249561D02*
X0005550Y0249561D01*
X0005550Y0249860D02*
X0429921Y0249860D01*
X0429921Y0250158D02*
X0005550Y0250158D01*
X0005550Y0250457D02*
X0429921Y0250457D01*
X0429921Y0250755D02*
X0005550Y0250755D01*
X0005550Y0251054D02*
X0429921Y0251054D01*
X0429921Y0251352D02*
X0005550Y0251352D01*
X0005550Y0251651D02*
X0429921Y0251651D01*
X0429921Y0251950D02*
X0005550Y0251950D01*
X0005550Y0252248D02*
X0429921Y0252248D01*
X0429921Y0252547D02*
X0005550Y0252547D01*
X0005550Y0252845D02*
X0429921Y0252845D01*
X0429921Y0253144D02*
X0005550Y0253144D01*
X0005550Y0253442D02*
X0429921Y0253442D01*
X0429921Y0253741D02*
X0005550Y0253741D01*
X0005550Y0254039D02*
X0429921Y0254039D01*
X0429921Y0254338D02*
X0005550Y0254338D01*
X0005550Y0254636D02*
X0429921Y0254636D01*
X0429921Y0254935D02*
X0005550Y0254935D01*
X0005550Y0255233D02*
X0429921Y0255233D01*
X0429921Y0255532D02*
X0005550Y0255532D01*
X0005550Y0255830D02*
X0429921Y0255830D01*
X0429921Y0256129D02*
X0005550Y0256129D01*
X0005550Y0256427D02*
X0429921Y0256427D01*
X0429921Y0256726D02*
X0005550Y0256726D01*
X0005550Y0257024D02*
X0429921Y0257024D01*
X0429921Y0257323D02*
X0005550Y0257323D01*
X0005550Y0257621D02*
X0429921Y0257621D01*
X0429921Y0257920D02*
X0005550Y0257920D01*
X0005550Y0258218D02*
X0429921Y0258218D01*
X0429921Y0258517D02*
X0005550Y0258517D01*
X0005550Y0258815D02*
X0429921Y0258815D01*
X0429921Y0259114D02*
X0005550Y0259114D01*
X0005550Y0259412D02*
X0429921Y0259412D01*
X0429921Y0259711D02*
X0005550Y0259711D01*
X0005550Y0260009D02*
X0429921Y0260009D01*
X0429921Y0260308D02*
X0005550Y0260308D01*
X0005550Y0260606D02*
X0429921Y0260606D01*
X0429921Y0260905D02*
X0005550Y0260905D01*
X0005550Y0261203D02*
X0429921Y0261203D01*
X0429921Y0261502D02*
X0005550Y0261502D01*
X0005550Y0261800D02*
X0429921Y0261800D01*
X0429921Y0262099D02*
X0005550Y0262099D01*
X0005550Y0262397D02*
X0429921Y0262397D01*
X0429921Y0262696D02*
X0005550Y0262696D01*
X0005550Y0262994D02*
X0429921Y0262994D01*
X0429921Y0263293D02*
X0005550Y0263293D01*
X0005550Y0263591D02*
X0429921Y0263591D01*
X0429921Y0263890D02*
X0005550Y0263890D01*
X0005550Y0264188D02*
X0429921Y0264188D01*
X0429921Y0264487D02*
X0005550Y0264487D01*
X0005550Y0264785D02*
X0429921Y0264785D01*
X0429921Y0265084D02*
X0005550Y0265084D01*
X0005550Y0265383D02*
X0429921Y0265383D01*
X0429921Y0265681D02*
X0005550Y0265681D01*
X0005550Y0265980D02*
X0429921Y0265980D01*
X0429921Y0266278D02*
X0005550Y0266278D01*
X0005550Y0266577D02*
X0429921Y0266577D01*
X0429921Y0266875D02*
X0005550Y0266875D01*
X0005550Y0267174D02*
X0429921Y0267174D01*
X0429921Y0267472D02*
X0005550Y0267472D01*
X0005550Y0267771D02*
X0429921Y0267771D01*
X0429921Y0268069D02*
X0005550Y0268069D01*
X0005550Y0268368D02*
X0429921Y0268368D01*
X0429921Y0268666D02*
X0005550Y0268666D01*
X0005550Y0268965D02*
X0429921Y0268965D01*
X0429921Y0269263D02*
X0005550Y0269263D01*
X0005550Y0269562D02*
X0429921Y0269562D01*
X0429921Y0269860D02*
X0005550Y0269860D01*
X0005550Y0270159D02*
X0429921Y0270159D01*
X0429921Y0270457D02*
X0005550Y0270457D01*
X0005550Y0270756D02*
X0429921Y0270756D01*
X0429921Y0271054D02*
X0005550Y0271054D01*
X0005550Y0271353D02*
X0429921Y0271353D01*
X0429921Y0271651D02*
X0005550Y0271651D01*
X0005550Y0271950D02*
X0429921Y0271950D01*
X0429921Y0272248D02*
X0005550Y0272248D01*
X0005550Y0272547D02*
X0429921Y0272547D01*
X0429921Y0272845D02*
X0005550Y0272845D01*
X0005550Y0273144D02*
X0429921Y0273144D01*
X0429921Y0273442D02*
X0005550Y0273442D01*
X0005550Y0273741D02*
X0429921Y0273741D01*
X0429921Y0274039D02*
X0005550Y0274039D01*
X0005550Y0274338D02*
X0429921Y0274338D01*
X0429921Y0274636D02*
X0005550Y0274636D01*
X0005550Y0274935D02*
X0429921Y0274935D01*
X0429921Y0275233D02*
X0005550Y0275233D01*
X0005550Y0275532D02*
X0429921Y0275532D01*
X0429921Y0275830D02*
X0005550Y0275830D01*
X0005550Y0276129D02*
X0429921Y0276129D01*
X0429921Y0276427D02*
X0005550Y0276427D01*
X0005550Y0276726D02*
X0429921Y0276726D01*
X0429921Y0277024D02*
X0005550Y0277024D01*
X0005550Y0277323D02*
X0429921Y0277323D01*
X0429921Y0277621D02*
X0005550Y0277621D01*
X0005550Y0277920D02*
X0429921Y0277920D01*
X0429921Y0278219D02*
X0005550Y0278219D01*
X0005550Y0278517D02*
X0429921Y0278517D01*
X0429921Y0278816D02*
X0005550Y0278816D01*
X0005550Y0279114D02*
X0429921Y0279114D01*
X0429921Y0279413D02*
X0005550Y0279413D01*
X0005550Y0279711D02*
X0429921Y0279711D01*
X0429921Y0280010D02*
X0005550Y0280010D01*
X0005550Y0280308D02*
X0429921Y0280308D01*
X0429921Y0280607D02*
X0005550Y0280607D01*
X0005550Y0280905D02*
X0429921Y0280905D01*
X0429921Y0281204D02*
X0005550Y0281204D01*
X0005550Y0281502D02*
X0429921Y0281502D01*
X0429921Y0281801D02*
X0005550Y0281801D01*
X0005550Y0282099D02*
X0429921Y0282099D01*
X0429921Y0282398D02*
X0005550Y0282398D01*
X0005550Y0282696D02*
X0429921Y0282696D01*
X0429921Y0282995D02*
X0005550Y0282995D01*
X0005550Y0283293D02*
X0429921Y0283293D01*
X0429921Y0283592D02*
X0005550Y0283592D01*
X0005550Y0283890D02*
X0429921Y0283890D01*
X0429921Y0284189D02*
X0005550Y0284189D01*
X0005550Y0284487D02*
X0429921Y0284487D01*
X0429921Y0284786D02*
X0005550Y0284786D01*
X0005550Y0285084D02*
X0429921Y0285084D01*
X0429921Y0285383D02*
X0005550Y0285383D01*
X0005550Y0285681D02*
X0429921Y0285681D01*
X0429921Y0285980D02*
X0005550Y0285980D01*
X0005550Y0286278D02*
X0429921Y0286278D01*
X0429921Y0286577D02*
X0005550Y0286577D01*
X0005550Y0286875D02*
X0429921Y0286875D01*
X0429921Y0287174D02*
X0005550Y0287174D01*
X0005550Y0287472D02*
X0429921Y0287472D01*
X0429921Y0287771D02*
X0005550Y0287771D01*
X0005550Y0288069D02*
X0429921Y0288069D01*
X0429921Y0288368D02*
X0005550Y0288368D01*
X0005550Y0288666D02*
X0429921Y0288666D01*
X0429921Y0288965D02*
X0005550Y0288965D01*
X0005550Y0289263D02*
X0429921Y0289263D01*
X0429921Y0289562D02*
X0005550Y0289562D01*
X0005550Y0289860D02*
X0429921Y0289860D01*
X0429921Y0290159D02*
X0005550Y0290159D01*
X0005550Y0290457D02*
X0429921Y0290457D01*
X0429921Y0290756D02*
X0005550Y0290756D01*
X0005550Y0291054D02*
X0429921Y0291054D01*
X0429921Y0291353D02*
X0005550Y0291353D01*
X0005550Y0291652D02*
X0429921Y0291652D01*
X0429921Y0291950D02*
X0005550Y0291950D01*
X0005550Y0292249D02*
X0429921Y0292249D01*
X0429921Y0292547D02*
X0005550Y0292547D01*
X0005550Y0292846D02*
X0429921Y0292846D01*
X0429921Y0293144D02*
X0005550Y0293144D01*
X0005550Y0293443D02*
X0429921Y0293443D01*
X0429921Y0293741D02*
X0005550Y0293741D01*
X0005550Y0294040D02*
X0429921Y0294040D01*
X0429921Y0294338D02*
X0005550Y0294338D01*
X0005550Y0294637D02*
X0429921Y0294637D01*
X0429921Y0294935D02*
X0005550Y0294935D01*
X0005550Y0295234D02*
X0429921Y0295234D01*
X0429921Y0295532D02*
X0005550Y0295532D01*
X0005550Y0295831D02*
X0429921Y0295831D01*
X0429921Y0296129D02*
X0005550Y0296129D01*
X0005550Y0296428D02*
X0429921Y0296428D01*
X0429921Y0296726D02*
X0005550Y0296726D01*
X0005550Y0297025D02*
X0429921Y0297025D01*
X0429921Y0297323D02*
X0005550Y0297323D01*
X0005550Y0297622D02*
X0429921Y0297622D01*
X0429921Y0297920D02*
X0005550Y0297920D01*
X0005550Y0298219D02*
X0429921Y0298219D01*
X0429921Y0298517D02*
X0005550Y0298517D01*
X0005550Y0298816D02*
X0429921Y0298816D01*
X0429921Y0299114D02*
X0005550Y0299114D01*
X0005550Y0299413D02*
X0429921Y0299413D01*
X0429921Y0299711D02*
X0005550Y0299711D01*
X0005550Y0300010D02*
X0429921Y0300010D01*
X0429921Y0300308D02*
X0005550Y0300308D01*
X0005550Y0300607D02*
X0429921Y0300607D01*
X0429921Y0300905D02*
X0005550Y0300905D01*
X0005550Y0301204D02*
X0429921Y0301204D01*
X0429921Y0301502D02*
X0005550Y0301502D01*
X0005550Y0301801D02*
X0429921Y0301801D01*
X0429921Y0302099D02*
X0005550Y0302099D01*
X0005550Y0302398D02*
X0429921Y0302398D01*
X0429921Y0302696D02*
X0005550Y0302696D01*
X0005550Y0302995D02*
X0429921Y0302995D01*
X0429921Y0303293D02*
X0005550Y0303293D01*
X0005550Y0303592D02*
X0429921Y0303592D01*
X0429921Y0303890D02*
X0005550Y0303890D01*
X0005550Y0304189D02*
X0429921Y0304189D01*
X0429921Y0304488D02*
X0005550Y0304488D01*
X0005550Y0304786D02*
X0429921Y0304786D01*
X0429921Y0305085D02*
X0005550Y0305085D01*
X0005550Y0305383D02*
X0429921Y0305383D01*
X0429921Y0305682D02*
X0005550Y0305682D01*
X0005550Y0305980D02*
X0429921Y0305980D01*
X0429921Y0306279D02*
X0005550Y0306279D01*
X0005550Y0306577D02*
X0429921Y0306577D01*
X0429921Y0306876D02*
X0005550Y0306876D01*
X0005550Y0307174D02*
X0429921Y0307174D01*
X0429921Y0307473D02*
X0005550Y0307473D01*
X0005550Y0307771D02*
X0429921Y0307771D01*
X0429921Y0308070D02*
X0005550Y0308070D01*
X0005550Y0308368D02*
X0429921Y0308368D01*
X0429921Y0308667D02*
X0005550Y0308667D01*
X0005550Y0308965D02*
X0429921Y0308965D01*
X0429921Y0309264D02*
X0005550Y0309264D01*
X0005550Y0309562D02*
X0429921Y0309562D01*
X0429921Y0309861D02*
X0005550Y0309861D01*
X0005550Y0310159D02*
X0429921Y0310159D01*
X0429921Y0310458D02*
X0005550Y0310458D01*
X0005550Y0310756D02*
X0429921Y0310756D01*
X0429921Y0311055D02*
X0005550Y0311055D01*
X0005550Y0311353D02*
X0429921Y0311353D01*
X0429921Y0311652D02*
X0005550Y0311652D01*
X0005550Y0311950D02*
X0429921Y0311950D01*
X0429921Y0312249D02*
X0005550Y0312249D01*
X0005550Y0312547D02*
X0429921Y0312547D01*
X0429921Y0312846D02*
X0005550Y0312846D01*
X0005550Y0313144D02*
X0429921Y0313144D01*
X0429921Y0313443D02*
X0005550Y0313443D01*
X0005550Y0313741D02*
X0429921Y0313741D01*
X0429921Y0314040D02*
X0005550Y0314040D01*
X0005550Y0314338D02*
X0429921Y0314338D01*
X0429921Y0314637D02*
X0005550Y0314637D01*
X0005550Y0314935D02*
X0429921Y0314935D01*
X0429921Y0315234D02*
X0005550Y0315234D01*
X0005550Y0315532D02*
X0429921Y0315532D01*
X0429921Y0315831D02*
X0005550Y0315831D01*
X0005550Y0316129D02*
X0429921Y0316129D01*
X0429921Y0316428D02*
X0005550Y0316428D01*
X0005550Y0316726D02*
X0429921Y0316726D01*
X0429921Y0317025D02*
X0005550Y0317025D01*
X0005550Y0317323D02*
X0429921Y0317323D01*
X0429921Y0317622D02*
X0005550Y0317622D01*
X0005550Y0317921D02*
X0429921Y0317921D01*
X0429921Y0318219D02*
X0005550Y0318219D01*
X0005550Y0318518D02*
X0429921Y0318518D01*
X0429921Y0318816D02*
X0005550Y0318816D01*
X0005550Y0319115D02*
X0429921Y0319115D01*
X0429921Y0319413D02*
X0005550Y0319413D01*
X0005550Y0319712D02*
X0429921Y0319712D01*
X0429921Y0320010D02*
X0005550Y0320010D01*
X0005550Y0320309D02*
X0429921Y0320309D01*
X0429921Y0320607D02*
X0005550Y0320607D01*
X0005550Y0320906D02*
X0429921Y0320906D01*
X0429921Y0321204D02*
X0005550Y0321204D01*
X0005550Y0321503D02*
X0429921Y0321503D01*
X0429921Y0321801D02*
X0005550Y0321801D01*
X0005550Y0322100D02*
X0429921Y0322100D01*
X0429921Y0322398D02*
X0005550Y0322398D01*
X0005550Y0322697D02*
X0429921Y0322697D01*
X0429921Y0322995D02*
X0005550Y0322995D01*
X0005550Y0323294D02*
X0429921Y0323294D01*
X0429921Y0323592D02*
X0005550Y0323592D01*
X0005550Y0323891D02*
X0429921Y0323891D01*
X0429921Y0324189D02*
X0005550Y0324189D01*
X0005550Y0324488D02*
X0429921Y0324488D01*
X0429921Y0324786D02*
X0005550Y0324786D01*
X0005550Y0325085D02*
X0429921Y0325085D01*
X0429921Y0325383D02*
X0005550Y0325383D01*
X0005550Y0325682D02*
X0429921Y0325682D01*
X0429921Y0325980D02*
X0005550Y0325980D01*
X0005550Y0326279D02*
X0429921Y0326279D01*
X0429921Y0326577D02*
X0005550Y0326577D01*
X0005550Y0326876D02*
X0429921Y0326876D01*
X0429921Y0327174D02*
X0005550Y0327174D01*
X0005550Y0327473D02*
X0429921Y0327473D01*
X0429921Y0327771D02*
X0005550Y0327771D01*
X0005550Y0328070D02*
X0429921Y0328070D01*
X0429921Y0328368D02*
X0005550Y0328368D01*
X0005550Y0328667D02*
X0429921Y0328667D01*
X0429921Y0328965D02*
X0005550Y0328965D01*
X0005550Y0329264D02*
X0429921Y0329264D01*
X0429921Y0329562D02*
X0005550Y0329562D01*
X0005550Y0329861D02*
X0429921Y0329861D01*
X0429921Y0330159D02*
X0005550Y0330159D01*
X0005550Y0330458D02*
X0429921Y0330458D01*
X0429921Y0330756D02*
X0005550Y0330756D01*
X0005550Y0331055D02*
X0429921Y0331055D01*
X0429921Y0331354D02*
X0005550Y0331354D01*
X0005550Y0331652D02*
X0429921Y0331652D01*
X0429921Y0331951D02*
X0005550Y0331951D01*
X0005550Y0332249D02*
X0429921Y0332249D01*
X0429921Y0332548D02*
X0005550Y0332548D01*
X0005550Y0332846D02*
X0429921Y0332846D01*
X0429921Y0333145D02*
X0005550Y0333145D01*
X0005550Y0333443D02*
X0429921Y0333443D01*
X0429921Y0333742D02*
X0005550Y0333742D01*
X0005550Y0334040D02*
X0429921Y0334040D01*
X0429921Y0334339D02*
X0005550Y0334339D01*
X0005550Y0334637D02*
X0429921Y0334637D01*
X0429921Y0334936D02*
X0005550Y0334936D01*
X0005550Y0335234D02*
X0429921Y0335234D01*
X0429921Y0335533D02*
X0005550Y0335533D01*
X0005550Y0335831D02*
X0429921Y0335831D01*
X0429921Y0336130D02*
X0005550Y0336130D01*
X0005550Y0336428D02*
X0429921Y0336428D01*
X0429921Y0336727D02*
X0005550Y0336727D01*
X0005550Y0337025D02*
X0429921Y0337025D01*
X0429921Y0337324D02*
X0005550Y0337324D01*
X0005550Y0337622D02*
X0429921Y0337622D01*
X0429921Y0337921D02*
X0005550Y0337921D01*
X0005550Y0338219D02*
X0429921Y0338219D01*
X0429921Y0338518D02*
X0005550Y0338518D01*
X0005550Y0338816D02*
X0429921Y0338816D01*
X0429921Y0339115D02*
X0005550Y0339115D01*
X0005550Y0339413D02*
X0429921Y0339413D01*
X0429921Y0339712D02*
X0005550Y0339712D01*
X0005550Y0340010D02*
X0429921Y0340010D01*
X0429921Y0340309D02*
X0005550Y0340309D01*
X0005550Y0340607D02*
X0429921Y0340607D01*
X0429921Y0340906D02*
X0005550Y0340906D01*
X0005550Y0341204D02*
X0429921Y0341204D01*
X0429921Y0341503D02*
X0005550Y0341503D01*
X0005550Y0341801D02*
X0429921Y0341801D01*
X0429921Y0342100D02*
X0005550Y0342100D01*
X0005550Y0342398D02*
X0429921Y0342398D01*
X0429921Y0342697D02*
X0005550Y0342697D01*
X0005550Y0342995D02*
X0429921Y0342995D01*
X0429921Y0343294D02*
X0005550Y0343294D01*
X0005550Y0343592D02*
X0429921Y0343592D01*
X0429921Y0343891D02*
X0005550Y0343891D01*
X0005550Y0344190D02*
X0429921Y0344190D01*
X0429921Y0344488D02*
X0005550Y0344488D01*
X0005550Y0344787D02*
X0429921Y0344787D01*
X0429921Y0345085D02*
X0005550Y0345085D01*
X0005550Y0345384D02*
X0429921Y0345384D01*
X0429921Y0345682D02*
X0005550Y0345682D01*
X0005550Y0345981D02*
X0429921Y0345981D01*
X0429921Y0346279D02*
X0005550Y0346279D01*
X0005550Y0346578D02*
X0429921Y0346578D01*
X0429921Y0346876D02*
X0005550Y0346876D01*
X0005550Y0347175D02*
X0429921Y0347175D01*
X0429921Y0347473D02*
X0005550Y0347473D01*
X0005550Y0347772D02*
X0429921Y0347772D01*
X0429921Y0348070D02*
X0005550Y0348070D01*
X0005550Y0348369D02*
X0429921Y0348369D01*
X0429921Y0348667D02*
X0005550Y0348667D01*
X0005550Y0348966D02*
X0429921Y0348966D01*
X0429921Y0349264D02*
X0005550Y0349264D01*
X0005550Y0349563D02*
X0429921Y0349563D01*
X0429921Y0349861D02*
X0005550Y0349861D01*
X0005550Y0350160D02*
X0429921Y0350160D01*
X0429921Y0350458D02*
X0005550Y0350458D01*
X0005550Y0350757D02*
X0429921Y0350757D01*
X0429921Y0351055D02*
X0005550Y0351055D01*
X0005550Y0351354D02*
X0429921Y0351354D01*
X0429921Y0351652D02*
X0005550Y0351652D01*
X0005550Y0351951D02*
X0429921Y0351951D01*
X0429921Y0352249D02*
X0005550Y0352249D01*
X0005550Y0352548D02*
X0429921Y0352548D01*
X0429921Y0352846D02*
X0005550Y0352846D01*
X0005550Y0353145D02*
X0429921Y0353145D01*
X0429921Y0353443D02*
X0005550Y0353443D01*
X0005550Y0353742D02*
X0429921Y0353742D01*
X0429921Y0354040D02*
X0005550Y0354040D01*
X0005550Y0354339D02*
X0429921Y0354339D01*
X0429921Y0354637D02*
X0005550Y0354637D01*
X0005550Y0354936D02*
X0429921Y0354936D01*
X0429921Y0355234D02*
X0005550Y0355234D01*
X0005550Y0355533D02*
X0429921Y0355533D01*
X0429921Y0355831D02*
X0005550Y0355831D01*
X0005550Y0356130D02*
X0429921Y0356130D01*
X0429921Y0356428D02*
X0005550Y0356428D01*
X0005550Y0356727D02*
X0429921Y0356727D01*
X0429921Y0357025D02*
X0005550Y0357025D01*
X0005550Y0357324D02*
X0429921Y0357324D01*
X0429921Y0357623D02*
X0005550Y0357623D01*
X0005550Y0357921D02*
X0429921Y0357921D01*
X0429921Y0358220D02*
X0005550Y0358220D01*
X0005550Y0358518D02*
X0429921Y0358518D01*
X0429921Y0358817D02*
X0005550Y0358817D01*
X0005550Y0359115D02*
X0429921Y0359115D01*
X0429921Y0359414D02*
X0005550Y0359414D01*
X0005550Y0359712D02*
X0429921Y0359712D01*
X0429921Y0360011D02*
X0005550Y0360011D01*
X0005550Y0360309D02*
X0429921Y0360309D01*
X0429921Y0360608D02*
X0005550Y0360608D01*
X0005550Y0360906D02*
X0429921Y0360906D01*
X0429921Y0361205D02*
X0005550Y0361205D01*
X0005550Y0361503D02*
X0429921Y0361503D01*
X0429921Y0361802D02*
X0005550Y0361802D01*
X0005550Y0362100D02*
X0429921Y0362100D01*
X0429921Y0362399D02*
X0005550Y0362399D01*
X0005550Y0362697D02*
X0429921Y0362697D01*
X0429921Y0362996D02*
X0005550Y0362996D01*
X0005550Y0363294D02*
X0429921Y0363294D01*
X0429921Y0363593D02*
X0005550Y0363593D01*
X0005550Y0363891D02*
X0429921Y0363891D01*
X0429921Y0364190D02*
X0005550Y0364190D01*
X0005550Y0364488D02*
X0429921Y0364488D01*
X0429921Y0364787D02*
X0005550Y0364787D01*
X0005550Y0365085D02*
X0429921Y0365085D01*
X0429921Y0365384D02*
X0005550Y0365384D01*
X0005550Y0365682D02*
X0429921Y0365682D01*
X0429921Y0365981D02*
X0005550Y0365981D01*
X0005550Y0366279D02*
X0429921Y0366279D01*
X0429921Y0366578D02*
X0005550Y0366578D01*
X0005550Y0366876D02*
X0429921Y0366876D01*
X0429921Y0367175D02*
X0005550Y0367175D01*
X0005550Y0367473D02*
X0429921Y0367473D01*
X0429921Y0367772D02*
X0005550Y0367772D01*
X0005550Y0368070D02*
X0429921Y0368070D01*
X0429921Y0368369D02*
X0005550Y0368369D01*
X0005550Y0368667D02*
X0429921Y0368667D01*
X0429921Y0368966D02*
X0005550Y0368966D01*
X0005550Y0369264D02*
X0429921Y0369264D01*
X0429921Y0369563D02*
X0005550Y0369563D01*
X0005550Y0369861D02*
X0429921Y0369861D01*
X0429921Y0370160D02*
X0005550Y0370160D01*
X0005550Y0370459D02*
X0429921Y0370459D01*
X0429921Y0370757D02*
X0005550Y0370757D01*
X0005550Y0371056D02*
X0429921Y0371056D01*
X0429921Y0371354D02*
X0005550Y0371354D01*
X0005550Y0371653D02*
X0429921Y0371653D01*
X0429921Y0371951D02*
X0005550Y0371951D01*
X0005550Y0372250D02*
X0429921Y0372250D01*
X0429921Y0372548D02*
X0005550Y0372548D01*
X0005550Y0372847D02*
X0429921Y0372847D01*
X0429921Y0373145D02*
X0005550Y0373145D01*
X0005550Y0373444D02*
X0429921Y0373444D01*
X0429921Y0373742D02*
X0005550Y0373742D01*
X0005550Y0374041D02*
X0429921Y0374041D01*
X0429921Y0374339D02*
X0005550Y0374339D01*
X0005550Y0374638D02*
X0429921Y0374638D01*
X0429921Y0374936D02*
X0005550Y0374936D01*
X0005550Y0375235D02*
X0429921Y0375235D01*
X0429921Y0375533D02*
X0005550Y0375533D01*
X0005550Y0375832D02*
X0429921Y0375832D01*
X0429921Y0376130D02*
X0005550Y0376130D01*
X0005550Y0376429D02*
X0429921Y0376429D01*
X0429921Y0376727D02*
X0005550Y0376727D01*
X0005550Y0377026D02*
X0429921Y0377026D01*
X0429921Y0377324D02*
X0005550Y0377324D01*
X0005550Y0377623D02*
X0429921Y0377623D01*
X0429921Y0377921D02*
X0005550Y0377921D01*
X0005550Y0378220D02*
X0429921Y0378220D01*
X0429921Y0378518D02*
X0005550Y0378518D01*
X0005550Y0378817D02*
X0429921Y0378817D01*
X0429921Y0379115D02*
X0005550Y0379115D01*
X0005550Y0379414D02*
X0429921Y0379414D01*
X0429921Y0379712D02*
X0005550Y0379712D01*
X0005550Y0380011D02*
X0429921Y0380011D01*
X0429921Y0380309D02*
X0005550Y0380309D01*
X0005550Y0380608D02*
X0429921Y0380608D01*
X0429921Y0380906D02*
X0005550Y0380906D01*
X0005550Y0381205D02*
X0429921Y0381205D01*
X0429921Y0381503D02*
X0005550Y0381503D01*
X0005550Y0381802D02*
X0429921Y0381802D01*
X0429921Y0382100D02*
X0005550Y0382100D01*
X0005550Y0382399D02*
X0429921Y0382399D01*
X0429921Y0382697D02*
X0005550Y0382697D01*
X0005550Y0382996D02*
X0429921Y0382996D01*
X0429921Y0383294D02*
X0005550Y0383294D01*
X0005550Y0383593D02*
X0429921Y0383593D01*
X0429921Y0383892D02*
X0005550Y0383892D01*
X0005550Y0384190D02*
X0429921Y0384190D01*
X0429921Y0384489D02*
X0005550Y0384489D01*
X0005550Y0384787D02*
X0429921Y0384787D01*
X0429921Y0385086D02*
X0005550Y0385086D01*
X0005550Y0385384D02*
X0429921Y0385384D01*
X0429921Y0385683D02*
X0005550Y0385683D01*
X0005550Y0385981D02*
X0429921Y0385981D01*
X0429921Y0386280D02*
X0005550Y0386280D01*
X0005550Y0386578D02*
X0429921Y0386578D01*
X0429921Y0386877D02*
X0005550Y0386877D01*
X0005550Y0387175D02*
X0429921Y0387175D01*
X0429921Y0387474D02*
X0005550Y0387474D01*
X0005550Y0387772D02*
X0429921Y0387772D01*
X0429921Y0388071D02*
X0005550Y0388071D01*
X0005550Y0388369D02*
X0429921Y0388369D01*
X0429921Y0388668D02*
X0005550Y0388668D01*
X0005550Y0388966D02*
X0429921Y0388966D01*
X0429921Y0389265D02*
X0005550Y0389265D01*
X0005550Y0389563D02*
X0429921Y0389563D01*
X0429921Y0389862D02*
X0005550Y0389862D01*
X0005550Y0390160D02*
X0429921Y0390160D01*
X0429921Y0390459D02*
X0005550Y0390459D01*
X0005550Y0390757D02*
X0429921Y0390757D01*
X0429921Y0391056D02*
X0005550Y0391056D01*
X0005550Y0391354D02*
X0429921Y0391354D01*
X0429921Y0391653D02*
X0005550Y0391653D01*
X0005550Y0391951D02*
X0429921Y0391951D01*
X0429921Y0392250D02*
X0005550Y0392250D01*
X0005550Y0392548D02*
X0429921Y0392548D01*
X0429921Y0392847D02*
X0005550Y0392847D01*
X0005550Y0393145D02*
X0429921Y0393145D01*
X0429921Y0393444D02*
X0005550Y0393444D01*
X0005550Y0393742D02*
X0429921Y0393742D01*
X0429921Y0394041D02*
X0005550Y0394041D01*
X0005550Y0394339D02*
X0429921Y0394339D01*
X0429921Y0394638D02*
X0005550Y0394638D01*
X0005550Y0394936D02*
X0429921Y0394936D01*
X0429921Y0395235D02*
X0005550Y0395235D01*
X0005550Y0395533D02*
X0429921Y0395533D01*
X0429921Y0395832D02*
X0005550Y0395832D01*
X0005550Y0396130D02*
X0429921Y0396130D01*
X0429921Y0396429D02*
X0005550Y0396429D01*
X0005550Y0396727D02*
X0429921Y0396727D01*
X0429921Y0397026D02*
X0005550Y0397026D01*
X0005550Y0397325D02*
X0429921Y0397325D01*
X0429921Y0397623D02*
X0005550Y0397623D01*
X0005550Y0397922D02*
X0429921Y0397922D01*
X0429921Y0398220D02*
X0005550Y0398220D01*
X0005550Y0398519D02*
X0429921Y0398519D01*
X0429921Y0398817D02*
X0005550Y0398817D01*
X0005550Y0399116D02*
X0429921Y0399116D01*
X0429921Y0399414D02*
X0005550Y0399414D01*
X0005550Y0399713D02*
X0429921Y0399713D01*
X0429921Y0400011D02*
X0005550Y0400011D01*
X0005550Y0400310D02*
X0429921Y0400310D01*
X0429921Y0400608D02*
X0005550Y0400608D01*
X0005550Y0400907D02*
X0429921Y0400907D01*
X0429921Y0401205D02*
X0005550Y0401205D01*
X0005550Y0401504D02*
X0429921Y0401504D01*
X0429921Y0401802D02*
X0005550Y0401802D01*
X0005550Y0402101D02*
X0429921Y0402101D01*
X0429921Y0402399D02*
X0005550Y0402399D01*
X0005550Y0402698D02*
X0429921Y0402698D01*
X0429921Y0402996D02*
X0005550Y0402996D01*
X0005550Y0403295D02*
X0429921Y0403295D01*
X0429921Y0403593D02*
X0005550Y0403593D01*
X0005550Y0403892D02*
X0429921Y0403892D01*
X0429921Y0404190D02*
X0005550Y0404190D01*
X0005550Y0404489D02*
X0429921Y0404489D01*
X0429921Y0404787D02*
X0005550Y0404787D01*
X0005550Y0405086D02*
X0429921Y0405086D01*
X0429921Y0405384D02*
X0005550Y0405384D01*
X0005550Y0405683D02*
X0429921Y0405683D01*
X0429921Y0405981D02*
X0005550Y0405981D01*
X0005550Y0406280D02*
X0429921Y0406280D01*
X0429921Y0406578D02*
X0005550Y0406578D01*
X0005550Y0406877D02*
X0429921Y0406877D01*
X0429921Y0407175D02*
X0005550Y0407175D01*
X0005550Y0407474D02*
X0429921Y0407474D01*
X0429921Y0407772D02*
X0005550Y0407772D01*
X0005550Y0408071D02*
X0429921Y0408071D01*
X0429921Y0408369D02*
X0005550Y0408369D01*
X0005550Y0408668D02*
X0429921Y0408668D01*
X0429921Y0408966D02*
X0005550Y0408966D01*
X0005550Y0409265D02*
X0429921Y0409265D01*
X0429921Y0409563D02*
X0005550Y0409563D01*
X0005550Y0409862D02*
X0429921Y0409862D01*
X0429921Y0410161D02*
X0005550Y0410161D01*
X0005550Y0410459D02*
X0429921Y0410459D01*
X0429921Y0410758D02*
X0005550Y0410758D01*
X0005550Y0411056D02*
X0429921Y0411056D01*
X0429921Y0411355D02*
X0005550Y0411355D01*
X0005550Y0411653D02*
X0429921Y0411653D01*
X0429921Y0411952D02*
X0005550Y0411952D01*
X0005550Y0412250D02*
X0429921Y0412250D01*
X0429921Y0412549D02*
X0005550Y0412549D01*
X0005550Y0412847D02*
X0429921Y0412847D01*
X0429921Y0413146D02*
X0005550Y0413146D01*
X0005550Y0413444D02*
X0429921Y0413444D01*
X0429921Y0413743D02*
X0005550Y0413743D01*
X0005550Y0414041D02*
X0429921Y0414041D01*
X0429921Y0414340D02*
X0005550Y0414340D01*
X0005550Y0414638D02*
X0429921Y0414638D01*
X0429921Y0414937D02*
X0005550Y0414937D01*
X0005550Y0415235D02*
X0429921Y0415235D01*
X0429921Y0415534D02*
X0005550Y0415534D01*
X0005550Y0415832D02*
X0429921Y0415832D01*
X0429921Y0416131D02*
X0005550Y0416131D01*
X0005550Y0416429D02*
X0429921Y0416429D01*
X0429921Y0416728D02*
X0005550Y0416728D01*
X0005550Y0417026D02*
X0429921Y0417026D01*
X0429921Y0417325D02*
X0005550Y0417325D01*
X0005550Y0417623D02*
X0429921Y0417623D01*
X0429921Y0417922D02*
X0005550Y0417922D01*
X0005550Y0418220D02*
X0429921Y0418220D01*
X0429921Y0418519D02*
X0005550Y0418519D01*
X0005550Y0418817D02*
X0429921Y0418817D01*
X0429921Y0419116D02*
X0005550Y0419116D01*
X0005550Y0419414D02*
X0429921Y0419414D01*
X0429921Y0419713D02*
X0005550Y0419713D01*
X0005550Y0420011D02*
X0429921Y0420011D01*
X0429921Y0420310D02*
X0005550Y0420310D01*
X0005550Y0420608D02*
X0429921Y0420608D01*
X0429921Y0420907D02*
X0005550Y0420907D01*
X0005550Y0421205D02*
X0429921Y0421205D01*
X0429921Y0421504D02*
X0005550Y0421504D01*
X0005550Y0421802D02*
X0429921Y0421802D01*
X0429921Y0422101D02*
X0005550Y0422101D01*
X0005550Y0422399D02*
X0429921Y0422399D01*
X0429921Y0422698D02*
X0005550Y0422698D01*
X0005550Y0422996D02*
X0429921Y0422996D01*
X0429921Y0423295D02*
X0005550Y0423295D01*
X0005550Y0423594D02*
X0429921Y0423594D01*
X0429921Y0423892D02*
X0005550Y0423892D01*
X0005550Y0424191D02*
X0429921Y0424191D01*
X0429921Y0424489D02*
X0005550Y0424489D01*
X0005550Y0424788D02*
X0429921Y0424788D01*
X0429921Y0425086D02*
X0005550Y0425086D01*
X0005550Y0425385D02*
X0429921Y0425385D01*
X0429921Y0425683D02*
X0005550Y0425683D01*
X0005550Y0425982D02*
X0429921Y0425982D01*
X0429921Y0426280D02*
X0005550Y0426280D01*
X0005550Y0426579D02*
X0429921Y0426579D01*
X0429921Y0426877D02*
X0005550Y0426877D01*
X0005550Y0427176D02*
X0429921Y0427176D01*
X0429921Y0427474D02*
X0005550Y0427474D01*
X0005550Y0427773D02*
X0429921Y0427773D01*
X0429921Y0428071D02*
X0005550Y0428071D01*
X0005550Y0428370D02*
X0429921Y0428370D01*
X0429921Y0428668D02*
X0005550Y0428668D01*
X0005550Y0428967D02*
X0429921Y0428967D01*
X0429921Y0429265D02*
X0005550Y0429265D01*
X0005550Y0429564D02*
X0429921Y0429564D01*
X0429921Y0429862D02*
X0005550Y0429862D01*
X0005550Y0430161D02*
X0429921Y0430161D01*
X0429921Y0430459D02*
X0005550Y0430459D01*
X0005550Y0430758D02*
X0429921Y0430758D01*
X0429921Y0431056D02*
X0005550Y0431056D01*
X0005550Y0431355D02*
X0429921Y0431355D01*
X0429921Y0431653D02*
X0005550Y0431653D01*
X0005550Y0431952D02*
X0429921Y0431952D01*
X0429921Y0432250D02*
X0005550Y0432250D01*
X0005550Y0432549D02*
X0429921Y0432549D01*
X0429921Y0432847D02*
X0005550Y0432847D01*
X0005550Y0433146D02*
X0429921Y0433146D01*
X0429921Y0433444D02*
X0005550Y0433444D01*
X0005550Y0433743D02*
X0429921Y0433743D01*
X0429921Y0434041D02*
X0005550Y0434041D01*
X0005550Y0434340D02*
X0429921Y0434340D01*
X0429921Y0434638D02*
X0005550Y0434638D01*
X0005550Y0434937D02*
X0429921Y0434937D01*
X0429921Y0435235D02*
X0005550Y0435235D01*
X0005550Y0435534D02*
X0429921Y0435534D01*
X0429921Y0435832D02*
X0005550Y0435832D01*
X0005550Y0436131D02*
X0429921Y0436131D01*
X0429921Y0436430D02*
X0005550Y0436430D01*
X0005550Y0436728D02*
X0429921Y0436728D01*
X0429921Y0437027D02*
X0005550Y0437027D01*
X0005550Y0437325D02*
X0429921Y0437325D01*
X0429921Y0437624D02*
X0005550Y0437624D01*
X0005550Y0437922D02*
X0429921Y0437922D01*
X0429921Y0438221D02*
X0005550Y0438221D01*
X0005550Y0438519D02*
X0429921Y0438519D01*
X0429921Y0438818D02*
X0005550Y0438818D01*
X0005550Y0439116D02*
X0429921Y0439116D01*
X0429921Y0439415D02*
X0005550Y0439415D01*
X0005550Y0439713D02*
X0429921Y0439713D01*
X0429921Y0440012D02*
X0005550Y0440012D01*
X0005550Y0440310D02*
X0429921Y0440310D01*
X0429921Y0440609D02*
X0005550Y0440609D01*
X0005550Y0440907D02*
X0429921Y0440907D01*
X0429921Y0441206D02*
X0005550Y0441206D01*
X0005550Y0441504D02*
X0429921Y0441504D01*
X0429921Y0441803D02*
X0005550Y0441803D01*
X0005550Y0442101D02*
X0429921Y0442101D01*
X0429921Y0442400D02*
X0005550Y0442400D01*
X0005550Y0442698D02*
X0429921Y0442698D01*
X0429921Y0442997D02*
X0005550Y0442997D01*
X0005550Y0443295D02*
X0429921Y0443295D01*
X0429921Y0443594D02*
X0005550Y0443594D01*
X0005550Y0443892D02*
X0429921Y0443892D01*
X0429921Y0444191D02*
X0005550Y0444191D01*
X0005550Y0444489D02*
X0429921Y0444489D01*
X0429921Y0444788D02*
X0005550Y0444788D01*
X0005550Y0445086D02*
X0429921Y0445086D01*
X0429921Y0445385D02*
X0005550Y0445385D01*
X0005550Y0445683D02*
X0429921Y0445683D01*
X0429921Y0445982D02*
X0005550Y0445982D01*
X0005550Y0446280D02*
X0429921Y0446280D01*
X0429921Y0446579D02*
X0005550Y0446579D01*
X0005550Y0446877D02*
X0429921Y0446877D01*
X0429921Y0447176D02*
X0005550Y0447176D01*
X0005550Y0447474D02*
X0429921Y0447474D01*
X0429921Y0447773D02*
X0005550Y0447773D01*
X0005550Y0448071D02*
X0429921Y0448071D01*
X0429921Y0448370D02*
X0005550Y0448370D01*
X0005550Y0448668D02*
X0429921Y0448668D01*
X0429921Y0448967D02*
X0005550Y0448967D01*
X0005550Y0449265D02*
X0429921Y0449265D01*
X0429921Y0449564D02*
X0005550Y0449564D01*
X0005550Y0449863D02*
X0429921Y0449863D01*
X0429921Y0450161D02*
X0005550Y0450161D01*
X0005550Y0450460D02*
X0429921Y0450460D01*
X0429921Y0450758D02*
X0005550Y0450758D01*
X0005550Y0451057D02*
X0429921Y0451057D01*
X0429921Y0451355D02*
X0005550Y0451355D01*
X0005550Y0451654D02*
X0429921Y0451654D01*
X0429921Y0451952D02*
X0005550Y0451952D01*
X0005550Y0452251D02*
X0429921Y0452251D01*
X0429921Y0452549D02*
X0005550Y0452549D01*
X0005550Y0452848D02*
X0429921Y0452848D01*
X0429921Y0453146D02*
X0005550Y0453146D01*
X0005550Y0453445D02*
X0429921Y0453445D01*
X0429921Y0453743D02*
X0005550Y0453743D01*
X0005550Y0454042D02*
X0429921Y0454042D01*
X0429921Y0454340D02*
X0005550Y0454340D01*
X0005550Y0454639D02*
X0429921Y0454639D01*
X0429921Y0454937D02*
X0005550Y0454937D01*
X0005550Y0455236D02*
X0429921Y0455236D01*
X0429921Y0455534D02*
X0005550Y0455534D01*
X0005550Y0455833D02*
X0429921Y0455833D01*
X0429921Y0456131D02*
X0005550Y0456131D01*
X0005550Y0456430D02*
X0429921Y0456430D01*
X0429921Y0456728D02*
X0005550Y0456728D01*
X0005550Y0457027D02*
X0429921Y0457027D01*
X0429921Y0457325D02*
X0005550Y0457325D01*
X0005550Y0457624D02*
X0429921Y0457624D01*
X0429921Y0457922D02*
X0005550Y0457922D01*
X0005550Y0458221D02*
X0429921Y0458221D01*
X0429921Y0458519D02*
X0005550Y0458519D01*
X0005550Y0458818D02*
X0429921Y0458818D01*
X0429921Y0459116D02*
X0005550Y0459116D01*
X0005550Y0459415D02*
X0429921Y0459415D01*
X0429921Y0459713D02*
X0005550Y0459713D01*
X0005550Y0460012D02*
X0429921Y0460012D01*
X0429921Y0460310D02*
X0005550Y0460310D01*
X0005550Y0460609D02*
X0429921Y0460609D01*
X0429921Y0460907D02*
X0005550Y0460907D01*
X0005550Y0461206D02*
X0429921Y0461206D01*
X0429921Y0461504D02*
X0005550Y0461504D01*
X0005550Y0461803D02*
X0429921Y0461803D01*
X0429921Y0462101D02*
X0005550Y0462101D01*
X0005550Y0462400D02*
X0429921Y0462400D01*
X0429921Y0462698D02*
X0005550Y0462698D01*
X0005550Y0462997D02*
X0429921Y0462997D01*
X0429921Y0463296D02*
X0005550Y0463296D01*
X0005550Y0463594D02*
X0429921Y0463594D01*
X0429921Y0463893D02*
X0005550Y0463893D01*
X0005550Y0464191D02*
X0429921Y0464191D01*
X0429921Y0464490D02*
X0005550Y0464490D01*
X0005550Y0464788D02*
X0429921Y0464788D01*
X0429921Y0465087D02*
X0005550Y0465087D01*
X0005550Y0465385D02*
X0429921Y0465385D01*
X0429921Y0465684D02*
X0005550Y0465684D01*
X0005550Y0465982D02*
X0429921Y0465982D01*
X0429921Y0466281D02*
X0005550Y0466281D01*
X0005550Y0466579D02*
X0429921Y0466579D01*
X0429921Y0466878D02*
X0005550Y0466878D01*
X0005550Y0467176D02*
X0429921Y0467176D01*
X0429921Y0467475D02*
X0005550Y0467475D01*
X0005550Y0467773D02*
X0429921Y0467773D01*
X0429921Y0468072D02*
X0005550Y0468072D01*
X0005550Y0468370D02*
X0429921Y0468370D01*
X0429921Y0468669D02*
X0005550Y0468669D01*
X0005550Y0468967D02*
X0429921Y0468967D01*
X0429921Y0469266D02*
X0005550Y0469266D01*
X0005550Y0469564D02*
X0210305Y0469564D01*
X0209584Y0469863D02*
X0005550Y0469863D01*
X0005550Y0470161D02*
X0209158Y0470161D01*
X0208859Y0470460D02*
X0005550Y0470460D01*
X0005550Y0470758D02*
X0208561Y0470758D01*
X0208262Y0471057D02*
X0005550Y0471057D01*
X0005550Y0471355D02*
X0208068Y0471355D01*
X0207945Y0471654D02*
X0005550Y0471654D01*
X0005550Y0471952D02*
X0207821Y0471952D01*
X0207697Y0472251D02*
X0005550Y0472251D01*
X0005550Y0472549D02*
X0207574Y0472549D01*
X0207480Y0472848D02*
X0005550Y0472848D01*
X0005550Y0473146D02*
X0207480Y0473146D01*
X0207480Y0473445D02*
X0005550Y0473445D01*
X0005550Y0473743D02*
X0207480Y0473743D01*
X0207480Y0474042D02*
X0005550Y0474042D01*
X0005550Y0474340D02*
X0207480Y0474340D01*
X0207480Y0474639D02*
X0005550Y0474639D01*
X0005550Y0474937D02*
X0207480Y0474937D01*
X0207480Y0475236D02*
X0005550Y0475236D01*
X0005550Y0475534D02*
X0207480Y0475534D01*
X0207480Y0475833D02*
X0005550Y0475833D01*
X0005550Y0476132D02*
X0207480Y0476132D01*
X0207480Y0476430D02*
X0005550Y0476430D01*
X0005550Y0476729D02*
X0207480Y0476729D01*
X0207480Y0477027D02*
X0005550Y0477027D01*
X0005550Y0477326D02*
X0207480Y0477326D01*
X0207480Y0477624D02*
X0005550Y0477624D01*
X0005550Y0477923D02*
X0207480Y0477923D01*
X0207480Y0478221D02*
X0005550Y0478221D01*
X0005550Y0478520D02*
X0207480Y0478520D01*
X0207480Y0478818D02*
X0005550Y0478818D01*
X0005550Y0479117D02*
X0207480Y0479117D01*
X0207480Y0479415D02*
X0005550Y0479415D01*
X0005550Y0479714D02*
X0207480Y0479714D01*
X0207480Y0480012D02*
X0005550Y0480012D01*
X0005550Y0480311D02*
X0207480Y0480311D01*
X0207480Y0480609D02*
X0005550Y0480609D01*
X0005550Y0480908D02*
X0207480Y0480908D01*
X0207480Y0481206D02*
X0005550Y0481206D01*
X0005550Y0481505D02*
X0207480Y0481505D01*
X0207480Y0481803D02*
X0005550Y0481803D01*
X0005550Y0482102D02*
X0207480Y0482102D01*
X0207480Y0482400D02*
X0005550Y0482400D01*
X0005550Y0482699D02*
X0207480Y0482699D01*
X0207480Y0482997D02*
X0005550Y0482997D01*
X0005550Y0483296D02*
X0207480Y0483296D01*
X0207480Y0483594D02*
X0005550Y0483594D01*
X0005550Y0483893D02*
X0207480Y0483893D01*
X0207480Y0484191D02*
X0005550Y0484191D01*
X0005550Y0484490D02*
X0207480Y0484490D01*
X0207480Y0484788D02*
X0005550Y0484788D01*
X0005550Y0485087D02*
X0207480Y0485087D01*
X0207480Y0485385D02*
X0005550Y0485385D01*
X0005550Y0485684D02*
X0207480Y0485684D01*
X0207480Y0485982D02*
X0005550Y0485982D01*
X0005550Y0486281D02*
X0207480Y0486281D01*
X0207480Y0486579D02*
X0005550Y0486579D01*
X0005550Y0486878D02*
X0207480Y0486878D01*
X0207480Y0487176D02*
X0005550Y0487176D01*
X0005550Y0487475D02*
X0207480Y0487475D01*
X0207480Y0487773D02*
X0005550Y0487773D01*
X0005550Y0488072D02*
X0207480Y0488072D01*
X0207480Y0488370D02*
X0005550Y0488370D01*
X0005550Y0488669D02*
X0207480Y0488669D01*
X0207480Y0488967D02*
X0005550Y0488967D01*
X0005550Y0489266D02*
X0207480Y0489266D01*
X0207480Y0489565D02*
X0005550Y0489565D01*
X0005550Y0489863D02*
X0207480Y0489863D01*
X0207480Y0490162D02*
X0005550Y0490162D01*
X0005550Y0490460D02*
X0207480Y0490460D01*
X0207480Y0490759D02*
X0005550Y0490759D01*
X0005550Y0491057D02*
X0207480Y0491057D01*
X0207480Y0491356D02*
X0005550Y0491356D01*
X0005550Y0491654D02*
X0207480Y0491654D01*
X0207480Y0491953D02*
X0005550Y0491953D01*
X0005550Y0492251D02*
X0207480Y0492251D01*
X0207480Y0492550D02*
X0005550Y0492550D01*
X0005550Y0492848D02*
X0207480Y0492848D01*
X0207480Y0493147D02*
X0005550Y0493147D01*
X0005550Y0493445D02*
X0207480Y0493445D01*
X0207480Y0493744D02*
X0005550Y0493744D01*
X0005550Y0494042D02*
X0207480Y0494042D01*
X0207480Y0494341D02*
X0005550Y0494341D01*
X0005550Y0494639D02*
X0207480Y0494639D01*
X0207480Y0494938D02*
X0005550Y0494938D01*
X0005550Y0495236D02*
X0207480Y0495236D01*
X0207480Y0495535D02*
X0005550Y0495535D01*
X0005550Y0495833D02*
X0207480Y0495833D01*
X0207480Y0496132D02*
X0005550Y0496132D01*
X0005550Y0496430D02*
X0207480Y0496430D01*
X0207480Y0496729D02*
X0005550Y0496729D01*
X0005550Y0497027D02*
X0207480Y0497027D01*
X0207480Y0497326D02*
X0005550Y0497326D01*
X0005550Y0497624D02*
X0207480Y0497624D01*
X0207480Y0497923D02*
X0005550Y0497923D01*
X0005550Y0498221D02*
X0207480Y0498221D01*
X0207480Y0498520D02*
X0005550Y0498520D01*
X0005550Y0498818D02*
X0207480Y0498818D01*
X0207480Y0499117D02*
X0005550Y0499117D01*
X0005550Y0499415D02*
X0207480Y0499415D01*
X0207480Y0499714D02*
X0005550Y0499714D01*
X0005550Y0500012D02*
X0207480Y0500012D01*
X0207480Y0500311D02*
X0005550Y0500311D01*
X0005550Y0500609D02*
X0207480Y0500609D01*
X0207480Y0500908D02*
X0005550Y0500908D01*
X0005550Y0501206D02*
X0207480Y0501206D01*
X0207480Y0501505D02*
X0005550Y0501505D01*
X0005550Y0501803D02*
X0207480Y0501803D01*
X0207480Y0502102D02*
X0005550Y0502102D01*
X0005550Y0502401D02*
X0207480Y0502401D01*
X0207480Y0502699D02*
X0005550Y0502699D01*
X0005550Y0502998D02*
X0207480Y0502998D01*
X0207480Y0503296D02*
X0005550Y0503296D01*
X0005550Y0503595D02*
X0207480Y0503595D01*
X0207480Y0503893D02*
X0005550Y0503893D01*
X0005550Y0504192D02*
X0207480Y0504192D01*
X0207480Y0504490D02*
X0005550Y0504490D01*
X0005550Y0504789D02*
X0207480Y0504789D01*
X0207480Y0505087D02*
X0005550Y0505087D01*
X0005550Y0505386D02*
X0207480Y0505386D01*
X0207480Y0505684D02*
X0005550Y0505684D01*
X0005550Y0505983D02*
X0207480Y0505983D01*
X0207480Y0506281D02*
X0005550Y0506281D01*
X0005550Y0506580D02*
X0207480Y0506580D01*
X0207480Y0506878D02*
X0005550Y0506878D01*
X0005550Y0507177D02*
X0207480Y0507177D01*
X0207480Y0507475D02*
X0005550Y0507475D01*
X0005550Y0507774D02*
X0207480Y0507774D01*
X0207480Y0508072D02*
X0005550Y0508072D01*
X0005550Y0508371D02*
X0207480Y0508371D01*
X0227991Y0508371D02*
X0429921Y0508371D01*
X0429921Y0508072D02*
X0227991Y0508072D01*
X0227991Y0507774D02*
X0429921Y0507774D01*
X0429921Y0507475D02*
X0227991Y0507475D01*
X0227991Y0507177D02*
X0429921Y0507177D01*
X0429921Y0506878D02*
X0227991Y0506878D01*
X0227991Y0506580D02*
X0429921Y0506580D01*
X0429921Y0506281D02*
X0227991Y0506281D01*
X0227991Y0505983D02*
X0429921Y0505983D01*
X0429921Y0505684D02*
X0227991Y0505684D01*
X0227991Y0505386D02*
X0429921Y0505386D01*
X0429921Y0505087D02*
X0227991Y0505087D01*
X0227991Y0504789D02*
X0429921Y0504789D01*
X0429921Y0504490D02*
X0227991Y0504490D01*
X0227991Y0504192D02*
X0429921Y0504192D01*
X0429921Y0503893D02*
X0227991Y0503893D01*
X0227991Y0503595D02*
X0429921Y0503595D01*
X0429921Y0503296D02*
X0227991Y0503296D01*
X0227991Y0502998D02*
X0429921Y0502998D01*
X0429921Y0502699D02*
X0227991Y0502699D01*
X0227991Y0502401D02*
X0429921Y0502401D01*
X0429921Y0502102D02*
X0227991Y0502102D01*
X0227991Y0501803D02*
X0429921Y0501803D01*
X0429921Y0501505D02*
X0227991Y0501505D01*
X0227991Y0501206D02*
X0429921Y0501206D01*
X0429921Y0500908D02*
X0227991Y0500908D01*
X0227991Y0500609D02*
X0429921Y0500609D01*
X0429921Y0500311D02*
X0227991Y0500311D01*
X0227991Y0500012D02*
X0429921Y0500012D01*
X0429921Y0499714D02*
X0227991Y0499714D01*
X0227991Y0499415D02*
X0429921Y0499415D01*
X0429921Y0499117D02*
X0227991Y0499117D01*
X0227991Y0498818D02*
X0429921Y0498818D01*
X0429921Y0498520D02*
X0227991Y0498520D01*
X0227991Y0498221D02*
X0429921Y0498221D01*
X0429921Y0497923D02*
X0227991Y0497923D01*
X0227991Y0497624D02*
X0429921Y0497624D01*
X0429921Y0497326D02*
X0227991Y0497326D01*
X0227991Y0497027D02*
X0429921Y0497027D01*
X0429921Y0496729D02*
X0227991Y0496729D01*
X0227991Y0496430D02*
X0429921Y0496430D01*
X0429921Y0496132D02*
X0227991Y0496132D01*
X0227991Y0495833D02*
X0429921Y0495833D01*
X0429921Y0495535D02*
X0227991Y0495535D01*
X0227991Y0495236D02*
X0429921Y0495236D01*
X0429921Y0494938D02*
X0227991Y0494938D01*
X0227991Y0494639D02*
X0429921Y0494639D01*
X0429921Y0494341D02*
X0227991Y0494341D01*
X0227991Y0494042D02*
X0429921Y0494042D01*
X0429921Y0493744D02*
X0227991Y0493744D01*
X0227991Y0493445D02*
X0429921Y0493445D01*
X0429921Y0493147D02*
X0227991Y0493147D01*
X0227991Y0492848D02*
X0429921Y0492848D01*
X0429921Y0492550D02*
X0227991Y0492550D01*
X0227991Y0492251D02*
X0429921Y0492251D01*
X0429921Y0491953D02*
X0227991Y0491953D01*
X0227991Y0491654D02*
X0429921Y0491654D01*
X0429921Y0491356D02*
X0227991Y0491356D01*
X0227991Y0491057D02*
X0429921Y0491057D01*
X0429921Y0490759D02*
X0227991Y0490759D01*
X0227991Y0490460D02*
X0429921Y0490460D01*
X0429921Y0490162D02*
X0227991Y0490162D01*
X0227991Y0489863D02*
X0429921Y0489863D01*
X0429921Y0489565D02*
X0227991Y0489565D01*
X0227991Y0489266D02*
X0429921Y0489266D01*
X0429921Y0488967D02*
X0227991Y0488967D01*
X0227991Y0488669D02*
X0429921Y0488669D01*
X0429921Y0488370D02*
X0227991Y0488370D01*
X0227991Y0488072D02*
X0429921Y0488072D01*
X0429921Y0487773D02*
X0227991Y0487773D01*
X0227991Y0487475D02*
X0429921Y0487475D01*
X0429921Y0487176D02*
X0227991Y0487176D01*
X0227991Y0486878D02*
X0429921Y0486878D01*
X0429921Y0486579D02*
X0227991Y0486579D01*
X0227991Y0486281D02*
X0429921Y0486281D01*
X0429921Y0485982D02*
X0227991Y0485982D01*
X0227991Y0485684D02*
X0429921Y0485684D01*
X0429921Y0485385D02*
X0227991Y0485385D01*
X0227991Y0485087D02*
X0429921Y0485087D01*
X0429921Y0484788D02*
X0227991Y0484788D01*
X0227991Y0484490D02*
X0429921Y0484490D01*
X0429921Y0484191D02*
X0227991Y0484191D01*
X0227991Y0483893D02*
X0429921Y0483893D01*
X0429921Y0483594D02*
X0227991Y0483594D01*
X0227991Y0483296D02*
X0429921Y0483296D01*
X0429921Y0482997D02*
X0227991Y0482997D01*
X0227991Y0482699D02*
X0429921Y0482699D01*
X0429921Y0482400D02*
X0227991Y0482400D01*
X0227991Y0482102D02*
X0429921Y0482102D01*
X0429921Y0481803D02*
X0227991Y0481803D01*
X0227991Y0481505D02*
X0429921Y0481505D01*
X0429921Y0481206D02*
X0227991Y0481206D01*
X0227991Y0480908D02*
X0429921Y0480908D01*
X0429921Y0480609D02*
X0227991Y0480609D01*
X0227991Y0480311D02*
X0429921Y0480311D01*
X0429921Y0480012D02*
X0227991Y0480012D01*
X0227991Y0479714D02*
X0429921Y0479714D01*
X0429921Y0479415D02*
X0227991Y0479415D01*
X0227991Y0479117D02*
X0429921Y0479117D01*
X0429921Y0478818D02*
X0227991Y0478818D01*
X0227991Y0478520D02*
X0429921Y0478520D01*
X0429921Y0478221D02*
X0227991Y0478221D01*
X0227991Y0477923D02*
X0429921Y0477923D01*
X0429921Y0477624D02*
X0227991Y0477624D01*
X0227991Y0477326D02*
X0429921Y0477326D01*
X0429921Y0477027D02*
X0227991Y0477027D01*
X0227991Y0476729D02*
X0429921Y0476729D01*
X0429921Y0476430D02*
X0227991Y0476430D01*
X0227991Y0476132D02*
X0429921Y0476132D01*
X0429921Y0475833D02*
X0227991Y0475833D01*
X0227991Y0475534D02*
X0429921Y0475534D01*
X0429921Y0475236D02*
X0227991Y0475236D01*
X0227991Y0474937D02*
X0429921Y0474937D01*
X0429921Y0474639D02*
X0227991Y0474639D01*
X0227991Y0474340D02*
X0429921Y0474340D01*
X0429921Y0474042D02*
X0227991Y0474042D01*
X0227991Y0473743D02*
X0429921Y0473743D01*
X0429921Y0473445D02*
X0227991Y0473445D01*
X0227991Y0473146D02*
X0429921Y0473146D01*
X0429921Y0472848D02*
X0227991Y0472848D01*
X0227897Y0472549D02*
X0429921Y0472549D01*
X0429921Y0472251D02*
X0227774Y0472251D01*
X0227650Y0471952D02*
X0429921Y0471952D01*
X0429921Y0471654D02*
X0227526Y0471654D01*
X0227403Y0471355D02*
X0429921Y0471355D01*
X0429921Y0471057D02*
X0227209Y0471057D01*
X0226910Y0470758D02*
X0429921Y0470758D01*
X0429921Y0470460D02*
X0226612Y0470460D01*
X0226313Y0470161D02*
X0429921Y0470161D01*
X0429921Y0469863D02*
X0225887Y0469863D01*
X0225166Y0469564D02*
X0429921Y0469564D01*
D11*
X0217735Y0257106D03*
M02*
