G75*
%MOIN*%
%OFA0B0*%
%FSLAX25Y25*%
%IPPOS*%
%LPD*%
%AMOC8*
5,1,8,0,0,1.08239X$1,22.5*
%
%ADD10C,0.07874*%
%ADD11R,0.05118X0.05118*%
%ADD12R,0.01969X0.01575*%
%ADD13R,0.02992X0.25000*%
%ADD14R,0.04331X0.09449*%
%ADD15C,0.02000*%
%ADD16C,0.02978*%
D10*
X0191787Y0028809D02*
X0191787Y0036683D01*
X0206787Y0036683D02*
X0206787Y0028809D01*
X0221787Y0028809D02*
X0221787Y0036683D01*
X0236787Y0036683D02*
X0236787Y0028809D01*
D11*
X0272654Y0026722D03*
X0272654Y0034990D03*
X0292339Y0034990D03*
X0292339Y0026722D03*
D12*
X0292339Y0045325D03*
X0292339Y0047884D03*
X0300213Y0047884D03*
X0300213Y0045325D03*
X0272654Y0045325D03*
X0272654Y0047884D03*
D13*
X0347732Y0071722D03*
X0352732Y0071722D03*
X0357732Y0071722D03*
X0362732Y0071722D03*
X0367732Y0071722D03*
X0372732Y0071722D03*
X0377732Y0071722D03*
X0382732Y0071722D03*
D14*
X0398638Y0022352D03*
X0331709Y0022352D03*
D15*
X0300213Y0023376D02*
X0297063Y0021014D01*
X0292339Y0021014D01*
X0292339Y0026722D01*
X0300213Y0023376D02*
X0300213Y0045325D01*
X0300213Y0047884D02*
X0292339Y0047884D01*
X0292339Y0055659D01*
X0288795Y0059203D01*
X0272654Y0059203D01*
X0272654Y0047884D01*
X0272654Y0045325D02*
X0272654Y0034990D01*
X0292339Y0034990D02*
X0292339Y0045325D01*
X0272654Y0059203D02*
X0272654Y0089124D01*
X0278559Y0095030D01*
X0348244Y0095030D01*
X0352732Y0090541D01*
X0352732Y0071722D01*
X0357732Y0071722D02*
X0357732Y0097746D01*
X0357299Y0098179D01*
X0362811Y0098179D01*
X0362732Y0098100D01*
X0362732Y0071722D01*
X0367732Y0071722D02*
X0367732Y0097982D01*
X0367535Y0098179D01*
X0369504Y0098179D01*
X0372732Y0094951D01*
X0372732Y0071722D01*
X0367535Y0098179D02*
X0362811Y0098179D01*
X0357299Y0098179D02*
X0243520Y0098179D01*
X0236787Y0091447D01*
X0236787Y0032746D01*
D16*
X0292339Y0021014D03*
M02*
