G04 EAGLE Gerber RS-274X export*
G75*
%MOMM*%
%FSLAX34Y34*%
%LPD*%
%INBottom Copper*%
%IPPOS*%
%AMOC8*
5,1,8,0,0,1.08239X$1,22.5*%
G01*
%ADD10R,2.095500X2.095500*%
%ADD11C,2.095500*%
%ADD12R,1.016000X1.016000*%
%ADD13C,1.016000*%
%ADD14C,2.000000*%
%ADD15R,1.168400X0.457200*%
%ADD16R,0.800000X0.700000*%
%ADD17C,0.756400*%
%ADD18C,0.812800*%
%ADD19C,0.254000*%
%ADD20C,0.508000*%

G36*
X1104148Y10169D02*
X1104148Y10169D01*
X1104162Y10167D01*
X1104164Y10180D01*
X1104185Y10197D01*
X1104169Y10218D01*
X1104173Y10245D01*
X1098670Y15748D01*
X1094839Y24995D01*
X1094839Y35005D01*
X1098670Y44252D01*
X1105748Y51330D01*
X1114995Y55161D01*
X1125005Y55161D01*
X1134252Y51330D01*
X1139755Y45827D01*
X1139769Y45826D01*
X1139777Y45815D01*
X1139784Y45820D01*
X1139785Y45818D01*
X1139790Y45818D01*
X1139796Y45822D01*
X1139814Y45819D01*
X1139817Y45838D01*
X1139837Y45854D01*
X1139834Y45858D01*
X1139839Y45862D01*
X1139839Y1304138D01*
X1139831Y1304148D01*
X1139833Y1304162D01*
X1139820Y1304164D01*
X1139803Y1304185D01*
X1139782Y1304169D01*
X1139755Y1304173D01*
X1134252Y1298670D01*
X1125005Y1294839D01*
X1114995Y1294839D01*
X1105748Y1298670D01*
X1098670Y1305748D01*
X1094839Y1314995D01*
X1094839Y1325005D01*
X1098670Y1334252D01*
X1104173Y1339755D01*
X1104174Y1339769D01*
X1104185Y1339777D01*
X1104177Y1339787D01*
X1104181Y1339814D01*
X1104154Y1339818D01*
X1104138Y1339839D01*
X45862Y1339839D01*
X45852Y1339831D01*
X45838Y1339833D01*
X45836Y1339820D01*
X45815Y1339803D01*
X45831Y1339782D01*
X45827Y1339755D01*
X51330Y1334252D01*
X55161Y1325005D01*
X55161Y1314995D01*
X51330Y1305748D01*
X44252Y1298670D01*
X35005Y1294839D01*
X24995Y1294839D01*
X15748Y1298670D01*
X10245Y1304173D01*
X10231Y1304174D01*
X10223Y1304185D01*
X10213Y1304177D01*
X10186Y1304181D01*
X10182Y1304154D01*
X10161Y1304138D01*
X10161Y45862D01*
X10169Y45852D01*
X10167Y45838D01*
X10180Y45836D01*
X10197Y45815D01*
X10207Y45822D01*
X10210Y45818D01*
X10215Y45818D01*
X10230Y45829D01*
X10245Y45827D01*
X15748Y51330D01*
X24995Y55161D01*
X35005Y55161D01*
X44252Y51330D01*
X51330Y44252D01*
X55161Y35005D01*
X55161Y24995D01*
X51330Y15748D01*
X45827Y10245D01*
X45826Y10231D01*
X45815Y10223D01*
X45823Y10213D01*
X45819Y10186D01*
X45846Y10182D01*
X45862Y10161D01*
X1104138Y10161D01*
X1104148Y10169D01*
G37*
%LPC*%
G36*
X906316Y154935D02*
X906316Y154935D01*
X895935Y165316D01*
X895935Y381684D01*
X898331Y384079D01*
X913381Y399129D01*
X913385Y399156D01*
X913395Y399164D01*
X913395Y405712D01*
X914288Y406605D01*
X925712Y406605D01*
X926605Y405712D01*
X926605Y394288D01*
X925712Y393395D01*
X925163Y393395D01*
X925116Y393359D01*
X925122Y393352D01*
X925114Y393346D01*
X925151Y371255D01*
X925167Y371233D01*
X925165Y371220D01*
X929206Y367179D01*
X929230Y367176D01*
X929232Y367174D01*
X929234Y367174D01*
X929241Y367165D01*
X933221Y367165D01*
X933460Y366925D01*
X933487Y366921D01*
X933495Y366911D01*
X938011Y366911D01*
X938904Y366018D01*
X938904Y360182D01*
X938011Y359289D01*
X933495Y359289D01*
X933474Y359273D01*
X933460Y359275D01*
X933221Y359035D01*
X925853Y359035D01*
X925614Y359275D01*
X925587Y359279D01*
X925579Y359289D01*
X925063Y359289D01*
X924170Y360182D01*
X924170Y360698D01*
X924154Y360719D01*
X924156Y360733D01*
X918215Y366674D01*
X917024Y367860D01*
X917024Y369543D01*
X916988Y391121D01*
X916980Y391132D01*
X916982Y391145D01*
X916969Y391147D01*
X916952Y391169D01*
X916939Y391159D01*
X916928Y391159D01*
X916921Y391154D01*
X916904Y391156D01*
X904079Y378331D01*
X904078Y378320D01*
X904075Y378318D01*
X904077Y378315D01*
X904075Y378304D01*
X904065Y378296D01*
X904065Y168704D01*
X904081Y168683D01*
X904079Y168669D01*
X909669Y163079D01*
X909696Y163075D01*
X909704Y163065D01*
X1012296Y163065D01*
X1012317Y163081D01*
X1012331Y163079D01*
X1029921Y180669D01*
X1029924Y180693D01*
X1029933Y180700D01*
X1029932Y180702D01*
X1029935Y180704D01*
X1029935Y369296D01*
X1029919Y369317D01*
X1029921Y369331D01*
X1028935Y370316D01*
X1028935Y373684D01*
X1049516Y394265D01*
X1091176Y394265D01*
X1091214Y394293D01*
X1091222Y394295D01*
X1092230Y396728D01*
X1095472Y399970D01*
X1099708Y401725D01*
X1124292Y401725D01*
X1128528Y399970D01*
X1131770Y396728D01*
X1133525Y392492D01*
X1133525Y387908D01*
X1131770Y383672D01*
X1128528Y380430D01*
X1124292Y378675D01*
X1099708Y378675D01*
X1095472Y380430D01*
X1092230Y383672D01*
X1091222Y386105D01*
X1091182Y386128D01*
X1091176Y386135D01*
X1052904Y386135D01*
X1052883Y386119D01*
X1052869Y386121D01*
X1038079Y371331D01*
X1038075Y371304D01*
X1038065Y371296D01*
X1038065Y177316D01*
X1015684Y154935D01*
X906316Y154935D01*
G37*
%LPD*%
%LPC*%
G36*
X1028908Y19475D02*
X1028908Y19475D01*
X1024672Y21230D01*
X1021430Y24472D01*
X1019675Y28708D01*
X1019675Y53292D01*
X1021430Y57528D01*
X1024672Y60770D01*
X1027105Y61778D01*
X1027116Y61798D01*
X1027133Y61811D01*
X1027128Y61818D01*
X1027135Y61824D01*
X1027135Y86296D01*
X1027119Y86317D01*
X1027121Y86331D01*
X987531Y125921D01*
X987504Y125925D01*
X987496Y125935D01*
X779695Y125935D01*
X733935Y171695D01*
X733935Y379684D01*
X736331Y382079D01*
X753381Y399129D01*
X753385Y399156D01*
X753395Y399164D01*
X753395Y405712D01*
X754288Y406605D01*
X765712Y406605D01*
X766605Y405712D01*
X766605Y394288D01*
X765712Y393395D01*
X764163Y393395D01*
X764116Y393359D01*
X764122Y393352D01*
X764114Y393346D01*
X764151Y371255D01*
X764167Y371233D01*
X764165Y371220D01*
X768206Y367179D01*
X768230Y367176D01*
X768232Y367174D01*
X768234Y367174D01*
X768241Y367165D01*
X772221Y367165D01*
X772460Y366925D01*
X772487Y366921D01*
X772495Y366911D01*
X777011Y366911D01*
X777904Y366018D01*
X777904Y360182D01*
X777011Y359289D01*
X772495Y359289D01*
X772474Y359273D01*
X772460Y359275D01*
X772221Y359035D01*
X764853Y359035D01*
X764614Y359275D01*
X764587Y359279D01*
X764579Y359289D01*
X764063Y359289D01*
X763170Y360182D01*
X763170Y360698D01*
X763154Y360719D01*
X763156Y360733D01*
X757215Y366674D01*
X756024Y367860D01*
X756024Y369543D01*
X755990Y390123D01*
X755982Y390134D01*
X755984Y390147D01*
X755970Y390149D01*
X755954Y390170D01*
X755933Y390154D01*
X755906Y390158D01*
X742079Y376331D01*
X742076Y376305D01*
X742067Y376299D01*
X742067Y376298D01*
X742065Y376296D01*
X742065Y175083D01*
X742081Y175062D01*
X742079Y175048D01*
X783048Y134079D01*
X783072Y134076D01*
X783074Y134074D01*
X783076Y134074D01*
X783083Y134065D01*
X990884Y134065D01*
X1035265Y89684D01*
X1035265Y61824D01*
X1035293Y61786D01*
X1035295Y61778D01*
X1037728Y60770D01*
X1040970Y57528D01*
X1042725Y53292D01*
X1042725Y28708D01*
X1040970Y24472D01*
X1037728Y21230D01*
X1033492Y19475D01*
X1028908Y19475D01*
G37*
%LPD*%
%LPC*%
G36*
X849631Y142135D02*
X849631Y142135D01*
X813237Y178529D01*
X813237Y330614D01*
X813229Y330624D01*
X813231Y330638D01*
X813218Y330640D01*
X813201Y330661D01*
X813180Y330645D01*
X813153Y330648D01*
X810198Y327693D01*
X805802Y327693D01*
X802693Y330802D01*
X802693Y335198D01*
X805802Y338307D01*
X810198Y338307D01*
X813153Y335352D01*
X813167Y335350D01*
X813175Y335339D01*
X813185Y335347D01*
X813212Y335344D01*
X813216Y335370D01*
X813237Y335386D01*
X813237Y378986D01*
X815633Y381381D01*
X833381Y399129D01*
X833385Y399156D01*
X833395Y399164D01*
X833395Y405712D01*
X834288Y406605D01*
X845712Y406605D01*
X846605Y405712D01*
X846605Y394288D01*
X845712Y393395D01*
X844163Y393395D01*
X844116Y393359D01*
X844122Y393352D01*
X844114Y393346D01*
X844151Y371255D01*
X844167Y371233D01*
X844165Y371220D01*
X848206Y367179D01*
X848230Y367176D01*
X848232Y367174D01*
X848234Y367174D01*
X848241Y367165D01*
X852221Y367165D01*
X852460Y366925D01*
X852487Y366921D01*
X852495Y366911D01*
X857011Y366911D01*
X857904Y366018D01*
X857904Y360182D01*
X857011Y359289D01*
X852495Y359289D01*
X852474Y359273D01*
X852460Y359275D01*
X852221Y359035D01*
X844853Y359035D01*
X844614Y359275D01*
X844587Y359279D01*
X844579Y359289D01*
X844063Y359289D01*
X843170Y360182D01*
X843170Y360698D01*
X843154Y360719D01*
X843156Y360733D01*
X837215Y366674D01*
X836024Y367860D01*
X836024Y369543D01*
X835990Y390123D01*
X835982Y390134D01*
X835984Y390147D01*
X835970Y390149D01*
X835954Y390170D01*
X835933Y390154D01*
X835906Y390158D01*
X821381Y375633D01*
X821379Y375617D01*
X821369Y375609D01*
X821373Y375603D01*
X821367Y375598D01*
X821367Y181916D01*
X821383Y181895D01*
X821381Y181882D01*
X852984Y150279D01*
X853010Y150275D01*
X853018Y150265D01*
X1020296Y150265D01*
X1020317Y150281D01*
X1020331Y150279D01*
X1046921Y176869D01*
X1046925Y176896D01*
X1046935Y176904D01*
X1046935Y207884D01*
X1063316Y224265D01*
X1091176Y224265D01*
X1091214Y224293D01*
X1091222Y224295D01*
X1092230Y226728D01*
X1095472Y229970D01*
X1099708Y231725D01*
X1124292Y231725D01*
X1128528Y229970D01*
X1131770Y226728D01*
X1133525Y222492D01*
X1133525Y217908D01*
X1131770Y213672D01*
X1128528Y210430D01*
X1124292Y208675D01*
X1099708Y208675D01*
X1095472Y210430D01*
X1092230Y213672D01*
X1091222Y216105D01*
X1091182Y216128D01*
X1091176Y216135D01*
X1066704Y216135D01*
X1066683Y216119D01*
X1066669Y216121D01*
X1055079Y204531D01*
X1055078Y204519D01*
X1055072Y204515D01*
X1055076Y204509D01*
X1055075Y204504D01*
X1055065Y204496D01*
X1055065Y173516D01*
X1023684Y142135D01*
X849631Y142135D01*
G37*
%LPD*%
%LPC*%
G36*
X862908Y18475D02*
X862908Y18475D01*
X858672Y20230D01*
X855430Y23472D01*
X853675Y27708D01*
X853675Y52292D01*
X855430Y56528D01*
X858672Y59770D01*
X861105Y60778D01*
X861128Y60818D01*
X861135Y60824D01*
X861135Y81296D01*
X861119Y81317D01*
X861121Y81331D01*
X847531Y94921D01*
X847504Y94925D01*
X847496Y94935D01*
X750516Y94935D01*
X656237Y189214D01*
X656237Y381986D01*
X673381Y399129D01*
X673385Y399156D01*
X673395Y399164D01*
X673395Y405712D01*
X674288Y406605D01*
X685712Y406605D01*
X686605Y405712D01*
X686605Y394288D01*
X685712Y393395D01*
X684163Y393395D01*
X684116Y393359D01*
X684122Y393352D01*
X684114Y393346D01*
X684151Y371255D01*
X684167Y371233D01*
X684165Y371220D01*
X688206Y367179D01*
X688230Y367176D01*
X688232Y367174D01*
X688234Y367174D01*
X688241Y367165D01*
X692221Y367165D01*
X692460Y366925D01*
X692487Y366921D01*
X692495Y366911D01*
X697011Y366911D01*
X697904Y366018D01*
X697904Y360182D01*
X697011Y359289D01*
X692495Y359289D01*
X692474Y359273D01*
X692460Y359275D01*
X692221Y359035D01*
X684853Y359035D01*
X684614Y359275D01*
X684587Y359279D01*
X684579Y359289D01*
X684063Y359289D01*
X683170Y360182D01*
X683170Y360698D01*
X683154Y360719D01*
X683156Y360733D01*
X677215Y366674D01*
X676024Y367860D01*
X676024Y369543D01*
X675990Y390123D01*
X675982Y390134D01*
X675984Y390147D01*
X675970Y390149D01*
X675954Y390170D01*
X675933Y390154D01*
X675906Y390158D01*
X664381Y378633D01*
X664379Y378620D01*
X664371Y378613D01*
X664377Y378605D01*
X664367Y378598D01*
X664367Y192602D01*
X664383Y192581D01*
X664381Y192567D01*
X753869Y103079D01*
X753896Y103075D01*
X753904Y103065D01*
X850884Y103065D01*
X869265Y84684D01*
X869265Y60824D01*
X869293Y60786D01*
X869295Y60778D01*
X871728Y59770D01*
X874970Y56528D01*
X876725Y52292D01*
X876725Y27708D01*
X874970Y23472D01*
X871728Y20230D01*
X867492Y18475D01*
X862908Y18475D01*
G37*
%LPD*%
%LPC*%
G36*
X185908Y17475D02*
X185908Y17475D01*
X181672Y19230D01*
X178430Y22472D01*
X176675Y26708D01*
X176675Y51292D01*
X178430Y55528D01*
X181672Y58770D01*
X184105Y59778D01*
X184128Y59818D01*
X184135Y59824D01*
X184135Y110684D01*
X186531Y113079D01*
X208516Y135065D01*
X297801Y135065D01*
X297823Y135081D01*
X297836Y135079D01*
X333921Y171164D01*
X333924Y171188D01*
X333933Y171195D01*
X333932Y171197D01*
X333935Y171199D01*
X333935Y379684D01*
X336331Y382079D01*
X353381Y399129D01*
X353385Y399156D01*
X353395Y399164D01*
X353395Y405712D01*
X354288Y406605D01*
X365712Y406605D01*
X366605Y405712D01*
X366605Y394288D01*
X365712Y393395D01*
X364163Y393395D01*
X364116Y393359D01*
X364122Y393352D01*
X364114Y393346D01*
X364151Y371255D01*
X364167Y371233D01*
X364165Y371220D01*
X368206Y367179D01*
X368230Y367176D01*
X368232Y367174D01*
X368234Y367174D01*
X368241Y367165D01*
X372221Y367165D01*
X372460Y366925D01*
X372487Y366921D01*
X372495Y366911D01*
X377011Y366911D01*
X377904Y366018D01*
X377904Y360182D01*
X377011Y359289D01*
X372495Y359289D01*
X372474Y359273D01*
X372460Y359275D01*
X372221Y359035D01*
X364853Y359035D01*
X364614Y359275D01*
X364587Y359279D01*
X364579Y359289D01*
X364063Y359289D01*
X363170Y360182D01*
X363170Y360698D01*
X363154Y360719D01*
X363156Y360733D01*
X357215Y366674D01*
X356024Y367860D01*
X356024Y369543D01*
X355990Y390123D01*
X355982Y390134D01*
X355984Y390147D01*
X355970Y390149D01*
X355954Y390170D01*
X355933Y390154D01*
X355906Y390158D01*
X342079Y376331D01*
X342076Y376305D01*
X342067Y376299D01*
X342067Y376298D01*
X342065Y376296D01*
X342065Y167811D01*
X301189Y126935D01*
X211904Y126935D01*
X211883Y126919D01*
X211869Y126921D01*
X192279Y107331D01*
X192275Y107304D01*
X192265Y107296D01*
X192265Y59824D01*
X192293Y59786D01*
X192295Y59778D01*
X194728Y58770D01*
X197970Y55528D01*
X199725Y51292D01*
X199725Y26708D01*
X197970Y22472D01*
X194728Y19230D01*
X190492Y17475D01*
X185908Y17475D01*
G37*
%LPD*%
%LPC*%
G36*
X694908Y16475D02*
X694908Y16475D01*
X690672Y18230D01*
X687430Y21472D01*
X685675Y25708D01*
X685675Y50292D01*
X687430Y54528D01*
X690672Y57770D01*
X693105Y58778D01*
X693119Y58803D01*
X693124Y58806D01*
X693123Y58809D01*
X693128Y58818D01*
X693135Y58824D01*
X693135Y67296D01*
X693119Y67317D01*
X693121Y67331D01*
X663531Y96921D01*
X663504Y96925D01*
X663496Y96935D01*
X619831Y96935D01*
X580237Y136529D01*
X580237Y385986D01*
X593381Y399129D01*
X593385Y399156D01*
X593395Y399164D01*
X593395Y405712D01*
X594288Y406605D01*
X605712Y406605D01*
X606605Y405712D01*
X606605Y394288D01*
X605712Y393395D01*
X604163Y393395D01*
X604116Y393359D01*
X604122Y393352D01*
X604114Y393346D01*
X604151Y371255D01*
X604167Y371233D01*
X604165Y371220D01*
X608206Y367179D01*
X608230Y367176D01*
X608232Y367174D01*
X608234Y367174D01*
X608241Y367165D01*
X612221Y367165D01*
X612460Y366925D01*
X612487Y366921D01*
X612495Y366911D01*
X617011Y366911D01*
X617904Y366018D01*
X617904Y360182D01*
X617011Y359289D01*
X612495Y359289D01*
X612474Y359273D01*
X612460Y359275D01*
X612221Y359035D01*
X604853Y359035D01*
X604614Y359275D01*
X604587Y359279D01*
X604579Y359289D01*
X604063Y359289D01*
X603170Y360182D01*
X603170Y360698D01*
X603154Y360719D01*
X603156Y360733D01*
X597215Y366674D01*
X596024Y367860D01*
X596024Y369543D01*
X595990Y390123D01*
X595982Y390134D01*
X595984Y390147D01*
X595970Y390149D01*
X595954Y390170D01*
X595933Y390154D01*
X595906Y390158D01*
X588381Y382633D01*
X588378Y382610D01*
X588369Y382603D01*
X588370Y382600D01*
X588367Y382598D01*
X588367Y139916D01*
X588383Y139895D01*
X588381Y139882D01*
X623184Y105079D01*
X623210Y105076D01*
X623218Y105065D01*
X666884Y105065D01*
X701265Y70684D01*
X701265Y58824D01*
X701293Y58786D01*
X701295Y58778D01*
X703728Y57770D01*
X706970Y54528D01*
X708725Y50292D01*
X708725Y25708D01*
X706970Y21472D01*
X703728Y18230D01*
X699492Y16475D01*
X694908Y16475D01*
G37*
%LPD*%
%LPC*%
G36*
X525908Y18475D02*
X525908Y18475D01*
X521672Y20230D01*
X518430Y23472D01*
X516675Y27708D01*
X516675Y45756D01*
X516659Y45777D01*
X516661Y45791D01*
X493237Y69214D01*
X493237Y330614D01*
X493229Y330624D01*
X493231Y330638D01*
X493218Y330640D01*
X493201Y330661D01*
X493180Y330645D01*
X493153Y330648D01*
X490198Y327693D01*
X485802Y327693D01*
X482693Y330802D01*
X482693Y335198D01*
X485802Y338307D01*
X490198Y338307D01*
X493153Y335352D01*
X493167Y335350D01*
X493175Y335339D01*
X493185Y335347D01*
X493212Y335344D01*
X493216Y335370D01*
X493237Y335386D01*
X493237Y378986D01*
X495633Y381381D01*
X513381Y399129D01*
X513385Y399156D01*
X513395Y399164D01*
X513395Y405712D01*
X514288Y406605D01*
X525712Y406605D01*
X526605Y405712D01*
X526605Y394288D01*
X525712Y393395D01*
X524163Y393395D01*
X524116Y393359D01*
X524122Y393352D01*
X524114Y393346D01*
X524151Y371255D01*
X524167Y371233D01*
X524165Y371220D01*
X528206Y367179D01*
X528230Y367176D01*
X528232Y367174D01*
X528234Y367174D01*
X528241Y367165D01*
X532221Y367165D01*
X532460Y366925D01*
X532487Y366921D01*
X532495Y366911D01*
X537011Y366911D01*
X537904Y366018D01*
X537904Y360182D01*
X537011Y359289D01*
X532495Y359289D01*
X532474Y359273D01*
X532460Y359275D01*
X532221Y359035D01*
X524853Y359035D01*
X524614Y359275D01*
X524587Y359279D01*
X524579Y359289D01*
X524063Y359289D01*
X523170Y360182D01*
X523170Y360698D01*
X523154Y360719D01*
X523156Y360733D01*
X517215Y366674D01*
X516024Y367860D01*
X516024Y369543D01*
X515990Y390123D01*
X515982Y390134D01*
X515984Y390147D01*
X515970Y390149D01*
X515954Y390170D01*
X515933Y390154D01*
X515906Y390158D01*
X501381Y375633D01*
X501379Y375617D01*
X501369Y375609D01*
X501373Y375603D01*
X501367Y375598D01*
X501367Y72602D01*
X501383Y72581D01*
X501381Y72567D01*
X518082Y55866D01*
X518085Y55866D01*
X518086Y55863D01*
X518095Y55865D01*
X518141Y55858D01*
X518144Y55877D01*
X518162Y55882D01*
X518430Y56528D01*
X521672Y59770D01*
X525908Y61525D01*
X530492Y61525D01*
X534728Y59770D01*
X537970Y56528D01*
X539725Y52292D01*
X539725Y27708D01*
X537970Y23472D01*
X534728Y20230D01*
X530492Y18475D01*
X525908Y18475D01*
G37*
%LPD*%
%LPC*%
G36*
X27708Y190275D02*
X27708Y190275D01*
X23472Y192030D01*
X20230Y195272D01*
X18475Y199508D01*
X18475Y204092D01*
X20230Y208328D01*
X23472Y211570D01*
X27708Y213325D01*
X52292Y213325D01*
X56528Y211570D01*
X59770Y208328D01*
X60778Y205895D01*
X60818Y205872D01*
X60824Y205865D01*
X213096Y205865D01*
X213117Y205881D01*
X213131Y205879D01*
X259921Y252669D01*
X259925Y252696D01*
X259935Y252704D01*
X259935Y385684D01*
X273381Y399129D01*
X273385Y399156D01*
X273395Y399164D01*
X273395Y405712D01*
X274288Y406605D01*
X285712Y406605D01*
X286605Y405712D01*
X286605Y394288D01*
X285712Y393395D01*
X284165Y393395D01*
X284118Y393359D01*
X284123Y393352D01*
X284116Y393346D01*
X284151Y372255D01*
X284167Y372233D01*
X284165Y372220D01*
X288206Y368179D01*
X288233Y368175D01*
X288241Y368165D01*
X292221Y368165D01*
X292460Y367925D01*
X292486Y367922D01*
X292493Y367913D01*
X292494Y367913D01*
X292495Y367911D01*
X297011Y367911D01*
X297904Y367018D01*
X297904Y361182D01*
X297011Y360289D01*
X292495Y360289D01*
X292474Y360273D01*
X292460Y360275D01*
X292221Y360035D01*
X284853Y360035D01*
X284614Y360275D01*
X284590Y360278D01*
X284589Y360279D01*
X284587Y360279D01*
X284579Y360289D01*
X284063Y360289D01*
X283170Y361182D01*
X283170Y361698D01*
X283154Y361719D01*
X283156Y361733D01*
X277215Y367674D01*
X276024Y368860D01*
X276024Y370543D01*
X275992Y390125D01*
X275984Y390135D01*
X275985Y390149D01*
X275972Y390150D01*
X275956Y390172D01*
X275934Y390156D01*
X275908Y390159D01*
X268079Y382331D01*
X268077Y382315D01*
X268067Y382307D01*
X268071Y382301D01*
X268065Y382296D01*
X268065Y249316D01*
X216484Y197735D01*
X60824Y197735D01*
X60786Y197707D01*
X60778Y197705D01*
X59770Y195272D01*
X56528Y192030D01*
X52292Y190275D01*
X27708Y190275D01*
G37*
%LPD*%
%LPC*%
G36*
X355908Y16475D02*
X355908Y16475D01*
X351672Y18230D01*
X348430Y21472D01*
X346675Y25708D01*
X346675Y50292D01*
X348430Y54528D01*
X351672Y57770D01*
X354105Y58778D01*
X354119Y58803D01*
X354124Y58806D01*
X354123Y58809D01*
X354128Y58818D01*
X354135Y58824D01*
X354135Y125378D01*
X416921Y188164D01*
X416923Y188178D01*
X416933Y188186D01*
X416928Y188193D01*
X416935Y188199D01*
X416935Y382684D01*
X419331Y385079D01*
X433381Y399129D01*
X433385Y399156D01*
X433395Y399164D01*
X433395Y405712D01*
X434288Y406605D01*
X445712Y406605D01*
X446605Y405712D01*
X446605Y394288D01*
X445712Y393395D01*
X444163Y393395D01*
X444116Y393359D01*
X444122Y393352D01*
X444114Y393346D01*
X444151Y371255D01*
X444167Y371233D01*
X444165Y371220D01*
X448206Y367179D01*
X448230Y367176D01*
X448232Y367174D01*
X448234Y367174D01*
X448241Y367165D01*
X452221Y367165D01*
X452460Y366925D01*
X452487Y366921D01*
X452495Y366911D01*
X457011Y366911D01*
X457904Y366018D01*
X457904Y360182D01*
X457011Y359289D01*
X452495Y359289D01*
X452474Y359273D01*
X452460Y359275D01*
X452221Y359035D01*
X444853Y359035D01*
X444614Y359275D01*
X444587Y359279D01*
X444579Y359289D01*
X444063Y359289D01*
X443170Y360182D01*
X443170Y360698D01*
X443154Y360719D01*
X443156Y360733D01*
X437215Y366674D01*
X436024Y367860D01*
X436024Y369543D01*
X435990Y390123D01*
X435982Y390134D01*
X435984Y390147D01*
X435970Y390149D01*
X435954Y390170D01*
X435933Y390154D01*
X435906Y390158D01*
X425079Y379331D01*
X425076Y379310D01*
X425067Y379303D01*
X425069Y379299D01*
X425065Y379296D01*
X425065Y184811D01*
X362279Y122025D01*
X362275Y121999D01*
X362265Y121991D01*
X362265Y58824D01*
X362293Y58786D01*
X362295Y58778D01*
X364728Y57770D01*
X367970Y54528D01*
X369725Y50292D01*
X369725Y25708D01*
X367970Y21472D01*
X364728Y18230D01*
X360492Y16475D01*
X355908Y16475D01*
G37*
%LPD*%
%LPC*%
G36*
X628891Y804998D02*
X628891Y804998D01*
X627998Y805891D01*
X627998Y828109D01*
X628891Y829002D01*
X644078Y829002D01*
X644100Y829019D01*
X644113Y829017D01*
X650462Y835366D01*
X650464Y835377D01*
X650468Y835380D01*
X650465Y835384D01*
X650466Y835393D01*
X650477Y835401D01*
X650477Y865682D01*
X650464Y865700D01*
X650458Y865721D01*
X650449Y865719D01*
X650441Y865730D01*
X650414Y865710D01*
X650382Y865701D01*
X650175Y865201D01*
X646799Y861825D01*
X642387Y859998D01*
X637613Y859998D01*
X633201Y861825D01*
X629825Y865201D01*
X627998Y869613D01*
X627998Y874387D01*
X629825Y878799D01*
X633201Y882175D01*
X634381Y882664D01*
X634404Y882704D01*
X634411Y882709D01*
X634411Y923315D01*
X637685Y926589D01*
X642315Y926589D01*
X645589Y923315D01*
X645589Y882709D01*
X645617Y882672D01*
X645619Y882664D01*
X646799Y882175D01*
X650175Y878799D01*
X650382Y878299D01*
X650401Y878288D01*
X650414Y878270D01*
X650421Y878276D01*
X650433Y878269D01*
X650450Y878298D01*
X650477Y878318D01*
X650477Y1010599D01*
X650460Y1010621D01*
X650462Y1010634D01*
X634411Y1026685D01*
X634411Y1031315D01*
X637685Y1034589D01*
X642315Y1034589D01*
X661654Y1015249D01*
X661654Y830751D01*
X652017Y821113D01*
X652013Y821086D01*
X652002Y821078D01*
X652002Y805891D01*
X651109Y804998D01*
X628891Y804998D01*
G37*
%LPD*%
%LPC*%
G36*
X844891Y1057998D02*
X844891Y1057998D01*
X843998Y1058891D01*
X843998Y1081109D01*
X844891Y1082002D01*
X860078Y1082002D01*
X860100Y1082019D01*
X860113Y1082017D01*
X866462Y1088366D01*
X866464Y1088377D01*
X866465Y1088378D01*
X866464Y1088379D01*
X866466Y1088393D01*
X866477Y1088401D01*
X866477Y1118682D01*
X866464Y1118700D01*
X866458Y1118721D01*
X866449Y1118719D01*
X866441Y1118730D01*
X866432Y1118723D01*
X866428Y1118729D01*
X866426Y1118729D01*
X866394Y1118704D01*
X866382Y1118701D01*
X866175Y1118201D01*
X862799Y1114825D01*
X858387Y1112998D01*
X853613Y1112998D01*
X849201Y1114825D01*
X845825Y1118201D01*
X843998Y1122613D01*
X843998Y1127387D01*
X845825Y1131799D01*
X849201Y1135175D01*
X850381Y1135664D01*
X850404Y1135703D01*
X850409Y1135707D01*
X850411Y1135709D01*
X850411Y1176315D01*
X853685Y1179589D01*
X858315Y1179589D01*
X861589Y1176315D01*
X861589Y1135709D01*
X861617Y1135672D01*
X861619Y1135664D01*
X862799Y1135175D01*
X866175Y1131799D01*
X866382Y1131299D01*
X866401Y1131288D01*
X866414Y1131270D01*
X866421Y1131276D01*
X866433Y1131269D01*
X866450Y1131298D01*
X866477Y1131318D01*
X866477Y1263599D01*
X866460Y1263621D01*
X866462Y1263634D01*
X850411Y1279685D01*
X850411Y1284315D01*
X853685Y1287589D01*
X858315Y1287589D01*
X877654Y1268249D01*
X877654Y1083751D01*
X874366Y1080462D01*
X868017Y1074113D01*
X868013Y1074086D01*
X868002Y1074078D01*
X868002Y1058891D01*
X867109Y1057998D01*
X844891Y1057998D01*
G37*
%LPD*%
%LPC*%
G36*
X512613Y1063998D02*
X512613Y1063998D01*
X508201Y1065825D01*
X504825Y1069201D01*
X502998Y1073613D01*
X502998Y1078387D01*
X504825Y1082799D01*
X508201Y1086175D01*
X512613Y1088002D01*
X517387Y1088002D01*
X518567Y1087514D01*
X518612Y1087525D01*
X518621Y1087524D01*
X526397Y1095301D01*
X526399Y1095314D01*
X526409Y1095322D01*
X526404Y1095330D01*
X526411Y1095335D01*
X526411Y1126938D01*
X526398Y1126956D01*
X526392Y1126977D01*
X526384Y1126975D01*
X526375Y1126986D01*
X526349Y1126966D01*
X526317Y1126957D01*
X525175Y1124201D01*
X521799Y1120825D01*
X517387Y1118998D01*
X512613Y1118998D01*
X508201Y1120825D01*
X504825Y1124201D01*
X502998Y1128613D01*
X502998Y1133387D01*
X504825Y1137799D01*
X508201Y1141175D01*
X509381Y1141664D01*
X509404Y1141704D01*
X509411Y1141709D01*
X509411Y1180315D01*
X512685Y1183589D01*
X517315Y1183589D01*
X520589Y1180315D01*
X520589Y1141709D01*
X520617Y1141672D01*
X520619Y1141664D01*
X521799Y1141175D01*
X525175Y1137799D01*
X526317Y1135043D01*
X526335Y1135032D01*
X526349Y1135014D01*
X526356Y1135020D01*
X526368Y1135013D01*
X526385Y1135042D01*
X526411Y1135062D01*
X526411Y1269665D01*
X526395Y1269686D01*
X526397Y1269699D01*
X509411Y1286685D01*
X509411Y1291315D01*
X512685Y1294589D01*
X517315Y1294589D01*
X537589Y1274315D01*
X537589Y1090685D01*
X534301Y1087397D01*
X526524Y1079621D01*
X526520Y1079592D01*
X526516Y1079589D01*
X526519Y1079584D01*
X526518Y1079574D01*
X526514Y1079567D01*
X527002Y1078387D01*
X527002Y1073613D01*
X525175Y1069201D01*
X521799Y1065825D01*
X517387Y1063998D01*
X512613Y1063998D01*
G37*
%LPD*%
%LPC*%
G36*
X1027613Y806998D02*
X1027613Y806998D01*
X1023201Y808825D01*
X1019825Y812201D01*
X1017998Y816613D01*
X1017998Y821387D01*
X1019825Y825799D01*
X1023201Y829175D01*
X1027613Y831002D01*
X1032387Y831002D01*
X1033567Y830514D01*
X1033584Y830518D01*
X1033594Y830518D01*
X1033599Y830522D01*
X1033612Y830525D01*
X1033621Y830524D01*
X1040462Y837366D01*
X1040466Y837393D01*
X1040477Y837401D01*
X1040477Y867682D01*
X1040464Y867700D01*
X1040458Y867721D01*
X1040449Y867719D01*
X1040441Y867730D01*
X1040414Y867710D01*
X1040382Y867701D01*
X1040175Y867201D01*
X1036799Y863825D01*
X1032387Y861998D01*
X1027613Y861998D01*
X1023201Y863825D01*
X1019825Y867201D01*
X1017998Y871613D01*
X1017998Y876387D01*
X1019825Y880799D01*
X1023201Y884175D01*
X1024381Y884664D01*
X1024404Y884704D01*
X1024411Y884709D01*
X1024411Y912315D01*
X1027685Y915589D01*
X1032315Y915589D01*
X1035589Y912315D01*
X1035589Y884709D01*
X1035617Y884672D01*
X1035619Y884664D01*
X1036799Y884175D01*
X1040175Y880799D01*
X1040382Y880299D01*
X1040401Y880288D01*
X1040414Y880270D01*
X1040421Y880276D01*
X1040433Y880269D01*
X1040450Y880298D01*
X1040477Y880318D01*
X1040477Y1013599D01*
X1040460Y1013621D01*
X1040462Y1013634D01*
X1024411Y1029685D01*
X1024411Y1034315D01*
X1027685Y1037589D01*
X1032315Y1037589D01*
X1051654Y1018249D01*
X1051654Y832751D01*
X1048366Y829462D01*
X1041524Y822621D01*
X1041523Y822608D01*
X1041515Y822602D01*
X1041521Y822594D01*
X1041518Y822574D01*
X1041514Y822567D01*
X1042002Y821387D01*
X1042002Y816613D01*
X1040175Y812201D01*
X1036799Y808825D01*
X1032387Y806998D01*
X1027613Y806998D01*
G37*
%LPD*%
%LPC*%
G36*
X1063891Y1060998D02*
X1063891Y1060998D01*
X1062998Y1061891D01*
X1062998Y1084109D01*
X1063891Y1085002D01*
X1079078Y1085002D01*
X1079100Y1085019D01*
X1079113Y1085017D01*
X1100331Y1106235D01*
X1100333Y1106248D01*
X1100343Y1106255D01*
X1100337Y1106263D01*
X1100346Y1106270D01*
X1100346Y1251730D01*
X1100329Y1251752D01*
X1100331Y1251765D01*
X1069411Y1282685D01*
X1069411Y1287315D01*
X1072685Y1290589D01*
X1077315Y1290589D01*
X1111523Y1256380D01*
X1111523Y1101620D01*
X1087017Y1077113D01*
X1087013Y1077086D01*
X1087002Y1077078D01*
X1087002Y1061891D01*
X1086109Y1060998D01*
X1063891Y1060998D01*
G37*
%LPD*%
%LPC*%
G36*
X841891Y804998D02*
X841891Y804998D01*
X840998Y805891D01*
X840998Y828109D01*
X841891Y829002D01*
X857078Y829002D01*
X857100Y829019D01*
X857113Y829017D01*
X871462Y843366D01*
X871466Y843393D01*
X871477Y843401D01*
X871477Y1009599D01*
X871460Y1009621D01*
X871462Y1009634D01*
X848411Y1032685D01*
X848411Y1037315D01*
X851685Y1040589D01*
X856315Y1040589D01*
X882654Y1014249D01*
X882654Y838751D01*
X865017Y821113D01*
X865013Y821086D01*
X865002Y821078D01*
X865002Y805891D01*
X864109Y804998D01*
X841891Y804998D01*
G37*
%LPD*%
%LPC*%
G36*
X255891Y525998D02*
X255891Y525998D01*
X254998Y526891D01*
X254998Y549109D01*
X255891Y550002D01*
X271078Y550002D01*
X271100Y550019D01*
X271113Y550017D01*
X290397Y569301D01*
X290400Y569325D01*
X290409Y569332D01*
X290408Y569333D01*
X290411Y569335D01*
X290411Y718665D01*
X290395Y718686D01*
X290397Y718699D01*
X261411Y747685D01*
X261411Y752315D01*
X264685Y755589D01*
X269315Y755589D01*
X301589Y723315D01*
X301589Y564685D01*
X279017Y542113D01*
X279013Y542086D01*
X279002Y542078D01*
X279002Y526891D01*
X278109Y525998D01*
X255891Y525998D01*
G37*
%LPD*%
%LPC*%
G36*
X629891Y1063998D02*
X629891Y1063998D01*
X628998Y1064891D01*
X628998Y1087109D01*
X629891Y1088002D01*
X645078Y1088002D01*
X645100Y1088019D01*
X645113Y1088017D01*
X659397Y1102301D01*
X659398Y1102312D01*
X659403Y1102315D01*
X659399Y1102320D01*
X659401Y1102327D01*
X659411Y1102335D01*
X659411Y1261665D01*
X659395Y1261686D01*
X659397Y1261699D01*
X635411Y1285685D01*
X635411Y1290315D01*
X638685Y1293589D01*
X643315Y1293589D01*
X670589Y1266315D01*
X670589Y1097685D01*
X653017Y1080113D01*
X653013Y1080088D01*
X653004Y1080081D01*
X653005Y1080080D01*
X653002Y1080078D01*
X653002Y1064891D01*
X652109Y1063998D01*
X629891Y1063998D01*
G37*
%LPD*%
%LPC*%
G36*
X407891Y1061998D02*
X407891Y1061998D01*
X406998Y1062891D01*
X406998Y1085109D01*
X407891Y1086002D01*
X423078Y1086002D01*
X423100Y1086019D01*
X423113Y1086017D01*
X437397Y1100301D01*
X437401Y1100327D01*
X437411Y1100335D01*
X437411Y1259665D01*
X437395Y1259686D01*
X437397Y1259699D01*
X413411Y1283685D01*
X413411Y1288315D01*
X416685Y1291589D01*
X421315Y1291589D01*
X448589Y1264315D01*
X448589Y1095685D01*
X431017Y1078113D01*
X431013Y1078086D01*
X431002Y1078078D01*
X431002Y1062891D01*
X430109Y1061998D01*
X407891Y1061998D01*
G37*
%LPD*%
%LPC*%
G36*
X186891Y1061998D02*
X186891Y1061998D01*
X185998Y1062891D01*
X185998Y1085109D01*
X186891Y1086002D01*
X202078Y1086002D01*
X202100Y1086019D01*
X202113Y1086017D01*
X214397Y1098301D01*
X214399Y1098319D01*
X214409Y1098326D01*
X214406Y1098331D01*
X214411Y1098335D01*
X214411Y1261665D01*
X214395Y1261686D01*
X214397Y1261699D01*
X192411Y1283685D01*
X192411Y1288315D01*
X195685Y1291589D01*
X200315Y1291589D01*
X225589Y1266315D01*
X225589Y1093685D01*
X210017Y1078113D01*
X210013Y1078086D01*
X210002Y1078078D01*
X210002Y1062891D01*
X209109Y1061998D01*
X186891Y1061998D01*
G37*
%LPD*%
%LPC*%
G36*
X398891Y804998D02*
X398891Y804998D01*
X397998Y805891D01*
X397998Y828109D01*
X398891Y829002D01*
X414078Y829002D01*
X414100Y829019D01*
X414113Y829017D01*
X426397Y841301D01*
X426401Y841327D01*
X426411Y841335D01*
X426411Y1004665D01*
X426395Y1004686D01*
X426397Y1004699D01*
X404411Y1026685D01*
X404411Y1031315D01*
X407685Y1034589D01*
X412315Y1034589D01*
X437589Y1009315D01*
X437589Y836685D01*
X422017Y821113D01*
X422013Y821086D01*
X422002Y821078D01*
X422002Y805891D01*
X421109Y804998D01*
X398891Y804998D01*
G37*
%LPD*%
%LPC*%
G36*
X1060891Y806998D02*
X1060891Y806998D01*
X1059998Y807891D01*
X1059998Y830109D01*
X1060891Y831002D01*
X1076078Y831002D01*
X1076100Y831019D01*
X1076113Y831017D01*
X1087397Y842301D01*
X1087399Y842317D01*
X1087409Y842325D01*
X1087405Y842331D01*
X1087411Y842335D01*
X1087411Y1009665D01*
X1087395Y1009686D01*
X1087397Y1009699D01*
X1068411Y1028685D01*
X1068411Y1033315D01*
X1071685Y1036589D01*
X1076315Y1036589D01*
X1098589Y1014315D01*
X1098589Y837685D01*
X1084017Y823113D01*
X1084015Y823100D01*
X1084007Y823095D01*
X1084013Y823087D01*
X1084013Y823086D01*
X1084002Y823078D01*
X1084002Y807891D01*
X1083109Y806998D01*
X1060891Y806998D01*
G37*
%LPD*%
%LPC*%
G36*
X476891Y526998D02*
X476891Y526998D01*
X475998Y527891D01*
X475998Y550109D01*
X476891Y551002D01*
X492078Y551002D01*
X492100Y551019D01*
X492113Y551017D01*
X502397Y561301D01*
X502401Y561327D01*
X502411Y561335D01*
X502411Y728665D01*
X502395Y728686D01*
X502397Y728699D01*
X482411Y748685D01*
X482411Y753315D01*
X485685Y756589D01*
X490315Y756589D01*
X513589Y733315D01*
X513589Y556685D01*
X500017Y543113D01*
X500013Y543086D01*
X500002Y543078D01*
X500002Y527891D01*
X499109Y526998D01*
X476891Y526998D01*
G37*
%LPD*%
%LPC*%
G36*
X185891Y801998D02*
X185891Y801998D01*
X184998Y802891D01*
X184998Y825109D01*
X185891Y826002D01*
X201078Y826002D01*
X201100Y826019D01*
X201113Y826017D01*
X209397Y834301D01*
X209401Y834327D01*
X209411Y834335D01*
X209411Y1005665D01*
X209395Y1005686D01*
X209397Y1005700D01*
X191411Y1023685D01*
X191411Y1028315D01*
X194685Y1031589D01*
X199315Y1031589D01*
X217300Y1013603D01*
X217301Y1013603D01*
X220589Y1010315D01*
X220589Y829685D01*
X209017Y818113D01*
X209013Y818086D01*
X209002Y818078D01*
X209002Y802891D01*
X208109Y801998D01*
X185891Y801998D01*
G37*
%LPD*%
%LPC*%
G36*
X808613Y804998D02*
X808613Y804998D01*
X804201Y806825D01*
X800825Y810201D01*
X798998Y814613D01*
X798998Y819387D01*
X800825Y823799D01*
X804201Y827175D01*
X808613Y829002D01*
X813387Y829002D01*
X813860Y828807D01*
X813905Y828818D01*
X813914Y828817D01*
X826397Y841301D01*
X826401Y841327D01*
X826411Y841335D01*
X826411Y1012665D01*
X826395Y1012686D01*
X826397Y1012699D01*
X806411Y1032685D01*
X806411Y1037315D01*
X809685Y1040589D01*
X814315Y1040589D01*
X837589Y1017315D01*
X837589Y836685D01*
X822231Y821328D01*
X822225Y821281D01*
X822221Y821274D01*
X823002Y819387D01*
X823002Y814613D01*
X821175Y810201D01*
X817799Y806825D01*
X813387Y804998D01*
X808613Y804998D01*
G37*
%LPD*%
%LPC*%
G36*
X766613Y804998D02*
X766613Y804998D01*
X762201Y806825D01*
X758825Y810201D01*
X756998Y814613D01*
X756998Y819387D01*
X758825Y823799D01*
X762201Y827175D01*
X766613Y829002D01*
X771387Y829002D01*
X772567Y828514D01*
X772612Y828525D01*
X772621Y828524D01*
X782397Y838301D01*
X782401Y838327D01*
X782411Y838335D01*
X782411Y1013665D01*
X782395Y1013686D01*
X782397Y1013699D01*
X764411Y1031685D01*
X764411Y1036315D01*
X767685Y1039589D01*
X772315Y1039589D01*
X793589Y1018315D01*
X793589Y833685D01*
X780524Y820621D01*
X780519Y820583D01*
X780519Y820582D01*
X780518Y820574D01*
X780514Y820567D01*
X781002Y819387D01*
X781002Y814613D01*
X779175Y810201D01*
X775799Y806825D01*
X771387Y804998D01*
X766613Y804998D01*
G37*
%LPD*%
%LPC*%
G36*
X1030613Y1060998D02*
X1030613Y1060998D01*
X1026201Y1062825D01*
X1022825Y1066201D01*
X1020998Y1070613D01*
X1020998Y1075387D01*
X1022825Y1079799D01*
X1026201Y1083175D01*
X1030613Y1085002D01*
X1035387Y1085002D01*
X1036567Y1084514D01*
X1036612Y1084525D01*
X1036621Y1084524D01*
X1051397Y1099301D01*
X1051398Y1099311D01*
X1051399Y1099311D01*
X1051398Y1099312D01*
X1051401Y1099327D01*
X1051411Y1099335D01*
X1051411Y1258665D01*
X1051395Y1258686D01*
X1051397Y1258699D01*
X1027411Y1282685D01*
X1027411Y1287315D01*
X1030685Y1290589D01*
X1035315Y1290589D01*
X1062589Y1263315D01*
X1062589Y1094685D01*
X1059301Y1091397D01*
X1044524Y1076621D01*
X1044519Y1076586D01*
X1044518Y1076584D01*
X1044519Y1076583D01*
X1044518Y1076574D01*
X1044514Y1076567D01*
X1045002Y1075387D01*
X1045002Y1070613D01*
X1043175Y1066201D01*
X1039799Y1062825D01*
X1035387Y1060998D01*
X1030613Y1060998D01*
G37*
%LPD*%
%LPC*%
G36*
X68613Y801998D02*
X68613Y801998D01*
X64201Y803825D01*
X60825Y807201D01*
X58998Y811613D01*
X58998Y816387D01*
X60825Y820799D01*
X64201Y824175D01*
X68613Y826002D01*
X73387Y826002D01*
X74567Y825514D01*
X74612Y825525D01*
X74621Y825524D01*
X87462Y838366D01*
X87464Y838379D01*
X87472Y838385D01*
X87466Y838393D01*
X87477Y838401D01*
X87477Y1002599D01*
X87460Y1002621D01*
X87462Y1002634D01*
X65411Y1024685D01*
X65411Y1029315D01*
X68685Y1032589D01*
X73315Y1032589D01*
X98654Y1007249D01*
X98654Y833751D01*
X82524Y817621D01*
X82518Y817574D01*
X82514Y817567D01*
X83002Y816387D01*
X83002Y811613D01*
X81175Y807201D01*
X77799Y803825D01*
X73387Y801998D01*
X68613Y801998D01*
G37*
%LPD*%
%LPC*%
G36*
X727613Y1057998D02*
X727613Y1057998D01*
X723201Y1059825D01*
X719825Y1063201D01*
X717998Y1067613D01*
X717998Y1072387D01*
X719825Y1076799D01*
X723201Y1080175D01*
X727613Y1082002D01*
X732387Y1082002D01*
X733567Y1081514D01*
X733612Y1081525D01*
X733621Y1081524D01*
X746397Y1094301D01*
X746401Y1094327D01*
X746411Y1094335D01*
X746411Y1258665D01*
X746395Y1258686D01*
X746397Y1258699D01*
X724411Y1280685D01*
X724411Y1285315D01*
X727685Y1288589D01*
X732315Y1288589D01*
X757589Y1263315D01*
X757589Y1089685D01*
X741524Y1073621D01*
X741518Y1073574D01*
X741514Y1073567D01*
X742002Y1072387D01*
X742002Y1067613D01*
X740175Y1063201D01*
X736799Y1059825D01*
X732387Y1057998D01*
X727613Y1057998D01*
G37*
%LPD*%
%LPC*%
G36*
X281613Y804998D02*
X281613Y804998D01*
X277201Y806825D01*
X273825Y810201D01*
X271998Y814613D01*
X271998Y819387D01*
X273825Y823799D01*
X277201Y827175D01*
X281613Y829002D01*
X286387Y829002D01*
X287567Y828514D01*
X287612Y828525D01*
X287621Y828524D01*
X300397Y841301D01*
X300401Y841327D01*
X300411Y841335D01*
X300411Y1005665D01*
X300395Y1005686D01*
X300397Y1005699D01*
X278411Y1027685D01*
X278411Y1032315D01*
X281685Y1035589D01*
X286315Y1035589D01*
X311589Y1010315D01*
X311589Y836685D01*
X295524Y820621D01*
X295519Y820583D01*
X295518Y820583D01*
X295519Y820582D01*
X295518Y820574D01*
X295514Y820567D01*
X296002Y819387D01*
X296002Y814613D01*
X294175Y810201D01*
X290799Y806825D01*
X286387Y804998D01*
X281613Y804998D01*
G37*
%LPD*%
%LPC*%
G36*
X69613Y1061998D02*
X69613Y1061998D01*
X65201Y1063825D01*
X61825Y1067201D01*
X59998Y1071613D01*
X59998Y1076387D01*
X61825Y1080799D01*
X65201Y1084175D01*
X69613Y1086002D01*
X74387Y1086002D01*
X75369Y1085596D01*
X75414Y1085607D01*
X75423Y1085606D01*
X88462Y1098646D01*
X88465Y1098663D01*
X88475Y1098671D01*
X88471Y1098676D01*
X88477Y1098681D01*
X88477Y1262599D01*
X88460Y1262621D01*
X88462Y1262634D01*
X66411Y1284685D01*
X66411Y1289315D01*
X69685Y1292589D01*
X74315Y1292589D01*
X99654Y1267249D01*
X99654Y1094030D01*
X83442Y1077819D01*
X83436Y1077772D01*
X83432Y1077765D01*
X84002Y1076387D01*
X84002Y1071613D01*
X82175Y1067201D01*
X78799Y1063825D01*
X74387Y1061998D01*
X69613Y1061998D01*
G37*
%LPD*%
%LPC*%
G36*
X724613Y804998D02*
X724613Y804998D01*
X720201Y806825D01*
X716825Y810201D01*
X714998Y814613D01*
X714998Y819387D01*
X716825Y823799D01*
X720201Y827175D01*
X724613Y829002D01*
X729387Y829002D01*
X730567Y828514D01*
X730612Y828525D01*
X730621Y828524D01*
X739397Y837301D01*
X739401Y837327D01*
X739411Y837335D01*
X739411Y1015665D01*
X739395Y1015686D01*
X739397Y1015699D01*
X723411Y1031685D01*
X723411Y1036315D01*
X726685Y1039589D01*
X731315Y1039589D01*
X750589Y1020315D01*
X750589Y832685D01*
X738524Y820621D01*
X738519Y820583D01*
X738519Y820582D01*
X738518Y820574D01*
X738514Y820567D01*
X739002Y819387D01*
X739002Y814613D01*
X737175Y810201D01*
X733799Y806825D01*
X729387Y804998D01*
X724613Y804998D01*
G37*
%LPD*%
%LPC*%
G36*
X180613Y525998D02*
X180613Y525998D01*
X176201Y527825D01*
X172825Y531201D01*
X170998Y535613D01*
X170998Y540387D01*
X172825Y544799D01*
X176201Y548175D01*
X180613Y550002D01*
X185387Y550002D01*
X186567Y549514D01*
X186612Y549525D01*
X186621Y549524D01*
X200397Y563301D01*
X200399Y563315D01*
X200409Y563323D01*
X200404Y563330D01*
X200411Y563335D01*
X200411Y724665D01*
X200395Y724686D01*
X200397Y724699D01*
X177411Y747685D01*
X177411Y752315D01*
X180685Y755589D01*
X185315Y755589D01*
X211589Y729315D01*
X211589Y558685D01*
X194524Y541621D01*
X194518Y541574D01*
X194514Y541567D01*
X195002Y540387D01*
X195002Y535613D01*
X193175Y531201D01*
X189799Y527825D01*
X185387Y525998D01*
X180613Y525998D01*
G37*
%LPD*%
%LPC*%
G36*
X811613Y1057998D02*
X811613Y1057998D01*
X807201Y1059825D01*
X803825Y1063201D01*
X801998Y1067613D01*
X801998Y1072387D01*
X803825Y1076799D01*
X807201Y1080175D01*
X811613Y1082002D01*
X816387Y1082002D01*
X817567Y1081514D01*
X817612Y1081525D01*
X817621Y1081524D01*
X831397Y1095300D01*
X831399Y1095314D01*
X831409Y1095322D01*
X831404Y1095330D01*
X831411Y1095335D01*
X831411Y1256665D01*
X831395Y1256686D01*
X831397Y1256700D01*
X808411Y1279685D01*
X808411Y1284315D01*
X811685Y1287589D01*
X816315Y1287589D01*
X839300Y1264603D01*
X839301Y1264603D01*
X842589Y1261315D01*
X842589Y1090685D01*
X839301Y1087397D01*
X839300Y1087397D01*
X825524Y1073621D01*
X825518Y1073574D01*
X825514Y1073567D01*
X826002Y1072387D01*
X826002Y1067613D01*
X824175Y1063201D01*
X820799Y1059825D01*
X816387Y1057998D01*
X811613Y1057998D01*
G37*
%LPD*%
%LPC*%
G36*
X359613Y526998D02*
X359613Y526998D01*
X355201Y528825D01*
X351825Y532201D01*
X349998Y536613D01*
X349998Y541387D01*
X351825Y545799D01*
X355201Y549175D01*
X359613Y551002D01*
X364387Y551002D01*
X365567Y550514D01*
X365612Y550525D01*
X365621Y550524D01*
X377397Y562301D01*
X377401Y562327D01*
X377411Y562335D01*
X377411Y728665D01*
X377395Y728686D01*
X377397Y728699D01*
X356411Y749685D01*
X356411Y754315D01*
X359685Y757589D01*
X364315Y757589D01*
X388589Y733315D01*
X388589Y557685D01*
X373524Y542621D01*
X373518Y542574D01*
X373514Y542567D01*
X374002Y541387D01*
X374002Y536613D01*
X372175Y532201D01*
X368799Y528825D01*
X364387Y526998D01*
X359613Y526998D01*
G37*
%LPD*%
%LPC*%
G36*
X374613Y1061998D02*
X374613Y1061998D01*
X370201Y1063825D01*
X366825Y1067201D01*
X364998Y1071613D01*
X364998Y1076387D01*
X366825Y1080799D01*
X370201Y1084175D01*
X374613Y1086002D01*
X379387Y1086002D01*
X380567Y1085514D01*
X380612Y1085525D01*
X380621Y1085524D01*
X393462Y1098366D01*
X393466Y1098393D01*
X393477Y1098401D01*
X393477Y1261599D01*
X393460Y1261621D01*
X393462Y1261634D01*
X371411Y1283685D01*
X371411Y1288315D01*
X374685Y1291589D01*
X379315Y1291589D01*
X404654Y1266249D01*
X404654Y1093751D01*
X388524Y1077621D01*
X388518Y1077574D01*
X388514Y1077567D01*
X389002Y1076387D01*
X389002Y1071613D01*
X387175Y1067201D01*
X383799Y1063825D01*
X379387Y1061998D01*
X374613Y1061998D01*
G37*
%LPD*%
%LPC*%
G36*
X443613Y526998D02*
X443613Y526998D01*
X439201Y528825D01*
X435825Y532201D01*
X433998Y536613D01*
X433998Y541387D01*
X435825Y545799D01*
X439201Y549175D01*
X443613Y551002D01*
X448387Y551002D01*
X449567Y550514D01*
X449612Y550525D01*
X449621Y550524D01*
X462462Y563366D01*
X462466Y563393D01*
X462477Y563401D01*
X462477Y726599D01*
X462460Y726621D01*
X462462Y726634D01*
X440411Y748685D01*
X440411Y753315D01*
X443685Y756589D01*
X448315Y756589D01*
X473654Y731249D01*
X473654Y558751D01*
X457524Y542621D01*
X457518Y542574D01*
X457514Y542567D01*
X458002Y541387D01*
X458002Y536613D01*
X456175Y532201D01*
X452799Y528825D01*
X448387Y526998D01*
X443613Y526998D01*
G37*
%LPD*%
%LPC*%
G36*
X401613Y526998D02*
X401613Y526998D01*
X397201Y528825D01*
X393825Y532201D01*
X391998Y536613D01*
X391998Y541387D01*
X393825Y545799D01*
X397201Y549175D01*
X401613Y551002D01*
X406387Y551002D01*
X407567Y550514D01*
X407612Y550525D01*
X407621Y550524D01*
X420397Y563301D01*
X420399Y563315D01*
X420409Y563323D01*
X420404Y563330D01*
X420411Y563335D01*
X420411Y726665D01*
X420395Y726686D01*
X420397Y726699D01*
X398411Y748685D01*
X398411Y753315D01*
X401685Y756589D01*
X406315Y756589D01*
X431589Y731315D01*
X431589Y558685D01*
X415524Y542621D01*
X415518Y542574D01*
X415514Y542567D01*
X416002Y541387D01*
X416002Y536613D01*
X414175Y532201D01*
X410799Y528825D01*
X406387Y526998D01*
X401613Y526998D01*
G37*
%LPD*%
%LPC*%
G36*
X596613Y1063998D02*
X596613Y1063998D01*
X592201Y1065825D01*
X588825Y1069201D01*
X586998Y1073613D01*
X586998Y1078387D01*
X588825Y1082799D01*
X592201Y1086175D01*
X596613Y1088002D01*
X601387Y1088002D01*
X602567Y1087514D01*
X602612Y1087525D01*
X602621Y1087524D01*
X615397Y1100301D01*
X615401Y1100327D01*
X615411Y1100335D01*
X615411Y1263665D01*
X615395Y1263686D01*
X615397Y1263699D01*
X593411Y1285685D01*
X593411Y1290315D01*
X596685Y1293589D01*
X601315Y1293589D01*
X626589Y1268315D01*
X626589Y1095685D01*
X623301Y1092397D01*
X610524Y1079621D01*
X610520Y1079592D01*
X610516Y1079589D01*
X610519Y1079584D01*
X610518Y1079574D01*
X610514Y1079567D01*
X611002Y1078387D01*
X611002Y1073613D01*
X609175Y1069201D01*
X605799Y1065825D01*
X601387Y1063998D01*
X596613Y1063998D01*
G37*
%LPD*%
%LPC*%
G36*
X110613Y801998D02*
X110613Y801998D01*
X106201Y803825D01*
X102825Y807201D01*
X100998Y811613D01*
X100998Y816387D01*
X102825Y820799D01*
X106201Y824175D01*
X110613Y826002D01*
X115387Y826002D01*
X116567Y825514D01*
X116612Y825525D01*
X116621Y825524D01*
X129397Y838301D01*
X129401Y838327D01*
X129411Y838335D01*
X129411Y1001665D01*
X129395Y1001686D01*
X129397Y1001699D01*
X107411Y1023685D01*
X107411Y1028315D01*
X110685Y1031589D01*
X115315Y1031589D01*
X140589Y1006315D01*
X140589Y833685D01*
X124524Y817621D01*
X124518Y817574D01*
X124514Y817567D01*
X125002Y816387D01*
X125002Y811613D01*
X123175Y807201D01*
X119799Y803825D01*
X115387Y801998D01*
X110613Y801998D01*
G37*
%LPD*%
%LPC*%
G36*
X943613Y806998D02*
X943613Y806998D01*
X939201Y808825D01*
X935825Y812201D01*
X933998Y816613D01*
X933998Y821387D01*
X935825Y825799D01*
X939201Y829175D01*
X943613Y831002D01*
X948387Y831002D01*
X949567Y830514D01*
X949584Y830518D01*
X949594Y830518D01*
X949599Y830522D01*
X949612Y830525D01*
X949621Y830524D01*
X962462Y843366D01*
X962466Y843393D01*
X962477Y843401D01*
X962477Y1007599D01*
X962460Y1007621D01*
X962462Y1007634D01*
X941411Y1028685D01*
X941411Y1033315D01*
X944685Y1036589D01*
X949315Y1036589D01*
X973654Y1012249D01*
X973654Y838751D01*
X957524Y822621D01*
X957523Y822608D01*
X957515Y822602D01*
X957521Y822594D01*
X957518Y822574D01*
X957514Y822567D01*
X958002Y821387D01*
X958002Y816613D01*
X956175Y812201D01*
X952799Y808825D01*
X948387Y806998D01*
X943613Y806998D01*
G37*
%LPD*%
%LPC*%
G36*
X985613Y806998D02*
X985613Y806998D01*
X981201Y808825D01*
X977825Y812201D01*
X975998Y816613D01*
X975998Y821387D01*
X977825Y825799D01*
X981201Y829175D01*
X985613Y831002D01*
X990387Y831002D01*
X991567Y830514D01*
X991584Y830518D01*
X991594Y830518D01*
X991599Y830522D01*
X991612Y830525D01*
X991621Y830524D01*
X1002462Y841366D01*
X1002464Y841381D01*
X1002475Y841389D01*
X1002470Y841396D01*
X1002477Y841401D01*
X1002477Y1009599D01*
X1002460Y1009621D01*
X1002462Y1009634D01*
X982411Y1029685D01*
X982411Y1034315D01*
X985685Y1037589D01*
X990315Y1037589D01*
X1013654Y1014249D01*
X1013654Y836751D01*
X1010366Y833462D01*
X999524Y822621D01*
X999523Y822608D01*
X999515Y822602D01*
X999521Y822594D01*
X999518Y822574D01*
X999514Y822567D01*
X1000002Y821387D01*
X1000002Y816613D01*
X998175Y812201D01*
X994799Y808825D01*
X990387Y806998D01*
X985613Y806998D01*
G37*
%LPD*%
%LPC*%
G36*
X138613Y525998D02*
X138613Y525998D01*
X134201Y527825D01*
X130825Y531201D01*
X128998Y535613D01*
X128998Y540387D01*
X130825Y544799D01*
X134201Y548175D01*
X138613Y550002D01*
X143387Y550002D01*
X144567Y549514D01*
X144612Y549525D01*
X144621Y549524D01*
X155397Y560301D01*
X155399Y560313D01*
X155407Y560319D01*
X155401Y560327D01*
X155411Y560335D01*
X155411Y728665D01*
X155395Y728686D01*
X155397Y728699D01*
X135411Y748685D01*
X135411Y753315D01*
X138685Y756589D01*
X143315Y756589D01*
X166589Y733315D01*
X166589Y555685D01*
X152524Y541621D01*
X152518Y541574D01*
X152514Y541567D01*
X153002Y540387D01*
X153002Y535613D01*
X151175Y531201D01*
X147799Y527825D01*
X143387Y525998D01*
X138613Y525998D01*
G37*
%LPD*%
%LPC*%
G36*
X152613Y801998D02*
X152613Y801998D01*
X148201Y803825D01*
X144825Y807201D01*
X142998Y811613D01*
X142998Y816387D01*
X144825Y820799D01*
X148201Y824175D01*
X152613Y826002D01*
X157387Y826002D01*
X158567Y825514D01*
X158612Y825525D01*
X158621Y825524D01*
X170462Y837366D01*
X170466Y837393D01*
X170477Y837401D01*
X170477Y1002599D01*
X170460Y1002621D01*
X170462Y1002634D01*
X149411Y1023685D01*
X149411Y1028315D01*
X152685Y1031589D01*
X157315Y1031589D01*
X181654Y1007249D01*
X181654Y832751D01*
X166524Y817621D01*
X166518Y817574D01*
X166514Y817567D01*
X167002Y816387D01*
X167002Y811613D01*
X165175Y807201D01*
X161799Y803825D01*
X157387Y801998D01*
X152613Y801998D01*
G37*
%LPD*%
%LPC*%
G36*
X153613Y1061998D02*
X153613Y1061998D01*
X149201Y1063825D01*
X145825Y1067201D01*
X143998Y1071613D01*
X143998Y1076387D01*
X145825Y1080799D01*
X149201Y1084175D01*
X153613Y1086002D01*
X158387Y1086002D01*
X159567Y1085514D01*
X159612Y1085525D01*
X159621Y1085524D01*
X171462Y1097366D01*
X171465Y1097383D01*
X171475Y1097390D01*
X171471Y1097396D01*
X171477Y1097401D01*
X171477Y1262599D01*
X171460Y1262621D01*
X171462Y1262634D01*
X150411Y1283685D01*
X150411Y1288315D01*
X153685Y1291589D01*
X158315Y1291589D01*
X182654Y1267249D01*
X182654Y1092751D01*
X167524Y1077621D01*
X167518Y1077574D01*
X167514Y1077567D01*
X168002Y1076387D01*
X168002Y1071613D01*
X166175Y1067201D01*
X162799Y1063825D01*
X158387Y1061998D01*
X153613Y1061998D01*
G37*
%LPD*%
%LPC*%
G36*
X222613Y525998D02*
X222613Y525998D01*
X218201Y527825D01*
X214825Y531201D01*
X212998Y535613D01*
X212998Y540387D01*
X214825Y544799D01*
X218201Y548175D01*
X222613Y550002D01*
X227387Y550002D01*
X228567Y549514D01*
X228612Y549525D01*
X228621Y549524D01*
X240397Y561301D01*
X240401Y561327D01*
X240411Y561335D01*
X240411Y726665D01*
X240395Y726686D01*
X240397Y726699D01*
X219411Y747685D01*
X219411Y752315D01*
X222685Y755589D01*
X227315Y755589D01*
X251589Y731315D01*
X251589Y556685D01*
X236524Y541621D01*
X236518Y541574D01*
X236514Y541567D01*
X237002Y540387D01*
X237002Y535613D01*
X235175Y531201D01*
X231799Y527825D01*
X227387Y525998D01*
X222613Y525998D01*
G37*
%LPD*%
%LPC*%
G36*
X554613Y1063998D02*
X554613Y1063998D01*
X550201Y1065825D01*
X546825Y1069201D01*
X544998Y1073613D01*
X544998Y1078387D01*
X546825Y1082799D01*
X550201Y1086175D01*
X554613Y1088002D01*
X559387Y1088002D01*
X560567Y1087514D01*
X560612Y1087525D01*
X560621Y1087524D01*
X572397Y1099301D01*
X572398Y1099311D01*
X572399Y1099311D01*
X572398Y1099312D01*
X572401Y1099327D01*
X572411Y1099335D01*
X572411Y1264665D01*
X572395Y1264686D01*
X572397Y1264699D01*
X551411Y1285685D01*
X551411Y1290315D01*
X554685Y1293589D01*
X559315Y1293589D01*
X583589Y1269315D01*
X583589Y1094685D01*
X568524Y1079621D01*
X568520Y1079592D01*
X568516Y1079589D01*
X568519Y1079584D01*
X568518Y1079574D01*
X568514Y1079567D01*
X569002Y1078387D01*
X569002Y1073613D01*
X567175Y1069201D01*
X563799Y1065825D01*
X559387Y1063998D01*
X554613Y1063998D01*
G37*
%LPD*%
%LPC*%
G36*
X290613Y1061998D02*
X290613Y1061998D01*
X286201Y1063825D01*
X282825Y1067201D01*
X280998Y1071613D01*
X280998Y1076387D01*
X282825Y1080799D01*
X286201Y1084175D01*
X290613Y1086002D01*
X295387Y1086002D01*
X296567Y1085514D01*
X296612Y1085525D01*
X296621Y1085524D01*
X306462Y1095366D01*
X306466Y1095393D01*
X306477Y1095401D01*
X306477Y1265599D01*
X306460Y1265621D01*
X306462Y1265634D01*
X287411Y1284685D01*
X287411Y1289315D01*
X290685Y1292589D01*
X295315Y1292589D01*
X317654Y1270249D01*
X317654Y1090751D01*
X304524Y1077621D01*
X304518Y1077574D01*
X304514Y1077567D01*
X305002Y1076387D01*
X305002Y1071613D01*
X303175Y1067201D01*
X299799Y1063825D01*
X295387Y1061998D01*
X290613Y1061998D01*
G37*
%LPD*%
%LPC*%
G36*
X511613Y804998D02*
X511613Y804998D01*
X507201Y806825D01*
X503825Y810201D01*
X501998Y814613D01*
X501998Y819387D01*
X503825Y823799D01*
X507201Y827175D01*
X511613Y829002D01*
X516387Y829002D01*
X517567Y828514D01*
X517612Y828525D01*
X517621Y828524D01*
X527397Y838301D01*
X527401Y838327D01*
X527411Y838335D01*
X527411Y1008665D01*
X527395Y1008686D01*
X527397Y1008699D01*
X508411Y1027685D01*
X508411Y1032315D01*
X511685Y1035589D01*
X516315Y1035589D01*
X538589Y1013315D01*
X538589Y833685D01*
X525524Y820621D01*
X525519Y820583D01*
X525518Y820583D01*
X525519Y820582D01*
X525518Y820574D01*
X525514Y820567D01*
X526002Y819387D01*
X526002Y814613D01*
X524175Y810201D01*
X520799Y806825D01*
X516387Y804998D01*
X511613Y804998D01*
G37*
%LPD*%
%LPC*%
G36*
X769613Y1057998D02*
X769613Y1057998D01*
X765201Y1059825D01*
X761825Y1063201D01*
X759998Y1067613D01*
X759998Y1072387D01*
X761825Y1076799D01*
X765201Y1080175D01*
X769613Y1082002D01*
X774387Y1082002D01*
X775567Y1081514D01*
X775612Y1081525D01*
X775621Y1081524D01*
X786462Y1092366D01*
X786466Y1092393D01*
X786477Y1092401D01*
X786477Y1259599D01*
X786460Y1259621D01*
X786462Y1259634D01*
X766411Y1279685D01*
X766411Y1284315D01*
X769685Y1287589D01*
X774315Y1287589D01*
X797654Y1264249D01*
X797654Y1087751D01*
X783524Y1073621D01*
X783518Y1073574D01*
X783514Y1073567D01*
X784002Y1072387D01*
X784002Y1067613D01*
X782175Y1063201D01*
X778799Y1059825D01*
X774387Y1057998D01*
X769613Y1057998D01*
G37*
%LPD*%
%LPC*%
G36*
X553613Y804998D02*
X553613Y804998D01*
X549201Y806825D01*
X545825Y810201D01*
X543998Y814613D01*
X543998Y819387D01*
X545825Y823799D01*
X549201Y827175D01*
X553613Y829002D01*
X558387Y829002D01*
X559567Y828514D01*
X559612Y828525D01*
X559621Y828524D01*
X570462Y839366D01*
X570466Y839393D01*
X570477Y839401D01*
X570477Y1006599D01*
X570460Y1006621D01*
X570462Y1006634D01*
X550411Y1026685D01*
X550411Y1031315D01*
X553685Y1034589D01*
X558315Y1034589D01*
X581654Y1011249D01*
X581654Y834751D01*
X567524Y820621D01*
X567519Y820583D01*
X567518Y820583D01*
X567519Y820582D01*
X567518Y820574D01*
X567514Y820567D01*
X568002Y819387D01*
X568002Y814613D01*
X566175Y810201D01*
X562799Y806825D01*
X558387Y804998D01*
X553613Y804998D01*
G37*
%LPD*%
%LPC*%
G36*
X332613Y1061998D02*
X332613Y1061998D01*
X328201Y1063825D01*
X324825Y1067201D01*
X322998Y1071613D01*
X322998Y1076387D01*
X324825Y1080799D01*
X328201Y1084175D01*
X332613Y1086002D01*
X337387Y1086002D01*
X338567Y1085514D01*
X338612Y1085525D01*
X338621Y1085524D01*
X349462Y1096366D01*
X349466Y1096393D01*
X349477Y1096401D01*
X349477Y1263599D01*
X349460Y1263621D01*
X349462Y1263634D01*
X330911Y1282185D01*
X330911Y1282563D01*
X330895Y1282585D01*
X330897Y1282598D01*
X329693Y1283802D01*
X329693Y1288198D01*
X332802Y1291307D01*
X337198Y1291307D01*
X338402Y1290103D01*
X338428Y1290099D01*
X338437Y1290089D01*
X338815Y1290089D01*
X360654Y1268249D01*
X360654Y1091751D01*
X346524Y1077621D01*
X346518Y1077574D01*
X346514Y1077567D01*
X347002Y1076387D01*
X347002Y1071613D01*
X345175Y1067201D01*
X341799Y1063825D01*
X337387Y1061998D01*
X332613Y1061998D01*
G37*
%LPD*%
%LPC*%
G36*
X946613Y1060998D02*
X946613Y1060998D01*
X942201Y1062825D01*
X938825Y1066201D01*
X936998Y1070613D01*
X936998Y1075387D01*
X938825Y1079799D01*
X942201Y1083175D01*
X946613Y1085002D01*
X951387Y1085002D01*
X952567Y1084514D01*
X952612Y1084525D01*
X952621Y1084524D01*
X961397Y1093301D01*
X961401Y1093327D01*
X961411Y1093335D01*
X961411Y1265665D01*
X961395Y1265686D01*
X961397Y1265699D01*
X943411Y1283685D01*
X943411Y1288315D01*
X946685Y1291589D01*
X951315Y1291589D01*
X972589Y1270315D01*
X972589Y1088685D01*
X960524Y1076621D01*
X960519Y1076586D01*
X960518Y1076584D01*
X960519Y1076583D01*
X960518Y1076574D01*
X960514Y1076567D01*
X961002Y1075387D01*
X961002Y1070613D01*
X959175Y1066201D01*
X955799Y1062825D01*
X951387Y1060998D01*
X946613Y1060998D01*
G37*
%LPD*%
%LPC*%
G36*
X988613Y1060998D02*
X988613Y1060998D01*
X984201Y1062825D01*
X980825Y1066201D01*
X978998Y1070613D01*
X978998Y1075387D01*
X980825Y1079799D01*
X984201Y1083175D01*
X988613Y1085002D01*
X993387Y1085002D01*
X994567Y1084514D01*
X994612Y1084525D01*
X994621Y1084524D01*
X1004397Y1094301D01*
X1004401Y1094327D01*
X1004411Y1094335D01*
X1004411Y1263665D01*
X1004395Y1263686D01*
X1004397Y1263699D01*
X985411Y1282685D01*
X985411Y1287315D01*
X988685Y1290589D01*
X993315Y1290589D01*
X1015589Y1268315D01*
X1015589Y1089685D01*
X1012301Y1086397D01*
X1002524Y1076621D01*
X1002519Y1076586D01*
X1002518Y1076584D01*
X1002519Y1076583D01*
X1002518Y1076574D01*
X1002514Y1076567D01*
X1003002Y1075387D01*
X1003002Y1070613D01*
X1001175Y1066201D01*
X997799Y1062825D01*
X993387Y1060998D01*
X988613Y1060998D01*
G37*
%LPD*%
%LPC*%
G36*
X595613Y804998D02*
X595613Y804998D01*
X591201Y806825D01*
X587825Y810201D01*
X585998Y814613D01*
X585998Y819387D01*
X587825Y823799D01*
X591201Y827175D01*
X595613Y829002D01*
X600387Y829002D01*
X601567Y828514D01*
X601612Y828525D01*
X601621Y828524D01*
X611397Y838301D01*
X611401Y838327D01*
X611411Y838335D01*
X611411Y1007665D01*
X611395Y1007686D01*
X611397Y1007699D01*
X592411Y1026685D01*
X592411Y1031315D01*
X595685Y1034589D01*
X600315Y1034589D01*
X622589Y1012315D01*
X622589Y833685D01*
X609524Y820621D01*
X609519Y820583D01*
X609518Y820583D01*
X609519Y820582D01*
X609518Y820574D01*
X609514Y820567D01*
X610002Y819387D01*
X610002Y814613D01*
X608175Y810201D01*
X604799Y806825D01*
X600387Y804998D01*
X595613Y804998D01*
G37*
%LPD*%
%LPC*%
G36*
X111613Y1061998D02*
X111613Y1061998D01*
X107201Y1063825D01*
X103825Y1067201D01*
X101998Y1071613D01*
X101998Y1076387D01*
X103825Y1080799D01*
X107201Y1084175D01*
X111613Y1086002D01*
X116387Y1086002D01*
X117567Y1085514D01*
X117612Y1085525D01*
X117621Y1085524D01*
X127397Y1095301D01*
X127399Y1095314D01*
X127409Y1095322D01*
X127404Y1095330D01*
X127411Y1095335D01*
X127411Y1264665D01*
X127395Y1264686D01*
X127397Y1264699D01*
X108411Y1283685D01*
X108411Y1288315D01*
X111685Y1291589D01*
X116315Y1291589D01*
X138589Y1269315D01*
X138589Y1090685D01*
X125524Y1077621D01*
X125518Y1077574D01*
X125514Y1077567D01*
X126002Y1076387D01*
X126002Y1071613D01*
X124175Y1067201D01*
X120799Y1063825D01*
X116387Y1061998D01*
X111613Y1061998D01*
G37*
%LPD*%
%LPC*%
G36*
X323613Y804998D02*
X323613Y804998D01*
X319201Y806825D01*
X315825Y810201D01*
X313998Y814613D01*
X313998Y819387D01*
X315825Y823799D01*
X319201Y827175D01*
X323613Y829002D01*
X328387Y829002D01*
X329567Y828514D01*
X329612Y828525D01*
X329621Y828524D01*
X339397Y838301D01*
X339401Y838327D01*
X339411Y838335D01*
X339411Y1007665D01*
X339395Y1007686D01*
X339397Y1007700D01*
X320411Y1026685D01*
X320411Y1031315D01*
X323685Y1034589D01*
X328315Y1034589D01*
X347300Y1015603D01*
X347301Y1015603D01*
X350589Y1012315D01*
X350589Y833685D01*
X337524Y820621D01*
X337519Y820583D01*
X337519Y820582D01*
X337518Y820574D01*
X337514Y820567D01*
X338002Y819387D01*
X338002Y814613D01*
X336175Y810201D01*
X332799Y806825D01*
X328387Y804998D01*
X323613Y804998D01*
G37*
%LPD*%
%LPC*%
G36*
X365613Y804998D02*
X365613Y804998D01*
X361201Y806825D01*
X357825Y810201D01*
X355998Y814613D01*
X355998Y819387D01*
X357825Y823799D01*
X361201Y827175D01*
X365613Y829002D01*
X370387Y829002D01*
X371567Y828514D01*
X371612Y828525D01*
X371621Y828524D01*
X380397Y837301D01*
X380401Y837327D01*
X380411Y837335D01*
X380411Y1008665D01*
X380395Y1008686D01*
X380397Y1008699D01*
X362411Y1026685D01*
X362411Y1031315D01*
X365685Y1034589D01*
X370315Y1034589D01*
X391589Y1013315D01*
X391589Y832685D01*
X379524Y820621D01*
X379519Y820583D01*
X379519Y820582D01*
X379518Y820574D01*
X379514Y820567D01*
X380002Y819387D01*
X380002Y814613D01*
X378175Y810201D01*
X374799Y806825D01*
X370387Y804998D01*
X365613Y804998D01*
G37*
%LPD*%
%LPC*%
G36*
X204853Y360035D02*
X204853Y360035D01*
X204614Y360275D01*
X204590Y360278D01*
X204589Y360279D01*
X204587Y360279D01*
X204579Y360289D01*
X204063Y360289D01*
X203170Y361182D01*
X203170Y361698D01*
X203154Y361719D01*
X203156Y361733D01*
X197215Y367674D01*
X196024Y368860D01*
X196024Y370543D01*
X195992Y390125D01*
X195984Y390135D01*
X195985Y390149D01*
X195972Y390150D01*
X195956Y390172D01*
X195934Y390156D01*
X195908Y390159D01*
X184484Y378735D01*
X60824Y378735D01*
X60786Y378707D01*
X60778Y378705D01*
X59770Y376272D01*
X56528Y373030D01*
X52292Y371275D01*
X27708Y371275D01*
X23472Y373030D01*
X20230Y376272D01*
X18475Y380508D01*
X18475Y385092D01*
X20230Y389328D01*
X23472Y392570D01*
X27708Y394325D01*
X52292Y394325D01*
X56528Y392570D01*
X59770Y389328D01*
X60778Y386895D01*
X60818Y386872D01*
X60824Y386865D01*
X181096Y386865D01*
X181117Y386881D01*
X181131Y386879D01*
X193381Y399129D01*
X193385Y399156D01*
X193395Y399164D01*
X193395Y405712D01*
X194288Y406605D01*
X205712Y406605D01*
X206605Y405712D01*
X206605Y394288D01*
X205712Y393395D01*
X204165Y393395D01*
X204118Y393359D01*
X204123Y393352D01*
X204116Y393346D01*
X204151Y372255D01*
X204167Y372233D01*
X204165Y372220D01*
X208206Y368179D01*
X208233Y368175D01*
X208241Y368165D01*
X212221Y368165D01*
X212460Y367925D01*
X212486Y367922D01*
X212493Y367913D01*
X212494Y367913D01*
X212495Y367911D01*
X217011Y367911D01*
X217904Y367018D01*
X217904Y361182D01*
X217011Y360289D01*
X212495Y360289D01*
X212474Y360273D01*
X212460Y360275D01*
X212221Y360035D01*
X204853Y360035D01*
G37*
%LPD*%
%LPC*%
G36*
X1067008Y19475D02*
X1067008Y19475D01*
X1062772Y21230D01*
X1059530Y24472D01*
X1057775Y28708D01*
X1057775Y53292D01*
X1059530Y57528D01*
X1062772Y60770D01*
X1063681Y61147D01*
X1063704Y61187D01*
X1063711Y61192D01*
X1063711Y106365D01*
X1063695Y106386D01*
X1063697Y106399D01*
X1036411Y133685D01*
X1036411Y138315D01*
X1039685Y141589D01*
X1044315Y141589D01*
X1074889Y111015D01*
X1074889Y61192D01*
X1074917Y61155D01*
X1074919Y61147D01*
X1075828Y60770D01*
X1079070Y57528D01*
X1080825Y53292D01*
X1080825Y28708D01*
X1079070Y24472D01*
X1075828Y21230D01*
X1071592Y19475D01*
X1067008Y19475D01*
G37*
%LPD*%
%LPC*%
G36*
X27708Y333175D02*
X27708Y333175D01*
X23472Y334930D01*
X20230Y338172D01*
X18475Y342408D01*
X18475Y346992D01*
X20230Y351228D01*
X23472Y354470D01*
X27708Y356225D01*
X52292Y356225D01*
X56528Y354470D01*
X59770Y351228D01*
X60147Y350319D01*
X60187Y350296D01*
X60192Y350289D01*
X128365Y350289D01*
X128386Y350305D01*
X128399Y350303D01*
X130685Y352589D01*
X135315Y352589D01*
X138589Y349315D01*
X138589Y344685D01*
X133015Y339111D01*
X60192Y339111D01*
X60155Y339083D01*
X60147Y339081D01*
X59770Y338172D01*
X56528Y334930D01*
X52292Y333175D01*
X27708Y333175D01*
G37*
%LPD*%
%LPC*%
G36*
X27708Y152175D02*
X27708Y152175D01*
X23472Y153930D01*
X20230Y157172D01*
X18475Y161408D01*
X18475Y165992D01*
X20230Y170228D01*
X23472Y173470D01*
X27708Y175225D01*
X52292Y175225D01*
X56528Y173470D01*
X59770Y170228D01*
X60147Y169319D01*
X60187Y169296D01*
X60192Y169289D01*
X133615Y169289D01*
X138589Y164315D01*
X138589Y159685D01*
X135315Y156411D01*
X130685Y156411D01*
X128999Y158097D01*
X128974Y158100D01*
X128968Y158108D01*
X128967Y158108D01*
X128965Y158111D01*
X60192Y158111D01*
X60155Y158083D01*
X60147Y158081D01*
X59770Y157172D01*
X56528Y153930D01*
X52292Y152175D01*
X27708Y152175D01*
G37*
%LPD*%
%LPC*%
G36*
X394008Y16475D02*
X394008Y16475D01*
X389772Y18230D01*
X386530Y21472D01*
X384775Y25708D01*
X384775Y50292D01*
X386530Y54528D01*
X389772Y57770D01*
X390681Y58147D01*
X390704Y58187D01*
X390711Y58192D01*
X390711Y111365D01*
X390695Y111386D01*
X390697Y111399D01*
X390411Y111685D01*
X390411Y116315D01*
X393685Y119589D01*
X398315Y119589D01*
X401889Y116015D01*
X401889Y58192D01*
X401917Y58155D01*
X401919Y58147D01*
X402828Y57770D01*
X406070Y54528D01*
X407825Y50292D01*
X407825Y25708D01*
X406070Y21472D01*
X402828Y18230D01*
X398592Y16475D01*
X394008Y16475D01*
G37*
%LPD*%
%LPC*%
G36*
X224008Y17475D02*
X224008Y17475D01*
X219772Y19230D01*
X216530Y22472D01*
X214775Y26708D01*
X214775Y51292D01*
X216530Y55528D01*
X219772Y58770D01*
X220681Y59147D01*
X220704Y59187D01*
X220711Y59192D01*
X220711Y115615D01*
X224685Y119589D01*
X229315Y119589D01*
X232589Y116315D01*
X232589Y111685D01*
X231903Y110999D01*
X231902Y110989D01*
X231901Y110989D01*
X231902Y110988D01*
X231899Y110973D01*
X231889Y110965D01*
X231889Y59192D01*
X231917Y59155D01*
X231919Y59147D01*
X232828Y58770D01*
X236070Y55528D01*
X237825Y51292D01*
X237825Y26708D01*
X236070Y22472D01*
X232828Y19230D01*
X228592Y17475D01*
X224008Y17475D01*
G37*
%LPD*%
%LPC*%
G36*
X564008Y18475D02*
X564008Y18475D01*
X559772Y20230D01*
X556530Y23472D01*
X554775Y27708D01*
X554775Y52292D01*
X556530Y56528D01*
X559772Y59770D01*
X560681Y60147D01*
X560699Y60177D01*
X560709Y60185D01*
X560707Y60189D01*
X560711Y60192D01*
X560711Y115615D01*
X564685Y119589D01*
X569315Y119589D01*
X572589Y116315D01*
X572589Y111685D01*
X571903Y110999D01*
X571902Y110989D01*
X571901Y110989D01*
X571902Y110988D01*
X571899Y110973D01*
X571889Y110965D01*
X571889Y60192D01*
X571917Y60155D01*
X571919Y60147D01*
X572828Y59770D01*
X576070Y56528D01*
X577825Y52292D01*
X577825Y27708D01*
X576070Y23472D01*
X572828Y20230D01*
X568592Y18475D01*
X564008Y18475D01*
G37*
%LPD*%
%LPC*%
G36*
X901008Y18475D02*
X901008Y18475D01*
X896772Y20230D01*
X893530Y23472D01*
X891775Y27708D01*
X891775Y52292D01*
X893530Y56528D01*
X896772Y59770D01*
X897681Y60147D01*
X897699Y60177D01*
X897709Y60185D01*
X897707Y60189D01*
X897711Y60192D01*
X897711Y111365D01*
X897695Y111386D01*
X897697Y111399D01*
X897411Y111685D01*
X897411Y116315D01*
X900685Y119589D01*
X905315Y119589D01*
X908889Y116015D01*
X908889Y60192D01*
X908917Y60155D01*
X908919Y60147D01*
X909828Y59770D01*
X913070Y56528D01*
X914825Y52292D01*
X914825Y27708D01*
X913070Y23472D01*
X909828Y20230D01*
X905592Y18475D01*
X901008Y18475D01*
G37*
%LPD*%
%LPC*%
G36*
X1099708Y416775D02*
X1099708Y416775D01*
X1095472Y418530D01*
X1092230Y421772D01*
X1091853Y422681D01*
X1091813Y422704D01*
X1091808Y422711D01*
X1046385Y422711D01*
X1041411Y427685D01*
X1041411Y432315D01*
X1044685Y435589D01*
X1049315Y435589D01*
X1051001Y433903D01*
X1051027Y433899D01*
X1051035Y433889D01*
X1091808Y433889D01*
X1091845Y433917D01*
X1091853Y433919D01*
X1092230Y434828D01*
X1095472Y438070D01*
X1099708Y439825D01*
X1124292Y439825D01*
X1128528Y438070D01*
X1131770Y434828D01*
X1133525Y430592D01*
X1133525Y426008D01*
X1131770Y421772D01*
X1128528Y418530D01*
X1124292Y416775D01*
X1099708Y416775D01*
G37*
%LPD*%
%LPC*%
G36*
X1099708Y246775D02*
X1099708Y246775D01*
X1095472Y248530D01*
X1092230Y251772D01*
X1091853Y252681D01*
X1091813Y252704D01*
X1091808Y252711D01*
X1049635Y252711D01*
X1049614Y252695D01*
X1049601Y252697D01*
X1049315Y252411D01*
X1044685Y252411D01*
X1041411Y255685D01*
X1041411Y260315D01*
X1044985Y263889D01*
X1091808Y263889D01*
X1091845Y263917D01*
X1091853Y263919D01*
X1092230Y264828D01*
X1095472Y268070D01*
X1099708Y269825D01*
X1124292Y269825D01*
X1128528Y268070D01*
X1131770Y264828D01*
X1133525Y260592D01*
X1133525Y256008D01*
X1131770Y251772D01*
X1128528Y248530D01*
X1124292Y246775D01*
X1099708Y246775D01*
G37*
%LPD*%
%LPC*%
G36*
X481368Y350975D02*
X481368Y350975D01*
X480475Y351868D01*
X480475Y351886D01*
X480439Y351933D01*
X480432Y351928D01*
X480426Y351935D01*
X466979Y351935D01*
X466140Y352775D01*
X466113Y352779D01*
X466105Y352789D01*
X461589Y352789D01*
X460696Y353682D01*
X460696Y359518D01*
X461589Y360411D01*
X466105Y360411D01*
X466126Y360427D01*
X466140Y360425D01*
X466379Y360665D01*
X469747Y360665D01*
X469986Y360425D01*
X470013Y360421D01*
X470021Y360411D01*
X474537Y360411D01*
X474868Y360079D01*
X474895Y360075D01*
X474903Y360065D01*
X480426Y360065D01*
X480473Y360101D01*
X480468Y360108D01*
X480475Y360114D01*
X480475Y360132D01*
X481368Y361025D01*
X481886Y361025D01*
X481933Y361061D01*
X481928Y361068D01*
X481935Y361074D01*
X481935Y376188D01*
X481919Y376209D01*
X481921Y376223D01*
X464763Y393381D01*
X464736Y393385D01*
X464728Y393395D01*
X463578Y393395D01*
X461151Y394401D01*
X459293Y396259D01*
X458287Y398686D01*
X458287Y401314D01*
X459293Y403741D01*
X460813Y405261D01*
X460815Y405274D01*
X460823Y405280D01*
X460817Y405288D01*
X460827Y405296D01*
X460827Y443576D01*
X473679Y456427D01*
X473681Y456443D01*
X473691Y456451D01*
X473687Y456457D01*
X473693Y456462D01*
X473693Y458198D01*
X476802Y461307D01*
X481198Y461307D01*
X484307Y458198D01*
X484307Y453802D01*
X481198Y450693D01*
X479462Y450693D01*
X479441Y450677D01*
X479427Y450679D01*
X468971Y440223D01*
X468967Y440196D01*
X468957Y440188D01*
X468957Y405296D01*
X468973Y405275D01*
X468971Y405261D01*
X470491Y403741D01*
X471497Y401314D01*
X471497Y398686D01*
X471350Y398333D01*
X471362Y398288D01*
X471361Y398279D01*
X490065Y379576D01*
X490065Y361074D01*
X490101Y361027D01*
X490108Y361032D01*
X490114Y361025D01*
X490632Y361025D01*
X491525Y360132D01*
X491525Y351868D01*
X490632Y350975D01*
X481368Y350975D01*
G37*
%LPD*%
%LPC*%
G36*
X881368Y350975D02*
X881368Y350975D01*
X880475Y351868D01*
X880475Y351886D01*
X880439Y351933D01*
X880432Y351928D01*
X880426Y351935D01*
X866979Y351935D01*
X866140Y352775D01*
X866113Y352779D01*
X866105Y352789D01*
X861589Y352789D01*
X860696Y353682D01*
X860696Y359518D01*
X861589Y360411D01*
X866105Y360411D01*
X866126Y360427D01*
X866140Y360425D01*
X866379Y360665D01*
X869747Y360665D01*
X869986Y360425D01*
X870013Y360421D01*
X870021Y360411D01*
X874537Y360411D01*
X874868Y360079D01*
X874895Y360075D01*
X874903Y360065D01*
X880426Y360065D01*
X880473Y360101D01*
X880468Y360108D01*
X880475Y360114D01*
X880475Y360132D01*
X881368Y361025D01*
X881886Y361025D01*
X881933Y361061D01*
X881928Y361068D01*
X881935Y361074D01*
X881935Y376188D01*
X881919Y376209D01*
X881921Y376223D01*
X864763Y393381D01*
X864736Y393385D01*
X864728Y393395D01*
X863578Y393395D01*
X861151Y394401D01*
X859293Y396259D01*
X858287Y398686D01*
X858287Y401314D01*
X859293Y403741D01*
X860813Y405261D01*
X860815Y405274D01*
X860823Y405280D01*
X860817Y405288D01*
X860827Y405296D01*
X860827Y443576D01*
X873679Y456427D01*
X873681Y456443D01*
X873691Y456451D01*
X873687Y456457D01*
X873693Y456462D01*
X873693Y458198D01*
X876802Y461307D01*
X881198Y461307D01*
X884307Y458198D01*
X884307Y453802D01*
X881198Y450693D01*
X879462Y450693D01*
X879441Y450677D01*
X879427Y450679D01*
X868971Y440223D01*
X868967Y440196D01*
X868957Y440188D01*
X868957Y405296D01*
X868973Y405275D01*
X868971Y405261D01*
X870491Y403741D01*
X871497Y401314D01*
X871497Y398686D01*
X871350Y398333D01*
X871362Y398288D01*
X871361Y398279D01*
X890065Y379576D01*
X890065Y361074D01*
X890101Y361027D01*
X890108Y361032D01*
X890114Y361025D01*
X890632Y361025D01*
X891525Y360132D01*
X891525Y351868D01*
X890632Y350975D01*
X881368Y350975D01*
G37*
%LPD*%
%LPC*%
G36*
X962368Y350975D02*
X962368Y350975D01*
X961475Y351868D01*
X961475Y351886D01*
X961439Y351933D01*
X961432Y351928D01*
X961426Y351935D01*
X947979Y351935D01*
X947140Y352775D01*
X947113Y352779D01*
X947105Y352789D01*
X942589Y352789D01*
X941696Y353682D01*
X941696Y359518D01*
X942589Y360411D01*
X947105Y360411D01*
X947126Y360427D01*
X947140Y360425D01*
X947379Y360665D01*
X950747Y360665D01*
X950986Y360425D01*
X951013Y360421D01*
X951021Y360411D01*
X955537Y360411D01*
X955868Y360079D01*
X955895Y360075D01*
X955903Y360065D01*
X961426Y360065D01*
X961473Y360101D01*
X961468Y360108D01*
X961475Y360114D01*
X961475Y360132D01*
X962368Y361025D01*
X962886Y361025D01*
X962933Y361061D01*
X962928Y361068D01*
X962935Y361074D01*
X962935Y376188D01*
X962919Y376209D01*
X962921Y376223D01*
X945763Y393381D01*
X945736Y393385D01*
X945728Y393395D01*
X943578Y393395D01*
X941151Y394401D01*
X939293Y396259D01*
X938287Y398686D01*
X938287Y401314D01*
X939293Y403741D01*
X940813Y405261D01*
X940815Y405274D01*
X940823Y405280D01*
X940817Y405288D01*
X940827Y405296D01*
X940827Y445576D01*
X951679Y456427D01*
X951681Y456443D01*
X951691Y456451D01*
X951687Y456457D01*
X951693Y456462D01*
X951693Y458198D01*
X954802Y461307D01*
X959198Y461307D01*
X962307Y458198D01*
X962307Y453802D01*
X959198Y450693D01*
X957462Y450693D01*
X957441Y450677D01*
X957427Y450679D01*
X948971Y442223D01*
X948968Y442202D01*
X948959Y442195D01*
X948961Y442191D01*
X948957Y442188D01*
X948957Y405296D01*
X948973Y405275D01*
X948971Y405261D01*
X950491Y403741D01*
X951497Y401314D01*
X951497Y399164D01*
X951513Y399143D01*
X951511Y399129D01*
X968669Y381971D01*
X971065Y379576D01*
X971065Y361074D01*
X971101Y361027D01*
X971108Y361032D01*
X971114Y361025D01*
X971632Y361025D01*
X972525Y360132D01*
X972525Y351868D01*
X971632Y350975D01*
X962368Y350975D01*
G37*
%LPD*%
%LPC*%
G36*
X561368Y350975D02*
X561368Y350975D01*
X560475Y351868D01*
X560475Y351886D01*
X560439Y351933D01*
X560432Y351928D01*
X560426Y351935D01*
X546979Y351935D01*
X546140Y352775D01*
X546113Y352779D01*
X546105Y352789D01*
X541589Y352789D01*
X540696Y353682D01*
X540696Y359518D01*
X541589Y360411D01*
X546105Y360411D01*
X546126Y360427D01*
X546140Y360425D01*
X546379Y360665D01*
X549747Y360665D01*
X549986Y360425D01*
X550013Y360421D01*
X550021Y360411D01*
X554537Y360411D01*
X554868Y360079D01*
X554895Y360075D01*
X554903Y360065D01*
X560426Y360065D01*
X560473Y360101D01*
X560468Y360108D01*
X560475Y360114D01*
X560475Y360132D01*
X561368Y361025D01*
X561886Y361025D01*
X561933Y361061D01*
X561928Y361068D01*
X561935Y361074D01*
X561935Y376188D01*
X561919Y376209D01*
X561921Y376223D01*
X544763Y393381D01*
X544736Y393385D01*
X544728Y393395D01*
X543578Y393395D01*
X541151Y394401D01*
X539293Y396259D01*
X538287Y398686D01*
X538287Y401314D01*
X539293Y403741D01*
X540813Y405261D01*
X540815Y405274D01*
X540823Y405280D01*
X540817Y405288D01*
X540827Y405296D01*
X540827Y445576D01*
X551679Y456427D01*
X551681Y456443D01*
X551691Y456451D01*
X551687Y456457D01*
X551693Y456462D01*
X551693Y458198D01*
X554802Y461307D01*
X559198Y461307D01*
X562307Y458198D01*
X562307Y453802D01*
X559198Y450693D01*
X557462Y450693D01*
X557441Y450677D01*
X557427Y450679D01*
X548971Y442223D01*
X548968Y442202D01*
X548959Y442195D01*
X548961Y442191D01*
X548957Y442188D01*
X548957Y405296D01*
X548973Y405275D01*
X548971Y405261D01*
X550491Y403741D01*
X551497Y401314D01*
X551497Y398686D01*
X551350Y398333D01*
X551362Y398288D01*
X551361Y398279D01*
X570065Y379576D01*
X570065Y361074D01*
X570101Y361027D01*
X570108Y361032D01*
X570114Y361025D01*
X570632Y361025D01*
X571525Y360132D01*
X571525Y351868D01*
X570632Y350975D01*
X561368Y350975D01*
G37*
%LPD*%
%LPC*%
G36*
X801368Y350975D02*
X801368Y350975D01*
X800475Y351868D01*
X800475Y351886D01*
X800439Y351933D01*
X800432Y351928D01*
X800426Y351935D01*
X786979Y351935D01*
X786140Y352775D01*
X786113Y352779D01*
X786105Y352789D01*
X781589Y352789D01*
X780696Y353682D01*
X780696Y359518D01*
X781589Y360411D01*
X786105Y360411D01*
X786126Y360427D01*
X786140Y360425D01*
X786379Y360665D01*
X789747Y360665D01*
X789986Y360425D01*
X790013Y360421D01*
X790021Y360411D01*
X794537Y360411D01*
X794868Y360079D01*
X794895Y360075D01*
X794903Y360065D01*
X800426Y360065D01*
X800473Y360101D01*
X800468Y360108D01*
X800475Y360114D01*
X800475Y360132D01*
X801368Y361025D01*
X801886Y361025D01*
X801933Y361061D01*
X801928Y361068D01*
X801935Y361074D01*
X801935Y376188D01*
X801919Y376209D01*
X801921Y376223D01*
X784763Y393381D01*
X784736Y393385D01*
X784728Y393395D01*
X783578Y393395D01*
X781151Y394401D01*
X779293Y396259D01*
X778287Y398686D01*
X778287Y401314D01*
X779293Y403741D01*
X780813Y405261D01*
X780815Y405274D01*
X780823Y405280D01*
X780817Y405288D01*
X780827Y405296D01*
X780827Y447576D01*
X789679Y456427D01*
X789681Y456443D01*
X789691Y456451D01*
X789687Y456457D01*
X789693Y456462D01*
X789693Y458198D01*
X792802Y461307D01*
X797198Y461307D01*
X800307Y458198D01*
X800307Y453802D01*
X797198Y450693D01*
X795462Y450693D01*
X795441Y450677D01*
X795427Y450679D01*
X788971Y444223D01*
X788967Y444196D01*
X788957Y444188D01*
X788957Y405296D01*
X788973Y405275D01*
X788971Y405261D01*
X790491Y403741D01*
X791497Y401314D01*
X791497Y398686D01*
X791350Y398333D01*
X791362Y398288D01*
X791361Y398279D01*
X810065Y379576D01*
X810065Y361074D01*
X810101Y361027D01*
X810108Y361032D01*
X810114Y361025D01*
X810632Y361025D01*
X811525Y360132D01*
X811525Y351868D01*
X810632Y350975D01*
X801368Y350975D01*
G37*
%LPD*%
%LPC*%
G36*
X641368Y350975D02*
X641368Y350975D01*
X640475Y351868D01*
X640475Y351886D01*
X640439Y351933D01*
X640432Y351928D01*
X640426Y351935D01*
X626979Y351935D01*
X626140Y352775D01*
X626113Y352779D01*
X626105Y352789D01*
X621589Y352789D01*
X620696Y353682D01*
X620696Y359518D01*
X621589Y360411D01*
X626105Y360411D01*
X626126Y360427D01*
X626140Y360425D01*
X626379Y360665D01*
X629747Y360665D01*
X629986Y360425D01*
X630013Y360421D01*
X630021Y360411D01*
X634537Y360411D01*
X634868Y360079D01*
X634895Y360075D01*
X634903Y360065D01*
X640426Y360065D01*
X640473Y360101D01*
X640468Y360108D01*
X640475Y360114D01*
X640475Y360132D01*
X641368Y361025D01*
X641886Y361025D01*
X641933Y361061D01*
X641928Y361068D01*
X641935Y361074D01*
X641935Y376188D01*
X641919Y376209D01*
X641921Y376223D01*
X624763Y393381D01*
X624736Y393385D01*
X624728Y393395D01*
X623578Y393395D01*
X621151Y394401D01*
X619293Y396259D01*
X618287Y398686D01*
X618287Y401314D01*
X619293Y403741D01*
X620813Y405261D01*
X620815Y405274D01*
X620823Y405280D01*
X620817Y405288D01*
X620827Y405296D01*
X620827Y448576D01*
X628679Y456427D01*
X628681Y456443D01*
X628691Y456451D01*
X628687Y456457D01*
X628693Y456462D01*
X628693Y458198D01*
X631802Y461307D01*
X636198Y461307D01*
X639307Y458198D01*
X639307Y453802D01*
X636198Y450693D01*
X634462Y450693D01*
X634441Y450677D01*
X634427Y450679D01*
X628971Y445223D01*
X628969Y445207D01*
X628959Y445199D01*
X628963Y445193D01*
X628957Y445188D01*
X628957Y405296D01*
X628973Y405275D01*
X628971Y405261D01*
X630491Y403741D01*
X631497Y401314D01*
X631497Y398686D01*
X631350Y398333D01*
X631362Y398288D01*
X631361Y398279D01*
X647669Y381971D01*
X650065Y379576D01*
X650065Y361074D01*
X650101Y361027D01*
X650108Y361032D01*
X650114Y361025D01*
X650632Y361025D01*
X651525Y360132D01*
X651525Y351868D01*
X650632Y350975D01*
X641368Y350975D01*
G37*
%LPD*%
%LPC*%
G36*
X321368Y351975D02*
X321368Y351975D01*
X320475Y352868D01*
X320475Y352886D01*
X320439Y352933D01*
X320432Y352928D01*
X320426Y352935D01*
X306979Y352935D01*
X306140Y353775D01*
X306113Y353779D01*
X306105Y353789D01*
X301589Y353789D01*
X300696Y354682D01*
X300696Y360518D01*
X301589Y361411D01*
X306105Y361411D01*
X306126Y361427D01*
X306140Y361425D01*
X306379Y361665D01*
X309747Y361665D01*
X309986Y361425D01*
X310013Y361422D01*
X310020Y361412D01*
X310021Y361411D01*
X314537Y361411D01*
X314868Y361079D01*
X314894Y361076D01*
X314901Y361067D01*
X314903Y361065D01*
X320426Y361065D01*
X320473Y361101D01*
X320472Y361102D01*
X320473Y361103D01*
X320469Y361109D01*
X320475Y361114D01*
X320475Y361132D01*
X321368Y362025D01*
X321886Y362025D01*
X321933Y362061D01*
X321928Y362068D01*
X321935Y362074D01*
X321935Y377188D01*
X321919Y377209D01*
X321921Y377223D01*
X305763Y393381D01*
X305736Y393385D01*
X305728Y393395D01*
X303578Y393395D01*
X301151Y394401D01*
X299293Y396259D01*
X298287Y398686D01*
X298287Y401314D01*
X299293Y403741D01*
X300813Y405261D01*
X300815Y405274D01*
X300823Y405280D01*
X300817Y405288D01*
X300827Y405296D01*
X300827Y447576D01*
X309679Y456427D01*
X309681Y456443D01*
X309691Y456451D01*
X309687Y456457D01*
X309693Y456462D01*
X309693Y458198D01*
X312802Y461307D01*
X317198Y461307D01*
X320307Y458198D01*
X320307Y453802D01*
X317198Y450693D01*
X315462Y450693D01*
X315441Y450677D01*
X315427Y450679D01*
X308971Y444223D01*
X308967Y444196D01*
X308957Y444188D01*
X308957Y405296D01*
X308973Y405275D01*
X308971Y405261D01*
X310491Y403741D01*
X311497Y401314D01*
X311497Y399164D01*
X311513Y399143D01*
X311511Y399129D01*
X330065Y380576D01*
X330065Y362074D01*
X330101Y362027D01*
X330108Y362032D01*
X330114Y362025D01*
X330632Y362025D01*
X331525Y361132D01*
X331525Y352868D01*
X330632Y351975D01*
X321368Y351975D01*
G37*
%LPD*%
%LPC*%
G36*
X241368Y351975D02*
X241368Y351975D01*
X240475Y352868D01*
X240475Y352886D01*
X240439Y352933D01*
X240432Y352928D01*
X240426Y352935D01*
X226979Y352935D01*
X226140Y353775D01*
X226113Y353779D01*
X226105Y353789D01*
X221589Y353789D01*
X220696Y354682D01*
X220696Y360518D01*
X221589Y361411D01*
X226105Y361411D01*
X226126Y361427D01*
X226140Y361425D01*
X226379Y361665D01*
X229747Y361665D01*
X229986Y361425D01*
X230013Y361422D01*
X230020Y361412D01*
X230021Y361411D01*
X234537Y361411D01*
X234868Y361079D01*
X234894Y361076D01*
X234901Y361067D01*
X234903Y361065D01*
X240426Y361065D01*
X240473Y361101D01*
X240472Y361102D01*
X240473Y361103D01*
X240469Y361109D01*
X240475Y361114D01*
X240475Y361132D01*
X241368Y362025D01*
X241886Y362025D01*
X241933Y362061D01*
X241928Y362068D01*
X241935Y362074D01*
X241935Y377188D01*
X241919Y377209D01*
X241921Y377223D01*
X225763Y393381D01*
X225736Y393385D01*
X225728Y393395D01*
X223578Y393395D01*
X221151Y394401D01*
X219293Y396259D01*
X218287Y398686D01*
X218287Y401314D01*
X219293Y403741D01*
X220813Y405261D01*
X220815Y405274D01*
X220823Y405280D01*
X220817Y405288D01*
X220827Y405296D01*
X220827Y448576D01*
X228679Y456427D01*
X228681Y456443D01*
X228691Y456451D01*
X228687Y456457D01*
X228693Y456462D01*
X228693Y458198D01*
X231802Y461307D01*
X236198Y461307D01*
X239307Y458198D01*
X239307Y453802D01*
X236198Y450693D01*
X234462Y450693D01*
X234441Y450677D01*
X234427Y450679D01*
X228971Y445223D01*
X228969Y445207D01*
X228959Y445199D01*
X228963Y445193D01*
X228957Y445188D01*
X228957Y405296D01*
X228973Y405275D01*
X228971Y405261D01*
X230491Y403741D01*
X231497Y401314D01*
X231497Y399164D01*
X231513Y399143D01*
X231511Y399129D01*
X247669Y382971D01*
X250065Y380576D01*
X250065Y362074D01*
X250101Y362027D01*
X250108Y362032D01*
X250114Y362025D01*
X250632Y362025D01*
X251525Y361132D01*
X251525Y352868D01*
X250632Y351975D01*
X241368Y351975D01*
G37*
%LPD*%
%LPC*%
G36*
X401368Y350975D02*
X401368Y350975D01*
X400475Y351868D01*
X400475Y351886D01*
X400439Y351933D01*
X400432Y351928D01*
X400426Y351935D01*
X386979Y351935D01*
X386140Y352775D01*
X386113Y352779D01*
X386105Y352789D01*
X381589Y352789D01*
X380696Y353682D01*
X380696Y359518D01*
X381589Y360411D01*
X386105Y360411D01*
X386126Y360427D01*
X386140Y360425D01*
X386379Y360665D01*
X389747Y360665D01*
X389986Y360425D01*
X390013Y360421D01*
X390021Y360411D01*
X394537Y360411D01*
X394868Y360079D01*
X394895Y360075D01*
X394903Y360065D01*
X400426Y360065D01*
X400473Y360101D01*
X400468Y360108D01*
X400475Y360114D01*
X400475Y360132D01*
X401368Y361025D01*
X401886Y361025D01*
X401933Y361061D01*
X401928Y361068D01*
X401935Y361074D01*
X401935Y376188D01*
X401919Y376209D01*
X401921Y376223D01*
X384763Y393381D01*
X384736Y393385D01*
X384728Y393395D01*
X383578Y393395D01*
X381151Y394401D01*
X379293Y396259D01*
X378287Y398686D01*
X378287Y401314D01*
X379293Y403741D01*
X380813Y405261D01*
X380815Y405274D01*
X380823Y405280D01*
X380817Y405288D01*
X380827Y405296D01*
X380827Y451576D01*
X385679Y456427D01*
X385681Y456443D01*
X385691Y456451D01*
X385687Y456457D01*
X385693Y456462D01*
X385693Y458198D01*
X388802Y461307D01*
X393198Y461307D01*
X396307Y458198D01*
X396307Y453802D01*
X393198Y450693D01*
X391462Y450693D01*
X391441Y450677D01*
X391427Y450679D01*
X388971Y448223D01*
X388969Y448210D01*
X388961Y448204D01*
X388967Y448196D01*
X388957Y448188D01*
X388957Y405296D01*
X388973Y405275D01*
X388971Y405261D01*
X390491Y403741D01*
X391497Y401314D01*
X391497Y398686D01*
X391350Y398333D01*
X391362Y398288D01*
X391361Y398279D01*
X410065Y379576D01*
X410065Y361074D01*
X410101Y361027D01*
X410108Y361032D01*
X410114Y361025D01*
X410632Y361025D01*
X411525Y360132D01*
X411525Y351868D01*
X410632Y350975D01*
X401368Y350975D01*
G37*
%LPD*%
%LPC*%
G36*
X721368Y350975D02*
X721368Y350975D01*
X720475Y351868D01*
X720475Y351886D01*
X720439Y351933D01*
X720432Y351928D01*
X720426Y351935D01*
X706979Y351935D01*
X706140Y352775D01*
X706113Y352779D01*
X706105Y352789D01*
X701589Y352789D01*
X700696Y353682D01*
X700696Y359518D01*
X701589Y360411D01*
X706105Y360411D01*
X706126Y360427D01*
X706140Y360425D01*
X706379Y360665D01*
X709747Y360665D01*
X709986Y360425D01*
X710013Y360421D01*
X710021Y360411D01*
X714537Y360411D01*
X714868Y360079D01*
X714895Y360075D01*
X714903Y360065D01*
X720426Y360065D01*
X720473Y360101D01*
X720468Y360108D01*
X720475Y360114D01*
X720475Y360132D01*
X721368Y361025D01*
X721886Y361025D01*
X721933Y361061D01*
X721928Y361068D01*
X721935Y361074D01*
X721935Y376188D01*
X721919Y376209D01*
X721921Y376223D01*
X704763Y393381D01*
X704736Y393385D01*
X704728Y393395D01*
X703578Y393395D01*
X701151Y394401D01*
X699293Y396259D01*
X698287Y398686D01*
X698287Y401314D01*
X699293Y403741D01*
X700813Y405261D01*
X700815Y405274D01*
X700823Y405280D01*
X700817Y405288D01*
X700827Y405296D01*
X700827Y451576D01*
X705679Y456427D01*
X705681Y456443D01*
X705691Y456451D01*
X705687Y456457D01*
X705693Y456462D01*
X705693Y458198D01*
X708802Y461307D01*
X713198Y461307D01*
X716307Y458198D01*
X716307Y453802D01*
X713198Y450693D01*
X711462Y450693D01*
X711441Y450677D01*
X711427Y450679D01*
X708971Y448223D01*
X708969Y448210D01*
X708961Y448204D01*
X708967Y448196D01*
X708957Y448188D01*
X708957Y405296D01*
X708973Y405275D01*
X708971Y405261D01*
X710491Y403741D01*
X711497Y401314D01*
X711497Y398686D01*
X711350Y398333D01*
X711362Y398288D01*
X711361Y398279D01*
X727669Y381971D01*
X730065Y379576D01*
X730065Y361074D01*
X730101Y361027D01*
X730108Y361032D01*
X730114Y361025D01*
X730632Y361025D01*
X731525Y360132D01*
X731525Y351868D01*
X730632Y350975D01*
X721368Y350975D01*
G37*
%LPD*%
%LPC*%
G36*
X988613Y1115998D02*
X988613Y1115998D01*
X984201Y1117825D01*
X980825Y1121201D01*
X978998Y1125613D01*
X978998Y1130387D01*
X980825Y1134799D01*
X984201Y1138175D01*
X985381Y1138664D01*
X985404Y1138704D01*
X985411Y1138709D01*
X985411Y1179315D01*
X988685Y1182589D01*
X993315Y1182589D01*
X996589Y1179315D01*
X996589Y1138709D01*
X996617Y1138672D01*
X996619Y1138664D01*
X997799Y1138175D01*
X1001175Y1134799D01*
X1003002Y1130387D01*
X1003002Y1125613D01*
X1001175Y1121201D01*
X997799Y1117825D01*
X993387Y1115998D01*
X988613Y1115998D01*
G37*
%LPD*%
%LPC*%
G36*
X595613Y859998D02*
X595613Y859998D01*
X591201Y861825D01*
X587825Y865201D01*
X585998Y869613D01*
X585998Y874387D01*
X587825Y878799D01*
X591201Y882175D01*
X592381Y882664D01*
X592404Y882704D01*
X592411Y882709D01*
X592411Y923315D01*
X595685Y926589D01*
X600315Y926589D01*
X603589Y923315D01*
X603589Y882709D01*
X603617Y882672D01*
X603619Y882664D01*
X604799Y882175D01*
X608175Y878799D01*
X610002Y874387D01*
X610002Y869613D01*
X608175Y865201D01*
X604799Y861825D01*
X600387Y859998D01*
X595613Y859998D01*
G37*
%LPD*%
%LPC*%
G36*
X222613Y580998D02*
X222613Y580998D01*
X218201Y582825D01*
X214825Y586201D01*
X212998Y590613D01*
X212998Y595387D01*
X214825Y599799D01*
X218201Y603175D01*
X219381Y603664D01*
X219404Y603704D01*
X219411Y603709D01*
X219411Y644315D01*
X222685Y647589D01*
X227315Y647589D01*
X230589Y644315D01*
X230589Y603709D01*
X230617Y603672D01*
X230619Y603664D01*
X231799Y603175D01*
X235175Y599799D01*
X237002Y595387D01*
X237002Y590613D01*
X235175Y586201D01*
X231799Y582825D01*
X227387Y580998D01*
X222613Y580998D01*
G37*
%LPD*%
%LPC*%
G36*
X554613Y1118998D02*
X554613Y1118998D01*
X550201Y1120825D01*
X546825Y1124201D01*
X544998Y1128613D01*
X544998Y1133387D01*
X546825Y1137799D01*
X550201Y1141175D01*
X551381Y1141664D01*
X551404Y1141704D01*
X551411Y1141709D01*
X551411Y1182315D01*
X554685Y1185589D01*
X559315Y1185589D01*
X562589Y1182315D01*
X562589Y1141709D01*
X562617Y1141672D01*
X562619Y1141664D01*
X563799Y1141175D01*
X567175Y1137799D01*
X569002Y1133387D01*
X569002Y1128613D01*
X567175Y1124201D01*
X563799Y1120825D01*
X559387Y1118998D01*
X554613Y1118998D01*
G37*
%LPD*%
%LPC*%
G36*
X638613Y1118998D02*
X638613Y1118998D01*
X634201Y1120825D01*
X630825Y1124201D01*
X628998Y1128613D01*
X628998Y1133387D01*
X630825Y1137799D01*
X634201Y1141175D01*
X635381Y1141664D01*
X635404Y1141704D01*
X635411Y1141709D01*
X635411Y1182315D01*
X638685Y1185589D01*
X643315Y1185589D01*
X646589Y1182315D01*
X646589Y1141709D01*
X646617Y1141672D01*
X646619Y1141664D01*
X647799Y1141175D01*
X651175Y1137799D01*
X653002Y1133387D01*
X653002Y1128613D01*
X651175Y1124201D01*
X647799Y1120825D01*
X643387Y1118998D01*
X638613Y1118998D01*
G37*
%LPD*%
%LPC*%
G36*
X596613Y1118998D02*
X596613Y1118998D01*
X592201Y1120825D01*
X588825Y1124201D01*
X586998Y1128613D01*
X586998Y1133387D01*
X588825Y1137799D01*
X592201Y1141175D01*
X593381Y1141664D01*
X593404Y1141704D01*
X593411Y1141709D01*
X593411Y1182315D01*
X596685Y1185589D01*
X601315Y1185589D01*
X604589Y1182315D01*
X604589Y1141709D01*
X604617Y1141672D01*
X604619Y1141664D01*
X605799Y1141175D01*
X609175Y1137799D01*
X611002Y1133387D01*
X611002Y1128613D01*
X609175Y1124201D01*
X605799Y1120825D01*
X601387Y1118998D01*
X596613Y1118998D01*
G37*
%LPD*%
%LPC*%
G36*
X1030613Y1115998D02*
X1030613Y1115998D01*
X1026201Y1117825D01*
X1022825Y1121201D01*
X1020998Y1125613D01*
X1020998Y1130387D01*
X1022825Y1134799D01*
X1026201Y1138175D01*
X1027381Y1138664D01*
X1027404Y1138704D01*
X1027411Y1138709D01*
X1027411Y1179315D01*
X1030685Y1182589D01*
X1035315Y1182589D01*
X1038589Y1179315D01*
X1038589Y1138709D01*
X1038617Y1138672D01*
X1038619Y1138664D01*
X1039799Y1138175D01*
X1043175Y1134799D01*
X1045002Y1130387D01*
X1045002Y1125613D01*
X1043175Y1121201D01*
X1039799Y1117825D01*
X1035387Y1115998D01*
X1030613Y1115998D01*
G37*
%LPD*%
%LPC*%
G36*
X553613Y859998D02*
X553613Y859998D01*
X549201Y861825D01*
X545825Y865201D01*
X543998Y869613D01*
X543998Y874387D01*
X545825Y878799D01*
X549201Y882175D01*
X550381Y882664D01*
X550404Y882704D01*
X550411Y882709D01*
X550411Y923315D01*
X553685Y926589D01*
X558315Y926589D01*
X561589Y923315D01*
X561589Y882709D01*
X561617Y882672D01*
X561619Y882664D01*
X562799Y882175D01*
X566175Y878799D01*
X568002Y874387D01*
X568002Y869613D01*
X566175Y865201D01*
X562799Y861825D01*
X558387Y859998D01*
X553613Y859998D01*
G37*
%LPD*%
%LPC*%
G36*
X407613Y859998D02*
X407613Y859998D01*
X403201Y861825D01*
X399825Y865201D01*
X397998Y869613D01*
X397998Y874387D01*
X399825Y878799D01*
X403201Y882175D01*
X404381Y882664D01*
X404404Y882704D01*
X404411Y882709D01*
X404411Y923315D01*
X407685Y926589D01*
X412315Y926589D01*
X415589Y923315D01*
X415589Y882709D01*
X415617Y882672D01*
X415619Y882664D01*
X416799Y882175D01*
X420175Y878799D01*
X422002Y874387D01*
X422002Y869613D01*
X420175Y865201D01*
X416799Y861825D01*
X412387Y859998D01*
X407613Y859998D01*
G37*
%LPD*%
%LPC*%
G36*
X365613Y859998D02*
X365613Y859998D01*
X361201Y861825D01*
X357825Y865201D01*
X355998Y869613D01*
X355998Y874387D01*
X357825Y878799D01*
X361201Y882175D01*
X362381Y882664D01*
X362404Y882704D01*
X362411Y882709D01*
X362411Y923315D01*
X365685Y926589D01*
X370315Y926589D01*
X373589Y923315D01*
X373589Y882709D01*
X373617Y882672D01*
X373619Y882664D01*
X374799Y882175D01*
X378175Y878799D01*
X380002Y874387D01*
X380002Y869613D01*
X378175Y865201D01*
X374799Y861825D01*
X370387Y859998D01*
X365613Y859998D01*
G37*
%LPD*%
%LPC*%
G36*
X323613Y859998D02*
X323613Y859998D01*
X319201Y861825D01*
X315825Y865201D01*
X313998Y869613D01*
X313998Y874387D01*
X315825Y878799D01*
X319201Y882175D01*
X320381Y882664D01*
X320404Y882704D01*
X320411Y882709D01*
X320411Y923315D01*
X323685Y926589D01*
X328315Y926589D01*
X331589Y923315D01*
X331589Y882709D01*
X331617Y882672D01*
X331619Y882664D01*
X332799Y882175D01*
X336175Y878799D01*
X338002Y874387D01*
X338002Y869613D01*
X336175Y865201D01*
X332799Y861825D01*
X328387Y859998D01*
X323613Y859998D01*
G37*
%LPD*%
%LPC*%
G36*
X1072613Y1115998D02*
X1072613Y1115998D01*
X1068201Y1117825D01*
X1064825Y1121201D01*
X1062998Y1125613D01*
X1062998Y1130387D01*
X1064825Y1134799D01*
X1068201Y1138175D01*
X1069381Y1138664D01*
X1069404Y1138704D01*
X1069411Y1138709D01*
X1069411Y1179315D01*
X1072685Y1182589D01*
X1077315Y1182589D01*
X1080589Y1179315D01*
X1080589Y1138709D01*
X1080617Y1138672D01*
X1080619Y1138664D01*
X1081799Y1138175D01*
X1085175Y1134799D01*
X1087002Y1130387D01*
X1087002Y1125613D01*
X1085175Y1121201D01*
X1081799Y1117825D01*
X1077387Y1115998D01*
X1072613Y1115998D01*
G37*
%LPD*%
%LPC*%
G36*
X769613Y1112998D02*
X769613Y1112998D01*
X765201Y1114825D01*
X761825Y1118201D01*
X759998Y1122613D01*
X759998Y1127387D01*
X761825Y1131799D01*
X765201Y1135175D01*
X766381Y1135664D01*
X766404Y1135703D01*
X766409Y1135707D01*
X766411Y1135709D01*
X766411Y1176315D01*
X769685Y1179589D01*
X774315Y1179589D01*
X777589Y1176315D01*
X777589Y1135709D01*
X777617Y1135672D01*
X777619Y1135664D01*
X778799Y1135175D01*
X782175Y1131799D01*
X784002Y1127387D01*
X784002Y1122613D01*
X782175Y1118201D01*
X778799Y1114825D01*
X774387Y1112998D01*
X769613Y1112998D01*
G37*
%LPD*%
%LPC*%
G36*
X811613Y1112998D02*
X811613Y1112998D01*
X807201Y1114825D01*
X803825Y1118201D01*
X801998Y1122613D01*
X801998Y1127387D01*
X803825Y1131799D01*
X807201Y1135175D01*
X808381Y1135664D01*
X808404Y1135703D01*
X808409Y1135707D01*
X808411Y1135709D01*
X808411Y1176315D01*
X811685Y1179589D01*
X816315Y1179589D01*
X819589Y1176315D01*
X819589Y1135709D01*
X819617Y1135672D01*
X819619Y1135664D01*
X820799Y1135175D01*
X824175Y1131799D01*
X826002Y1127387D01*
X826002Y1122613D01*
X824175Y1118201D01*
X820799Y1114825D01*
X816387Y1112998D01*
X811613Y1112998D01*
G37*
%LPD*%
%LPC*%
G36*
X194613Y856998D02*
X194613Y856998D01*
X190201Y858825D01*
X186825Y862201D01*
X184998Y866613D01*
X184998Y871387D01*
X186825Y875799D01*
X190201Y879175D01*
X191381Y879664D01*
X191402Y879700D01*
X191409Y879705D01*
X191408Y879707D01*
X191411Y879709D01*
X191411Y920315D01*
X194685Y923589D01*
X199315Y923589D01*
X202589Y920315D01*
X202589Y879709D01*
X202617Y879672D01*
X202619Y879664D01*
X203799Y879175D01*
X207175Y875799D01*
X209002Y871387D01*
X209002Y866613D01*
X207175Y862201D01*
X203799Y858825D01*
X199387Y856998D01*
X194613Y856998D01*
G37*
%LPD*%
%LPC*%
G36*
X152613Y856998D02*
X152613Y856998D01*
X148201Y858825D01*
X144825Y862201D01*
X142998Y866613D01*
X142998Y871387D01*
X144825Y875799D01*
X148201Y879175D01*
X149381Y879664D01*
X149402Y879700D01*
X149409Y879705D01*
X149408Y879707D01*
X149411Y879709D01*
X149411Y920315D01*
X152685Y923589D01*
X157315Y923589D01*
X160589Y920315D01*
X160589Y879709D01*
X160617Y879672D01*
X160619Y879664D01*
X161799Y879175D01*
X165175Y875799D01*
X167002Y871387D01*
X167002Y866613D01*
X165175Y862201D01*
X161799Y858825D01*
X157387Y856998D01*
X152613Y856998D01*
G37*
%LPD*%
%LPC*%
G36*
X110613Y856998D02*
X110613Y856998D01*
X106201Y858825D01*
X102825Y862201D01*
X100998Y866613D01*
X100998Y871387D01*
X102825Y875799D01*
X106201Y879175D01*
X107381Y879664D01*
X107402Y879700D01*
X107409Y879705D01*
X107408Y879707D01*
X107411Y879709D01*
X107411Y920315D01*
X110685Y923589D01*
X115315Y923589D01*
X118589Y920315D01*
X118589Y879709D01*
X118617Y879672D01*
X118619Y879664D01*
X119799Y879175D01*
X123175Y875799D01*
X125002Y871387D01*
X125002Y866613D01*
X123175Y862201D01*
X119799Y858825D01*
X115387Y856998D01*
X110613Y856998D01*
G37*
%LPD*%
%LPC*%
G36*
X485613Y581998D02*
X485613Y581998D01*
X481201Y583825D01*
X477825Y587201D01*
X475998Y591613D01*
X475998Y596387D01*
X477825Y600799D01*
X481201Y604175D01*
X482381Y604664D01*
X482394Y604686D01*
X482404Y604693D01*
X482401Y604697D01*
X482404Y604704D01*
X482411Y604709D01*
X482411Y645315D01*
X485685Y648589D01*
X490315Y648589D01*
X493589Y645315D01*
X493589Y604709D01*
X493617Y604672D01*
X493619Y604664D01*
X494799Y604175D01*
X498175Y600799D01*
X500002Y596387D01*
X500002Y591613D01*
X498175Y587201D01*
X494799Y583825D01*
X490387Y581998D01*
X485613Y581998D01*
G37*
%LPD*%
%LPC*%
G36*
X443613Y581998D02*
X443613Y581998D01*
X439201Y583825D01*
X435825Y587201D01*
X433998Y591613D01*
X433998Y596387D01*
X435825Y600799D01*
X439201Y604175D01*
X440381Y604664D01*
X440394Y604686D01*
X440404Y604693D01*
X440401Y604697D01*
X440404Y604704D01*
X440411Y604709D01*
X440411Y645315D01*
X443685Y648589D01*
X448315Y648589D01*
X451589Y645315D01*
X451589Y604709D01*
X451617Y604672D01*
X451619Y604664D01*
X452799Y604175D01*
X456175Y600799D01*
X458002Y596387D01*
X458002Y591613D01*
X456175Y587201D01*
X452799Y583825D01*
X448387Y581998D01*
X443613Y581998D01*
G37*
%LPD*%
%LPC*%
G36*
X153613Y1116998D02*
X153613Y1116998D01*
X149201Y1118825D01*
X145825Y1122201D01*
X143998Y1126613D01*
X143998Y1131387D01*
X145825Y1135799D01*
X149201Y1139175D01*
X150381Y1139664D01*
X150392Y1139683D01*
X150409Y1139696D01*
X150404Y1139703D01*
X150404Y1139704D01*
X150411Y1139709D01*
X150411Y1180315D01*
X153685Y1183589D01*
X158315Y1183589D01*
X161589Y1180315D01*
X161589Y1139709D01*
X161617Y1139672D01*
X161619Y1139664D01*
X162799Y1139175D01*
X166175Y1135799D01*
X168002Y1131387D01*
X168002Y1126613D01*
X166175Y1122201D01*
X162799Y1118825D01*
X158387Y1116998D01*
X153613Y1116998D01*
G37*
%LPD*%
%LPC*%
G36*
X195613Y1116998D02*
X195613Y1116998D01*
X191201Y1118825D01*
X187825Y1122201D01*
X185998Y1126613D01*
X185998Y1131387D01*
X187825Y1135799D01*
X191201Y1139175D01*
X192381Y1139664D01*
X192392Y1139683D01*
X192409Y1139696D01*
X192404Y1139703D01*
X192404Y1139704D01*
X192411Y1139709D01*
X192411Y1180315D01*
X195685Y1183589D01*
X200315Y1183589D01*
X203589Y1180315D01*
X203589Y1139709D01*
X203617Y1139672D01*
X203619Y1139664D01*
X204799Y1139175D01*
X208175Y1135799D01*
X210002Y1131387D01*
X210002Y1126613D01*
X208175Y1122201D01*
X204799Y1118825D01*
X200387Y1116998D01*
X195613Y1116998D01*
G37*
%LPD*%
%LPC*%
G36*
X416613Y1116998D02*
X416613Y1116998D01*
X412201Y1118825D01*
X408825Y1122201D01*
X406998Y1126613D01*
X406998Y1131387D01*
X408825Y1135799D01*
X412201Y1139175D01*
X413381Y1139664D01*
X413392Y1139683D01*
X413409Y1139696D01*
X413404Y1139703D01*
X413404Y1139704D01*
X413411Y1139709D01*
X413411Y1180315D01*
X416685Y1183589D01*
X421315Y1183589D01*
X424589Y1180315D01*
X424589Y1139709D01*
X424617Y1139672D01*
X424619Y1139664D01*
X425799Y1139175D01*
X429175Y1135799D01*
X431002Y1131387D01*
X431002Y1126613D01*
X429175Y1122201D01*
X425799Y1118825D01*
X421387Y1116998D01*
X416613Y1116998D01*
G37*
%LPD*%
%LPC*%
G36*
X111613Y1116998D02*
X111613Y1116998D01*
X107201Y1118825D01*
X103825Y1122201D01*
X101998Y1126613D01*
X101998Y1131387D01*
X103825Y1135799D01*
X107201Y1139175D01*
X108381Y1139664D01*
X108392Y1139683D01*
X108409Y1139696D01*
X108404Y1139703D01*
X108404Y1139704D01*
X108411Y1139709D01*
X108411Y1180315D01*
X111685Y1183589D01*
X116315Y1183589D01*
X119589Y1180315D01*
X119589Y1139709D01*
X119617Y1139672D01*
X119619Y1139664D01*
X120799Y1139175D01*
X124175Y1135799D01*
X126002Y1131387D01*
X126002Y1126613D01*
X124175Y1122201D01*
X120799Y1118825D01*
X116387Y1116998D01*
X111613Y1116998D01*
G37*
%LPD*%
%LPC*%
G36*
X332613Y1116998D02*
X332613Y1116998D01*
X328201Y1118825D01*
X324825Y1122201D01*
X322998Y1126613D01*
X322998Y1131387D01*
X324825Y1135799D01*
X328201Y1139175D01*
X329381Y1139664D01*
X329392Y1139683D01*
X329409Y1139696D01*
X329404Y1139703D01*
X329404Y1139704D01*
X329411Y1139709D01*
X329411Y1180315D01*
X332685Y1183589D01*
X337315Y1183589D01*
X340589Y1180315D01*
X340589Y1139709D01*
X340617Y1139672D01*
X340619Y1139664D01*
X341799Y1139175D01*
X345175Y1135799D01*
X347002Y1131387D01*
X347002Y1126613D01*
X345175Y1122201D01*
X341799Y1118825D01*
X337387Y1116998D01*
X332613Y1116998D01*
G37*
%LPD*%
%LPC*%
G36*
X374613Y1116998D02*
X374613Y1116998D01*
X370201Y1118825D01*
X366825Y1122201D01*
X364998Y1126613D01*
X364998Y1131387D01*
X366825Y1135799D01*
X370201Y1139175D01*
X371381Y1139664D01*
X371392Y1139683D01*
X371409Y1139696D01*
X371404Y1139703D01*
X371404Y1139704D01*
X371411Y1139709D01*
X371411Y1180315D01*
X374685Y1183589D01*
X379315Y1183589D01*
X382589Y1180315D01*
X382589Y1139709D01*
X382617Y1139672D01*
X382619Y1139664D01*
X383799Y1139175D01*
X387175Y1135799D01*
X389002Y1131387D01*
X389002Y1126613D01*
X387175Y1122201D01*
X383799Y1118825D01*
X379387Y1116998D01*
X374613Y1116998D01*
G37*
%LPD*%
%LPC*%
G36*
X401613Y581998D02*
X401613Y581998D01*
X397201Y583825D01*
X393825Y587201D01*
X391998Y591613D01*
X391998Y596387D01*
X393825Y600799D01*
X397201Y604175D01*
X398381Y604664D01*
X398394Y604686D01*
X398404Y604693D01*
X398401Y604697D01*
X398404Y604704D01*
X398411Y604709D01*
X398411Y644315D01*
X398679Y644583D01*
X398683Y644609D01*
X398693Y644617D01*
X398693Y645198D01*
X401802Y648307D01*
X406198Y648307D01*
X409307Y645198D01*
X409307Y644617D01*
X409323Y644596D01*
X409321Y644583D01*
X409589Y644315D01*
X409589Y604709D01*
X409617Y604672D01*
X409619Y604664D01*
X410799Y604175D01*
X414175Y600799D01*
X416002Y596387D01*
X416002Y591613D01*
X414175Y587201D01*
X410799Y583825D01*
X406387Y581998D01*
X401613Y581998D01*
G37*
%LPD*%
%LPC*%
G36*
X264613Y580998D02*
X264613Y580998D01*
X260201Y582825D01*
X256825Y586201D01*
X254998Y590613D01*
X254998Y595387D01*
X256825Y599799D01*
X260201Y603175D01*
X261381Y603664D01*
X261404Y603704D01*
X261411Y603709D01*
X261411Y643315D01*
X261679Y643583D01*
X261681Y643595D01*
X261688Y643601D01*
X261682Y643609D01*
X261683Y643609D01*
X261693Y643617D01*
X261693Y644198D01*
X264802Y647307D01*
X269198Y647307D01*
X272307Y644198D01*
X272307Y643617D01*
X272323Y643596D01*
X272321Y643583D01*
X272589Y643315D01*
X272589Y603709D01*
X272617Y603672D01*
X272619Y603664D01*
X273799Y603175D01*
X277175Y599799D01*
X279002Y595387D01*
X279002Y590613D01*
X277175Y586201D01*
X273799Y582825D01*
X269387Y580998D01*
X264613Y580998D01*
G37*
%LPD*%
%LPC*%
G36*
X180613Y580998D02*
X180613Y580998D01*
X176201Y582825D01*
X172825Y586201D01*
X170998Y590613D01*
X170998Y595387D01*
X172825Y599799D01*
X176201Y603175D01*
X177381Y603664D01*
X177404Y603704D01*
X177411Y603709D01*
X177411Y643315D01*
X177679Y643583D01*
X177681Y643595D01*
X177688Y643601D01*
X177682Y643609D01*
X177683Y643609D01*
X177693Y643617D01*
X177693Y644198D01*
X180802Y647307D01*
X185198Y647307D01*
X188307Y644198D01*
X188307Y643617D01*
X188323Y643596D01*
X188321Y643583D01*
X188589Y643315D01*
X188589Y603709D01*
X188617Y603672D01*
X188619Y603664D01*
X189799Y603175D01*
X193175Y599799D01*
X195002Y595387D01*
X195002Y590613D01*
X193175Y586201D01*
X189799Y582825D01*
X185387Y580998D01*
X180613Y580998D01*
G37*
%LPD*%
%LPC*%
G36*
X138613Y580998D02*
X138613Y580998D01*
X134201Y582825D01*
X130825Y586201D01*
X128998Y590613D01*
X128998Y595387D01*
X130825Y599799D01*
X134201Y603175D01*
X135381Y603664D01*
X135404Y603704D01*
X135411Y603709D01*
X135411Y642315D01*
X138685Y645589D01*
X143315Y645589D01*
X146589Y642315D01*
X146589Y603709D01*
X146617Y603672D01*
X146619Y603664D01*
X147799Y603175D01*
X151175Y599799D01*
X153002Y595387D01*
X153002Y590613D01*
X151175Y586201D01*
X147799Y582825D01*
X143387Y580998D01*
X138613Y580998D01*
G37*
%LPD*%
%LPC*%
G36*
X946613Y1115998D02*
X946613Y1115998D01*
X942201Y1117825D01*
X938825Y1121201D01*
X936998Y1125613D01*
X936998Y1130387D01*
X938825Y1134799D01*
X942201Y1138175D01*
X943381Y1138664D01*
X943404Y1138704D01*
X943411Y1138709D01*
X943411Y1177315D01*
X946685Y1180589D01*
X951315Y1180589D01*
X954589Y1177315D01*
X954589Y1138709D01*
X954617Y1138672D01*
X954619Y1138664D01*
X955799Y1138175D01*
X959175Y1134799D01*
X961002Y1130387D01*
X961002Y1125613D01*
X959175Y1121201D01*
X955799Y1117825D01*
X951387Y1115998D01*
X946613Y1115998D01*
G37*
%LPD*%
%LPC*%
G36*
X511613Y859998D02*
X511613Y859998D01*
X507201Y861825D01*
X503825Y865201D01*
X501998Y869613D01*
X501998Y874387D01*
X503825Y878799D01*
X507201Y882175D01*
X508381Y882664D01*
X508404Y882704D01*
X508411Y882709D01*
X508411Y921315D01*
X511685Y924589D01*
X516315Y924589D01*
X519589Y921315D01*
X519589Y882709D01*
X519617Y882672D01*
X519619Y882664D01*
X520799Y882175D01*
X524175Y878799D01*
X526002Y874387D01*
X526002Y869613D01*
X524175Y865201D01*
X520799Y861825D01*
X516387Y859998D01*
X511613Y859998D01*
G37*
%LPD*%
%LPC*%
G36*
X727613Y1112998D02*
X727613Y1112998D01*
X723201Y1114825D01*
X719825Y1118201D01*
X717998Y1122613D01*
X717998Y1127387D01*
X719825Y1131799D01*
X723201Y1135175D01*
X724381Y1135664D01*
X724404Y1135703D01*
X724409Y1135707D01*
X724411Y1135709D01*
X724411Y1174315D01*
X727685Y1177589D01*
X732315Y1177589D01*
X735589Y1174315D01*
X735589Y1135709D01*
X735617Y1135672D01*
X735619Y1135664D01*
X736799Y1135175D01*
X740175Y1131799D01*
X742002Y1127387D01*
X742002Y1122613D01*
X740175Y1118201D01*
X736799Y1114825D01*
X732387Y1112998D01*
X727613Y1112998D01*
G37*
%LPD*%
%LPC*%
G36*
X68613Y856998D02*
X68613Y856998D01*
X64201Y858825D01*
X60825Y862201D01*
X58998Y866613D01*
X58998Y871387D01*
X60825Y875799D01*
X64201Y879175D01*
X65381Y879664D01*
X65402Y879700D01*
X65409Y879705D01*
X65408Y879707D01*
X65411Y879709D01*
X65411Y918315D01*
X68685Y921589D01*
X73315Y921589D01*
X76589Y918315D01*
X76589Y879709D01*
X76617Y879672D01*
X76619Y879664D01*
X77799Y879175D01*
X81175Y875799D01*
X83002Y871387D01*
X83002Y866613D01*
X81175Y862201D01*
X77799Y858825D01*
X73387Y856998D01*
X68613Y856998D01*
G37*
%LPD*%
%LPC*%
G36*
X359613Y581998D02*
X359613Y581998D01*
X355201Y583825D01*
X351825Y587201D01*
X349998Y591613D01*
X349998Y596387D01*
X351825Y600799D01*
X355201Y604175D01*
X356381Y604664D01*
X356394Y604686D01*
X356404Y604693D01*
X356401Y604697D01*
X356404Y604704D01*
X356411Y604709D01*
X356411Y643315D01*
X359685Y646589D01*
X364315Y646589D01*
X367589Y643315D01*
X367589Y604709D01*
X367617Y604672D01*
X367619Y604664D01*
X368799Y604175D01*
X372175Y600799D01*
X374002Y596387D01*
X374002Y591613D01*
X372175Y587201D01*
X368799Y583825D01*
X364387Y581998D01*
X359613Y581998D01*
G37*
%LPD*%
%LPC*%
G36*
X69613Y1116998D02*
X69613Y1116998D01*
X65201Y1118825D01*
X61825Y1122201D01*
X59998Y1126613D01*
X59998Y1131387D01*
X61825Y1135799D01*
X65201Y1139175D01*
X66381Y1139664D01*
X66392Y1139683D01*
X66409Y1139696D01*
X66404Y1139703D01*
X66404Y1139704D01*
X66411Y1139709D01*
X66411Y1178315D01*
X69685Y1181589D01*
X74315Y1181589D01*
X77589Y1178315D01*
X77589Y1139709D01*
X77617Y1139672D01*
X77619Y1139664D01*
X78799Y1139175D01*
X82175Y1135799D01*
X84002Y1131387D01*
X84002Y1126613D01*
X82175Y1122201D01*
X78799Y1118825D01*
X74387Y1116998D01*
X69613Y1116998D01*
G37*
%LPD*%
%LPC*%
G36*
X290613Y1116998D02*
X290613Y1116998D01*
X286201Y1118825D01*
X282825Y1122201D01*
X280998Y1126613D01*
X280998Y1131387D01*
X282825Y1135799D01*
X286201Y1139175D01*
X287381Y1139664D01*
X287392Y1139683D01*
X287409Y1139696D01*
X287404Y1139703D01*
X287404Y1139704D01*
X287411Y1139709D01*
X287411Y1178315D01*
X290685Y1181589D01*
X295315Y1181589D01*
X298589Y1178315D01*
X298589Y1139709D01*
X298617Y1139672D01*
X298619Y1139664D01*
X299799Y1139175D01*
X303175Y1135799D01*
X305002Y1131387D01*
X305002Y1126613D01*
X303175Y1122201D01*
X299799Y1118825D01*
X295387Y1116998D01*
X290613Y1116998D01*
G37*
%LPD*%
%LPC*%
G36*
X281613Y859998D02*
X281613Y859998D01*
X277201Y861825D01*
X273825Y865201D01*
X271998Y869613D01*
X271998Y874387D01*
X273825Y878799D01*
X277201Y882175D01*
X278381Y882664D01*
X278404Y882704D01*
X278411Y882709D01*
X278411Y920315D01*
X278679Y920583D01*
X278683Y920609D01*
X278693Y920617D01*
X278693Y921198D01*
X281802Y924307D01*
X286198Y924307D01*
X289307Y921198D01*
X289307Y920617D01*
X289323Y920596D01*
X289321Y920583D01*
X289589Y920315D01*
X289589Y882709D01*
X289617Y882672D01*
X289619Y882664D01*
X290799Y882175D01*
X294175Y878799D01*
X296002Y874387D01*
X296002Y869613D01*
X294175Y865201D01*
X290799Y861825D01*
X286387Y859998D01*
X281613Y859998D01*
G37*
%LPD*%
%LPC*%
G36*
X733008Y16475D02*
X733008Y16475D01*
X728772Y18230D01*
X725530Y21472D01*
X723775Y25708D01*
X723775Y50292D01*
X725530Y54528D01*
X728772Y57770D01*
X733008Y59525D01*
X737592Y59525D01*
X741828Y57770D01*
X745070Y54528D01*
X746825Y50292D01*
X746825Y25708D01*
X745070Y21472D01*
X741828Y18230D01*
X737592Y16475D01*
X733008Y16475D01*
G37*
%LPD*%
%LPC*%
G36*
X766613Y859998D02*
X766613Y859998D01*
X762201Y861825D01*
X758825Y865201D01*
X756998Y869613D01*
X756998Y874387D01*
X758825Y878799D01*
X762201Y882175D01*
X763381Y882664D01*
X763404Y882704D01*
X763411Y882709D01*
X763411Y917315D01*
X767685Y921589D01*
X772315Y921589D01*
X775589Y918315D01*
X775589Y913685D01*
X774603Y912699D01*
X774601Y912687D01*
X774593Y912680D01*
X774599Y912672D01*
X774589Y912665D01*
X774589Y882709D01*
X774617Y882672D01*
X774619Y882664D01*
X775799Y882175D01*
X779175Y878799D01*
X781002Y874387D01*
X781002Y869613D01*
X779175Y865201D01*
X775799Y861825D01*
X771387Y859998D01*
X766613Y859998D01*
G37*
%LPD*%
%LPC*%
G36*
X850613Y859998D02*
X850613Y859998D01*
X846201Y861825D01*
X842825Y865201D01*
X840998Y869613D01*
X840998Y874387D01*
X842825Y878799D01*
X846201Y882175D01*
X847381Y882664D01*
X847404Y882704D01*
X847411Y882709D01*
X847411Y917315D01*
X851685Y921589D01*
X856315Y921589D01*
X859589Y918315D01*
X859589Y913685D01*
X858603Y912699D01*
X858601Y912687D01*
X858593Y912680D01*
X858599Y912672D01*
X858589Y912665D01*
X858589Y882709D01*
X858617Y882672D01*
X858619Y882664D01*
X859799Y882175D01*
X863175Y878799D01*
X865002Y874387D01*
X865002Y869613D01*
X863175Y865201D01*
X859799Y861825D01*
X855387Y859998D01*
X850613Y859998D01*
G37*
%LPD*%
%LPC*%
G36*
X808613Y859998D02*
X808613Y859998D01*
X804201Y861825D01*
X800825Y865201D01*
X798998Y869613D01*
X798998Y874387D01*
X800825Y878799D01*
X804201Y882175D01*
X806381Y883078D01*
X806404Y883118D01*
X806411Y883123D01*
X806411Y918315D01*
X809685Y921589D01*
X814315Y921589D01*
X817589Y918315D01*
X817589Y882295D01*
X817617Y882258D01*
X817619Y882249D01*
X817799Y882175D01*
X821175Y878799D01*
X823002Y874387D01*
X823002Y869613D01*
X821175Y865201D01*
X817799Y861825D01*
X813387Y859998D01*
X808613Y859998D01*
G37*
%LPD*%
%LPC*%
G36*
X724613Y859998D02*
X724613Y859998D01*
X720201Y861825D01*
X716825Y865201D01*
X714998Y869613D01*
X714998Y874387D01*
X716825Y878799D01*
X720201Y882175D01*
X721381Y882664D01*
X721404Y882704D01*
X721411Y882709D01*
X721411Y917315D01*
X724685Y920589D01*
X729315Y920589D01*
X732589Y917315D01*
X732589Y882709D01*
X732617Y882672D01*
X732619Y882664D01*
X733799Y882175D01*
X737175Y878799D01*
X739002Y874387D01*
X739002Y869613D01*
X737175Y865201D01*
X733799Y861825D01*
X729387Y859998D01*
X724613Y859998D01*
G37*
%LPD*%
%LPC*%
G36*
X943613Y861998D02*
X943613Y861998D01*
X939201Y863825D01*
X935825Y867201D01*
X933998Y871613D01*
X933998Y876387D01*
X935825Y880799D01*
X939201Y884175D01*
X940381Y884664D01*
X940404Y884704D01*
X940411Y884709D01*
X940411Y915315D01*
X943685Y918589D01*
X948315Y918589D01*
X951589Y915315D01*
X951589Y884709D01*
X951617Y884672D01*
X951619Y884664D01*
X952799Y884175D01*
X956175Y880799D01*
X958002Y876387D01*
X958002Y871613D01*
X956175Y867201D01*
X952799Y863825D01*
X948387Y861998D01*
X943613Y861998D01*
G37*
%LPD*%
%LPC*%
G36*
X985613Y861998D02*
X985613Y861998D01*
X981201Y863825D01*
X977825Y867201D01*
X975998Y871613D01*
X975998Y876387D01*
X977825Y880799D01*
X981201Y884175D01*
X982381Y884664D01*
X982404Y884704D01*
X982411Y884709D01*
X982411Y907665D01*
X982395Y907686D01*
X982397Y907699D01*
X981411Y908685D01*
X981411Y913315D01*
X984685Y916589D01*
X989315Y916589D01*
X993589Y912315D01*
X993589Y884709D01*
X993617Y884672D01*
X993619Y884664D01*
X994799Y884175D01*
X998175Y880799D01*
X1000002Y876387D01*
X1000002Y871613D01*
X998175Y867201D01*
X994799Y863825D01*
X990387Y861998D01*
X985613Y861998D01*
G37*
%LPD*%
%LPC*%
G36*
X1069613Y861998D02*
X1069613Y861998D01*
X1065201Y863825D01*
X1061825Y867201D01*
X1059998Y871613D01*
X1059998Y876387D01*
X1061825Y880799D01*
X1065201Y884175D01*
X1066381Y884664D01*
X1066404Y884704D01*
X1066411Y884709D01*
X1066411Y913315D01*
X1069685Y916589D01*
X1074315Y916589D01*
X1077589Y913315D01*
X1077589Y884709D01*
X1077617Y884672D01*
X1077619Y884664D01*
X1078799Y884175D01*
X1082175Y880799D01*
X1084002Y876387D01*
X1084002Y871613D01*
X1082175Y867201D01*
X1078799Y863825D01*
X1074387Y861998D01*
X1069613Y861998D01*
G37*
%LPD*%
%LPC*%
G36*
X321368Y339975D02*
X321368Y339975D01*
X320475Y340868D01*
X320475Y340886D01*
X320439Y340933D01*
X320432Y340928D01*
X320426Y340935D01*
X294953Y340935D01*
X288614Y347275D01*
X288587Y347279D01*
X288579Y347289D01*
X284063Y347289D01*
X283170Y348182D01*
X283170Y354018D01*
X284063Y354911D01*
X288579Y354911D01*
X288600Y354927D01*
X288614Y354925D01*
X288853Y355165D01*
X292221Y355165D01*
X292460Y354925D01*
X292487Y354921D01*
X292495Y354911D01*
X297011Y354911D01*
X297904Y354018D01*
X297904Y349502D01*
X297920Y349481D01*
X297918Y349467D01*
X298306Y349079D01*
X298333Y349075D01*
X298341Y349065D01*
X320426Y349065D01*
X320473Y349101D01*
X320468Y349108D01*
X320475Y349114D01*
X320475Y349132D01*
X321368Y350025D01*
X330632Y350025D01*
X331525Y349132D01*
X331525Y340868D01*
X330632Y339975D01*
X321368Y339975D01*
G37*
%LPD*%
%LPC*%
G36*
X881368Y338975D02*
X881368Y338975D01*
X880475Y339868D01*
X880475Y339886D01*
X880439Y339933D01*
X880432Y339928D01*
X880426Y339935D01*
X854953Y339935D01*
X848614Y346275D01*
X848587Y346279D01*
X848579Y346289D01*
X844063Y346289D01*
X843170Y347182D01*
X843170Y353018D01*
X844063Y353911D01*
X848579Y353911D01*
X848600Y353927D01*
X848614Y353925D01*
X848853Y354165D01*
X852221Y354165D01*
X852460Y353925D01*
X852487Y353921D01*
X852495Y353911D01*
X857011Y353911D01*
X857904Y353018D01*
X857904Y348502D01*
X857920Y348481D01*
X857918Y348467D01*
X858306Y348079D01*
X858333Y348076D01*
X858341Y348065D01*
X880426Y348065D01*
X880473Y348101D01*
X880468Y348108D01*
X880475Y348114D01*
X880475Y348132D01*
X881368Y349025D01*
X890632Y349025D01*
X891525Y348132D01*
X891525Y339868D01*
X890632Y338975D01*
X881368Y338975D01*
G37*
%LPD*%
%LPC*%
G36*
X962368Y338975D02*
X962368Y338975D01*
X961475Y339868D01*
X961475Y339886D01*
X961439Y339933D01*
X961432Y339928D01*
X961426Y339935D01*
X935953Y339935D01*
X929614Y346275D01*
X929587Y346279D01*
X929579Y346289D01*
X925063Y346289D01*
X924170Y347182D01*
X924170Y353018D01*
X925063Y353911D01*
X929579Y353911D01*
X929600Y353927D01*
X929614Y353925D01*
X929853Y354165D01*
X933221Y354165D01*
X933460Y353925D01*
X933487Y353921D01*
X933495Y353911D01*
X938011Y353911D01*
X938904Y353018D01*
X938904Y348502D01*
X938920Y348481D01*
X938918Y348467D01*
X939306Y348079D01*
X939333Y348076D01*
X939341Y348065D01*
X961426Y348065D01*
X961473Y348101D01*
X961468Y348108D01*
X961475Y348114D01*
X961475Y348132D01*
X962368Y349025D01*
X971632Y349025D01*
X972525Y348132D01*
X972525Y339868D01*
X971632Y338975D01*
X962368Y338975D01*
G37*
%LPD*%
%LPC*%
G36*
X481368Y338975D02*
X481368Y338975D01*
X480475Y339868D01*
X480475Y339886D01*
X480439Y339933D01*
X480432Y339928D01*
X480426Y339935D01*
X454953Y339935D01*
X448614Y346275D01*
X448587Y346279D01*
X448579Y346289D01*
X444063Y346289D01*
X443170Y347182D01*
X443170Y353018D01*
X444063Y353911D01*
X448579Y353911D01*
X448600Y353927D01*
X448614Y353925D01*
X448853Y354165D01*
X452221Y354165D01*
X452460Y353925D01*
X452487Y353921D01*
X452495Y353911D01*
X457011Y353911D01*
X457904Y353018D01*
X457904Y348502D01*
X457920Y348481D01*
X457918Y348467D01*
X458306Y348079D01*
X458333Y348076D01*
X458341Y348065D01*
X480426Y348065D01*
X480473Y348101D01*
X480468Y348108D01*
X480475Y348114D01*
X480475Y348132D01*
X481368Y349025D01*
X490632Y349025D01*
X491525Y348132D01*
X491525Y339868D01*
X490632Y338975D01*
X481368Y338975D01*
G37*
%LPD*%
%LPC*%
G36*
X401368Y338975D02*
X401368Y338975D01*
X400475Y339868D01*
X400475Y339886D01*
X400439Y339933D01*
X400432Y339928D01*
X400426Y339935D01*
X374953Y339935D01*
X368614Y346275D01*
X368587Y346279D01*
X368579Y346289D01*
X364063Y346289D01*
X363170Y347182D01*
X363170Y353018D01*
X364063Y353911D01*
X368579Y353911D01*
X368600Y353927D01*
X368614Y353925D01*
X368853Y354165D01*
X372221Y354165D01*
X372460Y353925D01*
X372487Y353921D01*
X372495Y353911D01*
X377011Y353911D01*
X377904Y353018D01*
X377904Y348502D01*
X377920Y348481D01*
X377918Y348467D01*
X378306Y348079D01*
X378333Y348076D01*
X378341Y348065D01*
X400426Y348065D01*
X400473Y348101D01*
X400468Y348108D01*
X400475Y348114D01*
X400475Y348132D01*
X401368Y349025D01*
X410632Y349025D01*
X411525Y348132D01*
X411525Y339868D01*
X410632Y338975D01*
X401368Y338975D01*
G37*
%LPD*%
%LPC*%
G36*
X241368Y339975D02*
X241368Y339975D01*
X240475Y340868D01*
X240475Y340886D01*
X240439Y340933D01*
X240432Y340928D01*
X240426Y340935D01*
X214953Y340935D01*
X208614Y347275D01*
X208587Y347279D01*
X208579Y347289D01*
X204063Y347289D01*
X203170Y348182D01*
X203170Y354018D01*
X204063Y354911D01*
X208579Y354911D01*
X208600Y354927D01*
X208614Y354925D01*
X208853Y355165D01*
X212221Y355165D01*
X212460Y354925D01*
X212487Y354921D01*
X212495Y354911D01*
X217011Y354911D01*
X217904Y354018D01*
X217904Y349502D01*
X217920Y349481D01*
X217918Y349467D01*
X218306Y349079D01*
X218333Y349075D01*
X218341Y349065D01*
X240426Y349065D01*
X240473Y349101D01*
X240468Y349108D01*
X240475Y349114D01*
X240475Y349132D01*
X241368Y350025D01*
X250632Y350025D01*
X251525Y349132D01*
X251525Y340868D01*
X250632Y339975D01*
X241368Y339975D01*
G37*
%LPD*%
%LPC*%
G36*
X801368Y338975D02*
X801368Y338975D01*
X800475Y339868D01*
X800475Y339886D01*
X800439Y339933D01*
X800432Y339928D01*
X800426Y339935D01*
X774953Y339935D01*
X768614Y346275D01*
X768587Y346279D01*
X768579Y346289D01*
X764063Y346289D01*
X763170Y347182D01*
X763170Y353018D01*
X764063Y353911D01*
X768579Y353911D01*
X768600Y353927D01*
X768614Y353925D01*
X768853Y354165D01*
X772221Y354165D01*
X772460Y353925D01*
X772487Y353921D01*
X772495Y353911D01*
X777011Y353911D01*
X777904Y353018D01*
X777904Y348502D01*
X777920Y348481D01*
X777918Y348467D01*
X778306Y348079D01*
X778333Y348076D01*
X778341Y348065D01*
X800426Y348065D01*
X800473Y348101D01*
X800468Y348108D01*
X800475Y348114D01*
X800475Y348132D01*
X801368Y349025D01*
X810632Y349025D01*
X811525Y348132D01*
X811525Y339868D01*
X810632Y338975D01*
X801368Y338975D01*
G37*
%LPD*%
%LPC*%
G36*
X561368Y338975D02*
X561368Y338975D01*
X560475Y339868D01*
X560475Y339886D01*
X560439Y339933D01*
X560432Y339928D01*
X560426Y339935D01*
X534953Y339935D01*
X528614Y346275D01*
X528587Y346279D01*
X528579Y346289D01*
X524063Y346289D01*
X523170Y347182D01*
X523170Y353018D01*
X524063Y353911D01*
X528579Y353911D01*
X528600Y353927D01*
X528614Y353925D01*
X528853Y354165D01*
X532221Y354165D01*
X532460Y353925D01*
X532487Y353921D01*
X532495Y353911D01*
X537011Y353911D01*
X537904Y353018D01*
X537904Y348502D01*
X537920Y348481D01*
X537918Y348467D01*
X538306Y348079D01*
X538333Y348076D01*
X538341Y348065D01*
X560426Y348065D01*
X560473Y348101D01*
X560468Y348108D01*
X560475Y348114D01*
X560475Y348132D01*
X561368Y349025D01*
X570632Y349025D01*
X571525Y348132D01*
X571525Y339868D01*
X570632Y338975D01*
X561368Y338975D01*
G37*
%LPD*%
%LPC*%
G36*
X721368Y338975D02*
X721368Y338975D01*
X720475Y339868D01*
X720475Y339886D01*
X720439Y339933D01*
X720432Y339928D01*
X720426Y339935D01*
X694953Y339935D01*
X688614Y346275D01*
X688587Y346279D01*
X688579Y346289D01*
X684063Y346289D01*
X683170Y347182D01*
X683170Y353018D01*
X684063Y353911D01*
X688579Y353911D01*
X688600Y353927D01*
X688614Y353925D01*
X688853Y354165D01*
X692221Y354165D01*
X692460Y353925D01*
X692487Y353921D01*
X692495Y353911D01*
X697011Y353911D01*
X697904Y353018D01*
X697904Y348502D01*
X697920Y348481D01*
X697918Y348467D01*
X698306Y348079D01*
X698333Y348076D01*
X698341Y348065D01*
X720426Y348065D01*
X720473Y348101D01*
X720468Y348108D01*
X720475Y348114D01*
X720475Y348132D01*
X721368Y349025D01*
X730632Y349025D01*
X731525Y348132D01*
X731525Y339868D01*
X730632Y338975D01*
X721368Y338975D01*
G37*
%LPD*%
%LPC*%
G36*
X641368Y338975D02*
X641368Y338975D01*
X640475Y339868D01*
X640475Y339886D01*
X640439Y339933D01*
X640432Y339928D01*
X640426Y339935D01*
X614953Y339935D01*
X608614Y346275D01*
X608587Y346279D01*
X608579Y346289D01*
X604063Y346289D01*
X603170Y347182D01*
X603170Y353018D01*
X604063Y353911D01*
X608579Y353911D01*
X608600Y353927D01*
X608614Y353925D01*
X608853Y354165D01*
X612221Y354165D01*
X612460Y353925D01*
X612487Y353921D01*
X612495Y353911D01*
X617011Y353911D01*
X617904Y353018D01*
X617904Y348502D01*
X617920Y348481D01*
X617918Y348467D01*
X618306Y348079D01*
X618333Y348076D01*
X618341Y348065D01*
X640426Y348065D01*
X640473Y348101D01*
X640468Y348108D01*
X640475Y348114D01*
X640475Y348132D01*
X641368Y349025D01*
X650632Y349025D01*
X651525Y348132D01*
X651525Y339868D01*
X650632Y338975D01*
X641368Y338975D01*
G37*
%LPD*%
%LPC*%
G36*
X966802Y327693D02*
X966802Y327693D01*
X963693Y330802D01*
X963693Y335198D01*
X966802Y338307D01*
X971198Y338307D01*
X974307Y335198D01*
X974307Y330802D01*
X971198Y327693D01*
X966802Y327693D01*
G37*
%LPD*%
%LPC*%
G36*
X885802Y327693D02*
X885802Y327693D01*
X882693Y330802D01*
X882693Y335198D01*
X885802Y338307D01*
X890198Y338307D01*
X893307Y335198D01*
X893307Y330802D01*
X890198Y327693D01*
X885802Y327693D01*
G37*
%LPD*%
%LPC*%
G36*
X725802Y327693D02*
X725802Y327693D01*
X722693Y330802D01*
X722693Y335198D01*
X725802Y338307D01*
X730198Y338307D01*
X733307Y335198D01*
X733307Y330802D01*
X730198Y327693D01*
X725802Y327693D01*
G37*
%LPD*%
%LPC*%
G36*
X565802Y327693D02*
X565802Y327693D01*
X562693Y330802D01*
X562693Y335198D01*
X565802Y338307D01*
X570198Y338307D01*
X573307Y335198D01*
X573307Y330802D01*
X570198Y327693D01*
X565802Y327693D01*
G37*
%LPD*%
%LPC*%
G36*
X405802Y327693D02*
X405802Y327693D01*
X402693Y330802D01*
X402693Y335198D01*
X405802Y338307D01*
X410198Y338307D01*
X413307Y335198D01*
X413307Y330802D01*
X410198Y327693D01*
X405802Y327693D01*
G37*
%LPD*%
%LPC*%
G36*
X325802Y328693D02*
X325802Y328693D01*
X322693Y331802D01*
X322693Y336198D01*
X325802Y339307D01*
X330198Y339307D01*
X333307Y336198D01*
X333307Y331802D01*
X330198Y328693D01*
X325802Y328693D01*
G37*
%LPD*%
%LPC*%
G36*
X245802Y328693D02*
X245802Y328693D01*
X242693Y331802D01*
X242693Y336198D01*
X245802Y339307D01*
X250198Y339307D01*
X253307Y336198D01*
X253307Y331802D01*
X250198Y328693D01*
X245802Y328693D01*
G37*
%LPD*%
%LPC*%
G36*
X645802Y327693D02*
X645802Y327693D01*
X642693Y330802D01*
X642693Y335198D01*
X645802Y338307D01*
X650198Y338307D01*
X653307Y335198D01*
X653307Y330802D01*
X650198Y327693D01*
X645802Y327693D01*
G37*
%LPD*%
D10*
X197000Y814000D03*
D11*
X155000Y814000D03*
X113000Y814000D03*
X71000Y814000D03*
X197000Y869000D03*
X155000Y869000D03*
X113000Y869000D03*
X71000Y869000D03*
D10*
X198000Y1074000D03*
D11*
X156000Y1074000D03*
X114000Y1074000D03*
X72000Y1074000D03*
X198000Y1129000D03*
X156000Y1129000D03*
X114000Y1129000D03*
X72000Y1129000D03*
D10*
X410000Y817000D03*
D11*
X368000Y817000D03*
X326000Y817000D03*
X284000Y817000D03*
X410000Y872000D03*
X368000Y872000D03*
X326000Y872000D03*
X284000Y872000D03*
D10*
X419000Y1074000D03*
D11*
X377000Y1074000D03*
X335000Y1074000D03*
X293000Y1074000D03*
X419000Y1129000D03*
X377000Y1129000D03*
X335000Y1129000D03*
X293000Y1129000D03*
D10*
X640000Y817000D03*
D11*
X598000Y817000D03*
X556000Y817000D03*
X514000Y817000D03*
X640000Y872000D03*
X598000Y872000D03*
X556000Y872000D03*
X514000Y872000D03*
D10*
X641000Y1076000D03*
D11*
X599000Y1076000D03*
X557000Y1076000D03*
X515000Y1076000D03*
X641000Y1131000D03*
X599000Y1131000D03*
X557000Y1131000D03*
X515000Y1131000D03*
D10*
X488000Y539000D03*
D11*
X446000Y539000D03*
X404000Y539000D03*
X362000Y539000D03*
X488000Y594000D03*
X446000Y594000D03*
X404000Y594000D03*
X362000Y594000D03*
D10*
X267000Y538000D03*
D11*
X225000Y538000D03*
X183000Y538000D03*
X141000Y538000D03*
X267000Y593000D03*
X225000Y593000D03*
X183000Y593000D03*
X141000Y593000D03*
D10*
X856000Y1070000D03*
D11*
X814000Y1070000D03*
X772000Y1070000D03*
X730000Y1070000D03*
X856000Y1125000D03*
X814000Y1125000D03*
X772000Y1125000D03*
X730000Y1125000D03*
D10*
X1075000Y1073000D03*
D11*
X1033000Y1073000D03*
X991000Y1073000D03*
X949000Y1073000D03*
X1075000Y1128000D03*
X1033000Y1128000D03*
X991000Y1128000D03*
X949000Y1128000D03*
D10*
X1072000Y819000D03*
D11*
X1030000Y819000D03*
X988000Y819000D03*
X946000Y819000D03*
X1072000Y874000D03*
X1030000Y874000D03*
X988000Y874000D03*
X946000Y874000D03*
D10*
X853000Y817000D03*
D11*
X811000Y817000D03*
X769000Y817000D03*
X727000Y817000D03*
X853000Y872000D03*
X811000Y872000D03*
X769000Y872000D03*
X727000Y872000D03*
D12*
X200000Y400000D03*
D13*
X212446Y400000D03*
X224892Y400000D03*
D14*
X50000Y459000D02*
X30000Y459000D01*
X30000Y420900D02*
X50000Y420900D01*
X50000Y382800D02*
X30000Y382800D01*
X30000Y344700D02*
X50000Y344700D01*
X50000Y278000D02*
X30000Y278000D01*
X30000Y239900D02*
X50000Y239900D01*
X50000Y201800D02*
X30000Y201800D01*
X30000Y163700D02*
X50000Y163700D01*
X112000Y49000D02*
X112000Y29000D01*
X150100Y29000D02*
X150100Y49000D01*
X188200Y49000D02*
X188200Y29000D01*
X226300Y29000D02*
X226300Y49000D01*
X282000Y48000D02*
X282000Y28000D01*
X320100Y28000D02*
X320100Y48000D01*
X358200Y48000D02*
X358200Y28000D01*
X396300Y28000D02*
X396300Y48000D01*
X452000Y50000D02*
X452000Y30000D01*
X490100Y30000D02*
X490100Y50000D01*
X528200Y50000D02*
X528200Y30000D01*
X566300Y30000D02*
X566300Y50000D01*
X621000Y48000D02*
X621000Y28000D01*
X659100Y28000D02*
X659100Y48000D01*
X697200Y48000D02*
X697200Y28000D01*
X735300Y28000D02*
X735300Y48000D01*
X789000Y50000D02*
X789000Y30000D01*
X827100Y30000D02*
X827100Y50000D01*
X865200Y50000D02*
X865200Y30000D01*
X903300Y30000D02*
X903300Y50000D01*
X955000Y51000D02*
X955000Y31000D01*
X993100Y31000D02*
X993100Y51000D01*
X1031200Y51000D02*
X1031200Y31000D01*
X1069300Y31000D02*
X1069300Y51000D01*
X1102000Y144000D02*
X1122000Y144000D01*
X1122000Y182100D02*
X1102000Y182100D01*
X1102000Y220200D02*
X1122000Y220200D01*
X1122000Y258300D02*
X1102000Y258300D01*
X1102000Y314000D02*
X1122000Y314000D01*
X1122000Y352100D02*
X1102000Y352100D01*
X1102000Y390200D02*
X1122000Y390200D01*
X1122000Y428300D02*
X1102000Y428300D01*
D12*
X280000Y400000D03*
D13*
X292446Y400000D03*
X304892Y400000D03*
D12*
X360000Y400000D03*
D13*
X372446Y400000D03*
X384892Y400000D03*
D12*
X440000Y400000D03*
D13*
X452446Y400000D03*
X464892Y400000D03*
D12*
X520000Y400000D03*
D13*
X532446Y400000D03*
X544892Y400000D03*
D12*
X600000Y400000D03*
D13*
X612446Y400000D03*
X624892Y400000D03*
D12*
X680000Y400000D03*
D13*
X692446Y400000D03*
X704892Y400000D03*
D12*
X760000Y400000D03*
D13*
X772446Y400000D03*
X784892Y400000D03*
D12*
X840000Y400000D03*
D13*
X852446Y400000D03*
X864892Y400000D03*
D12*
X920000Y400000D03*
D13*
X932446Y400000D03*
X944892Y400000D03*
D15*
X210537Y351100D03*
X210537Y364100D03*
X228063Y357600D03*
D16*
X246000Y357000D03*
X246000Y345000D03*
D15*
X290537Y351100D03*
X290537Y364100D03*
X308063Y357600D03*
D16*
X326000Y357000D03*
X326000Y345000D03*
D15*
X370537Y350100D03*
X370537Y363100D03*
X388063Y356600D03*
D16*
X406000Y356000D03*
X406000Y344000D03*
D15*
X450537Y350100D03*
X450537Y363100D03*
X468063Y356600D03*
D16*
X486000Y356000D03*
X486000Y344000D03*
D15*
X530537Y350100D03*
X530537Y363100D03*
X548063Y356600D03*
D16*
X566000Y356000D03*
X566000Y344000D03*
D15*
X610537Y350100D03*
X610537Y363100D03*
X628063Y356600D03*
D16*
X646000Y356000D03*
X646000Y344000D03*
D15*
X690537Y350100D03*
X690537Y363100D03*
X708063Y356600D03*
D16*
X726000Y356000D03*
X726000Y344000D03*
D15*
X770537Y350100D03*
X770537Y363100D03*
X788063Y356600D03*
D16*
X806000Y356000D03*
X806000Y344000D03*
D15*
X850537Y350100D03*
X850537Y363100D03*
X868063Y356600D03*
D16*
X886000Y356000D03*
X886000Y344000D03*
D15*
X931537Y350100D03*
X931537Y363100D03*
X949063Y356600D03*
D16*
X967000Y356000D03*
X967000Y344000D03*
D17*
X155000Y1026000D03*
D18*
X176066Y1004935D01*
X176066Y835066D01*
X155000Y814000D01*
D17*
X113000Y918000D03*
D18*
X113000Y869000D01*
D17*
X113000Y1026000D03*
D18*
X135000Y1004000D02*
X135000Y836000D01*
X113000Y814000D01*
X135000Y1004000D02*
X113000Y1026000D01*
D17*
X71000Y916000D03*
D18*
X71000Y869000D01*
D17*
X71000Y1027000D03*
D18*
X93066Y1004935D01*
X93066Y836066D01*
X71000Y814000D01*
D17*
X155000Y918000D03*
D18*
X155000Y869000D01*
D17*
X197000Y918000D03*
D18*
X197000Y869000D01*
D17*
X197000Y1026000D03*
D18*
X215000Y1008000D02*
X215000Y832000D01*
X197000Y814000D01*
X215000Y1008000D02*
X197000Y1026000D01*
D17*
X156000Y1286000D03*
D18*
X177066Y1264935D01*
X177066Y1095066D01*
X156000Y1074000D01*
D17*
X114000Y1178000D03*
D18*
X114000Y1129000D01*
D17*
X114000Y1286000D03*
D18*
X133000Y1267000D01*
X133000Y1093000D01*
X114000Y1074000D01*
D17*
X72000Y1176000D03*
D18*
X72000Y1129000D01*
D17*
X72000Y1287000D03*
D18*
X94066Y1264935D01*
X94066Y1096345D01*
X72000Y1074280D02*
X72000Y1074000D01*
X72000Y1074280D02*
X94066Y1096345D01*
D17*
X156000Y1178000D03*
D18*
X156000Y1129000D01*
D17*
X198000Y1178000D03*
D18*
X198000Y1129000D01*
D17*
X198000Y1286000D03*
D18*
X220000Y1264000D02*
X220000Y1096000D01*
X198000Y1074000D01*
X220000Y1264000D02*
X198000Y1286000D01*
D19*
X368500Y817500D02*
X368000Y817000D01*
D17*
X368000Y1029000D03*
D18*
X386000Y1011000D01*
X386000Y835000D02*
X368500Y817500D01*
X386000Y835000D02*
X386000Y1011000D01*
D17*
X326000Y921000D03*
D18*
X326000Y872000D01*
D17*
X326000Y1029000D03*
D18*
X345000Y836000D02*
X326000Y817000D01*
X345000Y836000D02*
X345000Y1010000D01*
X326000Y1029000D01*
D17*
X284000Y919000D03*
D19*
X284000Y918000D01*
D18*
X284000Y872000D01*
D17*
X284000Y1030000D03*
D18*
X306000Y1008000D01*
X306000Y839000D01*
X284000Y817000D01*
D17*
X368000Y921000D03*
D18*
X368000Y872000D01*
D17*
X410000Y921000D03*
D18*
X410000Y872000D01*
D17*
X410000Y1029000D03*
D18*
X432000Y1007000D02*
X432000Y839000D01*
X410000Y817000D01*
X432000Y1007000D02*
X410000Y1029000D01*
D17*
X377000Y1286000D03*
D18*
X399066Y1263935D01*
X399066Y1096066D01*
X377000Y1074000D01*
D17*
X335000Y1178000D03*
D18*
X335000Y1129000D01*
D17*
X335000Y1286000D03*
D19*
X336500Y1284500D01*
D18*
X355066Y1265935D02*
X355066Y1094066D01*
X335000Y1074000D01*
X355066Y1265935D02*
X336500Y1284500D01*
D17*
X293000Y1176000D03*
D18*
X293000Y1129000D01*
D17*
X293000Y1287000D03*
D18*
X312066Y1267935D01*
X312066Y1093066D01*
X293000Y1074000D01*
D17*
X377000Y1178000D03*
D18*
X377000Y1129000D01*
D17*
X419000Y1178000D03*
D18*
X419000Y1129000D01*
D17*
X419000Y1286000D03*
D18*
X443000Y1262000D01*
X443000Y1098000D01*
X419000Y1074000D01*
D17*
X598000Y1029000D03*
D18*
X617000Y1010000D01*
X617000Y836000D01*
X598000Y817000D01*
D17*
X556000Y921000D03*
D18*
X556000Y872000D01*
D17*
X556000Y1029000D03*
D18*
X576066Y1008935D01*
X576066Y837066D01*
X556000Y817000D01*
D17*
X514000Y919000D03*
D19*
X514000Y873000D02*
X514000Y872000D01*
D18*
X514000Y873000D02*
X514000Y919000D01*
D17*
X514000Y1030000D03*
D18*
X533000Y1011000D02*
X533000Y836000D01*
X514000Y817000D01*
X533000Y1011000D02*
X514000Y1030000D01*
D17*
X598000Y921000D03*
D18*
X598000Y872000D01*
D17*
X640000Y921000D03*
D18*
X640000Y872000D01*
D17*
X640000Y1029000D03*
D19*
X641000Y818000D02*
X640000Y817000D01*
D18*
X656066Y1012935D02*
X640000Y1029000D01*
X656066Y1012935D02*
X656066Y833066D01*
X641000Y818000D01*
D17*
X599000Y1288000D03*
D18*
X621000Y1098000D02*
X599000Y1076000D01*
X621000Y1266000D02*
X599000Y1288000D01*
X621000Y1266000D02*
X621000Y1098000D01*
D17*
X557000Y1180000D03*
D18*
X557000Y1131000D01*
D17*
X557000Y1288000D03*
D18*
X578000Y1267000D01*
X578000Y1097000D01*
X557000Y1076000D01*
D17*
X515000Y1178000D03*
D18*
X515000Y1131000D01*
D17*
X515000Y1289000D03*
D18*
X532000Y1272000D01*
X532000Y1093000D02*
X515000Y1076000D01*
X532000Y1093000D02*
X532000Y1272000D01*
D17*
X599000Y1180000D03*
D18*
X599000Y1131000D01*
D17*
X641000Y1180000D03*
D18*
X641000Y1131000D01*
D17*
X641000Y1288000D03*
D18*
X665000Y1264000D01*
X665000Y1100000D01*
X641000Y1076000D01*
D17*
X446000Y751000D03*
D18*
X468066Y728935D01*
X468066Y561066D01*
X446000Y539000D01*
D17*
X404000Y643000D03*
D19*
X404000Y642000D01*
D18*
X404000Y594000D01*
D17*
X404000Y751000D03*
D18*
X426000Y729000D02*
X426000Y561000D01*
X404000Y539000D01*
X426000Y729000D02*
X404000Y751000D01*
D17*
X362000Y641000D03*
D18*
X362000Y594000D01*
D17*
X362000Y752000D03*
D18*
X383000Y731000D02*
X383000Y560000D01*
X362000Y539000D01*
X383000Y731000D02*
X362000Y752000D01*
D17*
X446000Y643000D03*
D18*
X446000Y594000D01*
D17*
X488000Y643000D03*
D18*
X488000Y594000D01*
D17*
X488000Y751000D03*
D18*
X508000Y731000D02*
X508000Y559000D01*
X488000Y539000D01*
X508000Y731000D02*
X488000Y751000D01*
D17*
X225000Y750000D03*
D18*
X246000Y729000D02*
X246000Y559000D01*
X225000Y538000D01*
X246000Y729000D02*
X225000Y750000D01*
D17*
X183000Y642000D03*
D19*
X183000Y641000D01*
D18*
X183000Y593000D01*
D17*
X183000Y750000D03*
D18*
X206000Y727000D02*
X206000Y561000D01*
X183000Y538000D01*
X206000Y727000D02*
X183000Y750000D01*
D17*
X141000Y640000D03*
D18*
X141000Y593000D01*
D17*
X141000Y751000D03*
D18*
X161000Y731000D02*
X161000Y558000D01*
X141000Y538000D01*
X161000Y731000D02*
X141000Y751000D01*
D17*
X225000Y642000D03*
D18*
X225000Y593000D01*
D17*
X267000Y642000D03*
D19*
X267000Y641000D01*
D18*
X267000Y593000D01*
D17*
X267000Y750000D03*
D18*
X296000Y721000D02*
X296000Y567000D01*
X267000Y538000D01*
X296000Y721000D02*
X267000Y750000D01*
D17*
X814000Y1282000D03*
D18*
X837000Y1259000D02*
X837000Y1093000D01*
X814000Y1070000D01*
X837000Y1259000D02*
X814000Y1282000D01*
D17*
X772000Y1174000D03*
D18*
X772000Y1125000D01*
D17*
X772000Y1282000D03*
D18*
X792066Y1261935D02*
X792066Y1090066D01*
X772000Y1070000D01*
X792066Y1261935D02*
X772000Y1282000D01*
D17*
X730000Y1172000D03*
D18*
X730000Y1125000D01*
D17*
X730000Y1283000D03*
D18*
X752000Y1261000D02*
X752000Y1092000D01*
X730000Y1070000D01*
X752000Y1261000D02*
X730000Y1283000D01*
D17*
X814000Y1174000D03*
D19*
X814000Y1126000D02*
X814000Y1125000D01*
D18*
X814000Y1126000D02*
X814000Y1174000D01*
D17*
X856000Y1174000D03*
D18*
X856000Y1125000D01*
D17*
X856000Y1282000D03*
D19*
X857000Y1071000D02*
X856000Y1070000D01*
D18*
X857000Y1071000D02*
X872066Y1086066D01*
X872066Y1265935D02*
X856000Y1282000D01*
X872066Y1265935D02*
X872066Y1086066D01*
D19*
X1033000Y1073000D02*
X1034500Y1074500D01*
D17*
X1033000Y1285000D03*
D18*
X1057000Y1261000D01*
X1057000Y1097000D02*
X1034500Y1074500D01*
X1057000Y1097000D02*
X1057000Y1261000D01*
D17*
X991000Y1177000D03*
D18*
X991000Y1128000D01*
D17*
X991000Y1285000D03*
D18*
X1010000Y1092000D02*
X991000Y1073000D01*
X1010000Y1092000D02*
X1010000Y1266000D01*
X991000Y1285000D01*
D17*
X949000Y1175000D03*
D18*
X949000Y1128000D01*
D17*
X949000Y1286000D03*
D18*
X967000Y1268000D01*
X967000Y1091000D01*
X949000Y1073000D01*
D17*
X1033000Y1177000D03*
D18*
X1033000Y1128000D01*
D17*
X1075000Y1177000D03*
D18*
X1075000Y1128000D01*
D17*
X1075000Y1285000D03*
D18*
X1105935Y1254066D02*
X1105935Y1103935D01*
X1075000Y1073000D01*
X1105935Y1254066D02*
X1075000Y1285000D01*
D17*
X1030000Y1032000D03*
D19*
X1031500Y820500D02*
X1030000Y819000D01*
D18*
X1031500Y820500D02*
X1046066Y835066D01*
X1046066Y1015935D02*
X1030000Y1032000D01*
X1046066Y1015935D02*
X1046066Y835066D01*
D17*
X988000Y1032000D03*
D18*
X1008066Y839066D02*
X988000Y819000D01*
X1008066Y1011935D02*
X988000Y1032000D01*
X1008066Y1011935D02*
X1008066Y839066D01*
D17*
X947000Y1031000D03*
D18*
X968066Y1009935D01*
X968066Y841066D01*
X946000Y819000D01*
D17*
X1074000Y1031000D03*
D18*
X1093000Y1012000D02*
X1093000Y840000D01*
X1072000Y819000D01*
X1093000Y1012000D02*
X1074000Y1031000D01*
D17*
X1030000Y910000D03*
D18*
X1030000Y874000D01*
D19*
X988000Y874000D02*
X988000Y876000D01*
D17*
X987000Y911000D03*
D18*
X988000Y910000D01*
X988000Y876000D01*
D17*
X946000Y913000D03*
D18*
X946000Y874000D01*
D19*
X1072000Y874000D02*
X1072000Y877000D01*
D17*
X1072000Y911000D03*
D18*
X1072000Y877000D01*
D17*
X854000Y1035000D03*
D18*
X877066Y1011935D01*
X877066Y841066D01*
X853000Y817000D01*
D17*
X854000Y916000D03*
D18*
X853000Y915000D02*
X853000Y872000D01*
X853000Y915000D02*
X854000Y916000D01*
D17*
X812000Y1035000D03*
D18*
X832000Y1015000D01*
X832000Y839000D01*
X811000Y818000D01*
X811000Y817000D01*
D17*
X812000Y916000D03*
D18*
X812000Y873000D01*
X811000Y872000D01*
D17*
X770000Y1034000D03*
D18*
X788000Y1016000D01*
X788000Y836000D01*
X769000Y817000D01*
D17*
X770000Y916000D03*
D18*
X769000Y915000D02*
X769000Y872000D01*
X769000Y915000D02*
X770000Y916000D01*
D17*
X729000Y1034000D03*
D18*
X745000Y1018000D01*
X745000Y835000D01*
X727000Y817000D01*
D17*
X727000Y915000D03*
D18*
X727000Y872000D01*
X1048700Y428300D02*
X1112000Y428300D01*
X1048700Y428300D02*
X1047000Y430000D01*
D17*
X1047000Y430000D03*
D18*
X1047300Y258300D02*
X1112000Y258300D01*
X1047300Y258300D02*
X1047000Y258000D01*
D17*
X1047000Y258000D03*
D18*
X1069300Y108700D02*
X1069300Y41000D01*
X1069300Y108700D02*
X1042000Y136000D01*
D17*
X1042000Y136000D03*
D18*
X903300Y113700D02*
X903300Y40000D01*
X903300Y113700D02*
X903000Y114000D01*
D17*
X903000Y114000D03*
D18*
X566300Y113300D02*
X566300Y40000D01*
X566300Y113300D02*
X567000Y114000D01*
D17*
X567000Y114000D03*
D18*
X396300Y113700D02*
X396300Y38000D01*
X396300Y113700D02*
X396000Y114000D01*
D17*
X396000Y114000D03*
D18*
X226300Y113300D02*
X226300Y39000D01*
X226300Y113300D02*
X227000Y114000D01*
D17*
X227000Y114000D03*
D18*
X131300Y163700D02*
X40000Y163700D01*
X131300Y163700D02*
X133000Y162000D01*
D17*
X133000Y162000D03*
D18*
X130700Y344700D02*
X40000Y344700D01*
X130700Y344700D02*
X133000Y347000D01*
D17*
X133000Y347000D03*
D20*
X224892Y400000D02*
X224892Y446892D01*
X234000Y456000D01*
D17*
X234000Y456000D03*
D20*
X304892Y445892D02*
X304892Y400000D01*
X304892Y445892D02*
X315000Y456000D01*
D17*
X315000Y456000D03*
D20*
X384892Y449892D02*
X384892Y400000D01*
X384892Y449892D02*
X391000Y456000D01*
D17*
X391000Y456000D03*
D20*
X464892Y441892D02*
X464892Y400000D01*
X464892Y441892D02*
X479000Y456000D01*
D17*
X479000Y456000D03*
D20*
X544892Y443892D02*
X544892Y400000D01*
X544892Y443892D02*
X557000Y456000D01*
D17*
X557000Y456000D03*
D20*
X624892Y446892D02*
X624892Y400000D01*
X624892Y446892D02*
X634000Y456000D01*
D17*
X634000Y456000D03*
D20*
X704892Y449892D02*
X704892Y400000D01*
X704892Y449892D02*
X711000Y456000D01*
D17*
X711000Y456000D03*
D20*
X784892Y445892D02*
X784892Y400000D01*
X784892Y445892D02*
X795000Y456000D01*
D17*
X795000Y456000D03*
D20*
X864892Y441892D02*
X864892Y400000D01*
X864892Y441892D02*
X879000Y456000D01*
D17*
X879000Y456000D03*
D20*
X944892Y443892D02*
X944892Y400000D01*
X944892Y443892D02*
X957000Y456000D01*
D17*
X957000Y456000D03*
D20*
X246000Y378892D02*
X224892Y400000D01*
X246000Y378892D02*
X246000Y357000D01*
X228663Y357000D01*
X228063Y357600D01*
X304892Y400000D02*
X326000Y378892D01*
X326000Y357000D01*
X308663Y357000D01*
X308063Y357600D01*
X384892Y399000D02*
X406000Y377892D01*
X406000Y356000D01*
X388663Y356000D01*
X388063Y356600D01*
X464892Y399000D02*
X486000Y377892D01*
X486000Y356000D01*
X468663Y356000D01*
X468063Y356600D01*
X544892Y399000D02*
X566000Y377892D01*
X566000Y356000D01*
X548663Y356000D01*
X548063Y356600D01*
X624892Y399000D02*
X646000Y377892D01*
X646000Y356000D01*
X628663Y356000D01*
X628063Y356600D01*
X704892Y399000D02*
X726000Y377892D01*
X726000Y356000D01*
X708663Y356000D01*
X708063Y356600D01*
X784892Y399000D02*
X806000Y377892D01*
X806000Y356000D01*
X788663Y356000D01*
X788063Y356600D01*
X864892Y399000D02*
X886000Y377892D01*
X886000Y356000D01*
X868663Y356000D01*
X868063Y356600D01*
X945892Y399000D02*
X967000Y377892D01*
X967000Y356000D01*
X949663Y356000D01*
X949063Y356600D01*
X200000Y400000D02*
X182800Y382800D01*
X40000Y382800D01*
X200089Y370548D02*
X200040Y399960D01*
X206537Y364100D02*
X210537Y364100D01*
X206537Y364100D02*
X200089Y370548D01*
X200040Y399960D02*
X200000Y400000D01*
D18*
X110100Y420900D02*
X40000Y420900D01*
X110100Y420900D02*
X112000Y419000D01*
D17*
X112000Y419000D03*
D18*
X40000Y420900D02*
X40000Y459000D01*
X112000Y39000D02*
X150100Y39000D01*
X282000Y38000D02*
X320100Y38000D01*
X452000Y40000D02*
X490100Y40000D01*
X621000Y38000D02*
X659100Y38000D01*
X789000Y40000D02*
X827100Y40000D01*
X955000Y41000D02*
X993100Y41000D01*
X1112000Y144000D02*
X1112000Y182100D01*
X1112000Y314000D02*
X1112000Y352100D01*
X1064100Y352100D01*
X1064000Y352000D01*
D17*
X1064000Y352000D03*
D18*
X1064100Y182100D02*
X1112000Y182100D01*
X1064100Y182100D02*
X1064000Y182000D01*
D17*
X1064000Y182000D03*
D18*
X993100Y89900D02*
X993100Y41000D01*
X993100Y89900D02*
X993000Y90000D01*
D17*
X993000Y90000D03*
D18*
X827100Y89100D02*
X827100Y40000D01*
X827100Y89100D02*
X828000Y90000D01*
D17*
X828000Y90000D03*
D18*
X452000Y89000D02*
X452000Y40000D01*
X452000Y89000D02*
X453000Y90000D01*
D17*
X453000Y90000D03*
D18*
X282000Y89000D02*
X282000Y38000D01*
X282000Y89000D02*
X283000Y90000D01*
D17*
X283000Y90000D03*
D18*
X150100Y89900D02*
X150100Y39000D01*
X150100Y89900D02*
X150000Y90000D01*
D17*
X150000Y90000D03*
D18*
X40000Y239900D02*
X40000Y278000D01*
X112000Y278000D01*
D17*
X112000Y278000D03*
D20*
X212446Y400000D02*
X212446Y487554D01*
X212000Y488000D01*
D17*
X212000Y488000D03*
D20*
X292446Y487446D02*
X292446Y400000D01*
X292446Y487446D02*
X293000Y488000D01*
D17*
X293000Y488000D03*
D20*
X372446Y487554D02*
X372446Y400000D01*
X372446Y487554D02*
X372000Y488000D01*
D17*
X372000Y488000D03*
D20*
X452446Y487446D02*
X452446Y400000D01*
X452446Y487446D02*
X453000Y488000D01*
D17*
X453000Y488000D03*
D20*
X532446Y487446D02*
X532446Y400000D01*
X532446Y487446D02*
X533000Y488000D01*
D17*
X533000Y488000D03*
D20*
X612446Y487554D02*
X612446Y400000D01*
X612446Y487554D02*
X612000Y488000D01*
D17*
X612000Y488000D03*
D20*
X692446Y486554D02*
X692446Y400000D01*
X692446Y486554D02*
X691000Y488000D01*
D17*
X691000Y488000D03*
D20*
X772446Y487554D02*
X772446Y400000D01*
X772446Y487554D02*
X772000Y488000D01*
D17*
X772000Y488000D03*
D20*
X852446Y487446D02*
X852446Y400000D01*
X852446Y487446D02*
X853000Y488000D01*
D17*
X853000Y488000D03*
D20*
X932446Y487554D02*
X932446Y400000D01*
X932446Y487554D02*
X932000Y488000D01*
D17*
X932000Y488000D03*
X212000Y387000D03*
D20*
X212000Y399554D01*
X212446Y400000D01*
D17*
X292000Y387000D03*
D20*
X292000Y399554D01*
D17*
X372000Y386000D03*
D20*
X372000Y398554D01*
D17*
X452000Y386000D03*
D20*
X452000Y398554D01*
D17*
X532000Y386000D03*
D20*
X532000Y398554D01*
D17*
X612000Y386000D03*
D20*
X612000Y398554D01*
D17*
X692000Y386000D03*
D20*
X692000Y398554D01*
D17*
X772000Y386000D03*
D20*
X772000Y398554D01*
D17*
X852000Y386000D03*
D20*
X852000Y398554D01*
D17*
X933000Y386000D03*
D20*
X933000Y398554D01*
X214800Y201800D02*
X40000Y201800D01*
X264000Y384000D02*
X280000Y400000D01*
X264000Y384000D02*
X264000Y251000D01*
X214800Y201800D01*
X280089Y370548D02*
X280040Y399960D01*
X286537Y364100D02*
X290537Y364100D01*
X286537Y364100D02*
X280089Y370548D01*
X338000Y169495D02*
X299505Y131000D01*
X210200Y131000D01*
X188200Y109000D01*
X188200Y39000D01*
X338000Y378000D02*
X360000Y400000D01*
X338000Y378000D02*
X338000Y169495D01*
X360089Y369548D02*
X360040Y398960D01*
X366537Y363100D02*
X370537Y363100D01*
X366537Y363100D02*
X360089Y369548D01*
X421000Y381000D02*
X440000Y400000D01*
X421000Y381000D02*
X421000Y186495D01*
X358200Y123695D01*
X358200Y38000D01*
X440089Y369548D02*
X440040Y398960D01*
X446537Y363100D02*
X450537Y363100D01*
X446537Y363100D02*
X440089Y369548D01*
X497302Y377302D02*
X520000Y400000D01*
X497302Y377302D02*
X497302Y70898D01*
X528200Y40000D01*
X520089Y369548D02*
X520040Y398960D01*
X526537Y363100D02*
X530537Y363100D01*
X526537Y363100D02*
X520089Y369548D01*
X584302Y384302D02*
X600000Y400000D01*
X584302Y384302D02*
X584302Y138212D01*
X697200Y69000D02*
X697200Y38000D01*
X697200Y69000D02*
X665200Y101000D01*
X621514Y101000D01*
X584302Y138212D01*
X600089Y369548D02*
X600040Y398960D01*
X606537Y363100D02*
X610537Y363100D01*
X606537Y363100D02*
X600089Y369548D01*
X660302Y380302D02*
X680000Y400000D01*
X660302Y380302D02*
X660302Y190898D01*
X865200Y83000D02*
X865200Y40000D01*
X865200Y83000D02*
X849200Y99000D01*
X752200Y99000D01*
X660302Y190898D01*
X680089Y369548D02*
X680040Y398960D01*
X686537Y363100D02*
X690537Y363100D01*
X686537Y363100D02*
X680089Y369548D01*
X738000Y378000D02*
X760000Y400000D01*
X738000Y378000D02*
X738000Y173379D01*
X1031200Y88000D02*
X1031200Y41000D01*
X1031200Y88000D02*
X989200Y130000D01*
X781379Y130000D01*
X738000Y173379D01*
X760089Y369548D02*
X760040Y398960D01*
X766537Y363100D02*
X770537Y363100D01*
X766537Y363100D02*
X760089Y369548D01*
X817302Y377302D02*
X840000Y400000D01*
X817302Y377302D02*
X817302Y180212D01*
X851314Y146200D01*
X1065000Y220200D02*
X1112000Y220200D01*
X1065000Y220200D02*
X1051000Y206200D01*
X1051000Y175200D01*
X1022000Y146200D01*
X851314Y146200D01*
X840089Y369548D02*
X840040Y398960D01*
X846537Y363100D02*
X850537Y363100D01*
X846537Y363100D02*
X840089Y369548D01*
X900000Y380000D02*
X920000Y400000D01*
X900000Y380000D02*
X900000Y167000D01*
X908000Y159000D01*
X1014000Y159000D02*
X1034000Y179000D01*
X1034000Y371000D01*
X1033000Y372000D01*
X1051200Y390200D01*
X1112000Y390200D01*
X1014000Y159000D02*
X908000Y159000D01*
X921089Y369548D02*
X921040Y398960D01*
X927537Y363100D02*
X931537Y363100D01*
X927537Y363100D02*
X921089Y369548D01*
D17*
X248000Y334000D03*
D20*
X246000Y345000D02*
X216637Y345000D01*
X210537Y351100D01*
D17*
X328000Y334000D03*
D20*
X326000Y345000D02*
X296637Y345000D01*
X290537Y351100D01*
D17*
X408000Y333000D03*
D20*
X406000Y344000D02*
X376637Y344000D01*
X370537Y350100D01*
D17*
X488000Y333000D03*
D20*
X486000Y344000D02*
X456637Y344000D01*
X450537Y350100D01*
D17*
X568000Y333000D03*
D20*
X566000Y344000D02*
X536637Y344000D01*
X530537Y350100D01*
D17*
X648000Y333000D03*
D20*
X646000Y344000D02*
X616637Y344000D01*
X610537Y350100D01*
D17*
X728000Y333000D03*
D20*
X726000Y344000D02*
X696637Y344000D01*
X690537Y350100D01*
D17*
X808000Y333000D03*
D20*
X806000Y344000D02*
X776637Y344000D01*
X770537Y350100D01*
D17*
X888000Y333000D03*
D20*
X886000Y344000D02*
X856637Y344000D01*
X850537Y350100D01*
D17*
X969000Y333000D03*
D20*
X967000Y344000D02*
X937637Y344000D01*
X931537Y350100D01*
M02*
