G04 EAGLE Gerber RS-274X export*
G75*
%MOMM*%
%FSLAX34Y34*%
%LPD*%
%INTop Copper*%
%IPPOS*%
%AMOC8*
5,1,8,0,0,1.08239X$1,22.5*%
G01*
%ADD10R,1.500000X1.300000*%
%ADD11R,2.095500X2.095500*%
%ADD12C,2.095500*%
%ADD13R,1.016000X1.016000*%
%ADD14C,1.016000*%
%ADD15C,2.000000*%
%ADD16R,0.660400X1.041400*%
%ADD17C,0.812800*%
%ADD18C,0.756400*%
%ADD19C,0.254000*%
%ADD20C,0.508000*%

G36*
X1104148Y10169D02*
X1104148Y10169D01*
X1104162Y10167D01*
X1104164Y10180D01*
X1104185Y10197D01*
X1104169Y10218D01*
X1104173Y10245D01*
X1098670Y15748D01*
X1094839Y24995D01*
X1094839Y35005D01*
X1098670Y44252D01*
X1105748Y51330D01*
X1114995Y55161D01*
X1125005Y55161D01*
X1134252Y51330D01*
X1139755Y45827D01*
X1139769Y45826D01*
X1139777Y45815D01*
X1139784Y45820D01*
X1139785Y45818D01*
X1139790Y45818D01*
X1139796Y45822D01*
X1139814Y45819D01*
X1139817Y45838D01*
X1139837Y45854D01*
X1139834Y45858D01*
X1139839Y45862D01*
X1139839Y1304138D01*
X1139831Y1304148D01*
X1139833Y1304162D01*
X1139820Y1304164D01*
X1139803Y1304185D01*
X1139782Y1304169D01*
X1139755Y1304173D01*
X1134252Y1298670D01*
X1125005Y1294839D01*
X1114995Y1294839D01*
X1105748Y1298670D01*
X1098670Y1305748D01*
X1094839Y1314995D01*
X1094839Y1325005D01*
X1098670Y1334252D01*
X1104173Y1339755D01*
X1104174Y1339769D01*
X1104185Y1339777D01*
X1104177Y1339787D01*
X1104181Y1339814D01*
X1104154Y1339818D01*
X1104138Y1339839D01*
X45862Y1339839D01*
X45852Y1339831D01*
X45838Y1339833D01*
X45836Y1339820D01*
X45815Y1339803D01*
X45831Y1339782D01*
X45827Y1339755D01*
X51330Y1334252D01*
X55161Y1325005D01*
X55161Y1314995D01*
X51330Y1305748D01*
X44252Y1298670D01*
X35005Y1294839D01*
X24995Y1294839D01*
X15748Y1298670D01*
X10245Y1304173D01*
X10231Y1304174D01*
X10223Y1304185D01*
X10213Y1304177D01*
X10186Y1304181D01*
X10182Y1304154D01*
X10161Y1304138D01*
X10161Y45862D01*
X10169Y45852D01*
X10167Y45838D01*
X10180Y45836D01*
X10197Y45815D01*
X10207Y45822D01*
X10210Y45818D01*
X10215Y45818D01*
X10230Y45829D01*
X10245Y45827D01*
X15748Y51330D01*
X24995Y55161D01*
X35005Y55161D01*
X44252Y51330D01*
X51330Y44252D01*
X55161Y35005D01*
X55161Y24995D01*
X51330Y15748D01*
X45827Y10245D01*
X45826Y10231D01*
X45815Y10223D01*
X45823Y10213D01*
X45819Y10186D01*
X45846Y10182D01*
X45862Y10161D01*
X1104138Y10161D01*
X1104148Y10169D01*
G37*
%LPC*%
G36*
X178685Y108411D02*
X178685Y108411D01*
X127411Y159685D01*
X127411Y399315D01*
X189685Y461589D01*
X1024315Y461589D01*
X1053589Y432315D01*
X1053589Y427685D01*
X1052603Y426699D01*
X1052601Y426687D01*
X1052594Y426681D01*
X1052600Y426674D01*
X1052599Y426673D01*
X1052589Y426665D01*
X1052589Y138685D01*
X1022315Y108411D01*
X178685Y108411D01*
G37*
%LPD*%
G36*
X1017686Y119605D02*
X1017686Y119605D01*
X1017699Y119603D01*
X1041397Y143301D01*
X1041399Y143313D01*
X1041407Y143319D01*
X1041401Y143327D01*
X1041411Y143335D01*
X1041411Y428665D01*
X1041395Y428686D01*
X1041397Y428699D01*
X1019699Y450397D01*
X1019674Y450400D01*
X1019669Y450406D01*
X1019668Y450406D01*
X1019665Y450411D01*
X194335Y450411D01*
X194314Y450395D01*
X194301Y450397D01*
X138603Y394699D01*
X138600Y394676D01*
X138591Y394669D01*
X138592Y394667D01*
X138589Y394665D01*
X138589Y164335D01*
X138605Y164314D01*
X138603Y164301D01*
X183301Y119603D01*
X183326Y119600D01*
X183330Y119594D01*
X183331Y119594D01*
X183335Y119589D01*
X1017665Y119589D01*
X1017686Y119605D01*
G37*
%LPC*%
G36*
X620816Y254518D02*
X620816Y254518D01*
X619923Y255411D01*
X619923Y267089D01*
X620671Y267836D01*
X620675Y267863D01*
X620685Y267871D01*
X620685Y296129D01*
X620669Y296150D01*
X620671Y296164D01*
X619923Y296911D01*
X619923Y308589D01*
X620816Y309482D01*
X620886Y309482D01*
X620933Y309518D01*
X620928Y309525D01*
X620935Y309531D01*
X620935Y340426D01*
X620899Y340473D01*
X620892Y340468D01*
X620886Y340475D01*
X616868Y340475D01*
X615975Y341368D01*
X615975Y355632D01*
X616868Y356525D01*
X633132Y356525D01*
X634025Y355632D01*
X634025Y341368D01*
X633132Y340475D01*
X629114Y340475D01*
X629067Y340439D01*
X629072Y340432D01*
X629065Y340426D01*
X629065Y309121D01*
X629081Y309100D01*
X629079Y309086D01*
X629577Y308589D01*
X629577Y296911D01*
X628829Y296164D01*
X628825Y296137D01*
X628815Y296129D01*
X628815Y267871D01*
X628831Y267850D01*
X628829Y267836D01*
X629577Y267089D01*
X629577Y255411D01*
X628684Y254518D01*
X620816Y254518D01*
G37*
%LPD*%
%LPC*%
G36*
X780816Y254518D02*
X780816Y254518D01*
X779923Y255411D01*
X779923Y267089D01*
X780671Y267836D01*
X780675Y267863D01*
X780685Y267871D01*
X780685Y296129D01*
X780669Y296150D01*
X780671Y296164D01*
X779923Y296911D01*
X779923Y308589D01*
X780816Y309482D01*
X780886Y309482D01*
X780933Y309518D01*
X780928Y309525D01*
X780935Y309531D01*
X780935Y340426D01*
X780899Y340473D01*
X780892Y340468D01*
X780886Y340475D01*
X776868Y340475D01*
X775975Y341368D01*
X775975Y355632D01*
X776868Y356525D01*
X793132Y356525D01*
X794025Y355632D01*
X794025Y341368D01*
X793132Y340475D01*
X789114Y340475D01*
X789067Y340439D01*
X789072Y340432D01*
X789065Y340426D01*
X789065Y309121D01*
X789081Y309100D01*
X789079Y309086D01*
X789577Y308589D01*
X789577Y296911D01*
X788829Y296164D01*
X788825Y296137D01*
X788815Y296129D01*
X788815Y267871D01*
X788831Y267850D01*
X788829Y267836D01*
X789577Y267089D01*
X789577Y255411D01*
X788684Y254518D01*
X780816Y254518D01*
G37*
%LPD*%
%LPC*%
G36*
X860816Y254518D02*
X860816Y254518D01*
X859923Y255411D01*
X859923Y267089D01*
X860671Y267836D01*
X860675Y267863D01*
X860685Y267871D01*
X860685Y296129D01*
X860669Y296150D01*
X860671Y296164D01*
X859923Y296911D01*
X859923Y308589D01*
X860816Y309482D01*
X860886Y309482D01*
X860933Y309518D01*
X860928Y309525D01*
X860935Y309531D01*
X860935Y340426D01*
X860899Y340473D01*
X860892Y340468D01*
X860886Y340475D01*
X856868Y340475D01*
X855975Y341368D01*
X855975Y355632D01*
X856868Y356525D01*
X873132Y356525D01*
X874025Y355632D01*
X874025Y341368D01*
X873132Y340475D01*
X869114Y340475D01*
X869067Y340439D01*
X869072Y340432D01*
X869065Y340426D01*
X869065Y309121D01*
X869081Y309100D01*
X869079Y309086D01*
X869577Y308589D01*
X869577Y296911D01*
X868829Y296164D01*
X868825Y296137D01*
X868815Y296129D01*
X868815Y267871D01*
X868831Y267850D01*
X868829Y267836D01*
X869577Y267089D01*
X869577Y255411D01*
X868684Y254518D01*
X860816Y254518D01*
G37*
%LPD*%
%LPC*%
G36*
X540816Y254518D02*
X540816Y254518D01*
X539923Y255411D01*
X539923Y267089D01*
X540671Y267836D01*
X540675Y267863D01*
X540685Y267871D01*
X540685Y296129D01*
X540669Y296150D01*
X540671Y296164D01*
X539923Y296911D01*
X539923Y308589D01*
X540816Y309482D01*
X540886Y309482D01*
X540933Y309518D01*
X540928Y309525D01*
X540935Y309531D01*
X540935Y340426D01*
X540899Y340473D01*
X540892Y340468D01*
X540886Y340475D01*
X536868Y340475D01*
X535975Y341368D01*
X535975Y355632D01*
X536868Y356525D01*
X553132Y356525D01*
X554025Y355632D01*
X554025Y341368D01*
X553132Y340475D01*
X549114Y340475D01*
X549067Y340439D01*
X549072Y340432D01*
X549065Y340426D01*
X549065Y309121D01*
X549081Y309100D01*
X549079Y309086D01*
X549577Y308589D01*
X549577Y296911D01*
X548829Y296164D01*
X548825Y296137D01*
X548815Y296129D01*
X548815Y267871D01*
X548831Y267850D01*
X548829Y267836D01*
X549577Y267089D01*
X549577Y255411D01*
X548684Y254518D01*
X540816Y254518D01*
G37*
%LPD*%
%LPC*%
G36*
X460816Y254518D02*
X460816Y254518D01*
X459923Y255411D01*
X459923Y267089D01*
X460671Y267836D01*
X460675Y267863D01*
X460685Y267871D01*
X460685Y296129D01*
X460669Y296150D01*
X460671Y296164D01*
X459923Y296911D01*
X459923Y308589D01*
X460816Y309482D01*
X460886Y309482D01*
X460933Y309518D01*
X460928Y309525D01*
X460935Y309531D01*
X460935Y340426D01*
X460899Y340473D01*
X460892Y340468D01*
X460886Y340475D01*
X456868Y340475D01*
X455975Y341368D01*
X455975Y355632D01*
X456868Y356525D01*
X473132Y356525D01*
X474025Y355632D01*
X474025Y341368D01*
X473132Y340475D01*
X469114Y340475D01*
X469067Y340439D01*
X469072Y340432D01*
X469065Y340426D01*
X469065Y309121D01*
X469081Y309100D01*
X469079Y309086D01*
X469577Y308589D01*
X469577Y296911D01*
X468829Y296164D01*
X468825Y296137D01*
X468815Y296129D01*
X468815Y267871D01*
X468831Y267850D01*
X468829Y267836D01*
X469577Y267089D01*
X469577Y255411D01*
X468684Y254518D01*
X460816Y254518D01*
G37*
%LPD*%
%LPC*%
G36*
X380816Y254518D02*
X380816Y254518D01*
X379923Y255411D01*
X379923Y267089D01*
X380671Y267836D01*
X380675Y267863D01*
X380685Y267871D01*
X380685Y296129D01*
X380669Y296150D01*
X380671Y296164D01*
X379923Y296911D01*
X379923Y308589D01*
X380816Y309482D01*
X380886Y309482D01*
X380933Y309518D01*
X380928Y309525D01*
X380935Y309531D01*
X380935Y340426D01*
X380899Y340473D01*
X380892Y340468D01*
X380886Y340475D01*
X376868Y340475D01*
X375975Y341368D01*
X375975Y355632D01*
X376868Y356525D01*
X393132Y356525D01*
X394025Y355632D01*
X394025Y341368D01*
X393132Y340475D01*
X389114Y340475D01*
X389067Y340439D01*
X389072Y340432D01*
X389065Y340426D01*
X389065Y309121D01*
X389081Y309100D01*
X389079Y309086D01*
X389577Y308589D01*
X389577Y296911D01*
X388829Y296164D01*
X388825Y296137D01*
X388815Y296129D01*
X388815Y267871D01*
X388831Y267850D01*
X388829Y267836D01*
X389577Y267089D01*
X389577Y255411D01*
X388684Y254518D01*
X380816Y254518D01*
G37*
%LPD*%
%LPC*%
G36*
X941816Y254518D02*
X941816Y254518D01*
X940923Y255411D01*
X940923Y267089D01*
X941671Y267836D01*
X941675Y267863D01*
X941685Y267871D01*
X941685Y296129D01*
X941669Y296150D01*
X941671Y296164D01*
X940923Y296911D01*
X940923Y308589D01*
X941816Y309482D01*
X941886Y309482D01*
X941933Y309518D01*
X941928Y309525D01*
X941935Y309531D01*
X941935Y340426D01*
X941899Y340473D01*
X941892Y340468D01*
X941886Y340475D01*
X937868Y340475D01*
X936975Y341368D01*
X936975Y355632D01*
X937868Y356525D01*
X954132Y356525D01*
X955025Y355632D01*
X955025Y341368D01*
X954132Y340475D01*
X950114Y340475D01*
X950067Y340439D01*
X950072Y340432D01*
X950065Y340426D01*
X950065Y309121D01*
X950081Y309099D01*
X950079Y309086D01*
X950577Y308589D01*
X950577Y296911D01*
X949829Y296164D01*
X949825Y296137D01*
X949815Y296129D01*
X949815Y267871D01*
X949831Y267850D01*
X949829Y267836D01*
X950577Y267089D01*
X950577Y255411D01*
X949684Y254518D01*
X941816Y254518D01*
G37*
%LPD*%
%LPC*%
G36*
X700816Y254518D02*
X700816Y254518D01*
X699923Y255411D01*
X699923Y267089D01*
X700671Y267836D01*
X700675Y267863D01*
X700685Y267871D01*
X700685Y296129D01*
X700669Y296150D01*
X700671Y296164D01*
X699923Y296911D01*
X699923Y308589D01*
X700816Y309482D01*
X700886Y309482D01*
X700933Y309518D01*
X700928Y309525D01*
X700935Y309531D01*
X700935Y340426D01*
X700899Y340473D01*
X700892Y340468D01*
X700886Y340475D01*
X696868Y340475D01*
X695975Y341368D01*
X695975Y355632D01*
X696868Y356525D01*
X713132Y356525D01*
X714025Y355632D01*
X714025Y341368D01*
X713132Y340475D01*
X709114Y340475D01*
X709067Y340439D01*
X709072Y340432D01*
X709065Y340426D01*
X709065Y309121D01*
X709081Y309100D01*
X709079Y309086D01*
X709577Y308589D01*
X709577Y296911D01*
X708829Y296164D01*
X708825Y296137D01*
X708815Y296129D01*
X708815Y267871D01*
X708831Y267849D01*
X708829Y267836D01*
X709577Y267089D01*
X709577Y255411D01*
X708684Y254518D01*
X700816Y254518D01*
G37*
%LPD*%
%LPC*%
G36*
X220816Y255518D02*
X220816Y255518D01*
X219923Y256411D01*
X219923Y268089D01*
X220671Y268836D01*
X220673Y268850D01*
X220683Y268858D01*
X220678Y268865D01*
X220685Y268871D01*
X220685Y297129D01*
X220669Y297151D01*
X220671Y297164D01*
X219923Y297911D01*
X219923Y309589D01*
X220816Y310482D01*
X220886Y310482D01*
X220933Y310518D01*
X220931Y310521D01*
X220933Y310523D01*
X220930Y310527D01*
X220935Y310531D01*
X220935Y341426D01*
X220899Y341473D01*
X220892Y341468D01*
X220886Y341475D01*
X216868Y341475D01*
X215975Y342368D01*
X215975Y356632D01*
X216868Y357525D01*
X233132Y357525D01*
X234025Y356632D01*
X234025Y342368D01*
X233132Y341475D01*
X229114Y341475D01*
X229067Y341439D01*
X229071Y341433D01*
X229067Y341430D01*
X229068Y341428D01*
X229065Y341426D01*
X229065Y310121D01*
X229081Y310099D01*
X229079Y310086D01*
X229577Y309589D01*
X229577Y297911D01*
X228829Y297164D01*
X228825Y297137D01*
X228815Y297129D01*
X228815Y268871D01*
X228831Y268849D01*
X228829Y268836D01*
X229577Y268089D01*
X229577Y256411D01*
X228684Y255518D01*
X220816Y255518D01*
G37*
%LPD*%
%LPC*%
G36*
X300816Y255518D02*
X300816Y255518D01*
X299923Y256411D01*
X299923Y268089D01*
X300671Y268836D01*
X300673Y268850D01*
X300683Y268858D01*
X300678Y268865D01*
X300685Y268871D01*
X300685Y297129D01*
X300669Y297151D01*
X300671Y297164D01*
X299923Y297911D01*
X299923Y309589D01*
X300816Y310482D01*
X300886Y310482D01*
X300933Y310518D01*
X300931Y310521D01*
X300933Y310523D01*
X300930Y310527D01*
X300935Y310531D01*
X300935Y341426D01*
X300899Y341473D01*
X300892Y341468D01*
X300886Y341475D01*
X296868Y341475D01*
X295975Y342368D01*
X295975Y356632D01*
X296868Y357525D01*
X313132Y357525D01*
X314025Y356632D01*
X314025Y342368D01*
X313132Y341475D01*
X309114Y341475D01*
X309067Y341439D01*
X309071Y341433D01*
X309067Y341430D01*
X309068Y341428D01*
X309065Y341426D01*
X309065Y310121D01*
X309081Y310099D01*
X309079Y310086D01*
X309577Y309589D01*
X309577Y297911D01*
X308829Y297164D01*
X308825Y297137D01*
X308815Y297129D01*
X308815Y268871D01*
X308831Y268849D01*
X308829Y268836D01*
X309577Y268089D01*
X309577Y256411D01*
X308684Y255518D01*
X300816Y255518D01*
G37*
%LPD*%
%LPC*%
G36*
X1064868Y938475D02*
X1064868Y938475D01*
X1063975Y939368D01*
X1063975Y953632D01*
X1064868Y954525D01*
X1067362Y954525D01*
X1067409Y954561D01*
X1067407Y954564D01*
X1067409Y954565D01*
X1067406Y954570D01*
X1067411Y954574D01*
X1067411Y982426D01*
X1067375Y982473D01*
X1067368Y982468D01*
X1067362Y982475D01*
X1064868Y982475D01*
X1063975Y983368D01*
X1063975Y997632D01*
X1064868Y998525D01*
X1081132Y998525D01*
X1082025Y997632D01*
X1082025Y983368D01*
X1081132Y982475D01*
X1078638Y982475D01*
X1078591Y982439D01*
X1078596Y982432D01*
X1078589Y982426D01*
X1078589Y954574D01*
X1078625Y954527D01*
X1078632Y954532D01*
X1078638Y954525D01*
X1081132Y954525D01*
X1082025Y953632D01*
X1082025Y939368D01*
X1081132Y938475D01*
X1064868Y938475D01*
G37*
%LPD*%
%LPC*%
G36*
X1067008Y19475D02*
X1067008Y19475D01*
X1062772Y21230D01*
X1059530Y24472D01*
X1057775Y28708D01*
X1057775Y53292D01*
X1059530Y57528D01*
X1062772Y60770D01*
X1067008Y62525D01*
X1071592Y62525D01*
X1075828Y60770D01*
X1079070Y57528D01*
X1080825Y53292D01*
X1080825Y28708D01*
X1079070Y24472D01*
X1075828Y21230D01*
X1071592Y19475D01*
X1067008Y19475D01*
G37*
%LPD*%
%LPC*%
G36*
X27708Y152175D02*
X27708Y152175D01*
X23472Y153930D01*
X20230Y157172D01*
X18475Y161408D01*
X18475Y165992D01*
X20230Y170228D01*
X23472Y173470D01*
X27708Y175225D01*
X52292Y175225D01*
X56528Y173470D01*
X59770Y170228D01*
X61525Y165992D01*
X61525Y161408D01*
X59770Y157172D01*
X56528Y153930D01*
X52292Y152175D01*
X27708Y152175D01*
G37*
%LPD*%
%LPC*%
G36*
X27708Y190275D02*
X27708Y190275D01*
X23472Y192030D01*
X20230Y195272D01*
X18475Y199508D01*
X18475Y204092D01*
X20230Y208328D01*
X23472Y211570D01*
X27708Y213325D01*
X52292Y213325D01*
X56528Y211570D01*
X59770Y208328D01*
X61525Y204092D01*
X61525Y199508D01*
X59770Y195272D01*
X56528Y192030D01*
X52292Y190275D01*
X27708Y190275D01*
G37*
%LPD*%
%LPC*%
G36*
X1099708Y208675D02*
X1099708Y208675D01*
X1095472Y210430D01*
X1092230Y213672D01*
X1090475Y217908D01*
X1090475Y222492D01*
X1092230Y226728D01*
X1095472Y229970D01*
X1099708Y231725D01*
X1124292Y231725D01*
X1128528Y229970D01*
X1131770Y226728D01*
X1133525Y222492D01*
X1133525Y217908D01*
X1131770Y213672D01*
X1128528Y210430D01*
X1124292Y208675D01*
X1099708Y208675D01*
G37*
%LPD*%
%LPC*%
G36*
X1099708Y246775D02*
X1099708Y246775D01*
X1095472Y248530D01*
X1092230Y251772D01*
X1090475Y256008D01*
X1090475Y260592D01*
X1092230Y264828D01*
X1095472Y268070D01*
X1099708Y269825D01*
X1124292Y269825D01*
X1128528Y268070D01*
X1131770Y264828D01*
X1133525Y260592D01*
X1133525Y256008D01*
X1131770Y251772D01*
X1128528Y248530D01*
X1124292Y246775D01*
X1099708Y246775D01*
G37*
%LPD*%
%LPC*%
G36*
X27708Y333175D02*
X27708Y333175D01*
X23472Y334930D01*
X20230Y338172D01*
X18475Y342408D01*
X18475Y346992D01*
X20230Y351228D01*
X23472Y354470D01*
X27708Y356225D01*
X52292Y356225D01*
X56528Y354470D01*
X59770Y351228D01*
X61525Y346992D01*
X61525Y342408D01*
X59770Y338172D01*
X56528Y334930D01*
X52292Y333175D01*
X27708Y333175D01*
G37*
%LPD*%
%LPC*%
G36*
X564008Y18475D02*
X564008Y18475D01*
X559772Y20230D01*
X556530Y23472D01*
X554775Y27708D01*
X554775Y52292D01*
X556530Y56528D01*
X559772Y59770D01*
X564008Y61525D01*
X568592Y61525D01*
X572828Y59770D01*
X576070Y56528D01*
X577825Y52292D01*
X577825Y27708D01*
X576070Y23472D01*
X572828Y20230D01*
X568592Y18475D01*
X564008Y18475D01*
G37*
%LPD*%
%LPC*%
G36*
X862908Y18475D02*
X862908Y18475D01*
X858672Y20230D01*
X855430Y23472D01*
X853675Y27708D01*
X853675Y52292D01*
X855430Y56528D01*
X858672Y59770D01*
X862908Y61525D01*
X867492Y61525D01*
X871728Y59770D01*
X874970Y56528D01*
X876725Y52292D01*
X876725Y27708D01*
X874970Y23472D01*
X871728Y20230D01*
X867492Y18475D01*
X862908Y18475D01*
G37*
%LPD*%
%LPC*%
G36*
X27708Y371275D02*
X27708Y371275D01*
X23472Y373030D01*
X20230Y376272D01*
X18475Y380508D01*
X18475Y385092D01*
X20230Y389328D01*
X23472Y392570D01*
X27708Y394325D01*
X52292Y394325D01*
X56528Y392570D01*
X59770Y389328D01*
X61525Y385092D01*
X61525Y380508D01*
X59770Y376272D01*
X56528Y373030D01*
X52292Y371275D01*
X27708Y371275D01*
G37*
%LPD*%
%LPC*%
G36*
X901008Y18475D02*
X901008Y18475D01*
X896772Y20230D01*
X893530Y23472D01*
X891775Y27708D01*
X891775Y52292D01*
X893530Y56528D01*
X896772Y59770D01*
X901008Y61525D01*
X905592Y61525D01*
X909828Y59770D01*
X913070Y56528D01*
X914825Y52292D01*
X914825Y27708D01*
X913070Y23472D01*
X909828Y20230D01*
X905592Y18475D01*
X901008Y18475D01*
G37*
%LPD*%
%LPC*%
G36*
X1028908Y19475D02*
X1028908Y19475D01*
X1024672Y21230D01*
X1021430Y24472D01*
X1019675Y28708D01*
X1019675Y53292D01*
X1021430Y57528D01*
X1024672Y60770D01*
X1028908Y62525D01*
X1033492Y62525D01*
X1037728Y60770D01*
X1040970Y57528D01*
X1042725Y53292D01*
X1042725Y28708D01*
X1040970Y24472D01*
X1037728Y21230D01*
X1033492Y19475D01*
X1028908Y19475D01*
G37*
%LPD*%
%LPC*%
G36*
X185908Y17475D02*
X185908Y17475D01*
X181672Y19230D01*
X178430Y22472D01*
X176675Y26708D01*
X176675Y51292D01*
X178430Y55528D01*
X181672Y58770D01*
X185908Y60525D01*
X190492Y60525D01*
X194728Y58770D01*
X197970Y55528D01*
X199725Y51292D01*
X199725Y26708D01*
X197970Y22472D01*
X194728Y19230D01*
X190492Y17475D01*
X185908Y17475D01*
G37*
%LPD*%
%LPC*%
G36*
X355908Y16475D02*
X355908Y16475D01*
X351672Y18230D01*
X348430Y21472D01*
X346675Y25708D01*
X346675Y50292D01*
X348430Y54528D01*
X351672Y57770D01*
X355908Y59525D01*
X360492Y59525D01*
X364728Y57770D01*
X367970Y54528D01*
X369725Y50292D01*
X369725Y25708D01*
X367970Y21472D01*
X364728Y18230D01*
X360492Y16475D01*
X355908Y16475D01*
G37*
%LPD*%
%LPC*%
G36*
X1099708Y378675D02*
X1099708Y378675D01*
X1095472Y380430D01*
X1092230Y383672D01*
X1090475Y387908D01*
X1090475Y392492D01*
X1092230Y396728D01*
X1095472Y399970D01*
X1099708Y401725D01*
X1124292Y401725D01*
X1128528Y399970D01*
X1131770Y396728D01*
X1133525Y392492D01*
X1133525Y387908D01*
X1131770Y383672D01*
X1128528Y380430D01*
X1124292Y378675D01*
X1099708Y378675D01*
G37*
%LPD*%
%LPC*%
G36*
X1099708Y416775D02*
X1099708Y416775D01*
X1095472Y418530D01*
X1092230Y421772D01*
X1090475Y426008D01*
X1090475Y430592D01*
X1092230Y434828D01*
X1095472Y438070D01*
X1099708Y439825D01*
X1124292Y439825D01*
X1128528Y438070D01*
X1131770Y434828D01*
X1133525Y430592D01*
X1133525Y426008D01*
X1131770Y421772D01*
X1128528Y418530D01*
X1124292Y416775D01*
X1099708Y416775D01*
G37*
%LPD*%
%LPC*%
G36*
X394008Y16475D02*
X394008Y16475D01*
X389772Y18230D01*
X386530Y21472D01*
X384775Y25708D01*
X384775Y50292D01*
X386530Y54528D01*
X389772Y57770D01*
X394008Y59525D01*
X398592Y59525D01*
X402828Y57770D01*
X406070Y54528D01*
X407825Y50292D01*
X407825Y25708D01*
X406070Y21472D01*
X402828Y18230D01*
X398592Y16475D01*
X394008Y16475D01*
G37*
%LPD*%
%LPC*%
G36*
X694908Y16475D02*
X694908Y16475D01*
X690672Y18230D01*
X687430Y21472D01*
X685675Y25708D01*
X685675Y50292D01*
X687430Y54528D01*
X690672Y57770D01*
X694908Y59525D01*
X699492Y59525D01*
X703728Y57770D01*
X706970Y54528D01*
X708725Y50292D01*
X708725Y25708D01*
X706970Y21472D01*
X703728Y18230D01*
X699492Y16475D01*
X694908Y16475D01*
G37*
%LPD*%
%LPC*%
G36*
X733008Y16475D02*
X733008Y16475D01*
X728772Y18230D01*
X725530Y21472D01*
X723775Y25708D01*
X723775Y50292D01*
X725530Y54528D01*
X728772Y57770D01*
X733008Y59525D01*
X737592Y59525D01*
X741828Y57770D01*
X745070Y54528D01*
X746825Y50292D01*
X746825Y25708D01*
X745070Y21472D01*
X741828Y18230D01*
X737592Y16475D01*
X733008Y16475D01*
G37*
%LPD*%
%LPC*%
G36*
X224008Y17475D02*
X224008Y17475D01*
X219772Y19230D01*
X216530Y22472D01*
X214775Y26708D01*
X214775Y51292D01*
X216530Y55528D01*
X219772Y58770D01*
X224008Y60525D01*
X228592Y60525D01*
X232828Y58770D01*
X236070Y55528D01*
X237825Y51292D01*
X237825Y26708D01*
X236070Y22472D01*
X232828Y19230D01*
X228592Y17475D01*
X224008Y17475D01*
G37*
%LPD*%
%LPC*%
G36*
X525908Y18475D02*
X525908Y18475D01*
X521672Y20230D01*
X518430Y23472D01*
X516675Y27708D01*
X516675Y52292D01*
X518430Y56528D01*
X521672Y59770D01*
X525908Y61525D01*
X530492Y61525D01*
X534728Y59770D01*
X537970Y56528D01*
X539725Y52292D01*
X539725Y27708D01*
X537970Y23472D01*
X534728Y20230D01*
X530492Y18475D01*
X525908Y18475D01*
G37*
%LPD*%
%LPC*%
G36*
X1020868Y940475D02*
X1020868Y940475D01*
X1019975Y941368D01*
X1019975Y955632D01*
X1020868Y956525D01*
X1023362Y956525D01*
X1023409Y956561D01*
X1023404Y956568D01*
X1023411Y956574D01*
X1023411Y982426D01*
X1023375Y982473D01*
X1023368Y982468D01*
X1023362Y982475D01*
X1021868Y982475D01*
X1020975Y983368D01*
X1020975Y997632D01*
X1021868Y998525D01*
X1038132Y998525D01*
X1039025Y997632D01*
X1039025Y983368D01*
X1038132Y982475D01*
X1034638Y982475D01*
X1034591Y982439D01*
X1034596Y982432D01*
X1034589Y982426D01*
X1034589Y956574D01*
X1034625Y956527D01*
X1034632Y956532D01*
X1034638Y956525D01*
X1037132Y956525D01*
X1038025Y955632D01*
X1038025Y941368D01*
X1037132Y940475D01*
X1020868Y940475D01*
G37*
%LPD*%
%LPC*%
G36*
X978868Y942475D02*
X978868Y942475D01*
X977975Y943368D01*
X977975Y957632D01*
X978868Y958525D01*
X981362Y958525D01*
X981409Y958561D01*
X981404Y958568D01*
X981411Y958574D01*
X981411Y982426D01*
X981375Y982473D01*
X981368Y982468D01*
X981362Y982475D01*
X979868Y982475D01*
X978975Y983368D01*
X978975Y997632D01*
X979868Y998525D01*
X996132Y998525D01*
X997025Y997632D01*
X997025Y983368D01*
X996132Y982475D01*
X992638Y982475D01*
X992591Y982439D01*
X992596Y982432D01*
X992589Y982426D01*
X992589Y958574D01*
X992625Y958527D01*
X992632Y958532D01*
X992638Y958525D01*
X995132Y958525D01*
X996025Y957632D01*
X996025Y943368D01*
X995132Y942475D01*
X978868Y942475D01*
G37*
%LPD*%
%LPC*%
G36*
X937868Y943475D02*
X937868Y943475D01*
X936975Y944368D01*
X936975Y958632D01*
X937868Y959525D01*
X940362Y959525D01*
X940409Y959561D01*
X940404Y959568D01*
X940411Y959574D01*
X940411Y982426D01*
X940375Y982473D01*
X940368Y982468D01*
X940362Y982475D01*
X938868Y982475D01*
X937975Y983368D01*
X937975Y997632D01*
X938868Y998525D01*
X955132Y998525D01*
X956025Y997632D01*
X956025Y983368D01*
X955132Y982475D01*
X951638Y982475D01*
X951591Y982439D01*
X951596Y982432D01*
X951589Y982426D01*
X951589Y959574D01*
X951625Y959527D01*
X951632Y959532D01*
X951638Y959525D01*
X954132Y959525D01*
X955025Y958632D01*
X955025Y944368D01*
X954132Y943475D01*
X937868Y943475D01*
G37*
%LPD*%
%LPC*%
G36*
X844868Y948475D02*
X844868Y948475D01*
X843975Y949368D01*
X843975Y963632D01*
X844868Y964525D01*
X847362Y964525D01*
X847409Y964561D01*
X847408Y964562D01*
X847409Y964563D01*
X847405Y964569D01*
X847411Y964574D01*
X847411Y984426D01*
X847375Y984473D01*
X847368Y984468D01*
X847362Y984475D01*
X844868Y984475D01*
X843975Y985368D01*
X843975Y999632D01*
X844868Y1000525D01*
X861132Y1000525D01*
X862025Y999632D01*
X862025Y985368D01*
X861132Y984475D01*
X858638Y984475D01*
X858591Y984439D01*
X858591Y984438D01*
X858595Y984431D01*
X858589Y984426D01*
X858589Y964574D01*
X858625Y964527D01*
X858632Y964532D01*
X858638Y964525D01*
X861132Y964525D01*
X862025Y963632D01*
X862025Y949368D01*
X861132Y948475D01*
X844868Y948475D01*
G37*
%LPD*%
%LPC*%
G36*
X802868Y948475D02*
X802868Y948475D01*
X801975Y949368D01*
X801975Y963632D01*
X802868Y964525D01*
X805362Y964525D01*
X805409Y964561D01*
X805408Y964562D01*
X805409Y964563D01*
X805405Y964569D01*
X805411Y964574D01*
X805411Y984426D01*
X805375Y984473D01*
X805368Y984468D01*
X805362Y984475D01*
X802868Y984475D01*
X801975Y985368D01*
X801975Y999632D01*
X802868Y1000525D01*
X819132Y1000525D01*
X820025Y999632D01*
X820025Y985368D01*
X819132Y984475D01*
X816638Y984475D01*
X816591Y984439D01*
X816591Y984438D01*
X816595Y984431D01*
X816589Y984426D01*
X816589Y964574D01*
X816625Y964527D01*
X816632Y964532D01*
X816638Y964525D01*
X819132Y964525D01*
X820025Y963632D01*
X820025Y949368D01*
X819132Y948475D01*
X802868Y948475D01*
G37*
%LPD*%
%LPC*%
G36*
X760868Y948475D02*
X760868Y948475D01*
X759975Y949368D01*
X759975Y963632D01*
X760868Y964525D01*
X763362Y964525D01*
X763409Y964561D01*
X763408Y964562D01*
X763409Y964563D01*
X763405Y964569D01*
X763411Y964574D01*
X763411Y983426D01*
X763375Y983473D01*
X763368Y983468D01*
X763362Y983475D01*
X760868Y983475D01*
X759975Y984368D01*
X759975Y998632D01*
X760868Y999525D01*
X777132Y999525D01*
X778025Y998632D01*
X778025Y984368D01*
X777132Y983475D01*
X774638Y983475D01*
X774591Y983439D01*
X774596Y983432D01*
X774589Y983426D01*
X774589Y964574D01*
X774625Y964527D01*
X774632Y964532D01*
X774638Y964525D01*
X777132Y964525D01*
X778025Y963632D01*
X778025Y949368D01*
X777132Y948475D01*
X760868Y948475D01*
G37*
%LPD*%
%LPC*%
G36*
X718868Y948475D02*
X718868Y948475D01*
X717975Y949368D01*
X717975Y963632D01*
X718868Y964525D01*
X721362Y964525D01*
X721409Y964561D01*
X721408Y964562D01*
X721409Y964563D01*
X721405Y964569D01*
X721411Y964574D01*
X721411Y983426D01*
X721375Y983473D01*
X721368Y983468D01*
X721362Y983475D01*
X718868Y983475D01*
X717975Y984368D01*
X717975Y998632D01*
X718868Y999525D01*
X735132Y999525D01*
X736025Y998632D01*
X736025Y984368D01*
X735132Y983475D01*
X732638Y983475D01*
X732591Y983439D01*
X732596Y983432D01*
X732589Y983426D01*
X732589Y964574D01*
X732625Y964527D01*
X732632Y964532D01*
X732638Y964525D01*
X735132Y964525D01*
X736025Y963632D01*
X736025Y949368D01*
X735132Y948475D01*
X718868Y948475D01*
G37*
%LPD*%
%LPC*%
G36*
X245802Y328693D02*
X245802Y328693D01*
X242693Y331802D01*
X242693Y336198D01*
X243921Y337426D01*
X243925Y337452D01*
X243935Y337461D01*
X243935Y360296D01*
X243919Y360317D01*
X243921Y360331D01*
X239831Y364421D01*
X239804Y364425D01*
X239796Y364435D01*
X234074Y364435D01*
X234027Y364399D01*
X234032Y364392D01*
X234025Y364386D01*
X234025Y361368D01*
X233132Y360475D01*
X216868Y360475D01*
X215975Y361368D01*
X215975Y375632D01*
X216868Y376525D01*
X233132Y376525D01*
X234025Y375632D01*
X234025Y372614D01*
X234061Y372567D01*
X234068Y372572D01*
X234074Y372565D01*
X243184Y372565D01*
X252065Y363684D01*
X252065Y337461D01*
X252081Y337439D01*
X252079Y337426D01*
X253307Y336198D01*
X253307Y331802D01*
X250198Y328693D01*
X245802Y328693D01*
G37*
%LPD*%
%LPC*%
G36*
X325802Y328693D02*
X325802Y328693D01*
X322693Y331802D01*
X322693Y336198D01*
X323921Y337426D01*
X323925Y337452D01*
X323935Y337461D01*
X323935Y360296D01*
X323919Y360317D01*
X323921Y360331D01*
X319831Y364421D01*
X319804Y364425D01*
X319796Y364435D01*
X314074Y364435D01*
X314027Y364399D01*
X314032Y364392D01*
X314025Y364386D01*
X314025Y361368D01*
X313132Y360475D01*
X296868Y360475D01*
X295975Y361368D01*
X295975Y375632D01*
X296868Y376525D01*
X313132Y376525D01*
X314025Y375632D01*
X314025Y372614D01*
X314061Y372567D01*
X314068Y372572D01*
X314074Y372565D01*
X323184Y372565D01*
X332065Y363684D01*
X332065Y337461D01*
X332081Y337439D01*
X332079Y337426D01*
X333307Y336198D01*
X333307Y331802D01*
X330198Y328693D01*
X325802Y328693D01*
G37*
%LPD*%
%LPC*%
G36*
X485802Y327693D02*
X485802Y327693D01*
X482693Y330802D01*
X482693Y335198D01*
X483921Y336426D01*
X483925Y336452D01*
X483935Y336461D01*
X483935Y359296D01*
X483919Y359317D01*
X483921Y359331D01*
X479831Y363421D01*
X479805Y363424D01*
X479800Y363431D01*
X479799Y363431D01*
X479796Y363435D01*
X474074Y363435D01*
X474027Y363399D01*
X474029Y363397D01*
X474027Y363395D01*
X474030Y363390D01*
X474025Y363386D01*
X474025Y360368D01*
X473132Y359475D01*
X456868Y359475D01*
X455975Y360368D01*
X455975Y374632D01*
X456868Y375525D01*
X473132Y375525D01*
X474025Y374632D01*
X474025Y371614D01*
X474061Y371567D01*
X474068Y371572D01*
X474074Y371565D01*
X483184Y371565D01*
X492065Y362684D01*
X492065Y336461D01*
X492081Y336439D01*
X492079Y336426D01*
X493307Y335198D01*
X493307Y330802D01*
X490198Y327693D01*
X485802Y327693D01*
G37*
%LPD*%
%LPC*%
G36*
X725802Y327693D02*
X725802Y327693D01*
X722693Y330802D01*
X722693Y335198D01*
X723921Y336426D01*
X723925Y336452D01*
X723935Y336461D01*
X723935Y359296D01*
X723919Y359317D01*
X723921Y359331D01*
X719831Y363421D01*
X719805Y363424D01*
X719800Y363431D01*
X719799Y363431D01*
X719796Y363435D01*
X714074Y363435D01*
X714027Y363399D01*
X714029Y363397D01*
X714027Y363395D01*
X714030Y363390D01*
X714025Y363386D01*
X714025Y360368D01*
X713132Y359475D01*
X696868Y359475D01*
X695975Y360368D01*
X695975Y374632D01*
X696868Y375525D01*
X713132Y375525D01*
X714025Y374632D01*
X714025Y371614D01*
X714061Y371567D01*
X714068Y371572D01*
X714074Y371565D01*
X723184Y371565D01*
X732065Y362684D01*
X732065Y336461D01*
X732081Y336439D01*
X732079Y336426D01*
X733307Y335198D01*
X733307Y330802D01*
X730198Y327693D01*
X725802Y327693D01*
G37*
%LPD*%
%LPC*%
G36*
X966802Y327693D02*
X966802Y327693D01*
X963693Y330802D01*
X963693Y335198D01*
X964921Y336426D01*
X964925Y336452D01*
X964935Y336461D01*
X964935Y359296D01*
X964919Y359317D01*
X964921Y359331D01*
X960831Y363421D01*
X960805Y363424D01*
X960800Y363431D01*
X960799Y363431D01*
X960796Y363435D01*
X955074Y363435D01*
X955027Y363399D01*
X955029Y363397D01*
X955027Y363395D01*
X955030Y363390D01*
X955025Y363386D01*
X955025Y360368D01*
X954132Y359475D01*
X937868Y359475D01*
X936975Y360368D01*
X936975Y374632D01*
X937868Y375525D01*
X954132Y375525D01*
X955025Y374632D01*
X955025Y371614D01*
X955061Y371567D01*
X955068Y371572D01*
X955074Y371565D01*
X964184Y371565D01*
X973065Y362684D01*
X973065Y336461D01*
X973081Y336439D01*
X973079Y336426D01*
X974307Y335198D01*
X974307Y330802D01*
X971198Y327693D01*
X966802Y327693D01*
G37*
%LPD*%
%LPC*%
G36*
X565802Y327693D02*
X565802Y327693D01*
X562693Y330802D01*
X562693Y335198D01*
X563921Y336426D01*
X563925Y336452D01*
X563935Y336461D01*
X563935Y359296D01*
X563919Y359317D01*
X563921Y359331D01*
X559831Y363421D01*
X559805Y363424D01*
X559800Y363431D01*
X559799Y363431D01*
X559796Y363435D01*
X554074Y363435D01*
X554027Y363399D01*
X554029Y363397D01*
X554027Y363395D01*
X554030Y363390D01*
X554025Y363386D01*
X554025Y360368D01*
X553132Y359475D01*
X536868Y359475D01*
X535975Y360368D01*
X535975Y374632D01*
X536868Y375525D01*
X553132Y375525D01*
X554025Y374632D01*
X554025Y371614D01*
X554061Y371567D01*
X554068Y371572D01*
X554074Y371565D01*
X563184Y371565D01*
X572065Y362684D01*
X572065Y336461D01*
X572081Y336439D01*
X572079Y336426D01*
X573307Y335198D01*
X573307Y330802D01*
X570198Y327693D01*
X565802Y327693D01*
G37*
%LPD*%
%LPC*%
G36*
X885802Y327693D02*
X885802Y327693D01*
X882693Y330802D01*
X882693Y335198D01*
X883921Y336426D01*
X883925Y336452D01*
X883935Y336461D01*
X883935Y359296D01*
X883919Y359317D01*
X883921Y359331D01*
X879831Y363421D01*
X879805Y363424D01*
X879800Y363431D01*
X879799Y363431D01*
X879796Y363435D01*
X874074Y363435D01*
X874027Y363399D01*
X874029Y363397D01*
X874027Y363395D01*
X874030Y363390D01*
X874025Y363386D01*
X874025Y360368D01*
X873132Y359475D01*
X856868Y359475D01*
X855975Y360368D01*
X855975Y374632D01*
X856868Y375525D01*
X873132Y375525D01*
X874025Y374632D01*
X874025Y371614D01*
X874061Y371567D01*
X874068Y371572D01*
X874074Y371565D01*
X883184Y371565D01*
X892065Y362684D01*
X892065Y336461D01*
X892081Y336439D01*
X892079Y336426D01*
X893307Y335198D01*
X893307Y330802D01*
X890198Y327693D01*
X885802Y327693D01*
G37*
%LPD*%
%LPC*%
G36*
X645802Y327693D02*
X645802Y327693D01*
X642693Y330802D01*
X642693Y335198D01*
X643921Y336426D01*
X643925Y336452D01*
X643935Y336461D01*
X643935Y359296D01*
X643919Y359317D01*
X643921Y359331D01*
X639831Y363421D01*
X639805Y363424D01*
X639800Y363431D01*
X639799Y363431D01*
X639796Y363435D01*
X634074Y363435D01*
X634027Y363399D01*
X634029Y363397D01*
X634027Y363395D01*
X634030Y363390D01*
X634025Y363386D01*
X634025Y360368D01*
X633132Y359475D01*
X616868Y359475D01*
X615975Y360368D01*
X615975Y374632D01*
X616868Y375525D01*
X633132Y375525D01*
X634025Y374632D01*
X634025Y371614D01*
X634061Y371567D01*
X634068Y371572D01*
X634074Y371565D01*
X643184Y371565D01*
X652065Y362684D01*
X652065Y336461D01*
X652081Y336439D01*
X652079Y336426D01*
X653307Y335198D01*
X653307Y330802D01*
X650198Y327693D01*
X645802Y327693D01*
G37*
%LPD*%
%LPC*%
G36*
X405802Y327693D02*
X405802Y327693D01*
X402693Y330802D01*
X402693Y335198D01*
X403921Y336426D01*
X403925Y336452D01*
X403935Y336461D01*
X403935Y359296D01*
X403919Y359317D01*
X403921Y359331D01*
X399831Y363421D01*
X399805Y363424D01*
X399800Y363431D01*
X399799Y363431D01*
X399796Y363435D01*
X394074Y363435D01*
X394027Y363399D01*
X394029Y363397D01*
X394027Y363395D01*
X394030Y363390D01*
X394025Y363386D01*
X394025Y360368D01*
X393132Y359475D01*
X376868Y359475D01*
X375975Y360368D01*
X375975Y374632D01*
X376868Y375525D01*
X393132Y375525D01*
X394025Y374632D01*
X394025Y371614D01*
X394061Y371567D01*
X394068Y371572D01*
X394074Y371565D01*
X403184Y371565D01*
X409669Y365079D01*
X412065Y362684D01*
X412065Y336461D01*
X412081Y336439D01*
X412079Y336426D01*
X413307Y335198D01*
X413307Y330802D01*
X410198Y327693D01*
X405802Y327693D01*
G37*
%LPD*%
%LPC*%
G36*
X805802Y327693D02*
X805802Y327693D01*
X802693Y330802D01*
X802693Y335198D01*
X803921Y336426D01*
X803925Y336452D01*
X803935Y336461D01*
X803935Y359296D01*
X803919Y359317D01*
X803921Y359331D01*
X799831Y363421D01*
X799805Y363424D01*
X799800Y363431D01*
X799799Y363431D01*
X799796Y363435D01*
X794074Y363435D01*
X794027Y363399D01*
X794029Y363397D01*
X794027Y363395D01*
X794030Y363390D01*
X794025Y363386D01*
X794025Y360368D01*
X793132Y359475D01*
X776868Y359475D01*
X775975Y360368D01*
X775975Y374632D01*
X776868Y375525D01*
X793132Y375525D01*
X794025Y374632D01*
X794025Y371614D01*
X794061Y371567D01*
X794068Y371572D01*
X794074Y371565D01*
X803184Y371565D01*
X805579Y369169D01*
X809669Y365079D01*
X812065Y362684D01*
X812065Y336461D01*
X812081Y336439D01*
X812079Y336426D01*
X813307Y335198D01*
X813307Y330802D01*
X810198Y327693D01*
X805802Y327693D01*
G37*
%LPD*%
%LPC*%
G36*
X174868Y674475D02*
X174868Y674475D01*
X173975Y675368D01*
X173975Y689632D01*
X174868Y690525D01*
X177362Y690525D01*
X177409Y690561D01*
X177404Y690568D01*
X177411Y690574D01*
X177411Y701426D01*
X177375Y701473D01*
X177368Y701468D01*
X177362Y701475D01*
X174868Y701475D01*
X173975Y702368D01*
X173975Y716632D01*
X174868Y717525D01*
X191132Y717525D01*
X192025Y716632D01*
X192025Y702368D01*
X191132Y701475D01*
X188638Y701475D01*
X188591Y701439D01*
X188596Y701432D01*
X188589Y701426D01*
X188589Y690574D01*
X188625Y690527D01*
X188632Y690532D01*
X188638Y690525D01*
X191132Y690525D01*
X192025Y689632D01*
X192025Y675368D01*
X191132Y674475D01*
X174868Y674475D01*
G37*
%LPD*%
%LPC*%
G36*
X132868Y674475D02*
X132868Y674475D01*
X131975Y675368D01*
X131975Y689632D01*
X132868Y690525D01*
X135362Y690525D01*
X135409Y690561D01*
X135404Y690568D01*
X135411Y690574D01*
X135411Y701426D01*
X135375Y701473D01*
X135368Y701468D01*
X135362Y701475D01*
X132868Y701475D01*
X131975Y702368D01*
X131975Y716632D01*
X132868Y717525D01*
X149132Y717525D01*
X150025Y716632D01*
X150025Y702368D01*
X149132Y701475D01*
X146638Y701475D01*
X146591Y701439D01*
X146596Y701432D01*
X146589Y701426D01*
X146589Y690574D01*
X146625Y690527D01*
X146632Y690532D01*
X146638Y690525D01*
X149132Y690525D01*
X150025Y689632D01*
X150025Y675368D01*
X149132Y674475D01*
X132868Y674475D01*
G37*
%LPD*%
%LPC*%
G36*
X589968Y953475D02*
X589968Y953475D01*
X589075Y954368D01*
X589075Y968632D01*
X589968Y969525D01*
X592462Y969525D01*
X592509Y969561D01*
X592504Y969568D01*
X592511Y969574D01*
X592511Y980426D01*
X592475Y980473D01*
X592468Y980468D01*
X592462Y980475D01*
X589968Y980475D01*
X589075Y981368D01*
X589075Y995632D01*
X589968Y996525D01*
X606232Y996525D01*
X607125Y995632D01*
X607125Y981368D01*
X606232Y980475D01*
X603738Y980475D01*
X603691Y980439D01*
X603696Y980432D01*
X603689Y980426D01*
X603689Y969574D01*
X603725Y969527D01*
X603732Y969532D01*
X603738Y969525D01*
X606232Y969525D01*
X607125Y968632D01*
X607125Y954368D01*
X606232Y953475D01*
X589968Y953475D01*
G37*
%LPD*%
%LPC*%
G36*
X547868Y953475D02*
X547868Y953475D01*
X546975Y954368D01*
X546975Y968632D01*
X547868Y969525D01*
X550362Y969525D01*
X550409Y969561D01*
X550404Y969568D01*
X550411Y969574D01*
X550411Y980426D01*
X550375Y980473D01*
X550368Y980468D01*
X550362Y980475D01*
X547868Y980475D01*
X546975Y981368D01*
X546975Y995632D01*
X547868Y996525D01*
X564132Y996525D01*
X565025Y995632D01*
X565025Y981368D01*
X564132Y980475D01*
X561638Y980475D01*
X561591Y980439D01*
X561596Y980432D01*
X561589Y980426D01*
X561589Y969574D01*
X561625Y969527D01*
X561632Y969532D01*
X561638Y969525D01*
X564132Y969525D01*
X565025Y968632D01*
X565025Y954368D01*
X564132Y953475D01*
X547868Y953475D01*
G37*
%LPD*%
%LPC*%
G36*
X1066868Y1209475D02*
X1066868Y1209475D01*
X1065975Y1210368D01*
X1065975Y1224632D01*
X1066868Y1225525D01*
X1069362Y1225525D01*
X1069409Y1225561D01*
X1069404Y1225568D01*
X1069411Y1225574D01*
X1069411Y1236426D01*
X1069375Y1236473D01*
X1069368Y1236468D01*
X1069362Y1236475D01*
X1066868Y1236475D01*
X1065975Y1237368D01*
X1065975Y1251632D01*
X1066868Y1252525D01*
X1083132Y1252525D01*
X1084025Y1251632D01*
X1084025Y1237368D01*
X1083132Y1236475D01*
X1080638Y1236475D01*
X1080591Y1236439D01*
X1080596Y1236432D01*
X1080589Y1236426D01*
X1080589Y1225574D01*
X1080625Y1225527D01*
X1080632Y1225532D01*
X1080638Y1225525D01*
X1083132Y1225525D01*
X1084025Y1224632D01*
X1084025Y1210368D01*
X1083132Y1209475D01*
X1066868Y1209475D01*
G37*
%LPD*%
%LPC*%
G36*
X1024968Y1209475D02*
X1024968Y1209475D01*
X1024075Y1210368D01*
X1024075Y1224632D01*
X1024968Y1225525D01*
X1027462Y1225525D01*
X1027509Y1225561D01*
X1027504Y1225568D01*
X1027511Y1225574D01*
X1027511Y1236426D01*
X1027475Y1236473D01*
X1027468Y1236468D01*
X1027462Y1236475D01*
X1024968Y1236475D01*
X1024075Y1237368D01*
X1024075Y1251632D01*
X1024968Y1252525D01*
X1041232Y1252525D01*
X1042125Y1251632D01*
X1042125Y1237368D01*
X1041232Y1236475D01*
X1038738Y1236475D01*
X1038691Y1236439D01*
X1038696Y1236432D01*
X1038689Y1236426D01*
X1038689Y1225574D01*
X1038725Y1225527D01*
X1038732Y1225532D01*
X1038738Y1225525D01*
X1041232Y1225525D01*
X1042125Y1224632D01*
X1042125Y1210368D01*
X1041232Y1209475D01*
X1024968Y1209475D01*
G37*
%LPD*%
%LPC*%
G36*
X982868Y1209475D02*
X982868Y1209475D01*
X981975Y1210368D01*
X981975Y1224632D01*
X982868Y1225525D01*
X985362Y1225525D01*
X985409Y1225561D01*
X985404Y1225568D01*
X985411Y1225574D01*
X985411Y1236426D01*
X985375Y1236473D01*
X985368Y1236468D01*
X985362Y1236475D01*
X982868Y1236475D01*
X981975Y1237368D01*
X981975Y1251632D01*
X982868Y1252525D01*
X999132Y1252525D01*
X1000025Y1251632D01*
X1000025Y1237368D01*
X999132Y1236475D01*
X996638Y1236475D01*
X996591Y1236439D01*
X996596Y1236432D01*
X996589Y1236426D01*
X996589Y1225574D01*
X996625Y1225527D01*
X996632Y1225532D01*
X996638Y1225525D01*
X999132Y1225525D01*
X1000025Y1224632D01*
X1000025Y1210368D01*
X999132Y1209475D01*
X982868Y1209475D01*
G37*
%LPD*%
%LPC*%
G36*
X940868Y1209475D02*
X940868Y1209475D01*
X939975Y1210368D01*
X939975Y1224632D01*
X940868Y1225525D01*
X943362Y1225525D01*
X943409Y1225561D01*
X943404Y1225568D01*
X943411Y1225574D01*
X943411Y1236426D01*
X943375Y1236473D01*
X943368Y1236468D01*
X943362Y1236475D01*
X940868Y1236475D01*
X939975Y1237368D01*
X939975Y1251632D01*
X940868Y1252525D01*
X957132Y1252525D01*
X958025Y1251632D01*
X958025Y1237368D01*
X957132Y1236475D01*
X954638Y1236475D01*
X954591Y1236439D01*
X954596Y1236432D01*
X954589Y1236426D01*
X954589Y1225574D01*
X954625Y1225527D01*
X954632Y1225532D01*
X954638Y1225525D01*
X957132Y1225525D01*
X958025Y1224632D01*
X958025Y1210368D01*
X957132Y1209475D01*
X940868Y1209475D01*
G37*
%LPD*%
%LPC*%
G36*
X721868Y1206475D02*
X721868Y1206475D01*
X720975Y1207368D01*
X720975Y1221632D01*
X721868Y1222525D01*
X724362Y1222525D01*
X724409Y1222561D01*
X724404Y1222568D01*
X724411Y1222574D01*
X724411Y1233426D01*
X724375Y1233473D01*
X724368Y1233468D01*
X724362Y1233475D01*
X721868Y1233475D01*
X720975Y1234368D01*
X720975Y1248632D01*
X721868Y1249525D01*
X738132Y1249525D01*
X739025Y1248632D01*
X739025Y1234368D01*
X738132Y1233475D01*
X735638Y1233475D01*
X735591Y1233439D01*
X735596Y1233432D01*
X735589Y1233426D01*
X735589Y1222574D01*
X735625Y1222527D01*
X735632Y1222532D01*
X735638Y1222525D01*
X738132Y1222525D01*
X739025Y1221632D01*
X739025Y1207368D01*
X738132Y1206475D01*
X721868Y1206475D01*
G37*
%LPD*%
%LPC*%
G36*
X763868Y1206475D02*
X763868Y1206475D01*
X762975Y1207368D01*
X762975Y1221632D01*
X763868Y1222525D01*
X766362Y1222525D01*
X766409Y1222561D01*
X766404Y1222568D01*
X766411Y1222574D01*
X766411Y1233426D01*
X766375Y1233473D01*
X766368Y1233468D01*
X766362Y1233475D01*
X763868Y1233475D01*
X762975Y1234368D01*
X762975Y1248632D01*
X763868Y1249525D01*
X780132Y1249525D01*
X781025Y1248632D01*
X781025Y1234368D01*
X780132Y1233475D01*
X777638Y1233475D01*
X777591Y1233439D01*
X777596Y1233432D01*
X777589Y1233426D01*
X777589Y1222574D01*
X777625Y1222527D01*
X777632Y1222532D01*
X777638Y1222525D01*
X780132Y1222525D01*
X781025Y1221632D01*
X781025Y1207368D01*
X780132Y1206475D01*
X763868Y1206475D01*
G37*
%LPD*%
%LPC*%
G36*
X847868Y1206475D02*
X847868Y1206475D01*
X846975Y1207368D01*
X846975Y1221632D01*
X847868Y1222525D01*
X850362Y1222525D01*
X850409Y1222561D01*
X850404Y1222568D01*
X850411Y1222574D01*
X850411Y1233426D01*
X850375Y1233473D01*
X850368Y1233468D01*
X850362Y1233475D01*
X847868Y1233475D01*
X846975Y1234368D01*
X846975Y1248632D01*
X847868Y1249525D01*
X864132Y1249525D01*
X865025Y1248632D01*
X865025Y1234368D01*
X864132Y1233475D01*
X861638Y1233475D01*
X861591Y1233439D01*
X861596Y1233432D01*
X861589Y1233426D01*
X861589Y1222574D01*
X861625Y1222527D01*
X861632Y1222532D01*
X861638Y1222525D01*
X864132Y1222525D01*
X865025Y1221632D01*
X865025Y1207368D01*
X864132Y1206475D01*
X847868Y1206475D01*
G37*
%LPD*%
%LPC*%
G36*
X631868Y953475D02*
X631868Y953475D01*
X630975Y954368D01*
X630975Y968632D01*
X631868Y969525D01*
X634362Y969525D01*
X634409Y969561D01*
X634404Y969568D01*
X634411Y969574D01*
X634411Y980426D01*
X634375Y980473D01*
X634368Y980468D01*
X634362Y980475D01*
X631868Y980475D01*
X630975Y981368D01*
X630975Y995632D01*
X631868Y996525D01*
X648132Y996525D01*
X649025Y995632D01*
X649025Y981368D01*
X648132Y980475D01*
X645638Y980475D01*
X645591Y980439D01*
X645596Y980432D01*
X645589Y980426D01*
X645589Y969574D01*
X645625Y969527D01*
X645632Y969532D01*
X645638Y969525D01*
X648132Y969525D01*
X649025Y968632D01*
X649025Y954368D01*
X648132Y953475D01*
X631868Y953475D01*
G37*
%LPD*%
%LPC*%
G36*
X317868Y953475D02*
X317868Y953475D01*
X316975Y954368D01*
X316975Y968632D01*
X317868Y969525D01*
X320362Y969525D01*
X320409Y969561D01*
X320404Y969568D01*
X320411Y969574D01*
X320411Y980426D01*
X320375Y980473D01*
X320368Y980468D01*
X320362Y980475D01*
X317868Y980475D01*
X316975Y981368D01*
X316975Y995632D01*
X317868Y996525D01*
X334132Y996525D01*
X335025Y995632D01*
X335025Y981368D01*
X334132Y980475D01*
X331638Y980475D01*
X331591Y980439D01*
X331596Y980432D01*
X331589Y980426D01*
X331589Y969574D01*
X331625Y969527D01*
X331632Y969532D01*
X331638Y969525D01*
X334132Y969525D01*
X335025Y968632D01*
X335025Y954368D01*
X334132Y953475D01*
X317868Y953475D01*
G37*
%LPD*%
%LPC*%
G36*
X505868Y953475D02*
X505868Y953475D01*
X504975Y954368D01*
X504975Y968632D01*
X505868Y969525D01*
X508362Y969525D01*
X508409Y969561D01*
X508404Y969568D01*
X508411Y969574D01*
X508411Y980426D01*
X508375Y980473D01*
X508368Y980468D01*
X508362Y980475D01*
X505868Y980475D01*
X504975Y981368D01*
X504975Y995632D01*
X505868Y996525D01*
X522132Y996525D01*
X523025Y995632D01*
X523025Y981368D01*
X522132Y980475D01*
X519638Y980475D01*
X519591Y980439D01*
X519596Y980432D01*
X519589Y980426D01*
X519589Y969574D01*
X519625Y969527D01*
X519632Y969532D01*
X519638Y969525D01*
X522132Y969525D01*
X523025Y968632D01*
X523025Y954368D01*
X522132Y953475D01*
X505868Y953475D01*
G37*
%LPD*%
%LPC*%
G36*
X359968Y953475D02*
X359968Y953475D01*
X359075Y954368D01*
X359075Y968632D01*
X359968Y969525D01*
X362462Y969525D01*
X362509Y969561D01*
X362504Y969568D01*
X362511Y969574D01*
X362511Y980426D01*
X362475Y980473D01*
X362468Y980468D01*
X362462Y980475D01*
X359968Y980475D01*
X359075Y981368D01*
X359075Y995632D01*
X359968Y996525D01*
X376232Y996525D01*
X377125Y995632D01*
X377125Y981368D01*
X376232Y980475D01*
X373738Y980475D01*
X373691Y980439D01*
X373696Y980432D01*
X373689Y980426D01*
X373689Y969574D01*
X373725Y969527D01*
X373732Y969532D01*
X373738Y969525D01*
X376232Y969525D01*
X377125Y968632D01*
X377125Y954368D01*
X376232Y953475D01*
X359968Y953475D01*
G37*
%LPD*%
%LPC*%
G36*
X401868Y953475D02*
X401868Y953475D01*
X400975Y954368D01*
X400975Y968632D01*
X401868Y969525D01*
X404362Y969525D01*
X404409Y969561D01*
X404404Y969568D01*
X404411Y969574D01*
X404411Y980426D01*
X404375Y980473D01*
X404368Y980468D01*
X404362Y980475D01*
X401868Y980475D01*
X400975Y981368D01*
X400975Y995632D01*
X401868Y996525D01*
X418132Y996525D01*
X419025Y995632D01*
X419025Y981368D01*
X418132Y980475D01*
X415638Y980475D01*
X415591Y980439D01*
X415596Y980432D01*
X415589Y980426D01*
X415589Y969574D01*
X415625Y969527D01*
X415632Y969532D01*
X415638Y969525D01*
X418132Y969525D01*
X419025Y968632D01*
X419025Y954368D01*
X418132Y953475D01*
X401868Y953475D01*
G37*
%LPD*%
%LPC*%
G36*
X275868Y953475D02*
X275868Y953475D01*
X274975Y954368D01*
X274975Y968632D01*
X275868Y969525D01*
X278362Y969525D01*
X278409Y969561D01*
X278404Y969568D01*
X278411Y969574D01*
X278411Y980426D01*
X278375Y980473D01*
X278368Y980468D01*
X278362Y980475D01*
X275868Y980475D01*
X274975Y981368D01*
X274975Y995632D01*
X275868Y996525D01*
X292132Y996525D01*
X293025Y995632D01*
X293025Y981368D01*
X292132Y980475D01*
X289638Y980475D01*
X289591Y980439D01*
X289596Y980432D01*
X289589Y980426D01*
X289589Y969574D01*
X289625Y969527D01*
X289632Y969532D01*
X289638Y969525D01*
X292132Y969525D01*
X293025Y968632D01*
X293025Y954368D01*
X292132Y953475D01*
X275868Y953475D01*
G37*
%LPD*%
%LPC*%
G36*
X62868Y950475D02*
X62868Y950475D01*
X61975Y951368D01*
X61975Y965632D01*
X62868Y966525D01*
X65362Y966525D01*
X65409Y966561D01*
X65404Y966568D01*
X65411Y966574D01*
X65411Y977426D01*
X65375Y977473D01*
X65368Y977468D01*
X65362Y977475D01*
X62868Y977475D01*
X61975Y978368D01*
X61975Y992632D01*
X62868Y993525D01*
X79132Y993525D01*
X80025Y992632D01*
X80025Y978368D01*
X79132Y977475D01*
X76638Y977475D01*
X76591Y977439D01*
X76596Y977432D01*
X76589Y977426D01*
X76589Y966574D01*
X76625Y966527D01*
X76632Y966532D01*
X76638Y966525D01*
X79132Y966525D01*
X80025Y965632D01*
X80025Y951368D01*
X79132Y950475D01*
X62868Y950475D01*
G37*
%LPD*%
%LPC*%
G36*
X104868Y950475D02*
X104868Y950475D01*
X103975Y951368D01*
X103975Y965632D01*
X104868Y966525D01*
X107362Y966525D01*
X107409Y966561D01*
X107404Y966568D01*
X107411Y966574D01*
X107411Y977426D01*
X107375Y977473D01*
X107368Y977468D01*
X107362Y977475D01*
X104868Y977475D01*
X103975Y978368D01*
X103975Y992632D01*
X104868Y993525D01*
X121132Y993525D01*
X122025Y992632D01*
X122025Y978368D01*
X121132Y977475D01*
X118638Y977475D01*
X118591Y977439D01*
X118596Y977432D01*
X118589Y977426D01*
X118589Y966574D01*
X118625Y966527D01*
X118632Y966532D01*
X118638Y966525D01*
X121132Y966525D01*
X122025Y965632D01*
X122025Y951368D01*
X121132Y950475D01*
X104868Y950475D01*
G37*
%LPD*%
%LPC*%
G36*
X146968Y950475D02*
X146968Y950475D01*
X146075Y951368D01*
X146075Y965632D01*
X146968Y966525D01*
X149462Y966525D01*
X149509Y966561D01*
X149504Y966568D01*
X149511Y966574D01*
X149511Y977426D01*
X149475Y977473D01*
X149468Y977468D01*
X149462Y977475D01*
X146968Y977475D01*
X146075Y978368D01*
X146075Y992632D01*
X146968Y993525D01*
X163232Y993525D01*
X164125Y992632D01*
X164125Y978368D01*
X163232Y977475D01*
X160738Y977475D01*
X160691Y977439D01*
X160696Y977432D01*
X160689Y977426D01*
X160689Y966574D01*
X160725Y966527D01*
X160732Y966532D01*
X160738Y966525D01*
X163232Y966525D01*
X164125Y965632D01*
X164125Y951368D01*
X163232Y950475D01*
X146968Y950475D01*
G37*
%LPD*%
%LPC*%
G36*
X632868Y1212475D02*
X632868Y1212475D01*
X631975Y1213368D01*
X631975Y1227632D01*
X632868Y1228525D01*
X635362Y1228525D01*
X635409Y1228561D01*
X635404Y1228568D01*
X635411Y1228574D01*
X635411Y1239426D01*
X635375Y1239473D01*
X635368Y1239468D01*
X635362Y1239475D01*
X632868Y1239475D01*
X631975Y1240368D01*
X631975Y1254632D01*
X632868Y1255525D01*
X649132Y1255525D01*
X650025Y1254632D01*
X650025Y1240368D01*
X649132Y1239475D01*
X646638Y1239475D01*
X646591Y1239439D01*
X646596Y1239432D01*
X646589Y1239426D01*
X646589Y1228574D01*
X646625Y1228527D01*
X646632Y1228532D01*
X646638Y1228525D01*
X649132Y1228525D01*
X650025Y1227632D01*
X650025Y1213368D01*
X649132Y1212475D01*
X632868Y1212475D01*
G37*
%LPD*%
%LPC*%
G36*
X590968Y1212475D02*
X590968Y1212475D01*
X590075Y1213368D01*
X590075Y1227632D01*
X590968Y1228525D01*
X593462Y1228525D01*
X593509Y1228561D01*
X593504Y1228568D01*
X593511Y1228574D01*
X593511Y1239426D01*
X593475Y1239473D01*
X593468Y1239468D01*
X593462Y1239475D01*
X590968Y1239475D01*
X590075Y1240368D01*
X590075Y1254632D01*
X590968Y1255525D01*
X607232Y1255525D01*
X608125Y1254632D01*
X608125Y1240368D01*
X607232Y1239475D01*
X604738Y1239475D01*
X604691Y1239439D01*
X604696Y1239432D01*
X604689Y1239426D01*
X604689Y1228574D01*
X604725Y1228527D01*
X604732Y1228532D01*
X604738Y1228525D01*
X607232Y1228525D01*
X608125Y1227632D01*
X608125Y1213368D01*
X607232Y1212475D01*
X590968Y1212475D01*
G37*
%LPD*%
%LPC*%
G36*
X548868Y1212475D02*
X548868Y1212475D01*
X547975Y1213368D01*
X547975Y1227632D01*
X548868Y1228525D01*
X551362Y1228525D01*
X551409Y1228561D01*
X551404Y1228568D01*
X551411Y1228574D01*
X551411Y1239426D01*
X551375Y1239473D01*
X551368Y1239468D01*
X551362Y1239475D01*
X548868Y1239475D01*
X547975Y1240368D01*
X547975Y1254632D01*
X548868Y1255525D01*
X565132Y1255525D01*
X566025Y1254632D01*
X566025Y1240368D01*
X565132Y1239475D01*
X562638Y1239475D01*
X562591Y1239439D01*
X562596Y1239432D01*
X562589Y1239426D01*
X562589Y1228574D01*
X562625Y1228527D01*
X562632Y1228532D01*
X562638Y1228525D01*
X565132Y1228525D01*
X566025Y1227632D01*
X566025Y1213368D01*
X565132Y1212475D01*
X548868Y1212475D01*
G37*
%LPD*%
%LPC*%
G36*
X506868Y1212475D02*
X506868Y1212475D01*
X505975Y1213368D01*
X505975Y1227632D01*
X506868Y1228525D01*
X509362Y1228525D01*
X509409Y1228561D01*
X509404Y1228568D01*
X509411Y1228574D01*
X509411Y1239426D01*
X509375Y1239473D01*
X509368Y1239468D01*
X509362Y1239475D01*
X506868Y1239475D01*
X505975Y1240368D01*
X505975Y1254632D01*
X506868Y1255525D01*
X523132Y1255525D01*
X524025Y1254632D01*
X524025Y1240368D01*
X523132Y1239475D01*
X520638Y1239475D01*
X520591Y1239439D01*
X520596Y1239432D01*
X520589Y1239426D01*
X520589Y1228574D01*
X520625Y1228527D01*
X520632Y1228532D01*
X520638Y1228525D01*
X523132Y1228525D01*
X524025Y1227632D01*
X524025Y1213368D01*
X523132Y1212475D01*
X506868Y1212475D01*
G37*
%LPD*%
%LPC*%
G36*
X188868Y950475D02*
X188868Y950475D01*
X187975Y951368D01*
X187975Y965632D01*
X188868Y966525D01*
X191362Y966525D01*
X191409Y966561D01*
X191404Y966568D01*
X191411Y966574D01*
X191411Y977426D01*
X191375Y977473D01*
X191368Y977468D01*
X191362Y977475D01*
X188868Y977475D01*
X187975Y978368D01*
X187975Y992632D01*
X188868Y993525D01*
X205132Y993525D01*
X206025Y992632D01*
X206025Y978368D01*
X205132Y977475D01*
X202638Y977475D01*
X202591Y977439D01*
X202596Y977432D01*
X202589Y977426D01*
X202589Y966574D01*
X202625Y966527D01*
X202632Y966532D01*
X202638Y966525D01*
X205132Y966525D01*
X206025Y965632D01*
X206025Y951368D01*
X205132Y950475D01*
X188868Y950475D01*
G37*
%LPD*%
%LPC*%
G36*
X805968Y1206475D02*
X805968Y1206475D01*
X805075Y1207368D01*
X805075Y1221632D01*
X805968Y1222525D01*
X808462Y1222525D01*
X808509Y1222561D01*
X808504Y1222568D01*
X808511Y1222574D01*
X808511Y1233426D01*
X808475Y1233473D01*
X808468Y1233468D01*
X808462Y1233475D01*
X805968Y1233475D01*
X805075Y1234368D01*
X805075Y1248632D01*
X805968Y1249525D01*
X822232Y1249525D01*
X823125Y1248632D01*
X823125Y1234368D01*
X822232Y1233475D01*
X819738Y1233475D01*
X819691Y1233439D01*
X819696Y1233432D01*
X819689Y1233426D01*
X819689Y1222574D01*
X819725Y1222527D01*
X819732Y1222532D01*
X819738Y1222525D01*
X822232Y1222525D01*
X823125Y1221632D01*
X823125Y1207368D01*
X822232Y1206475D01*
X805968Y1206475D01*
G37*
%LPD*%
%LPC*%
G36*
X258868Y674475D02*
X258868Y674475D01*
X257975Y675368D01*
X257975Y689632D01*
X258868Y690525D01*
X261362Y690525D01*
X261409Y690561D01*
X261404Y690568D01*
X261411Y690574D01*
X261411Y701426D01*
X261375Y701473D01*
X261368Y701468D01*
X261362Y701475D01*
X258868Y701475D01*
X257975Y702368D01*
X257975Y716632D01*
X258868Y717525D01*
X275132Y717525D01*
X276025Y716632D01*
X276025Y702368D01*
X275132Y701475D01*
X272638Y701475D01*
X272591Y701439D01*
X272596Y701432D01*
X272589Y701426D01*
X272589Y690574D01*
X272625Y690527D01*
X272632Y690532D01*
X272638Y690525D01*
X275132Y690525D01*
X276025Y689632D01*
X276025Y675368D01*
X275132Y674475D01*
X258868Y674475D01*
G37*
%LPD*%
%LPC*%
G36*
X216968Y674475D02*
X216968Y674475D01*
X216075Y675368D01*
X216075Y689632D01*
X216968Y690525D01*
X219462Y690525D01*
X219509Y690561D01*
X219504Y690568D01*
X219511Y690574D01*
X219511Y701426D01*
X219475Y701473D01*
X219468Y701468D01*
X219462Y701475D01*
X216968Y701475D01*
X216075Y702368D01*
X216075Y716632D01*
X216968Y717525D01*
X233232Y717525D01*
X234125Y716632D01*
X234125Y702368D01*
X233232Y701475D01*
X230738Y701475D01*
X230691Y701439D01*
X230696Y701432D01*
X230689Y701426D01*
X230689Y690574D01*
X230725Y690527D01*
X230732Y690532D01*
X230738Y690525D01*
X233232Y690525D01*
X234125Y689632D01*
X234125Y675368D01*
X233232Y674475D01*
X216968Y674475D01*
G37*
%LPD*%
%LPC*%
G36*
X326868Y1210475D02*
X326868Y1210475D01*
X325975Y1211368D01*
X325975Y1225632D01*
X326868Y1226525D01*
X329362Y1226525D01*
X329409Y1226561D01*
X329404Y1226568D01*
X329411Y1226574D01*
X329411Y1237426D01*
X329375Y1237473D01*
X329368Y1237468D01*
X329362Y1237475D01*
X326868Y1237475D01*
X325975Y1238368D01*
X325975Y1252632D01*
X326868Y1253525D01*
X343132Y1253525D01*
X344025Y1252632D01*
X344025Y1238368D01*
X343132Y1237475D01*
X340638Y1237475D01*
X340591Y1237439D01*
X340593Y1237436D01*
X340591Y1237435D01*
X340594Y1237430D01*
X340589Y1237426D01*
X340589Y1226574D01*
X340625Y1226527D01*
X340632Y1226532D01*
X340638Y1226525D01*
X343132Y1226525D01*
X344025Y1225632D01*
X344025Y1211368D01*
X343132Y1210475D01*
X326868Y1210475D01*
G37*
%LPD*%
%LPC*%
G36*
X189868Y1210475D02*
X189868Y1210475D01*
X188975Y1211368D01*
X188975Y1225632D01*
X189868Y1226525D01*
X192362Y1226525D01*
X192409Y1226561D01*
X192404Y1226568D01*
X192411Y1226574D01*
X192411Y1237426D01*
X192375Y1237473D01*
X192368Y1237468D01*
X192362Y1237475D01*
X189868Y1237475D01*
X188975Y1238368D01*
X188975Y1252632D01*
X189868Y1253525D01*
X206132Y1253525D01*
X207025Y1252632D01*
X207025Y1238368D01*
X206132Y1237475D01*
X203638Y1237475D01*
X203591Y1237439D01*
X203593Y1237436D01*
X203591Y1237435D01*
X203594Y1237430D01*
X203589Y1237426D01*
X203589Y1226574D01*
X203625Y1226527D01*
X203632Y1226532D01*
X203638Y1226525D01*
X206132Y1226525D01*
X207025Y1225632D01*
X207025Y1211368D01*
X206132Y1210475D01*
X189868Y1210475D01*
G37*
%LPD*%
%LPC*%
G36*
X147968Y1210475D02*
X147968Y1210475D01*
X147075Y1211368D01*
X147075Y1225632D01*
X147968Y1226525D01*
X150462Y1226525D01*
X150509Y1226561D01*
X150504Y1226568D01*
X150511Y1226574D01*
X150511Y1237426D01*
X150475Y1237473D01*
X150468Y1237468D01*
X150462Y1237475D01*
X147968Y1237475D01*
X147075Y1238368D01*
X147075Y1252632D01*
X147968Y1253525D01*
X164232Y1253525D01*
X165125Y1252632D01*
X165125Y1238368D01*
X164232Y1237475D01*
X161738Y1237475D01*
X161691Y1237439D01*
X161693Y1237436D01*
X161691Y1237435D01*
X161694Y1237430D01*
X161689Y1237426D01*
X161689Y1226574D01*
X161725Y1226527D01*
X161732Y1226532D01*
X161738Y1226525D01*
X164232Y1226525D01*
X165125Y1225632D01*
X165125Y1211368D01*
X164232Y1210475D01*
X147968Y1210475D01*
G37*
%LPD*%
%LPC*%
G36*
X63868Y1210475D02*
X63868Y1210475D01*
X62975Y1211368D01*
X62975Y1225632D01*
X63868Y1226525D01*
X66362Y1226525D01*
X66409Y1226561D01*
X66404Y1226568D01*
X66411Y1226574D01*
X66411Y1237426D01*
X66375Y1237473D01*
X66368Y1237468D01*
X66362Y1237475D01*
X63868Y1237475D01*
X62975Y1238368D01*
X62975Y1252632D01*
X63868Y1253525D01*
X80132Y1253525D01*
X81025Y1252632D01*
X81025Y1238368D01*
X80132Y1237475D01*
X77638Y1237475D01*
X77591Y1237439D01*
X77593Y1237436D01*
X77591Y1237435D01*
X77594Y1237430D01*
X77589Y1237426D01*
X77589Y1226574D01*
X77625Y1226527D01*
X77632Y1226532D01*
X77638Y1226525D01*
X80132Y1226525D01*
X81025Y1225632D01*
X81025Y1211368D01*
X80132Y1210475D01*
X63868Y1210475D01*
G37*
%LPD*%
%LPC*%
G36*
X105868Y1210475D02*
X105868Y1210475D01*
X104975Y1211368D01*
X104975Y1225632D01*
X105868Y1226525D01*
X108362Y1226525D01*
X108409Y1226561D01*
X108404Y1226568D01*
X108411Y1226574D01*
X108411Y1237426D01*
X108375Y1237473D01*
X108368Y1237468D01*
X108362Y1237475D01*
X105868Y1237475D01*
X104975Y1238368D01*
X104975Y1252632D01*
X105868Y1253525D01*
X122132Y1253525D01*
X123025Y1252632D01*
X123025Y1238368D01*
X122132Y1237475D01*
X119638Y1237475D01*
X119591Y1237439D01*
X119593Y1237436D01*
X119591Y1237435D01*
X119594Y1237430D01*
X119589Y1237426D01*
X119589Y1226574D01*
X119625Y1226527D01*
X119632Y1226532D01*
X119638Y1226525D01*
X122132Y1226525D01*
X123025Y1225632D01*
X123025Y1211368D01*
X122132Y1210475D01*
X105868Y1210475D01*
G37*
%LPD*%
%LPC*%
G36*
X410868Y1210475D02*
X410868Y1210475D01*
X409975Y1211368D01*
X409975Y1225632D01*
X410868Y1226525D01*
X413362Y1226525D01*
X413409Y1226561D01*
X413404Y1226568D01*
X413411Y1226574D01*
X413411Y1237426D01*
X413375Y1237473D01*
X413368Y1237468D01*
X413362Y1237475D01*
X410868Y1237475D01*
X409975Y1238368D01*
X409975Y1252632D01*
X410868Y1253525D01*
X427132Y1253525D01*
X428025Y1252632D01*
X428025Y1238368D01*
X427132Y1237475D01*
X424638Y1237475D01*
X424591Y1237439D01*
X424593Y1237436D01*
X424591Y1237435D01*
X424594Y1237430D01*
X424589Y1237426D01*
X424589Y1226574D01*
X424625Y1226527D01*
X424632Y1226532D01*
X424638Y1226525D01*
X427132Y1226525D01*
X428025Y1225632D01*
X428025Y1211368D01*
X427132Y1210475D01*
X410868Y1210475D01*
G37*
%LPD*%
%LPC*%
G36*
X368968Y1210475D02*
X368968Y1210475D01*
X368075Y1211368D01*
X368075Y1225632D01*
X368968Y1226525D01*
X371462Y1226525D01*
X371509Y1226561D01*
X371504Y1226568D01*
X371511Y1226574D01*
X371511Y1237426D01*
X371475Y1237473D01*
X371468Y1237468D01*
X371462Y1237475D01*
X368968Y1237475D01*
X368075Y1238368D01*
X368075Y1252632D01*
X368968Y1253525D01*
X385232Y1253525D01*
X386125Y1252632D01*
X386125Y1238368D01*
X385232Y1237475D01*
X382738Y1237475D01*
X382691Y1237439D01*
X382693Y1237436D01*
X382691Y1237435D01*
X382694Y1237430D01*
X382689Y1237426D01*
X382689Y1226574D01*
X382725Y1226527D01*
X382732Y1226532D01*
X382738Y1226525D01*
X385232Y1226525D01*
X386125Y1225632D01*
X386125Y1211368D01*
X385232Y1210475D01*
X368968Y1210475D01*
G37*
%LPD*%
%LPC*%
G36*
X479868Y675475D02*
X479868Y675475D01*
X478975Y676368D01*
X478975Y690632D01*
X479868Y691525D01*
X482362Y691525D01*
X482409Y691561D01*
X482405Y691567D01*
X482409Y691570D01*
X482408Y691572D01*
X482411Y691574D01*
X482411Y702426D01*
X482375Y702473D01*
X482368Y702468D01*
X482362Y702475D01*
X479868Y702475D01*
X478975Y703368D01*
X478975Y717632D01*
X479868Y718525D01*
X496132Y718525D01*
X497025Y717632D01*
X497025Y703368D01*
X496132Y702475D01*
X493638Y702475D01*
X493591Y702439D01*
X493594Y702435D01*
X493591Y702432D01*
X493593Y702429D01*
X493589Y702426D01*
X493589Y691574D01*
X493625Y691527D01*
X493632Y691532D01*
X493638Y691525D01*
X496132Y691525D01*
X497025Y690632D01*
X497025Y676368D01*
X496132Y675475D01*
X479868Y675475D01*
G37*
%LPD*%
%LPC*%
G36*
X395868Y675475D02*
X395868Y675475D01*
X394975Y676368D01*
X394975Y690632D01*
X395868Y691525D01*
X398362Y691525D01*
X398409Y691561D01*
X398405Y691567D01*
X398409Y691570D01*
X398408Y691572D01*
X398411Y691574D01*
X398411Y702426D01*
X398375Y702473D01*
X398368Y702468D01*
X398362Y702475D01*
X395868Y702475D01*
X394975Y703368D01*
X394975Y717632D01*
X395868Y718525D01*
X412132Y718525D01*
X413025Y717632D01*
X413025Y703368D01*
X412132Y702475D01*
X409638Y702475D01*
X409591Y702439D01*
X409594Y702435D01*
X409591Y702432D01*
X409593Y702429D01*
X409589Y702426D01*
X409589Y691574D01*
X409625Y691527D01*
X409632Y691532D01*
X409638Y691525D01*
X412132Y691525D01*
X413025Y690632D01*
X413025Y676368D01*
X412132Y675475D01*
X395868Y675475D01*
G37*
%LPD*%
%LPC*%
G36*
X437968Y675475D02*
X437968Y675475D01*
X437075Y676368D01*
X437075Y690632D01*
X437968Y691525D01*
X440462Y691525D01*
X440509Y691561D01*
X440505Y691567D01*
X440509Y691570D01*
X440508Y691572D01*
X440511Y691574D01*
X440511Y702426D01*
X440475Y702473D01*
X440468Y702468D01*
X440462Y702475D01*
X437968Y702475D01*
X437075Y703368D01*
X437075Y717632D01*
X437968Y718525D01*
X454232Y718525D01*
X455125Y717632D01*
X455125Y703368D01*
X454232Y702475D01*
X451738Y702475D01*
X451691Y702439D01*
X451694Y702435D01*
X451691Y702432D01*
X451693Y702429D01*
X451689Y702426D01*
X451689Y691574D01*
X451725Y691527D01*
X451732Y691532D01*
X451738Y691525D01*
X454232Y691525D01*
X455125Y690632D01*
X455125Y676368D01*
X454232Y675475D01*
X437968Y675475D01*
G37*
%LPD*%
%LPC*%
G36*
X353868Y675475D02*
X353868Y675475D01*
X352975Y676368D01*
X352975Y690632D01*
X353868Y691525D01*
X356362Y691525D01*
X356409Y691561D01*
X356405Y691567D01*
X356409Y691570D01*
X356408Y691572D01*
X356411Y691574D01*
X356411Y702426D01*
X356375Y702473D01*
X356368Y702468D01*
X356362Y702475D01*
X353868Y702475D01*
X352975Y703368D01*
X352975Y717632D01*
X353868Y718525D01*
X370132Y718525D01*
X371025Y717632D01*
X371025Y703368D01*
X370132Y702475D01*
X367638Y702475D01*
X367591Y702439D01*
X367594Y702435D01*
X367591Y702432D01*
X367593Y702429D01*
X367589Y702426D01*
X367589Y691574D01*
X367625Y691527D01*
X367632Y691532D01*
X367638Y691525D01*
X370132Y691525D01*
X371025Y690632D01*
X371025Y676368D01*
X370132Y675475D01*
X353868Y675475D01*
G37*
%LPD*%
%LPC*%
G36*
X284868Y1210475D02*
X284868Y1210475D01*
X283975Y1211368D01*
X283975Y1225632D01*
X284868Y1226525D01*
X290156Y1226525D01*
X290203Y1226561D01*
X290198Y1226568D01*
X290205Y1226574D01*
X290205Y1237426D01*
X290169Y1237473D01*
X290162Y1237468D01*
X290156Y1237475D01*
X284868Y1237475D01*
X283975Y1238368D01*
X283975Y1252632D01*
X284868Y1253525D01*
X301132Y1253525D01*
X302025Y1252632D01*
X302025Y1238368D01*
X301132Y1237475D01*
X295844Y1237475D01*
X295797Y1237439D01*
X295799Y1237436D01*
X295797Y1237435D01*
X295800Y1237430D01*
X295795Y1237426D01*
X295795Y1226574D01*
X295831Y1226527D01*
X295838Y1226532D01*
X295844Y1226525D01*
X301132Y1226525D01*
X302025Y1225632D01*
X302025Y1211368D01*
X301132Y1210475D01*
X284868Y1210475D01*
G37*
%LPD*%
%LPC*%
G36*
X1063891Y1060998D02*
X1063891Y1060998D01*
X1062998Y1061891D01*
X1062998Y1084109D01*
X1063891Y1085002D01*
X1086109Y1085002D01*
X1087002Y1084109D01*
X1087002Y1061891D01*
X1086109Y1060998D01*
X1063891Y1060998D01*
G37*
%LPD*%
%LPC*%
G36*
X185891Y801998D02*
X185891Y801998D01*
X184998Y802891D01*
X184998Y825109D01*
X185891Y826002D01*
X208109Y826002D01*
X209002Y825109D01*
X209002Y802891D01*
X208109Y801998D01*
X185891Y801998D01*
G37*
%LPD*%
%LPC*%
G36*
X844891Y1057998D02*
X844891Y1057998D01*
X843998Y1058891D01*
X843998Y1081109D01*
X844891Y1082002D01*
X867109Y1082002D01*
X868002Y1081109D01*
X868002Y1058891D01*
X867109Y1057998D01*
X844891Y1057998D01*
G37*
%LPD*%
%LPC*%
G36*
X398891Y804998D02*
X398891Y804998D01*
X397998Y805891D01*
X397998Y828109D01*
X398891Y829002D01*
X421109Y829002D01*
X422002Y828109D01*
X422002Y805891D01*
X421109Y804998D01*
X398891Y804998D01*
G37*
%LPD*%
%LPC*%
G36*
X476891Y526998D02*
X476891Y526998D01*
X475998Y527891D01*
X475998Y550109D01*
X476891Y551002D01*
X499109Y551002D01*
X500002Y550109D01*
X500002Y527891D01*
X499109Y526998D01*
X476891Y526998D01*
G37*
%LPD*%
%LPC*%
G36*
X841891Y804998D02*
X841891Y804998D01*
X840998Y805891D01*
X840998Y828109D01*
X841891Y829002D01*
X864109Y829002D01*
X865002Y828109D01*
X865002Y805891D01*
X864109Y804998D01*
X841891Y804998D01*
G37*
%LPD*%
%LPC*%
G36*
X628891Y804998D02*
X628891Y804998D01*
X627998Y805891D01*
X627998Y828109D01*
X628891Y829002D01*
X651109Y829002D01*
X652002Y828109D01*
X652002Y805891D01*
X651109Y804998D01*
X628891Y804998D01*
G37*
%LPD*%
%LPC*%
G36*
X1060891Y806998D02*
X1060891Y806998D01*
X1059998Y807891D01*
X1059998Y830109D01*
X1060891Y831002D01*
X1083109Y831002D01*
X1084002Y830109D01*
X1084002Y807891D01*
X1083109Y806998D01*
X1060891Y806998D01*
G37*
%LPD*%
%LPC*%
G36*
X186891Y1061998D02*
X186891Y1061998D01*
X185998Y1062891D01*
X185998Y1085109D01*
X186891Y1086002D01*
X209109Y1086002D01*
X210002Y1085109D01*
X210002Y1062891D01*
X209109Y1061998D01*
X186891Y1061998D01*
G37*
%LPD*%
%LPC*%
G36*
X407891Y1061998D02*
X407891Y1061998D01*
X406998Y1062891D01*
X406998Y1085109D01*
X407891Y1086002D01*
X430109Y1086002D01*
X431002Y1085109D01*
X431002Y1062891D01*
X430109Y1061998D01*
X407891Y1061998D01*
G37*
%LPD*%
%LPC*%
G36*
X629891Y1063998D02*
X629891Y1063998D01*
X628998Y1064891D01*
X628998Y1087109D01*
X629891Y1088002D01*
X652109Y1088002D01*
X653002Y1087109D01*
X653002Y1064891D01*
X652109Y1063998D01*
X629891Y1063998D01*
G37*
%LPD*%
%LPC*%
G36*
X255891Y525998D02*
X255891Y525998D01*
X254998Y526891D01*
X254998Y549109D01*
X255891Y550002D01*
X278109Y550002D01*
X279002Y549109D01*
X279002Y526891D01*
X278109Y525998D01*
X255891Y525998D01*
G37*
%LPD*%
%LPC*%
G36*
X760868Y1002475D02*
X760868Y1002475D01*
X759975Y1003368D01*
X759975Y1017632D01*
X760868Y1018525D01*
X764362Y1018525D01*
X764409Y1018561D01*
X764404Y1018568D01*
X764411Y1018574D01*
X764411Y1036315D01*
X767685Y1039589D01*
X772315Y1039589D01*
X775589Y1036315D01*
X775589Y1018574D01*
X775625Y1018527D01*
X775632Y1018532D01*
X775638Y1018525D01*
X777132Y1018525D01*
X778025Y1017632D01*
X778025Y1003368D01*
X777132Y1002475D01*
X760868Y1002475D01*
G37*
%LPD*%
%LPC*%
G36*
X718868Y1002475D02*
X718868Y1002475D01*
X717975Y1003368D01*
X717975Y1017632D01*
X718868Y1018525D01*
X723362Y1018525D01*
X723409Y1018561D01*
X723404Y1018568D01*
X723411Y1018574D01*
X723411Y1036315D01*
X726685Y1039589D01*
X731315Y1039589D01*
X734589Y1036315D01*
X734589Y1018574D01*
X734625Y1018527D01*
X734632Y1018532D01*
X734638Y1018525D01*
X735132Y1018525D01*
X736025Y1017632D01*
X736025Y1003368D01*
X735132Y1002475D01*
X718868Y1002475D01*
G37*
%LPD*%
%LPC*%
G36*
X281685Y913411D02*
X281685Y913411D01*
X278411Y916685D01*
X278411Y934426D01*
X278375Y934473D01*
X278368Y934468D01*
X278362Y934475D01*
X275868Y934475D01*
X274975Y935368D01*
X274975Y949632D01*
X275868Y950525D01*
X292132Y950525D01*
X293025Y949632D01*
X293025Y935368D01*
X292132Y934475D01*
X289638Y934475D01*
X289591Y934439D01*
X289596Y934432D01*
X289589Y934426D01*
X289589Y916685D01*
X286315Y913411D01*
X281685Y913411D01*
G37*
%LPD*%
%LPC*%
G36*
X511685Y913411D02*
X511685Y913411D01*
X508411Y916685D01*
X508411Y934426D01*
X508375Y934473D01*
X508368Y934468D01*
X508362Y934475D01*
X505868Y934475D01*
X504975Y935368D01*
X504975Y949632D01*
X505868Y950525D01*
X522132Y950525D01*
X523025Y949632D01*
X523025Y935368D01*
X522132Y934475D01*
X519638Y934475D01*
X519591Y934439D01*
X519596Y934432D01*
X519589Y934426D01*
X519589Y916685D01*
X516315Y913411D01*
X511685Y913411D01*
G37*
%LPD*%
%LPC*%
G36*
X138685Y634411D02*
X138685Y634411D01*
X135411Y637685D01*
X135411Y655426D01*
X135375Y655473D01*
X135368Y655468D01*
X135362Y655475D01*
X132868Y655475D01*
X131975Y656368D01*
X131975Y670632D01*
X132868Y671525D01*
X149132Y671525D01*
X150025Y670632D01*
X150025Y656368D01*
X149132Y655475D01*
X146638Y655475D01*
X146591Y655439D01*
X146596Y655432D01*
X146589Y655426D01*
X146589Y637685D01*
X143315Y634411D01*
X138685Y634411D01*
G37*
%LPD*%
%LPC*%
G36*
X946685Y1169411D02*
X946685Y1169411D01*
X943411Y1172685D01*
X943411Y1190426D01*
X943375Y1190473D01*
X943368Y1190468D01*
X943362Y1190475D01*
X940868Y1190475D01*
X939975Y1191368D01*
X939975Y1205632D01*
X940868Y1206525D01*
X957132Y1206525D01*
X958025Y1205632D01*
X958025Y1191368D01*
X957132Y1190475D01*
X954638Y1190475D01*
X954591Y1190439D01*
X954596Y1190432D01*
X954589Y1190426D01*
X954589Y1172685D01*
X951315Y1169411D01*
X946685Y1169411D01*
G37*
%LPD*%
%LPC*%
G36*
X512685Y1172411D02*
X512685Y1172411D01*
X509411Y1175685D01*
X509411Y1193426D01*
X509375Y1193473D01*
X509368Y1193468D01*
X509362Y1193475D01*
X506868Y1193475D01*
X505975Y1194368D01*
X505975Y1208632D01*
X506868Y1209525D01*
X523132Y1209525D01*
X524025Y1208632D01*
X524025Y1194368D01*
X523132Y1193475D01*
X520638Y1193475D01*
X520591Y1193439D01*
X520596Y1193432D01*
X520589Y1193426D01*
X520589Y1175685D01*
X517315Y1172411D01*
X512685Y1172411D01*
G37*
%LPD*%
%LPC*%
G36*
X727685Y1166411D02*
X727685Y1166411D01*
X724411Y1169685D01*
X724411Y1187426D01*
X724375Y1187473D01*
X724368Y1187468D01*
X724362Y1187475D01*
X721868Y1187475D01*
X720975Y1188368D01*
X720975Y1202632D01*
X721868Y1203525D01*
X738132Y1203525D01*
X739025Y1202632D01*
X739025Y1188368D01*
X738132Y1187475D01*
X735638Y1187475D01*
X735591Y1187439D01*
X735596Y1187432D01*
X735589Y1187426D01*
X735589Y1169685D01*
X732315Y1166411D01*
X727685Y1166411D01*
G37*
%LPD*%
%LPC*%
G36*
X68685Y910411D02*
X68685Y910411D01*
X65411Y913685D01*
X65411Y931426D01*
X65375Y931473D01*
X65368Y931468D01*
X65362Y931475D01*
X62868Y931475D01*
X61975Y932368D01*
X61975Y946632D01*
X62868Y947525D01*
X79132Y947525D01*
X80025Y946632D01*
X80025Y932368D01*
X79132Y931475D01*
X76638Y931475D01*
X76591Y931439D01*
X76596Y931432D01*
X76589Y931426D01*
X76589Y913685D01*
X73315Y910411D01*
X68685Y910411D01*
G37*
%LPD*%
%LPC*%
G36*
X844868Y1003475D02*
X844868Y1003475D01*
X843975Y1004368D01*
X843975Y1018632D01*
X844868Y1019525D01*
X848362Y1019525D01*
X848409Y1019561D01*
X848404Y1019568D01*
X848411Y1019574D01*
X848411Y1037315D01*
X851685Y1040589D01*
X856315Y1040589D01*
X859589Y1037315D01*
X859589Y1019574D01*
X859625Y1019527D01*
X859632Y1019532D01*
X859638Y1019525D01*
X861132Y1019525D01*
X862025Y1018632D01*
X862025Y1004368D01*
X861132Y1003475D01*
X844868Y1003475D01*
G37*
%LPD*%
%LPC*%
G36*
X802868Y1003475D02*
X802868Y1003475D01*
X801975Y1004368D01*
X801975Y1018632D01*
X802868Y1019525D01*
X806362Y1019525D01*
X806409Y1019561D01*
X806404Y1019568D01*
X806411Y1019574D01*
X806411Y1037315D01*
X809685Y1040589D01*
X814315Y1040589D01*
X817589Y1037315D01*
X817589Y1019574D01*
X817625Y1019527D01*
X817632Y1019532D01*
X817638Y1019525D01*
X819132Y1019525D01*
X820025Y1018632D01*
X820025Y1004368D01*
X819132Y1003475D01*
X802868Y1003475D01*
G37*
%LPD*%
%LPC*%
G36*
X290685Y1170411D02*
X290685Y1170411D01*
X287411Y1173685D01*
X287411Y1191426D01*
X287375Y1191473D01*
X287368Y1191468D01*
X287362Y1191475D01*
X284868Y1191475D01*
X283975Y1192368D01*
X283975Y1206632D01*
X284868Y1207525D01*
X301132Y1207525D01*
X302025Y1206632D01*
X302025Y1192368D01*
X301132Y1191475D01*
X298638Y1191475D01*
X298591Y1191439D01*
X298593Y1191437D01*
X298591Y1191435D01*
X298594Y1191430D01*
X298589Y1191426D01*
X298589Y1173685D01*
X295315Y1170411D01*
X290685Y1170411D01*
G37*
%LPD*%
%LPC*%
G36*
X69685Y1170411D02*
X69685Y1170411D01*
X66411Y1173685D01*
X66411Y1191426D01*
X66375Y1191473D01*
X66368Y1191468D01*
X66362Y1191475D01*
X63868Y1191475D01*
X62975Y1192368D01*
X62975Y1206632D01*
X63868Y1207525D01*
X80132Y1207525D01*
X81025Y1206632D01*
X81025Y1192368D01*
X80132Y1191475D01*
X77638Y1191475D01*
X77591Y1191439D01*
X77593Y1191437D01*
X77591Y1191435D01*
X77594Y1191430D01*
X77589Y1191426D01*
X77589Y1173685D01*
X74315Y1170411D01*
X69685Y1170411D01*
G37*
%LPD*%
%LPC*%
G36*
X359685Y635411D02*
X359685Y635411D01*
X356411Y638685D01*
X356411Y656426D01*
X356375Y656473D01*
X356368Y656468D01*
X356362Y656475D01*
X353868Y656475D01*
X352975Y657368D01*
X352975Y671632D01*
X353868Y672525D01*
X370132Y672525D01*
X371025Y671632D01*
X371025Y657368D01*
X370132Y656475D01*
X367638Y656475D01*
X367591Y656439D01*
X367594Y656435D01*
X367591Y656433D01*
X367593Y656429D01*
X367589Y656426D01*
X367589Y638685D01*
X364315Y635411D01*
X359685Y635411D01*
G37*
%LPD*%
%LPC*%
G36*
X284868Y1256475D02*
X284868Y1256475D01*
X283975Y1257368D01*
X283975Y1271632D01*
X284868Y1272525D01*
X287362Y1272525D01*
X287409Y1272561D01*
X287404Y1272568D01*
X287411Y1272574D01*
X287411Y1289315D01*
X290685Y1292589D01*
X295315Y1292589D01*
X298589Y1289315D01*
X298589Y1272574D01*
X298625Y1272527D01*
X298632Y1272532D01*
X298638Y1272525D01*
X301132Y1272525D01*
X302025Y1271632D01*
X302025Y1257368D01*
X301132Y1256475D01*
X284868Y1256475D01*
G37*
%LPD*%
%LPC*%
G36*
X63868Y1256475D02*
X63868Y1256475D01*
X62975Y1257368D01*
X62975Y1271632D01*
X63868Y1272525D01*
X66362Y1272525D01*
X66409Y1272561D01*
X66404Y1272568D01*
X66411Y1272574D01*
X66411Y1289315D01*
X69685Y1292589D01*
X74315Y1292589D01*
X77589Y1289315D01*
X77589Y1272574D01*
X77625Y1272527D01*
X77632Y1272532D01*
X77638Y1272525D01*
X80132Y1272525D01*
X81025Y1271632D01*
X81025Y1257368D01*
X80132Y1256475D01*
X63868Y1256475D01*
G37*
%LPD*%
%LPC*%
G36*
X132868Y720475D02*
X132868Y720475D01*
X131975Y721368D01*
X131975Y735632D01*
X132868Y736525D01*
X135362Y736525D01*
X135409Y736561D01*
X135404Y736568D01*
X135411Y736574D01*
X135411Y753315D01*
X138685Y756589D01*
X143315Y756589D01*
X146589Y753315D01*
X146589Y736574D01*
X146625Y736527D01*
X146632Y736532D01*
X146638Y736525D01*
X149132Y736525D01*
X150025Y735632D01*
X150025Y721368D01*
X149132Y720475D01*
X132868Y720475D01*
G37*
%LPD*%
%LPC*%
G36*
X1021868Y1001475D02*
X1021868Y1001475D01*
X1020975Y1002368D01*
X1020975Y1016632D01*
X1021868Y1017525D01*
X1024362Y1017525D01*
X1024409Y1017561D01*
X1024404Y1017568D01*
X1024411Y1017574D01*
X1024411Y1034315D01*
X1027685Y1037589D01*
X1032315Y1037589D01*
X1035589Y1034315D01*
X1035589Y1017574D01*
X1035625Y1017527D01*
X1035632Y1017532D01*
X1035638Y1017525D01*
X1038132Y1017525D01*
X1039025Y1016632D01*
X1039025Y1002368D01*
X1038132Y1001475D01*
X1021868Y1001475D01*
G37*
%LPD*%
%LPC*%
G36*
X940868Y1255475D02*
X940868Y1255475D01*
X939975Y1256368D01*
X939975Y1270632D01*
X940868Y1271525D01*
X943362Y1271525D01*
X943409Y1271561D01*
X943404Y1271568D01*
X943411Y1271574D01*
X943411Y1288315D01*
X946685Y1291589D01*
X951315Y1291589D01*
X954589Y1288315D01*
X954589Y1271574D01*
X954625Y1271527D01*
X954632Y1271532D01*
X954638Y1271525D01*
X957132Y1271525D01*
X958025Y1270632D01*
X958025Y1256368D01*
X957132Y1255475D01*
X940868Y1255475D01*
G37*
%LPD*%
%LPC*%
G36*
X721868Y1252475D02*
X721868Y1252475D01*
X720975Y1253368D01*
X720975Y1267632D01*
X721868Y1268525D01*
X724362Y1268525D01*
X724409Y1268561D01*
X724404Y1268568D01*
X724411Y1268574D01*
X724411Y1285315D01*
X727685Y1288589D01*
X732315Y1288589D01*
X735589Y1285315D01*
X735589Y1268574D01*
X735625Y1268527D01*
X735632Y1268532D01*
X735638Y1268525D01*
X738132Y1268525D01*
X739025Y1267632D01*
X739025Y1253368D01*
X738132Y1252475D01*
X721868Y1252475D01*
G37*
%LPD*%
%LPC*%
G36*
X62868Y996475D02*
X62868Y996475D01*
X61975Y997368D01*
X61975Y1011632D01*
X62868Y1012525D01*
X65362Y1012525D01*
X65409Y1012561D01*
X65404Y1012568D01*
X65411Y1012574D01*
X65411Y1029315D01*
X68685Y1032589D01*
X73315Y1032589D01*
X76589Y1029315D01*
X76589Y1012574D01*
X76625Y1012527D01*
X76632Y1012532D01*
X76638Y1012525D01*
X79132Y1012525D01*
X80025Y1011632D01*
X80025Y997368D01*
X79132Y996475D01*
X62868Y996475D01*
G37*
%LPD*%
%LPC*%
G36*
X724685Y909411D02*
X724685Y909411D01*
X721411Y912685D01*
X721411Y929426D01*
X721375Y929473D01*
X721368Y929468D01*
X721362Y929475D01*
X718868Y929475D01*
X717975Y930368D01*
X717975Y944632D01*
X718868Y945525D01*
X735132Y945525D01*
X736025Y944632D01*
X736025Y930368D01*
X735132Y929475D01*
X732638Y929475D01*
X732591Y929439D01*
X732596Y929432D01*
X732589Y929426D01*
X732589Y912685D01*
X729315Y909411D01*
X724685Y909411D01*
G37*
%LPD*%
%LPC*%
G36*
X506868Y1258475D02*
X506868Y1258475D01*
X505975Y1259368D01*
X505975Y1273632D01*
X506868Y1274525D01*
X509362Y1274525D01*
X509409Y1274561D01*
X509404Y1274568D01*
X509411Y1274574D01*
X509411Y1291315D01*
X512685Y1294589D01*
X517315Y1294589D01*
X520589Y1291315D01*
X520589Y1274574D01*
X520625Y1274527D01*
X520632Y1274532D01*
X520638Y1274525D01*
X523132Y1274525D01*
X524025Y1273632D01*
X524025Y1259368D01*
X523132Y1258475D01*
X506868Y1258475D01*
G37*
%LPD*%
%LPC*%
G36*
X505868Y999475D02*
X505868Y999475D01*
X504975Y1000368D01*
X504975Y1014632D01*
X505868Y1015525D01*
X508362Y1015525D01*
X508409Y1015561D01*
X508404Y1015568D01*
X508411Y1015574D01*
X508411Y1032315D01*
X511685Y1035589D01*
X516315Y1035589D01*
X519589Y1032315D01*
X519589Y1015574D01*
X519625Y1015527D01*
X519632Y1015532D01*
X519638Y1015525D01*
X522132Y1015525D01*
X523025Y1014632D01*
X523025Y1000368D01*
X522132Y999475D01*
X505868Y999475D01*
G37*
%LPD*%
%LPC*%
G36*
X979868Y1001475D02*
X979868Y1001475D01*
X978975Y1002368D01*
X978975Y1016632D01*
X979868Y1017525D01*
X982362Y1017525D01*
X982409Y1017561D01*
X982404Y1017568D01*
X982411Y1017574D01*
X982411Y1034315D01*
X985685Y1037589D01*
X990315Y1037589D01*
X993589Y1034315D01*
X993589Y1017574D01*
X993625Y1017527D01*
X993632Y1017532D01*
X993638Y1017525D01*
X996132Y1017525D01*
X997025Y1016632D01*
X997025Y1002368D01*
X996132Y1001475D01*
X979868Y1001475D01*
G37*
%LPD*%
%LPC*%
G36*
X275868Y999475D02*
X275868Y999475D01*
X274975Y1000368D01*
X274975Y1014632D01*
X275868Y1015525D01*
X278362Y1015525D01*
X278409Y1015561D01*
X278404Y1015568D01*
X278411Y1015574D01*
X278411Y1032315D01*
X281685Y1035589D01*
X286315Y1035589D01*
X289589Y1032315D01*
X289589Y1015574D01*
X289625Y1015527D01*
X289632Y1015532D01*
X289638Y1015525D01*
X292132Y1015525D01*
X293025Y1014632D01*
X293025Y1000368D01*
X292132Y999475D01*
X275868Y999475D01*
G37*
%LPD*%
%LPC*%
G36*
X353868Y721475D02*
X353868Y721475D01*
X352975Y722368D01*
X352975Y736632D01*
X353868Y737525D01*
X356362Y737525D01*
X356409Y737561D01*
X356405Y737567D01*
X356409Y737570D01*
X356408Y737572D01*
X356411Y737574D01*
X356411Y754315D01*
X359685Y757589D01*
X364315Y757589D01*
X367589Y754315D01*
X367589Y737574D01*
X367625Y737527D01*
X367632Y737532D01*
X367638Y737525D01*
X370132Y737525D01*
X371025Y736632D01*
X371025Y722368D01*
X370132Y721475D01*
X353868Y721475D01*
G37*
%LPD*%
%LPC*%
G36*
X1064868Y1001475D02*
X1064868Y1001475D01*
X1063975Y1002368D01*
X1063975Y1016632D01*
X1064868Y1017525D01*
X1067362Y1017525D01*
X1067409Y1017561D01*
X1067404Y1017568D01*
X1067411Y1017574D01*
X1067411Y1032315D01*
X1071685Y1036589D01*
X1076315Y1036589D01*
X1079589Y1033315D01*
X1079589Y1028685D01*
X1078603Y1027699D01*
X1078601Y1027686D01*
X1078592Y1027679D01*
X1078598Y1027671D01*
X1078589Y1027665D01*
X1078589Y1017574D01*
X1078625Y1017527D01*
X1078632Y1017532D01*
X1078638Y1017525D01*
X1081132Y1017525D01*
X1082025Y1016632D01*
X1082025Y1002368D01*
X1081132Y1001475D01*
X1064868Y1001475D01*
G37*
%LPD*%
%LPC*%
G36*
X851685Y910411D02*
X851685Y910411D01*
X847661Y914435D01*
X847661Y929426D01*
X847625Y929473D01*
X847618Y929468D01*
X847612Y929475D01*
X844868Y929475D01*
X843975Y930368D01*
X843975Y944632D01*
X844868Y945525D01*
X861132Y945525D01*
X862025Y944632D01*
X862025Y930368D01*
X861132Y929475D01*
X858888Y929475D01*
X858841Y929439D01*
X858846Y929432D01*
X858839Y929426D01*
X858839Y919085D01*
X858855Y919064D01*
X858853Y919051D01*
X859589Y918315D01*
X859589Y913685D01*
X856315Y910411D01*
X851685Y910411D01*
G37*
%LPD*%
%LPC*%
G36*
X368968Y1256475D02*
X368968Y1256475D01*
X368075Y1257368D01*
X368075Y1271632D01*
X368968Y1272525D01*
X371462Y1272525D01*
X371509Y1272561D01*
X371504Y1272568D01*
X371511Y1272574D01*
X371511Y1283565D01*
X371495Y1283586D01*
X371497Y1283599D01*
X371411Y1283685D01*
X371411Y1288315D01*
X374685Y1291589D01*
X379315Y1291589D01*
X382689Y1288215D01*
X382689Y1272574D01*
X382725Y1272527D01*
X382732Y1272532D01*
X382738Y1272525D01*
X385232Y1272525D01*
X386125Y1271632D01*
X386125Y1257368D01*
X385232Y1256475D01*
X368968Y1256475D01*
G37*
%LPD*%
%LPC*%
G36*
X147968Y1256475D02*
X147968Y1256475D01*
X147075Y1257368D01*
X147075Y1271632D01*
X147968Y1272525D01*
X150462Y1272525D01*
X150509Y1272561D01*
X150504Y1272568D01*
X150511Y1272574D01*
X150511Y1283565D01*
X150495Y1283586D01*
X150497Y1283599D01*
X150411Y1283685D01*
X150411Y1288315D01*
X153685Y1291589D01*
X158315Y1291589D01*
X161689Y1288215D01*
X161689Y1272574D01*
X161725Y1272527D01*
X161732Y1272532D01*
X161738Y1272525D01*
X164232Y1272525D01*
X165125Y1271632D01*
X165125Y1257368D01*
X164232Y1256475D01*
X147968Y1256475D01*
G37*
%LPD*%
%LPC*%
G36*
X805968Y1252475D02*
X805968Y1252475D01*
X805075Y1253368D01*
X805075Y1267632D01*
X805968Y1268525D01*
X808462Y1268525D01*
X808509Y1268561D01*
X808504Y1268568D01*
X808511Y1268574D01*
X808511Y1279565D01*
X808495Y1279586D01*
X808497Y1279599D01*
X808411Y1279685D01*
X808411Y1284315D01*
X811685Y1287589D01*
X816315Y1287589D01*
X819689Y1284215D01*
X819689Y1268574D01*
X819725Y1268527D01*
X819732Y1268532D01*
X819738Y1268525D01*
X822232Y1268525D01*
X823125Y1267632D01*
X823125Y1253368D01*
X822232Y1252475D01*
X805968Y1252475D01*
G37*
%LPD*%
%LPC*%
G36*
X1024968Y1255475D02*
X1024968Y1255475D01*
X1024075Y1256368D01*
X1024075Y1270632D01*
X1024968Y1271525D01*
X1027462Y1271525D01*
X1027509Y1271561D01*
X1027504Y1271568D01*
X1027511Y1271574D01*
X1027511Y1282565D01*
X1027495Y1282586D01*
X1027497Y1282599D01*
X1027411Y1282685D01*
X1027411Y1287315D01*
X1030685Y1290589D01*
X1035315Y1290589D01*
X1038689Y1287215D01*
X1038689Y1271574D01*
X1038725Y1271527D01*
X1038732Y1271532D01*
X1038738Y1271525D01*
X1041232Y1271525D01*
X1042125Y1270632D01*
X1042125Y1256368D01*
X1041232Y1255475D01*
X1024968Y1255475D01*
G37*
%LPD*%
%LPC*%
G36*
X589968Y999475D02*
X589968Y999475D01*
X589075Y1000368D01*
X589075Y1014632D01*
X589968Y1015525D01*
X592462Y1015525D01*
X592509Y1015561D01*
X592504Y1015568D01*
X592511Y1015574D01*
X592511Y1026565D01*
X592495Y1026586D01*
X592497Y1026599D01*
X592411Y1026685D01*
X592411Y1031315D01*
X595685Y1034589D01*
X600315Y1034589D01*
X603689Y1031215D01*
X603689Y1015574D01*
X603725Y1015527D01*
X603732Y1015532D01*
X603738Y1015525D01*
X606232Y1015525D01*
X607125Y1014632D01*
X607125Y1000368D01*
X606232Y999475D01*
X589968Y999475D01*
G37*
%LPD*%
%LPC*%
G36*
X146968Y996475D02*
X146968Y996475D01*
X146075Y997368D01*
X146075Y1011632D01*
X146968Y1012525D01*
X149462Y1012525D01*
X149509Y1012561D01*
X149504Y1012568D01*
X149511Y1012574D01*
X149511Y1023565D01*
X149495Y1023586D01*
X149497Y1023599D01*
X149411Y1023685D01*
X149411Y1028315D01*
X152685Y1031589D01*
X157315Y1031589D01*
X160689Y1028215D01*
X160689Y1012574D01*
X160725Y1012527D01*
X160732Y1012532D01*
X160738Y1012525D01*
X163232Y1012525D01*
X164125Y1011632D01*
X164125Y997368D01*
X163232Y996475D01*
X146968Y996475D01*
G37*
%LPD*%
%LPC*%
G36*
X216968Y720475D02*
X216968Y720475D01*
X216075Y721368D01*
X216075Y735632D01*
X216968Y736525D01*
X219462Y736525D01*
X219509Y736561D01*
X219504Y736568D01*
X219511Y736574D01*
X219511Y747565D01*
X219495Y747586D01*
X219497Y747599D01*
X219411Y747685D01*
X219411Y752315D01*
X222685Y755589D01*
X227315Y755589D01*
X230689Y752215D01*
X230689Y736574D01*
X230725Y736527D01*
X230732Y736532D01*
X230738Y736525D01*
X233232Y736525D01*
X234125Y735632D01*
X234125Y721368D01*
X233232Y720475D01*
X216968Y720475D01*
G37*
%LPD*%
%LPC*%
G36*
X590968Y1258475D02*
X590968Y1258475D01*
X590075Y1259368D01*
X590075Y1273632D01*
X590968Y1274525D01*
X593462Y1274525D01*
X593509Y1274561D01*
X593504Y1274568D01*
X593511Y1274574D01*
X593511Y1285565D01*
X593495Y1285586D01*
X593497Y1285599D01*
X593411Y1285685D01*
X593411Y1290315D01*
X596685Y1293589D01*
X601315Y1293589D01*
X604689Y1290215D01*
X604689Y1274574D01*
X604725Y1274527D01*
X604732Y1274532D01*
X604738Y1274525D01*
X607232Y1274525D01*
X608125Y1273632D01*
X608125Y1259368D01*
X607232Y1258475D01*
X590968Y1258475D01*
G37*
%LPD*%
%LPC*%
G36*
X437968Y721475D02*
X437968Y721475D01*
X437075Y722368D01*
X437075Y736632D01*
X437968Y737525D01*
X440462Y737525D01*
X440509Y737561D01*
X440505Y737567D01*
X440509Y737570D01*
X440508Y737572D01*
X440511Y737574D01*
X440511Y748565D01*
X440495Y748586D01*
X440497Y748599D01*
X440411Y748685D01*
X440411Y753315D01*
X443685Y756589D01*
X448315Y756589D01*
X451689Y753215D01*
X451689Y737574D01*
X451725Y737527D01*
X451732Y737532D01*
X451738Y737525D01*
X454232Y737525D01*
X455125Y736632D01*
X455125Y722368D01*
X454232Y721475D01*
X437968Y721475D01*
G37*
%LPD*%
%LPC*%
G36*
X938868Y1001475D02*
X938868Y1001475D01*
X937975Y1002368D01*
X937975Y1016632D01*
X938868Y1017525D01*
X941362Y1017525D01*
X941409Y1017561D01*
X941404Y1017568D01*
X941411Y1017574D01*
X941411Y1033315D01*
X944685Y1036589D01*
X949315Y1036589D01*
X952589Y1033315D01*
X952589Y1017574D01*
X952625Y1017527D01*
X952632Y1017532D01*
X952638Y1017525D01*
X955132Y1017525D01*
X956025Y1016632D01*
X956025Y1002368D01*
X955132Y1001475D01*
X938868Y1001475D01*
G37*
%LPD*%
%LPC*%
G36*
X547868Y999475D02*
X547868Y999475D01*
X546975Y1000368D01*
X546975Y1014632D01*
X547868Y1015525D01*
X550362Y1015525D01*
X550409Y1015561D01*
X550404Y1015568D01*
X550411Y1015574D01*
X550411Y1031315D01*
X553685Y1034589D01*
X558315Y1034589D01*
X561589Y1031315D01*
X561589Y1015574D01*
X561625Y1015527D01*
X561632Y1015532D01*
X561638Y1015525D01*
X564132Y1015525D01*
X565025Y1014632D01*
X565025Y1000368D01*
X564132Y999475D01*
X547868Y999475D01*
G37*
%LPD*%
%LPC*%
G36*
X401868Y999475D02*
X401868Y999475D01*
X400975Y1000368D01*
X400975Y1014632D01*
X401868Y1015525D01*
X404362Y1015525D01*
X404409Y1015561D01*
X404404Y1015568D01*
X404411Y1015574D01*
X404411Y1031315D01*
X407685Y1034589D01*
X412315Y1034589D01*
X415589Y1031315D01*
X415589Y1015574D01*
X415625Y1015527D01*
X415632Y1015532D01*
X415638Y1015525D01*
X418132Y1015525D01*
X419025Y1014632D01*
X419025Y1000368D01*
X418132Y999475D01*
X401868Y999475D01*
G37*
%LPD*%
%LPC*%
G36*
X317868Y999475D02*
X317868Y999475D01*
X316975Y1000368D01*
X316975Y1014632D01*
X317868Y1015525D01*
X320362Y1015525D01*
X320409Y1015561D01*
X320404Y1015568D01*
X320411Y1015574D01*
X320411Y1031315D01*
X323685Y1034589D01*
X328315Y1034589D01*
X331589Y1031315D01*
X331589Y1015574D01*
X331625Y1015527D01*
X331632Y1015532D01*
X331638Y1015525D01*
X334132Y1015525D01*
X335025Y1014632D01*
X335025Y1000368D01*
X334132Y999475D01*
X317868Y999475D01*
G37*
%LPD*%
%LPC*%
G36*
X188868Y996475D02*
X188868Y996475D01*
X187975Y997368D01*
X187975Y1011632D01*
X188868Y1012525D01*
X191362Y1012525D01*
X191409Y1012561D01*
X191404Y1012568D01*
X191411Y1012574D01*
X191411Y1028315D01*
X194685Y1031589D01*
X199315Y1031589D01*
X202589Y1028315D01*
X202589Y1012574D01*
X202625Y1012527D01*
X202632Y1012532D01*
X202638Y1012525D01*
X205132Y1012525D01*
X206025Y1011632D01*
X206025Y997368D01*
X205132Y996475D01*
X188868Y996475D01*
G37*
%LPD*%
%LPC*%
G36*
X811685Y1168411D02*
X811685Y1168411D01*
X808411Y1171685D01*
X808411Y1187426D01*
X808375Y1187473D01*
X808368Y1187468D01*
X808362Y1187475D01*
X805968Y1187475D01*
X805075Y1188368D01*
X805075Y1202632D01*
X805968Y1203525D01*
X822232Y1203525D01*
X823125Y1202632D01*
X823125Y1188368D01*
X822232Y1187475D01*
X819638Y1187475D01*
X819591Y1187439D01*
X819596Y1187432D01*
X819589Y1187426D01*
X819589Y1171685D01*
X816315Y1168411D01*
X811685Y1168411D01*
G37*
%LPD*%
%LPC*%
G36*
X104868Y996475D02*
X104868Y996475D01*
X103975Y997368D01*
X103975Y1011632D01*
X104868Y1012525D01*
X107362Y1012525D01*
X107409Y1012561D01*
X107404Y1012568D01*
X107411Y1012574D01*
X107411Y1028315D01*
X110685Y1031589D01*
X115315Y1031589D01*
X118589Y1028315D01*
X118589Y1012574D01*
X118625Y1012527D01*
X118632Y1012532D01*
X118638Y1012525D01*
X121132Y1012525D01*
X122025Y1011632D01*
X122025Y997368D01*
X121132Y996475D01*
X104868Y996475D01*
G37*
%LPD*%
%LPC*%
G36*
X769685Y1168411D02*
X769685Y1168411D01*
X766411Y1171685D01*
X766411Y1187426D01*
X766375Y1187473D01*
X766368Y1187468D01*
X766362Y1187475D01*
X763868Y1187475D01*
X762975Y1188368D01*
X762975Y1202632D01*
X763868Y1203525D01*
X780132Y1203525D01*
X781025Y1202632D01*
X781025Y1188368D01*
X780132Y1187475D01*
X777638Y1187475D01*
X777591Y1187439D01*
X777596Y1187432D01*
X777589Y1187426D01*
X777589Y1171685D01*
X774315Y1168411D01*
X769685Y1168411D01*
G37*
%LPD*%
%LPC*%
G36*
X637685Y915411D02*
X637685Y915411D01*
X634411Y918685D01*
X634411Y934426D01*
X634375Y934473D01*
X634368Y934468D01*
X634362Y934475D01*
X631868Y934475D01*
X630975Y935368D01*
X630975Y949632D01*
X631868Y950525D01*
X648132Y950525D01*
X649025Y949632D01*
X649025Y935368D01*
X648132Y934475D01*
X645638Y934475D01*
X645591Y934439D01*
X645596Y934432D01*
X645589Y934426D01*
X645589Y918685D01*
X642315Y915411D01*
X637685Y915411D01*
G37*
%LPD*%
%LPC*%
G36*
X323685Y915411D02*
X323685Y915411D01*
X320411Y918685D01*
X320411Y934426D01*
X320375Y934473D01*
X320368Y934468D01*
X320362Y934475D01*
X317868Y934475D01*
X316975Y935368D01*
X316975Y949632D01*
X317868Y950525D01*
X334132Y950525D01*
X335025Y949632D01*
X335025Y935368D01*
X334132Y934475D01*
X331638Y934475D01*
X331591Y934439D01*
X331596Y934432D01*
X331589Y934426D01*
X331589Y918685D01*
X328315Y915411D01*
X323685Y915411D01*
G37*
%LPD*%
%LPC*%
G36*
X407685Y915411D02*
X407685Y915411D01*
X404411Y918685D01*
X404411Y934426D01*
X404375Y934473D01*
X404368Y934468D01*
X404362Y934475D01*
X401868Y934475D01*
X400975Y935368D01*
X400975Y949632D01*
X401868Y950525D01*
X418132Y950525D01*
X419025Y949632D01*
X419025Y935368D01*
X418132Y934475D01*
X415638Y934475D01*
X415591Y934439D01*
X415596Y934432D01*
X415589Y934426D01*
X415589Y918685D01*
X412315Y915411D01*
X407685Y915411D01*
G37*
%LPD*%
%LPC*%
G36*
X1030685Y1171411D02*
X1030685Y1171411D01*
X1027411Y1174685D01*
X1027411Y1190426D01*
X1027375Y1190473D01*
X1027368Y1190468D01*
X1027362Y1190475D01*
X1024968Y1190475D01*
X1024075Y1191368D01*
X1024075Y1205632D01*
X1024968Y1206525D01*
X1041232Y1206525D01*
X1042125Y1205632D01*
X1042125Y1191368D01*
X1041232Y1190475D01*
X1038638Y1190475D01*
X1038591Y1190439D01*
X1038596Y1190432D01*
X1038589Y1190426D01*
X1038589Y1174685D01*
X1035315Y1171411D01*
X1030685Y1171411D01*
G37*
%LPD*%
%LPC*%
G36*
X365685Y915411D02*
X365685Y915411D01*
X362411Y918685D01*
X362411Y934426D01*
X362375Y934473D01*
X362368Y934468D01*
X362362Y934475D01*
X359968Y934475D01*
X359075Y935368D01*
X359075Y949632D01*
X359968Y950525D01*
X376232Y950525D01*
X377125Y949632D01*
X377125Y935368D01*
X376232Y934475D01*
X373638Y934475D01*
X373591Y934439D01*
X373596Y934432D01*
X373589Y934426D01*
X373589Y918685D01*
X370315Y915411D01*
X365685Y915411D01*
G37*
%LPD*%
%LPC*%
G36*
X553685Y915411D02*
X553685Y915411D01*
X550411Y918685D01*
X550411Y934426D01*
X550375Y934473D01*
X550368Y934468D01*
X550362Y934475D01*
X547868Y934475D01*
X546975Y935368D01*
X546975Y949632D01*
X547868Y950525D01*
X564132Y950525D01*
X565025Y949632D01*
X565025Y935368D01*
X564132Y934475D01*
X561638Y934475D01*
X561591Y934439D01*
X561596Y934432D01*
X561589Y934426D01*
X561589Y918685D01*
X558315Y915411D01*
X553685Y915411D01*
G37*
%LPD*%
%LPC*%
G36*
X110685Y912411D02*
X110685Y912411D01*
X107411Y915685D01*
X107411Y931426D01*
X107375Y931473D01*
X107368Y931468D01*
X107362Y931475D01*
X104868Y931475D01*
X103975Y932368D01*
X103975Y946632D01*
X104868Y947525D01*
X121132Y947525D01*
X122025Y946632D01*
X122025Y932368D01*
X121132Y931475D01*
X118638Y931475D01*
X118591Y931439D01*
X118596Y931432D01*
X118589Y931426D01*
X118589Y915685D01*
X115315Y912411D01*
X110685Y912411D01*
G37*
%LPD*%
%LPC*%
G36*
X1072685Y1171411D02*
X1072685Y1171411D01*
X1069411Y1174685D01*
X1069411Y1190426D01*
X1069375Y1190473D01*
X1069368Y1190468D01*
X1069362Y1190475D01*
X1066868Y1190475D01*
X1065975Y1191368D01*
X1065975Y1205632D01*
X1066868Y1206525D01*
X1083132Y1206525D01*
X1084025Y1205632D01*
X1084025Y1191368D01*
X1083132Y1190475D01*
X1080638Y1190475D01*
X1080591Y1190439D01*
X1080596Y1190432D01*
X1080589Y1190426D01*
X1080589Y1174685D01*
X1077315Y1171411D01*
X1072685Y1171411D01*
G37*
%LPD*%
%LPC*%
G36*
X631868Y999475D02*
X631868Y999475D01*
X630975Y1000368D01*
X630975Y1014632D01*
X631868Y1015525D01*
X634362Y1015525D01*
X634409Y1015561D01*
X634404Y1015568D01*
X634411Y1015574D01*
X634411Y1031315D01*
X637685Y1034589D01*
X642315Y1034589D01*
X645589Y1031315D01*
X645589Y1015574D01*
X645625Y1015527D01*
X645632Y1015532D01*
X645638Y1015525D01*
X648132Y1015525D01*
X649025Y1014632D01*
X649025Y1000368D01*
X648132Y999475D01*
X631868Y999475D01*
G37*
%LPD*%
%LPC*%
G36*
X410868Y1256475D02*
X410868Y1256475D01*
X409975Y1257368D01*
X409975Y1271632D01*
X410868Y1272525D01*
X413362Y1272525D01*
X413409Y1272561D01*
X413404Y1272568D01*
X413411Y1272574D01*
X413411Y1288315D01*
X416685Y1291589D01*
X421315Y1291589D01*
X424589Y1288315D01*
X424589Y1272574D01*
X424625Y1272527D01*
X424632Y1272532D01*
X424638Y1272525D01*
X427132Y1272525D01*
X428025Y1271632D01*
X428025Y1257368D01*
X427132Y1256475D01*
X410868Y1256475D01*
G37*
%LPD*%
%LPC*%
G36*
X632868Y1258475D02*
X632868Y1258475D01*
X631975Y1259368D01*
X631975Y1273632D01*
X632868Y1274525D01*
X635362Y1274525D01*
X635409Y1274561D01*
X635404Y1274568D01*
X635411Y1274574D01*
X635411Y1290315D01*
X638685Y1293589D01*
X643315Y1293589D01*
X646589Y1290315D01*
X646589Y1274574D01*
X646625Y1274527D01*
X646632Y1274532D01*
X646638Y1274525D01*
X649132Y1274525D01*
X650025Y1273632D01*
X650025Y1259368D01*
X649132Y1258475D01*
X632868Y1258475D01*
G37*
%LPD*%
%LPC*%
G36*
X194685Y912411D02*
X194685Y912411D01*
X191411Y915685D01*
X191411Y931426D01*
X191375Y931473D01*
X191368Y931468D01*
X191362Y931475D01*
X188868Y931475D01*
X187975Y932368D01*
X187975Y946632D01*
X188868Y947525D01*
X205132Y947525D01*
X206025Y946632D01*
X206025Y932368D01*
X205132Y931475D01*
X202638Y931475D01*
X202591Y931439D01*
X202596Y931432D01*
X202589Y931426D01*
X202589Y915685D01*
X199315Y912411D01*
X194685Y912411D01*
G37*
%LPD*%
%LPC*%
G36*
X595685Y915411D02*
X595685Y915411D01*
X592411Y918685D01*
X592411Y934426D01*
X592375Y934473D01*
X592368Y934468D01*
X592362Y934475D01*
X589968Y934475D01*
X589075Y935368D01*
X589075Y949632D01*
X589968Y950525D01*
X606232Y950525D01*
X607125Y949632D01*
X607125Y935368D01*
X606232Y934475D01*
X603638Y934475D01*
X603591Y934439D01*
X603596Y934432D01*
X603589Y934426D01*
X603589Y918685D01*
X600315Y915411D01*
X595685Y915411D01*
G37*
%LPD*%
%LPC*%
G36*
X548868Y1258475D02*
X548868Y1258475D01*
X547975Y1259368D01*
X547975Y1273632D01*
X548868Y1274525D01*
X551362Y1274525D01*
X551409Y1274561D01*
X551404Y1274568D01*
X551411Y1274574D01*
X551411Y1290315D01*
X554685Y1293589D01*
X559315Y1293589D01*
X562589Y1290315D01*
X562589Y1274574D01*
X562625Y1274527D01*
X562632Y1274532D01*
X562638Y1274525D01*
X565132Y1274525D01*
X566025Y1273632D01*
X566025Y1259368D01*
X565132Y1258475D01*
X548868Y1258475D01*
G37*
%LPD*%
%LPC*%
G36*
X554685Y1174411D02*
X554685Y1174411D01*
X551411Y1177685D01*
X551411Y1193426D01*
X551375Y1193473D01*
X551368Y1193468D01*
X551362Y1193475D01*
X548868Y1193475D01*
X547975Y1194368D01*
X547975Y1208632D01*
X548868Y1209525D01*
X565132Y1209525D01*
X566025Y1208632D01*
X566025Y1194368D01*
X565132Y1193475D01*
X562638Y1193475D01*
X562591Y1193439D01*
X562596Y1193432D01*
X562589Y1193426D01*
X562589Y1177685D01*
X559315Y1174411D01*
X554685Y1174411D01*
G37*
%LPD*%
%LPC*%
G36*
X596685Y1174411D02*
X596685Y1174411D01*
X593411Y1177685D01*
X593411Y1193426D01*
X593375Y1193473D01*
X593368Y1193468D01*
X593362Y1193475D01*
X590968Y1193475D01*
X590075Y1194368D01*
X590075Y1208632D01*
X590968Y1209525D01*
X607232Y1209525D01*
X608125Y1208632D01*
X608125Y1194368D01*
X607232Y1193475D01*
X604638Y1193475D01*
X604591Y1193439D01*
X604596Y1193432D01*
X604589Y1193426D01*
X604589Y1177685D01*
X601315Y1174411D01*
X596685Y1174411D01*
G37*
%LPD*%
%LPC*%
G36*
X767685Y910411D02*
X767685Y910411D01*
X764411Y913685D01*
X764411Y929426D01*
X764375Y929473D01*
X764368Y929468D01*
X764362Y929475D01*
X760868Y929475D01*
X759975Y930368D01*
X759975Y944632D01*
X760868Y945525D01*
X777132Y945525D01*
X778025Y944632D01*
X778025Y930368D01*
X777132Y929475D01*
X775638Y929475D01*
X775591Y929439D01*
X775596Y929432D01*
X775589Y929426D01*
X775589Y913685D01*
X772315Y910411D01*
X767685Y910411D01*
G37*
%LPD*%
%LPC*%
G36*
X638685Y1174411D02*
X638685Y1174411D01*
X635411Y1177685D01*
X635411Y1193426D01*
X635375Y1193473D01*
X635368Y1193468D01*
X635362Y1193475D01*
X632868Y1193475D01*
X631975Y1194368D01*
X631975Y1208632D01*
X632868Y1209525D01*
X649132Y1209525D01*
X650025Y1208632D01*
X650025Y1194368D01*
X649132Y1193475D01*
X646638Y1193475D01*
X646591Y1193439D01*
X646596Y1193432D01*
X646589Y1193426D01*
X646589Y1177685D01*
X643315Y1174411D01*
X638685Y1174411D01*
G37*
%LPD*%
%LPC*%
G36*
X180685Y636411D02*
X180685Y636411D01*
X177411Y639685D01*
X177411Y655426D01*
X177375Y655473D01*
X177368Y655468D01*
X177362Y655475D01*
X174868Y655475D01*
X173975Y656368D01*
X173975Y670632D01*
X174868Y671525D01*
X191132Y671525D01*
X192025Y670632D01*
X192025Y656368D01*
X191132Y655475D01*
X188638Y655475D01*
X188591Y655439D01*
X188596Y655432D01*
X188589Y655426D01*
X188589Y639685D01*
X185315Y636411D01*
X180685Y636411D01*
G37*
%LPD*%
%LPC*%
G36*
X222685Y636411D02*
X222685Y636411D01*
X219411Y639685D01*
X219411Y655426D01*
X219375Y655473D01*
X219368Y655468D01*
X219362Y655475D01*
X216968Y655475D01*
X216075Y656368D01*
X216075Y670632D01*
X216968Y671525D01*
X233232Y671525D01*
X234125Y670632D01*
X234125Y656368D01*
X233232Y655475D01*
X230638Y655475D01*
X230591Y655439D01*
X230596Y655432D01*
X230589Y655426D01*
X230589Y639685D01*
X227315Y636411D01*
X222685Y636411D01*
G37*
%LPD*%
%LPC*%
G36*
X264685Y636411D02*
X264685Y636411D01*
X261411Y639685D01*
X261411Y655426D01*
X261375Y655473D01*
X261368Y655468D01*
X261362Y655475D01*
X258868Y655475D01*
X257975Y656368D01*
X257975Y670632D01*
X258868Y671525D01*
X275132Y671525D01*
X276025Y670632D01*
X276025Y656368D01*
X275132Y655475D01*
X272638Y655475D01*
X272591Y655439D01*
X272596Y655432D01*
X272589Y655426D01*
X272589Y639685D01*
X269315Y636411D01*
X264685Y636411D01*
G37*
%LPD*%
%LPC*%
G36*
X763868Y1252475D02*
X763868Y1252475D01*
X762975Y1253368D01*
X762975Y1267632D01*
X763868Y1268525D01*
X766362Y1268525D01*
X766409Y1268561D01*
X766404Y1268568D01*
X766411Y1268574D01*
X766411Y1284315D01*
X769685Y1287589D01*
X774315Y1287589D01*
X777589Y1284315D01*
X777589Y1268574D01*
X777625Y1268527D01*
X777632Y1268532D01*
X777638Y1268525D01*
X780132Y1268525D01*
X781025Y1267632D01*
X781025Y1253368D01*
X780132Y1252475D01*
X763868Y1252475D01*
G37*
%LPD*%
%LPC*%
G36*
X809685Y910411D02*
X809685Y910411D01*
X806411Y913685D01*
X806411Y929426D01*
X806375Y929473D01*
X806368Y929468D01*
X806362Y929475D01*
X802868Y929475D01*
X801975Y930368D01*
X801975Y944632D01*
X802868Y945525D01*
X819132Y945525D01*
X820025Y944632D01*
X820025Y930368D01*
X819132Y929475D01*
X817638Y929475D01*
X817591Y929439D01*
X817596Y929432D01*
X817589Y929426D01*
X817589Y913685D01*
X814315Y910411D01*
X809685Y910411D01*
G37*
%LPD*%
%LPC*%
G36*
X847868Y1252475D02*
X847868Y1252475D01*
X846975Y1253368D01*
X846975Y1267632D01*
X847868Y1268525D01*
X850362Y1268525D01*
X850409Y1268561D01*
X850404Y1268568D01*
X850411Y1268574D01*
X850411Y1284315D01*
X853685Y1287589D01*
X858315Y1287589D01*
X861589Y1284315D01*
X861589Y1268574D01*
X861625Y1268527D01*
X861632Y1268532D01*
X861638Y1268525D01*
X864132Y1268525D01*
X865025Y1267632D01*
X865025Y1253368D01*
X864132Y1252475D01*
X847868Y1252475D01*
G37*
%LPD*%
%LPC*%
G36*
X152685Y912411D02*
X152685Y912411D01*
X149411Y915685D01*
X149411Y931426D01*
X149375Y931473D01*
X149368Y931468D01*
X149362Y931475D01*
X146968Y931475D01*
X146075Y932368D01*
X146075Y946632D01*
X146968Y947525D01*
X163232Y947525D01*
X164125Y946632D01*
X164125Y932368D01*
X163232Y931475D01*
X160638Y931475D01*
X160591Y931439D01*
X160596Y931432D01*
X160589Y931426D01*
X160589Y915685D01*
X157315Y912411D01*
X152685Y912411D01*
G37*
%LPD*%
%LPC*%
G36*
X982868Y1255475D02*
X982868Y1255475D01*
X981975Y1256368D01*
X981975Y1270632D01*
X982868Y1271525D01*
X985362Y1271525D01*
X985409Y1271561D01*
X985404Y1271568D01*
X985411Y1271574D01*
X985411Y1287315D01*
X988685Y1290589D01*
X993315Y1290589D01*
X996589Y1287315D01*
X996589Y1271574D01*
X996625Y1271527D01*
X996632Y1271532D01*
X996638Y1271525D01*
X999132Y1271525D01*
X1000025Y1270632D01*
X1000025Y1256368D01*
X999132Y1255475D01*
X982868Y1255475D01*
G37*
%LPD*%
%LPC*%
G36*
X988685Y1171411D02*
X988685Y1171411D01*
X985411Y1174685D01*
X985411Y1190426D01*
X985375Y1190473D01*
X985368Y1190468D01*
X985362Y1190475D01*
X982868Y1190475D01*
X981975Y1191368D01*
X981975Y1205632D01*
X982868Y1206525D01*
X999132Y1206525D01*
X1000025Y1205632D01*
X1000025Y1191368D01*
X999132Y1190475D01*
X996638Y1190475D01*
X996591Y1190439D01*
X996596Y1190432D01*
X996589Y1190426D01*
X996589Y1174685D01*
X993315Y1171411D01*
X988685Y1171411D01*
G37*
%LPD*%
%LPC*%
G36*
X1066868Y1255475D02*
X1066868Y1255475D01*
X1065975Y1256368D01*
X1065975Y1270632D01*
X1066868Y1271525D01*
X1069362Y1271525D01*
X1069409Y1271561D01*
X1069404Y1271568D01*
X1069411Y1271574D01*
X1069411Y1287315D01*
X1072685Y1290589D01*
X1077315Y1290589D01*
X1080589Y1287315D01*
X1080589Y1271574D01*
X1080625Y1271527D01*
X1080632Y1271532D01*
X1080638Y1271525D01*
X1083132Y1271525D01*
X1084025Y1270632D01*
X1084025Y1256368D01*
X1083132Y1255475D01*
X1066868Y1255475D01*
G37*
%LPD*%
%LPC*%
G36*
X105868Y1256475D02*
X105868Y1256475D01*
X104975Y1257368D01*
X104975Y1271632D01*
X105868Y1272525D01*
X108362Y1272525D01*
X108409Y1272561D01*
X108404Y1272568D01*
X108411Y1272574D01*
X108411Y1288315D01*
X111685Y1291589D01*
X116315Y1291589D01*
X119589Y1288315D01*
X119589Y1272574D01*
X119625Y1272527D01*
X119632Y1272532D01*
X119638Y1272525D01*
X122132Y1272525D01*
X123025Y1271632D01*
X123025Y1257368D01*
X122132Y1256475D01*
X105868Y1256475D01*
G37*
%LPD*%
%LPC*%
G36*
X174868Y720475D02*
X174868Y720475D01*
X173975Y721368D01*
X173975Y735632D01*
X174868Y736525D01*
X177362Y736525D01*
X177409Y736561D01*
X177404Y736568D01*
X177411Y736574D01*
X177411Y752315D01*
X180685Y755589D01*
X185315Y755589D01*
X188589Y752315D01*
X188589Y736574D01*
X188625Y736527D01*
X188632Y736532D01*
X188638Y736525D01*
X191132Y736525D01*
X192025Y735632D01*
X192025Y721368D01*
X191132Y720475D01*
X174868Y720475D01*
G37*
%LPD*%
%LPC*%
G36*
X853685Y1168411D02*
X853685Y1168411D01*
X850411Y1171685D01*
X850411Y1187426D01*
X850375Y1187473D01*
X850368Y1187468D01*
X850362Y1187475D01*
X847868Y1187475D01*
X846975Y1188368D01*
X846975Y1202632D01*
X847868Y1203525D01*
X864132Y1203525D01*
X865025Y1202632D01*
X865025Y1188368D01*
X864132Y1187475D01*
X861638Y1187475D01*
X861591Y1187439D01*
X861596Y1187432D01*
X861589Y1187426D01*
X861589Y1171685D01*
X858315Y1168411D01*
X853685Y1168411D01*
G37*
%LPD*%
%LPC*%
G36*
X258868Y720475D02*
X258868Y720475D01*
X257975Y721368D01*
X257975Y735632D01*
X258868Y736525D01*
X261362Y736525D01*
X261409Y736561D01*
X261404Y736568D01*
X261411Y736574D01*
X261411Y752315D01*
X264685Y755589D01*
X269315Y755589D01*
X272589Y752315D01*
X272589Y736574D01*
X272625Y736527D01*
X272632Y736532D01*
X272638Y736525D01*
X275132Y736525D01*
X276025Y735632D01*
X276025Y721368D01*
X275132Y720475D01*
X258868Y720475D01*
G37*
%LPD*%
%LPC*%
G36*
X189868Y1256475D02*
X189868Y1256475D01*
X188975Y1257368D01*
X188975Y1271632D01*
X189868Y1272525D01*
X192362Y1272525D01*
X192409Y1272561D01*
X192404Y1272568D01*
X192411Y1272574D01*
X192411Y1288315D01*
X195685Y1291589D01*
X200315Y1291589D01*
X203589Y1288315D01*
X203589Y1272574D01*
X203625Y1272527D01*
X203632Y1272532D01*
X203638Y1272525D01*
X206132Y1272525D01*
X207025Y1271632D01*
X207025Y1257368D01*
X206132Y1256475D01*
X189868Y1256475D01*
G37*
%LPD*%
%LPC*%
G36*
X326868Y1256475D02*
X326868Y1256475D01*
X325975Y1257368D01*
X325975Y1271632D01*
X326868Y1272525D01*
X329362Y1272525D01*
X329409Y1272561D01*
X329404Y1272568D01*
X329411Y1272574D01*
X329411Y1288315D01*
X332685Y1291589D01*
X337315Y1291589D01*
X340589Y1288315D01*
X340589Y1272574D01*
X340625Y1272527D01*
X340632Y1272532D01*
X340638Y1272525D01*
X343132Y1272525D01*
X344025Y1271632D01*
X344025Y1257368D01*
X343132Y1256475D01*
X326868Y1256475D01*
G37*
%LPD*%
%LPC*%
G36*
X479868Y721475D02*
X479868Y721475D01*
X478975Y722368D01*
X478975Y736632D01*
X479868Y737525D01*
X482362Y737525D01*
X482409Y737561D01*
X482405Y737567D01*
X482409Y737570D01*
X482408Y737572D01*
X482411Y737574D01*
X482411Y753315D01*
X485685Y756589D01*
X490315Y756589D01*
X493589Y753315D01*
X493589Y737574D01*
X493625Y737527D01*
X493632Y737532D01*
X493638Y737525D01*
X496132Y737525D01*
X497025Y736632D01*
X497025Y722368D01*
X496132Y721475D01*
X479868Y721475D01*
G37*
%LPD*%
%LPC*%
G36*
X395868Y721475D02*
X395868Y721475D01*
X394975Y722368D01*
X394975Y736632D01*
X395868Y737525D01*
X398362Y737525D01*
X398409Y737561D01*
X398405Y737567D01*
X398409Y737570D01*
X398408Y737572D01*
X398411Y737574D01*
X398411Y753315D01*
X401685Y756589D01*
X406315Y756589D01*
X409589Y753315D01*
X409589Y737574D01*
X409625Y737527D01*
X409632Y737532D01*
X409638Y737525D01*
X412132Y737525D01*
X413025Y736632D01*
X413025Y722368D01*
X412132Y721475D01*
X395868Y721475D01*
G37*
%LPD*%
%LPC*%
G36*
X195685Y1172411D02*
X195685Y1172411D01*
X192411Y1175685D01*
X192411Y1191426D01*
X192375Y1191473D01*
X192368Y1191468D01*
X192362Y1191475D01*
X189868Y1191475D01*
X188975Y1192368D01*
X188975Y1206632D01*
X189868Y1207525D01*
X206132Y1207525D01*
X207025Y1206632D01*
X207025Y1192368D01*
X206132Y1191475D01*
X203638Y1191475D01*
X203591Y1191439D01*
X203593Y1191437D01*
X203591Y1191435D01*
X203594Y1191430D01*
X203589Y1191426D01*
X203589Y1175685D01*
X200315Y1172411D01*
X195685Y1172411D01*
G37*
%LPD*%
%LPC*%
G36*
X374685Y1172411D02*
X374685Y1172411D01*
X371411Y1175685D01*
X371411Y1191426D01*
X371375Y1191473D01*
X371368Y1191468D01*
X371362Y1191475D01*
X368968Y1191475D01*
X368075Y1192368D01*
X368075Y1206632D01*
X368968Y1207525D01*
X385232Y1207525D01*
X386125Y1206632D01*
X386125Y1192368D01*
X385232Y1191475D01*
X382638Y1191475D01*
X382591Y1191439D01*
X382593Y1191437D01*
X382591Y1191435D01*
X382594Y1191430D01*
X382589Y1191426D01*
X382589Y1175685D01*
X379315Y1172411D01*
X374685Y1172411D01*
G37*
%LPD*%
%LPC*%
G36*
X416685Y1172411D02*
X416685Y1172411D01*
X413411Y1175685D01*
X413411Y1191426D01*
X413375Y1191473D01*
X413368Y1191468D01*
X413362Y1191475D01*
X410868Y1191475D01*
X409975Y1192368D01*
X409975Y1206632D01*
X410868Y1207525D01*
X427132Y1207525D01*
X428025Y1206632D01*
X428025Y1192368D01*
X427132Y1191475D01*
X424638Y1191475D01*
X424591Y1191439D01*
X424593Y1191437D01*
X424591Y1191435D01*
X424594Y1191430D01*
X424589Y1191426D01*
X424589Y1175685D01*
X421315Y1172411D01*
X416685Y1172411D01*
G37*
%LPD*%
%LPC*%
G36*
X111685Y1172411D02*
X111685Y1172411D01*
X108411Y1175685D01*
X108411Y1191426D01*
X108375Y1191473D01*
X108368Y1191468D01*
X108362Y1191475D01*
X105868Y1191475D01*
X104975Y1192368D01*
X104975Y1206632D01*
X105868Y1207525D01*
X122132Y1207525D01*
X123025Y1206632D01*
X123025Y1192368D01*
X122132Y1191475D01*
X119638Y1191475D01*
X119591Y1191439D01*
X119593Y1191437D01*
X119591Y1191435D01*
X119594Y1191430D01*
X119589Y1191426D01*
X119589Y1175685D01*
X116315Y1172411D01*
X111685Y1172411D01*
G37*
%LPD*%
%LPC*%
G36*
X153685Y1172411D02*
X153685Y1172411D01*
X150411Y1175685D01*
X150411Y1191426D01*
X150375Y1191473D01*
X150368Y1191468D01*
X150362Y1191475D01*
X147968Y1191475D01*
X147075Y1192368D01*
X147075Y1206632D01*
X147968Y1207525D01*
X164232Y1207525D01*
X165125Y1206632D01*
X165125Y1192368D01*
X164232Y1191475D01*
X161638Y1191475D01*
X161591Y1191439D01*
X161593Y1191437D01*
X161591Y1191435D01*
X161594Y1191430D01*
X161589Y1191426D01*
X161589Y1175685D01*
X158315Y1172411D01*
X153685Y1172411D01*
G37*
%LPD*%
%LPC*%
G36*
X332685Y1172411D02*
X332685Y1172411D01*
X329411Y1175685D01*
X329411Y1191426D01*
X329375Y1191473D01*
X329368Y1191468D01*
X329362Y1191475D01*
X326868Y1191475D01*
X325975Y1192368D01*
X325975Y1206632D01*
X326868Y1207525D01*
X343132Y1207525D01*
X344025Y1206632D01*
X344025Y1192368D01*
X343132Y1191475D01*
X340638Y1191475D01*
X340591Y1191439D01*
X340593Y1191437D01*
X340591Y1191435D01*
X340594Y1191430D01*
X340589Y1191426D01*
X340589Y1175685D01*
X337315Y1172411D01*
X332685Y1172411D01*
G37*
%LPD*%
%LPC*%
G36*
X401685Y637411D02*
X401685Y637411D01*
X398411Y640685D01*
X398411Y656426D01*
X398375Y656473D01*
X398368Y656468D01*
X398362Y656475D01*
X395868Y656475D01*
X394975Y657368D01*
X394975Y671632D01*
X395868Y672525D01*
X412132Y672525D01*
X413025Y671632D01*
X413025Y657368D01*
X412132Y656475D01*
X409638Y656475D01*
X409591Y656439D01*
X409594Y656435D01*
X409591Y656433D01*
X409593Y656429D01*
X409589Y656426D01*
X409589Y640685D01*
X406315Y637411D01*
X401685Y637411D01*
G37*
%LPD*%
%LPC*%
G36*
X485685Y637411D02*
X485685Y637411D01*
X482411Y640685D01*
X482411Y656426D01*
X482375Y656473D01*
X482368Y656468D01*
X482362Y656475D01*
X479868Y656475D01*
X478975Y657368D01*
X478975Y671632D01*
X479868Y672525D01*
X496132Y672525D01*
X497025Y671632D01*
X497025Y657368D01*
X496132Y656475D01*
X493638Y656475D01*
X493591Y656439D01*
X493594Y656435D01*
X493591Y656433D01*
X493593Y656429D01*
X493589Y656426D01*
X493589Y640685D01*
X490315Y637411D01*
X485685Y637411D01*
G37*
%LPD*%
%LPC*%
G36*
X443685Y637411D02*
X443685Y637411D01*
X440411Y640685D01*
X440411Y656426D01*
X440375Y656473D01*
X440368Y656468D01*
X440362Y656475D01*
X437968Y656475D01*
X437075Y657368D01*
X437075Y671632D01*
X437968Y672525D01*
X454232Y672525D01*
X455125Y671632D01*
X455125Y657368D01*
X454232Y656475D01*
X451638Y656475D01*
X451591Y656439D01*
X451594Y656435D01*
X451591Y656433D01*
X451593Y656429D01*
X451589Y656426D01*
X451589Y640685D01*
X448315Y637411D01*
X443685Y637411D01*
G37*
%LPD*%
%LPC*%
G36*
X359968Y999475D02*
X359968Y999475D01*
X359075Y1000368D01*
X359075Y1014632D01*
X359968Y1015525D01*
X362462Y1015525D01*
X362509Y1015561D01*
X362504Y1015568D01*
X362511Y1015574D01*
X362511Y1031215D01*
X365785Y1034489D01*
X370415Y1034489D01*
X373689Y1031215D01*
X373689Y1015574D01*
X373725Y1015527D01*
X373732Y1015532D01*
X373738Y1015525D01*
X376232Y1015525D01*
X377125Y1014632D01*
X377125Y1000368D01*
X376232Y999475D01*
X359968Y999475D01*
G37*
%LPD*%
%LPC*%
G36*
X984685Y905411D02*
X984685Y905411D01*
X981411Y908685D01*
X981411Y923426D01*
X981375Y923473D01*
X981368Y923468D01*
X981362Y923475D01*
X978868Y923475D01*
X977975Y924368D01*
X977975Y938632D01*
X978868Y939525D01*
X995132Y939525D01*
X996025Y938632D01*
X996025Y924368D01*
X995132Y923475D01*
X992638Y923475D01*
X992591Y923439D01*
X992596Y923432D01*
X992589Y923426D01*
X992589Y908685D01*
X989315Y905411D01*
X984685Y905411D01*
G37*
%LPD*%
%LPC*%
G36*
X1027685Y904411D02*
X1027685Y904411D01*
X1024411Y907685D01*
X1024411Y921426D01*
X1024375Y921473D01*
X1024368Y921468D01*
X1024362Y921475D01*
X1020868Y921475D01*
X1019975Y922368D01*
X1019975Y936632D01*
X1020868Y937525D01*
X1037132Y937525D01*
X1038025Y936632D01*
X1038025Y922368D01*
X1037132Y921475D01*
X1035638Y921475D01*
X1035591Y921439D01*
X1035596Y921432D01*
X1035589Y921426D01*
X1035589Y907685D01*
X1032315Y904411D01*
X1027685Y904411D01*
G37*
%LPD*%
%LPC*%
G36*
X943685Y907411D02*
X943685Y907411D01*
X940411Y910685D01*
X940411Y924426D01*
X940375Y924473D01*
X940368Y924468D01*
X940362Y924475D01*
X937868Y924475D01*
X936975Y925368D01*
X936975Y939632D01*
X937868Y940525D01*
X954132Y940525D01*
X955025Y939632D01*
X955025Y925368D01*
X954132Y924475D01*
X951638Y924475D01*
X951591Y924439D01*
X951596Y924432D01*
X951589Y924426D01*
X951589Y910685D01*
X948315Y907411D01*
X943685Y907411D01*
G37*
%LPD*%
%LPC*%
G36*
X511613Y804998D02*
X511613Y804998D01*
X507201Y806825D01*
X503825Y810201D01*
X501998Y814613D01*
X501998Y819387D01*
X503825Y823799D01*
X507201Y827175D01*
X511613Y829002D01*
X516387Y829002D01*
X520799Y827175D01*
X524175Y823799D01*
X526002Y819387D01*
X526002Y814613D01*
X524175Y810201D01*
X520799Y806825D01*
X516387Y804998D01*
X511613Y804998D01*
G37*
%LPD*%
%LPC*%
G36*
X724613Y804998D02*
X724613Y804998D01*
X720201Y806825D01*
X716825Y810201D01*
X714998Y814613D01*
X714998Y819387D01*
X716825Y823799D01*
X720201Y827175D01*
X724613Y829002D01*
X729387Y829002D01*
X733799Y827175D01*
X737175Y823799D01*
X739002Y819387D01*
X739002Y814613D01*
X737175Y810201D01*
X733799Y806825D01*
X729387Y804998D01*
X724613Y804998D01*
G37*
%LPD*%
%LPC*%
G36*
X365613Y804998D02*
X365613Y804998D01*
X361201Y806825D01*
X357825Y810201D01*
X355998Y814613D01*
X355998Y819387D01*
X357825Y823799D01*
X361201Y827175D01*
X365613Y829002D01*
X370387Y829002D01*
X374799Y827175D01*
X378175Y823799D01*
X380002Y819387D01*
X380002Y814613D01*
X378175Y810201D01*
X374799Y806825D01*
X370387Y804998D01*
X365613Y804998D01*
G37*
%LPD*%
%LPC*%
G36*
X110613Y801998D02*
X110613Y801998D01*
X106201Y803825D01*
X102825Y807201D01*
X100998Y811613D01*
X100998Y816387D01*
X102825Y820799D01*
X106201Y824175D01*
X110613Y826002D01*
X115387Y826002D01*
X119799Y824175D01*
X123175Y820799D01*
X125002Y816387D01*
X125002Y811613D01*
X123175Y807201D01*
X119799Y803825D01*
X115387Y801998D01*
X110613Y801998D01*
G37*
%LPD*%
%LPC*%
G36*
X68613Y801998D02*
X68613Y801998D01*
X64201Y803825D01*
X60825Y807201D01*
X58998Y811613D01*
X58998Y816387D01*
X60825Y820799D01*
X64201Y824175D01*
X68613Y826002D01*
X73387Y826002D01*
X77799Y824175D01*
X81175Y820799D01*
X83002Y816387D01*
X83002Y811613D01*
X81175Y807201D01*
X77799Y803825D01*
X73387Y801998D01*
X68613Y801998D01*
G37*
%LPD*%
%LPC*%
G36*
X766613Y804998D02*
X766613Y804998D01*
X762201Y806825D01*
X758825Y810201D01*
X756998Y814613D01*
X756998Y819387D01*
X758825Y823799D01*
X762201Y827175D01*
X766613Y829002D01*
X771387Y829002D01*
X775799Y827175D01*
X779175Y823799D01*
X781002Y819387D01*
X781002Y814613D01*
X779175Y810201D01*
X775799Y806825D01*
X771387Y804998D01*
X766613Y804998D01*
G37*
%LPD*%
%LPC*%
G36*
X152613Y801998D02*
X152613Y801998D01*
X148201Y803825D01*
X144825Y807201D01*
X142998Y811613D01*
X142998Y816387D01*
X144825Y820799D01*
X148201Y824175D01*
X152613Y826002D01*
X157387Y826002D01*
X161799Y824175D01*
X165175Y820799D01*
X167002Y816387D01*
X167002Y811613D01*
X165175Y807201D01*
X161799Y803825D01*
X157387Y801998D01*
X152613Y801998D01*
G37*
%LPD*%
%LPC*%
G36*
X808613Y804998D02*
X808613Y804998D01*
X804201Y806825D01*
X800825Y810201D01*
X798998Y814613D01*
X798998Y819387D01*
X800825Y823799D01*
X804201Y827175D01*
X808613Y829002D01*
X813387Y829002D01*
X817799Y827175D01*
X821175Y823799D01*
X823002Y819387D01*
X823002Y814613D01*
X821175Y810201D01*
X817799Y806825D01*
X813387Y804998D01*
X808613Y804998D01*
G37*
%LPD*%
%LPC*%
G36*
X281613Y804998D02*
X281613Y804998D01*
X277201Y806825D01*
X273825Y810201D01*
X271998Y814613D01*
X271998Y819387D01*
X273825Y823799D01*
X277201Y827175D01*
X281613Y829002D01*
X286387Y829002D01*
X290799Y827175D01*
X294175Y823799D01*
X296002Y819387D01*
X296002Y814613D01*
X294175Y810201D01*
X290799Y806825D01*
X286387Y804998D01*
X281613Y804998D01*
G37*
%LPD*%
%LPC*%
G36*
X323613Y804998D02*
X323613Y804998D01*
X319201Y806825D01*
X315825Y810201D01*
X313998Y814613D01*
X313998Y819387D01*
X315825Y823799D01*
X319201Y827175D01*
X323613Y829002D01*
X328387Y829002D01*
X332799Y827175D01*
X336175Y823799D01*
X338002Y819387D01*
X338002Y814613D01*
X336175Y810201D01*
X332799Y806825D01*
X328387Y804998D01*
X323613Y804998D01*
G37*
%LPD*%
%LPC*%
G36*
X1027613Y806998D02*
X1027613Y806998D01*
X1023201Y808825D01*
X1019825Y812201D01*
X1017998Y816613D01*
X1017998Y821387D01*
X1019825Y825799D01*
X1023201Y829175D01*
X1027613Y831002D01*
X1032387Y831002D01*
X1036799Y829175D01*
X1040175Y825799D01*
X1042002Y821387D01*
X1042002Y816613D01*
X1040175Y812201D01*
X1036799Y808825D01*
X1032387Y806998D01*
X1027613Y806998D01*
G37*
%LPD*%
%LPC*%
G36*
X943613Y806998D02*
X943613Y806998D01*
X939201Y808825D01*
X935825Y812201D01*
X933998Y816613D01*
X933998Y821387D01*
X935825Y825799D01*
X939201Y829175D01*
X943613Y831002D01*
X948387Y831002D01*
X952799Y829175D01*
X956175Y825799D01*
X958002Y821387D01*
X958002Y816613D01*
X956175Y812201D01*
X952799Y808825D01*
X948387Y806998D01*
X943613Y806998D01*
G37*
%LPD*%
%LPC*%
G36*
X985613Y806998D02*
X985613Y806998D01*
X981201Y808825D01*
X977825Y812201D01*
X975998Y816613D01*
X975998Y821387D01*
X977825Y825799D01*
X981201Y829175D01*
X985613Y831002D01*
X990387Y831002D01*
X994799Y829175D01*
X998175Y825799D01*
X1000002Y821387D01*
X1000002Y816613D01*
X998175Y812201D01*
X994799Y808825D01*
X990387Y806998D01*
X985613Y806998D01*
G37*
%LPD*%
%LPC*%
G36*
X68613Y856998D02*
X68613Y856998D01*
X64201Y858825D01*
X60825Y862201D01*
X58998Y866613D01*
X58998Y871387D01*
X60825Y875799D01*
X64201Y879175D01*
X68613Y881002D01*
X73387Y881002D01*
X77799Y879175D01*
X81175Y875799D01*
X83002Y871387D01*
X83002Y866613D01*
X81175Y862201D01*
X77799Y858825D01*
X73387Y856998D01*
X68613Y856998D01*
G37*
%LPD*%
%LPC*%
G36*
X110613Y856998D02*
X110613Y856998D01*
X106201Y858825D01*
X102825Y862201D01*
X100998Y866613D01*
X100998Y871387D01*
X102825Y875799D01*
X106201Y879175D01*
X110613Y881002D01*
X115387Y881002D01*
X119799Y879175D01*
X123175Y875799D01*
X125002Y871387D01*
X125002Y866613D01*
X123175Y862201D01*
X119799Y858825D01*
X115387Y856998D01*
X110613Y856998D01*
G37*
%LPD*%
%LPC*%
G36*
X152613Y856998D02*
X152613Y856998D01*
X148201Y858825D01*
X144825Y862201D01*
X142998Y866613D01*
X142998Y871387D01*
X144825Y875799D01*
X148201Y879175D01*
X152613Y881002D01*
X157387Y881002D01*
X161799Y879175D01*
X165175Y875799D01*
X167002Y871387D01*
X167002Y866613D01*
X165175Y862201D01*
X161799Y858825D01*
X157387Y856998D01*
X152613Y856998D01*
G37*
%LPD*%
%LPC*%
G36*
X194613Y856998D02*
X194613Y856998D01*
X190201Y858825D01*
X186825Y862201D01*
X184998Y866613D01*
X184998Y871387D01*
X186825Y875799D01*
X190201Y879175D01*
X194613Y881002D01*
X199387Y881002D01*
X203799Y879175D01*
X207175Y875799D01*
X209002Y871387D01*
X209002Y866613D01*
X207175Y862201D01*
X203799Y858825D01*
X199387Y856998D01*
X194613Y856998D01*
G37*
%LPD*%
%LPC*%
G36*
X281613Y859998D02*
X281613Y859998D01*
X277201Y861825D01*
X273825Y865201D01*
X271998Y869613D01*
X271998Y874387D01*
X273825Y878799D01*
X277201Y882175D01*
X281613Y884002D01*
X286387Y884002D01*
X290799Y882175D01*
X294175Y878799D01*
X296002Y874387D01*
X296002Y869613D01*
X294175Y865201D01*
X290799Y861825D01*
X286387Y859998D01*
X281613Y859998D01*
G37*
%LPD*%
%LPC*%
G36*
X407613Y859998D02*
X407613Y859998D01*
X403201Y861825D01*
X399825Y865201D01*
X397998Y869613D01*
X397998Y874387D01*
X399825Y878799D01*
X403201Y882175D01*
X407613Y884002D01*
X412387Y884002D01*
X416799Y882175D01*
X420175Y878799D01*
X422002Y874387D01*
X422002Y869613D01*
X420175Y865201D01*
X416799Y861825D01*
X412387Y859998D01*
X407613Y859998D01*
G37*
%LPD*%
%LPC*%
G36*
X511613Y859998D02*
X511613Y859998D01*
X507201Y861825D01*
X503825Y865201D01*
X501998Y869613D01*
X501998Y874387D01*
X503825Y878799D01*
X507201Y882175D01*
X511613Y884002D01*
X516387Y884002D01*
X520799Y882175D01*
X524175Y878799D01*
X526002Y874387D01*
X526002Y869613D01*
X524175Y865201D01*
X520799Y861825D01*
X516387Y859998D01*
X511613Y859998D01*
G37*
%LPD*%
%LPC*%
G36*
X553613Y859998D02*
X553613Y859998D01*
X549201Y861825D01*
X545825Y865201D01*
X543998Y869613D01*
X543998Y874387D01*
X545825Y878799D01*
X549201Y882175D01*
X553613Y884002D01*
X558387Y884002D01*
X562799Y882175D01*
X566175Y878799D01*
X568002Y874387D01*
X568002Y869613D01*
X566175Y865201D01*
X562799Y861825D01*
X558387Y859998D01*
X553613Y859998D01*
G37*
%LPD*%
%LPC*%
G36*
X595613Y859998D02*
X595613Y859998D01*
X591201Y861825D01*
X587825Y865201D01*
X585998Y869613D01*
X585998Y874387D01*
X587825Y878799D01*
X591201Y882175D01*
X595613Y884002D01*
X600387Y884002D01*
X604799Y882175D01*
X608175Y878799D01*
X610002Y874387D01*
X610002Y869613D01*
X608175Y865201D01*
X604799Y861825D01*
X600387Y859998D01*
X595613Y859998D01*
G37*
%LPD*%
%LPC*%
G36*
X637613Y859998D02*
X637613Y859998D01*
X633201Y861825D01*
X629825Y865201D01*
X627998Y869613D01*
X627998Y874387D01*
X629825Y878799D01*
X633201Y882175D01*
X637613Y884002D01*
X642387Y884002D01*
X646799Y882175D01*
X650175Y878799D01*
X652002Y874387D01*
X652002Y869613D01*
X650175Y865201D01*
X646799Y861825D01*
X642387Y859998D01*
X637613Y859998D01*
G37*
%LPD*%
%LPC*%
G36*
X595613Y804998D02*
X595613Y804998D01*
X591201Y806825D01*
X587825Y810201D01*
X585998Y814613D01*
X585998Y819387D01*
X587825Y823799D01*
X591201Y827175D01*
X595613Y829002D01*
X600387Y829002D01*
X604799Y827175D01*
X608175Y823799D01*
X610002Y819387D01*
X610002Y814613D01*
X608175Y810201D01*
X604799Y806825D01*
X600387Y804998D01*
X595613Y804998D01*
G37*
%LPD*%
%LPC*%
G36*
X553613Y804998D02*
X553613Y804998D01*
X549201Y806825D01*
X545825Y810201D01*
X543998Y814613D01*
X543998Y819387D01*
X545825Y823799D01*
X549201Y827175D01*
X553613Y829002D01*
X558387Y829002D01*
X562799Y827175D01*
X566175Y823799D01*
X568002Y819387D01*
X568002Y814613D01*
X566175Y810201D01*
X562799Y806825D01*
X558387Y804998D01*
X553613Y804998D01*
G37*
%LPD*%
%LPC*%
G36*
X985613Y861998D02*
X985613Y861998D01*
X981201Y863825D01*
X977825Y867201D01*
X975998Y871613D01*
X975998Y876387D01*
X977825Y880799D01*
X981201Y884175D01*
X985613Y886002D01*
X990387Y886002D01*
X994799Y884175D01*
X998175Y880799D01*
X1000002Y876387D01*
X1000002Y871613D01*
X998175Y867201D01*
X994799Y863825D01*
X990387Y861998D01*
X985613Y861998D01*
G37*
%LPD*%
%LPC*%
G36*
X724613Y859998D02*
X724613Y859998D01*
X720201Y861825D01*
X716825Y865201D01*
X714998Y869613D01*
X714998Y874387D01*
X716825Y878799D01*
X720201Y882175D01*
X724613Y884002D01*
X729387Y884002D01*
X733799Y882175D01*
X737175Y878799D01*
X739002Y874387D01*
X739002Y869613D01*
X737175Y865201D01*
X733799Y861825D01*
X729387Y859998D01*
X724613Y859998D01*
G37*
%LPD*%
%LPC*%
G36*
X766613Y859998D02*
X766613Y859998D01*
X762201Y861825D01*
X758825Y865201D01*
X756998Y869613D01*
X756998Y874387D01*
X758825Y878799D01*
X762201Y882175D01*
X766613Y884002D01*
X771387Y884002D01*
X775799Y882175D01*
X779175Y878799D01*
X781002Y874387D01*
X781002Y869613D01*
X779175Y865201D01*
X775799Y861825D01*
X771387Y859998D01*
X766613Y859998D01*
G37*
%LPD*%
%LPC*%
G36*
X808613Y859998D02*
X808613Y859998D01*
X804201Y861825D01*
X800825Y865201D01*
X798998Y869613D01*
X798998Y874387D01*
X800825Y878799D01*
X804201Y882175D01*
X808613Y884002D01*
X813387Y884002D01*
X817799Y882175D01*
X821175Y878799D01*
X823002Y874387D01*
X823002Y869613D01*
X821175Y865201D01*
X817799Y861825D01*
X813387Y859998D01*
X808613Y859998D01*
G37*
%LPD*%
%LPC*%
G36*
X850613Y859998D02*
X850613Y859998D01*
X846201Y861825D01*
X842825Y865201D01*
X840998Y869613D01*
X840998Y874387D01*
X842825Y878799D01*
X846201Y882175D01*
X850613Y884002D01*
X855387Y884002D01*
X859799Y882175D01*
X863175Y878799D01*
X865002Y874387D01*
X865002Y869613D01*
X863175Y865201D01*
X859799Y861825D01*
X855387Y859998D01*
X850613Y859998D01*
G37*
%LPD*%
%LPC*%
G36*
X323613Y859998D02*
X323613Y859998D01*
X319201Y861825D01*
X315825Y865201D01*
X313998Y869613D01*
X313998Y874387D01*
X315825Y878799D01*
X319201Y882175D01*
X323613Y884002D01*
X328387Y884002D01*
X332799Y882175D01*
X336175Y878799D01*
X338002Y874387D01*
X338002Y869613D01*
X336175Y865201D01*
X332799Y861825D01*
X328387Y859998D01*
X323613Y859998D01*
G37*
%LPD*%
%LPC*%
G36*
X401613Y581998D02*
X401613Y581998D01*
X397201Y583825D01*
X393825Y587201D01*
X391998Y591613D01*
X391998Y596387D01*
X393825Y600799D01*
X397201Y604175D01*
X401613Y606002D01*
X406387Y606002D01*
X410799Y604175D01*
X414175Y600799D01*
X416002Y596387D01*
X416002Y591613D01*
X414175Y587201D01*
X410799Y583825D01*
X406387Y581998D01*
X401613Y581998D01*
G37*
%LPD*%
%LPC*%
G36*
X359613Y581998D02*
X359613Y581998D01*
X355201Y583825D01*
X351825Y587201D01*
X349998Y591613D01*
X349998Y596387D01*
X351825Y600799D01*
X355201Y604175D01*
X359613Y606002D01*
X364387Y606002D01*
X368799Y604175D01*
X372175Y600799D01*
X374002Y596387D01*
X374002Y591613D01*
X372175Y587201D01*
X368799Y583825D01*
X364387Y581998D01*
X359613Y581998D01*
G37*
%LPD*%
%LPC*%
G36*
X485613Y581998D02*
X485613Y581998D01*
X481201Y583825D01*
X477825Y587201D01*
X475998Y591613D01*
X475998Y596387D01*
X477825Y600799D01*
X481201Y604175D01*
X485613Y606002D01*
X490387Y606002D01*
X494799Y604175D01*
X498175Y600799D01*
X500002Y596387D01*
X500002Y591613D01*
X498175Y587201D01*
X494799Y583825D01*
X490387Y581998D01*
X485613Y581998D01*
G37*
%LPD*%
%LPC*%
G36*
X365613Y859998D02*
X365613Y859998D01*
X361201Y861825D01*
X357825Y865201D01*
X355998Y869613D01*
X355998Y874387D01*
X357825Y878799D01*
X361201Y882175D01*
X365613Y884002D01*
X370387Y884002D01*
X374799Y882175D01*
X378175Y878799D01*
X380002Y874387D01*
X380002Y869613D01*
X378175Y865201D01*
X374799Y861825D01*
X370387Y859998D01*
X365613Y859998D01*
G37*
%LPD*%
%LPC*%
G36*
X222613Y580998D02*
X222613Y580998D01*
X218201Y582825D01*
X214825Y586201D01*
X212998Y590613D01*
X212998Y595387D01*
X214825Y599799D01*
X218201Y603175D01*
X222613Y605002D01*
X227387Y605002D01*
X231799Y603175D01*
X235175Y599799D01*
X237002Y595387D01*
X237002Y590613D01*
X235175Y586201D01*
X231799Y582825D01*
X227387Y580998D01*
X222613Y580998D01*
G37*
%LPD*%
%LPC*%
G36*
X264613Y580998D02*
X264613Y580998D01*
X260201Y582825D01*
X256825Y586201D01*
X254998Y590613D01*
X254998Y595387D01*
X256825Y599799D01*
X260201Y603175D01*
X264613Y605002D01*
X269387Y605002D01*
X273799Y603175D01*
X277175Y599799D01*
X279002Y595387D01*
X279002Y590613D01*
X277175Y586201D01*
X273799Y582825D01*
X269387Y580998D01*
X264613Y580998D01*
G37*
%LPD*%
%LPC*%
G36*
X138613Y580998D02*
X138613Y580998D01*
X134201Y582825D01*
X130825Y586201D01*
X128998Y590613D01*
X128998Y595387D01*
X130825Y599799D01*
X134201Y603175D01*
X138613Y605002D01*
X143387Y605002D01*
X147799Y603175D01*
X151175Y599799D01*
X153002Y595387D01*
X153002Y590613D01*
X151175Y586201D01*
X147799Y582825D01*
X143387Y580998D01*
X138613Y580998D01*
G37*
%LPD*%
%LPC*%
G36*
X180613Y580998D02*
X180613Y580998D01*
X176201Y582825D01*
X172825Y586201D01*
X170998Y590613D01*
X170998Y595387D01*
X172825Y599799D01*
X176201Y603175D01*
X180613Y605002D01*
X185387Y605002D01*
X189799Y603175D01*
X193175Y599799D01*
X195002Y595387D01*
X195002Y590613D01*
X193175Y586201D01*
X189799Y582825D01*
X185387Y580998D01*
X180613Y580998D01*
G37*
%LPD*%
%LPC*%
G36*
X401613Y526998D02*
X401613Y526998D01*
X397201Y528825D01*
X393825Y532201D01*
X391998Y536613D01*
X391998Y541387D01*
X393825Y545799D01*
X397201Y549175D01*
X401613Y551002D01*
X406387Y551002D01*
X410799Y549175D01*
X414175Y545799D01*
X416002Y541387D01*
X416002Y536613D01*
X414175Y532201D01*
X410799Y528825D01*
X406387Y526998D01*
X401613Y526998D01*
G37*
%LPD*%
%LPC*%
G36*
X359613Y526998D02*
X359613Y526998D01*
X355201Y528825D01*
X351825Y532201D01*
X349998Y536613D01*
X349998Y541387D01*
X351825Y545799D01*
X355201Y549175D01*
X359613Y551002D01*
X364387Y551002D01*
X368799Y549175D01*
X372175Y545799D01*
X374002Y541387D01*
X374002Y536613D01*
X372175Y532201D01*
X368799Y528825D01*
X364387Y526998D01*
X359613Y526998D01*
G37*
%LPD*%
%LPC*%
G36*
X943613Y861998D02*
X943613Y861998D01*
X939201Y863825D01*
X935825Y867201D01*
X933998Y871613D01*
X933998Y876387D01*
X935825Y880799D01*
X939201Y884175D01*
X943613Y886002D01*
X948387Y886002D01*
X952799Y884175D01*
X956175Y880799D01*
X958002Y876387D01*
X958002Y871613D01*
X956175Y867201D01*
X952799Y863825D01*
X948387Y861998D01*
X943613Y861998D01*
G37*
%LPD*%
%LPC*%
G36*
X443613Y526998D02*
X443613Y526998D01*
X439201Y528825D01*
X435825Y532201D01*
X433998Y536613D01*
X433998Y541387D01*
X435825Y545799D01*
X439201Y549175D01*
X443613Y551002D01*
X448387Y551002D01*
X452799Y549175D01*
X456175Y545799D01*
X458002Y541387D01*
X458002Y536613D01*
X456175Y532201D01*
X452799Y528825D01*
X448387Y526998D01*
X443613Y526998D01*
G37*
%LPD*%
%LPC*%
G36*
X180613Y525998D02*
X180613Y525998D01*
X176201Y527825D01*
X172825Y531201D01*
X170998Y535613D01*
X170998Y540387D01*
X172825Y544799D01*
X176201Y548175D01*
X180613Y550002D01*
X185387Y550002D01*
X189799Y548175D01*
X193175Y544799D01*
X195002Y540387D01*
X195002Y535613D01*
X193175Y531201D01*
X189799Y527825D01*
X185387Y525998D01*
X180613Y525998D01*
G37*
%LPD*%
%LPC*%
G36*
X138613Y525998D02*
X138613Y525998D01*
X134201Y527825D01*
X130825Y531201D01*
X128998Y535613D01*
X128998Y540387D01*
X130825Y544799D01*
X134201Y548175D01*
X138613Y550002D01*
X143387Y550002D01*
X147799Y548175D01*
X151175Y544799D01*
X153002Y540387D01*
X153002Y535613D01*
X151175Y531201D01*
X147799Y527825D01*
X143387Y525998D01*
X138613Y525998D01*
G37*
%LPD*%
%LPC*%
G36*
X1027613Y861998D02*
X1027613Y861998D01*
X1023201Y863825D01*
X1019825Y867201D01*
X1017998Y871613D01*
X1017998Y876387D01*
X1019825Y880799D01*
X1023201Y884175D01*
X1027613Y886002D01*
X1032387Y886002D01*
X1036799Y884175D01*
X1040175Y880799D01*
X1042002Y876387D01*
X1042002Y871613D01*
X1040175Y867201D01*
X1036799Y863825D01*
X1032387Y861998D01*
X1027613Y861998D01*
G37*
%LPD*%
%LPC*%
G36*
X222613Y525998D02*
X222613Y525998D01*
X218201Y527825D01*
X214825Y531201D01*
X212998Y535613D01*
X212998Y540387D01*
X214825Y544799D01*
X218201Y548175D01*
X222613Y550002D01*
X227387Y550002D01*
X231799Y548175D01*
X235175Y544799D01*
X237002Y540387D01*
X237002Y535613D01*
X235175Y531201D01*
X231799Y527825D01*
X227387Y525998D01*
X222613Y525998D01*
G37*
%LPD*%
%LPC*%
G36*
X1069613Y861998D02*
X1069613Y861998D01*
X1065201Y863825D01*
X1061825Y867201D01*
X1059998Y871613D01*
X1059998Y876387D01*
X1061825Y880799D01*
X1065201Y884175D01*
X1069613Y886002D01*
X1074387Y886002D01*
X1078799Y884175D01*
X1082175Y880799D01*
X1084002Y876387D01*
X1084002Y871613D01*
X1082175Y867201D01*
X1078799Y863825D01*
X1074387Y861998D01*
X1069613Y861998D01*
G37*
%LPD*%
%LPC*%
G36*
X111613Y1061998D02*
X111613Y1061998D01*
X107201Y1063825D01*
X103825Y1067201D01*
X101998Y1071613D01*
X101998Y1076387D01*
X103825Y1080799D01*
X107201Y1084175D01*
X111613Y1086002D01*
X116387Y1086002D01*
X120799Y1084175D01*
X124175Y1080799D01*
X126002Y1076387D01*
X126002Y1071613D01*
X124175Y1067201D01*
X120799Y1063825D01*
X116387Y1061998D01*
X111613Y1061998D01*
G37*
%LPD*%
%LPC*%
G36*
X153613Y1061998D02*
X153613Y1061998D01*
X149201Y1063825D01*
X145825Y1067201D01*
X143998Y1071613D01*
X143998Y1076387D01*
X145825Y1080799D01*
X149201Y1084175D01*
X153613Y1086002D01*
X158387Y1086002D01*
X162799Y1084175D01*
X166175Y1080799D01*
X168002Y1076387D01*
X168002Y1071613D01*
X166175Y1067201D01*
X162799Y1063825D01*
X158387Y1061998D01*
X153613Y1061998D01*
G37*
%LPD*%
%LPC*%
G36*
X512613Y1118998D02*
X512613Y1118998D01*
X508201Y1120825D01*
X504825Y1124201D01*
X502998Y1128613D01*
X502998Y1133387D01*
X504825Y1137799D01*
X508201Y1141175D01*
X512613Y1143002D01*
X517387Y1143002D01*
X521799Y1141175D01*
X525175Y1137799D01*
X527002Y1133387D01*
X527002Y1128613D01*
X525175Y1124201D01*
X521799Y1120825D01*
X517387Y1118998D01*
X512613Y1118998D01*
G37*
%LPD*%
%LPC*%
G36*
X290613Y1061998D02*
X290613Y1061998D01*
X286201Y1063825D01*
X282825Y1067201D01*
X280998Y1071613D01*
X280998Y1076387D01*
X282825Y1080799D01*
X286201Y1084175D01*
X290613Y1086002D01*
X295387Y1086002D01*
X299799Y1084175D01*
X303175Y1080799D01*
X305002Y1076387D01*
X305002Y1071613D01*
X303175Y1067201D01*
X299799Y1063825D01*
X295387Y1061998D01*
X290613Y1061998D01*
G37*
%LPD*%
%LPC*%
G36*
X332613Y1061998D02*
X332613Y1061998D01*
X328201Y1063825D01*
X324825Y1067201D01*
X322998Y1071613D01*
X322998Y1076387D01*
X324825Y1080799D01*
X328201Y1084175D01*
X332613Y1086002D01*
X337387Y1086002D01*
X341799Y1084175D01*
X345175Y1080799D01*
X347002Y1076387D01*
X347002Y1071613D01*
X345175Y1067201D01*
X341799Y1063825D01*
X337387Y1061998D01*
X332613Y1061998D01*
G37*
%LPD*%
%LPC*%
G36*
X374613Y1061998D02*
X374613Y1061998D01*
X370201Y1063825D01*
X366825Y1067201D01*
X364998Y1071613D01*
X364998Y1076387D01*
X366825Y1080799D01*
X370201Y1084175D01*
X374613Y1086002D01*
X379387Y1086002D01*
X383799Y1084175D01*
X387175Y1080799D01*
X389002Y1076387D01*
X389002Y1071613D01*
X387175Y1067201D01*
X383799Y1063825D01*
X379387Y1061998D01*
X374613Y1061998D01*
G37*
%LPD*%
%LPC*%
G36*
X512613Y1063998D02*
X512613Y1063998D01*
X508201Y1065825D01*
X504825Y1069201D01*
X502998Y1073613D01*
X502998Y1078387D01*
X504825Y1082799D01*
X508201Y1086175D01*
X512613Y1088002D01*
X517387Y1088002D01*
X521799Y1086175D01*
X525175Y1082799D01*
X527002Y1078387D01*
X527002Y1073613D01*
X525175Y1069201D01*
X521799Y1065825D01*
X517387Y1063998D01*
X512613Y1063998D01*
G37*
%LPD*%
%LPC*%
G36*
X554613Y1063998D02*
X554613Y1063998D01*
X550201Y1065825D01*
X546825Y1069201D01*
X544998Y1073613D01*
X544998Y1078387D01*
X546825Y1082799D01*
X550201Y1086175D01*
X554613Y1088002D01*
X559387Y1088002D01*
X563799Y1086175D01*
X567175Y1082799D01*
X569002Y1078387D01*
X569002Y1073613D01*
X567175Y1069201D01*
X563799Y1065825D01*
X559387Y1063998D01*
X554613Y1063998D01*
G37*
%LPD*%
%LPC*%
G36*
X596613Y1063998D02*
X596613Y1063998D01*
X592201Y1065825D01*
X588825Y1069201D01*
X586998Y1073613D01*
X586998Y1078387D01*
X588825Y1082799D01*
X592201Y1086175D01*
X596613Y1088002D01*
X601387Y1088002D01*
X605799Y1086175D01*
X609175Y1082799D01*
X611002Y1078387D01*
X611002Y1073613D01*
X609175Y1069201D01*
X605799Y1065825D01*
X601387Y1063998D01*
X596613Y1063998D01*
G37*
%LPD*%
%LPC*%
G36*
X811613Y1112998D02*
X811613Y1112998D01*
X807201Y1114825D01*
X803825Y1118201D01*
X801998Y1122613D01*
X801998Y1127387D01*
X803825Y1131799D01*
X807201Y1135175D01*
X811613Y1137002D01*
X816387Y1137002D01*
X820799Y1135175D01*
X824175Y1131799D01*
X826002Y1127387D01*
X826002Y1122613D01*
X824175Y1118201D01*
X820799Y1114825D01*
X816387Y1112998D01*
X811613Y1112998D01*
G37*
%LPD*%
%LPC*%
G36*
X853613Y1112998D02*
X853613Y1112998D01*
X849201Y1114825D01*
X845825Y1118201D01*
X843998Y1122613D01*
X843998Y1127387D01*
X845825Y1131799D01*
X849201Y1135175D01*
X853613Y1137002D01*
X858387Y1137002D01*
X862799Y1135175D01*
X866175Y1131799D01*
X868002Y1127387D01*
X868002Y1122613D01*
X866175Y1118201D01*
X862799Y1114825D01*
X858387Y1112998D01*
X853613Y1112998D01*
G37*
%LPD*%
%LPC*%
G36*
X727613Y1112998D02*
X727613Y1112998D01*
X723201Y1114825D01*
X719825Y1118201D01*
X717998Y1122613D01*
X717998Y1127387D01*
X719825Y1131799D01*
X723201Y1135175D01*
X727613Y1137002D01*
X732387Y1137002D01*
X736799Y1135175D01*
X740175Y1131799D01*
X742002Y1127387D01*
X742002Y1122613D01*
X740175Y1118201D01*
X736799Y1114825D01*
X732387Y1112998D01*
X727613Y1112998D01*
G37*
%LPD*%
%LPC*%
G36*
X443613Y581998D02*
X443613Y581998D01*
X439201Y583825D01*
X435825Y587201D01*
X433998Y591613D01*
X433998Y596387D01*
X435825Y600799D01*
X439201Y604175D01*
X443613Y606002D01*
X448387Y606002D01*
X452799Y604175D01*
X456175Y600799D01*
X458002Y596387D01*
X458002Y591613D01*
X456175Y587201D01*
X452799Y583825D01*
X448387Y581998D01*
X443613Y581998D01*
G37*
%LPD*%
%LPC*%
G36*
X769613Y1112998D02*
X769613Y1112998D01*
X765201Y1114825D01*
X761825Y1118201D01*
X759998Y1122613D01*
X759998Y1127387D01*
X761825Y1131799D01*
X765201Y1135175D01*
X769613Y1137002D01*
X774387Y1137002D01*
X778799Y1135175D01*
X782175Y1131799D01*
X784002Y1127387D01*
X784002Y1122613D01*
X782175Y1118201D01*
X778799Y1114825D01*
X774387Y1112998D01*
X769613Y1112998D01*
G37*
%LPD*%
%LPC*%
G36*
X1030613Y1115998D02*
X1030613Y1115998D01*
X1026201Y1117825D01*
X1022825Y1121201D01*
X1020998Y1125613D01*
X1020998Y1130387D01*
X1022825Y1134799D01*
X1026201Y1138175D01*
X1030613Y1140002D01*
X1035387Y1140002D01*
X1039799Y1138175D01*
X1043175Y1134799D01*
X1045002Y1130387D01*
X1045002Y1125613D01*
X1043175Y1121201D01*
X1039799Y1117825D01*
X1035387Y1115998D01*
X1030613Y1115998D01*
G37*
%LPD*%
%LPC*%
G36*
X946613Y1115998D02*
X946613Y1115998D01*
X942201Y1117825D01*
X938825Y1121201D01*
X936998Y1125613D01*
X936998Y1130387D01*
X938825Y1134799D01*
X942201Y1138175D01*
X946613Y1140002D01*
X951387Y1140002D01*
X955799Y1138175D01*
X959175Y1134799D01*
X961002Y1130387D01*
X961002Y1125613D01*
X959175Y1121201D01*
X955799Y1117825D01*
X951387Y1115998D01*
X946613Y1115998D01*
G37*
%LPD*%
%LPC*%
G36*
X988613Y1115998D02*
X988613Y1115998D01*
X984201Y1117825D01*
X980825Y1121201D01*
X978998Y1125613D01*
X978998Y1130387D01*
X980825Y1134799D01*
X984201Y1138175D01*
X988613Y1140002D01*
X993387Y1140002D01*
X997799Y1138175D01*
X1001175Y1134799D01*
X1003002Y1130387D01*
X1003002Y1125613D01*
X1001175Y1121201D01*
X997799Y1117825D01*
X993387Y1115998D01*
X988613Y1115998D01*
G37*
%LPD*%
%LPC*%
G36*
X1072613Y1115998D02*
X1072613Y1115998D01*
X1068201Y1117825D01*
X1064825Y1121201D01*
X1062998Y1125613D01*
X1062998Y1130387D01*
X1064825Y1134799D01*
X1068201Y1138175D01*
X1072613Y1140002D01*
X1077387Y1140002D01*
X1081799Y1138175D01*
X1085175Y1134799D01*
X1087002Y1130387D01*
X1087002Y1125613D01*
X1085175Y1121201D01*
X1081799Y1117825D01*
X1077387Y1115998D01*
X1072613Y1115998D01*
G37*
%LPD*%
%LPC*%
G36*
X374613Y1116998D02*
X374613Y1116998D01*
X370201Y1118825D01*
X366825Y1122201D01*
X364998Y1126613D01*
X364998Y1131387D01*
X366825Y1135799D01*
X370201Y1139175D01*
X374613Y1141002D01*
X379387Y1141002D01*
X383799Y1139175D01*
X387175Y1135799D01*
X389002Y1131387D01*
X389002Y1126613D01*
X387175Y1122201D01*
X383799Y1118825D01*
X379387Y1116998D01*
X374613Y1116998D01*
G37*
%LPD*%
%LPC*%
G36*
X416613Y1116998D02*
X416613Y1116998D01*
X412201Y1118825D01*
X408825Y1122201D01*
X406998Y1126613D01*
X406998Y1131387D01*
X408825Y1135799D01*
X412201Y1139175D01*
X416613Y1141002D01*
X421387Y1141002D01*
X425799Y1139175D01*
X429175Y1135799D01*
X431002Y1131387D01*
X431002Y1126613D01*
X429175Y1122201D01*
X425799Y1118825D01*
X421387Y1116998D01*
X416613Y1116998D01*
G37*
%LPD*%
%LPC*%
G36*
X69613Y1116998D02*
X69613Y1116998D01*
X65201Y1118825D01*
X61825Y1122201D01*
X59998Y1126613D01*
X59998Y1131387D01*
X61825Y1135799D01*
X65201Y1139175D01*
X69613Y1141002D01*
X74387Y1141002D01*
X78799Y1139175D01*
X82175Y1135799D01*
X84002Y1131387D01*
X84002Y1126613D01*
X82175Y1122201D01*
X78799Y1118825D01*
X74387Y1116998D01*
X69613Y1116998D01*
G37*
%LPD*%
%LPC*%
G36*
X111613Y1116998D02*
X111613Y1116998D01*
X107201Y1118825D01*
X103825Y1122201D01*
X101998Y1126613D01*
X101998Y1131387D01*
X103825Y1135799D01*
X107201Y1139175D01*
X111613Y1141002D01*
X116387Y1141002D01*
X120799Y1139175D01*
X124175Y1135799D01*
X126002Y1131387D01*
X126002Y1126613D01*
X124175Y1122201D01*
X120799Y1118825D01*
X116387Y1116998D01*
X111613Y1116998D01*
G37*
%LPD*%
%LPC*%
G36*
X153613Y1116998D02*
X153613Y1116998D01*
X149201Y1118825D01*
X145825Y1122201D01*
X143998Y1126613D01*
X143998Y1131387D01*
X145825Y1135799D01*
X149201Y1139175D01*
X153613Y1141002D01*
X158387Y1141002D01*
X162799Y1139175D01*
X166175Y1135799D01*
X168002Y1131387D01*
X168002Y1126613D01*
X166175Y1122201D01*
X162799Y1118825D01*
X158387Y1116998D01*
X153613Y1116998D01*
G37*
%LPD*%
%LPC*%
G36*
X195613Y1116998D02*
X195613Y1116998D01*
X191201Y1118825D01*
X187825Y1122201D01*
X185998Y1126613D01*
X185998Y1131387D01*
X187825Y1135799D01*
X191201Y1139175D01*
X195613Y1141002D01*
X200387Y1141002D01*
X204799Y1139175D01*
X208175Y1135799D01*
X210002Y1131387D01*
X210002Y1126613D01*
X208175Y1122201D01*
X204799Y1118825D01*
X200387Y1116998D01*
X195613Y1116998D01*
G37*
%LPD*%
%LPC*%
G36*
X290613Y1116998D02*
X290613Y1116998D01*
X286201Y1118825D01*
X282825Y1122201D01*
X280998Y1126613D01*
X280998Y1131387D01*
X282825Y1135799D01*
X286201Y1139175D01*
X290613Y1141002D01*
X295387Y1141002D01*
X299799Y1139175D01*
X303175Y1135799D01*
X305002Y1131387D01*
X305002Y1126613D01*
X303175Y1122201D01*
X299799Y1118825D01*
X295387Y1116998D01*
X290613Y1116998D01*
G37*
%LPD*%
%LPC*%
G36*
X332613Y1116998D02*
X332613Y1116998D01*
X328201Y1118825D01*
X324825Y1122201D01*
X322998Y1126613D01*
X322998Y1131387D01*
X324825Y1135799D01*
X328201Y1139175D01*
X332613Y1141002D01*
X337387Y1141002D01*
X341799Y1139175D01*
X345175Y1135799D01*
X347002Y1131387D01*
X347002Y1126613D01*
X345175Y1122201D01*
X341799Y1118825D01*
X337387Y1116998D01*
X332613Y1116998D01*
G37*
%LPD*%
%LPC*%
G36*
X554613Y1118998D02*
X554613Y1118998D01*
X550201Y1120825D01*
X546825Y1124201D01*
X544998Y1128613D01*
X544998Y1133387D01*
X546825Y1137799D01*
X550201Y1141175D01*
X554613Y1143002D01*
X559387Y1143002D01*
X563799Y1141175D01*
X567175Y1137799D01*
X569002Y1133387D01*
X569002Y1128613D01*
X567175Y1124201D01*
X563799Y1120825D01*
X559387Y1118998D01*
X554613Y1118998D01*
G37*
%LPD*%
%LPC*%
G36*
X727613Y1057998D02*
X727613Y1057998D01*
X723201Y1059825D01*
X719825Y1063201D01*
X717998Y1067613D01*
X717998Y1072387D01*
X719825Y1076799D01*
X723201Y1080175D01*
X727613Y1082002D01*
X732387Y1082002D01*
X736799Y1080175D01*
X740175Y1076799D01*
X742002Y1072387D01*
X742002Y1067613D01*
X740175Y1063201D01*
X736799Y1059825D01*
X732387Y1057998D01*
X727613Y1057998D01*
G37*
%LPD*%
%LPC*%
G36*
X769613Y1057998D02*
X769613Y1057998D01*
X765201Y1059825D01*
X761825Y1063201D01*
X759998Y1067613D01*
X759998Y1072387D01*
X761825Y1076799D01*
X765201Y1080175D01*
X769613Y1082002D01*
X774387Y1082002D01*
X778799Y1080175D01*
X782175Y1076799D01*
X784002Y1072387D01*
X784002Y1067613D01*
X782175Y1063201D01*
X778799Y1059825D01*
X774387Y1057998D01*
X769613Y1057998D01*
G37*
%LPD*%
%LPC*%
G36*
X811613Y1057998D02*
X811613Y1057998D01*
X807201Y1059825D01*
X803825Y1063201D01*
X801998Y1067613D01*
X801998Y1072387D01*
X803825Y1076799D01*
X807201Y1080175D01*
X811613Y1082002D01*
X816387Y1082002D01*
X820799Y1080175D01*
X824175Y1076799D01*
X826002Y1072387D01*
X826002Y1067613D01*
X824175Y1063201D01*
X820799Y1059825D01*
X816387Y1057998D01*
X811613Y1057998D01*
G37*
%LPD*%
%LPC*%
G36*
X596613Y1118998D02*
X596613Y1118998D01*
X592201Y1120825D01*
X588825Y1124201D01*
X586998Y1128613D01*
X586998Y1133387D01*
X588825Y1137799D01*
X592201Y1141175D01*
X596613Y1143002D01*
X601387Y1143002D01*
X605799Y1141175D01*
X609175Y1137799D01*
X611002Y1133387D01*
X611002Y1128613D01*
X609175Y1124201D01*
X605799Y1120825D01*
X601387Y1118998D01*
X596613Y1118998D01*
G37*
%LPD*%
%LPC*%
G36*
X946613Y1060998D02*
X946613Y1060998D01*
X942201Y1062825D01*
X938825Y1066201D01*
X936998Y1070613D01*
X936998Y1075387D01*
X938825Y1079799D01*
X942201Y1083175D01*
X946613Y1085002D01*
X951387Y1085002D01*
X955799Y1083175D01*
X959175Y1079799D01*
X961002Y1075387D01*
X961002Y1070613D01*
X959175Y1066201D01*
X955799Y1062825D01*
X951387Y1060998D01*
X946613Y1060998D01*
G37*
%LPD*%
%LPC*%
G36*
X988613Y1060998D02*
X988613Y1060998D01*
X984201Y1062825D01*
X980825Y1066201D01*
X978998Y1070613D01*
X978998Y1075387D01*
X980825Y1079799D01*
X984201Y1083175D01*
X988613Y1085002D01*
X993387Y1085002D01*
X997799Y1083175D01*
X1001175Y1079799D01*
X1003002Y1075387D01*
X1003002Y1070613D01*
X1001175Y1066201D01*
X997799Y1062825D01*
X993387Y1060998D01*
X988613Y1060998D01*
G37*
%LPD*%
%LPC*%
G36*
X1030613Y1060998D02*
X1030613Y1060998D01*
X1026201Y1062825D01*
X1022825Y1066201D01*
X1020998Y1070613D01*
X1020998Y1075387D01*
X1022825Y1079799D01*
X1026201Y1083175D01*
X1030613Y1085002D01*
X1035387Y1085002D01*
X1039799Y1083175D01*
X1043175Y1079799D01*
X1045002Y1075387D01*
X1045002Y1070613D01*
X1043175Y1066201D01*
X1039799Y1062825D01*
X1035387Y1060998D01*
X1030613Y1060998D01*
G37*
%LPD*%
%LPC*%
G36*
X638613Y1118998D02*
X638613Y1118998D01*
X634201Y1120825D01*
X630825Y1124201D01*
X628998Y1128613D01*
X628998Y1133387D01*
X630825Y1137799D01*
X634201Y1141175D01*
X638613Y1143002D01*
X643387Y1143002D01*
X647799Y1141175D01*
X651175Y1137799D01*
X653002Y1133387D01*
X653002Y1128613D01*
X651175Y1124201D01*
X647799Y1120825D01*
X643387Y1118998D01*
X638613Y1118998D01*
G37*
%LPD*%
%LPC*%
G36*
X69613Y1061998D02*
X69613Y1061998D01*
X65201Y1063825D01*
X61825Y1067201D01*
X59998Y1071613D01*
X59998Y1076387D01*
X61825Y1080799D01*
X65201Y1084175D01*
X69613Y1086002D01*
X74387Y1086002D01*
X78799Y1084175D01*
X82175Y1080799D01*
X84002Y1076387D01*
X84002Y1071613D01*
X82175Y1067201D01*
X78799Y1063825D01*
X74387Y1061998D01*
X69613Y1061998D01*
G37*
%LPD*%
%LPC*%
G36*
X1069685Y905411D02*
X1069685Y905411D01*
X1066411Y908685D01*
X1066411Y919426D01*
X1066375Y919473D01*
X1066368Y919468D01*
X1066362Y919475D01*
X1064868Y919475D01*
X1063975Y920368D01*
X1063975Y934632D01*
X1064868Y935525D01*
X1081132Y935525D01*
X1082025Y934632D01*
X1082025Y920368D01*
X1081132Y919475D01*
X1077638Y919475D01*
X1077591Y919439D01*
X1077596Y919432D01*
X1077591Y919428D01*
X1077591Y919427D01*
X1077589Y919426D01*
X1077589Y908685D01*
X1074315Y905411D01*
X1069685Y905411D01*
G37*
%LPD*%
%LPC*%
G36*
X594288Y393395D02*
X594288Y393395D01*
X593395Y394288D01*
X593395Y405712D01*
X594288Y406605D01*
X605712Y406605D01*
X606605Y405712D01*
X606605Y394288D01*
X605712Y393395D01*
X594288Y393395D01*
G37*
%LPD*%
%LPC*%
G36*
X274288Y393395D02*
X274288Y393395D01*
X273395Y394288D01*
X273395Y405712D01*
X274288Y406605D01*
X285712Y406605D01*
X286605Y405712D01*
X286605Y394288D01*
X285712Y393395D01*
X274288Y393395D01*
G37*
%LPD*%
%LPC*%
G36*
X434288Y393395D02*
X434288Y393395D01*
X433395Y394288D01*
X433395Y405712D01*
X434288Y406605D01*
X445712Y406605D01*
X446605Y405712D01*
X446605Y394288D01*
X445712Y393395D01*
X434288Y393395D01*
G37*
%LPD*%
%LPC*%
G36*
X514288Y393395D02*
X514288Y393395D01*
X513395Y394288D01*
X513395Y405712D01*
X514288Y406605D01*
X525712Y406605D01*
X526605Y405712D01*
X526605Y394288D01*
X525712Y393395D01*
X514288Y393395D01*
G37*
%LPD*%
%LPC*%
G36*
X354288Y393395D02*
X354288Y393395D01*
X353395Y394288D01*
X353395Y405712D01*
X354288Y406605D01*
X365712Y406605D01*
X366605Y405712D01*
X366605Y394288D01*
X365712Y393395D01*
X354288Y393395D01*
G37*
%LPD*%
%LPC*%
G36*
X194288Y393395D02*
X194288Y393395D01*
X193395Y394288D01*
X193395Y405712D01*
X194288Y406605D01*
X205712Y406605D01*
X206605Y405712D01*
X206605Y394288D01*
X205712Y393395D01*
X194288Y393395D01*
G37*
%LPD*%
%LPC*%
G36*
X914288Y393395D02*
X914288Y393395D01*
X913395Y394288D01*
X913395Y405712D01*
X914288Y406605D01*
X925712Y406605D01*
X926605Y405712D01*
X926605Y394288D01*
X925712Y393395D01*
X914288Y393395D01*
G37*
%LPD*%
%LPC*%
G36*
X834288Y393395D02*
X834288Y393395D01*
X833395Y394288D01*
X833395Y405712D01*
X834288Y406605D01*
X845712Y406605D01*
X846605Y405712D01*
X846605Y394288D01*
X845712Y393395D01*
X834288Y393395D01*
G37*
%LPD*%
%LPC*%
G36*
X754288Y393395D02*
X754288Y393395D01*
X753395Y394288D01*
X753395Y405712D01*
X754288Y406605D01*
X765712Y406605D01*
X766605Y405712D01*
X766605Y394288D01*
X765712Y393395D01*
X754288Y393395D01*
G37*
%LPD*%
%LPC*%
G36*
X674288Y393395D02*
X674288Y393395D01*
X673395Y394288D01*
X673395Y405712D01*
X674288Y406605D01*
X685712Y406605D01*
X686605Y405712D01*
X686605Y394288D01*
X685712Y393395D01*
X674288Y393395D01*
G37*
%LPD*%
%LPC*%
G36*
X623578Y393395D02*
X623578Y393395D01*
X621151Y394401D01*
X619293Y396259D01*
X618287Y398686D01*
X618287Y401314D01*
X619293Y403741D01*
X621151Y405599D01*
X623578Y406605D01*
X626206Y406605D01*
X628633Y405599D01*
X630491Y403741D01*
X631497Y401314D01*
X631497Y398686D01*
X630491Y396259D01*
X628633Y394401D01*
X626206Y393395D01*
X623578Y393395D01*
G37*
%LPD*%
%LPC*%
G36*
X223578Y393395D02*
X223578Y393395D01*
X221151Y394401D01*
X219293Y396259D01*
X218287Y398686D01*
X218287Y401314D01*
X219293Y403741D01*
X221151Y405599D01*
X223578Y406605D01*
X226206Y406605D01*
X228633Y405599D01*
X230491Y403741D01*
X231497Y401314D01*
X231497Y398686D01*
X230491Y396259D01*
X228633Y394401D01*
X226206Y393395D01*
X223578Y393395D01*
G37*
%LPD*%
%LPC*%
G36*
X463578Y393395D02*
X463578Y393395D01*
X461151Y394401D01*
X459293Y396259D01*
X458287Y398686D01*
X458287Y401314D01*
X459293Y403741D01*
X461151Y405599D01*
X463578Y406605D01*
X466206Y406605D01*
X468633Y405599D01*
X470491Y403741D01*
X471497Y401314D01*
X471497Y398686D01*
X470491Y396259D01*
X468633Y394401D01*
X466206Y393395D01*
X463578Y393395D01*
G37*
%LPD*%
%LPC*%
G36*
X383578Y393395D02*
X383578Y393395D01*
X381151Y394401D01*
X379293Y396259D01*
X378287Y398686D01*
X378287Y401314D01*
X379293Y403741D01*
X381151Y405599D01*
X383578Y406605D01*
X386206Y406605D01*
X388633Y405599D01*
X390491Y403741D01*
X391497Y401314D01*
X391497Y398686D01*
X390491Y396259D01*
X388633Y394401D01*
X386206Y393395D01*
X383578Y393395D01*
G37*
%LPD*%
%LPC*%
G36*
X543578Y393395D02*
X543578Y393395D01*
X541151Y394401D01*
X539293Y396259D01*
X538287Y398686D01*
X538287Y401314D01*
X539293Y403741D01*
X541151Y405599D01*
X543578Y406605D01*
X546206Y406605D01*
X548633Y405599D01*
X550491Y403741D01*
X551497Y401314D01*
X551497Y398686D01*
X550491Y396259D01*
X548633Y394401D01*
X546206Y393395D01*
X543578Y393395D01*
G37*
%LPD*%
%LPC*%
G36*
X303578Y393395D02*
X303578Y393395D01*
X301151Y394401D01*
X299293Y396259D01*
X298287Y398686D01*
X298287Y401314D01*
X299293Y403741D01*
X301151Y405599D01*
X303578Y406605D01*
X306206Y406605D01*
X308633Y405599D01*
X310491Y403741D01*
X311497Y401314D01*
X311497Y398686D01*
X310491Y396259D01*
X308633Y394401D01*
X306206Y393395D01*
X303578Y393395D01*
G37*
%LPD*%
%LPC*%
G36*
X943578Y393395D02*
X943578Y393395D01*
X941151Y394401D01*
X939293Y396259D01*
X938287Y398686D01*
X938287Y401314D01*
X939293Y403741D01*
X941151Y405599D01*
X943578Y406605D01*
X946206Y406605D01*
X948633Y405599D01*
X950491Y403741D01*
X951497Y401314D01*
X951497Y398686D01*
X950491Y396259D01*
X948633Y394401D01*
X946206Y393395D01*
X943578Y393395D01*
G37*
%LPD*%
%LPC*%
G36*
X863578Y393395D02*
X863578Y393395D01*
X861151Y394401D01*
X859293Y396259D01*
X858287Y398686D01*
X858287Y401314D01*
X859293Y403741D01*
X861151Y405599D01*
X863578Y406605D01*
X866206Y406605D01*
X868633Y405599D01*
X870491Y403741D01*
X871497Y401314D01*
X871497Y398686D01*
X870491Y396259D01*
X868633Y394401D01*
X866206Y393395D01*
X863578Y393395D01*
G37*
%LPD*%
%LPC*%
G36*
X703578Y393395D02*
X703578Y393395D01*
X701151Y394401D01*
X699293Y396259D01*
X698287Y398686D01*
X698287Y401314D01*
X699293Y403741D01*
X701151Y405599D01*
X703578Y406605D01*
X706206Y406605D01*
X708633Y405599D01*
X710491Y403741D01*
X711497Y401314D01*
X711497Y398686D01*
X710491Y396259D01*
X708633Y394401D01*
X706206Y393395D01*
X703578Y393395D01*
G37*
%LPD*%
%LPC*%
G36*
X783578Y393395D02*
X783578Y393395D01*
X781151Y394401D01*
X779293Y396259D01*
X778287Y398686D01*
X778287Y401314D01*
X779293Y403741D01*
X781151Y405599D01*
X783578Y406605D01*
X786206Y406605D01*
X788633Y405599D01*
X790491Y403741D01*
X791497Y401314D01*
X791497Y398686D01*
X790491Y396259D01*
X788633Y394401D01*
X786206Y393395D01*
X783578Y393395D01*
G37*
%LPD*%
D10*
X155100Y958500D03*
X155100Y939500D03*
X155100Y985500D03*
X155100Y1004500D03*
D11*
X197000Y814000D03*
D12*
X155000Y814000D03*
X113000Y814000D03*
X71000Y814000D03*
X197000Y869000D03*
X155000Y869000D03*
X113000Y869000D03*
X71000Y869000D03*
D10*
X113000Y985500D03*
X113000Y1004500D03*
X113000Y958500D03*
X113000Y939500D03*
X71000Y985500D03*
X71000Y1004500D03*
X71000Y958500D03*
X71000Y939500D03*
X197000Y985500D03*
X197000Y1004500D03*
X197000Y958500D03*
X197000Y939500D03*
X156100Y1218500D03*
X156100Y1199500D03*
X156100Y1245500D03*
X156100Y1264500D03*
D11*
X198000Y1074000D03*
D12*
X156000Y1074000D03*
X114000Y1074000D03*
X72000Y1074000D03*
X198000Y1129000D03*
X156000Y1129000D03*
X114000Y1129000D03*
X72000Y1129000D03*
D10*
X114000Y1245500D03*
X114000Y1264500D03*
X114000Y1218500D03*
X114000Y1199500D03*
X72000Y1245500D03*
X72000Y1264500D03*
X72000Y1218500D03*
X72000Y1199500D03*
X198000Y1245500D03*
X198000Y1264500D03*
X198000Y1218500D03*
X198000Y1199500D03*
X368100Y961500D03*
X368100Y942500D03*
X368100Y988500D03*
X368100Y1007500D03*
D11*
X410000Y817000D03*
D12*
X368000Y817000D03*
X326000Y817000D03*
X284000Y817000D03*
X410000Y872000D03*
X368000Y872000D03*
X326000Y872000D03*
X284000Y872000D03*
D10*
X326000Y988500D03*
X326000Y1007500D03*
X326000Y961500D03*
X326000Y942500D03*
X284000Y988500D03*
X284000Y1007500D03*
X284000Y961500D03*
X284000Y942500D03*
X410000Y988500D03*
X410000Y1007500D03*
X410000Y961500D03*
X410000Y942500D03*
X377100Y1218500D03*
X377100Y1199500D03*
X377100Y1245500D03*
X377100Y1264500D03*
D11*
X419000Y1074000D03*
D12*
X377000Y1074000D03*
X335000Y1074000D03*
X293000Y1074000D03*
X419000Y1129000D03*
X377000Y1129000D03*
X335000Y1129000D03*
X293000Y1129000D03*
D10*
X335000Y1245500D03*
X335000Y1264500D03*
X335000Y1218500D03*
X335000Y1199500D03*
X293000Y1245500D03*
X293000Y1264500D03*
X293000Y1218500D03*
X293000Y1199500D03*
X419000Y1245500D03*
X419000Y1264500D03*
X419000Y1218500D03*
X419000Y1199500D03*
X598100Y961500D03*
X598100Y942500D03*
X598100Y988500D03*
X598100Y1007500D03*
D11*
X640000Y817000D03*
D12*
X598000Y817000D03*
X556000Y817000D03*
X514000Y817000D03*
X640000Y872000D03*
X598000Y872000D03*
X556000Y872000D03*
X514000Y872000D03*
D10*
X556000Y988500D03*
X556000Y1007500D03*
X556000Y961500D03*
X556000Y942500D03*
X514000Y988500D03*
X514000Y1007500D03*
X514000Y961500D03*
X514000Y942500D03*
X640000Y988500D03*
X640000Y1007500D03*
X640000Y961500D03*
X640000Y942500D03*
X599100Y1220500D03*
X599100Y1201500D03*
X599100Y1247500D03*
X599100Y1266500D03*
D11*
X641000Y1076000D03*
D12*
X599000Y1076000D03*
X557000Y1076000D03*
X515000Y1076000D03*
X641000Y1131000D03*
X599000Y1131000D03*
X557000Y1131000D03*
X515000Y1131000D03*
D10*
X557000Y1247500D03*
X557000Y1266500D03*
X557000Y1220500D03*
X557000Y1201500D03*
X515000Y1247500D03*
X515000Y1266500D03*
X515000Y1220500D03*
X515000Y1201500D03*
X641000Y1247500D03*
X641000Y1266500D03*
X641000Y1220500D03*
X641000Y1201500D03*
X446100Y683500D03*
X446100Y664500D03*
X446100Y710500D03*
X446100Y729500D03*
D11*
X488000Y539000D03*
D12*
X446000Y539000D03*
X404000Y539000D03*
X362000Y539000D03*
X488000Y594000D03*
X446000Y594000D03*
X404000Y594000D03*
X362000Y594000D03*
D10*
X404000Y710500D03*
X404000Y729500D03*
X404000Y683500D03*
X404000Y664500D03*
X362000Y710500D03*
X362000Y729500D03*
X362000Y683500D03*
X362000Y664500D03*
X488000Y710500D03*
X488000Y729500D03*
X488000Y683500D03*
X488000Y664500D03*
X225100Y682500D03*
X225100Y663500D03*
X225100Y709500D03*
X225100Y728500D03*
D11*
X267000Y538000D03*
D12*
X225000Y538000D03*
X183000Y538000D03*
X141000Y538000D03*
X267000Y593000D03*
X225000Y593000D03*
X183000Y593000D03*
X141000Y593000D03*
D10*
X183000Y709500D03*
X183000Y728500D03*
X183000Y682500D03*
X183000Y663500D03*
X141000Y709500D03*
X141000Y728500D03*
X141000Y682500D03*
X141000Y663500D03*
X267000Y709500D03*
X267000Y728500D03*
X267000Y682500D03*
X267000Y663500D03*
X814100Y1214500D03*
X814100Y1195500D03*
X814100Y1241500D03*
X814100Y1260500D03*
D11*
X856000Y1070000D03*
D12*
X814000Y1070000D03*
X772000Y1070000D03*
X730000Y1070000D03*
X856000Y1125000D03*
X814000Y1125000D03*
X772000Y1125000D03*
X730000Y1125000D03*
D10*
X772000Y1241500D03*
X772000Y1260500D03*
X772000Y1214500D03*
X772000Y1195500D03*
X730000Y1241500D03*
X730000Y1260500D03*
X730000Y1214500D03*
X730000Y1195500D03*
X856000Y1241500D03*
X856000Y1260500D03*
X856000Y1214500D03*
X856000Y1195500D03*
X1033100Y1217500D03*
X1033100Y1198500D03*
X1033100Y1244500D03*
X1033100Y1263500D03*
D11*
X1075000Y1073000D03*
D12*
X1033000Y1073000D03*
X991000Y1073000D03*
X949000Y1073000D03*
X1075000Y1128000D03*
X1033000Y1128000D03*
X991000Y1128000D03*
X949000Y1128000D03*
D10*
X991000Y1244500D03*
X991000Y1263500D03*
X991000Y1217500D03*
X991000Y1198500D03*
X949000Y1244500D03*
X949000Y1263500D03*
X949000Y1217500D03*
X949000Y1198500D03*
X1075000Y1244500D03*
X1075000Y1263500D03*
X1075000Y1217500D03*
X1075000Y1198500D03*
X1030000Y990500D03*
X1030000Y1009500D03*
X1029000Y948500D03*
X1029000Y929500D03*
D11*
X1072000Y819000D03*
D12*
X1030000Y819000D03*
X988000Y819000D03*
X946000Y819000D03*
X1072000Y874000D03*
X1030000Y874000D03*
X988000Y874000D03*
X946000Y874000D03*
D10*
X988000Y990500D03*
X988000Y1009500D03*
X987000Y950500D03*
X987000Y931500D03*
X947000Y990500D03*
X947000Y1009500D03*
X946000Y951500D03*
X946000Y932500D03*
X1073000Y990500D03*
X1073000Y1009500D03*
X1073000Y946500D03*
X1073000Y927500D03*
X811000Y992500D03*
X811000Y1011500D03*
X811000Y956500D03*
X811000Y937500D03*
D11*
X853000Y817000D03*
D12*
X811000Y817000D03*
X769000Y817000D03*
X727000Y817000D03*
X853000Y872000D03*
X811000Y872000D03*
X769000Y872000D03*
X727000Y872000D03*
D10*
X769000Y991500D03*
X769000Y1010500D03*
X769000Y956500D03*
X769000Y937500D03*
X727000Y991500D03*
X727000Y1010500D03*
X727000Y956500D03*
X727000Y937500D03*
X853000Y992500D03*
X853000Y1011500D03*
X853000Y956500D03*
X853000Y937500D03*
D13*
X200000Y400000D03*
D14*
X212446Y400000D03*
X224892Y400000D03*
D15*
X50000Y459000D02*
X30000Y459000D01*
X30000Y420900D02*
X50000Y420900D01*
X50000Y382800D02*
X30000Y382800D01*
X30000Y344700D02*
X50000Y344700D01*
X50000Y278000D02*
X30000Y278000D01*
X30000Y239900D02*
X50000Y239900D01*
X50000Y201800D02*
X30000Y201800D01*
X30000Y163700D02*
X50000Y163700D01*
X112000Y49000D02*
X112000Y29000D01*
X150100Y29000D02*
X150100Y49000D01*
X188200Y49000D02*
X188200Y29000D01*
X226300Y29000D02*
X226300Y49000D01*
X282000Y48000D02*
X282000Y28000D01*
X320100Y28000D02*
X320100Y48000D01*
X358200Y48000D02*
X358200Y28000D01*
X396300Y28000D02*
X396300Y48000D01*
X452000Y50000D02*
X452000Y30000D01*
X490100Y30000D02*
X490100Y50000D01*
X528200Y50000D02*
X528200Y30000D01*
X566300Y30000D02*
X566300Y50000D01*
X621000Y48000D02*
X621000Y28000D01*
X659100Y28000D02*
X659100Y48000D01*
X697200Y48000D02*
X697200Y28000D01*
X735300Y28000D02*
X735300Y48000D01*
X789000Y50000D02*
X789000Y30000D01*
X827100Y30000D02*
X827100Y50000D01*
X865200Y50000D02*
X865200Y30000D01*
X903300Y30000D02*
X903300Y50000D01*
X955000Y51000D02*
X955000Y31000D01*
X993100Y31000D02*
X993100Y51000D01*
X1031200Y51000D02*
X1031200Y31000D01*
X1069300Y31000D02*
X1069300Y51000D01*
X1102000Y144000D02*
X1122000Y144000D01*
X1122000Y182100D02*
X1102000Y182100D01*
X1102000Y220200D02*
X1122000Y220200D01*
X1122000Y258300D02*
X1102000Y258300D01*
X1102000Y314000D02*
X1122000Y314000D01*
X1122000Y352100D02*
X1102000Y352100D01*
X1102000Y390200D02*
X1122000Y390200D01*
X1122000Y428300D02*
X1102000Y428300D01*
D13*
X280000Y400000D03*
D14*
X292446Y400000D03*
X304892Y400000D03*
D13*
X360000Y400000D03*
D14*
X372446Y400000D03*
X384892Y400000D03*
D13*
X440000Y400000D03*
D14*
X452446Y400000D03*
X464892Y400000D03*
D13*
X520000Y400000D03*
D14*
X532446Y400000D03*
X544892Y400000D03*
D13*
X600000Y400000D03*
D14*
X612446Y400000D03*
X624892Y400000D03*
D13*
X680000Y400000D03*
D14*
X692446Y400000D03*
X704892Y400000D03*
D13*
X760000Y400000D03*
D14*
X772446Y400000D03*
X784892Y400000D03*
D13*
X840000Y400000D03*
D14*
X852446Y400000D03*
X864892Y400000D03*
D13*
X920000Y400000D03*
D14*
X932446Y400000D03*
X944892Y400000D03*
D16*
X224750Y303750D03*
X203250Y303750D03*
X203250Y262250D03*
X224750Y262250D03*
D10*
X225000Y368500D03*
X225000Y349500D03*
D16*
X304750Y303750D03*
X283250Y303750D03*
X283250Y262250D03*
X304750Y262250D03*
D10*
X305000Y368500D03*
X305000Y349500D03*
D16*
X384750Y302750D03*
X363250Y302750D03*
X363250Y261250D03*
X384750Y261250D03*
D10*
X385000Y367500D03*
X385000Y348500D03*
D16*
X464750Y302750D03*
X443250Y302750D03*
X443250Y261250D03*
X464750Y261250D03*
D10*
X465000Y367500D03*
X465000Y348500D03*
D16*
X544750Y302750D03*
X523250Y302750D03*
X523250Y261250D03*
X544750Y261250D03*
D10*
X545000Y367500D03*
X545000Y348500D03*
D16*
X624750Y302750D03*
X603250Y302750D03*
X603250Y261250D03*
X624750Y261250D03*
D10*
X625000Y367500D03*
X625000Y348500D03*
D16*
X704750Y302750D03*
X683250Y302750D03*
X683250Y261250D03*
X704750Y261250D03*
D10*
X705000Y367500D03*
X705000Y348500D03*
D16*
X784750Y302750D03*
X763250Y302750D03*
X763250Y261250D03*
X784750Y261250D03*
D10*
X785000Y367500D03*
X785000Y348500D03*
D16*
X864750Y302750D03*
X843250Y302750D03*
X843250Y261250D03*
X864750Y261250D03*
D10*
X865000Y367500D03*
X865000Y348500D03*
D16*
X945750Y302750D03*
X924250Y302750D03*
X924250Y261250D03*
X945750Y261250D03*
D10*
X946000Y367500D03*
X946000Y348500D03*
D17*
X155100Y958500D02*
X155100Y985500D01*
D18*
X155000Y1026000D03*
D17*
X155100Y1025900D02*
X155100Y1004500D01*
X155100Y1025900D02*
X155000Y1026000D01*
D19*
X113000Y961000D02*
X113000Y958500D01*
D17*
X113000Y961000D02*
X113000Y985500D01*
D18*
X113000Y918000D03*
D17*
X113000Y939500D01*
D18*
X113000Y1026000D03*
D17*
X113000Y1004500D01*
X71000Y985500D02*
X71000Y958500D01*
D18*
X71000Y916000D03*
D17*
X71000Y939500D01*
D18*
X71000Y1027000D03*
D17*
X71000Y1004500D01*
D18*
X155000Y918000D03*
D17*
X155000Y939400D01*
X155100Y939500D01*
D18*
X197000Y918000D03*
D17*
X197000Y939500D01*
D18*
X197000Y1026000D03*
D17*
X197000Y1004500D01*
X197000Y985500D02*
X197000Y958500D01*
X156100Y1218500D02*
X156100Y1245500D01*
D18*
X156000Y1286000D03*
D17*
X156100Y1285900D02*
X156100Y1264500D01*
X156100Y1285900D02*
X156000Y1286000D01*
X114000Y1245500D02*
X114000Y1218500D01*
D18*
X114000Y1178000D03*
D17*
X114000Y1199500D01*
D19*
X114000Y1264500D02*
X114000Y1267000D01*
D18*
X114000Y1286000D03*
D17*
X114000Y1267000D01*
X72000Y1245500D02*
X72000Y1218500D01*
D19*
X72000Y1199500D02*
X72000Y1196000D01*
D18*
X72000Y1176000D03*
D17*
X72000Y1196000D01*
D18*
X72000Y1287000D03*
D17*
X72000Y1264500D01*
D18*
X156000Y1178000D03*
D17*
X156000Y1199400D01*
X156100Y1199500D01*
D18*
X198000Y1178000D03*
D17*
X198000Y1199500D01*
D18*
X198000Y1286000D03*
D17*
X198000Y1264500D01*
X198000Y1245500D02*
X198000Y1218500D01*
X368100Y988500D02*
X368100Y961500D01*
D18*
X368000Y1029000D03*
D19*
X368100Y1028900D01*
D17*
X368100Y1007500D01*
X326000Y988500D02*
X326000Y961500D01*
D18*
X326000Y921000D03*
D17*
X326000Y942500D01*
D18*
X326000Y1029000D03*
D17*
X326000Y1007500D01*
D19*
X284000Y988500D02*
X284000Y988000D01*
D17*
X284000Y961500D01*
D18*
X284000Y919000D03*
D17*
X284000Y942500D01*
D18*
X284000Y1030000D03*
D17*
X284000Y1007500D01*
D18*
X368000Y921000D03*
D17*
X368000Y942400D01*
X368100Y942500D01*
D18*
X410000Y921000D03*
D17*
X410000Y942500D01*
D18*
X410000Y1029000D03*
D17*
X410000Y1007500D01*
X410000Y988500D02*
X410000Y961500D01*
X377100Y1218500D02*
X377100Y1245500D01*
D18*
X377000Y1286000D03*
D17*
X377100Y1285900D02*
X377100Y1264500D01*
X377100Y1285900D02*
X377000Y1286000D01*
D19*
X335000Y1245500D02*
X335000Y1244000D01*
D17*
X335000Y1218500D01*
D18*
X335000Y1178000D03*
D17*
X335000Y1199500D01*
D18*
X335000Y1286000D03*
D17*
X335000Y1264500D01*
D19*
X293000Y1245500D02*
X293000Y1218500D01*
D18*
X293000Y1176000D03*
D17*
X293000Y1199500D01*
D18*
X293000Y1287000D03*
D17*
X293000Y1264500D01*
D18*
X377000Y1178000D03*
D17*
X377000Y1199400D01*
X377100Y1199500D01*
D18*
X419000Y1178000D03*
D17*
X419000Y1199500D01*
D18*
X419000Y1286000D03*
D17*
X419000Y1264500D01*
X419000Y1245500D02*
X419000Y1218500D01*
X598100Y988500D02*
X598100Y961500D01*
D18*
X598000Y1029000D03*
D17*
X598100Y1028900D01*
X598100Y1007500D01*
X556000Y988500D02*
X556000Y961500D01*
D18*
X556000Y921000D03*
D17*
X556000Y942500D01*
D18*
X556000Y1029000D03*
D17*
X556000Y1007500D01*
X514000Y988500D02*
X514000Y961500D01*
D19*
X514000Y942500D02*
X514000Y942000D01*
D18*
X514000Y919000D03*
D17*
X514000Y942000D01*
D18*
X514000Y1030000D03*
D17*
X514000Y1007500D01*
D18*
X598000Y921000D03*
D17*
X598000Y942400D01*
X598100Y942500D01*
D18*
X640000Y921000D03*
D17*
X640000Y942500D01*
D18*
X640000Y1029000D03*
D17*
X640000Y1007500D01*
X640000Y988500D02*
X640000Y961500D01*
X599100Y1220500D02*
X599100Y1247500D01*
D18*
X599000Y1288000D03*
D17*
X599100Y1287900D02*
X599100Y1266500D01*
X599100Y1287900D02*
X599000Y1288000D01*
X557000Y1247500D02*
X557000Y1220500D01*
D18*
X557000Y1180000D03*
D19*
X557000Y1201000D02*
X557000Y1201500D01*
D17*
X557000Y1201000D02*
X557000Y1180000D01*
D18*
X557000Y1288000D03*
D17*
X557000Y1266500D01*
X515000Y1247500D02*
X515000Y1220500D01*
D18*
X515000Y1178000D03*
D17*
X515000Y1201500D01*
D18*
X515000Y1289000D03*
D17*
X515000Y1266500D01*
D18*
X599000Y1180000D03*
D17*
X599000Y1201400D01*
X599100Y1201500D01*
D18*
X641000Y1180000D03*
D17*
X641000Y1201500D01*
D18*
X641000Y1288000D03*
D17*
X641000Y1266500D01*
X641000Y1247500D02*
X641000Y1220500D01*
X446100Y710500D02*
X446100Y683500D01*
D18*
X446000Y751000D03*
D17*
X446100Y750900D01*
X446100Y729500D01*
X404000Y710500D02*
X404000Y683500D01*
D18*
X404000Y643000D03*
D17*
X404000Y664500D01*
D18*
X404000Y751000D03*
D17*
X404000Y729500D01*
X362000Y710500D02*
X362000Y683500D01*
D18*
X362000Y641000D03*
D17*
X362000Y664500D01*
D18*
X362000Y752000D03*
D17*
X362000Y729500D01*
D18*
X446000Y643000D03*
D17*
X446000Y664400D01*
X446100Y664500D01*
D18*
X488000Y643000D03*
D17*
X488000Y664500D01*
D18*
X488000Y751000D03*
D17*
X488000Y729500D01*
X488000Y710500D02*
X488000Y683500D01*
X225100Y682500D02*
X225100Y709500D01*
D18*
X225000Y750000D03*
D17*
X225100Y749900D02*
X225100Y728500D01*
X225100Y749900D02*
X225000Y750000D01*
X183000Y709500D02*
X183000Y682500D01*
D18*
X183000Y642000D03*
D17*
X183000Y663500D01*
D18*
X183000Y750000D03*
D17*
X183000Y728500D01*
X141000Y709500D02*
X141000Y682500D01*
D18*
X141000Y640000D03*
D17*
X141000Y663500D01*
D18*
X141000Y751000D03*
D17*
X141000Y728500D01*
D18*
X225000Y642000D03*
D17*
X225000Y663400D01*
X225100Y663500D01*
D18*
X267000Y642000D03*
D17*
X267000Y663500D01*
D18*
X267000Y750000D03*
D17*
X267000Y728500D01*
X267000Y709500D02*
X267000Y682500D01*
X814100Y1214500D02*
X814100Y1241500D01*
D18*
X814000Y1282000D03*
D17*
X814100Y1281900D01*
X814100Y1260500D01*
X772000Y1241500D02*
X772000Y1214500D01*
D18*
X772000Y1174000D03*
D17*
X772000Y1195500D01*
D18*
X772000Y1282000D03*
D17*
X772000Y1260500D01*
X730000Y1241500D02*
X730000Y1214500D01*
D18*
X730000Y1172000D03*
D17*
X730000Y1195500D01*
D18*
X730000Y1283000D03*
D17*
X730000Y1260500D01*
D19*
X814100Y1195500D02*
X814100Y1194000D01*
D18*
X814000Y1174000D03*
D17*
X814000Y1193900D01*
X814100Y1194000D01*
D18*
X856000Y1174000D03*
D17*
X856000Y1195500D01*
D18*
X856000Y1282000D03*
D17*
X856000Y1260500D01*
X856000Y1241500D02*
X856000Y1214500D01*
X1033100Y1217500D02*
X1033100Y1244500D01*
D18*
X1033000Y1285000D03*
D17*
X1033100Y1284900D02*
X1033100Y1263500D01*
X1033100Y1284900D02*
X1033000Y1285000D01*
X991000Y1244500D02*
X991000Y1217500D01*
D18*
X991000Y1177000D03*
D17*
X991000Y1198500D01*
D18*
X991000Y1285000D03*
D17*
X991000Y1263500D01*
X949000Y1244500D02*
X949000Y1217500D01*
D18*
X949000Y1175000D03*
D17*
X949000Y1198500D01*
D18*
X949000Y1286000D03*
D17*
X949000Y1263500D01*
D18*
X1033000Y1177000D03*
D17*
X1033000Y1198400D01*
X1033100Y1198500D01*
D18*
X1075000Y1177000D03*
D17*
X1075000Y1198500D01*
D18*
X1075000Y1285000D03*
D17*
X1075000Y1263500D01*
X1075000Y1244500D02*
X1075000Y1217500D01*
D19*
X1029000Y989500D02*
X1029000Y988000D01*
X1029000Y989500D02*
X1030000Y990500D01*
D17*
X1029000Y988000D02*
X1029000Y948500D01*
X987000Y950500D02*
X987000Y989500D01*
X988000Y990500D01*
X946000Y989500D02*
X946000Y951500D01*
X946000Y989500D02*
X947000Y990500D01*
X1073000Y990500D02*
X1073000Y946500D01*
D18*
X1030000Y1032000D03*
D17*
X1030000Y1009500D01*
D18*
X988000Y1032000D03*
D17*
X988000Y1009500D01*
D18*
X947000Y1031000D03*
D17*
X947000Y1009500D01*
D18*
X1074000Y1031000D03*
D17*
X1073000Y1030000D02*
X1073000Y1009500D01*
X1073000Y1030000D02*
X1074000Y1031000D01*
D18*
X1030000Y910000D03*
D19*
X1029250Y929250D02*
X1029000Y929500D01*
D17*
X1030000Y928500D02*
X1030000Y910000D01*
X1030000Y928500D02*
X1029250Y929250D01*
D18*
X987000Y911000D03*
D17*
X987000Y931500D01*
D18*
X946000Y913000D03*
D17*
X946000Y932500D01*
D18*
X1072000Y911000D03*
D17*
X1072000Y926500D01*
X1073000Y927500D01*
X811000Y956500D02*
X811000Y992500D01*
X769000Y991500D02*
X769000Y956500D01*
X727000Y956500D02*
X727000Y991500D01*
X853000Y992500D02*
X853000Y956500D01*
D18*
X854000Y1035000D03*
D17*
X854000Y1012500D01*
X853000Y1011500D01*
D18*
X854000Y916000D03*
D19*
X853250Y937250D02*
X853000Y937500D01*
D17*
X853250Y916750D02*
X854000Y916000D01*
X853250Y916750D02*
X853250Y937250D01*
D18*
X812000Y1035000D03*
D17*
X812000Y1012500D01*
X811000Y1011500D01*
D18*
X812000Y916000D03*
D19*
X811750Y936750D02*
X811000Y937500D01*
D17*
X812000Y936500D02*
X812000Y916000D01*
X812000Y936500D02*
X811750Y936750D01*
D18*
X770000Y1034000D03*
D17*
X770000Y1011500D01*
X769000Y1010500D01*
D18*
X770000Y916000D03*
D19*
X770000Y936500D02*
X769000Y937500D01*
D17*
X770000Y936500D02*
X770000Y916000D01*
D18*
X729000Y1034000D03*
D17*
X729000Y1012500D01*
X727000Y1010500D01*
D18*
X727000Y915000D03*
D17*
X727000Y937500D01*
D18*
X1047000Y430000D03*
D17*
X1047000Y258000D01*
X1047000Y141000D01*
X1042000Y136000D01*
X1020000Y114000D01*
X903000Y114000D01*
X567000Y114000D01*
X396000Y114000D01*
X227000Y114000D01*
X181000Y114000D01*
X133000Y162000D02*
X133000Y347000D01*
X133000Y397000D01*
X192000Y456000D01*
X1022000Y456000D02*
X1048000Y430000D01*
X181000Y114000D02*
X133000Y162000D01*
D18*
X1047000Y258000D03*
X1042000Y136000D03*
X903000Y114000D03*
X567000Y114000D03*
X396000Y114000D03*
X227000Y114000D03*
X133000Y162000D03*
X133000Y347000D03*
D17*
X957000Y456000D02*
X1022000Y456000D01*
X957000Y456000D02*
X879000Y456000D01*
X795000Y456000D01*
X711000Y456000D01*
X634000Y456000D01*
X557000Y456000D01*
X479000Y456000D01*
X391000Y456000D01*
X315000Y456000D01*
X234000Y456000D01*
X192000Y456000D01*
D18*
X234000Y456000D03*
X315000Y456000D03*
X391000Y456000D03*
X479000Y456000D03*
X557000Y456000D03*
X634000Y456000D03*
X711000Y456000D03*
X795000Y456000D03*
X879000Y456000D03*
X957000Y456000D03*
D17*
X112000Y444000D02*
X112000Y419000D01*
X112000Y278000D01*
X112000Y109000D01*
X131000Y90000D01*
X150000Y90000D01*
X283000Y90000D01*
X453000Y90000D01*
X828000Y90000D01*
X993000Y90000D01*
X1041000Y90000D01*
X1064000Y113000D01*
X156000Y488000D02*
X112000Y444000D01*
X1064000Y182000D02*
X1064000Y113000D01*
X1064000Y182000D02*
X1064000Y352000D01*
X1064000Y445000D01*
D18*
X112000Y419000D03*
X1064000Y352000D03*
X1064000Y182000D03*
X993000Y90000D03*
X828000Y90000D03*
X453000Y90000D03*
X283000Y90000D03*
X150000Y90000D03*
X112000Y278000D03*
D17*
X156000Y488000D02*
X212000Y488000D01*
X293000Y488000D01*
X372000Y488000D01*
X453000Y488000D01*
X533000Y488000D01*
X612000Y488000D01*
X691000Y488000D01*
X772000Y488000D01*
X853000Y488000D01*
X932000Y488000D01*
X1021000Y488000D01*
X1064000Y445000D01*
D18*
X212000Y488000D03*
X293000Y488000D03*
X372000Y488000D03*
X453000Y488000D03*
X533000Y488000D03*
X612000Y488000D03*
X691000Y488000D03*
X772000Y488000D03*
X853000Y488000D03*
X932000Y488000D03*
D20*
X203250Y303750D02*
X203250Y262250D01*
D18*
X212000Y387000D03*
D20*
X203250Y378250D01*
X203250Y303750D01*
X283250Y303750D02*
X283250Y262250D01*
D18*
X292000Y387000D03*
D20*
X283250Y378250D01*
X283250Y303750D01*
X363250Y302750D02*
X363250Y261250D01*
D18*
X372000Y386000D03*
D20*
X363250Y377250D01*
X363250Y302750D01*
X443250Y302750D02*
X443250Y261250D01*
D18*
X452000Y386000D03*
D20*
X443250Y377250D01*
X443250Y302750D01*
X523250Y302750D02*
X523250Y261250D01*
D18*
X532000Y386000D03*
D20*
X523250Y377250D01*
X523250Y302750D01*
X603250Y302750D02*
X603250Y261250D01*
D18*
X612000Y386000D03*
D20*
X603250Y377250D01*
X603250Y302750D01*
X683250Y302750D02*
X683250Y261250D01*
D18*
X692000Y386000D03*
D20*
X683250Y377250D01*
X683250Y302750D01*
X763250Y302750D02*
X763250Y261250D01*
D18*
X772000Y386000D03*
D20*
X763250Y377250D01*
X763250Y302750D01*
X843250Y302750D02*
X843250Y261250D01*
D18*
X852000Y386000D03*
D20*
X843250Y377250D01*
X843250Y302750D01*
X924250Y302750D02*
X924250Y261250D01*
D18*
X933000Y386000D03*
D20*
X924250Y377250D01*
X924250Y302750D01*
D18*
X248000Y334000D03*
D20*
X248000Y362000D01*
X241500Y368500D02*
X225000Y368500D01*
X241500Y368500D02*
X248000Y362000D01*
X224750Y303750D02*
X224750Y262250D01*
X224750Y303750D02*
X225000Y304000D01*
X225000Y349500D01*
D18*
X328000Y334000D03*
D20*
X328000Y362000D01*
X321500Y368500D02*
X305000Y368500D01*
X321500Y368500D02*
X328000Y362000D01*
X304750Y303750D02*
X304750Y262250D01*
X304750Y303750D02*
X305000Y304000D01*
X305000Y349500D01*
D18*
X408000Y333000D03*
D20*
X408000Y361000D01*
X401500Y367500D02*
X385000Y367500D01*
X401500Y367500D02*
X408000Y361000D01*
X384750Y302750D02*
X384750Y261250D01*
X384750Y302750D02*
X385000Y303000D01*
X385000Y348500D01*
D18*
X488000Y333000D03*
D20*
X488000Y361000D01*
X481500Y367500D02*
X465000Y367500D01*
X481500Y367500D02*
X488000Y361000D01*
X464750Y302750D02*
X464750Y261250D01*
X464750Y302750D02*
X465000Y303000D01*
X465000Y348500D01*
D18*
X568000Y333000D03*
D20*
X568000Y361000D01*
X561500Y367500D02*
X545000Y367500D01*
X561500Y367500D02*
X568000Y361000D01*
X544750Y302750D02*
X544750Y261250D01*
X544750Y302750D02*
X545000Y303000D01*
X545000Y348500D01*
D18*
X648000Y333000D03*
D20*
X648000Y361000D01*
X641500Y367500D02*
X625000Y367500D01*
X641500Y367500D02*
X648000Y361000D01*
X624750Y302750D02*
X624750Y261250D01*
X624750Y302750D02*
X625000Y303000D01*
X625000Y348500D01*
D18*
X728000Y333000D03*
D20*
X728000Y361000D01*
X721500Y367500D02*
X705000Y367500D01*
X721500Y367500D02*
X728000Y361000D01*
X704750Y302750D02*
X704750Y261250D01*
X704750Y302750D02*
X705000Y303000D01*
X705000Y348500D01*
D18*
X808000Y333000D03*
D20*
X808000Y361000D01*
X801500Y367500D02*
X785000Y367500D01*
X801500Y367500D02*
X808000Y361000D01*
X784750Y302750D02*
X784750Y261250D01*
X784750Y302750D02*
X785000Y303000D01*
X785000Y348500D01*
D18*
X888000Y333000D03*
D20*
X888000Y361000D01*
X881500Y367500D02*
X865000Y367500D01*
X881500Y367500D02*
X888000Y361000D01*
X864750Y302750D02*
X864750Y261250D01*
X864750Y302750D02*
X865000Y303000D01*
X865000Y348500D01*
D18*
X969000Y333000D03*
D20*
X969000Y361000D01*
X962500Y367500D02*
X946000Y367500D01*
X962500Y367500D02*
X969000Y361000D01*
X945750Y302750D02*
X945750Y261250D01*
X945750Y302750D02*
X946000Y303000D01*
X946000Y348500D01*
M02*
