G04 EAGLE Gerber RS-274X export*
G75*
%MOMM*%
%FSLAX34Y34*%
%LPD*%
%IN*%
%IPPOS*%
%AMOC8*
5,1,8,0,0,1.08239X$1,22.5*%
G01*
%ADD10C,0.000000*%
%ADD11C,0.254000*%


D10*
X15000Y30000D02*
X15005Y30368D01*
X15018Y30736D01*
X15041Y31103D01*
X15072Y31470D01*
X15113Y31836D01*
X15162Y32201D01*
X15221Y32564D01*
X15288Y32926D01*
X15364Y33287D01*
X15450Y33645D01*
X15543Y34001D01*
X15646Y34354D01*
X15757Y34705D01*
X15877Y35053D01*
X16005Y35398D01*
X16142Y35740D01*
X16287Y36079D01*
X16440Y36413D01*
X16602Y36744D01*
X16771Y37071D01*
X16949Y37393D01*
X17134Y37712D01*
X17327Y38025D01*
X17528Y38334D01*
X17736Y38637D01*
X17952Y38935D01*
X18175Y39228D01*
X18405Y39516D01*
X18642Y39798D01*
X18886Y40073D01*
X19136Y40343D01*
X19393Y40607D01*
X19657Y40864D01*
X19927Y41114D01*
X20202Y41358D01*
X20484Y41595D01*
X20772Y41825D01*
X21065Y42048D01*
X21363Y42264D01*
X21666Y42472D01*
X21975Y42673D01*
X22288Y42866D01*
X22607Y43051D01*
X22929Y43229D01*
X23256Y43398D01*
X23587Y43560D01*
X23921Y43713D01*
X24260Y43858D01*
X24602Y43995D01*
X24947Y44123D01*
X25295Y44243D01*
X25646Y44354D01*
X25999Y44457D01*
X26355Y44550D01*
X26713Y44636D01*
X27074Y44712D01*
X27436Y44779D01*
X27799Y44838D01*
X28164Y44887D01*
X28530Y44928D01*
X28897Y44959D01*
X29264Y44982D01*
X29632Y44995D01*
X30000Y45000D01*
X30368Y44995D01*
X30736Y44982D01*
X31103Y44959D01*
X31470Y44928D01*
X31836Y44887D01*
X32201Y44838D01*
X32564Y44779D01*
X32926Y44712D01*
X33287Y44636D01*
X33645Y44550D01*
X34001Y44457D01*
X34354Y44354D01*
X34705Y44243D01*
X35053Y44123D01*
X35398Y43995D01*
X35740Y43858D01*
X36079Y43713D01*
X36413Y43560D01*
X36744Y43398D01*
X37071Y43229D01*
X37393Y43051D01*
X37712Y42866D01*
X38025Y42673D01*
X38334Y42472D01*
X38637Y42264D01*
X38935Y42048D01*
X39228Y41825D01*
X39516Y41595D01*
X39798Y41358D01*
X40073Y41114D01*
X40343Y40864D01*
X40607Y40607D01*
X40864Y40343D01*
X41114Y40073D01*
X41358Y39798D01*
X41595Y39516D01*
X41825Y39228D01*
X42048Y38935D01*
X42264Y38637D01*
X42472Y38334D01*
X42673Y38025D01*
X42866Y37712D01*
X43051Y37393D01*
X43229Y37071D01*
X43398Y36744D01*
X43560Y36413D01*
X43713Y36079D01*
X43858Y35740D01*
X43995Y35398D01*
X44123Y35053D01*
X44243Y34705D01*
X44354Y34354D01*
X44457Y34001D01*
X44550Y33645D01*
X44636Y33287D01*
X44712Y32926D01*
X44779Y32564D01*
X44838Y32201D01*
X44887Y31836D01*
X44928Y31470D01*
X44959Y31103D01*
X44982Y30736D01*
X44995Y30368D01*
X45000Y30000D01*
X44995Y29632D01*
X44982Y29264D01*
X44959Y28897D01*
X44928Y28530D01*
X44887Y28164D01*
X44838Y27799D01*
X44779Y27436D01*
X44712Y27074D01*
X44636Y26713D01*
X44550Y26355D01*
X44457Y25999D01*
X44354Y25646D01*
X44243Y25295D01*
X44123Y24947D01*
X43995Y24602D01*
X43858Y24260D01*
X43713Y23921D01*
X43560Y23587D01*
X43398Y23256D01*
X43229Y22929D01*
X43051Y22607D01*
X42866Y22288D01*
X42673Y21975D01*
X42472Y21666D01*
X42264Y21363D01*
X42048Y21065D01*
X41825Y20772D01*
X41595Y20484D01*
X41358Y20202D01*
X41114Y19927D01*
X40864Y19657D01*
X40607Y19393D01*
X40343Y19136D01*
X40073Y18886D01*
X39798Y18642D01*
X39516Y18405D01*
X39228Y18175D01*
X38935Y17952D01*
X38637Y17736D01*
X38334Y17528D01*
X38025Y17327D01*
X37712Y17134D01*
X37393Y16949D01*
X37071Y16771D01*
X36744Y16602D01*
X36413Y16440D01*
X36079Y16287D01*
X35740Y16142D01*
X35398Y16005D01*
X35053Y15877D01*
X34705Y15757D01*
X34354Y15646D01*
X34001Y15543D01*
X33645Y15450D01*
X33287Y15364D01*
X32926Y15288D01*
X32564Y15221D01*
X32201Y15162D01*
X31836Y15113D01*
X31470Y15072D01*
X31103Y15041D01*
X30736Y15018D01*
X30368Y15005D01*
X30000Y15000D01*
X29632Y15005D01*
X29264Y15018D01*
X28897Y15041D01*
X28530Y15072D01*
X28164Y15113D01*
X27799Y15162D01*
X27436Y15221D01*
X27074Y15288D01*
X26713Y15364D01*
X26355Y15450D01*
X25999Y15543D01*
X25646Y15646D01*
X25295Y15757D01*
X24947Y15877D01*
X24602Y16005D01*
X24260Y16142D01*
X23921Y16287D01*
X23587Y16440D01*
X23256Y16602D01*
X22929Y16771D01*
X22607Y16949D01*
X22288Y17134D01*
X21975Y17327D01*
X21666Y17528D01*
X21363Y17736D01*
X21065Y17952D01*
X20772Y18175D01*
X20484Y18405D01*
X20202Y18642D01*
X19927Y18886D01*
X19657Y19136D01*
X19393Y19393D01*
X19136Y19657D01*
X18886Y19927D01*
X18642Y20202D01*
X18405Y20484D01*
X18175Y20772D01*
X17952Y21065D01*
X17736Y21363D01*
X17528Y21666D01*
X17327Y21975D01*
X17134Y22288D01*
X16949Y22607D01*
X16771Y22929D01*
X16602Y23256D01*
X16440Y23587D01*
X16287Y23921D01*
X16142Y24260D01*
X16005Y24602D01*
X15877Y24947D01*
X15757Y25295D01*
X15646Y25646D01*
X15543Y25999D01*
X15450Y26355D01*
X15364Y26713D01*
X15288Y27074D01*
X15221Y27436D01*
X15162Y27799D01*
X15113Y28164D01*
X15072Y28530D01*
X15041Y28897D01*
X15018Y29264D01*
X15005Y29632D01*
X15000Y30000D01*
X1105000Y30000D02*
X1105005Y30368D01*
X1105018Y30736D01*
X1105041Y31103D01*
X1105072Y31470D01*
X1105113Y31836D01*
X1105162Y32201D01*
X1105221Y32564D01*
X1105288Y32926D01*
X1105364Y33287D01*
X1105450Y33645D01*
X1105543Y34001D01*
X1105646Y34354D01*
X1105757Y34705D01*
X1105877Y35053D01*
X1106005Y35398D01*
X1106142Y35740D01*
X1106287Y36079D01*
X1106440Y36413D01*
X1106602Y36744D01*
X1106771Y37071D01*
X1106949Y37393D01*
X1107134Y37712D01*
X1107327Y38025D01*
X1107528Y38334D01*
X1107736Y38637D01*
X1107952Y38935D01*
X1108175Y39228D01*
X1108405Y39516D01*
X1108642Y39798D01*
X1108886Y40073D01*
X1109136Y40343D01*
X1109393Y40607D01*
X1109657Y40864D01*
X1109927Y41114D01*
X1110202Y41358D01*
X1110484Y41595D01*
X1110772Y41825D01*
X1111065Y42048D01*
X1111363Y42264D01*
X1111666Y42472D01*
X1111975Y42673D01*
X1112288Y42866D01*
X1112607Y43051D01*
X1112929Y43229D01*
X1113256Y43398D01*
X1113587Y43560D01*
X1113921Y43713D01*
X1114260Y43858D01*
X1114602Y43995D01*
X1114947Y44123D01*
X1115295Y44243D01*
X1115646Y44354D01*
X1115999Y44457D01*
X1116355Y44550D01*
X1116713Y44636D01*
X1117074Y44712D01*
X1117436Y44779D01*
X1117799Y44838D01*
X1118164Y44887D01*
X1118530Y44928D01*
X1118897Y44959D01*
X1119264Y44982D01*
X1119632Y44995D01*
X1120000Y45000D01*
X1120368Y44995D01*
X1120736Y44982D01*
X1121103Y44959D01*
X1121470Y44928D01*
X1121836Y44887D01*
X1122201Y44838D01*
X1122564Y44779D01*
X1122926Y44712D01*
X1123287Y44636D01*
X1123645Y44550D01*
X1124001Y44457D01*
X1124354Y44354D01*
X1124705Y44243D01*
X1125053Y44123D01*
X1125398Y43995D01*
X1125740Y43858D01*
X1126079Y43713D01*
X1126413Y43560D01*
X1126744Y43398D01*
X1127071Y43229D01*
X1127393Y43051D01*
X1127712Y42866D01*
X1128025Y42673D01*
X1128334Y42472D01*
X1128637Y42264D01*
X1128935Y42048D01*
X1129228Y41825D01*
X1129516Y41595D01*
X1129798Y41358D01*
X1130073Y41114D01*
X1130343Y40864D01*
X1130607Y40607D01*
X1130864Y40343D01*
X1131114Y40073D01*
X1131358Y39798D01*
X1131595Y39516D01*
X1131825Y39228D01*
X1132048Y38935D01*
X1132264Y38637D01*
X1132472Y38334D01*
X1132673Y38025D01*
X1132866Y37712D01*
X1133051Y37393D01*
X1133229Y37071D01*
X1133398Y36744D01*
X1133560Y36413D01*
X1133713Y36079D01*
X1133858Y35740D01*
X1133995Y35398D01*
X1134123Y35053D01*
X1134243Y34705D01*
X1134354Y34354D01*
X1134457Y34001D01*
X1134550Y33645D01*
X1134636Y33287D01*
X1134712Y32926D01*
X1134779Y32564D01*
X1134838Y32201D01*
X1134887Y31836D01*
X1134928Y31470D01*
X1134959Y31103D01*
X1134982Y30736D01*
X1134995Y30368D01*
X1135000Y30000D01*
X1134995Y29632D01*
X1134982Y29264D01*
X1134959Y28897D01*
X1134928Y28530D01*
X1134887Y28164D01*
X1134838Y27799D01*
X1134779Y27436D01*
X1134712Y27074D01*
X1134636Y26713D01*
X1134550Y26355D01*
X1134457Y25999D01*
X1134354Y25646D01*
X1134243Y25295D01*
X1134123Y24947D01*
X1133995Y24602D01*
X1133858Y24260D01*
X1133713Y23921D01*
X1133560Y23587D01*
X1133398Y23256D01*
X1133229Y22929D01*
X1133051Y22607D01*
X1132866Y22288D01*
X1132673Y21975D01*
X1132472Y21666D01*
X1132264Y21363D01*
X1132048Y21065D01*
X1131825Y20772D01*
X1131595Y20484D01*
X1131358Y20202D01*
X1131114Y19927D01*
X1130864Y19657D01*
X1130607Y19393D01*
X1130343Y19136D01*
X1130073Y18886D01*
X1129798Y18642D01*
X1129516Y18405D01*
X1129228Y18175D01*
X1128935Y17952D01*
X1128637Y17736D01*
X1128334Y17528D01*
X1128025Y17327D01*
X1127712Y17134D01*
X1127393Y16949D01*
X1127071Y16771D01*
X1126744Y16602D01*
X1126413Y16440D01*
X1126079Y16287D01*
X1125740Y16142D01*
X1125398Y16005D01*
X1125053Y15877D01*
X1124705Y15757D01*
X1124354Y15646D01*
X1124001Y15543D01*
X1123645Y15450D01*
X1123287Y15364D01*
X1122926Y15288D01*
X1122564Y15221D01*
X1122201Y15162D01*
X1121836Y15113D01*
X1121470Y15072D01*
X1121103Y15041D01*
X1120736Y15018D01*
X1120368Y15005D01*
X1120000Y15000D01*
X1119632Y15005D01*
X1119264Y15018D01*
X1118897Y15041D01*
X1118530Y15072D01*
X1118164Y15113D01*
X1117799Y15162D01*
X1117436Y15221D01*
X1117074Y15288D01*
X1116713Y15364D01*
X1116355Y15450D01*
X1115999Y15543D01*
X1115646Y15646D01*
X1115295Y15757D01*
X1114947Y15877D01*
X1114602Y16005D01*
X1114260Y16142D01*
X1113921Y16287D01*
X1113587Y16440D01*
X1113256Y16602D01*
X1112929Y16771D01*
X1112607Y16949D01*
X1112288Y17134D01*
X1111975Y17327D01*
X1111666Y17528D01*
X1111363Y17736D01*
X1111065Y17952D01*
X1110772Y18175D01*
X1110484Y18405D01*
X1110202Y18642D01*
X1109927Y18886D01*
X1109657Y19136D01*
X1109393Y19393D01*
X1109136Y19657D01*
X1108886Y19927D01*
X1108642Y20202D01*
X1108405Y20484D01*
X1108175Y20772D01*
X1107952Y21065D01*
X1107736Y21363D01*
X1107528Y21666D01*
X1107327Y21975D01*
X1107134Y22288D01*
X1106949Y22607D01*
X1106771Y22929D01*
X1106602Y23256D01*
X1106440Y23587D01*
X1106287Y23921D01*
X1106142Y24260D01*
X1106005Y24602D01*
X1105877Y24947D01*
X1105757Y25295D01*
X1105646Y25646D01*
X1105543Y25999D01*
X1105450Y26355D01*
X1105364Y26713D01*
X1105288Y27074D01*
X1105221Y27436D01*
X1105162Y27799D01*
X1105113Y28164D01*
X1105072Y28530D01*
X1105041Y28897D01*
X1105018Y29264D01*
X1105005Y29632D01*
X1105000Y30000D01*
X1105000Y1320000D02*
X1105005Y1320368D01*
X1105018Y1320736D01*
X1105041Y1321103D01*
X1105072Y1321470D01*
X1105113Y1321836D01*
X1105162Y1322201D01*
X1105221Y1322564D01*
X1105288Y1322926D01*
X1105364Y1323287D01*
X1105450Y1323645D01*
X1105543Y1324001D01*
X1105646Y1324354D01*
X1105757Y1324705D01*
X1105877Y1325053D01*
X1106005Y1325398D01*
X1106142Y1325740D01*
X1106287Y1326079D01*
X1106440Y1326413D01*
X1106602Y1326744D01*
X1106771Y1327071D01*
X1106949Y1327393D01*
X1107134Y1327712D01*
X1107327Y1328025D01*
X1107528Y1328334D01*
X1107736Y1328637D01*
X1107952Y1328935D01*
X1108175Y1329228D01*
X1108405Y1329516D01*
X1108642Y1329798D01*
X1108886Y1330073D01*
X1109136Y1330343D01*
X1109393Y1330607D01*
X1109657Y1330864D01*
X1109927Y1331114D01*
X1110202Y1331358D01*
X1110484Y1331595D01*
X1110772Y1331825D01*
X1111065Y1332048D01*
X1111363Y1332264D01*
X1111666Y1332472D01*
X1111975Y1332673D01*
X1112288Y1332866D01*
X1112607Y1333051D01*
X1112929Y1333229D01*
X1113256Y1333398D01*
X1113587Y1333560D01*
X1113921Y1333713D01*
X1114260Y1333858D01*
X1114602Y1333995D01*
X1114947Y1334123D01*
X1115295Y1334243D01*
X1115646Y1334354D01*
X1115999Y1334457D01*
X1116355Y1334550D01*
X1116713Y1334636D01*
X1117074Y1334712D01*
X1117436Y1334779D01*
X1117799Y1334838D01*
X1118164Y1334887D01*
X1118530Y1334928D01*
X1118897Y1334959D01*
X1119264Y1334982D01*
X1119632Y1334995D01*
X1120000Y1335000D01*
X1120368Y1334995D01*
X1120736Y1334982D01*
X1121103Y1334959D01*
X1121470Y1334928D01*
X1121836Y1334887D01*
X1122201Y1334838D01*
X1122564Y1334779D01*
X1122926Y1334712D01*
X1123287Y1334636D01*
X1123645Y1334550D01*
X1124001Y1334457D01*
X1124354Y1334354D01*
X1124705Y1334243D01*
X1125053Y1334123D01*
X1125398Y1333995D01*
X1125740Y1333858D01*
X1126079Y1333713D01*
X1126413Y1333560D01*
X1126744Y1333398D01*
X1127071Y1333229D01*
X1127393Y1333051D01*
X1127712Y1332866D01*
X1128025Y1332673D01*
X1128334Y1332472D01*
X1128637Y1332264D01*
X1128935Y1332048D01*
X1129228Y1331825D01*
X1129516Y1331595D01*
X1129798Y1331358D01*
X1130073Y1331114D01*
X1130343Y1330864D01*
X1130607Y1330607D01*
X1130864Y1330343D01*
X1131114Y1330073D01*
X1131358Y1329798D01*
X1131595Y1329516D01*
X1131825Y1329228D01*
X1132048Y1328935D01*
X1132264Y1328637D01*
X1132472Y1328334D01*
X1132673Y1328025D01*
X1132866Y1327712D01*
X1133051Y1327393D01*
X1133229Y1327071D01*
X1133398Y1326744D01*
X1133560Y1326413D01*
X1133713Y1326079D01*
X1133858Y1325740D01*
X1133995Y1325398D01*
X1134123Y1325053D01*
X1134243Y1324705D01*
X1134354Y1324354D01*
X1134457Y1324001D01*
X1134550Y1323645D01*
X1134636Y1323287D01*
X1134712Y1322926D01*
X1134779Y1322564D01*
X1134838Y1322201D01*
X1134887Y1321836D01*
X1134928Y1321470D01*
X1134959Y1321103D01*
X1134982Y1320736D01*
X1134995Y1320368D01*
X1135000Y1320000D01*
X1134995Y1319632D01*
X1134982Y1319264D01*
X1134959Y1318897D01*
X1134928Y1318530D01*
X1134887Y1318164D01*
X1134838Y1317799D01*
X1134779Y1317436D01*
X1134712Y1317074D01*
X1134636Y1316713D01*
X1134550Y1316355D01*
X1134457Y1315999D01*
X1134354Y1315646D01*
X1134243Y1315295D01*
X1134123Y1314947D01*
X1133995Y1314602D01*
X1133858Y1314260D01*
X1133713Y1313921D01*
X1133560Y1313587D01*
X1133398Y1313256D01*
X1133229Y1312929D01*
X1133051Y1312607D01*
X1132866Y1312288D01*
X1132673Y1311975D01*
X1132472Y1311666D01*
X1132264Y1311363D01*
X1132048Y1311065D01*
X1131825Y1310772D01*
X1131595Y1310484D01*
X1131358Y1310202D01*
X1131114Y1309927D01*
X1130864Y1309657D01*
X1130607Y1309393D01*
X1130343Y1309136D01*
X1130073Y1308886D01*
X1129798Y1308642D01*
X1129516Y1308405D01*
X1129228Y1308175D01*
X1128935Y1307952D01*
X1128637Y1307736D01*
X1128334Y1307528D01*
X1128025Y1307327D01*
X1127712Y1307134D01*
X1127393Y1306949D01*
X1127071Y1306771D01*
X1126744Y1306602D01*
X1126413Y1306440D01*
X1126079Y1306287D01*
X1125740Y1306142D01*
X1125398Y1306005D01*
X1125053Y1305877D01*
X1124705Y1305757D01*
X1124354Y1305646D01*
X1124001Y1305543D01*
X1123645Y1305450D01*
X1123287Y1305364D01*
X1122926Y1305288D01*
X1122564Y1305221D01*
X1122201Y1305162D01*
X1121836Y1305113D01*
X1121470Y1305072D01*
X1121103Y1305041D01*
X1120736Y1305018D01*
X1120368Y1305005D01*
X1120000Y1305000D01*
X1119632Y1305005D01*
X1119264Y1305018D01*
X1118897Y1305041D01*
X1118530Y1305072D01*
X1118164Y1305113D01*
X1117799Y1305162D01*
X1117436Y1305221D01*
X1117074Y1305288D01*
X1116713Y1305364D01*
X1116355Y1305450D01*
X1115999Y1305543D01*
X1115646Y1305646D01*
X1115295Y1305757D01*
X1114947Y1305877D01*
X1114602Y1306005D01*
X1114260Y1306142D01*
X1113921Y1306287D01*
X1113587Y1306440D01*
X1113256Y1306602D01*
X1112929Y1306771D01*
X1112607Y1306949D01*
X1112288Y1307134D01*
X1111975Y1307327D01*
X1111666Y1307528D01*
X1111363Y1307736D01*
X1111065Y1307952D01*
X1110772Y1308175D01*
X1110484Y1308405D01*
X1110202Y1308642D01*
X1109927Y1308886D01*
X1109657Y1309136D01*
X1109393Y1309393D01*
X1109136Y1309657D01*
X1108886Y1309927D01*
X1108642Y1310202D01*
X1108405Y1310484D01*
X1108175Y1310772D01*
X1107952Y1311065D01*
X1107736Y1311363D01*
X1107528Y1311666D01*
X1107327Y1311975D01*
X1107134Y1312288D01*
X1106949Y1312607D01*
X1106771Y1312929D01*
X1106602Y1313256D01*
X1106440Y1313587D01*
X1106287Y1313921D01*
X1106142Y1314260D01*
X1106005Y1314602D01*
X1105877Y1314947D01*
X1105757Y1315295D01*
X1105646Y1315646D01*
X1105543Y1315999D01*
X1105450Y1316355D01*
X1105364Y1316713D01*
X1105288Y1317074D01*
X1105221Y1317436D01*
X1105162Y1317799D01*
X1105113Y1318164D01*
X1105072Y1318530D01*
X1105041Y1318897D01*
X1105018Y1319264D01*
X1105005Y1319632D01*
X1105000Y1320000D01*
X15000Y1320000D02*
X15005Y1320368D01*
X15018Y1320736D01*
X15041Y1321103D01*
X15072Y1321470D01*
X15113Y1321836D01*
X15162Y1322201D01*
X15221Y1322564D01*
X15288Y1322926D01*
X15364Y1323287D01*
X15450Y1323645D01*
X15543Y1324001D01*
X15646Y1324354D01*
X15757Y1324705D01*
X15877Y1325053D01*
X16005Y1325398D01*
X16142Y1325740D01*
X16287Y1326079D01*
X16440Y1326413D01*
X16602Y1326744D01*
X16771Y1327071D01*
X16949Y1327393D01*
X17134Y1327712D01*
X17327Y1328025D01*
X17528Y1328334D01*
X17736Y1328637D01*
X17952Y1328935D01*
X18175Y1329228D01*
X18405Y1329516D01*
X18642Y1329798D01*
X18886Y1330073D01*
X19136Y1330343D01*
X19393Y1330607D01*
X19657Y1330864D01*
X19927Y1331114D01*
X20202Y1331358D01*
X20484Y1331595D01*
X20772Y1331825D01*
X21065Y1332048D01*
X21363Y1332264D01*
X21666Y1332472D01*
X21975Y1332673D01*
X22288Y1332866D01*
X22607Y1333051D01*
X22929Y1333229D01*
X23256Y1333398D01*
X23587Y1333560D01*
X23921Y1333713D01*
X24260Y1333858D01*
X24602Y1333995D01*
X24947Y1334123D01*
X25295Y1334243D01*
X25646Y1334354D01*
X25999Y1334457D01*
X26355Y1334550D01*
X26713Y1334636D01*
X27074Y1334712D01*
X27436Y1334779D01*
X27799Y1334838D01*
X28164Y1334887D01*
X28530Y1334928D01*
X28897Y1334959D01*
X29264Y1334982D01*
X29632Y1334995D01*
X30000Y1335000D01*
X30368Y1334995D01*
X30736Y1334982D01*
X31103Y1334959D01*
X31470Y1334928D01*
X31836Y1334887D01*
X32201Y1334838D01*
X32564Y1334779D01*
X32926Y1334712D01*
X33287Y1334636D01*
X33645Y1334550D01*
X34001Y1334457D01*
X34354Y1334354D01*
X34705Y1334243D01*
X35053Y1334123D01*
X35398Y1333995D01*
X35740Y1333858D01*
X36079Y1333713D01*
X36413Y1333560D01*
X36744Y1333398D01*
X37071Y1333229D01*
X37393Y1333051D01*
X37712Y1332866D01*
X38025Y1332673D01*
X38334Y1332472D01*
X38637Y1332264D01*
X38935Y1332048D01*
X39228Y1331825D01*
X39516Y1331595D01*
X39798Y1331358D01*
X40073Y1331114D01*
X40343Y1330864D01*
X40607Y1330607D01*
X40864Y1330343D01*
X41114Y1330073D01*
X41358Y1329798D01*
X41595Y1329516D01*
X41825Y1329228D01*
X42048Y1328935D01*
X42264Y1328637D01*
X42472Y1328334D01*
X42673Y1328025D01*
X42866Y1327712D01*
X43051Y1327393D01*
X43229Y1327071D01*
X43398Y1326744D01*
X43560Y1326413D01*
X43713Y1326079D01*
X43858Y1325740D01*
X43995Y1325398D01*
X44123Y1325053D01*
X44243Y1324705D01*
X44354Y1324354D01*
X44457Y1324001D01*
X44550Y1323645D01*
X44636Y1323287D01*
X44712Y1322926D01*
X44779Y1322564D01*
X44838Y1322201D01*
X44887Y1321836D01*
X44928Y1321470D01*
X44959Y1321103D01*
X44982Y1320736D01*
X44995Y1320368D01*
X45000Y1320000D01*
X44995Y1319632D01*
X44982Y1319264D01*
X44959Y1318897D01*
X44928Y1318530D01*
X44887Y1318164D01*
X44838Y1317799D01*
X44779Y1317436D01*
X44712Y1317074D01*
X44636Y1316713D01*
X44550Y1316355D01*
X44457Y1315999D01*
X44354Y1315646D01*
X44243Y1315295D01*
X44123Y1314947D01*
X43995Y1314602D01*
X43858Y1314260D01*
X43713Y1313921D01*
X43560Y1313587D01*
X43398Y1313256D01*
X43229Y1312929D01*
X43051Y1312607D01*
X42866Y1312288D01*
X42673Y1311975D01*
X42472Y1311666D01*
X42264Y1311363D01*
X42048Y1311065D01*
X41825Y1310772D01*
X41595Y1310484D01*
X41358Y1310202D01*
X41114Y1309927D01*
X40864Y1309657D01*
X40607Y1309393D01*
X40343Y1309136D01*
X40073Y1308886D01*
X39798Y1308642D01*
X39516Y1308405D01*
X39228Y1308175D01*
X38935Y1307952D01*
X38637Y1307736D01*
X38334Y1307528D01*
X38025Y1307327D01*
X37712Y1307134D01*
X37393Y1306949D01*
X37071Y1306771D01*
X36744Y1306602D01*
X36413Y1306440D01*
X36079Y1306287D01*
X35740Y1306142D01*
X35398Y1306005D01*
X35053Y1305877D01*
X34705Y1305757D01*
X34354Y1305646D01*
X34001Y1305543D01*
X33645Y1305450D01*
X33287Y1305364D01*
X32926Y1305288D01*
X32564Y1305221D01*
X32201Y1305162D01*
X31836Y1305113D01*
X31470Y1305072D01*
X31103Y1305041D01*
X30736Y1305018D01*
X30368Y1305005D01*
X30000Y1305000D01*
X29632Y1305005D01*
X29264Y1305018D01*
X28897Y1305041D01*
X28530Y1305072D01*
X28164Y1305113D01*
X27799Y1305162D01*
X27436Y1305221D01*
X27074Y1305288D01*
X26713Y1305364D01*
X26355Y1305450D01*
X25999Y1305543D01*
X25646Y1305646D01*
X25295Y1305757D01*
X24947Y1305877D01*
X24602Y1306005D01*
X24260Y1306142D01*
X23921Y1306287D01*
X23587Y1306440D01*
X23256Y1306602D01*
X22929Y1306771D01*
X22607Y1306949D01*
X22288Y1307134D01*
X21975Y1307327D01*
X21666Y1307528D01*
X21363Y1307736D01*
X21065Y1307952D01*
X20772Y1308175D01*
X20484Y1308405D01*
X20202Y1308642D01*
X19927Y1308886D01*
X19657Y1309136D01*
X19393Y1309393D01*
X19136Y1309657D01*
X18886Y1309927D01*
X18642Y1310202D01*
X18405Y1310484D01*
X18175Y1310772D01*
X17952Y1311065D01*
X17736Y1311363D01*
X17528Y1311666D01*
X17327Y1311975D01*
X17134Y1312288D01*
X16949Y1312607D01*
X16771Y1312929D01*
X16602Y1313256D01*
X16440Y1313587D01*
X16287Y1313921D01*
X16142Y1314260D01*
X16005Y1314602D01*
X15877Y1314947D01*
X15757Y1315295D01*
X15646Y1315646D01*
X15543Y1315999D01*
X15450Y1316355D01*
X15364Y1316713D01*
X15288Y1317074D01*
X15221Y1317436D01*
X15162Y1317799D01*
X15113Y1318164D01*
X15072Y1318530D01*
X15041Y1318897D01*
X15018Y1319264D01*
X15005Y1319632D01*
X15000Y1320000D01*
X0Y1350000D02*
X0Y0D01*
X0Y1350000D02*
X1150000Y1350000D01*
X1150000Y0D01*
X0Y0D01*
D11*
X0Y0D02*
X1150000Y0D01*
X1150000Y1350000D01*
X0Y1350000D01*
X0Y0D01*
X45000Y29464D02*
X44924Y28396D01*
X44771Y27335D01*
X44543Y26288D01*
X44241Y25260D01*
X43867Y24256D01*
X43422Y23281D01*
X42908Y22341D01*
X42329Y21440D01*
X41687Y20582D01*
X40985Y19772D01*
X40228Y19015D01*
X39418Y18313D01*
X38560Y17671D01*
X37659Y17092D01*
X36719Y16578D01*
X35744Y16133D01*
X34740Y15759D01*
X33712Y15457D01*
X32665Y15229D01*
X31604Y15076D01*
X30536Y15000D01*
X29464Y15000D01*
X28396Y15076D01*
X27335Y15229D01*
X26288Y15457D01*
X25260Y15759D01*
X24256Y16133D01*
X23281Y16578D01*
X22341Y17092D01*
X21440Y17671D01*
X20582Y18313D01*
X19772Y19015D01*
X19015Y19772D01*
X18313Y20582D01*
X17671Y21440D01*
X17092Y22341D01*
X16578Y23281D01*
X16133Y24256D01*
X15759Y25260D01*
X15457Y26288D01*
X15229Y27335D01*
X15076Y28396D01*
X15000Y29464D01*
X15000Y30536D01*
X15076Y31604D01*
X15229Y32665D01*
X15457Y33712D01*
X15759Y34740D01*
X16133Y35744D01*
X16578Y36719D01*
X17092Y37659D01*
X17671Y38560D01*
X18313Y39418D01*
X19015Y40228D01*
X19772Y40985D01*
X20582Y41687D01*
X21440Y42329D01*
X22341Y42908D01*
X23281Y43422D01*
X24256Y43867D01*
X25260Y44241D01*
X26288Y44543D01*
X27335Y44771D01*
X28396Y44924D01*
X29464Y45000D01*
X30536Y45000D01*
X31604Y44924D01*
X32665Y44771D01*
X33712Y44543D01*
X34740Y44241D01*
X35744Y43867D01*
X36719Y43422D01*
X37659Y42908D01*
X38560Y42329D01*
X39418Y41687D01*
X40228Y40985D01*
X40985Y40228D01*
X41687Y39418D01*
X42329Y38560D01*
X42908Y37659D01*
X43422Y36719D01*
X43867Y35744D01*
X44241Y34740D01*
X44543Y33712D01*
X44771Y32665D01*
X44924Y31604D01*
X45000Y30536D01*
X45000Y29464D01*
X1135000Y29464D02*
X1134924Y28396D01*
X1134771Y27335D01*
X1134543Y26288D01*
X1134241Y25260D01*
X1133867Y24256D01*
X1133422Y23281D01*
X1132908Y22341D01*
X1132329Y21440D01*
X1131687Y20582D01*
X1130985Y19772D01*
X1130228Y19015D01*
X1129418Y18313D01*
X1128560Y17671D01*
X1127659Y17092D01*
X1126719Y16578D01*
X1125744Y16133D01*
X1124740Y15759D01*
X1123712Y15457D01*
X1122665Y15229D01*
X1121604Y15076D01*
X1120536Y15000D01*
X1119464Y15000D01*
X1118396Y15076D01*
X1117335Y15229D01*
X1116288Y15457D01*
X1115260Y15759D01*
X1114256Y16133D01*
X1113281Y16578D01*
X1112341Y17092D01*
X1111440Y17671D01*
X1110582Y18313D01*
X1109772Y19015D01*
X1109015Y19772D01*
X1108313Y20582D01*
X1107671Y21440D01*
X1107092Y22341D01*
X1106578Y23281D01*
X1106133Y24256D01*
X1105759Y25260D01*
X1105457Y26288D01*
X1105229Y27335D01*
X1105076Y28396D01*
X1105000Y29464D01*
X1105000Y30536D01*
X1105076Y31604D01*
X1105229Y32665D01*
X1105457Y33712D01*
X1105759Y34740D01*
X1106133Y35744D01*
X1106578Y36719D01*
X1107092Y37659D01*
X1107671Y38560D01*
X1108313Y39418D01*
X1109015Y40228D01*
X1109772Y40985D01*
X1110582Y41687D01*
X1111440Y42329D01*
X1112341Y42908D01*
X1113281Y43422D01*
X1114256Y43867D01*
X1115260Y44241D01*
X1116288Y44543D01*
X1117335Y44771D01*
X1118396Y44924D01*
X1119464Y45000D01*
X1120536Y45000D01*
X1121604Y44924D01*
X1122665Y44771D01*
X1123712Y44543D01*
X1124740Y44241D01*
X1125744Y43867D01*
X1126719Y43422D01*
X1127659Y42908D01*
X1128560Y42329D01*
X1129418Y41687D01*
X1130228Y40985D01*
X1130985Y40228D01*
X1131687Y39418D01*
X1132329Y38560D01*
X1132908Y37659D01*
X1133422Y36719D01*
X1133867Y35744D01*
X1134241Y34740D01*
X1134543Y33712D01*
X1134771Y32665D01*
X1134924Y31604D01*
X1135000Y30536D01*
X1135000Y29464D01*
X1135000Y1319464D02*
X1134924Y1318396D01*
X1134771Y1317335D01*
X1134543Y1316288D01*
X1134241Y1315260D01*
X1133867Y1314256D01*
X1133422Y1313281D01*
X1132908Y1312341D01*
X1132329Y1311440D01*
X1131687Y1310582D01*
X1130985Y1309772D01*
X1130228Y1309015D01*
X1129418Y1308313D01*
X1128560Y1307671D01*
X1127659Y1307092D01*
X1126719Y1306578D01*
X1125744Y1306133D01*
X1124740Y1305759D01*
X1123712Y1305457D01*
X1122665Y1305229D01*
X1121604Y1305076D01*
X1120536Y1305000D01*
X1119464Y1305000D01*
X1118396Y1305076D01*
X1117335Y1305229D01*
X1116288Y1305457D01*
X1115260Y1305759D01*
X1114256Y1306133D01*
X1113281Y1306578D01*
X1112341Y1307092D01*
X1111440Y1307671D01*
X1110582Y1308313D01*
X1109772Y1309015D01*
X1109015Y1309772D01*
X1108313Y1310582D01*
X1107671Y1311440D01*
X1107092Y1312341D01*
X1106578Y1313281D01*
X1106133Y1314256D01*
X1105759Y1315260D01*
X1105457Y1316288D01*
X1105229Y1317335D01*
X1105076Y1318396D01*
X1105000Y1319464D01*
X1105000Y1320536D01*
X1105076Y1321604D01*
X1105229Y1322665D01*
X1105457Y1323712D01*
X1105759Y1324740D01*
X1106133Y1325744D01*
X1106578Y1326719D01*
X1107092Y1327659D01*
X1107671Y1328560D01*
X1108313Y1329418D01*
X1109015Y1330228D01*
X1109772Y1330985D01*
X1110582Y1331687D01*
X1111440Y1332329D01*
X1112341Y1332908D01*
X1113281Y1333422D01*
X1114256Y1333867D01*
X1115260Y1334241D01*
X1116288Y1334543D01*
X1117335Y1334771D01*
X1118396Y1334924D01*
X1119464Y1335000D01*
X1120536Y1335000D01*
X1121604Y1334924D01*
X1122665Y1334771D01*
X1123712Y1334543D01*
X1124740Y1334241D01*
X1125744Y1333867D01*
X1126719Y1333422D01*
X1127659Y1332908D01*
X1128560Y1332329D01*
X1129418Y1331687D01*
X1130228Y1330985D01*
X1130985Y1330228D01*
X1131687Y1329418D01*
X1132329Y1328560D01*
X1132908Y1327659D01*
X1133422Y1326719D01*
X1133867Y1325744D01*
X1134241Y1324740D01*
X1134543Y1323712D01*
X1134771Y1322665D01*
X1134924Y1321604D01*
X1135000Y1320536D01*
X1135000Y1319464D01*
X45000Y1319464D02*
X44924Y1318396D01*
X44771Y1317335D01*
X44543Y1316288D01*
X44241Y1315260D01*
X43867Y1314256D01*
X43422Y1313281D01*
X42908Y1312341D01*
X42329Y1311440D01*
X41687Y1310582D01*
X40985Y1309772D01*
X40228Y1309015D01*
X39418Y1308313D01*
X38560Y1307671D01*
X37659Y1307092D01*
X36719Y1306578D01*
X35744Y1306133D01*
X34740Y1305759D01*
X33712Y1305457D01*
X32665Y1305229D01*
X31604Y1305076D01*
X30536Y1305000D01*
X29464Y1305000D01*
X28396Y1305076D01*
X27335Y1305229D01*
X26288Y1305457D01*
X25260Y1305759D01*
X24256Y1306133D01*
X23281Y1306578D01*
X22341Y1307092D01*
X21440Y1307671D01*
X20582Y1308313D01*
X19772Y1309015D01*
X19015Y1309772D01*
X18313Y1310582D01*
X17671Y1311440D01*
X17092Y1312341D01*
X16578Y1313281D01*
X16133Y1314256D01*
X15759Y1315260D01*
X15457Y1316288D01*
X15229Y1317335D01*
X15076Y1318396D01*
X15000Y1319464D01*
X15000Y1320536D01*
X15076Y1321604D01*
X15229Y1322665D01*
X15457Y1323712D01*
X15759Y1324740D01*
X16133Y1325744D01*
X16578Y1326719D01*
X17092Y1327659D01*
X17671Y1328560D01*
X18313Y1329418D01*
X19015Y1330228D01*
X19772Y1330985D01*
X20582Y1331687D01*
X21440Y1332329D01*
X22341Y1332908D01*
X23281Y1333422D01*
X24256Y1333867D01*
X25260Y1334241D01*
X26288Y1334543D01*
X27335Y1334771D01*
X28396Y1334924D01*
X29464Y1335000D01*
X30536Y1335000D01*
X31604Y1334924D01*
X32665Y1334771D01*
X33712Y1334543D01*
X34740Y1334241D01*
X35744Y1333867D01*
X36719Y1333422D01*
X37659Y1332908D01*
X38560Y1332329D01*
X39418Y1331687D01*
X40228Y1330985D01*
X40985Y1330228D01*
X41687Y1329418D01*
X42329Y1328560D01*
X42908Y1327659D01*
X43422Y1326719D01*
X43867Y1325744D01*
X44241Y1324740D01*
X44543Y1323712D01*
X44771Y1322665D01*
X44924Y1321604D01*
X45000Y1320536D01*
X45000Y1319464D01*
M02*
