G04 EAGLE Gerber RS-274X export*
G75*
%MOMM*%
%FSLAX34Y34*%
%LPD*%
%INSoldermask Top*%
%IPPOS*%
%AMOC8*
5,1,8,0,0,1.08239X$1,22.5*%
G01*
%ADD10C,3.203200*%
%ADD11R,1.703200X1.503200*%
%ADD12R,2.298700X2.298700*%
%ADD13C,2.298700*%
%ADD14R,1.219200X1.219200*%
%ADD15C,1.219200*%
%ADD16C,2.203200*%
%ADD17R,0.863600X1.244600*%
%ADD18C,0.959600*%


D10*
X30000Y30000D03*
X1120000Y30000D03*
X1120000Y1320000D03*
X30000Y1320000D03*
D11*
X155100Y958500D03*
X155100Y939500D03*
X155100Y985500D03*
X155100Y1004500D03*
D12*
X197000Y814000D03*
D13*
X155000Y814000D03*
X113000Y814000D03*
X71000Y814000D03*
X197000Y869000D03*
X155000Y869000D03*
X113000Y869000D03*
X71000Y869000D03*
D11*
X113000Y985500D03*
X113000Y1004500D03*
X113000Y958500D03*
X113000Y939500D03*
X71000Y985500D03*
X71000Y1004500D03*
X71000Y958500D03*
X71000Y939500D03*
X197000Y985500D03*
X197000Y1004500D03*
X197000Y958500D03*
X197000Y939500D03*
X156100Y1218500D03*
X156100Y1199500D03*
X156100Y1245500D03*
X156100Y1264500D03*
D12*
X198000Y1074000D03*
D13*
X156000Y1074000D03*
X114000Y1074000D03*
X72000Y1074000D03*
X198000Y1129000D03*
X156000Y1129000D03*
X114000Y1129000D03*
X72000Y1129000D03*
D11*
X114000Y1245500D03*
X114000Y1264500D03*
X114000Y1218500D03*
X114000Y1199500D03*
X72000Y1245500D03*
X72000Y1264500D03*
X72000Y1218500D03*
X72000Y1199500D03*
X198000Y1245500D03*
X198000Y1264500D03*
X198000Y1218500D03*
X198000Y1199500D03*
X368100Y961500D03*
X368100Y942500D03*
X368100Y988500D03*
X368100Y1007500D03*
D12*
X410000Y817000D03*
D13*
X368000Y817000D03*
X326000Y817000D03*
X284000Y817000D03*
X410000Y872000D03*
X368000Y872000D03*
X326000Y872000D03*
X284000Y872000D03*
D11*
X326000Y988500D03*
X326000Y1007500D03*
X326000Y961500D03*
X326000Y942500D03*
X284000Y988500D03*
X284000Y1007500D03*
X284000Y961500D03*
X284000Y942500D03*
X410000Y988500D03*
X410000Y1007500D03*
X410000Y961500D03*
X410000Y942500D03*
X377100Y1218500D03*
X377100Y1199500D03*
X377100Y1245500D03*
X377100Y1264500D03*
D12*
X419000Y1074000D03*
D13*
X377000Y1074000D03*
X335000Y1074000D03*
X293000Y1074000D03*
X419000Y1129000D03*
X377000Y1129000D03*
X335000Y1129000D03*
X293000Y1129000D03*
D11*
X335000Y1245500D03*
X335000Y1264500D03*
X335000Y1218500D03*
X335000Y1199500D03*
X293000Y1245500D03*
X293000Y1264500D03*
X293000Y1218500D03*
X293000Y1199500D03*
X419000Y1245500D03*
X419000Y1264500D03*
X419000Y1218500D03*
X419000Y1199500D03*
X598100Y961500D03*
X598100Y942500D03*
X598100Y988500D03*
X598100Y1007500D03*
D12*
X640000Y817000D03*
D13*
X598000Y817000D03*
X556000Y817000D03*
X514000Y817000D03*
X640000Y872000D03*
X598000Y872000D03*
X556000Y872000D03*
X514000Y872000D03*
D11*
X556000Y988500D03*
X556000Y1007500D03*
X556000Y961500D03*
X556000Y942500D03*
X514000Y988500D03*
X514000Y1007500D03*
X514000Y961500D03*
X514000Y942500D03*
X640000Y988500D03*
X640000Y1007500D03*
X640000Y961500D03*
X640000Y942500D03*
X599100Y1220500D03*
X599100Y1201500D03*
X599100Y1247500D03*
X599100Y1266500D03*
D12*
X641000Y1076000D03*
D13*
X599000Y1076000D03*
X557000Y1076000D03*
X515000Y1076000D03*
X641000Y1131000D03*
X599000Y1131000D03*
X557000Y1131000D03*
X515000Y1131000D03*
D11*
X557000Y1247500D03*
X557000Y1266500D03*
X557000Y1220500D03*
X557000Y1201500D03*
X515000Y1247500D03*
X515000Y1266500D03*
X515000Y1220500D03*
X515000Y1201500D03*
X641000Y1247500D03*
X641000Y1266500D03*
X641000Y1220500D03*
X641000Y1201500D03*
X446100Y683500D03*
X446100Y664500D03*
X446100Y710500D03*
X446100Y729500D03*
D12*
X488000Y539000D03*
D13*
X446000Y539000D03*
X404000Y539000D03*
X362000Y539000D03*
X488000Y594000D03*
X446000Y594000D03*
X404000Y594000D03*
X362000Y594000D03*
D11*
X404000Y710500D03*
X404000Y729500D03*
X404000Y683500D03*
X404000Y664500D03*
X362000Y710500D03*
X362000Y729500D03*
X362000Y683500D03*
X362000Y664500D03*
X488000Y710500D03*
X488000Y729500D03*
X488000Y683500D03*
X488000Y664500D03*
X225100Y682500D03*
X225100Y663500D03*
X225100Y709500D03*
X225100Y728500D03*
D12*
X267000Y538000D03*
D13*
X225000Y538000D03*
X183000Y538000D03*
X141000Y538000D03*
X267000Y593000D03*
X225000Y593000D03*
X183000Y593000D03*
X141000Y593000D03*
D11*
X183000Y709500D03*
X183000Y728500D03*
X183000Y682500D03*
X183000Y663500D03*
X141000Y709500D03*
X141000Y728500D03*
X141000Y682500D03*
X141000Y663500D03*
X267000Y709500D03*
X267000Y728500D03*
X267000Y682500D03*
X267000Y663500D03*
X814100Y1214500D03*
X814100Y1195500D03*
X814100Y1241500D03*
X814100Y1260500D03*
D12*
X856000Y1070000D03*
D13*
X814000Y1070000D03*
X772000Y1070000D03*
X730000Y1070000D03*
X856000Y1125000D03*
X814000Y1125000D03*
X772000Y1125000D03*
X730000Y1125000D03*
D11*
X772000Y1241500D03*
X772000Y1260500D03*
X772000Y1214500D03*
X772000Y1195500D03*
X730000Y1241500D03*
X730000Y1260500D03*
X730000Y1214500D03*
X730000Y1195500D03*
X856000Y1241500D03*
X856000Y1260500D03*
X856000Y1214500D03*
X856000Y1195500D03*
X1033100Y1217500D03*
X1033100Y1198500D03*
X1033100Y1244500D03*
X1033100Y1263500D03*
D12*
X1075000Y1073000D03*
D13*
X1033000Y1073000D03*
X991000Y1073000D03*
X949000Y1073000D03*
X1075000Y1128000D03*
X1033000Y1128000D03*
X991000Y1128000D03*
X949000Y1128000D03*
D11*
X991000Y1244500D03*
X991000Y1263500D03*
X991000Y1217500D03*
X991000Y1198500D03*
X949000Y1244500D03*
X949000Y1263500D03*
X949000Y1217500D03*
X949000Y1198500D03*
X1075000Y1244500D03*
X1075000Y1263500D03*
X1075000Y1217500D03*
X1075000Y1198500D03*
X1030000Y990500D03*
X1030000Y1009500D03*
X1029000Y948500D03*
X1029000Y929500D03*
D12*
X1072000Y819000D03*
D13*
X1030000Y819000D03*
X988000Y819000D03*
X946000Y819000D03*
X1072000Y874000D03*
X1030000Y874000D03*
X988000Y874000D03*
X946000Y874000D03*
D11*
X988000Y990500D03*
X988000Y1009500D03*
X987000Y950500D03*
X987000Y931500D03*
X947000Y990500D03*
X947000Y1009500D03*
X946000Y951500D03*
X946000Y932500D03*
X1073000Y990500D03*
X1073000Y1009500D03*
X1073000Y946500D03*
X1073000Y927500D03*
X811000Y992500D03*
X811000Y1011500D03*
X811000Y956500D03*
X811000Y937500D03*
D12*
X853000Y817000D03*
D13*
X811000Y817000D03*
X769000Y817000D03*
X727000Y817000D03*
X853000Y872000D03*
X811000Y872000D03*
X769000Y872000D03*
X727000Y872000D03*
D11*
X769000Y991500D03*
X769000Y1010500D03*
X769000Y956500D03*
X769000Y937500D03*
X727000Y991500D03*
X727000Y1010500D03*
X727000Y956500D03*
X727000Y937500D03*
X853000Y992500D03*
X853000Y1011500D03*
X853000Y956500D03*
X853000Y937500D03*
D14*
X200000Y400000D03*
D15*
X212446Y400000D03*
X224892Y400000D03*
D16*
X50000Y459000D02*
X30000Y459000D01*
X30000Y420900D02*
X50000Y420900D01*
X50000Y382800D02*
X30000Y382800D01*
X30000Y344700D02*
X50000Y344700D01*
X50000Y278000D02*
X30000Y278000D01*
X30000Y239900D02*
X50000Y239900D01*
X50000Y201800D02*
X30000Y201800D01*
X30000Y163700D02*
X50000Y163700D01*
X112000Y49000D02*
X112000Y29000D01*
X150100Y29000D02*
X150100Y49000D01*
X188200Y49000D02*
X188200Y29000D01*
X226300Y29000D02*
X226300Y49000D01*
X282000Y48000D02*
X282000Y28000D01*
X320100Y28000D02*
X320100Y48000D01*
X358200Y48000D02*
X358200Y28000D01*
X396300Y28000D02*
X396300Y48000D01*
X452000Y50000D02*
X452000Y30000D01*
X490100Y30000D02*
X490100Y50000D01*
X528200Y50000D02*
X528200Y30000D01*
X566300Y30000D02*
X566300Y50000D01*
X621000Y48000D02*
X621000Y28000D01*
X659100Y28000D02*
X659100Y48000D01*
X697200Y48000D02*
X697200Y28000D01*
X735300Y28000D02*
X735300Y48000D01*
X789000Y50000D02*
X789000Y30000D01*
X827100Y30000D02*
X827100Y50000D01*
X865200Y50000D02*
X865200Y30000D01*
X903300Y30000D02*
X903300Y50000D01*
X955000Y51000D02*
X955000Y31000D01*
X993100Y31000D02*
X993100Y51000D01*
X1031200Y51000D02*
X1031200Y31000D01*
X1069300Y31000D02*
X1069300Y51000D01*
X1102000Y144000D02*
X1122000Y144000D01*
X1122000Y182100D02*
X1102000Y182100D01*
X1102000Y220200D02*
X1122000Y220200D01*
X1122000Y258300D02*
X1102000Y258300D01*
X1102000Y314000D02*
X1122000Y314000D01*
X1122000Y352100D02*
X1102000Y352100D01*
X1102000Y390200D02*
X1122000Y390200D01*
X1122000Y428300D02*
X1102000Y428300D01*
D14*
X280000Y400000D03*
D15*
X292446Y400000D03*
X304892Y400000D03*
D14*
X360000Y400000D03*
D15*
X372446Y400000D03*
X384892Y400000D03*
D14*
X440000Y400000D03*
D15*
X452446Y400000D03*
X464892Y400000D03*
D14*
X520000Y400000D03*
D15*
X532446Y400000D03*
X544892Y400000D03*
D14*
X600000Y400000D03*
D15*
X612446Y400000D03*
X624892Y400000D03*
D14*
X680000Y400000D03*
D15*
X692446Y400000D03*
X704892Y400000D03*
D14*
X760000Y400000D03*
D15*
X772446Y400000D03*
X784892Y400000D03*
D14*
X840000Y400000D03*
D15*
X852446Y400000D03*
X864892Y400000D03*
D14*
X920000Y400000D03*
D15*
X932446Y400000D03*
X944892Y400000D03*
D17*
X224750Y303750D03*
X203250Y303750D03*
X203250Y262250D03*
X224750Y262250D03*
D11*
X225000Y368500D03*
X225000Y349500D03*
D17*
X304750Y303750D03*
X283250Y303750D03*
X283250Y262250D03*
X304750Y262250D03*
D11*
X305000Y368500D03*
X305000Y349500D03*
D17*
X384750Y302750D03*
X363250Y302750D03*
X363250Y261250D03*
X384750Y261250D03*
D11*
X385000Y367500D03*
X385000Y348500D03*
D17*
X464750Y302750D03*
X443250Y302750D03*
X443250Y261250D03*
X464750Y261250D03*
D11*
X465000Y367500D03*
X465000Y348500D03*
D17*
X544750Y302750D03*
X523250Y302750D03*
X523250Y261250D03*
X544750Y261250D03*
D11*
X545000Y367500D03*
X545000Y348500D03*
D17*
X624750Y302750D03*
X603250Y302750D03*
X603250Y261250D03*
X624750Y261250D03*
D11*
X625000Y367500D03*
X625000Y348500D03*
D17*
X704750Y302750D03*
X683250Y302750D03*
X683250Y261250D03*
X704750Y261250D03*
D11*
X705000Y367500D03*
X705000Y348500D03*
D17*
X784750Y302750D03*
X763250Y302750D03*
X763250Y261250D03*
X784750Y261250D03*
D11*
X785000Y367500D03*
X785000Y348500D03*
D17*
X864750Y302750D03*
X843250Y302750D03*
X843250Y261250D03*
X864750Y261250D03*
D11*
X865000Y367500D03*
X865000Y348500D03*
D17*
X945750Y302750D03*
X924250Y302750D03*
X924250Y261250D03*
X945750Y261250D03*
D11*
X946000Y367500D03*
X946000Y348500D03*
D18*
X155000Y1026000D03*
X113000Y918000D03*
X113000Y1026000D03*
X71000Y916000D03*
X71000Y1027000D03*
X155000Y918000D03*
X197000Y918000D03*
X197000Y1026000D03*
X156000Y1286000D03*
X114000Y1178000D03*
X114000Y1286000D03*
X72000Y1176000D03*
X72000Y1287000D03*
X156000Y1178000D03*
X198000Y1178000D03*
X198000Y1286000D03*
X368000Y1029000D03*
X326000Y921000D03*
X326000Y1029000D03*
X284000Y919000D03*
X284000Y1030000D03*
X368000Y921000D03*
X410000Y921000D03*
X410000Y1029000D03*
X377000Y1286000D03*
X335000Y1178000D03*
X335000Y1286000D03*
X293000Y1176000D03*
X293000Y1287000D03*
X377000Y1178000D03*
X419000Y1178000D03*
X419000Y1286000D03*
X598000Y1029000D03*
X556000Y921000D03*
X556000Y1029000D03*
X514000Y919000D03*
X514000Y1030000D03*
X598000Y921000D03*
X640000Y921000D03*
X640000Y1029000D03*
X599000Y1288000D03*
X557000Y1180000D03*
X557000Y1288000D03*
X515000Y1178000D03*
X515000Y1289000D03*
X599000Y1180000D03*
X641000Y1180000D03*
X641000Y1288000D03*
X446000Y751000D03*
X404000Y643000D03*
X404000Y751000D03*
X362000Y641000D03*
X362000Y752000D03*
X446000Y643000D03*
X488000Y643000D03*
X488000Y751000D03*
X225000Y750000D03*
X183000Y642000D03*
X183000Y750000D03*
X141000Y640000D03*
X141000Y751000D03*
X225000Y642000D03*
X267000Y642000D03*
X267000Y750000D03*
X814000Y1282000D03*
X772000Y1174000D03*
X772000Y1282000D03*
X730000Y1172000D03*
X730000Y1283000D03*
X814000Y1174000D03*
X856000Y1174000D03*
X856000Y1282000D03*
X1033000Y1285000D03*
X991000Y1177000D03*
X991000Y1285000D03*
X949000Y1175000D03*
X949000Y1286000D03*
X1033000Y1177000D03*
X1075000Y1177000D03*
X1075000Y1285000D03*
X1030000Y1032000D03*
X988000Y1032000D03*
X947000Y1031000D03*
X1074000Y1031000D03*
X1030000Y910000D03*
X987000Y911000D03*
X946000Y913000D03*
X1072000Y911000D03*
X854000Y1035000D03*
X854000Y916000D03*
X812000Y1035000D03*
X812000Y916000D03*
X770000Y1034000D03*
X770000Y916000D03*
X729000Y1034000D03*
X727000Y915000D03*
X1047000Y430000D03*
X1047000Y258000D03*
X1042000Y136000D03*
X903000Y114000D03*
X567000Y114000D03*
X396000Y114000D03*
X227000Y114000D03*
X133000Y162000D03*
X133000Y347000D03*
X234000Y456000D03*
X315000Y456000D03*
X391000Y456000D03*
X479000Y456000D03*
X557000Y456000D03*
X634000Y456000D03*
X711000Y456000D03*
X795000Y456000D03*
X879000Y456000D03*
X957000Y456000D03*
X112000Y419000D03*
X1064000Y352000D03*
X1064000Y182000D03*
X993000Y90000D03*
X828000Y90000D03*
X453000Y90000D03*
X283000Y90000D03*
X150000Y90000D03*
X112000Y278000D03*
X212000Y488000D03*
X293000Y488000D03*
X372000Y488000D03*
X453000Y488000D03*
X533000Y488000D03*
X612000Y488000D03*
X691000Y488000D03*
X772000Y488000D03*
X853000Y488000D03*
X932000Y488000D03*
X212000Y387000D03*
X292000Y387000D03*
X372000Y386000D03*
X452000Y386000D03*
X532000Y386000D03*
X612000Y386000D03*
X692000Y386000D03*
X772000Y386000D03*
X852000Y386000D03*
X933000Y386000D03*
X248000Y334000D03*
X328000Y334000D03*
X408000Y333000D03*
X488000Y333000D03*
X568000Y333000D03*
X648000Y333000D03*
X728000Y333000D03*
X808000Y333000D03*
X888000Y333000D03*
X969000Y333000D03*
M02*
