G75*
%MOIN*%
%OFA0B0*%
%FSLAX25Y25*%
%IPPOS*%
%LPD*%
%AMOC8*
5,1,8,0,0,1.08239X$1,22.5*
%
%ADD10C,0.07874*%
%ADD11C,0.00394*%
D10*
X0149228Y0014850D02*
X0149228Y0022724D01*
X0164228Y0022724D02*
X0164228Y0014850D01*
X0233480Y0031189D02*
X0241354Y0031189D01*
X0256315Y0039063D02*
X0256315Y0046937D01*
X0241354Y0055205D02*
X0233480Y0055205D01*
D11*
X0005394Y0007827D02*
X0005394Y0314394D01*
X0469441Y0314394D01*
X0469441Y0007827D01*
X0005394Y0007827D01*
X0005394Y0007944D02*
X0469441Y0007944D01*
X0469441Y0008336D02*
X0005394Y0008336D01*
X0005394Y0008729D02*
X0469441Y0008729D01*
X0469441Y0009121D02*
X0005394Y0009121D01*
X0005394Y0009513D02*
X0469441Y0009513D01*
X0469441Y0009905D02*
X0005394Y0009905D01*
X0005394Y0010298D02*
X0162850Y0010298D01*
X0163287Y0010117D02*
X0165170Y0010117D01*
X0166910Y0010837D01*
X0168242Y0012169D01*
X0168962Y0013909D01*
X0168962Y0023666D01*
X0168242Y0025406D01*
X0166910Y0026738D01*
X0165170Y0027458D01*
X0163287Y0027458D01*
X0161547Y0026738D01*
X0160215Y0025406D01*
X0159494Y0023666D01*
X0159494Y0013909D01*
X0160215Y0012169D01*
X0161547Y0010837D01*
X0163287Y0010117D01*
X0161903Y0010690D02*
X0005394Y0010690D01*
X0005394Y0011082D02*
X0161302Y0011082D01*
X0160910Y0011474D02*
X0005394Y0011474D01*
X0005394Y0011866D02*
X0160518Y0011866D01*
X0160178Y0012259D02*
X0005394Y0012259D01*
X0005394Y0012651D02*
X0160016Y0012651D01*
X0159853Y0013043D02*
X0005394Y0013043D01*
X0005394Y0013435D02*
X0159691Y0013435D01*
X0159528Y0013827D02*
X0005394Y0013827D01*
X0005394Y0014220D02*
X0159494Y0014220D01*
X0159494Y0014612D02*
X0005394Y0014612D01*
X0005394Y0015004D02*
X0159494Y0015004D01*
X0159494Y0015396D02*
X0005394Y0015396D01*
X0005394Y0015788D02*
X0159494Y0015788D01*
X0159494Y0016181D02*
X0005394Y0016181D01*
X0005394Y0016573D02*
X0159494Y0016573D01*
X0159494Y0016965D02*
X0005394Y0016965D01*
X0005394Y0017357D02*
X0159494Y0017357D01*
X0159494Y0017750D02*
X0005394Y0017750D01*
X0005394Y0018142D02*
X0159494Y0018142D01*
X0159494Y0018534D02*
X0005394Y0018534D01*
X0005394Y0018926D02*
X0159494Y0018926D01*
X0159494Y0019318D02*
X0005394Y0019318D01*
X0005394Y0019711D02*
X0159494Y0019711D01*
X0159494Y0020103D02*
X0005394Y0020103D01*
X0005394Y0020495D02*
X0159494Y0020495D01*
X0159494Y0020887D02*
X0005394Y0020887D01*
X0005394Y0021279D02*
X0159494Y0021279D01*
X0159494Y0021672D02*
X0005394Y0021672D01*
X0005394Y0022064D02*
X0159494Y0022064D01*
X0159494Y0022456D02*
X0005394Y0022456D01*
X0005394Y0022848D02*
X0159494Y0022848D01*
X0159494Y0023241D02*
X0005394Y0023241D01*
X0005394Y0023633D02*
X0159494Y0023633D01*
X0159643Y0024025D02*
X0005394Y0024025D01*
X0005394Y0024417D02*
X0159806Y0024417D01*
X0159968Y0024809D02*
X0005394Y0024809D01*
X0005394Y0025202D02*
X0160131Y0025202D01*
X0160403Y0025594D02*
X0005394Y0025594D01*
X0005394Y0025986D02*
X0160795Y0025986D01*
X0161187Y0026378D02*
X0005394Y0026378D01*
X0005394Y0026770D02*
X0161626Y0026770D01*
X0162573Y0027163D02*
X0005394Y0027163D01*
X0005394Y0027555D02*
X0469441Y0027555D01*
X0469441Y0027947D02*
X0005394Y0027947D01*
X0005394Y0028339D02*
X0469441Y0028339D01*
X0469441Y0028731D02*
X0005394Y0028731D01*
X0005394Y0029124D02*
X0469441Y0029124D01*
X0469441Y0029516D02*
X0005394Y0029516D01*
X0005394Y0029908D02*
X0469441Y0029908D01*
X0469441Y0030300D02*
X0005394Y0030300D01*
X0005394Y0030693D02*
X0469441Y0030693D01*
X0469441Y0031085D02*
X0005394Y0031085D01*
X0005394Y0031477D02*
X0469441Y0031477D01*
X0469441Y0031869D02*
X0005394Y0031869D01*
X0005394Y0032261D02*
X0469441Y0032261D01*
X0469441Y0032654D02*
X0005394Y0032654D01*
X0005394Y0033046D02*
X0038684Y0033046D01*
X0039237Y0032898D02*
X0041897Y0032898D01*
X0044466Y0033586D01*
X0046770Y0034916D01*
X0048651Y0036797D01*
X0049981Y0039101D01*
X0050669Y0041670D01*
X0050669Y0044330D01*
X0049981Y0046899D01*
X0048651Y0049203D01*
X0046770Y0051084D01*
X0044466Y0052414D01*
X0041897Y0053102D01*
X0039237Y0053102D01*
X0036668Y0052414D01*
X0034364Y0051084D01*
X0032483Y0049203D01*
X0031153Y0046899D01*
X0030465Y0044330D01*
X0030465Y0041670D01*
X0031153Y0039101D01*
X0032483Y0036797D01*
X0034364Y0034916D01*
X0036668Y0033586D01*
X0039237Y0032898D01*
X0037220Y0033438D02*
X0005394Y0033438D01*
X0005394Y0033830D02*
X0036245Y0033830D01*
X0035565Y0034222D02*
X0005394Y0034222D01*
X0005394Y0034615D02*
X0034886Y0034615D01*
X0034273Y0035007D02*
X0005394Y0035007D01*
X0005394Y0035399D02*
X0033881Y0035399D01*
X0033489Y0035791D02*
X0005394Y0035791D01*
X0005394Y0036184D02*
X0033096Y0036184D01*
X0032704Y0036576D02*
X0005394Y0036576D01*
X0005394Y0036968D02*
X0032384Y0036968D01*
X0032158Y0037360D02*
X0005394Y0037360D01*
X0005394Y0037752D02*
X0031931Y0037752D01*
X0031705Y0038145D02*
X0005394Y0038145D01*
X0005394Y0038537D02*
X0031479Y0038537D01*
X0031252Y0038929D02*
X0005394Y0038929D01*
X0005394Y0039321D02*
X0031094Y0039321D01*
X0030989Y0039713D02*
X0005394Y0039713D01*
X0005394Y0040106D02*
X0030884Y0040106D01*
X0030779Y0040498D02*
X0005394Y0040498D01*
X0005394Y0040890D02*
X0030674Y0040890D01*
X0030568Y0041282D02*
X0005394Y0041282D01*
X0005394Y0041674D02*
X0030465Y0041674D01*
X0030465Y0042067D02*
X0005394Y0042067D01*
X0005394Y0042459D02*
X0030465Y0042459D01*
X0030465Y0042851D02*
X0005394Y0042851D01*
X0005394Y0043243D02*
X0030465Y0043243D01*
X0030465Y0043636D02*
X0005394Y0043636D01*
X0005394Y0044028D02*
X0030465Y0044028D01*
X0030489Y0044420D02*
X0005394Y0044420D01*
X0005394Y0044812D02*
X0030594Y0044812D01*
X0030699Y0045204D02*
X0005394Y0045204D01*
X0005394Y0045597D02*
X0030804Y0045597D01*
X0030909Y0045989D02*
X0005394Y0045989D01*
X0005394Y0046381D02*
X0031014Y0046381D01*
X0031119Y0046773D02*
X0005394Y0046773D01*
X0005394Y0047165D02*
X0031307Y0047165D01*
X0031533Y0047558D02*
X0005394Y0047558D01*
X0005394Y0047950D02*
X0031760Y0047950D01*
X0031986Y0048342D02*
X0005394Y0048342D01*
X0005394Y0048734D02*
X0032212Y0048734D01*
X0032439Y0049127D02*
X0005394Y0049127D01*
X0005394Y0049519D02*
X0032799Y0049519D01*
X0033191Y0049911D02*
X0005394Y0049911D01*
X0005394Y0050303D02*
X0033583Y0050303D01*
X0033975Y0050695D02*
X0005394Y0050695D01*
X0005394Y0051088D02*
X0034370Y0051088D01*
X0035050Y0051480D02*
X0005394Y0051480D01*
X0005394Y0051872D02*
X0035729Y0051872D01*
X0036408Y0052264D02*
X0005394Y0052264D01*
X0005394Y0052656D02*
X0037573Y0052656D01*
X0039037Y0053049D02*
X0005394Y0053049D01*
X0005394Y0053441D02*
X0229087Y0053441D01*
X0228925Y0053833D02*
X0005394Y0053833D01*
X0005394Y0054225D02*
X0228762Y0054225D01*
X0228746Y0054263D02*
X0229467Y0052523D01*
X0230799Y0051192D01*
X0232539Y0050471D01*
X0242296Y0050471D01*
X0244036Y0051192D01*
X0245367Y0052523D01*
X0246088Y0054263D01*
X0246088Y0056146D01*
X0245367Y0057886D01*
X0244036Y0059218D01*
X0242296Y0059939D01*
X0232539Y0059939D01*
X0230799Y0059218D01*
X0229467Y0057886D01*
X0228746Y0056146D01*
X0228746Y0054263D01*
X0228746Y0054617D02*
X0005394Y0054617D01*
X0005394Y0055010D02*
X0228746Y0055010D01*
X0228746Y0055402D02*
X0005394Y0055402D01*
X0005394Y0055794D02*
X0228746Y0055794D01*
X0228763Y0056186D02*
X0005394Y0056186D01*
X0005394Y0056579D02*
X0228925Y0056579D01*
X0229088Y0056971D02*
X0005394Y0056971D01*
X0005394Y0057363D02*
X0229250Y0057363D01*
X0229413Y0057755D02*
X0005394Y0057755D01*
X0005394Y0058147D02*
X0229728Y0058147D01*
X0230121Y0058540D02*
X0005394Y0058540D01*
X0005394Y0058932D02*
X0230513Y0058932D01*
X0231055Y0059324D02*
X0005394Y0059324D01*
X0005394Y0059716D02*
X0232002Y0059716D01*
X0229249Y0053049D02*
X0042097Y0053049D01*
X0043561Y0052656D02*
X0229412Y0052656D01*
X0229726Y0052264D02*
X0044726Y0052264D01*
X0045405Y0051872D02*
X0230118Y0051872D01*
X0230511Y0051480D02*
X0046084Y0051480D01*
X0046764Y0051088D02*
X0231050Y0051088D01*
X0231997Y0050695D02*
X0047158Y0050695D01*
X0047551Y0050303D02*
X0427284Y0050303D01*
X0426892Y0049911D02*
X0047943Y0049911D01*
X0048335Y0049519D02*
X0426500Y0049519D01*
X0426184Y0049203D02*
X0424854Y0046899D01*
X0424165Y0044330D01*
X0424165Y0041670D01*
X0424854Y0039101D01*
X0426184Y0036797D01*
X0428065Y0034916D01*
X0430368Y0033586D01*
X0432938Y0032898D01*
X0435598Y0032898D01*
X0438167Y0033586D01*
X0440471Y0034916D01*
X0442352Y0036797D01*
X0443682Y0039101D01*
X0444370Y0041670D01*
X0444370Y0044330D01*
X0443682Y0046899D01*
X0442352Y0049203D01*
X0440471Y0051084D01*
X0438167Y0052414D01*
X0435598Y0053102D01*
X0432938Y0053102D01*
X0430368Y0052414D01*
X0428065Y0051084D01*
X0426184Y0049203D01*
X0426140Y0049127D02*
X0048695Y0049127D01*
X0048921Y0048734D02*
X0425913Y0048734D01*
X0425687Y0048342D02*
X0049148Y0048342D01*
X0049374Y0047950D02*
X0425460Y0047950D01*
X0425234Y0047558D02*
X0049601Y0047558D01*
X0049827Y0047165D02*
X0425007Y0047165D01*
X0424820Y0046773D02*
X0050015Y0046773D01*
X0050120Y0046381D02*
X0424715Y0046381D01*
X0424610Y0045989D02*
X0050225Y0045989D01*
X0050330Y0045597D02*
X0424505Y0045597D01*
X0424400Y0045204D02*
X0050435Y0045204D01*
X0050540Y0044812D02*
X0424295Y0044812D01*
X0424189Y0044420D02*
X0050645Y0044420D01*
X0050669Y0044028D02*
X0424165Y0044028D01*
X0424165Y0043636D02*
X0050669Y0043636D01*
X0050669Y0043243D02*
X0424165Y0043243D01*
X0424165Y0042851D02*
X0050669Y0042851D01*
X0050669Y0042459D02*
X0424165Y0042459D01*
X0424165Y0042067D02*
X0050669Y0042067D01*
X0050669Y0041674D02*
X0424165Y0041674D01*
X0424269Y0041282D02*
X0050565Y0041282D01*
X0050460Y0040890D02*
X0424374Y0040890D01*
X0424479Y0040498D02*
X0050355Y0040498D01*
X0050250Y0040106D02*
X0424585Y0040106D01*
X0424690Y0039713D02*
X0050145Y0039713D01*
X0050040Y0039321D02*
X0424795Y0039321D01*
X0424953Y0038929D02*
X0049882Y0038929D01*
X0049655Y0038537D02*
X0425179Y0038537D01*
X0425406Y0038145D02*
X0049429Y0038145D01*
X0049202Y0037752D02*
X0425632Y0037752D01*
X0425859Y0037360D02*
X0048976Y0037360D01*
X0048750Y0036968D02*
X0426085Y0036968D01*
X0426405Y0036576D02*
X0048430Y0036576D01*
X0048037Y0036184D02*
X0426797Y0036184D01*
X0427189Y0035791D02*
X0047645Y0035791D01*
X0047253Y0035399D02*
X0427582Y0035399D01*
X0427974Y0035007D02*
X0046861Y0035007D01*
X0046248Y0034615D02*
X0428587Y0034615D01*
X0429266Y0034222D02*
X0045569Y0034222D01*
X0044889Y0033830D02*
X0429945Y0033830D01*
X0430921Y0033438D02*
X0043914Y0033438D01*
X0042450Y0033046D02*
X0432385Y0033046D01*
X0436151Y0033046D02*
X0469441Y0033046D01*
X0469441Y0033438D02*
X0437615Y0033438D01*
X0438590Y0033830D02*
X0469441Y0033830D01*
X0469441Y0034222D02*
X0439269Y0034222D01*
X0439949Y0034615D02*
X0469441Y0034615D01*
X0469441Y0035007D02*
X0440562Y0035007D01*
X0440954Y0035399D02*
X0469441Y0035399D01*
X0469441Y0035791D02*
X0441346Y0035791D01*
X0441738Y0036184D02*
X0469441Y0036184D01*
X0469441Y0036576D02*
X0442130Y0036576D01*
X0442450Y0036968D02*
X0469441Y0036968D01*
X0469441Y0037360D02*
X0442677Y0037360D01*
X0442903Y0037752D02*
X0469441Y0037752D01*
X0469441Y0038145D02*
X0443130Y0038145D01*
X0443356Y0038537D02*
X0469441Y0038537D01*
X0469441Y0038929D02*
X0443583Y0038929D01*
X0443741Y0039321D02*
X0469441Y0039321D01*
X0469441Y0039713D02*
X0443846Y0039713D01*
X0443951Y0040106D02*
X0469441Y0040106D01*
X0469441Y0040498D02*
X0444056Y0040498D01*
X0444161Y0040890D02*
X0469441Y0040890D01*
X0469441Y0041282D02*
X0444266Y0041282D01*
X0444370Y0041674D02*
X0469441Y0041674D01*
X0469441Y0042067D02*
X0444370Y0042067D01*
X0444370Y0042459D02*
X0469441Y0042459D01*
X0469441Y0042851D02*
X0444370Y0042851D01*
X0444370Y0043243D02*
X0469441Y0043243D01*
X0469441Y0043636D02*
X0444370Y0043636D01*
X0444370Y0044028D02*
X0469441Y0044028D01*
X0469441Y0044420D02*
X0444346Y0044420D01*
X0444241Y0044812D02*
X0469441Y0044812D01*
X0469441Y0045204D02*
X0444136Y0045204D01*
X0444031Y0045597D02*
X0469441Y0045597D01*
X0469441Y0045989D02*
X0443926Y0045989D01*
X0443820Y0046381D02*
X0469441Y0046381D01*
X0469441Y0046773D02*
X0443715Y0046773D01*
X0443528Y0047165D02*
X0469441Y0047165D01*
X0469441Y0047558D02*
X0443302Y0047558D01*
X0443075Y0047950D02*
X0469441Y0047950D01*
X0469441Y0048342D02*
X0442849Y0048342D01*
X0442622Y0048734D02*
X0469441Y0048734D01*
X0469441Y0049127D02*
X0442396Y0049127D01*
X0442036Y0049519D02*
X0469441Y0049519D01*
X0469441Y0049911D02*
X0441644Y0049911D01*
X0441251Y0050303D02*
X0469441Y0050303D01*
X0469441Y0050695D02*
X0440859Y0050695D01*
X0440464Y0051088D02*
X0469441Y0051088D01*
X0469441Y0051480D02*
X0439785Y0051480D01*
X0439106Y0051872D02*
X0469441Y0051872D01*
X0469441Y0052264D02*
X0438426Y0052264D01*
X0437262Y0052656D02*
X0469441Y0052656D01*
X0469441Y0053049D02*
X0435798Y0053049D01*
X0432737Y0053049D02*
X0245585Y0053049D01*
X0245748Y0053441D02*
X0469441Y0053441D01*
X0469441Y0053833D02*
X0245910Y0053833D01*
X0246073Y0054225D02*
X0469441Y0054225D01*
X0469441Y0054617D02*
X0246088Y0054617D01*
X0246088Y0055010D02*
X0469441Y0055010D01*
X0469441Y0055402D02*
X0246088Y0055402D01*
X0246088Y0055794D02*
X0469441Y0055794D01*
X0469441Y0056186D02*
X0246072Y0056186D01*
X0245909Y0056579D02*
X0469441Y0056579D01*
X0469441Y0056971D02*
X0245747Y0056971D01*
X0245584Y0057363D02*
X0469441Y0057363D01*
X0469441Y0057755D02*
X0245422Y0057755D01*
X0245106Y0058147D02*
X0469441Y0058147D01*
X0469441Y0058540D02*
X0244714Y0058540D01*
X0244322Y0058932D02*
X0469441Y0058932D01*
X0469441Y0059324D02*
X0243780Y0059324D01*
X0242833Y0059716D02*
X0469441Y0059716D01*
X0469441Y0060108D02*
X0005394Y0060108D01*
X0005394Y0060501D02*
X0469441Y0060501D01*
X0469441Y0060893D02*
X0005394Y0060893D01*
X0005394Y0061285D02*
X0469441Y0061285D01*
X0469441Y0061677D02*
X0005394Y0061677D01*
X0005394Y0062070D02*
X0469441Y0062070D01*
X0469441Y0062462D02*
X0005394Y0062462D01*
X0005394Y0062854D02*
X0469441Y0062854D01*
X0469441Y0063246D02*
X0005394Y0063246D01*
X0005394Y0063638D02*
X0469441Y0063638D01*
X0469441Y0064031D02*
X0005394Y0064031D01*
X0005394Y0064423D02*
X0469441Y0064423D01*
X0469441Y0064815D02*
X0005394Y0064815D01*
X0005394Y0065207D02*
X0469441Y0065207D01*
X0469441Y0065599D02*
X0005394Y0065599D01*
X0005394Y0065992D02*
X0469441Y0065992D01*
X0469441Y0066384D02*
X0005394Y0066384D01*
X0005394Y0066776D02*
X0469441Y0066776D01*
X0469441Y0067168D02*
X0005394Y0067168D01*
X0005394Y0067560D02*
X0469441Y0067560D01*
X0469441Y0067953D02*
X0005394Y0067953D01*
X0005394Y0068345D02*
X0469441Y0068345D01*
X0469441Y0068737D02*
X0005394Y0068737D01*
X0005394Y0069129D02*
X0469441Y0069129D01*
X0469441Y0069522D02*
X0005394Y0069522D01*
X0005394Y0069914D02*
X0469441Y0069914D01*
X0469441Y0070306D02*
X0005394Y0070306D01*
X0005394Y0070698D02*
X0469441Y0070698D01*
X0469441Y0071090D02*
X0005394Y0071090D01*
X0005394Y0071483D02*
X0469441Y0071483D01*
X0469441Y0071875D02*
X0005394Y0071875D01*
X0005394Y0072267D02*
X0469441Y0072267D01*
X0469441Y0072659D02*
X0005394Y0072659D01*
X0005394Y0073051D02*
X0469441Y0073051D01*
X0469441Y0073444D02*
X0005394Y0073444D01*
X0005394Y0073836D02*
X0469441Y0073836D01*
X0469441Y0074228D02*
X0005394Y0074228D01*
X0005394Y0074620D02*
X0469441Y0074620D01*
X0469441Y0075013D02*
X0005394Y0075013D01*
X0005394Y0075405D02*
X0469441Y0075405D01*
X0469441Y0075797D02*
X0005394Y0075797D01*
X0005394Y0076189D02*
X0469441Y0076189D01*
X0469441Y0076581D02*
X0005394Y0076581D01*
X0005394Y0076974D02*
X0469441Y0076974D01*
X0469441Y0077366D02*
X0005394Y0077366D01*
X0005394Y0077758D02*
X0469441Y0077758D01*
X0469441Y0078150D02*
X0005394Y0078150D01*
X0005394Y0078542D02*
X0469441Y0078542D01*
X0469441Y0078935D02*
X0005394Y0078935D01*
X0005394Y0079327D02*
X0469441Y0079327D01*
X0469441Y0079719D02*
X0005394Y0079719D01*
X0005394Y0080111D02*
X0469441Y0080111D01*
X0469441Y0080503D02*
X0005394Y0080503D01*
X0005394Y0080896D02*
X0469441Y0080896D01*
X0469441Y0081288D02*
X0005394Y0081288D01*
X0005394Y0081680D02*
X0469441Y0081680D01*
X0469441Y0082072D02*
X0005394Y0082072D01*
X0005394Y0082465D02*
X0469441Y0082465D01*
X0469441Y0082857D02*
X0005394Y0082857D01*
X0005394Y0083249D02*
X0469441Y0083249D01*
X0469441Y0083641D02*
X0005394Y0083641D01*
X0005394Y0084033D02*
X0469441Y0084033D01*
X0469441Y0084426D02*
X0005394Y0084426D01*
X0005394Y0084818D02*
X0469441Y0084818D01*
X0469441Y0085210D02*
X0005394Y0085210D01*
X0005394Y0085602D02*
X0469441Y0085602D01*
X0469441Y0085994D02*
X0005394Y0085994D01*
X0005394Y0086387D02*
X0469441Y0086387D01*
X0469441Y0086779D02*
X0005394Y0086779D01*
X0005394Y0087171D02*
X0469441Y0087171D01*
X0469441Y0087563D02*
X0005394Y0087563D01*
X0005394Y0087956D02*
X0469441Y0087956D01*
X0469441Y0088348D02*
X0005394Y0088348D01*
X0005394Y0088740D02*
X0469441Y0088740D01*
X0469441Y0089132D02*
X0005394Y0089132D01*
X0005394Y0089524D02*
X0469441Y0089524D01*
X0469441Y0089917D02*
X0005394Y0089917D01*
X0005394Y0090309D02*
X0469441Y0090309D01*
X0469441Y0090701D02*
X0005394Y0090701D01*
X0005394Y0091093D02*
X0469441Y0091093D01*
X0469441Y0091485D02*
X0005394Y0091485D01*
X0005394Y0091878D02*
X0469441Y0091878D01*
X0469441Y0092270D02*
X0005394Y0092270D01*
X0005394Y0092662D02*
X0469441Y0092662D01*
X0469441Y0093054D02*
X0005394Y0093054D01*
X0005394Y0093446D02*
X0469441Y0093446D01*
X0469441Y0093839D02*
X0005394Y0093839D01*
X0005394Y0094231D02*
X0469441Y0094231D01*
X0469441Y0094623D02*
X0005394Y0094623D01*
X0005394Y0095015D02*
X0469441Y0095015D01*
X0469441Y0095408D02*
X0005394Y0095408D01*
X0005394Y0095800D02*
X0469441Y0095800D01*
X0469441Y0096192D02*
X0005394Y0096192D01*
X0005394Y0096584D02*
X0469441Y0096584D01*
X0469441Y0096976D02*
X0005394Y0096976D01*
X0005394Y0097369D02*
X0469441Y0097369D01*
X0469441Y0097761D02*
X0005394Y0097761D01*
X0005394Y0098153D02*
X0469441Y0098153D01*
X0469441Y0098545D02*
X0005394Y0098545D01*
X0005394Y0098937D02*
X0469441Y0098937D01*
X0469441Y0099330D02*
X0005394Y0099330D01*
X0005394Y0099722D02*
X0469441Y0099722D01*
X0469441Y0100114D02*
X0005394Y0100114D01*
X0005394Y0100506D02*
X0469441Y0100506D01*
X0469441Y0100899D02*
X0005394Y0100899D01*
X0005394Y0101291D02*
X0469441Y0101291D01*
X0469441Y0101683D02*
X0005394Y0101683D01*
X0005394Y0102075D02*
X0469441Y0102075D01*
X0469441Y0102467D02*
X0005394Y0102467D01*
X0005394Y0102860D02*
X0469441Y0102860D01*
X0469441Y0103252D02*
X0005394Y0103252D01*
X0005394Y0103644D02*
X0469441Y0103644D01*
X0469441Y0104036D02*
X0005394Y0104036D01*
X0005394Y0104428D02*
X0469441Y0104428D01*
X0469441Y0104821D02*
X0005394Y0104821D01*
X0005394Y0105213D02*
X0469441Y0105213D01*
X0469441Y0105605D02*
X0005394Y0105605D01*
X0005394Y0105997D02*
X0469441Y0105997D01*
X0469441Y0106389D02*
X0005394Y0106389D01*
X0005394Y0106782D02*
X0469441Y0106782D01*
X0469441Y0107174D02*
X0005394Y0107174D01*
X0005394Y0107566D02*
X0469441Y0107566D01*
X0469441Y0107958D02*
X0005394Y0107958D01*
X0005394Y0108351D02*
X0469441Y0108351D01*
X0469441Y0108743D02*
X0005394Y0108743D01*
X0005394Y0109135D02*
X0469441Y0109135D01*
X0469441Y0109527D02*
X0005394Y0109527D01*
X0005394Y0109919D02*
X0469441Y0109919D01*
X0469441Y0110312D02*
X0005394Y0110312D01*
X0005394Y0110704D02*
X0469441Y0110704D01*
X0469441Y0111096D02*
X0005394Y0111096D01*
X0005394Y0111488D02*
X0469441Y0111488D01*
X0469441Y0111880D02*
X0005394Y0111880D01*
X0005394Y0112273D02*
X0469441Y0112273D01*
X0469441Y0112665D02*
X0005394Y0112665D01*
X0005394Y0113057D02*
X0469441Y0113057D01*
X0469441Y0113449D02*
X0005394Y0113449D01*
X0005394Y0113842D02*
X0469441Y0113842D01*
X0469441Y0114234D02*
X0005394Y0114234D01*
X0005394Y0114626D02*
X0469441Y0114626D01*
X0469441Y0115018D02*
X0005394Y0115018D01*
X0005394Y0115410D02*
X0469441Y0115410D01*
X0469441Y0115803D02*
X0005394Y0115803D01*
X0005394Y0116195D02*
X0469441Y0116195D01*
X0469441Y0116587D02*
X0005394Y0116587D01*
X0005394Y0116979D02*
X0469441Y0116979D01*
X0469441Y0117371D02*
X0005394Y0117371D01*
X0005394Y0117764D02*
X0469441Y0117764D01*
X0469441Y0118156D02*
X0005394Y0118156D01*
X0005394Y0118548D02*
X0469441Y0118548D01*
X0469441Y0118940D02*
X0005394Y0118940D01*
X0005394Y0119332D02*
X0469441Y0119332D01*
X0469441Y0119725D02*
X0005394Y0119725D01*
X0005394Y0120117D02*
X0469441Y0120117D01*
X0469441Y0120509D02*
X0005394Y0120509D01*
X0005394Y0120901D02*
X0469441Y0120901D01*
X0469441Y0121294D02*
X0005394Y0121294D01*
X0005394Y0121686D02*
X0469441Y0121686D01*
X0469441Y0122078D02*
X0005394Y0122078D01*
X0005394Y0122470D02*
X0469441Y0122470D01*
X0469441Y0122862D02*
X0005394Y0122862D01*
X0005394Y0123255D02*
X0469441Y0123255D01*
X0469441Y0123647D02*
X0005394Y0123647D01*
X0005394Y0124039D02*
X0469441Y0124039D01*
X0469441Y0124431D02*
X0005394Y0124431D01*
X0005394Y0124823D02*
X0469441Y0124823D01*
X0469441Y0125216D02*
X0005394Y0125216D01*
X0005394Y0125608D02*
X0469441Y0125608D01*
X0469441Y0126000D02*
X0005394Y0126000D01*
X0005394Y0126392D02*
X0469441Y0126392D01*
X0469441Y0126785D02*
X0005394Y0126785D01*
X0005394Y0127177D02*
X0469441Y0127177D01*
X0469441Y0127569D02*
X0005394Y0127569D01*
X0005394Y0127961D02*
X0469441Y0127961D01*
X0469441Y0128353D02*
X0005394Y0128353D01*
X0005394Y0128746D02*
X0469441Y0128746D01*
X0469441Y0129138D02*
X0005394Y0129138D01*
X0005394Y0129530D02*
X0469441Y0129530D01*
X0469441Y0129922D02*
X0005394Y0129922D01*
X0005394Y0130314D02*
X0469441Y0130314D01*
X0469441Y0130707D02*
X0005394Y0130707D01*
X0005394Y0131099D02*
X0469441Y0131099D01*
X0469441Y0131491D02*
X0005394Y0131491D01*
X0005394Y0131883D02*
X0469441Y0131883D01*
X0469441Y0132275D02*
X0005394Y0132275D01*
X0005394Y0132668D02*
X0469441Y0132668D01*
X0469441Y0133060D02*
X0005394Y0133060D01*
X0005394Y0133452D02*
X0469441Y0133452D01*
X0469441Y0133844D02*
X0005394Y0133844D01*
X0005394Y0134237D02*
X0469441Y0134237D01*
X0469441Y0134629D02*
X0005394Y0134629D01*
X0005394Y0135021D02*
X0469441Y0135021D01*
X0469441Y0135413D02*
X0005394Y0135413D01*
X0005394Y0135805D02*
X0469441Y0135805D01*
X0469441Y0136198D02*
X0005394Y0136198D01*
X0005394Y0136590D02*
X0469441Y0136590D01*
X0469441Y0136982D02*
X0005394Y0136982D01*
X0005394Y0137374D02*
X0469441Y0137374D01*
X0469441Y0137766D02*
X0005394Y0137766D01*
X0005394Y0138159D02*
X0469441Y0138159D01*
X0469441Y0138551D02*
X0005394Y0138551D01*
X0005394Y0138943D02*
X0469441Y0138943D01*
X0469441Y0139335D02*
X0005394Y0139335D01*
X0005394Y0139728D02*
X0469441Y0139728D01*
X0469441Y0140120D02*
X0005394Y0140120D01*
X0005394Y0140512D02*
X0469441Y0140512D01*
X0469441Y0140904D02*
X0005394Y0140904D01*
X0005394Y0141296D02*
X0469441Y0141296D01*
X0469441Y0141689D02*
X0005394Y0141689D01*
X0005394Y0142081D02*
X0469441Y0142081D01*
X0469441Y0142473D02*
X0005394Y0142473D01*
X0005394Y0142865D02*
X0469441Y0142865D01*
X0469441Y0143257D02*
X0005394Y0143257D01*
X0005394Y0143650D02*
X0469441Y0143650D01*
X0469441Y0144042D02*
X0005394Y0144042D01*
X0005394Y0144434D02*
X0469441Y0144434D01*
X0469441Y0144826D02*
X0005394Y0144826D01*
X0005394Y0145218D02*
X0469441Y0145218D01*
X0469441Y0145611D02*
X0005394Y0145611D01*
X0005394Y0146003D02*
X0469441Y0146003D01*
X0469441Y0146395D02*
X0005394Y0146395D01*
X0005394Y0146787D02*
X0469441Y0146787D01*
X0469441Y0147180D02*
X0005394Y0147180D01*
X0005394Y0147572D02*
X0469441Y0147572D01*
X0469441Y0147964D02*
X0005394Y0147964D01*
X0005394Y0148356D02*
X0469441Y0148356D01*
X0469441Y0148748D02*
X0005394Y0148748D01*
X0005394Y0149141D02*
X0469441Y0149141D01*
X0469441Y0149533D02*
X0005394Y0149533D01*
X0005394Y0149925D02*
X0469441Y0149925D01*
X0469441Y0150317D02*
X0005394Y0150317D01*
X0005394Y0150709D02*
X0469441Y0150709D01*
X0469441Y0151102D02*
X0005394Y0151102D01*
X0005394Y0151494D02*
X0469441Y0151494D01*
X0469441Y0151886D02*
X0005394Y0151886D01*
X0005394Y0152278D02*
X0469441Y0152278D01*
X0469441Y0152671D02*
X0005394Y0152671D01*
X0005394Y0153063D02*
X0469441Y0153063D01*
X0469441Y0153455D02*
X0005394Y0153455D01*
X0005394Y0153847D02*
X0469441Y0153847D01*
X0469441Y0154239D02*
X0005394Y0154239D01*
X0005394Y0154632D02*
X0469441Y0154632D01*
X0469441Y0155024D02*
X0005394Y0155024D01*
X0005394Y0155416D02*
X0469441Y0155416D01*
X0469441Y0155808D02*
X0005394Y0155808D01*
X0005394Y0156200D02*
X0469441Y0156200D01*
X0469441Y0156593D02*
X0005394Y0156593D01*
X0005394Y0156985D02*
X0469441Y0156985D01*
X0469441Y0157377D02*
X0005394Y0157377D01*
X0005394Y0157769D02*
X0469441Y0157769D01*
X0469441Y0158161D02*
X0005394Y0158161D01*
X0005394Y0158554D02*
X0469441Y0158554D01*
X0469441Y0158946D02*
X0005394Y0158946D01*
X0005394Y0159338D02*
X0469441Y0159338D01*
X0469441Y0159730D02*
X0005394Y0159730D01*
X0005394Y0160123D02*
X0469441Y0160123D01*
X0469441Y0160515D02*
X0005394Y0160515D01*
X0005394Y0160907D02*
X0469441Y0160907D01*
X0469441Y0161299D02*
X0005394Y0161299D01*
X0005394Y0161691D02*
X0469441Y0161691D01*
X0469441Y0162084D02*
X0005394Y0162084D01*
X0005394Y0162476D02*
X0469441Y0162476D01*
X0469441Y0162868D02*
X0005394Y0162868D01*
X0005394Y0163260D02*
X0469441Y0163260D01*
X0469441Y0163652D02*
X0005394Y0163652D01*
X0005394Y0164045D02*
X0469441Y0164045D01*
X0469441Y0164437D02*
X0005394Y0164437D01*
X0005394Y0164829D02*
X0469441Y0164829D01*
X0469441Y0165221D02*
X0005394Y0165221D01*
X0005394Y0165614D02*
X0469441Y0165614D01*
X0469441Y0166006D02*
X0005394Y0166006D01*
X0005394Y0166398D02*
X0469441Y0166398D01*
X0469441Y0166790D02*
X0005394Y0166790D01*
X0005394Y0167182D02*
X0469441Y0167182D01*
X0469441Y0167575D02*
X0005394Y0167575D01*
X0005394Y0167967D02*
X0469441Y0167967D01*
X0469441Y0168359D02*
X0005394Y0168359D01*
X0005394Y0168751D02*
X0469441Y0168751D01*
X0469441Y0169143D02*
X0005394Y0169143D01*
X0005394Y0169536D02*
X0469441Y0169536D01*
X0469441Y0169928D02*
X0005394Y0169928D01*
X0005394Y0170320D02*
X0469441Y0170320D01*
X0469441Y0170712D02*
X0005394Y0170712D01*
X0005394Y0171104D02*
X0469441Y0171104D01*
X0469441Y0171497D02*
X0005394Y0171497D01*
X0005394Y0171889D02*
X0469441Y0171889D01*
X0469441Y0172281D02*
X0005394Y0172281D01*
X0005394Y0172673D02*
X0469441Y0172673D01*
X0469441Y0173066D02*
X0005394Y0173066D01*
X0005394Y0173458D02*
X0469441Y0173458D01*
X0469441Y0173850D02*
X0005394Y0173850D01*
X0005394Y0174242D02*
X0469441Y0174242D01*
X0469441Y0174634D02*
X0005394Y0174634D01*
X0005394Y0175027D02*
X0469441Y0175027D01*
X0469441Y0175419D02*
X0005394Y0175419D01*
X0005394Y0175811D02*
X0469441Y0175811D01*
X0469441Y0176203D02*
X0005394Y0176203D01*
X0005394Y0176595D02*
X0469441Y0176595D01*
X0469441Y0176988D02*
X0005394Y0176988D01*
X0005394Y0177380D02*
X0469441Y0177380D01*
X0469441Y0177772D02*
X0005394Y0177772D01*
X0005394Y0178164D02*
X0469441Y0178164D01*
X0469441Y0178557D02*
X0005394Y0178557D01*
X0005394Y0178949D02*
X0469441Y0178949D01*
X0469441Y0179341D02*
X0005394Y0179341D01*
X0005394Y0179733D02*
X0469441Y0179733D01*
X0469441Y0180125D02*
X0005394Y0180125D01*
X0005394Y0180518D02*
X0469441Y0180518D01*
X0469441Y0180910D02*
X0005394Y0180910D01*
X0005394Y0181302D02*
X0469441Y0181302D01*
X0469441Y0181694D02*
X0005394Y0181694D01*
X0005394Y0182086D02*
X0469441Y0182086D01*
X0469441Y0182479D02*
X0005394Y0182479D01*
X0005394Y0182871D02*
X0469441Y0182871D01*
X0469441Y0183263D02*
X0005394Y0183263D01*
X0005394Y0183655D02*
X0469441Y0183655D01*
X0469441Y0184047D02*
X0005394Y0184047D01*
X0005394Y0184440D02*
X0469441Y0184440D01*
X0469441Y0184832D02*
X0005394Y0184832D01*
X0005394Y0185224D02*
X0469441Y0185224D01*
X0469441Y0185616D02*
X0005394Y0185616D01*
X0005394Y0186009D02*
X0469441Y0186009D01*
X0469441Y0186401D02*
X0005394Y0186401D01*
X0005394Y0186793D02*
X0469441Y0186793D01*
X0469441Y0187185D02*
X0005394Y0187185D01*
X0005394Y0187577D02*
X0469441Y0187577D01*
X0469441Y0187970D02*
X0005394Y0187970D01*
X0005394Y0188362D02*
X0469441Y0188362D01*
X0469441Y0188754D02*
X0005394Y0188754D01*
X0005394Y0189146D02*
X0469441Y0189146D01*
X0469441Y0189538D02*
X0005394Y0189538D01*
X0005394Y0189931D02*
X0469441Y0189931D01*
X0469441Y0190323D02*
X0005394Y0190323D01*
X0005394Y0190715D02*
X0469441Y0190715D01*
X0469441Y0191107D02*
X0005394Y0191107D01*
X0005394Y0191500D02*
X0469441Y0191500D01*
X0469441Y0191892D02*
X0005394Y0191892D01*
X0005394Y0192284D02*
X0469441Y0192284D01*
X0469441Y0192676D02*
X0005394Y0192676D01*
X0005394Y0193068D02*
X0469441Y0193068D01*
X0469441Y0193461D02*
X0005394Y0193461D01*
X0005394Y0193853D02*
X0469441Y0193853D01*
X0469441Y0194245D02*
X0005394Y0194245D01*
X0005394Y0194637D02*
X0469441Y0194637D01*
X0469441Y0195029D02*
X0005394Y0195029D01*
X0005394Y0195422D02*
X0469441Y0195422D01*
X0469441Y0195814D02*
X0005394Y0195814D01*
X0005394Y0196206D02*
X0469441Y0196206D01*
X0469441Y0196598D02*
X0005394Y0196598D01*
X0005394Y0196990D02*
X0469441Y0196990D01*
X0469441Y0197383D02*
X0005394Y0197383D01*
X0005394Y0197775D02*
X0469441Y0197775D01*
X0469441Y0198167D02*
X0005394Y0198167D01*
X0005394Y0198559D02*
X0469441Y0198559D01*
X0469441Y0198952D02*
X0005394Y0198952D01*
X0005394Y0199344D02*
X0469441Y0199344D01*
X0469441Y0199736D02*
X0005394Y0199736D01*
X0005394Y0200128D02*
X0469441Y0200128D01*
X0469441Y0200520D02*
X0005394Y0200520D01*
X0005394Y0200913D02*
X0469441Y0200913D01*
X0469441Y0201305D02*
X0005394Y0201305D01*
X0005394Y0201697D02*
X0469441Y0201697D01*
X0469441Y0202089D02*
X0005394Y0202089D01*
X0005394Y0202481D02*
X0469441Y0202481D01*
X0469441Y0202874D02*
X0005394Y0202874D01*
X0005394Y0203266D02*
X0469441Y0203266D01*
X0469441Y0203658D02*
X0005394Y0203658D01*
X0005394Y0204050D02*
X0469441Y0204050D01*
X0469441Y0204443D02*
X0005394Y0204443D01*
X0005394Y0204835D02*
X0469441Y0204835D01*
X0469441Y0205227D02*
X0005394Y0205227D01*
X0005394Y0205619D02*
X0469441Y0205619D01*
X0469441Y0206011D02*
X0005394Y0206011D01*
X0005394Y0206404D02*
X0469441Y0206404D01*
X0469441Y0206796D02*
X0005394Y0206796D01*
X0005394Y0207188D02*
X0469441Y0207188D01*
X0469441Y0207580D02*
X0005394Y0207580D01*
X0005394Y0207972D02*
X0469441Y0207972D01*
X0469441Y0208365D02*
X0005394Y0208365D01*
X0005394Y0208757D02*
X0469441Y0208757D01*
X0469441Y0209149D02*
X0005394Y0209149D01*
X0005394Y0209541D02*
X0469441Y0209541D01*
X0469441Y0209933D02*
X0005394Y0209933D01*
X0005394Y0210326D02*
X0469441Y0210326D01*
X0469441Y0210718D02*
X0005394Y0210718D01*
X0005394Y0211110D02*
X0469441Y0211110D01*
X0469441Y0211502D02*
X0005394Y0211502D01*
X0005394Y0211895D02*
X0469441Y0211895D01*
X0469441Y0212287D02*
X0005394Y0212287D01*
X0005394Y0212679D02*
X0469441Y0212679D01*
X0469441Y0213071D02*
X0005394Y0213071D01*
X0005394Y0213463D02*
X0469441Y0213463D01*
X0469441Y0213856D02*
X0005394Y0213856D01*
X0005394Y0214248D02*
X0469441Y0214248D01*
X0469441Y0214640D02*
X0005394Y0214640D01*
X0005394Y0215032D02*
X0469441Y0215032D01*
X0469441Y0215424D02*
X0005394Y0215424D01*
X0005394Y0215817D02*
X0469441Y0215817D01*
X0469441Y0216209D02*
X0005394Y0216209D01*
X0005394Y0216601D02*
X0469441Y0216601D01*
X0469441Y0216993D02*
X0005394Y0216993D01*
X0005394Y0217386D02*
X0469441Y0217386D01*
X0469441Y0217778D02*
X0005394Y0217778D01*
X0005394Y0218170D02*
X0469441Y0218170D01*
X0469441Y0218562D02*
X0005394Y0218562D01*
X0005394Y0218954D02*
X0469441Y0218954D01*
X0469441Y0219347D02*
X0005394Y0219347D01*
X0005394Y0219739D02*
X0469441Y0219739D01*
X0469441Y0220131D02*
X0005394Y0220131D01*
X0005394Y0220523D02*
X0469441Y0220523D01*
X0469441Y0220915D02*
X0005394Y0220915D01*
X0005394Y0221308D02*
X0469441Y0221308D01*
X0469441Y0221700D02*
X0005394Y0221700D01*
X0005394Y0222092D02*
X0469441Y0222092D01*
X0469441Y0222484D02*
X0005394Y0222484D01*
X0005394Y0222876D02*
X0469441Y0222876D01*
X0469441Y0223269D02*
X0005394Y0223269D01*
X0005394Y0223661D02*
X0469441Y0223661D01*
X0469441Y0224053D02*
X0005394Y0224053D01*
X0005394Y0224445D02*
X0469441Y0224445D01*
X0469441Y0224838D02*
X0005394Y0224838D01*
X0005394Y0225230D02*
X0469441Y0225230D01*
X0469441Y0225622D02*
X0005394Y0225622D01*
X0005394Y0226014D02*
X0469441Y0226014D01*
X0469441Y0226406D02*
X0005394Y0226406D01*
X0005394Y0226799D02*
X0469441Y0226799D01*
X0469441Y0227191D02*
X0005394Y0227191D01*
X0005394Y0227583D02*
X0469441Y0227583D01*
X0469441Y0227975D02*
X0005394Y0227975D01*
X0005394Y0228367D02*
X0469441Y0228367D01*
X0469441Y0228760D02*
X0005394Y0228760D01*
X0005394Y0229152D02*
X0469441Y0229152D01*
X0469441Y0229544D02*
X0005394Y0229544D01*
X0005394Y0229936D02*
X0469441Y0229936D01*
X0469441Y0230329D02*
X0005394Y0230329D01*
X0005394Y0230721D02*
X0469441Y0230721D01*
X0469441Y0231113D02*
X0005394Y0231113D01*
X0005394Y0231505D02*
X0469441Y0231505D01*
X0469441Y0231897D02*
X0005394Y0231897D01*
X0005394Y0232290D02*
X0469441Y0232290D01*
X0469441Y0232682D02*
X0005394Y0232682D01*
X0005394Y0233074D02*
X0469441Y0233074D01*
X0469441Y0233466D02*
X0005394Y0233466D01*
X0005394Y0233858D02*
X0469441Y0233858D01*
X0469441Y0234251D02*
X0005394Y0234251D01*
X0005394Y0234643D02*
X0469441Y0234643D01*
X0469441Y0235035D02*
X0005394Y0235035D01*
X0005394Y0235427D02*
X0469441Y0235427D01*
X0469441Y0235819D02*
X0005394Y0235819D01*
X0005394Y0236212D02*
X0469441Y0236212D01*
X0469441Y0236604D02*
X0005394Y0236604D01*
X0005394Y0236996D02*
X0469441Y0236996D01*
X0469441Y0237388D02*
X0005394Y0237388D01*
X0005394Y0237781D02*
X0469441Y0237781D01*
X0469441Y0238173D02*
X0005394Y0238173D01*
X0005394Y0238565D02*
X0469441Y0238565D01*
X0469441Y0238957D02*
X0005394Y0238957D01*
X0005394Y0239349D02*
X0469441Y0239349D01*
X0469441Y0239742D02*
X0005394Y0239742D01*
X0005394Y0240134D02*
X0469441Y0240134D01*
X0469441Y0240526D02*
X0005394Y0240526D01*
X0005394Y0240918D02*
X0469441Y0240918D01*
X0469441Y0241310D02*
X0005394Y0241310D01*
X0005394Y0241703D02*
X0469441Y0241703D01*
X0469441Y0242095D02*
X0005394Y0242095D01*
X0005394Y0242487D02*
X0469441Y0242487D01*
X0469441Y0242879D02*
X0005394Y0242879D01*
X0005394Y0243272D02*
X0469441Y0243272D01*
X0469441Y0243664D02*
X0005394Y0243664D01*
X0005394Y0244056D02*
X0469441Y0244056D01*
X0469441Y0244448D02*
X0005394Y0244448D01*
X0005394Y0244840D02*
X0469441Y0244840D01*
X0469441Y0245233D02*
X0005394Y0245233D01*
X0005394Y0245625D02*
X0469441Y0245625D01*
X0469441Y0246017D02*
X0005394Y0246017D01*
X0005394Y0246409D02*
X0469441Y0246409D01*
X0469441Y0246801D02*
X0005394Y0246801D01*
X0005394Y0247194D02*
X0469441Y0247194D01*
X0469441Y0247586D02*
X0005394Y0247586D01*
X0005394Y0247978D02*
X0469441Y0247978D01*
X0469441Y0248370D02*
X0005394Y0248370D01*
X0005394Y0248762D02*
X0469441Y0248762D01*
X0469441Y0249155D02*
X0005394Y0249155D01*
X0005394Y0249547D02*
X0469441Y0249547D01*
X0469441Y0249939D02*
X0005394Y0249939D01*
X0005394Y0250331D02*
X0469441Y0250331D01*
X0469441Y0250724D02*
X0005394Y0250724D01*
X0005394Y0251116D02*
X0469441Y0251116D01*
X0469441Y0251508D02*
X0005394Y0251508D01*
X0005394Y0251900D02*
X0469441Y0251900D01*
X0469441Y0252292D02*
X0005394Y0252292D01*
X0005394Y0252685D02*
X0469441Y0252685D01*
X0469441Y0253077D02*
X0005394Y0253077D01*
X0005394Y0253469D02*
X0469441Y0253469D01*
X0469441Y0253861D02*
X0005394Y0253861D01*
X0005394Y0254253D02*
X0469441Y0254253D01*
X0469441Y0254646D02*
X0005394Y0254646D01*
X0005394Y0255038D02*
X0469441Y0255038D01*
X0469441Y0255430D02*
X0005394Y0255430D01*
X0005394Y0255822D02*
X0469441Y0255822D01*
X0469441Y0256215D02*
X0005394Y0256215D01*
X0005394Y0256607D02*
X0469441Y0256607D01*
X0469441Y0256999D02*
X0005394Y0256999D01*
X0005394Y0257391D02*
X0469441Y0257391D01*
X0469441Y0257783D02*
X0005394Y0257783D01*
X0005394Y0258176D02*
X0469441Y0258176D01*
X0469441Y0258568D02*
X0005394Y0258568D01*
X0005394Y0258960D02*
X0469441Y0258960D01*
X0469441Y0259352D02*
X0005394Y0259352D01*
X0005394Y0259744D02*
X0469441Y0259744D01*
X0469441Y0260137D02*
X0005394Y0260137D01*
X0005394Y0260529D02*
X0469441Y0260529D01*
X0469441Y0260921D02*
X0005394Y0260921D01*
X0005394Y0261313D02*
X0469441Y0261313D01*
X0469441Y0261705D02*
X0005394Y0261705D01*
X0005394Y0262098D02*
X0469441Y0262098D01*
X0469441Y0262490D02*
X0005394Y0262490D01*
X0005394Y0262882D02*
X0469441Y0262882D01*
X0469441Y0263274D02*
X0005394Y0263274D01*
X0005394Y0263667D02*
X0469441Y0263667D01*
X0469441Y0264059D02*
X0005394Y0264059D01*
X0005394Y0264451D02*
X0469441Y0264451D01*
X0469441Y0264843D02*
X0005394Y0264843D01*
X0005394Y0265235D02*
X0469441Y0265235D01*
X0469441Y0265628D02*
X0005394Y0265628D01*
X0005394Y0266020D02*
X0469441Y0266020D01*
X0469441Y0266412D02*
X0005394Y0266412D01*
X0005394Y0266804D02*
X0469441Y0266804D01*
X0469441Y0267196D02*
X0005394Y0267196D01*
X0005394Y0267589D02*
X0469441Y0267589D01*
X0469441Y0267981D02*
X0005394Y0267981D01*
X0005394Y0268373D02*
X0469441Y0268373D01*
X0469441Y0268765D02*
X0005394Y0268765D01*
X0005394Y0269158D02*
X0039090Y0269158D01*
X0039237Y0269118D02*
X0041897Y0269118D01*
X0044466Y0269807D01*
X0046770Y0271137D01*
X0048651Y0273017D01*
X0049981Y0275321D01*
X0050669Y0277890D01*
X0050669Y0280550D01*
X0049981Y0283120D01*
X0048651Y0285423D01*
X0046770Y0287304D01*
X0044466Y0288634D01*
X0041897Y0289323D01*
X0039237Y0289323D01*
X0036668Y0288634D01*
X0034364Y0287304D01*
X0032483Y0285423D01*
X0031153Y0283120D01*
X0030465Y0280550D01*
X0030465Y0277890D01*
X0031153Y0275321D01*
X0032483Y0273017D01*
X0034364Y0271137D01*
X0036668Y0269807D01*
X0039237Y0269118D01*
X0037626Y0269550D02*
X0005394Y0269550D01*
X0005394Y0269942D02*
X0036433Y0269942D01*
X0035754Y0270334D02*
X0005394Y0270334D01*
X0005394Y0270726D02*
X0035074Y0270726D01*
X0034395Y0271119D02*
X0005394Y0271119D01*
X0005394Y0271511D02*
X0033990Y0271511D01*
X0033597Y0271903D02*
X0005394Y0271903D01*
X0005394Y0272295D02*
X0033205Y0272295D01*
X0032813Y0272687D02*
X0005394Y0272687D01*
X0005394Y0273080D02*
X0032447Y0273080D01*
X0032221Y0273472D02*
X0005394Y0273472D01*
X0005394Y0273864D02*
X0031994Y0273864D01*
X0031768Y0274256D02*
X0005394Y0274256D01*
X0005394Y0274648D02*
X0031541Y0274648D01*
X0031315Y0275041D02*
X0005394Y0275041D01*
X0005394Y0275433D02*
X0031123Y0275433D01*
X0031018Y0275825D02*
X0005394Y0275825D01*
X0005394Y0276217D02*
X0030913Y0276217D01*
X0030808Y0276610D02*
X0005394Y0276610D01*
X0005394Y0277002D02*
X0030703Y0277002D01*
X0030598Y0277394D02*
X0005394Y0277394D01*
X0005394Y0277786D02*
X0030493Y0277786D01*
X0030465Y0278178D02*
X0005394Y0278178D01*
X0005394Y0278571D02*
X0030465Y0278571D01*
X0030465Y0278963D02*
X0005394Y0278963D01*
X0005394Y0279355D02*
X0030465Y0279355D01*
X0030465Y0279747D02*
X0005394Y0279747D01*
X0005394Y0280139D02*
X0030465Y0280139D01*
X0030465Y0280532D02*
X0005394Y0280532D01*
X0005394Y0280924D02*
X0030565Y0280924D01*
X0030670Y0281316D02*
X0005394Y0281316D01*
X0005394Y0281708D02*
X0030775Y0281708D01*
X0030880Y0282101D02*
X0005394Y0282101D01*
X0005394Y0282493D02*
X0030985Y0282493D01*
X0031090Y0282885D02*
X0005394Y0282885D01*
X0005394Y0283277D02*
X0031244Y0283277D01*
X0031470Y0283669D02*
X0005394Y0283669D01*
X0005394Y0284062D02*
X0031697Y0284062D01*
X0031923Y0284454D02*
X0005394Y0284454D01*
X0005394Y0284846D02*
X0032150Y0284846D01*
X0032376Y0285238D02*
X0005394Y0285238D01*
X0005394Y0285630D02*
X0032690Y0285630D01*
X0033082Y0286023D02*
X0005394Y0286023D01*
X0005394Y0286415D02*
X0033474Y0286415D01*
X0033867Y0286807D02*
X0005394Y0286807D01*
X0005394Y0287199D02*
X0034259Y0287199D01*
X0034861Y0287591D02*
X0005394Y0287591D01*
X0005394Y0287984D02*
X0035541Y0287984D01*
X0036220Y0288376D02*
X0005394Y0288376D01*
X0005394Y0288768D02*
X0037167Y0288768D01*
X0038631Y0289160D02*
X0005394Y0289160D01*
X0005394Y0289553D02*
X0469441Y0289553D01*
X0469441Y0289945D02*
X0005394Y0289945D01*
X0005394Y0290337D02*
X0469441Y0290337D01*
X0469441Y0290729D02*
X0005394Y0290729D01*
X0005394Y0291121D02*
X0469441Y0291121D01*
X0469441Y0291514D02*
X0005394Y0291514D01*
X0005394Y0291906D02*
X0469441Y0291906D01*
X0469441Y0292298D02*
X0005394Y0292298D01*
X0005394Y0292690D02*
X0469441Y0292690D01*
X0469441Y0293082D02*
X0005394Y0293082D01*
X0005394Y0293475D02*
X0469441Y0293475D01*
X0469441Y0293867D02*
X0005394Y0293867D01*
X0005394Y0294259D02*
X0469441Y0294259D01*
X0469441Y0294651D02*
X0005394Y0294651D01*
X0005394Y0295044D02*
X0469441Y0295044D01*
X0469441Y0295436D02*
X0005394Y0295436D01*
X0005394Y0295828D02*
X0469441Y0295828D01*
X0469441Y0296220D02*
X0005394Y0296220D01*
X0005394Y0296612D02*
X0469441Y0296612D01*
X0469441Y0297005D02*
X0005394Y0297005D01*
X0005394Y0297397D02*
X0469441Y0297397D01*
X0469441Y0297789D02*
X0005394Y0297789D01*
X0005394Y0298181D02*
X0469441Y0298181D01*
X0469441Y0298573D02*
X0005394Y0298573D01*
X0005394Y0298966D02*
X0469441Y0298966D01*
X0469441Y0299358D02*
X0005394Y0299358D01*
X0005394Y0299750D02*
X0469441Y0299750D01*
X0469441Y0300142D02*
X0005394Y0300142D01*
X0005394Y0300534D02*
X0469441Y0300534D01*
X0469441Y0300927D02*
X0005394Y0300927D01*
X0005394Y0301319D02*
X0469441Y0301319D01*
X0469441Y0301711D02*
X0005394Y0301711D01*
X0005394Y0302103D02*
X0469441Y0302103D01*
X0469441Y0302496D02*
X0005394Y0302496D01*
X0005394Y0302888D02*
X0469441Y0302888D01*
X0469441Y0303280D02*
X0005394Y0303280D01*
X0005394Y0303672D02*
X0469441Y0303672D01*
X0469441Y0304064D02*
X0005394Y0304064D01*
X0005394Y0304457D02*
X0469441Y0304457D01*
X0469441Y0304849D02*
X0005394Y0304849D01*
X0005394Y0305241D02*
X0469441Y0305241D01*
X0469441Y0305633D02*
X0005394Y0305633D01*
X0005394Y0306025D02*
X0469441Y0306025D01*
X0469441Y0306418D02*
X0005394Y0306418D01*
X0005394Y0306810D02*
X0469441Y0306810D01*
X0469441Y0307202D02*
X0005394Y0307202D01*
X0005394Y0307594D02*
X0469441Y0307594D01*
X0469441Y0307987D02*
X0005394Y0307987D01*
X0005394Y0308379D02*
X0469441Y0308379D01*
X0469441Y0308771D02*
X0005394Y0308771D01*
X0005394Y0309163D02*
X0469441Y0309163D01*
X0469441Y0309555D02*
X0005394Y0309555D01*
X0005394Y0309948D02*
X0469441Y0309948D01*
X0469441Y0310340D02*
X0005394Y0310340D01*
X0005394Y0310732D02*
X0469441Y0310732D01*
X0469441Y0311124D02*
X0005394Y0311124D01*
X0005394Y0311516D02*
X0469441Y0311516D01*
X0469441Y0311909D02*
X0005394Y0311909D01*
X0005394Y0312301D02*
X0469441Y0312301D01*
X0469441Y0312693D02*
X0005394Y0312693D01*
X0005394Y0313085D02*
X0469441Y0313085D01*
X0469441Y0313477D02*
X0005394Y0313477D01*
X0005394Y0313870D02*
X0469441Y0313870D01*
X0469441Y0314262D02*
X0005394Y0314262D01*
X0042503Y0289160D02*
X0432331Y0289160D01*
X0432938Y0289323D02*
X0430368Y0288634D01*
X0428065Y0287304D01*
X0426184Y0285423D01*
X0424854Y0283120D01*
X0424165Y0280550D01*
X0424165Y0277890D01*
X0424854Y0275321D01*
X0426184Y0273017D01*
X0428065Y0271137D01*
X0430368Y0269807D01*
X0432938Y0269118D01*
X0435598Y0269118D01*
X0438167Y0269807D01*
X0440471Y0271137D01*
X0442352Y0273017D01*
X0443682Y0275321D01*
X0444370Y0277890D01*
X0444370Y0280550D01*
X0443682Y0283120D01*
X0442352Y0285423D01*
X0440471Y0287304D01*
X0438167Y0288634D01*
X0435598Y0289323D01*
X0432938Y0289323D01*
X0430868Y0288768D02*
X0043967Y0288768D01*
X0044914Y0288376D02*
X0429921Y0288376D01*
X0429241Y0287984D02*
X0045593Y0287984D01*
X0046273Y0287591D02*
X0428562Y0287591D01*
X0427960Y0287199D02*
X0046875Y0287199D01*
X0047267Y0286807D02*
X0427567Y0286807D01*
X0427175Y0286415D02*
X0047659Y0286415D01*
X0048052Y0286023D02*
X0426783Y0286023D01*
X0426391Y0285630D02*
X0048444Y0285630D01*
X0048758Y0285238D02*
X0426077Y0285238D01*
X0425850Y0284846D02*
X0048984Y0284846D01*
X0049211Y0284454D02*
X0425624Y0284454D01*
X0425398Y0284062D02*
X0049437Y0284062D01*
X0049664Y0283669D02*
X0425171Y0283669D01*
X0424945Y0283277D02*
X0049890Y0283277D01*
X0050044Y0282885D02*
X0424791Y0282885D01*
X0424686Y0282493D02*
X0050149Y0282493D01*
X0050254Y0282101D02*
X0424581Y0282101D01*
X0424476Y0281708D02*
X0050359Y0281708D01*
X0050464Y0281316D02*
X0424371Y0281316D01*
X0424265Y0280924D02*
X0050569Y0280924D01*
X0050669Y0280532D02*
X0424165Y0280532D01*
X0424165Y0280139D02*
X0050669Y0280139D01*
X0050669Y0279747D02*
X0424165Y0279747D01*
X0424165Y0279355D02*
X0050669Y0279355D01*
X0050669Y0278963D02*
X0424165Y0278963D01*
X0424165Y0278571D02*
X0050669Y0278571D01*
X0050669Y0278178D02*
X0424165Y0278178D01*
X0424193Y0277786D02*
X0050641Y0277786D01*
X0050536Y0277394D02*
X0424298Y0277394D01*
X0424403Y0277002D02*
X0050431Y0277002D01*
X0050326Y0276610D02*
X0424509Y0276610D01*
X0424614Y0276217D02*
X0050221Y0276217D01*
X0050116Y0275825D02*
X0424719Y0275825D01*
X0424824Y0275433D02*
X0050011Y0275433D01*
X0049819Y0275041D02*
X0425016Y0275041D01*
X0425242Y0274648D02*
X0049592Y0274648D01*
X0049366Y0274256D02*
X0425469Y0274256D01*
X0425695Y0273864D02*
X0049140Y0273864D01*
X0048913Y0273472D02*
X0425921Y0273472D01*
X0426148Y0273080D02*
X0048687Y0273080D01*
X0048321Y0272687D02*
X0426514Y0272687D01*
X0426906Y0272295D02*
X0047929Y0272295D01*
X0047536Y0271903D02*
X0427298Y0271903D01*
X0427690Y0271511D02*
X0047144Y0271511D01*
X0046739Y0271119D02*
X0428096Y0271119D01*
X0428775Y0270726D02*
X0046059Y0270726D01*
X0045380Y0270334D02*
X0429455Y0270334D01*
X0430134Y0269942D02*
X0044701Y0269942D01*
X0043508Y0269550D02*
X0431327Y0269550D01*
X0432791Y0269158D02*
X0042044Y0269158D01*
X0245423Y0052656D02*
X0431274Y0052656D01*
X0430109Y0052264D02*
X0245109Y0052264D01*
X0244716Y0051872D02*
X0429430Y0051872D01*
X0428750Y0051480D02*
X0244324Y0051480D01*
X0243785Y0051088D02*
X0428071Y0051088D01*
X0427676Y0050695D02*
X0242838Y0050695D01*
X0168962Y0023633D02*
X0469441Y0023633D01*
X0469441Y0024025D02*
X0168814Y0024025D01*
X0168651Y0024417D02*
X0469441Y0024417D01*
X0469441Y0024809D02*
X0168489Y0024809D01*
X0168326Y0025202D02*
X0469441Y0025202D01*
X0469441Y0025594D02*
X0168054Y0025594D01*
X0167661Y0025986D02*
X0469441Y0025986D01*
X0469441Y0026378D02*
X0167269Y0026378D01*
X0166831Y0026770D02*
X0469441Y0026770D01*
X0469441Y0027163D02*
X0165884Y0027163D01*
X0168962Y0023241D02*
X0469441Y0023241D01*
X0469441Y0022848D02*
X0168962Y0022848D01*
X0168962Y0022456D02*
X0469441Y0022456D01*
X0469441Y0022064D02*
X0168962Y0022064D01*
X0168962Y0021672D02*
X0469441Y0021672D01*
X0469441Y0021279D02*
X0168962Y0021279D01*
X0168962Y0020887D02*
X0469441Y0020887D01*
X0469441Y0020495D02*
X0168962Y0020495D01*
X0168962Y0020103D02*
X0469441Y0020103D01*
X0469441Y0019711D02*
X0168962Y0019711D01*
X0168962Y0019318D02*
X0469441Y0019318D01*
X0469441Y0018926D02*
X0168962Y0018926D01*
X0168962Y0018534D02*
X0469441Y0018534D01*
X0469441Y0018142D02*
X0168962Y0018142D01*
X0168962Y0017750D02*
X0469441Y0017750D01*
X0469441Y0017357D02*
X0168962Y0017357D01*
X0168962Y0016965D02*
X0469441Y0016965D01*
X0469441Y0016573D02*
X0168962Y0016573D01*
X0168962Y0016181D02*
X0469441Y0016181D01*
X0469441Y0015788D02*
X0168962Y0015788D01*
X0168962Y0015396D02*
X0469441Y0015396D01*
X0469441Y0015004D02*
X0168962Y0015004D01*
X0168962Y0014612D02*
X0469441Y0014612D01*
X0469441Y0014220D02*
X0168962Y0014220D01*
X0168929Y0013827D02*
X0469441Y0013827D01*
X0469441Y0013435D02*
X0168766Y0013435D01*
X0168604Y0013043D02*
X0469441Y0013043D01*
X0469441Y0012651D02*
X0168441Y0012651D01*
X0168279Y0012259D02*
X0469441Y0012259D01*
X0469441Y0011866D02*
X0167939Y0011866D01*
X0167547Y0011474D02*
X0469441Y0011474D01*
X0469441Y0011082D02*
X0167155Y0011082D01*
X0166554Y0010690D02*
X0469441Y0010690D01*
X0469441Y0010298D02*
X0165607Y0010298D01*
X0435745Y0269158D02*
X0469441Y0269158D01*
X0469441Y0269550D02*
X0437209Y0269550D01*
X0438402Y0269942D02*
X0469441Y0269942D01*
X0469441Y0270334D02*
X0439081Y0270334D01*
X0439760Y0270726D02*
X0469441Y0270726D01*
X0469441Y0271119D02*
X0440440Y0271119D01*
X0440845Y0271511D02*
X0469441Y0271511D01*
X0469441Y0271903D02*
X0441237Y0271903D01*
X0441629Y0272295D02*
X0469441Y0272295D01*
X0469441Y0272687D02*
X0442022Y0272687D01*
X0442387Y0273080D02*
X0469441Y0273080D01*
X0469441Y0273472D02*
X0442614Y0273472D01*
X0442840Y0273864D02*
X0469441Y0273864D01*
X0469441Y0274256D02*
X0443067Y0274256D01*
X0443293Y0274648D02*
X0469441Y0274648D01*
X0469441Y0275041D02*
X0443520Y0275041D01*
X0443712Y0275433D02*
X0469441Y0275433D01*
X0469441Y0275825D02*
X0443817Y0275825D01*
X0443922Y0276217D02*
X0469441Y0276217D01*
X0469441Y0276610D02*
X0444027Y0276610D01*
X0444132Y0277002D02*
X0469441Y0277002D01*
X0469441Y0277394D02*
X0444237Y0277394D01*
X0444342Y0277786D02*
X0469441Y0277786D01*
X0469441Y0278178D02*
X0444370Y0278178D01*
X0444370Y0278571D02*
X0469441Y0278571D01*
X0469441Y0278963D02*
X0444370Y0278963D01*
X0444370Y0279355D02*
X0469441Y0279355D01*
X0469441Y0279747D02*
X0444370Y0279747D01*
X0444370Y0280139D02*
X0469441Y0280139D01*
X0469441Y0280532D02*
X0444370Y0280532D01*
X0444270Y0280924D02*
X0469441Y0280924D01*
X0469441Y0281316D02*
X0444165Y0281316D01*
X0444060Y0281708D02*
X0469441Y0281708D01*
X0469441Y0282101D02*
X0443955Y0282101D01*
X0443850Y0282493D02*
X0469441Y0282493D01*
X0469441Y0282885D02*
X0443745Y0282885D01*
X0443591Y0283277D02*
X0469441Y0283277D01*
X0469441Y0283669D02*
X0443364Y0283669D01*
X0443138Y0284062D02*
X0469441Y0284062D01*
X0469441Y0284454D02*
X0442911Y0284454D01*
X0442685Y0284846D02*
X0469441Y0284846D01*
X0469441Y0285238D02*
X0442459Y0285238D01*
X0442145Y0285630D02*
X0469441Y0285630D01*
X0469441Y0286023D02*
X0441752Y0286023D01*
X0441360Y0286415D02*
X0469441Y0286415D01*
X0469441Y0286807D02*
X0440968Y0286807D01*
X0440576Y0287199D02*
X0469441Y0287199D01*
X0469441Y0287591D02*
X0439973Y0287591D01*
X0439294Y0287984D02*
X0469441Y0287984D01*
X0469441Y0288376D02*
X0438615Y0288376D01*
X0437668Y0288768D02*
X0469441Y0288768D01*
X0469441Y0289160D02*
X0436204Y0289160D01*
M02*
