G04 EAGLE Gerber RS-274X export*
G75*
%MOMM*%
%FSLAX34Y34*%
%LPD*%
%INSolderpaste Top*%
%IPPOS*%
%AMOC8*
5,1,8,0,0,1.08239X$1,22.5*%
G01*
%ADD10R,1.000000X1.100000*%
%ADD11R,1.100000X1.000000*%
%ADD12C,0.775000*%
%ADD13R,1.400000X1.640000*%
%ADD14C,1.000000*%
%ADD15R,2.700000X3.300000*%
%ADD16R,2.700000X1.000000*%
%ADD17R,1.803000X1.600000*%
%ADD18C,1.500000*%
%ADD19R,1.300000X1.300000*%
%ADD20C,0.300000*%
%ADD21R,2.650000X1.750000*%
%ADD22C,0.360000*%


D10*
X746150Y245600D03*
X746150Y262600D03*
X765200Y245600D03*
X765200Y262600D03*
X823300Y228500D03*
X823300Y245500D03*
X843280Y167250D03*
X843280Y150250D03*
D11*
X963050Y82550D03*
X980050Y82550D03*
X963050Y114300D03*
X980050Y114300D03*
X963050Y57150D03*
X980050Y57150D03*
X1018150Y57150D03*
X1001150Y57150D03*
X1001150Y82550D03*
X1018150Y82550D03*
D10*
X863600Y150250D03*
X863600Y167250D03*
D12*
X604275Y829375D02*
X591025Y829375D01*
X604275Y829375D02*
X604275Y821625D01*
X591025Y821625D01*
X591025Y829375D01*
X591025Y828987D02*
X604275Y828987D01*
X604275Y854775D02*
X591025Y854775D01*
X604275Y854775D02*
X604275Y847025D01*
X591025Y847025D01*
X591025Y854775D01*
X591025Y854387D02*
X604275Y854387D01*
X539275Y854775D02*
X526025Y854775D01*
X539275Y854775D02*
X539275Y847025D01*
X526025Y847025D01*
X526025Y854775D01*
X526025Y854387D02*
X539275Y854387D01*
X539275Y829375D02*
X526025Y829375D01*
X539275Y829375D02*
X539275Y821625D01*
X526025Y821625D01*
X526025Y829375D01*
X526025Y828987D02*
X539275Y828987D01*
D13*
X1040300Y69850D03*
X1080600Y69850D03*
D14*
X1218520Y176520D03*
D15*
X1070900Y133350D03*
D16*
X1011900Y110350D03*
X1011900Y133350D03*
X1011900Y156350D03*
D17*
X450850Y884170D03*
X450850Y855730D03*
X450850Y795270D03*
X450850Y766830D03*
D11*
X730250Y211700D03*
X730250Y194700D03*
X704850Y194700D03*
X704850Y211700D03*
D10*
X897500Y209550D03*
X880500Y209550D03*
X935600Y209550D03*
X918600Y209550D03*
X935600Y165100D03*
X918600Y165100D03*
X918600Y184150D03*
X935600Y184150D03*
D11*
X723900Y262500D03*
X723900Y245500D03*
X698500Y262500D03*
X698500Y245500D03*
D18*
X529950Y198600D02*
X514950Y198600D01*
X514950Y258600D01*
X529950Y258600D01*
X529950Y198600D01*
X529950Y212850D02*
X514950Y212850D01*
X514950Y227100D02*
X529950Y227100D01*
X529950Y241350D02*
X514950Y241350D01*
X514950Y255600D02*
X529950Y255600D01*
X574950Y198600D02*
X589950Y198600D01*
X574950Y198600D02*
X574950Y258600D01*
X589950Y258600D01*
X589950Y198600D01*
X589950Y212850D02*
X574950Y212850D01*
X574950Y227100D02*
X589950Y227100D01*
X589950Y241350D02*
X574950Y241350D01*
X574950Y255600D02*
X589950Y255600D01*
X811050Y286350D02*
X811050Y301350D01*
X811050Y286350D02*
X751050Y286350D01*
X751050Y301350D01*
X811050Y301350D01*
X811050Y300600D02*
X751050Y300600D01*
X811050Y346350D02*
X811050Y361350D01*
X811050Y346350D02*
X751050Y346350D01*
X751050Y361350D01*
X811050Y361350D01*
X811050Y360600D02*
X751050Y360600D01*
X865350Y120050D02*
X865350Y105050D01*
X865350Y120050D02*
X925350Y120050D01*
X925350Y105050D01*
X865350Y105050D01*
X865350Y119300D02*
X925350Y119300D01*
X865350Y60050D02*
X865350Y45050D01*
X865350Y60050D02*
X925350Y60050D01*
X925350Y45050D01*
X865350Y45050D01*
X865350Y59300D02*
X925350Y59300D01*
D14*
X107950Y44450D03*
D19*
X754000Y52000D03*
X788000Y52000D03*
X1168000Y105000D03*
X1134000Y105000D03*
D10*
X823500Y52000D03*
X806500Y52000D03*
X1095500Y105000D03*
X1112500Y105000D03*
D20*
X808000Y229500D02*
X805000Y229500D01*
X808000Y229500D02*
X808000Y221500D01*
X805000Y221500D01*
X805000Y229500D01*
X805000Y224350D02*
X808000Y224350D01*
X808000Y227200D02*
X805000Y227200D01*
X789000Y229500D02*
X786000Y229500D01*
X789000Y229500D02*
X789000Y221500D01*
X786000Y221500D01*
X786000Y229500D01*
X786000Y224350D02*
X789000Y224350D01*
X789000Y227200D02*
X786000Y227200D01*
X786000Y256500D02*
X789000Y256500D01*
X789000Y248500D01*
X786000Y248500D01*
X786000Y256500D01*
X786000Y251350D02*
X789000Y251350D01*
X789000Y254200D02*
X786000Y254200D01*
X795500Y256500D02*
X798500Y256500D01*
X798500Y248500D01*
X795500Y248500D01*
X795500Y256500D01*
X795500Y251350D02*
X798500Y251350D01*
X798500Y254200D02*
X795500Y254200D01*
X805000Y256500D02*
X808000Y256500D01*
X808000Y248500D01*
X805000Y248500D01*
X805000Y256500D01*
X805000Y251350D02*
X808000Y251350D01*
X808000Y254200D02*
X805000Y254200D01*
X798500Y229500D02*
X795500Y229500D01*
X798500Y229500D02*
X798500Y221500D01*
X795500Y221500D01*
X795500Y229500D01*
X795500Y224350D02*
X798500Y224350D01*
X798500Y227200D02*
X795500Y227200D01*
X880650Y171590D02*
X883650Y171590D01*
X880650Y171590D02*
X880650Y179590D01*
X883650Y179590D01*
X883650Y171590D01*
X883650Y174440D02*
X880650Y174440D01*
X880650Y177290D02*
X883650Y177290D01*
X899650Y171590D02*
X902650Y171590D01*
X899650Y171590D02*
X899650Y179590D01*
X902650Y179590D01*
X902650Y171590D01*
X902650Y174440D02*
X899650Y174440D01*
X899650Y177290D02*
X902650Y177290D01*
X902650Y144590D02*
X899650Y144590D01*
X899650Y152590D01*
X902650Y152590D01*
X902650Y144590D01*
X902650Y147440D02*
X899650Y147440D01*
X899650Y150290D02*
X902650Y150290D01*
X893150Y144590D02*
X890150Y144590D01*
X890150Y152590D01*
X893150Y152590D01*
X893150Y144590D01*
X893150Y147440D02*
X890150Y147440D01*
X890150Y150290D02*
X893150Y150290D01*
X883650Y144590D02*
X880650Y144590D01*
X880650Y152590D01*
X883650Y152590D01*
X883650Y144590D01*
X883650Y147440D02*
X880650Y147440D01*
X880650Y150290D02*
X883650Y150290D01*
X890150Y171590D02*
X893150Y171590D01*
X890150Y171590D02*
X890150Y179590D01*
X893150Y179590D01*
X893150Y171590D01*
X893150Y174440D02*
X890150Y174440D01*
X890150Y177290D02*
X893150Y177290D01*
D10*
X878840Y444890D03*
X878840Y461890D03*
X935110Y576580D03*
X952110Y576580D03*
X900430Y444890D03*
X900430Y461890D03*
D11*
X888610Y576580D03*
X871610Y576580D03*
D18*
X1025800Y513870D02*
X1040800Y513870D01*
X1040800Y453870D01*
X1025800Y453870D01*
X1025800Y513870D01*
X1025800Y468120D02*
X1040800Y468120D01*
X1040800Y482370D02*
X1025800Y482370D01*
X1025800Y496620D02*
X1040800Y496620D01*
X1040800Y510870D02*
X1025800Y510870D01*
X980800Y513870D02*
X965800Y513870D01*
X980800Y513870D02*
X980800Y453870D01*
X965800Y453870D01*
X965800Y513870D01*
X965800Y468120D02*
X980800Y468120D01*
X980800Y482370D02*
X965800Y482370D01*
X965800Y496620D02*
X980800Y496620D01*
X980800Y510870D02*
X965800Y510870D01*
D21*
X983150Y546100D03*
X1023450Y546100D03*
D22*
X921490Y539670D02*
X921490Y555070D01*
X925090Y555070D01*
X925090Y539670D01*
X921490Y539670D01*
X921490Y543090D02*
X925090Y543090D01*
X925090Y546510D02*
X921490Y546510D01*
X921490Y549930D02*
X925090Y549930D01*
X925090Y553350D02*
X921490Y553350D01*
X908790Y555070D02*
X908790Y539670D01*
X908790Y555070D02*
X912390Y555070D01*
X912390Y539670D01*
X908790Y539670D01*
X908790Y543090D02*
X912390Y543090D01*
X912390Y546510D02*
X908790Y546510D01*
X908790Y549930D02*
X912390Y549930D01*
X912390Y553350D02*
X908790Y553350D01*
X896090Y555070D02*
X896090Y539670D01*
X896090Y555070D02*
X899690Y555070D01*
X899690Y539670D01*
X896090Y539670D01*
X896090Y543090D02*
X899690Y543090D01*
X899690Y546510D02*
X896090Y546510D01*
X896090Y549930D02*
X899690Y549930D01*
X899690Y553350D02*
X896090Y553350D01*
X883390Y555070D02*
X883390Y539670D01*
X883390Y555070D02*
X886990Y555070D01*
X886990Y539670D01*
X883390Y539670D01*
X883390Y543090D02*
X886990Y543090D01*
X886990Y546510D02*
X883390Y546510D01*
X883390Y549930D02*
X886990Y549930D01*
X886990Y553350D02*
X883390Y553350D01*
X883390Y504270D02*
X883390Y488870D01*
X883390Y504270D02*
X886990Y504270D01*
X886990Y488870D01*
X883390Y488870D01*
X883390Y492290D02*
X886990Y492290D01*
X886990Y495710D02*
X883390Y495710D01*
X883390Y499130D02*
X886990Y499130D01*
X886990Y502550D02*
X883390Y502550D01*
X896090Y504270D02*
X896090Y488870D01*
X896090Y504270D02*
X899690Y504270D01*
X899690Y488870D01*
X896090Y488870D01*
X896090Y492290D02*
X899690Y492290D01*
X899690Y495710D02*
X896090Y495710D01*
X896090Y499130D02*
X899690Y499130D01*
X899690Y502550D02*
X896090Y502550D01*
X908790Y504270D02*
X908790Y488870D01*
X908790Y504270D02*
X912390Y504270D01*
X912390Y488870D01*
X908790Y488870D01*
X908790Y492290D02*
X912390Y492290D01*
X912390Y495710D02*
X908790Y495710D01*
X908790Y499130D02*
X912390Y499130D01*
X912390Y502550D02*
X908790Y502550D01*
X921490Y504270D02*
X921490Y488870D01*
X921490Y504270D02*
X925090Y504270D01*
X925090Y488870D01*
X921490Y488870D01*
X921490Y492290D02*
X925090Y492290D01*
X925090Y495710D02*
X921490Y495710D01*
X921490Y499130D02*
X925090Y499130D01*
X925090Y502550D02*
X921490Y502550D01*
D10*
X903360Y576580D03*
X920360Y576580D03*
M02*
