G04 EAGLE Gerber RS-274X export*
G75*
%MOIN*%
%FSLAX34Y34*%
%LPD*%
%INBottom Copper*%
%IPPOS*%
%AMOC8*
5,1,8,0,0,1.08239X$1,22.5*%
G01*
%ADD10C,0.057087*%
%ADD11C,0.047244*%
%ADD12C,0.059055*%
%ADD13C,0.066929*%
%ADD14R,0.066929X0.066929*%
%ADD15R,0.064961X0.064961*%
%ADD16C,0.064961*%
%ADD17C,0.084646*%
%ADD18R,0.055000X0.055000*%
%ADD19C,0.055000*%
%ADD20R,0.061811X0.061811*%
%ADD21C,0.061811*%
%ADD22R,0.078740X0.078740*%
%ADD23C,0.078740*%
%ADD24R,0.051496X0.051496*%
%ADD25C,0.051496*%
%ADD26R,0.061024X0.061024*%
%ADD27C,0.061024*%
%ADD28C,0.098425*%
%ADD29R,0.090551X0.090551*%
%ADD30C,0.100000*%
%ADD31C,0.055433*%
%ADD32C,0.029780*%
%ADD33C,0.010000*%
%ADD34C,0.050000*%
%ADD35C,0.020000*%
%ADD36C,0.016000*%
%ADD37C,0.012000*%
%ADD38C,0.032000*%
%ADD39C,0.075000*%

G36*
X1742Y401D02*
X1742Y401D01*
X1745Y401D01*
X1747Y402D01*
X1749Y402D01*
X1751Y404D01*
X1754Y405D01*
X1755Y406D01*
X1757Y407D01*
X1759Y409D01*
X1761Y411D01*
X1762Y412D01*
X1764Y414D01*
X1765Y417D01*
X1766Y419D01*
X1767Y421D01*
X1767Y423D01*
X1768Y425D01*
X1768Y428D01*
X1768Y430D01*
X1768Y432D01*
X1768Y435D01*
X1767Y438D01*
X1767Y440D01*
X1766Y441D01*
X1765Y444D01*
X1763Y447D01*
X1761Y449D01*
X1761Y450D01*
X1760Y451D01*
X1028Y1182D01*
X937Y1274D01*
X889Y1388D01*
X889Y6009D01*
X889Y6013D01*
X888Y6017D01*
X888Y6018D01*
X888Y6019D01*
X886Y6022D01*
X884Y6026D01*
X883Y6027D01*
X883Y6028D01*
X881Y6030D01*
X687Y6224D01*
X639Y6338D01*
X639Y22112D01*
X687Y22226D01*
X1674Y23213D01*
X1788Y23261D01*
X1912Y23261D01*
X2026Y23213D01*
X2113Y23126D01*
X2121Y23109D01*
X2123Y23105D01*
X2126Y23101D01*
X2129Y23098D01*
X2133Y23095D01*
X2138Y23093D01*
X2142Y23091D01*
X2148Y23091D01*
X2306Y23091D01*
X2309Y23091D01*
X2313Y23092D01*
X2314Y23092D01*
X2315Y23092D01*
X2318Y23094D01*
X2322Y23096D01*
X2323Y23096D01*
X2323Y23097D01*
X2326Y23100D01*
X2329Y23102D01*
X2329Y23103D01*
X2330Y23104D01*
X2331Y23107D01*
X2333Y23111D01*
X2333Y23112D01*
X2334Y23113D01*
X2334Y23116D01*
X2335Y23120D01*
X2335Y23121D01*
X2335Y23122D01*
X2334Y23126D01*
X2333Y23130D01*
X2332Y23131D01*
X2330Y23135D01*
X2329Y23138D01*
X2328Y23139D01*
X2327Y23139D01*
X2324Y23142D01*
X2321Y23145D01*
X2320Y23145D01*
X2319Y23146D01*
X2317Y23147D01*
X2143Y23219D01*
X1899Y23463D01*
X1767Y23781D01*
X1767Y24125D01*
X1899Y24443D01*
X2143Y24686D01*
X2461Y24818D01*
X2805Y24818D01*
X3123Y24686D01*
X3366Y24443D01*
X3498Y24125D01*
X3498Y23781D01*
X3366Y23463D01*
X3123Y23219D01*
X2949Y23147D01*
X2945Y23145D01*
X2942Y23143D01*
X2941Y23142D01*
X2938Y23139D01*
X2935Y23136D01*
X2935Y23135D01*
X2934Y23135D01*
X2933Y23131D01*
X2932Y23127D01*
X2931Y23126D01*
X2931Y23122D01*
X2931Y23118D01*
X2931Y23117D01*
X2931Y23116D01*
X2932Y23112D01*
X2933Y23109D01*
X2933Y23108D01*
X2934Y23107D01*
X2936Y23104D01*
X2938Y23101D01*
X2939Y23100D01*
X2939Y23099D01*
X2942Y23097D01*
X2945Y23095D01*
X2946Y23094D01*
X2947Y23094D01*
X2951Y23093D01*
X2954Y23091D01*
X2956Y23091D01*
X2957Y23091D01*
X2960Y23091D01*
X8508Y23091D01*
X11106Y20493D01*
X11109Y20491D01*
X11112Y20488D01*
X11113Y20488D01*
X11114Y20488D01*
X11117Y20487D01*
X11121Y20485D01*
X11122Y20485D01*
X11123Y20485D01*
X11124Y20485D01*
X11127Y20485D01*
X11262Y20485D01*
X11385Y20362D01*
X11385Y20188D01*
X11262Y20065D01*
X11088Y20065D01*
X10965Y20188D01*
X10965Y20223D01*
X10965Y20227D01*
X10964Y20231D01*
X10964Y20232D01*
X10964Y20233D01*
X10962Y20236D01*
X10960Y20240D01*
X10960Y20241D01*
X10959Y20241D01*
X10959Y20242D01*
X10957Y20244D01*
X8400Y22801D01*
X8397Y22803D01*
X8394Y22805D01*
X8393Y22806D01*
X8392Y22806D01*
X8389Y22807D01*
X8385Y22809D01*
X8384Y22809D01*
X8383Y22809D01*
X8380Y22809D01*
X2148Y22809D01*
X2147Y22809D01*
X2143Y22808D01*
X2138Y22808D01*
X2134Y22805D01*
X2130Y22803D01*
X2126Y22800D01*
X2123Y22796D01*
X2121Y22791D01*
X2113Y22774D01*
X1269Y21930D01*
X1267Y21927D01*
X1265Y21924D01*
X1264Y21923D01*
X1264Y21922D01*
X1263Y21918D01*
X1261Y21915D01*
X1261Y21913D01*
X1261Y21912D01*
X1261Y21909D01*
X1261Y15525D01*
X1261Y15524D01*
X1261Y15523D01*
X1262Y15519D01*
X1262Y15515D01*
X1263Y15514D01*
X1263Y15513D01*
X1265Y15510D01*
X1267Y15507D01*
X1268Y15506D01*
X1268Y15505D01*
X1271Y15503D01*
X1274Y15500D01*
X1275Y15500D01*
X1276Y15499D01*
X1279Y15498D01*
X1283Y15496D01*
X1284Y15496D01*
X1285Y15496D01*
X1290Y15495D01*
X1960Y15495D01*
X1995Y15460D01*
X1995Y14740D01*
X1960Y14705D01*
X1290Y14705D01*
X1289Y14704D01*
X1288Y14705D01*
X1284Y14704D01*
X1281Y14703D01*
X1280Y14703D01*
X1279Y14702D01*
X1275Y14700D01*
X1272Y14699D01*
X1271Y14698D01*
X1271Y14697D01*
X1268Y14694D01*
X1266Y14692D01*
X1265Y14691D01*
X1265Y14690D01*
X1263Y14686D01*
X1262Y14683D01*
X1262Y14682D01*
X1261Y14681D01*
X1261Y14675D01*
X1261Y14391D01*
X1261Y14388D01*
X1261Y14385D01*
X1262Y14383D01*
X1262Y14381D01*
X1264Y14379D01*
X1265Y14376D01*
X1266Y14374D01*
X1267Y14373D01*
X1269Y14371D01*
X1271Y14368D01*
X1272Y14367D01*
X1274Y14366D01*
X1277Y14365D01*
X1279Y14363D01*
X1281Y14363D01*
X1283Y14362D01*
X1285Y14362D01*
X1288Y14361D01*
X1290Y14362D01*
X1292Y14361D01*
X1295Y14362D01*
X1298Y14362D01*
X1300Y14363D01*
X1301Y14364D01*
X1304Y14365D01*
X1307Y14366D01*
X1309Y14368D01*
X1309Y14369D01*
X1310Y14369D01*
X1311Y14370D01*
X1376Y14435D01*
X1521Y14495D01*
X1679Y14495D01*
X1824Y14435D01*
X1935Y14324D01*
X1995Y14179D01*
X1995Y14021D01*
X1935Y13876D01*
X1824Y13765D01*
X1679Y13705D01*
X1521Y13705D01*
X1376Y13765D01*
X1311Y13830D01*
X1308Y13832D01*
X1306Y13834D01*
X1304Y13835D01*
X1303Y13836D01*
X1300Y13837D01*
X1297Y13838D01*
X1296Y13838D01*
X1294Y13838D01*
X1291Y13838D01*
X1288Y13839D01*
X1286Y13838D01*
X1284Y13838D01*
X1281Y13837D01*
X1279Y13836D01*
X1277Y13835D01*
X1275Y13835D01*
X1273Y13833D01*
X1271Y13831D01*
X1269Y13830D01*
X1268Y13829D01*
X1266Y13826D01*
X1265Y13824D01*
X1264Y13822D01*
X1263Y13820D01*
X1262Y13818D01*
X1261Y13815D01*
X1261Y13812D01*
X1261Y13811D01*
X1261Y13809D01*
X1261Y13391D01*
X1261Y13388D01*
X1261Y13385D01*
X1262Y13383D01*
X1262Y13381D01*
X1264Y13379D01*
X1265Y13376D01*
X1266Y13374D01*
X1267Y13373D01*
X1269Y13371D01*
X1271Y13368D01*
X1272Y13367D01*
X1274Y13366D01*
X1277Y13365D01*
X1279Y13363D01*
X1281Y13363D01*
X1283Y13362D01*
X1285Y13362D01*
X1288Y13361D01*
X1290Y13362D01*
X1292Y13361D01*
X1295Y13362D01*
X1298Y13362D01*
X1300Y13363D01*
X1301Y13364D01*
X1304Y13365D01*
X1307Y13366D01*
X1309Y13368D01*
X1309Y13369D01*
X1310Y13369D01*
X1311Y13370D01*
X1376Y13435D01*
X1521Y13495D01*
X1679Y13495D01*
X1824Y13435D01*
X1935Y13324D01*
X1995Y13179D01*
X1995Y13021D01*
X1935Y12876D01*
X1824Y12765D01*
X1679Y12705D01*
X1521Y12705D01*
X1376Y12765D01*
X1311Y12830D01*
X1308Y12832D01*
X1306Y12834D01*
X1304Y12835D01*
X1303Y12836D01*
X1300Y12837D01*
X1297Y12838D01*
X1296Y12838D01*
X1294Y12838D01*
X1291Y12838D01*
X1288Y12839D01*
X1286Y12838D01*
X1284Y12838D01*
X1281Y12837D01*
X1279Y12836D01*
X1277Y12835D01*
X1275Y12835D01*
X1273Y12833D01*
X1271Y12831D01*
X1269Y12830D01*
X1268Y12829D01*
X1266Y12826D01*
X1265Y12824D01*
X1264Y12822D01*
X1263Y12820D01*
X1262Y12818D01*
X1261Y12815D01*
X1261Y12812D01*
X1261Y12811D01*
X1261Y12809D01*
X1261Y6541D01*
X1261Y6537D01*
X1262Y6533D01*
X1262Y6532D01*
X1262Y6531D01*
X1264Y6528D01*
X1266Y6524D01*
X1267Y6523D01*
X1267Y6522D01*
X1269Y6520D01*
X1375Y6415D01*
X1375Y6414D01*
X1376Y6414D01*
X1379Y6412D01*
X1382Y6409D01*
X1383Y6409D01*
X1384Y6409D01*
X1388Y6408D01*
X1391Y6407D01*
X1393Y6407D01*
X1394Y6406D01*
X1397Y6407D01*
X1401Y6407D01*
X1402Y6407D01*
X1403Y6407D01*
X1406Y6409D01*
X1410Y6410D01*
X1411Y6411D01*
X1412Y6411D01*
X1416Y6415D01*
X1781Y6780D01*
X1783Y6783D01*
X1785Y6786D01*
X1786Y6787D01*
X1786Y6788D01*
X1787Y6791D01*
X1789Y6795D01*
X1789Y6796D01*
X1789Y6797D01*
X1789Y6800D01*
X1789Y6817D01*
X3732Y8759D01*
X3734Y8762D01*
X3737Y8765D01*
X3737Y8766D01*
X3737Y8767D01*
X3738Y8771D01*
X3740Y8774D01*
X3740Y8776D01*
X3740Y8777D01*
X3740Y8780D01*
X3740Y8837D01*
X3863Y8960D01*
X4037Y8960D01*
X4160Y8837D01*
X4160Y8663D01*
X4037Y8540D01*
X3980Y8540D01*
X3976Y8540D01*
X3972Y8539D01*
X3971Y8539D01*
X3970Y8539D01*
X3967Y8537D01*
X3963Y8535D01*
X3962Y8535D01*
X3962Y8534D01*
X3961Y8534D01*
X3959Y8532D01*
X2017Y6589D01*
X2000Y6589D01*
X1996Y6589D01*
X1993Y6588D01*
X1992Y6588D01*
X1991Y6588D01*
X1987Y6586D01*
X1984Y6584D01*
X1983Y6583D01*
X1982Y6583D01*
X1980Y6581D01*
X1519Y6120D01*
X1517Y6117D01*
X1515Y6114D01*
X1514Y6113D01*
X1514Y6112D01*
X1513Y6109D01*
X1511Y6105D01*
X1511Y6104D01*
X1511Y6103D01*
X1511Y6102D01*
X1511Y6100D01*
X1511Y1591D01*
X1511Y1587D01*
X1512Y1583D01*
X1512Y1582D01*
X1512Y1581D01*
X1514Y1578D01*
X1516Y1574D01*
X1517Y1573D01*
X1517Y1572D01*
X1519Y1570D01*
X2070Y1019D01*
X2073Y1017D01*
X2076Y1015D01*
X2077Y1014D01*
X2078Y1014D01*
X2082Y1013D01*
X2085Y1011D01*
X2087Y1011D01*
X2088Y1011D01*
X2091Y1011D01*
X6025Y1011D01*
X6026Y1011D01*
X6027Y1011D01*
X6031Y1012D01*
X6035Y1012D01*
X6036Y1013D01*
X6037Y1013D01*
X6040Y1015D01*
X6043Y1017D01*
X6044Y1018D01*
X6045Y1018D01*
X6047Y1021D01*
X6050Y1024D01*
X6050Y1025D01*
X6051Y1026D01*
X6052Y1029D01*
X6054Y1033D01*
X6054Y1034D01*
X6054Y1035D01*
X6055Y1040D01*
X6055Y1760D01*
X6090Y1795D01*
X6810Y1795D01*
X6845Y1760D01*
X6845Y1040D01*
X6846Y1039D01*
X6845Y1038D01*
X6846Y1034D01*
X6847Y1031D01*
X6847Y1030D01*
X6848Y1029D01*
X6850Y1025D01*
X6851Y1022D01*
X6852Y1021D01*
X6853Y1021D01*
X6856Y1018D01*
X6858Y1016D01*
X6859Y1015D01*
X6860Y1015D01*
X6864Y1013D01*
X6867Y1012D01*
X6868Y1012D01*
X6869Y1011D01*
X6875Y1011D01*
X7209Y1011D01*
X7210Y1011D01*
X7211Y1011D01*
X7213Y1011D01*
X7215Y1011D01*
X7217Y1012D01*
X7219Y1012D01*
X7219Y1013D01*
X7220Y1013D01*
X7222Y1014D01*
X7224Y1015D01*
X7226Y1016D01*
X7227Y1017D01*
X7228Y1017D01*
X7228Y1018D01*
X7230Y1019D01*
X7232Y1021D01*
X7233Y1022D01*
X7234Y1024D01*
X7234Y1025D01*
X7235Y1027D01*
X7237Y1029D01*
X7237Y1031D01*
X7238Y1033D01*
X7238Y1034D01*
X7238Y1036D01*
X7239Y1038D01*
X7238Y1040D01*
X7239Y1042D01*
X7239Y1043D01*
X7238Y1046D01*
X7238Y1048D01*
X7237Y1050D01*
X7236Y1051D01*
X7236Y1052D01*
X7235Y1054D01*
X7234Y1057D01*
X7232Y1059D01*
X7231Y1059D01*
X7231Y1060D01*
X7230Y1060D01*
X7230Y1061D01*
X7115Y1176D01*
X7055Y1321D01*
X7055Y1479D01*
X7115Y1624D01*
X7226Y1735D01*
X7371Y1795D01*
X7529Y1795D01*
X7674Y1735D01*
X7785Y1624D01*
X7845Y1479D01*
X7845Y1321D01*
X7785Y1176D01*
X7670Y1061D01*
X7668Y1059D01*
X7667Y1057D01*
X7666Y1056D01*
X7665Y1054D01*
X7664Y1053D01*
X7664Y1051D01*
X7663Y1048D01*
X7662Y1048D01*
X7662Y1047D01*
X7662Y1045D01*
X7662Y1044D01*
X7662Y1041D01*
X7661Y1039D01*
X7661Y1038D01*
X7662Y1036D01*
X7662Y1034D01*
X7663Y1032D01*
X7663Y1030D01*
X7663Y1029D01*
X7664Y1029D01*
X7665Y1027D01*
X7665Y1025D01*
X7667Y1023D01*
X7668Y1021D01*
X7669Y1021D01*
X7670Y1019D01*
X7671Y1018D01*
X7673Y1017D01*
X7675Y1015D01*
X7676Y1015D01*
X7678Y1014D01*
X7680Y1013D01*
X7682Y1012D01*
X7684Y1011D01*
X7685Y1011D01*
X7688Y1011D01*
X7689Y1011D01*
X7691Y1011D01*
X8209Y1011D01*
X8210Y1011D01*
X8211Y1011D01*
X8213Y1011D01*
X8215Y1011D01*
X8217Y1012D01*
X8219Y1012D01*
X8219Y1013D01*
X8220Y1013D01*
X8222Y1014D01*
X8224Y1015D01*
X8226Y1016D01*
X8227Y1017D01*
X8228Y1017D01*
X8228Y1018D01*
X8230Y1019D01*
X8232Y1021D01*
X8233Y1022D01*
X8234Y1024D01*
X8234Y1025D01*
X8235Y1027D01*
X8237Y1029D01*
X8237Y1031D01*
X8238Y1033D01*
X8238Y1034D01*
X8238Y1036D01*
X8239Y1038D01*
X8238Y1040D01*
X8239Y1042D01*
X8239Y1043D01*
X8238Y1046D01*
X8238Y1048D01*
X8237Y1050D01*
X8236Y1051D01*
X8236Y1052D01*
X8235Y1054D01*
X8234Y1057D01*
X8232Y1059D01*
X8231Y1059D01*
X8231Y1060D01*
X8230Y1060D01*
X8230Y1061D01*
X8115Y1176D01*
X8055Y1321D01*
X8055Y1479D01*
X8115Y1624D01*
X8226Y1735D01*
X8371Y1795D01*
X8529Y1795D01*
X8674Y1735D01*
X8785Y1624D01*
X8845Y1479D01*
X8845Y1321D01*
X8785Y1176D01*
X8670Y1061D01*
X8668Y1059D01*
X8667Y1057D01*
X8666Y1056D01*
X8665Y1054D01*
X8664Y1053D01*
X8664Y1051D01*
X8663Y1048D01*
X8662Y1048D01*
X8662Y1047D01*
X8662Y1045D01*
X8662Y1044D01*
X8662Y1041D01*
X8661Y1039D01*
X8661Y1038D01*
X8662Y1036D01*
X8662Y1034D01*
X8663Y1032D01*
X8663Y1030D01*
X8663Y1029D01*
X8664Y1029D01*
X8665Y1027D01*
X8665Y1025D01*
X8667Y1023D01*
X8668Y1021D01*
X8669Y1021D01*
X8670Y1019D01*
X8671Y1018D01*
X8673Y1017D01*
X8675Y1015D01*
X8676Y1015D01*
X8678Y1014D01*
X8680Y1013D01*
X8682Y1012D01*
X8684Y1011D01*
X8685Y1011D01*
X8688Y1011D01*
X8689Y1011D01*
X8691Y1011D01*
X13060Y1011D01*
X13061Y1011D01*
X13062Y1011D01*
X13066Y1012D01*
X13069Y1012D01*
X13070Y1013D01*
X13071Y1013D01*
X13075Y1015D01*
X13078Y1017D01*
X13079Y1018D01*
X13082Y1021D01*
X13084Y1024D01*
X13085Y1025D01*
X13085Y1026D01*
X13087Y1029D01*
X13088Y1033D01*
X13088Y1034D01*
X13089Y1035D01*
X13089Y1040D01*
X13089Y2717D01*
X14181Y3808D01*
X14183Y3811D01*
X14185Y3814D01*
X14186Y3815D01*
X14186Y3816D01*
X14187Y3820D01*
X14189Y3823D01*
X14189Y3824D01*
X14189Y3825D01*
X14189Y3826D01*
X14189Y3829D01*
X14189Y6652D01*
X14189Y6656D01*
X14188Y6660D01*
X14188Y6661D01*
X14188Y6662D01*
X14186Y6665D01*
X14184Y6669D01*
X14183Y6670D01*
X14183Y6671D01*
X14181Y6673D01*
X14140Y6713D01*
X14140Y6887D01*
X14181Y6927D01*
X14183Y6930D01*
X14185Y6933D01*
X14186Y6934D01*
X14186Y6935D01*
X14187Y6939D01*
X14189Y6942D01*
X14189Y6944D01*
X14189Y6945D01*
X14189Y6948D01*
X14189Y8308D01*
X14189Y8312D01*
X14188Y8316D01*
X14188Y8317D01*
X14188Y8318D01*
X14186Y8321D01*
X14184Y8325D01*
X14183Y8326D01*
X14183Y8327D01*
X14181Y8329D01*
X12760Y9750D01*
X12757Y9752D01*
X12755Y9754D01*
X12753Y9754D01*
X12752Y9756D01*
X12749Y9756D01*
X12746Y9758D01*
X12744Y9758D01*
X12743Y9758D01*
X12740Y9758D01*
X12737Y9758D01*
X12735Y9758D01*
X12733Y9758D01*
X12730Y9757D01*
X12727Y9756D01*
X12726Y9755D01*
X12724Y9755D01*
X12722Y9753D01*
X12719Y9751D01*
X12718Y9750D01*
X12717Y9748D01*
X12715Y9746D01*
X12713Y9744D01*
X12713Y9742D01*
X12712Y9740D01*
X12711Y9737D01*
X12710Y9735D01*
X12710Y9732D01*
X12710Y9731D01*
X12710Y9730D01*
X12710Y9729D01*
X12710Y9659D01*
X12710Y9655D01*
X12711Y9651D01*
X12711Y9650D01*
X12713Y9646D01*
X12715Y9643D01*
X12715Y9642D01*
X12716Y9641D01*
X12718Y9638D01*
X14011Y8346D01*
X14011Y7648D01*
X14011Y7644D01*
X14012Y7640D01*
X14012Y7639D01*
X14012Y7638D01*
X14014Y7635D01*
X14016Y7631D01*
X14017Y7630D01*
X14017Y7629D01*
X14019Y7627D01*
X14110Y7537D01*
X14110Y7363D01*
X14019Y7273D01*
X14017Y7270D01*
X14015Y7267D01*
X14014Y7266D01*
X14014Y7265D01*
X14013Y7261D01*
X14011Y7258D01*
X14011Y7256D01*
X14011Y7255D01*
X14011Y7252D01*
X14011Y4554D01*
X13318Y3862D01*
X13316Y3858D01*
X13313Y3855D01*
X13313Y3854D01*
X13312Y3850D01*
X13310Y3846D01*
X13310Y3845D01*
X13310Y3844D01*
X13310Y3841D01*
X13310Y3713D01*
X13187Y3590D01*
X13059Y3590D01*
X13055Y3590D01*
X13051Y3589D01*
X13050Y3589D01*
X13046Y3587D01*
X13043Y3585D01*
X13042Y3585D01*
X13041Y3584D01*
X13038Y3582D01*
X11946Y2489D01*
X4598Y2489D01*
X4594Y2489D01*
X4590Y2488D01*
X4589Y2488D01*
X4588Y2488D01*
X4585Y2486D01*
X4581Y2484D01*
X4580Y2483D01*
X4579Y2483D01*
X4577Y2481D01*
X4487Y2390D01*
X4313Y2390D01*
X4190Y2513D01*
X4190Y2627D01*
X4190Y2631D01*
X4189Y2635D01*
X4189Y2636D01*
X4187Y2640D01*
X4185Y2643D01*
X4185Y2644D01*
X4184Y2645D01*
X4182Y2647D01*
X3029Y3800D01*
X3029Y6400D01*
X5582Y8953D01*
X5584Y8956D01*
X5587Y8959D01*
X5587Y8960D01*
X5588Y8964D01*
X5590Y8968D01*
X5590Y8969D01*
X5590Y8970D01*
X5590Y8973D01*
X5590Y8987D01*
X5713Y9110D01*
X5887Y9110D01*
X5977Y9019D01*
X5980Y9017D01*
X5983Y9015D01*
X5984Y9014D01*
X5985Y9014D01*
X5989Y9013D01*
X5992Y9011D01*
X5994Y9011D01*
X5995Y9011D01*
X5998Y9011D01*
X7302Y9011D01*
X7306Y9011D01*
X7310Y9012D01*
X7311Y9012D01*
X7312Y9012D01*
X7315Y9014D01*
X7319Y9016D01*
X7320Y9017D01*
X7321Y9017D01*
X7323Y9019D01*
X7413Y9110D01*
X7587Y9110D01*
X7710Y8987D01*
X7710Y8813D01*
X7587Y8690D01*
X7413Y8690D01*
X7323Y8781D01*
X7320Y8783D01*
X7317Y8785D01*
X7316Y8786D01*
X7315Y8786D01*
X7311Y8787D01*
X7308Y8789D01*
X7306Y8789D01*
X7305Y8789D01*
X7302Y8789D01*
X5998Y8789D01*
X5994Y8789D01*
X5990Y8788D01*
X5989Y8788D01*
X5988Y8788D01*
X5985Y8786D01*
X5981Y8784D01*
X5980Y8783D01*
X5979Y8783D01*
X5977Y8781D01*
X5887Y8690D01*
X5713Y8690D01*
X5708Y8696D01*
X5707Y8696D01*
X5706Y8697D01*
X5703Y8699D01*
X5700Y8701D01*
X5699Y8702D01*
X5698Y8702D01*
X5694Y8703D01*
X5691Y8704D01*
X5690Y8704D01*
X5689Y8704D01*
X5685Y8704D01*
X5681Y8704D01*
X5680Y8703D01*
X5679Y8703D01*
X5676Y8702D01*
X5672Y8700D01*
X5671Y8699D01*
X5666Y8696D01*
X3279Y6309D01*
X3277Y6305D01*
X3275Y6302D01*
X3274Y6301D01*
X3273Y6297D01*
X3271Y6293D01*
X3271Y6292D01*
X3271Y6291D01*
X3271Y6288D01*
X3271Y3912D01*
X3271Y3908D01*
X3272Y3904D01*
X3272Y3903D01*
X3274Y3899D01*
X3276Y3896D01*
X3277Y3895D01*
X3277Y3894D01*
X3279Y3891D01*
X4353Y2818D01*
X4356Y2816D01*
X4359Y2813D01*
X4360Y2813D01*
X4364Y2812D01*
X4368Y2810D01*
X4369Y2810D01*
X4370Y2810D01*
X4373Y2810D01*
X4487Y2810D01*
X4577Y2719D01*
X4580Y2717D01*
X4583Y2715D01*
X4584Y2714D01*
X4585Y2714D01*
X4589Y2713D01*
X4592Y2711D01*
X4594Y2711D01*
X4595Y2711D01*
X4598Y2711D01*
X11842Y2711D01*
X11846Y2711D01*
X11850Y2712D01*
X11851Y2712D01*
X11855Y2714D01*
X11859Y2716D01*
X11859Y2717D01*
X11860Y2717D01*
X11861Y2718D01*
X11863Y2719D01*
X12882Y3738D01*
X12884Y3742D01*
X12887Y3745D01*
X12887Y3746D01*
X12888Y3750D01*
X12890Y3754D01*
X12890Y3755D01*
X12890Y3756D01*
X12890Y3759D01*
X12890Y3887D01*
X13013Y4010D01*
X13141Y4010D01*
X13145Y4010D01*
X13149Y4011D01*
X13150Y4011D01*
X13154Y4013D01*
X13157Y4015D01*
X13158Y4015D01*
X13159Y4016D01*
X13162Y4018D01*
X13781Y4637D01*
X13783Y4641D01*
X13785Y4644D01*
X13786Y4644D01*
X13786Y4645D01*
X13787Y4649D01*
X13789Y4653D01*
X13789Y4654D01*
X13789Y4655D01*
X13789Y4658D01*
X13789Y7252D01*
X13789Y7256D01*
X13788Y7260D01*
X13788Y7261D01*
X13788Y7262D01*
X13786Y7265D01*
X13784Y7269D01*
X13783Y7270D01*
X13783Y7271D01*
X13781Y7273D01*
X13690Y7363D01*
X13690Y7537D01*
X13781Y7627D01*
X13783Y7630D01*
X13785Y7633D01*
X13786Y7634D01*
X13786Y7635D01*
X13787Y7639D01*
X13789Y7642D01*
X13789Y7644D01*
X13789Y7645D01*
X13789Y7648D01*
X13789Y8242D01*
X13789Y8246D01*
X13788Y8250D01*
X13788Y8251D01*
X13786Y8255D01*
X13784Y8259D01*
X13783Y8259D01*
X13783Y8260D01*
X13781Y8263D01*
X12562Y9482D01*
X12558Y9484D01*
X12555Y9487D01*
X12554Y9487D01*
X12550Y9488D01*
X12546Y9490D01*
X12545Y9490D01*
X12544Y9490D01*
X12541Y9490D01*
X12413Y9490D01*
X12290Y9613D01*
X12290Y9787D01*
X12413Y9910D01*
X12529Y9910D01*
X12532Y9910D01*
X12535Y9910D01*
X12537Y9911D01*
X12539Y9911D01*
X12541Y9913D01*
X12544Y9914D01*
X12545Y9915D01*
X12547Y9916D01*
X12549Y9918D01*
X12551Y9920D01*
X12552Y9921D01*
X12554Y9923D01*
X12555Y9925D01*
X12556Y9928D01*
X12557Y9930D01*
X12558Y9931D01*
X12558Y9934D01*
X12558Y9937D01*
X12558Y9939D01*
X12558Y9941D01*
X12558Y9944D01*
X12557Y9947D01*
X12557Y9948D01*
X12556Y9950D01*
X12555Y9953D01*
X12553Y9955D01*
X12552Y9958D01*
X12551Y9958D01*
X12551Y9959D01*
X12550Y9960D01*
X12529Y9981D01*
X12526Y9983D01*
X12523Y9985D01*
X12522Y9986D01*
X12521Y9986D01*
X12517Y9987D01*
X12514Y9989D01*
X12512Y9989D01*
X12511Y9989D01*
X12508Y9989D01*
X11598Y9989D01*
X11594Y9989D01*
X11590Y9988D01*
X11589Y9988D01*
X11588Y9988D01*
X11585Y9986D01*
X11581Y9984D01*
X11580Y9983D01*
X11579Y9983D01*
X11577Y9981D01*
X11537Y9940D01*
X11363Y9940D01*
X11240Y10063D01*
X11240Y10237D01*
X11363Y10360D01*
X11537Y10360D01*
X11577Y10319D01*
X11580Y10317D01*
X11583Y10315D01*
X11584Y10314D01*
X11585Y10314D01*
X11589Y10313D01*
X11592Y10311D01*
X11594Y10311D01*
X11595Y10311D01*
X11598Y10311D01*
X12653Y10311D01*
X14408Y8556D01*
X14511Y8453D01*
X14511Y6948D01*
X14511Y6944D01*
X14512Y6940D01*
X14512Y6939D01*
X14512Y6938D01*
X14514Y6935D01*
X14516Y6931D01*
X14517Y6930D01*
X14517Y6929D01*
X14519Y6927D01*
X14560Y6887D01*
X14560Y6713D01*
X14519Y6673D01*
X14517Y6670D01*
X14515Y6667D01*
X14514Y6666D01*
X14514Y6665D01*
X14513Y6661D01*
X14511Y6658D01*
X14511Y6656D01*
X14511Y6655D01*
X14511Y6652D01*
X14511Y3683D01*
X13419Y2592D01*
X13417Y2589D01*
X13415Y2586D01*
X13414Y2585D01*
X13414Y2584D01*
X13413Y2580D01*
X13411Y2577D01*
X13411Y2576D01*
X13411Y2575D01*
X13411Y2574D01*
X13411Y2571D01*
X13411Y1040D01*
X13411Y1039D01*
X13411Y1038D01*
X13412Y1034D01*
X13412Y1031D01*
X13413Y1030D01*
X13413Y1029D01*
X13415Y1025D01*
X13417Y1022D01*
X13418Y1021D01*
X13421Y1018D01*
X13424Y1016D01*
X13425Y1015D01*
X13426Y1015D01*
X13429Y1013D01*
X13433Y1012D01*
X13434Y1012D01*
X13435Y1011D01*
X13440Y1011D01*
X17559Y1011D01*
X17563Y1011D01*
X17567Y1012D01*
X17568Y1012D01*
X17569Y1012D01*
X17572Y1014D01*
X17576Y1016D01*
X17577Y1017D01*
X17578Y1017D01*
X17580Y1019D01*
X19424Y2863D01*
X19538Y2911D01*
X22080Y2911D01*
X22081Y2911D01*
X22082Y2911D01*
X22086Y2912D01*
X22089Y2912D01*
X22090Y2913D01*
X22091Y2913D01*
X22095Y2915D01*
X22098Y2917D01*
X22099Y2918D01*
X22102Y2921D01*
X22104Y2924D01*
X22105Y2925D01*
X22105Y2926D01*
X22107Y2929D01*
X22108Y2933D01*
X22108Y2934D01*
X22109Y2935D01*
X22109Y2940D01*
X22109Y4675D01*
X22109Y4676D01*
X22108Y4680D01*
X22108Y4685D01*
X22105Y4689D01*
X22103Y4693D01*
X22100Y4697D01*
X22096Y4700D01*
X22091Y4702D01*
X22060Y4715D01*
X21965Y4810D01*
X21914Y4933D01*
X21914Y5067D01*
X21965Y5190D01*
X22060Y5285D01*
X22183Y5336D01*
X22317Y5336D01*
X22440Y5285D01*
X22535Y5190D01*
X22586Y5067D01*
X22586Y4933D01*
X22535Y4810D01*
X22440Y4715D01*
X22409Y4702D01*
X22405Y4700D01*
X22401Y4697D01*
X22398Y4694D01*
X22395Y4690D01*
X22393Y4685D01*
X22391Y4681D01*
X22391Y4675D01*
X22391Y2940D01*
X22391Y2939D01*
X22391Y2938D01*
X22392Y2934D01*
X22392Y2931D01*
X22393Y2930D01*
X22393Y2929D01*
X22395Y2925D01*
X22397Y2922D01*
X22398Y2921D01*
X22401Y2918D01*
X22404Y2916D01*
X22405Y2915D01*
X22406Y2915D01*
X22409Y2913D01*
X22413Y2912D01*
X22414Y2912D01*
X22415Y2911D01*
X22420Y2911D01*
X30230Y2911D01*
X30231Y2911D01*
X30232Y2911D01*
X30236Y2912D01*
X30239Y2912D01*
X30240Y2913D01*
X30241Y2913D01*
X30245Y2915D01*
X30248Y2917D01*
X30249Y2918D01*
X30252Y2921D01*
X30254Y2924D01*
X30255Y2925D01*
X30255Y2926D01*
X30257Y2929D01*
X30258Y2933D01*
X30258Y2934D01*
X30259Y2935D01*
X30259Y2940D01*
X30259Y4675D01*
X30259Y4676D01*
X30258Y4680D01*
X30258Y4685D01*
X30255Y4689D01*
X30253Y4693D01*
X30250Y4697D01*
X30246Y4700D01*
X30241Y4702D01*
X30210Y4715D01*
X30115Y4810D01*
X30064Y4933D01*
X30064Y5067D01*
X30115Y5190D01*
X30210Y5285D01*
X30333Y5336D01*
X30467Y5336D01*
X30590Y5285D01*
X30685Y5190D01*
X30736Y5067D01*
X30736Y4933D01*
X30685Y4810D01*
X30590Y4715D01*
X30559Y4702D01*
X30555Y4700D01*
X30551Y4697D01*
X30548Y4694D01*
X30545Y4690D01*
X30543Y4685D01*
X30541Y4681D01*
X30541Y4675D01*
X30541Y2940D01*
X30541Y2939D01*
X30541Y2938D01*
X30542Y2934D01*
X30542Y2931D01*
X30543Y2930D01*
X30543Y2929D01*
X30545Y2925D01*
X30547Y2922D01*
X30548Y2921D01*
X30551Y2918D01*
X30554Y2916D01*
X30555Y2915D01*
X30556Y2915D01*
X30559Y2913D01*
X30563Y2912D01*
X30564Y2912D01*
X30565Y2911D01*
X30570Y2911D01*
X36559Y2911D01*
X36563Y2911D01*
X36567Y2912D01*
X36568Y2912D01*
X36569Y2912D01*
X36572Y2914D01*
X36576Y2916D01*
X36577Y2917D01*
X36578Y2917D01*
X36580Y2919D01*
X41381Y7720D01*
X41383Y7723D01*
X41385Y7726D01*
X41386Y7727D01*
X41386Y7728D01*
X41387Y7732D01*
X41389Y7735D01*
X41389Y7737D01*
X41389Y7738D01*
X41389Y7741D01*
X41389Y32562D01*
X41437Y32676D01*
X41528Y32768D01*
X42581Y33820D01*
X42583Y33823D01*
X42585Y33826D01*
X42586Y33827D01*
X42586Y33828D01*
X42587Y33832D01*
X42589Y33835D01*
X42589Y33837D01*
X42589Y33838D01*
X42589Y33841D01*
X42589Y36825D01*
X42589Y36829D01*
X42588Y36833D01*
X42588Y36834D01*
X42586Y36838D01*
X42584Y36841D01*
X42583Y36842D01*
X42583Y36843D01*
X42581Y36846D01*
X41674Y37753D01*
X41670Y37755D01*
X41667Y37758D01*
X41666Y37758D01*
X41662Y37759D01*
X41658Y37761D01*
X41657Y37761D01*
X41656Y37761D01*
X41653Y37761D01*
X41560Y37761D01*
X41393Y37830D01*
X41265Y37958D01*
X41196Y38125D01*
X41196Y38306D01*
X41265Y38473D01*
X41393Y38601D01*
X41560Y38670D01*
X41740Y38670D01*
X41907Y38601D01*
X42035Y38473D01*
X42104Y38306D01*
X42104Y38213D01*
X42105Y38209D01*
X42106Y38205D01*
X42106Y38204D01*
X42106Y38203D01*
X42108Y38200D01*
X42110Y38196D01*
X42110Y38195D01*
X42111Y38195D01*
X42111Y38194D01*
X42113Y38192D01*
X43163Y37142D01*
X43211Y37028D01*
X43211Y33638D01*
X43163Y33524D01*
X43072Y33432D01*
X42019Y32380D01*
X42017Y32377D01*
X42015Y32374D01*
X42014Y32373D01*
X42014Y32372D01*
X42013Y32368D01*
X42011Y32365D01*
X42011Y32363D01*
X42011Y32362D01*
X42011Y32359D01*
X42011Y7538D01*
X41963Y7424D01*
X37040Y2500D01*
X37039Y2500D01*
X37039Y2499D01*
X37037Y2496D01*
X37034Y2493D01*
X37034Y2492D01*
X37034Y2491D01*
X37033Y2487D01*
X37032Y2484D01*
X37032Y2482D01*
X37031Y2481D01*
X37032Y2478D01*
X37032Y2474D01*
X37032Y2473D01*
X37032Y2472D01*
X37034Y2469D01*
X37035Y2465D01*
X37036Y2464D01*
X37036Y2463D01*
X37040Y2459D01*
X37741Y1758D01*
X37741Y1129D01*
X37741Y1128D01*
X37742Y1124D01*
X37742Y1119D01*
X37745Y1115D01*
X37747Y1111D01*
X37750Y1107D01*
X37754Y1104D01*
X37759Y1102D01*
X37818Y1077D01*
X37927Y968D01*
X37986Y827D01*
X37986Y673D01*
X37927Y532D01*
X37846Y451D01*
X37844Y448D01*
X37842Y446D01*
X37841Y444D01*
X37840Y443D01*
X37840Y440D01*
X37838Y437D01*
X37838Y436D01*
X37838Y434D01*
X37838Y431D01*
X37837Y428D01*
X37838Y426D01*
X37838Y424D01*
X37839Y421D01*
X37840Y419D01*
X37841Y417D01*
X37841Y415D01*
X37843Y413D01*
X37845Y411D01*
X37846Y409D01*
X37847Y408D01*
X37850Y406D01*
X37852Y405D01*
X37854Y404D01*
X37856Y403D01*
X37858Y402D01*
X37861Y401D01*
X37864Y401D01*
X37865Y401D01*
X37867Y401D01*
X47570Y401D01*
X47571Y401D01*
X47572Y401D01*
X47576Y402D01*
X47579Y402D01*
X47580Y403D01*
X47581Y403D01*
X47585Y405D01*
X47588Y407D01*
X47589Y408D01*
X47592Y411D01*
X47594Y414D01*
X47595Y415D01*
X47595Y416D01*
X47597Y419D01*
X47598Y423D01*
X47598Y424D01*
X47599Y425D01*
X47599Y430D01*
X47599Y1685D01*
X47606Y1685D01*
X47650Y1690D01*
X47651Y1690D01*
X47692Y1704D01*
X47730Y1728D01*
X47761Y1759D01*
X47785Y1797D01*
X47799Y1838D01*
X47799Y1839D01*
X47800Y1840D01*
X47800Y1842D01*
X47800Y1843D01*
X47800Y1844D01*
X47800Y1845D01*
X47800Y1846D01*
X47800Y1848D01*
X47801Y1849D01*
X47801Y1850D01*
X47801Y1851D01*
X47801Y1853D01*
X47801Y1854D01*
X47801Y1855D01*
X47801Y1856D01*
X47802Y1857D01*
X47802Y1859D01*
X47802Y1860D01*
X47802Y1861D01*
X47802Y1862D01*
X47802Y1864D01*
X47802Y1865D01*
X47802Y1866D01*
X47803Y1867D01*
X47803Y1870D01*
X47803Y1871D01*
X47803Y1872D01*
X47803Y1873D01*
X47803Y1874D01*
X47804Y1876D01*
X47804Y1877D01*
X47804Y1878D01*
X47804Y1879D01*
X47804Y1881D01*
X47804Y1882D01*
X47804Y1883D01*
X47804Y2394D01*
X47803Y2396D01*
X47599Y2396D01*
X47599Y4204D01*
X47803Y4204D01*
X47804Y4205D01*
X47804Y4206D01*
X47804Y4717D01*
X47799Y4761D01*
X47799Y4762D01*
X47785Y4803D01*
X47761Y4841D01*
X47730Y4872D01*
X47692Y4896D01*
X47651Y4910D01*
X47650Y4910D01*
X47606Y4915D01*
X47599Y4915D01*
X47599Y45850D01*
X47599Y45851D01*
X47599Y45852D01*
X47598Y45856D01*
X47598Y45859D01*
X47597Y45860D01*
X47597Y45861D01*
X47595Y45865D01*
X47593Y45868D01*
X47592Y45869D01*
X47589Y45872D01*
X47586Y45874D01*
X47585Y45875D01*
X47584Y45875D01*
X47581Y45877D01*
X47577Y45878D01*
X47576Y45878D01*
X47575Y45879D01*
X47570Y45879D01*
X43250Y45879D01*
X43246Y45879D01*
X43242Y45878D01*
X43241Y45878D01*
X43237Y45876D01*
X43233Y45874D01*
X43233Y45873D01*
X43232Y45873D01*
X43229Y45871D01*
X42979Y45621D01*
X42977Y45617D01*
X42975Y45614D01*
X42974Y45614D01*
X42974Y45613D01*
X42973Y45609D01*
X42971Y45605D01*
X42971Y45604D01*
X42971Y45603D01*
X42971Y45600D01*
X42971Y44212D01*
X40819Y42061D01*
X40818Y42058D01*
X40816Y42056D01*
X40815Y42054D01*
X40814Y42053D01*
X40813Y42050D01*
X40812Y42047D01*
X40812Y42046D01*
X40811Y42044D01*
X40811Y42041D01*
X40811Y42038D01*
X40811Y42036D01*
X40811Y42034D01*
X40812Y42031D01*
X40813Y42029D01*
X40814Y42027D01*
X40815Y42025D01*
X40817Y42023D01*
X40818Y42021D01*
X40820Y42019D01*
X40821Y42018D01*
X40823Y42016D01*
X40826Y42015D01*
X40827Y42014D01*
X40829Y42013D01*
X40832Y42012D01*
X40835Y42011D01*
X40838Y42011D01*
X40839Y42011D01*
X40840Y42011D01*
X46196Y42011D01*
X46310Y41963D01*
X46361Y41913D01*
X46364Y41911D01*
X46367Y41908D01*
X46368Y41908D01*
X46368Y41907D01*
X46372Y41906D01*
X46376Y41905D01*
X46377Y41905D01*
X46378Y41905D01*
X46381Y41904D01*
X46475Y41904D01*
X46642Y41835D01*
X46770Y41707D01*
X46839Y41540D01*
X46839Y41360D01*
X46770Y41193D01*
X46642Y41065D01*
X46475Y40996D01*
X46294Y40996D01*
X46127Y41065D01*
X45999Y41193D01*
X45930Y41360D01*
X45930Y41361D01*
X45930Y41362D01*
X45929Y41366D01*
X45928Y41369D01*
X45928Y41370D01*
X45927Y41371D01*
X45925Y41375D01*
X45924Y41378D01*
X45923Y41379D01*
X45922Y41379D01*
X45919Y41382D01*
X45917Y41384D01*
X45916Y41385D01*
X45915Y41385D01*
X45911Y41387D01*
X45908Y41388D01*
X45907Y41388D01*
X45906Y41389D01*
X45901Y41389D01*
X40891Y41389D01*
X40887Y41389D01*
X40883Y41388D01*
X40882Y41388D01*
X40881Y41388D01*
X40878Y41386D01*
X40874Y41384D01*
X40873Y41383D01*
X40872Y41383D01*
X40870Y41381D01*
X38619Y39130D01*
X38617Y39127D01*
X38615Y39124D01*
X38614Y39123D01*
X38614Y39122D01*
X38613Y39118D01*
X38611Y39115D01*
X38611Y39113D01*
X38611Y39112D01*
X38611Y39109D01*
X38611Y28438D01*
X38563Y28324D01*
X38529Y28290D01*
X38527Y28287D01*
X38525Y28284D01*
X38524Y28283D01*
X38524Y28282D01*
X38523Y28278D01*
X38521Y28275D01*
X38521Y28273D01*
X38521Y28272D01*
X38521Y28269D01*
X38521Y28231D01*
X38521Y28227D01*
X38522Y28223D01*
X38522Y28222D01*
X38522Y28221D01*
X38524Y28218D01*
X38526Y28214D01*
X38527Y28213D01*
X38527Y28212D01*
X38529Y28210D01*
X38563Y28176D01*
X38611Y28062D01*
X38611Y22438D01*
X38563Y22324D01*
X38476Y22237D01*
X38362Y22189D01*
X38238Y22189D01*
X38124Y22237D01*
X38037Y22324D01*
X37989Y22438D01*
X37989Y26241D01*
X37989Y26244D01*
X37989Y26247D01*
X37988Y26249D01*
X37988Y26251D01*
X37986Y26253D01*
X37985Y26256D01*
X37984Y26258D01*
X37983Y26259D01*
X37981Y26261D01*
X37979Y26263D01*
X37978Y26264D01*
X37976Y26266D01*
X37973Y26267D01*
X37971Y26268D01*
X37969Y26269D01*
X37967Y26270D01*
X37965Y26270D01*
X37962Y26271D01*
X37960Y26270D01*
X37958Y26270D01*
X37955Y26270D01*
X37952Y26269D01*
X37950Y26269D01*
X37949Y26268D01*
X37946Y26267D01*
X37943Y26265D01*
X37941Y26264D01*
X37941Y26263D01*
X37940Y26263D01*
X37939Y26262D01*
X36717Y25039D01*
X31698Y25039D01*
X31694Y25039D01*
X31690Y25038D01*
X31689Y25038D01*
X31688Y25038D01*
X31685Y25036D01*
X31681Y25034D01*
X31680Y25033D01*
X31679Y25033D01*
X31677Y25031D01*
X31637Y24990D01*
X31463Y24990D01*
X31423Y25031D01*
X31420Y25033D01*
X31417Y25035D01*
X31416Y25036D01*
X31415Y25036D01*
X31411Y25037D01*
X31408Y25039D01*
X31406Y25039D01*
X31405Y25039D01*
X31402Y25039D01*
X24579Y25039D01*
X24575Y25039D01*
X24571Y25038D01*
X24570Y25038D01*
X24569Y25038D01*
X24566Y25036D01*
X24562Y25034D01*
X24561Y25033D01*
X24560Y25033D01*
X24558Y25031D01*
X24368Y24841D01*
X24366Y24838D01*
X24363Y24835D01*
X24363Y24834D01*
X24363Y24833D01*
X24362Y24829D01*
X24360Y24826D01*
X24360Y24824D01*
X24360Y24823D01*
X24360Y24820D01*
X24360Y24763D01*
X24237Y24640D01*
X24063Y24640D01*
X23940Y24763D01*
X23940Y24937D01*
X24063Y25060D01*
X24120Y25060D01*
X24124Y25060D01*
X24128Y25061D01*
X24129Y25061D01*
X24130Y25061D01*
X24133Y25063D01*
X24137Y25065D01*
X24138Y25065D01*
X24138Y25066D01*
X24139Y25066D01*
X24141Y25068D01*
X24433Y25361D01*
X31402Y25361D01*
X31406Y25361D01*
X31410Y25362D01*
X31411Y25362D01*
X31412Y25362D01*
X31415Y25364D01*
X31419Y25366D01*
X31420Y25367D01*
X31421Y25367D01*
X31423Y25369D01*
X31463Y25410D01*
X31637Y25410D01*
X31677Y25369D01*
X31680Y25367D01*
X31683Y25365D01*
X31684Y25364D01*
X31685Y25364D01*
X31689Y25363D01*
X31692Y25361D01*
X31694Y25361D01*
X31695Y25361D01*
X31698Y25361D01*
X36571Y25361D01*
X36575Y25361D01*
X36579Y25362D01*
X36580Y25362D01*
X36581Y25362D01*
X36584Y25364D01*
X36588Y25366D01*
X36589Y25367D01*
X36590Y25367D01*
X36592Y25369D01*
X37981Y26758D01*
X37983Y26761D01*
X37985Y26764D01*
X37986Y26765D01*
X37986Y26766D01*
X37987Y26770D01*
X37989Y26773D01*
X37989Y26774D01*
X37989Y26775D01*
X37989Y26776D01*
X37989Y26779D01*
X37989Y28062D01*
X38037Y28176D01*
X38071Y28210D01*
X38073Y28213D01*
X38075Y28216D01*
X38076Y28217D01*
X38076Y28218D01*
X38077Y28222D01*
X38079Y28225D01*
X38079Y28227D01*
X38079Y28228D01*
X38079Y28231D01*
X38079Y28269D01*
X38079Y28273D01*
X38078Y28277D01*
X38078Y28278D01*
X38078Y28279D01*
X38076Y28282D01*
X38074Y28286D01*
X38073Y28287D01*
X38073Y28288D01*
X38071Y28290D01*
X38037Y28324D01*
X37989Y28438D01*
X37989Y39160D01*
X37989Y39163D01*
X37989Y39166D01*
X37988Y39168D01*
X37988Y39169D01*
X37986Y39172D01*
X37985Y39175D01*
X37984Y39176D01*
X37983Y39178D01*
X37981Y39180D01*
X37979Y39182D01*
X37978Y39183D01*
X37976Y39184D01*
X37973Y39186D01*
X37971Y39187D01*
X37969Y39188D01*
X37967Y39188D01*
X37965Y39189D01*
X37962Y39189D01*
X37960Y39189D01*
X37958Y39189D01*
X37955Y39188D01*
X37952Y39188D01*
X37950Y39187D01*
X37949Y39187D01*
X37946Y39185D01*
X37943Y39184D01*
X37941Y39182D01*
X37940Y39181D01*
X37939Y39181D01*
X35679Y36921D01*
X35677Y36917D01*
X35675Y36914D01*
X35674Y36914D01*
X35674Y36913D01*
X35673Y36909D01*
X35671Y36905D01*
X35671Y36904D01*
X35671Y36903D01*
X35671Y36900D01*
X35671Y30212D01*
X34638Y29179D01*
X20750Y29179D01*
X20746Y29179D01*
X20742Y29178D01*
X20741Y29178D01*
X20737Y29176D01*
X20733Y29174D01*
X20733Y29173D01*
X20732Y29173D01*
X20729Y29171D01*
X18988Y27429D01*
X4200Y27429D01*
X4197Y27429D01*
X4193Y27429D01*
X4192Y27428D01*
X4190Y27428D01*
X4188Y27426D01*
X4185Y27425D01*
X4183Y27424D01*
X4182Y27423D01*
X4180Y27421D01*
X4177Y27419D01*
X4177Y27417D01*
X4175Y27416D01*
X4174Y27413D01*
X4173Y27410D01*
X4172Y27409D01*
X4172Y27407D01*
X4171Y27404D01*
X4171Y27401D01*
X4171Y27399D01*
X4171Y27398D01*
X4171Y27397D01*
X4171Y27396D01*
X4200Y27200D01*
X4129Y26728D01*
X3922Y26298D01*
X3598Y25949D01*
X3185Y25710D01*
X2720Y25604D01*
X2244Y25640D01*
X1800Y25814D01*
X1427Y26111D01*
X1158Y26506D01*
X1017Y26961D01*
X1017Y27400D01*
X1017Y27401D01*
X1017Y27402D01*
X1017Y27406D01*
X1016Y27409D01*
X1015Y27410D01*
X1015Y27411D01*
X1013Y27415D01*
X1011Y27418D01*
X1011Y27419D01*
X1010Y27419D01*
X1007Y27422D01*
X1004Y27424D01*
X1003Y27425D01*
X999Y27427D01*
X996Y27428D01*
X995Y27428D01*
X994Y27429D01*
X988Y27429D01*
X430Y27429D01*
X429Y27429D01*
X428Y27429D01*
X424Y27428D01*
X421Y27428D01*
X420Y27427D01*
X419Y27427D01*
X415Y27425D01*
X412Y27423D01*
X411Y27422D01*
X408Y27419D01*
X406Y27416D01*
X405Y27415D01*
X405Y27414D01*
X403Y27411D01*
X402Y27407D01*
X402Y27406D01*
X401Y27405D01*
X401Y27400D01*
X401Y430D01*
X401Y429D01*
X401Y428D01*
X402Y424D01*
X402Y421D01*
X403Y420D01*
X403Y419D01*
X405Y415D01*
X407Y412D01*
X408Y411D01*
X411Y408D01*
X414Y406D01*
X415Y405D01*
X416Y405D01*
X419Y403D01*
X423Y402D01*
X424Y402D01*
X425Y401D01*
X430Y401D01*
X1739Y401D01*
X1742Y401D01*
G37*
%LPC*%
G36*
X26538Y7089D02*
X26538Y7089D01*
X26424Y7137D01*
X21837Y11724D01*
X21789Y11838D01*
X21789Y12130D01*
X21789Y12131D01*
X21789Y12132D01*
X21788Y12136D01*
X21788Y12139D01*
X21787Y12140D01*
X21787Y12141D01*
X21785Y12145D01*
X21783Y12148D01*
X21782Y12149D01*
X21779Y12152D01*
X21776Y12154D01*
X21775Y12155D01*
X21774Y12155D01*
X21771Y12157D01*
X21767Y12158D01*
X21766Y12158D01*
X21765Y12159D01*
X21760Y12159D01*
X15770Y12159D01*
X15766Y12159D01*
X15763Y12158D01*
X15762Y12158D01*
X15761Y12158D01*
X15757Y12156D01*
X15754Y12154D01*
X15753Y12153D01*
X15752Y12153D01*
X15752Y12152D01*
X15750Y12151D01*
X15518Y11919D01*
X15516Y11916D01*
X15513Y11913D01*
X15513Y11912D01*
X15513Y11911D01*
X15512Y11908D01*
X15510Y11904D01*
X15510Y11903D01*
X15510Y11902D01*
X15510Y11901D01*
X15510Y11898D01*
X15510Y11813D01*
X15387Y11690D01*
X15213Y11690D01*
X15090Y11813D01*
X15090Y11987D01*
X15213Y12110D01*
X15298Y12110D01*
X15302Y12110D01*
X15306Y12111D01*
X15307Y12111D01*
X15308Y12111D01*
X15311Y12113D01*
X15315Y12115D01*
X15316Y12115D01*
X15316Y12116D01*
X15317Y12116D01*
X15319Y12118D01*
X15642Y12441D01*
X21760Y12441D01*
X21761Y12441D01*
X21762Y12441D01*
X21766Y12442D01*
X21769Y12442D01*
X21770Y12443D01*
X21771Y12443D01*
X21775Y12445D01*
X21778Y12447D01*
X21779Y12448D01*
X21782Y12451D01*
X21784Y12454D01*
X21785Y12455D01*
X21785Y12456D01*
X21787Y12459D01*
X21788Y12463D01*
X21788Y12464D01*
X21789Y12465D01*
X21789Y12470D01*
X21789Y12500D01*
X21789Y12501D01*
X21789Y12502D01*
X21788Y12506D01*
X21788Y12509D01*
X21787Y12510D01*
X21787Y12511D01*
X21785Y12515D01*
X21783Y12518D01*
X21782Y12519D01*
X21779Y12522D01*
X21776Y12524D01*
X21775Y12525D01*
X21774Y12525D01*
X21771Y12527D01*
X21767Y12528D01*
X21766Y12528D01*
X21765Y12529D01*
X21760Y12529D01*
X4962Y12529D01*
X4958Y12529D01*
X4954Y12528D01*
X4953Y12528D01*
X4949Y12526D01*
X4946Y12524D01*
X4945Y12523D01*
X4944Y12523D01*
X4941Y12521D01*
X4468Y12047D01*
X4466Y12044D01*
X4463Y12041D01*
X4463Y12040D01*
X4462Y12036D01*
X4460Y12032D01*
X4460Y12031D01*
X4460Y12030D01*
X4460Y12027D01*
X4460Y11913D01*
X4337Y11790D01*
X4163Y11790D01*
X4040Y11913D01*
X4040Y12087D01*
X4163Y12210D01*
X4277Y12210D01*
X4281Y12210D01*
X4285Y12211D01*
X4286Y12211D01*
X4290Y12213D01*
X4293Y12215D01*
X4294Y12215D01*
X4295Y12216D01*
X4297Y12218D01*
X4850Y12771D01*
X21760Y12771D01*
X21761Y12771D01*
X21762Y12771D01*
X21766Y12772D01*
X21769Y12772D01*
X21770Y12773D01*
X21771Y12773D01*
X21775Y12775D01*
X21778Y12777D01*
X21779Y12778D01*
X21782Y12781D01*
X21784Y12784D01*
X21785Y12785D01*
X21785Y12786D01*
X21787Y12789D01*
X21788Y12793D01*
X21788Y12794D01*
X21789Y12795D01*
X21789Y12800D01*
X21789Y16562D01*
X21837Y16676D01*
X21924Y16763D01*
X22038Y16811D01*
X22162Y16811D01*
X22276Y16763D01*
X22363Y16676D01*
X22411Y16562D01*
X22411Y16140D01*
X22411Y16139D01*
X22411Y16138D01*
X22412Y16134D01*
X22412Y16131D01*
X22413Y16130D01*
X22413Y16129D01*
X22415Y16125D01*
X22417Y16122D01*
X22418Y16121D01*
X22421Y16118D01*
X22424Y16116D01*
X22425Y16115D01*
X22426Y16115D01*
X22429Y16113D01*
X22433Y16112D01*
X22434Y16112D01*
X22435Y16111D01*
X22440Y16111D01*
X24242Y16111D01*
X24246Y16111D01*
X24250Y16112D01*
X24251Y16112D01*
X24255Y16114D01*
X24259Y16116D01*
X24259Y16117D01*
X24260Y16117D01*
X24263Y16119D01*
X24732Y16588D01*
X24734Y16592D01*
X24737Y16595D01*
X24737Y16596D01*
X24738Y16600D01*
X24740Y16604D01*
X24740Y16605D01*
X24740Y16606D01*
X24740Y16609D01*
X24740Y16737D01*
X24833Y16829D01*
X24835Y16832D01*
X24837Y16834D01*
X24837Y16836D01*
X24838Y16837D01*
X24839Y16840D01*
X24840Y16843D01*
X24841Y16844D01*
X24841Y16846D01*
X24841Y16849D01*
X24841Y16852D01*
X24841Y16854D01*
X24841Y16856D01*
X24840Y16859D01*
X24839Y16861D01*
X24838Y16863D01*
X24837Y16865D01*
X24836Y16867D01*
X24834Y16869D01*
X24833Y16871D01*
X24831Y16872D01*
X24829Y16874D01*
X24827Y16875D01*
X24825Y16876D01*
X24823Y16877D01*
X24820Y16878D01*
X24818Y16879D01*
X24815Y16879D01*
X24814Y16879D01*
X24813Y16879D01*
X24812Y16879D01*
X15450Y16879D01*
X7259Y25071D01*
X7255Y25073D01*
X7252Y25075D01*
X7251Y25076D01*
X7247Y25077D01*
X7243Y25079D01*
X7242Y25079D01*
X7241Y25079D01*
X7238Y25079D01*
X7088Y25079D01*
X7084Y25079D01*
X7080Y25078D01*
X7079Y25078D01*
X7078Y25078D01*
X7075Y25076D01*
X7071Y25074D01*
X7070Y25073D01*
X7069Y25073D01*
X7067Y25071D01*
X6987Y24990D01*
X6813Y24990D01*
X6690Y25113D01*
X6690Y25287D01*
X6813Y25410D01*
X6987Y25410D01*
X7067Y25329D01*
X7070Y25327D01*
X7073Y25325D01*
X7074Y25324D01*
X7075Y25324D01*
X7079Y25323D01*
X7082Y25321D01*
X7084Y25321D01*
X7085Y25321D01*
X7088Y25321D01*
X7350Y25321D01*
X15541Y17129D01*
X15545Y17127D01*
X15548Y17125D01*
X15549Y17124D01*
X15553Y17123D01*
X15557Y17121D01*
X15558Y17121D01*
X15559Y17121D01*
X15562Y17121D01*
X28450Y17121D01*
X28853Y16718D01*
X28856Y16716D01*
X28859Y16713D01*
X28860Y16713D01*
X28864Y16712D01*
X28868Y16710D01*
X28869Y16710D01*
X28870Y16710D01*
X28873Y16710D01*
X28987Y16710D01*
X29110Y16587D01*
X29110Y16413D01*
X28987Y16290D01*
X28813Y16290D01*
X28690Y16413D01*
X28690Y16527D01*
X28690Y16531D01*
X28689Y16535D01*
X28689Y16536D01*
X28687Y16540D01*
X28685Y16543D01*
X28685Y16544D01*
X28684Y16545D01*
X28682Y16547D01*
X28359Y16871D01*
X28355Y16873D01*
X28352Y16875D01*
X28351Y16876D01*
X28347Y16877D01*
X28343Y16879D01*
X28342Y16879D01*
X28341Y16879D01*
X28338Y16879D01*
X25088Y16879D01*
X25085Y16879D01*
X25082Y16879D01*
X25080Y16878D01*
X25078Y16878D01*
X25076Y16876D01*
X25073Y16875D01*
X25072Y16874D01*
X25070Y16873D01*
X25068Y16871D01*
X25066Y16869D01*
X25065Y16868D01*
X25063Y16866D01*
X25062Y16863D01*
X25061Y16861D01*
X25060Y16859D01*
X25060Y16857D01*
X25059Y16855D01*
X25059Y16852D01*
X25059Y16850D01*
X25059Y16848D01*
X25059Y16845D01*
X25060Y16842D01*
X25060Y16840D01*
X25061Y16839D01*
X25062Y16836D01*
X25064Y16833D01*
X25066Y16831D01*
X25066Y16830D01*
X25067Y16829D01*
X25160Y16737D01*
X25160Y16563D01*
X25037Y16440D01*
X24909Y16440D01*
X24905Y16440D01*
X24901Y16439D01*
X24900Y16439D01*
X24896Y16437D01*
X24893Y16435D01*
X24892Y16435D01*
X24891Y16434D01*
X24888Y16432D01*
X24346Y15889D01*
X22440Y15889D01*
X22439Y15889D01*
X22438Y15889D01*
X22434Y15888D01*
X22431Y15888D01*
X22430Y15887D01*
X22429Y15887D01*
X22425Y15885D01*
X22422Y15883D01*
X22421Y15882D01*
X22418Y15879D01*
X22416Y15876D01*
X22415Y15875D01*
X22415Y15874D01*
X22413Y15871D01*
X22412Y15867D01*
X22412Y15866D01*
X22411Y15865D01*
X22411Y15860D01*
X22411Y12041D01*
X22411Y12040D01*
X22411Y12039D01*
X22411Y12037D01*
X22412Y12033D01*
X22412Y12032D01*
X22412Y12031D01*
X22414Y12028D01*
X22416Y12024D01*
X22417Y12023D01*
X22417Y12022D01*
X22419Y12020D01*
X26720Y7719D01*
X26723Y7717D01*
X26726Y7715D01*
X26727Y7714D01*
X26728Y7714D01*
X26732Y7713D01*
X26735Y7711D01*
X26737Y7711D01*
X26738Y7711D01*
X26741Y7711D01*
X35359Y7711D01*
X35363Y7711D01*
X35367Y7712D01*
X35368Y7712D01*
X35369Y7712D01*
X35372Y7714D01*
X35376Y7716D01*
X35377Y7717D01*
X35378Y7717D01*
X35380Y7719D01*
X37178Y9518D01*
X39181Y11520D01*
X39183Y11523D01*
X39185Y11526D01*
X39186Y11527D01*
X39186Y11528D01*
X39187Y11532D01*
X39189Y11535D01*
X39189Y11537D01*
X39189Y11538D01*
X39189Y11541D01*
X39189Y13150D01*
X39189Y13151D01*
X39189Y13152D01*
X39188Y13156D01*
X39188Y13159D01*
X39187Y13160D01*
X39187Y13161D01*
X39185Y13165D01*
X39183Y13168D01*
X39182Y13169D01*
X39179Y13172D01*
X39176Y13174D01*
X39175Y13175D01*
X39174Y13175D01*
X39171Y13177D01*
X39167Y13178D01*
X39166Y13178D01*
X39165Y13179D01*
X39160Y13179D01*
X38339Y13179D01*
X38338Y13179D01*
X38337Y13179D01*
X38333Y13178D01*
X38329Y13178D01*
X38329Y13177D01*
X38327Y13177D01*
X38324Y13175D01*
X38321Y13173D01*
X38320Y13172D01*
X38319Y13172D01*
X38317Y13169D01*
X38315Y13166D01*
X38314Y13165D01*
X38313Y13164D01*
X38312Y13161D01*
X38311Y13157D01*
X38311Y13156D01*
X38310Y13155D01*
X38310Y13150D01*
X38310Y13113D01*
X38187Y12990D01*
X38013Y12990D01*
X37890Y13113D01*
X37890Y13287D01*
X38013Y13410D01*
X38127Y13410D01*
X38131Y13410D01*
X38135Y13411D01*
X38136Y13411D01*
X38140Y13413D01*
X38143Y13415D01*
X38144Y13415D01*
X38145Y13416D01*
X38147Y13418D01*
X38150Y13421D01*
X39160Y13421D01*
X39161Y13421D01*
X39162Y13421D01*
X39166Y13422D01*
X39169Y13422D01*
X39170Y13423D01*
X39171Y13423D01*
X39175Y13425D01*
X39178Y13427D01*
X39179Y13428D01*
X39182Y13431D01*
X39184Y13434D01*
X39185Y13435D01*
X39185Y13436D01*
X39187Y13439D01*
X39188Y13443D01*
X39188Y13444D01*
X39189Y13445D01*
X39189Y13450D01*
X39189Y15650D01*
X39189Y15651D01*
X39189Y15652D01*
X39188Y15656D01*
X39188Y15659D01*
X39187Y15660D01*
X39187Y15661D01*
X39185Y15665D01*
X39183Y15668D01*
X39182Y15669D01*
X39179Y15672D01*
X39176Y15674D01*
X39175Y15675D01*
X39174Y15675D01*
X39171Y15677D01*
X39167Y15678D01*
X39166Y15678D01*
X39165Y15679D01*
X39160Y15679D01*
X38388Y15679D01*
X38384Y15679D01*
X38380Y15678D01*
X38379Y15678D01*
X38378Y15678D01*
X38375Y15676D01*
X38371Y15674D01*
X38370Y15673D01*
X38369Y15673D01*
X38367Y15671D01*
X38287Y15590D01*
X38113Y15590D01*
X37990Y15713D01*
X37990Y15887D01*
X38113Y16010D01*
X38287Y16010D01*
X38367Y15929D01*
X38370Y15927D01*
X38373Y15925D01*
X38374Y15924D01*
X38375Y15924D01*
X38379Y15923D01*
X38382Y15921D01*
X38384Y15921D01*
X38385Y15921D01*
X38388Y15921D01*
X39160Y15921D01*
X39161Y15921D01*
X39162Y15921D01*
X39166Y15922D01*
X39169Y15922D01*
X39170Y15923D01*
X39171Y15923D01*
X39175Y15925D01*
X39178Y15927D01*
X39179Y15928D01*
X39182Y15931D01*
X39184Y15934D01*
X39185Y15935D01*
X39185Y15936D01*
X39187Y15939D01*
X39188Y15943D01*
X39188Y15944D01*
X39189Y15945D01*
X39189Y15950D01*
X39189Y33578D01*
X39237Y33692D01*
X40721Y35176D01*
X40724Y35180D01*
X40726Y35183D01*
X40726Y35184D01*
X40727Y35184D01*
X40728Y35188D01*
X40729Y35192D01*
X40729Y35193D01*
X40730Y35193D01*
X40730Y35194D01*
X40730Y35197D01*
X40730Y35290D01*
X40799Y35457D01*
X40927Y35585D01*
X41094Y35654D01*
X41275Y35654D01*
X41442Y35585D01*
X41570Y35457D01*
X41639Y35290D01*
X41639Y35110D01*
X41570Y34943D01*
X41442Y34815D01*
X41275Y34746D01*
X41181Y34746D01*
X41177Y34745D01*
X41174Y34744D01*
X41173Y34744D01*
X41172Y34744D01*
X41168Y34742D01*
X41165Y34740D01*
X41164Y34740D01*
X41164Y34739D01*
X41163Y34739D01*
X41161Y34737D01*
X39819Y33396D01*
X39817Y33392D01*
X39815Y33389D01*
X39814Y33389D01*
X39814Y33388D01*
X39813Y33384D01*
X39811Y33380D01*
X39811Y33379D01*
X39811Y33378D01*
X39811Y33375D01*
X39811Y11338D01*
X39763Y11224D01*
X39672Y11132D01*
X37618Y9078D01*
X35676Y7137D01*
X35562Y7089D01*
X26538Y7089D01*
G37*
%LPD*%
G36*
X34186Y401D02*
X34186Y401D01*
X34187Y401D01*
X34191Y402D01*
X34195Y402D01*
X34196Y403D01*
X34197Y403D01*
X34200Y405D01*
X34203Y407D01*
X34204Y408D01*
X34205Y408D01*
X34207Y411D01*
X34210Y414D01*
X34210Y415D01*
X34211Y416D01*
X34212Y419D01*
X34213Y423D01*
X34214Y424D01*
X34214Y425D01*
X34214Y430D01*
X34214Y1100D01*
X34250Y1136D01*
X34950Y1136D01*
X34986Y1100D01*
X34986Y430D01*
X34986Y429D01*
X34986Y428D01*
X34987Y424D01*
X34987Y421D01*
X34988Y420D01*
X34988Y419D01*
X34990Y415D01*
X34992Y412D01*
X34992Y411D01*
X34993Y411D01*
X34996Y408D01*
X34999Y406D01*
X35000Y405D01*
X35004Y403D01*
X35007Y402D01*
X35008Y402D01*
X35009Y401D01*
X35015Y401D01*
X35333Y401D01*
X35336Y401D01*
X35339Y401D01*
X35341Y402D01*
X35343Y402D01*
X35345Y404D01*
X35348Y405D01*
X35350Y406D01*
X35351Y407D01*
X35353Y409D01*
X35355Y411D01*
X35356Y412D01*
X35358Y414D01*
X35359Y417D01*
X35360Y419D01*
X35361Y421D01*
X35362Y423D01*
X35362Y425D01*
X35363Y428D01*
X35362Y430D01*
X35363Y432D01*
X35362Y435D01*
X35362Y438D01*
X35361Y440D01*
X35360Y441D01*
X35359Y444D01*
X35358Y447D01*
X35356Y449D01*
X35355Y449D01*
X35355Y450D01*
X35354Y451D01*
X35273Y532D01*
X35214Y673D01*
X35214Y827D01*
X35273Y968D01*
X35382Y1077D01*
X35523Y1136D01*
X35677Y1136D01*
X35818Y1077D01*
X35927Y968D01*
X35986Y827D01*
X35986Y673D01*
X35927Y532D01*
X35846Y451D01*
X35844Y448D01*
X35842Y446D01*
X35841Y444D01*
X35840Y443D01*
X35840Y440D01*
X35838Y437D01*
X35838Y436D01*
X35838Y434D01*
X35838Y431D01*
X35837Y428D01*
X35838Y426D01*
X35838Y424D01*
X35839Y421D01*
X35840Y419D01*
X35841Y417D01*
X35841Y415D01*
X35843Y413D01*
X35845Y411D01*
X35846Y409D01*
X35847Y408D01*
X35850Y406D01*
X35852Y405D01*
X35854Y404D01*
X35856Y403D01*
X35858Y402D01*
X35861Y401D01*
X35864Y401D01*
X35865Y401D01*
X35867Y401D01*
X37333Y401D01*
X37336Y401D01*
X37339Y401D01*
X37341Y402D01*
X37343Y402D01*
X37345Y404D01*
X37348Y405D01*
X37350Y406D01*
X37351Y407D01*
X37353Y409D01*
X37355Y411D01*
X37356Y412D01*
X37358Y414D01*
X37359Y417D01*
X37360Y419D01*
X37361Y421D01*
X37362Y423D01*
X37362Y425D01*
X37363Y428D01*
X37362Y430D01*
X37363Y432D01*
X37362Y435D01*
X37362Y438D01*
X37361Y440D01*
X37360Y441D01*
X37359Y444D01*
X37358Y447D01*
X37356Y449D01*
X37355Y449D01*
X37355Y450D01*
X37354Y451D01*
X37273Y532D01*
X37214Y673D01*
X37214Y827D01*
X37273Y968D01*
X37382Y1077D01*
X37441Y1102D01*
X37445Y1104D01*
X37449Y1107D01*
X37452Y1110D01*
X37455Y1114D01*
X37457Y1119D01*
X37459Y1123D01*
X37459Y1129D01*
X37459Y1630D01*
X37459Y1631D01*
X37459Y1634D01*
X37458Y1637D01*
X37458Y1638D01*
X37458Y1639D01*
X37457Y1640D01*
X37457Y1641D01*
X37456Y1642D01*
X37456Y1643D01*
X37454Y1646D01*
X37453Y1647D01*
X37453Y1648D01*
X37451Y1650D01*
X36811Y2290D01*
X36807Y2293D01*
X36803Y2296D01*
X36798Y2297D01*
X36794Y2298D01*
X36789Y2298D01*
X36784Y2298D01*
X36779Y2296D01*
X36762Y2289D01*
X19741Y2289D01*
X19737Y2289D01*
X19733Y2288D01*
X19732Y2288D01*
X19731Y2288D01*
X19728Y2286D01*
X19724Y2284D01*
X19723Y2283D01*
X19722Y2283D01*
X19720Y2281D01*
X17890Y451D01*
X17888Y448D01*
X17886Y446D01*
X17886Y444D01*
X17885Y443D01*
X17884Y440D01*
X17883Y437D01*
X17882Y436D01*
X17882Y434D01*
X17882Y431D01*
X17882Y428D01*
X17882Y426D01*
X17882Y424D01*
X17883Y421D01*
X17884Y419D01*
X17885Y417D01*
X17886Y415D01*
X17887Y413D01*
X17889Y411D01*
X17890Y409D01*
X17892Y408D01*
X17894Y406D01*
X17896Y405D01*
X17898Y404D01*
X17900Y403D01*
X17903Y402D01*
X17905Y401D01*
X17908Y401D01*
X17909Y401D01*
X17910Y401D01*
X17911Y401D01*
X34185Y401D01*
X34186Y401D01*
G37*
G36*
X6005Y42951D02*
X6005Y42951D01*
X6010Y42952D01*
X6011Y42952D01*
X6012Y42952D01*
X6017Y42954D01*
X6022Y42956D01*
X6023Y42956D01*
X6024Y42957D01*
X6028Y42960D01*
X6032Y42963D01*
X6033Y42964D01*
X6034Y42964D01*
X6037Y42968D01*
X6040Y42972D01*
X6041Y42973D01*
X6042Y42974D01*
X6044Y42978D01*
X6046Y42983D01*
X6046Y42984D01*
X6047Y42985D01*
X6049Y42997D01*
X6049Y42999D01*
X6049Y43000D01*
X6049Y46794D01*
X6049Y46799D01*
X6048Y46804D01*
X6048Y46805D01*
X6048Y46806D01*
X6046Y46811D01*
X6044Y46816D01*
X6044Y46817D01*
X6043Y46818D01*
X6040Y46822D01*
X6037Y46826D01*
X6036Y46827D01*
X6036Y46828D01*
X6032Y46831D01*
X6028Y46834D01*
X6027Y46835D01*
X6026Y46836D01*
X6022Y46838D01*
X6017Y46840D01*
X6016Y46840D01*
X6015Y46841D01*
X6003Y46843D01*
X6001Y46843D01*
X6000Y46843D01*
X800Y46843D01*
X795Y46843D01*
X790Y46842D01*
X789Y46842D01*
X788Y46842D01*
X783Y46840D01*
X778Y46838D01*
X777Y46838D01*
X776Y46837D01*
X772Y46834D01*
X768Y46832D01*
X767Y46831D01*
X766Y46830D01*
X763Y46826D01*
X760Y46822D01*
X759Y46821D01*
X758Y46820D01*
X756Y46816D01*
X754Y46811D01*
X754Y46810D01*
X753Y46809D01*
X751Y46797D01*
X751Y46795D01*
X751Y46794D01*
X751Y43000D01*
X751Y42995D01*
X752Y42990D01*
X752Y42989D01*
X752Y42988D01*
X754Y42983D01*
X756Y42978D01*
X756Y42977D01*
X757Y42976D01*
X760Y42972D01*
X763Y42968D01*
X764Y42967D01*
X764Y42966D01*
X768Y42963D01*
X772Y42960D01*
X773Y42959D01*
X774Y42958D01*
X778Y42956D01*
X783Y42954D01*
X784Y42954D01*
X785Y42953D01*
X797Y42951D01*
X799Y42951D01*
X800Y42951D01*
X6000Y42951D01*
X6005Y42951D01*
G37*
G36*
X6005Y36251D02*
X6005Y36251D01*
X6010Y36252D01*
X6011Y36252D01*
X6012Y36252D01*
X6017Y36254D01*
X6022Y36256D01*
X6023Y36256D01*
X6024Y36257D01*
X6028Y36260D01*
X6032Y36263D01*
X6033Y36264D01*
X6034Y36264D01*
X6037Y36268D01*
X6040Y36272D01*
X6041Y36273D01*
X6042Y36274D01*
X6044Y36278D01*
X6046Y36283D01*
X6046Y36284D01*
X6047Y36285D01*
X6049Y36297D01*
X6049Y36299D01*
X6049Y36300D01*
X6049Y39600D01*
X6049Y39604D01*
X6049Y39609D01*
X6048Y39609D01*
X6048Y39610D01*
X6048Y39611D01*
X6048Y39612D01*
X6046Y39616D01*
X6045Y39620D01*
X6044Y39621D01*
X6044Y39622D01*
X6043Y39624D01*
X6038Y39630D01*
X6037Y39632D01*
X6036Y39634D01*
X6035Y39634D01*
X6035Y39635D01*
X5885Y39785D01*
X5881Y39787D01*
X5878Y39790D01*
X5877Y39791D01*
X5875Y39792D01*
X5871Y39794D01*
X5867Y39796D01*
X5866Y39796D01*
X5864Y39797D01*
X5851Y39799D01*
X5850Y39799D01*
X1050Y39799D01*
X1045Y39799D01*
X1040Y39798D01*
X1039Y39798D01*
X1038Y39798D01*
X1033Y39796D01*
X1028Y39794D01*
X1027Y39794D01*
X1026Y39793D01*
X1022Y39790D01*
X1018Y39787D01*
X1017Y39786D01*
X1016Y39786D01*
X1013Y39782D01*
X1010Y39778D01*
X1009Y39777D01*
X1008Y39776D01*
X1006Y39772D01*
X1004Y39767D01*
X1004Y39766D01*
X1003Y39765D01*
X1001Y39753D01*
X1001Y39751D01*
X1001Y39750D01*
X1001Y36500D01*
X1001Y36496D01*
X1001Y36491D01*
X1002Y36490D01*
X1002Y36488D01*
X1004Y36484D01*
X1005Y36480D01*
X1006Y36478D01*
X1007Y36476D01*
X1014Y36466D01*
X1015Y36466D01*
X1015Y36465D01*
X1215Y36265D01*
X1219Y36263D01*
X1222Y36260D01*
X1223Y36259D01*
X1225Y36258D01*
X1229Y36256D01*
X1233Y36254D01*
X1234Y36254D01*
X1236Y36253D01*
X1249Y36251D01*
X1250Y36251D01*
X6000Y36251D01*
X6005Y36251D01*
G37*
%LPC*%
G36*
X8344Y13640D02*
X8344Y13640D01*
X7900Y13814D01*
X7527Y14111D01*
X7258Y14506D01*
X7117Y14961D01*
X7117Y15439D01*
X7258Y15894D01*
X7527Y16289D01*
X7900Y16586D01*
X8344Y16760D01*
X8820Y16796D01*
X9285Y16690D01*
X9698Y16451D01*
X10022Y16102D01*
X10229Y15672D01*
X10300Y15200D01*
X10229Y14728D01*
X10022Y14298D01*
X9698Y13949D01*
X9285Y13710D01*
X8820Y13604D01*
X8344Y13640D01*
G37*
%LPD*%
%LPC*%
G36*
X35744Y3540D02*
X35744Y3540D01*
X35300Y3714D01*
X34927Y4011D01*
X34658Y4406D01*
X34517Y4861D01*
X34517Y5339D01*
X34658Y5794D01*
X34927Y6189D01*
X35300Y6486D01*
X35744Y6660D01*
X36220Y6696D01*
X36685Y6590D01*
X37098Y6351D01*
X37422Y6002D01*
X37629Y5572D01*
X37700Y5100D01*
X37629Y4628D01*
X37422Y4198D01*
X37098Y3849D01*
X36685Y3610D01*
X36220Y3504D01*
X35744Y3540D01*
G37*
%LPD*%
%LPC*%
G36*
X31313Y16590D02*
X31313Y16590D01*
X31190Y16713D01*
X31190Y16827D01*
X31190Y16831D01*
X31189Y16835D01*
X31189Y16836D01*
X31187Y16840D01*
X31185Y16843D01*
X31185Y16844D01*
X31184Y16845D01*
X31182Y16847D01*
X30689Y17341D01*
X30685Y17343D01*
X30682Y17345D01*
X30681Y17346D01*
X30677Y17347D01*
X30673Y17349D01*
X30672Y17349D01*
X30671Y17349D01*
X30668Y17349D01*
X15780Y17349D01*
X7984Y25146D01*
X7983Y25146D01*
X7982Y25147D01*
X7979Y25149D01*
X7976Y25151D01*
X7975Y25152D01*
X7974Y25152D01*
X7970Y25153D01*
X7967Y25154D01*
X7966Y25154D01*
X7965Y25154D01*
X7961Y25154D01*
X7957Y25154D01*
X7956Y25153D01*
X7955Y25153D01*
X7952Y25152D01*
X7948Y25150D01*
X7947Y25150D01*
X7946Y25149D01*
X7942Y25146D01*
X7887Y25090D01*
X7713Y25090D01*
X7590Y25213D01*
X7590Y25387D01*
X7713Y25510D01*
X7887Y25510D01*
X7967Y25429D01*
X7970Y25427D01*
X7973Y25425D01*
X7974Y25424D01*
X7975Y25424D01*
X7979Y25423D01*
X7982Y25421D01*
X7984Y25421D01*
X7985Y25421D01*
X7988Y25421D01*
X8050Y25421D01*
X15871Y17599D01*
X15875Y17597D01*
X15878Y17595D01*
X15879Y17594D01*
X15883Y17593D01*
X15887Y17591D01*
X15888Y17591D01*
X15889Y17591D01*
X15892Y17591D01*
X30780Y17591D01*
X30859Y17511D01*
X31353Y17018D01*
X31356Y17016D01*
X31359Y17013D01*
X31360Y17013D01*
X31364Y17012D01*
X31368Y17010D01*
X31369Y17010D01*
X31370Y17010D01*
X31373Y17010D01*
X31487Y17010D01*
X31610Y16887D01*
X31610Y16713D01*
X31487Y16590D01*
X31313Y16590D01*
G37*
%LPD*%
%LPC*%
G36*
X26613Y17790D02*
X26613Y17790D01*
X26533Y17871D01*
X26530Y17873D01*
X26527Y17875D01*
X26526Y17876D01*
X26525Y17876D01*
X26521Y17877D01*
X26518Y17879D01*
X26516Y17879D01*
X26515Y17879D01*
X26512Y17879D01*
X16050Y17879D01*
X15971Y17959D01*
X11279Y22650D01*
X11279Y23312D01*
X11279Y23316D01*
X11278Y23320D01*
X11278Y23321D01*
X11278Y23322D01*
X11276Y23325D01*
X11274Y23329D01*
X11273Y23330D01*
X11273Y23331D01*
X11271Y23333D01*
X11190Y23413D01*
X11190Y23587D01*
X11313Y23710D01*
X11487Y23710D01*
X11610Y23587D01*
X11610Y23413D01*
X11529Y23333D01*
X11527Y23330D01*
X11525Y23327D01*
X11524Y23326D01*
X11524Y23325D01*
X11523Y23321D01*
X11521Y23318D01*
X11521Y23316D01*
X11521Y23315D01*
X11521Y23312D01*
X11521Y22762D01*
X11521Y22758D01*
X11522Y22754D01*
X11522Y22753D01*
X11524Y22749D01*
X11526Y22746D01*
X11527Y22745D01*
X11527Y22744D01*
X11529Y22741D01*
X16141Y18129D01*
X16145Y18127D01*
X16148Y18125D01*
X16149Y18124D01*
X16153Y18123D01*
X16157Y18121D01*
X16158Y18121D01*
X16159Y18121D01*
X16162Y18121D01*
X26512Y18121D01*
X26516Y18121D01*
X26520Y18122D01*
X26521Y18122D01*
X26522Y18122D01*
X26525Y18124D01*
X26529Y18126D01*
X26530Y18127D01*
X26531Y18127D01*
X26533Y18129D01*
X26613Y18210D01*
X26787Y18210D01*
X26910Y18087D01*
X26910Y17913D01*
X26787Y17790D01*
X26613Y17790D01*
G37*
%LPD*%
%LPC*%
G36*
X2461Y17182D02*
X2461Y17182D01*
X2143Y17314D01*
X1899Y17557D01*
X1767Y17875D01*
X1767Y18219D01*
X1899Y18537D01*
X2143Y18781D01*
X2461Y18913D01*
X2805Y18913D01*
X3123Y18781D01*
X3366Y18537D01*
X3498Y18219D01*
X3498Y17875D01*
X3366Y17557D01*
X3123Y17314D01*
X2805Y17182D01*
X2461Y17182D01*
G37*
%LPD*%
%LPC*%
G36*
X26713Y8090D02*
X26713Y8090D01*
X26590Y8213D01*
X26590Y8387D01*
X26713Y8510D01*
X26841Y8510D01*
X26845Y8510D01*
X26849Y8511D01*
X26850Y8511D01*
X26854Y8513D01*
X26857Y8515D01*
X26858Y8515D01*
X26859Y8516D01*
X26862Y8518D01*
X27281Y8937D01*
X27283Y8941D01*
X27285Y8944D01*
X27286Y8944D01*
X27286Y8945D01*
X27287Y8949D01*
X27289Y8953D01*
X27289Y8954D01*
X27289Y8955D01*
X27289Y8958D01*
X27289Y11302D01*
X27289Y11306D01*
X27288Y11310D01*
X27288Y11311D01*
X27288Y11312D01*
X27286Y11315D01*
X27284Y11319D01*
X27283Y11320D01*
X27283Y11321D01*
X27281Y11323D01*
X27190Y11413D01*
X27190Y11587D01*
X27313Y11710D01*
X27487Y11710D01*
X27610Y11587D01*
X27610Y11413D01*
X27519Y11323D01*
X27517Y11320D01*
X27515Y11317D01*
X27514Y11316D01*
X27514Y11315D01*
X27513Y11311D01*
X27511Y11308D01*
X27511Y11306D01*
X27511Y11305D01*
X27511Y11302D01*
X27511Y8854D01*
X27437Y8781D01*
X27117Y8461D01*
X27116Y8458D01*
X27114Y8456D01*
X27113Y8454D01*
X27112Y8453D01*
X27111Y8450D01*
X27110Y8447D01*
X27110Y8446D01*
X27109Y8444D01*
X27109Y8441D01*
X27109Y8438D01*
X27109Y8436D01*
X27109Y8434D01*
X27110Y8431D01*
X27111Y8429D01*
X27112Y8427D01*
X27113Y8425D01*
X27115Y8423D01*
X27116Y8421D01*
X27118Y8419D01*
X27119Y8418D01*
X27121Y8416D01*
X27124Y8415D01*
X27125Y8414D01*
X27127Y8413D01*
X27130Y8412D01*
X27133Y8411D01*
X27136Y8411D01*
X27137Y8411D01*
X27138Y8411D01*
X31542Y8411D01*
X31546Y8411D01*
X31550Y8412D01*
X31551Y8412D01*
X31555Y8414D01*
X31559Y8416D01*
X31559Y8417D01*
X31560Y8417D01*
X31563Y8419D01*
X31682Y8538D01*
X31684Y8542D01*
X31687Y8545D01*
X31687Y8546D01*
X31688Y8550D01*
X31690Y8554D01*
X31690Y8555D01*
X31690Y8556D01*
X31690Y8559D01*
X31690Y8687D01*
X31813Y8810D01*
X31987Y8810D01*
X32110Y8687D01*
X32110Y8513D01*
X31987Y8390D01*
X31859Y8390D01*
X31855Y8390D01*
X31851Y8389D01*
X31850Y8389D01*
X31846Y8387D01*
X31843Y8385D01*
X31842Y8385D01*
X31841Y8384D01*
X31838Y8382D01*
X31646Y8189D01*
X26998Y8189D01*
X26994Y8189D01*
X26990Y8188D01*
X26989Y8188D01*
X26988Y8188D01*
X26985Y8186D01*
X26981Y8184D01*
X26980Y8183D01*
X26979Y8183D01*
X26977Y8181D01*
X26887Y8090D01*
X26713Y8090D01*
G37*
%LPD*%
%LPC*%
G36*
X36213Y12390D02*
X36213Y12390D01*
X36090Y12513D01*
X36090Y12641D01*
X36090Y12645D01*
X36089Y12649D01*
X36089Y12650D01*
X36087Y12654D01*
X36085Y12657D01*
X36085Y12658D01*
X36084Y12659D01*
X36082Y12662D01*
X33789Y14954D01*
X33789Y15202D01*
X33789Y15203D01*
X33789Y15204D01*
X33789Y15206D01*
X33788Y15210D01*
X33788Y15211D01*
X33788Y15212D01*
X33786Y15215D01*
X33784Y15219D01*
X33783Y15220D01*
X33783Y15221D01*
X33781Y15223D01*
X33690Y15313D01*
X33690Y15487D01*
X33813Y15610D01*
X33863Y15610D01*
X33866Y15610D01*
X33869Y15610D01*
X33871Y15611D01*
X33873Y15611D01*
X33875Y15613D01*
X33878Y15614D01*
X33879Y15615D01*
X33881Y15616D01*
X33883Y15618D01*
X33885Y15620D01*
X33886Y15621D01*
X33887Y15623D01*
X33889Y15625D01*
X33890Y15628D01*
X33891Y15630D01*
X33891Y15631D01*
X33892Y15634D01*
X33892Y15637D01*
X33892Y15639D01*
X33892Y15641D01*
X33892Y15644D01*
X33891Y15647D01*
X33890Y15648D01*
X33890Y15650D01*
X33888Y15653D01*
X33887Y15655D01*
X33885Y15658D01*
X33885Y15659D01*
X33884Y15660D01*
X33862Y15682D01*
X33858Y15684D01*
X33855Y15687D01*
X33854Y15687D01*
X33850Y15688D01*
X33846Y15690D01*
X33845Y15690D01*
X33844Y15690D01*
X33841Y15690D01*
X33713Y15690D01*
X33590Y15813D01*
X33590Y15987D01*
X33713Y16110D01*
X33887Y16110D01*
X34010Y15987D01*
X34010Y15859D01*
X34010Y15855D01*
X34011Y15851D01*
X34011Y15850D01*
X34013Y15846D01*
X34015Y15843D01*
X34015Y15842D01*
X34016Y15841D01*
X34018Y15838D01*
X36738Y13118D01*
X36742Y13116D01*
X36745Y13113D01*
X36746Y13113D01*
X36750Y13112D01*
X36754Y13110D01*
X36755Y13110D01*
X36756Y13110D01*
X36759Y13110D01*
X36887Y13110D01*
X37010Y12987D01*
X37010Y12813D01*
X36887Y12690D01*
X36713Y12690D01*
X36590Y12813D01*
X36590Y12941D01*
X36590Y12945D01*
X36589Y12949D01*
X36589Y12950D01*
X36587Y12954D01*
X36585Y12957D01*
X36585Y12958D01*
X36584Y12959D01*
X36582Y12962D01*
X34160Y15384D01*
X34157Y15385D01*
X34155Y15387D01*
X34153Y15388D01*
X34152Y15389D01*
X34149Y15390D01*
X34146Y15391D01*
X34144Y15392D01*
X34143Y15392D01*
X34140Y15392D01*
X34137Y15392D01*
X34135Y15392D01*
X34133Y15392D01*
X34130Y15391D01*
X34127Y15390D01*
X34126Y15389D01*
X34124Y15388D01*
X34122Y15386D01*
X34119Y15385D01*
X34118Y15383D01*
X34117Y15382D01*
X34115Y15380D01*
X34113Y15377D01*
X34113Y15376D01*
X34112Y15374D01*
X34111Y15371D01*
X34110Y15368D01*
X34110Y15366D01*
X34110Y15365D01*
X34110Y15364D01*
X34110Y15363D01*
X34110Y15313D01*
X34019Y15223D01*
X34017Y15220D01*
X34015Y15217D01*
X34014Y15216D01*
X34014Y15215D01*
X34013Y15211D01*
X34011Y15208D01*
X34011Y15206D01*
X34011Y15205D01*
X34011Y15202D01*
X34011Y15058D01*
X34011Y15054D01*
X34012Y15050D01*
X34012Y15049D01*
X34014Y15045D01*
X34016Y15041D01*
X34017Y15041D01*
X34017Y15040D01*
X34019Y15037D01*
X36238Y12818D01*
X36242Y12816D01*
X36245Y12813D01*
X36246Y12813D01*
X36250Y12812D01*
X36254Y12810D01*
X36255Y12810D01*
X36256Y12810D01*
X36259Y12810D01*
X36387Y12810D01*
X36510Y12687D01*
X36510Y12513D01*
X36387Y12390D01*
X36213Y12390D01*
G37*
%LPD*%
%LPC*%
G36*
X15321Y1105D02*
X15321Y1105D01*
X15176Y1165D01*
X15065Y1276D01*
X15005Y1421D01*
X15005Y1579D01*
X15065Y1724D01*
X15176Y1835D01*
X15321Y1895D01*
X15479Y1895D01*
X15574Y1856D01*
X15578Y1855D01*
X15583Y1854D01*
X15588Y1854D01*
X15593Y1855D01*
X15597Y1857D01*
X15601Y1859D01*
X15602Y1859D01*
X15606Y1862D01*
X15681Y1937D01*
X15683Y1941D01*
X15685Y1944D01*
X15686Y1944D01*
X15686Y1945D01*
X15687Y1949D01*
X15689Y1953D01*
X15689Y1954D01*
X15689Y1955D01*
X15689Y1958D01*
X15689Y7102D01*
X15689Y7106D01*
X15688Y7110D01*
X15688Y7111D01*
X15688Y7112D01*
X15686Y7115D01*
X15684Y7119D01*
X15683Y7120D01*
X15683Y7121D01*
X15681Y7123D01*
X15590Y7213D01*
X15590Y7387D01*
X15713Y7510D01*
X15887Y7510D01*
X16010Y7387D01*
X16010Y7213D01*
X15919Y7123D01*
X15917Y7120D01*
X15915Y7117D01*
X15914Y7116D01*
X15914Y7115D01*
X15913Y7111D01*
X15911Y7108D01*
X15911Y7106D01*
X15911Y7105D01*
X15911Y7102D01*
X15911Y1854D01*
X15762Y1706D01*
X15759Y1702D01*
X15757Y1698D01*
X15755Y1693D01*
X15754Y1689D01*
X15754Y1684D01*
X15754Y1679D01*
X15756Y1674D01*
X15795Y1579D01*
X15795Y1421D01*
X15735Y1276D01*
X15624Y1165D01*
X15479Y1105D01*
X15321Y1105D01*
G37*
%LPD*%
%LPC*%
G36*
X25213Y7490D02*
X25213Y7490D01*
X25090Y7613D01*
X25090Y7741D01*
X25090Y7745D01*
X25089Y7749D01*
X25089Y7750D01*
X25087Y7754D01*
X25085Y7757D01*
X25085Y7758D01*
X25084Y7759D01*
X25082Y7762D01*
X24963Y7881D01*
X24959Y7883D01*
X24956Y7885D01*
X24956Y7886D01*
X24955Y7886D01*
X24951Y7887D01*
X24947Y7889D01*
X24946Y7889D01*
X24945Y7889D01*
X24942Y7889D01*
X18298Y7889D01*
X18294Y7889D01*
X18290Y7888D01*
X18289Y7888D01*
X18288Y7888D01*
X18285Y7886D01*
X18281Y7884D01*
X18280Y7883D01*
X18279Y7883D01*
X18279Y7882D01*
X18277Y7881D01*
X18187Y7790D01*
X18013Y7790D01*
X17890Y7913D01*
X17890Y8087D01*
X18013Y8210D01*
X18187Y8210D01*
X18277Y8119D01*
X18280Y8117D01*
X18283Y8115D01*
X18284Y8114D01*
X18285Y8114D01*
X18289Y8113D01*
X18292Y8111D01*
X18294Y8111D01*
X18295Y8111D01*
X18298Y8111D01*
X25046Y8111D01*
X25238Y7918D01*
X25242Y7916D01*
X25245Y7913D01*
X25246Y7913D01*
X25250Y7912D01*
X25254Y7910D01*
X25255Y7910D01*
X25256Y7910D01*
X25259Y7910D01*
X25387Y7910D01*
X25510Y7787D01*
X25510Y7613D01*
X25387Y7490D01*
X25213Y7490D01*
G37*
%LPD*%
%LPC*%
G36*
X4471Y19658D02*
X4471Y19658D01*
X4347Y19710D01*
X4252Y19805D01*
X4200Y19929D01*
X4200Y20063D01*
X4252Y20187D01*
X4347Y20283D01*
X4471Y20334D01*
X4605Y20334D01*
X4658Y20312D01*
X4663Y20311D01*
X4667Y20310D01*
X4668Y20310D01*
X4672Y20310D01*
X4677Y20311D01*
X4681Y20313D01*
X4686Y20315D01*
X4690Y20319D01*
X4792Y20421D01*
X9412Y20421D01*
X9416Y20421D01*
X9420Y20422D01*
X9421Y20422D01*
X9422Y20422D01*
X9425Y20424D01*
X9429Y20426D01*
X9430Y20427D01*
X9431Y20427D01*
X9433Y20429D01*
X9513Y20510D01*
X9687Y20510D01*
X9810Y20387D01*
X9810Y20213D01*
X9687Y20090D01*
X9513Y20090D01*
X9433Y20171D01*
X9430Y20173D01*
X9427Y20175D01*
X9426Y20176D01*
X9425Y20176D01*
X9421Y20177D01*
X9418Y20179D01*
X9416Y20179D01*
X9415Y20179D01*
X9412Y20179D01*
X4904Y20179D01*
X4900Y20179D01*
X4896Y20178D01*
X4895Y20178D01*
X4891Y20176D01*
X4888Y20174D01*
X4887Y20173D01*
X4886Y20173D01*
X4884Y20171D01*
X4861Y20148D01*
X4860Y20148D01*
X4858Y20144D01*
X4855Y20140D01*
X4854Y20135D01*
X4852Y20131D01*
X4853Y20126D01*
X4853Y20121D01*
X4854Y20116D01*
X4876Y20063D01*
X4876Y19929D01*
X4825Y19805D01*
X4730Y19710D01*
X4605Y19658D01*
X4471Y19658D01*
G37*
%LPD*%
%LPC*%
G36*
X46929Y8428D02*
X46929Y8428D01*
X46798Y8482D01*
X46698Y8583D01*
X46644Y8713D01*
X46644Y8855D01*
X46671Y8920D01*
X46672Y8924D01*
X46673Y8927D01*
X46673Y8928D01*
X46673Y8929D01*
X46673Y8933D01*
X46672Y8937D01*
X46672Y8938D01*
X46672Y8939D01*
X46670Y8942D01*
X46669Y8946D01*
X46668Y8946D01*
X46668Y8947D01*
X46665Y8950D01*
X46663Y8953D01*
X46662Y8954D01*
X46661Y8954D01*
X46658Y8956D01*
X46655Y8958D01*
X46654Y8958D01*
X46653Y8959D01*
X46649Y8959D01*
X46645Y8960D01*
X46644Y8960D01*
X46640Y8960D01*
X46636Y8959D01*
X46635Y8959D01*
X46634Y8959D01*
X46631Y8957D01*
X46627Y8955D01*
X46626Y8954D01*
X46625Y8953D01*
X46623Y8952D01*
X46562Y8891D01*
X46335Y8797D01*
X46090Y8797D01*
X45863Y8891D01*
X45689Y9065D01*
X45595Y9291D01*
X45595Y9537D01*
X45689Y9764D01*
X45863Y9937D01*
X46090Y10031D01*
X46335Y10031D01*
X46562Y9937D01*
X46736Y9764D01*
X46830Y9537D01*
X46830Y9291D01*
X46761Y9125D01*
X46760Y9122D01*
X46759Y9119D01*
X46759Y9117D01*
X46759Y9115D01*
X46759Y9112D01*
X46759Y9109D01*
X46759Y9108D01*
X46760Y9106D01*
X46761Y9103D01*
X46762Y9100D01*
X46763Y9099D01*
X46764Y9097D01*
X46766Y9095D01*
X46767Y9093D01*
X46769Y9091D01*
X46770Y9090D01*
X46773Y9089D01*
X46775Y9087D01*
X46777Y9087D01*
X46779Y9086D01*
X46781Y9085D01*
X46784Y9084D01*
X46786Y9084D01*
X46788Y9084D01*
X46791Y9085D01*
X46794Y9085D01*
X46797Y9086D01*
X46798Y9086D01*
X46799Y9086D01*
X46929Y9140D01*
X47071Y9140D01*
X47202Y9086D01*
X47302Y8986D01*
X47356Y8855D01*
X47356Y8713D01*
X47302Y8583D01*
X47202Y8482D01*
X47071Y8428D01*
X46929Y8428D01*
G37*
%LPD*%
%LPC*%
G36*
X46929Y12428D02*
X46929Y12428D01*
X46798Y12482D01*
X46698Y12583D01*
X46644Y12713D01*
X46644Y12855D01*
X46671Y12920D01*
X46672Y12924D01*
X46673Y12927D01*
X46673Y12928D01*
X46673Y12929D01*
X46673Y12933D01*
X46672Y12937D01*
X46672Y12938D01*
X46672Y12939D01*
X46670Y12942D01*
X46669Y12946D01*
X46668Y12946D01*
X46668Y12947D01*
X46665Y12950D01*
X46663Y12953D01*
X46662Y12954D01*
X46661Y12954D01*
X46658Y12956D01*
X46655Y12958D01*
X46654Y12958D01*
X46653Y12959D01*
X46649Y12959D01*
X46645Y12960D01*
X46644Y12960D01*
X46640Y12960D01*
X46636Y12959D01*
X46635Y12959D01*
X46634Y12959D01*
X46631Y12957D01*
X46627Y12955D01*
X46626Y12954D01*
X46625Y12953D01*
X46623Y12952D01*
X46562Y12891D01*
X46335Y12797D01*
X46090Y12797D01*
X45863Y12891D01*
X45689Y13065D01*
X45595Y13291D01*
X45595Y13537D01*
X45689Y13764D01*
X45863Y13937D01*
X46090Y14031D01*
X46335Y14031D01*
X46562Y13937D01*
X46736Y13764D01*
X46830Y13537D01*
X46830Y13291D01*
X46761Y13125D01*
X46760Y13122D01*
X46759Y13119D01*
X46759Y13117D01*
X46759Y13115D01*
X46759Y13112D01*
X46759Y13109D01*
X46759Y13108D01*
X46760Y13106D01*
X46761Y13103D01*
X46762Y13100D01*
X46763Y13099D01*
X46764Y13097D01*
X46766Y13095D01*
X46767Y13093D01*
X46769Y13091D01*
X46770Y13090D01*
X46773Y13089D01*
X46775Y13087D01*
X46777Y13087D01*
X46779Y13086D01*
X46781Y13085D01*
X46784Y13084D01*
X46786Y13084D01*
X46788Y13084D01*
X46791Y13085D01*
X46794Y13085D01*
X46797Y13086D01*
X46798Y13086D01*
X46799Y13086D01*
X46929Y13140D01*
X47071Y13140D01*
X47202Y13086D01*
X47302Y12986D01*
X47356Y12855D01*
X47356Y12713D01*
X47302Y12583D01*
X47202Y12482D01*
X47071Y12428D01*
X46929Y12428D01*
G37*
%LPD*%
%LPC*%
G36*
X28813Y14590D02*
X28813Y14590D01*
X28690Y14713D01*
X28690Y14887D01*
X28813Y15010D01*
X28941Y15010D01*
X28945Y15010D01*
X28949Y15011D01*
X28950Y15011D01*
X28954Y15013D01*
X28957Y15015D01*
X28958Y15015D01*
X28959Y15016D01*
X28962Y15018D01*
X30354Y16411D01*
X34373Y16411D01*
X34438Y16345D01*
X34442Y16343D01*
X34445Y16340D01*
X34446Y16340D01*
X34450Y16338D01*
X34454Y16337D01*
X34455Y16337D01*
X34456Y16337D01*
X34459Y16337D01*
X34587Y16337D01*
X34710Y16214D01*
X34710Y16040D01*
X34587Y15917D01*
X34413Y15917D01*
X34290Y16040D01*
X34290Y16160D01*
X34290Y16161D01*
X34290Y16162D01*
X34289Y16166D01*
X34289Y16169D01*
X34288Y16170D01*
X34288Y16171D01*
X34286Y16175D01*
X34284Y16178D01*
X34283Y16179D01*
X34280Y16182D01*
X34277Y16184D01*
X34276Y16185D01*
X34275Y16185D01*
X34272Y16187D01*
X34269Y16188D01*
X34267Y16188D01*
X34266Y16189D01*
X34261Y16189D01*
X30458Y16189D01*
X30454Y16189D01*
X30450Y16188D01*
X30449Y16188D01*
X30445Y16186D01*
X30441Y16184D01*
X30441Y16183D01*
X30440Y16183D01*
X30437Y16181D01*
X29118Y14862D01*
X29116Y14858D01*
X29113Y14855D01*
X29113Y14854D01*
X29111Y14850D01*
X29110Y14846D01*
X29110Y14845D01*
X29110Y14844D01*
X29110Y14841D01*
X29110Y14713D01*
X28987Y14590D01*
X28813Y14590D01*
G37*
%LPD*%
%LPC*%
G36*
X44580Y32913D02*
X44580Y32913D01*
X44358Y33005D01*
X44189Y33174D01*
X44098Y33395D01*
X44098Y33635D01*
X44189Y33856D01*
X44358Y34025D01*
X44580Y34116D01*
X44706Y34116D01*
X44706Y34117D01*
X44706Y34116D01*
X44711Y34117D01*
X44715Y34118D01*
X44719Y34120D01*
X44724Y34123D01*
X44727Y34126D01*
X44730Y34130D01*
X44733Y34135D01*
X44772Y34228D01*
X44876Y34332D01*
X45011Y34389D01*
X45159Y34389D01*
X45295Y34332D01*
X45399Y34228D01*
X45455Y34092D01*
X45455Y33945D01*
X45399Y33809D01*
X45292Y33703D01*
X45289Y33699D01*
X45286Y33695D01*
X45285Y33690D01*
X45284Y33686D01*
X45284Y33681D01*
X45284Y33676D01*
X45286Y33671D01*
X45301Y33635D01*
X45301Y33395D01*
X45209Y33174D01*
X45040Y33005D01*
X44819Y32913D01*
X44580Y32913D01*
G37*
%LPD*%
%LPC*%
G36*
X8363Y3440D02*
X8363Y3440D01*
X8240Y3563D01*
X8240Y3737D01*
X8364Y3860D01*
X8366Y3861D01*
X8369Y3861D01*
X8370Y3862D01*
X8371Y3862D01*
X8375Y3864D01*
X8378Y3866D01*
X8379Y3867D01*
X8382Y3870D01*
X8384Y3873D01*
X8385Y3874D01*
X8385Y3875D01*
X8387Y3878D01*
X8388Y3881D01*
X8388Y3883D01*
X8389Y3884D01*
X8389Y3889D01*
X8389Y6792D01*
X8389Y6796D01*
X8388Y6800D01*
X8388Y6801D01*
X8386Y6805D01*
X8384Y6809D01*
X8383Y6809D01*
X8383Y6810D01*
X8381Y6813D01*
X8112Y7082D01*
X8108Y7084D01*
X8105Y7087D01*
X8104Y7087D01*
X8100Y7088D01*
X8096Y7090D01*
X8095Y7090D01*
X8094Y7090D01*
X8091Y7090D01*
X7963Y7090D01*
X7840Y7213D01*
X7840Y7387D01*
X7963Y7510D01*
X8137Y7510D01*
X8260Y7387D01*
X8260Y7259D01*
X8260Y7255D01*
X8261Y7251D01*
X8261Y7250D01*
X8263Y7246D01*
X8265Y7243D01*
X8265Y7242D01*
X8266Y7241D01*
X8268Y7238D01*
X8537Y6969D01*
X8611Y6896D01*
X8611Y3798D01*
X8611Y3794D01*
X8612Y3790D01*
X8612Y3789D01*
X8612Y3788D01*
X8614Y3785D01*
X8616Y3781D01*
X8617Y3780D01*
X8617Y3779D01*
X8619Y3777D01*
X8660Y3737D01*
X8660Y3563D01*
X8537Y3440D01*
X8363Y3440D01*
G37*
%LPD*%
%LPC*%
G36*
X33713Y9490D02*
X33713Y9490D01*
X33623Y9581D01*
X33620Y9583D01*
X33617Y9585D01*
X33616Y9586D01*
X33615Y9586D01*
X33611Y9587D01*
X33608Y9589D01*
X33606Y9589D01*
X33605Y9589D01*
X33602Y9589D01*
X32254Y9589D01*
X31062Y10782D01*
X31058Y10784D01*
X31055Y10787D01*
X31054Y10787D01*
X31050Y10788D01*
X31046Y10790D01*
X31045Y10790D01*
X31044Y10790D01*
X31041Y10790D01*
X30913Y10790D01*
X30790Y10913D01*
X30790Y11087D01*
X30913Y11210D01*
X31087Y11210D01*
X31210Y11087D01*
X31210Y10959D01*
X31210Y10958D01*
X31210Y10956D01*
X31210Y10955D01*
X31211Y10951D01*
X31211Y10950D01*
X31213Y10946D01*
X31215Y10943D01*
X31215Y10942D01*
X31216Y10941D01*
X31218Y10938D01*
X32337Y9819D01*
X32341Y9817D01*
X32344Y9815D01*
X32344Y9814D01*
X32345Y9814D01*
X32349Y9813D01*
X32353Y9811D01*
X32354Y9811D01*
X32355Y9811D01*
X32358Y9811D01*
X33602Y9811D01*
X33606Y9811D01*
X33610Y9812D01*
X33611Y9812D01*
X33612Y9812D01*
X33615Y9814D01*
X33619Y9816D01*
X33620Y9817D01*
X33621Y9817D01*
X33623Y9819D01*
X33713Y9910D01*
X33887Y9910D01*
X34010Y9787D01*
X34010Y9613D01*
X33887Y9490D01*
X33713Y9490D01*
G37*
%LPD*%
%LPC*%
G36*
X26213Y8390D02*
X26213Y8390D01*
X26090Y8513D01*
X26090Y8687D01*
X26213Y8810D01*
X26341Y8810D01*
X26345Y8810D01*
X26349Y8811D01*
X26350Y8811D01*
X26354Y8813D01*
X26357Y8815D01*
X26358Y8815D01*
X26359Y8816D01*
X26362Y8818D01*
X26381Y8837D01*
X26383Y8841D01*
X26385Y8844D01*
X26386Y8844D01*
X26386Y8845D01*
X26387Y8849D01*
X26389Y8853D01*
X26389Y8854D01*
X26389Y8855D01*
X26389Y8858D01*
X26389Y11002D01*
X26389Y11006D01*
X26388Y11010D01*
X26388Y11011D01*
X26388Y11012D01*
X26386Y11015D01*
X26384Y11019D01*
X26383Y11020D01*
X26383Y11021D01*
X26381Y11023D01*
X26290Y11113D01*
X26290Y11287D01*
X26413Y11410D01*
X26587Y11410D01*
X26710Y11287D01*
X26710Y11113D01*
X26619Y11023D01*
X26617Y11020D01*
X26615Y11017D01*
X26614Y11016D01*
X26614Y11015D01*
X26613Y11011D01*
X26611Y11008D01*
X26611Y11006D01*
X26611Y11005D01*
X26611Y11002D01*
X26611Y8754D01*
X26518Y8662D01*
X26516Y8658D01*
X26513Y8655D01*
X26513Y8654D01*
X26512Y8650D01*
X26510Y8646D01*
X26510Y8645D01*
X26510Y8644D01*
X26510Y8641D01*
X26510Y8513D01*
X26387Y8390D01*
X26213Y8390D01*
G37*
%LPD*%
%LPC*%
G36*
X28613Y8690D02*
X28613Y8690D01*
X28490Y8813D01*
X28490Y8987D01*
X28581Y9077D01*
X28583Y9080D01*
X28585Y9083D01*
X28586Y9084D01*
X28586Y9085D01*
X28587Y9089D01*
X28589Y9092D01*
X28589Y9094D01*
X28589Y9095D01*
X28589Y9098D01*
X28589Y10946D01*
X28882Y11238D01*
X28884Y11242D01*
X28887Y11245D01*
X28887Y11246D01*
X28888Y11250D01*
X28890Y11254D01*
X28890Y11255D01*
X28890Y11256D01*
X28890Y11259D01*
X28890Y11387D01*
X29013Y11510D01*
X29187Y11510D01*
X29310Y11387D01*
X29310Y11213D01*
X29187Y11090D01*
X29059Y11090D01*
X29055Y11090D01*
X29051Y11089D01*
X29050Y11089D01*
X29046Y11087D01*
X29043Y11085D01*
X29042Y11085D01*
X29041Y11084D01*
X29038Y11082D01*
X28819Y10863D01*
X28817Y10860D01*
X28816Y10859D01*
X28816Y10858D01*
X28815Y10856D01*
X28814Y10856D01*
X28814Y10855D01*
X28813Y10851D01*
X28811Y10847D01*
X28811Y10846D01*
X28811Y10845D01*
X28811Y10842D01*
X28811Y9098D01*
X28811Y9094D01*
X28812Y9090D01*
X28812Y9089D01*
X28812Y9088D01*
X28814Y9085D01*
X28816Y9081D01*
X28817Y9080D01*
X28817Y9079D01*
X28819Y9077D01*
X28910Y8987D01*
X28910Y8813D01*
X28787Y8690D01*
X28613Y8690D01*
G37*
%LPD*%
%LPC*%
G36*
X46854Y25566D02*
X46854Y25566D01*
X46676Y25640D01*
X46540Y25776D01*
X46466Y25954D01*
X46466Y26146D01*
X46540Y26324D01*
X46676Y26460D01*
X46854Y26534D01*
X47046Y26534D01*
X47224Y26460D01*
X47360Y26324D01*
X47434Y26146D01*
X47434Y25954D01*
X47360Y25776D01*
X47224Y25640D01*
X47046Y25566D01*
X46854Y25566D01*
G37*
%LPD*%
%LPC*%
G36*
X44854Y25566D02*
X44854Y25566D01*
X44676Y25640D01*
X44540Y25776D01*
X44466Y25954D01*
X44466Y26146D01*
X44540Y26324D01*
X44676Y26460D01*
X44854Y26534D01*
X45046Y26534D01*
X45224Y26460D01*
X45360Y26324D01*
X45434Y26146D01*
X45434Y25954D01*
X45360Y25776D01*
X45224Y25640D01*
X45046Y25566D01*
X44854Y25566D01*
G37*
%LPD*%
%LPC*%
G36*
X34913Y10190D02*
X34913Y10190D01*
X34790Y10313D01*
X34790Y10487D01*
X34881Y10577D01*
X34883Y10580D01*
X34885Y10583D01*
X34886Y10584D01*
X34886Y10585D01*
X34887Y10589D01*
X34889Y10592D01*
X34889Y10594D01*
X34889Y10595D01*
X34889Y10598D01*
X34889Y12146D01*
X35254Y12511D01*
X35302Y12511D01*
X35306Y12511D01*
X35310Y12512D01*
X35311Y12512D01*
X35312Y12512D01*
X35315Y12514D01*
X35319Y12516D01*
X35320Y12517D01*
X35321Y12517D01*
X35323Y12519D01*
X35413Y12610D01*
X35587Y12610D01*
X35710Y12487D01*
X35710Y12313D01*
X35587Y12190D01*
X35413Y12190D01*
X35351Y12253D01*
X35350Y12253D01*
X35349Y12254D01*
X35346Y12256D01*
X35343Y12258D01*
X35342Y12259D01*
X35341Y12259D01*
X35337Y12260D01*
X35334Y12261D01*
X35333Y12261D01*
X35332Y12261D01*
X35328Y12261D01*
X35324Y12261D01*
X35323Y12260D01*
X35322Y12260D01*
X35319Y12259D01*
X35315Y12257D01*
X35314Y12256D01*
X35309Y12253D01*
X35119Y12063D01*
X35118Y12060D01*
X35116Y12058D01*
X35115Y12057D01*
X35115Y12056D01*
X35114Y12056D01*
X35114Y12055D01*
X35113Y12052D01*
X35112Y12049D01*
X35111Y12047D01*
X35111Y12046D01*
X35111Y12045D01*
X35111Y12042D01*
X35111Y10598D01*
X35111Y10594D01*
X35112Y10590D01*
X35112Y10589D01*
X35112Y10588D01*
X35114Y10585D01*
X35116Y10581D01*
X35117Y10580D01*
X35117Y10579D01*
X35119Y10577D01*
X35210Y10487D01*
X35210Y10313D01*
X35087Y10190D01*
X34913Y10190D01*
G37*
%LPD*%
%LPC*%
G36*
X29513Y8990D02*
X29513Y8990D01*
X29390Y9113D01*
X29390Y9287D01*
X29481Y9377D01*
X29483Y9380D01*
X29485Y9383D01*
X29486Y9384D01*
X29486Y9385D01*
X29487Y9389D01*
X29489Y9392D01*
X29489Y9394D01*
X29489Y9395D01*
X29489Y9398D01*
X29489Y11046D01*
X29682Y11238D01*
X29684Y11242D01*
X29687Y11245D01*
X29687Y11246D01*
X29688Y11250D01*
X29690Y11254D01*
X29690Y11255D01*
X29690Y11256D01*
X29690Y11259D01*
X29690Y11387D01*
X29813Y11510D01*
X29987Y11510D01*
X30110Y11387D01*
X30110Y11213D01*
X29987Y11090D01*
X29859Y11090D01*
X29855Y11090D01*
X29851Y11089D01*
X29850Y11089D01*
X29846Y11087D01*
X29843Y11085D01*
X29842Y11085D01*
X29841Y11084D01*
X29838Y11082D01*
X29719Y10963D01*
X29717Y10959D01*
X29715Y10956D01*
X29714Y10956D01*
X29714Y10955D01*
X29713Y10951D01*
X29711Y10947D01*
X29711Y10946D01*
X29711Y10945D01*
X29711Y10942D01*
X29711Y9398D01*
X29711Y9394D01*
X29712Y9390D01*
X29712Y9389D01*
X29712Y9388D01*
X29714Y9385D01*
X29716Y9381D01*
X29717Y9380D01*
X29717Y9379D01*
X29719Y9377D01*
X29810Y9287D01*
X29810Y9113D01*
X29687Y8990D01*
X29513Y8990D01*
G37*
%LPD*%
%LPC*%
G36*
X21371Y28115D02*
X21371Y28115D01*
X21204Y28184D01*
X21077Y28312D01*
X21007Y28479D01*
X21007Y28660D01*
X21077Y28827D01*
X21204Y28955D01*
X21371Y29024D01*
X21552Y29024D01*
X21719Y28955D01*
X21847Y28827D01*
X21916Y28660D01*
X21916Y28479D01*
X21847Y28312D01*
X21719Y28184D01*
X21552Y28115D01*
X21371Y28115D01*
G37*
%LPD*%
%LPC*%
G36*
X29521Y28115D02*
X29521Y28115D01*
X29354Y28184D01*
X29227Y28312D01*
X29157Y28479D01*
X29157Y28660D01*
X29227Y28827D01*
X29354Y28955D01*
X29521Y29024D01*
X29702Y29024D01*
X29869Y28955D01*
X29997Y28827D01*
X30066Y28660D01*
X30066Y28479D01*
X29997Y28312D01*
X29869Y28184D01*
X29702Y28115D01*
X29521Y28115D01*
G37*
%LPD*%
%LPC*%
G36*
X7988Y5065D02*
X7988Y5065D01*
X7865Y5188D01*
X7865Y5352D01*
X7865Y5356D01*
X7864Y5360D01*
X7864Y5361D01*
X7862Y5365D01*
X7860Y5368D01*
X7860Y5369D01*
X7859Y5370D01*
X7857Y5372D01*
X7409Y5821D01*
X7405Y5823D01*
X7402Y5825D01*
X7401Y5826D01*
X7397Y5827D01*
X7393Y5829D01*
X7392Y5829D01*
X7391Y5829D01*
X7388Y5829D01*
X6638Y5829D01*
X6634Y5829D01*
X6630Y5828D01*
X6629Y5828D01*
X6628Y5828D01*
X6625Y5826D01*
X6621Y5824D01*
X6620Y5823D01*
X6619Y5823D01*
X6617Y5821D01*
X6537Y5740D01*
X6363Y5740D01*
X6240Y5863D01*
X6240Y6037D01*
X6363Y6160D01*
X6537Y6160D01*
X6617Y6079D01*
X6620Y6077D01*
X6623Y6075D01*
X6624Y6074D01*
X6625Y6074D01*
X6629Y6073D01*
X6632Y6071D01*
X6634Y6071D01*
X6635Y6071D01*
X6638Y6071D01*
X7500Y6071D01*
X8078Y5493D01*
X8081Y5491D01*
X8084Y5488D01*
X8085Y5488D01*
X8089Y5487D01*
X8093Y5485D01*
X8094Y5485D01*
X8095Y5485D01*
X8098Y5485D01*
X8162Y5485D01*
X8285Y5362D01*
X8285Y5188D01*
X8162Y5065D01*
X7988Y5065D01*
G37*
%LPD*%
%LPC*%
G36*
X46140Y28505D02*
X46140Y28505D01*
X46105Y28540D01*
X46105Y29260D01*
X46140Y29295D01*
X46860Y29295D01*
X46895Y29260D01*
X46895Y28540D01*
X46860Y28505D01*
X46140Y28505D01*
G37*
%LPD*%
%LPC*%
G36*
X41340Y1005D02*
X41340Y1005D01*
X41305Y1040D01*
X41305Y1760D01*
X41340Y1795D01*
X42060Y1795D01*
X42095Y1760D01*
X42095Y1040D01*
X42060Y1005D01*
X41340Y1005D01*
G37*
%LPD*%
%LPC*%
G36*
X14040Y1105D02*
X14040Y1105D01*
X14005Y1140D01*
X14005Y1860D01*
X14040Y1895D01*
X14760Y1895D01*
X14795Y1860D01*
X14795Y1140D01*
X14760Y1105D01*
X14040Y1105D01*
G37*
%LPD*%
%LPC*%
G36*
X38840Y1005D02*
X38840Y1005D01*
X38805Y1040D01*
X38805Y1760D01*
X38840Y1795D01*
X39560Y1795D01*
X39595Y1760D01*
X39595Y1040D01*
X39560Y1005D01*
X38840Y1005D01*
G37*
%LPD*%
%LPC*%
G36*
X4513Y3994D02*
X4513Y3994D01*
X4390Y4117D01*
X4390Y4291D01*
X4481Y4381D01*
X4483Y4384D01*
X4485Y4388D01*
X4486Y4388D01*
X4486Y4389D01*
X4487Y4393D01*
X4489Y4397D01*
X4489Y4398D01*
X4489Y4399D01*
X4489Y4402D01*
X4489Y4942D01*
X4489Y4946D01*
X4488Y4950D01*
X4488Y4951D01*
X4486Y4955D01*
X4484Y4959D01*
X4483Y4959D01*
X4483Y4960D01*
X4481Y4963D01*
X3962Y5482D01*
X3958Y5484D01*
X3955Y5487D01*
X3954Y5487D01*
X3950Y5488D01*
X3946Y5490D01*
X3945Y5490D01*
X3944Y5490D01*
X3941Y5490D01*
X3813Y5490D01*
X3690Y5613D01*
X3690Y5787D01*
X3813Y5910D01*
X3987Y5910D01*
X4110Y5787D01*
X4110Y5659D01*
X4110Y5655D01*
X4111Y5651D01*
X4111Y5650D01*
X4113Y5646D01*
X4115Y5643D01*
X4115Y5642D01*
X4116Y5641D01*
X4118Y5638D01*
X4711Y5046D01*
X4711Y4402D01*
X4711Y4398D01*
X4712Y4394D01*
X4712Y4393D01*
X4714Y4389D01*
X4716Y4385D01*
X4717Y4385D01*
X4717Y4384D01*
X4719Y4381D01*
X4810Y4291D01*
X4810Y4117D01*
X4687Y3994D01*
X4513Y3994D01*
G37*
%LPD*%
%LPC*%
G36*
X15050Y10014D02*
X15050Y10014D01*
X15014Y10050D01*
X15014Y10750D01*
X15050Y10786D01*
X15750Y10786D01*
X15786Y10750D01*
X15786Y10050D01*
X15750Y10014D01*
X15050Y10014D01*
G37*
%LPD*%
%LPC*%
G36*
X45932Y36011D02*
X45932Y36011D01*
X45896Y36047D01*
X45896Y36715D01*
X45932Y36751D01*
X46600Y36751D01*
X46636Y36715D01*
X46636Y36047D01*
X46600Y36011D01*
X45932Y36011D01*
G37*
%LPD*%
%LPC*%
G36*
X46771Y18405D02*
X46771Y18405D01*
X46626Y18465D01*
X46515Y18576D01*
X46455Y18721D01*
X46455Y18879D01*
X46515Y19024D01*
X46626Y19135D01*
X46771Y19195D01*
X46929Y19195D01*
X47074Y19135D01*
X47185Y19024D01*
X47245Y18879D01*
X47245Y18721D01*
X47185Y18576D01*
X47074Y18465D01*
X46929Y18405D01*
X46771Y18405D01*
G37*
%LPD*%
%LPC*%
G36*
X45771Y19405D02*
X45771Y19405D01*
X45626Y19465D01*
X45515Y19576D01*
X45455Y19721D01*
X45455Y19879D01*
X45515Y20024D01*
X45626Y20135D01*
X45771Y20195D01*
X45929Y20195D01*
X46074Y20135D01*
X46185Y20024D01*
X46245Y19879D01*
X46245Y19721D01*
X46185Y19576D01*
X46074Y19465D01*
X45929Y19405D01*
X45771Y19405D01*
G37*
%LPD*%
%LPC*%
G36*
X16321Y1105D02*
X16321Y1105D01*
X16176Y1165D01*
X16065Y1276D01*
X16005Y1421D01*
X16005Y1579D01*
X16065Y1724D01*
X16176Y1835D01*
X16321Y1895D01*
X16479Y1895D01*
X16624Y1835D01*
X16735Y1724D01*
X16795Y1579D01*
X16795Y1421D01*
X16735Y1276D01*
X16624Y1165D01*
X16479Y1105D01*
X16321Y1105D01*
G37*
%LPD*%
%LPC*%
G36*
X45771Y15405D02*
X45771Y15405D01*
X45626Y15465D01*
X45515Y15576D01*
X45455Y15721D01*
X45455Y15879D01*
X45515Y16024D01*
X45626Y16135D01*
X45771Y16195D01*
X45929Y16195D01*
X46074Y16135D01*
X46185Y16024D01*
X46245Y15879D01*
X46245Y15721D01*
X46185Y15576D01*
X46074Y15465D01*
X45929Y15405D01*
X45771Y15405D01*
G37*
%LPD*%
%LPC*%
G36*
X45771Y16405D02*
X45771Y16405D01*
X45626Y16465D01*
X45515Y16576D01*
X45455Y16721D01*
X45455Y16879D01*
X45515Y17024D01*
X45626Y17135D01*
X45771Y17195D01*
X45929Y17195D01*
X46074Y17135D01*
X46185Y17024D01*
X46245Y16879D01*
X46245Y16721D01*
X46185Y16576D01*
X46074Y16465D01*
X45929Y16405D01*
X45771Y16405D01*
G37*
%LPD*%
%LPC*%
G36*
X46771Y16405D02*
X46771Y16405D01*
X46626Y16465D01*
X46515Y16576D01*
X46455Y16721D01*
X46455Y16879D01*
X46515Y17024D01*
X46626Y17135D01*
X46771Y17195D01*
X46929Y17195D01*
X47074Y17135D01*
X47185Y17024D01*
X47245Y16879D01*
X47245Y16721D01*
X47185Y16576D01*
X47074Y16465D01*
X46929Y16405D01*
X46771Y16405D01*
G37*
%LPD*%
%LPC*%
G36*
X46771Y15405D02*
X46771Y15405D01*
X46626Y15465D01*
X46515Y15576D01*
X46455Y15721D01*
X46455Y15879D01*
X46515Y16024D01*
X46626Y16135D01*
X46771Y16195D01*
X46929Y16195D01*
X47074Y16135D01*
X47185Y16024D01*
X47245Y15879D01*
X47245Y15721D01*
X47185Y15576D01*
X47074Y15465D01*
X46929Y15405D01*
X46771Y15405D01*
G37*
%LPD*%
%LPC*%
G36*
X45771Y17405D02*
X45771Y17405D01*
X45626Y17465D01*
X45515Y17576D01*
X45455Y17721D01*
X45455Y17879D01*
X45515Y18024D01*
X45626Y18135D01*
X45771Y18195D01*
X45929Y18195D01*
X46074Y18135D01*
X46185Y18024D01*
X46245Y17879D01*
X46245Y17721D01*
X46185Y17576D01*
X46074Y17465D01*
X45929Y17405D01*
X45771Y17405D01*
G37*
%LPD*%
%LPC*%
G36*
X46771Y17405D02*
X46771Y17405D01*
X46626Y17465D01*
X46515Y17576D01*
X46455Y17721D01*
X46455Y17879D01*
X46515Y18024D01*
X46626Y18135D01*
X46771Y18195D01*
X46929Y18195D01*
X47074Y18135D01*
X47185Y18024D01*
X47245Y17879D01*
X47245Y17721D01*
X47185Y17576D01*
X47074Y17465D01*
X46929Y17405D01*
X46771Y17405D01*
G37*
%LPD*%
%LPC*%
G36*
X46771Y19405D02*
X46771Y19405D01*
X46626Y19465D01*
X46515Y19576D01*
X46455Y19721D01*
X46455Y19879D01*
X46515Y20024D01*
X46626Y20135D01*
X46771Y20195D01*
X46929Y20195D01*
X47074Y20135D01*
X47185Y20024D01*
X47245Y19879D01*
X47245Y19721D01*
X47185Y19576D01*
X47074Y19465D01*
X46929Y19405D01*
X46771Y19405D01*
G37*
%LPD*%
%LPC*%
G36*
X16323Y10014D02*
X16323Y10014D01*
X16182Y10073D01*
X16073Y10182D01*
X16014Y10323D01*
X16014Y10477D01*
X16073Y10618D01*
X16182Y10727D01*
X16323Y10786D01*
X16477Y10786D01*
X16618Y10727D01*
X16727Y10618D01*
X16786Y10477D01*
X16786Y10323D01*
X16727Y10182D01*
X16618Y10073D01*
X16477Y10014D01*
X16323Y10014D01*
G37*
%LPD*%
%LPC*%
G36*
X17323Y10014D02*
X17323Y10014D01*
X17182Y10073D01*
X17073Y10182D01*
X17014Y10323D01*
X17014Y10477D01*
X17073Y10618D01*
X17182Y10727D01*
X17323Y10786D01*
X17477Y10786D01*
X17618Y10727D01*
X17727Y10618D01*
X17786Y10477D01*
X17786Y10323D01*
X17727Y10182D01*
X17618Y10073D01*
X17477Y10014D01*
X17323Y10014D01*
G37*
%LPD*%
%LPC*%
G36*
X32100Y4664D02*
X32100Y4664D01*
X32064Y4700D01*
X32064Y5300D01*
X32100Y5336D01*
X32700Y5336D01*
X32736Y5300D01*
X32736Y4700D01*
X32700Y4664D01*
X32100Y4664D01*
G37*
%LPD*%
%LPC*%
G36*
X23950Y4664D02*
X23950Y4664D01*
X23914Y4700D01*
X23914Y5300D01*
X23950Y5336D01*
X24550Y5336D01*
X24586Y5300D01*
X24586Y4700D01*
X24550Y4664D01*
X23950Y4664D01*
G37*
%LPD*%
%LPC*%
G36*
X45011Y36011D02*
X45011Y36011D01*
X44876Y36068D01*
X44772Y36172D01*
X44715Y36308D01*
X44715Y36455D01*
X44772Y36591D01*
X44876Y36695D01*
X45011Y36751D01*
X45159Y36751D01*
X45295Y36695D01*
X45399Y36591D01*
X45455Y36455D01*
X45455Y36308D01*
X45399Y36172D01*
X45295Y36068D01*
X45159Y36011D01*
X45011Y36011D01*
G37*
%LPD*%
%LPC*%
G36*
X46193Y34830D02*
X46193Y34830D01*
X46057Y34886D01*
X45953Y34991D01*
X45896Y35126D01*
X45896Y35274D01*
X45953Y35409D01*
X46057Y35514D01*
X46193Y35570D01*
X46340Y35570D01*
X46476Y35514D01*
X46580Y35409D01*
X46636Y35274D01*
X46636Y35126D01*
X46580Y34991D01*
X46476Y34886D01*
X46340Y34830D01*
X46193Y34830D01*
G37*
%LPD*%
%LPC*%
G36*
X45011Y34830D02*
X45011Y34830D01*
X44876Y34886D01*
X44772Y34991D01*
X44715Y35126D01*
X44715Y35274D01*
X44772Y35409D01*
X44876Y35514D01*
X45011Y35570D01*
X45159Y35570D01*
X45295Y35514D01*
X45399Y35409D01*
X45455Y35274D01*
X45455Y35126D01*
X45399Y34991D01*
X45295Y34886D01*
X45159Y34830D01*
X45011Y34830D01*
G37*
%LPD*%
%LPC*%
G36*
X46929Y7444D02*
X46929Y7444D01*
X46798Y7498D01*
X46698Y7598D01*
X46644Y7729D01*
X46644Y7871D01*
X46698Y8002D01*
X46798Y8102D01*
X46929Y8156D01*
X47071Y8156D01*
X47202Y8102D01*
X47302Y8002D01*
X47356Y7871D01*
X47356Y7729D01*
X47302Y7598D01*
X47202Y7498D01*
X47071Y7444D01*
X46929Y7444D01*
G37*
%LPD*%
%LPC*%
G36*
X46929Y11444D02*
X46929Y11444D01*
X46798Y11498D01*
X46698Y11598D01*
X46644Y11729D01*
X46644Y11871D01*
X46698Y12002D01*
X46798Y12102D01*
X46929Y12156D01*
X47071Y12156D01*
X47202Y12102D01*
X47302Y12002D01*
X47356Y11871D01*
X47356Y11729D01*
X47302Y11598D01*
X47202Y11498D01*
X47071Y11444D01*
X46929Y11444D01*
G37*
%LPD*%
%LPC*%
G36*
X3471Y20060D02*
X3471Y20060D01*
X3347Y20111D01*
X3252Y20206D01*
X3200Y20330D01*
X3200Y20465D01*
X3252Y20589D01*
X3347Y20684D01*
X3471Y20736D01*
X3605Y20736D01*
X3730Y20684D01*
X3825Y20589D01*
X3876Y20465D01*
X3876Y20330D01*
X3825Y20206D01*
X3730Y20111D01*
X3605Y20060D01*
X3471Y20060D01*
G37*
%LPD*%
%LPC*%
G36*
X3471Y20863D02*
X3471Y20863D01*
X3347Y20914D01*
X3252Y21009D01*
X3200Y21134D01*
X3200Y21268D01*
X3252Y21392D01*
X3347Y21487D01*
X3471Y21539D01*
X3605Y21539D01*
X3730Y21487D01*
X3825Y21392D01*
X3876Y21268D01*
X3876Y21134D01*
X3825Y21009D01*
X3730Y20914D01*
X3605Y20863D01*
X3471Y20863D01*
G37*
%LPD*%
%LPC*%
G36*
X4471Y20461D02*
X4471Y20461D01*
X4347Y20513D01*
X4252Y20608D01*
X4200Y20732D01*
X4200Y20866D01*
X4252Y20991D01*
X4347Y21086D01*
X4471Y21137D01*
X4605Y21137D01*
X4730Y21086D01*
X4825Y20991D01*
X4876Y20866D01*
X4876Y20732D01*
X4825Y20608D01*
X4730Y20513D01*
X4605Y20461D01*
X4471Y20461D01*
G37*
%LPD*%
%LPC*%
G36*
X3471Y19257D02*
X3471Y19257D01*
X3347Y19308D01*
X3252Y19403D01*
X3200Y19527D01*
X3200Y19662D01*
X3252Y19786D01*
X3347Y19881D01*
X3471Y19932D01*
X3605Y19932D01*
X3730Y19881D01*
X3825Y19786D01*
X3876Y19662D01*
X3876Y19527D01*
X3825Y19403D01*
X3730Y19308D01*
X3605Y19257D01*
X3471Y19257D01*
G37*
%LPD*%
%LPC*%
G36*
X4471Y21264D02*
X4471Y21264D01*
X4347Y21316D01*
X4252Y21411D01*
X4200Y21535D01*
X4200Y21670D01*
X4252Y21794D01*
X4347Y21889D01*
X4471Y21940D01*
X4605Y21940D01*
X4730Y21889D01*
X4825Y21794D01*
X4876Y21670D01*
X4876Y21535D01*
X4825Y21411D01*
X4730Y21316D01*
X4605Y21264D01*
X4471Y21264D01*
G37*
%LPD*%
%LPC*%
G36*
X3471Y21666D02*
X3471Y21666D01*
X3347Y21717D01*
X3252Y21813D01*
X3200Y21937D01*
X3200Y22071D01*
X3252Y22195D01*
X3347Y22290D01*
X3471Y22342D01*
X3605Y22342D01*
X3730Y22290D01*
X3825Y22195D01*
X3876Y22071D01*
X3876Y21937D01*
X3825Y21813D01*
X3730Y21717D01*
X3605Y21666D01*
X3471Y21666D01*
G37*
%LPD*%
%LPC*%
G36*
X23183Y4664D02*
X23183Y4664D01*
X23060Y4715D01*
X22965Y4810D01*
X22914Y4933D01*
X22914Y5067D01*
X22965Y5190D01*
X23060Y5285D01*
X23183Y5336D01*
X23317Y5336D01*
X23440Y5285D01*
X23535Y5190D01*
X23586Y5067D01*
X23586Y4933D01*
X23535Y4810D01*
X23440Y4715D01*
X23317Y4664D01*
X23183Y4664D01*
G37*
%LPD*%
%LPC*%
G36*
X20183Y4664D02*
X20183Y4664D01*
X20060Y4715D01*
X19965Y4810D01*
X19914Y4933D01*
X19914Y5067D01*
X19965Y5190D01*
X20060Y5285D01*
X20183Y5336D01*
X20317Y5336D01*
X20440Y5285D01*
X20535Y5190D01*
X20586Y5067D01*
X20586Y4933D01*
X20535Y4810D01*
X20440Y4715D01*
X20317Y4664D01*
X20183Y4664D01*
G37*
%LPD*%
%LPC*%
G36*
X28333Y4664D02*
X28333Y4664D01*
X28210Y4715D01*
X28115Y4810D01*
X28064Y4933D01*
X28064Y5067D01*
X28115Y5190D01*
X28210Y5285D01*
X28333Y5336D01*
X28467Y5336D01*
X28590Y5285D01*
X28685Y5190D01*
X28736Y5067D01*
X28736Y4933D01*
X28685Y4810D01*
X28590Y4715D01*
X28467Y4664D01*
X28333Y4664D01*
G37*
%LPD*%
%LPC*%
G36*
X31333Y4664D02*
X31333Y4664D01*
X31210Y4715D01*
X31115Y4810D01*
X31064Y4933D01*
X31064Y5067D01*
X31115Y5190D01*
X31210Y5285D01*
X31333Y5336D01*
X31467Y5336D01*
X31590Y5285D01*
X31685Y5190D01*
X31736Y5067D01*
X31736Y4933D01*
X31685Y4810D01*
X31590Y4715D01*
X31467Y4664D01*
X31333Y4664D01*
G37*
%LPD*%
%LPC*%
G36*
X19183Y4664D02*
X19183Y4664D01*
X19060Y4715D01*
X18965Y4810D01*
X18914Y4933D01*
X18914Y5067D01*
X18965Y5190D01*
X19060Y5285D01*
X19183Y5336D01*
X19317Y5336D01*
X19440Y5285D01*
X19535Y5190D01*
X19586Y5067D01*
X19586Y4933D01*
X19535Y4810D01*
X19440Y4715D01*
X19317Y4664D01*
X19183Y4664D01*
G37*
%LPD*%
%LPC*%
G36*
X27333Y4664D02*
X27333Y4664D01*
X27210Y4715D01*
X27115Y4810D01*
X27064Y4933D01*
X27064Y5067D01*
X27115Y5190D01*
X27210Y5285D01*
X27333Y5336D01*
X27467Y5336D01*
X27590Y5285D01*
X27685Y5190D01*
X27736Y5067D01*
X27736Y4933D01*
X27685Y4810D01*
X27590Y4715D01*
X27467Y4664D01*
X27333Y4664D01*
G37*
%LPD*%
%LPC*%
G36*
X40213Y16090D02*
X40213Y16090D01*
X40090Y16213D01*
X40090Y16387D01*
X40213Y16510D01*
X40341Y16510D01*
X40345Y16510D01*
X40349Y16511D01*
X40350Y16511D01*
X40354Y16513D01*
X40357Y16515D01*
X40358Y16515D01*
X40359Y16516D01*
X40362Y16518D01*
X40474Y16630D01*
X40474Y16631D01*
X40475Y16632D01*
X40477Y16635D01*
X40479Y16638D01*
X40479Y16639D01*
X40480Y16640D01*
X40481Y16644D01*
X40482Y16647D01*
X40482Y16648D01*
X40482Y16649D01*
X40482Y16653D01*
X40482Y16657D01*
X40481Y16658D01*
X40481Y16659D01*
X40479Y16662D01*
X40478Y16666D01*
X40477Y16666D01*
X40477Y16667D01*
X40474Y16672D01*
X40390Y16755D01*
X40390Y16928D01*
X40513Y17051D01*
X40687Y17051D01*
X40810Y16928D01*
X40810Y16755D01*
X40719Y16664D01*
X40717Y16661D01*
X40715Y16658D01*
X40714Y16657D01*
X40713Y16653D01*
X40711Y16649D01*
X40711Y16648D01*
X40711Y16647D01*
X40711Y16644D01*
X40711Y16554D01*
X40518Y16362D01*
X40516Y16359D01*
X40515Y16358D01*
X40515Y16357D01*
X40513Y16355D01*
X40513Y16354D01*
X40512Y16350D01*
X40510Y16346D01*
X40510Y16345D01*
X40510Y16344D01*
X40510Y16341D01*
X40510Y16213D01*
X40387Y16090D01*
X40213Y16090D01*
G37*
%LPD*%
D10*
X46366Y2316D03*
X46366Y4284D03*
D11*
X47429Y1922D03*
X47429Y4678D03*
D12*
X47000Y12784D03*
X47000Y11800D03*
X47000Y8784D03*
X47000Y7800D03*
D13*
X45850Y19800D03*
X45850Y18800D03*
X45850Y17800D03*
X45850Y16800D03*
X45850Y15800D03*
X46850Y15800D03*
X46850Y16800D03*
X46850Y17800D03*
X46850Y18800D03*
X46850Y19800D03*
D14*
X39200Y1400D03*
D13*
X40200Y1400D03*
D15*
X34600Y750D03*
D16*
X35600Y750D03*
X36600Y750D03*
X37600Y750D03*
D17*
X44950Y26050D03*
X46950Y26050D03*
X44950Y23000D03*
X46950Y23000D03*
D18*
X24250Y5000D03*
D19*
X23250Y5000D03*
X22250Y5000D03*
X21250Y5000D03*
X20250Y5000D03*
X19250Y5000D03*
D18*
X32400Y5000D03*
D19*
X31400Y5000D03*
X30400Y5000D03*
X29400Y5000D03*
X28400Y5000D03*
X27400Y5000D03*
D20*
X46266Y36381D03*
D21*
X46266Y35200D03*
X46266Y34019D03*
X45085Y36381D03*
X45085Y35200D03*
X45085Y34019D03*
D22*
X32588Y28569D03*
D23*
X29612Y28569D03*
X32588Y36010D03*
X29612Y37994D03*
D22*
X24438Y28569D03*
D23*
X21462Y28569D03*
X24438Y36010D03*
X21462Y37994D03*
D24*
X19635Y35966D03*
D25*
X20265Y37934D03*
D24*
X27485Y36016D03*
D25*
X28115Y37984D03*
D17*
X25900Y37900D03*
X25900Y39900D03*
X25900Y43000D03*
X25900Y45000D03*
X17800Y37800D03*
X17800Y39800D03*
X17800Y43000D03*
X17800Y45000D03*
X8600Y44300D03*
X8600Y46300D03*
X8600Y37000D03*
X8600Y39000D03*
D26*
X14800Y36971D03*
D27*
X14800Y45829D03*
D28*
X37261Y45000D03*
X32339Y45000D03*
X43661Y45000D03*
X38739Y45000D03*
D24*
X12015Y43284D03*
D25*
X11385Y41316D03*
D29*
X8151Y34000D03*
D30*
X17049Y34000D03*
D23*
X44416Y41450D03*
X46384Y41450D03*
X41650Y40184D03*
X41650Y38216D03*
D14*
X14400Y1500D03*
D13*
X15400Y1500D03*
X16400Y1500D03*
D14*
X6450Y1400D03*
D13*
X7450Y1400D03*
X8450Y1400D03*
D14*
X41700Y1400D03*
D13*
X42700Y1400D03*
D17*
X5200Y37100D03*
X5200Y39100D03*
X5200Y44300D03*
X5200Y46300D03*
X1800Y37000D03*
X1800Y39000D03*
X1800Y44300D03*
X1800Y46300D03*
D23*
X39216Y35200D03*
X41184Y35200D03*
D14*
X46500Y28900D03*
D13*
X46500Y29900D03*
D14*
X1600Y15100D03*
D13*
X1600Y14100D03*
X1600Y13100D03*
D31*
X3538Y19594D03*
X4538Y19996D03*
X3538Y20398D03*
X4538Y20799D03*
X3538Y21201D03*
X4538Y21602D03*
X3538Y22004D03*
X4538Y22406D03*
D15*
X15400Y10400D03*
D16*
X16400Y10400D03*
X17400Y10400D03*
X18400Y10400D03*
D32*
X4400Y8750D03*
X5400Y9700D03*
X3800Y10900D03*
X27900Y7859D03*
X28900Y7859D03*
X29900Y7859D03*
X17350Y6000D03*
X16150Y4700D03*
X11800Y5100D03*
X13400Y7500D03*
X12100Y9000D03*
X9900Y7250D03*
X10100Y12100D03*
X12350Y10600D03*
X9100Y5650D03*
X8050Y4600D03*
X2800Y5900D03*
X4050Y5100D03*
X6350Y7600D03*
X7300Y7741D03*
X40450Y3350D03*
X42350Y2750D03*
X42700Y10400D03*
X43750Y11550D03*
X26900Y15550D03*
X24000Y18750D03*
X21850Y18700D03*
X21100Y8650D03*
X22050Y8650D03*
X20100Y8650D03*
X19100Y8650D03*
X15000Y7641D03*
X22850Y15200D03*
X22850Y16300D03*
X24850Y15600D03*
X29100Y9800D03*
X43850Y2050D03*
X43300Y3500D03*
X43850Y4500D03*
X45100Y5300D03*
X43900Y6950D03*
X40900Y15400D03*
X37300Y23100D03*
X43400Y23400D03*
X45400Y32700D03*
X45800Y38850D03*
X44950Y38700D03*
X43300Y37400D03*
X43600Y31050D03*
X11100Y19550D03*
X8700Y18669D03*
X4600Y15800D03*
X5350Y6000D03*
X9600Y9150D03*
X10500Y23550D03*
X27400Y16200D03*
X29700Y16500D03*
X30500Y15500D03*
X30500Y16800D03*
X30500Y14300D03*
X37000Y28200D03*
X20200Y10400D03*
X24900Y12300D03*
X29200Y19300D03*
X32700Y11600D03*
X36200Y9200D03*
X36900Y9800D03*
X37500Y10400D03*
X38000Y10900D03*
X38600Y11400D03*
X33900Y15400D03*
X36300Y12600D03*
D33*
X33900Y15000D01*
X33900Y15400D01*
D32*
X33800Y15900D03*
X36800Y12900D03*
D33*
X33800Y15900D01*
D34*
X19600Y2600D02*
X17700Y700D01*
X36700Y2600D02*
X41700Y7600D01*
X36700Y2600D02*
X30450Y2600D01*
X22250Y2600D01*
X19600Y2600D01*
X17700Y700D02*
X17300Y700D01*
X13250Y700D01*
X9650Y700D01*
X1950Y700D01*
X41700Y32500D02*
X42900Y33700D01*
X42900Y36966D01*
X41650Y38216D01*
X41700Y9700D02*
X41700Y7600D01*
X41700Y9700D02*
X41700Y13000D01*
X41700Y32500D01*
D32*
X41700Y9700D03*
X41700Y13000D03*
D35*
X3950Y8750D02*
X1950Y6750D01*
D32*
X3950Y8750D03*
D34*
X1200Y1450D02*
X1950Y700D01*
X950Y22050D02*
X1850Y22950D01*
X1200Y6150D02*
X1200Y1450D01*
X950Y6400D02*
X950Y22050D01*
X950Y6400D02*
X1200Y6150D01*
D36*
X1850Y22950D02*
X8450Y22950D01*
X11150Y20250D01*
X11175Y20275D01*
D32*
X11175Y20275D03*
D36*
X1950Y6750D02*
X1350Y6150D01*
X1200Y6150D01*
X37600Y1700D02*
X37600Y750D01*
X37600Y1700D02*
X36700Y2600D01*
D32*
X17300Y700D03*
D36*
X22250Y2600D02*
X22250Y5000D01*
X30400Y5000D02*
X30400Y2650D01*
X30450Y2600D01*
D35*
X13250Y2650D02*
X13250Y700D01*
X13250Y2650D02*
X14350Y3750D01*
X14350Y6800D01*
X12587Y10150D02*
X11450Y10150D01*
X12587Y10150D02*
X14350Y8387D01*
D32*
X11450Y10150D03*
D35*
X14350Y8387D02*
X14350Y6800D01*
D32*
X14350Y6800D03*
X9650Y700D03*
X6450Y5950D03*
D37*
X7450Y5950D01*
X8100Y5300D01*
X8075Y5275D01*
D32*
X8075Y5275D03*
D34*
X37350Y9250D02*
X39500Y11400D01*
X37350Y9250D02*
X36800Y8700D01*
X35500Y7400D01*
X32900Y7400D01*
X26600Y7400D01*
X22100Y11900D02*
X22100Y12300D01*
X22100Y12650D01*
X22100Y16000D01*
X22100Y16500D01*
X24150Y9850D02*
X26600Y7400D01*
X24150Y9850D02*
X22100Y11900D01*
D32*
X22100Y11900D03*
X22100Y16500D03*
D34*
X39500Y33516D02*
X41184Y35200D01*
X39500Y33516D02*
X39500Y17150D01*
X39500Y15800D01*
X39500Y13300D01*
X39500Y11400D01*
D32*
X36800Y8700D03*
X37350Y9250D03*
X38100Y13200D03*
D37*
X38200Y13300D01*
X39500Y13300D01*
D32*
X38200Y15800D03*
D37*
X39500Y15800D01*
D32*
X39500Y17150D03*
X32900Y7400D03*
X4250Y12000D03*
D37*
X4900Y12650D01*
X22100Y12650D01*
D32*
X24150Y9850D03*
X24950Y16650D03*
D33*
X24300Y16000D01*
X22100Y16000D01*
D32*
X15300Y11900D03*
D36*
X15700Y12300D01*
X22100Y12300D01*
D32*
X40600Y16842D03*
D33*
X40600Y16600D01*
X40300Y16300D01*
D32*
X40300Y16300D03*
X34500Y16127D03*
D33*
X34327Y16300D01*
X30400Y16300D02*
X28900Y14800D01*
D32*
X28900Y14800D03*
D33*
X30400Y16300D02*
X34327Y16300D01*
D32*
X33800Y9700D03*
D33*
X32300Y9700D01*
X31000Y11000D01*
D32*
X31000Y11000D03*
X24150Y24850D03*
D35*
X24500Y25200D01*
D34*
X38300Y26850D02*
X38300Y28000D01*
X38300Y28500D02*
X38300Y39250D01*
X40750Y41700D01*
X46134Y41700D02*
X46384Y41450D01*
X46134Y41700D02*
X40750Y41700D01*
D35*
X31550Y25200D02*
X24500Y25200D01*
X31550Y25200D02*
X36650Y25200D01*
X38300Y26850D01*
D32*
X31550Y25200D03*
D34*
X38300Y26850D02*
X38300Y22500D01*
D35*
X38400Y22400D01*
D32*
X38300Y28500D03*
X38300Y22500D03*
X38300Y22800D03*
X38300Y28000D03*
D38*
X38300Y28500D01*
D32*
X13900Y7450D03*
D33*
X13900Y4600D01*
X13100Y3800D01*
D32*
X13100Y3800D03*
X12500Y9700D03*
D33*
X13900Y8300D01*
X13900Y7450D01*
D32*
X4400Y2600D03*
D33*
X11900Y2600D01*
X13100Y3800D01*
X7500Y8900D02*
X5800Y8900D01*
D32*
X5800Y8900D03*
D37*
X3150Y3850D02*
X4400Y2600D01*
X3150Y3850D02*
X3150Y6350D01*
X5700Y8900D01*
X5800Y8900D01*
D32*
X7500Y8900D03*
D33*
X15800Y7300D02*
X15800Y1900D01*
X15400Y1500D01*
D32*
X15800Y7300D03*
X28700Y8900D03*
D33*
X28700Y10900D01*
X29100Y11300D01*
D32*
X29100Y11300D03*
X29600Y9200D03*
D33*
X29600Y11000D02*
X29900Y11300D01*
D32*
X29900Y11300D03*
D33*
X29600Y11000D02*
X29600Y9200D01*
D32*
X8050Y7300D03*
D33*
X8500Y6850D01*
X8500Y3700D01*
X8450Y3650D01*
D32*
X8450Y3650D03*
X26800Y8300D03*
D33*
X27400Y8900D01*
X27400Y11500D01*
D32*
X27400Y11500D03*
D33*
X26800Y8300D02*
X31600Y8300D01*
X31900Y8600D01*
D32*
X31900Y8600D03*
X18100Y8000D03*
D33*
X25000Y8000D01*
X25300Y7700D01*
D32*
X25300Y7700D03*
X26300Y8600D03*
D33*
X26500Y8800D01*
X26500Y11200D01*
D32*
X26500Y11200D03*
D39*
X8600Y44300D02*
X8600Y46300D01*
D32*
X4600Y4204D03*
D33*
X4600Y5000D01*
X3900Y5700D01*
D32*
X3900Y5700D03*
X35500Y12400D03*
D33*
X35300Y12400D01*
X35000Y12100D01*
X35000Y10400D01*
D32*
X35000Y10400D03*
X6900Y25200D03*
D37*
X28400Y17000D02*
X28900Y16500D01*
X15500Y17000D02*
X7300Y25200D01*
X6900Y25200D01*
X15500Y17000D02*
X28400Y17000D01*
D32*
X28900Y16500D03*
X11400Y23500D03*
D37*
X11400Y22700D01*
X16100Y18000D01*
D32*
X26700Y18000D03*
D37*
X16100Y18000D01*
D32*
X7800Y25300D03*
D37*
X30730Y17470D02*
X31400Y16800D01*
X30730Y17470D02*
X15830Y17470D01*
X8000Y25300D01*
X7800Y25300D01*
D32*
X31400Y16800D03*
D39*
X1800Y44300D02*
X1800Y46300D01*
X5200Y46300D02*
X5200Y44300D01*
X1800Y39000D02*
X1800Y37000D01*
X5200Y37100D02*
X5200Y39100D01*
D32*
X9600Y20300D03*
D37*
X4842Y20300D01*
X4538Y19996D01*
M02*
