G04 EAGLE Gerber RS-274X export*
G75*
%MOIN*%
%FSLAX34Y34*%
%LPD*%
%IN*%
%IPPOS*%
%AMOC8*
5,1,8,0,0,1.08239X$1,22.5*%
G01*
%ADD10C,0.000000*%
%ADD11C,0.010000*%


D10*
X0Y0D02*
X48000Y0D01*
X48000Y47244D01*
X0Y47244D01*
X0Y0D01*
X45996Y13414D02*
X45998Y13443D01*
X46004Y13471D01*
X46013Y13499D01*
X46026Y13525D01*
X46043Y13548D01*
X46062Y13570D01*
X46084Y13589D01*
X46109Y13604D01*
X46135Y13617D01*
X46163Y13625D01*
X46191Y13630D01*
X46220Y13631D01*
X46249Y13628D01*
X46277Y13621D01*
X46304Y13611D01*
X46330Y13597D01*
X46353Y13580D01*
X46374Y13560D01*
X46392Y13537D01*
X46407Y13512D01*
X46418Y13485D01*
X46426Y13457D01*
X46430Y13428D01*
X46430Y13400D01*
X46426Y13371D01*
X46418Y13343D01*
X46407Y13316D01*
X46392Y13291D01*
X46374Y13268D01*
X46353Y13248D01*
X46330Y13231D01*
X46304Y13217D01*
X46277Y13207D01*
X46249Y13200D01*
X46220Y13197D01*
X46191Y13198D01*
X46163Y13203D01*
X46135Y13211D01*
X46109Y13224D01*
X46084Y13239D01*
X46062Y13258D01*
X46043Y13280D01*
X46026Y13303D01*
X46013Y13329D01*
X46004Y13357D01*
X45998Y13385D01*
X45996Y13414D01*
X45996Y9414D02*
X45998Y9443D01*
X46004Y9471D01*
X46013Y9499D01*
X46026Y9525D01*
X46043Y9548D01*
X46062Y9570D01*
X46084Y9589D01*
X46109Y9604D01*
X46135Y9617D01*
X46163Y9625D01*
X46191Y9630D01*
X46220Y9631D01*
X46249Y9628D01*
X46277Y9621D01*
X46304Y9611D01*
X46330Y9597D01*
X46353Y9580D01*
X46374Y9560D01*
X46392Y9537D01*
X46407Y9512D01*
X46418Y9485D01*
X46426Y9457D01*
X46430Y9428D01*
X46430Y9400D01*
X46426Y9371D01*
X46418Y9343D01*
X46407Y9316D01*
X46392Y9291D01*
X46374Y9268D01*
X46353Y9248D01*
X46330Y9231D01*
X46304Y9217D01*
X46277Y9207D01*
X46249Y9200D01*
X46220Y9197D01*
X46191Y9198D01*
X46163Y9203D01*
X46135Y9211D01*
X46109Y9224D01*
X46084Y9239D01*
X46062Y9258D01*
X46043Y9280D01*
X46026Y9303D01*
X46013Y9329D01*
X46004Y9357D01*
X45998Y9385D01*
X45996Y9414D01*
X44498Y33515D02*
X44500Y33543D01*
X44506Y33570D01*
X44515Y33597D01*
X44529Y33622D01*
X44545Y33644D01*
X44565Y33664D01*
X44587Y33682D01*
X44611Y33696D01*
X44637Y33706D01*
X44664Y33713D01*
X44692Y33716D01*
X44720Y33715D01*
X44748Y33710D01*
X44774Y33701D01*
X44799Y33689D01*
X44823Y33673D01*
X44844Y33655D01*
X44862Y33633D01*
X44876Y33609D01*
X44888Y33584D01*
X44896Y33557D01*
X44900Y33529D01*
X44900Y33501D01*
X44896Y33473D01*
X44888Y33446D01*
X44876Y33421D01*
X44862Y33397D01*
X44844Y33375D01*
X44823Y33357D01*
X44800Y33341D01*
X44774Y33329D01*
X44748Y33320D01*
X44720Y33315D01*
X44692Y33314D01*
X44664Y33317D01*
X44637Y33324D01*
X44611Y33334D01*
X44587Y33348D01*
X44565Y33366D01*
X44545Y33386D01*
X44529Y33408D01*
X44515Y33433D01*
X44506Y33460D01*
X44500Y33487D01*
X44498Y33515D01*
X2168Y23953D02*
X2170Y23996D01*
X2176Y24038D01*
X2186Y24080D01*
X2199Y24121D01*
X2217Y24160D01*
X2238Y24198D01*
X2262Y24233D01*
X2289Y24266D01*
X2320Y24297D01*
X2353Y24324D01*
X2388Y24348D01*
X2426Y24369D01*
X2465Y24387D01*
X2506Y24400D01*
X2548Y24410D01*
X2590Y24416D01*
X2633Y24418D01*
X2676Y24416D01*
X2718Y24410D01*
X2760Y24400D01*
X2801Y24387D01*
X2840Y24369D01*
X2878Y24348D01*
X2913Y24324D01*
X2946Y24297D01*
X2977Y24266D01*
X3004Y24233D01*
X3028Y24198D01*
X3049Y24160D01*
X3067Y24121D01*
X3080Y24080D01*
X3090Y24038D01*
X3096Y23996D01*
X3098Y23953D01*
X3096Y23910D01*
X3090Y23868D01*
X3080Y23826D01*
X3067Y23785D01*
X3049Y23746D01*
X3028Y23708D01*
X3004Y23673D01*
X2977Y23640D01*
X2946Y23609D01*
X2913Y23582D01*
X2878Y23558D01*
X2840Y23537D01*
X2801Y23519D01*
X2760Y23506D01*
X2718Y23496D01*
X2676Y23490D01*
X2633Y23488D01*
X2590Y23490D01*
X2548Y23496D01*
X2506Y23506D01*
X2465Y23519D01*
X2426Y23537D01*
X2388Y23558D01*
X2353Y23582D01*
X2320Y23609D01*
X2289Y23640D01*
X2262Y23673D01*
X2238Y23708D01*
X2217Y23746D01*
X2199Y23785D01*
X2186Y23826D01*
X2176Y23868D01*
X2170Y23910D01*
X2168Y23953D01*
X2168Y18047D02*
X2170Y18090D01*
X2176Y18132D01*
X2186Y18174D01*
X2199Y18215D01*
X2217Y18254D01*
X2238Y18292D01*
X2262Y18327D01*
X2289Y18360D01*
X2320Y18391D01*
X2353Y18418D01*
X2388Y18442D01*
X2426Y18463D01*
X2465Y18481D01*
X2506Y18494D01*
X2548Y18504D01*
X2590Y18510D01*
X2633Y18512D01*
X2676Y18510D01*
X2718Y18504D01*
X2760Y18494D01*
X2801Y18481D01*
X2840Y18463D01*
X2878Y18442D01*
X2913Y18418D01*
X2946Y18391D01*
X2977Y18360D01*
X3004Y18327D01*
X3028Y18292D01*
X3049Y18254D01*
X3067Y18215D01*
X3080Y18174D01*
X3090Y18132D01*
X3096Y18090D01*
X3098Y18047D01*
X3096Y18004D01*
X3090Y17962D01*
X3080Y17920D01*
X3067Y17879D01*
X3049Y17840D01*
X3028Y17802D01*
X3004Y17767D01*
X2977Y17734D01*
X2946Y17703D01*
X2913Y17676D01*
X2878Y17652D01*
X2840Y17631D01*
X2801Y17613D01*
X2760Y17600D01*
X2718Y17590D01*
X2676Y17584D01*
X2633Y17582D01*
X2590Y17584D01*
X2548Y17590D01*
X2506Y17600D01*
X2465Y17613D01*
X2426Y17631D01*
X2388Y17652D01*
X2353Y17676D01*
X2320Y17703D01*
X2289Y17734D01*
X2262Y17767D01*
X2238Y17802D01*
X2217Y17840D01*
X2199Y17879D01*
X2186Y17920D01*
X2176Y17962D01*
X2170Y18004D01*
X2168Y18047D01*
X35509Y5100D02*
X35511Y5148D01*
X35517Y5196D01*
X35527Y5243D01*
X35540Y5289D01*
X35558Y5334D01*
X35578Y5378D01*
X35603Y5420D01*
X35631Y5459D01*
X35661Y5496D01*
X35695Y5530D01*
X35732Y5562D01*
X35770Y5591D01*
X35811Y5616D01*
X35854Y5638D01*
X35899Y5656D01*
X35945Y5670D01*
X35992Y5681D01*
X36040Y5688D01*
X36088Y5691D01*
X36136Y5690D01*
X36184Y5685D01*
X36232Y5676D01*
X36278Y5664D01*
X36323Y5647D01*
X36367Y5627D01*
X36409Y5604D01*
X36449Y5577D01*
X36487Y5547D01*
X36522Y5514D01*
X36554Y5478D01*
X36584Y5440D01*
X36610Y5399D01*
X36632Y5356D01*
X36652Y5312D01*
X36667Y5267D01*
X36679Y5220D01*
X36687Y5172D01*
X36691Y5124D01*
X36691Y5076D01*
X36687Y5028D01*
X36679Y4980D01*
X36667Y4933D01*
X36652Y4888D01*
X36632Y4844D01*
X36610Y4801D01*
X36584Y4760D01*
X36554Y4722D01*
X36522Y4686D01*
X36487Y4653D01*
X36449Y4623D01*
X36409Y4596D01*
X36367Y4573D01*
X36323Y4553D01*
X36278Y4536D01*
X36232Y4524D01*
X36184Y4515D01*
X36136Y4510D01*
X36088Y4509D01*
X36040Y4512D01*
X35992Y4519D01*
X35945Y4530D01*
X35899Y4544D01*
X35854Y4562D01*
X35811Y4584D01*
X35770Y4609D01*
X35732Y4638D01*
X35695Y4670D01*
X35661Y4704D01*
X35631Y4741D01*
X35603Y4780D01*
X35578Y4822D01*
X35558Y4866D01*
X35540Y4911D01*
X35527Y4957D01*
X35517Y5004D01*
X35511Y5052D01*
X35509Y5100D01*
X2009Y27200D02*
X2011Y27248D01*
X2017Y27296D01*
X2027Y27343D01*
X2040Y27389D01*
X2058Y27434D01*
X2078Y27478D01*
X2103Y27520D01*
X2131Y27559D01*
X2161Y27596D01*
X2195Y27630D01*
X2232Y27662D01*
X2270Y27691D01*
X2311Y27716D01*
X2354Y27738D01*
X2399Y27756D01*
X2445Y27770D01*
X2492Y27781D01*
X2540Y27788D01*
X2588Y27791D01*
X2636Y27790D01*
X2684Y27785D01*
X2732Y27776D01*
X2778Y27764D01*
X2823Y27747D01*
X2867Y27727D01*
X2909Y27704D01*
X2949Y27677D01*
X2987Y27647D01*
X3022Y27614D01*
X3054Y27578D01*
X3084Y27540D01*
X3110Y27499D01*
X3132Y27456D01*
X3152Y27412D01*
X3167Y27367D01*
X3179Y27320D01*
X3187Y27272D01*
X3191Y27224D01*
X3191Y27176D01*
X3187Y27128D01*
X3179Y27080D01*
X3167Y27033D01*
X3152Y26988D01*
X3132Y26944D01*
X3110Y26901D01*
X3084Y26860D01*
X3054Y26822D01*
X3022Y26786D01*
X2987Y26753D01*
X2949Y26723D01*
X2909Y26696D01*
X2867Y26673D01*
X2823Y26653D01*
X2778Y26636D01*
X2732Y26624D01*
X2684Y26615D01*
X2636Y26610D01*
X2588Y26609D01*
X2540Y26612D01*
X2492Y26619D01*
X2445Y26630D01*
X2399Y26644D01*
X2354Y26662D01*
X2311Y26684D01*
X2270Y26709D01*
X2232Y26738D01*
X2195Y26770D01*
X2161Y26804D01*
X2131Y26841D01*
X2103Y26880D01*
X2078Y26922D01*
X2058Y26966D01*
X2040Y27011D01*
X2027Y27057D01*
X2017Y27104D01*
X2011Y27152D01*
X2009Y27200D01*
X8109Y15200D02*
X8111Y15248D01*
X8117Y15296D01*
X8127Y15343D01*
X8140Y15389D01*
X8158Y15434D01*
X8178Y15478D01*
X8203Y15520D01*
X8231Y15559D01*
X8261Y15596D01*
X8295Y15630D01*
X8332Y15662D01*
X8370Y15691D01*
X8411Y15716D01*
X8454Y15738D01*
X8499Y15756D01*
X8545Y15770D01*
X8592Y15781D01*
X8640Y15788D01*
X8688Y15791D01*
X8736Y15790D01*
X8784Y15785D01*
X8832Y15776D01*
X8878Y15764D01*
X8923Y15747D01*
X8967Y15727D01*
X9009Y15704D01*
X9049Y15677D01*
X9087Y15647D01*
X9122Y15614D01*
X9154Y15578D01*
X9184Y15540D01*
X9210Y15499D01*
X9232Y15456D01*
X9252Y15412D01*
X9267Y15367D01*
X9279Y15320D01*
X9287Y15272D01*
X9291Y15224D01*
X9291Y15176D01*
X9287Y15128D01*
X9279Y15080D01*
X9267Y15033D01*
X9252Y14988D01*
X9232Y14944D01*
X9210Y14901D01*
X9184Y14860D01*
X9154Y14822D01*
X9122Y14786D01*
X9087Y14753D01*
X9049Y14723D01*
X9009Y14696D01*
X8967Y14673D01*
X8923Y14653D01*
X8878Y14636D01*
X8832Y14624D01*
X8784Y14615D01*
X8736Y14610D01*
X8688Y14609D01*
X8640Y14612D01*
X8592Y14619D01*
X8545Y14630D01*
X8499Y14644D01*
X8454Y14662D01*
X8411Y14684D01*
X8370Y14709D01*
X8332Y14738D01*
X8295Y14770D01*
X8261Y14804D01*
X8231Y14841D01*
X8203Y14880D01*
X8178Y14922D01*
X8158Y14966D01*
X8140Y15011D01*
X8127Y15057D01*
X8117Y15104D01*
X8111Y15152D01*
X8109Y15200D01*
D11*
X0Y0D02*
X48000Y0D01*
X48000Y47244D01*
X0Y47244D01*
X0Y0D01*
X47173Y4678D02*
X47174Y4668D01*
X47175Y4657D01*
X47177Y4647D01*
X47180Y4638D01*
X47184Y4628D01*
X47189Y4619D01*
X47195Y4610D01*
X47201Y4602D01*
X47208Y4594D01*
X47215Y4587D01*
X47224Y4581D01*
X47232Y4576D01*
X47241Y4571D01*
X47251Y4567D01*
X47261Y4564D01*
X47271Y4562D01*
X47281Y4560D01*
X47291Y4560D01*
X47567Y4560D01*
X47577Y4560D01*
X47587Y4562D01*
X47597Y4564D01*
X47607Y4567D01*
X47617Y4571D01*
X47626Y4576D01*
X47635Y4581D01*
X47643Y4587D01*
X47650Y4594D01*
X47657Y4602D01*
X47664Y4610D01*
X47669Y4619D01*
X47674Y4628D01*
X47678Y4638D01*
X47681Y4647D01*
X47683Y4657D01*
X47685Y4668D01*
X47685Y4678D01*
X47685Y4688D01*
X47683Y4698D01*
X47681Y4709D01*
X47678Y4718D01*
X47674Y4728D01*
X47669Y4737D01*
X47664Y4746D01*
X47657Y4754D01*
X47650Y4761D01*
X47643Y4768D01*
X47635Y4775D01*
X47626Y4780D01*
X47617Y4785D01*
X47607Y4789D01*
X47597Y4792D01*
X47587Y4794D01*
X47577Y4796D01*
X47567Y4796D01*
X47291Y4796D01*
X47281Y4796D01*
X47271Y4794D01*
X47261Y4792D01*
X47251Y4789D01*
X47241Y4785D01*
X47232Y4780D01*
X47224Y4775D01*
X47215Y4768D01*
X47208Y4761D01*
X47201Y4754D01*
X47195Y4746D01*
X47189Y4737D01*
X47184Y4728D01*
X47180Y4718D01*
X47177Y4709D01*
X47175Y4698D01*
X47174Y4688D01*
X47173Y4678D01*
X47173Y1922D02*
X47174Y1912D01*
X47175Y1902D01*
X47177Y1891D01*
X47180Y1882D01*
X47184Y1872D01*
X47189Y1863D01*
X47195Y1854D01*
X47201Y1846D01*
X47208Y1839D01*
X47215Y1832D01*
X47224Y1825D01*
X47232Y1820D01*
X47241Y1815D01*
X47251Y1811D01*
X47261Y1808D01*
X47271Y1806D01*
X47281Y1804D01*
X47291Y1804D01*
X47567Y1804D01*
X47577Y1804D01*
X47587Y1806D01*
X47597Y1808D01*
X47607Y1811D01*
X47617Y1815D01*
X47626Y1820D01*
X47635Y1825D01*
X47643Y1832D01*
X47650Y1839D01*
X47657Y1846D01*
X47664Y1854D01*
X47669Y1863D01*
X47674Y1872D01*
X47678Y1882D01*
X47681Y1891D01*
X47683Y1902D01*
X47685Y1912D01*
X47685Y1922D01*
X47685Y1932D01*
X47683Y1943D01*
X47681Y1953D01*
X47678Y1962D01*
X47674Y1972D01*
X47669Y1981D01*
X47664Y1990D01*
X47657Y1998D01*
X47650Y2006D01*
X47643Y2013D01*
X47635Y2019D01*
X47626Y2024D01*
X47617Y2029D01*
X47607Y2033D01*
X47597Y2036D01*
X47587Y2038D01*
X47577Y2040D01*
X47567Y2040D01*
X47291Y2040D01*
X47281Y2040D01*
X47271Y2038D01*
X47261Y2036D01*
X47251Y2033D01*
X47241Y2029D01*
X47232Y2024D01*
X47224Y2019D01*
X47215Y2013D01*
X47208Y2006D01*
X47201Y1998D01*
X47195Y1990D01*
X47189Y1981D01*
X47184Y1972D01*
X47180Y1962D01*
X47177Y1953D01*
X47175Y1943D01*
X47174Y1932D01*
X47173Y1922D01*
X46225Y13631D02*
X46249Y13628D01*
X46273Y13623D01*
X46296Y13615D01*
X46318Y13604D01*
X46338Y13591D01*
X46357Y13576D01*
X46374Y13559D01*
X46389Y13540D01*
X46402Y13519D01*
X46413Y13497D01*
X46421Y13474D01*
X46426Y13451D01*
X46429Y13426D01*
X46429Y13402D01*
X46426Y13378D01*
X46421Y13354D01*
X46413Y13331D01*
X46402Y13309D01*
X46389Y13289D01*
X46374Y13270D01*
X46357Y13252D01*
X46338Y13237D01*
X46318Y13224D01*
X46296Y13214D01*
X46273Y13206D01*
X46249Y13200D01*
X46225Y13198D01*
X46200Y13198D01*
X46176Y13200D01*
X46153Y13206D01*
X46130Y13214D01*
X46108Y13224D01*
X46087Y13237D01*
X46068Y13252D01*
X46051Y13270D01*
X46036Y13289D01*
X46023Y13309D01*
X46012Y13331D01*
X46004Y13354D01*
X45999Y13378D01*
X45996Y13402D01*
X45996Y13426D01*
X45999Y13451D01*
X46004Y13474D01*
X46012Y13497D01*
X46023Y13519D01*
X46036Y13540D01*
X46051Y13559D01*
X46068Y13576D01*
X46087Y13591D01*
X46108Y13604D01*
X46130Y13615D01*
X46153Y13623D01*
X46176Y13628D01*
X46200Y13631D01*
X46225Y13631D01*
X46225Y9631D02*
X46249Y9628D01*
X46273Y9623D01*
X46296Y9615D01*
X46318Y9604D01*
X46338Y9591D01*
X46357Y9576D01*
X46374Y9559D01*
X46389Y9540D01*
X46402Y9519D01*
X46413Y9497D01*
X46421Y9474D01*
X46426Y9451D01*
X46429Y9426D01*
X46429Y9402D01*
X46426Y9378D01*
X46421Y9354D01*
X46413Y9331D01*
X46402Y9309D01*
X46389Y9289D01*
X46374Y9270D01*
X46357Y9252D01*
X46338Y9237D01*
X46318Y9224D01*
X46296Y9214D01*
X46273Y9206D01*
X46249Y9200D01*
X46225Y9198D01*
X46200Y9198D01*
X46176Y9200D01*
X46153Y9206D01*
X46130Y9214D01*
X46108Y9224D01*
X46087Y9237D01*
X46068Y9252D01*
X46051Y9270D01*
X46036Y9289D01*
X46023Y9309D01*
X46012Y9331D01*
X46004Y9354D01*
X45999Y9378D01*
X45996Y9402D01*
X45996Y9426D01*
X45999Y9451D01*
X46004Y9474D01*
X46012Y9497D01*
X46023Y9519D01*
X46036Y9540D01*
X46051Y9559D01*
X46068Y9576D01*
X46087Y9591D01*
X46108Y9604D01*
X46130Y9615D01*
X46153Y9623D01*
X46176Y9628D01*
X46200Y9631D01*
X46225Y9631D01*
X44710Y33716D02*
X44733Y33713D01*
X44755Y33708D01*
X44776Y33701D01*
X44796Y33691D01*
X44816Y33679D01*
X44833Y33665D01*
X44849Y33649D01*
X44863Y33631D01*
X44875Y33612D01*
X44885Y33592D01*
X44892Y33571D01*
X44897Y33549D01*
X44900Y33526D01*
X44900Y33504D01*
X44897Y33481D01*
X44892Y33459D01*
X44885Y33438D01*
X44875Y33418D01*
X44863Y33399D01*
X44849Y33381D01*
X44833Y33365D01*
X44816Y33351D01*
X44796Y33339D01*
X44776Y33329D01*
X44755Y33322D01*
X44733Y33317D01*
X44710Y33314D01*
X44688Y33314D01*
X44666Y33317D01*
X44644Y33322D01*
X44622Y33329D01*
X44602Y33339D01*
X44583Y33351D01*
X44565Y33365D01*
X44549Y33381D01*
X44535Y33399D01*
X44523Y33418D01*
X44513Y33438D01*
X44506Y33459D01*
X44501Y33481D01*
X44498Y33504D01*
X44498Y33526D01*
X44501Y33549D01*
X44506Y33571D01*
X44513Y33592D01*
X44523Y33612D01*
X44535Y33631D01*
X44549Y33649D01*
X44565Y33665D01*
X44583Y33679D01*
X44602Y33691D01*
X44622Y33701D01*
X44644Y33708D01*
X44666Y33713D01*
X44688Y33716D01*
X44710Y33716D01*
X2614Y23488D02*
X2578Y23491D01*
X2542Y23497D01*
X2506Y23505D01*
X2472Y23517D01*
X2438Y23531D01*
X2406Y23547D01*
X2374Y23566D01*
X2345Y23588D01*
X2317Y23611D01*
X2291Y23637D01*
X2268Y23665D01*
X2246Y23694D01*
X2227Y23726D01*
X2210Y23758D01*
X2196Y23792D01*
X2185Y23827D01*
X2177Y23862D01*
X2171Y23898D01*
X2168Y23935D01*
X2168Y23971D01*
X2171Y24007D01*
X2177Y24043D01*
X2185Y24079D01*
X2196Y24114D01*
X2210Y24147D01*
X2227Y24180D01*
X2246Y24211D01*
X2268Y24241D01*
X2291Y24268D01*
X2317Y24294D01*
X2345Y24318D01*
X2374Y24339D01*
X2406Y24358D01*
X2438Y24375D01*
X2472Y24389D01*
X2506Y24400D01*
X2542Y24409D01*
X2578Y24414D01*
X2614Y24417D01*
X2651Y24417D01*
X2687Y24414D01*
X2723Y24409D01*
X2759Y24400D01*
X2794Y24389D01*
X2827Y24375D01*
X2860Y24358D01*
X2891Y24339D01*
X2921Y24318D01*
X2948Y24294D01*
X2974Y24268D01*
X2998Y24241D01*
X3019Y24211D01*
X3038Y24180D01*
X3055Y24147D01*
X3069Y24114D01*
X3080Y24079D01*
X3089Y24043D01*
X3094Y24007D01*
X3097Y23971D01*
X3097Y23935D01*
X3094Y23898D01*
X3089Y23862D01*
X3080Y23827D01*
X3069Y23792D01*
X3055Y23758D01*
X3038Y23726D01*
X3019Y23694D01*
X2998Y23665D01*
X2974Y23637D01*
X2948Y23611D01*
X2921Y23588D01*
X2891Y23566D01*
X2860Y23547D01*
X2827Y23531D01*
X2794Y23517D01*
X2759Y23505D01*
X2723Y23497D01*
X2687Y23491D01*
X2651Y23488D01*
X2614Y23488D01*
X2614Y17583D02*
X2578Y17586D01*
X2542Y17591D01*
X2506Y17600D01*
X2472Y17611D01*
X2438Y17625D01*
X2406Y17642D01*
X2374Y17661D01*
X2345Y17682D01*
X2317Y17706D01*
X2291Y17732D01*
X2268Y17759D01*
X2246Y17789D01*
X2227Y17820D01*
X2210Y17853D01*
X2196Y17886D01*
X2185Y17921D01*
X2177Y17957D01*
X2171Y17993D01*
X2168Y18029D01*
X2168Y18065D01*
X2171Y18102D01*
X2177Y18138D01*
X2185Y18173D01*
X2196Y18208D01*
X2210Y18242D01*
X2227Y18274D01*
X2246Y18306D01*
X2268Y18335D01*
X2291Y18363D01*
X2317Y18389D01*
X2345Y18412D01*
X2374Y18434D01*
X2406Y18453D01*
X2438Y18469D01*
X2472Y18483D01*
X2506Y18495D01*
X2542Y18503D01*
X2578Y18509D01*
X2614Y18512D01*
X2651Y18512D01*
X2687Y18509D01*
X2723Y18503D01*
X2759Y18495D01*
X2794Y18483D01*
X2827Y18469D01*
X2860Y18453D01*
X2891Y18434D01*
X2921Y18412D01*
X2948Y18389D01*
X2974Y18363D01*
X2998Y18335D01*
X3019Y18306D01*
X3038Y18274D01*
X3055Y18242D01*
X3069Y18208D01*
X3080Y18173D01*
X3089Y18138D01*
X3094Y18102D01*
X3097Y18065D01*
X3097Y18029D01*
X3094Y17993D01*
X3089Y17957D01*
X3080Y17921D01*
X3069Y17886D01*
X3055Y17853D01*
X3038Y17820D01*
X3019Y17789D01*
X2998Y17759D01*
X2974Y17732D01*
X2948Y17706D01*
X2921Y17682D01*
X2891Y17661D01*
X2860Y17642D01*
X2827Y17625D01*
X2794Y17611D01*
X2759Y17600D01*
X2723Y17591D01*
X2687Y17586D01*
X2651Y17583D01*
X2614Y17583D01*
X36691Y5079D02*
X36688Y5037D01*
X36682Y4995D01*
X36673Y4954D01*
X36661Y4913D01*
X36646Y4874D01*
X36628Y4835D01*
X36608Y4798D01*
X36585Y4763D01*
X36560Y4729D01*
X36532Y4697D01*
X36503Y4668D01*
X36471Y4640D01*
X36437Y4615D01*
X36402Y4592D01*
X36365Y4572D01*
X36326Y4554D01*
X36287Y4539D01*
X36246Y4527D01*
X36205Y4518D01*
X36163Y4512D01*
X36121Y4509D01*
X36079Y4509D01*
X36037Y4512D01*
X35995Y4518D01*
X35954Y4527D01*
X35913Y4539D01*
X35874Y4554D01*
X35835Y4572D01*
X35798Y4592D01*
X35763Y4615D01*
X35729Y4640D01*
X35697Y4668D01*
X35668Y4697D01*
X35640Y4729D01*
X35615Y4763D01*
X35592Y4798D01*
X35572Y4835D01*
X35554Y4874D01*
X35539Y4913D01*
X35527Y4954D01*
X35518Y4995D01*
X35512Y5037D01*
X35509Y5079D01*
X35509Y5121D01*
X35512Y5163D01*
X35518Y5205D01*
X35527Y5246D01*
X35539Y5287D01*
X35554Y5326D01*
X35572Y5365D01*
X35592Y5402D01*
X35615Y5437D01*
X35640Y5471D01*
X35668Y5503D01*
X35697Y5532D01*
X35729Y5560D01*
X35763Y5585D01*
X35798Y5608D01*
X35835Y5628D01*
X35874Y5646D01*
X35913Y5661D01*
X35954Y5673D01*
X35995Y5682D01*
X36037Y5688D01*
X36079Y5691D01*
X36121Y5691D01*
X36163Y5688D01*
X36205Y5682D01*
X36246Y5673D01*
X36287Y5661D01*
X36326Y5646D01*
X36365Y5628D01*
X36402Y5608D01*
X36437Y5585D01*
X36471Y5560D01*
X36503Y5532D01*
X36532Y5503D01*
X36560Y5471D01*
X36585Y5437D01*
X36608Y5402D01*
X36628Y5365D01*
X36646Y5326D01*
X36661Y5287D01*
X36673Y5246D01*
X36682Y5205D01*
X36688Y5163D01*
X36691Y5121D01*
X36691Y5079D01*
X3191Y27179D02*
X3188Y27137D01*
X3182Y27095D01*
X3173Y27054D01*
X3161Y27013D01*
X3146Y26974D01*
X3128Y26935D01*
X3108Y26898D01*
X3085Y26863D01*
X3060Y26829D01*
X3032Y26797D01*
X3003Y26768D01*
X2971Y26740D01*
X2937Y26715D01*
X2902Y26692D01*
X2865Y26672D01*
X2826Y26654D01*
X2787Y26639D01*
X2746Y26627D01*
X2705Y26618D01*
X2663Y26612D01*
X2621Y26609D01*
X2579Y26609D01*
X2537Y26612D01*
X2495Y26618D01*
X2454Y26627D01*
X2413Y26639D01*
X2374Y26654D01*
X2335Y26672D01*
X2298Y26692D01*
X2263Y26715D01*
X2229Y26740D01*
X2197Y26768D01*
X2168Y26797D01*
X2140Y26829D01*
X2115Y26863D01*
X2092Y26898D01*
X2072Y26935D01*
X2054Y26974D01*
X2039Y27013D01*
X2027Y27054D01*
X2018Y27095D01*
X2012Y27137D01*
X2009Y27179D01*
X2009Y27221D01*
X2012Y27263D01*
X2018Y27305D01*
X2027Y27346D01*
X2039Y27387D01*
X2054Y27426D01*
X2072Y27465D01*
X2092Y27502D01*
X2115Y27537D01*
X2140Y27571D01*
X2168Y27603D01*
X2197Y27632D01*
X2229Y27660D01*
X2263Y27685D01*
X2298Y27708D01*
X2335Y27728D01*
X2374Y27746D01*
X2413Y27761D01*
X2454Y27773D01*
X2495Y27782D01*
X2537Y27788D01*
X2579Y27791D01*
X2621Y27791D01*
X2663Y27788D01*
X2705Y27782D01*
X2746Y27773D01*
X2787Y27761D01*
X2826Y27746D01*
X2865Y27728D01*
X2902Y27708D01*
X2937Y27685D01*
X2971Y27660D01*
X3003Y27632D01*
X3032Y27603D01*
X3060Y27571D01*
X3085Y27537D01*
X3108Y27502D01*
X3128Y27465D01*
X3146Y27426D01*
X3161Y27387D01*
X3173Y27346D01*
X3182Y27305D01*
X3188Y27263D01*
X3191Y27221D01*
X3191Y27179D01*
X9291Y15179D02*
X9288Y15137D01*
X9282Y15095D01*
X9273Y15054D01*
X9261Y15013D01*
X9246Y14974D01*
X9228Y14935D01*
X9208Y14898D01*
X9185Y14863D01*
X9160Y14829D01*
X9132Y14797D01*
X9103Y14768D01*
X9071Y14740D01*
X9037Y14715D01*
X9002Y14692D01*
X8965Y14672D01*
X8926Y14654D01*
X8887Y14639D01*
X8846Y14627D01*
X8805Y14618D01*
X8763Y14612D01*
X8721Y14609D01*
X8679Y14609D01*
X8637Y14612D01*
X8595Y14618D01*
X8554Y14627D01*
X8513Y14639D01*
X8474Y14654D01*
X8435Y14672D01*
X8398Y14692D01*
X8363Y14715D01*
X8329Y14740D01*
X8297Y14768D01*
X8268Y14797D01*
X8240Y14829D01*
X8215Y14863D01*
X8192Y14898D01*
X8172Y14935D01*
X8154Y14974D01*
X8139Y15013D01*
X8127Y15054D01*
X8118Y15095D01*
X8112Y15137D01*
X8109Y15179D01*
X8109Y15221D01*
X8112Y15263D01*
X8118Y15305D01*
X8127Y15346D01*
X8139Y15387D01*
X8154Y15426D01*
X8172Y15465D01*
X8192Y15502D01*
X8215Y15537D01*
X8240Y15571D01*
X8268Y15603D01*
X8297Y15632D01*
X8329Y15660D01*
X8363Y15685D01*
X8398Y15708D01*
X8435Y15728D01*
X8474Y15746D01*
X8513Y15761D01*
X8554Y15773D01*
X8595Y15782D01*
X8637Y15788D01*
X8679Y15791D01*
X8721Y15791D01*
X8763Y15788D01*
X8805Y15782D01*
X8846Y15773D01*
X8887Y15761D01*
X8926Y15746D01*
X8965Y15728D01*
X9002Y15708D01*
X9037Y15685D01*
X9071Y15660D01*
X9103Y15632D01*
X9132Y15603D01*
X9160Y15571D01*
X9185Y15537D01*
X9208Y15502D01*
X9228Y15465D01*
X9246Y15426D01*
X9261Y15387D01*
X9273Y15346D01*
X9282Y15305D01*
X9288Y15263D01*
X9291Y15221D01*
X9291Y15179D01*
M02*
