G04 EAGLE Gerber RS-274X export*
G75*
%MOIN*%
%FSLAX34Y34*%
%LPD*%
%INSoldermask Bottom*%
%IPPOS*%
%AMOC8*
5,1,8,0,0,1.08239X$1,22.5*%
G01*
%ADD10C,0.031043*%
%ADD11C,0.051307*%
%ADD12C,0.067055*%
%ADD13C,0.074929*%
%ADD14R,0.074929X0.074929*%
%ADD15R,0.072961X0.072961*%
%ADD16C,0.072961*%
%ADD17C,0.092646*%
%ADD18R,0.063000X0.063000*%
%ADD19C,0.063000*%
%ADD20C,0.048157*%
%ADD21R,0.069811X0.069811*%
%ADD22C,0.069811*%
%ADD23R,0.086740X0.086740*%
%ADD24C,0.086740*%
%ADD25R,0.059496X0.059496*%
%ADD26C,0.059496*%
%ADD27R,0.069024X0.069024*%
%ADD28C,0.069024*%
%ADD29C,0.106425*%
%ADD30R,0.098551X0.098551*%
%ADD31C,0.108000*%
%ADD32C,0.063433*%
%ADD33C,0.100913*%
%ADD34C,0.126110*%

G36*
X47606Y1660D02*
X47606Y1660D01*
X47650Y1664D01*
X47692Y1677D01*
X47730Y1697D01*
X47764Y1725D01*
X47792Y1759D01*
X47812Y1797D01*
X47825Y1839D01*
X47828Y1873D01*
X47829Y1875D01*
X47829Y1877D01*
X47829Y1880D01*
X47829Y1882D01*
X47829Y1883D01*
X47829Y2419D01*
X47828Y2421D01*
X47030Y2421D01*
X47029Y2420D01*
X47029Y2419D01*
X47029Y1883D01*
X47033Y1839D01*
X47046Y1797D01*
X47066Y1759D01*
X47067Y1759D01*
X47094Y1725D01*
X47128Y1697D01*
X47166Y1677D01*
X47167Y1677D01*
X47208Y1664D01*
X47209Y1664D01*
X47252Y1660D01*
X47606Y1660D01*
X47606Y1660D01*
G37*
G36*
X47829Y4180D02*
X47829Y4180D01*
X47829Y4181D01*
X47829Y4717D01*
X47825Y4761D01*
X47812Y4803D01*
X47792Y4841D01*
X47764Y4875D01*
X47730Y4903D01*
X47692Y4923D01*
X47650Y4936D01*
X47606Y4940D01*
X47252Y4940D01*
X47209Y4936D01*
X47208Y4936D01*
X47167Y4923D01*
X47166Y4923D01*
X47128Y4903D01*
X47094Y4875D01*
X47067Y4841D01*
X47066Y4841D01*
X47046Y4803D01*
X47033Y4761D01*
X47029Y4717D01*
X47029Y4181D01*
X47030Y4179D01*
X47828Y4179D01*
X47829Y4180D01*
G37*
D10*
X46211Y2316D02*
X46213Y2340D01*
X46219Y2364D01*
X46228Y2386D01*
X46241Y2407D01*
X46256Y2426D01*
X46275Y2441D01*
X46296Y2454D01*
X46318Y2463D01*
X46342Y2469D01*
X46366Y2471D01*
X46390Y2469D01*
X46414Y2463D01*
X46436Y2454D01*
X46457Y2441D01*
X46476Y2426D01*
X46491Y2407D01*
X46504Y2386D01*
X46513Y2364D01*
X46519Y2340D01*
X46521Y2316D01*
X46519Y2292D01*
X46513Y2268D01*
X46504Y2246D01*
X46491Y2225D01*
X46476Y2206D01*
X46457Y2191D01*
X46436Y2178D01*
X46414Y2169D01*
X46390Y2163D01*
X46366Y2161D01*
X46342Y2163D01*
X46318Y2169D01*
X46296Y2178D01*
X46275Y2191D01*
X46256Y2206D01*
X46241Y2225D01*
X46228Y2246D01*
X46219Y2268D01*
X46213Y2292D01*
X46211Y2316D01*
X46211Y4284D02*
X46213Y4308D01*
X46219Y4332D01*
X46228Y4354D01*
X46241Y4375D01*
X46256Y4394D01*
X46275Y4409D01*
X46296Y4422D01*
X46318Y4431D01*
X46342Y4437D01*
X46366Y4439D01*
X46390Y4437D01*
X46414Y4431D01*
X46436Y4422D01*
X46457Y4409D01*
X46476Y4394D01*
X46491Y4375D01*
X46504Y4354D01*
X46513Y4332D01*
X46519Y4308D01*
X46521Y4284D01*
X46519Y4260D01*
X46513Y4236D01*
X46504Y4214D01*
X46491Y4193D01*
X46476Y4174D01*
X46457Y4159D01*
X46436Y4146D01*
X46414Y4137D01*
X46390Y4131D01*
X46366Y4129D01*
X46342Y4131D01*
X46318Y4137D01*
X46296Y4146D01*
X46275Y4159D01*
X46256Y4174D01*
X46241Y4193D01*
X46228Y4214D01*
X46219Y4236D01*
X46213Y4260D01*
X46211Y4284D01*
D11*
X46213Y13414D03*
D12*
X47000Y12784D03*
X47000Y11800D03*
D11*
X46213Y9414D03*
D12*
X47000Y8784D03*
X47000Y7800D03*
D13*
X45850Y19800D03*
X45850Y18800D03*
X45850Y17800D03*
X45850Y16800D03*
X45850Y15800D03*
X46850Y15800D03*
X46850Y16800D03*
X46850Y17800D03*
X46850Y18800D03*
X46850Y19800D03*
D14*
X39200Y1400D03*
D13*
X40200Y1400D03*
D15*
X34600Y750D03*
D16*
X35600Y750D03*
X36600Y750D03*
X37600Y750D03*
D17*
X44950Y26050D03*
X46950Y26050D03*
X44950Y23000D03*
X46950Y23000D03*
D18*
X24250Y5000D03*
D19*
X23250Y5000D03*
X22250Y5000D03*
X21250Y5000D03*
X20250Y5000D03*
X19250Y5000D03*
D18*
X32400Y5000D03*
D19*
X31400Y5000D03*
X30400Y5000D03*
X29400Y5000D03*
X28400Y5000D03*
X27400Y5000D03*
D20*
X44699Y33515D03*
D21*
X46266Y36381D03*
D22*
X46266Y35200D03*
X46266Y34019D03*
X45085Y36381D03*
X45085Y35200D03*
X45085Y34019D03*
D23*
X32588Y28569D03*
D24*
X29612Y28569D03*
X32588Y36010D03*
X29612Y37994D03*
D23*
X24438Y28569D03*
D24*
X21462Y28569D03*
X24438Y36010D03*
X21462Y37994D03*
D25*
X19635Y35966D03*
D26*
X20265Y37934D03*
D25*
X27485Y36016D03*
D26*
X28115Y37984D03*
D17*
X25900Y37900D03*
X25900Y39900D03*
X25900Y43000D03*
X25900Y45000D03*
X17800Y37800D03*
X17800Y39800D03*
X17800Y43000D03*
X17800Y45000D03*
X8600Y44300D03*
X8600Y46300D03*
X8600Y37000D03*
X8600Y39000D03*
D27*
X14800Y36971D03*
D28*
X14800Y45829D03*
D29*
X37261Y45000D03*
X32339Y45000D03*
X43661Y45000D03*
X38739Y45000D03*
D25*
X12015Y43284D03*
D26*
X11385Y41316D03*
D30*
X8151Y34000D03*
D31*
X17049Y34000D03*
D24*
X44416Y41450D03*
X46384Y41450D03*
X41650Y40184D03*
X41650Y38216D03*
D14*
X14400Y1500D03*
D13*
X15400Y1500D03*
X16400Y1500D03*
D14*
X6450Y1400D03*
D13*
X7450Y1400D03*
X8450Y1400D03*
D14*
X41700Y1400D03*
D13*
X42700Y1400D03*
D17*
X5200Y37100D03*
X5200Y39100D03*
X5200Y44300D03*
X5200Y46300D03*
X1800Y37000D03*
X1800Y39000D03*
X1800Y44300D03*
X1800Y46300D03*
D24*
X39216Y35200D03*
X41184Y35200D03*
D14*
X46500Y28900D03*
D13*
X46500Y29900D03*
D14*
X1600Y15100D03*
D13*
X1600Y14100D03*
X1600Y13100D03*
D32*
X3538Y19594D03*
X4538Y19996D03*
X3538Y20398D03*
X4538Y20799D03*
X3538Y21201D03*
X4538Y21602D03*
X3538Y22004D03*
X4538Y22406D03*
D33*
X2633Y23953D03*
X2633Y18047D03*
D34*
X36100Y5100D03*
X2600Y27200D03*
X8700Y15200D03*
D15*
X15400Y10400D03*
D16*
X16400Y10400D03*
X17400Y10400D03*
X18400Y10400D03*
M02*
