G04 EAGLE Gerber RS-274X export*
G75*
%MOIN*%
%FSLAX34Y34*%
%LPD*%
%INSoldermask Top*%
%IPPOS*%
%AMOC8*
5,1,8,0,0,1.08239X$1,22.5*%
G01*
%ADD10R,0.066071X0.019811*%
%ADD11R,0.019811X0.066071*%
%ADD12R,0.058150X0.020748*%
%ADD13C,0.031043*%
%ADD14R,0.079803X0.064055*%
%ADD15R,0.047370X0.047370*%
%ADD16R,0.082803X0.023748*%
%ADD17R,0.047370X0.063118*%
%ADD18C,0.051307*%
%ADD19C,0.067055*%
%ADD20R,0.072000X0.032000*%
%ADD21C,0.074929*%
%ADD22R,0.074929X0.074929*%
%ADD23R,0.072961X0.072961*%
%ADD24C,0.072961*%
%ADD25R,0.096000X0.056000*%
%ADD26R,0.094614X0.149732*%
%ADD27R,0.063118X0.047370*%
%ADD28R,0.076898X0.112331*%
%ADD29R,0.043433X0.039496*%
%ADD30C,0.092646*%
%ADD31R,0.032000X0.072000*%
%ADD32R,0.063000X0.063000*%
%ADD33C,0.063000*%
%ADD34C,0.048157*%
%ADD35R,0.069811X0.069811*%
%ADD36C,0.069811*%
%ADD37R,0.086740X0.086740*%
%ADD38C,0.086740*%
%ADD39R,0.056000X0.096000*%
%ADD40R,0.149732X0.094614*%
%ADD41R,0.112331X0.076898*%
%ADD42R,0.059496X0.059496*%
%ADD43C,0.059496*%
%ADD44R,0.069024X0.069024*%
%ADD45C,0.069024*%
%ADD46C,0.106425*%
%ADD47R,0.098551X0.098551*%
%ADD48C,0.108000*%
%ADD49C,0.022171*%
%ADD50C,0.063433*%
%ADD51C,0.100913*%
%ADD52C,0.047370*%
%ADD53C,0.126110*%

G36*
X47606Y1660D02*
X47606Y1660D01*
X47650Y1664D01*
X47692Y1677D01*
X47730Y1697D01*
X47764Y1725D01*
X47792Y1759D01*
X47812Y1797D01*
X47825Y1839D01*
X47828Y1873D01*
X47829Y1875D01*
X47829Y1877D01*
X47829Y1880D01*
X47829Y1882D01*
X47829Y1883D01*
X47829Y2419D01*
X47828Y2421D01*
X47030Y2421D01*
X47029Y2420D01*
X47029Y2419D01*
X47029Y1883D01*
X47033Y1839D01*
X47046Y1797D01*
X47066Y1759D01*
X47067Y1759D01*
X47094Y1725D01*
X47128Y1697D01*
X47166Y1677D01*
X47167Y1677D01*
X47208Y1664D01*
X47209Y1664D01*
X47252Y1660D01*
X47606Y1660D01*
X47606Y1660D01*
G37*
G36*
X47829Y4180D02*
X47829Y4180D01*
X47829Y4181D01*
X47829Y4717D01*
X47825Y4761D01*
X47812Y4803D01*
X47792Y4841D01*
X47764Y4875D01*
X47730Y4903D01*
X47692Y4923D01*
X47650Y4936D01*
X47606Y4940D01*
X47252Y4940D01*
X47209Y4936D01*
X47208Y4936D01*
X47167Y4923D01*
X47166Y4923D01*
X47128Y4903D01*
X47094Y4875D01*
X47067Y4841D01*
X47066Y4841D01*
X47046Y4803D01*
X47033Y4761D01*
X47029Y4717D01*
X47029Y4181D01*
X47030Y4179D01*
X47828Y4179D01*
X47829Y4180D01*
G37*
D10*
X28241Y16976D03*
X28241Y16780D03*
X28241Y16583D03*
X28241Y16386D03*
X28241Y16189D03*
X28241Y15992D03*
X28241Y15795D03*
X28241Y15598D03*
X28241Y15402D03*
X28241Y15205D03*
X28241Y15008D03*
X28241Y14811D03*
X28241Y14614D03*
X28241Y14417D03*
X28241Y14220D03*
X28241Y14024D03*
D11*
X29024Y13241D03*
X29220Y13241D03*
X29417Y13241D03*
X29614Y13241D03*
X29811Y13241D03*
X30008Y13241D03*
X30205Y13241D03*
X30402Y13241D03*
X30598Y13241D03*
X30795Y13241D03*
X30992Y13241D03*
X31189Y13241D03*
X31386Y13241D03*
X31583Y13241D03*
X31780Y13241D03*
X31976Y13241D03*
D10*
X32759Y14024D03*
X32759Y14220D03*
X32759Y14417D03*
X32759Y14614D03*
X32759Y14811D03*
X32759Y15008D03*
X32759Y15205D03*
X32759Y15402D03*
X32759Y15598D03*
X32759Y15795D03*
X32759Y15992D03*
X32759Y16189D03*
X32759Y16386D03*
X32759Y16583D03*
X32759Y16780D03*
X32759Y16976D03*
D11*
X31976Y17759D03*
X31780Y17759D03*
X31583Y17759D03*
X31386Y17759D03*
X31189Y17759D03*
X30992Y17759D03*
X30795Y17759D03*
X30598Y17759D03*
X30402Y17759D03*
X30205Y17759D03*
X30008Y17759D03*
X29811Y17759D03*
X29614Y17759D03*
X29417Y17759D03*
X29220Y17759D03*
X29024Y17759D03*
D12*
X46376Y2788D03*
X46376Y3044D03*
X46376Y3300D03*
X46376Y3556D03*
X46376Y3812D03*
D13*
X46211Y2316D02*
X46213Y2340D01*
X46219Y2364D01*
X46228Y2386D01*
X46241Y2407D01*
X46256Y2426D01*
X46275Y2441D01*
X46296Y2454D01*
X46318Y2463D01*
X46342Y2469D01*
X46366Y2471D01*
X46390Y2469D01*
X46414Y2463D01*
X46436Y2454D01*
X46457Y2441D01*
X46476Y2426D01*
X46491Y2407D01*
X46504Y2386D01*
X46513Y2364D01*
X46519Y2340D01*
X46521Y2316D01*
X46519Y2292D01*
X46513Y2268D01*
X46504Y2246D01*
X46491Y2225D01*
X46476Y2206D01*
X46457Y2191D01*
X46436Y2178D01*
X46414Y2169D01*
X46390Y2163D01*
X46366Y2161D01*
X46342Y2163D01*
X46318Y2169D01*
X46296Y2178D01*
X46275Y2191D01*
X46256Y2206D01*
X46241Y2225D01*
X46228Y2246D01*
X46219Y2268D01*
X46213Y2292D01*
X46211Y2316D01*
X46211Y4284D02*
X46213Y4308D01*
X46219Y4332D01*
X46228Y4354D01*
X46241Y4375D01*
X46256Y4394D01*
X46275Y4409D01*
X46296Y4422D01*
X46318Y4431D01*
X46342Y4437D01*
X46366Y4439D01*
X46390Y4437D01*
X46414Y4431D01*
X46436Y4422D01*
X46457Y4409D01*
X46476Y4394D01*
X46491Y4375D01*
X46504Y4354D01*
X46513Y4332D01*
X46519Y4308D01*
X46521Y4284D01*
X46519Y4260D01*
X46513Y4236D01*
X46504Y4214D01*
X46491Y4193D01*
X46476Y4174D01*
X46457Y4159D01*
X46436Y4146D01*
X46414Y4137D01*
X46390Y4131D01*
X46366Y4129D01*
X46342Y4131D01*
X46318Y4137D01*
X46296Y4146D01*
X46275Y4159D01*
X46256Y4174D01*
X46241Y4193D01*
X46228Y4214D01*
X46219Y4236D01*
X46213Y4260D01*
X46211Y4284D01*
D14*
X47429Y2906D03*
X47429Y3694D03*
D15*
X43935Y3300D03*
X44565Y3300D03*
X43935Y2550D03*
X44565Y2550D03*
X44565Y4050D03*
X43935Y4050D03*
D16*
X24250Y16222D03*
X24250Y15750D03*
X24250Y15278D03*
D15*
X23500Y15435D03*
X23500Y16065D03*
X22935Y16750D03*
X23565Y16750D03*
X22935Y14750D03*
X23565Y14750D03*
X36365Y14300D03*
X35735Y14300D03*
X42685Y6800D03*
X43315Y6800D03*
D17*
X44700Y6733D03*
X45074Y5867D03*
X44326Y5867D03*
D15*
X42685Y7800D03*
X43315Y7800D03*
X43315Y8800D03*
X42685Y8800D03*
D18*
X46213Y13414D03*
D19*
X47000Y12784D03*
X47000Y11800D03*
D18*
X46213Y9414D03*
D19*
X47000Y8784D03*
X47000Y7800D03*
D20*
X39390Y14126D03*
X39390Y14500D03*
X39390Y14874D03*
X38410Y14874D03*
X38410Y14126D03*
D15*
X43315Y12300D03*
X42685Y12300D03*
X43315Y11600D03*
X42685Y11600D03*
X45000Y11985D03*
X45000Y12615D03*
X43315Y13000D03*
X42685Y13000D03*
X39265Y15800D03*
X38635Y15800D03*
X40435Y14850D03*
X41065Y14850D03*
X42685Y10900D03*
X43315Y10900D03*
X43315Y13700D03*
X42685Y13700D03*
X38585Y13350D03*
X39215Y13350D03*
X39215Y12600D03*
X38585Y12600D03*
X35735Y14950D03*
X36365Y14950D03*
D21*
X45850Y19800D03*
X45850Y18800D03*
X45850Y17800D03*
X45850Y16800D03*
X45850Y15800D03*
X46850Y15800D03*
X46850Y16800D03*
X46850Y17800D03*
X46850Y18800D03*
X46850Y19800D03*
D15*
X43315Y18750D03*
X42685Y18750D03*
X43315Y17800D03*
X42685Y17800D03*
X43315Y16800D03*
X42685Y16800D03*
X43315Y15800D03*
X42685Y15800D03*
X23565Y13250D03*
X22935Y13250D03*
X22935Y14000D03*
X23565Y14000D03*
X24815Y17500D03*
X24185Y17500D03*
X24815Y18250D03*
X24185Y18250D03*
X22315Y18000D03*
X21685Y18000D03*
X22315Y17250D03*
X21685Y17250D03*
X32550Y10815D03*
X32550Y10185D03*
X31500Y10815D03*
X31500Y10185D03*
D22*
X39200Y1400D03*
D21*
X40200Y1400D03*
D15*
X39285Y4100D03*
X39915Y4100D03*
X39285Y3350D03*
X39915Y3350D03*
D23*
X34600Y750D03*
D24*
X35600Y750D03*
X36600Y750D03*
X37600Y750D03*
D25*
X38530Y25060D03*
X38530Y24150D03*
X38530Y23240D03*
D26*
X40970Y24150D03*
D27*
X35767Y22300D03*
X36633Y22674D03*
X36633Y21926D03*
D28*
X42300Y25543D03*
X42300Y23957D03*
D29*
X36056Y24274D03*
X36056Y23526D03*
X36883Y23900D03*
D30*
X44950Y26050D03*
X46950Y26050D03*
X44950Y23000D03*
X46950Y23000D03*
D31*
X15374Y7290D03*
X15000Y7290D03*
X14626Y7290D03*
X14626Y6310D03*
X15374Y6310D03*
D15*
X15400Y5415D03*
X15400Y4785D03*
X16900Y6085D03*
X16900Y6715D03*
X16200Y6715D03*
X16200Y6085D03*
X14600Y4785D03*
X14600Y5415D03*
X14600Y3385D03*
X14600Y4015D03*
X15400Y3385D03*
X15400Y4015D03*
X13800Y4015D03*
X13800Y3385D03*
X12200Y4015D03*
X12200Y3385D03*
X11400Y4015D03*
X11400Y3385D03*
D20*
X12410Y5474D03*
X12410Y5100D03*
X12410Y4726D03*
X13390Y4726D03*
X13390Y5474D03*
D15*
X13400Y6385D03*
X13400Y7015D03*
X12100Y7015D03*
X12100Y6385D03*
X12100Y7785D03*
X12100Y8415D03*
D31*
X10474Y11490D03*
X10100Y11490D03*
X9726Y11490D03*
X9726Y10510D03*
X10474Y10510D03*
D15*
X10600Y7785D03*
X10600Y8415D03*
X9900Y7785D03*
X9900Y8415D03*
X11915Y9700D03*
X11285Y9700D03*
X10515Y9100D03*
X9885Y9100D03*
X10515Y9700D03*
X9885Y9700D03*
X9100Y9085D03*
X9100Y9715D03*
X11915Y11500D03*
X11285Y11500D03*
X11285Y10600D03*
X11915Y10600D03*
D31*
X7674Y7290D03*
X7300Y7290D03*
X6926Y7290D03*
X6926Y6310D03*
X7674Y6310D03*
D15*
X7600Y5315D03*
X7600Y4685D03*
X9100Y6085D03*
X9100Y6715D03*
X8400Y6715D03*
X8400Y6085D03*
X6700Y4685D03*
X6700Y5315D03*
X6700Y3285D03*
X6700Y3915D03*
X7600Y3285D03*
X7600Y3915D03*
X5800Y3915D03*
X5800Y3285D03*
X4200Y3915D03*
X4200Y3285D03*
X5000Y3285D03*
X5000Y3915D03*
D20*
X4810Y5474D03*
X4810Y5100D03*
X4810Y4726D03*
X5790Y4726D03*
X5790Y5474D03*
D15*
X6200Y6385D03*
X6200Y7015D03*
X4400Y7015D03*
X4400Y6385D03*
X5300Y7015D03*
X5300Y6385D03*
D31*
X4074Y10290D03*
X3700Y10290D03*
X3326Y10290D03*
X3326Y9310D03*
X4074Y9310D03*
D15*
X3600Y6385D03*
X3600Y7015D03*
X2800Y6385D03*
X2800Y7015D03*
X5300Y8315D03*
X5300Y7685D03*
X4400Y7685D03*
X4400Y8315D03*
X3600Y7685D03*
X3600Y8315D03*
X2800Y7685D03*
X2800Y8315D03*
X6115Y10600D03*
X5485Y10600D03*
X4900Y9185D03*
X4900Y9815D03*
X27900Y10815D03*
X27900Y10185D03*
X27000Y10815D03*
X27000Y10185D03*
X28700Y10185D03*
X28700Y10815D03*
X29600Y10185D03*
X29600Y10815D03*
D32*
X24250Y5000D03*
D33*
X23250Y5000D03*
X22250Y5000D03*
X21250Y5000D03*
X20250Y5000D03*
X19250Y5000D03*
D32*
X32400Y5000D03*
D33*
X31400Y5000D03*
X30400Y5000D03*
X29400Y5000D03*
X28400Y5000D03*
X27400Y5000D03*
D15*
X19250Y8065D03*
X19250Y7435D03*
X24250Y8065D03*
X24250Y7435D03*
X23250Y8065D03*
X23250Y7435D03*
X22250Y7435D03*
X22250Y8065D03*
X21250Y8065D03*
X21250Y7435D03*
X20250Y7435D03*
X20250Y8065D03*
X27400Y8065D03*
X27400Y7435D03*
X32400Y8065D03*
X32400Y7435D03*
X31400Y8065D03*
X31400Y7435D03*
X29400Y7435D03*
X29400Y8065D03*
X30400Y8065D03*
X30400Y7435D03*
X28400Y7435D03*
X28400Y8065D03*
D34*
X44699Y33515D03*
D35*
X46266Y36381D03*
D36*
X46266Y35200D03*
X46266Y34019D03*
X45085Y36381D03*
X45085Y35200D03*
X45085Y34019D03*
D15*
X46465Y38200D03*
X45835Y38200D03*
X46465Y32700D03*
X45835Y32700D03*
X44335Y38200D03*
X44965Y38200D03*
X43150Y36135D03*
X43150Y36765D03*
X43150Y33635D03*
X43150Y34265D03*
D37*
X32588Y28569D03*
D38*
X29612Y28569D03*
X32588Y36010D03*
X29612Y37994D03*
D39*
X28240Y24030D03*
X29150Y24030D03*
X30060Y24030D03*
D40*
X29150Y26470D03*
D27*
X31567Y24150D03*
X32433Y24524D03*
X32433Y23776D03*
D41*
X31007Y26500D03*
X32593Y26500D03*
D29*
X30244Y22526D03*
X30244Y23274D03*
X29417Y22900D03*
D37*
X24438Y28569D03*
D38*
X21462Y28569D03*
X24438Y36010D03*
X21462Y37994D03*
D39*
X20240Y24230D03*
X21150Y24230D03*
X22060Y24230D03*
D40*
X21150Y26670D03*
D27*
X23867Y23800D03*
X24733Y24174D03*
X24733Y23426D03*
D41*
X23157Y26450D03*
X24743Y26450D03*
D29*
X22494Y22676D03*
X22494Y23424D03*
X21667Y23050D03*
D42*
X19635Y35966D03*
D43*
X20265Y37934D03*
D42*
X27485Y36016D03*
D43*
X28115Y37984D03*
D30*
X25900Y37900D03*
X25900Y39900D03*
X25900Y43000D03*
X25900Y45000D03*
X17800Y37800D03*
X17800Y39800D03*
X17800Y43000D03*
X17800Y45000D03*
X8600Y44300D03*
X8600Y46300D03*
X8600Y37000D03*
X8600Y39000D03*
D44*
X14800Y36971D03*
D45*
X14800Y45829D03*
D46*
X37261Y45000D03*
X32339Y45000D03*
X43661Y45000D03*
X38739Y45000D03*
D42*
X12015Y43284D03*
D43*
X11385Y41316D03*
D47*
X8151Y34000D03*
D48*
X17049Y34000D03*
D15*
X23150Y23485D03*
X23150Y24115D03*
X23815Y22800D03*
X23185Y22800D03*
X25400Y20565D03*
X25400Y19935D03*
X25400Y24115D03*
X25400Y23485D03*
X19300Y24985D03*
X19300Y25615D03*
X26250Y20565D03*
X26250Y19935D03*
X33100Y24465D03*
X33100Y23835D03*
X27350Y24935D03*
X27350Y25565D03*
X30850Y23385D03*
X30850Y24015D03*
X31515Y22650D03*
X30885Y22650D03*
X36365Y17350D03*
X35735Y17350D03*
X37450Y24415D03*
X37450Y23785D03*
X35400Y23585D03*
X35400Y24215D03*
X37300Y22565D03*
X37300Y21935D03*
X43400Y24335D03*
X43400Y24965D03*
D38*
X44416Y41450D03*
X46384Y41450D03*
X41650Y40184D03*
X41650Y38216D03*
D22*
X14400Y1500D03*
D21*
X15400Y1500D03*
X16400Y1500D03*
D22*
X6450Y1400D03*
D21*
X7450Y1400D03*
X8450Y1400D03*
D15*
X34985Y11900D03*
X35615Y11900D03*
D22*
X41700Y1400D03*
D21*
X42700Y1400D03*
D15*
X41585Y4100D03*
X42215Y4100D03*
X41585Y3300D03*
X42215Y3300D03*
X34985Y11200D03*
X35615Y11200D03*
D30*
X5200Y37100D03*
X5200Y39100D03*
X5200Y44300D03*
X5200Y46300D03*
X1800Y37000D03*
X1800Y39000D03*
X1800Y44300D03*
X1800Y46300D03*
D38*
X39216Y35200D03*
X41184Y35200D03*
D25*
X39980Y29910D03*
X39980Y29000D03*
X39980Y28090D03*
D26*
X42420Y29000D03*
D27*
X36267Y27500D03*
X37133Y27874D03*
X37133Y27126D03*
D28*
X43600Y28507D03*
X43600Y30093D03*
D29*
X37306Y29274D03*
X37306Y28526D03*
X38133Y28900D03*
D15*
X33000Y20515D03*
X33000Y19885D03*
X38800Y29215D03*
X38800Y28585D03*
X36500Y28585D03*
X36500Y29215D03*
X37800Y27815D03*
X37800Y27185D03*
X44600Y29615D03*
X44600Y28985D03*
D22*
X46500Y28900D03*
D21*
X46500Y29900D03*
D22*
X1600Y15100D03*
D21*
X1600Y14100D03*
X1600Y13100D03*
D15*
X4100Y13115D03*
X4100Y12485D03*
X30500Y10185D03*
X30500Y10815D03*
X4100Y15715D03*
X4100Y15085D03*
D49*
X8580Y22497D02*
X8580Y23103D01*
X8720Y23103D01*
X8720Y22497D01*
X8580Y22497D01*
X8580Y22708D02*
X8720Y22708D01*
X8720Y22919D02*
X8580Y22919D01*
X8080Y23103D02*
X8080Y22497D01*
X8080Y23103D02*
X8220Y23103D01*
X8220Y22497D01*
X8080Y22497D01*
X8080Y22708D02*
X8220Y22708D01*
X8220Y22919D02*
X8080Y22919D01*
X7580Y23103D02*
X7580Y22497D01*
X7580Y23103D02*
X7720Y23103D01*
X7720Y22497D01*
X7580Y22497D01*
X7580Y22708D02*
X7720Y22708D01*
X7720Y22919D02*
X7580Y22919D01*
X7080Y23103D02*
X7080Y22497D01*
X7080Y23103D02*
X7220Y23103D01*
X7220Y22497D01*
X7080Y22497D01*
X7080Y22708D02*
X7220Y22708D01*
X7220Y22919D02*
X7080Y22919D01*
X7080Y21103D02*
X7080Y20497D01*
X7080Y21103D02*
X7220Y21103D01*
X7220Y20497D01*
X7080Y20497D01*
X7080Y20708D02*
X7220Y20708D01*
X7220Y20919D02*
X7080Y20919D01*
X7580Y21103D02*
X7580Y20497D01*
X7580Y21103D02*
X7720Y21103D01*
X7720Y20497D01*
X7580Y20497D01*
X7580Y20708D02*
X7720Y20708D01*
X7720Y20919D02*
X7580Y20919D01*
X8080Y21103D02*
X8080Y20497D01*
X8080Y21103D02*
X8220Y21103D01*
X8220Y20497D01*
X8080Y20497D01*
X8080Y20708D02*
X8220Y20708D01*
X8220Y20919D02*
X8080Y20919D01*
X8580Y21103D02*
X8580Y20497D01*
X8580Y21103D02*
X8720Y21103D01*
X8720Y20497D01*
X8580Y20497D01*
X8580Y20708D02*
X8720Y20708D01*
X8720Y20919D02*
X8580Y20919D01*
D15*
X9600Y24715D03*
X9600Y24085D03*
X10500Y24085D03*
X10500Y24715D03*
X11400Y24715D03*
X11400Y24085D03*
X8700Y24715D03*
X8700Y24085D03*
X7800Y24085D03*
X7800Y24715D03*
X6900Y24085D03*
X6900Y24715D03*
X10500Y19715D03*
X10500Y19085D03*
X9600Y19085D03*
X9600Y19715D03*
X6900Y19085D03*
X6900Y19715D03*
X7800Y19085D03*
X7800Y19715D03*
X8700Y19085D03*
X8700Y19715D03*
D50*
X3538Y19594D03*
X4538Y19996D03*
X3538Y20398D03*
X4538Y20799D03*
X3538Y21201D03*
X4538Y21602D03*
X3538Y22004D03*
X4538Y22406D03*
D51*
X2633Y23953D03*
X2633Y18047D03*
D15*
X10500Y20785D03*
X10500Y21415D03*
D52*
X47200Y45450D03*
X700Y700D03*
D53*
X36100Y5100D03*
X2600Y27200D03*
X8700Y15200D03*
D23*
X15400Y10400D03*
D24*
X16400Y10400D03*
X17400Y10400D03*
X18400Y10400D03*
D15*
X15185Y11400D03*
X15815Y11400D03*
X16400Y8685D03*
X16400Y9315D03*
X17400Y8685D03*
X17400Y9315D03*
M02*
