G04 EAGLE Gerber RS-274X export*
G75*
%MOMM*%
%FSLAX34Y34*%
%LPD*%
%INSoldermask Top*%
%IPPOS*%
%AMOC8*
5,1,8,0,0,1.08239X$1,22.5*%
G01*
%ADD10R,1.753200X1.753200*%
%ADD11C,1.753200*%
%ADD12R,1.603200X1.603200*%
%ADD13C,1.603200*%
%ADD14C,2.203200*%
%ADD15R,1.303200X1.203200*%
%ADD16R,1.203200X1.303200*%
%ADD17C,0.981791*%
%ADD18R,1.603200X1.843200*%
%ADD19C,1.203200*%
%ADD20R,2.903200X3.503200*%
%ADD21R,2.903200X1.203200*%
%ADD22C,0.506016*%
%ADD23C,1.965200*%
%ADD24C,6.203200*%
%ADD25R,2.006200X1.803200*%
%ADD26C,2.703200*%
%ADD27C,3.203200*%
%ADD28C,2.743200*%
%ADD29C,1.223200*%
%ADD30R,1.773200X1.773200*%
%ADD31C,1.773200*%
%ADD32R,1.503200X1.503200*%
%ADD33C,1.503200*%
%ADD34C,1.697694*%
%ADD35R,1.703200X1.703200*%
%ADD36C,1.803200*%
%ADD37C,2.703200*%


D10*
X355600Y906250D03*
D11*
X355600Y681250D03*
D12*
X723500Y825500D03*
D13*
X673500Y825500D03*
D12*
X717150Y590550D03*
D13*
X667150Y590550D03*
D14*
X406400Y89300D03*
X406400Y139300D03*
X520700Y89300D03*
X520700Y139300D03*
X635000Y89300D03*
X635000Y139300D03*
D15*
X791600Y196850D03*
X808600Y196850D03*
X791600Y177800D03*
X808600Y177800D03*
D16*
X749300Y245500D03*
X749300Y262500D03*
D15*
X918600Y139700D03*
X935600Y139700D03*
X963050Y82550D03*
X980050Y82550D03*
X963050Y114300D03*
X980050Y114300D03*
X963050Y57150D03*
X980050Y57150D03*
X1018150Y57150D03*
X1001150Y57150D03*
X1001150Y82550D03*
X1018150Y82550D03*
D14*
X1016400Y241300D03*
X1066400Y241300D03*
X889000Y305200D03*
X889000Y355200D03*
D16*
X863600Y150250D03*
X863600Y167250D03*
D17*
X604257Y829357D02*
X591043Y829357D01*
X604257Y829357D02*
X604257Y821643D01*
X591043Y821643D01*
X591043Y829357D01*
X591043Y854757D02*
X604257Y854757D01*
X604257Y847043D01*
X591043Y847043D01*
X591043Y854757D01*
X539257Y854757D02*
X526043Y854757D01*
X539257Y854757D02*
X539257Y847043D01*
X526043Y847043D01*
X526043Y854757D01*
X526043Y829357D02*
X539257Y829357D01*
X539257Y821643D01*
X526043Y821643D01*
X526043Y829357D01*
D18*
X1040300Y69850D03*
X1080600Y69850D03*
D19*
X1217250Y276850D03*
D20*
X1070900Y133350D03*
D21*
X1011900Y110350D03*
X1011900Y133350D03*
X1011900Y156350D03*
D22*
X779386Y250814D02*
X776414Y250814D01*
X776414Y258786D01*
X779386Y258786D01*
X779386Y250814D01*
X779386Y255621D02*
X776414Y255621D01*
X795414Y250814D02*
X798386Y250814D01*
X795414Y250814D02*
X795414Y258786D01*
X798386Y258786D01*
X798386Y250814D01*
X798386Y255621D02*
X795414Y255621D01*
X795414Y223814D02*
X798386Y223814D01*
X795414Y223814D02*
X795414Y231786D01*
X798386Y231786D01*
X798386Y223814D01*
X798386Y228621D02*
X795414Y228621D01*
X788886Y223814D02*
X785914Y223814D01*
X785914Y231786D01*
X788886Y231786D01*
X788886Y223814D01*
X788886Y228621D02*
X785914Y228621D01*
X779386Y223814D02*
X776414Y223814D01*
X776414Y231786D01*
X779386Y231786D01*
X779386Y223814D01*
X779386Y228621D02*
X776414Y228621D01*
X785914Y250814D02*
X788886Y250814D01*
X785914Y250814D02*
X785914Y258786D01*
X788886Y258786D01*
X788886Y250814D01*
X788886Y255621D02*
X785914Y255621D01*
X897014Y149236D02*
X899986Y149236D01*
X899986Y141264D01*
X897014Y141264D01*
X897014Y149236D01*
X897014Y146071D02*
X899986Y146071D01*
X880986Y149236D02*
X878014Y149236D01*
X880986Y149236D02*
X880986Y141264D01*
X878014Y141264D01*
X878014Y149236D01*
X878014Y146071D02*
X880986Y146071D01*
X880986Y176236D02*
X878014Y176236D01*
X880986Y176236D02*
X880986Y168264D01*
X878014Y168264D01*
X878014Y176236D01*
X878014Y173071D02*
X880986Y173071D01*
X887514Y176236D02*
X890486Y176236D01*
X890486Y168264D01*
X887514Y168264D01*
X887514Y176236D01*
X887514Y173071D02*
X890486Y173071D01*
X897014Y176236D02*
X899986Y176236D01*
X899986Y168264D01*
X897014Y168264D01*
X897014Y176236D01*
X897014Y173071D02*
X899986Y173071D01*
X890486Y149236D02*
X887514Y149236D01*
X890486Y149236D02*
X890486Y141264D01*
X887514Y141264D01*
X887514Y149236D01*
X887514Y146071D02*
X890486Y146071D01*
D23*
X648450Y736200D03*
X648200Y686200D03*
X750050Y736200D03*
X749800Y686200D03*
D24*
X50800Y50800D03*
X50000Y950000D03*
X1149350Y952500D03*
X1149350Y50800D03*
D10*
X317200Y965200D03*
D11*
X508300Y965200D03*
D25*
X450850Y884170D03*
X450850Y855730D03*
X450850Y795270D03*
X450850Y766830D03*
D15*
X730250Y211700D03*
X730250Y194700D03*
X704850Y194700D03*
X704850Y211700D03*
D16*
X897500Y209550D03*
X880500Y209550D03*
X935600Y209550D03*
X918600Y209550D03*
X935600Y165100D03*
X918600Y165100D03*
X918600Y184150D03*
X935600Y184150D03*
D15*
X723900Y262500D03*
X723900Y245500D03*
X698500Y262500D03*
X698500Y245500D03*
D26*
X225400Y296600D02*
X225400Y321600D01*
X255400Y321600D02*
X255400Y296600D01*
X285400Y296600D02*
X285400Y321600D01*
X370400Y321600D02*
X370400Y296600D01*
X315400Y296600D02*
X315400Y321600D01*
X400400Y321600D02*
X400400Y296600D01*
X460400Y296600D02*
X460400Y321600D01*
X267400Y516600D02*
X267400Y541600D01*
X297400Y541600D02*
X297400Y516600D01*
X327400Y516600D02*
X327400Y541600D01*
X237400Y541600D02*
X237400Y516600D01*
D27*
X387400Y529100D03*
D26*
X430400Y321600D02*
X430400Y296600D01*
D27*
X447400Y529100D03*
D28*
X203200Y819150D03*
X152400Y819150D03*
X203200Y711200D03*
X152400Y711200D03*
D29*
X1137900Y255650D03*
D30*
X1177700Y328450D03*
D31*
X1177700Y298450D03*
X1177700Y268450D03*
X1147700Y328450D03*
X1147700Y298450D03*
X1147700Y268450D03*
D32*
X265050Y768750D03*
D33*
X281050Y818750D03*
D34*
X514922Y198572D02*
X529978Y198572D01*
X514922Y198572D02*
X514922Y258628D01*
X529978Y258628D01*
X529978Y198572D01*
X529978Y214700D02*
X514922Y214700D01*
X514922Y230828D02*
X529978Y230828D01*
X529978Y246956D02*
X514922Y246956D01*
X574922Y198572D02*
X589978Y198572D01*
X574922Y198572D02*
X574922Y258628D01*
X589978Y258628D01*
X589978Y198572D01*
X589978Y214700D02*
X574922Y214700D01*
X574922Y230828D02*
X589978Y230828D01*
X589978Y246956D02*
X574922Y246956D01*
X811078Y286322D02*
X811078Y301378D01*
X811078Y286322D02*
X751022Y286322D01*
X751022Y301378D01*
X811078Y301378D01*
X811078Y346322D02*
X811078Y361378D01*
X811078Y346322D02*
X751022Y346322D01*
X751022Y361378D01*
X811078Y361378D01*
X865322Y120078D02*
X865322Y105022D01*
X865322Y120078D02*
X925378Y120078D01*
X925378Y105022D01*
X865322Y105022D01*
X865322Y60078D02*
X865322Y45022D01*
X865322Y60078D02*
X925378Y60078D01*
X925378Y45022D01*
X865322Y45022D01*
D35*
X133350Y482600D03*
D36*
X133350Y357600D03*
D35*
X552450Y482600D03*
D36*
X552450Y357600D03*
D37*
X69850Y557800D03*
X69850Y432800D03*
X69850Y367300D03*
X69850Y242300D03*
D19*
X107950Y44450D03*
D32*
X754000Y52000D03*
X788000Y52000D03*
X1168000Y105000D03*
X1134000Y105000D03*
D16*
X823500Y52000D03*
X806500Y52000D03*
X1095500Y105000D03*
X1112500Y105000D03*
M02*
