G04 EAGLE Gerber RS-274X export*
G75*
%MOMM*%
%FSLAX34Y34*%
%LPD*%
%INSoldermask Bottom*%
%IPPOS*%
%AMOC8*
5,1,8,0,0,1.08239X$1,22.5*%
G01*
%ADD10R,1.753200X1.753200*%
%ADD11C,1.753200*%
%ADD12R,1.603200X1.603200*%
%ADD13C,1.603200*%
%ADD14C,2.203200*%
%ADD15C,1.965200*%
%ADD16C,6.203200*%
%ADD17C,2.703200*%
%ADD18C,3.203200*%
%ADD19C,2.743200*%
%ADD20C,1.223200*%
%ADD21R,1.773200X1.773200*%
%ADD22C,1.773200*%
%ADD23R,1.503200X1.503200*%
%ADD24C,1.503200*%
%ADD25R,1.703200X1.703200*%
%ADD26C,1.803200*%
%ADD27C,2.703200*%


D10*
X355600Y906250D03*
D11*
X355600Y681250D03*
D12*
X723500Y825500D03*
D13*
X673500Y825500D03*
D12*
X717150Y590550D03*
D13*
X667150Y590550D03*
D14*
X406400Y89300D03*
X406400Y139300D03*
X520700Y89300D03*
X520700Y139300D03*
X635000Y89300D03*
X635000Y139300D03*
X1016400Y241300D03*
X1066400Y241300D03*
X889000Y305200D03*
X889000Y355200D03*
D15*
X648450Y736200D03*
X648200Y686200D03*
X750050Y736200D03*
X749800Y686200D03*
D16*
X50800Y50800D03*
X50000Y950000D03*
X1149350Y952500D03*
X1149350Y50800D03*
D10*
X317200Y965200D03*
D11*
X508300Y965200D03*
D17*
X225400Y321600D02*
X225400Y296600D01*
X255400Y296600D02*
X255400Y321600D01*
X285400Y321600D02*
X285400Y296600D01*
X370400Y296600D02*
X370400Y321600D01*
X315400Y321600D02*
X315400Y296600D01*
X400400Y296600D02*
X400400Y321600D01*
X460400Y321600D02*
X460400Y296600D01*
X267400Y516600D02*
X267400Y541600D01*
X297400Y541600D02*
X297400Y516600D01*
X327400Y516600D02*
X327400Y541600D01*
X237400Y541600D02*
X237400Y516600D01*
D18*
X387400Y529100D03*
D17*
X430400Y321600D02*
X430400Y296600D01*
D18*
X447400Y529100D03*
D19*
X203200Y819150D03*
X152400Y819150D03*
X203200Y711200D03*
X152400Y711200D03*
D20*
X1137900Y255650D03*
D21*
X1177700Y328450D03*
D22*
X1177700Y298450D03*
X1177700Y268450D03*
X1147700Y328450D03*
X1147700Y298450D03*
X1147700Y268450D03*
D23*
X265050Y768750D03*
D24*
X281050Y818750D03*
D25*
X133350Y482600D03*
D26*
X133350Y357600D03*
D25*
X552450Y482600D03*
D26*
X552450Y357600D03*
D27*
X69850Y557800D03*
X69850Y432800D03*
X69850Y367300D03*
X69850Y242300D03*
M02*
