G04 EAGLE Gerber RS-274X export*
G75*
%MOMM*%
%FSLAX34Y34*%
%LPD*%
%IN*%
%IPPOS*%
%AMOC8*
5,1,8,0,0,1.08239X$1,22.5*%
G01*
%ADD10C,0.000000*%
%ADD11C,0.254000*%


D10*
X0Y0D02*
X1000000Y0D01*
X1000000Y1000000D01*
X0Y1000000D01*
X0Y0D01*
X35000Y950000D02*
X35005Y950368D01*
X35018Y950736D01*
X35041Y951103D01*
X35072Y951470D01*
X35113Y951836D01*
X35162Y952201D01*
X35221Y952564D01*
X35288Y952926D01*
X35364Y953287D01*
X35450Y953645D01*
X35543Y954001D01*
X35646Y954354D01*
X35757Y954705D01*
X35877Y955053D01*
X36005Y955398D01*
X36142Y955740D01*
X36287Y956079D01*
X36440Y956413D01*
X36602Y956744D01*
X36771Y957071D01*
X36949Y957393D01*
X37134Y957712D01*
X37327Y958025D01*
X37528Y958334D01*
X37736Y958637D01*
X37952Y958935D01*
X38175Y959228D01*
X38405Y959516D01*
X38642Y959798D01*
X38886Y960073D01*
X39136Y960343D01*
X39393Y960607D01*
X39657Y960864D01*
X39927Y961114D01*
X40202Y961358D01*
X40484Y961595D01*
X40772Y961825D01*
X41065Y962048D01*
X41363Y962264D01*
X41666Y962472D01*
X41975Y962673D01*
X42288Y962866D01*
X42607Y963051D01*
X42929Y963229D01*
X43256Y963398D01*
X43587Y963560D01*
X43921Y963713D01*
X44260Y963858D01*
X44602Y963995D01*
X44947Y964123D01*
X45295Y964243D01*
X45646Y964354D01*
X45999Y964457D01*
X46355Y964550D01*
X46713Y964636D01*
X47074Y964712D01*
X47436Y964779D01*
X47799Y964838D01*
X48164Y964887D01*
X48530Y964928D01*
X48897Y964959D01*
X49264Y964982D01*
X49632Y964995D01*
X50000Y965000D01*
X50368Y964995D01*
X50736Y964982D01*
X51103Y964959D01*
X51470Y964928D01*
X51836Y964887D01*
X52201Y964838D01*
X52564Y964779D01*
X52926Y964712D01*
X53287Y964636D01*
X53645Y964550D01*
X54001Y964457D01*
X54354Y964354D01*
X54705Y964243D01*
X55053Y964123D01*
X55398Y963995D01*
X55740Y963858D01*
X56079Y963713D01*
X56413Y963560D01*
X56744Y963398D01*
X57071Y963229D01*
X57393Y963051D01*
X57712Y962866D01*
X58025Y962673D01*
X58334Y962472D01*
X58637Y962264D01*
X58935Y962048D01*
X59228Y961825D01*
X59516Y961595D01*
X59798Y961358D01*
X60073Y961114D01*
X60343Y960864D01*
X60607Y960607D01*
X60864Y960343D01*
X61114Y960073D01*
X61358Y959798D01*
X61595Y959516D01*
X61825Y959228D01*
X62048Y958935D01*
X62264Y958637D01*
X62472Y958334D01*
X62673Y958025D01*
X62866Y957712D01*
X63051Y957393D01*
X63229Y957071D01*
X63398Y956744D01*
X63560Y956413D01*
X63713Y956079D01*
X63858Y955740D01*
X63995Y955398D01*
X64123Y955053D01*
X64243Y954705D01*
X64354Y954354D01*
X64457Y954001D01*
X64550Y953645D01*
X64636Y953287D01*
X64712Y952926D01*
X64779Y952564D01*
X64838Y952201D01*
X64887Y951836D01*
X64928Y951470D01*
X64959Y951103D01*
X64982Y950736D01*
X64995Y950368D01*
X65000Y950000D01*
X64995Y949632D01*
X64982Y949264D01*
X64959Y948897D01*
X64928Y948530D01*
X64887Y948164D01*
X64838Y947799D01*
X64779Y947436D01*
X64712Y947074D01*
X64636Y946713D01*
X64550Y946355D01*
X64457Y945999D01*
X64354Y945646D01*
X64243Y945295D01*
X64123Y944947D01*
X63995Y944602D01*
X63858Y944260D01*
X63713Y943921D01*
X63560Y943587D01*
X63398Y943256D01*
X63229Y942929D01*
X63051Y942607D01*
X62866Y942288D01*
X62673Y941975D01*
X62472Y941666D01*
X62264Y941363D01*
X62048Y941065D01*
X61825Y940772D01*
X61595Y940484D01*
X61358Y940202D01*
X61114Y939927D01*
X60864Y939657D01*
X60607Y939393D01*
X60343Y939136D01*
X60073Y938886D01*
X59798Y938642D01*
X59516Y938405D01*
X59228Y938175D01*
X58935Y937952D01*
X58637Y937736D01*
X58334Y937528D01*
X58025Y937327D01*
X57712Y937134D01*
X57393Y936949D01*
X57071Y936771D01*
X56744Y936602D01*
X56413Y936440D01*
X56079Y936287D01*
X55740Y936142D01*
X55398Y936005D01*
X55053Y935877D01*
X54705Y935757D01*
X54354Y935646D01*
X54001Y935543D01*
X53645Y935450D01*
X53287Y935364D01*
X52926Y935288D01*
X52564Y935221D01*
X52201Y935162D01*
X51836Y935113D01*
X51470Y935072D01*
X51103Y935041D01*
X50736Y935018D01*
X50368Y935005D01*
X50000Y935000D01*
X49632Y935005D01*
X49264Y935018D01*
X48897Y935041D01*
X48530Y935072D01*
X48164Y935113D01*
X47799Y935162D01*
X47436Y935221D01*
X47074Y935288D01*
X46713Y935364D01*
X46355Y935450D01*
X45999Y935543D01*
X45646Y935646D01*
X45295Y935757D01*
X44947Y935877D01*
X44602Y936005D01*
X44260Y936142D01*
X43921Y936287D01*
X43587Y936440D01*
X43256Y936602D01*
X42929Y936771D01*
X42607Y936949D01*
X42288Y937134D01*
X41975Y937327D01*
X41666Y937528D01*
X41363Y937736D01*
X41065Y937952D01*
X40772Y938175D01*
X40484Y938405D01*
X40202Y938642D01*
X39927Y938886D01*
X39657Y939136D01*
X39393Y939393D01*
X39136Y939657D01*
X38886Y939927D01*
X38642Y940202D01*
X38405Y940484D01*
X38175Y940772D01*
X37952Y941065D01*
X37736Y941363D01*
X37528Y941666D01*
X37327Y941975D01*
X37134Y942288D01*
X36949Y942607D01*
X36771Y942929D01*
X36602Y943256D01*
X36440Y943587D01*
X36287Y943921D01*
X36142Y944260D01*
X36005Y944602D01*
X35877Y944947D01*
X35757Y945295D01*
X35646Y945646D01*
X35543Y945999D01*
X35450Y946355D01*
X35364Y946713D01*
X35288Y947074D01*
X35221Y947436D01*
X35162Y947799D01*
X35113Y948164D01*
X35072Y948530D01*
X35041Y948897D01*
X35018Y949264D01*
X35005Y949632D01*
X35000Y950000D01*
X935000Y950000D02*
X935005Y950368D01*
X935018Y950736D01*
X935041Y951103D01*
X935072Y951470D01*
X935113Y951836D01*
X935162Y952201D01*
X935221Y952564D01*
X935288Y952926D01*
X935364Y953287D01*
X935450Y953645D01*
X935543Y954001D01*
X935646Y954354D01*
X935757Y954705D01*
X935877Y955053D01*
X936005Y955398D01*
X936142Y955740D01*
X936287Y956079D01*
X936440Y956413D01*
X936602Y956744D01*
X936771Y957071D01*
X936949Y957393D01*
X937134Y957712D01*
X937327Y958025D01*
X937528Y958334D01*
X937736Y958637D01*
X937952Y958935D01*
X938175Y959228D01*
X938405Y959516D01*
X938642Y959798D01*
X938886Y960073D01*
X939136Y960343D01*
X939393Y960607D01*
X939657Y960864D01*
X939927Y961114D01*
X940202Y961358D01*
X940484Y961595D01*
X940772Y961825D01*
X941065Y962048D01*
X941363Y962264D01*
X941666Y962472D01*
X941975Y962673D01*
X942288Y962866D01*
X942607Y963051D01*
X942929Y963229D01*
X943256Y963398D01*
X943587Y963560D01*
X943921Y963713D01*
X944260Y963858D01*
X944602Y963995D01*
X944947Y964123D01*
X945295Y964243D01*
X945646Y964354D01*
X945999Y964457D01*
X946355Y964550D01*
X946713Y964636D01*
X947074Y964712D01*
X947436Y964779D01*
X947799Y964838D01*
X948164Y964887D01*
X948530Y964928D01*
X948897Y964959D01*
X949264Y964982D01*
X949632Y964995D01*
X950000Y965000D01*
X950368Y964995D01*
X950736Y964982D01*
X951103Y964959D01*
X951470Y964928D01*
X951836Y964887D01*
X952201Y964838D01*
X952564Y964779D01*
X952926Y964712D01*
X953287Y964636D01*
X953645Y964550D01*
X954001Y964457D01*
X954354Y964354D01*
X954705Y964243D01*
X955053Y964123D01*
X955398Y963995D01*
X955740Y963858D01*
X956079Y963713D01*
X956413Y963560D01*
X956744Y963398D01*
X957071Y963229D01*
X957393Y963051D01*
X957712Y962866D01*
X958025Y962673D01*
X958334Y962472D01*
X958637Y962264D01*
X958935Y962048D01*
X959228Y961825D01*
X959516Y961595D01*
X959798Y961358D01*
X960073Y961114D01*
X960343Y960864D01*
X960607Y960607D01*
X960864Y960343D01*
X961114Y960073D01*
X961358Y959798D01*
X961595Y959516D01*
X961825Y959228D01*
X962048Y958935D01*
X962264Y958637D01*
X962472Y958334D01*
X962673Y958025D01*
X962866Y957712D01*
X963051Y957393D01*
X963229Y957071D01*
X963398Y956744D01*
X963560Y956413D01*
X963713Y956079D01*
X963858Y955740D01*
X963995Y955398D01*
X964123Y955053D01*
X964243Y954705D01*
X964354Y954354D01*
X964457Y954001D01*
X964550Y953645D01*
X964636Y953287D01*
X964712Y952926D01*
X964779Y952564D01*
X964838Y952201D01*
X964887Y951836D01*
X964928Y951470D01*
X964959Y951103D01*
X964982Y950736D01*
X964995Y950368D01*
X965000Y950000D01*
X964995Y949632D01*
X964982Y949264D01*
X964959Y948897D01*
X964928Y948530D01*
X964887Y948164D01*
X964838Y947799D01*
X964779Y947436D01*
X964712Y947074D01*
X964636Y946713D01*
X964550Y946355D01*
X964457Y945999D01*
X964354Y945646D01*
X964243Y945295D01*
X964123Y944947D01*
X963995Y944602D01*
X963858Y944260D01*
X963713Y943921D01*
X963560Y943587D01*
X963398Y943256D01*
X963229Y942929D01*
X963051Y942607D01*
X962866Y942288D01*
X962673Y941975D01*
X962472Y941666D01*
X962264Y941363D01*
X962048Y941065D01*
X961825Y940772D01*
X961595Y940484D01*
X961358Y940202D01*
X961114Y939927D01*
X960864Y939657D01*
X960607Y939393D01*
X960343Y939136D01*
X960073Y938886D01*
X959798Y938642D01*
X959516Y938405D01*
X959228Y938175D01*
X958935Y937952D01*
X958637Y937736D01*
X958334Y937528D01*
X958025Y937327D01*
X957712Y937134D01*
X957393Y936949D01*
X957071Y936771D01*
X956744Y936602D01*
X956413Y936440D01*
X956079Y936287D01*
X955740Y936142D01*
X955398Y936005D01*
X955053Y935877D01*
X954705Y935757D01*
X954354Y935646D01*
X954001Y935543D01*
X953645Y935450D01*
X953287Y935364D01*
X952926Y935288D01*
X952564Y935221D01*
X952201Y935162D01*
X951836Y935113D01*
X951470Y935072D01*
X951103Y935041D01*
X950736Y935018D01*
X950368Y935005D01*
X950000Y935000D01*
X949632Y935005D01*
X949264Y935018D01*
X948897Y935041D01*
X948530Y935072D01*
X948164Y935113D01*
X947799Y935162D01*
X947436Y935221D01*
X947074Y935288D01*
X946713Y935364D01*
X946355Y935450D01*
X945999Y935543D01*
X945646Y935646D01*
X945295Y935757D01*
X944947Y935877D01*
X944602Y936005D01*
X944260Y936142D01*
X943921Y936287D01*
X943587Y936440D01*
X943256Y936602D01*
X942929Y936771D01*
X942607Y936949D01*
X942288Y937134D01*
X941975Y937327D01*
X941666Y937528D01*
X941363Y937736D01*
X941065Y937952D01*
X940772Y938175D01*
X940484Y938405D01*
X940202Y938642D01*
X939927Y938886D01*
X939657Y939136D01*
X939393Y939393D01*
X939136Y939657D01*
X938886Y939927D01*
X938642Y940202D01*
X938405Y940484D01*
X938175Y940772D01*
X937952Y941065D01*
X937736Y941363D01*
X937528Y941666D01*
X937327Y941975D01*
X937134Y942288D01*
X936949Y942607D01*
X936771Y942929D01*
X936602Y943256D01*
X936440Y943587D01*
X936287Y943921D01*
X936142Y944260D01*
X936005Y944602D01*
X935877Y944947D01*
X935757Y945295D01*
X935646Y945646D01*
X935543Y945999D01*
X935450Y946355D01*
X935364Y946713D01*
X935288Y947074D01*
X935221Y947436D01*
X935162Y947799D01*
X935113Y948164D01*
X935072Y948530D01*
X935041Y948897D01*
X935018Y949264D01*
X935005Y949632D01*
X935000Y950000D01*
X935000Y50000D02*
X935005Y50368D01*
X935018Y50736D01*
X935041Y51103D01*
X935072Y51470D01*
X935113Y51836D01*
X935162Y52201D01*
X935221Y52564D01*
X935288Y52926D01*
X935364Y53287D01*
X935450Y53645D01*
X935543Y54001D01*
X935646Y54354D01*
X935757Y54705D01*
X935877Y55053D01*
X936005Y55398D01*
X936142Y55740D01*
X936287Y56079D01*
X936440Y56413D01*
X936602Y56744D01*
X936771Y57071D01*
X936949Y57393D01*
X937134Y57712D01*
X937327Y58025D01*
X937528Y58334D01*
X937736Y58637D01*
X937952Y58935D01*
X938175Y59228D01*
X938405Y59516D01*
X938642Y59798D01*
X938886Y60073D01*
X939136Y60343D01*
X939393Y60607D01*
X939657Y60864D01*
X939927Y61114D01*
X940202Y61358D01*
X940484Y61595D01*
X940772Y61825D01*
X941065Y62048D01*
X941363Y62264D01*
X941666Y62472D01*
X941975Y62673D01*
X942288Y62866D01*
X942607Y63051D01*
X942929Y63229D01*
X943256Y63398D01*
X943587Y63560D01*
X943921Y63713D01*
X944260Y63858D01*
X944602Y63995D01*
X944947Y64123D01*
X945295Y64243D01*
X945646Y64354D01*
X945999Y64457D01*
X946355Y64550D01*
X946713Y64636D01*
X947074Y64712D01*
X947436Y64779D01*
X947799Y64838D01*
X948164Y64887D01*
X948530Y64928D01*
X948897Y64959D01*
X949264Y64982D01*
X949632Y64995D01*
X950000Y65000D01*
X950368Y64995D01*
X950736Y64982D01*
X951103Y64959D01*
X951470Y64928D01*
X951836Y64887D01*
X952201Y64838D01*
X952564Y64779D01*
X952926Y64712D01*
X953287Y64636D01*
X953645Y64550D01*
X954001Y64457D01*
X954354Y64354D01*
X954705Y64243D01*
X955053Y64123D01*
X955398Y63995D01*
X955740Y63858D01*
X956079Y63713D01*
X956413Y63560D01*
X956744Y63398D01*
X957071Y63229D01*
X957393Y63051D01*
X957712Y62866D01*
X958025Y62673D01*
X958334Y62472D01*
X958637Y62264D01*
X958935Y62048D01*
X959228Y61825D01*
X959516Y61595D01*
X959798Y61358D01*
X960073Y61114D01*
X960343Y60864D01*
X960607Y60607D01*
X960864Y60343D01*
X961114Y60073D01*
X961358Y59798D01*
X961595Y59516D01*
X961825Y59228D01*
X962048Y58935D01*
X962264Y58637D01*
X962472Y58334D01*
X962673Y58025D01*
X962866Y57712D01*
X963051Y57393D01*
X963229Y57071D01*
X963398Y56744D01*
X963560Y56413D01*
X963713Y56079D01*
X963858Y55740D01*
X963995Y55398D01*
X964123Y55053D01*
X964243Y54705D01*
X964354Y54354D01*
X964457Y54001D01*
X964550Y53645D01*
X964636Y53287D01*
X964712Y52926D01*
X964779Y52564D01*
X964838Y52201D01*
X964887Y51836D01*
X964928Y51470D01*
X964959Y51103D01*
X964982Y50736D01*
X964995Y50368D01*
X965000Y50000D01*
X964995Y49632D01*
X964982Y49264D01*
X964959Y48897D01*
X964928Y48530D01*
X964887Y48164D01*
X964838Y47799D01*
X964779Y47436D01*
X964712Y47074D01*
X964636Y46713D01*
X964550Y46355D01*
X964457Y45999D01*
X964354Y45646D01*
X964243Y45295D01*
X964123Y44947D01*
X963995Y44602D01*
X963858Y44260D01*
X963713Y43921D01*
X963560Y43587D01*
X963398Y43256D01*
X963229Y42929D01*
X963051Y42607D01*
X962866Y42288D01*
X962673Y41975D01*
X962472Y41666D01*
X962264Y41363D01*
X962048Y41065D01*
X961825Y40772D01*
X961595Y40484D01*
X961358Y40202D01*
X961114Y39927D01*
X960864Y39657D01*
X960607Y39393D01*
X960343Y39136D01*
X960073Y38886D01*
X959798Y38642D01*
X959516Y38405D01*
X959228Y38175D01*
X958935Y37952D01*
X958637Y37736D01*
X958334Y37528D01*
X958025Y37327D01*
X957712Y37134D01*
X957393Y36949D01*
X957071Y36771D01*
X956744Y36602D01*
X956413Y36440D01*
X956079Y36287D01*
X955740Y36142D01*
X955398Y36005D01*
X955053Y35877D01*
X954705Y35757D01*
X954354Y35646D01*
X954001Y35543D01*
X953645Y35450D01*
X953287Y35364D01*
X952926Y35288D01*
X952564Y35221D01*
X952201Y35162D01*
X951836Y35113D01*
X951470Y35072D01*
X951103Y35041D01*
X950736Y35018D01*
X950368Y35005D01*
X950000Y35000D01*
X949632Y35005D01*
X949264Y35018D01*
X948897Y35041D01*
X948530Y35072D01*
X948164Y35113D01*
X947799Y35162D01*
X947436Y35221D01*
X947074Y35288D01*
X946713Y35364D01*
X946355Y35450D01*
X945999Y35543D01*
X945646Y35646D01*
X945295Y35757D01*
X944947Y35877D01*
X944602Y36005D01*
X944260Y36142D01*
X943921Y36287D01*
X943587Y36440D01*
X943256Y36602D01*
X942929Y36771D01*
X942607Y36949D01*
X942288Y37134D01*
X941975Y37327D01*
X941666Y37528D01*
X941363Y37736D01*
X941065Y37952D01*
X940772Y38175D01*
X940484Y38405D01*
X940202Y38642D01*
X939927Y38886D01*
X939657Y39136D01*
X939393Y39393D01*
X939136Y39657D01*
X938886Y39927D01*
X938642Y40202D01*
X938405Y40484D01*
X938175Y40772D01*
X937952Y41065D01*
X937736Y41363D01*
X937528Y41666D01*
X937327Y41975D01*
X937134Y42288D01*
X936949Y42607D01*
X936771Y42929D01*
X936602Y43256D01*
X936440Y43587D01*
X936287Y43921D01*
X936142Y44260D01*
X936005Y44602D01*
X935877Y44947D01*
X935757Y45295D01*
X935646Y45646D01*
X935543Y45999D01*
X935450Y46355D01*
X935364Y46713D01*
X935288Y47074D01*
X935221Y47436D01*
X935162Y47799D01*
X935113Y48164D01*
X935072Y48530D01*
X935041Y48897D01*
X935018Y49264D01*
X935005Y49632D01*
X935000Y50000D01*
X35000Y50000D02*
X35005Y50368D01*
X35018Y50736D01*
X35041Y51103D01*
X35072Y51470D01*
X35113Y51836D01*
X35162Y52201D01*
X35221Y52564D01*
X35288Y52926D01*
X35364Y53287D01*
X35450Y53645D01*
X35543Y54001D01*
X35646Y54354D01*
X35757Y54705D01*
X35877Y55053D01*
X36005Y55398D01*
X36142Y55740D01*
X36287Y56079D01*
X36440Y56413D01*
X36602Y56744D01*
X36771Y57071D01*
X36949Y57393D01*
X37134Y57712D01*
X37327Y58025D01*
X37528Y58334D01*
X37736Y58637D01*
X37952Y58935D01*
X38175Y59228D01*
X38405Y59516D01*
X38642Y59798D01*
X38886Y60073D01*
X39136Y60343D01*
X39393Y60607D01*
X39657Y60864D01*
X39927Y61114D01*
X40202Y61358D01*
X40484Y61595D01*
X40772Y61825D01*
X41065Y62048D01*
X41363Y62264D01*
X41666Y62472D01*
X41975Y62673D01*
X42288Y62866D01*
X42607Y63051D01*
X42929Y63229D01*
X43256Y63398D01*
X43587Y63560D01*
X43921Y63713D01*
X44260Y63858D01*
X44602Y63995D01*
X44947Y64123D01*
X45295Y64243D01*
X45646Y64354D01*
X45999Y64457D01*
X46355Y64550D01*
X46713Y64636D01*
X47074Y64712D01*
X47436Y64779D01*
X47799Y64838D01*
X48164Y64887D01*
X48530Y64928D01*
X48897Y64959D01*
X49264Y64982D01*
X49632Y64995D01*
X50000Y65000D01*
X50368Y64995D01*
X50736Y64982D01*
X51103Y64959D01*
X51470Y64928D01*
X51836Y64887D01*
X52201Y64838D01*
X52564Y64779D01*
X52926Y64712D01*
X53287Y64636D01*
X53645Y64550D01*
X54001Y64457D01*
X54354Y64354D01*
X54705Y64243D01*
X55053Y64123D01*
X55398Y63995D01*
X55740Y63858D01*
X56079Y63713D01*
X56413Y63560D01*
X56744Y63398D01*
X57071Y63229D01*
X57393Y63051D01*
X57712Y62866D01*
X58025Y62673D01*
X58334Y62472D01*
X58637Y62264D01*
X58935Y62048D01*
X59228Y61825D01*
X59516Y61595D01*
X59798Y61358D01*
X60073Y61114D01*
X60343Y60864D01*
X60607Y60607D01*
X60864Y60343D01*
X61114Y60073D01*
X61358Y59798D01*
X61595Y59516D01*
X61825Y59228D01*
X62048Y58935D01*
X62264Y58637D01*
X62472Y58334D01*
X62673Y58025D01*
X62866Y57712D01*
X63051Y57393D01*
X63229Y57071D01*
X63398Y56744D01*
X63560Y56413D01*
X63713Y56079D01*
X63858Y55740D01*
X63995Y55398D01*
X64123Y55053D01*
X64243Y54705D01*
X64354Y54354D01*
X64457Y54001D01*
X64550Y53645D01*
X64636Y53287D01*
X64712Y52926D01*
X64779Y52564D01*
X64838Y52201D01*
X64887Y51836D01*
X64928Y51470D01*
X64959Y51103D01*
X64982Y50736D01*
X64995Y50368D01*
X65000Y50000D01*
X64995Y49632D01*
X64982Y49264D01*
X64959Y48897D01*
X64928Y48530D01*
X64887Y48164D01*
X64838Y47799D01*
X64779Y47436D01*
X64712Y47074D01*
X64636Y46713D01*
X64550Y46355D01*
X64457Y45999D01*
X64354Y45646D01*
X64243Y45295D01*
X64123Y44947D01*
X63995Y44602D01*
X63858Y44260D01*
X63713Y43921D01*
X63560Y43587D01*
X63398Y43256D01*
X63229Y42929D01*
X63051Y42607D01*
X62866Y42288D01*
X62673Y41975D01*
X62472Y41666D01*
X62264Y41363D01*
X62048Y41065D01*
X61825Y40772D01*
X61595Y40484D01*
X61358Y40202D01*
X61114Y39927D01*
X60864Y39657D01*
X60607Y39393D01*
X60343Y39136D01*
X60073Y38886D01*
X59798Y38642D01*
X59516Y38405D01*
X59228Y38175D01*
X58935Y37952D01*
X58637Y37736D01*
X58334Y37528D01*
X58025Y37327D01*
X57712Y37134D01*
X57393Y36949D01*
X57071Y36771D01*
X56744Y36602D01*
X56413Y36440D01*
X56079Y36287D01*
X55740Y36142D01*
X55398Y36005D01*
X55053Y35877D01*
X54705Y35757D01*
X54354Y35646D01*
X54001Y35543D01*
X53645Y35450D01*
X53287Y35364D01*
X52926Y35288D01*
X52564Y35221D01*
X52201Y35162D01*
X51836Y35113D01*
X51470Y35072D01*
X51103Y35041D01*
X50736Y35018D01*
X50368Y35005D01*
X50000Y35000D01*
X49632Y35005D01*
X49264Y35018D01*
X48897Y35041D01*
X48530Y35072D01*
X48164Y35113D01*
X47799Y35162D01*
X47436Y35221D01*
X47074Y35288D01*
X46713Y35364D01*
X46355Y35450D01*
X45999Y35543D01*
X45646Y35646D01*
X45295Y35757D01*
X44947Y35877D01*
X44602Y36005D01*
X44260Y36142D01*
X43921Y36287D01*
X43587Y36440D01*
X43256Y36602D01*
X42929Y36771D01*
X42607Y36949D01*
X42288Y37134D01*
X41975Y37327D01*
X41666Y37528D01*
X41363Y37736D01*
X41065Y37952D01*
X40772Y38175D01*
X40484Y38405D01*
X40202Y38642D01*
X39927Y38886D01*
X39657Y39136D01*
X39393Y39393D01*
X39136Y39657D01*
X38886Y39927D01*
X38642Y40202D01*
X38405Y40484D01*
X38175Y40772D01*
X37952Y41065D01*
X37736Y41363D01*
X37528Y41666D01*
X37327Y41975D01*
X37134Y42288D01*
X36949Y42607D01*
X36771Y42929D01*
X36602Y43256D01*
X36440Y43587D01*
X36287Y43921D01*
X36142Y44260D01*
X36005Y44602D01*
X35877Y44947D01*
X35757Y45295D01*
X35646Y45646D01*
X35543Y45999D01*
X35450Y46355D01*
X35364Y46713D01*
X35288Y47074D01*
X35221Y47436D01*
X35162Y47799D01*
X35113Y48164D01*
X35072Y48530D01*
X35041Y48897D01*
X35018Y49264D01*
X35005Y49632D01*
X35000Y50000D01*
X289655Y112100D02*
X289660Y112505D01*
X289675Y112909D01*
X289700Y113313D01*
X289734Y113717D01*
X289779Y114119D01*
X289834Y114520D01*
X289898Y114920D01*
X289972Y115318D01*
X290056Y115714D01*
X290149Y116108D01*
X290253Y116499D01*
X290365Y116888D01*
X290488Y117274D01*
X290619Y117657D01*
X290760Y118036D01*
X290911Y118412D01*
X291070Y118784D01*
X291239Y119153D01*
X291416Y119516D01*
X291603Y119876D01*
X291798Y120230D01*
X292002Y120580D01*
X292214Y120925D01*
X292435Y121264D01*
X292664Y121598D01*
X292901Y121926D01*
X293146Y122248D01*
X293399Y122564D01*
X293660Y122874D01*
X293928Y123177D01*
X294204Y123474D01*
X294486Y123764D01*
X294776Y124046D01*
X295073Y124322D01*
X295376Y124590D01*
X295686Y124851D01*
X296002Y125104D01*
X296324Y125349D01*
X296652Y125586D01*
X296986Y125815D01*
X297325Y126036D01*
X297670Y126248D01*
X298020Y126452D01*
X298374Y126647D01*
X298734Y126834D01*
X299097Y127011D01*
X299466Y127180D01*
X299838Y127339D01*
X300214Y127490D01*
X300593Y127631D01*
X300976Y127762D01*
X301362Y127885D01*
X301751Y127997D01*
X302142Y128101D01*
X302536Y128194D01*
X302932Y128278D01*
X303330Y128352D01*
X303730Y128416D01*
X304131Y128471D01*
X304533Y128516D01*
X304937Y128550D01*
X305341Y128575D01*
X305745Y128590D01*
X306150Y128595D01*
X306555Y128590D01*
X306959Y128575D01*
X307363Y128550D01*
X307767Y128516D01*
X308169Y128471D01*
X308570Y128416D01*
X308970Y128352D01*
X309368Y128278D01*
X309764Y128194D01*
X310158Y128101D01*
X310549Y127997D01*
X310938Y127885D01*
X311324Y127762D01*
X311707Y127631D01*
X312086Y127490D01*
X312462Y127339D01*
X312834Y127180D01*
X313203Y127011D01*
X313566Y126834D01*
X313926Y126647D01*
X314280Y126452D01*
X314630Y126248D01*
X314975Y126036D01*
X315314Y125815D01*
X315648Y125586D01*
X315976Y125349D01*
X316298Y125104D01*
X316614Y124851D01*
X316924Y124590D01*
X317227Y124322D01*
X317524Y124046D01*
X317814Y123764D01*
X318096Y123474D01*
X318372Y123177D01*
X318640Y122874D01*
X318901Y122564D01*
X319154Y122248D01*
X319399Y121926D01*
X319636Y121598D01*
X319865Y121264D01*
X320086Y120925D01*
X320298Y120580D01*
X320502Y120230D01*
X320697Y119876D01*
X320884Y119516D01*
X321061Y119153D01*
X321230Y118784D01*
X321389Y118412D01*
X321540Y118036D01*
X321681Y117657D01*
X321812Y117274D01*
X321935Y116888D01*
X322047Y116499D01*
X322151Y116108D01*
X322244Y115714D01*
X322328Y115318D01*
X322402Y114920D01*
X322466Y114520D01*
X322521Y114119D01*
X322566Y113717D01*
X322600Y113313D01*
X322625Y112909D01*
X322640Y112505D01*
X322645Y112100D01*
X322640Y111695D01*
X322625Y111291D01*
X322600Y110887D01*
X322566Y110483D01*
X322521Y110081D01*
X322466Y109680D01*
X322402Y109280D01*
X322328Y108882D01*
X322244Y108486D01*
X322151Y108092D01*
X322047Y107701D01*
X321935Y107312D01*
X321812Y106926D01*
X321681Y106543D01*
X321540Y106164D01*
X321389Y105788D01*
X321230Y105416D01*
X321061Y105047D01*
X320884Y104684D01*
X320697Y104324D01*
X320502Y103970D01*
X320298Y103620D01*
X320086Y103275D01*
X319865Y102936D01*
X319636Y102602D01*
X319399Y102274D01*
X319154Y101952D01*
X318901Y101636D01*
X318640Y101326D01*
X318372Y101023D01*
X318096Y100726D01*
X317814Y100436D01*
X317524Y100154D01*
X317227Y99878D01*
X316924Y99610D01*
X316614Y99349D01*
X316298Y99096D01*
X315976Y98851D01*
X315648Y98614D01*
X315314Y98385D01*
X314975Y98164D01*
X314630Y97952D01*
X314280Y97748D01*
X313926Y97553D01*
X313566Y97366D01*
X313203Y97189D01*
X312834Y97020D01*
X312462Y96861D01*
X312086Y96710D01*
X311707Y96569D01*
X311324Y96438D01*
X310938Y96315D01*
X310549Y96203D01*
X310158Y96099D01*
X309764Y96006D01*
X309368Y95922D01*
X308970Y95848D01*
X308570Y95784D01*
X308169Y95729D01*
X307767Y95684D01*
X307363Y95650D01*
X306959Y95625D01*
X306555Y95610D01*
X306150Y95605D01*
X305745Y95610D01*
X305341Y95625D01*
X304937Y95650D01*
X304533Y95684D01*
X304131Y95729D01*
X303730Y95784D01*
X303330Y95848D01*
X302932Y95922D01*
X302536Y96006D01*
X302142Y96099D01*
X301751Y96203D01*
X301362Y96315D01*
X300976Y96438D01*
X300593Y96569D01*
X300214Y96710D01*
X299838Y96861D01*
X299466Y97020D01*
X299097Y97189D01*
X298734Y97366D01*
X298374Y97553D01*
X298020Y97748D01*
X297670Y97952D01*
X297325Y98164D01*
X296986Y98385D01*
X296652Y98614D01*
X296324Y98851D01*
X296002Y99096D01*
X295686Y99349D01*
X295376Y99610D01*
X295073Y99878D01*
X294776Y100154D01*
X294486Y100436D01*
X294204Y100726D01*
X293928Y101023D01*
X293660Y101326D01*
X293399Y101636D01*
X293146Y101952D01*
X292901Y102274D01*
X292664Y102602D01*
X292435Y102936D01*
X292214Y103275D01*
X292002Y103620D01*
X291798Y103970D01*
X291603Y104324D01*
X291416Y104684D01*
X291239Y105047D01*
X291070Y105416D01*
X290911Y105788D01*
X290760Y106164D01*
X290619Y106543D01*
X290488Y106926D01*
X290365Y107312D01*
X290253Y107701D01*
X290149Y108092D01*
X290056Y108486D01*
X289972Y108882D01*
X289898Y109280D01*
X289834Y109680D01*
X289779Y110081D01*
X289734Y110483D01*
X289700Y110887D01*
X289675Y111291D01*
X289660Y111695D01*
X289655Y112100D01*
X175355Y112100D02*
X175360Y112505D01*
X175375Y112909D01*
X175400Y113313D01*
X175434Y113717D01*
X175479Y114119D01*
X175534Y114520D01*
X175598Y114920D01*
X175672Y115318D01*
X175756Y115714D01*
X175849Y116108D01*
X175953Y116499D01*
X176065Y116888D01*
X176188Y117274D01*
X176319Y117657D01*
X176460Y118036D01*
X176611Y118412D01*
X176770Y118784D01*
X176939Y119153D01*
X177116Y119516D01*
X177303Y119876D01*
X177498Y120230D01*
X177702Y120580D01*
X177914Y120925D01*
X178135Y121264D01*
X178364Y121598D01*
X178601Y121926D01*
X178846Y122248D01*
X179099Y122564D01*
X179360Y122874D01*
X179628Y123177D01*
X179904Y123474D01*
X180186Y123764D01*
X180476Y124046D01*
X180773Y124322D01*
X181076Y124590D01*
X181386Y124851D01*
X181702Y125104D01*
X182024Y125349D01*
X182352Y125586D01*
X182686Y125815D01*
X183025Y126036D01*
X183370Y126248D01*
X183720Y126452D01*
X184074Y126647D01*
X184434Y126834D01*
X184797Y127011D01*
X185166Y127180D01*
X185538Y127339D01*
X185914Y127490D01*
X186293Y127631D01*
X186676Y127762D01*
X187062Y127885D01*
X187451Y127997D01*
X187842Y128101D01*
X188236Y128194D01*
X188632Y128278D01*
X189030Y128352D01*
X189430Y128416D01*
X189831Y128471D01*
X190233Y128516D01*
X190637Y128550D01*
X191041Y128575D01*
X191445Y128590D01*
X191850Y128595D01*
X192255Y128590D01*
X192659Y128575D01*
X193063Y128550D01*
X193467Y128516D01*
X193869Y128471D01*
X194270Y128416D01*
X194670Y128352D01*
X195068Y128278D01*
X195464Y128194D01*
X195858Y128101D01*
X196249Y127997D01*
X196638Y127885D01*
X197024Y127762D01*
X197407Y127631D01*
X197786Y127490D01*
X198162Y127339D01*
X198534Y127180D01*
X198903Y127011D01*
X199266Y126834D01*
X199626Y126647D01*
X199980Y126452D01*
X200330Y126248D01*
X200675Y126036D01*
X201014Y125815D01*
X201348Y125586D01*
X201676Y125349D01*
X201998Y125104D01*
X202314Y124851D01*
X202624Y124590D01*
X202927Y124322D01*
X203224Y124046D01*
X203514Y123764D01*
X203796Y123474D01*
X204072Y123177D01*
X204340Y122874D01*
X204601Y122564D01*
X204854Y122248D01*
X205099Y121926D01*
X205336Y121598D01*
X205565Y121264D01*
X205786Y120925D01*
X205998Y120580D01*
X206202Y120230D01*
X206397Y119876D01*
X206584Y119516D01*
X206761Y119153D01*
X206930Y118784D01*
X207089Y118412D01*
X207240Y118036D01*
X207381Y117657D01*
X207512Y117274D01*
X207635Y116888D01*
X207747Y116499D01*
X207851Y116108D01*
X207944Y115714D01*
X208028Y115318D01*
X208102Y114920D01*
X208166Y114520D01*
X208221Y114119D01*
X208266Y113717D01*
X208300Y113313D01*
X208325Y112909D01*
X208340Y112505D01*
X208345Y112100D01*
X208340Y111695D01*
X208325Y111291D01*
X208300Y110887D01*
X208266Y110483D01*
X208221Y110081D01*
X208166Y109680D01*
X208102Y109280D01*
X208028Y108882D01*
X207944Y108486D01*
X207851Y108092D01*
X207747Y107701D01*
X207635Y107312D01*
X207512Y106926D01*
X207381Y106543D01*
X207240Y106164D01*
X207089Y105788D01*
X206930Y105416D01*
X206761Y105047D01*
X206584Y104684D01*
X206397Y104324D01*
X206202Y103970D01*
X205998Y103620D01*
X205786Y103275D01*
X205565Y102936D01*
X205336Y102602D01*
X205099Y102274D01*
X204854Y101952D01*
X204601Y101636D01*
X204340Y101326D01*
X204072Y101023D01*
X203796Y100726D01*
X203514Y100436D01*
X203224Y100154D01*
X202927Y99878D01*
X202624Y99610D01*
X202314Y99349D01*
X201998Y99096D01*
X201676Y98851D01*
X201348Y98614D01*
X201014Y98385D01*
X200675Y98164D01*
X200330Y97952D01*
X199980Y97748D01*
X199626Y97553D01*
X199266Y97366D01*
X198903Y97189D01*
X198534Y97020D01*
X198162Y96861D01*
X197786Y96710D01*
X197407Y96569D01*
X197024Y96438D01*
X196638Y96315D01*
X196249Y96203D01*
X195858Y96099D01*
X195464Y96006D01*
X195068Y95922D01*
X194670Y95848D01*
X194270Y95784D01*
X193869Y95729D01*
X193467Y95684D01*
X193063Y95650D01*
X192659Y95625D01*
X192255Y95610D01*
X191850Y95605D01*
X191445Y95610D01*
X191041Y95625D01*
X190637Y95650D01*
X190233Y95684D01*
X189831Y95729D01*
X189430Y95784D01*
X189030Y95848D01*
X188632Y95922D01*
X188236Y96006D01*
X187842Y96099D01*
X187451Y96203D01*
X187062Y96315D01*
X186676Y96438D01*
X186293Y96569D01*
X185914Y96710D01*
X185538Y96861D01*
X185166Y97020D01*
X184797Y97189D01*
X184434Y97366D01*
X184074Y97553D01*
X183720Y97748D01*
X183370Y97952D01*
X183025Y98164D01*
X182686Y98385D01*
X182352Y98614D01*
X182024Y98851D01*
X181702Y99096D01*
X181386Y99349D01*
X181076Y99610D01*
X180773Y99878D01*
X180476Y100154D01*
X180186Y100436D01*
X179904Y100726D01*
X179628Y101023D01*
X179360Y101326D01*
X179099Y101636D01*
X178846Y101952D01*
X178601Y102274D01*
X178364Y102602D01*
X178135Y102936D01*
X177914Y103275D01*
X177702Y103620D01*
X177498Y103970D01*
X177303Y104324D01*
X177116Y104684D01*
X176939Y105047D01*
X176770Y105416D01*
X176611Y105788D01*
X176460Y106164D01*
X176319Y106543D01*
X176188Y106926D01*
X176065Y107312D01*
X175953Y107701D01*
X175849Y108092D01*
X175756Y108486D01*
X175672Y108882D01*
X175598Y109280D01*
X175534Y109680D01*
X175479Y110081D01*
X175434Y110483D01*
X175400Y110887D01*
X175375Y111291D01*
X175360Y111695D01*
X175355Y112100D01*
D11*
X0Y0D02*
X1000000Y0D01*
X1000000Y1000000D01*
X0Y1000000D01*
X0Y0D01*
X65000Y949464D02*
X64924Y948396D01*
X64771Y947335D01*
X64543Y946288D01*
X64241Y945260D01*
X63867Y944256D01*
X63422Y943281D01*
X62908Y942341D01*
X62329Y941440D01*
X61687Y940582D01*
X60985Y939772D01*
X60228Y939015D01*
X59418Y938313D01*
X58560Y937671D01*
X57659Y937092D01*
X56719Y936578D01*
X55744Y936133D01*
X54740Y935759D01*
X53712Y935457D01*
X52665Y935229D01*
X51604Y935076D01*
X50536Y935000D01*
X49464Y935000D01*
X48396Y935076D01*
X47335Y935229D01*
X46288Y935457D01*
X45260Y935759D01*
X44256Y936133D01*
X43281Y936578D01*
X42341Y937092D01*
X41440Y937671D01*
X40582Y938313D01*
X39772Y939015D01*
X39015Y939772D01*
X38313Y940582D01*
X37671Y941440D01*
X37092Y942341D01*
X36578Y943281D01*
X36133Y944256D01*
X35759Y945260D01*
X35457Y946288D01*
X35229Y947335D01*
X35076Y948396D01*
X35000Y949464D01*
X35000Y950536D01*
X35076Y951604D01*
X35229Y952665D01*
X35457Y953712D01*
X35759Y954740D01*
X36133Y955744D01*
X36578Y956719D01*
X37092Y957659D01*
X37671Y958560D01*
X38313Y959418D01*
X39015Y960228D01*
X39772Y960985D01*
X40582Y961687D01*
X41440Y962329D01*
X42341Y962908D01*
X43281Y963422D01*
X44256Y963867D01*
X45260Y964241D01*
X46288Y964543D01*
X47335Y964771D01*
X48396Y964924D01*
X49464Y965000D01*
X50536Y965000D01*
X51604Y964924D01*
X52665Y964771D01*
X53712Y964543D01*
X54740Y964241D01*
X55744Y963867D01*
X56719Y963422D01*
X57659Y962908D01*
X58560Y962329D01*
X59418Y961687D01*
X60228Y960985D01*
X60985Y960228D01*
X61687Y959418D01*
X62329Y958560D01*
X62908Y957659D01*
X63422Y956719D01*
X63867Y955744D01*
X64241Y954740D01*
X64543Y953712D01*
X64771Y952665D01*
X64924Y951604D01*
X65000Y950536D01*
X65000Y949464D01*
X965000Y949464D02*
X964924Y948396D01*
X964771Y947335D01*
X964543Y946288D01*
X964241Y945260D01*
X963867Y944256D01*
X963422Y943281D01*
X962908Y942341D01*
X962329Y941440D01*
X961687Y940582D01*
X960985Y939772D01*
X960228Y939015D01*
X959418Y938313D01*
X958560Y937671D01*
X957659Y937092D01*
X956719Y936578D01*
X955744Y936133D01*
X954740Y935759D01*
X953712Y935457D01*
X952665Y935229D01*
X951604Y935076D01*
X950536Y935000D01*
X949464Y935000D01*
X948396Y935076D01*
X947335Y935229D01*
X946288Y935457D01*
X945260Y935759D01*
X944256Y936133D01*
X943281Y936578D01*
X942341Y937092D01*
X941440Y937671D01*
X940582Y938313D01*
X939772Y939015D01*
X939015Y939772D01*
X938313Y940582D01*
X937671Y941440D01*
X937092Y942341D01*
X936578Y943281D01*
X936133Y944256D01*
X935759Y945260D01*
X935457Y946288D01*
X935229Y947335D01*
X935076Y948396D01*
X935000Y949464D01*
X935000Y950536D01*
X935076Y951604D01*
X935229Y952665D01*
X935457Y953712D01*
X935759Y954740D01*
X936133Y955744D01*
X936578Y956719D01*
X937092Y957659D01*
X937671Y958560D01*
X938313Y959418D01*
X939015Y960228D01*
X939772Y960985D01*
X940582Y961687D01*
X941440Y962329D01*
X942341Y962908D01*
X943281Y963422D01*
X944256Y963867D01*
X945260Y964241D01*
X946288Y964543D01*
X947335Y964771D01*
X948396Y964924D01*
X949464Y965000D01*
X950536Y965000D01*
X951604Y964924D01*
X952665Y964771D01*
X953712Y964543D01*
X954740Y964241D01*
X955744Y963867D01*
X956719Y963422D01*
X957659Y962908D01*
X958560Y962329D01*
X959418Y961687D01*
X960228Y960985D01*
X960985Y960228D01*
X961687Y959418D01*
X962329Y958560D01*
X962908Y957659D01*
X963422Y956719D01*
X963867Y955744D01*
X964241Y954740D01*
X964543Y953712D01*
X964771Y952665D01*
X964924Y951604D01*
X965000Y950536D01*
X965000Y949464D01*
X965000Y49464D02*
X964924Y48396D01*
X964771Y47335D01*
X964543Y46288D01*
X964241Y45260D01*
X963867Y44256D01*
X963422Y43281D01*
X962908Y42341D01*
X962329Y41440D01*
X961687Y40582D01*
X960985Y39772D01*
X960228Y39015D01*
X959418Y38313D01*
X958560Y37671D01*
X957659Y37092D01*
X956719Y36578D01*
X955744Y36133D01*
X954740Y35759D01*
X953712Y35457D01*
X952665Y35229D01*
X951604Y35076D01*
X950536Y35000D01*
X949464Y35000D01*
X948396Y35076D01*
X947335Y35229D01*
X946288Y35457D01*
X945260Y35759D01*
X944256Y36133D01*
X943281Y36578D01*
X942341Y37092D01*
X941440Y37671D01*
X940582Y38313D01*
X939772Y39015D01*
X939015Y39772D01*
X938313Y40582D01*
X937671Y41440D01*
X937092Y42341D01*
X936578Y43281D01*
X936133Y44256D01*
X935759Y45260D01*
X935457Y46288D01*
X935229Y47335D01*
X935076Y48396D01*
X935000Y49464D01*
X935000Y50536D01*
X935076Y51604D01*
X935229Y52665D01*
X935457Y53712D01*
X935759Y54740D01*
X936133Y55744D01*
X936578Y56719D01*
X937092Y57659D01*
X937671Y58560D01*
X938313Y59418D01*
X939015Y60228D01*
X939772Y60985D01*
X940582Y61687D01*
X941440Y62329D01*
X942341Y62908D01*
X943281Y63422D01*
X944256Y63867D01*
X945260Y64241D01*
X946288Y64543D01*
X947335Y64771D01*
X948396Y64924D01*
X949464Y65000D01*
X950536Y65000D01*
X951604Y64924D01*
X952665Y64771D01*
X953712Y64543D01*
X954740Y64241D01*
X955744Y63867D01*
X956719Y63422D01*
X957659Y62908D01*
X958560Y62329D01*
X959418Y61687D01*
X960228Y60985D01*
X960985Y60228D01*
X961687Y59418D01*
X962329Y58560D01*
X962908Y57659D01*
X963422Y56719D01*
X963867Y55744D01*
X964241Y54740D01*
X964543Y53712D01*
X964771Y52665D01*
X964924Y51604D01*
X965000Y50536D01*
X965000Y49464D01*
X65000Y49464D02*
X64924Y48396D01*
X64771Y47335D01*
X64543Y46288D01*
X64241Y45260D01*
X63867Y44256D01*
X63422Y43281D01*
X62908Y42341D01*
X62329Y41440D01*
X61687Y40582D01*
X60985Y39772D01*
X60228Y39015D01*
X59418Y38313D01*
X58560Y37671D01*
X57659Y37092D01*
X56719Y36578D01*
X55744Y36133D01*
X54740Y35759D01*
X53712Y35457D01*
X52665Y35229D01*
X51604Y35076D01*
X50536Y35000D01*
X49464Y35000D01*
X48396Y35076D01*
X47335Y35229D01*
X46288Y35457D01*
X45260Y35759D01*
X44256Y36133D01*
X43281Y36578D01*
X42341Y37092D01*
X41440Y37671D01*
X40582Y38313D01*
X39772Y39015D01*
X39015Y39772D01*
X38313Y40582D01*
X37671Y41440D01*
X37092Y42341D01*
X36578Y43281D01*
X36133Y44256D01*
X35759Y45260D01*
X35457Y46288D01*
X35229Y47335D01*
X35076Y48396D01*
X35000Y49464D01*
X35000Y50536D01*
X35076Y51604D01*
X35229Y52665D01*
X35457Y53712D01*
X35759Y54740D01*
X36133Y55744D01*
X36578Y56719D01*
X37092Y57659D01*
X37671Y58560D01*
X38313Y59418D01*
X39015Y60228D01*
X39772Y60985D01*
X40582Y61687D01*
X41440Y62329D01*
X42341Y62908D01*
X43281Y63422D01*
X44256Y63867D01*
X45260Y64241D01*
X46288Y64543D01*
X47335Y64771D01*
X48396Y64924D01*
X49464Y65000D01*
X50536Y65000D01*
X51604Y64924D01*
X52665Y64771D01*
X53712Y64543D01*
X54740Y64241D01*
X55744Y63867D01*
X56719Y63422D01*
X57659Y62908D01*
X58560Y62329D01*
X59418Y61687D01*
X60228Y60985D01*
X60985Y60228D01*
X61687Y59418D01*
X62329Y58560D01*
X62908Y57659D01*
X63422Y56719D01*
X63867Y55744D01*
X64241Y54740D01*
X64543Y53712D01*
X64771Y52665D01*
X64924Y51604D01*
X65000Y50536D01*
X65000Y49464D01*
X322645Y111560D02*
X322574Y110482D01*
X322433Y109412D01*
X322223Y108352D01*
X321943Y107309D01*
X321596Y106287D01*
X321183Y105289D01*
X320705Y104320D01*
X320165Y103385D01*
X319565Y102487D01*
X318908Y101630D01*
X318196Y100818D01*
X317432Y100054D01*
X316620Y99342D01*
X315763Y98685D01*
X314865Y98085D01*
X313930Y97545D01*
X312961Y97067D01*
X311963Y96654D01*
X310941Y96307D01*
X309898Y96027D01*
X308838Y95817D01*
X307768Y95676D01*
X306690Y95605D01*
X305610Y95605D01*
X304532Y95676D01*
X303462Y95817D01*
X302402Y96027D01*
X301359Y96307D01*
X300337Y96654D01*
X299339Y97067D01*
X298370Y97545D01*
X297435Y98085D01*
X296537Y98685D01*
X295680Y99342D01*
X294868Y100054D01*
X294104Y100818D01*
X293392Y101630D01*
X292735Y102487D01*
X292135Y103385D01*
X291595Y104320D01*
X291117Y105289D01*
X290704Y106287D01*
X290357Y107309D01*
X290077Y108352D01*
X289867Y109412D01*
X289726Y110482D01*
X289655Y111560D01*
X289655Y112640D01*
X289726Y113718D01*
X289867Y114788D01*
X290077Y115848D01*
X290357Y116891D01*
X290704Y117913D01*
X291117Y118911D01*
X291595Y119880D01*
X292135Y120815D01*
X292735Y121713D01*
X293392Y122570D01*
X294104Y123382D01*
X294868Y124146D01*
X295680Y124858D01*
X296537Y125515D01*
X297435Y126115D01*
X298370Y126655D01*
X299339Y127133D01*
X300337Y127546D01*
X301359Y127893D01*
X302402Y128173D01*
X303462Y128383D01*
X304532Y128524D01*
X305610Y128595D01*
X306690Y128595D01*
X307768Y128524D01*
X308838Y128383D01*
X309898Y128173D01*
X310941Y127893D01*
X311963Y127546D01*
X312961Y127133D01*
X313930Y126655D01*
X314865Y126115D01*
X315763Y125515D01*
X316620Y124858D01*
X317432Y124146D01*
X318196Y123382D01*
X318908Y122570D01*
X319565Y121713D01*
X320165Y120815D01*
X320705Y119880D01*
X321183Y118911D01*
X321596Y117913D01*
X321943Y116891D01*
X322223Y115848D01*
X322433Y114788D01*
X322574Y113718D01*
X322645Y112640D01*
X322645Y111560D01*
X208345Y111560D02*
X208274Y110482D01*
X208133Y109412D01*
X207923Y108352D01*
X207643Y107309D01*
X207296Y106287D01*
X206883Y105289D01*
X206405Y104320D01*
X205865Y103385D01*
X205265Y102487D01*
X204608Y101630D01*
X203896Y100818D01*
X203132Y100054D01*
X202320Y99342D01*
X201463Y98685D01*
X200565Y98085D01*
X199630Y97545D01*
X198661Y97067D01*
X197663Y96654D01*
X196641Y96307D01*
X195598Y96027D01*
X194538Y95817D01*
X193468Y95676D01*
X192390Y95605D01*
X191310Y95605D01*
X190232Y95676D01*
X189162Y95817D01*
X188102Y96027D01*
X187059Y96307D01*
X186037Y96654D01*
X185039Y97067D01*
X184070Y97545D01*
X183135Y98085D01*
X182237Y98685D01*
X181380Y99342D01*
X180568Y100054D01*
X179804Y100818D01*
X179092Y101630D01*
X178435Y102487D01*
X177835Y103385D01*
X177295Y104320D01*
X176817Y105289D01*
X176404Y106287D01*
X176057Y107309D01*
X175777Y108352D01*
X175567Y109412D01*
X175426Y110482D01*
X175355Y111560D01*
X175355Y112640D01*
X175426Y113718D01*
X175567Y114788D01*
X175777Y115848D01*
X176057Y116891D01*
X176404Y117913D01*
X176817Y118911D01*
X177295Y119880D01*
X177835Y120815D01*
X178435Y121713D01*
X179092Y122570D01*
X179804Y123382D01*
X180568Y124146D01*
X181380Y124858D01*
X182237Y125515D01*
X183135Y126115D01*
X184070Y126655D01*
X185039Y127133D01*
X186037Y127546D01*
X187059Y127893D01*
X188102Y128173D01*
X189162Y128383D01*
X190232Y128524D01*
X191310Y128595D01*
X192390Y128595D01*
X193468Y128524D01*
X194538Y128383D01*
X195598Y128173D01*
X196641Y127893D01*
X197663Y127546D01*
X198661Y127133D01*
X199630Y126655D01*
X200565Y126115D01*
X201463Y125515D01*
X202320Y124858D01*
X203132Y124146D01*
X203896Y123382D01*
X204608Y122570D01*
X205265Y121713D01*
X205865Y120815D01*
X206405Y119880D01*
X206883Y118911D01*
X207296Y117913D01*
X207643Y116891D01*
X207923Y115848D01*
X208133Y114788D01*
X208274Y113718D01*
X208345Y112640D01*
X208345Y111560D01*
M02*
