G04 EAGLE Gerber RS-274X export*
G75*
%MOMM*%
%FSLAX34Y34*%
%LPD*%
%INSolderpaste Bottom*%
%IPPOS*%
%AMOC8*
5,1,8,0,0,1.08239X$1,22.5*%
G01*
%ADD10R,1.100000X3.000000*%
%ADD11R,0.863600X0.304800*%
%ADD12R,0.304800X0.863600*%
%ADD13R,0.800000X0.700000*%
%ADD14R,1.400000X1.600000*%
%ADD15R,0.700000X0.800000*%
%ADD16R,1.000000X1.100000*%
%ADD17R,1.500000X1.300000*%
%ADD18R,1.168400X0.457200*%
%ADD19C,0.500000*%


D10*
X771000Y44000D03*
X749000Y44000D03*
D11*
X321315Y264000D03*
X321315Y269000D03*
X321315Y274000D03*
X321315Y279000D03*
X321315Y284000D03*
X321315Y289000D03*
D12*
X328500Y296185D03*
X333500Y296185D03*
X338500Y296185D03*
X343500Y296185D03*
X348500Y296185D03*
X353500Y296185D03*
D11*
X360685Y289000D03*
X360685Y284000D03*
X360685Y279000D03*
X360685Y274000D03*
X360685Y269000D03*
X360685Y264000D03*
D12*
X353500Y256815D03*
X348500Y256815D03*
X343500Y256815D03*
X338500Y256815D03*
X333500Y256815D03*
X328500Y256815D03*
D13*
X315900Y45800D03*
X315900Y33800D03*
X184400Y42300D03*
X184400Y30300D03*
X242600Y87700D03*
X242600Y75700D03*
X255400Y87700D03*
X255400Y75700D03*
D14*
X196500Y331100D03*
X214500Y331100D03*
X214500Y307100D03*
X196500Y307100D03*
D15*
X248700Y308900D03*
X236700Y308900D03*
X249200Y332100D03*
X237200Y332100D03*
D13*
X327600Y348700D03*
X327600Y336700D03*
D16*
X262620Y259110D03*
X262620Y242110D03*
D13*
X277900Y261800D03*
X277900Y249800D03*
X288200Y261800D03*
X288200Y249800D03*
X301000Y261800D03*
X301000Y249800D03*
D17*
X239200Y238800D03*
X239200Y257800D03*
D13*
X359600Y336200D03*
X359600Y348200D03*
X349400Y336200D03*
X349400Y348200D03*
X338610Y336400D03*
X338610Y348400D03*
D16*
X412000Y304000D03*
X412000Y321000D03*
D13*
X401000Y306000D03*
X401000Y318000D03*
X370000Y318000D03*
X370000Y306000D03*
X381000Y318000D03*
X381000Y306000D03*
D15*
X400500Y249000D03*
X388500Y249000D03*
X407000Y280000D03*
X395000Y280000D03*
D13*
G36*
X740407Y654727D02*
X746063Y649071D01*
X741113Y644121D01*
X735457Y649777D01*
X740407Y654727D01*
G37*
G36*
X731922Y646242D02*
X737578Y640586D01*
X732628Y635636D01*
X726972Y641292D01*
X731922Y646242D01*
G37*
G36*
X775508Y603660D02*
X781164Y598004D01*
X776214Y593054D01*
X770558Y598710D01*
X775508Y603660D01*
G37*
G36*
X767023Y595175D02*
X772679Y589519D01*
X767729Y584569D01*
X762073Y590225D01*
X767023Y595175D01*
G37*
G36*
X679156Y691790D02*
X684812Y686134D01*
X679862Y681184D01*
X674206Y686840D01*
X679156Y691790D01*
G37*
G36*
X670671Y683305D02*
X676327Y677649D01*
X671377Y672699D01*
X665721Y678355D01*
X670671Y683305D01*
G37*
G36*
X428941Y577479D02*
X434597Y583135D01*
X439547Y578185D01*
X433891Y572529D01*
X428941Y577479D01*
G37*
G36*
X437426Y568994D02*
X443082Y574650D01*
X448032Y569700D01*
X442376Y564044D01*
X437426Y568994D01*
G37*
G36*
X777703Y482312D02*
X772047Y487968D01*
X776997Y492918D01*
X782653Y487262D01*
X777703Y482312D01*
G37*
G36*
X786189Y490798D02*
X780533Y496454D01*
X785483Y501404D01*
X791139Y495748D01*
X786189Y490798D01*
G37*
G36*
X732992Y662742D02*
X738648Y657086D01*
X733698Y652136D01*
X728042Y657792D01*
X732992Y662742D01*
G37*
G36*
X724507Y654257D02*
X730163Y648601D01*
X725213Y643651D01*
X719557Y649307D01*
X724507Y654257D01*
G37*
G36*
X478510Y678139D02*
X484166Y683795D01*
X489116Y678845D01*
X483460Y673189D01*
X478510Y678139D01*
G37*
G36*
X486995Y669654D02*
X492651Y675310D01*
X497601Y670360D01*
X491945Y664704D01*
X486995Y669654D01*
G37*
G36*
X538754Y693952D02*
X544410Y699608D01*
X549360Y694658D01*
X543704Y689002D01*
X538754Y693952D01*
G37*
G36*
X547240Y685467D02*
X552896Y691123D01*
X557846Y686173D01*
X552190Y680517D01*
X547240Y685467D01*
G37*
G36*
X479075Y633198D02*
X484731Y638854D01*
X489681Y633904D01*
X484025Y628248D01*
X479075Y633198D01*
G37*
G36*
X487560Y624713D02*
X493216Y630369D01*
X498166Y625419D01*
X492510Y619763D01*
X487560Y624713D01*
G37*
G36*
X501489Y652351D02*
X507145Y658007D01*
X512095Y653057D01*
X506439Y647401D01*
X501489Y652351D01*
G37*
G36*
X509974Y643865D02*
X515630Y649521D01*
X520580Y644571D01*
X514924Y638915D01*
X509974Y643865D01*
G37*
G36*
X558024Y377881D02*
X563680Y383537D01*
X568630Y378587D01*
X562974Y372931D01*
X558024Y377881D01*
G37*
G36*
X566510Y369396D02*
X572166Y375052D01*
X577116Y370102D01*
X571460Y364446D01*
X566510Y369396D01*
G37*
D15*
X64000Y385000D03*
X52000Y385000D03*
X64000Y462000D03*
X52000Y462000D03*
X64000Y424000D03*
X52000Y424000D03*
X40000Y385000D03*
X28000Y385000D03*
X40000Y462000D03*
X28000Y462000D03*
X40000Y424000D03*
X28000Y424000D03*
D18*
X24237Y397300D03*
X24237Y410300D03*
X41763Y403800D03*
X24237Y473600D03*
X24237Y486600D03*
X41763Y480100D03*
X24237Y435900D03*
X24237Y448900D03*
X41763Y442400D03*
D15*
X64000Y346000D03*
X52000Y346000D03*
X40000Y346000D03*
X28000Y346000D03*
D18*
X24237Y358800D03*
X24237Y371800D03*
X41763Y365300D03*
D15*
X64000Y193000D03*
X52000Y193000D03*
X64000Y270000D03*
X52000Y270000D03*
X64000Y232000D03*
X52000Y232000D03*
X40000Y193000D03*
X28000Y193000D03*
X40000Y270000D03*
X28000Y270000D03*
X40000Y232000D03*
X28000Y232000D03*
D18*
X24237Y205300D03*
X24237Y218300D03*
X41763Y211800D03*
X24237Y281600D03*
X24237Y294600D03*
X41763Y288100D03*
X24237Y243900D03*
X24237Y256900D03*
X41763Y250400D03*
D15*
X64000Y154000D03*
X52000Y154000D03*
X40000Y154000D03*
X28000Y154000D03*
D18*
X24237Y166800D03*
X24237Y179800D03*
X41763Y173300D03*
D15*
X935500Y405500D03*
X947500Y405500D03*
X935500Y328500D03*
X947500Y328500D03*
X935500Y366500D03*
X947500Y366500D03*
X959500Y405500D03*
X971500Y405500D03*
X959500Y328500D03*
X971500Y328500D03*
X959500Y366500D03*
X971500Y366500D03*
D18*
X975263Y393200D03*
X975263Y380200D03*
X957737Y386700D03*
X975263Y316900D03*
X975263Y303900D03*
X957737Y310400D03*
X975263Y354600D03*
X975263Y341600D03*
X957737Y348100D03*
D15*
X935500Y444500D03*
X947500Y444500D03*
X959500Y444500D03*
X971500Y444500D03*
D18*
X975263Y431700D03*
X975263Y418700D03*
X957737Y425200D03*
D15*
X935000Y573000D03*
X947000Y573000D03*
X935000Y496000D03*
X947000Y496000D03*
X935000Y534000D03*
X947000Y534000D03*
X959000Y573000D03*
X971000Y573000D03*
X959000Y496000D03*
X971000Y496000D03*
X959000Y534000D03*
X971000Y534000D03*
D18*
X974763Y560700D03*
X974763Y547700D03*
X957237Y554200D03*
X974763Y484400D03*
X974763Y471400D03*
X957237Y477900D03*
X974763Y522100D03*
X974763Y509100D03*
X957237Y515600D03*
D15*
X935000Y612000D03*
X947000Y612000D03*
X959000Y612000D03*
X971000Y612000D03*
D18*
X974763Y599200D03*
X974763Y586200D03*
X957237Y592700D03*
D19*
X714700Y281190D02*
X714700Y244690D01*
X714700Y281190D02*
X719700Y281190D01*
X719700Y244690D01*
X714700Y244690D01*
X714700Y249440D02*
X719700Y249440D01*
X719700Y254190D02*
X714700Y254190D01*
X714700Y258940D02*
X719700Y258940D01*
X719700Y263690D02*
X714700Y263690D01*
X714700Y268440D02*
X719700Y268440D01*
X719700Y273190D02*
X714700Y273190D01*
X714700Y277940D02*
X719700Y277940D01*
X714700Y225310D02*
X714700Y188810D01*
X714700Y225310D02*
X719700Y225310D01*
X719700Y188810D01*
X714700Y188810D01*
X714700Y193560D02*
X719700Y193560D01*
X719700Y198310D02*
X714700Y198310D01*
X714700Y203060D02*
X719700Y203060D01*
X719700Y207810D02*
X714700Y207810D01*
X714700Y212560D02*
X719700Y212560D01*
X719700Y217310D02*
X714700Y217310D01*
X714700Y222060D02*
X719700Y222060D01*
X740100Y244690D02*
X740100Y281190D01*
X745100Y281190D01*
X745100Y244690D01*
X740100Y244690D01*
X740100Y249440D02*
X745100Y249440D01*
X745100Y254190D02*
X740100Y254190D01*
X740100Y258940D02*
X745100Y258940D01*
X745100Y263690D02*
X740100Y263690D01*
X740100Y268440D02*
X745100Y268440D01*
X745100Y273190D02*
X740100Y273190D01*
X740100Y277940D02*
X745100Y277940D01*
X740100Y225310D02*
X740100Y188810D01*
X740100Y225310D02*
X745100Y225310D01*
X745100Y188810D01*
X740100Y188810D01*
X740100Y193560D02*
X745100Y193560D01*
X745100Y198310D02*
X740100Y198310D01*
X740100Y203060D02*
X745100Y203060D01*
X745100Y207810D02*
X740100Y207810D01*
X740100Y212560D02*
X745100Y212560D01*
X745100Y217310D02*
X740100Y217310D01*
X740100Y222060D02*
X745100Y222060D01*
X765500Y244690D02*
X765500Y281190D01*
X770500Y281190D01*
X770500Y244690D01*
X765500Y244690D01*
X765500Y249440D02*
X770500Y249440D01*
X770500Y254190D02*
X765500Y254190D01*
X765500Y258940D02*
X770500Y258940D01*
X770500Y263690D02*
X765500Y263690D01*
X765500Y268440D02*
X770500Y268440D01*
X770500Y273190D02*
X765500Y273190D01*
X765500Y277940D02*
X770500Y277940D01*
X765500Y225310D02*
X765500Y188810D01*
X765500Y225310D02*
X770500Y225310D01*
X770500Y188810D01*
X765500Y188810D01*
X765500Y193560D02*
X770500Y193560D01*
X770500Y198310D02*
X765500Y198310D01*
X765500Y203060D02*
X770500Y203060D01*
X770500Y207810D02*
X765500Y207810D01*
X765500Y212560D02*
X770500Y212560D01*
X770500Y217310D02*
X765500Y217310D01*
X765500Y222060D02*
X770500Y222060D01*
X790900Y244690D02*
X790900Y281190D01*
X795900Y281190D01*
X795900Y244690D01*
X790900Y244690D01*
X790900Y249440D02*
X795900Y249440D01*
X795900Y254190D02*
X790900Y254190D01*
X790900Y258940D02*
X795900Y258940D01*
X795900Y263690D02*
X790900Y263690D01*
X790900Y268440D02*
X795900Y268440D01*
X795900Y273190D02*
X790900Y273190D01*
X790900Y277940D02*
X795900Y277940D01*
X790900Y225310D02*
X790900Y188810D01*
X790900Y225310D02*
X795900Y225310D01*
X795900Y188810D01*
X790900Y188810D01*
X790900Y193560D02*
X795900Y193560D01*
X795900Y198310D02*
X790900Y198310D01*
X790900Y203060D02*
X795900Y203060D01*
X795900Y207810D02*
X790900Y207810D01*
X790900Y212560D02*
X795900Y212560D01*
X795900Y217310D02*
X790900Y217310D01*
X790900Y222060D02*
X795900Y222060D01*
X816300Y244690D02*
X816300Y281190D01*
X821300Y281190D01*
X821300Y244690D01*
X816300Y244690D01*
X816300Y249440D02*
X821300Y249440D01*
X821300Y254190D02*
X816300Y254190D01*
X816300Y258940D02*
X821300Y258940D01*
X821300Y263690D02*
X816300Y263690D01*
X816300Y268440D02*
X821300Y268440D01*
X821300Y273190D02*
X816300Y273190D01*
X816300Y277940D02*
X821300Y277940D01*
X816300Y225310D02*
X816300Y188810D01*
X816300Y225310D02*
X821300Y225310D01*
X821300Y188810D01*
X816300Y188810D01*
X816300Y193560D02*
X821300Y193560D01*
X821300Y198310D02*
X816300Y198310D01*
X816300Y203060D02*
X821300Y203060D01*
X821300Y207810D02*
X816300Y207810D01*
X816300Y212560D02*
X821300Y212560D01*
X821300Y217310D02*
X816300Y217310D01*
X816300Y222060D02*
X821300Y222060D01*
D13*
G36*
X749747Y376183D02*
X755403Y381839D01*
X760353Y376889D01*
X754697Y371233D01*
X749747Y376183D01*
G37*
G36*
X758233Y367697D02*
X763889Y373353D01*
X768839Y368403D01*
X763183Y362747D01*
X758233Y367697D01*
G37*
G36*
X757454Y383304D02*
X763110Y388960D01*
X768060Y384010D01*
X762404Y378354D01*
X757454Y383304D01*
G37*
G36*
X765940Y374819D02*
X771596Y380475D01*
X776546Y375525D01*
X770890Y369869D01*
X765940Y374819D01*
G37*
G36*
X764454Y390390D02*
X770110Y396046D01*
X775060Y391096D01*
X769404Y385440D01*
X764454Y390390D01*
G37*
G36*
X772940Y381904D02*
X778596Y387560D01*
X783546Y382610D01*
X777890Y376954D01*
X772940Y381904D01*
G37*
G36*
X771454Y397890D02*
X777110Y403546D01*
X782060Y398596D01*
X776404Y392940D01*
X771454Y397890D01*
G37*
G36*
X779940Y389404D02*
X785596Y395060D01*
X790546Y390110D01*
X784890Y384454D01*
X779940Y389404D01*
G37*
G36*
X778247Y404890D02*
X783903Y410546D01*
X788853Y405596D01*
X783197Y399940D01*
X778247Y404890D01*
G37*
G36*
X786733Y396404D02*
X792389Y402060D01*
X797339Y397110D01*
X791683Y391454D01*
X786733Y396404D01*
G37*
M02*
