G04 EAGLE Gerber RS-274X export*
G75*
%MOMM*%
%FSLAX34Y34*%
%LPD*%
%INSoldermask Bottom*%
%IPPOS*%
%AMOC8*
5,1,8,0,0,1.08239X$1,22.5*%
G01*
%ADD10C,3.203200*%
%ADD11R,1.303200X3.203200*%
%ADD12C,2.082800*%
%ADD13R,1.711200X1.711200*%
%ADD14C,1.711200*%
%ADD15C,3.502200*%
%ADD16C,2.453200*%
%ADD17R,1.066800X0.508000*%
%ADD18R,0.508000X1.066800*%
%ADD19R,2.946400X2.946400*%
%ADD20R,1.003200X0.903200*%
%ADD21R,1.603200X1.803200*%
%ADD22R,0.903200X1.003200*%
%ADD23R,1.203200X1.303200*%
%ADD24R,1.703200X1.503200*%
%ADD25R,1.371600X0.660400*%
%ADD26C,2.203200*%
%ADD27C,0.697853*%
%ADD28C,0.959600*%


D10*
X50000Y950000D03*
X950000Y950000D03*
X950000Y50000D03*
X50000Y50000D03*
D11*
X771000Y44000D03*
X749000Y44000D03*
D12*
X800000Y45000D03*
X800000Y70400D03*
X825400Y45000D03*
X825400Y70400D03*
X850800Y45000D03*
X850800Y70400D03*
X876200Y45000D03*
X876200Y70400D03*
X901600Y45000D03*
X901600Y70400D03*
D13*
X204500Y175600D03*
D14*
X217200Y201000D03*
X229900Y175600D03*
X242650Y201000D03*
X255350Y175600D03*
X268100Y201000D03*
X280700Y175600D03*
X293450Y201000D03*
D15*
X306150Y112100D03*
X191850Y112100D03*
D14*
X182700Y62200D03*
X208100Y62200D03*
X289900Y62200D03*
X315300Y62200D03*
D16*
X171500Y142600D03*
X326500Y142600D03*
D17*
X321315Y264000D03*
X321315Y269000D03*
X321315Y274000D03*
X321315Y279000D03*
X321315Y284000D03*
X321315Y289000D03*
D18*
X328500Y296185D03*
X333500Y296185D03*
X338500Y296185D03*
X343500Y296185D03*
X348500Y296185D03*
X353500Y296185D03*
D17*
X360685Y289000D03*
X360685Y284000D03*
X360685Y279000D03*
X360685Y274000D03*
X360685Y269000D03*
X360685Y264000D03*
D18*
X353500Y256815D03*
X348500Y256815D03*
X343500Y256815D03*
X338500Y256815D03*
X333500Y256815D03*
X328500Y256815D03*
D19*
X341000Y276500D03*
D20*
X315900Y45800D03*
X315900Y33800D03*
X184400Y42300D03*
X184400Y30300D03*
X242600Y87700D03*
X242600Y75700D03*
X255400Y87700D03*
X255400Y75700D03*
D21*
X196500Y331100D03*
X214500Y331100D03*
X214500Y307100D03*
X196500Y307100D03*
D22*
X248700Y308900D03*
X236700Y308900D03*
X249200Y332100D03*
X237200Y332100D03*
D20*
X327600Y348700D03*
X327600Y336700D03*
D23*
X262620Y259110D03*
X262620Y242110D03*
D20*
X277900Y261800D03*
X277900Y249800D03*
X288200Y261800D03*
X288200Y249800D03*
X301000Y261800D03*
X301000Y249800D03*
D24*
X239200Y238800D03*
X239200Y257800D03*
D20*
X359600Y336200D03*
X359600Y348200D03*
X349400Y336200D03*
X349400Y348200D03*
X338610Y336400D03*
X338610Y348400D03*
D23*
X412000Y304000D03*
X412000Y321000D03*
D20*
X401000Y306000D03*
X401000Y318000D03*
X370000Y318000D03*
X370000Y306000D03*
X381000Y318000D03*
X381000Y306000D03*
D22*
X400500Y249000D03*
X388500Y249000D03*
X407000Y280000D03*
X395000Y280000D03*
D10*
X552659Y105000D03*
X421341Y105000D03*
D20*
G36*
X740407Y656164D02*
X747500Y649071D01*
X741113Y642684D01*
X734020Y649777D01*
X740407Y656164D01*
G37*
G36*
X731922Y647679D02*
X739015Y640586D01*
X732628Y634199D01*
X725535Y641292D01*
X731922Y647679D01*
G37*
G36*
X775508Y605097D02*
X782601Y598004D01*
X776214Y591617D01*
X769121Y598710D01*
X775508Y605097D01*
G37*
G36*
X767023Y596612D02*
X774116Y589519D01*
X767729Y583132D01*
X760636Y590225D01*
X767023Y596612D01*
G37*
G36*
X679156Y693227D02*
X686249Y686134D01*
X679862Y679747D01*
X672769Y686840D01*
X679156Y693227D01*
G37*
G36*
X670671Y684742D02*
X677764Y677649D01*
X671377Y671262D01*
X664284Y678355D01*
X670671Y684742D01*
G37*
G36*
X427504Y577479D02*
X434597Y584572D01*
X440984Y578185D01*
X433891Y571092D01*
X427504Y577479D01*
G37*
G36*
X435989Y568994D02*
X443082Y576087D01*
X449469Y569700D01*
X442376Y562607D01*
X435989Y568994D01*
G37*
G36*
X777703Y480875D02*
X770610Y487968D01*
X776997Y494355D01*
X784090Y487262D01*
X777703Y480875D01*
G37*
G36*
X786189Y489361D02*
X779096Y496454D01*
X785483Y502841D01*
X792576Y495748D01*
X786189Y489361D01*
G37*
G36*
X732992Y664179D02*
X740085Y657086D01*
X733698Y650699D01*
X726605Y657792D01*
X732992Y664179D01*
G37*
G36*
X724507Y655694D02*
X731600Y648601D01*
X725213Y642214D01*
X718120Y649307D01*
X724507Y655694D01*
G37*
G36*
X477073Y678139D02*
X484166Y685232D01*
X490553Y678845D01*
X483460Y671752D01*
X477073Y678139D01*
G37*
G36*
X485558Y669654D02*
X492651Y676747D01*
X499038Y670360D01*
X491945Y663267D01*
X485558Y669654D01*
G37*
G36*
X537317Y693952D02*
X544410Y701045D01*
X550797Y694658D01*
X543704Y687565D01*
X537317Y693952D01*
G37*
G36*
X545803Y685467D02*
X552896Y692560D01*
X559283Y686173D01*
X552190Y679080D01*
X545803Y685467D01*
G37*
G36*
X477638Y633198D02*
X484731Y640291D01*
X491118Y633904D01*
X484025Y626811D01*
X477638Y633198D01*
G37*
G36*
X486123Y624713D02*
X493216Y631806D01*
X499603Y625419D01*
X492510Y618326D01*
X486123Y624713D01*
G37*
G36*
X500052Y652351D02*
X507145Y659444D01*
X513532Y653057D01*
X506439Y645964D01*
X500052Y652351D01*
G37*
G36*
X508537Y643865D02*
X515630Y650958D01*
X522017Y644571D01*
X514924Y637478D01*
X508537Y643865D01*
G37*
D12*
X930000Y902000D03*
X955400Y902000D03*
X930000Y876600D03*
X955400Y876600D03*
X930000Y851200D03*
X955400Y851200D03*
X930000Y825800D03*
X955400Y825800D03*
X930000Y800400D03*
X955400Y800400D03*
D20*
G36*
X556587Y377881D02*
X563680Y384974D01*
X570067Y378587D01*
X562974Y371494D01*
X556587Y377881D01*
G37*
G36*
X565073Y369396D02*
X572166Y376489D01*
X578553Y370102D01*
X571460Y363009D01*
X565073Y369396D01*
G37*
D14*
X363700Y907300D03*
X363700Y932700D03*
X389100Y907300D03*
X389100Y932700D03*
X414500Y907300D03*
X414500Y932700D03*
X439900Y907300D03*
X439900Y932700D03*
X465300Y907300D03*
X465300Y932700D03*
X490700Y907300D03*
X490700Y932700D03*
X516100Y907300D03*
X516100Y932700D03*
X541500Y907300D03*
X541500Y932700D03*
X566900Y907300D03*
X566900Y932700D03*
X592300Y907300D03*
X592300Y932700D03*
X617700Y907300D03*
X617700Y932700D03*
X643100Y907300D03*
X643100Y932700D03*
X668500Y907300D03*
X668500Y932700D03*
X693900Y907300D03*
X693900Y932700D03*
X719300Y907300D03*
X719300Y932700D03*
X744700Y907300D03*
X744700Y932700D03*
X770100Y907300D03*
X770100Y932700D03*
X795500Y907300D03*
X795500Y932700D03*
X820900Y907300D03*
X820900Y932700D03*
X846300Y907300D03*
X846300Y932700D03*
D22*
X64000Y385000D03*
X52000Y385000D03*
X64000Y462000D03*
X52000Y462000D03*
X64000Y424000D03*
X52000Y424000D03*
X40000Y385000D03*
X28000Y385000D03*
X40000Y462000D03*
X28000Y462000D03*
X40000Y424000D03*
X28000Y424000D03*
D25*
X24237Y397300D03*
X24237Y410300D03*
X41763Y403800D03*
X24237Y473600D03*
X24237Y486600D03*
X41763Y480100D03*
X24237Y435900D03*
X24237Y448900D03*
X41763Y442400D03*
D22*
X64000Y346000D03*
X52000Y346000D03*
X40000Y346000D03*
X28000Y346000D03*
D25*
X24237Y358800D03*
X24237Y371800D03*
X41763Y365300D03*
D26*
X71000Y480000D02*
X91000Y480000D01*
X91000Y441900D02*
X71000Y441900D01*
X71000Y403800D02*
X91000Y403800D01*
X91000Y365700D02*
X71000Y365700D01*
D22*
X64000Y193000D03*
X52000Y193000D03*
X64000Y270000D03*
X52000Y270000D03*
X64000Y232000D03*
X52000Y232000D03*
X40000Y193000D03*
X28000Y193000D03*
X40000Y270000D03*
X28000Y270000D03*
X40000Y232000D03*
X28000Y232000D03*
D25*
X24237Y205300D03*
X24237Y218300D03*
X41763Y211800D03*
X24237Y281600D03*
X24237Y294600D03*
X41763Y288100D03*
X24237Y243900D03*
X24237Y256900D03*
X41763Y250400D03*
D22*
X64000Y154000D03*
X52000Y154000D03*
X40000Y154000D03*
X28000Y154000D03*
D25*
X24237Y166800D03*
X24237Y179800D03*
X41763Y173300D03*
D26*
X71000Y288000D02*
X91000Y288000D01*
X91000Y249900D02*
X71000Y249900D01*
X71000Y211800D02*
X91000Y211800D01*
X91000Y173700D02*
X71000Y173700D01*
X908500Y142000D02*
X928500Y142000D01*
X928500Y180100D02*
X908500Y180100D01*
X908500Y218200D02*
X928500Y218200D01*
X928500Y256300D02*
X908500Y256300D01*
D22*
X935500Y405500D03*
X947500Y405500D03*
X935500Y328500D03*
X947500Y328500D03*
X935500Y366500D03*
X947500Y366500D03*
X959500Y405500D03*
X971500Y405500D03*
X959500Y328500D03*
X971500Y328500D03*
X959500Y366500D03*
X971500Y366500D03*
D25*
X975263Y393200D03*
X975263Y380200D03*
X957737Y386700D03*
X975263Y316900D03*
X975263Y303900D03*
X957737Y310400D03*
X975263Y354600D03*
X975263Y341600D03*
X957737Y348100D03*
D22*
X935500Y444500D03*
X947500Y444500D03*
X959500Y444500D03*
X971500Y444500D03*
D25*
X975263Y431700D03*
X975263Y418700D03*
X957737Y425200D03*
D26*
X928500Y310500D02*
X908500Y310500D01*
X908500Y348600D02*
X928500Y348600D01*
X928500Y386700D02*
X908500Y386700D01*
X908500Y424800D02*
X928500Y424800D01*
D22*
X935000Y573000D03*
X947000Y573000D03*
X935000Y496000D03*
X947000Y496000D03*
X935000Y534000D03*
X947000Y534000D03*
X959000Y573000D03*
X971000Y573000D03*
X959000Y496000D03*
X971000Y496000D03*
X959000Y534000D03*
X971000Y534000D03*
D25*
X974763Y560700D03*
X974763Y547700D03*
X957237Y554200D03*
X974763Y484400D03*
X974763Y471400D03*
X957237Y477900D03*
X974763Y522100D03*
X974763Y509100D03*
X957237Y515600D03*
D22*
X935000Y612000D03*
X947000Y612000D03*
X959000Y612000D03*
X971000Y612000D03*
D25*
X974763Y599200D03*
X974763Y586200D03*
X957237Y592700D03*
D26*
X928000Y478000D02*
X908000Y478000D01*
X908000Y516100D02*
X928000Y516100D01*
X928000Y554200D02*
X908000Y554200D01*
X908000Y592300D02*
X928000Y592300D01*
D12*
X930000Y752000D03*
X955400Y752000D03*
X930000Y726600D03*
X955400Y726600D03*
X930000Y701200D03*
X955400Y701200D03*
X930000Y675800D03*
X955400Y675800D03*
X930000Y650400D03*
X955400Y650400D03*
X50000Y700000D03*
X75400Y700000D03*
X50000Y674600D03*
X75400Y674600D03*
X50000Y649200D03*
X75400Y649200D03*
X50000Y623800D03*
X75400Y623800D03*
X50000Y598400D03*
X75400Y598400D03*
X50000Y900000D03*
X75400Y900000D03*
X50000Y874600D03*
X75400Y874600D03*
X50000Y849200D03*
X75400Y849200D03*
X50000Y823800D03*
X75400Y823800D03*
X50000Y798400D03*
X75400Y798400D03*
D27*
X714673Y281217D02*
X714673Y244663D01*
X714673Y281217D02*
X719727Y281217D01*
X719727Y244663D01*
X714673Y244663D01*
X714673Y251293D02*
X719727Y251293D01*
X719727Y257923D02*
X714673Y257923D01*
X714673Y264553D02*
X719727Y264553D01*
X719727Y271183D02*
X714673Y271183D01*
X714673Y277813D02*
X719727Y277813D01*
X714673Y225337D02*
X714673Y188783D01*
X714673Y225337D02*
X719727Y225337D01*
X719727Y188783D01*
X714673Y188783D01*
X714673Y195413D02*
X719727Y195413D01*
X719727Y202043D02*
X714673Y202043D01*
X714673Y208673D02*
X719727Y208673D01*
X719727Y215303D02*
X714673Y215303D01*
X714673Y221933D02*
X719727Y221933D01*
X740073Y244663D02*
X740073Y281217D01*
X745127Y281217D01*
X745127Y244663D01*
X740073Y244663D01*
X740073Y251293D02*
X745127Y251293D01*
X745127Y257923D02*
X740073Y257923D01*
X740073Y264553D02*
X745127Y264553D01*
X745127Y271183D02*
X740073Y271183D01*
X740073Y277813D02*
X745127Y277813D01*
X740073Y225337D02*
X740073Y188783D01*
X740073Y225337D02*
X745127Y225337D01*
X745127Y188783D01*
X740073Y188783D01*
X740073Y195413D02*
X745127Y195413D01*
X745127Y202043D02*
X740073Y202043D01*
X740073Y208673D02*
X745127Y208673D01*
X745127Y215303D02*
X740073Y215303D01*
X740073Y221933D02*
X745127Y221933D01*
X765473Y244663D02*
X765473Y281217D01*
X770527Y281217D01*
X770527Y244663D01*
X765473Y244663D01*
X765473Y251293D02*
X770527Y251293D01*
X770527Y257923D02*
X765473Y257923D01*
X765473Y264553D02*
X770527Y264553D01*
X770527Y271183D02*
X765473Y271183D01*
X765473Y277813D02*
X770527Y277813D01*
X765473Y225337D02*
X765473Y188783D01*
X765473Y225337D02*
X770527Y225337D01*
X770527Y188783D01*
X765473Y188783D01*
X765473Y195413D02*
X770527Y195413D01*
X770527Y202043D02*
X765473Y202043D01*
X765473Y208673D02*
X770527Y208673D01*
X770527Y215303D02*
X765473Y215303D01*
X765473Y221933D02*
X770527Y221933D01*
X790873Y244663D02*
X790873Y281217D01*
X795927Y281217D01*
X795927Y244663D01*
X790873Y244663D01*
X790873Y251293D02*
X795927Y251293D01*
X795927Y257923D02*
X790873Y257923D01*
X790873Y264553D02*
X795927Y264553D01*
X795927Y271183D02*
X790873Y271183D01*
X790873Y277813D02*
X795927Y277813D01*
X790873Y225337D02*
X790873Y188783D01*
X790873Y225337D02*
X795927Y225337D01*
X795927Y188783D01*
X790873Y188783D01*
X790873Y195413D02*
X795927Y195413D01*
X795927Y202043D02*
X790873Y202043D01*
X790873Y208673D02*
X795927Y208673D01*
X795927Y215303D02*
X790873Y215303D01*
X790873Y221933D02*
X795927Y221933D01*
X816273Y244663D02*
X816273Y281217D01*
X821327Y281217D01*
X821327Y244663D01*
X816273Y244663D01*
X816273Y251293D02*
X821327Y251293D01*
X821327Y257923D02*
X816273Y257923D01*
X816273Y264553D02*
X821327Y264553D01*
X821327Y271183D02*
X816273Y271183D01*
X816273Y277813D02*
X821327Y277813D01*
X816273Y225337D02*
X816273Y188783D01*
X816273Y225337D02*
X821327Y225337D01*
X821327Y188783D01*
X816273Y188783D01*
X816273Y195413D02*
X821327Y195413D01*
X821327Y202043D02*
X816273Y202043D01*
X816273Y208673D02*
X821327Y208673D01*
X821327Y215303D02*
X816273Y215303D01*
X816273Y221933D02*
X821327Y221933D01*
D20*
G36*
X748310Y376183D02*
X755403Y383276D01*
X761790Y376889D01*
X754697Y369796D01*
X748310Y376183D01*
G37*
G36*
X756796Y367697D02*
X763889Y374790D01*
X770276Y368403D01*
X763183Y361310D01*
X756796Y367697D01*
G37*
G36*
X756017Y383304D02*
X763110Y390397D01*
X769497Y384010D01*
X762404Y376917D01*
X756017Y383304D01*
G37*
G36*
X764503Y374819D02*
X771596Y381912D01*
X777983Y375525D01*
X770890Y368432D01*
X764503Y374819D01*
G37*
G36*
X763017Y390390D02*
X770110Y397483D01*
X776497Y391096D01*
X769404Y384003D01*
X763017Y390390D01*
G37*
G36*
X771503Y381904D02*
X778596Y388997D01*
X784983Y382610D01*
X777890Y375517D01*
X771503Y381904D01*
G37*
G36*
X770017Y397890D02*
X777110Y404983D01*
X783497Y398596D01*
X776404Y391503D01*
X770017Y397890D01*
G37*
G36*
X778503Y389404D02*
X785596Y396497D01*
X791983Y390110D01*
X784890Y383017D01*
X778503Y389404D01*
G37*
G36*
X776810Y404890D02*
X783903Y411983D01*
X790290Y405596D01*
X783197Y398503D01*
X776810Y404890D01*
G37*
G36*
X785296Y396404D02*
X792389Y403497D01*
X798776Y397110D01*
X791683Y390017D01*
X785296Y396404D01*
G37*
D28*
X150000Y512000D03*
X283000Y235500D03*
X323000Y195500D03*
X273000Y301500D03*
X338000Y85500D03*
X162000Y88500D03*
X176000Y284500D03*
X351000Y205000D03*
X464000Y179000D03*
X450000Y355000D03*
X436081Y518172D03*
X625000Y323000D03*
X720000Y377000D03*
X686000Y803000D03*
X684000Y704000D03*
X547000Y758000D03*
X604000Y691000D03*
X625000Y392000D03*
X799000Y520000D03*
X202000Y414000D03*
X259000Y563000D03*
X810000Y113000D03*
X454000Y409000D03*
X277000Y959000D03*
X760000Y347000D03*
X680000Y315000D03*
X791000Y613000D03*
X750000Y678000D03*
X770000Y122000D03*
X240000Y226500D03*
X350300Y185700D03*
X690350Y392650D03*
X767224Y478776D03*
X754000Y576000D03*
X709500Y623500D03*
X663000Y671000D03*
X559000Y680000D03*
X524000Y635912D03*
X501000Y618000D03*
X450000Y563000D03*
X516000Y409000D03*
X549000Y379000D03*
X649350Y340650D03*
X405000Y976000D03*
X730844Y352422D03*
X64000Y556000D03*
X255000Y957000D03*
X407500Y291000D03*
X401000Y259000D03*
X382000Y340000D03*
X403000Y357000D03*
X389000Y356924D03*
X384000Y330000D03*
X393500Y267004D03*
X355000Y229500D03*
X351000Y218500D03*
X362000Y238000D03*
X358000Y394000D03*
X377088Y365000D03*
X349400Y326500D03*
X347000Y383000D03*
X360000Y368000D03*
X359500Y326600D03*
X338000Y390000D03*
X370000Y372000D03*
X472000Y637000D03*
X374324Y250500D03*
X296000Y463000D03*
X321000Y239500D03*
X414128Y596128D03*
X286000Y462000D03*
X435000Y150000D03*
X445476Y417976D03*
X463194Y223000D03*
X617000Y223000D03*
X536000Y223000D03*
X757000Y452000D03*
X408000Y222500D03*
X734000Y112000D03*
X794000Y130400D03*
X715000Y15000D03*
X229000Y899000D03*
X194250Y901000D03*
X311000Y960000D03*
X314000Y919000D03*
X784200Y556576D03*
X791100Y549800D03*
X744068Y381468D03*
X719000Y642000D03*
X827000Y520000D03*
X786700Y541600D03*
X500000Y660000D03*
X543500Y275500D03*
X99000Y662000D03*
X99000Y624000D03*
X103000Y799000D03*
X904000Y752000D03*
X100000Y597000D03*
X103000Y783000D03*
X442000Y681000D03*
X103000Y811000D03*
X99000Y674000D03*
X99000Y686000D03*
X100000Y700000D03*
X103000Y823000D03*
X103000Y837000D03*
X103000Y849000D03*
X435150Y670850D03*
X909000Y675000D03*
X908000Y687000D03*
X908000Y700000D03*
X907000Y712000D03*
X100000Y611000D03*
X100000Y636000D03*
X99500Y649500D03*
X506000Y734000D03*
X500000Y743000D03*
X895000Y367000D03*
X890000Y328000D03*
X893000Y444500D03*
X896000Y496000D03*
X893500Y405500D03*
X895000Y573000D03*
X899000Y612000D03*
X894000Y534000D03*
X905000Y739000D03*
X100000Y582000D03*
X402000Y476000D03*
X591000Y276000D03*
X624000Y275000D03*
X652500Y142500D03*
X888000Y142000D03*
X544000Y336912D03*
X543813Y325687D03*
X543424Y315376D03*
X544500Y305500D03*
X544688Y295673D03*
X543924Y285376D03*
X624000Y287000D03*
X650000Y180000D03*
X890000Y180100D03*
X906000Y725000D03*
X907000Y633000D03*
X910000Y660000D03*
X477155Y448345D03*
X720500Y311500D03*
X649500Y218000D03*
X889000Y218200D03*
X730500Y311500D03*
X656588Y255924D03*
X890000Y256300D03*
X799000Y390000D03*
X775000Y361000D03*
X780504Y368500D03*
X786000Y376000D03*
X793000Y383000D03*
X327000Y847000D03*
X261876Y855424D03*
X340000Y861000D03*
X347000Y939000D03*
X335000Y870000D03*
X336000Y935000D03*
X321000Y857000D03*
X291000Y856000D03*
M02*
