G04 EAGLE Gerber RS-274X export*
G75*
%MOMM*%
%FSLAX34Y34*%
%LPD*%
%IN*%
%IPPOS*%
%AMOC8*
5,1,8,0,0,1.08239X$1,22.5*%
G01*
%ADD10C,0.101600*%
%ADD11C,0.000000*%
%ADD12C,0.254000*%


D10*
X-150000Y-60000D02*
X-150000Y980000D01*
X750000Y980000D01*
X750000Y-60000D01*
X-150000Y-60000D01*
X-10000Y930000D02*
X610000Y930000D01*
X610000Y-10000D01*
X-10000Y-10000D01*
X-10000Y930000D01*
D11*
X-65000Y30000D02*
X-64995Y30368D01*
X-64982Y30736D01*
X-64959Y31103D01*
X-64928Y31470D01*
X-64887Y31836D01*
X-64838Y32201D01*
X-64779Y32564D01*
X-64712Y32926D01*
X-64636Y33287D01*
X-64550Y33645D01*
X-64457Y34001D01*
X-64354Y34354D01*
X-64243Y34705D01*
X-64123Y35053D01*
X-63995Y35398D01*
X-63858Y35740D01*
X-63713Y36079D01*
X-63560Y36413D01*
X-63398Y36744D01*
X-63229Y37071D01*
X-63051Y37393D01*
X-62866Y37712D01*
X-62673Y38025D01*
X-62472Y38334D01*
X-62264Y38637D01*
X-62048Y38935D01*
X-61825Y39228D01*
X-61595Y39516D01*
X-61358Y39798D01*
X-61114Y40073D01*
X-60864Y40343D01*
X-60607Y40607D01*
X-60343Y40864D01*
X-60073Y41114D01*
X-59798Y41358D01*
X-59516Y41595D01*
X-59228Y41825D01*
X-58935Y42048D01*
X-58637Y42264D01*
X-58334Y42472D01*
X-58025Y42673D01*
X-57712Y42866D01*
X-57393Y43051D01*
X-57071Y43229D01*
X-56744Y43398D01*
X-56413Y43560D01*
X-56079Y43713D01*
X-55740Y43858D01*
X-55398Y43995D01*
X-55053Y44123D01*
X-54705Y44243D01*
X-54354Y44354D01*
X-54001Y44457D01*
X-53645Y44550D01*
X-53287Y44636D01*
X-52926Y44712D01*
X-52564Y44779D01*
X-52201Y44838D01*
X-51836Y44887D01*
X-51470Y44928D01*
X-51103Y44959D01*
X-50736Y44982D01*
X-50368Y44995D01*
X-50000Y45000D01*
X-49632Y44995D01*
X-49264Y44982D01*
X-48897Y44959D01*
X-48530Y44928D01*
X-48164Y44887D01*
X-47799Y44838D01*
X-47436Y44779D01*
X-47074Y44712D01*
X-46713Y44636D01*
X-46355Y44550D01*
X-45999Y44457D01*
X-45646Y44354D01*
X-45295Y44243D01*
X-44947Y44123D01*
X-44602Y43995D01*
X-44260Y43858D01*
X-43921Y43713D01*
X-43587Y43560D01*
X-43256Y43398D01*
X-42929Y43229D01*
X-42607Y43051D01*
X-42288Y42866D01*
X-41975Y42673D01*
X-41666Y42472D01*
X-41363Y42264D01*
X-41065Y42048D01*
X-40772Y41825D01*
X-40484Y41595D01*
X-40202Y41358D01*
X-39927Y41114D01*
X-39657Y40864D01*
X-39393Y40607D01*
X-39136Y40343D01*
X-38886Y40073D01*
X-38642Y39798D01*
X-38405Y39516D01*
X-38175Y39228D01*
X-37952Y38935D01*
X-37736Y38637D01*
X-37528Y38334D01*
X-37327Y38025D01*
X-37134Y37712D01*
X-36949Y37393D01*
X-36771Y37071D01*
X-36602Y36744D01*
X-36440Y36413D01*
X-36287Y36079D01*
X-36142Y35740D01*
X-36005Y35398D01*
X-35877Y35053D01*
X-35757Y34705D01*
X-35646Y34354D01*
X-35543Y34001D01*
X-35450Y33645D01*
X-35364Y33287D01*
X-35288Y32926D01*
X-35221Y32564D01*
X-35162Y32201D01*
X-35113Y31836D01*
X-35072Y31470D01*
X-35041Y31103D01*
X-35018Y30736D01*
X-35005Y30368D01*
X-35000Y30000D01*
X-35005Y29632D01*
X-35018Y29264D01*
X-35041Y28897D01*
X-35072Y28530D01*
X-35113Y28164D01*
X-35162Y27799D01*
X-35221Y27436D01*
X-35288Y27074D01*
X-35364Y26713D01*
X-35450Y26355D01*
X-35543Y25999D01*
X-35646Y25646D01*
X-35757Y25295D01*
X-35877Y24947D01*
X-36005Y24602D01*
X-36142Y24260D01*
X-36287Y23921D01*
X-36440Y23587D01*
X-36602Y23256D01*
X-36771Y22929D01*
X-36949Y22607D01*
X-37134Y22288D01*
X-37327Y21975D01*
X-37528Y21666D01*
X-37736Y21363D01*
X-37952Y21065D01*
X-38175Y20772D01*
X-38405Y20484D01*
X-38642Y20202D01*
X-38886Y19927D01*
X-39136Y19657D01*
X-39393Y19393D01*
X-39657Y19136D01*
X-39927Y18886D01*
X-40202Y18642D01*
X-40484Y18405D01*
X-40772Y18175D01*
X-41065Y17952D01*
X-41363Y17736D01*
X-41666Y17528D01*
X-41975Y17327D01*
X-42288Y17134D01*
X-42607Y16949D01*
X-42929Y16771D01*
X-43256Y16602D01*
X-43587Y16440D01*
X-43921Y16287D01*
X-44260Y16142D01*
X-44602Y16005D01*
X-44947Y15877D01*
X-45295Y15757D01*
X-45646Y15646D01*
X-45999Y15543D01*
X-46355Y15450D01*
X-46713Y15364D01*
X-47074Y15288D01*
X-47436Y15221D01*
X-47799Y15162D01*
X-48164Y15113D01*
X-48530Y15072D01*
X-48897Y15041D01*
X-49264Y15018D01*
X-49632Y15005D01*
X-50000Y15000D01*
X-50368Y15005D01*
X-50736Y15018D01*
X-51103Y15041D01*
X-51470Y15072D01*
X-51836Y15113D01*
X-52201Y15162D01*
X-52564Y15221D01*
X-52926Y15288D01*
X-53287Y15364D01*
X-53645Y15450D01*
X-54001Y15543D01*
X-54354Y15646D01*
X-54705Y15757D01*
X-55053Y15877D01*
X-55398Y16005D01*
X-55740Y16142D01*
X-56079Y16287D01*
X-56413Y16440D01*
X-56744Y16602D01*
X-57071Y16771D01*
X-57393Y16949D01*
X-57712Y17134D01*
X-58025Y17327D01*
X-58334Y17528D01*
X-58637Y17736D01*
X-58935Y17952D01*
X-59228Y18175D01*
X-59516Y18405D01*
X-59798Y18642D01*
X-60073Y18886D01*
X-60343Y19136D01*
X-60607Y19393D01*
X-60864Y19657D01*
X-61114Y19927D01*
X-61358Y20202D01*
X-61595Y20484D01*
X-61825Y20772D01*
X-62048Y21065D01*
X-62264Y21363D01*
X-62472Y21666D01*
X-62673Y21975D01*
X-62866Y22288D01*
X-63051Y22607D01*
X-63229Y22929D01*
X-63398Y23256D01*
X-63560Y23587D01*
X-63713Y23921D01*
X-63858Y24260D01*
X-63995Y24602D01*
X-64123Y24947D01*
X-64243Y25295D01*
X-64354Y25646D01*
X-64457Y25999D01*
X-64550Y26355D01*
X-64636Y26713D01*
X-64712Y27074D01*
X-64779Y27436D01*
X-64838Y27799D01*
X-64887Y28164D01*
X-64928Y28530D01*
X-64959Y28897D01*
X-64982Y29264D01*
X-64995Y29632D01*
X-65000Y30000D01*
X635000Y30000D02*
X635005Y30368D01*
X635018Y30736D01*
X635041Y31103D01*
X635072Y31470D01*
X635113Y31836D01*
X635162Y32201D01*
X635221Y32564D01*
X635288Y32926D01*
X635364Y33287D01*
X635450Y33645D01*
X635543Y34001D01*
X635646Y34354D01*
X635757Y34705D01*
X635877Y35053D01*
X636005Y35398D01*
X636142Y35740D01*
X636287Y36079D01*
X636440Y36413D01*
X636602Y36744D01*
X636771Y37071D01*
X636949Y37393D01*
X637134Y37712D01*
X637327Y38025D01*
X637528Y38334D01*
X637736Y38637D01*
X637952Y38935D01*
X638175Y39228D01*
X638405Y39516D01*
X638642Y39798D01*
X638886Y40073D01*
X639136Y40343D01*
X639393Y40607D01*
X639657Y40864D01*
X639927Y41114D01*
X640202Y41358D01*
X640484Y41595D01*
X640772Y41825D01*
X641065Y42048D01*
X641363Y42264D01*
X641666Y42472D01*
X641975Y42673D01*
X642288Y42866D01*
X642607Y43051D01*
X642929Y43229D01*
X643256Y43398D01*
X643587Y43560D01*
X643921Y43713D01*
X644260Y43858D01*
X644602Y43995D01*
X644947Y44123D01*
X645295Y44243D01*
X645646Y44354D01*
X645999Y44457D01*
X646355Y44550D01*
X646713Y44636D01*
X647074Y44712D01*
X647436Y44779D01*
X647799Y44838D01*
X648164Y44887D01*
X648530Y44928D01*
X648897Y44959D01*
X649264Y44982D01*
X649632Y44995D01*
X650000Y45000D01*
X650368Y44995D01*
X650736Y44982D01*
X651103Y44959D01*
X651470Y44928D01*
X651836Y44887D01*
X652201Y44838D01*
X652564Y44779D01*
X652926Y44712D01*
X653287Y44636D01*
X653645Y44550D01*
X654001Y44457D01*
X654354Y44354D01*
X654705Y44243D01*
X655053Y44123D01*
X655398Y43995D01*
X655740Y43858D01*
X656079Y43713D01*
X656413Y43560D01*
X656744Y43398D01*
X657071Y43229D01*
X657393Y43051D01*
X657712Y42866D01*
X658025Y42673D01*
X658334Y42472D01*
X658637Y42264D01*
X658935Y42048D01*
X659228Y41825D01*
X659516Y41595D01*
X659798Y41358D01*
X660073Y41114D01*
X660343Y40864D01*
X660607Y40607D01*
X660864Y40343D01*
X661114Y40073D01*
X661358Y39798D01*
X661595Y39516D01*
X661825Y39228D01*
X662048Y38935D01*
X662264Y38637D01*
X662472Y38334D01*
X662673Y38025D01*
X662866Y37712D01*
X663051Y37393D01*
X663229Y37071D01*
X663398Y36744D01*
X663560Y36413D01*
X663713Y36079D01*
X663858Y35740D01*
X663995Y35398D01*
X664123Y35053D01*
X664243Y34705D01*
X664354Y34354D01*
X664457Y34001D01*
X664550Y33645D01*
X664636Y33287D01*
X664712Y32926D01*
X664779Y32564D01*
X664838Y32201D01*
X664887Y31836D01*
X664928Y31470D01*
X664959Y31103D01*
X664982Y30736D01*
X664995Y30368D01*
X665000Y30000D01*
X664995Y29632D01*
X664982Y29264D01*
X664959Y28897D01*
X664928Y28530D01*
X664887Y28164D01*
X664838Y27799D01*
X664779Y27436D01*
X664712Y27074D01*
X664636Y26713D01*
X664550Y26355D01*
X664457Y25999D01*
X664354Y25646D01*
X664243Y25295D01*
X664123Y24947D01*
X663995Y24602D01*
X663858Y24260D01*
X663713Y23921D01*
X663560Y23587D01*
X663398Y23256D01*
X663229Y22929D01*
X663051Y22607D01*
X662866Y22288D01*
X662673Y21975D01*
X662472Y21666D01*
X662264Y21363D01*
X662048Y21065D01*
X661825Y20772D01*
X661595Y20484D01*
X661358Y20202D01*
X661114Y19927D01*
X660864Y19657D01*
X660607Y19393D01*
X660343Y19136D01*
X660073Y18886D01*
X659798Y18642D01*
X659516Y18405D01*
X659228Y18175D01*
X658935Y17952D01*
X658637Y17736D01*
X658334Y17528D01*
X658025Y17327D01*
X657712Y17134D01*
X657393Y16949D01*
X657071Y16771D01*
X656744Y16602D01*
X656413Y16440D01*
X656079Y16287D01*
X655740Y16142D01*
X655398Y16005D01*
X655053Y15877D01*
X654705Y15757D01*
X654354Y15646D01*
X654001Y15543D01*
X653645Y15450D01*
X653287Y15364D01*
X652926Y15288D01*
X652564Y15221D01*
X652201Y15162D01*
X651836Y15113D01*
X651470Y15072D01*
X651103Y15041D01*
X650736Y15018D01*
X650368Y15005D01*
X650000Y15000D01*
X649632Y15005D01*
X649264Y15018D01*
X648897Y15041D01*
X648530Y15072D01*
X648164Y15113D01*
X647799Y15162D01*
X647436Y15221D01*
X647074Y15288D01*
X646713Y15364D01*
X646355Y15450D01*
X645999Y15543D01*
X645646Y15646D01*
X645295Y15757D01*
X644947Y15877D01*
X644602Y16005D01*
X644260Y16142D01*
X643921Y16287D01*
X643587Y16440D01*
X643256Y16602D01*
X642929Y16771D01*
X642607Y16949D01*
X642288Y17134D01*
X641975Y17327D01*
X641666Y17528D01*
X641363Y17736D01*
X641065Y17952D01*
X640772Y18175D01*
X640484Y18405D01*
X640202Y18642D01*
X639927Y18886D01*
X639657Y19136D01*
X639393Y19393D01*
X639136Y19657D01*
X638886Y19927D01*
X638642Y20202D01*
X638405Y20484D01*
X638175Y20772D01*
X637952Y21065D01*
X637736Y21363D01*
X637528Y21666D01*
X637327Y21975D01*
X637134Y22288D01*
X636949Y22607D01*
X636771Y22929D01*
X636602Y23256D01*
X636440Y23587D01*
X636287Y23921D01*
X636142Y24260D01*
X636005Y24602D01*
X635877Y24947D01*
X635757Y25295D01*
X635646Y25646D01*
X635543Y25999D01*
X635450Y26355D01*
X635364Y26713D01*
X635288Y27074D01*
X635221Y27436D01*
X635162Y27799D01*
X635113Y28164D01*
X635072Y28530D01*
X635041Y28897D01*
X635018Y29264D01*
X635005Y29632D01*
X635000Y30000D01*
X635000Y830000D02*
X635005Y830368D01*
X635018Y830736D01*
X635041Y831103D01*
X635072Y831470D01*
X635113Y831836D01*
X635162Y832201D01*
X635221Y832564D01*
X635288Y832926D01*
X635364Y833287D01*
X635450Y833645D01*
X635543Y834001D01*
X635646Y834354D01*
X635757Y834705D01*
X635877Y835053D01*
X636005Y835398D01*
X636142Y835740D01*
X636287Y836079D01*
X636440Y836413D01*
X636602Y836744D01*
X636771Y837071D01*
X636949Y837393D01*
X637134Y837712D01*
X637327Y838025D01*
X637528Y838334D01*
X637736Y838637D01*
X637952Y838935D01*
X638175Y839228D01*
X638405Y839516D01*
X638642Y839798D01*
X638886Y840073D01*
X639136Y840343D01*
X639393Y840607D01*
X639657Y840864D01*
X639927Y841114D01*
X640202Y841358D01*
X640484Y841595D01*
X640772Y841825D01*
X641065Y842048D01*
X641363Y842264D01*
X641666Y842472D01*
X641975Y842673D01*
X642288Y842866D01*
X642607Y843051D01*
X642929Y843229D01*
X643256Y843398D01*
X643587Y843560D01*
X643921Y843713D01*
X644260Y843858D01*
X644602Y843995D01*
X644947Y844123D01*
X645295Y844243D01*
X645646Y844354D01*
X645999Y844457D01*
X646355Y844550D01*
X646713Y844636D01*
X647074Y844712D01*
X647436Y844779D01*
X647799Y844838D01*
X648164Y844887D01*
X648530Y844928D01*
X648897Y844959D01*
X649264Y844982D01*
X649632Y844995D01*
X650000Y845000D01*
X650368Y844995D01*
X650736Y844982D01*
X651103Y844959D01*
X651470Y844928D01*
X651836Y844887D01*
X652201Y844838D01*
X652564Y844779D01*
X652926Y844712D01*
X653287Y844636D01*
X653645Y844550D01*
X654001Y844457D01*
X654354Y844354D01*
X654705Y844243D01*
X655053Y844123D01*
X655398Y843995D01*
X655740Y843858D01*
X656079Y843713D01*
X656413Y843560D01*
X656744Y843398D01*
X657071Y843229D01*
X657393Y843051D01*
X657712Y842866D01*
X658025Y842673D01*
X658334Y842472D01*
X658637Y842264D01*
X658935Y842048D01*
X659228Y841825D01*
X659516Y841595D01*
X659798Y841358D01*
X660073Y841114D01*
X660343Y840864D01*
X660607Y840607D01*
X660864Y840343D01*
X661114Y840073D01*
X661358Y839798D01*
X661595Y839516D01*
X661825Y839228D01*
X662048Y838935D01*
X662264Y838637D01*
X662472Y838334D01*
X662673Y838025D01*
X662866Y837712D01*
X663051Y837393D01*
X663229Y837071D01*
X663398Y836744D01*
X663560Y836413D01*
X663713Y836079D01*
X663858Y835740D01*
X663995Y835398D01*
X664123Y835053D01*
X664243Y834705D01*
X664354Y834354D01*
X664457Y834001D01*
X664550Y833645D01*
X664636Y833287D01*
X664712Y832926D01*
X664779Y832564D01*
X664838Y832201D01*
X664887Y831836D01*
X664928Y831470D01*
X664959Y831103D01*
X664982Y830736D01*
X664995Y830368D01*
X665000Y830000D01*
X664995Y829632D01*
X664982Y829264D01*
X664959Y828897D01*
X664928Y828530D01*
X664887Y828164D01*
X664838Y827799D01*
X664779Y827436D01*
X664712Y827074D01*
X664636Y826713D01*
X664550Y826355D01*
X664457Y825999D01*
X664354Y825646D01*
X664243Y825295D01*
X664123Y824947D01*
X663995Y824602D01*
X663858Y824260D01*
X663713Y823921D01*
X663560Y823587D01*
X663398Y823256D01*
X663229Y822929D01*
X663051Y822607D01*
X662866Y822288D01*
X662673Y821975D01*
X662472Y821666D01*
X662264Y821363D01*
X662048Y821065D01*
X661825Y820772D01*
X661595Y820484D01*
X661358Y820202D01*
X661114Y819927D01*
X660864Y819657D01*
X660607Y819393D01*
X660343Y819136D01*
X660073Y818886D01*
X659798Y818642D01*
X659516Y818405D01*
X659228Y818175D01*
X658935Y817952D01*
X658637Y817736D01*
X658334Y817528D01*
X658025Y817327D01*
X657712Y817134D01*
X657393Y816949D01*
X657071Y816771D01*
X656744Y816602D01*
X656413Y816440D01*
X656079Y816287D01*
X655740Y816142D01*
X655398Y816005D01*
X655053Y815877D01*
X654705Y815757D01*
X654354Y815646D01*
X654001Y815543D01*
X653645Y815450D01*
X653287Y815364D01*
X652926Y815288D01*
X652564Y815221D01*
X652201Y815162D01*
X651836Y815113D01*
X651470Y815072D01*
X651103Y815041D01*
X650736Y815018D01*
X650368Y815005D01*
X650000Y815000D01*
X649632Y815005D01*
X649264Y815018D01*
X648897Y815041D01*
X648530Y815072D01*
X648164Y815113D01*
X647799Y815162D01*
X647436Y815221D01*
X647074Y815288D01*
X646713Y815364D01*
X646355Y815450D01*
X645999Y815543D01*
X645646Y815646D01*
X645295Y815757D01*
X644947Y815877D01*
X644602Y816005D01*
X644260Y816142D01*
X643921Y816287D01*
X643587Y816440D01*
X643256Y816602D01*
X642929Y816771D01*
X642607Y816949D01*
X642288Y817134D01*
X641975Y817327D01*
X641666Y817528D01*
X641363Y817736D01*
X641065Y817952D01*
X640772Y818175D01*
X640484Y818405D01*
X640202Y818642D01*
X639927Y818886D01*
X639657Y819136D01*
X639393Y819393D01*
X639136Y819657D01*
X638886Y819927D01*
X638642Y820202D01*
X638405Y820484D01*
X638175Y820772D01*
X637952Y821065D01*
X637736Y821363D01*
X637528Y821666D01*
X637327Y821975D01*
X637134Y822288D01*
X636949Y822607D01*
X636771Y822929D01*
X636602Y823256D01*
X636440Y823587D01*
X636287Y823921D01*
X636142Y824260D01*
X636005Y824602D01*
X635877Y824947D01*
X635757Y825295D01*
X635646Y825646D01*
X635543Y825999D01*
X635450Y826355D01*
X635364Y826713D01*
X635288Y827074D01*
X635221Y827436D01*
X635162Y827799D01*
X635113Y828164D01*
X635072Y828530D01*
X635041Y828897D01*
X635018Y829264D01*
X635005Y829632D01*
X635000Y830000D01*
X-65000Y830000D02*
X-64995Y830368D01*
X-64982Y830736D01*
X-64959Y831103D01*
X-64928Y831470D01*
X-64887Y831836D01*
X-64838Y832201D01*
X-64779Y832564D01*
X-64712Y832926D01*
X-64636Y833287D01*
X-64550Y833645D01*
X-64457Y834001D01*
X-64354Y834354D01*
X-64243Y834705D01*
X-64123Y835053D01*
X-63995Y835398D01*
X-63858Y835740D01*
X-63713Y836079D01*
X-63560Y836413D01*
X-63398Y836744D01*
X-63229Y837071D01*
X-63051Y837393D01*
X-62866Y837712D01*
X-62673Y838025D01*
X-62472Y838334D01*
X-62264Y838637D01*
X-62048Y838935D01*
X-61825Y839228D01*
X-61595Y839516D01*
X-61358Y839798D01*
X-61114Y840073D01*
X-60864Y840343D01*
X-60607Y840607D01*
X-60343Y840864D01*
X-60073Y841114D01*
X-59798Y841358D01*
X-59516Y841595D01*
X-59228Y841825D01*
X-58935Y842048D01*
X-58637Y842264D01*
X-58334Y842472D01*
X-58025Y842673D01*
X-57712Y842866D01*
X-57393Y843051D01*
X-57071Y843229D01*
X-56744Y843398D01*
X-56413Y843560D01*
X-56079Y843713D01*
X-55740Y843858D01*
X-55398Y843995D01*
X-55053Y844123D01*
X-54705Y844243D01*
X-54354Y844354D01*
X-54001Y844457D01*
X-53645Y844550D01*
X-53287Y844636D01*
X-52926Y844712D01*
X-52564Y844779D01*
X-52201Y844838D01*
X-51836Y844887D01*
X-51470Y844928D01*
X-51103Y844959D01*
X-50736Y844982D01*
X-50368Y844995D01*
X-50000Y845000D01*
X-49632Y844995D01*
X-49264Y844982D01*
X-48897Y844959D01*
X-48530Y844928D01*
X-48164Y844887D01*
X-47799Y844838D01*
X-47436Y844779D01*
X-47074Y844712D01*
X-46713Y844636D01*
X-46355Y844550D01*
X-45999Y844457D01*
X-45646Y844354D01*
X-45295Y844243D01*
X-44947Y844123D01*
X-44602Y843995D01*
X-44260Y843858D01*
X-43921Y843713D01*
X-43587Y843560D01*
X-43256Y843398D01*
X-42929Y843229D01*
X-42607Y843051D01*
X-42288Y842866D01*
X-41975Y842673D01*
X-41666Y842472D01*
X-41363Y842264D01*
X-41065Y842048D01*
X-40772Y841825D01*
X-40484Y841595D01*
X-40202Y841358D01*
X-39927Y841114D01*
X-39657Y840864D01*
X-39393Y840607D01*
X-39136Y840343D01*
X-38886Y840073D01*
X-38642Y839798D01*
X-38405Y839516D01*
X-38175Y839228D01*
X-37952Y838935D01*
X-37736Y838637D01*
X-37528Y838334D01*
X-37327Y838025D01*
X-37134Y837712D01*
X-36949Y837393D01*
X-36771Y837071D01*
X-36602Y836744D01*
X-36440Y836413D01*
X-36287Y836079D01*
X-36142Y835740D01*
X-36005Y835398D01*
X-35877Y835053D01*
X-35757Y834705D01*
X-35646Y834354D01*
X-35543Y834001D01*
X-35450Y833645D01*
X-35364Y833287D01*
X-35288Y832926D01*
X-35221Y832564D01*
X-35162Y832201D01*
X-35113Y831836D01*
X-35072Y831470D01*
X-35041Y831103D01*
X-35018Y830736D01*
X-35005Y830368D01*
X-35000Y830000D01*
X-35005Y829632D01*
X-35018Y829264D01*
X-35041Y828897D01*
X-35072Y828530D01*
X-35113Y828164D01*
X-35162Y827799D01*
X-35221Y827436D01*
X-35288Y827074D01*
X-35364Y826713D01*
X-35450Y826355D01*
X-35543Y825999D01*
X-35646Y825646D01*
X-35757Y825295D01*
X-35877Y824947D01*
X-36005Y824602D01*
X-36142Y824260D01*
X-36287Y823921D01*
X-36440Y823587D01*
X-36602Y823256D01*
X-36771Y822929D01*
X-36949Y822607D01*
X-37134Y822288D01*
X-37327Y821975D01*
X-37528Y821666D01*
X-37736Y821363D01*
X-37952Y821065D01*
X-38175Y820772D01*
X-38405Y820484D01*
X-38642Y820202D01*
X-38886Y819927D01*
X-39136Y819657D01*
X-39393Y819393D01*
X-39657Y819136D01*
X-39927Y818886D01*
X-40202Y818642D01*
X-40484Y818405D01*
X-40772Y818175D01*
X-41065Y817952D01*
X-41363Y817736D01*
X-41666Y817528D01*
X-41975Y817327D01*
X-42288Y817134D01*
X-42607Y816949D01*
X-42929Y816771D01*
X-43256Y816602D01*
X-43587Y816440D01*
X-43921Y816287D01*
X-44260Y816142D01*
X-44602Y816005D01*
X-44947Y815877D01*
X-45295Y815757D01*
X-45646Y815646D01*
X-45999Y815543D01*
X-46355Y815450D01*
X-46713Y815364D01*
X-47074Y815288D01*
X-47436Y815221D01*
X-47799Y815162D01*
X-48164Y815113D01*
X-48530Y815072D01*
X-48897Y815041D01*
X-49264Y815018D01*
X-49632Y815005D01*
X-50000Y815000D01*
X-50368Y815005D01*
X-50736Y815018D01*
X-51103Y815041D01*
X-51470Y815072D01*
X-51836Y815113D01*
X-52201Y815162D01*
X-52564Y815221D01*
X-52926Y815288D01*
X-53287Y815364D01*
X-53645Y815450D01*
X-54001Y815543D01*
X-54354Y815646D01*
X-54705Y815757D01*
X-55053Y815877D01*
X-55398Y816005D01*
X-55740Y816142D01*
X-56079Y816287D01*
X-56413Y816440D01*
X-56744Y816602D01*
X-57071Y816771D01*
X-57393Y816949D01*
X-57712Y817134D01*
X-58025Y817327D01*
X-58334Y817528D01*
X-58637Y817736D01*
X-58935Y817952D01*
X-59228Y818175D01*
X-59516Y818405D01*
X-59798Y818642D01*
X-60073Y818886D01*
X-60343Y819136D01*
X-60607Y819393D01*
X-60864Y819657D01*
X-61114Y819927D01*
X-61358Y820202D01*
X-61595Y820484D01*
X-61825Y820772D01*
X-62048Y821065D01*
X-62264Y821363D01*
X-62472Y821666D01*
X-62673Y821975D01*
X-62866Y822288D01*
X-63051Y822607D01*
X-63229Y822929D01*
X-63398Y823256D01*
X-63560Y823587D01*
X-63713Y823921D01*
X-63858Y824260D01*
X-63995Y824602D01*
X-64123Y824947D01*
X-64243Y825295D01*
X-64354Y825646D01*
X-64457Y825999D01*
X-64550Y826355D01*
X-64636Y826713D01*
X-64712Y827074D01*
X-64779Y827436D01*
X-64838Y827799D01*
X-64887Y828164D01*
X-64928Y828530D01*
X-64959Y828897D01*
X-64982Y829264D01*
X-64995Y829632D01*
X-65000Y830000D01*
D12*
X-150000Y-60000D02*
X750000Y-60000D01*
X750000Y980000D01*
X-150000Y980000D01*
X-150000Y-60000D01*
X-10000Y-10000D02*
X610000Y-10000D01*
X610000Y930000D01*
X-10000Y930000D01*
X-10000Y-10000D01*
X-35000Y29464D02*
X-35076Y28396D01*
X-35229Y27335D01*
X-35457Y26288D01*
X-35759Y25260D01*
X-36133Y24256D01*
X-36578Y23281D01*
X-37092Y22341D01*
X-37671Y21440D01*
X-38313Y20582D01*
X-39015Y19772D01*
X-39772Y19015D01*
X-40582Y18313D01*
X-41440Y17671D01*
X-42341Y17092D01*
X-43281Y16578D01*
X-44256Y16133D01*
X-45260Y15759D01*
X-46288Y15457D01*
X-47335Y15229D01*
X-48396Y15076D01*
X-49464Y15000D01*
X-50536Y15000D01*
X-51604Y15076D01*
X-52665Y15229D01*
X-53712Y15457D01*
X-54740Y15759D01*
X-55744Y16133D01*
X-56719Y16578D01*
X-57659Y17092D01*
X-58560Y17671D01*
X-59418Y18313D01*
X-60228Y19015D01*
X-60985Y19772D01*
X-61687Y20582D01*
X-62329Y21440D01*
X-62908Y22341D01*
X-63422Y23281D01*
X-63867Y24256D01*
X-64241Y25260D01*
X-64543Y26288D01*
X-64771Y27335D01*
X-64924Y28396D01*
X-65000Y29464D01*
X-65000Y30536D01*
X-64924Y31604D01*
X-64771Y32665D01*
X-64543Y33712D01*
X-64241Y34740D01*
X-63867Y35744D01*
X-63422Y36719D01*
X-62908Y37659D01*
X-62329Y38560D01*
X-61687Y39418D01*
X-60985Y40228D01*
X-60228Y40985D01*
X-59418Y41687D01*
X-58560Y42329D01*
X-57659Y42908D01*
X-56719Y43422D01*
X-55744Y43867D01*
X-54740Y44241D01*
X-53712Y44543D01*
X-52665Y44771D01*
X-51604Y44924D01*
X-50536Y45000D01*
X-49464Y45000D01*
X-48396Y44924D01*
X-47335Y44771D01*
X-46288Y44543D01*
X-45260Y44241D01*
X-44256Y43867D01*
X-43281Y43422D01*
X-42341Y42908D01*
X-41440Y42329D01*
X-40582Y41687D01*
X-39772Y40985D01*
X-39015Y40228D01*
X-38313Y39418D01*
X-37671Y38560D01*
X-37092Y37659D01*
X-36578Y36719D01*
X-36133Y35744D01*
X-35759Y34740D01*
X-35457Y33712D01*
X-35229Y32665D01*
X-35076Y31604D01*
X-35000Y30536D01*
X-35000Y29464D01*
X665000Y29464D02*
X664924Y28396D01*
X664771Y27335D01*
X664543Y26288D01*
X664241Y25260D01*
X663867Y24256D01*
X663422Y23281D01*
X662908Y22341D01*
X662329Y21440D01*
X661687Y20582D01*
X660985Y19772D01*
X660228Y19015D01*
X659418Y18313D01*
X658560Y17671D01*
X657659Y17092D01*
X656719Y16578D01*
X655744Y16133D01*
X654740Y15759D01*
X653712Y15457D01*
X652665Y15229D01*
X651604Y15076D01*
X650536Y15000D01*
X649464Y15000D01*
X648396Y15076D01*
X647335Y15229D01*
X646288Y15457D01*
X645260Y15759D01*
X644256Y16133D01*
X643281Y16578D01*
X642341Y17092D01*
X641440Y17671D01*
X640582Y18313D01*
X639772Y19015D01*
X639015Y19772D01*
X638313Y20582D01*
X637671Y21440D01*
X637092Y22341D01*
X636578Y23281D01*
X636133Y24256D01*
X635759Y25260D01*
X635457Y26288D01*
X635229Y27335D01*
X635076Y28396D01*
X635000Y29464D01*
X635000Y30536D01*
X635076Y31604D01*
X635229Y32665D01*
X635457Y33712D01*
X635759Y34740D01*
X636133Y35744D01*
X636578Y36719D01*
X637092Y37659D01*
X637671Y38560D01*
X638313Y39418D01*
X639015Y40228D01*
X639772Y40985D01*
X640582Y41687D01*
X641440Y42329D01*
X642341Y42908D01*
X643281Y43422D01*
X644256Y43867D01*
X645260Y44241D01*
X646288Y44543D01*
X647335Y44771D01*
X648396Y44924D01*
X649464Y45000D01*
X650536Y45000D01*
X651604Y44924D01*
X652665Y44771D01*
X653712Y44543D01*
X654740Y44241D01*
X655744Y43867D01*
X656719Y43422D01*
X657659Y42908D01*
X658560Y42329D01*
X659418Y41687D01*
X660228Y40985D01*
X660985Y40228D01*
X661687Y39418D01*
X662329Y38560D01*
X662908Y37659D01*
X663422Y36719D01*
X663867Y35744D01*
X664241Y34740D01*
X664543Y33712D01*
X664771Y32665D01*
X664924Y31604D01*
X665000Y30536D01*
X665000Y29464D01*
X665000Y829464D02*
X664924Y828396D01*
X664771Y827335D01*
X664543Y826288D01*
X664241Y825260D01*
X663867Y824256D01*
X663422Y823281D01*
X662908Y822341D01*
X662329Y821440D01*
X661687Y820582D01*
X660985Y819772D01*
X660228Y819015D01*
X659418Y818313D01*
X658560Y817671D01*
X657659Y817092D01*
X656719Y816578D01*
X655744Y816133D01*
X654740Y815759D01*
X653712Y815457D01*
X652665Y815229D01*
X651604Y815076D01*
X650536Y815000D01*
X649464Y815000D01*
X648396Y815076D01*
X647335Y815229D01*
X646288Y815457D01*
X645260Y815759D01*
X644256Y816133D01*
X643281Y816578D01*
X642341Y817092D01*
X641440Y817671D01*
X640582Y818313D01*
X639772Y819015D01*
X639015Y819772D01*
X638313Y820582D01*
X637671Y821440D01*
X637092Y822341D01*
X636578Y823281D01*
X636133Y824256D01*
X635759Y825260D01*
X635457Y826288D01*
X635229Y827335D01*
X635076Y828396D01*
X635000Y829464D01*
X635000Y830536D01*
X635076Y831604D01*
X635229Y832665D01*
X635457Y833712D01*
X635759Y834740D01*
X636133Y835744D01*
X636578Y836719D01*
X637092Y837659D01*
X637671Y838560D01*
X638313Y839418D01*
X639015Y840228D01*
X639772Y840985D01*
X640582Y841687D01*
X641440Y842329D01*
X642341Y842908D01*
X643281Y843422D01*
X644256Y843867D01*
X645260Y844241D01*
X646288Y844543D01*
X647335Y844771D01*
X648396Y844924D01*
X649464Y845000D01*
X650536Y845000D01*
X651604Y844924D01*
X652665Y844771D01*
X653712Y844543D01*
X654740Y844241D01*
X655744Y843867D01*
X656719Y843422D01*
X657659Y842908D01*
X658560Y842329D01*
X659418Y841687D01*
X660228Y840985D01*
X660985Y840228D01*
X661687Y839418D01*
X662329Y838560D01*
X662908Y837659D01*
X663422Y836719D01*
X663867Y835744D01*
X664241Y834740D01*
X664543Y833712D01*
X664771Y832665D01*
X664924Y831604D01*
X665000Y830536D01*
X665000Y829464D01*
X-35000Y829464D02*
X-35076Y828396D01*
X-35229Y827335D01*
X-35457Y826288D01*
X-35759Y825260D01*
X-36133Y824256D01*
X-36578Y823281D01*
X-37092Y822341D01*
X-37671Y821440D01*
X-38313Y820582D01*
X-39015Y819772D01*
X-39772Y819015D01*
X-40582Y818313D01*
X-41440Y817671D01*
X-42341Y817092D01*
X-43281Y816578D01*
X-44256Y816133D01*
X-45260Y815759D01*
X-46288Y815457D01*
X-47335Y815229D01*
X-48396Y815076D01*
X-49464Y815000D01*
X-50536Y815000D01*
X-51604Y815076D01*
X-52665Y815229D01*
X-53712Y815457D01*
X-54740Y815759D01*
X-55744Y816133D01*
X-56719Y816578D01*
X-57659Y817092D01*
X-58560Y817671D01*
X-59418Y818313D01*
X-60228Y819015D01*
X-60985Y819772D01*
X-61687Y820582D01*
X-62329Y821440D01*
X-62908Y822341D01*
X-63422Y823281D01*
X-63867Y824256D01*
X-64241Y825260D01*
X-64543Y826288D01*
X-64771Y827335D01*
X-64924Y828396D01*
X-65000Y829464D01*
X-65000Y830536D01*
X-64924Y831604D01*
X-64771Y832665D01*
X-64543Y833712D01*
X-64241Y834740D01*
X-63867Y835744D01*
X-63422Y836719D01*
X-62908Y837659D01*
X-62329Y838560D01*
X-61687Y839418D01*
X-60985Y840228D01*
X-60228Y840985D01*
X-59418Y841687D01*
X-58560Y842329D01*
X-57659Y842908D01*
X-56719Y843422D01*
X-55744Y843867D01*
X-54740Y844241D01*
X-53712Y844543D01*
X-52665Y844771D01*
X-51604Y844924D01*
X-50536Y845000D01*
X-49464Y845000D01*
X-48396Y844924D01*
X-47335Y844771D01*
X-46288Y844543D01*
X-45260Y844241D01*
X-44256Y843867D01*
X-43281Y843422D01*
X-42341Y842908D01*
X-41440Y842329D01*
X-40582Y841687D01*
X-39772Y840985D01*
X-39015Y840228D01*
X-38313Y839418D01*
X-37671Y838560D01*
X-37092Y837659D01*
X-36578Y836719D01*
X-36133Y835744D01*
X-35759Y834740D01*
X-35457Y833712D01*
X-35229Y832665D01*
X-35076Y831604D01*
X-35000Y830536D01*
X-35000Y829464D01*
M02*
