G04 EAGLE Gerber RS-274X export*
G75*
%MOMM*%
%FSLAX34Y34*%
%LPD*%
%INSolderpaste Top*%
%IPPOS*%
%AMOC8*
5,1,8,0,0,1.08239X$1,22.5*%
G01*
%ADD10R,1.750000X0.700000*%
%ADD11R,1.550000X1.000000*%
%ADD12R,1.000000X1.450000*%
%ADD13R,1.500000X1.500000*%
%ADD14R,1.500000X1.300000*%
%ADD15R,1.400000X0.800000*%
%ADD16R,1.500000X0.800000*%
%ADD17R,0.400000X2.000000*%
%ADD18R,2.100000X1.600000*%
%ADD19R,1.900000X1.800000*%
%ADD20R,0.254000X1.371600*%
%ADD21R,1.371600X0.254000*%
%ADD22R,0.863600X0.304800*%
%ADD23R,0.304800X0.863600*%


D10*
X97150Y318000D03*
X97150Y329000D03*
X97150Y340000D03*
X97150Y351000D03*
X97150Y362000D03*
X97150Y373000D03*
X97150Y384000D03*
X97150Y395000D03*
D11*
X205150Y294250D03*
D12*
X189400Y406250D03*
D13*
X98400Y293500D03*
D14*
X98400Y407000D03*
D15*
X180900Y290250D03*
D16*
X174400Y409500D03*
D17*
X137000Y224750D03*
X143500Y224750D03*
X150000Y224750D03*
X156500Y224750D03*
X163000Y224750D03*
D18*
X119000Y226750D03*
X181000Y226750D03*
D19*
X114750Y200000D03*
X185250Y200000D03*
D20*
X342500Y123254D03*
X347500Y123254D03*
X352500Y123254D03*
X357500Y123254D03*
X362500Y123254D03*
X367500Y123254D03*
X372500Y123254D03*
X377500Y123254D03*
X382500Y123254D03*
X387500Y123254D03*
X392500Y123254D03*
X397500Y123254D03*
X402500Y123254D03*
X407500Y123254D03*
X412500Y123254D03*
X417500Y123254D03*
X422500Y123254D03*
X427500Y123254D03*
X432500Y123254D03*
X437500Y123254D03*
X442500Y123254D03*
X447500Y123254D03*
X452500Y123254D03*
X457500Y123254D03*
X462500Y123254D03*
X467500Y123254D03*
X472500Y123254D03*
X477500Y123254D03*
X482500Y123254D03*
X487500Y123254D03*
X492500Y123254D03*
X497500Y123254D03*
X502500Y123254D03*
X507500Y123254D03*
X512500Y123254D03*
X517500Y123254D03*
X522500Y123254D03*
X527500Y123254D03*
X532500Y123254D03*
X537500Y123254D03*
X542500Y123254D03*
X547500Y123254D03*
X552500Y123254D03*
X557500Y123254D03*
D21*
X576746Y142500D03*
X576746Y147500D03*
X576746Y152500D03*
X576746Y157500D03*
X576746Y162500D03*
X576746Y167500D03*
X576746Y172500D03*
X576746Y177500D03*
X576746Y182500D03*
X576746Y187500D03*
X576746Y192500D03*
X576746Y197500D03*
X576746Y202500D03*
X576746Y207500D03*
X576746Y212500D03*
X576746Y217500D03*
X576746Y222500D03*
X576746Y227500D03*
X576746Y232500D03*
X576746Y237500D03*
X576746Y242500D03*
X576746Y247500D03*
X576746Y252500D03*
X576746Y257500D03*
X576746Y262500D03*
X576746Y267500D03*
X576746Y272500D03*
X576746Y277500D03*
X576746Y282500D03*
X576746Y287500D03*
X576746Y292500D03*
X576746Y297500D03*
X576746Y302500D03*
X576746Y307500D03*
X576746Y312500D03*
X576746Y317500D03*
X576746Y322500D03*
X576746Y327500D03*
X576746Y332500D03*
X576746Y337500D03*
X576746Y342500D03*
X576746Y347500D03*
X576746Y352500D03*
X576746Y357500D03*
D20*
X557500Y376746D03*
X552500Y376746D03*
X547500Y376746D03*
X542500Y376746D03*
X537500Y376746D03*
X532500Y376746D03*
X527500Y376746D03*
X522500Y376746D03*
X517500Y376746D03*
X512500Y376746D03*
X507500Y376746D03*
X502500Y376746D03*
X497500Y376746D03*
X492500Y376746D03*
X487500Y376746D03*
X482500Y376746D03*
X477500Y376746D03*
X472500Y376746D03*
X467500Y376746D03*
X462500Y376746D03*
X457500Y376746D03*
X452500Y376746D03*
X447500Y376746D03*
X442500Y376746D03*
X437500Y376746D03*
X432500Y376746D03*
X427500Y376746D03*
X422500Y376746D03*
X417500Y376746D03*
X412500Y376746D03*
X407500Y376746D03*
X402500Y376746D03*
X397500Y376746D03*
X392500Y376746D03*
X387500Y376746D03*
X382500Y376746D03*
X377500Y376746D03*
X372500Y376746D03*
X367500Y376746D03*
X362500Y376746D03*
X357500Y376746D03*
X352500Y376746D03*
X347500Y376746D03*
X342500Y376746D03*
D21*
X323254Y357500D03*
X323254Y352500D03*
X323254Y347500D03*
X323254Y342500D03*
X323254Y337500D03*
X323254Y332500D03*
X323254Y327500D03*
X323254Y322500D03*
X323254Y317500D03*
X323254Y312500D03*
X323254Y307500D03*
X323254Y302500D03*
X323254Y297500D03*
X323254Y292500D03*
X323254Y287500D03*
X323254Y282500D03*
X323254Y277500D03*
X323254Y272500D03*
X323254Y267500D03*
X323254Y262500D03*
X323254Y257500D03*
X323254Y252500D03*
X323254Y247500D03*
X323254Y242500D03*
X323254Y237500D03*
X323254Y232500D03*
X323254Y227500D03*
X323254Y222500D03*
X323254Y217500D03*
X323254Y212500D03*
X323254Y207500D03*
X323254Y202500D03*
X323254Y197500D03*
X323254Y192500D03*
X323254Y187500D03*
X323254Y182500D03*
X323254Y177500D03*
X323254Y172500D03*
X323254Y167500D03*
X323254Y162500D03*
X323254Y157500D03*
X323254Y152500D03*
X323254Y147500D03*
X323254Y142500D03*
D22*
X130315Y112500D03*
X130315Y107500D03*
X130315Y102500D03*
X130315Y97500D03*
X130315Y92500D03*
X130315Y87500D03*
D23*
X137500Y80315D03*
X142500Y80315D03*
X147500Y80315D03*
X152500Y80315D03*
X157500Y80315D03*
X162500Y80315D03*
D22*
X169685Y87500D03*
X169685Y92500D03*
X169685Y97500D03*
X169685Y102500D03*
X169685Y107500D03*
X169685Y112500D03*
D23*
X162500Y119685D03*
X157500Y119685D03*
X152500Y119685D03*
X147500Y119685D03*
X142500Y119685D03*
X137500Y119685D03*
M02*
