G75*
%MOIN*%
%OFA0B0*%
%FSLAX25Y25*%
%IPPOS*%
%LPD*%
%AMOC8*
5,1,8,0,0,1.08239X$1,22.5*
%
%ADD10R,0.02756X0.02362*%
%ADD11R,0.02362X0.02756*%
%ADD12R,0.01575X0.05315*%
%ADD13R,0.08268X0.06299*%
%ADD14R,0.07087X0.07480*%
%ADD15C,0.01575*%
%ADD16C,0.02978*%
%ADD17C,0.00039*%
D10*
X0015303Y0037862D03*
X0015303Y0041406D03*
X0021209Y0041406D03*
X0021209Y0037862D03*
X0025933Y0037862D03*
X0025933Y0041406D03*
D11*
X0013531Y0030185D03*
X0013531Y0026248D03*
X0009988Y0026248D03*
X0009988Y0030185D03*
D12*
X0018846Y0019831D03*
X0021406Y0019831D03*
X0023965Y0019831D03*
X0026524Y0019831D03*
X0029083Y0019831D03*
D13*
X0036169Y0019457D03*
X0011760Y0019457D03*
D14*
X0009004Y0008925D03*
X0019240Y0008925D03*
X0028689Y0008925D03*
X0038925Y0008925D03*
D15*
X0038815Y0008925D01*
X0038815Y0016811D01*
X0036169Y0019457D01*
X0038815Y0008925D02*
X0028689Y0008925D01*
X0019240Y0008925D01*
X0009004Y0008925D01*
X0009004Y0016701D01*
X0011760Y0019457D01*
X0013531Y0026248D02*
X0018846Y0026248D01*
X0018846Y0030185D01*
X0013531Y0030185D01*
X0018846Y0032941D02*
X0015303Y0036484D01*
X0015303Y0037862D01*
X0015303Y0041406D02*
X0015303Y0191287D01*
X0015193Y0191571D01*
X0022783Y0191571D02*
X0022783Y0191287D01*
X0022783Y0051642D01*
X0021209Y0050067D01*
X0021209Y0041406D01*
X0021209Y0037862D02*
X0021406Y0037075D01*
X0021406Y0019831D01*
X0023965Y0019831D02*
X0023965Y0032154D01*
X0025933Y0034122D01*
X0025933Y0037862D01*
X0025933Y0041406D02*
X0030941Y0046807D01*
X0030941Y0191571D01*
X0015697Y0041799D02*
X0015303Y0041406D01*
X0018846Y0032941D02*
X0018846Y0030185D01*
X0018846Y0026248D02*
X0018846Y0019831D01*
X0009988Y0026248D02*
X0009988Y0030185D01*
X0009988Y0037327D01*
X0006925Y0040390D01*
X0029083Y0028906D02*
X0029083Y0019831D01*
X0029083Y0028906D02*
X0035449Y0035272D01*
X0038028Y0035272D01*
D16*
X0038028Y0035272D03*
X0006925Y0040390D03*
X0015193Y0191571D03*
X0022783Y0191571D03*
X0030941Y0191571D03*
D17*
X0001020Y0048264D02*
X0001020Y0023854D01*
X0008658Y0023854D01*
X0008413Y0023920D01*
X0008181Y0024054D01*
X0007991Y0024244D01*
X0007857Y0024476D01*
X0007787Y0024736D01*
X0007787Y0026228D01*
X0009968Y0026228D01*
X0009968Y0026268D01*
X0007787Y0026268D01*
X0007787Y0027760D01*
X0007857Y0028020D01*
X0007971Y0028217D01*
X0007857Y0028413D01*
X0007787Y0028673D01*
X0001020Y0028673D01*
X0001020Y0028635D02*
X0007797Y0028635D01*
X0007787Y0028673D02*
X0007787Y0030165D01*
X0009968Y0030165D01*
X0009968Y0030205D01*
X0007787Y0030205D01*
X0007787Y0031697D01*
X0007857Y0031957D01*
X0007991Y0032189D01*
X0008181Y0032379D01*
X0008413Y0032513D01*
X0008673Y0032583D01*
X0009969Y0032583D01*
X0009969Y0030205D01*
X0010008Y0030205D01*
X0010008Y0032583D01*
X0011304Y0032583D01*
X0011563Y0032513D01*
X0011795Y0032379D01*
X0011985Y0032189D01*
X0012027Y0032116D01*
X0012094Y0032183D01*
X0014969Y0032183D01*
X0015332Y0031820D01*
X0015332Y0031592D01*
X0017439Y0031592D01*
X0017439Y0032358D01*
X0013896Y0035901D01*
X0013896Y0036061D01*
X0013669Y0036061D01*
X0013306Y0036424D01*
X0013306Y0039300D01*
X0013639Y0039634D01*
X0013306Y0039968D01*
X0013306Y0042843D01*
X0013669Y0043206D01*
X0013896Y0043206D01*
X0013896Y0048264D01*
X0001020Y0048264D01*
X0001020Y0048258D02*
X0013896Y0048258D01*
X0013896Y0048220D02*
X0001020Y0048220D01*
X0001020Y0048182D02*
X0013896Y0048182D01*
X0013896Y0048144D02*
X0001020Y0048144D01*
X0001020Y0048106D02*
X0013896Y0048106D01*
X0013896Y0048068D02*
X0001020Y0048068D01*
X0001020Y0048030D02*
X0013896Y0048030D01*
X0013896Y0047993D02*
X0001020Y0047993D01*
X0001020Y0047955D02*
X0013896Y0047955D01*
X0013896Y0047917D02*
X0001020Y0047917D01*
X0001020Y0047879D02*
X0013896Y0047879D01*
X0013896Y0047841D02*
X0001020Y0047841D01*
X0001020Y0047803D02*
X0013896Y0047803D01*
X0013896Y0047765D02*
X0001020Y0047765D01*
X0001020Y0047727D02*
X0013896Y0047727D01*
X0013896Y0047690D02*
X0001020Y0047690D01*
X0001020Y0047652D02*
X0013896Y0047652D01*
X0013896Y0047614D02*
X0001020Y0047614D01*
X0001020Y0047576D02*
X0013896Y0047576D01*
X0013896Y0047538D02*
X0001020Y0047538D01*
X0001020Y0047500D02*
X0013896Y0047500D01*
X0013896Y0047462D02*
X0001020Y0047462D01*
X0001020Y0047424D02*
X0013896Y0047424D01*
X0013896Y0047387D02*
X0001020Y0047387D01*
X0001020Y0047349D02*
X0013896Y0047349D01*
X0013896Y0047311D02*
X0001020Y0047311D01*
X0001020Y0047273D02*
X0013896Y0047273D01*
X0013896Y0047235D02*
X0001020Y0047235D01*
X0001020Y0047197D02*
X0013896Y0047197D01*
X0013896Y0047159D02*
X0001020Y0047159D01*
X0001020Y0047121D02*
X0013896Y0047121D01*
X0013896Y0047083D02*
X0001020Y0047083D01*
X0001020Y0047046D02*
X0013896Y0047046D01*
X0013896Y0047008D02*
X0001020Y0047008D01*
X0001020Y0046970D02*
X0013896Y0046970D01*
X0013896Y0046932D02*
X0001020Y0046932D01*
X0001020Y0046894D02*
X0013896Y0046894D01*
X0013896Y0046856D02*
X0001020Y0046856D01*
X0001020Y0046818D02*
X0013896Y0046818D01*
X0013896Y0046780D02*
X0001020Y0046780D01*
X0001020Y0046743D02*
X0013896Y0046743D01*
X0013896Y0046705D02*
X0001020Y0046705D01*
X0001020Y0046667D02*
X0013896Y0046667D01*
X0013896Y0046629D02*
X0001020Y0046629D01*
X0001020Y0046591D02*
X0013896Y0046591D01*
X0013896Y0046553D02*
X0001020Y0046553D01*
X0001020Y0046515D02*
X0013896Y0046515D01*
X0013896Y0046477D02*
X0001020Y0046477D01*
X0001020Y0046439D02*
X0013896Y0046439D01*
X0013896Y0046402D02*
X0001020Y0046402D01*
X0001020Y0046364D02*
X0013896Y0046364D01*
X0013896Y0046326D02*
X0001020Y0046326D01*
X0001020Y0046288D02*
X0013896Y0046288D01*
X0013896Y0046250D02*
X0001020Y0046250D01*
X0001020Y0046212D02*
X0013896Y0046212D01*
X0013896Y0046174D02*
X0001020Y0046174D01*
X0001020Y0046136D02*
X0013896Y0046136D01*
X0013896Y0046099D02*
X0001020Y0046099D01*
X0001020Y0046061D02*
X0013896Y0046061D01*
X0013896Y0046023D02*
X0001020Y0046023D01*
X0001020Y0045985D02*
X0013896Y0045985D01*
X0013896Y0045947D02*
X0001020Y0045947D01*
X0001020Y0045909D02*
X0013896Y0045909D01*
X0013896Y0045871D02*
X0001020Y0045871D01*
X0001020Y0045833D02*
X0013896Y0045833D01*
X0013896Y0045795D02*
X0001020Y0045795D01*
X0001020Y0045758D02*
X0013896Y0045758D01*
X0013896Y0045720D02*
X0001020Y0045720D01*
X0001020Y0045682D02*
X0013896Y0045682D01*
X0013896Y0045644D02*
X0001020Y0045644D01*
X0001020Y0045606D02*
X0013896Y0045606D01*
X0013896Y0045568D02*
X0001020Y0045568D01*
X0001020Y0045530D02*
X0013896Y0045530D01*
X0013896Y0045492D02*
X0001020Y0045492D01*
X0001020Y0045455D02*
X0013896Y0045455D01*
X0013896Y0045417D02*
X0001020Y0045417D01*
X0001020Y0045379D02*
X0013896Y0045379D01*
X0013896Y0045341D02*
X0001020Y0045341D01*
X0001020Y0045303D02*
X0013896Y0045303D01*
X0013896Y0045265D02*
X0001020Y0045265D01*
X0001020Y0045227D02*
X0013896Y0045227D01*
X0013896Y0045189D02*
X0001020Y0045189D01*
X0001020Y0045152D02*
X0013896Y0045152D01*
X0013896Y0045114D02*
X0001020Y0045114D01*
X0001020Y0045076D02*
X0013896Y0045076D01*
X0013896Y0045038D02*
X0001020Y0045038D01*
X0001020Y0045000D02*
X0013896Y0045000D01*
X0013896Y0044962D02*
X0001020Y0044962D01*
X0001020Y0044924D02*
X0013896Y0044924D01*
X0013896Y0044886D02*
X0001020Y0044886D01*
X0001020Y0044848D02*
X0013896Y0044848D01*
X0013896Y0044811D02*
X0001020Y0044811D01*
X0001020Y0044773D02*
X0013896Y0044773D01*
X0013896Y0044735D02*
X0001020Y0044735D01*
X0001020Y0044697D02*
X0013896Y0044697D01*
X0013896Y0044659D02*
X0001020Y0044659D01*
X0001020Y0044621D02*
X0013896Y0044621D01*
X0013896Y0044583D02*
X0001020Y0044583D01*
X0001020Y0044545D02*
X0013896Y0044545D01*
X0013896Y0044508D02*
X0001020Y0044508D01*
X0001020Y0044470D02*
X0013896Y0044470D01*
X0013896Y0044432D02*
X0001020Y0044432D01*
X0001020Y0044394D02*
X0013896Y0044394D01*
X0013896Y0044356D02*
X0001020Y0044356D01*
X0001020Y0044318D02*
X0013896Y0044318D01*
X0013896Y0044280D02*
X0001020Y0044280D01*
X0001020Y0044242D02*
X0013896Y0044242D01*
X0013896Y0044204D02*
X0001020Y0044204D01*
X0001020Y0044167D02*
X0013896Y0044167D01*
X0013896Y0044129D02*
X0001020Y0044129D01*
X0001020Y0044091D02*
X0013896Y0044091D01*
X0013896Y0044053D02*
X0001020Y0044053D01*
X0001020Y0044015D02*
X0013896Y0044015D01*
X0013896Y0043977D02*
X0001020Y0043977D01*
X0001020Y0043939D02*
X0013896Y0043939D01*
X0013896Y0043901D02*
X0001020Y0043901D01*
X0001020Y0043864D02*
X0013896Y0043864D01*
X0013896Y0043826D02*
X0001020Y0043826D01*
X0001020Y0043788D02*
X0013896Y0043788D01*
X0013896Y0043750D02*
X0001020Y0043750D01*
X0001020Y0043712D02*
X0013896Y0043712D01*
X0013896Y0043674D02*
X0001020Y0043674D01*
X0001020Y0043636D02*
X0013896Y0043636D01*
X0013896Y0043598D02*
X0001020Y0043598D01*
X0001020Y0043560D02*
X0013896Y0043560D01*
X0013896Y0043523D02*
X0001020Y0043523D01*
X0001020Y0043485D02*
X0013896Y0043485D01*
X0013896Y0043447D02*
X0001020Y0043447D01*
X0001020Y0043409D02*
X0013896Y0043409D01*
X0013896Y0043371D02*
X0001020Y0043371D01*
X0001020Y0043333D02*
X0013896Y0043333D01*
X0013896Y0043295D02*
X0001020Y0043295D01*
X0001020Y0043257D02*
X0013896Y0043257D01*
X0013896Y0043220D02*
X0001020Y0043220D01*
X0001020Y0043182D02*
X0013644Y0043182D01*
X0013606Y0043144D02*
X0001020Y0043144D01*
X0001020Y0043106D02*
X0013568Y0043106D01*
X0013530Y0043068D02*
X0001020Y0043068D01*
X0001020Y0043030D02*
X0013492Y0043030D01*
X0013454Y0042992D02*
X0001020Y0042992D01*
X0001020Y0042954D02*
X0013417Y0042954D01*
X0013379Y0042917D02*
X0001020Y0042917D01*
X0001020Y0042879D02*
X0013341Y0042879D01*
X0013306Y0042841D02*
X0001020Y0042841D01*
X0001020Y0042803D02*
X0013306Y0042803D01*
X0013306Y0042765D02*
X0001020Y0042765D01*
X0001020Y0042727D02*
X0013306Y0042727D01*
X0013306Y0042689D02*
X0001020Y0042689D01*
X0001020Y0042651D02*
X0013306Y0042651D01*
X0013306Y0042613D02*
X0001020Y0042613D01*
X0001020Y0042576D02*
X0013306Y0042576D01*
X0013306Y0042538D02*
X0001020Y0042538D01*
X0001020Y0042500D02*
X0013306Y0042500D01*
X0013306Y0042462D02*
X0001020Y0042462D01*
X0001020Y0042424D02*
X0013306Y0042424D01*
X0013306Y0042386D02*
X0001020Y0042386D01*
X0001020Y0042348D02*
X0013306Y0042348D01*
X0013306Y0042310D02*
X0001020Y0042310D01*
X0001020Y0042273D02*
X0013306Y0042273D01*
X0013306Y0042235D02*
X0001020Y0042235D01*
X0001020Y0042197D02*
X0013306Y0042197D01*
X0013306Y0042159D02*
X0001020Y0042159D01*
X0001020Y0042121D02*
X0013306Y0042121D01*
X0013306Y0042083D02*
X0001020Y0042083D01*
X0001020Y0042045D02*
X0013306Y0042045D01*
X0013306Y0042007D02*
X0001020Y0042007D01*
X0001020Y0041969D02*
X0013306Y0041969D01*
X0013306Y0041932D02*
X0001020Y0041932D01*
X0001020Y0041894D02*
X0013306Y0041894D01*
X0013306Y0041856D02*
X0001020Y0041856D01*
X0001020Y0041818D02*
X0013306Y0041818D01*
X0013306Y0041780D02*
X0001020Y0041780D01*
X0001020Y0041742D02*
X0013306Y0041742D01*
X0013306Y0041704D02*
X0001020Y0041704D01*
X0001020Y0041666D02*
X0013306Y0041666D01*
X0013306Y0041629D02*
X0001020Y0041629D01*
X0001020Y0041591D02*
X0013306Y0041591D01*
X0013306Y0041553D02*
X0001020Y0041553D01*
X0001020Y0041515D02*
X0013306Y0041515D01*
X0013306Y0041477D02*
X0001020Y0041477D01*
X0001020Y0041439D02*
X0013306Y0041439D01*
X0013306Y0041401D02*
X0001020Y0041401D01*
X0001020Y0041363D02*
X0013306Y0041363D01*
X0013306Y0041325D02*
X0001020Y0041325D01*
X0001020Y0041288D02*
X0013306Y0041288D01*
X0013306Y0041250D02*
X0001020Y0041250D01*
X0001020Y0041212D02*
X0013306Y0041212D01*
X0013306Y0041174D02*
X0001020Y0041174D01*
X0001020Y0041136D02*
X0013306Y0041136D01*
X0013306Y0041098D02*
X0001020Y0041098D01*
X0001020Y0041060D02*
X0013306Y0041060D01*
X0013306Y0041022D02*
X0001020Y0041022D01*
X0001020Y0040985D02*
X0013306Y0040985D01*
X0013306Y0040947D02*
X0001020Y0040947D01*
X0001020Y0040909D02*
X0013306Y0040909D01*
X0013306Y0040871D02*
X0001020Y0040871D01*
X0001020Y0040833D02*
X0013306Y0040833D01*
X0013306Y0040795D02*
X0001020Y0040795D01*
X0001020Y0040757D02*
X0013306Y0040757D01*
X0013306Y0040719D02*
X0001020Y0040719D01*
X0001020Y0040682D02*
X0013306Y0040682D01*
X0013306Y0040644D02*
X0001020Y0040644D01*
X0001020Y0040606D02*
X0013306Y0040606D01*
X0013306Y0040568D02*
X0001020Y0040568D01*
X0001020Y0040530D02*
X0013306Y0040530D01*
X0013306Y0040492D02*
X0001020Y0040492D01*
X0001020Y0040454D02*
X0013306Y0040454D01*
X0013306Y0040416D02*
X0001020Y0040416D01*
X0001020Y0040378D02*
X0013306Y0040378D01*
X0013306Y0040341D02*
X0001020Y0040341D01*
X0001020Y0040303D02*
X0013306Y0040303D01*
X0013306Y0040265D02*
X0001020Y0040265D01*
X0001020Y0040227D02*
X0013306Y0040227D01*
X0013306Y0040189D02*
X0001020Y0040189D01*
X0001020Y0040151D02*
X0013306Y0040151D01*
X0013306Y0040113D02*
X0001020Y0040113D01*
X0001020Y0040075D02*
X0013306Y0040075D01*
X0013306Y0040038D02*
X0001020Y0040038D01*
X0001020Y0040000D02*
X0013306Y0040000D01*
X0013311Y0039962D02*
X0001020Y0039962D01*
X0001020Y0039924D02*
X0013349Y0039924D01*
X0013387Y0039886D02*
X0001020Y0039886D01*
X0001020Y0039848D02*
X0013425Y0039848D01*
X0013463Y0039810D02*
X0001020Y0039810D01*
X0001020Y0039772D02*
X0013501Y0039772D01*
X0013539Y0039734D02*
X0001020Y0039734D01*
X0001020Y0039697D02*
X0013577Y0039697D01*
X0013615Y0039659D02*
X0001020Y0039659D01*
X0001020Y0039621D02*
X0013626Y0039621D01*
X0013588Y0039583D02*
X0001020Y0039583D01*
X0001020Y0039545D02*
X0013551Y0039545D01*
X0013513Y0039507D02*
X0001020Y0039507D01*
X0001020Y0039469D02*
X0013475Y0039469D01*
X0013437Y0039431D02*
X0001020Y0039431D01*
X0001020Y0039394D02*
X0013399Y0039394D01*
X0013361Y0039356D02*
X0001020Y0039356D01*
X0001020Y0039318D02*
X0013323Y0039318D01*
X0013306Y0039280D02*
X0001020Y0039280D01*
X0001020Y0039242D02*
X0013306Y0039242D01*
X0013306Y0039204D02*
X0001020Y0039204D01*
X0001020Y0039166D02*
X0013306Y0039166D01*
X0013306Y0039128D02*
X0001020Y0039128D01*
X0001020Y0039090D02*
X0013306Y0039090D01*
X0013306Y0039053D02*
X0001020Y0039053D01*
X0001020Y0039015D02*
X0013306Y0039015D01*
X0013306Y0038977D02*
X0001020Y0038977D01*
X0001020Y0038939D02*
X0013306Y0038939D01*
X0013306Y0038901D02*
X0001020Y0038901D01*
X0001020Y0038863D02*
X0013306Y0038863D01*
X0013306Y0038825D02*
X0001020Y0038825D01*
X0001020Y0038787D02*
X0013306Y0038787D01*
X0013306Y0038750D02*
X0001020Y0038750D01*
X0001020Y0038712D02*
X0013306Y0038712D01*
X0013306Y0038674D02*
X0001020Y0038674D01*
X0001020Y0038636D02*
X0013306Y0038636D01*
X0013306Y0038598D02*
X0001020Y0038598D01*
X0001020Y0038560D02*
X0013306Y0038560D01*
X0013306Y0038522D02*
X0001020Y0038522D01*
X0001020Y0038484D02*
X0013306Y0038484D01*
X0013306Y0038447D02*
X0001020Y0038447D01*
X0001020Y0038409D02*
X0013306Y0038409D01*
X0013306Y0038371D02*
X0001020Y0038371D01*
X0001020Y0038333D02*
X0013306Y0038333D01*
X0013306Y0038295D02*
X0001020Y0038295D01*
X0001020Y0038257D02*
X0013306Y0038257D01*
X0013306Y0038219D02*
X0001020Y0038219D01*
X0001020Y0038181D02*
X0013306Y0038181D01*
X0013306Y0038143D02*
X0001020Y0038143D01*
X0001020Y0038106D02*
X0013306Y0038106D01*
X0013306Y0038068D02*
X0001020Y0038068D01*
X0001020Y0038030D02*
X0013306Y0038030D01*
X0013306Y0037992D02*
X0001020Y0037992D01*
X0001020Y0037954D02*
X0013306Y0037954D01*
X0013306Y0037916D02*
X0001020Y0037916D01*
X0001020Y0037878D02*
X0013306Y0037878D01*
X0013306Y0037840D02*
X0001020Y0037840D01*
X0001020Y0037803D02*
X0013306Y0037803D01*
X0013306Y0037765D02*
X0001020Y0037765D01*
X0001020Y0037727D02*
X0013306Y0037727D01*
X0013306Y0037689D02*
X0001020Y0037689D01*
X0001020Y0037651D02*
X0013306Y0037651D01*
X0013306Y0037613D02*
X0001020Y0037613D01*
X0001020Y0037575D02*
X0013306Y0037575D01*
X0013306Y0037537D02*
X0001020Y0037537D01*
X0001020Y0037499D02*
X0013306Y0037499D01*
X0013306Y0037462D02*
X0001020Y0037462D01*
X0001020Y0037424D02*
X0013306Y0037424D01*
X0013306Y0037386D02*
X0001020Y0037386D01*
X0001020Y0037348D02*
X0013306Y0037348D01*
X0013306Y0037310D02*
X0001020Y0037310D01*
X0001020Y0037272D02*
X0013306Y0037272D01*
X0013306Y0037234D02*
X0001020Y0037234D01*
X0001020Y0037196D02*
X0013306Y0037196D01*
X0013306Y0037159D02*
X0001020Y0037159D01*
X0001020Y0037121D02*
X0013306Y0037121D01*
X0013306Y0037083D02*
X0001020Y0037083D01*
X0001020Y0037045D02*
X0013306Y0037045D01*
X0013306Y0037007D02*
X0001020Y0037007D01*
X0001020Y0036969D02*
X0013306Y0036969D01*
X0013306Y0036931D02*
X0001020Y0036931D01*
X0001020Y0036893D02*
X0013306Y0036893D01*
X0013306Y0036855D02*
X0001020Y0036855D01*
X0001020Y0036818D02*
X0013306Y0036818D01*
X0013306Y0036780D02*
X0001020Y0036780D01*
X0001020Y0036742D02*
X0013306Y0036742D01*
X0013306Y0036704D02*
X0001020Y0036704D01*
X0001020Y0036666D02*
X0013306Y0036666D01*
X0013306Y0036628D02*
X0001020Y0036628D01*
X0001020Y0036590D02*
X0013306Y0036590D01*
X0013306Y0036552D02*
X0001020Y0036552D01*
X0001020Y0036515D02*
X0013306Y0036515D01*
X0013306Y0036477D02*
X0001020Y0036477D01*
X0001020Y0036439D02*
X0013306Y0036439D01*
X0013329Y0036401D02*
X0001020Y0036401D01*
X0001020Y0036363D02*
X0013367Y0036363D01*
X0013405Y0036325D02*
X0001020Y0036325D01*
X0001020Y0036287D02*
X0013443Y0036287D01*
X0013481Y0036249D02*
X0001020Y0036249D01*
X0001020Y0036212D02*
X0013518Y0036212D01*
X0013556Y0036174D02*
X0001020Y0036174D01*
X0001020Y0036136D02*
X0013594Y0036136D01*
X0013632Y0036098D02*
X0001020Y0036098D01*
X0001020Y0036060D02*
X0013896Y0036060D01*
X0013896Y0036022D02*
X0001020Y0036022D01*
X0001020Y0035984D02*
X0013896Y0035984D01*
X0013896Y0035946D02*
X0001020Y0035946D01*
X0001020Y0035908D02*
X0013896Y0035908D01*
X0013927Y0035871D02*
X0001020Y0035871D01*
X0001020Y0035833D02*
X0013965Y0035833D01*
X0014003Y0035795D02*
X0001020Y0035795D01*
X0001020Y0035757D02*
X0014041Y0035757D01*
X0014078Y0035719D02*
X0001020Y0035719D01*
X0001020Y0035681D02*
X0014116Y0035681D01*
X0014154Y0035643D02*
X0001020Y0035643D01*
X0001020Y0035605D02*
X0014192Y0035605D01*
X0014230Y0035568D02*
X0001020Y0035568D01*
X0001020Y0035530D02*
X0014268Y0035530D01*
X0014306Y0035492D02*
X0001020Y0035492D01*
X0001020Y0035454D02*
X0014344Y0035454D01*
X0014381Y0035416D02*
X0001020Y0035416D01*
X0001020Y0035378D02*
X0014419Y0035378D01*
X0014457Y0035340D02*
X0001020Y0035340D01*
X0001020Y0035302D02*
X0014495Y0035302D01*
X0014533Y0035264D02*
X0001020Y0035264D01*
X0001020Y0035227D02*
X0014571Y0035227D01*
X0014609Y0035189D02*
X0001020Y0035189D01*
X0001020Y0035151D02*
X0014647Y0035151D01*
X0014685Y0035113D02*
X0001020Y0035113D01*
X0001020Y0035075D02*
X0014722Y0035075D01*
X0014760Y0035037D02*
X0001020Y0035037D01*
X0001020Y0034999D02*
X0014798Y0034999D01*
X0014836Y0034961D02*
X0001020Y0034961D01*
X0001020Y0034924D02*
X0014874Y0034924D01*
X0014912Y0034886D02*
X0001020Y0034886D01*
X0001020Y0034848D02*
X0014950Y0034848D01*
X0014988Y0034810D02*
X0001020Y0034810D01*
X0001020Y0034772D02*
X0015025Y0034772D01*
X0015063Y0034734D02*
X0001020Y0034734D01*
X0001020Y0034696D02*
X0015101Y0034696D01*
X0015139Y0034658D02*
X0001020Y0034658D01*
X0001020Y0034620D02*
X0015177Y0034620D01*
X0015215Y0034583D02*
X0001020Y0034583D01*
X0001020Y0034545D02*
X0015253Y0034545D01*
X0015291Y0034507D02*
X0001020Y0034507D01*
X0001020Y0034469D02*
X0015329Y0034469D01*
X0015366Y0034431D02*
X0001020Y0034431D01*
X0001020Y0034393D02*
X0015404Y0034393D01*
X0015442Y0034355D02*
X0001020Y0034355D01*
X0001020Y0034317D02*
X0015480Y0034317D01*
X0015518Y0034280D02*
X0001020Y0034280D01*
X0001020Y0034242D02*
X0015556Y0034242D01*
X0015594Y0034204D02*
X0001020Y0034204D01*
X0001020Y0034166D02*
X0015632Y0034166D01*
X0015669Y0034128D02*
X0001020Y0034128D01*
X0001020Y0034090D02*
X0015707Y0034090D01*
X0015745Y0034052D02*
X0001020Y0034052D01*
X0001020Y0034014D02*
X0015783Y0034014D01*
X0015821Y0033977D02*
X0001020Y0033977D01*
X0001020Y0033939D02*
X0015859Y0033939D01*
X0015897Y0033901D02*
X0001020Y0033901D01*
X0001020Y0033863D02*
X0015935Y0033863D01*
X0015973Y0033825D02*
X0001020Y0033825D01*
X0001020Y0033787D02*
X0016010Y0033787D01*
X0016048Y0033749D02*
X0001020Y0033749D01*
X0001020Y0033711D02*
X0016086Y0033711D01*
X0016124Y0033673D02*
X0001020Y0033673D01*
X0001020Y0033636D02*
X0016162Y0033636D01*
X0016200Y0033598D02*
X0001020Y0033598D01*
X0001020Y0033560D02*
X0016238Y0033560D01*
X0016276Y0033522D02*
X0001020Y0033522D01*
X0001020Y0033484D02*
X0016313Y0033484D01*
X0016351Y0033446D02*
X0001020Y0033446D01*
X0001020Y0033408D02*
X0016389Y0033408D01*
X0016427Y0033370D02*
X0001020Y0033370D01*
X0001020Y0033333D02*
X0016465Y0033333D01*
X0016503Y0033295D02*
X0001020Y0033295D01*
X0001020Y0033257D02*
X0016541Y0033257D01*
X0016579Y0033219D02*
X0001020Y0033219D01*
X0001020Y0033181D02*
X0016616Y0033181D01*
X0016654Y0033143D02*
X0001020Y0033143D01*
X0001020Y0033105D02*
X0016692Y0033105D01*
X0016730Y0033067D02*
X0001020Y0033067D01*
X0001020Y0033029D02*
X0016768Y0033029D01*
X0016806Y0032992D02*
X0001020Y0032992D01*
X0001020Y0032954D02*
X0016844Y0032954D01*
X0016882Y0032916D02*
X0001020Y0032916D01*
X0001020Y0032878D02*
X0016920Y0032878D01*
X0016957Y0032840D02*
X0001020Y0032840D01*
X0001020Y0032802D02*
X0016995Y0032802D01*
X0017033Y0032764D02*
X0001020Y0032764D01*
X0001020Y0032726D02*
X0017071Y0032726D01*
X0017109Y0032689D02*
X0001020Y0032689D01*
X0001020Y0032651D02*
X0017147Y0032651D01*
X0017185Y0032613D02*
X0001020Y0032613D01*
X0001020Y0032575D02*
X0008644Y0032575D01*
X0008502Y0032537D02*
X0001020Y0032537D01*
X0001020Y0032499D02*
X0008389Y0032499D01*
X0008324Y0032461D02*
X0001020Y0032461D01*
X0001020Y0032423D02*
X0008258Y0032423D01*
X0008192Y0032385D02*
X0001020Y0032385D01*
X0001020Y0032348D02*
X0008150Y0032348D01*
X0008112Y0032310D02*
X0001020Y0032310D01*
X0001020Y0032272D02*
X0008074Y0032272D01*
X0008036Y0032234D02*
X0001020Y0032234D01*
X0001020Y0032196D02*
X0007998Y0032196D01*
X0007973Y0032158D02*
X0001020Y0032158D01*
X0001020Y0032120D02*
X0007951Y0032120D01*
X0007930Y0032082D02*
X0001020Y0032082D01*
X0001020Y0032045D02*
X0007908Y0032045D01*
X0007886Y0032007D02*
X0001020Y0032007D01*
X0001020Y0031969D02*
X0007864Y0031969D01*
X0007850Y0031931D02*
X0001020Y0031931D01*
X0001020Y0031893D02*
X0007840Y0031893D01*
X0007830Y0031855D02*
X0001020Y0031855D01*
X0001020Y0031817D02*
X0007820Y0031817D01*
X0007809Y0031779D02*
X0001020Y0031779D01*
X0001020Y0031741D02*
X0007799Y0031741D01*
X0007789Y0031704D02*
X0001020Y0031704D01*
X0001020Y0031666D02*
X0007787Y0031666D01*
X0007787Y0031628D02*
X0001020Y0031628D01*
X0001020Y0031590D02*
X0007787Y0031590D01*
X0007787Y0031552D02*
X0001020Y0031552D01*
X0001020Y0031514D02*
X0007787Y0031514D01*
X0007787Y0031476D02*
X0001020Y0031476D01*
X0001020Y0031438D02*
X0007787Y0031438D01*
X0007787Y0031401D02*
X0001020Y0031401D01*
X0001020Y0031363D02*
X0007787Y0031363D01*
X0007787Y0031325D02*
X0001020Y0031325D01*
X0001020Y0031287D02*
X0007787Y0031287D01*
X0007787Y0031249D02*
X0001020Y0031249D01*
X0001020Y0031211D02*
X0007787Y0031211D01*
X0007787Y0031173D02*
X0001020Y0031173D01*
X0001020Y0031135D02*
X0007787Y0031135D01*
X0007787Y0031098D02*
X0001020Y0031098D01*
X0001020Y0031060D02*
X0007787Y0031060D01*
X0007787Y0031022D02*
X0001020Y0031022D01*
X0001020Y0030984D02*
X0007787Y0030984D01*
X0007787Y0030946D02*
X0001020Y0030946D01*
X0001020Y0030908D02*
X0007787Y0030908D01*
X0007787Y0030870D02*
X0001020Y0030870D01*
X0001020Y0030832D02*
X0007787Y0030832D01*
X0007787Y0030794D02*
X0001020Y0030794D01*
X0001020Y0030757D02*
X0007787Y0030757D01*
X0007787Y0030719D02*
X0001020Y0030719D01*
X0001020Y0030681D02*
X0007787Y0030681D01*
X0007787Y0030643D02*
X0001020Y0030643D01*
X0001020Y0030605D02*
X0007787Y0030605D01*
X0007787Y0030567D02*
X0001020Y0030567D01*
X0001020Y0030529D02*
X0007787Y0030529D01*
X0007787Y0030491D02*
X0001020Y0030491D01*
X0001020Y0030454D02*
X0007787Y0030454D01*
X0007787Y0030416D02*
X0001020Y0030416D01*
X0001020Y0030378D02*
X0007787Y0030378D01*
X0007787Y0030340D02*
X0001020Y0030340D01*
X0001020Y0030302D02*
X0007787Y0030302D01*
X0007787Y0030264D02*
X0001020Y0030264D01*
X0001020Y0030226D02*
X0007787Y0030226D01*
X0007787Y0030150D02*
X0001020Y0030150D01*
X0001020Y0030113D02*
X0007787Y0030113D01*
X0007787Y0030075D02*
X0001020Y0030075D01*
X0001020Y0030037D02*
X0007787Y0030037D01*
X0007787Y0029999D02*
X0001020Y0029999D01*
X0001020Y0029961D02*
X0007787Y0029961D01*
X0007787Y0029923D02*
X0001020Y0029923D01*
X0001020Y0029885D02*
X0007787Y0029885D01*
X0007787Y0029847D02*
X0001020Y0029847D01*
X0001020Y0029810D02*
X0007787Y0029810D01*
X0007787Y0029772D02*
X0001020Y0029772D01*
X0001020Y0029734D02*
X0007787Y0029734D01*
X0007787Y0029696D02*
X0001020Y0029696D01*
X0001020Y0029658D02*
X0007787Y0029658D01*
X0007787Y0029620D02*
X0001020Y0029620D01*
X0001020Y0029582D02*
X0007787Y0029582D01*
X0007787Y0029544D02*
X0001020Y0029544D01*
X0001020Y0029506D02*
X0007787Y0029506D01*
X0007787Y0029469D02*
X0001020Y0029469D01*
X0001020Y0029431D02*
X0007787Y0029431D01*
X0007787Y0029393D02*
X0001020Y0029393D01*
X0001020Y0029355D02*
X0007787Y0029355D01*
X0007787Y0029317D02*
X0001020Y0029317D01*
X0001020Y0029279D02*
X0007787Y0029279D01*
X0007787Y0029241D02*
X0001020Y0029241D01*
X0001020Y0029203D02*
X0007787Y0029203D01*
X0007787Y0029166D02*
X0001020Y0029166D01*
X0001020Y0029128D02*
X0007787Y0029128D01*
X0007787Y0029090D02*
X0001020Y0029090D01*
X0001020Y0029052D02*
X0007787Y0029052D01*
X0007787Y0029014D02*
X0001020Y0029014D01*
X0001020Y0028976D02*
X0007787Y0028976D01*
X0007787Y0028938D02*
X0001020Y0028938D01*
X0001020Y0028900D02*
X0007787Y0028900D01*
X0007787Y0028863D02*
X0001020Y0028863D01*
X0001020Y0028825D02*
X0007787Y0028825D01*
X0007787Y0028787D02*
X0001020Y0028787D01*
X0001020Y0028749D02*
X0007787Y0028749D01*
X0007787Y0028711D02*
X0001020Y0028711D01*
X0001020Y0028597D02*
X0007808Y0028597D01*
X0007818Y0028559D02*
X0001020Y0028559D01*
X0001020Y0028522D02*
X0007828Y0028522D01*
X0007838Y0028484D02*
X0001020Y0028484D01*
X0001020Y0028446D02*
X0007848Y0028446D01*
X0007860Y0028408D02*
X0001020Y0028408D01*
X0001020Y0028370D02*
X0007882Y0028370D01*
X0007904Y0028332D02*
X0001020Y0028332D01*
X0001020Y0028294D02*
X0007926Y0028294D01*
X0007948Y0028256D02*
X0001020Y0028256D01*
X0001020Y0028219D02*
X0007969Y0028219D01*
X0007950Y0028181D02*
X0001020Y0028181D01*
X0001020Y0028143D02*
X0007928Y0028143D01*
X0007906Y0028105D02*
X0001020Y0028105D01*
X0001020Y0028067D02*
X0007884Y0028067D01*
X0007862Y0028029D02*
X0001020Y0028029D01*
X0001020Y0027991D02*
X0007849Y0027991D01*
X0007839Y0027953D02*
X0001020Y0027953D01*
X0001020Y0027915D02*
X0007829Y0027915D01*
X0007819Y0027878D02*
X0001020Y0027878D01*
X0001020Y0027840D02*
X0007809Y0027840D01*
X0007799Y0027802D02*
X0001020Y0027802D01*
X0001020Y0027764D02*
X0007788Y0027764D01*
X0007787Y0027726D02*
X0001020Y0027726D01*
X0001020Y0027688D02*
X0007787Y0027688D01*
X0007787Y0027650D02*
X0001020Y0027650D01*
X0001020Y0027612D02*
X0007787Y0027612D01*
X0007787Y0027575D02*
X0001020Y0027575D01*
X0001020Y0027537D02*
X0007787Y0027537D01*
X0007787Y0027499D02*
X0001020Y0027499D01*
X0001020Y0027461D02*
X0007787Y0027461D01*
X0007787Y0027423D02*
X0001020Y0027423D01*
X0001020Y0027385D02*
X0007787Y0027385D01*
X0007787Y0027347D02*
X0001020Y0027347D01*
X0001020Y0027309D02*
X0007787Y0027309D01*
X0007787Y0027271D02*
X0001020Y0027271D01*
X0001020Y0027234D02*
X0007787Y0027234D01*
X0007787Y0027196D02*
X0001020Y0027196D01*
X0001020Y0027158D02*
X0007787Y0027158D01*
X0007787Y0027120D02*
X0001020Y0027120D01*
X0001020Y0027082D02*
X0007787Y0027082D01*
X0007787Y0027044D02*
X0001020Y0027044D01*
X0001020Y0027006D02*
X0007787Y0027006D01*
X0007787Y0026968D02*
X0001020Y0026968D01*
X0001020Y0026931D02*
X0007787Y0026931D01*
X0007787Y0026893D02*
X0001020Y0026893D01*
X0001020Y0026855D02*
X0007787Y0026855D01*
X0007787Y0026817D02*
X0001020Y0026817D01*
X0001020Y0026779D02*
X0007787Y0026779D01*
X0007787Y0026741D02*
X0001020Y0026741D01*
X0001020Y0026703D02*
X0007787Y0026703D01*
X0007787Y0026665D02*
X0001020Y0026665D01*
X0001020Y0026628D02*
X0007787Y0026628D01*
X0007787Y0026590D02*
X0001020Y0026590D01*
X0001020Y0026552D02*
X0007787Y0026552D01*
X0007787Y0026514D02*
X0001020Y0026514D01*
X0001020Y0026476D02*
X0007787Y0026476D01*
X0007787Y0026438D02*
X0001020Y0026438D01*
X0001020Y0026400D02*
X0007787Y0026400D01*
X0007787Y0026362D02*
X0001020Y0026362D01*
X0001020Y0026324D02*
X0007787Y0026324D01*
X0007787Y0026287D02*
X0001020Y0026287D01*
X0001020Y0026249D02*
X0009968Y0026249D01*
X0009969Y0026268D02*
X0009969Y0030165D01*
X0010008Y0030165D01*
X0010008Y0027787D01*
X0010008Y0026268D01*
X0009969Y0026268D01*
X0009969Y0026287D02*
X0010008Y0026287D01*
X0010008Y0026324D02*
X0009969Y0026324D01*
X0009969Y0026362D02*
X0010008Y0026362D01*
X0010008Y0026400D02*
X0009969Y0026400D01*
X0009969Y0026438D02*
X0010008Y0026438D01*
X0010008Y0026476D02*
X0009969Y0026476D01*
X0009969Y0026514D02*
X0010008Y0026514D01*
X0010008Y0026552D02*
X0009969Y0026552D01*
X0009969Y0026590D02*
X0010008Y0026590D01*
X0010008Y0026628D02*
X0009969Y0026628D01*
X0009969Y0026665D02*
X0010008Y0026665D01*
X0010008Y0026703D02*
X0009969Y0026703D01*
X0009969Y0026741D02*
X0010008Y0026741D01*
X0010008Y0026779D02*
X0009969Y0026779D01*
X0009969Y0026817D02*
X0010008Y0026817D01*
X0010008Y0026855D02*
X0009969Y0026855D01*
X0009969Y0026893D02*
X0010008Y0026893D01*
X0010008Y0026931D02*
X0009969Y0026931D01*
X0009969Y0026968D02*
X0010008Y0026968D01*
X0010008Y0027006D02*
X0009969Y0027006D01*
X0009969Y0027044D02*
X0010008Y0027044D01*
X0010008Y0027082D02*
X0009969Y0027082D01*
X0009969Y0027120D02*
X0010008Y0027120D01*
X0010008Y0027158D02*
X0009969Y0027158D01*
X0009969Y0027196D02*
X0010008Y0027196D01*
X0010008Y0027234D02*
X0009969Y0027234D01*
X0009969Y0027271D02*
X0010008Y0027271D01*
X0010008Y0027309D02*
X0009969Y0027309D01*
X0009969Y0027347D02*
X0010008Y0027347D01*
X0010008Y0027385D02*
X0009969Y0027385D01*
X0009969Y0027423D02*
X0010008Y0027423D01*
X0010008Y0027461D02*
X0009969Y0027461D01*
X0009969Y0027499D02*
X0010008Y0027499D01*
X0010008Y0027537D02*
X0009969Y0027537D01*
X0009969Y0027575D02*
X0010008Y0027575D01*
X0010008Y0027612D02*
X0009969Y0027612D01*
X0009969Y0027650D02*
X0010008Y0027650D01*
X0010008Y0027688D02*
X0009969Y0027688D01*
X0009969Y0027726D02*
X0010008Y0027726D01*
X0010008Y0027764D02*
X0009969Y0027764D01*
X0009969Y0027802D02*
X0010008Y0027802D01*
X0010008Y0027840D02*
X0009969Y0027840D01*
X0009969Y0027878D02*
X0010008Y0027878D01*
X0010008Y0027915D02*
X0009969Y0027915D01*
X0009969Y0027953D02*
X0010008Y0027953D01*
X0010008Y0027991D02*
X0009969Y0027991D01*
X0009969Y0028029D02*
X0010008Y0028029D01*
X0010008Y0028067D02*
X0009969Y0028067D01*
X0009969Y0028105D02*
X0010008Y0028105D01*
X0010008Y0028143D02*
X0009969Y0028143D01*
X0009969Y0028181D02*
X0010008Y0028181D01*
X0010008Y0028219D02*
X0009969Y0028219D01*
X0009969Y0028256D02*
X0010008Y0028256D01*
X0010008Y0028294D02*
X0009969Y0028294D01*
X0009969Y0028332D02*
X0010008Y0028332D01*
X0010008Y0028370D02*
X0009969Y0028370D01*
X0009969Y0028408D02*
X0010008Y0028408D01*
X0010008Y0028446D02*
X0009969Y0028446D01*
X0009969Y0028484D02*
X0010008Y0028484D01*
X0010008Y0028522D02*
X0009969Y0028522D01*
X0009969Y0028559D02*
X0010008Y0028559D01*
X0010008Y0028597D02*
X0009969Y0028597D01*
X0009969Y0028635D02*
X0010008Y0028635D01*
X0010008Y0028673D02*
X0009969Y0028673D01*
X0009969Y0028711D02*
X0010008Y0028711D01*
X0010008Y0028749D02*
X0009969Y0028749D01*
X0009969Y0028787D02*
X0010008Y0028787D01*
X0010008Y0028825D02*
X0009969Y0028825D01*
X0009969Y0028863D02*
X0010008Y0028863D01*
X0010008Y0028900D02*
X0009969Y0028900D01*
X0009969Y0028938D02*
X0010008Y0028938D01*
X0010008Y0028976D02*
X0009969Y0028976D01*
X0009969Y0029014D02*
X0010008Y0029014D01*
X0010008Y0029052D02*
X0009969Y0029052D01*
X0009969Y0029090D02*
X0010008Y0029090D01*
X0010008Y0029128D02*
X0009969Y0029128D01*
X0009969Y0029166D02*
X0010008Y0029166D01*
X0010008Y0029203D02*
X0009969Y0029203D01*
X0009969Y0029241D02*
X0010008Y0029241D01*
X0010008Y0029279D02*
X0009969Y0029279D01*
X0009969Y0029317D02*
X0010008Y0029317D01*
X0010008Y0029355D02*
X0009969Y0029355D01*
X0009969Y0029393D02*
X0010008Y0029393D01*
X0010008Y0029431D02*
X0009969Y0029431D01*
X0009969Y0029469D02*
X0010008Y0029469D01*
X0010008Y0029506D02*
X0009969Y0029506D01*
X0009969Y0029544D02*
X0010008Y0029544D01*
X0010008Y0029582D02*
X0009969Y0029582D01*
X0009969Y0029620D02*
X0010008Y0029620D01*
X0010008Y0029658D02*
X0009969Y0029658D01*
X0009969Y0029696D02*
X0010008Y0029696D01*
X0010008Y0029734D02*
X0009969Y0029734D01*
X0009969Y0029772D02*
X0010008Y0029772D01*
X0010008Y0029810D02*
X0009969Y0029810D01*
X0009969Y0029847D02*
X0010008Y0029847D01*
X0010008Y0029885D02*
X0009969Y0029885D01*
X0009969Y0029923D02*
X0010008Y0029923D01*
X0010008Y0029961D02*
X0009969Y0029961D01*
X0009969Y0029999D02*
X0010008Y0029999D01*
X0010008Y0030037D02*
X0009969Y0030037D01*
X0009969Y0030075D02*
X0010008Y0030075D01*
X0010008Y0030113D02*
X0009969Y0030113D01*
X0009969Y0030150D02*
X0010008Y0030150D01*
X0009968Y0030188D02*
X0001020Y0030188D01*
X0001020Y0026211D02*
X0007787Y0026211D01*
X0007787Y0026173D02*
X0001020Y0026173D01*
X0001020Y0026135D02*
X0007787Y0026135D01*
X0007787Y0026097D02*
X0001020Y0026097D01*
X0001020Y0026059D02*
X0007787Y0026059D01*
X0007787Y0026021D02*
X0001020Y0026021D01*
X0001020Y0025984D02*
X0007787Y0025984D01*
X0007787Y0025946D02*
X0001020Y0025946D01*
X0001020Y0025908D02*
X0007787Y0025908D01*
X0007787Y0025870D02*
X0001020Y0025870D01*
X0001020Y0025832D02*
X0007787Y0025832D01*
X0007787Y0025794D02*
X0001020Y0025794D01*
X0001020Y0025756D02*
X0007787Y0025756D01*
X0007787Y0025718D02*
X0001020Y0025718D01*
X0001020Y0025680D02*
X0007787Y0025680D01*
X0007787Y0025643D02*
X0001020Y0025643D01*
X0001020Y0025605D02*
X0007787Y0025605D01*
X0007787Y0025567D02*
X0001020Y0025567D01*
X0001020Y0025529D02*
X0007787Y0025529D01*
X0007787Y0025491D02*
X0001020Y0025491D01*
X0001020Y0025453D02*
X0007787Y0025453D01*
X0007787Y0025415D02*
X0001020Y0025415D01*
X0001020Y0025377D02*
X0007787Y0025377D01*
X0007787Y0025340D02*
X0001020Y0025340D01*
X0001020Y0025302D02*
X0007787Y0025302D01*
X0007787Y0025264D02*
X0001020Y0025264D01*
X0001020Y0025226D02*
X0007787Y0025226D01*
X0007787Y0025188D02*
X0001020Y0025188D01*
X0001020Y0025150D02*
X0007787Y0025150D01*
X0007787Y0025112D02*
X0001020Y0025112D01*
X0001020Y0025074D02*
X0007787Y0025074D01*
X0007787Y0025036D02*
X0001020Y0025036D01*
X0001020Y0024999D02*
X0007787Y0024999D01*
X0007787Y0024961D02*
X0001020Y0024961D01*
X0001020Y0024923D02*
X0007787Y0024923D01*
X0007787Y0024885D02*
X0001020Y0024885D01*
X0001020Y0024847D02*
X0007787Y0024847D01*
X0007787Y0024809D02*
X0001020Y0024809D01*
X0001020Y0024771D02*
X0007787Y0024771D01*
X0007788Y0024733D02*
X0001020Y0024733D01*
X0001020Y0024696D02*
X0007798Y0024696D01*
X0007808Y0024658D02*
X0001020Y0024658D01*
X0001020Y0024620D02*
X0007818Y0024620D01*
X0007829Y0024582D02*
X0001020Y0024582D01*
X0001020Y0024544D02*
X0007839Y0024544D01*
X0007849Y0024506D02*
X0001020Y0024506D01*
X0001020Y0024468D02*
X0007862Y0024468D01*
X0007884Y0024430D02*
X0001020Y0024430D01*
X0001020Y0024393D02*
X0007905Y0024393D01*
X0007927Y0024355D02*
X0001020Y0024355D01*
X0001020Y0024317D02*
X0007949Y0024317D01*
X0007971Y0024279D02*
X0001020Y0024279D01*
X0001020Y0024241D02*
X0007994Y0024241D01*
X0008032Y0024203D02*
X0001020Y0024203D01*
X0001020Y0024165D02*
X0008070Y0024165D01*
X0008108Y0024127D02*
X0001020Y0024127D01*
X0001020Y0024089D02*
X0008146Y0024089D01*
X0008185Y0024052D02*
X0001020Y0024052D01*
X0001020Y0024014D02*
X0008251Y0024014D01*
X0008317Y0023976D02*
X0001020Y0023976D01*
X0001020Y0023938D02*
X0008382Y0023938D01*
X0008488Y0023900D02*
X0001020Y0023900D01*
X0001020Y0023862D02*
X0008629Y0023862D01*
X0009969Y0030226D02*
X0010008Y0030226D01*
X0010008Y0030264D02*
X0009969Y0030264D01*
X0009969Y0030302D02*
X0010008Y0030302D01*
X0010008Y0030340D02*
X0009969Y0030340D01*
X0009969Y0030378D02*
X0010008Y0030378D01*
X0010008Y0030416D02*
X0009969Y0030416D01*
X0009969Y0030454D02*
X0010008Y0030454D01*
X0010008Y0030491D02*
X0009969Y0030491D01*
X0009969Y0030529D02*
X0010008Y0030529D01*
X0010008Y0030567D02*
X0009969Y0030567D01*
X0009969Y0030605D02*
X0010008Y0030605D01*
X0010008Y0030643D02*
X0009969Y0030643D01*
X0009969Y0030681D02*
X0010008Y0030681D01*
X0010008Y0030719D02*
X0009969Y0030719D01*
X0009969Y0030757D02*
X0010008Y0030757D01*
X0010008Y0030794D02*
X0009969Y0030794D01*
X0009969Y0030832D02*
X0010008Y0030832D01*
X0010008Y0030870D02*
X0009969Y0030870D01*
X0009969Y0030908D02*
X0010008Y0030908D01*
X0010008Y0030946D02*
X0009969Y0030946D01*
X0009969Y0030984D02*
X0010008Y0030984D01*
X0010008Y0031022D02*
X0009969Y0031022D01*
X0009969Y0031060D02*
X0010008Y0031060D01*
X0010008Y0031098D02*
X0009969Y0031098D01*
X0009969Y0031135D02*
X0010008Y0031135D01*
X0010008Y0031173D02*
X0009969Y0031173D01*
X0009969Y0031211D02*
X0010008Y0031211D01*
X0010008Y0031249D02*
X0009969Y0031249D01*
X0009969Y0031287D02*
X0010008Y0031287D01*
X0010008Y0031325D02*
X0009969Y0031325D01*
X0009969Y0031363D02*
X0010008Y0031363D01*
X0010008Y0031401D02*
X0009969Y0031401D01*
X0009969Y0031438D02*
X0010008Y0031438D01*
X0010008Y0031476D02*
X0009969Y0031476D01*
X0009969Y0031514D02*
X0010008Y0031514D01*
X0010008Y0031552D02*
X0009969Y0031552D01*
X0009969Y0031590D02*
X0010008Y0031590D01*
X0010008Y0031628D02*
X0009969Y0031628D01*
X0009969Y0031666D02*
X0010008Y0031666D01*
X0010008Y0031704D02*
X0009969Y0031704D01*
X0009969Y0031741D02*
X0010008Y0031741D01*
X0010008Y0031779D02*
X0009969Y0031779D01*
X0009969Y0031817D02*
X0010008Y0031817D01*
X0010008Y0031855D02*
X0009969Y0031855D01*
X0009969Y0031893D02*
X0010008Y0031893D01*
X0010008Y0031931D02*
X0009969Y0031931D01*
X0009969Y0031969D02*
X0010008Y0031969D01*
X0010008Y0032007D02*
X0009969Y0032007D01*
X0009969Y0032045D02*
X0010008Y0032045D01*
X0010008Y0032082D02*
X0009969Y0032082D01*
X0009969Y0032120D02*
X0010008Y0032120D01*
X0010008Y0032158D02*
X0009969Y0032158D01*
X0009969Y0032196D02*
X0010008Y0032196D01*
X0010008Y0032234D02*
X0009969Y0032234D01*
X0009969Y0032272D02*
X0010008Y0032272D01*
X0010008Y0032310D02*
X0009969Y0032310D01*
X0009969Y0032348D02*
X0010008Y0032348D01*
X0010008Y0032385D02*
X0009969Y0032385D01*
X0009969Y0032423D02*
X0010008Y0032423D01*
X0010008Y0032461D02*
X0009969Y0032461D01*
X0009969Y0032499D02*
X0010008Y0032499D01*
X0010008Y0032537D02*
X0009969Y0032537D01*
X0009969Y0032575D02*
X0010008Y0032575D01*
X0011333Y0032575D02*
X0017223Y0032575D01*
X0017260Y0032537D02*
X0011474Y0032537D01*
X0011587Y0032499D02*
X0017298Y0032499D01*
X0017336Y0032461D02*
X0011653Y0032461D01*
X0011718Y0032423D02*
X0017374Y0032423D01*
X0017412Y0032385D02*
X0011784Y0032385D01*
X0011827Y0032348D02*
X0017439Y0032348D01*
X0017439Y0032310D02*
X0011865Y0032310D01*
X0011902Y0032272D02*
X0017439Y0032272D01*
X0017439Y0032234D02*
X0011940Y0032234D01*
X0011978Y0032196D02*
X0017439Y0032196D01*
X0017439Y0032158D02*
X0014994Y0032158D01*
X0015032Y0032120D02*
X0017439Y0032120D01*
X0017439Y0032082D02*
X0015070Y0032082D01*
X0015107Y0032045D02*
X0017439Y0032045D01*
X0017439Y0032007D02*
X0015145Y0032007D01*
X0015183Y0031969D02*
X0017439Y0031969D01*
X0017439Y0031931D02*
X0015221Y0031931D01*
X0015259Y0031893D02*
X0017439Y0031893D01*
X0017439Y0031855D02*
X0015297Y0031855D01*
X0015332Y0031817D02*
X0017439Y0031817D01*
X0017439Y0031779D02*
X0015332Y0031779D01*
X0015332Y0031741D02*
X0017439Y0031741D01*
X0017439Y0031704D02*
X0015332Y0031704D01*
X0015332Y0031666D02*
X0017439Y0031666D01*
X0017439Y0031628D02*
X0015332Y0031628D01*
X0012069Y0032158D02*
X0012003Y0032158D01*
X0012025Y0032120D02*
X0012031Y0032120D01*
X0025372Y0031571D02*
X0025372Y0023854D01*
X0048264Y0023854D01*
X0048264Y0048264D01*
X0032348Y0048264D01*
X0032348Y0046834D01*
X0032369Y0046278D01*
X0032348Y0046255D01*
X0032348Y0046224D01*
X0031955Y0045831D01*
X0027931Y0041491D01*
X0027931Y0039968D01*
X0027597Y0039634D01*
X0027931Y0039300D01*
X0027931Y0036424D01*
X0027568Y0036061D01*
X0027340Y0036061D01*
X0027340Y0033539D01*
X0025372Y0031571D01*
X0025372Y0031552D02*
X0048264Y0031552D01*
X0048264Y0031514D02*
X0025372Y0031514D01*
X0025372Y0031476D02*
X0048264Y0031476D01*
X0048264Y0031438D02*
X0025372Y0031438D01*
X0025372Y0031401D02*
X0048264Y0031401D01*
X0048264Y0031363D02*
X0025372Y0031363D01*
X0025372Y0031325D02*
X0048264Y0031325D01*
X0048264Y0031287D02*
X0025372Y0031287D01*
X0025372Y0031249D02*
X0048264Y0031249D01*
X0048264Y0031211D02*
X0025372Y0031211D01*
X0025372Y0031173D02*
X0048264Y0031173D01*
X0048264Y0031135D02*
X0025372Y0031135D01*
X0025372Y0031098D02*
X0048264Y0031098D01*
X0048264Y0031060D02*
X0025372Y0031060D01*
X0025372Y0031022D02*
X0048264Y0031022D01*
X0048264Y0030984D02*
X0025372Y0030984D01*
X0025372Y0030946D02*
X0048264Y0030946D01*
X0048264Y0030908D02*
X0025372Y0030908D01*
X0025372Y0030870D02*
X0048264Y0030870D01*
X0048264Y0030832D02*
X0025372Y0030832D01*
X0025372Y0030794D02*
X0048264Y0030794D01*
X0048264Y0030757D02*
X0025372Y0030757D01*
X0025372Y0030719D02*
X0048264Y0030719D01*
X0048264Y0030681D02*
X0025372Y0030681D01*
X0025372Y0030643D02*
X0048264Y0030643D01*
X0048264Y0030605D02*
X0025372Y0030605D01*
X0025372Y0030567D02*
X0048264Y0030567D01*
X0048264Y0030529D02*
X0025372Y0030529D01*
X0025372Y0030491D02*
X0048264Y0030491D01*
X0048264Y0030454D02*
X0025372Y0030454D01*
X0025372Y0030416D02*
X0048264Y0030416D01*
X0048264Y0030378D02*
X0025372Y0030378D01*
X0025372Y0030340D02*
X0048264Y0030340D01*
X0048264Y0030302D02*
X0025372Y0030302D01*
X0025372Y0030264D02*
X0048264Y0030264D01*
X0048264Y0030226D02*
X0025372Y0030226D01*
X0025372Y0030188D02*
X0048264Y0030188D01*
X0048264Y0030150D02*
X0025372Y0030150D01*
X0025372Y0030113D02*
X0048264Y0030113D01*
X0048264Y0030075D02*
X0025372Y0030075D01*
X0025372Y0030037D02*
X0048264Y0030037D01*
X0048264Y0029999D02*
X0025372Y0029999D01*
X0025372Y0029961D02*
X0048264Y0029961D01*
X0048264Y0029923D02*
X0025372Y0029923D01*
X0025372Y0029885D02*
X0048264Y0029885D01*
X0048264Y0029847D02*
X0025372Y0029847D01*
X0025372Y0029810D02*
X0048264Y0029810D01*
X0048264Y0029772D02*
X0025372Y0029772D01*
X0025372Y0029734D02*
X0048264Y0029734D01*
X0048264Y0029696D02*
X0025372Y0029696D01*
X0025372Y0029658D02*
X0048264Y0029658D01*
X0048264Y0029620D02*
X0025372Y0029620D01*
X0025372Y0029582D02*
X0048264Y0029582D01*
X0048264Y0029544D02*
X0025372Y0029544D01*
X0025372Y0029506D02*
X0048264Y0029506D01*
X0048264Y0029469D02*
X0025372Y0029469D01*
X0025372Y0029431D02*
X0048264Y0029431D01*
X0048264Y0029393D02*
X0025372Y0029393D01*
X0025372Y0029355D02*
X0048264Y0029355D01*
X0048264Y0029317D02*
X0025372Y0029317D01*
X0025372Y0029279D02*
X0048264Y0029279D01*
X0048264Y0029241D02*
X0025372Y0029241D01*
X0025372Y0029203D02*
X0048264Y0029203D01*
X0048264Y0029166D02*
X0025372Y0029166D01*
X0025372Y0029128D02*
X0048264Y0029128D01*
X0048264Y0029090D02*
X0025372Y0029090D01*
X0025372Y0029052D02*
X0048264Y0029052D01*
X0048264Y0029014D02*
X0025372Y0029014D01*
X0025372Y0028976D02*
X0048264Y0028976D01*
X0048264Y0028938D02*
X0025372Y0028938D01*
X0025372Y0028900D02*
X0048264Y0028900D01*
X0048264Y0028863D02*
X0025372Y0028863D01*
X0025372Y0028825D02*
X0048264Y0028825D01*
X0048264Y0028787D02*
X0025372Y0028787D01*
X0025372Y0028749D02*
X0048264Y0028749D01*
X0048264Y0028711D02*
X0025372Y0028711D01*
X0025372Y0028673D02*
X0048264Y0028673D01*
X0048264Y0028635D02*
X0025372Y0028635D01*
X0025372Y0028597D02*
X0048264Y0028597D01*
X0048264Y0028559D02*
X0025372Y0028559D01*
X0025372Y0028522D02*
X0048264Y0028522D01*
X0048264Y0028484D02*
X0025372Y0028484D01*
X0025372Y0028446D02*
X0048264Y0028446D01*
X0048264Y0028408D02*
X0025372Y0028408D01*
X0025372Y0028370D02*
X0048264Y0028370D01*
X0048264Y0028332D02*
X0025372Y0028332D01*
X0025372Y0028294D02*
X0048264Y0028294D01*
X0048264Y0028256D02*
X0025372Y0028256D01*
X0025372Y0028219D02*
X0048264Y0028219D01*
X0048264Y0028181D02*
X0025372Y0028181D01*
X0025372Y0028143D02*
X0048264Y0028143D01*
X0048264Y0028105D02*
X0025372Y0028105D01*
X0025372Y0028067D02*
X0048264Y0028067D01*
X0048264Y0028029D02*
X0025372Y0028029D01*
X0025372Y0027991D02*
X0048264Y0027991D01*
X0048264Y0027953D02*
X0025372Y0027953D01*
X0025372Y0027915D02*
X0048264Y0027915D01*
X0048264Y0027878D02*
X0025372Y0027878D01*
X0025372Y0027840D02*
X0048264Y0027840D01*
X0048264Y0027802D02*
X0025372Y0027802D01*
X0025372Y0027764D02*
X0048264Y0027764D01*
X0048264Y0027726D02*
X0025372Y0027726D01*
X0025372Y0027688D02*
X0048264Y0027688D01*
X0048264Y0027650D02*
X0025372Y0027650D01*
X0025372Y0027612D02*
X0048264Y0027612D01*
X0048264Y0027575D02*
X0025372Y0027575D01*
X0025372Y0027537D02*
X0048264Y0027537D01*
X0048264Y0027499D02*
X0025372Y0027499D01*
X0025372Y0027461D02*
X0048264Y0027461D01*
X0048264Y0027423D02*
X0025372Y0027423D01*
X0025372Y0027385D02*
X0048264Y0027385D01*
X0048264Y0027347D02*
X0025372Y0027347D01*
X0025372Y0027309D02*
X0048264Y0027309D01*
X0048264Y0027271D02*
X0025372Y0027271D01*
X0025372Y0027234D02*
X0048264Y0027234D01*
X0048264Y0027196D02*
X0025372Y0027196D01*
X0025372Y0027158D02*
X0048264Y0027158D01*
X0048264Y0027120D02*
X0025372Y0027120D01*
X0025372Y0027082D02*
X0048264Y0027082D01*
X0048264Y0027044D02*
X0025372Y0027044D01*
X0025372Y0027006D02*
X0048264Y0027006D01*
X0048264Y0026968D02*
X0025372Y0026968D01*
X0025372Y0026931D02*
X0048264Y0026931D01*
X0048264Y0026893D02*
X0025372Y0026893D01*
X0025372Y0026855D02*
X0048264Y0026855D01*
X0048264Y0026817D02*
X0025372Y0026817D01*
X0025372Y0026779D02*
X0048264Y0026779D01*
X0048264Y0026741D02*
X0025372Y0026741D01*
X0025372Y0026703D02*
X0048264Y0026703D01*
X0048264Y0026665D02*
X0025372Y0026665D01*
X0025372Y0026628D02*
X0048264Y0026628D01*
X0048264Y0026590D02*
X0025372Y0026590D01*
X0025372Y0026552D02*
X0048264Y0026552D01*
X0048264Y0026514D02*
X0025372Y0026514D01*
X0025372Y0026476D02*
X0048264Y0026476D01*
X0048264Y0026438D02*
X0025372Y0026438D01*
X0025372Y0026400D02*
X0048264Y0026400D01*
X0048264Y0026362D02*
X0025372Y0026362D01*
X0025372Y0026324D02*
X0048264Y0026324D01*
X0048264Y0026287D02*
X0025372Y0026287D01*
X0025372Y0026249D02*
X0048264Y0026249D01*
X0048264Y0026211D02*
X0025372Y0026211D01*
X0025372Y0026173D02*
X0048264Y0026173D01*
X0048264Y0026135D02*
X0025372Y0026135D01*
X0025372Y0026097D02*
X0048264Y0026097D01*
X0048264Y0026059D02*
X0025372Y0026059D01*
X0025372Y0026021D02*
X0048264Y0026021D01*
X0048264Y0025984D02*
X0025372Y0025984D01*
X0025372Y0025946D02*
X0048264Y0025946D01*
X0048264Y0025908D02*
X0025372Y0025908D01*
X0025372Y0025870D02*
X0048264Y0025870D01*
X0048264Y0025832D02*
X0025372Y0025832D01*
X0025372Y0025794D02*
X0048264Y0025794D01*
X0048264Y0025756D02*
X0025372Y0025756D01*
X0025372Y0025718D02*
X0048264Y0025718D01*
X0048264Y0025680D02*
X0025372Y0025680D01*
X0025372Y0025643D02*
X0048264Y0025643D01*
X0048264Y0025605D02*
X0025372Y0025605D01*
X0025372Y0025567D02*
X0048264Y0025567D01*
X0048264Y0025529D02*
X0025372Y0025529D01*
X0025372Y0025491D02*
X0048264Y0025491D01*
X0048264Y0025453D02*
X0025372Y0025453D01*
X0025372Y0025415D02*
X0048264Y0025415D01*
X0048264Y0025377D02*
X0025372Y0025377D01*
X0025372Y0025340D02*
X0048264Y0025340D01*
X0048264Y0025302D02*
X0025372Y0025302D01*
X0025372Y0025264D02*
X0048264Y0025264D01*
X0048264Y0025226D02*
X0025372Y0025226D01*
X0025372Y0025188D02*
X0048264Y0025188D01*
X0048264Y0025150D02*
X0025372Y0025150D01*
X0025372Y0025112D02*
X0048264Y0025112D01*
X0048264Y0025074D02*
X0025372Y0025074D01*
X0025372Y0025036D02*
X0048264Y0025036D01*
X0048264Y0024999D02*
X0025372Y0024999D01*
X0025372Y0024961D02*
X0048264Y0024961D01*
X0048264Y0024923D02*
X0025372Y0024923D01*
X0025372Y0024885D02*
X0048264Y0024885D01*
X0048264Y0024847D02*
X0025372Y0024847D01*
X0025372Y0024809D02*
X0048264Y0024809D01*
X0048264Y0024771D02*
X0025372Y0024771D01*
X0025372Y0024733D02*
X0048264Y0024733D01*
X0048264Y0024696D02*
X0025372Y0024696D01*
X0025372Y0024658D02*
X0048264Y0024658D01*
X0048264Y0024620D02*
X0025372Y0024620D01*
X0025372Y0024582D02*
X0048264Y0024582D01*
X0048264Y0024544D02*
X0025372Y0024544D01*
X0025372Y0024506D02*
X0048264Y0024506D01*
X0048264Y0024468D02*
X0025372Y0024468D01*
X0025372Y0024430D02*
X0048264Y0024430D01*
X0048264Y0024393D02*
X0025372Y0024393D01*
X0025372Y0024355D02*
X0048264Y0024355D01*
X0048264Y0024317D02*
X0025372Y0024317D01*
X0025372Y0024279D02*
X0048264Y0024279D01*
X0048264Y0024241D02*
X0025372Y0024241D01*
X0025372Y0024203D02*
X0048264Y0024203D01*
X0048264Y0024165D02*
X0025372Y0024165D01*
X0025372Y0024127D02*
X0048264Y0024127D01*
X0048264Y0024089D02*
X0025372Y0024089D01*
X0025372Y0024052D02*
X0048264Y0024052D01*
X0048264Y0024014D02*
X0025372Y0024014D01*
X0025372Y0023976D02*
X0048264Y0023976D01*
X0048264Y0023938D02*
X0025372Y0023938D01*
X0025372Y0023900D02*
X0048264Y0023900D01*
X0048264Y0023862D02*
X0025372Y0023862D01*
X0025391Y0031590D02*
X0048264Y0031590D01*
X0048264Y0031628D02*
X0025429Y0031628D01*
X0025467Y0031666D02*
X0048264Y0031666D01*
X0048264Y0031704D02*
X0025505Y0031704D01*
X0025542Y0031741D02*
X0048264Y0031741D01*
X0048264Y0031779D02*
X0025580Y0031779D01*
X0025618Y0031817D02*
X0048264Y0031817D01*
X0048264Y0031855D02*
X0025656Y0031855D01*
X0025694Y0031893D02*
X0048264Y0031893D01*
X0048264Y0031931D02*
X0025732Y0031931D01*
X0025770Y0031969D02*
X0048264Y0031969D01*
X0048264Y0032007D02*
X0025808Y0032007D01*
X0025845Y0032045D02*
X0048264Y0032045D01*
X0048264Y0032082D02*
X0025883Y0032082D01*
X0025921Y0032120D02*
X0048264Y0032120D01*
X0048264Y0032158D02*
X0025959Y0032158D01*
X0025997Y0032196D02*
X0048264Y0032196D01*
X0048264Y0032234D02*
X0026035Y0032234D01*
X0026073Y0032272D02*
X0048264Y0032272D01*
X0048264Y0032310D02*
X0026111Y0032310D01*
X0026149Y0032348D02*
X0048264Y0032348D01*
X0048264Y0032385D02*
X0026186Y0032385D01*
X0026224Y0032423D02*
X0048264Y0032423D01*
X0048264Y0032461D02*
X0026262Y0032461D01*
X0026300Y0032499D02*
X0048264Y0032499D01*
X0048264Y0032537D02*
X0026338Y0032537D01*
X0026376Y0032575D02*
X0048264Y0032575D01*
X0048264Y0032613D02*
X0026414Y0032613D01*
X0026452Y0032651D02*
X0048264Y0032651D01*
X0048264Y0032689D02*
X0026489Y0032689D01*
X0026527Y0032726D02*
X0048264Y0032726D01*
X0048264Y0032764D02*
X0026565Y0032764D01*
X0026603Y0032802D02*
X0048264Y0032802D01*
X0048264Y0032840D02*
X0026641Y0032840D01*
X0026679Y0032878D02*
X0048264Y0032878D01*
X0048264Y0032916D02*
X0026717Y0032916D01*
X0026755Y0032954D02*
X0048264Y0032954D01*
X0048264Y0032992D02*
X0026793Y0032992D01*
X0026830Y0033029D02*
X0048264Y0033029D01*
X0048264Y0033067D02*
X0026868Y0033067D01*
X0026906Y0033105D02*
X0048264Y0033105D01*
X0048264Y0033143D02*
X0026944Y0033143D01*
X0026982Y0033181D02*
X0048264Y0033181D01*
X0048264Y0033219D02*
X0027020Y0033219D01*
X0027058Y0033257D02*
X0048264Y0033257D01*
X0048264Y0033295D02*
X0027096Y0033295D01*
X0027133Y0033333D02*
X0048264Y0033333D01*
X0048264Y0033370D02*
X0027171Y0033370D01*
X0027209Y0033408D02*
X0048264Y0033408D01*
X0048264Y0033446D02*
X0027247Y0033446D01*
X0027285Y0033484D02*
X0048264Y0033484D01*
X0048264Y0033522D02*
X0027323Y0033522D01*
X0027340Y0033560D02*
X0048264Y0033560D01*
X0048264Y0033598D02*
X0027340Y0033598D01*
X0027340Y0033636D02*
X0048264Y0033636D01*
X0048264Y0033673D02*
X0027340Y0033673D01*
X0027340Y0033711D02*
X0048264Y0033711D01*
X0048264Y0033749D02*
X0027340Y0033749D01*
X0027340Y0033787D02*
X0048264Y0033787D01*
X0048264Y0033825D02*
X0027340Y0033825D01*
X0027340Y0033863D02*
X0048264Y0033863D01*
X0048264Y0033901D02*
X0027340Y0033901D01*
X0027340Y0033939D02*
X0048264Y0033939D01*
X0048264Y0033977D02*
X0027340Y0033977D01*
X0027340Y0034014D02*
X0048264Y0034014D01*
X0048264Y0034052D02*
X0027340Y0034052D01*
X0027340Y0034090D02*
X0048264Y0034090D01*
X0048264Y0034128D02*
X0027340Y0034128D01*
X0027340Y0034166D02*
X0048264Y0034166D01*
X0048264Y0034204D02*
X0027340Y0034204D01*
X0027340Y0034242D02*
X0048264Y0034242D01*
X0048264Y0034280D02*
X0027340Y0034280D01*
X0027340Y0034317D02*
X0048264Y0034317D01*
X0048264Y0034355D02*
X0027340Y0034355D01*
X0027340Y0034393D02*
X0048264Y0034393D01*
X0048264Y0034431D02*
X0027340Y0034431D01*
X0027340Y0034469D02*
X0048264Y0034469D01*
X0048264Y0034507D02*
X0027340Y0034507D01*
X0027340Y0034545D02*
X0048264Y0034545D01*
X0048264Y0034583D02*
X0027340Y0034583D01*
X0027340Y0034620D02*
X0048264Y0034620D01*
X0048264Y0034658D02*
X0027340Y0034658D01*
X0027340Y0034696D02*
X0048264Y0034696D01*
X0048264Y0034734D02*
X0027340Y0034734D01*
X0027340Y0034772D02*
X0048264Y0034772D01*
X0048264Y0034810D02*
X0027340Y0034810D01*
X0027340Y0034848D02*
X0048264Y0034848D01*
X0048264Y0034886D02*
X0027340Y0034886D01*
X0027340Y0034924D02*
X0048264Y0034924D01*
X0048264Y0034961D02*
X0027340Y0034961D01*
X0027340Y0034999D02*
X0048264Y0034999D01*
X0048264Y0035037D02*
X0027340Y0035037D01*
X0027340Y0035075D02*
X0048264Y0035075D01*
X0048264Y0035113D02*
X0027340Y0035113D01*
X0027340Y0035151D02*
X0048264Y0035151D01*
X0048264Y0035189D02*
X0027340Y0035189D01*
X0027340Y0035227D02*
X0048264Y0035227D01*
X0048264Y0035264D02*
X0027340Y0035264D01*
X0027340Y0035302D02*
X0048264Y0035302D01*
X0048264Y0035340D02*
X0027340Y0035340D01*
X0027340Y0035378D02*
X0048264Y0035378D01*
X0048264Y0035416D02*
X0027340Y0035416D01*
X0027340Y0035454D02*
X0048264Y0035454D01*
X0048264Y0035492D02*
X0027340Y0035492D01*
X0027340Y0035530D02*
X0048264Y0035530D01*
X0048264Y0035568D02*
X0027340Y0035568D01*
X0027340Y0035605D02*
X0048264Y0035605D01*
X0048264Y0035643D02*
X0027340Y0035643D01*
X0027340Y0035681D02*
X0048264Y0035681D01*
X0048264Y0035719D02*
X0027340Y0035719D01*
X0027340Y0035757D02*
X0048264Y0035757D01*
X0048264Y0035795D02*
X0027340Y0035795D01*
X0027340Y0035833D02*
X0048264Y0035833D01*
X0048264Y0035871D02*
X0027340Y0035871D01*
X0027340Y0035908D02*
X0048264Y0035908D01*
X0048264Y0035946D02*
X0027340Y0035946D01*
X0027340Y0035984D02*
X0048264Y0035984D01*
X0048264Y0036022D02*
X0027340Y0036022D01*
X0027340Y0036060D02*
X0048264Y0036060D01*
X0048264Y0036098D02*
X0027604Y0036098D01*
X0027642Y0036136D02*
X0048264Y0036136D01*
X0048264Y0036174D02*
X0027680Y0036174D01*
X0027718Y0036212D02*
X0048264Y0036212D01*
X0048264Y0036249D02*
X0027756Y0036249D01*
X0027794Y0036287D02*
X0048264Y0036287D01*
X0048264Y0036325D02*
X0027831Y0036325D01*
X0027869Y0036363D02*
X0048264Y0036363D01*
X0048264Y0036401D02*
X0027907Y0036401D01*
X0027931Y0036439D02*
X0048264Y0036439D01*
X0048264Y0036477D02*
X0027931Y0036477D01*
X0027931Y0036515D02*
X0048264Y0036515D01*
X0048264Y0036552D02*
X0027931Y0036552D01*
X0027931Y0036590D02*
X0048264Y0036590D01*
X0048264Y0036628D02*
X0027931Y0036628D01*
X0027931Y0036666D02*
X0048264Y0036666D01*
X0048264Y0036704D02*
X0027931Y0036704D01*
X0027931Y0036742D02*
X0048264Y0036742D01*
X0048264Y0036780D02*
X0027931Y0036780D01*
X0027931Y0036818D02*
X0048264Y0036818D01*
X0048264Y0036855D02*
X0027931Y0036855D01*
X0027931Y0036893D02*
X0048264Y0036893D01*
X0048264Y0036931D02*
X0027931Y0036931D01*
X0027931Y0036969D02*
X0048264Y0036969D01*
X0048264Y0037007D02*
X0027931Y0037007D01*
X0027931Y0037045D02*
X0048264Y0037045D01*
X0048264Y0037083D02*
X0027931Y0037083D01*
X0027931Y0037121D02*
X0048264Y0037121D01*
X0048264Y0037159D02*
X0027931Y0037159D01*
X0027931Y0037196D02*
X0048264Y0037196D01*
X0048264Y0037234D02*
X0027931Y0037234D01*
X0027931Y0037272D02*
X0048264Y0037272D01*
X0048264Y0037310D02*
X0027931Y0037310D01*
X0027931Y0037348D02*
X0048264Y0037348D01*
X0048264Y0037386D02*
X0027931Y0037386D01*
X0027931Y0037424D02*
X0048264Y0037424D01*
X0048264Y0037462D02*
X0027931Y0037462D01*
X0027931Y0037499D02*
X0048264Y0037499D01*
X0048264Y0037537D02*
X0027931Y0037537D01*
X0027931Y0037575D02*
X0048264Y0037575D01*
X0048264Y0037613D02*
X0027931Y0037613D01*
X0027931Y0037651D02*
X0048264Y0037651D01*
X0048264Y0037689D02*
X0027931Y0037689D01*
X0027931Y0037727D02*
X0048264Y0037727D01*
X0048264Y0037765D02*
X0027931Y0037765D01*
X0027931Y0037803D02*
X0048264Y0037803D01*
X0048264Y0037840D02*
X0027931Y0037840D01*
X0027931Y0037878D02*
X0048264Y0037878D01*
X0048264Y0037916D02*
X0027931Y0037916D01*
X0027931Y0037954D02*
X0048264Y0037954D01*
X0048264Y0037992D02*
X0027931Y0037992D01*
X0027931Y0038030D02*
X0048264Y0038030D01*
X0048264Y0038068D02*
X0027931Y0038068D01*
X0027931Y0038106D02*
X0048264Y0038106D01*
X0048264Y0038143D02*
X0027931Y0038143D01*
X0027931Y0038181D02*
X0048264Y0038181D01*
X0048264Y0038219D02*
X0027931Y0038219D01*
X0027931Y0038257D02*
X0048264Y0038257D01*
X0048264Y0038295D02*
X0027931Y0038295D01*
X0027931Y0038333D02*
X0048264Y0038333D01*
X0048264Y0038371D02*
X0027931Y0038371D01*
X0027931Y0038409D02*
X0048264Y0038409D01*
X0048264Y0038447D02*
X0027931Y0038447D01*
X0027931Y0038484D02*
X0048264Y0038484D01*
X0048264Y0038522D02*
X0027931Y0038522D01*
X0027931Y0038560D02*
X0048264Y0038560D01*
X0048264Y0038598D02*
X0027931Y0038598D01*
X0027931Y0038636D02*
X0048264Y0038636D01*
X0048264Y0038674D02*
X0027931Y0038674D01*
X0027931Y0038712D02*
X0048264Y0038712D01*
X0048264Y0038750D02*
X0027931Y0038750D01*
X0027931Y0038787D02*
X0048264Y0038787D01*
X0048264Y0038825D02*
X0027931Y0038825D01*
X0027931Y0038863D02*
X0048264Y0038863D01*
X0048264Y0038901D02*
X0027931Y0038901D01*
X0027931Y0038939D02*
X0048264Y0038939D01*
X0048264Y0038977D02*
X0027931Y0038977D01*
X0027931Y0039015D02*
X0048264Y0039015D01*
X0048264Y0039053D02*
X0027931Y0039053D01*
X0027931Y0039090D02*
X0048264Y0039090D01*
X0048264Y0039128D02*
X0027931Y0039128D01*
X0027931Y0039166D02*
X0048264Y0039166D01*
X0048264Y0039204D02*
X0027931Y0039204D01*
X0027931Y0039242D02*
X0048264Y0039242D01*
X0048264Y0039280D02*
X0027931Y0039280D01*
X0027913Y0039318D02*
X0048264Y0039318D01*
X0048264Y0039356D02*
X0027875Y0039356D01*
X0027837Y0039394D02*
X0048264Y0039394D01*
X0048264Y0039431D02*
X0027799Y0039431D01*
X0027761Y0039469D02*
X0048264Y0039469D01*
X0048264Y0039507D02*
X0027723Y0039507D01*
X0027686Y0039545D02*
X0048264Y0039545D01*
X0048264Y0039583D02*
X0027648Y0039583D01*
X0027610Y0039621D02*
X0048264Y0039621D01*
X0048264Y0039659D02*
X0027622Y0039659D01*
X0027660Y0039697D02*
X0048264Y0039697D01*
X0048264Y0039734D02*
X0027697Y0039734D01*
X0027735Y0039772D02*
X0048264Y0039772D01*
X0048264Y0039810D02*
X0027773Y0039810D01*
X0027811Y0039848D02*
X0048264Y0039848D01*
X0048264Y0039886D02*
X0027849Y0039886D01*
X0027887Y0039924D02*
X0048264Y0039924D01*
X0048264Y0039962D02*
X0027925Y0039962D01*
X0027931Y0040000D02*
X0048264Y0040000D01*
X0048264Y0040038D02*
X0027931Y0040038D01*
X0027931Y0040075D02*
X0048264Y0040075D01*
X0048264Y0040113D02*
X0027931Y0040113D01*
X0027931Y0040151D02*
X0048264Y0040151D01*
X0048264Y0040189D02*
X0027931Y0040189D01*
X0027931Y0040227D02*
X0048264Y0040227D01*
X0048264Y0040265D02*
X0027931Y0040265D01*
X0027931Y0040303D02*
X0048264Y0040303D01*
X0048264Y0040341D02*
X0027931Y0040341D01*
X0027931Y0040378D02*
X0048264Y0040378D01*
X0048264Y0040416D02*
X0027931Y0040416D01*
X0027931Y0040454D02*
X0048264Y0040454D01*
X0048264Y0040492D02*
X0027931Y0040492D01*
X0027931Y0040530D02*
X0048264Y0040530D01*
X0048264Y0040568D02*
X0027931Y0040568D01*
X0027931Y0040606D02*
X0048264Y0040606D01*
X0048264Y0040644D02*
X0027931Y0040644D01*
X0027931Y0040682D02*
X0048264Y0040682D01*
X0048264Y0040719D02*
X0027931Y0040719D01*
X0027931Y0040757D02*
X0048264Y0040757D01*
X0048264Y0040795D02*
X0027931Y0040795D01*
X0027931Y0040833D02*
X0048264Y0040833D01*
X0048264Y0040871D02*
X0027931Y0040871D01*
X0027931Y0040909D02*
X0048264Y0040909D01*
X0048264Y0040947D02*
X0027931Y0040947D01*
X0027931Y0040985D02*
X0048264Y0040985D01*
X0048264Y0041022D02*
X0027931Y0041022D01*
X0027931Y0041060D02*
X0048264Y0041060D01*
X0048264Y0041098D02*
X0027931Y0041098D01*
X0027931Y0041136D02*
X0048264Y0041136D01*
X0048264Y0041174D02*
X0027931Y0041174D01*
X0027931Y0041212D02*
X0048264Y0041212D01*
X0048264Y0041250D02*
X0027931Y0041250D01*
X0027931Y0041288D02*
X0048264Y0041288D01*
X0048264Y0041325D02*
X0027931Y0041325D01*
X0027931Y0041363D02*
X0048264Y0041363D01*
X0048264Y0041401D02*
X0027931Y0041401D01*
X0027931Y0041439D02*
X0048264Y0041439D01*
X0048264Y0041477D02*
X0027931Y0041477D01*
X0027953Y0041515D02*
X0048264Y0041515D01*
X0048264Y0041553D02*
X0027988Y0041553D01*
X0028023Y0041591D02*
X0048264Y0041591D01*
X0048264Y0041629D02*
X0028059Y0041629D01*
X0028094Y0041666D02*
X0048264Y0041666D01*
X0048264Y0041704D02*
X0028129Y0041704D01*
X0028164Y0041742D02*
X0048264Y0041742D01*
X0048264Y0041780D02*
X0028199Y0041780D01*
X0028234Y0041818D02*
X0048264Y0041818D01*
X0048264Y0041856D02*
X0028269Y0041856D01*
X0028304Y0041894D02*
X0048264Y0041894D01*
X0048264Y0041932D02*
X0028340Y0041932D01*
X0028375Y0041969D02*
X0048264Y0041969D01*
X0048264Y0042007D02*
X0028410Y0042007D01*
X0028445Y0042045D02*
X0048264Y0042045D01*
X0048264Y0042083D02*
X0028480Y0042083D01*
X0028515Y0042121D02*
X0048264Y0042121D01*
X0048264Y0042159D02*
X0028550Y0042159D01*
X0028585Y0042197D02*
X0048264Y0042197D01*
X0048264Y0042235D02*
X0028621Y0042235D01*
X0028656Y0042273D02*
X0048264Y0042273D01*
X0048264Y0042310D02*
X0028691Y0042310D01*
X0028726Y0042348D02*
X0048264Y0042348D01*
X0048264Y0042386D02*
X0028761Y0042386D01*
X0028796Y0042424D02*
X0048264Y0042424D01*
X0048264Y0042462D02*
X0028831Y0042462D01*
X0028866Y0042500D02*
X0048264Y0042500D01*
X0048264Y0042538D02*
X0028901Y0042538D01*
X0028937Y0042576D02*
X0048264Y0042576D01*
X0048264Y0042613D02*
X0028972Y0042613D01*
X0029007Y0042651D02*
X0048264Y0042651D01*
X0048264Y0042689D02*
X0029042Y0042689D01*
X0029077Y0042727D02*
X0048264Y0042727D01*
X0048264Y0042765D02*
X0029112Y0042765D01*
X0029147Y0042803D02*
X0048264Y0042803D01*
X0048264Y0042841D02*
X0029182Y0042841D01*
X0029218Y0042879D02*
X0048264Y0042879D01*
X0048264Y0042917D02*
X0029253Y0042917D01*
X0029288Y0042954D02*
X0048264Y0042954D01*
X0048264Y0042992D02*
X0029323Y0042992D01*
X0029358Y0043030D02*
X0048264Y0043030D01*
X0048264Y0043068D02*
X0029393Y0043068D01*
X0029428Y0043106D02*
X0048264Y0043106D01*
X0048264Y0043144D02*
X0029463Y0043144D01*
X0029499Y0043182D02*
X0048264Y0043182D01*
X0048264Y0043220D02*
X0029534Y0043220D01*
X0029569Y0043257D02*
X0048264Y0043257D01*
X0048264Y0043295D02*
X0029604Y0043295D01*
X0029639Y0043333D02*
X0048264Y0043333D01*
X0048264Y0043371D02*
X0029674Y0043371D01*
X0029709Y0043409D02*
X0048264Y0043409D01*
X0048264Y0043447D02*
X0029744Y0043447D01*
X0029780Y0043485D02*
X0048264Y0043485D01*
X0048264Y0043523D02*
X0029815Y0043523D01*
X0029850Y0043560D02*
X0048264Y0043560D01*
X0048264Y0043598D02*
X0029885Y0043598D01*
X0029920Y0043636D02*
X0048264Y0043636D01*
X0048264Y0043674D02*
X0029955Y0043674D01*
X0029990Y0043712D02*
X0048264Y0043712D01*
X0048264Y0043750D02*
X0030025Y0043750D01*
X0030060Y0043788D02*
X0048264Y0043788D01*
X0048264Y0043826D02*
X0030096Y0043826D01*
X0030131Y0043864D02*
X0048264Y0043864D01*
X0048264Y0043901D02*
X0030166Y0043901D01*
X0030201Y0043939D02*
X0048264Y0043939D01*
X0048264Y0043977D02*
X0030236Y0043977D01*
X0030271Y0044015D02*
X0048264Y0044015D01*
X0048264Y0044053D02*
X0030306Y0044053D01*
X0030341Y0044091D02*
X0048264Y0044091D01*
X0048264Y0044129D02*
X0030377Y0044129D01*
X0030412Y0044167D02*
X0048264Y0044167D01*
X0048264Y0044204D02*
X0030447Y0044204D01*
X0030482Y0044242D02*
X0048264Y0044242D01*
X0048264Y0044280D02*
X0030517Y0044280D01*
X0030552Y0044318D02*
X0048264Y0044318D01*
X0048264Y0044356D02*
X0030587Y0044356D01*
X0030622Y0044394D02*
X0048264Y0044394D01*
X0048264Y0044432D02*
X0030658Y0044432D01*
X0030693Y0044470D02*
X0048264Y0044470D01*
X0048264Y0044508D02*
X0030728Y0044508D01*
X0030763Y0044545D02*
X0048264Y0044545D01*
X0048264Y0044583D02*
X0030798Y0044583D01*
X0030833Y0044621D02*
X0048264Y0044621D01*
X0048264Y0044659D02*
X0030868Y0044659D01*
X0030903Y0044697D02*
X0048264Y0044697D01*
X0048264Y0044735D02*
X0030938Y0044735D01*
X0030974Y0044773D02*
X0048264Y0044773D01*
X0048264Y0044811D02*
X0031009Y0044811D01*
X0031044Y0044848D02*
X0048264Y0044848D01*
X0048264Y0044886D02*
X0031079Y0044886D01*
X0031114Y0044924D02*
X0048264Y0044924D01*
X0048264Y0044962D02*
X0031149Y0044962D01*
X0031184Y0045000D02*
X0048264Y0045000D01*
X0048264Y0045038D02*
X0031219Y0045038D01*
X0031255Y0045076D02*
X0048264Y0045076D01*
X0048264Y0045114D02*
X0031290Y0045114D01*
X0031325Y0045152D02*
X0048264Y0045152D01*
X0048264Y0045189D02*
X0031360Y0045189D01*
X0031395Y0045227D02*
X0048264Y0045227D01*
X0048264Y0045265D02*
X0031430Y0045265D01*
X0031465Y0045303D02*
X0048264Y0045303D01*
X0048264Y0045341D02*
X0031500Y0045341D01*
X0031536Y0045379D02*
X0048264Y0045379D01*
X0048264Y0045417D02*
X0031571Y0045417D01*
X0031606Y0045455D02*
X0048264Y0045455D01*
X0048264Y0045492D02*
X0031641Y0045492D01*
X0031676Y0045530D02*
X0048264Y0045530D01*
X0048264Y0045568D02*
X0031711Y0045568D01*
X0031746Y0045606D02*
X0048264Y0045606D01*
X0048264Y0045644D02*
X0031781Y0045644D01*
X0031816Y0045682D02*
X0048264Y0045682D01*
X0048264Y0045720D02*
X0031852Y0045720D01*
X0031887Y0045758D02*
X0048264Y0045758D01*
X0048264Y0045795D02*
X0031922Y0045795D01*
X0031957Y0045833D02*
X0048264Y0045833D01*
X0048264Y0045871D02*
X0031995Y0045871D01*
X0032033Y0045909D02*
X0048264Y0045909D01*
X0048264Y0045947D02*
X0032071Y0045947D01*
X0032109Y0045985D02*
X0048264Y0045985D01*
X0048264Y0046023D02*
X0032147Y0046023D01*
X0032184Y0046061D02*
X0048264Y0046061D01*
X0048264Y0046099D02*
X0032222Y0046099D01*
X0032260Y0046136D02*
X0048264Y0046136D01*
X0048264Y0046174D02*
X0032298Y0046174D01*
X0032336Y0046212D02*
X0048264Y0046212D01*
X0048264Y0046250D02*
X0032348Y0046250D01*
X0032369Y0046288D02*
X0048264Y0046288D01*
X0048264Y0046326D02*
X0032367Y0046326D01*
X0032366Y0046364D02*
X0048264Y0046364D01*
X0048264Y0046402D02*
X0032364Y0046402D01*
X0032363Y0046439D02*
X0048264Y0046439D01*
X0048264Y0046477D02*
X0032362Y0046477D01*
X0032360Y0046515D02*
X0048264Y0046515D01*
X0048264Y0046553D02*
X0032359Y0046553D01*
X0032357Y0046591D02*
X0048264Y0046591D01*
X0048264Y0046629D02*
X0032356Y0046629D01*
X0032354Y0046667D02*
X0048264Y0046667D01*
X0048264Y0046705D02*
X0032353Y0046705D01*
X0032351Y0046743D02*
X0048264Y0046743D01*
X0048264Y0046780D02*
X0032350Y0046780D01*
X0032349Y0046818D02*
X0048264Y0046818D01*
X0048264Y0046856D02*
X0032348Y0046856D01*
X0032348Y0046894D02*
X0048264Y0046894D01*
X0048264Y0046932D02*
X0032348Y0046932D01*
X0032348Y0046970D02*
X0048264Y0046970D01*
X0048264Y0047008D02*
X0032348Y0047008D01*
X0032348Y0047046D02*
X0048264Y0047046D01*
X0048264Y0047083D02*
X0032348Y0047083D01*
X0032348Y0047121D02*
X0048264Y0047121D01*
X0048264Y0047159D02*
X0032348Y0047159D01*
X0032348Y0047197D02*
X0048264Y0047197D01*
X0048264Y0047235D02*
X0032348Y0047235D01*
X0032348Y0047273D02*
X0048264Y0047273D01*
X0048264Y0047311D02*
X0032348Y0047311D01*
X0032348Y0047349D02*
X0048264Y0047349D01*
X0048264Y0047387D02*
X0032348Y0047387D01*
X0032348Y0047424D02*
X0048264Y0047424D01*
X0048264Y0047462D02*
X0032348Y0047462D01*
X0032348Y0047500D02*
X0048264Y0047500D01*
X0048264Y0047538D02*
X0032348Y0047538D01*
X0032348Y0047576D02*
X0048264Y0047576D01*
X0048264Y0047614D02*
X0032348Y0047614D01*
X0032348Y0047652D02*
X0048264Y0047652D01*
X0048264Y0047690D02*
X0032348Y0047690D01*
X0032348Y0047727D02*
X0048264Y0047727D01*
X0048264Y0047765D02*
X0032348Y0047765D01*
X0032348Y0047803D02*
X0048264Y0047803D01*
X0048264Y0047841D02*
X0032348Y0047841D01*
X0032348Y0047879D02*
X0048264Y0047879D01*
X0048264Y0047917D02*
X0032348Y0047917D01*
X0032348Y0047955D02*
X0048264Y0047955D01*
X0048264Y0047993D02*
X0032348Y0047993D01*
X0032348Y0048030D02*
X0048264Y0048030D01*
X0048264Y0048068D02*
X0032348Y0048068D01*
X0032348Y0048106D02*
X0048264Y0048106D01*
X0048264Y0048144D02*
X0032348Y0048144D01*
X0032348Y0048182D02*
X0048264Y0048182D01*
X0048264Y0048220D02*
X0032348Y0048220D01*
X0032348Y0048258D02*
X0048264Y0048258D01*
X0036453Y0182122D02*
X0027791Y0182122D01*
X0027791Y0197870D01*
X0036453Y0197870D01*
X0036453Y0182122D01*
X0036453Y0182131D02*
X0027791Y0182131D01*
X0027791Y0182169D02*
X0036453Y0182169D01*
X0036453Y0182206D02*
X0027791Y0182206D01*
X0027791Y0182244D02*
X0036453Y0182244D01*
X0036453Y0182282D02*
X0027791Y0182282D01*
X0027791Y0182320D02*
X0036453Y0182320D01*
X0036453Y0182358D02*
X0027791Y0182358D01*
X0027791Y0182396D02*
X0036453Y0182396D01*
X0036453Y0182434D02*
X0027791Y0182434D01*
X0027791Y0182472D02*
X0036453Y0182472D01*
X0036453Y0182509D02*
X0027791Y0182509D01*
X0027791Y0182547D02*
X0036453Y0182547D01*
X0036453Y0182585D02*
X0027791Y0182585D01*
X0027791Y0182623D02*
X0036453Y0182623D01*
X0036453Y0182661D02*
X0027791Y0182661D01*
X0027791Y0182699D02*
X0036453Y0182699D01*
X0036453Y0182737D02*
X0027791Y0182737D01*
X0027791Y0182775D02*
X0036453Y0182775D01*
X0036453Y0182813D02*
X0027791Y0182813D01*
X0027791Y0182850D02*
X0036453Y0182850D01*
X0036453Y0182888D02*
X0027791Y0182888D01*
X0027791Y0182926D02*
X0036453Y0182926D01*
X0036453Y0182964D02*
X0027791Y0182964D01*
X0027791Y0183002D02*
X0036453Y0183002D01*
X0036453Y0183040D02*
X0027791Y0183040D01*
X0027791Y0183078D02*
X0036453Y0183078D01*
X0036453Y0183116D02*
X0027791Y0183116D01*
X0027791Y0183153D02*
X0036453Y0183153D01*
X0036453Y0183191D02*
X0027791Y0183191D01*
X0027791Y0183229D02*
X0036453Y0183229D01*
X0036453Y0183267D02*
X0027791Y0183267D01*
X0027791Y0183305D02*
X0036453Y0183305D01*
X0036453Y0183343D02*
X0027791Y0183343D01*
X0027791Y0183381D02*
X0036453Y0183381D01*
X0036453Y0183419D02*
X0027791Y0183419D01*
X0027791Y0183456D02*
X0036453Y0183456D01*
X0036453Y0183494D02*
X0027791Y0183494D01*
X0027791Y0183532D02*
X0036453Y0183532D01*
X0036453Y0183570D02*
X0027791Y0183570D01*
X0027791Y0183608D02*
X0036453Y0183608D01*
X0036453Y0183646D02*
X0027791Y0183646D01*
X0027791Y0183684D02*
X0036453Y0183684D01*
X0036453Y0183722D02*
X0027791Y0183722D01*
X0027791Y0183760D02*
X0036453Y0183760D01*
X0036453Y0183797D02*
X0027791Y0183797D01*
X0027791Y0183835D02*
X0036453Y0183835D01*
X0036453Y0183873D02*
X0027791Y0183873D01*
X0027791Y0183911D02*
X0036453Y0183911D01*
X0036453Y0183949D02*
X0027791Y0183949D01*
X0027791Y0183987D02*
X0036453Y0183987D01*
X0036453Y0184025D02*
X0027791Y0184025D01*
X0027791Y0184063D02*
X0036453Y0184063D01*
X0036453Y0184100D02*
X0027791Y0184100D01*
X0027791Y0184138D02*
X0036453Y0184138D01*
X0036453Y0184176D02*
X0027791Y0184176D01*
X0027791Y0184214D02*
X0036453Y0184214D01*
X0036453Y0184252D02*
X0027791Y0184252D01*
X0027791Y0184290D02*
X0036453Y0184290D01*
X0036453Y0184328D02*
X0027791Y0184328D01*
X0027791Y0184366D02*
X0036453Y0184366D01*
X0036453Y0184404D02*
X0027791Y0184404D01*
X0027791Y0184441D02*
X0036453Y0184441D01*
X0036453Y0184479D02*
X0027791Y0184479D01*
X0027791Y0184517D02*
X0036453Y0184517D01*
X0036453Y0184555D02*
X0027791Y0184555D01*
X0027791Y0184593D02*
X0036453Y0184593D01*
X0036453Y0184631D02*
X0027791Y0184631D01*
X0027791Y0184669D02*
X0036453Y0184669D01*
X0036453Y0184707D02*
X0027791Y0184707D01*
X0027791Y0184744D02*
X0036453Y0184744D01*
X0036453Y0184782D02*
X0027791Y0184782D01*
X0027791Y0184820D02*
X0036453Y0184820D01*
X0036453Y0184858D02*
X0027791Y0184858D01*
X0027791Y0184896D02*
X0036453Y0184896D01*
X0036453Y0184934D02*
X0027791Y0184934D01*
X0027791Y0184972D02*
X0036453Y0184972D01*
X0036453Y0185010D02*
X0027791Y0185010D01*
X0027791Y0185048D02*
X0036453Y0185048D01*
X0036453Y0185085D02*
X0027791Y0185085D01*
X0027791Y0185123D02*
X0036453Y0185123D01*
X0036453Y0185161D02*
X0027791Y0185161D01*
X0027791Y0185199D02*
X0036453Y0185199D01*
X0036453Y0185237D02*
X0027791Y0185237D01*
X0027791Y0185275D02*
X0036453Y0185275D01*
X0036453Y0185313D02*
X0027791Y0185313D01*
X0027791Y0185351D02*
X0036453Y0185351D01*
X0036453Y0185388D02*
X0027791Y0185388D01*
X0027791Y0185426D02*
X0036453Y0185426D01*
X0036453Y0185464D02*
X0027791Y0185464D01*
X0027791Y0185502D02*
X0036453Y0185502D01*
X0036453Y0185540D02*
X0027791Y0185540D01*
X0027791Y0185578D02*
X0036453Y0185578D01*
X0036453Y0185616D02*
X0027791Y0185616D01*
X0027791Y0185654D02*
X0036453Y0185654D01*
X0036453Y0185691D02*
X0027791Y0185691D01*
X0027791Y0185729D02*
X0036453Y0185729D01*
X0036453Y0185767D02*
X0027791Y0185767D01*
X0027791Y0185805D02*
X0036453Y0185805D01*
X0036453Y0185843D02*
X0027791Y0185843D01*
X0027791Y0185881D02*
X0036453Y0185881D01*
X0036453Y0185919D02*
X0027791Y0185919D01*
X0027791Y0185957D02*
X0036453Y0185957D01*
X0036453Y0185995D02*
X0027791Y0185995D01*
X0027791Y0186032D02*
X0036453Y0186032D01*
X0036453Y0186070D02*
X0027791Y0186070D01*
X0027791Y0186108D02*
X0036453Y0186108D01*
X0036453Y0186146D02*
X0027791Y0186146D01*
X0027791Y0186184D02*
X0036453Y0186184D01*
X0036453Y0186222D02*
X0027791Y0186222D01*
X0027791Y0186260D02*
X0036453Y0186260D01*
X0036453Y0186298D02*
X0027791Y0186298D01*
X0027791Y0186335D02*
X0036453Y0186335D01*
X0036453Y0186373D02*
X0027791Y0186373D01*
X0027791Y0186411D02*
X0036453Y0186411D01*
X0036453Y0186449D02*
X0027791Y0186449D01*
X0027791Y0186487D02*
X0036453Y0186487D01*
X0036453Y0186525D02*
X0027791Y0186525D01*
X0027791Y0186563D02*
X0036453Y0186563D01*
X0036453Y0186601D02*
X0027791Y0186601D01*
X0027791Y0186639D02*
X0036453Y0186639D01*
X0036453Y0186676D02*
X0027791Y0186676D01*
X0027791Y0186714D02*
X0036453Y0186714D01*
X0036453Y0186752D02*
X0027791Y0186752D01*
X0027791Y0186790D02*
X0036453Y0186790D01*
X0036453Y0186828D02*
X0027791Y0186828D01*
X0027791Y0186866D02*
X0036453Y0186866D01*
X0036453Y0186904D02*
X0027791Y0186904D01*
X0027791Y0186942D02*
X0036453Y0186942D01*
X0036453Y0186979D02*
X0027791Y0186979D01*
X0027791Y0187017D02*
X0036453Y0187017D01*
X0036453Y0187055D02*
X0027791Y0187055D01*
X0027791Y0187093D02*
X0036453Y0187093D01*
X0036453Y0187131D02*
X0027791Y0187131D01*
X0027791Y0187169D02*
X0036453Y0187169D01*
X0036453Y0187207D02*
X0027791Y0187207D01*
X0027791Y0187245D02*
X0036453Y0187245D01*
X0036453Y0187283D02*
X0027791Y0187283D01*
X0027791Y0187320D02*
X0036453Y0187320D01*
X0036453Y0187358D02*
X0027791Y0187358D01*
X0027791Y0187396D02*
X0036453Y0187396D01*
X0036453Y0187434D02*
X0027791Y0187434D01*
X0027791Y0187472D02*
X0036453Y0187472D01*
X0036453Y0187510D02*
X0027791Y0187510D01*
X0027791Y0187548D02*
X0036453Y0187548D01*
X0036453Y0187586D02*
X0027791Y0187586D01*
X0027791Y0187623D02*
X0036453Y0187623D01*
X0036453Y0187661D02*
X0027791Y0187661D01*
X0027791Y0187699D02*
X0036453Y0187699D01*
X0036453Y0187737D02*
X0027791Y0187737D01*
X0027791Y0187775D02*
X0036453Y0187775D01*
X0036453Y0187813D02*
X0027791Y0187813D01*
X0027791Y0187851D02*
X0036453Y0187851D01*
X0036453Y0187889D02*
X0027791Y0187889D01*
X0027791Y0187927D02*
X0036453Y0187927D01*
X0036453Y0187964D02*
X0027791Y0187964D01*
X0027791Y0188002D02*
X0036453Y0188002D01*
X0036453Y0188040D02*
X0027791Y0188040D01*
X0027791Y0188078D02*
X0036453Y0188078D01*
X0036453Y0188116D02*
X0027791Y0188116D01*
X0027791Y0188154D02*
X0036453Y0188154D01*
X0036453Y0188192D02*
X0027791Y0188192D01*
X0027791Y0188230D02*
X0036453Y0188230D01*
X0036453Y0188267D02*
X0027791Y0188267D01*
X0027791Y0188305D02*
X0036453Y0188305D01*
X0036453Y0188343D02*
X0027791Y0188343D01*
X0027791Y0188381D02*
X0036453Y0188381D01*
X0036453Y0188419D02*
X0027791Y0188419D01*
X0027791Y0188457D02*
X0036453Y0188457D01*
X0036453Y0188495D02*
X0027791Y0188495D01*
X0027791Y0188533D02*
X0036453Y0188533D01*
X0036453Y0188570D02*
X0027791Y0188570D01*
X0027791Y0188608D02*
X0036453Y0188608D01*
X0036453Y0188646D02*
X0027791Y0188646D01*
X0027791Y0188684D02*
X0036453Y0188684D01*
X0036453Y0188722D02*
X0027791Y0188722D01*
X0027791Y0188760D02*
X0036453Y0188760D01*
X0036453Y0188798D02*
X0027791Y0188798D01*
X0027791Y0188836D02*
X0036453Y0188836D01*
X0036453Y0188874D02*
X0027791Y0188874D01*
X0027791Y0188911D02*
X0036453Y0188911D01*
X0036453Y0188949D02*
X0027791Y0188949D01*
X0027791Y0188987D02*
X0036453Y0188987D01*
X0036453Y0189025D02*
X0027791Y0189025D01*
X0027791Y0189063D02*
X0036453Y0189063D01*
X0036453Y0189101D02*
X0027791Y0189101D01*
X0027791Y0189139D02*
X0036453Y0189139D01*
X0036453Y0189177D02*
X0027791Y0189177D01*
X0027791Y0189214D02*
X0036453Y0189214D01*
X0036453Y0189252D02*
X0027791Y0189252D01*
X0027791Y0189290D02*
X0036453Y0189290D01*
X0036453Y0189328D02*
X0027791Y0189328D01*
X0027791Y0189366D02*
X0036453Y0189366D01*
X0036453Y0189404D02*
X0027791Y0189404D01*
X0027791Y0189442D02*
X0036453Y0189442D01*
X0036453Y0189480D02*
X0027791Y0189480D01*
X0027791Y0189518D02*
X0036453Y0189518D01*
X0036453Y0189555D02*
X0027791Y0189555D01*
X0027791Y0189593D02*
X0036453Y0189593D01*
X0036453Y0189631D02*
X0027791Y0189631D01*
X0027791Y0189669D02*
X0036453Y0189669D01*
X0036453Y0189707D02*
X0027791Y0189707D01*
X0027791Y0189745D02*
X0036453Y0189745D01*
X0036453Y0189783D02*
X0027791Y0189783D01*
X0027791Y0189821D02*
X0036453Y0189821D01*
X0036453Y0189858D02*
X0027791Y0189858D01*
X0027791Y0189896D02*
X0036453Y0189896D01*
X0036453Y0189934D02*
X0027791Y0189934D01*
X0027791Y0189972D02*
X0036453Y0189972D01*
X0036453Y0190010D02*
X0027791Y0190010D01*
X0027791Y0190048D02*
X0036453Y0190048D01*
X0036453Y0190086D02*
X0027791Y0190086D01*
X0027791Y0190124D02*
X0036453Y0190124D01*
X0036453Y0190162D02*
X0027791Y0190162D01*
X0027791Y0190199D02*
X0036453Y0190199D01*
X0036453Y0190237D02*
X0027791Y0190237D01*
X0027791Y0190275D02*
X0036453Y0190275D01*
X0036453Y0190313D02*
X0027791Y0190313D01*
X0027791Y0190351D02*
X0036453Y0190351D01*
X0036453Y0190389D02*
X0027791Y0190389D01*
X0027791Y0190427D02*
X0036453Y0190427D01*
X0036453Y0190465D02*
X0027791Y0190465D01*
X0027791Y0190502D02*
X0036453Y0190502D01*
X0036453Y0190540D02*
X0027791Y0190540D01*
X0027791Y0190578D02*
X0036453Y0190578D01*
X0036453Y0190616D02*
X0027791Y0190616D01*
X0027791Y0190654D02*
X0036453Y0190654D01*
X0036453Y0190692D02*
X0027791Y0190692D01*
X0027791Y0190730D02*
X0036453Y0190730D01*
X0036453Y0190768D02*
X0027791Y0190768D01*
X0027791Y0190805D02*
X0036453Y0190805D01*
X0036453Y0190843D02*
X0027791Y0190843D01*
X0027791Y0190881D02*
X0036453Y0190881D01*
X0036453Y0190919D02*
X0027791Y0190919D01*
X0027791Y0190957D02*
X0036453Y0190957D01*
X0036453Y0190995D02*
X0027791Y0190995D01*
X0027791Y0191033D02*
X0036453Y0191033D01*
X0036453Y0191071D02*
X0027791Y0191071D01*
X0027791Y0191109D02*
X0036453Y0191109D01*
X0036453Y0191146D02*
X0027791Y0191146D01*
X0027791Y0191184D02*
X0036453Y0191184D01*
X0036453Y0191222D02*
X0027791Y0191222D01*
X0027791Y0191260D02*
X0036453Y0191260D01*
X0036453Y0191298D02*
X0027791Y0191298D01*
X0027791Y0191336D02*
X0036453Y0191336D01*
X0036453Y0191374D02*
X0027791Y0191374D01*
X0027791Y0191412D02*
X0036453Y0191412D01*
X0036453Y0191449D02*
X0027791Y0191449D01*
X0027791Y0191487D02*
X0036453Y0191487D01*
X0036453Y0191525D02*
X0027791Y0191525D01*
X0027791Y0191563D02*
X0036453Y0191563D01*
X0036453Y0191601D02*
X0027791Y0191601D01*
X0027791Y0191639D02*
X0036453Y0191639D01*
X0036453Y0191677D02*
X0027791Y0191677D01*
X0027791Y0191715D02*
X0036453Y0191715D01*
X0036453Y0191753D02*
X0027791Y0191753D01*
X0027791Y0191790D02*
X0036453Y0191790D01*
X0036453Y0191828D02*
X0027791Y0191828D01*
X0027791Y0191866D02*
X0036453Y0191866D01*
X0036453Y0191904D02*
X0027791Y0191904D01*
X0027791Y0191942D02*
X0036453Y0191942D01*
X0036453Y0191980D02*
X0027791Y0191980D01*
X0027791Y0192018D02*
X0036453Y0192018D01*
X0036453Y0192056D02*
X0027791Y0192056D01*
X0027791Y0192093D02*
X0036453Y0192093D01*
X0036453Y0192131D02*
X0027791Y0192131D01*
X0027791Y0192169D02*
X0036453Y0192169D01*
X0036453Y0192207D02*
X0027791Y0192207D01*
X0027791Y0192245D02*
X0036453Y0192245D01*
X0036453Y0192283D02*
X0027791Y0192283D01*
X0027791Y0192321D02*
X0036453Y0192321D01*
X0036453Y0192359D02*
X0027791Y0192359D01*
X0027791Y0192397D02*
X0036453Y0192397D01*
X0036453Y0192434D02*
X0027791Y0192434D01*
X0027791Y0192472D02*
X0036453Y0192472D01*
X0036453Y0192510D02*
X0027791Y0192510D01*
X0027791Y0192548D02*
X0036453Y0192548D01*
X0036453Y0192586D02*
X0027791Y0192586D01*
X0027791Y0192624D02*
X0036453Y0192624D01*
X0036453Y0192662D02*
X0027791Y0192662D01*
X0027791Y0192700D02*
X0036453Y0192700D01*
X0036453Y0192737D02*
X0027791Y0192737D01*
X0027791Y0192775D02*
X0036453Y0192775D01*
X0036453Y0192813D02*
X0027791Y0192813D01*
X0027791Y0192851D02*
X0036453Y0192851D01*
X0036453Y0192889D02*
X0027791Y0192889D01*
X0027791Y0192927D02*
X0036453Y0192927D01*
X0036453Y0192965D02*
X0027791Y0192965D01*
X0027791Y0193003D02*
X0036453Y0193003D01*
X0036453Y0193040D02*
X0027791Y0193040D01*
X0027791Y0193078D02*
X0036453Y0193078D01*
X0036453Y0193116D02*
X0027791Y0193116D01*
X0027791Y0193154D02*
X0036453Y0193154D01*
X0036453Y0193192D02*
X0027791Y0193192D01*
X0027791Y0193230D02*
X0036453Y0193230D01*
X0036453Y0193268D02*
X0027791Y0193268D01*
X0027791Y0193306D02*
X0036453Y0193306D01*
X0036453Y0193344D02*
X0027791Y0193344D01*
X0027791Y0193381D02*
X0036453Y0193381D01*
X0036453Y0193419D02*
X0027791Y0193419D01*
X0027791Y0193457D02*
X0036453Y0193457D01*
X0036453Y0193495D02*
X0027791Y0193495D01*
X0027791Y0193533D02*
X0036453Y0193533D01*
X0036453Y0193571D02*
X0027791Y0193571D01*
X0027791Y0193609D02*
X0036453Y0193609D01*
X0036453Y0193647D02*
X0027791Y0193647D01*
X0027791Y0193684D02*
X0036453Y0193684D01*
X0036453Y0193722D02*
X0027791Y0193722D01*
X0027791Y0193760D02*
X0036453Y0193760D01*
X0036453Y0193798D02*
X0027791Y0193798D01*
X0027791Y0193836D02*
X0036453Y0193836D01*
X0036453Y0193874D02*
X0027791Y0193874D01*
X0027791Y0193912D02*
X0036453Y0193912D01*
X0036453Y0193950D02*
X0027791Y0193950D01*
X0027791Y0193988D02*
X0036453Y0193988D01*
X0036453Y0194025D02*
X0027791Y0194025D01*
X0027791Y0194063D02*
X0036453Y0194063D01*
X0036453Y0194101D02*
X0027791Y0194101D01*
X0027791Y0194139D02*
X0036453Y0194139D01*
X0036453Y0194177D02*
X0027791Y0194177D01*
X0027791Y0194215D02*
X0036453Y0194215D01*
X0036453Y0194253D02*
X0027791Y0194253D01*
X0027791Y0194291D02*
X0036453Y0194291D01*
X0036453Y0194328D02*
X0027791Y0194328D01*
X0027791Y0194366D02*
X0036453Y0194366D01*
X0036453Y0194404D02*
X0027791Y0194404D01*
X0027791Y0194442D02*
X0036453Y0194442D01*
X0036453Y0194480D02*
X0027791Y0194480D01*
X0027791Y0194518D02*
X0036453Y0194518D01*
X0036453Y0194556D02*
X0027791Y0194556D01*
X0027791Y0194594D02*
X0036453Y0194594D01*
X0036453Y0194632D02*
X0027791Y0194632D01*
X0027791Y0194669D02*
X0036453Y0194669D01*
X0036453Y0194707D02*
X0027791Y0194707D01*
X0027791Y0194745D02*
X0036453Y0194745D01*
X0036453Y0194783D02*
X0027791Y0194783D01*
X0027791Y0194821D02*
X0036453Y0194821D01*
X0036453Y0194859D02*
X0027791Y0194859D01*
X0027791Y0194897D02*
X0036453Y0194897D01*
X0036453Y0194935D02*
X0027791Y0194935D01*
X0027791Y0194972D02*
X0036453Y0194972D01*
X0036453Y0195010D02*
X0027791Y0195010D01*
X0027791Y0195048D02*
X0036453Y0195048D01*
X0036453Y0195086D02*
X0027791Y0195086D01*
X0027791Y0195124D02*
X0036453Y0195124D01*
X0036453Y0195162D02*
X0027791Y0195162D01*
X0027791Y0195200D02*
X0036453Y0195200D01*
X0036453Y0195238D02*
X0027791Y0195238D01*
X0027791Y0195275D02*
X0036453Y0195275D01*
X0036453Y0195313D02*
X0027791Y0195313D01*
X0027791Y0195351D02*
X0036453Y0195351D01*
X0036453Y0195389D02*
X0027791Y0195389D01*
X0027791Y0195427D02*
X0036453Y0195427D01*
X0036453Y0195465D02*
X0027791Y0195465D01*
X0027791Y0195503D02*
X0036453Y0195503D01*
X0036453Y0195541D02*
X0027791Y0195541D01*
X0027791Y0195579D02*
X0036453Y0195579D01*
X0036453Y0195616D02*
X0027791Y0195616D01*
X0027791Y0195654D02*
X0036453Y0195654D01*
X0036453Y0195692D02*
X0027791Y0195692D01*
X0027791Y0195730D02*
X0036453Y0195730D01*
X0036453Y0195768D02*
X0027791Y0195768D01*
X0027791Y0195806D02*
X0036453Y0195806D01*
X0036453Y0195844D02*
X0027791Y0195844D01*
X0027791Y0195882D02*
X0036453Y0195882D01*
X0036453Y0195919D02*
X0027791Y0195919D01*
X0027791Y0195957D02*
X0036453Y0195957D01*
X0036453Y0195995D02*
X0027791Y0195995D01*
X0027791Y0196033D02*
X0036453Y0196033D01*
X0036453Y0196071D02*
X0027791Y0196071D01*
X0027791Y0196109D02*
X0036453Y0196109D01*
X0036453Y0196147D02*
X0027791Y0196147D01*
X0027791Y0196185D02*
X0036453Y0196185D01*
X0036453Y0196223D02*
X0027791Y0196223D01*
X0027791Y0196260D02*
X0036453Y0196260D01*
X0036453Y0196298D02*
X0027791Y0196298D01*
X0027791Y0196336D02*
X0036453Y0196336D01*
X0036453Y0196374D02*
X0027791Y0196374D01*
X0027791Y0196412D02*
X0036453Y0196412D01*
X0036453Y0196450D02*
X0027791Y0196450D01*
X0027791Y0196488D02*
X0036453Y0196488D01*
X0036453Y0196526D02*
X0027791Y0196526D01*
X0027791Y0196563D02*
X0036453Y0196563D01*
X0036453Y0196601D02*
X0027791Y0196601D01*
X0027791Y0196639D02*
X0036453Y0196639D01*
X0036453Y0196677D02*
X0027791Y0196677D01*
X0027791Y0196715D02*
X0036453Y0196715D01*
X0036453Y0196753D02*
X0027791Y0196753D01*
X0027791Y0196791D02*
X0036453Y0196791D01*
X0036453Y0196829D02*
X0027791Y0196829D01*
X0027791Y0196867D02*
X0036453Y0196867D01*
X0036453Y0196904D02*
X0027791Y0196904D01*
X0027791Y0196942D02*
X0036453Y0196942D01*
X0036453Y0196980D02*
X0027791Y0196980D01*
X0027791Y0197018D02*
X0036453Y0197018D01*
X0036453Y0197056D02*
X0027791Y0197056D01*
X0027791Y0197094D02*
X0036453Y0197094D01*
X0036453Y0197132D02*
X0027791Y0197132D01*
X0027791Y0197170D02*
X0036453Y0197170D01*
X0036453Y0197207D02*
X0027791Y0197207D01*
X0027791Y0197245D02*
X0036453Y0197245D01*
X0036453Y0197283D02*
X0027791Y0197283D01*
X0027791Y0197321D02*
X0036453Y0197321D01*
X0036453Y0197359D02*
X0027791Y0197359D01*
X0027791Y0197397D02*
X0036453Y0197397D01*
X0036453Y0197435D02*
X0027791Y0197435D01*
X0027791Y0197473D02*
X0036453Y0197473D01*
X0036453Y0197510D02*
X0027791Y0197510D01*
X0027791Y0197548D02*
X0036453Y0197548D01*
X0036453Y0197586D02*
X0027791Y0197586D01*
X0027791Y0197624D02*
X0036453Y0197624D01*
X0036453Y0197662D02*
X0027791Y0197662D01*
X0027791Y0197700D02*
X0036453Y0197700D01*
X0036453Y0197738D02*
X0027791Y0197738D01*
X0027791Y0197776D02*
X0036453Y0197776D01*
X0036453Y0197814D02*
X0027791Y0197814D01*
X0027791Y0197851D02*
X0036453Y0197851D01*
X0026720Y0197851D02*
X0019524Y0197851D01*
X0019524Y0197870D02*
X0019524Y0182122D01*
X0026720Y0182122D01*
X0026720Y0197870D01*
X0019524Y0197870D01*
X0019524Y0197814D02*
X0026720Y0197814D01*
X0026720Y0197776D02*
X0019524Y0197776D01*
X0019524Y0197738D02*
X0026720Y0197738D01*
X0026720Y0197700D02*
X0019524Y0197700D01*
X0019524Y0197662D02*
X0026720Y0197662D01*
X0026720Y0197624D02*
X0019524Y0197624D01*
X0019524Y0197586D02*
X0026720Y0197586D01*
X0026720Y0197548D02*
X0019524Y0197548D01*
X0019524Y0197510D02*
X0026720Y0197510D01*
X0026720Y0197473D02*
X0019524Y0197473D01*
X0019524Y0197435D02*
X0026720Y0197435D01*
X0026720Y0197397D02*
X0019524Y0197397D01*
X0019524Y0197359D02*
X0026720Y0197359D01*
X0026720Y0197321D02*
X0019524Y0197321D01*
X0019524Y0197283D02*
X0026720Y0197283D01*
X0026720Y0197245D02*
X0019524Y0197245D01*
X0019524Y0197207D02*
X0026720Y0197207D01*
X0026720Y0197170D02*
X0019524Y0197170D01*
X0019524Y0197132D02*
X0026720Y0197132D01*
X0026720Y0197094D02*
X0019524Y0197094D01*
X0019524Y0197056D02*
X0026720Y0197056D01*
X0026720Y0197018D02*
X0019524Y0197018D01*
X0019524Y0196980D02*
X0026720Y0196980D01*
X0026720Y0196942D02*
X0019524Y0196942D01*
X0019524Y0196904D02*
X0026720Y0196904D01*
X0026720Y0196867D02*
X0019524Y0196867D01*
X0019524Y0196829D02*
X0026720Y0196829D01*
X0026720Y0196791D02*
X0019524Y0196791D01*
X0019524Y0196753D02*
X0026720Y0196753D01*
X0026720Y0196715D02*
X0019524Y0196715D01*
X0019524Y0196677D02*
X0026720Y0196677D01*
X0026720Y0196639D02*
X0019524Y0196639D01*
X0019524Y0196601D02*
X0026720Y0196601D01*
X0026720Y0196563D02*
X0019524Y0196563D01*
X0019524Y0196526D02*
X0026720Y0196526D01*
X0026720Y0196488D02*
X0019524Y0196488D01*
X0019524Y0196450D02*
X0026720Y0196450D01*
X0026720Y0196412D02*
X0019524Y0196412D01*
X0019524Y0196374D02*
X0026720Y0196374D01*
X0026720Y0196336D02*
X0019524Y0196336D01*
X0019524Y0196298D02*
X0026720Y0196298D01*
X0026720Y0196260D02*
X0019524Y0196260D01*
X0019524Y0196223D02*
X0026720Y0196223D01*
X0026720Y0196185D02*
X0019524Y0196185D01*
X0019524Y0196147D02*
X0026720Y0196147D01*
X0026720Y0196109D02*
X0019524Y0196109D01*
X0019524Y0196071D02*
X0026720Y0196071D01*
X0026720Y0196033D02*
X0019524Y0196033D01*
X0019524Y0195995D02*
X0026720Y0195995D01*
X0026720Y0195957D02*
X0019524Y0195957D01*
X0019524Y0195919D02*
X0026720Y0195919D01*
X0026720Y0195882D02*
X0019524Y0195882D01*
X0019524Y0195844D02*
X0026720Y0195844D01*
X0026720Y0195806D02*
X0019524Y0195806D01*
X0019524Y0195768D02*
X0026720Y0195768D01*
X0026720Y0195730D02*
X0019524Y0195730D01*
X0019524Y0195692D02*
X0026720Y0195692D01*
X0026720Y0195654D02*
X0019524Y0195654D01*
X0019524Y0195616D02*
X0026720Y0195616D01*
X0026720Y0195579D02*
X0019524Y0195579D01*
X0019524Y0195541D02*
X0026720Y0195541D01*
X0026720Y0195503D02*
X0019524Y0195503D01*
X0019524Y0195465D02*
X0026720Y0195465D01*
X0026720Y0195427D02*
X0019524Y0195427D01*
X0019524Y0195389D02*
X0026720Y0195389D01*
X0026720Y0195351D02*
X0019524Y0195351D01*
X0019524Y0195313D02*
X0026720Y0195313D01*
X0026720Y0195275D02*
X0019524Y0195275D01*
X0019524Y0195238D02*
X0026720Y0195238D01*
X0026720Y0195200D02*
X0019524Y0195200D01*
X0019524Y0195162D02*
X0026720Y0195162D01*
X0026720Y0195124D02*
X0019524Y0195124D01*
X0019524Y0195086D02*
X0026720Y0195086D01*
X0026720Y0195048D02*
X0019524Y0195048D01*
X0019524Y0195010D02*
X0026720Y0195010D01*
X0026720Y0194972D02*
X0019524Y0194972D01*
X0019524Y0194935D02*
X0026720Y0194935D01*
X0026720Y0194897D02*
X0019524Y0194897D01*
X0019524Y0194859D02*
X0026720Y0194859D01*
X0026720Y0194821D02*
X0019524Y0194821D01*
X0019524Y0194783D02*
X0026720Y0194783D01*
X0026720Y0194745D02*
X0019524Y0194745D01*
X0019524Y0194707D02*
X0026720Y0194707D01*
X0026720Y0194669D02*
X0019524Y0194669D01*
X0019524Y0194632D02*
X0026720Y0194632D01*
X0026720Y0194594D02*
X0019524Y0194594D01*
X0019524Y0194556D02*
X0026720Y0194556D01*
X0026720Y0194518D02*
X0019524Y0194518D01*
X0019524Y0194480D02*
X0026720Y0194480D01*
X0026720Y0194442D02*
X0019524Y0194442D01*
X0019524Y0194404D02*
X0026720Y0194404D01*
X0026720Y0194366D02*
X0019524Y0194366D01*
X0019524Y0194328D02*
X0026720Y0194328D01*
X0026720Y0194291D02*
X0019524Y0194291D01*
X0019524Y0194253D02*
X0026720Y0194253D01*
X0026720Y0194215D02*
X0019524Y0194215D01*
X0019524Y0194177D02*
X0026720Y0194177D01*
X0026720Y0194139D02*
X0019524Y0194139D01*
X0019524Y0194101D02*
X0026720Y0194101D01*
X0026720Y0194063D02*
X0019524Y0194063D01*
X0019524Y0194025D02*
X0026720Y0194025D01*
X0026720Y0193988D02*
X0019524Y0193988D01*
X0019524Y0193950D02*
X0026720Y0193950D01*
X0026720Y0193912D02*
X0019524Y0193912D01*
X0019524Y0193874D02*
X0026720Y0193874D01*
X0026720Y0193836D02*
X0019524Y0193836D01*
X0019524Y0193798D02*
X0026720Y0193798D01*
X0026720Y0193760D02*
X0019524Y0193760D01*
X0019524Y0193722D02*
X0026720Y0193722D01*
X0026720Y0193684D02*
X0019524Y0193684D01*
X0019524Y0193647D02*
X0026720Y0193647D01*
X0026720Y0193609D02*
X0019524Y0193609D01*
X0019524Y0193571D02*
X0026720Y0193571D01*
X0026720Y0193533D02*
X0019524Y0193533D01*
X0019524Y0193495D02*
X0026720Y0193495D01*
X0026720Y0193457D02*
X0019524Y0193457D01*
X0019524Y0193419D02*
X0026720Y0193419D01*
X0026720Y0193381D02*
X0019524Y0193381D01*
X0019524Y0193344D02*
X0026720Y0193344D01*
X0026720Y0193306D02*
X0019524Y0193306D01*
X0019524Y0193268D02*
X0026720Y0193268D01*
X0026720Y0193230D02*
X0019524Y0193230D01*
X0019524Y0193192D02*
X0026720Y0193192D01*
X0026720Y0193154D02*
X0019524Y0193154D01*
X0019524Y0193116D02*
X0026720Y0193116D01*
X0026720Y0193078D02*
X0019524Y0193078D01*
X0019524Y0193040D02*
X0026720Y0193040D01*
X0026720Y0193003D02*
X0019524Y0193003D01*
X0019524Y0192965D02*
X0026720Y0192965D01*
X0026720Y0192927D02*
X0019524Y0192927D01*
X0019524Y0192889D02*
X0026720Y0192889D01*
X0026720Y0192851D02*
X0019524Y0192851D01*
X0019524Y0192813D02*
X0026720Y0192813D01*
X0026720Y0192775D02*
X0019524Y0192775D01*
X0019524Y0192737D02*
X0026720Y0192737D01*
X0026720Y0192700D02*
X0019524Y0192700D01*
X0019524Y0192662D02*
X0026720Y0192662D01*
X0026720Y0192624D02*
X0019524Y0192624D01*
X0019524Y0192586D02*
X0026720Y0192586D01*
X0026720Y0192548D02*
X0019524Y0192548D01*
X0019524Y0192510D02*
X0026720Y0192510D01*
X0026720Y0192472D02*
X0019524Y0192472D01*
X0019524Y0192434D02*
X0026720Y0192434D01*
X0026720Y0192397D02*
X0019524Y0192397D01*
X0019524Y0192359D02*
X0026720Y0192359D01*
X0026720Y0192321D02*
X0019524Y0192321D01*
X0019524Y0192283D02*
X0026720Y0192283D01*
X0026720Y0192245D02*
X0019524Y0192245D01*
X0019524Y0192207D02*
X0026720Y0192207D01*
X0026720Y0192169D02*
X0019524Y0192169D01*
X0019524Y0192131D02*
X0026720Y0192131D01*
X0026720Y0192093D02*
X0019524Y0192093D01*
X0019524Y0192056D02*
X0026720Y0192056D01*
X0026720Y0192018D02*
X0019524Y0192018D01*
X0019524Y0191980D02*
X0026720Y0191980D01*
X0026720Y0191942D02*
X0019524Y0191942D01*
X0019524Y0191904D02*
X0026720Y0191904D01*
X0026720Y0191866D02*
X0019524Y0191866D01*
X0019524Y0191828D02*
X0026720Y0191828D01*
X0026720Y0191790D02*
X0019524Y0191790D01*
X0019524Y0191753D02*
X0026720Y0191753D01*
X0026720Y0191715D02*
X0019524Y0191715D01*
X0019524Y0191677D02*
X0026720Y0191677D01*
X0026720Y0191639D02*
X0019524Y0191639D01*
X0019524Y0191601D02*
X0026720Y0191601D01*
X0026720Y0191563D02*
X0019524Y0191563D01*
X0019524Y0191525D02*
X0026720Y0191525D01*
X0026720Y0191487D02*
X0019524Y0191487D01*
X0019524Y0191449D02*
X0026720Y0191449D01*
X0026720Y0191412D02*
X0019524Y0191412D01*
X0019524Y0191374D02*
X0026720Y0191374D01*
X0026720Y0191336D02*
X0019524Y0191336D01*
X0019524Y0191298D02*
X0026720Y0191298D01*
X0026720Y0191260D02*
X0019524Y0191260D01*
X0019524Y0191222D02*
X0026720Y0191222D01*
X0026720Y0191184D02*
X0019524Y0191184D01*
X0019524Y0191146D02*
X0026720Y0191146D01*
X0026720Y0191109D02*
X0019524Y0191109D01*
X0019524Y0191071D02*
X0026720Y0191071D01*
X0026720Y0191033D02*
X0019524Y0191033D01*
X0019524Y0190995D02*
X0026720Y0190995D01*
X0026720Y0190957D02*
X0019524Y0190957D01*
X0019524Y0190919D02*
X0026720Y0190919D01*
X0026720Y0190881D02*
X0019524Y0190881D01*
X0019524Y0190843D02*
X0026720Y0190843D01*
X0026720Y0190805D02*
X0019524Y0190805D01*
X0019524Y0190768D02*
X0026720Y0190768D01*
X0026720Y0190730D02*
X0019524Y0190730D01*
X0019524Y0190692D02*
X0026720Y0190692D01*
X0026720Y0190654D02*
X0019524Y0190654D01*
X0019524Y0190616D02*
X0026720Y0190616D01*
X0026720Y0190578D02*
X0019524Y0190578D01*
X0019524Y0190540D02*
X0026720Y0190540D01*
X0026720Y0190502D02*
X0019524Y0190502D01*
X0019524Y0190465D02*
X0026720Y0190465D01*
X0026720Y0190427D02*
X0019524Y0190427D01*
X0019524Y0190389D02*
X0026720Y0190389D01*
X0026720Y0190351D02*
X0019524Y0190351D01*
X0019524Y0190313D02*
X0026720Y0190313D01*
X0026720Y0190275D02*
X0019524Y0190275D01*
X0019524Y0190237D02*
X0026720Y0190237D01*
X0026720Y0190199D02*
X0019524Y0190199D01*
X0019524Y0190162D02*
X0026720Y0190162D01*
X0026720Y0190124D02*
X0019524Y0190124D01*
X0019524Y0190086D02*
X0026720Y0190086D01*
X0026720Y0190048D02*
X0019524Y0190048D01*
X0019524Y0190010D02*
X0026720Y0190010D01*
X0026720Y0189972D02*
X0019524Y0189972D01*
X0019524Y0189934D02*
X0026720Y0189934D01*
X0026720Y0189896D02*
X0019524Y0189896D01*
X0019524Y0189858D02*
X0026720Y0189858D01*
X0026720Y0189821D02*
X0019524Y0189821D01*
X0019524Y0189783D02*
X0026720Y0189783D01*
X0026720Y0189745D02*
X0019524Y0189745D01*
X0019524Y0189707D02*
X0026720Y0189707D01*
X0026720Y0189669D02*
X0019524Y0189669D01*
X0019524Y0189631D02*
X0026720Y0189631D01*
X0026720Y0189593D02*
X0019524Y0189593D01*
X0019524Y0189555D02*
X0026720Y0189555D01*
X0026720Y0189518D02*
X0019524Y0189518D01*
X0019524Y0189480D02*
X0026720Y0189480D01*
X0026720Y0189442D02*
X0019524Y0189442D01*
X0019524Y0189404D02*
X0026720Y0189404D01*
X0026720Y0189366D02*
X0019524Y0189366D01*
X0019524Y0189328D02*
X0026720Y0189328D01*
X0026720Y0189290D02*
X0019524Y0189290D01*
X0019524Y0189252D02*
X0026720Y0189252D01*
X0026720Y0189214D02*
X0019524Y0189214D01*
X0019524Y0189177D02*
X0026720Y0189177D01*
X0026720Y0189139D02*
X0019524Y0189139D01*
X0019524Y0189101D02*
X0026720Y0189101D01*
X0026720Y0189063D02*
X0019524Y0189063D01*
X0019524Y0189025D02*
X0026720Y0189025D01*
X0026720Y0188987D02*
X0019524Y0188987D01*
X0019524Y0188949D02*
X0026720Y0188949D01*
X0026720Y0188911D02*
X0019524Y0188911D01*
X0019524Y0188874D02*
X0026720Y0188874D01*
X0026720Y0188836D02*
X0019524Y0188836D01*
X0019524Y0188798D02*
X0026720Y0188798D01*
X0026720Y0188760D02*
X0019524Y0188760D01*
X0019524Y0188722D02*
X0026720Y0188722D01*
X0026720Y0188684D02*
X0019524Y0188684D01*
X0019524Y0188646D02*
X0026720Y0188646D01*
X0026720Y0188608D02*
X0019524Y0188608D01*
X0019524Y0188570D02*
X0026720Y0188570D01*
X0026720Y0188533D02*
X0019524Y0188533D01*
X0019524Y0188495D02*
X0026720Y0188495D01*
X0026720Y0188457D02*
X0019524Y0188457D01*
X0019524Y0188419D02*
X0026720Y0188419D01*
X0026720Y0188381D02*
X0019524Y0188381D01*
X0019524Y0188343D02*
X0026720Y0188343D01*
X0026720Y0188305D02*
X0019524Y0188305D01*
X0019524Y0188267D02*
X0026720Y0188267D01*
X0026720Y0188230D02*
X0019524Y0188230D01*
X0019524Y0188192D02*
X0026720Y0188192D01*
X0026720Y0188154D02*
X0019524Y0188154D01*
X0019524Y0188116D02*
X0026720Y0188116D01*
X0026720Y0188078D02*
X0019524Y0188078D01*
X0019524Y0188040D02*
X0026720Y0188040D01*
X0026720Y0188002D02*
X0019524Y0188002D01*
X0019524Y0187964D02*
X0026720Y0187964D01*
X0026720Y0187927D02*
X0019524Y0187927D01*
X0019524Y0187889D02*
X0026720Y0187889D01*
X0026720Y0187851D02*
X0019524Y0187851D01*
X0019524Y0187813D02*
X0026720Y0187813D01*
X0026720Y0187775D02*
X0019524Y0187775D01*
X0019524Y0187737D02*
X0026720Y0187737D01*
X0026720Y0187699D02*
X0019524Y0187699D01*
X0019524Y0187661D02*
X0026720Y0187661D01*
X0026720Y0187623D02*
X0019524Y0187623D01*
X0019524Y0187586D02*
X0026720Y0187586D01*
X0026720Y0187548D02*
X0019524Y0187548D01*
X0019524Y0187510D02*
X0026720Y0187510D01*
X0026720Y0187472D02*
X0019524Y0187472D01*
X0019524Y0187434D02*
X0026720Y0187434D01*
X0026720Y0187396D02*
X0019524Y0187396D01*
X0019524Y0187358D02*
X0026720Y0187358D01*
X0026720Y0187320D02*
X0019524Y0187320D01*
X0019524Y0187283D02*
X0026720Y0187283D01*
X0026720Y0187245D02*
X0019524Y0187245D01*
X0019524Y0187207D02*
X0026720Y0187207D01*
X0026720Y0187169D02*
X0019524Y0187169D01*
X0019524Y0187131D02*
X0026720Y0187131D01*
X0026720Y0187093D02*
X0019524Y0187093D01*
X0019524Y0187055D02*
X0026720Y0187055D01*
X0026720Y0187017D02*
X0019524Y0187017D01*
X0019524Y0186979D02*
X0026720Y0186979D01*
X0026720Y0186942D02*
X0019524Y0186942D01*
X0019524Y0186904D02*
X0026720Y0186904D01*
X0026720Y0186866D02*
X0019524Y0186866D01*
X0019524Y0186828D02*
X0026720Y0186828D01*
X0026720Y0186790D02*
X0019524Y0186790D01*
X0019524Y0186752D02*
X0026720Y0186752D01*
X0026720Y0186714D02*
X0019524Y0186714D01*
X0019524Y0186676D02*
X0026720Y0186676D01*
X0026720Y0186639D02*
X0019524Y0186639D01*
X0019524Y0186601D02*
X0026720Y0186601D01*
X0026720Y0186563D02*
X0019524Y0186563D01*
X0019524Y0186525D02*
X0026720Y0186525D01*
X0026720Y0186487D02*
X0019524Y0186487D01*
X0019524Y0186449D02*
X0026720Y0186449D01*
X0026720Y0186411D02*
X0019524Y0186411D01*
X0019524Y0186373D02*
X0026720Y0186373D01*
X0026720Y0186335D02*
X0019524Y0186335D01*
X0019524Y0186298D02*
X0026720Y0186298D01*
X0026720Y0186260D02*
X0019524Y0186260D01*
X0019524Y0186222D02*
X0026720Y0186222D01*
X0026720Y0186184D02*
X0019524Y0186184D01*
X0019524Y0186146D02*
X0026720Y0186146D01*
X0026720Y0186108D02*
X0019524Y0186108D01*
X0019524Y0186070D02*
X0026720Y0186070D01*
X0026720Y0186032D02*
X0019524Y0186032D01*
X0019524Y0185995D02*
X0026720Y0185995D01*
X0026720Y0185957D02*
X0019524Y0185957D01*
X0019524Y0185919D02*
X0026720Y0185919D01*
X0026720Y0185881D02*
X0019524Y0185881D01*
X0019524Y0185843D02*
X0026720Y0185843D01*
X0026720Y0185805D02*
X0019524Y0185805D01*
X0019524Y0185767D02*
X0026720Y0185767D01*
X0026720Y0185729D02*
X0019524Y0185729D01*
X0019524Y0185691D02*
X0026720Y0185691D01*
X0026720Y0185654D02*
X0019524Y0185654D01*
X0019524Y0185616D02*
X0026720Y0185616D01*
X0026720Y0185578D02*
X0019524Y0185578D01*
X0019524Y0185540D02*
X0026720Y0185540D01*
X0026720Y0185502D02*
X0019524Y0185502D01*
X0019524Y0185464D02*
X0026720Y0185464D01*
X0026720Y0185426D02*
X0019524Y0185426D01*
X0019524Y0185388D02*
X0026720Y0185388D01*
X0026720Y0185351D02*
X0019524Y0185351D01*
X0019524Y0185313D02*
X0026720Y0185313D01*
X0026720Y0185275D02*
X0019524Y0185275D01*
X0019524Y0185237D02*
X0026720Y0185237D01*
X0026720Y0185199D02*
X0019524Y0185199D01*
X0019524Y0185161D02*
X0026720Y0185161D01*
X0026720Y0185123D02*
X0019524Y0185123D01*
X0019524Y0185085D02*
X0026720Y0185085D01*
X0026720Y0185048D02*
X0019524Y0185048D01*
X0019524Y0185010D02*
X0026720Y0185010D01*
X0026720Y0184972D02*
X0019524Y0184972D01*
X0019524Y0184934D02*
X0026720Y0184934D01*
X0026720Y0184896D02*
X0019524Y0184896D01*
X0019524Y0184858D02*
X0026720Y0184858D01*
X0026720Y0184820D02*
X0019524Y0184820D01*
X0019524Y0184782D02*
X0026720Y0184782D01*
X0026720Y0184744D02*
X0019524Y0184744D01*
X0019524Y0184707D02*
X0026720Y0184707D01*
X0026720Y0184669D02*
X0019524Y0184669D01*
X0019524Y0184631D02*
X0026720Y0184631D01*
X0026720Y0184593D02*
X0019524Y0184593D01*
X0019524Y0184555D02*
X0026720Y0184555D01*
X0026720Y0184517D02*
X0019524Y0184517D01*
X0019524Y0184479D02*
X0026720Y0184479D01*
X0026720Y0184441D02*
X0019524Y0184441D01*
X0019524Y0184404D02*
X0026720Y0184404D01*
X0026720Y0184366D02*
X0019524Y0184366D01*
X0019524Y0184328D02*
X0026720Y0184328D01*
X0026720Y0184290D02*
X0019524Y0184290D01*
X0019524Y0184252D02*
X0026720Y0184252D01*
X0026720Y0184214D02*
X0019524Y0184214D01*
X0019524Y0184176D02*
X0026720Y0184176D01*
X0026720Y0184138D02*
X0019524Y0184138D01*
X0019524Y0184100D02*
X0026720Y0184100D01*
X0026720Y0184063D02*
X0019524Y0184063D01*
X0019524Y0184025D02*
X0026720Y0184025D01*
X0026720Y0183987D02*
X0019524Y0183987D01*
X0019524Y0183949D02*
X0026720Y0183949D01*
X0026720Y0183911D02*
X0019524Y0183911D01*
X0019524Y0183873D02*
X0026720Y0183873D01*
X0026720Y0183835D02*
X0019524Y0183835D01*
X0019524Y0183797D02*
X0026720Y0183797D01*
X0026720Y0183760D02*
X0019524Y0183760D01*
X0019524Y0183722D02*
X0026720Y0183722D01*
X0026720Y0183684D02*
X0019524Y0183684D01*
X0019524Y0183646D02*
X0026720Y0183646D01*
X0026720Y0183608D02*
X0019524Y0183608D01*
X0019524Y0183570D02*
X0026720Y0183570D01*
X0026720Y0183532D02*
X0019524Y0183532D01*
X0019524Y0183494D02*
X0026720Y0183494D01*
X0026720Y0183456D02*
X0019524Y0183456D01*
X0019524Y0183419D02*
X0026720Y0183419D01*
X0026720Y0183381D02*
X0019524Y0183381D01*
X0019524Y0183343D02*
X0026720Y0183343D01*
X0026720Y0183305D02*
X0019524Y0183305D01*
X0019524Y0183267D02*
X0026720Y0183267D01*
X0026720Y0183229D02*
X0019524Y0183229D01*
X0019524Y0183191D02*
X0026720Y0183191D01*
X0026720Y0183153D02*
X0019524Y0183153D01*
X0019524Y0183116D02*
X0026720Y0183116D01*
X0026720Y0183078D02*
X0019524Y0183078D01*
X0019524Y0183040D02*
X0026720Y0183040D01*
X0026720Y0183002D02*
X0019524Y0183002D01*
X0019524Y0182964D02*
X0026720Y0182964D01*
X0026720Y0182926D02*
X0019524Y0182926D01*
X0019524Y0182888D02*
X0026720Y0182888D01*
X0026720Y0182850D02*
X0019524Y0182850D01*
X0019524Y0182813D02*
X0026720Y0182813D01*
X0026720Y0182775D02*
X0019524Y0182775D01*
X0019524Y0182737D02*
X0026720Y0182737D01*
X0026720Y0182699D02*
X0019524Y0182699D01*
X0019524Y0182661D02*
X0026720Y0182661D01*
X0026720Y0182623D02*
X0019524Y0182623D01*
X0019524Y0182585D02*
X0026720Y0182585D01*
X0026720Y0182547D02*
X0019524Y0182547D01*
X0019524Y0182509D02*
X0026720Y0182509D01*
X0026720Y0182472D02*
X0019524Y0182472D01*
X0019524Y0182434D02*
X0026720Y0182434D01*
X0026720Y0182396D02*
X0019524Y0182396D01*
X0019524Y0182358D02*
X0026720Y0182358D01*
X0026720Y0182320D02*
X0019524Y0182320D01*
X0019524Y0182282D02*
X0026720Y0182282D01*
X0026720Y0182244D02*
X0019524Y0182244D01*
X0019524Y0182206D02*
X0026720Y0182206D01*
X0026720Y0182169D02*
X0019524Y0182169D01*
X0019524Y0182131D02*
X0026720Y0182131D01*
X0018736Y0182122D02*
X0018736Y0197870D01*
X0008894Y0197870D01*
X0008894Y0182122D01*
X0018736Y0182122D01*
X0018736Y0182131D02*
X0008894Y0182131D01*
X0008894Y0182169D02*
X0018736Y0182169D01*
X0018736Y0182206D02*
X0008894Y0182206D01*
X0008894Y0182244D02*
X0018736Y0182244D01*
X0018736Y0182282D02*
X0008894Y0182282D01*
X0008894Y0182320D02*
X0018736Y0182320D01*
X0018736Y0182358D02*
X0008894Y0182358D01*
X0008894Y0182396D02*
X0018736Y0182396D01*
X0018736Y0182434D02*
X0008894Y0182434D01*
X0008894Y0182472D02*
X0018736Y0182472D01*
X0018736Y0182509D02*
X0008894Y0182509D01*
X0008894Y0182547D02*
X0018736Y0182547D01*
X0018736Y0182585D02*
X0008894Y0182585D01*
X0008894Y0182623D02*
X0018736Y0182623D01*
X0018736Y0182661D02*
X0008894Y0182661D01*
X0008894Y0182699D02*
X0018736Y0182699D01*
X0018736Y0182737D02*
X0008894Y0182737D01*
X0008894Y0182775D02*
X0018736Y0182775D01*
X0018736Y0182813D02*
X0008894Y0182813D01*
X0008894Y0182850D02*
X0018736Y0182850D01*
X0018736Y0182888D02*
X0008894Y0182888D01*
X0008894Y0182926D02*
X0018736Y0182926D01*
X0018736Y0182964D02*
X0008894Y0182964D01*
X0008894Y0183002D02*
X0018736Y0183002D01*
X0018736Y0183040D02*
X0008894Y0183040D01*
X0008894Y0183078D02*
X0018736Y0183078D01*
X0018736Y0183116D02*
X0008894Y0183116D01*
X0008894Y0183153D02*
X0018736Y0183153D01*
X0018736Y0183191D02*
X0008894Y0183191D01*
X0008894Y0183229D02*
X0018736Y0183229D01*
X0018736Y0183267D02*
X0008894Y0183267D01*
X0008894Y0183305D02*
X0018736Y0183305D01*
X0018736Y0183343D02*
X0008894Y0183343D01*
X0008894Y0183381D02*
X0018736Y0183381D01*
X0018736Y0183419D02*
X0008894Y0183419D01*
X0008894Y0183456D02*
X0018736Y0183456D01*
X0018736Y0183494D02*
X0008894Y0183494D01*
X0008894Y0183532D02*
X0018736Y0183532D01*
X0018736Y0183570D02*
X0008894Y0183570D01*
X0008894Y0183608D02*
X0018736Y0183608D01*
X0018736Y0183646D02*
X0008894Y0183646D01*
X0008894Y0183684D02*
X0018736Y0183684D01*
X0018736Y0183722D02*
X0008894Y0183722D01*
X0008894Y0183760D02*
X0018736Y0183760D01*
X0018736Y0183797D02*
X0008894Y0183797D01*
X0008894Y0183835D02*
X0018736Y0183835D01*
X0018736Y0183873D02*
X0008894Y0183873D01*
X0008894Y0183911D02*
X0018736Y0183911D01*
X0018736Y0183949D02*
X0008894Y0183949D01*
X0008894Y0183987D02*
X0018736Y0183987D01*
X0018736Y0184025D02*
X0008894Y0184025D01*
X0008894Y0184063D02*
X0018736Y0184063D01*
X0018736Y0184100D02*
X0008894Y0184100D01*
X0008894Y0184138D02*
X0018736Y0184138D01*
X0018736Y0184176D02*
X0008894Y0184176D01*
X0008894Y0184214D02*
X0018736Y0184214D01*
X0018736Y0184252D02*
X0008894Y0184252D01*
X0008894Y0184290D02*
X0018736Y0184290D01*
X0018736Y0184328D02*
X0008894Y0184328D01*
X0008894Y0184366D02*
X0018736Y0184366D01*
X0018736Y0184404D02*
X0008894Y0184404D01*
X0008894Y0184441D02*
X0018736Y0184441D01*
X0018736Y0184479D02*
X0008894Y0184479D01*
X0008894Y0184517D02*
X0018736Y0184517D01*
X0018736Y0184555D02*
X0008894Y0184555D01*
X0008894Y0184593D02*
X0018736Y0184593D01*
X0018736Y0184631D02*
X0008894Y0184631D01*
X0008894Y0184669D02*
X0018736Y0184669D01*
X0018736Y0184707D02*
X0008894Y0184707D01*
X0008894Y0184744D02*
X0018736Y0184744D01*
X0018736Y0184782D02*
X0008894Y0184782D01*
X0008894Y0184820D02*
X0018736Y0184820D01*
X0018736Y0184858D02*
X0008894Y0184858D01*
X0008894Y0184896D02*
X0018736Y0184896D01*
X0018736Y0184934D02*
X0008894Y0184934D01*
X0008894Y0184972D02*
X0018736Y0184972D01*
X0018736Y0185010D02*
X0008894Y0185010D01*
X0008894Y0185048D02*
X0018736Y0185048D01*
X0018736Y0185085D02*
X0008894Y0185085D01*
X0008894Y0185123D02*
X0018736Y0185123D01*
X0018736Y0185161D02*
X0008894Y0185161D01*
X0008894Y0185199D02*
X0018736Y0185199D01*
X0018736Y0185237D02*
X0008894Y0185237D01*
X0008894Y0185275D02*
X0018736Y0185275D01*
X0018736Y0185313D02*
X0008894Y0185313D01*
X0008894Y0185351D02*
X0018736Y0185351D01*
X0018736Y0185388D02*
X0008894Y0185388D01*
X0008894Y0185426D02*
X0018736Y0185426D01*
X0018736Y0185464D02*
X0008894Y0185464D01*
X0008894Y0185502D02*
X0018736Y0185502D01*
X0018736Y0185540D02*
X0008894Y0185540D01*
X0008894Y0185578D02*
X0018736Y0185578D01*
X0018736Y0185616D02*
X0008894Y0185616D01*
X0008894Y0185654D02*
X0018736Y0185654D01*
X0018736Y0185691D02*
X0008894Y0185691D01*
X0008894Y0185729D02*
X0018736Y0185729D01*
X0018736Y0185767D02*
X0008894Y0185767D01*
X0008894Y0185805D02*
X0018736Y0185805D01*
X0018736Y0185843D02*
X0008894Y0185843D01*
X0008894Y0185881D02*
X0018736Y0185881D01*
X0018736Y0185919D02*
X0008894Y0185919D01*
X0008894Y0185957D02*
X0018736Y0185957D01*
X0018736Y0185995D02*
X0008894Y0185995D01*
X0008894Y0186032D02*
X0018736Y0186032D01*
X0018736Y0186070D02*
X0008894Y0186070D01*
X0008894Y0186108D02*
X0018736Y0186108D01*
X0018736Y0186146D02*
X0008894Y0186146D01*
X0008894Y0186184D02*
X0018736Y0186184D01*
X0018736Y0186222D02*
X0008894Y0186222D01*
X0008894Y0186260D02*
X0018736Y0186260D01*
X0018736Y0186298D02*
X0008894Y0186298D01*
X0008894Y0186335D02*
X0018736Y0186335D01*
X0018736Y0186373D02*
X0008894Y0186373D01*
X0008894Y0186411D02*
X0018736Y0186411D01*
X0018736Y0186449D02*
X0008894Y0186449D01*
X0008894Y0186487D02*
X0018736Y0186487D01*
X0018736Y0186525D02*
X0008894Y0186525D01*
X0008894Y0186563D02*
X0018736Y0186563D01*
X0018736Y0186601D02*
X0008894Y0186601D01*
X0008894Y0186639D02*
X0018736Y0186639D01*
X0018736Y0186676D02*
X0008894Y0186676D01*
X0008894Y0186714D02*
X0018736Y0186714D01*
X0018736Y0186752D02*
X0008894Y0186752D01*
X0008894Y0186790D02*
X0018736Y0186790D01*
X0018736Y0186828D02*
X0008894Y0186828D01*
X0008894Y0186866D02*
X0018736Y0186866D01*
X0018736Y0186904D02*
X0008894Y0186904D01*
X0008894Y0186942D02*
X0018736Y0186942D01*
X0018736Y0186979D02*
X0008894Y0186979D01*
X0008894Y0187017D02*
X0018736Y0187017D01*
X0018736Y0187055D02*
X0008894Y0187055D01*
X0008894Y0187093D02*
X0018736Y0187093D01*
X0018736Y0187131D02*
X0008894Y0187131D01*
X0008894Y0187169D02*
X0018736Y0187169D01*
X0018736Y0187207D02*
X0008894Y0187207D01*
X0008894Y0187245D02*
X0018736Y0187245D01*
X0018736Y0187283D02*
X0008894Y0187283D01*
X0008894Y0187320D02*
X0018736Y0187320D01*
X0018736Y0187358D02*
X0008894Y0187358D01*
X0008894Y0187396D02*
X0018736Y0187396D01*
X0018736Y0187434D02*
X0008894Y0187434D01*
X0008894Y0187472D02*
X0018736Y0187472D01*
X0018736Y0187510D02*
X0008894Y0187510D01*
X0008894Y0187548D02*
X0018736Y0187548D01*
X0018736Y0187586D02*
X0008894Y0187586D01*
X0008894Y0187623D02*
X0018736Y0187623D01*
X0018736Y0187661D02*
X0008894Y0187661D01*
X0008894Y0187699D02*
X0018736Y0187699D01*
X0018736Y0187737D02*
X0008894Y0187737D01*
X0008894Y0187775D02*
X0018736Y0187775D01*
X0018736Y0187813D02*
X0008894Y0187813D01*
X0008894Y0187851D02*
X0018736Y0187851D01*
X0018736Y0187889D02*
X0008894Y0187889D01*
X0008894Y0187927D02*
X0018736Y0187927D01*
X0018736Y0187964D02*
X0008894Y0187964D01*
X0008894Y0188002D02*
X0018736Y0188002D01*
X0018736Y0188040D02*
X0008894Y0188040D01*
X0008894Y0188078D02*
X0018736Y0188078D01*
X0018736Y0188116D02*
X0008894Y0188116D01*
X0008894Y0188154D02*
X0018736Y0188154D01*
X0018736Y0188192D02*
X0008894Y0188192D01*
X0008894Y0188230D02*
X0018736Y0188230D01*
X0018736Y0188267D02*
X0008894Y0188267D01*
X0008894Y0188305D02*
X0018736Y0188305D01*
X0018736Y0188343D02*
X0008894Y0188343D01*
X0008894Y0188381D02*
X0018736Y0188381D01*
X0018736Y0188419D02*
X0008894Y0188419D01*
X0008894Y0188457D02*
X0018736Y0188457D01*
X0018736Y0188495D02*
X0008894Y0188495D01*
X0008894Y0188533D02*
X0018736Y0188533D01*
X0018736Y0188570D02*
X0008894Y0188570D01*
X0008894Y0188608D02*
X0018736Y0188608D01*
X0018736Y0188646D02*
X0008894Y0188646D01*
X0008894Y0188684D02*
X0018736Y0188684D01*
X0018736Y0188722D02*
X0008894Y0188722D01*
X0008894Y0188760D02*
X0018736Y0188760D01*
X0018736Y0188798D02*
X0008894Y0188798D01*
X0008894Y0188836D02*
X0018736Y0188836D01*
X0018736Y0188874D02*
X0008894Y0188874D01*
X0008894Y0188911D02*
X0018736Y0188911D01*
X0018736Y0188949D02*
X0008894Y0188949D01*
X0008894Y0188987D02*
X0018736Y0188987D01*
X0018736Y0189025D02*
X0008894Y0189025D01*
X0008894Y0189063D02*
X0018736Y0189063D01*
X0018736Y0189101D02*
X0008894Y0189101D01*
X0008894Y0189139D02*
X0018736Y0189139D01*
X0018736Y0189177D02*
X0008894Y0189177D01*
X0008894Y0189214D02*
X0018736Y0189214D01*
X0018736Y0189252D02*
X0008894Y0189252D01*
X0008894Y0189290D02*
X0018736Y0189290D01*
X0018736Y0189328D02*
X0008894Y0189328D01*
X0008894Y0189366D02*
X0018736Y0189366D01*
X0018736Y0189404D02*
X0008894Y0189404D01*
X0008894Y0189442D02*
X0018736Y0189442D01*
X0018736Y0189480D02*
X0008894Y0189480D01*
X0008894Y0189518D02*
X0018736Y0189518D01*
X0018736Y0189555D02*
X0008894Y0189555D01*
X0008894Y0189593D02*
X0018736Y0189593D01*
X0018736Y0189631D02*
X0008894Y0189631D01*
X0008894Y0189669D02*
X0018736Y0189669D01*
X0018736Y0189707D02*
X0008894Y0189707D01*
X0008894Y0189745D02*
X0018736Y0189745D01*
X0018736Y0189783D02*
X0008894Y0189783D01*
X0008894Y0189821D02*
X0018736Y0189821D01*
X0018736Y0189858D02*
X0008894Y0189858D01*
X0008894Y0189896D02*
X0018736Y0189896D01*
X0018736Y0189934D02*
X0008894Y0189934D01*
X0008894Y0189972D02*
X0018736Y0189972D01*
X0018736Y0190010D02*
X0008894Y0190010D01*
X0008894Y0190048D02*
X0018736Y0190048D01*
X0018736Y0190086D02*
X0008894Y0190086D01*
X0008894Y0190124D02*
X0018736Y0190124D01*
X0018736Y0190162D02*
X0008894Y0190162D01*
X0008894Y0190199D02*
X0018736Y0190199D01*
X0018736Y0190237D02*
X0008894Y0190237D01*
X0008894Y0190275D02*
X0018736Y0190275D01*
X0018736Y0190313D02*
X0008894Y0190313D01*
X0008894Y0190351D02*
X0018736Y0190351D01*
X0018736Y0190389D02*
X0008894Y0190389D01*
X0008894Y0190427D02*
X0018736Y0190427D01*
X0018736Y0190465D02*
X0008894Y0190465D01*
X0008894Y0190502D02*
X0018736Y0190502D01*
X0018736Y0190540D02*
X0008894Y0190540D01*
X0008894Y0190578D02*
X0018736Y0190578D01*
X0018736Y0190616D02*
X0008894Y0190616D01*
X0008894Y0190654D02*
X0018736Y0190654D01*
X0018736Y0190692D02*
X0008894Y0190692D01*
X0008894Y0190730D02*
X0018736Y0190730D01*
X0018736Y0190768D02*
X0008894Y0190768D01*
X0008894Y0190805D02*
X0018736Y0190805D01*
X0018736Y0190843D02*
X0008894Y0190843D01*
X0008894Y0190881D02*
X0018736Y0190881D01*
X0018736Y0190919D02*
X0008894Y0190919D01*
X0008894Y0190957D02*
X0018736Y0190957D01*
X0018736Y0190995D02*
X0008894Y0190995D01*
X0008894Y0191033D02*
X0018736Y0191033D01*
X0018736Y0191071D02*
X0008894Y0191071D01*
X0008894Y0191109D02*
X0018736Y0191109D01*
X0018736Y0191146D02*
X0008894Y0191146D01*
X0008894Y0191184D02*
X0018736Y0191184D01*
X0018736Y0191222D02*
X0008894Y0191222D01*
X0008894Y0191260D02*
X0018736Y0191260D01*
X0018736Y0191298D02*
X0008894Y0191298D01*
X0008894Y0191336D02*
X0018736Y0191336D01*
X0018736Y0191374D02*
X0008894Y0191374D01*
X0008894Y0191412D02*
X0018736Y0191412D01*
X0018736Y0191449D02*
X0008894Y0191449D01*
X0008894Y0191487D02*
X0018736Y0191487D01*
X0018736Y0191525D02*
X0008894Y0191525D01*
X0008894Y0191563D02*
X0018736Y0191563D01*
X0018736Y0191601D02*
X0008894Y0191601D01*
X0008894Y0191639D02*
X0018736Y0191639D01*
X0018736Y0191677D02*
X0008894Y0191677D01*
X0008894Y0191715D02*
X0018736Y0191715D01*
X0018736Y0191753D02*
X0008894Y0191753D01*
X0008894Y0191790D02*
X0018736Y0191790D01*
X0018736Y0191828D02*
X0008894Y0191828D01*
X0008894Y0191866D02*
X0018736Y0191866D01*
X0018736Y0191904D02*
X0008894Y0191904D01*
X0008894Y0191942D02*
X0018736Y0191942D01*
X0018736Y0191980D02*
X0008894Y0191980D01*
X0008894Y0192018D02*
X0018736Y0192018D01*
X0018736Y0192056D02*
X0008894Y0192056D01*
X0008894Y0192093D02*
X0018736Y0192093D01*
X0018736Y0192131D02*
X0008894Y0192131D01*
X0008894Y0192169D02*
X0018736Y0192169D01*
X0018736Y0192207D02*
X0008894Y0192207D01*
X0008894Y0192245D02*
X0018736Y0192245D01*
X0018736Y0192283D02*
X0008894Y0192283D01*
X0008894Y0192321D02*
X0018736Y0192321D01*
X0018736Y0192359D02*
X0008894Y0192359D01*
X0008894Y0192397D02*
X0018736Y0192397D01*
X0018736Y0192434D02*
X0008894Y0192434D01*
X0008894Y0192472D02*
X0018736Y0192472D01*
X0018736Y0192510D02*
X0008894Y0192510D01*
X0008894Y0192548D02*
X0018736Y0192548D01*
X0018736Y0192586D02*
X0008894Y0192586D01*
X0008894Y0192624D02*
X0018736Y0192624D01*
X0018736Y0192662D02*
X0008894Y0192662D01*
X0008894Y0192700D02*
X0018736Y0192700D01*
X0018736Y0192737D02*
X0008894Y0192737D01*
X0008894Y0192775D02*
X0018736Y0192775D01*
X0018736Y0192813D02*
X0008894Y0192813D01*
X0008894Y0192851D02*
X0018736Y0192851D01*
X0018736Y0192889D02*
X0008894Y0192889D01*
X0008894Y0192927D02*
X0018736Y0192927D01*
X0018736Y0192965D02*
X0008894Y0192965D01*
X0008894Y0193003D02*
X0018736Y0193003D01*
X0018736Y0193040D02*
X0008894Y0193040D01*
X0008894Y0193078D02*
X0018736Y0193078D01*
X0018736Y0193116D02*
X0008894Y0193116D01*
X0008894Y0193154D02*
X0018736Y0193154D01*
X0018736Y0193192D02*
X0008894Y0193192D01*
X0008894Y0193230D02*
X0018736Y0193230D01*
X0018736Y0193268D02*
X0008894Y0193268D01*
X0008894Y0193306D02*
X0018736Y0193306D01*
X0018736Y0193344D02*
X0008894Y0193344D01*
X0008894Y0193381D02*
X0018736Y0193381D01*
X0018736Y0193419D02*
X0008894Y0193419D01*
X0008894Y0193457D02*
X0018736Y0193457D01*
X0018736Y0193495D02*
X0008894Y0193495D01*
X0008894Y0193533D02*
X0018736Y0193533D01*
X0018736Y0193571D02*
X0008894Y0193571D01*
X0008894Y0193609D02*
X0018736Y0193609D01*
X0018736Y0193647D02*
X0008894Y0193647D01*
X0008894Y0193684D02*
X0018736Y0193684D01*
X0018736Y0193722D02*
X0008894Y0193722D01*
X0008894Y0193760D02*
X0018736Y0193760D01*
X0018736Y0193798D02*
X0008894Y0193798D01*
X0008894Y0193836D02*
X0018736Y0193836D01*
X0018736Y0193874D02*
X0008894Y0193874D01*
X0008894Y0193912D02*
X0018736Y0193912D01*
X0018736Y0193950D02*
X0008894Y0193950D01*
X0008894Y0193988D02*
X0018736Y0193988D01*
X0018736Y0194025D02*
X0008894Y0194025D01*
X0008894Y0194063D02*
X0018736Y0194063D01*
X0018736Y0194101D02*
X0008894Y0194101D01*
X0008894Y0194139D02*
X0018736Y0194139D01*
X0018736Y0194177D02*
X0008894Y0194177D01*
X0008894Y0194215D02*
X0018736Y0194215D01*
X0018736Y0194253D02*
X0008894Y0194253D01*
X0008894Y0194291D02*
X0018736Y0194291D01*
X0018736Y0194328D02*
X0008894Y0194328D01*
X0008894Y0194366D02*
X0018736Y0194366D01*
X0018736Y0194404D02*
X0008894Y0194404D01*
X0008894Y0194442D02*
X0018736Y0194442D01*
X0018736Y0194480D02*
X0008894Y0194480D01*
X0008894Y0194518D02*
X0018736Y0194518D01*
X0018736Y0194556D02*
X0008894Y0194556D01*
X0008894Y0194594D02*
X0018736Y0194594D01*
X0018736Y0194632D02*
X0008894Y0194632D01*
X0008894Y0194669D02*
X0018736Y0194669D01*
X0018736Y0194707D02*
X0008894Y0194707D01*
X0008894Y0194745D02*
X0018736Y0194745D01*
X0018736Y0194783D02*
X0008894Y0194783D01*
X0008894Y0194821D02*
X0018736Y0194821D01*
X0018736Y0194859D02*
X0008894Y0194859D01*
X0008894Y0194897D02*
X0018736Y0194897D01*
X0018736Y0194935D02*
X0008894Y0194935D01*
X0008894Y0194972D02*
X0018736Y0194972D01*
X0018736Y0195010D02*
X0008894Y0195010D01*
X0008894Y0195048D02*
X0018736Y0195048D01*
X0018736Y0195086D02*
X0008894Y0195086D01*
X0008894Y0195124D02*
X0018736Y0195124D01*
X0018736Y0195162D02*
X0008894Y0195162D01*
X0008894Y0195200D02*
X0018736Y0195200D01*
X0018736Y0195238D02*
X0008894Y0195238D01*
X0008894Y0195275D02*
X0018736Y0195275D01*
X0018736Y0195313D02*
X0008894Y0195313D01*
X0008894Y0195351D02*
X0018736Y0195351D01*
X0018736Y0195389D02*
X0008894Y0195389D01*
X0008894Y0195427D02*
X0018736Y0195427D01*
X0018736Y0195465D02*
X0008894Y0195465D01*
X0008894Y0195503D02*
X0018736Y0195503D01*
X0018736Y0195541D02*
X0008894Y0195541D01*
X0008894Y0195579D02*
X0018736Y0195579D01*
X0018736Y0195616D02*
X0008894Y0195616D01*
X0008894Y0195654D02*
X0018736Y0195654D01*
X0018736Y0195692D02*
X0008894Y0195692D01*
X0008894Y0195730D02*
X0018736Y0195730D01*
X0018736Y0195768D02*
X0008894Y0195768D01*
X0008894Y0195806D02*
X0018736Y0195806D01*
X0018736Y0195844D02*
X0008894Y0195844D01*
X0008894Y0195882D02*
X0018736Y0195882D01*
X0018736Y0195919D02*
X0008894Y0195919D01*
X0008894Y0195957D02*
X0018736Y0195957D01*
X0018736Y0195995D02*
X0008894Y0195995D01*
X0008894Y0196033D02*
X0018736Y0196033D01*
X0018736Y0196071D02*
X0008894Y0196071D01*
X0008894Y0196109D02*
X0018736Y0196109D01*
X0018736Y0196147D02*
X0008894Y0196147D01*
X0008894Y0196185D02*
X0018736Y0196185D01*
X0018736Y0196223D02*
X0008894Y0196223D01*
X0008894Y0196260D02*
X0018736Y0196260D01*
X0018736Y0196298D02*
X0008894Y0196298D01*
X0008894Y0196336D02*
X0018736Y0196336D01*
X0018736Y0196374D02*
X0008894Y0196374D01*
X0008894Y0196412D02*
X0018736Y0196412D01*
X0018736Y0196450D02*
X0008894Y0196450D01*
X0008894Y0196488D02*
X0018736Y0196488D01*
X0018736Y0196526D02*
X0008894Y0196526D01*
X0008894Y0196563D02*
X0018736Y0196563D01*
X0018736Y0196601D02*
X0008894Y0196601D01*
X0008894Y0196639D02*
X0018736Y0196639D01*
X0018736Y0196677D02*
X0008894Y0196677D01*
X0008894Y0196715D02*
X0018736Y0196715D01*
X0018736Y0196753D02*
X0008894Y0196753D01*
X0008894Y0196791D02*
X0018736Y0196791D01*
X0018736Y0196829D02*
X0008894Y0196829D01*
X0008894Y0196867D02*
X0018736Y0196867D01*
X0018736Y0196904D02*
X0008894Y0196904D01*
X0008894Y0196942D02*
X0018736Y0196942D01*
X0018736Y0196980D02*
X0008894Y0196980D01*
X0008894Y0197018D02*
X0018736Y0197018D01*
X0018736Y0197056D02*
X0008894Y0197056D01*
X0008894Y0197094D02*
X0018736Y0197094D01*
X0018736Y0197132D02*
X0008894Y0197132D01*
X0008894Y0197170D02*
X0018736Y0197170D01*
X0018736Y0197207D02*
X0008894Y0197207D01*
X0008894Y0197245D02*
X0018736Y0197245D01*
X0018736Y0197283D02*
X0008894Y0197283D01*
X0008894Y0197321D02*
X0018736Y0197321D01*
X0018736Y0197359D02*
X0008894Y0197359D01*
X0008894Y0197397D02*
X0018736Y0197397D01*
X0018736Y0197435D02*
X0008894Y0197435D01*
X0008894Y0197473D02*
X0018736Y0197473D01*
X0018736Y0197510D02*
X0008894Y0197510D01*
X0008894Y0197548D02*
X0018736Y0197548D01*
X0018736Y0197586D02*
X0008894Y0197586D01*
X0008894Y0197624D02*
X0018736Y0197624D01*
X0018736Y0197662D02*
X0008894Y0197662D01*
X0008894Y0197700D02*
X0018736Y0197700D01*
X0018736Y0197738D02*
X0008894Y0197738D01*
X0008894Y0197776D02*
X0018736Y0197776D01*
X0018736Y0197814D02*
X0008894Y0197814D01*
X0008894Y0197851D02*
X0018736Y0197851D01*
M02*
