G04 EAGLE Gerber RS-274X export*
G75*
%MOMM*%
%FSLAX34Y34*%
%LPD*%
%INBottom Copper*%
%IPPOS*%
%AMOC8*
5,1,8,0,0,1.08239X$1,22.5*%
G01*
%ADD10C,2.000000*%
%ADD11R,1.676400X1.676400*%
%ADD12C,1.676400*%
%ADD13R,1.550000X1.550000*%
%ADD14C,1.550000*%
%ADD15R,1.600000X1.600000*%
%ADD16C,1.600000*%
%ADD17R,3.000000X3.000000*%
%ADD18C,3.000000*%
%ADD19C,2.082800*%
%ADD20C,16.000000*%
%ADD21R,2.540000X2.540000*%
%ADD22C,1.800000*%
%ADD23C,2.540000*%
%ADD24C,2.200000*%
%ADD25C,2.250000*%
%ADD26C,4.016000*%
%ADD27R,2.250000X2.250000*%
%ADD28R,8.000000X8.000000*%
%ADD29C,2.540000*%
%ADD30C,0.508000*%
%ADD31C,0.254000*%
%ADD32C,1.016000*%
%ADD33C,0.406400*%

G36*
X2209864Y-87640D02*
X2209864Y-87640D01*
X2209928Y-87641D01*
X2210003Y-87620D01*
X2210079Y-87609D01*
X2210138Y-87583D01*
X2210200Y-87566D01*
X2210266Y-87525D01*
X2210336Y-87493D01*
X2210385Y-87451D01*
X2210440Y-87418D01*
X2210492Y-87360D01*
X2210550Y-87310D01*
X2210586Y-87256D01*
X2210629Y-87208D01*
X2210662Y-87139D01*
X2210705Y-87074D01*
X2210724Y-87012D01*
X2210752Y-86955D01*
X2210763Y-86885D01*
X2210787Y-86804D01*
X2210788Y-86719D01*
X2210799Y-86650D01*
X2210799Y115380D01*
X2210790Y115444D01*
X2210791Y115508D01*
X2210770Y115583D01*
X2210759Y115659D01*
X2210733Y115718D01*
X2210716Y115780D01*
X2210675Y115846D01*
X2210643Y115916D01*
X2210601Y115965D01*
X2210568Y116020D01*
X2210510Y116072D01*
X2210460Y116130D01*
X2210406Y116166D01*
X2210358Y116209D01*
X2210289Y116242D01*
X2210224Y116285D01*
X2210162Y116304D01*
X2210105Y116332D01*
X2210035Y116343D01*
X2209954Y116367D01*
X2209869Y116368D01*
X2209800Y116379D01*
X2176281Y116379D01*
X2150730Y141931D01*
X2150722Y141936D01*
X2150716Y141944D01*
X2150609Y142021D01*
X2150504Y142100D01*
X2150495Y142103D01*
X2150487Y142109D01*
X2150364Y142153D01*
X2150240Y142199D01*
X2150231Y142200D01*
X2150222Y142203D01*
X2150090Y142211D01*
X2149959Y142221D01*
X2149950Y142219D01*
X2149940Y142220D01*
X2149865Y142202D01*
X2149683Y142164D01*
X2149662Y142152D01*
X2149641Y142147D01*
X2148438Y141649D01*
X2144162Y141649D01*
X2140210Y143286D01*
X2137186Y146310D01*
X2135549Y150262D01*
X2135549Y154538D01*
X2137186Y158490D01*
X2140210Y161514D01*
X2144162Y163151D01*
X2148438Y163151D01*
X2152390Y161514D01*
X2155414Y158490D01*
X2157051Y154538D01*
X2157051Y150262D01*
X2156553Y149059D01*
X2156550Y149050D01*
X2156546Y149042D01*
X2156515Y148913D01*
X2156483Y148786D01*
X2156483Y148777D01*
X2156481Y148767D01*
X2156488Y148635D01*
X2156492Y148504D01*
X2156495Y148495D01*
X2156495Y148486D01*
X2156538Y148361D01*
X2156579Y148236D01*
X2156585Y148228D01*
X2156588Y148219D01*
X2156633Y148157D01*
X2156738Y148003D01*
X2156757Y147988D01*
X2156769Y147970D01*
X2179526Y125213D01*
X2179603Y125156D01*
X2179675Y125091D01*
X2179716Y125071D01*
X2179752Y125044D01*
X2179842Y125010D01*
X2179928Y124968D01*
X2179970Y124962D01*
X2180016Y124945D01*
X2180143Y124935D01*
X2180233Y124921D01*
X2209800Y124921D01*
X2209864Y124930D01*
X2209928Y124929D01*
X2210003Y124950D01*
X2210079Y124961D01*
X2210138Y124987D01*
X2210200Y125004D01*
X2210266Y125045D01*
X2210336Y125077D01*
X2210385Y125119D01*
X2210440Y125152D01*
X2210492Y125210D01*
X2210550Y125260D01*
X2210586Y125314D01*
X2210629Y125362D01*
X2210662Y125431D01*
X2210705Y125496D01*
X2210724Y125558D01*
X2210752Y125615D01*
X2210763Y125685D01*
X2210787Y125766D01*
X2210788Y125851D01*
X2210799Y125920D01*
X2210799Y376087D01*
X2210795Y376119D01*
X2210797Y376151D01*
X2210775Y376258D01*
X2210759Y376366D01*
X2210746Y376396D01*
X2210740Y376427D01*
X2210688Y376524D01*
X2210643Y376623D01*
X2210622Y376648D01*
X2210607Y376676D01*
X2210531Y376755D01*
X2210460Y376838D01*
X2210433Y376855D01*
X2210410Y376878D01*
X2210315Y376932D01*
X2210224Y376992D01*
X2210193Y377001D01*
X2210165Y377017D01*
X2210058Y377043D01*
X2209954Y377074D01*
X2209922Y377075D01*
X2209891Y377082D01*
X2209781Y377077D01*
X2209672Y377078D01*
X2209641Y377070D01*
X2209609Y377068D01*
X2209506Y377032D01*
X2209400Y377003D01*
X2209373Y376986D01*
X2209342Y376975D01*
X2209269Y376922D01*
X2209160Y376855D01*
X2209128Y376819D01*
X2209093Y376794D01*
X2148323Y316024D01*
X2148266Y315947D01*
X2148201Y315875D01*
X2148181Y315834D01*
X2148154Y315798D01*
X2148120Y315708D01*
X2148078Y315622D01*
X2148072Y315580D01*
X2148055Y315534D01*
X2148045Y315407D01*
X2148031Y315317D01*
X2148031Y201035D01*
X2148032Y201026D01*
X2148031Y201016D01*
X2148052Y200886D01*
X2148071Y200756D01*
X2148074Y200747D01*
X2148076Y200738D01*
X2148133Y200619D01*
X2148187Y200499D01*
X2148193Y200492D01*
X2148197Y200483D01*
X2148285Y200385D01*
X2148370Y200285D01*
X2148378Y200280D01*
X2148384Y200273D01*
X2148450Y200233D01*
X2148606Y200130D01*
X2148629Y200123D01*
X2148648Y200112D01*
X2149850Y199614D01*
X2152874Y196590D01*
X2154511Y192638D01*
X2154511Y188362D01*
X2152874Y184410D01*
X2149850Y181386D01*
X2145898Y179749D01*
X2141622Y179749D01*
X2137670Y181386D01*
X2134646Y184410D01*
X2133009Y188362D01*
X2133009Y192638D01*
X2134646Y196590D01*
X2137670Y199614D01*
X2138872Y200112D01*
X2138881Y200117D01*
X2138890Y200119D01*
X2139002Y200189D01*
X2139115Y200256D01*
X2139122Y200263D01*
X2139130Y200268D01*
X2139218Y200366D01*
X2139308Y200461D01*
X2139312Y200470D01*
X2139319Y200477D01*
X2139376Y200595D01*
X2139436Y200713D01*
X2139438Y200722D01*
X2139442Y200731D01*
X2139454Y200806D01*
X2139488Y200990D01*
X2139486Y201014D01*
X2139489Y201035D01*
X2139489Y319269D01*
X2142284Y322063D01*
X2210507Y390286D01*
X2210525Y390311D01*
X2210549Y390332D01*
X2210584Y390385D01*
X2210629Y390435D01*
X2210649Y390475D01*
X2210676Y390512D01*
X2210688Y390544D01*
X2210704Y390568D01*
X2210721Y390625D01*
X2210752Y390688D01*
X2210758Y390730D01*
X2210775Y390776D01*
X2210778Y390812D01*
X2210786Y390837D01*
X2210787Y390914D01*
X2210799Y390993D01*
X2210799Y391860D01*
X2210793Y391902D01*
X2210796Y391943D01*
X2210775Y392027D01*
X2210759Y392140D01*
X2210735Y392193D01*
X2210723Y392243D01*
X2210479Y392832D01*
X2210479Y397108D01*
X2210723Y397697D01*
X2210734Y397738D01*
X2210752Y397775D01*
X2210765Y397860D01*
X2210793Y397970D01*
X2210791Y398029D01*
X2210799Y398080D01*
X2210799Y621886D01*
X2375607Y786693D01*
X2375664Y786770D01*
X2375729Y786842D01*
X2375749Y786883D01*
X2375776Y786919D01*
X2375810Y787009D01*
X2375852Y787095D01*
X2375858Y787137D01*
X2375875Y787183D01*
X2375885Y787311D01*
X2375899Y787400D01*
X2375899Y920750D01*
X2375886Y920845D01*
X2375881Y920941D01*
X2375866Y920984D01*
X2375859Y921029D01*
X2375820Y921117D01*
X2375788Y921208D01*
X2375763Y921242D01*
X2375743Y921286D01*
X2375660Y921384D01*
X2375607Y921457D01*
X2274007Y1023057D01*
X2273930Y1023114D01*
X2273858Y1023179D01*
X2273817Y1023199D01*
X2273781Y1023226D01*
X2273691Y1023260D01*
X2273605Y1023302D01*
X2273563Y1023308D01*
X2273517Y1023325D01*
X2273390Y1023335D01*
X2273300Y1023349D01*
X1945830Y1023349D01*
X1945766Y1023340D01*
X1945702Y1023341D01*
X1945627Y1023320D01*
X1945551Y1023309D01*
X1945492Y1023283D01*
X1945430Y1023266D01*
X1945364Y1023225D01*
X1945294Y1023193D01*
X1945245Y1023151D01*
X1945190Y1023118D01*
X1945138Y1023060D01*
X1945080Y1023010D01*
X1945044Y1022956D01*
X1945001Y1022908D01*
X1944968Y1022839D01*
X1944925Y1022774D01*
X1944906Y1022712D01*
X1944878Y1022655D01*
X1944867Y1022585D01*
X1944843Y1022504D01*
X1944842Y1022419D01*
X1944831Y1022350D01*
X1944831Y970123D01*
X1943601Y967153D01*
X1943252Y966804D01*
X1943227Y966770D01*
X1943195Y966743D01*
X1943151Y966669D01*
X1943082Y966578D01*
X1943062Y966523D01*
X1943035Y966480D01*
X1941339Y962385D01*
X1938315Y959361D01*
X1934363Y957724D01*
X1930087Y957724D01*
X1926135Y959361D01*
X1923111Y962385D01*
X1921474Y966337D01*
X1921474Y970613D01*
X1923111Y974565D01*
X1926135Y977589D01*
X1928052Y978383D01*
X1928061Y978388D01*
X1928070Y978391D01*
X1928182Y978460D01*
X1928295Y978527D01*
X1928302Y978534D01*
X1928310Y978539D01*
X1928398Y978637D01*
X1928488Y978733D01*
X1928492Y978741D01*
X1928499Y978748D01*
X1928556Y978866D01*
X1928616Y978984D01*
X1928618Y978993D01*
X1928622Y979002D01*
X1928634Y979078D01*
X1928668Y979261D01*
X1928666Y979285D01*
X1928669Y979306D01*
X1928669Y1022350D01*
X1928660Y1022414D01*
X1928661Y1022478D01*
X1928640Y1022553D01*
X1928629Y1022629D01*
X1928603Y1022688D01*
X1928586Y1022750D01*
X1928545Y1022816D01*
X1928513Y1022886D01*
X1928471Y1022935D01*
X1928438Y1022990D01*
X1928380Y1023042D01*
X1928330Y1023100D01*
X1928276Y1023136D01*
X1928228Y1023179D01*
X1928159Y1023212D01*
X1928094Y1023255D01*
X1928032Y1023274D01*
X1927975Y1023302D01*
X1927905Y1023313D01*
X1927824Y1023337D01*
X1927739Y1023338D01*
X1927670Y1023349D01*
X1714500Y1023349D01*
X1714405Y1023336D01*
X1714309Y1023331D01*
X1714266Y1023316D01*
X1714221Y1023309D01*
X1714133Y1023270D01*
X1714042Y1023238D01*
X1714008Y1023213D01*
X1713964Y1023193D01*
X1713867Y1023110D01*
X1713793Y1023057D01*
X1669343Y978607D01*
X1669286Y978530D01*
X1669221Y978458D01*
X1669201Y978417D01*
X1669174Y978381D01*
X1669140Y978291D01*
X1669098Y978205D01*
X1669092Y978163D01*
X1669075Y978117D01*
X1669065Y977990D01*
X1669051Y977900D01*
X1669051Y889999D01*
X298864Y889999D01*
X273757Y915107D01*
X273680Y915164D01*
X273608Y915229D01*
X273567Y915249D01*
X273531Y915276D01*
X273441Y915310D01*
X273355Y915352D01*
X273313Y915358D01*
X273267Y915375D01*
X273140Y915385D01*
X273050Y915399D01*
X12700Y915399D01*
X12636Y915390D01*
X12572Y915391D01*
X12497Y915370D01*
X12421Y915359D01*
X12362Y915333D01*
X12300Y915316D01*
X12234Y915275D01*
X12164Y915243D01*
X12115Y915201D01*
X12060Y915168D01*
X12008Y915110D01*
X11950Y915060D01*
X11914Y915006D01*
X11871Y914958D01*
X11838Y914889D01*
X11795Y914824D01*
X11776Y914762D01*
X11748Y914705D01*
X11737Y914635D01*
X11713Y914554D01*
X11712Y914469D01*
X11701Y914400D01*
X11701Y-86650D01*
X11710Y-86714D01*
X11709Y-86778D01*
X11730Y-86853D01*
X11741Y-86929D01*
X11767Y-86988D01*
X11784Y-87050D01*
X11825Y-87116D01*
X11857Y-87186D01*
X11899Y-87235D01*
X11932Y-87290D01*
X11990Y-87342D01*
X12040Y-87400D01*
X12094Y-87436D01*
X12142Y-87479D01*
X12211Y-87512D01*
X12276Y-87555D01*
X12338Y-87574D01*
X12395Y-87602D01*
X12465Y-87613D01*
X12546Y-87637D01*
X12631Y-87638D01*
X12700Y-87649D01*
X2209800Y-87649D01*
X2209864Y-87640D01*
G37*
G36*
X616048Y1154443D02*
X616048Y1154443D01*
X616147Y1154446D01*
X616205Y1154463D01*
X616266Y1154471D01*
X616358Y1154507D01*
X616453Y1154535D01*
X616505Y1154565D01*
X616561Y1154588D01*
X616641Y1154646D01*
X616727Y1154696D01*
X616802Y1154762D01*
X616819Y1154774D01*
X616826Y1154784D01*
X616848Y1154803D01*
X642248Y1180203D01*
X642308Y1180281D01*
X642376Y1180353D01*
X642401Y1180398D01*
X642406Y1180404D01*
X642410Y1180412D01*
X642442Y1180454D01*
X642482Y1180545D01*
X642530Y1180631D01*
X642545Y1180690D01*
X642569Y1180746D01*
X642584Y1180844D01*
X642609Y1180939D01*
X642615Y1181039D01*
X642619Y1181060D01*
X642617Y1181072D01*
X642619Y1181100D01*
X642619Y1192531D01*
X780524Y1192531D01*
X811903Y1161153D01*
X811981Y1161092D01*
X812053Y1161024D01*
X812106Y1160995D01*
X812154Y1160958D01*
X812245Y1160918D01*
X812331Y1160870D01*
X812390Y1160855D01*
X812446Y1160831D01*
X812544Y1160816D01*
X812639Y1160791D01*
X812739Y1160785D01*
X812760Y1160781D01*
X812772Y1160783D01*
X812800Y1160781D01*
X857321Y1160781D01*
X857341Y1160783D01*
X857361Y1160781D01*
X857498Y1160803D01*
X857637Y1160821D01*
X857655Y1160828D01*
X857675Y1160831D01*
X857803Y1160886D01*
X857932Y1160938D01*
X857948Y1160949D01*
X857967Y1160957D01*
X858077Y1161043D01*
X858190Y1161124D01*
X858202Y1161140D01*
X858218Y1161152D01*
X858303Y1161262D01*
X858392Y1161369D01*
X858401Y1161388D01*
X858413Y1161403D01*
X858469Y1161531D01*
X858528Y1161657D01*
X858532Y1161677D01*
X858540Y1161695D01*
X858562Y1161833D01*
X858588Y1161970D01*
X858586Y1161989D01*
X858590Y1162009D01*
X858577Y1162148D01*
X858568Y1162287D01*
X858562Y1162306D01*
X858560Y1162326D01*
X858513Y1162457D01*
X858470Y1162589D01*
X858459Y1162606D01*
X858453Y1162625D01*
X858374Y1162740D01*
X858300Y1162858D01*
X858285Y1162872D01*
X858274Y1162888D01*
X858170Y1162980D01*
X858068Y1163076D01*
X858051Y1163086D01*
X858036Y1163099D01*
X857897Y1163181D01*
X857027Y1163624D01*
X855430Y1164784D01*
X854034Y1166180D01*
X852874Y1167777D01*
X851978Y1169536D01*
X851368Y1171413D01*
X851299Y1171851D01*
X862370Y1171851D01*
X862488Y1171866D01*
X862607Y1171873D01*
X862645Y1171885D01*
X862685Y1171891D01*
X862796Y1171934D01*
X862909Y1171971D01*
X862943Y1171993D01*
X862981Y1172008D01*
X863077Y1172077D01*
X863178Y1172141D01*
X863206Y1172171D01*
X863238Y1172194D01*
X863314Y1172286D01*
X863396Y1172373D01*
X863415Y1172408D01*
X863441Y1172439D01*
X863492Y1172547D01*
X863549Y1172651D01*
X863559Y1172691D01*
X863577Y1172727D01*
X863597Y1172834D01*
X863601Y1172804D01*
X863645Y1172694D01*
X863681Y1172581D01*
X863703Y1172546D01*
X863718Y1172509D01*
X863788Y1172412D01*
X863851Y1172312D01*
X863881Y1172284D01*
X863905Y1172251D01*
X863996Y1172175D01*
X864083Y1172094D01*
X864118Y1172074D01*
X864150Y1172049D01*
X864257Y1171998D01*
X864362Y1171940D01*
X864401Y1171930D01*
X864437Y1171913D01*
X864554Y1171891D01*
X864670Y1171861D01*
X864730Y1171857D01*
X864750Y1171853D01*
X864770Y1171855D01*
X864830Y1171851D01*
X875901Y1171851D01*
X875832Y1171413D01*
X875222Y1169536D01*
X874326Y1167777D01*
X873166Y1166180D01*
X871770Y1164784D01*
X870173Y1163624D01*
X869303Y1163181D01*
X869286Y1163170D01*
X869268Y1163162D01*
X869155Y1163081D01*
X869040Y1163002D01*
X869027Y1162987D01*
X869010Y1162976D01*
X868921Y1162868D01*
X868829Y1162764D01*
X868820Y1162746D01*
X868808Y1162731D01*
X868748Y1162605D01*
X868685Y1162480D01*
X868681Y1162461D01*
X868672Y1162443D01*
X868646Y1162306D01*
X868615Y1162170D01*
X868616Y1162150D01*
X868612Y1162131D01*
X868621Y1161992D01*
X868625Y1161852D01*
X868631Y1161833D01*
X868632Y1161813D01*
X868675Y1161681D01*
X868714Y1161547D01*
X868724Y1161530D01*
X868730Y1161511D01*
X868805Y1161393D01*
X868875Y1161273D01*
X868890Y1161259D01*
X868900Y1161242D01*
X869002Y1161146D01*
X869100Y1161048D01*
X869117Y1161038D01*
X869132Y1161024D01*
X869254Y1160957D01*
X869374Y1160886D01*
X869393Y1160880D01*
X869410Y1160870D01*
X869545Y1160836D01*
X869679Y1160797D01*
X869699Y1160796D01*
X869718Y1160791D01*
X869879Y1160781D01*
X1587500Y1160781D01*
X1587598Y1160793D01*
X1587697Y1160796D01*
X1587755Y1160813D01*
X1587816Y1160821D01*
X1587908Y1160857D01*
X1588003Y1160885D01*
X1588055Y1160915D01*
X1588111Y1160938D01*
X1588191Y1160996D01*
X1588277Y1161046D01*
X1588352Y1161112D01*
X1588369Y1161124D01*
X1588376Y1161134D01*
X1588398Y1161153D01*
X1639198Y1211953D01*
X1639258Y1212031D01*
X1639326Y1212103D01*
X1639355Y1212156D01*
X1639392Y1212204D01*
X1639432Y1212295D01*
X1639480Y1212381D01*
X1639495Y1212440D01*
X1639519Y1212496D01*
X1639534Y1212594D01*
X1639559Y1212689D01*
X1639565Y1212789D01*
X1639569Y1212810D01*
X1639567Y1212822D01*
X1639569Y1212850D01*
X1639569Y1313181D01*
X2063750Y1313181D01*
X2063848Y1313193D01*
X2063947Y1313196D01*
X2064005Y1313213D01*
X2064066Y1313221D01*
X2064158Y1313257D01*
X2064253Y1313285D01*
X2064305Y1313315D01*
X2064361Y1313338D01*
X2064441Y1313396D01*
X2064527Y1313446D01*
X2064602Y1313512D01*
X2064619Y1313524D01*
X2064626Y1313534D01*
X2064648Y1313553D01*
X2648476Y1897381D01*
X3072874Y1897381D01*
X3091181Y1879074D01*
X3091181Y1854200D01*
X3091193Y1854102D01*
X3091196Y1854003D01*
X3091213Y1853945D01*
X3091221Y1853884D01*
X3091257Y1853792D01*
X3091285Y1853697D01*
X3091315Y1853645D01*
X3091338Y1853589D01*
X3091396Y1853509D01*
X3091446Y1853423D01*
X3091512Y1853348D01*
X3091524Y1853331D01*
X3091534Y1853324D01*
X3091553Y1853303D01*
X3097903Y1846953D01*
X3097981Y1846892D01*
X3098053Y1846824D01*
X3098106Y1846795D01*
X3098154Y1846758D01*
X3098245Y1846718D01*
X3098331Y1846670D01*
X3098390Y1846655D01*
X3098446Y1846631D01*
X3098544Y1846616D01*
X3098639Y1846591D01*
X3098739Y1846585D01*
X3098760Y1846581D01*
X3098772Y1846583D01*
X3098800Y1846581D01*
X3130550Y1846581D01*
X3130648Y1846593D01*
X3130747Y1846596D01*
X3130805Y1846613D01*
X3130866Y1846621D01*
X3130958Y1846657D01*
X3131053Y1846685D01*
X3131105Y1846715D01*
X3131161Y1846738D01*
X3131241Y1846796D01*
X3131327Y1846846D01*
X3131402Y1846912D01*
X3131419Y1846924D01*
X3131426Y1846934D01*
X3131448Y1846953D01*
X3137798Y1853303D01*
X3137858Y1853381D01*
X3137926Y1853453D01*
X3137955Y1853506D01*
X3137992Y1853554D01*
X3138032Y1853645D01*
X3138080Y1853731D01*
X3138095Y1853790D01*
X3138119Y1853846D01*
X3138134Y1853944D01*
X3138159Y1854039D01*
X3138165Y1854139D01*
X3138169Y1854160D01*
X3138167Y1854172D01*
X3138169Y1854200D01*
X3138169Y1879074D01*
X3156476Y1897381D01*
X3644374Y1897381D01*
X3662681Y1879074D01*
X3662681Y1828800D01*
X3662693Y1828702D01*
X3662696Y1828603D01*
X3662713Y1828545D01*
X3662721Y1828484D01*
X3662757Y1828392D01*
X3662785Y1828297D01*
X3662815Y1828245D01*
X3662838Y1828189D01*
X3662896Y1828109D01*
X3662946Y1828023D01*
X3663012Y1827948D01*
X3663024Y1827931D01*
X3663034Y1827924D01*
X3663053Y1827903D01*
X3688453Y1802503D01*
X3688531Y1802442D01*
X3688603Y1802374D01*
X3688656Y1802345D01*
X3688704Y1802308D01*
X3688795Y1802268D01*
X3688881Y1802220D01*
X3688940Y1802205D01*
X3688996Y1802181D01*
X3689094Y1802166D01*
X3689189Y1802141D01*
X3689289Y1802135D01*
X3689310Y1802131D01*
X3689322Y1802133D01*
X3689350Y1802131D01*
X3765550Y1802131D01*
X3765648Y1802143D01*
X3765747Y1802146D01*
X3765805Y1802163D01*
X3765866Y1802171D01*
X3765958Y1802207D01*
X3766053Y1802235D01*
X3766105Y1802265D01*
X3766161Y1802288D01*
X3766241Y1802346D01*
X3766327Y1802396D01*
X3766402Y1802462D01*
X3766419Y1802474D01*
X3766426Y1802484D01*
X3766448Y1802503D01*
X3779148Y1815203D01*
X3779208Y1815281D01*
X3779276Y1815353D01*
X3779305Y1815406D01*
X3779342Y1815454D01*
X3779382Y1815545D01*
X3779430Y1815631D01*
X3779445Y1815690D01*
X3779469Y1815746D01*
X3779484Y1815844D01*
X3779509Y1815939D01*
X3779515Y1816039D01*
X3779519Y1816060D01*
X3779517Y1816072D01*
X3779519Y1816100D01*
X3779519Y2057400D01*
X3779507Y2057498D01*
X3779504Y2057597D01*
X3779487Y2057655D01*
X3779479Y2057716D01*
X3779443Y2057808D01*
X3779415Y2057903D01*
X3779385Y2057955D01*
X3779362Y2058011D01*
X3779304Y2058091D01*
X3779254Y2058177D01*
X3779188Y2058252D01*
X3779176Y2058269D01*
X3779166Y2058276D01*
X3779148Y2058298D01*
X3769467Y2067978D01*
X3769358Y2068063D01*
X3769251Y2068151D01*
X3769232Y2068160D01*
X3769216Y2068172D01*
X3769088Y2068228D01*
X3768963Y2068287D01*
X3768943Y2068291D01*
X3768924Y2068299D01*
X3768786Y2068321D01*
X3768650Y2068347D01*
X3768630Y2068345D01*
X3768610Y2068349D01*
X3768471Y2068336D01*
X3768333Y2068327D01*
X3768314Y2068321D01*
X3768294Y2068319D01*
X3768162Y2068272D01*
X3768031Y2068229D01*
X3768013Y2068218D01*
X3767994Y2068211D01*
X3767879Y2068133D01*
X3767762Y2068059D01*
X3767748Y2068044D01*
X3767731Y2068033D01*
X3767639Y2067928D01*
X3767544Y2067827D01*
X3767534Y2067809D01*
X3767521Y2067794D01*
X3767458Y2067670D01*
X3767390Y2067549D01*
X3767385Y2067529D01*
X3767376Y2067511D01*
X3767346Y2067375D01*
X3767311Y2067241D01*
X3767309Y2067213D01*
X3767306Y2067201D01*
X3767307Y2067180D01*
X3767301Y2067080D01*
X3767301Y2063921D01*
X3765487Y2059543D01*
X3762137Y2056193D01*
X3757759Y2054379D01*
X3753021Y2054379D01*
X3748643Y2056193D01*
X3745293Y2059543D01*
X3743479Y2063921D01*
X3743479Y2068659D01*
X3745293Y2073037D01*
X3748643Y2076387D01*
X3753021Y2078201D01*
X3756180Y2078201D01*
X3756318Y2078218D01*
X3756456Y2078231D01*
X3756475Y2078238D01*
X3756496Y2078241D01*
X3756625Y2078292D01*
X3756756Y2078339D01*
X3756772Y2078350D01*
X3756791Y2078358D01*
X3756904Y2078439D01*
X3757019Y2078517D01*
X3757032Y2078533D01*
X3757049Y2078544D01*
X3757137Y2078651D01*
X3757229Y2078756D01*
X3757238Y2078774D01*
X3757251Y2078789D01*
X3757310Y2078915D01*
X3757374Y2079039D01*
X3757378Y2079059D01*
X3757387Y2079077D01*
X3757413Y2079213D01*
X3757444Y2079349D01*
X3757443Y2079370D01*
X3757447Y2079389D01*
X3757438Y2079528D01*
X3757434Y2079667D01*
X3757428Y2079687D01*
X3757427Y2079707D01*
X3757384Y2079839D01*
X3757345Y2079973D01*
X3757335Y2079990D01*
X3757329Y2080009D01*
X3757255Y2080127D01*
X3757184Y2080247D01*
X3757165Y2080268D01*
X3757159Y2080278D01*
X3757144Y2080292D01*
X3757078Y2080367D01*
X3753748Y2083698D01*
X3753669Y2083758D01*
X3753597Y2083826D01*
X3753544Y2083855D01*
X3753496Y2083892D01*
X3753405Y2083932D01*
X3753319Y2083980D01*
X3753260Y2083995D01*
X3753204Y2084019D01*
X3753106Y2084034D01*
X3753011Y2084059D01*
X3752911Y2084065D01*
X3752890Y2084069D01*
X3752878Y2084067D01*
X3752850Y2084069D01*
X2108200Y2084069D01*
X2108102Y2084057D01*
X2108003Y2084054D01*
X2107945Y2084037D01*
X2107884Y2084029D01*
X2107792Y2083993D01*
X2107697Y2083965D01*
X2107645Y2083935D01*
X2107589Y2083912D01*
X2107509Y2083854D01*
X2107423Y2083804D01*
X2107348Y2083738D01*
X2107331Y2083726D01*
X2107324Y2083716D01*
X2107303Y2083698D01*
X2081903Y2058298D01*
X2081842Y2058219D01*
X2081774Y2058147D01*
X2081745Y2058094D01*
X2081708Y2058046D01*
X2081668Y2057955D01*
X2081620Y2057869D01*
X2081605Y2057810D01*
X2081581Y2057754D01*
X2081566Y2057656D01*
X2081541Y2057561D01*
X2081535Y2057461D01*
X2081531Y2057440D01*
X2081533Y2057428D01*
X2081531Y2057400D01*
X2081531Y1841500D01*
X2081543Y1841402D01*
X2081546Y1841303D01*
X2081563Y1841245D01*
X2081571Y1841184D01*
X2081607Y1841092D01*
X2081635Y1840997D01*
X2081665Y1840945D01*
X2081688Y1840889D01*
X2081746Y1840809D01*
X2081796Y1840723D01*
X2081862Y1840648D01*
X2081874Y1840631D01*
X2081884Y1840624D01*
X2081903Y1840603D01*
X2167173Y1755332D01*
X2167251Y1755272D01*
X2167323Y1755204D01*
X2167376Y1755175D01*
X2167424Y1755138D01*
X2167515Y1755098D01*
X2167601Y1755050D01*
X2167660Y1755035D01*
X2167716Y1755011D01*
X2167814Y1754996D01*
X2167909Y1754971D01*
X2168009Y1754965D01*
X2168030Y1754961D01*
X2168042Y1754963D01*
X2168070Y1754961D01*
X2177383Y1754961D01*
X2179141Y1753203D01*
X2179141Y1743890D01*
X2179153Y1743792D01*
X2179156Y1743693D01*
X2179173Y1743635D01*
X2179181Y1743574D01*
X2179217Y1743482D01*
X2179245Y1743387D01*
X2179275Y1743335D01*
X2179298Y1743279D01*
X2179356Y1743199D01*
X2179406Y1743113D01*
X2179472Y1743038D01*
X2179484Y1743021D01*
X2179494Y1743014D01*
X2179512Y1742993D01*
X2202181Y1720324D01*
X2202181Y1657876D01*
X2190224Y1645919D01*
X1790700Y1645919D01*
X1790602Y1645907D01*
X1790503Y1645904D01*
X1790445Y1645887D01*
X1790384Y1645879D01*
X1790292Y1645843D01*
X1790197Y1645815D01*
X1790145Y1645785D01*
X1790089Y1645762D01*
X1790009Y1645704D01*
X1789923Y1645654D01*
X1789848Y1645588D01*
X1789831Y1645576D01*
X1789824Y1645566D01*
X1789803Y1645548D01*
X1561574Y1417319D01*
X768876Y1417319D01*
X661669Y1524526D01*
X661669Y1574800D01*
X661657Y1574898D01*
X661654Y1574997D01*
X661637Y1575055D01*
X661629Y1575116D01*
X661593Y1575208D01*
X661565Y1575303D01*
X661535Y1575355D01*
X661512Y1575411D01*
X661454Y1575491D01*
X661404Y1575577D01*
X661338Y1575652D01*
X661326Y1575669D01*
X661316Y1575676D01*
X661298Y1575698D01*
X642248Y1594748D01*
X642169Y1594808D01*
X642097Y1594876D01*
X642044Y1594905D01*
X641996Y1594942D01*
X641905Y1594982D01*
X641819Y1595030D01*
X641760Y1595045D01*
X641704Y1595069D01*
X641606Y1595084D01*
X641511Y1595109D01*
X641411Y1595115D01*
X641390Y1595119D01*
X641378Y1595117D01*
X641350Y1595119D01*
X577850Y1595119D01*
X577752Y1595107D01*
X577653Y1595104D01*
X577595Y1595087D01*
X577534Y1595079D01*
X577442Y1595043D01*
X577347Y1595015D01*
X577295Y1594985D01*
X577239Y1594962D01*
X577159Y1594904D01*
X577073Y1594854D01*
X576998Y1594788D01*
X576981Y1594776D01*
X576974Y1594766D01*
X576953Y1594748D01*
X557903Y1575698D01*
X557842Y1575619D01*
X557774Y1575547D01*
X557745Y1575494D01*
X557708Y1575446D01*
X557668Y1575355D01*
X557620Y1575269D01*
X557605Y1575210D01*
X557581Y1575154D01*
X557566Y1575056D01*
X557541Y1574961D01*
X557535Y1574861D01*
X557531Y1574840D01*
X557533Y1574828D01*
X557531Y1574800D01*
X557531Y1511300D01*
X557543Y1511202D01*
X557546Y1511103D01*
X557563Y1511045D01*
X557571Y1510984D01*
X557607Y1510892D01*
X557635Y1510797D01*
X557665Y1510745D01*
X557688Y1510689D01*
X557746Y1510609D01*
X557796Y1510523D01*
X557862Y1510448D01*
X557874Y1510431D01*
X557884Y1510424D01*
X557903Y1510403D01*
X701786Y1366519D01*
X622300Y1366519D01*
X622202Y1366507D01*
X622103Y1366504D01*
X622045Y1366487D01*
X621984Y1366479D01*
X621892Y1366443D01*
X621797Y1366415D01*
X621745Y1366385D01*
X621689Y1366362D01*
X621609Y1366304D01*
X621523Y1366254D01*
X621448Y1366188D01*
X621431Y1366176D01*
X621424Y1366166D01*
X621403Y1366148D01*
X570603Y1315348D01*
X570542Y1315269D01*
X570474Y1315197D01*
X570445Y1315144D01*
X570408Y1315096D01*
X570368Y1315005D01*
X570320Y1314919D01*
X570305Y1314860D01*
X570281Y1314804D01*
X570266Y1314706D01*
X570241Y1314611D01*
X570235Y1314511D01*
X570231Y1314490D01*
X570233Y1314478D01*
X570231Y1314450D01*
X570231Y1162050D01*
X570243Y1161952D01*
X570246Y1161853D01*
X570256Y1161818D01*
X570257Y1161809D01*
X570264Y1161787D01*
X570271Y1161734D01*
X570307Y1161642D01*
X570335Y1161547D01*
X570350Y1161520D01*
X570355Y1161507D01*
X570370Y1161482D01*
X570388Y1161439D01*
X570446Y1161359D01*
X570496Y1161273D01*
X570520Y1161247D01*
X570525Y1161238D01*
X570537Y1161227D01*
X570562Y1161198D01*
X570574Y1161181D01*
X570584Y1161174D01*
X570603Y1161153D01*
X576953Y1154803D01*
X577031Y1154742D01*
X577103Y1154674D01*
X577156Y1154645D01*
X577204Y1154608D01*
X577295Y1154568D01*
X577381Y1154520D01*
X577440Y1154505D01*
X577496Y1154481D01*
X577594Y1154466D01*
X577689Y1154441D01*
X577789Y1154435D01*
X577810Y1154431D01*
X577822Y1154433D01*
X577850Y1154431D01*
X615950Y1154431D01*
X616048Y1154443D01*
G37*
G36*
X3098898Y1059193D02*
X3098898Y1059193D01*
X3098997Y1059196D01*
X3099055Y1059213D01*
X3099116Y1059221D01*
X3099208Y1059257D01*
X3099303Y1059285D01*
X3099355Y1059315D01*
X3099411Y1059338D01*
X3099491Y1059396D01*
X3099577Y1059446D01*
X3099652Y1059512D01*
X3099669Y1059524D01*
X3099676Y1059534D01*
X3099698Y1059553D01*
X3163198Y1123053D01*
X3163258Y1123131D01*
X3163326Y1123203D01*
X3163355Y1123256D01*
X3163392Y1123304D01*
X3163432Y1123395D01*
X3163480Y1123481D01*
X3163495Y1123540D01*
X3163519Y1123596D01*
X3163534Y1123694D01*
X3163559Y1123789D01*
X3163565Y1123889D01*
X3163569Y1123910D01*
X3163567Y1123922D01*
X3163569Y1123950D01*
X3163569Y1231374D01*
X3537848Y1605653D01*
X3537908Y1605731D01*
X3537976Y1605803D01*
X3538005Y1605856D01*
X3538042Y1605904D01*
X3538082Y1605995D01*
X3538130Y1606081D01*
X3538145Y1606140D01*
X3538169Y1606196D01*
X3538184Y1606294D01*
X3538209Y1606389D01*
X3538215Y1606489D01*
X3538219Y1606510D01*
X3538217Y1606522D01*
X3538219Y1606550D01*
X3538219Y1873250D01*
X3538207Y1873348D01*
X3538204Y1873447D01*
X3538187Y1873505D01*
X3538179Y1873566D01*
X3538143Y1873658D01*
X3538115Y1873753D01*
X3538085Y1873805D01*
X3538062Y1873861D01*
X3538004Y1873941D01*
X3537954Y1874027D01*
X3537888Y1874102D01*
X3537876Y1874119D01*
X3537866Y1874126D01*
X3537848Y1874148D01*
X3531498Y1880498D01*
X3531419Y1880558D01*
X3531347Y1880626D01*
X3531294Y1880655D01*
X3531246Y1880692D01*
X3531155Y1880732D01*
X3531069Y1880780D01*
X3531010Y1880795D01*
X3530954Y1880819D01*
X3530856Y1880834D01*
X3530761Y1880859D01*
X3530661Y1880865D01*
X3530640Y1880869D01*
X3530628Y1880867D01*
X3530600Y1880869D01*
X3403600Y1880869D01*
X3403502Y1880857D01*
X3403403Y1880854D01*
X3403345Y1880837D01*
X3403284Y1880829D01*
X3403192Y1880793D01*
X3403097Y1880765D01*
X3403045Y1880735D01*
X3402989Y1880712D01*
X3402909Y1880654D01*
X3402823Y1880604D01*
X3402748Y1880538D01*
X3402731Y1880526D01*
X3402724Y1880516D01*
X3402703Y1880498D01*
X3390003Y1867798D01*
X3389942Y1867719D01*
X3389874Y1867647D01*
X3389845Y1867594D01*
X3389808Y1867546D01*
X3389768Y1867455D01*
X3389720Y1867369D01*
X3389705Y1867310D01*
X3389681Y1867254D01*
X3389666Y1867156D01*
X3389641Y1867061D01*
X3389635Y1866961D01*
X3389631Y1866940D01*
X3389633Y1866928D01*
X3389631Y1866900D01*
X3389631Y1778526D01*
X3060174Y1449069D01*
X2482850Y1449069D01*
X2482752Y1449057D01*
X2482653Y1449054D01*
X2482595Y1449037D01*
X2482534Y1449029D01*
X2482442Y1448993D01*
X2482347Y1448965D01*
X2482295Y1448935D01*
X2482239Y1448912D01*
X2482159Y1448854D01*
X2482073Y1448804D01*
X2481998Y1448738D01*
X2481981Y1448726D01*
X2481974Y1448716D01*
X2481953Y1448698D01*
X2456553Y1423298D01*
X2456492Y1423219D01*
X2456424Y1423147D01*
X2456395Y1423094D01*
X2456358Y1423046D01*
X2456318Y1422955D01*
X2456270Y1422869D01*
X2456255Y1422810D01*
X2456231Y1422754D01*
X2456216Y1422656D01*
X2456191Y1422561D01*
X2456185Y1422461D01*
X2456181Y1422440D01*
X2456183Y1422428D01*
X2456181Y1422400D01*
X2456181Y1117600D01*
X2456193Y1117502D01*
X2456196Y1117403D01*
X2456213Y1117345D01*
X2456221Y1117284D01*
X2456257Y1117192D01*
X2456285Y1117097D01*
X2456315Y1117045D01*
X2456338Y1116989D01*
X2456396Y1116909D01*
X2456446Y1116823D01*
X2456512Y1116748D01*
X2456524Y1116731D01*
X2456534Y1116724D01*
X2456553Y1116703D01*
X2513703Y1059553D01*
X2513781Y1059492D01*
X2513853Y1059424D01*
X2513906Y1059395D01*
X2513954Y1059358D01*
X2514045Y1059318D01*
X2514131Y1059270D01*
X2514190Y1059255D01*
X2514246Y1059231D01*
X2514344Y1059216D01*
X2514439Y1059191D01*
X2514539Y1059185D01*
X2514560Y1059181D01*
X2514572Y1059183D01*
X2514600Y1059181D01*
X3098800Y1059181D01*
X3098898Y1059193D01*
G37*
G36*
X3175090Y627904D02*
X3175090Y627904D01*
X3175181Y627911D01*
X3175211Y627923D01*
X3175243Y627929D01*
X3175323Y627971D01*
X3175407Y628007D01*
X3175439Y628033D01*
X3175460Y628044D01*
X3175482Y628067D01*
X3175538Y628112D01*
X3334065Y786639D01*
X3568385Y786639D01*
X3612612Y742412D01*
X3612686Y742359D01*
X3612755Y742299D01*
X3612785Y742287D01*
X3612811Y742268D01*
X3612898Y742241D01*
X3612983Y742207D01*
X3613024Y742203D01*
X3613047Y742196D01*
X3613079Y742197D01*
X3613150Y742189D01*
X3778250Y742189D01*
X3778340Y742204D01*
X3778431Y742211D01*
X3778461Y742223D01*
X3778493Y742229D01*
X3778573Y742271D01*
X3778657Y742307D01*
X3778689Y742333D01*
X3778710Y742344D01*
X3778732Y742367D01*
X3778788Y742412D01*
X3791488Y755112D01*
X3791541Y755186D01*
X3791601Y755255D01*
X3791613Y755285D01*
X3791632Y755311D01*
X3791659Y755398D01*
X3791693Y755483D01*
X3791697Y755524D01*
X3791704Y755547D01*
X3791703Y755579D01*
X3791711Y755650D01*
X3791711Y984250D01*
X3791697Y984340D01*
X3791689Y984431D01*
X3791677Y984461D01*
X3791672Y984493D01*
X3791629Y984573D01*
X3791593Y984657D01*
X3791567Y984689D01*
X3791556Y984710D01*
X3791533Y984732D01*
X3791488Y984788D01*
X3778788Y997488D01*
X3778714Y997541D01*
X3778645Y997601D01*
X3778615Y997613D01*
X3778589Y997632D01*
X3778502Y997659D01*
X3778417Y997693D01*
X3778376Y997697D01*
X3778353Y997704D01*
X3778321Y997703D01*
X3778250Y997711D01*
X2743200Y997711D01*
X2743110Y997697D01*
X2743019Y997689D01*
X2742989Y997677D01*
X2742957Y997672D01*
X2742877Y997629D01*
X2742793Y997593D01*
X2742761Y997567D01*
X2742740Y997556D01*
X2742718Y997533D01*
X2742662Y997488D01*
X2698212Y953038D01*
X2698159Y952964D01*
X2698099Y952895D01*
X2698087Y952865D01*
X2698068Y952839D01*
X2698041Y952752D01*
X2698007Y952667D01*
X2698003Y952626D01*
X2697996Y952603D01*
X2697997Y952571D01*
X2697989Y952500D01*
X2697989Y831850D01*
X2698004Y831760D01*
X2698011Y831669D01*
X2698023Y831639D01*
X2698029Y831607D01*
X2698071Y831527D01*
X2698107Y831443D01*
X2698133Y831411D01*
X2698144Y831390D01*
X2698167Y831368D01*
X2698212Y831312D01*
X2901412Y628112D01*
X2901486Y628059D01*
X2901555Y627999D01*
X2901585Y627987D01*
X2901611Y627968D01*
X2901698Y627941D01*
X2901783Y627907D01*
X2901824Y627903D01*
X2901847Y627896D01*
X2901879Y627897D01*
X2901950Y627889D01*
X3175000Y627889D01*
X3175090Y627904D01*
G37*
G36*
X3791068Y-89824D02*
X3791068Y-89824D01*
X3791187Y-89817D01*
X3791225Y-89804D01*
X3791266Y-89799D01*
X3791376Y-89756D01*
X3791489Y-89719D01*
X3791524Y-89697D01*
X3791561Y-89682D01*
X3791657Y-89613D01*
X3791758Y-89549D01*
X3791786Y-89519D01*
X3791819Y-89496D01*
X3791895Y-89404D01*
X3791976Y-89317D01*
X3791996Y-89282D01*
X3792021Y-89251D01*
X3792072Y-89143D01*
X3792130Y-89039D01*
X3792140Y-88999D01*
X3792157Y-88963D01*
X3792179Y-88846D01*
X3792209Y-88731D01*
X3792213Y-88671D01*
X3792217Y-88651D01*
X3792215Y-88630D01*
X3792219Y-88570D01*
X3792219Y44450D01*
X3792207Y44548D01*
X3792204Y44647D01*
X3792187Y44705D01*
X3792179Y44766D01*
X3792143Y44858D01*
X3792115Y44953D01*
X3792085Y45005D01*
X3792062Y45061D01*
X3792004Y45141D01*
X3791954Y45227D01*
X3791888Y45302D01*
X3791876Y45319D01*
X3791866Y45326D01*
X3791848Y45348D01*
X3772798Y64398D01*
X3772719Y64458D01*
X3772647Y64526D01*
X3772594Y64555D01*
X3772546Y64592D01*
X3772455Y64632D01*
X3772369Y64680D01*
X3772310Y64695D01*
X3772254Y64719D01*
X3772156Y64734D01*
X3772061Y64759D01*
X3771961Y64765D01*
X3771940Y64769D01*
X3771928Y64767D01*
X3771900Y64769D01*
X3684269Y64769D01*
X3684269Y74931D01*
X3689350Y74931D01*
X3689468Y74946D01*
X3689587Y74953D01*
X3689625Y74966D01*
X3689666Y74971D01*
X3689776Y75014D01*
X3689889Y75051D01*
X3689924Y75073D01*
X3689961Y75088D01*
X3690057Y75158D01*
X3690158Y75221D01*
X3690186Y75251D01*
X3690219Y75274D01*
X3690295Y75366D01*
X3690376Y75453D01*
X3690396Y75488D01*
X3690421Y75519D01*
X3690472Y75627D01*
X3690530Y75731D01*
X3690540Y75771D01*
X3690557Y75807D01*
X3690579Y75924D01*
X3690609Y76039D01*
X3690613Y76100D01*
X3690617Y76120D01*
X3690615Y76140D01*
X3690619Y76200D01*
X3690619Y95250D01*
X3690607Y95348D01*
X3690604Y95447D01*
X3690587Y95505D01*
X3690579Y95566D01*
X3690543Y95658D01*
X3690515Y95753D01*
X3690485Y95805D01*
X3690462Y95861D01*
X3690404Y95941D01*
X3690354Y96027D01*
X3690288Y96102D01*
X3690276Y96119D01*
X3690266Y96126D01*
X3690248Y96148D01*
X3683898Y102498D01*
X3683819Y102558D01*
X3683747Y102626D01*
X3683694Y102655D01*
X3683646Y102692D01*
X3683555Y102732D01*
X3683469Y102780D01*
X3683410Y102795D01*
X3683354Y102819D01*
X3683256Y102834D01*
X3683161Y102859D01*
X3683061Y102865D01*
X3683040Y102869D01*
X3683028Y102867D01*
X3683000Y102869D01*
X2228850Y102869D01*
X2228732Y102854D01*
X2228613Y102847D01*
X2228575Y102834D01*
X2228534Y102829D01*
X2228424Y102786D01*
X2228311Y102749D01*
X2228276Y102727D01*
X2228239Y102712D01*
X2228143Y102643D01*
X2228042Y102579D01*
X2228014Y102549D01*
X2227981Y102526D01*
X2227906Y102434D01*
X2227824Y102347D01*
X2227804Y102312D01*
X2227779Y102281D01*
X2227728Y102173D01*
X2227670Y102069D01*
X2227660Y102029D01*
X2227643Y101993D01*
X2227621Y101876D01*
X2227591Y101761D01*
X2227587Y101701D01*
X2227583Y101681D01*
X2227585Y101660D01*
X2227581Y101600D01*
X2227581Y-88570D01*
X2227596Y-88688D01*
X2227603Y-88807D01*
X2227616Y-88845D01*
X2227621Y-88886D01*
X2227664Y-88996D01*
X2227701Y-89109D01*
X2227723Y-89144D01*
X2227738Y-89181D01*
X2227808Y-89277D01*
X2227871Y-89378D01*
X2227901Y-89406D01*
X2227924Y-89439D01*
X2228016Y-89515D01*
X2228103Y-89596D01*
X2228138Y-89616D01*
X2228169Y-89641D01*
X2228277Y-89692D01*
X2228381Y-89750D01*
X2228421Y-89760D01*
X2228457Y-89777D01*
X2228574Y-89799D01*
X2228689Y-89829D01*
X2228750Y-89833D01*
X2228770Y-89837D01*
X2228790Y-89835D01*
X2228850Y-89839D01*
X3790950Y-89839D01*
X3791068Y-89824D01*
G37*
G36*
X2432168Y182896D02*
X2432168Y182896D01*
X2432287Y182903D01*
X2432325Y182916D01*
X2432366Y182921D01*
X2432476Y182964D01*
X2432589Y183001D01*
X2432624Y183023D01*
X2432661Y183038D01*
X2432757Y183108D01*
X2432858Y183171D01*
X2432886Y183201D01*
X2432919Y183224D01*
X2432995Y183316D01*
X2433076Y183403D01*
X2433096Y183438D01*
X2433121Y183469D01*
X2433172Y183577D01*
X2433230Y183681D01*
X2433240Y183721D01*
X2433257Y183757D01*
X2433279Y183874D01*
X2433309Y183989D01*
X2433313Y184050D01*
X2433317Y184070D01*
X2433315Y184090D01*
X2433319Y184150D01*
X2433319Y240031D01*
X2741931Y240031D01*
X2741931Y184150D01*
X2741946Y184032D01*
X2741953Y183913D01*
X2741966Y183875D01*
X2741971Y183834D01*
X2742014Y183724D01*
X2742051Y183611D01*
X2742073Y183576D01*
X2742088Y183539D01*
X2742158Y183443D01*
X2742221Y183342D01*
X2742251Y183314D01*
X2742274Y183281D01*
X2742366Y183206D01*
X2742453Y183124D01*
X2742488Y183104D01*
X2742519Y183079D01*
X2742627Y183028D01*
X2742731Y182970D01*
X2742771Y182960D01*
X2742807Y182943D01*
X2742924Y182921D01*
X2743039Y182891D01*
X2743100Y182887D01*
X2743120Y182883D01*
X2743140Y182885D01*
X2743200Y182881D01*
X2800350Y182881D01*
X2800468Y182896D01*
X2800587Y182903D01*
X2800625Y182916D01*
X2800666Y182921D01*
X2800776Y182964D01*
X2800889Y183001D01*
X2800924Y183023D01*
X2800961Y183038D01*
X2801057Y183108D01*
X2801158Y183171D01*
X2801186Y183201D01*
X2801219Y183224D01*
X2801295Y183316D01*
X2801376Y183403D01*
X2801396Y183438D01*
X2801421Y183469D01*
X2801472Y183577D01*
X2801530Y183681D01*
X2801540Y183721D01*
X2801557Y183757D01*
X2801579Y183874D01*
X2801609Y183989D01*
X2801613Y184050D01*
X2801617Y184070D01*
X2801615Y184090D01*
X2801619Y184150D01*
X2801619Y240031D01*
X2889250Y240031D01*
X2889368Y240046D01*
X2889487Y240053D01*
X2889525Y240066D01*
X2889566Y240071D01*
X2889676Y240114D01*
X2889789Y240151D01*
X2889824Y240173D01*
X2889861Y240188D01*
X2889957Y240258D01*
X2890058Y240321D01*
X2890086Y240351D01*
X2890119Y240374D01*
X2890195Y240466D01*
X2890276Y240553D01*
X2890296Y240588D01*
X2890321Y240619D01*
X2890372Y240727D01*
X2890430Y240831D01*
X2890440Y240871D01*
X2890457Y240907D01*
X2890479Y241024D01*
X2890509Y241139D01*
X2890513Y241200D01*
X2890517Y241220D01*
X2890515Y241240D01*
X2890519Y241300D01*
X2890519Y615950D01*
X2890507Y616048D01*
X2890504Y616147D01*
X2890487Y616205D01*
X2890479Y616266D01*
X2890443Y616358D01*
X2890415Y616453D01*
X2890385Y616505D01*
X2890362Y616561D01*
X2890304Y616641D01*
X2890254Y616727D01*
X2890188Y616802D01*
X2890176Y616819D01*
X2890166Y616826D01*
X2890148Y616848D01*
X2750448Y756548D01*
X2750369Y756608D01*
X2750297Y756676D01*
X2750244Y756705D01*
X2750196Y756742D01*
X2750105Y756782D01*
X2750019Y756830D01*
X2749960Y756845D01*
X2749904Y756869D01*
X2749806Y756884D01*
X2749711Y756909D01*
X2749611Y756915D01*
X2749590Y756919D01*
X2749578Y756917D01*
X2749550Y756919D01*
X2413000Y756919D01*
X2412902Y756907D01*
X2412803Y756904D01*
X2412745Y756887D01*
X2412684Y756879D01*
X2412592Y756843D01*
X2412497Y756815D01*
X2412445Y756785D01*
X2412389Y756762D01*
X2412309Y756704D01*
X2412223Y756654D01*
X2412148Y756588D01*
X2412131Y756576D01*
X2412124Y756566D01*
X2412103Y756548D01*
X2316853Y661298D01*
X2316792Y661219D01*
X2316724Y661147D01*
X2316695Y661094D01*
X2316658Y661046D01*
X2316618Y660955D01*
X2316570Y660869D01*
X2316555Y660810D01*
X2316531Y660754D01*
X2316516Y660656D01*
X2316491Y660561D01*
X2316485Y660461D01*
X2316481Y660440D01*
X2316483Y660428D01*
X2316481Y660400D01*
X2316481Y311150D01*
X2316493Y311052D01*
X2316496Y310953D01*
X2316513Y310895D01*
X2316521Y310834D01*
X2316557Y310742D01*
X2316585Y310647D01*
X2316615Y310595D01*
X2316638Y310539D01*
X2316696Y310459D01*
X2316746Y310373D01*
X2316812Y310298D01*
X2316824Y310281D01*
X2316834Y310274D01*
X2316853Y310253D01*
X2386331Y240774D01*
X2386331Y184150D01*
X2386346Y184032D01*
X2386353Y183913D01*
X2386366Y183875D01*
X2386371Y183834D01*
X2386414Y183724D01*
X2386451Y183611D01*
X2386473Y183576D01*
X2386488Y183539D01*
X2386558Y183443D01*
X2386621Y183342D01*
X2386651Y183314D01*
X2386674Y183281D01*
X2386766Y183206D01*
X2386853Y183124D01*
X2386888Y183104D01*
X2386919Y183079D01*
X2387027Y183028D01*
X2387131Y182970D01*
X2387171Y182960D01*
X2387207Y182943D01*
X2387324Y182921D01*
X2387439Y182891D01*
X2387500Y182887D01*
X2387520Y182883D01*
X2387540Y182885D01*
X2387600Y182881D01*
X2432050Y182881D01*
X2432168Y182896D01*
G37*
G36*
X3556098Y233693D02*
X3556098Y233693D01*
X3556197Y233696D01*
X3556255Y233713D01*
X3556316Y233721D01*
X3556408Y233757D01*
X3556503Y233785D01*
X3556555Y233815D01*
X3556611Y233838D01*
X3556691Y233896D01*
X3556777Y233946D01*
X3556852Y234012D01*
X3556869Y234024D01*
X3556876Y234034D01*
X3556898Y234053D01*
X3594998Y272153D01*
X3595058Y272231D01*
X3595126Y272303D01*
X3595155Y272356D01*
X3595192Y272404D01*
X3595232Y272495D01*
X3595280Y272581D01*
X3595295Y272640D01*
X3595319Y272696D01*
X3595334Y272794D01*
X3595359Y272889D01*
X3595365Y272989D01*
X3595369Y273010D01*
X3595367Y273022D01*
X3595369Y273050D01*
X3595369Y501650D01*
X3595357Y501748D01*
X3595354Y501847D01*
X3595337Y501905D01*
X3595329Y501966D01*
X3595293Y502058D01*
X3595265Y502153D01*
X3595235Y502205D01*
X3595212Y502261D01*
X3595154Y502341D01*
X3595104Y502427D01*
X3595038Y502502D01*
X3595026Y502519D01*
X3595016Y502526D01*
X3594998Y502548D01*
X3557269Y540276D01*
X3557269Y673100D01*
X3557257Y673198D01*
X3557254Y673297D01*
X3557237Y673355D01*
X3557229Y673416D01*
X3557193Y673508D01*
X3557165Y673603D01*
X3557135Y673655D01*
X3557112Y673711D01*
X3557054Y673791D01*
X3557004Y673877D01*
X3556938Y673952D01*
X3556926Y673969D01*
X3556916Y673976D01*
X3556898Y673998D01*
X3461648Y769248D01*
X3461569Y769308D01*
X3461497Y769376D01*
X3461444Y769405D01*
X3461396Y769442D01*
X3461305Y769482D01*
X3461219Y769530D01*
X3461160Y769545D01*
X3461104Y769569D01*
X3461006Y769584D01*
X3460911Y769609D01*
X3460811Y769615D01*
X3460790Y769619D01*
X3460778Y769617D01*
X3460750Y769619D01*
X3346450Y769619D01*
X3346352Y769607D01*
X3346253Y769604D01*
X3346195Y769587D01*
X3346134Y769579D01*
X3346042Y769543D01*
X3345947Y769515D01*
X3345895Y769485D01*
X3345839Y769462D01*
X3345759Y769404D01*
X3345673Y769354D01*
X3345598Y769288D01*
X3345581Y769276D01*
X3345574Y769266D01*
X3345553Y769248D01*
X3155053Y578748D01*
X3154992Y578669D01*
X3154924Y578597D01*
X3154895Y578544D01*
X3154858Y578496D01*
X3154818Y578405D01*
X3154770Y578319D01*
X3154755Y578260D01*
X3154731Y578204D01*
X3154716Y578106D01*
X3154691Y578011D01*
X3154685Y577911D01*
X3154681Y577890D01*
X3154683Y577878D01*
X3154681Y577850D01*
X3154681Y266700D01*
X3154693Y266602D01*
X3154696Y266503D01*
X3154713Y266445D01*
X3154721Y266384D01*
X3154757Y266292D01*
X3154785Y266197D01*
X3154815Y266145D01*
X3154838Y266089D01*
X3154896Y266009D01*
X3154946Y265923D01*
X3154989Y265874D01*
X3154990Y265873D01*
X3154992Y265871D01*
X3155012Y265848D01*
X3155024Y265831D01*
X3155034Y265824D01*
X3155053Y265803D01*
X3186803Y234053D01*
X3186881Y233992D01*
X3186953Y233924D01*
X3187006Y233895D01*
X3187054Y233858D01*
X3187145Y233818D01*
X3187231Y233770D01*
X3187290Y233755D01*
X3187346Y233731D01*
X3187444Y233716D01*
X3187539Y233691D01*
X3187639Y233685D01*
X3187660Y233681D01*
X3187672Y233683D01*
X3187700Y233681D01*
X3556000Y233681D01*
X3556098Y233693D01*
G37*
G36*
X2959198Y1497343D02*
X2959198Y1497343D01*
X2959297Y1497346D01*
X2959355Y1497363D01*
X2959416Y1497371D01*
X2959508Y1497407D01*
X2959603Y1497435D01*
X2959655Y1497465D01*
X2959711Y1497488D01*
X2959791Y1497546D01*
X2959877Y1497596D01*
X2959952Y1497662D01*
X2959969Y1497674D01*
X2959976Y1497684D01*
X2959998Y1497703D01*
X3086998Y1624703D01*
X3087058Y1624781D01*
X3087126Y1624853D01*
X3087155Y1624906D01*
X3087192Y1624954D01*
X3087232Y1625045D01*
X3087280Y1625131D01*
X3087295Y1625190D01*
X3087319Y1625246D01*
X3087334Y1625344D01*
X3087359Y1625439D01*
X3087365Y1625539D01*
X3087369Y1625560D01*
X3087367Y1625572D01*
X3087369Y1625600D01*
X3087369Y1803400D01*
X3087354Y1803518D01*
X3087347Y1803637D01*
X3087334Y1803675D01*
X3087329Y1803716D01*
X3087286Y1803826D01*
X3087249Y1803939D01*
X3087227Y1803974D01*
X3087212Y1804011D01*
X3087143Y1804107D01*
X3087079Y1804208D01*
X3087049Y1804236D01*
X3087026Y1804269D01*
X3086934Y1804345D01*
X3086847Y1804426D01*
X3086812Y1804446D01*
X3086781Y1804471D01*
X3086673Y1804522D01*
X3086569Y1804580D01*
X3086529Y1804590D01*
X3086493Y1804607D01*
X3086376Y1804629D01*
X3086261Y1804659D01*
X3086201Y1804663D01*
X3086181Y1804667D01*
X3086160Y1804665D01*
X3086100Y1804669D01*
X3048000Y1804669D01*
X3047902Y1804657D01*
X3047803Y1804654D01*
X3047745Y1804637D01*
X3047684Y1804629D01*
X3047592Y1804593D01*
X3047497Y1804565D01*
X3047445Y1804535D01*
X3047389Y1804512D01*
X3047309Y1804454D01*
X3047223Y1804404D01*
X3047148Y1804338D01*
X3047131Y1804326D01*
X3047124Y1804316D01*
X3047103Y1804298D01*
X3034774Y1791969D01*
X2934226Y1791969D01*
X2877448Y1848748D01*
X2877369Y1848808D01*
X2877297Y1848876D01*
X2877244Y1848905D01*
X2877196Y1848942D01*
X2877105Y1848982D01*
X2877019Y1849030D01*
X2876960Y1849045D01*
X2876904Y1849069D01*
X2876806Y1849084D01*
X2876711Y1849109D01*
X2876611Y1849115D01*
X2876590Y1849119D01*
X2876578Y1849117D01*
X2876550Y1849119D01*
X2838450Y1849119D01*
X2838352Y1849107D01*
X2838253Y1849104D01*
X2838195Y1849087D01*
X2838134Y1849079D01*
X2838042Y1849043D01*
X2837947Y1849015D01*
X2837895Y1848985D01*
X2837839Y1848962D01*
X2837759Y1848904D01*
X2837673Y1848854D01*
X2837598Y1848788D01*
X2837581Y1848776D01*
X2837574Y1848766D01*
X2837553Y1848748D01*
X2824853Y1836048D01*
X2824792Y1835969D01*
X2824724Y1835897D01*
X2824695Y1835844D01*
X2824658Y1835796D01*
X2824618Y1835705D01*
X2824570Y1835619D01*
X2824555Y1835560D01*
X2824531Y1835504D01*
X2824516Y1835406D01*
X2824491Y1835311D01*
X2824485Y1835211D01*
X2824481Y1835190D01*
X2824483Y1835178D01*
X2824481Y1835150D01*
X2824481Y1498600D01*
X2824496Y1498482D01*
X2824503Y1498363D01*
X2824516Y1498325D01*
X2824521Y1498284D01*
X2824564Y1498174D01*
X2824601Y1498061D01*
X2824623Y1498026D01*
X2824638Y1497989D01*
X2824708Y1497893D01*
X2824771Y1497792D01*
X2824801Y1497764D01*
X2824824Y1497731D01*
X2824916Y1497656D01*
X2825003Y1497574D01*
X2825038Y1497554D01*
X2825069Y1497529D01*
X2825177Y1497478D01*
X2825281Y1497420D01*
X2825321Y1497410D01*
X2825357Y1497393D01*
X2825474Y1497371D01*
X2825589Y1497341D01*
X2825650Y1497337D01*
X2825670Y1497333D01*
X2825690Y1497335D01*
X2825750Y1497331D01*
X2959100Y1497331D01*
X2959198Y1497343D01*
G37*
G36*
X3740268Y138446D02*
X3740268Y138446D01*
X3740387Y138453D01*
X3740425Y138466D01*
X3740466Y138471D01*
X3740576Y138514D01*
X3740689Y138551D01*
X3740724Y138573D01*
X3740761Y138588D01*
X3740857Y138658D01*
X3740958Y138721D01*
X3740986Y138751D01*
X3741019Y138774D01*
X3741095Y138866D01*
X3741176Y138953D01*
X3741196Y138988D01*
X3741221Y139019D01*
X3741272Y139127D01*
X3741330Y139231D01*
X3741340Y139271D01*
X3741357Y139307D01*
X3741379Y139424D01*
X3741409Y139539D01*
X3741413Y139600D01*
X3741417Y139620D01*
X3741415Y139640D01*
X3741419Y139700D01*
X3741419Y151874D01*
X3747026Y157481D01*
X3778250Y157481D01*
X3778348Y157493D01*
X3778447Y157496D01*
X3778505Y157513D01*
X3778566Y157521D01*
X3778658Y157557D01*
X3778753Y157585D01*
X3778805Y157615D01*
X3778861Y157638D01*
X3778941Y157696D01*
X3779027Y157746D01*
X3779102Y157812D01*
X3779119Y157824D01*
X3779126Y157834D01*
X3779148Y157853D01*
X3791848Y170553D01*
X3791908Y170631D01*
X3791976Y170703D01*
X3792002Y170750D01*
X3792003Y170751D01*
X3792004Y170753D01*
X3792005Y170756D01*
X3792042Y170804D01*
X3792082Y170895D01*
X3792130Y170981D01*
X3792145Y171040D01*
X3792169Y171096D01*
X3792184Y171194D01*
X3792209Y171289D01*
X3792215Y171389D01*
X3792219Y171410D01*
X3792217Y171422D01*
X3792219Y171450D01*
X3792219Y444500D01*
X3792207Y444598D01*
X3792204Y444697D01*
X3792187Y444755D01*
X3792179Y444816D01*
X3792143Y444908D01*
X3792115Y445003D01*
X3792085Y445055D01*
X3792062Y445111D01*
X3792004Y445191D01*
X3791954Y445277D01*
X3791888Y445352D01*
X3791876Y445369D01*
X3791866Y445376D01*
X3791848Y445398D01*
X3779148Y458098D01*
X3779069Y458158D01*
X3778997Y458226D01*
X3778944Y458255D01*
X3778896Y458292D01*
X3778805Y458332D01*
X3778719Y458380D01*
X3778660Y458395D01*
X3778604Y458419D01*
X3778506Y458434D01*
X3778411Y458459D01*
X3778311Y458465D01*
X3778290Y458469D01*
X3778278Y458467D01*
X3778250Y458469D01*
X3619500Y458469D01*
X3619402Y458457D01*
X3619303Y458454D01*
X3619245Y458437D01*
X3619184Y458429D01*
X3619092Y458393D01*
X3618997Y458365D01*
X3618945Y458335D01*
X3618889Y458312D01*
X3618809Y458254D01*
X3618723Y458204D01*
X3618648Y458138D01*
X3618631Y458126D01*
X3618624Y458116D01*
X3618603Y458098D01*
X3612253Y451748D01*
X3612192Y451669D01*
X3612124Y451597D01*
X3612095Y451544D01*
X3612058Y451496D01*
X3612018Y451405D01*
X3611970Y451319D01*
X3611955Y451260D01*
X3611931Y451204D01*
X3611916Y451106D01*
X3611891Y451011D01*
X3611885Y450911D01*
X3611881Y450890D01*
X3611883Y450878D01*
X3611881Y450850D01*
X3611881Y285750D01*
X3611893Y285652D01*
X3611896Y285553D01*
X3611913Y285495D01*
X3611921Y285434D01*
X3611957Y285342D01*
X3611985Y285247D01*
X3612015Y285195D01*
X3612038Y285139D01*
X3612096Y285059D01*
X3612146Y284973D01*
X3612212Y284898D01*
X3612224Y284881D01*
X3612234Y284874D01*
X3612253Y284853D01*
X3681731Y215374D01*
X3681731Y152400D01*
X3681743Y152302D01*
X3681746Y152203D01*
X3681763Y152145D01*
X3681771Y152084D01*
X3681807Y151992D01*
X3681835Y151897D01*
X3681856Y151861D01*
X3681859Y151853D01*
X3681868Y151838D01*
X3681888Y151789D01*
X3681946Y151709D01*
X3681996Y151623D01*
X3682025Y151591D01*
X3682029Y151584D01*
X3682038Y151575D01*
X3682062Y151548D01*
X3682074Y151531D01*
X3682084Y151524D01*
X3682103Y151503D01*
X3694803Y138803D01*
X3694881Y138742D01*
X3694953Y138674D01*
X3695006Y138645D01*
X3695054Y138608D01*
X3695145Y138568D01*
X3695231Y138520D01*
X3695290Y138505D01*
X3695346Y138481D01*
X3695444Y138466D01*
X3695539Y138441D01*
X3695639Y138435D01*
X3695660Y138431D01*
X3695672Y138433D01*
X3695700Y138431D01*
X3740150Y138431D01*
X3740268Y138446D01*
G37*
%LPC*%
G36*
X568724Y277034D02*
X568724Y277034D01*
X564054Y281704D01*
X564054Y325356D01*
X572534Y333836D01*
X796526Y333836D01*
X798948Y331414D01*
X798948Y331413D01*
X799040Y331321D01*
X799092Y331283D01*
X799137Y331236D01*
X799167Y331219D01*
X799181Y331207D01*
X799214Y331191D01*
X799266Y331152D01*
X799326Y331129D01*
X799382Y331097D01*
X799430Y331086D01*
X799435Y331084D01*
X799447Y331082D01*
X799458Y331080D01*
X799530Y331052D01*
X799594Y331047D01*
X799657Y331033D01*
X799734Y331036D01*
X799811Y331030D01*
X799874Y331044D01*
X799938Y331047D01*
X800011Y331072D01*
X800023Y331075D01*
X800034Y331076D01*
X800037Y331078D01*
X800087Y331088D01*
X800144Y331118D01*
X800205Y331139D01*
X800255Y331176D01*
X800291Y331193D01*
X800304Y331203D01*
X800336Y331220D01*
X800397Y331280D01*
X800454Y331321D01*
X820175Y351042D01*
X820232Y351119D01*
X820297Y351190D01*
X820317Y351231D01*
X820344Y351268D01*
X820378Y351358D01*
X820420Y351444D01*
X820426Y351486D01*
X820443Y351531D01*
X820453Y351659D01*
X820467Y351749D01*
X820467Y846635D01*
X849385Y875552D01*
X852625Y878793D01*
X859730Y878793D01*
X859740Y878794D01*
X859749Y878793D01*
X859879Y878814D01*
X860010Y878833D01*
X860018Y878836D01*
X860028Y878838D01*
X860147Y878895D01*
X860267Y878949D01*
X860274Y878955D01*
X860282Y878959D01*
X860381Y879047D01*
X860481Y879132D01*
X860486Y879140D01*
X860493Y879146D01*
X860533Y879212D01*
X860635Y879368D01*
X860642Y879391D01*
X860654Y879410D01*
X860836Y879850D01*
X863860Y882874D01*
X867812Y884511D01*
X872088Y884511D01*
X876040Y882874D01*
X879064Y879850D01*
X879246Y879410D01*
X879251Y879401D01*
X879254Y879392D01*
X879323Y879280D01*
X879390Y879167D01*
X879397Y879160D01*
X879402Y879152D01*
X879500Y879064D01*
X879596Y878974D01*
X879604Y878970D01*
X879611Y878963D01*
X879730Y878906D01*
X879847Y878846D01*
X879857Y878844D01*
X879865Y878840D01*
X879941Y878828D01*
X880124Y878794D01*
X880148Y878796D01*
X880170Y878793D01*
X1064200Y878793D01*
X1064210Y878794D01*
X1064219Y878793D01*
X1064349Y878814D01*
X1064480Y878833D01*
X1064488Y878836D01*
X1064498Y878838D01*
X1064617Y878895D01*
X1064737Y878949D01*
X1064744Y878955D01*
X1064752Y878959D01*
X1064851Y879047D01*
X1064951Y879132D01*
X1064956Y879140D01*
X1064963Y879146D01*
X1065003Y879212D01*
X1065105Y879368D01*
X1065112Y879391D01*
X1065124Y879410D01*
X1065306Y879850D01*
X1068330Y882874D01*
X1072282Y884511D01*
X1076558Y884511D01*
X1080510Y882874D01*
X1083534Y879850D01*
X1084032Y878648D01*
X1084037Y878639D01*
X1084039Y878630D01*
X1084109Y878518D01*
X1084176Y878405D01*
X1084183Y878398D01*
X1084188Y878390D01*
X1084286Y878302D01*
X1084381Y878212D01*
X1084390Y878208D01*
X1084397Y878201D01*
X1084515Y878144D01*
X1084633Y878084D01*
X1084642Y878082D01*
X1084651Y878078D01*
X1084726Y878066D01*
X1084910Y878032D01*
X1084934Y878034D01*
X1084955Y878031D01*
X1274705Y878031D01*
X1274714Y878032D01*
X1274724Y878031D01*
X1274854Y878052D01*
X1274984Y878071D01*
X1274993Y878074D01*
X1275002Y878076D01*
X1275121Y878133D01*
X1275241Y878187D01*
X1275248Y878193D01*
X1275257Y878197D01*
X1275355Y878285D01*
X1275455Y878370D01*
X1275460Y878378D01*
X1275467Y878384D01*
X1275507Y878450D01*
X1275610Y878606D01*
X1275617Y878629D01*
X1275628Y878648D01*
X1276126Y879850D01*
X1279150Y882874D01*
X1283102Y884511D01*
X1287378Y884511D01*
X1291330Y882874D01*
X1294354Y879850D01*
X1295991Y875898D01*
X1295991Y871622D01*
X1294354Y867670D01*
X1291330Y864646D01*
X1287378Y863009D01*
X1283102Y863009D01*
X1279150Y864646D01*
X1276126Y867670D01*
X1275628Y868872D01*
X1275623Y868881D01*
X1275621Y868890D01*
X1275551Y869002D01*
X1275484Y869115D01*
X1275477Y869122D01*
X1275472Y869130D01*
X1275374Y869218D01*
X1275279Y869308D01*
X1275270Y869312D01*
X1275263Y869319D01*
X1275145Y869376D01*
X1275027Y869436D01*
X1275018Y869438D01*
X1275009Y869442D01*
X1274934Y869454D01*
X1274750Y869488D01*
X1274726Y869486D01*
X1274705Y869489D01*
X1084955Y869489D01*
X1084946Y869488D01*
X1084936Y869489D01*
X1084806Y869468D01*
X1084676Y869449D01*
X1084667Y869446D01*
X1084658Y869444D01*
X1084539Y869387D01*
X1084419Y869333D01*
X1084412Y869327D01*
X1084403Y869323D01*
X1084305Y869235D01*
X1084205Y869150D01*
X1084200Y869142D01*
X1084193Y869136D01*
X1084153Y869070D01*
X1084050Y868914D01*
X1084043Y868891D01*
X1084032Y868872D01*
X1083534Y867670D01*
X1080510Y864646D01*
X1076558Y863009D01*
X1072282Y863009D01*
X1068330Y864646D01*
X1065306Y867670D01*
X1065124Y868110D01*
X1065119Y868119D01*
X1065116Y868128D01*
X1065047Y868240D01*
X1064980Y868353D01*
X1064973Y868360D01*
X1064968Y868368D01*
X1064870Y868456D01*
X1064774Y868546D01*
X1064766Y868550D01*
X1064759Y868557D01*
X1064640Y868614D01*
X1064523Y868674D01*
X1064513Y868676D01*
X1064505Y868680D01*
X1064429Y868692D01*
X1064246Y868726D01*
X1064222Y868724D01*
X1064200Y868727D01*
X880170Y868727D01*
X880160Y868726D01*
X880151Y868727D01*
X880021Y868706D01*
X879890Y868687D01*
X879882Y868684D01*
X879872Y868682D01*
X879753Y868625D01*
X879633Y868571D01*
X879626Y868565D01*
X879618Y868561D01*
X879519Y868473D01*
X879419Y868388D01*
X879414Y868380D01*
X879407Y868374D01*
X879367Y868308D01*
X879265Y868152D01*
X879258Y868129D01*
X879246Y868110D01*
X879064Y867670D01*
X876040Y864646D01*
X872088Y863009D01*
X867812Y863009D01*
X863860Y864646D01*
X860836Y867670D01*
X860654Y868110D01*
X860649Y868119D01*
X860646Y868128D01*
X860577Y868240D01*
X860510Y868353D01*
X860503Y868360D01*
X860498Y868368D01*
X860400Y868456D01*
X860304Y868546D01*
X860296Y868550D01*
X860289Y868557D01*
X860170Y868614D01*
X860053Y868674D01*
X860043Y868676D01*
X860035Y868680D01*
X859959Y868692D01*
X859776Y868726D01*
X859752Y868724D01*
X859730Y868727D01*
X857209Y868727D01*
X857114Y868714D01*
X857017Y868709D01*
X856974Y868694D01*
X856929Y868687D01*
X856842Y868648D01*
X856751Y868616D01*
X856717Y868591D01*
X856672Y868571D01*
X856575Y868488D01*
X856502Y868435D01*
X830825Y842758D01*
X830768Y842681D01*
X830703Y842610D01*
X830683Y842569D01*
X830656Y842532D01*
X830622Y842442D01*
X830580Y842356D01*
X830574Y842314D01*
X830557Y842269D01*
X830547Y842141D01*
X830533Y842051D01*
X830533Y347165D01*
X807571Y324204D01*
X807533Y324152D01*
X807486Y324108D01*
X807448Y324040D01*
X807402Y323978D01*
X807379Y323918D01*
X807347Y323862D01*
X807330Y323787D01*
X807302Y323714D01*
X807297Y323650D01*
X807283Y323588D01*
X807286Y323510D01*
X807280Y323433D01*
X807294Y323370D01*
X807297Y323306D01*
X807322Y323233D01*
X807338Y323157D01*
X807368Y323100D01*
X807389Y323040D01*
X807431Y322983D01*
X807471Y322908D01*
X807530Y322847D01*
X807571Y322791D01*
X812626Y317736D01*
X812626Y304482D01*
X812635Y304418D01*
X812634Y304354D01*
X812655Y304279D01*
X812666Y304203D01*
X812692Y304144D01*
X812709Y304082D01*
X812750Y304016D01*
X812782Y303946D01*
X812824Y303897D01*
X812857Y303842D01*
X812915Y303790D01*
X812965Y303732D01*
X813019Y303696D01*
X813067Y303653D01*
X813136Y303620D01*
X813201Y303577D01*
X813263Y303558D01*
X813320Y303530D01*
X813390Y303519D01*
X813471Y303495D01*
X813556Y303494D01*
X813625Y303483D01*
X1621831Y303483D01*
X1621926Y303496D01*
X1622023Y303501D01*
X1622066Y303516D01*
X1622111Y303523D01*
X1622198Y303562D01*
X1622289Y303594D01*
X1622323Y303619D01*
X1622368Y303639D01*
X1622465Y303722D01*
X1622538Y303775D01*
X2054615Y735852D01*
X2054672Y735929D01*
X2054737Y736000D01*
X2054757Y736041D01*
X2054784Y736078D01*
X2054818Y736168D01*
X2054860Y736254D01*
X2054866Y736296D01*
X2054883Y736341D01*
X2054893Y736469D01*
X2054907Y736559D01*
X2054907Y794280D01*
X2054906Y794290D01*
X2054907Y794299D01*
X2054886Y794429D01*
X2054867Y794560D01*
X2054864Y794568D01*
X2054862Y794578D01*
X2054805Y794697D01*
X2054751Y794817D01*
X2054745Y794824D01*
X2054741Y794832D01*
X2054653Y794931D01*
X2054568Y795031D01*
X2054560Y795036D01*
X2054554Y795043D01*
X2054488Y795083D01*
X2054332Y795185D01*
X2054309Y795192D01*
X2054290Y795204D01*
X2053850Y795386D01*
X2050826Y798410D01*
X2049189Y802362D01*
X2049189Y806638D01*
X2050826Y810590D01*
X2053850Y813614D01*
X2057802Y815251D01*
X2062078Y815251D01*
X2066030Y813614D01*
X2069054Y810590D01*
X2070691Y806638D01*
X2070691Y802362D01*
X2069054Y798410D01*
X2066030Y795386D01*
X2065590Y795204D01*
X2065582Y795199D01*
X2065572Y795196D01*
X2065460Y795127D01*
X2065347Y795060D01*
X2065340Y795053D01*
X2065332Y795048D01*
X2065244Y794950D01*
X2065154Y794854D01*
X2065150Y794846D01*
X2065143Y794839D01*
X2065086Y794720D01*
X2065026Y794603D01*
X2065024Y794594D01*
X2065020Y794585D01*
X2065008Y794509D01*
X2064974Y794326D01*
X2064976Y794302D01*
X2064973Y794280D01*
X2064973Y731975D01*
X1626415Y293417D01*
X813323Y293417D01*
X813228Y293404D01*
X813132Y293399D01*
X813089Y293384D01*
X813044Y293377D01*
X812956Y293338D01*
X812865Y293306D01*
X812831Y293281D01*
X812787Y293261D01*
X812689Y293178D01*
X812616Y293125D01*
X796526Y277034D01*
X568724Y277034D01*
G37*
%LPD*%
G36*
X795062Y280043D02*
X795062Y280043D01*
X795104Y280041D01*
X795171Y280063D01*
X795241Y280075D01*
X795277Y280097D01*
X795318Y280110D01*
X795391Y280164D01*
X795434Y280190D01*
X795447Y280206D01*
X795468Y280222D01*
X809438Y294192D01*
X809463Y294226D01*
X809494Y294255D01*
X809521Y294308D01*
X809529Y294317D01*
X809532Y294326D01*
X809567Y294376D01*
X809577Y294417D01*
X809597Y294455D01*
X809610Y294544D01*
X809623Y294593D01*
X809620Y294614D01*
X809624Y294640D01*
X809624Y316230D01*
X809617Y316272D01*
X809619Y316314D01*
X809597Y316381D01*
X809585Y316451D01*
X809563Y316487D01*
X809550Y316528D01*
X809496Y316601D01*
X809470Y316644D01*
X809454Y316657D01*
X809438Y316678D01*
X795468Y330648D01*
X795434Y330673D01*
X795405Y330704D01*
X795342Y330736D01*
X795284Y330777D01*
X795243Y330787D01*
X795205Y330807D01*
X795116Y330820D01*
X795067Y330833D01*
X795046Y330830D01*
X795020Y330834D01*
X574040Y330834D01*
X573998Y330827D01*
X573956Y330829D01*
X573889Y330807D01*
X573819Y330795D01*
X573783Y330773D01*
X573742Y330760D01*
X573669Y330706D01*
X573626Y330680D01*
X573613Y330664D01*
X573592Y330648D01*
X567242Y324298D01*
X567217Y324264D01*
X567186Y324235D01*
X567154Y324172D01*
X567113Y324114D01*
X567103Y324073D01*
X567083Y324035D01*
X567070Y323946D01*
X567058Y323897D01*
X567060Y323876D01*
X567056Y323850D01*
X567056Y283210D01*
X567063Y283168D01*
X567061Y283126D01*
X567072Y283093D01*
X567072Y283076D01*
X567086Y283044D01*
X567095Y282989D01*
X567117Y282953D01*
X567130Y282912D01*
X567150Y282886D01*
X567157Y282869D01*
X567185Y282837D01*
X567210Y282796D01*
X567226Y282783D01*
X567242Y282762D01*
X569782Y280222D01*
X569816Y280197D01*
X569845Y280166D01*
X569908Y280134D01*
X569966Y280093D01*
X570007Y280083D01*
X570045Y280063D01*
X570134Y280050D01*
X570183Y280038D01*
X570204Y280040D01*
X570230Y280036D01*
X795020Y280036D01*
X795062Y280043D01*
G37*
%LPC*%
G36*
X2116222Y259759D02*
X2116222Y259759D01*
X2112270Y261396D01*
X2109246Y264420D01*
X2107609Y268372D01*
X2107609Y272648D01*
X2109246Y276600D01*
X2112297Y279651D01*
X2112333Y279673D01*
X2112445Y279740D01*
X2112452Y279746D01*
X2112460Y279751D01*
X2112548Y279850D01*
X2112638Y279945D01*
X2112642Y279954D01*
X2112649Y279961D01*
X2112706Y280079D01*
X2112766Y280197D01*
X2112768Y280206D01*
X2112772Y280215D01*
X2112784Y280291D01*
X2112818Y280474D01*
X2112816Y280498D01*
X2112819Y280519D01*
X2112819Y295741D01*
X2112806Y295836D01*
X2112801Y295932D01*
X2112786Y295975D01*
X2112779Y296020D01*
X2112740Y296108D01*
X2112708Y296199D01*
X2112683Y296233D01*
X2112663Y296277D01*
X2112580Y296375D01*
X2112527Y296448D01*
X2110008Y298967D01*
X2109931Y299024D01*
X2109859Y299089D01*
X2109818Y299109D01*
X2109782Y299136D01*
X2109692Y299170D01*
X2109606Y299212D01*
X2109564Y299218D01*
X2109518Y299235D01*
X2109391Y299245D01*
X2109301Y299259D01*
X1840147Y299259D01*
X1840052Y299246D01*
X1839956Y299241D01*
X1839913Y299226D01*
X1839868Y299219D01*
X1839780Y299180D01*
X1839689Y299148D01*
X1839655Y299123D01*
X1839611Y299103D01*
X1839514Y299020D01*
X1839440Y298967D01*
X1838700Y298226D01*
X1834748Y296589D01*
X1830472Y296589D01*
X1826520Y298226D01*
X1823496Y301250D01*
X1821859Y305202D01*
X1821859Y309478D01*
X1823496Y313430D01*
X1826520Y316454D01*
X1830472Y318091D01*
X1834748Y318091D01*
X1838700Y316454D01*
X1839440Y315713D01*
X1839517Y315656D01*
X1839589Y315591D01*
X1839630Y315571D01*
X1839666Y315544D01*
X1839756Y315510D01*
X1839842Y315468D01*
X1839884Y315462D01*
X1839930Y315445D01*
X1840058Y315435D01*
X1840147Y315421D01*
X2109301Y315421D01*
X2109396Y315434D01*
X2109492Y315439D01*
X2109535Y315454D01*
X2109580Y315461D01*
X2109668Y315500D01*
X2109759Y315532D01*
X2109793Y315557D01*
X2109837Y315577D01*
X2109935Y315660D01*
X2110008Y315713D01*
X2112527Y318232D01*
X2112584Y318309D01*
X2112649Y318381D01*
X2112669Y318422D01*
X2112696Y318458D01*
X2112730Y318548D01*
X2112772Y318634D01*
X2112778Y318676D01*
X2112795Y318722D01*
X2112805Y318849D01*
X2112819Y318939D01*
X2112819Y330351D01*
X2112818Y330360D01*
X2112819Y330370D01*
X2112798Y330500D01*
X2112779Y330630D01*
X2112776Y330639D01*
X2112774Y330648D01*
X2112717Y330768D01*
X2112663Y330887D01*
X2112657Y330894D01*
X2112653Y330903D01*
X2112565Y331002D01*
X2112480Y331101D01*
X2112472Y331107D01*
X2112466Y331114D01*
X2112400Y331154D01*
X2112292Y331225D01*
X2109246Y334270D01*
X2107609Y338222D01*
X2107609Y342498D01*
X2109246Y346450D01*
X2112270Y349474D01*
X2116222Y351111D01*
X2120498Y351111D01*
X2124450Y349474D01*
X2127474Y346450D01*
X2129111Y342498D01*
X2129111Y338222D01*
X2127474Y334270D01*
X2124423Y331219D01*
X2124387Y331197D01*
X2124275Y331130D01*
X2124268Y331124D01*
X2124260Y331119D01*
X2124172Y331020D01*
X2124082Y330925D01*
X2124078Y330916D01*
X2124071Y330909D01*
X2124014Y330791D01*
X2123954Y330673D01*
X2123952Y330664D01*
X2123948Y330655D01*
X2123936Y330579D01*
X2123902Y330396D01*
X2123904Y330372D01*
X2123901Y330351D01*
X2123901Y315128D01*
X2123057Y313091D01*
X2121358Y311392D01*
X2118012Y308047D01*
X2117974Y307995D01*
X2117928Y307950D01*
X2117890Y307883D01*
X2117843Y307821D01*
X2117820Y307761D01*
X2117789Y307705D01*
X2117771Y307630D01*
X2117744Y307557D01*
X2117739Y307493D01*
X2117724Y307431D01*
X2117728Y307353D01*
X2117722Y307276D01*
X2117735Y307213D01*
X2117738Y307149D01*
X2117764Y307076D01*
X2117779Y307000D01*
X2117810Y306943D01*
X2117831Y306882D01*
X2117872Y306826D01*
X2117912Y306751D01*
X2117971Y306690D01*
X2118012Y306633D01*
X2123057Y301589D01*
X2123901Y299552D01*
X2123901Y280519D01*
X2123902Y280510D01*
X2123901Y280500D01*
X2123922Y280370D01*
X2123941Y280240D01*
X2123944Y280231D01*
X2123946Y280222D01*
X2124003Y280102D01*
X2124057Y279983D01*
X2124063Y279976D01*
X2124067Y279967D01*
X2124155Y279868D01*
X2124240Y279769D01*
X2124248Y279763D01*
X2124254Y279756D01*
X2124320Y279716D01*
X2124428Y279645D01*
X2127474Y276600D01*
X2129111Y272648D01*
X2129111Y268372D01*
X2127474Y264420D01*
X2124450Y261396D01*
X2120498Y259759D01*
X2116222Y259759D01*
G37*
%LPD*%
%LPC*%
G36*
X1802532Y10839D02*
X1802532Y10839D01*
X1798580Y12476D01*
X1795556Y15500D01*
X1793919Y19452D01*
X1793919Y23728D01*
X1795556Y27680D01*
X1798580Y30704D01*
X1802532Y32341D01*
X1806808Y32341D01*
X1808011Y31843D01*
X1808020Y31840D01*
X1808028Y31836D01*
X1808157Y31805D01*
X1808284Y31773D01*
X1808293Y31773D01*
X1808303Y31771D01*
X1808435Y31778D01*
X1808566Y31782D01*
X1808575Y31785D01*
X1808584Y31785D01*
X1808709Y31828D01*
X1808834Y31869D01*
X1808842Y31875D01*
X1808851Y31878D01*
X1808913Y31923D01*
X1809067Y32028D01*
X1809082Y32047D01*
X1809100Y32059D01*
X1823004Y45963D01*
X1823023Y45989D01*
X1823048Y46010D01*
X1823108Y46102D01*
X1823173Y46189D01*
X1823184Y46219D01*
X1823202Y46246D01*
X1823234Y46351D01*
X1823273Y46453D01*
X1823275Y46485D01*
X1823284Y46516D01*
X1823286Y46625D01*
X1823294Y46734D01*
X1823288Y46766D01*
X1823288Y46798D01*
X1823259Y46903D01*
X1823237Y47010D01*
X1823222Y47039D01*
X1823213Y47070D01*
X1823156Y47163D01*
X1823104Y47259D01*
X1823082Y47282D01*
X1823065Y47310D01*
X1822984Y47383D01*
X1822907Y47461D01*
X1822879Y47477D01*
X1822856Y47499D01*
X1822757Y47546D01*
X1822662Y47600D01*
X1822631Y47608D01*
X1822602Y47622D01*
X1822512Y47636D01*
X1822388Y47665D01*
X1822339Y47663D01*
X1822297Y47669D01*
X1819042Y47669D01*
X1815090Y49306D01*
X1812066Y52330D01*
X1810429Y56282D01*
X1810429Y60558D01*
X1812066Y64510D01*
X1815090Y67534D01*
X1816292Y68032D01*
X1816301Y68037D01*
X1816310Y68039D01*
X1816422Y68109D01*
X1816535Y68176D01*
X1816542Y68183D01*
X1816550Y68188D01*
X1816638Y68286D01*
X1816728Y68381D01*
X1816732Y68390D01*
X1816739Y68397D01*
X1816796Y68515D01*
X1816856Y68633D01*
X1816858Y68642D01*
X1816862Y68651D01*
X1816874Y68726D01*
X1816908Y68910D01*
X1816906Y68934D01*
X1816909Y68955D01*
X1816909Y123689D01*
X1818331Y125110D01*
X1818336Y125118D01*
X1818344Y125124D01*
X1818421Y125231D01*
X1818500Y125336D01*
X1818503Y125345D01*
X1818509Y125353D01*
X1818553Y125476D01*
X1818599Y125600D01*
X1818600Y125609D01*
X1818603Y125618D01*
X1818611Y125750D01*
X1818621Y125881D01*
X1818619Y125890D01*
X1818620Y125900D01*
X1818602Y125975D01*
X1818564Y126157D01*
X1818552Y126178D01*
X1818547Y126199D01*
X1818049Y127402D01*
X1818049Y131678D01*
X1819686Y135630D01*
X1822710Y138654D01*
X1826662Y140291D01*
X1830938Y140291D01*
X1834890Y138654D01*
X1837914Y135630D01*
X1839551Y131678D01*
X1839551Y127402D01*
X1837914Y123450D01*
X1834890Y120426D01*
X1830938Y118789D01*
X1826463Y118789D01*
X1826432Y118785D01*
X1826322Y118786D01*
X1826301Y118780D01*
X1826279Y118780D01*
X1826186Y118750D01*
X1826184Y118749D01*
X1826179Y118748D01*
X1826165Y118743D01*
X1826050Y118711D01*
X1826031Y118699D01*
X1826010Y118693D01*
X1825912Y118626D01*
X1825810Y118563D01*
X1825795Y118547D01*
X1825777Y118534D01*
X1825701Y118442D01*
X1825621Y118354D01*
X1825612Y118334D01*
X1825597Y118317D01*
X1825550Y118207D01*
X1825498Y118100D01*
X1825495Y118079D01*
X1825486Y118058D01*
X1825462Y117870D01*
X1825451Y117795D01*
X1825451Y68955D01*
X1825452Y68946D01*
X1825451Y68936D01*
X1825472Y68806D01*
X1825491Y68676D01*
X1825494Y68667D01*
X1825496Y68658D01*
X1825553Y68539D01*
X1825607Y68419D01*
X1825613Y68412D01*
X1825617Y68403D01*
X1825705Y68305D01*
X1825790Y68205D01*
X1825798Y68200D01*
X1825804Y68193D01*
X1825870Y68153D01*
X1826026Y68050D01*
X1826049Y68043D01*
X1826068Y68032D01*
X1827270Y67534D01*
X1830294Y64510D01*
X1831931Y60558D01*
X1831931Y57303D01*
X1831935Y57271D01*
X1831933Y57239D01*
X1831955Y57132D01*
X1831971Y57024D01*
X1831984Y56994D01*
X1831990Y56963D01*
X1832042Y56866D01*
X1832087Y56767D01*
X1832108Y56742D01*
X1832123Y56714D01*
X1832199Y56636D01*
X1832270Y56552D01*
X1832297Y56535D01*
X1832320Y56512D01*
X1832415Y56458D01*
X1832506Y56398D01*
X1832537Y56389D01*
X1832565Y56373D01*
X1832672Y56347D01*
X1832776Y56316D01*
X1832808Y56315D01*
X1832839Y56308D01*
X1832949Y56313D01*
X1833058Y56312D01*
X1833089Y56320D01*
X1833121Y56322D01*
X1833224Y56358D01*
X1833330Y56387D01*
X1833357Y56404D01*
X1833388Y56415D01*
X1833461Y56468D01*
X1833570Y56535D01*
X1833602Y56571D01*
X1833637Y56596D01*
X1838651Y61610D01*
X1838656Y61618D01*
X1838664Y61624D01*
X1838741Y61730D01*
X1838820Y61836D01*
X1838823Y61845D01*
X1838829Y61853D01*
X1838873Y61976D01*
X1838919Y62100D01*
X1838920Y62109D01*
X1838923Y62118D01*
X1838931Y62250D01*
X1838941Y62381D01*
X1838939Y62390D01*
X1838940Y62400D01*
X1838922Y62475D01*
X1838884Y62657D01*
X1838872Y62678D01*
X1838867Y62699D01*
X1838369Y63902D01*
X1838369Y68178D01*
X1840006Y72130D01*
X1843030Y75154D01*
X1846982Y76791D01*
X1851258Y76791D01*
X1855210Y75154D01*
X1858234Y72130D01*
X1858732Y70928D01*
X1858737Y70919D01*
X1858739Y70910D01*
X1858809Y70798D01*
X1858876Y70685D01*
X1858883Y70678D01*
X1858888Y70670D01*
X1858986Y70582D01*
X1859081Y70492D01*
X1859090Y70488D01*
X1859097Y70481D01*
X1859215Y70424D01*
X1859333Y70364D01*
X1859342Y70362D01*
X1859351Y70358D01*
X1859426Y70346D01*
X1859610Y70312D01*
X1859634Y70314D01*
X1859655Y70311D01*
X2026600Y70311D01*
X2026664Y70320D01*
X2026728Y70319D01*
X2026803Y70340D01*
X2026879Y70351D01*
X2026938Y70377D01*
X2027000Y70394D01*
X2027066Y70435D01*
X2027136Y70467D01*
X2027185Y70509D01*
X2027240Y70542D01*
X2027292Y70600D01*
X2027350Y70650D01*
X2027386Y70704D01*
X2027429Y70752D01*
X2027462Y70821D01*
X2027505Y70886D01*
X2027524Y70948D01*
X2027552Y71005D01*
X2027563Y71075D01*
X2027587Y71156D01*
X2027588Y71241D01*
X2027599Y71310D01*
X2027599Y71988D01*
X2029236Y75940D01*
X2032260Y78964D01*
X2036212Y80601D01*
X2040488Y80601D01*
X2044440Y78964D01*
X2047464Y75940D01*
X2049101Y71988D01*
X2049101Y67712D01*
X2047464Y63760D01*
X2044440Y60736D01*
X2040488Y59099D01*
X2036212Y59099D01*
X2032260Y60736D01*
X2031520Y61477D01*
X2031443Y61534D01*
X2031371Y61599D01*
X2031330Y61619D01*
X2031294Y61646D01*
X2031204Y61680D01*
X2031118Y61722D01*
X2031076Y61728D01*
X2031030Y61745D01*
X2030902Y61755D01*
X2030813Y61769D01*
X1859655Y61769D01*
X1859646Y61768D01*
X1859636Y61769D01*
X1859506Y61748D01*
X1859376Y61729D01*
X1859367Y61726D01*
X1859358Y61724D01*
X1859239Y61667D01*
X1859119Y61613D01*
X1859112Y61607D01*
X1859103Y61603D01*
X1859005Y61515D01*
X1858905Y61430D01*
X1858900Y61422D01*
X1858893Y61416D01*
X1858853Y61350D01*
X1858750Y61194D01*
X1858743Y61171D01*
X1858732Y61152D01*
X1858234Y59950D01*
X1855210Y56926D01*
X1851258Y55289D01*
X1846982Y55289D01*
X1845779Y55787D01*
X1845770Y55790D01*
X1845762Y55794D01*
X1845633Y55825D01*
X1845506Y55857D01*
X1845497Y55857D01*
X1845487Y55859D01*
X1845355Y55852D01*
X1845224Y55848D01*
X1845215Y55845D01*
X1845206Y55845D01*
X1845081Y55802D01*
X1844956Y55761D01*
X1844948Y55755D01*
X1844939Y55752D01*
X1844877Y55707D01*
X1844723Y55602D01*
X1844708Y55583D01*
X1844690Y55571D01*
X1815139Y26020D01*
X1815134Y26012D01*
X1815126Y26006D01*
X1815049Y25899D01*
X1814970Y25794D01*
X1814967Y25785D01*
X1814961Y25777D01*
X1814917Y25654D01*
X1814871Y25530D01*
X1814870Y25521D01*
X1814867Y25512D01*
X1814859Y25380D01*
X1814849Y25249D01*
X1814851Y25240D01*
X1814850Y25230D01*
X1814868Y25155D01*
X1814906Y24973D01*
X1814918Y24952D01*
X1814923Y24931D01*
X1815421Y23728D01*
X1815421Y19452D01*
X1813784Y15500D01*
X1810760Y12476D01*
X1806808Y10839D01*
X1802532Y10839D01*
G37*
%LPD*%
%LPC*%
G36*
X264562Y554399D02*
X264562Y554399D01*
X260610Y556036D01*
X257586Y559060D01*
X255949Y563012D01*
X255949Y567327D01*
X255959Y567366D01*
X255991Y567494D01*
X255991Y567503D01*
X255993Y567513D01*
X255986Y567645D01*
X255982Y567776D01*
X255979Y567785D01*
X255979Y567794D01*
X255936Y567919D01*
X255895Y568044D01*
X255889Y568052D01*
X255886Y568061D01*
X255841Y568123D01*
X255736Y568277D01*
X255717Y568292D01*
X255705Y568310D01*
X225602Y598412D01*
X223903Y600111D01*
X223059Y602148D01*
X223059Y821841D01*
X223058Y821850D01*
X223059Y821860D01*
X223038Y821990D01*
X223019Y822120D01*
X223016Y822129D01*
X223014Y822138D01*
X222957Y822258D01*
X222903Y822377D01*
X222897Y822384D01*
X222893Y822393D01*
X222805Y822492D01*
X222720Y822591D01*
X222712Y822597D01*
X222706Y822604D01*
X222640Y822644D01*
X222532Y822715D01*
X219486Y825760D01*
X217849Y829712D01*
X217849Y833988D01*
X219486Y837940D01*
X222510Y840964D01*
X226462Y842601D01*
X230738Y842601D01*
X234690Y840964D01*
X237714Y837940D01*
X239351Y833988D01*
X239351Y829712D01*
X237714Y825760D01*
X234663Y822709D01*
X234627Y822687D01*
X234515Y822620D01*
X234508Y822614D01*
X234500Y822609D01*
X234412Y822510D01*
X234322Y822415D01*
X234318Y822406D01*
X234311Y822399D01*
X234254Y822281D01*
X234194Y822163D01*
X234192Y822154D01*
X234188Y822145D01*
X234176Y822069D01*
X234142Y821886D01*
X234144Y821862D01*
X234141Y821841D01*
X234141Y605959D01*
X234154Y605864D01*
X234159Y605768D01*
X234174Y605725D01*
X234181Y605680D01*
X234220Y605592D01*
X234252Y605501D01*
X234277Y605467D01*
X234297Y605423D01*
X234380Y605325D01*
X234433Y605252D01*
X263540Y576145D01*
X263548Y576140D01*
X263554Y576132D01*
X263624Y576081D01*
X263689Y576023D01*
X263729Y576004D01*
X263766Y575976D01*
X263775Y575973D01*
X263783Y575967D01*
X263865Y575938D01*
X263942Y575900D01*
X263984Y575894D01*
X264030Y575877D01*
X264039Y575876D01*
X264048Y575873D01*
X264162Y575866D01*
X264247Y575853D01*
X264279Y575857D01*
X264311Y575855D01*
X264320Y575857D01*
X264330Y575856D01*
X264406Y575875D01*
X264418Y575877D01*
X264526Y575893D01*
X264544Y575901D01*
X268838Y575901D01*
X272790Y574264D01*
X275814Y571240D01*
X277451Y567288D01*
X277451Y563012D01*
X275814Y559060D01*
X272790Y556036D01*
X268838Y554399D01*
X264562Y554399D01*
G37*
%LPD*%
%LPC*%
G36*
X956712Y795699D02*
X956712Y795699D01*
X952760Y797336D01*
X949736Y800360D01*
X948099Y804312D01*
X948099Y808588D01*
X949736Y812540D01*
X952760Y815564D01*
X956712Y817201D01*
X960988Y817201D01*
X964940Y815564D01*
X967964Y812540D01*
X968462Y811338D01*
X968467Y811329D01*
X968469Y811320D01*
X968539Y811208D01*
X968606Y811095D01*
X968613Y811088D01*
X968618Y811080D01*
X968716Y810992D01*
X968811Y810902D01*
X968820Y810898D01*
X968827Y810891D01*
X968945Y810834D01*
X969063Y810774D01*
X969072Y810772D01*
X969081Y810768D01*
X969156Y810756D01*
X969340Y810722D01*
X969364Y810724D01*
X969385Y810721D01*
X1176915Y810721D01*
X1176924Y810722D01*
X1176934Y810721D01*
X1177064Y810742D01*
X1177194Y810761D01*
X1177203Y810764D01*
X1177212Y810766D01*
X1177331Y810823D01*
X1177451Y810877D01*
X1177458Y810883D01*
X1177467Y810887D01*
X1177565Y810975D01*
X1177665Y811060D01*
X1177670Y811068D01*
X1177677Y811074D01*
X1177717Y811140D01*
X1177820Y811296D01*
X1177827Y811319D01*
X1177838Y811338D01*
X1178336Y812540D01*
X1181360Y815564D01*
X1185312Y817201D01*
X1189588Y817201D01*
X1193540Y815564D01*
X1196564Y812540D01*
X1198201Y808588D01*
X1198201Y804312D01*
X1196564Y800360D01*
X1193540Y797336D01*
X1189588Y795699D01*
X1185312Y795699D01*
X1181360Y797336D01*
X1178336Y800360D01*
X1177838Y801562D01*
X1177833Y801571D01*
X1177831Y801580D01*
X1177761Y801692D01*
X1177694Y801805D01*
X1177687Y801812D01*
X1177682Y801820D01*
X1177584Y801908D01*
X1177489Y801998D01*
X1177480Y802002D01*
X1177473Y802009D01*
X1177355Y802066D01*
X1177237Y802126D01*
X1177228Y802128D01*
X1177219Y802132D01*
X1177144Y802144D01*
X1176960Y802178D01*
X1176936Y802176D01*
X1176915Y802179D01*
X969385Y802179D01*
X969376Y802178D01*
X969366Y802179D01*
X969236Y802158D01*
X969106Y802139D01*
X969097Y802136D01*
X969088Y802134D01*
X968969Y802077D01*
X968849Y802023D01*
X968842Y802017D01*
X968833Y802013D01*
X968735Y801925D01*
X968635Y801840D01*
X968630Y801832D01*
X968623Y801826D01*
X968583Y801760D01*
X968480Y801604D01*
X968473Y801581D01*
X968462Y801562D01*
X967964Y800360D01*
X964940Y797336D01*
X960988Y795699D01*
X956712Y795699D01*
G37*
%LPD*%
%LPC*%
G36*
X397064Y698199D02*
X397064Y698199D01*
X392286Y700179D01*
X388629Y703836D01*
X386649Y708614D01*
X386649Y713786D01*
X387149Y714993D01*
X387151Y715002D01*
X387156Y715010D01*
X387187Y715139D01*
X387219Y715266D01*
X387219Y715275D01*
X387221Y715285D01*
X387214Y715417D01*
X387210Y715548D01*
X387207Y715557D01*
X387207Y715566D01*
X387163Y715691D01*
X387123Y715816D01*
X387117Y715824D01*
X387114Y715833D01*
X387069Y715895D01*
X386964Y716049D01*
X386945Y716064D01*
X386933Y716082D01*
X365898Y737117D01*
X365821Y737174D01*
X365749Y737239D01*
X365708Y737259D01*
X365672Y737286D01*
X365582Y737320D01*
X365496Y737362D01*
X365454Y737368D01*
X365408Y737385D01*
X365281Y737395D01*
X365191Y737409D01*
X264009Y737409D01*
X264000Y737408D01*
X263990Y737409D01*
X263860Y737388D01*
X263730Y737369D01*
X263721Y737366D01*
X263712Y737364D01*
X263592Y737307D01*
X263473Y737253D01*
X263466Y737247D01*
X263457Y737243D01*
X263358Y737155D01*
X263259Y737070D01*
X263253Y737062D01*
X263246Y737056D01*
X263206Y736990D01*
X263135Y736882D01*
X260090Y733836D01*
X256138Y732199D01*
X251862Y732199D01*
X247910Y733836D01*
X244886Y736860D01*
X243249Y740812D01*
X243249Y745088D01*
X244886Y749040D01*
X247910Y752064D01*
X251862Y753701D01*
X256138Y753701D01*
X260090Y752064D01*
X263141Y749013D01*
X263163Y748977D01*
X263230Y748865D01*
X263236Y748858D01*
X263241Y748850D01*
X263340Y748762D01*
X263435Y748672D01*
X263444Y748668D01*
X263451Y748661D01*
X263569Y748604D01*
X263687Y748544D01*
X263696Y748542D01*
X263705Y748538D01*
X263781Y748526D01*
X263964Y748492D01*
X263988Y748494D01*
X264009Y748491D01*
X369002Y748491D01*
X371039Y747647D01*
X372738Y745948D01*
X394768Y723917D01*
X394776Y723912D01*
X394782Y723904D01*
X394889Y723827D01*
X394994Y723748D01*
X395003Y723745D01*
X395010Y723739D01*
X395134Y723695D01*
X395258Y723649D01*
X395267Y723648D01*
X395276Y723645D01*
X395408Y723637D01*
X395539Y723627D01*
X395548Y723629D01*
X395558Y723628D01*
X395633Y723646D01*
X395815Y723684D01*
X395836Y723696D01*
X395857Y723701D01*
X397064Y724201D01*
X402236Y724201D01*
X407014Y722221D01*
X410671Y718564D01*
X412651Y713786D01*
X412651Y708614D01*
X410671Y703836D01*
X407014Y700179D01*
X402236Y698199D01*
X397064Y698199D01*
G37*
%LPD*%
%LPC*%
G36*
X1007512Y311829D02*
X1007512Y311829D01*
X1003560Y313466D01*
X1000536Y316490D01*
X998899Y320442D01*
X998899Y324718D01*
X1000536Y328670D01*
X1003560Y331694D01*
X1004762Y332192D01*
X1004771Y332197D01*
X1004780Y332199D01*
X1004892Y332269D01*
X1005005Y332336D01*
X1005012Y332343D01*
X1005020Y332348D01*
X1005108Y332446D01*
X1005198Y332541D01*
X1005202Y332550D01*
X1005209Y332557D01*
X1005266Y332675D01*
X1005326Y332793D01*
X1005328Y332802D01*
X1005332Y332811D01*
X1005343Y332886D01*
X1005378Y333070D01*
X1005376Y333094D01*
X1005379Y333115D01*
X1005379Y434423D01*
X1005366Y434518D01*
X1005361Y434614D01*
X1005346Y434657D01*
X1005339Y434702D01*
X1005300Y434790D01*
X1005268Y434881D01*
X1005243Y434915D01*
X1005223Y434959D01*
X1005140Y435056D01*
X1005087Y435130D01*
X1004981Y435235D01*
X1003344Y439187D01*
X1003344Y443463D01*
X1004981Y447415D01*
X1008005Y450439D01*
X1011957Y452076D01*
X1016233Y452076D01*
X1020185Y450439D01*
X1023209Y447415D01*
X1024846Y443463D01*
X1024846Y439187D01*
X1023209Y435235D01*
X1020185Y432211D01*
X1016233Y430574D01*
X1014920Y430574D01*
X1014856Y430565D01*
X1014792Y430566D01*
X1014717Y430545D01*
X1014641Y430534D01*
X1014582Y430508D01*
X1014520Y430491D01*
X1014454Y430450D01*
X1014384Y430418D01*
X1014335Y430376D01*
X1014280Y430343D01*
X1014228Y430285D01*
X1014170Y430235D01*
X1014134Y430181D01*
X1014091Y430133D01*
X1014058Y430064D01*
X1014015Y429999D01*
X1013996Y429937D01*
X1013968Y429880D01*
X1013957Y429810D01*
X1013933Y429729D01*
X1013932Y429644D01*
X1013921Y429575D01*
X1013921Y333115D01*
X1013922Y333106D01*
X1013921Y333096D01*
X1013942Y332966D01*
X1013961Y332836D01*
X1013964Y332827D01*
X1013966Y332818D01*
X1014023Y332699D01*
X1014077Y332579D01*
X1014083Y332572D01*
X1014087Y332563D01*
X1014175Y332465D01*
X1014260Y332365D01*
X1014268Y332360D01*
X1014274Y332353D01*
X1014340Y332313D01*
X1014496Y332210D01*
X1014519Y332203D01*
X1014538Y332192D01*
X1015740Y331694D01*
X1018764Y328670D01*
X1020401Y324718D01*
X1020401Y320442D01*
X1018764Y316490D01*
X1015740Y313466D01*
X1011788Y311829D01*
X1007512Y311829D01*
G37*
%LPD*%
%LPC*%
G36*
X1142132Y556939D02*
X1142132Y556939D01*
X1138180Y558576D01*
X1135156Y561600D01*
X1133519Y565552D01*
X1133519Y569828D01*
X1135156Y573780D01*
X1138180Y576804D01*
X1142132Y578441D01*
X1146408Y578441D01*
X1147611Y577943D01*
X1147620Y577940D01*
X1147628Y577936D01*
X1147757Y577905D01*
X1147884Y577873D01*
X1147893Y577873D01*
X1147903Y577871D01*
X1148035Y577878D01*
X1148166Y577882D01*
X1148175Y577885D01*
X1148184Y577885D01*
X1148309Y577928D01*
X1148434Y577969D01*
X1148442Y577975D01*
X1148451Y577978D01*
X1148513Y578023D01*
X1148667Y578128D01*
X1148682Y578147D01*
X1148700Y578159D01*
X1168917Y598376D01*
X1168974Y598453D01*
X1169039Y598525D01*
X1169059Y598566D01*
X1169086Y598602D01*
X1169120Y598692D01*
X1169162Y598778D01*
X1169168Y598820D01*
X1169185Y598866D01*
X1169195Y598993D01*
X1169209Y599083D01*
X1169209Y643515D01*
X1169208Y643524D01*
X1169209Y643534D01*
X1169188Y643664D01*
X1169169Y643794D01*
X1169166Y643803D01*
X1169164Y643812D01*
X1169107Y643931D01*
X1169053Y644051D01*
X1169047Y644058D01*
X1169043Y644067D01*
X1168955Y644165D01*
X1168870Y644265D01*
X1168862Y644270D01*
X1168856Y644277D01*
X1168790Y644317D01*
X1168634Y644420D01*
X1168611Y644427D01*
X1168592Y644438D01*
X1167390Y644936D01*
X1164366Y647960D01*
X1162729Y651912D01*
X1162729Y656188D01*
X1164366Y660140D01*
X1167390Y663164D01*
X1171342Y664801D01*
X1175618Y664801D01*
X1179570Y663164D01*
X1182594Y660140D01*
X1184231Y656188D01*
X1184231Y651912D01*
X1182594Y647960D01*
X1179570Y644936D01*
X1178368Y644438D01*
X1178359Y644433D01*
X1178350Y644431D01*
X1178238Y644361D01*
X1178125Y644294D01*
X1178118Y644287D01*
X1178110Y644282D01*
X1178022Y644184D01*
X1177932Y644089D01*
X1177928Y644080D01*
X1177921Y644073D01*
X1177864Y643955D01*
X1177804Y643837D01*
X1177802Y643828D01*
X1177798Y643819D01*
X1177786Y643744D01*
X1177752Y643560D01*
X1177754Y643536D01*
X1177751Y643515D01*
X1177751Y595131D01*
X1154739Y572120D01*
X1154734Y572112D01*
X1154726Y572106D01*
X1154649Y571999D01*
X1154570Y571894D01*
X1154567Y571885D01*
X1154561Y571877D01*
X1154517Y571754D01*
X1154471Y571630D01*
X1154470Y571621D01*
X1154467Y571612D01*
X1154459Y571480D01*
X1154449Y571349D01*
X1154451Y571340D01*
X1154450Y571330D01*
X1154468Y571255D01*
X1154506Y571073D01*
X1154518Y571052D01*
X1154523Y571031D01*
X1155021Y569828D01*
X1155021Y565552D01*
X1153384Y561600D01*
X1150360Y558576D01*
X1146408Y556939D01*
X1142132Y556939D01*
G37*
%LPD*%
%LPC*%
G36*
X2087012Y821099D02*
X2087012Y821099D01*
X2083060Y822736D01*
X2080036Y825760D01*
X2078399Y829712D01*
X2078399Y833988D01*
X2080036Y837940D01*
X2083087Y840991D01*
X2083123Y841013D01*
X2083235Y841080D01*
X2083242Y841086D01*
X2083250Y841091D01*
X2083338Y841190D01*
X2083428Y841285D01*
X2083432Y841294D01*
X2083439Y841301D01*
X2083496Y841419D01*
X2083556Y841537D01*
X2083558Y841546D01*
X2083562Y841555D01*
X2083574Y841631D01*
X2083608Y841814D01*
X2083606Y841838D01*
X2083609Y841859D01*
X2083609Y877402D01*
X2084453Y879439D01*
X2090855Y885840D01*
X2090860Y885848D01*
X2090868Y885854D01*
X2090945Y885961D01*
X2091024Y886066D01*
X2091027Y886075D01*
X2091033Y886083D01*
X2091077Y886207D01*
X2091123Y886330D01*
X2091124Y886339D01*
X2091127Y886348D01*
X2091135Y886480D01*
X2091145Y886611D01*
X2091143Y886620D01*
X2091144Y886630D01*
X2091125Y886706D01*
X2091099Y886831D01*
X2091099Y891138D01*
X2092736Y895090D01*
X2095760Y898114D01*
X2099712Y899751D01*
X2103988Y899751D01*
X2107940Y898114D01*
X2110964Y895090D01*
X2112601Y891138D01*
X2112601Y886862D01*
X2110964Y882910D01*
X2107940Y879886D01*
X2103988Y878249D01*
X2099673Y878249D01*
X2099634Y878259D01*
X2099506Y878291D01*
X2099497Y878291D01*
X2099487Y878293D01*
X2099355Y878286D01*
X2099224Y878282D01*
X2099215Y878279D01*
X2099206Y878279D01*
X2099081Y878236D01*
X2098956Y878195D01*
X2098948Y878189D01*
X2098939Y878186D01*
X2098877Y878141D01*
X2098723Y878036D01*
X2098708Y878017D01*
X2098690Y878005D01*
X2094983Y874298D01*
X2094926Y874221D01*
X2094861Y874149D01*
X2094841Y874108D01*
X2094814Y874072D01*
X2094780Y873982D01*
X2094738Y873896D01*
X2094732Y873854D01*
X2094715Y873808D01*
X2094705Y873681D01*
X2094691Y873591D01*
X2094691Y841859D01*
X2094692Y841850D01*
X2094691Y841840D01*
X2094712Y841710D01*
X2094731Y841580D01*
X2094734Y841571D01*
X2094736Y841562D01*
X2094793Y841442D01*
X2094847Y841323D01*
X2094853Y841316D01*
X2094857Y841307D01*
X2094945Y841208D01*
X2095030Y841109D01*
X2095038Y841103D01*
X2095044Y841096D01*
X2095110Y841056D01*
X2095218Y840985D01*
X2098264Y837940D01*
X2099901Y833988D01*
X2099901Y829712D01*
X2098264Y825760D01*
X2095240Y822736D01*
X2091288Y821099D01*
X2087012Y821099D01*
G37*
%LPD*%
%LPC*%
G36*
X462307Y847899D02*
X462307Y847899D01*
X460549Y849657D01*
X460549Y877543D01*
X462307Y879301D01*
X490193Y879301D01*
X491951Y877543D01*
X491951Y849657D01*
X490193Y847899D01*
X462307Y847899D01*
G37*
%LPD*%
%LPC*%
G36*
X360707Y847899D02*
X360707Y847899D01*
X358949Y849657D01*
X358949Y877543D01*
X360707Y879301D01*
X388593Y879301D01*
X390351Y877543D01*
X390351Y849657D01*
X388593Y847899D01*
X360707Y847899D01*
G37*
%LPD*%
%LPC*%
G36*
X309907Y847899D02*
X309907Y847899D01*
X308149Y849657D01*
X308149Y877543D01*
X309907Y879301D01*
X337793Y879301D01*
X339551Y877543D01*
X339551Y849657D01*
X337793Y847899D01*
X309907Y847899D01*
G37*
%LPD*%
%LPC*%
G36*
X411507Y847899D02*
X411507Y847899D01*
X409749Y849657D01*
X409749Y877543D01*
X411507Y879301D01*
X439393Y879301D01*
X441151Y877543D01*
X441151Y849657D01*
X439393Y847899D01*
X411507Y847899D01*
G37*
%LPD*%
%LPC*%
G36*
X1465982Y74339D02*
X1465982Y74339D01*
X1462030Y75976D01*
X1459006Y79000D01*
X1457369Y82952D01*
X1457369Y87228D01*
X1459006Y91180D01*
X1462030Y94204D01*
X1463232Y94702D01*
X1463241Y94707D01*
X1463250Y94709D01*
X1463362Y94779D01*
X1463475Y94846D01*
X1463482Y94853D01*
X1463490Y94858D01*
X1463578Y94956D01*
X1463668Y95051D01*
X1463672Y95060D01*
X1463679Y95067D01*
X1463736Y95185D01*
X1463796Y95303D01*
X1463798Y95312D01*
X1463802Y95321D01*
X1463814Y95396D01*
X1463848Y95580D01*
X1463846Y95604D01*
X1463849Y95625D01*
X1463849Y101957D01*
X1463836Y102052D01*
X1463831Y102148D01*
X1463816Y102191D01*
X1463809Y102236D01*
X1463770Y102324D01*
X1463738Y102415D01*
X1463713Y102449D01*
X1463693Y102493D01*
X1463610Y102590D01*
X1463557Y102664D01*
X1457534Y108687D01*
X1457482Y108725D01*
X1457437Y108771D01*
X1457370Y108809D01*
X1457308Y108856D01*
X1457248Y108879D01*
X1457192Y108910D01*
X1457117Y108928D01*
X1457044Y108955D01*
X1456980Y108960D01*
X1456918Y108975D01*
X1456840Y108971D01*
X1456763Y108977D01*
X1456700Y108964D01*
X1456636Y108961D01*
X1456563Y108935D01*
X1456487Y108920D01*
X1456430Y108889D01*
X1456369Y108868D01*
X1456313Y108827D01*
X1456238Y108787D01*
X1456177Y108728D01*
X1456120Y108687D01*
X1455160Y107726D01*
X1451208Y106089D01*
X1446932Y106089D01*
X1442980Y107726D01*
X1439956Y110750D01*
X1438319Y114702D01*
X1438319Y118978D01*
X1439956Y122930D01*
X1442980Y125954D01*
X1446932Y127591D01*
X1451208Y127591D01*
X1455160Y125954D01*
X1458184Y122930D01*
X1459821Y118978D01*
X1459821Y118893D01*
X1459834Y118798D01*
X1459839Y118702D01*
X1459854Y118659D01*
X1459861Y118614D01*
X1459900Y118526D01*
X1459932Y118435D01*
X1459957Y118401D01*
X1459977Y118357D01*
X1460060Y118259D01*
X1460113Y118186D01*
X1472391Y105909D01*
X1472391Y95625D01*
X1472392Y95616D01*
X1472391Y95606D01*
X1472412Y95476D01*
X1472431Y95346D01*
X1472434Y95337D01*
X1472436Y95328D01*
X1472493Y95209D01*
X1472547Y95089D01*
X1472553Y95082D01*
X1472557Y95073D01*
X1472645Y94975D01*
X1472730Y94875D01*
X1472738Y94870D01*
X1472744Y94863D01*
X1472810Y94823D01*
X1472966Y94720D01*
X1472989Y94713D01*
X1473008Y94702D01*
X1474210Y94204D01*
X1477234Y91180D01*
X1478871Y87228D01*
X1478871Y82952D01*
X1477234Y79000D01*
X1474210Y75976D01*
X1470258Y74339D01*
X1465982Y74339D01*
G37*
%LPD*%
%LPC*%
G36*
X1858412Y344849D02*
X1858412Y344849D01*
X1854460Y346486D01*
X1851436Y349510D01*
X1849799Y353462D01*
X1849799Y357738D01*
X1851436Y361690D01*
X1854460Y364714D01*
X1858412Y366351D01*
X1862688Y366351D01*
X1865885Y365027D01*
X1865925Y365016D01*
X1865963Y364998D01*
X1866048Y364985D01*
X1866158Y364957D01*
X1866217Y364959D01*
X1866267Y364951D01*
X1888115Y364951D01*
X1888124Y364952D01*
X1888134Y364951D01*
X1888264Y364972D01*
X1888394Y364991D01*
X1888403Y364994D01*
X1888412Y364996D01*
X1888531Y365053D01*
X1888651Y365107D01*
X1888658Y365113D01*
X1888667Y365117D01*
X1888765Y365205D01*
X1888865Y365290D01*
X1888870Y365298D01*
X1888878Y365304D01*
X1888918Y365370D01*
X1889020Y365526D01*
X1889027Y365549D01*
X1889038Y365568D01*
X1889536Y366770D01*
X1892560Y369794D01*
X1896512Y371431D01*
X1900788Y371431D01*
X1904740Y369794D01*
X1907764Y366770D01*
X1909401Y362818D01*
X1909401Y358542D01*
X1907764Y354590D01*
X1904740Y351566D01*
X1900788Y349929D01*
X1896512Y349929D01*
X1892560Y351566D01*
X1889536Y354590D01*
X1889038Y355792D01*
X1889033Y355801D01*
X1889031Y355810D01*
X1888961Y355922D01*
X1888894Y356035D01*
X1888887Y356042D01*
X1888883Y356050D01*
X1888785Y356138D01*
X1888689Y356228D01*
X1888680Y356232D01*
X1888673Y356239D01*
X1888555Y356296D01*
X1888437Y356356D01*
X1888428Y356358D01*
X1888419Y356362D01*
X1888344Y356374D01*
X1888160Y356408D01*
X1888136Y356406D01*
X1888115Y356409D01*
X1872300Y356409D01*
X1872236Y356400D01*
X1872172Y356401D01*
X1872097Y356380D01*
X1872021Y356369D01*
X1871962Y356343D01*
X1871900Y356326D01*
X1871834Y356285D01*
X1871764Y356253D01*
X1871715Y356211D01*
X1871660Y356178D01*
X1871608Y356120D01*
X1871550Y356070D01*
X1871514Y356016D01*
X1871471Y355968D01*
X1871438Y355899D01*
X1871395Y355834D01*
X1871376Y355772D01*
X1871348Y355715D01*
X1871337Y355645D01*
X1871313Y355564D01*
X1871312Y355479D01*
X1871301Y355410D01*
X1871301Y353462D01*
X1869664Y349510D01*
X1866640Y346486D01*
X1862688Y344849D01*
X1858412Y344849D01*
G37*
%LPD*%
%LPC*%
G36*
X1293027Y47979D02*
X1293027Y47979D01*
X1291269Y49737D01*
X1291269Y74723D01*
X1293027Y76481D01*
X1318013Y76481D01*
X1319771Y74723D01*
X1319771Y49737D01*
X1318013Y47979D01*
X1293027Y47979D01*
G37*
%LPD*%
%LPC*%
G36*
X1251885Y47979D02*
X1251885Y47979D01*
X1246648Y50149D01*
X1242639Y54158D01*
X1240469Y59395D01*
X1240469Y65065D01*
X1242639Y70302D01*
X1246648Y74311D01*
X1251885Y76481D01*
X1257555Y76481D01*
X1262792Y74311D01*
X1266801Y70302D01*
X1268971Y65065D01*
X1268971Y59395D01*
X1266801Y54158D01*
X1262792Y50149D01*
X1257555Y47979D01*
X1251885Y47979D01*
G37*
%LPD*%
%LPC*%
G36*
X397064Y590249D02*
X397064Y590249D01*
X392286Y592229D01*
X388629Y595886D01*
X386649Y600664D01*
X386649Y605836D01*
X388629Y610614D01*
X392286Y614271D01*
X397064Y616251D01*
X402236Y616251D01*
X407014Y614271D01*
X410671Y610614D01*
X412651Y605836D01*
X412651Y600664D01*
X410671Y595886D01*
X407014Y592229D01*
X402236Y590249D01*
X397064Y590249D01*
G37*
%LPD*%
%LPC*%
G36*
X2093131Y369089D02*
X2093131Y369089D01*
X2088753Y370903D01*
X2085403Y374253D01*
X2083589Y378631D01*
X2083589Y383369D01*
X2085403Y387747D01*
X2088753Y391097D01*
X2093131Y392911D01*
X2097869Y392911D01*
X2102247Y391097D01*
X2105597Y387747D01*
X2107411Y383369D01*
X2107411Y378631D01*
X2105597Y374253D01*
X2102247Y370903D01*
X2097869Y369089D01*
X2093131Y369089D01*
G37*
%LPD*%
%LPC*%
G36*
X133521Y27459D02*
X133521Y27459D01*
X129143Y29273D01*
X125793Y32623D01*
X123979Y37001D01*
X123979Y41739D01*
X125793Y46117D01*
X129143Y49467D01*
X133521Y51281D01*
X138259Y51281D01*
X142637Y49467D01*
X145987Y46117D01*
X147801Y41739D01*
X147801Y37001D01*
X145987Y32623D01*
X142637Y29273D01*
X138259Y27459D01*
X133521Y27459D01*
G37*
%LPD*%
%LPC*%
G36*
X607389Y1575739D02*
X607389Y1575739D01*
X607389Y1586760D01*
X608079Y1586651D01*
X610144Y1585980D01*
X612078Y1584995D01*
X613834Y1583719D01*
X615369Y1582184D01*
X616645Y1580428D01*
X617630Y1578494D01*
X618301Y1576429D01*
X618410Y1575739D01*
X607389Y1575739D01*
G37*
%LPD*%
%LPC*%
G36*
X607389Y1570661D02*
X607389Y1570661D01*
X618410Y1570661D01*
X618301Y1569971D01*
X617630Y1567906D01*
X616645Y1565972D01*
X615369Y1564216D01*
X613834Y1562681D01*
X612078Y1561405D01*
X610144Y1560420D01*
X608079Y1559749D01*
X607389Y1559640D01*
X607389Y1570661D01*
G37*
%LPD*%
%LPC*%
G36*
X591290Y1575739D02*
X591290Y1575739D01*
X591399Y1576429D01*
X592070Y1578494D01*
X593055Y1580428D01*
X594331Y1582184D01*
X595866Y1583719D01*
X597622Y1584995D01*
X599556Y1585980D01*
X601621Y1586651D01*
X602311Y1586760D01*
X602311Y1575739D01*
X591290Y1575739D01*
G37*
%LPD*%
%LPC*%
G36*
X601621Y1559749D02*
X601621Y1559749D01*
X599556Y1560420D01*
X597622Y1561405D01*
X595866Y1562681D01*
X594331Y1564216D01*
X593055Y1565972D01*
X592070Y1567906D01*
X591399Y1569971D01*
X591290Y1570661D01*
X602311Y1570661D01*
X602311Y1559640D01*
X601621Y1559749D01*
G37*
%LPD*%
%LPC*%
G36*
X593049Y1176849D02*
X593049Y1176849D01*
X593049Y1186651D01*
X593487Y1186582D01*
X595364Y1185972D01*
X597123Y1185076D01*
X598720Y1183916D01*
X600116Y1182520D01*
X601276Y1180923D01*
X602172Y1179164D01*
X602782Y1177287D01*
X602851Y1176849D01*
X593049Y1176849D01*
G37*
%LPD*%
%LPC*%
G36*
X866099Y1176849D02*
X866099Y1176849D01*
X866099Y1186651D01*
X866537Y1186582D01*
X868414Y1185972D01*
X870173Y1185076D01*
X871770Y1183916D01*
X873166Y1182520D01*
X874326Y1180923D01*
X875222Y1179164D01*
X875832Y1177287D01*
X875901Y1176849D01*
X866099Y1176849D01*
G37*
%LPD*%
%LPC*%
G36*
X851299Y1176849D02*
X851299Y1176849D01*
X851368Y1177287D01*
X851978Y1179164D01*
X852874Y1180923D01*
X854034Y1182520D01*
X855430Y1183916D01*
X857027Y1185076D01*
X858786Y1185972D01*
X860663Y1186582D01*
X861101Y1186651D01*
X861101Y1176849D01*
X851299Y1176849D01*
G37*
%LPD*%
%LPC*%
G36*
X578249Y1176849D02*
X578249Y1176849D01*
X578318Y1177287D01*
X578928Y1179164D01*
X579824Y1180923D01*
X580984Y1182520D01*
X582380Y1183916D01*
X583977Y1185076D01*
X585736Y1185972D01*
X587613Y1186582D01*
X588051Y1186651D01*
X588051Y1176849D01*
X578249Y1176849D01*
G37*
%LPD*%
%LPC*%
G36*
X593049Y1171851D02*
X593049Y1171851D01*
X602851Y1171851D01*
X602782Y1171413D01*
X602172Y1169536D01*
X601276Y1167777D01*
X600116Y1166180D01*
X598720Y1164784D01*
X597123Y1163624D01*
X595364Y1162728D01*
X593487Y1162118D01*
X593049Y1162049D01*
X593049Y1171851D01*
G37*
%LPD*%
%LPC*%
G36*
X587613Y1162118D02*
X587613Y1162118D01*
X585736Y1162728D01*
X583977Y1163624D01*
X582380Y1164784D01*
X580984Y1166180D01*
X579824Y1167777D01*
X578928Y1169536D01*
X578318Y1171413D01*
X578249Y1171851D01*
X588051Y1171851D01*
X588051Y1162049D01*
X587613Y1162118D01*
G37*
%LPD*%
%LPC*%
G36*
X604849Y1573199D02*
X604849Y1573199D01*
X604849Y1573201D01*
X604851Y1573201D01*
X604851Y1573199D01*
X604849Y1573199D01*
G37*
%LPD*%
D10*
X349650Y711200D03*
X399650Y711200D03*
X349650Y603250D03*
X399650Y603250D03*
D11*
X494900Y1282700D03*
D12*
X444900Y1282700D03*
D11*
X494900Y1428750D03*
D12*
X444900Y1428750D03*
D13*
X158750Y1388850D03*
D14*
X158750Y1163850D03*
D10*
X590550Y1174350D03*
X590550Y1124350D03*
X863600Y1174350D03*
X863600Y1124350D03*
D13*
X234950Y1570250D03*
D14*
X234950Y1795250D03*
D15*
X336550Y1111250D03*
D16*
X361950Y1111250D03*
X387350Y1111250D03*
X412750Y1111250D03*
X336550Y1187450D03*
X361950Y1187450D03*
X412750Y1187450D03*
D17*
X1003300Y1562100D03*
D18*
X783300Y1562100D03*
X1021300Y1682100D03*
X745300Y1682100D03*
D15*
X3723838Y578250D03*
D16*
X3739838Y628250D03*
D13*
X158450Y1441450D03*
D14*
X349550Y1441450D03*
D17*
X2739400Y1826530D03*
D18*
X2794000Y1826530D03*
X2848600Y1826530D03*
D17*
X3006100Y1826530D03*
D18*
X3060700Y1826530D03*
X3115300Y1826530D03*
D17*
X3301970Y1826530D03*
D18*
X3356570Y1826530D03*
X3411170Y1826530D03*
D17*
X3577600Y1826530D03*
D18*
X3632200Y1826530D03*
X3686800Y1826530D03*
D17*
X3248650Y214995D03*
D18*
X3194050Y214995D03*
X3139450Y214995D03*
D17*
X3593667Y214995D03*
D18*
X3539067Y214995D03*
X3484467Y214995D03*
D17*
X2465483Y214995D03*
D18*
X2410883Y214995D03*
X2356283Y214995D03*
D17*
X2823200Y214995D03*
D18*
X2768600Y214995D03*
X2714000Y214995D03*
D19*
X2063750Y1270000D03*
X1936750Y1270000D03*
D20*
X3415030Y666750D03*
X3094990Y728980D03*
X2921000Y732790D03*
X2578100Y662940D03*
X2565400Y1285240D03*
X3413760Y1289050D03*
D21*
X273050Y1021100D03*
X323850Y1021100D03*
X374650Y1021100D03*
X425450Y1021100D03*
X476250Y1021100D03*
X285750Y863600D03*
X323850Y863600D03*
X374650Y863600D03*
X425450Y863600D03*
X476250Y863600D03*
D22*
X911150Y1737000D02*
X929150Y1737000D01*
X854150Y1755500D02*
X836150Y1755500D01*
D23*
X133350Y1568450D03*
X82550Y1568450D03*
X3600450Y678226D03*
X3651250Y678226D03*
X3651250Y533036D03*
X3600450Y533036D03*
X76200Y1797050D03*
X127000Y1797050D03*
D24*
X3651250Y787400D03*
X3676650Y787400D03*
X3702050Y787400D03*
X3727450Y787400D03*
X3651250Y812800D03*
X3676650Y812800D03*
X3702050Y812800D03*
X3727450Y812800D03*
X3651250Y838200D03*
X3676650Y838200D03*
X3702050Y838200D03*
X3727450Y838200D03*
X3651250Y863600D03*
X3676650Y863600D03*
X3702050Y863600D03*
X3727450Y863600D03*
X3752850Y787400D03*
X3752850Y812800D03*
X3752850Y838200D03*
X3752850Y863600D03*
X3752850Y889000D03*
X3727450Y889000D03*
X3702050Y889000D03*
X3676650Y889000D03*
X3651250Y889000D03*
X3778250Y838200D03*
X3778250Y812800D03*
X3778250Y787400D03*
X3778250Y863600D03*
X3778250Y889000D03*
X3651250Y914400D03*
X3676650Y914400D03*
X3702050Y914400D03*
X3727450Y914400D03*
X3752850Y914400D03*
X3778250Y914400D03*
D25*
X3651250Y298450D03*
X3676650Y298450D03*
X3702050Y298450D03*
X3727450Y298450D03*
X3651250Y323850D03*
X3676650Y323850D03*
X3702050Y323850D03*
X3727450Y323850D03*
X3651250Y349250D03*
X3676650Y349250D03*
X3702050Y349250D03*
X3727450Y349250D03*
X3651250Y374650D03*
X3676650Y374650D03*
X3702050Y374650D03*
X3727450Y374650D03*
X3752850Y298450D03*
X3752850Y323850D03*
X3752850Y349250D03*
X3752850Y374650D03*
X3752850Y400050D03*
X3727450Y400050D03*
X3702050Y400050D03*
X3676650Y400050D03*
X3651250Y400050D03*
X3778250Y349250D03*
X3778250Y323850D03*
X3778250Y298450D03*
X3778250Y374650D03*
X3778250Y400050D03*
X3651250Y425450D03*
X3676650Y425450D03*
X3702050Y425450D03*
X3727450Y425450D03*
X3752850Y425450D03*
X3778250Y425450D03*
D26*
X1187450Y1866900D03*
X1187450Y1766824D03*
X1187450Y1479550D03*
X1187450Y1379474D03*
X1555750Y1478756D03*
X1555750Y1378680D03*
X1555750Y1866900D03*
X1555750Y1766824D03*
D15*
X135000Y1707750D03*
D16*
X119000Y1657750D03*
D27*
X423850Y1720700D03*
D25*
X423850Y1606700D03*
X604850Y1573200D03*
X604850Y1754200D03*
D15*
X74550Y1257700D03*
D16*
X90550Y1307700D03*
D27*
X1771436Y1271524D03*
D25*
X1822236Y1271524D03*
D27*
X1305520Y62230D03*
D25*
X1254720Y62230D03*
D28*
X1830070Y1713230D03*
X2136140Y1711960D03*
D29*
X135000Y1707750D02*
X82150Y1707750D01*
X74550Y1257700D02*
X50400Y1257700D01*
X22860Y1648460D02*
X82150Y1707750D01*
X22860Y1648460D02*
X22860Y1285240D01*
X50400Y1257700D01*
D30*
X158750Y1163850D02*
X292100Y1297200D01*
X292100Y1390650D01*
D14*
X292100Y1390650D03*
X2221230Y394970D03*
D31*
X2143760Y317500D01*
X2143760Y190500D01*
D14*
X2143760Y190500D03*
X3702050Y114300D03*
D31*
X3695700Y120650D01*
X2178050Y120650D01*
X2146300Y152400D01*
D14*
X2146300Y152400D03*
X3759200Y177800D03*
X3733800Y177800D03*
X3708400Y177800D03*
X3708400Y203200D03*
X3733800Y203200D03*
X3759200Y203200D03*
X3759200Y228600D03*
X3733800Y228600D03*
X3708400Y228600D03*
X1832610Y307340D03*
D32*
X2109470Y307340D01*
D30*
X2118360Y316230D01*
D14*
X2118360Y340360D03*
D30*
X2118360Y316230D01*
X2109470Y307340D02*
X2118360Y298450D01*
D14*
X2118360Y270510D03*
D30*
X2118360Y298450D01*
D14*
X1144270Y567690D03*
D31*
X1173480Y596900D01*
D14*
X1173480Y654050D03*
D31*
X1173480Y596900D01*
D32*
X1936750Y971730D02*
X1936750Y1270000D01*
D30*
X1936750Y971730D02*
X1933495Y968475D01*
X1932225Y968475D01*
D14*
X1932225Y968475D03*
X2089150Y831850D03*
D30*
X2089150Y876300D01*
X2101850Y889000D01*
D14*
X2101850Y889000D03*
X1074420Y873760D03*
D31*
X1285240Y873760D01*
D14*
X1285240Y873760D03*
X1804670Y21590D03*
D31*
X1849120Y66040D01*
D14*
X1849120Y66040D03*
D31*
X2034540Y66040D02*
X2038350Y69850D01*
X2034540Y66040D02*
X1849120Y66040D01*
D14*
X2038350Y69850D03*
X582930Y295910D03*
D33*
X825500Y349250D02*
X825500Y844550D01*
X854710Y873760D01*
X774700Y298450D02*
X772160Y295910D01*
X774700Y298450D02*
X825500Y349250D01*
X774700Y298450D02*
X1624330Y298450D01*
D14*
X2059940Y804500D03*
D33*
X2059940Y734060D02*
X1624330Y298450D01*
X2059940Y734060D02*
X2059940Y804500D01*
X869950Y873760D02*
X854710Y873760D01*
X869950Y873760D02*
X1074420Y873760D01*
D14*
X869950Y873760D03*
X607060Y295910D03*
X746760Y295910D03*
X718820Y295910D03*
X690880Y295910D03*
X636270Y295910D03*
X958850Y806450D03*
D31*
X1187450Y806450D01*
D14*
X1187450Y806450D03*
X1860550Y355600D03*
D31*
X1865630Y360680D01*
X1898650Y360680D01*
D14*
X1898650Y360680D03*
D29*
X604850Y1522400D02*
X604850Y1573200D01*
X604850Y1522400D02*
X747776Y1379474D01*
X1187450Y1379474D02*
X1390650Y1379474D01*
X1554956Y1379474D01*
X1555750Y1378680D01*
X1664430Y1378680D01*
X1739900Y1454150D01*
X2032000Y1454150D01*
X3686800Y1826530D02*
X3686800Y1875800D01*
X2508250Y1930400D02*
X2032000Y1454150D01*
X2508250Y1930400D02*
X3117850Y1930400D01*
X3632200Y1930400D01*
X3686800Y1875800D01*
X3115300Y1826530D02*
X3115300Y1927850D01*
X3117850Y1930400D01*
X1187450Y1379474D02*
X747776Y1379474D01*
X863600Y1174350D02*
X1288650Y1174350D01*
X1390650Y1276350D02*
X1390650Y1379474D01*
X1390650Y1276350D02*
X1288650Y1174350D01*
X323850Y1021100D02*
X323850Y990600D01*
X349250Y965200D01*
X596900Y965200D01*
X682625Y1050925D01*
X699350Y1067650D01*
X806450Y1174750D01*
X863200Y1174750D01*
X863600Y1174350D01*
X622700Y1206500D02*
X590550Y1174350D01*
X831450Y1206500D02*
X863200Y1174750D01*
X831450Y1206500D02*
X622700Y1206500D01*
D14*
X1035050Y990600D03*
D31*
X1035050Y965200D01*
X1028700Y958850D01*
X787400Y958850D01*
X692150Y1054100D01*
D14*
X1276350Y965200D03*
D31*
X1263650Y952500D01*
X781050Y952500D02*
X682625Y1050925D01*
X781050Y952500D02*
X1263650Y952500D01*
D14*
X699350Y1067650D03*
X584200Y1574800D03*
X584200Y1549400D03*
X584200Y1524000D03*
X584200Y1498600D03*
X609600Y1498600D03*
X609600Y1524000D03*
X609600Y1549400D03*
X635000Y1549400D03*
X635000Y1524000D03*
X635000Y1498600D03*
X635000Y1574800D03*
D29*
X2565400Y1285240D02*
X3107690Y1285240D01*
X3409950Y1587500D01*
X3409950Y1825310D02*
X3411170Y1826530D01*
X3409950Y1825310D02*
X3409950Y1587500D01*
D14*
X1125220Y1021080D03*
D33*
X1145540Y1041400D02*
X1174750Y1041400D01*
X1145540Y1041400D02*
X1125220Y1021080D01*
D14*
X1174750Y1041400D03*
D29*
X3060700Y1801130D02*
X3060700Y1826530D01*
X3060700Y1801130D02*
X3037570Y1778000D01*
X2897130Y1778000D01*
X2848600Y1826530D01*
D14*
X914400Y990600D03*
D33*
X920750Y996950D01*
D14*
X958850Y996950D03*
D33*
X920750Y996950D01*
D29*
X2851150Y1549400D02*
X2851150Y1823980D01*
X2848600Y1826530D01*
D14*
X2851150Y1549400D03*
X2870200Y1549400D03*
X2889250Y1549400D03*
X2908300Y1549400D03*
X2832100Y1549400D03*
X2832100Y1530350D03*
X2851150Y1530350D03*
X2870200Y1530350D03*
X2889250Y1530350D03*
X2908300Y1530350D03*
X2908300Y1511300D03*
X2889250Y1511300D03*
X2870200Y1511300D03*
X2851150Y1511300D03*
X2832100Y1511300D03*
X660400Y1162050D03*
D30*
X704850Y1162050D01*
D14*
X704850Y1162050D03*
X1009745Y1028700D03*
X984181Y1028700D03*
D33*
X1009745Y1028700D01*
D14*
X1253490Y1003300D03*
D33*
X1216660Y1003300D01*
X1214120Y1000760D01*
X1212768Y1000760D01*
D14*
X1212768Y1000760D03*
D33*
X984181Y1028700D02*
X984181Y1079500D01*
X939331Y1124350D01*
X863600Y1124350D01*
X939331Y1124350D02*
X1170540Y1124350D01*
X1212850Y1082040D01*
X1212850Y1000842D01*
X1212768Y1000760D01*
D14*
X2222500Y330200D03*
D33*
X2222500Y171450D01*
X2260600Y133350D01*
X3613150Y133350D01*
D14*
X3644900Y165100D03*
D33*
X3613150Y133350D01*
D14*
X2241550Y285750D03*
D33*
X2241468Y248706D02*
X2241550Y248624D01*
X2241550Y171450D01*
X2241468Y285668D02*
X2241550Y285750D01*
X2241468Y285668D02*
X2241468Y248706D01*
X2241550Y171450D02*
X2266950Y146050D01*
X3302000Y146050D02*
X3308350Y152400D01*
D14*
X3308350Y152400D03*
D33*
X3302000Y146050D02*
X2266950Y146050D01*
D14*
X2266950Y234950D03*
D33*
X2266950Y184150D01*
X2279650Y171450D01*
X2508250Y171450D01*
X2508250Y171532D01*
D14*
X2508250Y171532D03*
X2254250Y254000D03*
D33*
X2254250Y177800D01*
X2273300Y158750D01*
X2876550Y158750D02*
X2882900Y165100D01*
D14*
X2882900Y165100D03*
D33*
X2876550Y158750D02*
X2273300Y158750D01*
D14*
X3302000Y660400D03*
X3302000Y635000D03*
X3302000Y609600D03*
X3302000Y584200D03*
X3327400Y584200D03*
X3327400Y609600D03*
X3352800Y584200D03*
X3378200Y558800D03*
X3378200Y584200D03*
X3352800Y558800D03*
X3327400Y558800D03*
X3302000Y558800D03*
X3276600Y558800D03*
X3276600Y584200D03*
X3276600Y609600D03*
X3276600Y635000D03*
X3276600Y660400D03*
X3403600Y558800D03*
X3454400Y558800D03*
X3429000Y558800D03*
X3479800Y558800D03*
X3505200Y558800D03*
X3505200Y584200D03*
X3479800Y584200D03*
X3505200Y609600D03*
X3505200Y635000D03*
X3530600Y635000D03*
X3530600Y609600D03*
X3530600Y584200D03*
X3530600Y558800D03*
X3530600Y660400D03*
X3505200Y660400D03*
X3505200Y685800D03*
X3530600Y685800D03*
X3505200Y711200D03*
X3479800Y736600D03*
X3454400Y762000D03*
X3429000Y762000D03*
X3403600Y762000D03*
X3378200Y762000D03*
X3352800Y736600D03*
X3352800Y762000D03*
X3327400Y736600D03*
X3327400Y711200D03*
X3327400Y685800D03*
X3302000Y685800D03*
X3302000Y711200D03*
X3276600Y685800D03*
X3327400Y660400D03*
X3327400Y635000D03*
D29*
X2410883Y270933D02*
X2410883Y214995D01*
X2410883Y270933D02*
X2413000Y273050D01*
X2768600Y260350D02*
X2768600Y214995D01*
X2768600Y260350D02*
X2762250Y266700D01*
D14*
X2387600Y254000D03*
X2406650Y254000D03*
X2438400Y254000D03*
X2330450Y342900D03*
X2489200Y711200D03*
X2514600Y736600D03*
X2463800Y660400D03*
X2489200Y609600D03*
X2463800Y609600D03*
X2463800Y635000D03*
X2489200Y635000D03*
X2489200Y660400D03*
X2489200Y685800D03*
X2463800Y685800D03*
X2463800Y711200D03*
X2463800Y736600D03*
X2489200Y736600D03*
X2641600Y736600D03*
X2667000Y736600D03*
X2667000Y711200D03*
X2667000Y685800D03*
X2692400Y685800D03*
X2692400Y711200D03*
X2692400Y736600D03*
X2717800Y736600D03*
X2717800Y711200D03*
X2717800Y685800D03*
X2743200Y685800D03*
X2743200Y711200D03*
X2768600Y711200D03*
X2768600Y685800D03*
X2794000Y685800D03*
X2794000Y660400D03*
X2768600Y660400D03*
X2743200Y660400D03*
X2717800Y660400D03*
X2692400Y660400D03*
X2692400Y635000D03*
X2667000Y635000D03*
X2667000Y609600D03*
X2641600Y584200D03*
X2667000Y584200D03*
X2616200Y558800D03*
X2565400Y558800D03*
X2590800Y558800D03*
X2540000Y558800D03*
X2514600Y584200D03*
X2489200Y584200D03*
X2489200Y558800D03*
X2514600Y558800D03*
X2463800Y558800D03*
X2463800Y584200D03*
X2641600Y558800D03*
X2667000Y558800D03*
X2692400Y558800D03*
X2692400Y584200D03*
X2692400Y609600D03*
X2717800Y609600D03*
X2717800Y635000D03*
X2743200Y635000D03*
X2743200Y609600D03*
X2743200Y584200D03*
X2717800Y584200D03*
X2717800Y558800D03*
X2743200Y558800D03*
X2768600Y558800D03*
X2768600Y584200D03*
X2768600Y609600D03*
X2768600Y635000D03*
X2794000Y635000D03*
X2794000Y609600D03*
X2794000Y584200D03*
X2794000Y558800D03*
X2819400Y558800D03*
X2819400Y584200D03*
X2819400Y609600D03*
X2819400Y635000D03*
X2844800Y609600D03*
X2844800Y635000D03*
X2844800Y584200D03*
X2844800Y558800D03*
X2870200Y558800D03*
X2870200Y584200D03*
X2870200Y609600D03*
X2438400Y558800D03*
X2438400Y584200D03*
X2438400Y609600D03*
X2438400Y635000D03*
X2438400Y660400D03*
X2438400Y685800D03*
X2438400Y711200D03*
X2438400Y736600D03*
X2413000Y736600D03*
X2413000Y711200D03*
X2413000Y685800D03*
X2413000Y660400D03*
X2413000Y635000D03*
X2413000Y609600D03*
X2413000Y584200D03*
X2413000Y558800D03*
X2387600Y558800D03*
X2387600Y584200D03*
X2387600Y609600D03*
X2387600Y660400D03*
X2387600Y635000D03*
X2387600Y685800D03*
X2387600Y711200D03*
X2362200Y685800D03*
X2362200Y635000D03*
X2362200Y660400D03*
X2362200Y609600D03*
X2362200Y584200D03*
X2362200Y558800D03*
X2336800Y558800D03*
X2336800Y584200D03*
X2336800Y609600D03*
X2336800Y635000D03*
X2336800Y660400D03*
X2819400Y660400D03*
X2540000Y584200D03*
X2616200Y584200D03*
X2565400Y533400D03*
X2616200Y533400D03*
X2590800Y533400D03*
X2565400Y508000D03*
X2540000Y508000D03*
X2540000Y533400D03*
X2514600Y533400D03*
X2514600Y508000D03*
X2590800Y508000D03*
X2616200Y508000D03*
X2641600Y508000D03*
X2641600Y533400D03*
X2667000Y533400D03*
X2667000Y508000D03*
X2743200Y254000D03*
X2768600Y254000D03*
X2794000Y254000D03*
X2819400Y254000D03*
X2844800Y254000D03*
X2870200Y254000D03*
X2870200Y279400D03*
X2844800Y279400D03*
X2819400Y279400D03*
X2794000Y279400D03*
X2768600Y279400D03*
X2743200Y279400D03*
X2717800Y279400D03*
X2667000Y279400D03*
X2692400Y254000D03*
X2667000Y254000D03*
X2692400Y279400D03*
X2641600Y279400D03*
X2616200Y279400D03*
X2590800Y279400D03*
X2590800Y254000D03*
X2616200Y254000D03*
X2565400Y254000D03*
X2565400Y279400D03*
X2540000Y279400D03*
X2514600Y279400D03*
X2489200Y279400D03*
X2463800Y279400D03*
X2438400Y279400D03*
X2413000Y279400D03*
X2387600Y279400D03*
X2387600Y304800D03*
X2413000Y304800D03*
X2438400Y304800D03*
X2463800Y304800D03*
X2768600Y304800D03*
X2743200Y304800D03*
X2794000Y304800D03*
X2819400Y304800D03*
X2819400Y330200D03*
X2794000Y330200D03*
X2768600Y330200D03*
X2743200Y330200D03*
X2717800Y330200D03*
X2489200Y304800D03*
X2540000Y304800D03*
X2590800Y304800D03*
X2616200Y304800D03*
X2667000Y304800D03*
X2641600Y304800D03*
X2565400Y304800D03*
X2514600Y304800D03*
X2692400Y304800D03*
X2717800Y304800D03*
X2692400Y330200D03*
X2667000Y330200D03*
X2641600Y330200D03*
X2590800Y330200D03*
X2565400Y330200D03*
X2540000Y330200D03*
X2514600Y330200D03*
X2489200Y330200D03*
X2463800Y330200D03*
X2413000Y330200D03*
X2438400Y330200D03*
X2387600Y330200D03*
X2362200Y330200D03*
X2616200Y330200D03*
X2844800Y304800D03*
X2844800Y330200D03*
X2870200Y330200D03*
X2870200Y304800D03*
X1449070Y116840D03*
D31*
X1468120Y104140D02*
X1468120Y85090D01*
X1468120Y104140D02*
X1455420Y116840D01*
X1449070Y116840D01*
D14*
X1468120Y85090D03*
X1821180Y58420D03*
D31*
X1821180Y121920D01*
X1828800Y129540D01*
D14*
X1828800Y129540D03*
X1009650Y322580D03*
X1014095Y441325D03*
D31*
X1009650Y436880D02*
X1009650Y322580D01*
X1009650Y436880D02*
X1014095Y441325D01*
D30*
X399650Y711200D02*
X367900Y742950D01*
X254000Y742950D01*
D14*
X254000Y742950D03*
X266700Y565150D03*
D30*
X228600Y603250D01*
D14*
X228600Y831850D03*
D30*
X228600Y603250D01*
D14*
X202308Y1047750D03*
D30*
X228958Y1021100D01*
X273050Y1021100D01*
D14*
X368300Y1333500D03*
D30*
X444100Y1333500D01*
X494900Y1282700D01*
X476250Y1123950D02*
X476250Y1021100D01*
X476250Y1123950D02*
X412750Y1187450D01*
X412750Y1111250D02*
X412750Y1092200D01*
X400050Y1079500D01*
X196850Y1079500D01*
X184150Y1066800D01*
X184150Y1016000D01*
D14*
X184150Y1016000D03*
X2260600Y76200D03*
X2260600Y50800D03*
X2260600Y25400D03*
X2286000Y25400D03*
X2286000Y50800D03*
X2286000Y76200D03*
X2311400Y76200D03*
X2311400Y50800D03*
X2311400Y25400D03*
X2336800Y25400D03*
X2336800Y50800D03*
X2336800Y76200D03*
X2235200Y76200D03*
X2235200Y50800D03*
X2235200Y25400D03*
X2362200Y25400D03*
X2362200Y50800D03*
X2362200Y76200D03*
X2387600Y76200D03*
X2387600Y50800D03*
X2387600Y25400D03*
X2692400Y76200D03*
X2717800Y76200D03*
X2743200Y76200D03*
X2768600Y76200D03*
X2768600Y50800D03*
X2743200Y50800D03*
X2717800Y50800D03*
X2692400Y50800D03*
X2692400Y25400D03*
X2717800Y25400D03*
X2743200Y25400D03*
X2768600Y25400D03*
X2794000Y25400D03*
X2794000Y50800D03*
X2794000Y76200D03*
X2819400Y76200D03*
X2819400Y50800D03*
X2819400Y25400D03*
X3657600Y76200D03*
X3657600Y50800D03*
X3657600Y25400D03*
X3683000Y25400D03*
X3708400Y25400D03*
X3733800Y25400D03*
X3759200Y25400D03*
X3759200Y50800D03*
X3632200Y76200D03*
X3606800Y76200D03*
X3556000Y76200D03*
X3581400Y76200D03*
X3530600Y76200D03*
X3505200Y76200D03*
X3479800Y76200D03*
X3454400Y76200D03*
X3632200Y50800D03*
X3632200Y25400D03*
X3606800Y25400D03*
X3606800Y50800D03*
X3581400Y50800D03*
X3556000Y50800D03*
X3530600Y50800D03*
X3479800Y50800D03*
X3505200Y50800D03*
X3454400Y50800D03*
X3454400Y25400D03*
X3479800Y25400D03*
X3530600Y25400D03*
X3556000Y25400D03*
X3581400Y25400D03*
X3505200Y25400D03*
X3098800Y76200D03*
X3124200Y76200D03*
X3149600Y76200D03*
X3175000Y76200D03*
X3200400Y76200D03*
X3200400Y50800D03*
X3175000Y50800D03*
X3149600Y50800D03*
X3124200Y50800D03*
X3098800Y50800D03*
X3098800Y25400D03*
X3149600Y25400D03*
X3124200Y25400D03*
X3175000Y25400D03*
X3200400Y25400D03*
X3225800Y25400D03*
X3225800Y50800D03*
X3225800Y76200D03*
X1944370Y269240D03*
X1924050Y346710D03*
X3705860Y91440D03*
D31*
X3686810Y110490D01*
D14*
X2166620Y110490D03*
X2042160Y881380D03*
D32*
X2042160Y1193800D01*
X2065020Y1216660D01*
X2065020Y1268730D01*
D30*
X2063750Y1270000D01*
D14*
X952500Y853200D03*
X1181100Y849630D03*
X2127250Y148590D03*
D31*
X2166620Y110490D02*
X3686810Y110490D01*
D14*
X2311400Y939800D03*
X2336800Y914400D03*
X2336800Y889000D03*
X2336800Y863600D03*
X2286000Y838200D03*
X2260600Y812800D03*
X2235200Y787400D03*
X2209800Y762000D03*
X2184400Y736600D03*
X2184400Y711200D03*
X2184400Y685800D03*
X2184400Y660400D03*
X2184400Y635000D03*
X2184400Y609600D03*
X2184400Y584200D03*
X2184400Y533400D03*
X2184400Y508000D03*
X2184400Y482600D03*
X2184400Y457200D03*
X2184400Y431800D03*
X2184400Y406400D03*
X2184400Y254000D03*
X2184400Y330200D03*
X2184400Y203200D03*
X2184400Y177800D03*
X2184400Y152400D03*
X2184400Y101600D03*
X2184400Y76200D03*
X2184400Y50800D03*
X2184400Y25400D03*
X2159000Y25400D03*
X2133600Y25400D03*
X2108200Y25400D03*
X2082800Y25400D03*
X2057400Y25400D03*
X2032000Y25400D03*
X2006600Y25400D03*
X1981200Y25400D03*
X1955800Y25400D03*
X1930400Y25400D03*
X1905000Y25400D03*
X1879600Y25400D03*
X1854200Y25400D03*
X1193800Y76200D03*
X1193800Y50800D03*
X1168400Y50800D03*
X1168400Y76200D03*
X1143000Y76200D03*
X1143000Y50800D03*
X457200Y-50800D03*
X50800Y152400D03*
X508000Y457200D03*
X762000Y508000D03*
X939800Y482600D03*
X711200Y812800D03*
X1066800Y819150D03*
X863600Y812800D03*
X1244600Y812800D03*
X304800Y787400D03*
X279400Y711200D03*
X1892300Y127000D03*
X1143000Y388620D03*
X2235200Y0D03*
X2260600Y0D03*
X2286000Y0D03*
X2311400Y0D03*
X2336800Y0D03*
X2362200Y0D03*
X2387600Y0D03*
X2387600Y-25400D03*
X2387600Y-50800D03*
X2387600Y-76200D03*
X2362200Y-76200D03*
X2336800Y-76200D03*
X2311400Y-76200D03*
X2286000Y-76200D03*
X2260600Y-76200D03*
X2260600Y-50800D03*
X2260600Y-25400D03*
X2286000Y-25400D03*
X2311400Y-25400D03*
X2336800Y-25400D03*
X2362200Y-25400D03*
X2362200Y-50800D03*
X2336800Y-50800D03*
X2311400Y-50800D03*
X2286000Y-50800D03*
X2692400Y0D03*
X2692400Y-25400D03*
X2692400Y-50800D03*
X2692400Y-76200D03*
X2717800Y-76200D03*
X2717800Y-50800D03*
X2717800Y-25400D03*
X2717800Y0D03*
X2743200Y0D03*
X2743200Y-25400D03*
X2743200Y-50800D03*
X2743200Y-76200D03*
X2768600Y-76200D03*
X2768600Y-50800D03*
X2768600Y-25400D03*
X2768600Y0D03*
X2794000Y0D03*
X2794000Y-25400D03*
X2794000Y-50800D03*
X2794000Y-76200D03*
X2819400Y0D03*
X2819400Y-25400D03*
X2819400Y-50800D03*
X2819400Y-76200D03*
X3098800Y0D03*
X3098800Y-25400D03*
X3124200Y0D03*
X3124200Y-25400D03*
X3124200Y-50800D03*
X3124200Y-76200D03*
X3098800Y-76200D03*
X3098800Y-50800D03*
X3149600Y-25400D03*
X3149600Y0D03*
X3149600Y-50800D03*
X3149600Y-76200D03*
X3175000Y-76200D03*
X3175000Y-50800D03*
X3175000Y-25400D03*
X3175000Y0D03*
X3200400Y0D03*
X3200400Y-25400D03*
X3200400Y-50800D03*
X3200400Y-76200D03*
X3225800Y-76200D03*
X3225800Y-50800D03*
X3225800Y-25400D03*
X3225800Y0D03*
X3454400Y0D03*
X3454400Y-25400D03*
X3454400Y-50800D03*
X3454400Y-76200D03*
X3479800Y-76200D03*
X3479800Y-50800D03*
X3479800Y-25400D03*
X3479800Y0D03*
X3505200Y0D03*
X3505200Y-25400D03*
X3505200Y-50800D03*
X3505200Y-76200D03*
X3530600Y-76200D03*
X3530600Y-50800D03*
X3530600Y-25400D03*
X3530600Y0D03*
X3556000Y0D03*
X3556000Y-25400D03*
X3556000Y-50800D03*
X3556000Y-76200D03*
X3581400Y-76200D03*
X3581400Y-50800D03*
X3581400Y-25400D03*
X3581400Y0D03*
X3606800Y0D03*
X3606800Y-25400D03*
X3606800Y-50800D03*
X3606800Y-76200D03*
X3632200Y-76200D03*
X3632200Y-50800D03*
X3632200Y-25400D03*
X3632200Y0D03*
X3657600Y0D03*
X3657600Y-25400D03*
X3657600Y-50800D03*
X3657600Y-76200D03*
X3683000Y-76200D03*
X3683000Y-50800D03*
X3683000Y-25400D03*
X3683000Y0D03*
X3708400Y0D03*
X3708400Y-25400D03*
X3708400Y-50800D03*
X3708400Y-76200D03*
X3733800Y-76200D03*
X3733800Y-50800D03*
X3733800Y-25400D03*
X3733800Y0D03*
X3759200Y0D03*
X3759200Y-25400D03*
X3759200Y-50800D03*
X3759200Y-76200D03*
X3784600Y-76200D03*
X3784600Y-50800D03*
X3784600Y-25400D03*
X3784600Y0D03*
X3784600Y25400D03*
X3784600Y50800D03*
X2235200Y-25400D03*
X2235200Y-50800D03*
X2235200Y-76200D03*
X533400Y863600D03*
X584200Y863600D03*
X635000Y863600D03*
X685800Y863600D03*
X736600Y863600D03*
X787400Y863600D03*
X50800Y863600D03*
X50800Y812800D03*
X50800Y762000D03*
X50800Y711200D03*
X50800Y660400D03*
X50800Y609600D03*
X50800Y558800D03*
X50800Y508000D03*
X50800Y457200D03*
X50800Y406400D03*
X50800Y355600D03*
X50800Y304800D03*
X50800Y254000D03*
X50800Y203200D03*
X50800Y101600D03*
X50800Y50800D03*
X50800Y0D03*
X50800Y-50800D03*
X101600Y-50800D03*
X152400Y-50800D03*
X203200Y-50800D03*
X254000Y-50800D03*
X304800Y-50800D03*
X355600Y-50800D03*
X406400Y-50800D03*
X939800Y508000D03*
X939800Y533400D03*
X939800Y558800D03*
X939800Y457200D03*
X939800Y431800D03*
X939800Y406400D03*
X939800Y381000D03*
X1219200Y508000D03*
X1219200Y482600D03*
X1219200Y457200D03*
X1219200Y431800D03*
X1219200Y406400D03*
X1219200Y381000D03*
X1295400Y635000D03*
X1295400Y584200D03*
X1066800Y762000D03*
X1066800Y711200D03*
X1066800Y660400D03*
X1041400Y685800D03*
X1041400Y736600D03*
X1041400Y787400D03*
X1041400Y838200D03*
X1092200Y838200D03*
X1092200Y787400D03*
X1092200Y736600D03*
X1092200Y685800D03*
X1295400Y762000D03*
X1346200Y711200D03*
X1295400Y711200D03*
X1295400Y812800D03*
X1346200Y762000D03*
X1346200Y812800D03*
X381000Y787400D03*
X279400Y609600D03*
X406400Y660400D03*
X533400Y685800D03*
X533400Y660400D03*
X533400Y635000D03*
X508000Y711200D03*
X457200Y711200D03*
X431800Y711200D03*
X406400Y685800D03*
X508000Y558800D03*
X508000Y508000D03*
X508000Y533400D03*
X508000Y482600D03*
X920750Y717550D03*
X990600Y704850D03*
X1149350Y723900D03*
X1143000Y139700D03*
X1117600Y139700D03*
X1092200Y139700D03*
X1066800Y139700D03*
X1219200Y317500D03*
X1314450Y317500D03*
X1428750Y317500D03*
X1517650Y317500D03*
X1314450Y279400D03*
X1219200Y279400D03*
X1428750Y279400D03*
X1517650Y279400D03*
X1822450Y400050D03*
X1905000Y400050D03*
X1905000Y444500D03*
X1822450Y450850D03*
X2178050Y298450D03*
X1885950Y323850D03*
X1854200Y285750D03*
X1930400Y234950D03*
X359410Y518160D03*
X250190Y513080D03*
D30*
X1822236Y1009864D02*
X1822236Y1271524D01*
X1822236Y1009864D02*
X1822450Y1009650D01*
M02*
