G04 EAGLE Gerber RS-274X export*
G75*
%MOMM*%
%FSLAX34Y34*%
%LPD*%
%IN*%
%IPPOS*%
%AMOC8*
5,1,8,0,0,1.08239X$1,22.5*%
G01*
%ADD10C,0.000000*%
%ADD11C,0.254000*%


D10*
X0Y-100000D02*
X3820000Y-100000D01*
X3820000Y2100000D01*
X0Y2100000D01*
X0Y-100000D01*
X3753640Y2066290D02*
X3753642Y2066373D01*
X3753648Y2066456D01*
X3753658Y2066539D01*
X3753672Y2066621D01*
X3753689Y2066703D01*
X3753711Y2066783D01*
X3753736Y2066862D01*
X3753765Y2066940D01*
X3753798Y2067017D01*
X3753835Y2067092D01*
X3753874Y2067165D01*
X3753918Y2067236D01*
X3753964Y2067305D01*
X3754014Y2067372D01*
X3754067Y2067436D01*
X3754123Y2067498D01*
X3754182Y2067557D01*
X3754244Y2067613D01*
X3754308Y2067666D01*
X3754375Y2067716D01*
X3754444Y2067762D01*
X3754515Y2067806D01*
X3754588Y2067845D01*
X3754663Y2067882D01*
X3754740Y2067915D01*
X3754818Y2067944D01*
X3754897Y2067969D01*
X3754977Y2067991D01*
X3755059Y2068008D01*
X3755141Y2068022D01*
X3755224Y2068032D01*
X3755307Y2068038D01*
X3755390Y2068040D01*
X3755473Y2068038D01*
X3755556Y2068032D01*
X3755639Y2068022D01*
X3755721Y2068008D01*
X3755803Y2067991D01*
X3755883Y2067969D01*
X3755962Y2067944D01*
X3756040Y2067915D01*
X3756117Y2067882D01*
X3756192Y2067845D01*
X3756265Y2067806D01*
X3756336Y2067762D01*
X3756405Y2067716D01*
X3756472Y2067666D01*
X3756536Y2067613D01*
X3756598Y2067557D01*
X3756657Y2067498D01*
X3756713Y2067436D01*
X3756766Y2067372D01*
X3756816Y2067305D01*
X3756862Y2067236D01*
X3756906Y2067165D01*
X3756945Y2067092D01*
X3756982Y2067017D01*
X3757015Y2066940D01*
X3757044Y2066862D01*
X3757069Y2066783D01*
X3757091Y2066703D01*
X3757108Y2066621D01*
X3757122Y2066539D01*
X3757132Y2066456D01*
X3757138Y2066373D01*
X3757140Y2066290D01*
X3757138Y2066207D01*
X3757132Y2066124D01*
X3757122Y2066041D01*
X3757108Y2065959D01*
X3757091Y2065877D01*
X3757069Y2065797D01*
X3757044Y2065718D01*
X3757015Y2065640D01*
X3756982Y2065563D01*
X3756945Y2065488D01*
X3756906Y2065415D01*
X3756862Y2065344D01*
X3756816Y2065275D01*
X3756766Y2065208D01*
X3756713Y2065144D01*
X3756657Y2065082D01*
X3756598Y2065023D01*
X3756536Y2064967D01*
X3756472Y2064914D01*
X3756405Y2064864D01*
X3756336Y2064818D01*
X3756265Y2064774D01*
X3756192Y2064735D01*
X3756117Y2064698D01*
X3756040Y2064665D01*
X3755962Y2064636D01*
X3755883Y2064611D01*
X3755803Y2064589D01*
X3755721Y2064572D01*
X3755639Y2064558D01*
X3755556Y2064548D01*
X3755473Y2064542D01*
X3755390Y2064540D01*
X3755307Y2064542D01*
X3755224Y2064548D01*
X3755141Y2064558D01*
X3755059Y2064572D01*
X3754977Y2064589D01*
X3754897Y2064611D01*
X3754818Y2064636D01*
X3754740Y2064665D01*
X3754663Y2064698D01*
X3754588Y2064735D01*
X3754515Y2064774D01*
X3754444Y2064818D01*
X3754375Y2064864D01*
X3754308Y2064914D01*
X3754244Y2064967D01*
X3754182Y2065023D01*
X3754123Y2065082D01*
X3754067Y2065144D01*
X3754014Y2065208D01*
X3753964Y2065275D01*
X3753918Y2065344D01*
X3753874Y2065415D01*
X3753835Y2065488D01*
X3753798Y2065563D01*
X3753765Y2065640D01*
X3753736Y2065718D01*
X3753711Y2065797D01*
X3753689Y2065877D01*
X3753672Y2065959D01*
X3753658Y2066041D01*
X3753648Y2066124D01*
X3753642Y2066207D01*
X3753640Y2066290D01*
X2093750Y381000D02*
X2093752Y381083D01*
X2093758Y381166D01*
X2093768Y381249D01*
X2093782Y381331D01*
X2093799Y381413D01*
X2093821Y381493D01*
X2093846Y381572D01*
X2093875Y381650D01*
X2093908Y381727D01*
X2093945Y381802D01*
X2093984Y381875D01*
X2094028Y381946D01*
X2094074Y382015D01*
X2094124Y382082D01*
X2094177Y382146D01*
X2094233Y382208D01*
X2094292Y382267D01*
X2094354Y382323D01*
X2094418Y382376D01*
X2094485Y382426D01*
X2094554Y382472D01*
X2094625Y382516D01*
X2094698Y382555D01*
X2094773Y382592D01*
X2094850Y382625D01*
X2094928Y382654D01*
X2095007Y382679D01*
X2095087Y382701D01*
X2095169Y382718D01*
X2095251Y382732D01*
X2095334Y382742D01*
X2095417Y382748D01*
X2095500Y382750D01*
X2095583Y382748D01*
X2095666Y382742D01*
X2095749Y382732D01*
X2095831Y382718D01*
X2095913Y382701D01*
X2095993Y382679D01*
X2096072Y382654D01*
X2096150Y382625D01*
X2096227Y382592D01*
X2096302Y382555D01*
X2096375Y382516D01*
X2096446Y382472D01*
X2096515Y382426D01*
X2096582Y382376D01*
X2096646Y382323D01*
X2096708Y382267D01*
X2096767Y382208D01*
X2096823Y382146D01*
X2096876Y382082D01*
X2096926Y382015D01*
X2096972Y381946D01*
X2097016Y381875D01*
X2097055Y381802D01*
X2097092Y381727D01*
X2097125Y381650D01*
X2097154Y381572D01*
X2097179Y381493D01*
X2097201Y381413D01*
X2097218Y381331D01*
X2097232Y381249D01*
X2097242Y381166D01*
X2097248Y381083D01*
X2097250Y381000D01*
X2097248Y380917D01*
X2097242Y380834D01*
X2097232Y380751D01*
X2097218Y380669D01*
X2097201Y380587D01*
X2097179Y380507D01*
X2097154Y380428D01*
X2097125Y380350D01*
X2097092Y380273D01*
X2097055Y380198D01*
X2097016Y380125D01*
X2096972Y380054D01*
X2096926Y379985D01*
X2096876Y379918D01*
X2096823Y379854D01*
X2096767Y379792D01*
X2096708Y379733D01*
X2096646Y379677D01*
X2096582Y379624D01*
X2096515Y379574D01*
X2096446Y379528D01*
X2096375Y379484D01*
X2096302Y379445D01*
X2096227Y379408D01*
X2096150Y379375D01*
X2096072Y379346D01*
X2095993Y379321D01*
X2095913Y379299D01*
X2095831Y379282D01*
X2095749Y379268D01*
X2095666Y379258D01*
X2095583Y379252D01*
X2095500Y379250D01*
X2095417Y379252D01*
X2095334Y379258D01*
X2095251Y379268D01*
X2095169Y379282D01*
X2095087Y379299D01*
X2095007Y379321D01*
X2094928Y379346D01*
X2094850Y379375D01*
X2094773Y379408D01*
X2094698Y379445D01*
X2094625Y379484D01*
X2094554Y379528D01*
X2094485Y379574D01*
X2094418Y379624D01*
X2094354Y379677D01*
X2094292Y379733D01*
X2094233Y379792D01*
X2094177Y379854D01*
X2094124Y379918D01*
X2094074Y379985D01*
X2094028Y380054D01*
X2093984Y380125D01*
X2093945Y380198D01*
X2093908Y380273D01*
X2093875Y380350D01*
X2093846Y380428D01*
X2093821Y380507D01*
X2093799Y380587D01*
X2093782Y380669D01*
X2093768Y380751D01*
X2093758Y380834D01*
X2093752Y380917D01*
X2093750Y381000D01*
X134140Y39370D02*
X134142Y39453D01*
X134148Y39536D01*
X134158Y39619D01*
X134172Y39701D01*
X134189Y39783D01*
X134211Y39863D01*
X134236Y39942D01*
X134265Y40020D01*
X134298Y40097D01*
X134335Y40172D01*
X134374Y40245D01*
X134418Y40316D01*
X134464Y40385D01*
X134514Y40452D01*
X134567Y40516D01*
X134623Y40578D01*
X134682Y40637D01*
X134744Y40693D01*
X134808Y40746D01*
X134875Y40796D01*
X134944Y40842D01*
X135015Y40886D01*
X135088Y40925D01*
X135163Y40962D01*
X135240Y40995D01*
X135318Y41024D01*
X135397Y41049D01*
X135477Y41071D01*
X135559Y41088D01*
X135641Y41102D01*
X135724Y41112D01*
X135807Y41118D01*
X135890Y41120D01*
X135973Y41118D01*
X136056Y41112D01*
X136139Y41102D01*
X136221Y41088D01*
X136303Y41071D01*
X136383Y41049D01*
X136462Y41024D01*
X136540Y40995D01*
X136617Y40962D01*
X136692Y40925D01*
X136765Y40886D01*
X136836Y40842D01*
X136905Y40796D01*
X136972Y40746D01*
X137036Y40693D01*
X137098Y40637D01*
X137157Y40578D01*
X137213Y40516D01*
X137266Y40452D01*
X137316Y40385D01*
X137362Y40316D01*
X137406Y40245D01*
X137445Y40172D01*
X137482Y40097D01*
X137515Y40020D01*
X137544Y39942D01*
X137569Y39863D01*
X137591Y39783D01*
X137608Y39701D01*
X137622Y39619D01*
X137632Y39536D01*
X137638Y39453D01*
X137640Y39370D01*
X137638Y39287D01*
X137632Y39204D01*
X137622Y39121D01*
X137608Y39039D01*
X137591Y38957D01*
X137569Y38877D01*
X137544Y38798D01*
X137515Y38720D01*
X137482Y38643D01*
X137445Y38568D01*
X137406Y38495D01*
X137362Y38424D01*
X137316Y38355D01*
X137266Y38288D01*
X137213Y38224D01*
X137157Y38162D01*
X137098Y38103D01*
X137036Y38047D01*
X136972Y37994D01*
X136905Y37944D01*
X136836Y37898D01*
X136765Y37854D01*
X136692Y37815D01*
X136617Y37778D01*
X136540Y37745D01*
X136462Y37716D01*
X136383Y37691D01*
X136303Y37669D01*
X136221Y37652D01*
X136139Y37638D01*
X136056Y37628D01*
X135973Y37622D01*
X135890Y37620D01*
X135807Y37622D01*
X135724Y37628D01*
X135641Y37638D01*
X135559Y37652D01*
X135477Y37669D01*
X135397Y37691D01*
X135318Y37716D01*
X135240Y37745D01*
X135163Y37778D01*
X135088Y37815D01*
X135015Y37854D01*
X134944Y37898D01*
X134875Y37944D01*
X134808Y37994D01*
X134744Y38047D01*
X134682Y38103D01*
X134623Y38162D01*
X134567Y38224D01*
X134514Y38288D01*
X134464Y38355D01*
X134418Y38424D01*
X134374Y38495D01*
X134335Y38568D01*
X134298Y38643D01*
X134265Y38720D01*
X134236Y38798D01*
X134211Y38877D01*
X134189Y38957D01*
X134172Y39039D01*
X134158Y39121D01*
X134148Y39204D01*
X134142Y39287D01*
X134140Y39370D01*
D11*
X0Y-100000D02*
X3820000Y-100000D01*
X3820000Y2100000D01*
X0Y2100000D01*
X0Y-100000D01*
X3757140Y2066118D02*
X3757073Y2065780D01*
X3756941Y2065461D01*
X3756749Y2065174D01*
X3756506Y2064931D01*
X3756219Y2064739D01*
X3755900Y2064607D01*
X3755562Y2064540D01*
X3755218Y2064540D01*
X3754880Y2064607D01*
X3754561Y2064739D01*
X3754274Y2064931D01*
X3754031Y2065174D01*
X3753839Y2065461D01*
X3753707Y2065780D01*
X3753640Y2066118D01*
X3753640Y2066462D01*
X3753707Y2066800D01*
X3753839Y2067119D01*
X3754031Y2067406D01*
X3754274Y2067649D01*
X3754561Y2067841D01*
X3754880Y2067973D01*
X3755218Y2068040D01*
X3755562Y2068040D01*
X3755900Y2067973D01*
X3756219Y2067841D01*
X3756506Y2067649D01*
X3756749Y2067406D01*
X3756941Y2067119D01*
X3757073Y2066800D01*
X3757140Y2066462D01*
X3757140Y2066118D01*
X2097250Y380828D02*
X2097183Y380490D01*
X2097051Y380171D01*
X2096859Y379884D01*
X2096616Y379641D01*
X2096329Y379449D01*
X2096010Y379317D01*
X2095672Y379250D01*
X2095328Y379250D01*
X2094990Y379317D01*
X2094671Y379449D01*
X2094384Y379641D01*
X2094141Y379884D01*
X2093949Y380171D01*
X2093817Y380490D01*
X2093750Y380828D01*
X2093750Y381172D01*
X2093817Y381510D01*
X2093949Y381829D01*
X2094141Y382116D01*
X2094384Y382359D01*
X2094671Y382551D01*
X2094990Y382683D01*
X2095328Y382750D01*
X2095672Y382750D01*
X2096010Y382683D01*
X2096329Y382551D01*
X2096616Y382359D01*
X2096859Y382116D01*
X2097051Y381829D01*
X2097183Y381510D01*
X2097250Y381172D01*
X2097250Y380828D01*
X137640Y39198D02*
X137573Y38860D01*
X137441Y38541D01*
X137249Y38254D01*
X137006Y38011D01*
X136719Y37819D01*
X136400Y37687D01*
X136062Y37620D01*
X135718Y37620D01*
X135380Y37687D01*
X135061Y37819D01*
X134774Y38011D01*
X134531Y38254D01*
X134339Y38541D01*
X134207Y38860D01*
X134140Y39198D01*
X134140Y39542D01*
X134207Y39880D01*
X134339Y40199D01*
X134531Y40486D01*
X134774Y40729D01*
X135061Y40921D01*
X135380Y41053D01*
X135718Y41120D01*
X136062Y41120D01*
X136400Y41053D01*
X136719Y40921D01*
X137006Y40729D01*
X137249Y40486D01*
X137441Y40199D01*
X137573Y39880D01*
X137640Y39542D01*
X137640Y39198D01*
M02*
